G04 Layer_Color=8388736*
%FSLAX25Y25*%
%MOIN*%
G70*
G01*
G75*
%ADD55R,0.07700X0.06300*%
%ADD56R,0.07887X0.14973*%
%ADD57R,0.14973X0.07887*%
%ADD58R,0.06706X0.07099*%
%ADD59R,0.06312X0.06706*%
%ADD60R,0.07099X0.06706*%
%ADD61R,0.03162X0.07887*%
%ADD62O,0.03162X0.07887*%
%ADD63R,0.06706X0.06312*%
%ADD64R,0.08674X0.14776*%
%ADD65O,0.03359X0.07887*%
%ADD66R,0.08871X0.17926*%
%ADD67R,0.12611X0.12611*%
%ADD68C,0.12611*%
%ADD69R,0.06706X0.06706*%
%ADD70C,0.06706*%
%ADD71R,0.12611X0.12611*%
%ADD72C,0.06800*%
%ADD73O,0.20485X0.12611*%
%ADD74O,0.10642X0.05918*%
%ADD75R,0.10642X0.05918*%
%ADD76C,0.05524*%
%ADD77C,0.16548*%
%ADD78C,0.08674*%
%ADD79C,0.03800*%
%ADD80C,0.03162*%
%ADD81C,0.05800*%
G36*
X46500Y-230795D02*
X49800Y-234095D01*
X49800Y-240595D01*
X48600Y-241795D01*
X23500Y-241795D01*
X22500Y-242795D01*
X22500Y-256795D01*
X21500Y-257795D01*
X8500Y-257795D01*
X7500Y-256795D01*
X7500Y-234795D01*
X11500Y-230795D01*
X46500Y-230795D01*
D02*
G37*
G36*
X148200Y-243653D02*
X151400Y-246853D01*
X151400Y-254053D01*
X147800Y-257653D01*
X119800Y-257653D01*
Y-243653D01*
X148200Y-243653D01*
D02*
G37*
G36*
X115000Y-210453D02*
X115000Y-217953D01*
X113500Y-219953D01*
X110000D01*
X109000Y-220953D01*
X109297Y-381453D01*
X15500D01*
X12500Y-378453D01*
X12500Y-370953D01*
X8000Y-366453D01*
X1000Y-366453D01*
X-3000Y-362453D01*
X-3000Y-320453D01*
X-500Y-317953D01*
X29500D01*
X32500Y-320953D01*
Y-345453D01*
X42500Y-355453D01*
X72500D01*
X86500Y-341453D01*
Y-318953D01*
X83041Y-315494D01*
X82771Y-223682D01*
X98943Y-207510D01*
X112500Y-207453D01*
X115000Y-210453D01*
D02*
G37*
G36*
X148200Y-207453D02*
X151400Y-210653D01*
X151400Y-217853D01*
X147800Y-221453D01*
X119800Y-221453D01*
Y-207453D01*
X148200Y-207453D01*
D02*
G37*
G36*
X115000Y-65453D02*
X129000Y-79453D01*
X147000Y-79453D01*
X155500Y-87953D01*
Y-140453D01*
X150000Y-145953D01*
X128000D01*
X108282Y-126235D01*
Y-99735D01*
X84000Y-74460D01*
Y-31953D01*
X75500Y-23453D01*
X43047Y-23453D01*
X32500Y-34000D01*
Y-57000D01*
X30000Y-59500D01*
X-500Y-59500D01*
X-2500Y-57500D01*
X-2500Y-16500D01*
X1000Y-13000D01*
X6500Y-13000D01*
X13006Y-6494D01*
X12996Y-4D01*
X16000Y3000D01*
X115000D01*
X115000Y-65453D01*
D02*
G37*
G36*
X46500Y-80953D02*
X49800Y-84253D01*
X49800Y-90753D01*
X48600Y-91953D01*
X23500Y-91953D01*
X22500Y-92953D01*
X22500Y-106953D01*
X21500Y-107953D01*
X8500Y-107953D01*
X7500Y-106953D01*
X7500Y-84953D01*
X11500Y-80953D01*
X46500Y-80953D01*
D02*
G37*
G36*
Y-155874D02*
X49800Y-159174D01*
X49800Y-165674D01*
X48600Y-166874D01*
X23500Y-166874D01*
X22500Y-167874D01*
X22500Y-181874D01*
X21500Y-182874D01*
X8500Y-182874D01*
X7500Y-181874D01*
X7500Y-159874D01*
X11500Y-155874D01*
X46500Y-155874D01*
D02*
G37*
D55*
X57050Y-238003D02*
D03*
Y-162903D02*
D03*
Y-87803D02*
D03*
D56*
X153929Y-98500D02*
D03*
X170071D02*
D03*
X201271Y-279900D02*
D03*
X185129D02*
D03*
D57*
X233000Y-341429D02*
D03*
Y-357571D02*
D03*
X212333Y-341429D02*
D03*
Y-357571D02*
D03*
X191667Y-341429D02*
D03*
Y-357571D02*
D03*
X171000Y-341429D02*
D03*
Y-357571D02*
D03*
X189167Y-25929D02*
D03*
Y-42071D02*
D03*
X230500Y-25929D02*
D03*
Y-42071D02*
D03*
X209833Y-25929D02*
D03*
Y-42071D02*
D03*
X168500Y-25929D02*
D03*
Y-42071D02*
D03*
D58*
X366760Y-214453D02*
D03*
X374240D02*
D03*
X357160Y-175353D02*
D03*
X364640D02*
D03*
X55340Y-127853D02*
D03*
X47860D02*
D03*
X55340Y-204653D02*
D03*
X47860D02*
D03*
X55340Y-281453D02*
D03*
X47860D02*
D03*
D59*
X364937Y-195953D02*
D03*
X357063D02*
D03*
X378137Y-44153D02*
D03*
X370263D02*
D03*
X370463Y-30353D02*
D03*
X378337D02*
D03*
X370163Y-12553D02*
D03*
X378037D02*
D03*
X345763Y-21353D02*
D03*
X353637D02*
D03*
X335537Y247D02*
D03*
X327663D02*
D03*
X327963Y-10603D02*
D03*
X335837D02*
D03*
X335537Y-21453D02*
D03*
X327663D02*
D03*
X317437Y147D02*
D03*
X309563D02*
D03*
X295063Y-230953D02*
D03*
X302937D02*
D03*
X295063Y-222953D02*
D03*
X302937D02*
D03*
X295063Y-214953D02*
D03*
X302937D02*
D03*
X295063Y-206953D02*
D03*
X302937D02*
D03*
X295063Y-198953D02*
D03*
X302937D02*
D03*
X295063Y-190953D02*
D03*
X302937D02*
D03*
D60*
X344000Y-146193D02*
D03*
Y-138713D02*
D03*
X363200Y-66293D02*
D03*
Y-58813D02*
D03*
X375900Y-182893D02*
D03*
Y-175413D02*
D03*
X344900Y-109693D02*
D03*
Y-102213D02*
D03*
X283500Y-241213D02*
D03*
Y-248693D02*
D03*
D61*
X378500Y-96453D02*
D03*
X336000Y-104953D02*
D03*
D62*
X373500Y-96453D02*
D03*
X368500D02*
D03*
X363500D02*
D03*
X378500Y-139366D02*
D03*
X373500D02*
D03*
X368500D02*
D03*
X363500D02*
D03*
X331000Y-104953D02*
D03*
X326000D02*
D03*
X321000D02*
D03*
X336000Y-147866D02*
D03*
X331000D02*
D03*
X326000D02*
D03*
X321000D02*
D03*
D63*
X353440Y-11200D02*
D03*
Y-3326D02*
D03*
X373700Y-148116D02*
D03*
Y-155990D02*
D03*
X311000Y-317016D02*
D03*
Y-324890D02*
D03*
X371600Y-63690D02*
D03*
Y-55816D02*
D03*
X379900Y-63690D02*
D03*
Y-55816D02*
D03*
D64*
X123719Y-250653D02*
D03*
X101081D02*
D03*
X123719Y-214453D02*
D03*
X101081D02*
D03*
D65*
X44500Y-260176D02*
D03*
X49500D02*
D03*
X54500D02*
D03*
X59500D02*
D03*
X44500Y-238129D02*
D03*
X49500D02*
D03*
X54500D02*
D03*
X59500D02*
D03*
X44500Y-185076D02*
D03*
X49500D02*
D03*
X54500D02*
D03*
X59500D02*
D03*
X44500Y-163029D02*
D03*
X49500D02*
D03*
X54500D02*
D03*
X59500D02*
D03*
X44500Y-109976D02*
D03*
X49500D02*
D03*
X54500D02*
D03*
X59500D02*
D03*
X44500Y-87929D02*
D03*
X49500D02*
D03*
X54500D02*
D03*
X59500D02*
D03*
D66*
X331106Y-261453D02*
D03*
X306894D02*
D03*
X306606Y-172953D02*
D03*
X282394D02*
D03*
X270787Y-145953D02*
D03*
X295000D02*
D03*
X271894Y-118953D02*
D03*
X296106D02*
D03*
X356594Y-81553D02*
D03*
X380806D02*
D03*
D67*
X15000Y-51842D02*
D03*
Y-345795D02*
D03*
Y-257795D02*
D03*
Y-182874D02*
D03*
Y-107953D02*
D03*
D68*
Y-32157D02*
D03*
Y-326110D02*
D03*
X48357Y-373453D02*
D03*
X15000Y-238110D02*
D03*
Y-163189D02*
D03*
Y-88268D02*
D03*
X71143Y-4753D02*
D03*
D69*
X62500Y-118953D02*
D03*
Y-194903D02*
D03*
Y-270853D02*
D03*
X332500Y-277453D02*
D03*
X375500Y-277453D02*
D03*
Y-241912D02*
D03*
X355500Y-206453D02*
D03*
X376100Y-166953D02*
D03*
D70*
X52500Y-118953D02*
D03*
X42500D02*
D03*
X52500Y-194903D02*
D03*
X42500D02*
D03*
X52500Y-270853D02*
D03*
X42500D02*
D03*
X312500Y-277453D02*
D03*
X322500D02*
D03*
X355500Y-277453D02*
D03*
X365500D02*
D03*
X355500Y-241912D02*
D03*
X365500D02*
D03*
X375500Y-206453D02*
D03*
X365500D02*
D03*
X109500Y-214753D02*
D03*
Y-126170D02*
D03*
X356100Y-166953D02*
D03*
X366100D02*
D03*
D71*
X68042Y-373453D02*
D03*
X51458Y-4753D02*
D03*
D72*
X351600Y-145012D02*
D03*
Y-135012D02*
D03*
Y-117453D02*
D03*
Y-95012D02*
D03*
X377953Y0D02*
D03*
X377953Y-377953D02*
D03*
X0Y0D02*
D03*
Y-377953D02*
D03*
D73*
X140957Y-250735D02*
D03*
Y-232113D02*
D03*
Y-213491D02*
D03*
Y-194869D02*
D03*
Y-176247D02*
D03*
Y-157624D02*
D03*
Y-139002D02*
D03*
Y-120380D02*
D03*
D74*
X253599Y-237132D02*
D03*
X241800Y-245006D02*
D03*
Y-230833D02*
D03*
Y-218235D02*
D03*
X253599Y-211935D02*
D03*
X241800Y-205636D02*
D03*
X253599Y-199337D02*
D03*
X241800Y-193038D02*
D03*
X253599Y-186739D02*
D03*
X241800Y-173353D02*
D03*
X253599Y-167053D02*
D03*
X241800Y-153668D02*
D03*
X253599Y-147369D02*
D03*
X241800Y-133983D02*
D03*
X253599Y-224534D02*
D03*
D75*
Y-126109D02*
D03*
D76*
X231653Y-249975D02*
D03*
X160787D02*
D03*
X231866Y-230953D02*
D03*
X161000D02*
D03*
X232000Y-212953D02*
D03*
X161134D02*
D03*
D77*
X140600Y-366753D02*
D03*
Y-327383D02*
D03*
X261600Y-366753D02*
D03*
Y-327383D02*
D03*
Y-54953D02*
D03*
Y-15583D02*
D03*
X140600Y-54753D02*
D03*
Y-15383D02*
D03*
D78*
X59035Y-46988D02*
D03*
X342500D02*
D03*
Y-330453D02*
D03*
X59035D02*
D03*
D79*
X322500Y-195453D02*
D03*
Y-186953D02*
D03*
Y-178453D02*
D03*
X334000Y-181453D02*
D03*
Y-189286D02*
D03*
Y-197119D02*
D03*
Y-204953D02*
D03*
X279000Y-366953D02*
D03*
X249200Y-245953D02*
D03*
Y-264753D02*
D03*
X259600Y-254353D02*
D03*
X288800Y-283553D02*
D03*
X290800Y-304353D02*
D03*
X278400Y-273153D02*
D03*
X259600D02*
D03*
X270000Y-283553D02*
D03*
X280400Y-293953D02*
D03*
X240800Y-273153D02*
D03*
X251200Y-283553D02*
D03*
X261600Y-293953D02*
D03*
X242800D02*
D03*
X276800Y-95853D02*
D03*
X20000Y-5553D02*
D03*
X32800Y-14253D02*
D03*
X29400Y-5553D02*
D03*
X38800D02*
D03*
X47000Y-19953D02*
D03*
X51600Y-14253D02*
D03*
X42200D02*
D03*
X37500Y-22953D02*
D03*
X64400Y-19953D02*
D03*
X69100Y-14253D02*
D03*
X59700D02*
D03*
X55000Y-19953D02*
D03*
X81900Y-22953D02*
D03*
X86600Y-14253D02*
D03*
X77200D02*
D03*
X72500Y-19953D02*
D03*
X117500Y-127353D02*
D03*
X126200Y-132053D02*
D03*
Y-122653D02*
D03*
X117500Y-117953D02*
D03*
X138700Y-88253D02*
D03*
Y-97653D02*
D03*
X147400Y-111753D02*
D03*
X138700Y-107053D02*
D03*
X147100Y-81753D02*
D03*
X129700D02*
D03*
X121000Y-77053D02*
D03*
X103700Y-88253D02*
D03*
X121100D02*
D03*
X112400Y-92953D02*
D03*
X129800D02*
D03*
X121100Y-97653D02*
D03*
X129800Y-102353D02*
D03*
Y-111753D02*
D03*
X121100Y-107053D02*
D03*
X112400Y-102353D02*
D03*
Y-111753D02*
D03*
X86200Y-58253D02*
D03*
X103600D02*
D03*
X94900Y-62953D02*
D03*
X112300D02*
D03*
X103600Y-67653D02*
D03*
X112300Y-72353D02*
D03*
Y-81753D02*
D03*
X103600Y-77053D02*
D03*
X94900Y-72353D02*
D03*
X86200Y-67653D02*
D03*
X94900Y-81753D02*
D03*
X86200Y-30753D02*
D03*
X103600D02*
D03*
X94900Y-35453D02*
D03*
X112300D02*
D03*
X103600Y-40153D02*
D03*
X112300Y-44853D02*
D03*
Y-54253D02*
D03*
X103600Y-49553D02*
D03*
X94900Y-44853D02*
D03*
X86200Y-40153D02*
D03*
X94900Y-54253D02*
D03*
X86200Y-49553D02*
D03*
X128400Y-2553D02*
D03*
X109600D02*
D03*
X120000Y-12953D02*
D03*
X130400Y-23353D02*
D03*
X90800Y-2553D02*
D03*
X101200Y-12953D02*
D03*
X111600Y-23353D02*
D03*
X92800D02*
D03*
X271600D02*
D03*
X290400D02*
D03*
X280000Y-12953D02*
D03*
X269600Y-2553D02*
D03*
X309200Y-23353D02*
D03*
X298800Y-12953D02*
D03*
X288400Y-2553D02*
D03*
X249000Y-2053D02*
D03*
X230200D02*
D03*
X240600Y-12453D02*
D03*
X251000Y-22853D02*
D03*
X211400Y-2053D02*
D03*
X221800Y-12453D02*
D03*
X192600Y-2053D02*
D03*
X203000Y-12453D02*
D03*
X173800Y-2053D02*
D03*
X184200Y-12453D02*
D03*
X157549Y-2053D02*
D03*
X165400Y-12453D02*
D03*
X295000Y-45353D02*
D03*
X305400Y-34953D02*
D03*
X295000Y-64153D02*
D03*
X305400Y-53753D02*
D03*
Y-72553D02*
D03*
X285200Y-85453D02*
D03*
X215000D02*
D03*
X266400D02*
D03*
X247600D02*
D03*
X258000Y-95853D02*
D03*
X228800Y-85453D02*
D03*
X239200Y-95853D02*
D03*
X203145Y-126607D02*
D03*
X215645Y-136807D02*
D03*
Y-171607D02*
D03*
Y-154207D02*
D03*
X203145Y-161407D02*
D03*
Y-144007D02*
D03*
Y-91807D02*
D03*
X215645Y-102007D02*
D03*
X203145Y-109207D02*
D03*
X215645Y-119407D02*
D03*
X203145Y-265807D02*
D03*
X215645Y-276007D02*
D03*
Y-310807D02*
D03*
Y-293407D02*
D03*
X203145Y-300607D02*
D03*
X215645Y-258607D02*
D03*
X203145Y-178807D02*
D03*
X215645Y-189007D02*
D03*
X203145Y-196207D02*
D03*
X159500Y-329383D02*
D03*
X151649Y-318983D02*
D03*
X178300Y-329383D02*
D03*
X167900Y-318983D02*
D03*
X197100Y-329383D02*
D03*
X186700Y-318983D02*
D03*
X215900Y-329383D02*
D03*
X205500Y-318983D02*
D03*
X234700Y-329383D02*
D03*
X224300Y-318983D02*
D03*
X243100D02*
D03*
X151100Y-339783D02*
D03*
Y-379153D02*
D03*
X234700Y-368753D02*
D03*
X245100Y-379153D02*
D03*
X215900Y-368753D02*
D03*
X226300Y-379153D02*
D03*
X197100Y-368753D02*
D03*
X207500Y-379153D02*
D03*
X178300Y-368753D02*
D03*
X188700Y-379153D02*
D03*
X149100Y-358353D02*
D03*
X159500Y-368753D02*
D03*
X169900Y-379153D02*
D03*
X130300Y-375753D02*
D03*
Y-358353D02*
D03*
X119900Y-365353D02*
D03*
X250400Y-53353D02*
D03*
X240000Y-62953D02*
D03*
X227900Y-53353D02*
D03*
X217500Y-62953D02*
D03*
X207500Y-54853D02*
D03*
X195000Y-62053D02*
D03*
X157500Y-66253D02*
D03*
X170000Y-57753D02*
D03*
X174000Y-128953D02*
D03*
X182500Y-121453D02*
D03*
X174000Y-110953D02*
D03*
X182500Y-69253D02*
D03*
Y-104053D02*
D03*
Y-86653D02*
D03*
X170000Y-76453D02*
D03*
X182500Y-191053D02*
D03*
X175500Y-181453D02*
D03*
X182500Y-138853D02*
D03*
Y-173653D02*
D03*
Y-156253D02*
D03*
X175500Y-163453D02*
D03*
X174550Y-146453D02*
D03*
X175000Y-198953D02*
D03*
X182500Y-260653D02*
D03*
Y-295453D02*
D03*
X165900Y-285353D02*
D03*
X151800Y-294053D02*
D03*
X165900Y-267953D02*
D03*
X151800Y-276653D02*
D03*
X165900Y-302753D02*
D03*
X137700Y-285353D02*
D03*
X123600Y-294053D02*
D03*
X137700Y-267953D02*
D03*
X123600Y-276653D02*
D03*
X137700Y-302753D02*
D03*
X1700Y-362953D02*
D03*
X25200Y-371653D02*
D03*
X15800D02*
D03*
X29900Y-362953D02*
D03*
X34600Y-371653D02*
D03*
Y-354253D02*
D03*
X42500Y-365953D02*
D03*
X44100Y-358453D02*
D03*
X53500D02*
D03*
X57500Y-365953D02*
D03*
X65500Y-357953D02*
D03*
X72000Y-365453D02*
D03*
X81300Y-372353D02*
D03*
X79000Y-357453D02*
D03*
X90700Y-372353D02*
D03*
X100100D02*
D03*
X109500D02*
D03*
X86000Y-363653D02*
D03*
Y-346253D02*
D03*
X90700Y-354953D02*
D03*
Y-337553D02*
D03*
X95400Y-346253D02*
D03*
X100100Y-337553D02*
D03*
X109500D02*
D03*
X104800Y-346253D02*
D03*
X100100Y-354953D02*
D03*
X95400Y-363653D02*
D03*
X109500Y-354953D02*
D03*
X104800Y-363653D02*
D03*
X86000Y-311453D02*
D03*
X90700Y-320153D02*
D03*
Y-302753D02*
D03*
X95400Y-311453D02*
D03*
X100100Y-302753D02*
D03*
X109500D02*
D03*
X104800Y-311453D02*
D03*
X100100Y-320153D02*
D03*
X95400Y-328853D02*
D03*
X109500Y-320153D02*
D03*
X104800Y-328853D02*
D03*
Y-294053D02*
D03*
X109500Y-285353D02*
D03*
X95400Y-294053D02*
D03*
X100100Y-285353D02*
D03*
X104800Y-276653D02*
D03*
X109500Y-267953D02*
D03*
X95400Y-224453D02*
D03*
X90700Y-233153D02*
D03*
X86000Y-241853D02*
D03*
X95400D02*
D03*
X90700Y-250553D02*
D03*
X95400Y-259253D02*
D03*
X100100Y-267953D02*
D03*
X95400Y-276653D02*
D03*
X90700Y-267953D02*
D03*
X86000Y-259253D02*
D03*
X90700Y-285353D02*
D03*
X86000Y-276653D02*
D03*
Y-294053D02*
D03*
X382806Y-12553D02*
D03*
X382700Y-30453D02*
D03*
X382500Y-92553D02*
D03*
X381600Y-139453D02*
D03*
X331000Y-100953D02*
D03*
D80*
X29100Y-236480D02*
D03*
X25200D02*
D03*
X33000D02*
D03*
X36900D02*
D03*
X29100Y-161559D02*
D03*
X25200D02*
D03*
X33000D02*
D03*
X36900D02*
D03*
Y-86638D02*
D03*
X33000D02*
D03*
X25200D02*
D03*
X29100D02*
D03*
D81*
X301484Y-6937D02*
D03*
M02*
