G04 Layer_Color=2752767*
%FSLAX26Y26*%
%MOIN*%
%TF.FileFunction,Drawing*%
%TF.Part,Single*%
G01*
G75*
%TA.AperFunction,NonConductor*%
%ADD53C,0.005000*%
%ADD114C,0.006667*%
%ADD115C,0.004000*%
D53*
X130000Y-538425D02*
Y-498425D01*
X170000D01*
Y-538425D01*
X130000D01*
Y-341575D02*
Y-301575D01*
X170000D01*
Y-341575D01*
X130000D01*
Y-3477953D02*
Y-3437953D01*
X170000D01*
Y-3477953D01*
X130000D01*
Y-3281102D02*
Y-3241102D01*
X170000D01*
Y-3281102D01*
X130000D01*
X660425Y-3754528D02*
Y-3714528D01*
X700425D01*
Y-3754528D01*
X660425D01*
X463575D02*
Y-3714528D01*
X503575D01*
Y-3754528D01*
X463575D01*
X130000Y-2597953D02*
Y-2557953D01*
X170000D01*
Y-2597953D01*
X130000D01*
Y-2401102D02*
Y-2361102D01*
X170000D01*
Y-2401102D01*
X130000D01*
Y-1848740D02*
Y-1808740D01*
X170000D01*
Y-1848740D01*
X130000D01*
Y-1651890D02*
Y-1611890D01*
X170000D01*
Y-1651890D01*
X130000D01*
X3516000Y-1470118D02*
X3496000Y-1430118D01*
X3536000D01*
X3516000Y-1470118D01*
Y-1370118D02*
X3496000Y-1330118D01*
X3536000D01*
X3516000Y-1370118D01*
Y-1194527D02*
X3496000Y-1154527D01*
X3536000D01*
X3516000Y-1194527D01*
Y-970118D02*
X3496000Y-930118D01*
X3536000D01*
X3516000Y-970118D01*
X1409575Y-2527347D02*
X1419575Y-2517347D01*
X1429575D01*
X1419575Y-2507347D01*
X1429575Y-2497347D01*
X1419575D01*
X1409575Y-2487347D01*
X1399575Y-2497347D01*
X1389575D01*
X1399575Y-2507347D01*
X1389575Y-2517347D01*
X1399575D01*
X1409575Y-2527347D01*
Y-2341126D02*
X1419575Y-2331126D01*
X1429575D01*
X1419575Y-2321126D01*
X1429575Y-2311126D01*
X1419575D01*
X1409575Y-2301126D01*
X1399575Y-2311126D01*
X1389575D01*
X1399575Y-2321126D01*
X1389575Y-2331126D01*
X1399575D01*
X1409575Y-2341126D01*
Y-2154905D02*
X1419575Y-2144905D01*
X1429575D01*
X1419575Y-2134905D01*
X1429575Y-2124905D01*
X1419575D01*
X1409575Y-2114905D01*
X1399575Y-2124905D01*
X1389575D01*
X1399575Y-2134905D01*
X1389575Y-2144905D01*
X1399575D01*
X1409575Y-2154905D01*
Y-1968685D02*
X1419575Y-1958685D01*
X1429575D01*
X1419575Y-1948685D01*
X1429575Y-1938685D01*
X1419575D01*
X1409575Y-1928685D01*
X1399575Y-1938685D01*
X1389575D01*
X1399575Y-1948685D01*
X1389575Y-1958685D01*
X1399575D01*
X1409575Y-1968685D01*
Y-1782465D02*
X1419575Y-1772465D01*
X1429575D01*
X1419575Y-1762465D01*
X1429575Y-1752465D01*
X1419575D01*
X1409575Y-1742465D01*
X1399575Y-1752465D01*
X1389575D01*
X1399575Y-1762465D01*
X1389575Y-1772465D01*
X1399575D01*
X1409575Y-1782465D01*
Y-1596244D02*
X1419575Y-1586244D01*
X1429575D01*
X1419575Y-1576244D01*
X1429575Y-1566244D01*
X1419575D01*
X1409575Y-1556244D01*
X1399575Y-1566244D01*
X1389575D01*
X1399575Y-1576244D01*
X1389575Y-1586244D01*
X1399575D01*
X1409575Y-1596244D01*
Y-1410024D02*
X1419575Y-1400024D01*
X1429575D01*
X1419575Y-1390024D01*
X1429575Y-1380024D01*
X1419575D01*
X1409575Y-1370024D01*
X1399575Y-1380024D01*
X1389575D01*
X1399575Y-1390024D01*
X1389575Y-1400024D01*
X1399575D01*
X1409575Y-1410024D01*
Y-1223803D02*
X1419575Y-1213803D01*
X1429575D01*
X1419575Y-1203803D01*
X1429575Y-1193803D01*
X1419575D01*
X1409575Y-1183803D01*
X1399575Y-1193803D01*
X1389575D01*
X1399575Y-1203803D01*
X1389575Y-1213803D01*
X1399575D01*
X1409575Y-1223803D01*
X2515992Y-2391323D02*
X2525992Y-2371323D01*
X2515992Y-2351323D01*
X2535992Y-2361323D01*
X2555992Y-2351323D01*
X2545992Y-2371323D01*
X2555992Y-2391323D01*
X2535992Y-2381323D01*
X2515992Y-2391323D01*
X2398000Y-2470063D02*
X2408000Y-2450063D01*
X2398000Y-2430063D01*
X2418000Y-2440063D01*
X2438000Y-2430063D01*
X2428000Y-2450063D01*
X2438000Y-2470063D01*
X2418000Y-2460063D01*
X2398000Y-2470063D01*
Y-2328331D02*
X2408000Y-2308331D01*
X2398000Y-2288331D01*
X2418000Y-2298331D01*
X2438000Y-2288331D01*
X2428000Y-2308331D01*
X2438000Y-2328331D01*
X2418000Y-2318331D01*
X2398000Y-2328331D01*
Y-2202347D02*
X2408000Y-2182347D01*
X2398000Y-2162347D01*
X2418000Y-2172347D01*
X2438000Y-2162347D01*
X2428000Y-2182347D01*
X2438000Y-2202347D01*
X2418000Y-2192347D01*
X2398000Y-2202347D01*
X2515992Y-2139354D02*
X2525992Y-2119354D01*
X2515992Y-2099354D01*
X2535992Y-2109354D01*
X2555992Y-2099354D01*
X2545992Y-2119354D01*
X2555992Y-2139354D01*
X2535992Y-2129354D01*
X2515992Y-2139354D01*
X2398000Y-2076362D02*
X2408000Y-2056362D01*
X2398000Y-2036362D01*
X2418000Y-2046362D01*
X2438000Y-2036362D01*
X2428000Y-2056362D01*
X2438000Y-2076362D01*
X2418000Y-2066362D01*
X2398000Y-2076362D01*
X2515992Y-2013370D02*
X2525992Y-1993370D01*
X2515992Y-1973370D01*
X2535992Y-1983370D01*
X2555992Y-1973370D01*
X2545992Y-1993370D01*
X2555992Y-2013370D01*
X2535992Y-2003370D01*
X2515992Y-2013370D01*
X2398000Y-1950378D02*
X2408000Y-1930378D01*
X2398000Y-1910378D01*
X2418000Y-1920378D01*
X2438000Y-1910378D01*
X2428000Y-1930378D01*
X2438000Y-1950378D01*
X2418000Y-1940378D01*
X2398000Y-1950378D01*
X2515992Y-1887386D02*
X2525992Y-1867386D01*
X2515992Y-1847386D01*
X2535992Y-1857386D01*
X2555992Y-1847386D01*
X2545992Y-1867386D01*
X2555992Y-1887386D01*
X2535992Y-1877386D01*
X2515992Y-1887386D01*
X2398000Y-1753527D02*
X2408000Y-1733527D01*
X2398000Y-1713527D01*
X2418000Y-1723527D01*
X2438000Y-1713527D01*
X2428000Y-1733527D01*
X2438000Y-1753527D01*
X2418000Y-1743527D01*
X2398000Y-1753527D01*
X2515992Y-1690535D02*
X2525992Y-1670535D01*
X2515992Y-1650535D01*
X2535992Y-1660535D01*
X2555992Y-1650535D01*
X2545992Y-1670535D01*
X2555992Y-1690535D01*
X2535992Y-1680535D01*
X2515992Y-1690535D01*
X2398000Y-1556677D02*
X2408000Y-1536677D01*
X2398000Y-1516677D01*
X2418000Y-1526677D01*
X2438000Y-1516677D01*
X2428000Y-1536677D01*
X2438000Y-1556677D01*
X2418000Y-1546677D01*
X2398000Y-1556677D01*
X2515992Y-1493685D02*
X2525992Y-1473685D01*
X2515992Y-1453685D01*
X2535992Y-1463685D01*
X2555992Y-1453685D01*
X2545992Y-1473685D01*
X2555992Y-1493685D01*
X2535992Y-1483685D01*
X2515992Y-1493685D01*
X2398000Y-1359827D02*
X2408000Y-1339827D01*
X2398000Y-1319827D01*
X2418000Y-1329827D01*
X2438000Y-1319827D01*
X2428000Y-1339827D01*
X2438000Y-1359827D01*
X2418000Y-1349827D01*
X2398000Y-1359827D01*
X2515992Y-2265338D02*
X2525992Y-2245338D01*
X2515992Y-2225338D01*
X2535992Y-2235338D01*
X2555992Y-2225338D01*
X2545992Y-2245338D01*
X2555992Y-2265338D01*
X2535992Y-2255338D01*
X2515992Y-2265338D01*
X130000Y-1099527D02*
Y-1059527D01*
X170000D01*
Y-1099527D01*
X130000D01*
Y-902677D02*
Y-862677D01*
X170000D01*
Y-902677D01*
X130000D01*
X2306535Y-2509747D02*
Y-2519747D01*
X2326535D01*
Y-2509747D01*
X2336535D01*
Y-2489747D01*
X2326535D01*
Y-2479747D01*
X2306535D01*
Y-2489747D01*
X2296535D01*
Y-2509747D01*
X2306535D01*
X1597874D02*
Y-2519747D01*
X1617874D01*
Y-2509747D01*
X1627874D01*
Y-2489747D01*
X1617874D01*
Y-2479747D01*
X1597874D01*
Y-2489747D01*
X1587874D01*
Y-2509747D01*
X1597874D01*
X2308661Y-2319528D02*
Y-2329528D01*
X2328661D01*
Y-2319528D01*
X2338661D01*
Y-2299528D01*
X2328661D01*
Y-2289528D01*
X2308661D01*
Y-2299528D01*
X2298661D01*
Y-2319528D01*
X2308661D01*
X1600000D02*
Y-2329528D01*
X1620000D01*
Y-2319528D01*
X1630000D01*
Y-2299528D01*
X1620000D01*
Y-2289528D01*
X1600000D01*
Y-2299528D01*
X1590000D01*
Y-2319528D01*
X1600000D01*
X2310000Y-2139528D02*
Y-2149528D01*
X2330000D01*
Y-2139528D01*
X2340000D01*
Y-2119528D01*
X2330000D01*
Y-2109528D01*
X2310000D01*
Y-2119528D01*
X2300000D01*
Y-2139528D01*
X2310000D01*
X1601339D02*
Y-2149528D01*
X1621339D01*
Y-2139528D01*
X1631339D01*
Y-2119528D01*
X1621339D01*
Y-2109528D01*
X1601339D01*
Y-2119528D01*
X1591339D01*
Y-2139528D01*
X1601339D01*
X1386000Y-3687528D02*
X1396000D01*
X1406000Y-3677528D01*
X1416000Y-3687528D01*
X1426000D01*
Y-3677528D01*
X1416000Y-3667528D01*
X1426000Y-3657528D01*
Y-3647528D01*
X1416000D01*
X1406000Y-3657528D01*
X1396000Y-3647528D01*
X1386000D01*
Y-3657528D01*
X1396000Y-3667528D01*
X1386000Y-3677528D01*
Y-3687528D01*
Y-3293827D02*
X1396000D01*
X1406000Y-3283827D01*
X1416000Y-3293827D01*
X1426000D01*
Y-3283827D01*
X1416000Y-3273827D01*
X1426000Y-3263827D01*
Y-3253827D01*
X1416000D01*
X1406000Y-3263827D01*
X1396000Y-3253827D01*
X1386000D01*
Y-3263827D01*
X1396000Y-3273827D01*
X1386000Y-3283827D01*
Y-3293827D01*
X2596000Y-3687528D02*
X2606000D01*
X2616000Y-3677528D01*
X2626000Y-3687528D01*
X2636000D01*
Y-3677528D01*
X2626000Y-3667528D01*
X2636000Y-3657528D01*
Y-3647528D01*
X2626000D01*
X2616000Y-3657528D01*
X2606000Y-3647528D01*
X2596000D01*
Y-3657528D01*
X2606000Y-3667528D01*
X2596000Y-3677528D01*
Y-3687528D01*
Y-3293827D02*
X2606000D01*
X2616000Y-3283827D01*
X2626000Y-3293827D01*
X2636000D01*
Y-3283827D01*
X2626000Y-3273827D01*
X2636000Y-3263827D01*
Y-3253827D01*
X2626000D01*
X2616000Y-3263827D01*
X2606000Y-3253827D01*
X2596000D01*
Y-3263827D01*
X2606000Y-3273827D01*
X2596000Y-3283827D01*
Y-3293827D01*
Y-569528D02*
X2606000D01*
X2616000Y-559528D01*
X2626000Y-569528D01*
X2636000D01*
Y-559528D01*
X2626000Y-549528D01*
X2636000Y-539528D01*
Y-529528D01*
X2626000D01*
X2616000Y-539528D01*
X2606000Y-529528D01*
X2596000D01*
Y-539528D01*
X2606000Y-549528D01*
X2596000Y-559528D01*
Y-569528D01*
Y-175827D02*
X2606000D01*
X2616000Y-165827D01*
X2626000Y-175827D01*
X2636000D01*
Y-165827D01*
X2626000Y-155827D01*
X2636000Y-145827D01*
Y-135827D01*
X2626000D01*
X2616000Y-145827D01*
X2606000Y-135827D01*
X2596000D01*
Y-145827D01*
X2606000Y-155827D01*
X2596000Y-165827D01*
Y-175827D01*
X1386000Y-567528D02*
X1396000D01*
X1406000Y-557528D01*
X1416000Y-567528D01*
X1426000D01*
Y-557528D01*
X1416000Y-547528D01*
X1426000Y-537528D01*
Y-527528D01*
X1416000D01*
X1406000Y-537528D01*
X1396000Y-527528D01*
X1386000D01*
Y-537528D01*
X1396000Y-547528D01*
X1386000Y-557528D01*
Y-567528D01*
Y-173827D02*
X1396000D01*
X1406000Y-163827D01*
X1416000Y-173827D01*
X1426000D01*
Y-163827D01*
X1416000Y-153827D01*
X1426000Y-143827D01*
Y-133827D01*
X1416000D01*
X1406000Y-143827D01*
X1396000Y-133827D01*
X1386000D01*
Y-143827D01*
X1396000Y-153827D01*
X1386000Y-163827D01*
Y-173827D01*
X494575Y-67528D02*
Y-27527D01*
X534575D01*
Y-67528D01*
X494575D01*
X691425D02*
Y-27527D01*
X731425D01*
Y-67528D01*
X691425D01*
X570354Y-469882D02*
X590354Y-449882D01*
X610354Y-469882D01*
X590354Y-489882D01*
X570354Y-469882D01*
X3405000D02*
X3425000Y-449882D01*
X3445000Y-469882D01*
X3425000Y-489882D01*
X3405000Y-469882D01*
Y-3304528D02*
X3425000Y-3284528D01*
X3445000Y-3304528D01*
X3425000Y-3324528D01*
X3405000Y-3304528D01*
X570354D02*
X590354Y-3284528D01*
X610354Y-3304528D01*
X590354Y-3324528D01*
X570354Y-3304528D01*
X3759527Y-20000D02*
Y20000D01*
X3799527D01*
Y-20000D01*
X3759527D01*
X3767527Y-12000D02*
Y12000D01*
X3791527D01*
Y-12000D01*
X3767527D01*
X3759528Y-3799528D02*
Y-3759528D01*
X3799528D01*
Y-3799528D01*
X3759528D01*
X3767528Y-3791528D02*
Y-3767528D01*
X3791528D01*
Y-3791528D01*
X3767528D01*
X-20000Y-20000D02*
Y20000D01*
X20000D01*
Y-20000D01*
X-20000D01*
X-12000Y-12000D02*
Y12000D01*
X12000D01*
Y-12000D01*
X-12000D01*
X-20000Y-3799528D02*
Y-3759528D01*
X20000D01*
Y-3799528D01*
X-20000D01*
X-12000Y-3791528D02*
Y-3767528D01*
X12000D01*
Y-3791528D01*
X-12000D01*
X2790000Y-3689528D02*
X2770000Y-3649528D01*
X2810000D01*
X2790000Y-3689528D01*
Y-3681528D02*
X2778000Y-3657528D01*
X2802000D01*
X2790000Y-3681528D01*
X2492000Y-2479528D02*
X2472000Y-2439528D01*
X2512000D01*
X2492000Y-2479528D01*
Y-2471528D02*
X2480000Y-2447528D01*
X2504000D01*
X2492000Y-2471528D01*
Y-2667528D02*
X2472000Y-2627528D01*
X2512000D01*
X2492000Y-2667528D01*
Y-2659528D02*
X2480000Y-2635528D01*
X2504000D01*
X2492000Y-2659528D01*
X2596000Y-2563528D02*
X2576000Y-2523528D01*
X2616000D01*
X2596000Y-2563528D01*
Y-2555528D02*
X2584000Y-2531528D01*
X2608000D01*
X2596000Y-2555528D01*
X2888000Y-2855528D02*
X2868000Y-2815528D01*
X2908000D01*
X2888000Y-2855528D01*
Y-2847528D02*
X2876000Y-2823528D01*
X2900000D01*
X2888000Y-2847528D01*
X2908000Y-3063528D02*
X2888000Y-3023528D01*
X2928000D01*
X2908000Y-3063528D01*
Y-3055528D02*
X2896000Y-3031528D01*
X2920000D01*
X2908000Y-3055528D01*
X2784000Y-2751528D02*
X2764000Y-2711528D01*
X2804000D01*
X2784000Y-2751528D01*
Y-2743528D02*
X2772000Y-2719528D01*
X2796000D01*
X2784000Y-2743528D01*
X2596000Y-2751528D02*
X2576000Y-2711528D01*
X2616000D01*
X2596000Y-2751528D01*
Y-2743528D02*
X2584000Y-2719528D01*
X2608000D01*
X2596000Y-2743528D01*
X2700000Y-2855528D02*
X2680000Y-2815528D01*
X2720000D01*
X2700000Y-2855528D01*
Y-2847528D02*
X2688000Y-2823528D01*
X2712000D01*
X2700000Y-2847528D01*
X2804000Y-2959528D02*
X2784000Y-2919528D01*
X2824000D01*
X2804000Y-2959528D01*
Y-2951528D02*
X2792000Y-2927528D01*
X2816000D01*
X2804000Y-2951528D01*
X2408000Y-2751528D02*
X2388000Y-2711528D01*
X2428000D01*
X2408000Y-2751528D01*
Y-2743528D02*
X2396000Y-2719528D01*
X2420000D01*
X2408000Y-2743528D01*
X2512000Y-2855528D02*
X2492000Y-2815528D01*
X2532000D01*
X2512000Y-2855528D01*
Y-2847528D02*
X2500000Y-2823528D01*
X2524000D01*
X2512000Y-2847528D01*
X2616000Y-2959528D02*
X2596000Y-2919528D01*
X2636000D01*
X2616000Y-2959528D01*
Y-2951528D02*
X2604000Y-2927528D01*
X2628000D01*
X2616000Y-2951528D01*
X2428000Y-2959528D02*
X2408000Y-2919528D01*
X2448000D01*
X2428000Y-2959528D01*
Y-2951528D02*
X2416000Y-2927528D01*
X2440000D01*
X2428000Y-2951528D01*
X2768000Y-978528D02*
X2748000Y-938528D01*
X2788000D01*
X2768000Y-978528D01*
Y-970528D02*
X2756000Y-946528D01*
X2780000D01*
X2768000Y-970528D01*
X200000Y-75528D02*
X180000Y-35528D01*
X220000D01*
X200000Y-75528D01*
Y-67528D02*
X188000Y-43528D01*
X212000D01*
X200000Y-67528D01*
X328000Y-162528D02*
X308000Y-122528D01*
X348000D01*
X328000Y-162528D01*
Y-154528D02*
X316000Y-130528D01*
X340000D01*
X328000Y-154528D01*
X294000Y-75528D02*
X274000Y-35528D01*
X314000D01*
X294000Y-75528D01*
Y-67528D02*
X282000Y-43528D01*
X306000D01*
X294000Y-67528D01*
X388000Y-75528D02*
X368000Y-35528D01*
X408000D01*
X388000Y-75528D01*
Y-67528D02*
X376000Y-43528D01*
X400000D01*
X388000Y-67528D01*
X470000Y-219528D02*
X450000Y-179528D01*
X490000D01*
X470000Y-219528D01*
Y-211528D02*
X458000Y-187528D01*
X482000D01*
X470000Y-211528D01*
X516000Y-162528D02*
X496000Y-122528D01*
X536000D01*
X516000Y-162528D01*
Y-154528D02*
X504000Y-130528D01*
X528000D01*
X516000Y-154528D01*
X422000Y-162528D02*
X402000Y-122528D01*
X442000D01*
X422000Y-162528D01*
Y-154528D02*
X410000Y-130528D01*
X434000D01*
X422000Y-154528D01*
X375000Y-249528D02*
X355000Y-209528D01*
X395000D01*
X375000Y-249528D01*
Y-241528D02*
X363000Y-217528D01*
X387000D01*
X375000Y-241528D01*
X644000Y-219528D02*
X624000Y-179528D01*
X664000D01*
X644000Y-219528D01*
Y-211528D02*
X632000Y-187528D01*
X656000D01*
X644000Y-211528D01*
X691000Y-162528D02*
X671000Y-122528D01*
X711000D01*
X691000Y-162528D01*
Y-154528D02*
X679000Y-130528D01*
X703000D01*
X691000Y-154528D01*
X597000Y-162528D02*
X577000Y-122528D01*
X617000D01*
X597000Y-162528D01*
Y-154528D02*
X585000Y-130528D01*
X609000D01*
X597000Y-154528D01*
X550000Y-219528D02*
X530000Y-179528D01*
X570000D01*
X550000Y-219528D01*
Y-211528D02*
X538000Y-187528D01*
X562000D01*
X550000Y-211528D01*
X819000Y-249528D02*
X799000Y-209528D01*
X839000D01*
X819000Y-249528D01*
Y-241528D02*
X807000Y-217528D01*
X831000D01*
X819000Y-241528D01*
X866000Y-162528D02*
X846000Y-122528D01*
X886000D01*
X866000Y-162528D01*
Y-154528D02*
X854000Y-130528D01*
X878000D01*
X866000Y-154528D01*
X772000Y-162528D02*
X752000Y-122528D01*
X792000D01*
X772000Y-162528D01*
Y-154528D02*
X760000Y-130528D01*
X784000D01*
X772000Y-154528D01*
X725000Y-219528D02*
X705000Y-179528D01*
X745000D01*
X725000Y-219528D01*
Y-211528D02*
X713000Y-187528D01*
X737000D01*
X725000Y-211528D01*
X1175000Y-1293527D02*
X1155000Y-1253527D01*
X1195000D01*
X1175000Y-1293527D01*
Y-1285527D02*
X1163000Y-1261527D01*
X1187000D01*
X1175000Y-1285527D01*
X1262000Y-1340527D02*
X1242000Y-1300527D01*
X1282000D01*
X1262000Y-1340527D01*
Y-1332527D02*
X1250000Y-1308527D01*
X1274000D01*
X1262000Y-1332527D01*
Y-1246527D02*
X1242000Y-1206527D01*
X1282000D01*
X1262000Y-1246527D01*
Y-1238527D02*
X1250000Y-1214527D01*
X1274000D01*
X1262000Y-1238527D01*
X1175000Y-1199527D02*
X1155000Y-1159527D01*
X1195000D01*
X1175000Y-1199527D01*
Y-1191527D02*
X1163000Y-1167527D01*
X1187000D01*
X1175000Y-1191527D01*
X1387000Y-902528D02*
X1367000Y-862528D01*
X1407000D01*
X1387000Y-902528D01*
Y-894528D02*
X1375000Y-870528D01*
X1399000D01*
X1387000Y-894528D01*
Y-996528D02*
X1367000Y-956528D01*
X1407000D01*
X1387000Y-996528D01*
Y-988528D02*
X1375000Y-964528D01*
X1399000D01*
X1387000Y-988528D01*
X1474000Y-1137527D02*
X1454000Y-1097527D01*
X1494000D01*
X1474000Y-1137527D01*
Y-1129527D02*
X1462000Y-1105527D01*
X1486000D01*
X1474000Y-1129527D01*
X1387000Y-1090527D02*
X1367000Y-1050527D01*
X1407000D01*
X1387000Y-1090527D01*
Y-1082527D02*
X1375000Y-1058527D01*
X1399000D01*
X1387000Y-1082527D01*
X1471000Y-837528D02*
X1451000Y-797528D01*
X1491000D01*
X1471000Y-837528D01*
Y-829528D02*
X1459000Y-805528D01*
X1483000D01*
X1471000Y-829528D01*
X1297000Y-837528D02*
X1277000Y-797528D01*
X1317000D01*
X1297000Y-837528D01*
Y-829528D02*
X1285000Y-805528D01*
X1309000D01*
X1297000Y-829528D01*
X1210000Y-790528D02*
X1190000Y-750528D01*
X1230000D01*
X1210000Y-790528D01*
Y-782528D02*
X1198000Y-758528D01*
X1222000D01*
X1210000Y-782528D01*
X1037000Y-902528D02*
X1017000Y-862528D01*
X1057000D01*
X1037000Y-902528D01*
Y-894528D02*
X1025000Y-870528D01*
X1049000D01*
X1037000Y-894528D01*
X1211000Y-902528D02*
X1191000Y-862528D01*
X1231000D01*
X1211000Y-902528D01*
Y-894528D02*
X1199000Y-870528D01*
X1223000D01*
X1211000Y-894528D01*
X1124000Y-949528D02*
X1104000Y-909528D01*
X1144000D01*
X1124000Y-949528D01*
Y-941528D02*
X1112000Y-917528D01*
X1136000D01*
X1124000Y-941528D01*
X1298000Y-949528D02*
X1278000Y-909528D01*
X1318000D01*
X1298000Y-949528D01*
Y-941528D02*
X1286000Y-917528D01*
X1310000D01*
X1298000Y-941528D01*
X1211000Y-996528D02*
X1191000Y-956528D01*
X1231000D01*
X1211000Y-996528D01*
Y-988528D02*
X1199000Y-964528D01*
X1223000D01*
X1211000Y-988528D01*
X1298000Y-1043527D02*
X1278000Y-1003528D01*
X1318000D01*
X1298000Y-1043527D01*
Y-1035527D02*
X1286000Y-1011528D01*
X1310000D01*
X1298000Y-1035527D01*
Y-1137527D02*
X1278000Y-1097527D01*
X1318000D01*
X1298000Y-1137527D01*
Y-1129527D02*
X1286000Y-1105527D01*
X1310000D01*
X1298000Y-1129527D01*
X1211000Y-1090527D02*
X1191000Y-1050527D01*
X1231000D01*
X1211000Y-1090527D01*
Y-1082527D02*
X1199000Y-1058527D01*
X1223000D01*
X1211000Y-1082527D01*
X1124000Y-1043527D02*
X1104000Y-1003528D01*
X1144000D01*
X1124000Y-1043527D01*
Y-1035527D02*
X1112000Y-1011528D01*
X1136000D01*
X1124000Y-1035527D01*
Y-1137527D02*
X1104000Y-1097527D01*
X1144000D01*
X1124000Y-1137527D01*
Y-1129527D02*
X1112000Y-1105527D01*
X1136000D01*
X1124000Y-1129527D01*
X862000Y-602528D02*
X842000Y-562528D01*
X882000D01*
X862000Y-602528D01*
Y-594528D02*
X850000Y-570528D01*
X874000D01*
X862000Y-594528D01*
X1036000Y-602528D02*
X1016000Y-562528D01*
X1056000D01*
X1036000Y-602528D01*
Y-594528D02*
X1024000Y-570528D01*
X1048000D01*
X1036000Y-594528D01*
X949000Y-649528D02*
X929000Y-609528D01*
X969000D01*
X949000Y-649528D01*
Y-641528D02*
X937000Y-617528D01*
X961000D01*
X949000Y-641528D01*
X1123000Y-649528D02*
X1103000Y-609528D01*
X1143000D01*
X1123000Y-649528D01*
Y-641528D02*
X1111000Y-617528D01*
X1135000D01*
X1123000Y-641528D01*
X1036000Y-696528D02*
X1016000Y-656528D01*
X1056000D01*
X1036000Y-696528D01*
Y-688528D02*
X1024000Y-664528D01*
X1048000D01*
X1036000Y-688528D01*
X1123000Y-743528D02*
X1103000Y-703528D01*
X1143000D01*
X1123000Y-743528D01*
Y-735528D02*
X1111000Y-711528D01*
X1135000D01*
X1123000Y-735528D01*
Y-837528D02*
X1103000Y-797528D01*
X1143000D01*
X1123000Y-837528D01*
Y-829528D02*
X1111000Y-805528D01*
X1135000D01*
X1123000Y-829528D01*
X1036000Y-790528D02*
X1016000Y-750528D01*
X1056000D01*
X1036000Y-790528D01*
Y-782528D02*
X1024000Y-758528D01*
X1048000D01*
X1036000Y-782528D01*
X949000Y-743528D02*
X929000Y-703528D01*
X969000D01*
X949000Y-743528D01*
Y-735528D02*
X937000Y-711528D01*
X961000D01*
X949000Y-735528D01*
X862000Y-696528D02*
X842000Y-656528D01*
X882000D01*
X862000Y-696528D01*
Y-688528D02*
X850000Y-664528D01*
X874000D01*
X862000Y-688528D01*
X949000Y-837528D02*
X929000Y-797528D01*
X969000D01*
X949000Y-837528D01*
Y-829528D02*
X937000Y-805528D01*
X961000D01*
X949000Y-829528D01*
X862000Y-327527D02*
X842000Y-287527D01*
X882000D01*
X862000Y-327527D01*
Y-319527D02*
X850000Y-295527D01*
X874000D01*
X862000Y-319527D01*
X1036000Y-327527D02*
X1016000Y-287527D01*
X1056000D01*
X1036000Y-327527D01*
Y-319527D02*
X1024000Y-295527D01*
X1048000D01*
X1036000Y-319527D01*
X949000Y-374527D02*
X929000Y-334527D01*
X969000D01*
X949000Y-374527D01*
Y-366527D02*
X937000Y-342527D01*
X961000D01*
X949000Y-366527D01*
X1123000Y-374527D02*
X1103000Y-334527D01*
X1143000D01*
X1123000Y-374527D01*
Y-366527D02*
X1111000Y-342527D01*
X1135000D01*
X1123000Y-366527D01*
X1036000Y-421527D02*
X1016000Y-381527D01*
X1056000D01*
X1036000Y-421527D01*
Y-413527D02*
X1024000Y-389527D01*
X1048000D01*
X1036000Y-413527D01*
X1123000Y-468527D02*
X1103000Y-428527D01*
X1143000D01*
X1123000Y-468527D01*
Y-460527D02*
X1111000Y-436527D01*
X1135000D01*
X1123000Y-460527D01*
Y-562528D02*
X1103000Y-522528D01*
X1143000D01*
X1123000Y-562528D01*
Y-554528D02*
X1111000Y-530528D01*
X1135000D01*
X1123000Y-554528D01*
X1036000Y-515528D02*
X1016000Y-475527D01*
X1056000D01*
X1036000Y-515528D01*
Y-507527D02*
X1024000Y-483527D01*
X1048000D01*
X1036000Y-507527D01*
X949000Y-468527D02*
X929000Y-428527D01*
X969000D01*
X949000Y-468527D01*
Y-460527D02*
X937000Y-436527D01*
X961000D01*
X949000Y-460527D01*
X862000Y-421527D02*
X842000Y-381527D01*
X882000D01*
X862000Y-421527D01*
Y-413527D02*
X850000Y-389527D01*
X874000D01*
X862000Y-413527D01*
X949000Y-562528D02*
X929000Y-522528D01*
X969000D01*
X949000Y-562528D01*
Y-554528D02*
X937000Y-530528D01*
X961000D01*
X949000Y-554528D01*
X862000Y-515528D02*
X842000Y-475527D01*
X882000D01*
X862000Y-515528D01*
Y-507527D02*
X850000Y-483527D01*
X874000D01*
X862000Y-507527D01*
X1284000Y-45528D02*
X1264000Y-5527D01*
X1304000D01*
X1284000Y-45528D01*
Y-37528D02*
X1272000Y-13527D01*
X1296000D01*
X1284000Y-37528D01*
X1096000Y-45528D02*
X1076000Y-5527D01*
X1116000D01*
X1096000Y-45528D01*
Y-37528D02*
X1084000Y-13527D01*
X1108000D01*
X1096000Y-37528D01*
X1200000Y-149528D02*
X1180000Y-109528D01*
X1220000D01*
X1200000Y-149528D01*
Y-141528D02*
X1188000Y-117528D01*
X1212000D01*
X1200000Y-141528D01*
X1304000Y-253528D02*
X1284000Y-213528D01*
X1324000D01*
X1304000Y-253528D01*
Y-245528D02*
X1292000Y-221528D01*
X1316000D01*
X1304000Y-245528D01*
X908000Y-45528D02*
X888000Y-5527D01*
X928000D01*
X908000Y-45528D01*
Y-37528D02*
X896000Y-13527D01*
X920000D01*
X908000Y-37528D01*
X1012000Y-149528D02*
X992000Y-109528D01*
X1032000D01*
X1012000Y-149528D01*
Y-141528D02*
X1000000Y-117528D01*
X1024000D01*
X1012000Y-141528D01*
X1116000Y-253528D02*
X1096000Y-213528D01*
X1136000D01*
X1116000Y-253528D01*
Y-245528D02*
X1104000Y-221528D01*
X1128000D01*
X1116000Y-245528D01*
X928000Y-253528D02*
X908000Y-213528D01*
X948000D01*
X928000Y-253528D01*
Y-245528D02*
X916000Y-221528D01*
X940000D01*
X928000Y-245528D01*
X2716000Y-253528D02*
X2696000Y-213528D01*
X2736000D01*
X2716000Y-253528D01*
Y-245528D02*
X2704000Y-221528D01*
X2728000D01*
X2716000Y-245528D01*
X2904000Y-253528D02*
X2884000Y-213528D01*
X2924000D01*
X2904000Y-253528D01*
Y-245528D02*
X2892000Y-221528D01*
X2916000D01*
X2904000Y-245528D01*
X2800000Y-149528D02*
X2780000Y-109528D01*
X2820000D01*
X2800000Y-149528D01*
Y-141528D02*
X2788000Y-117528D01*
X2812000D01*
X2800000Y-141528D01*
X2696000Y-45528D02*
X2676000Y-5527D01*
X2716000D01*
X2696000Y-45528D01*
Y-37528D02*
X2684000Y-13527D01*
X2708000D01*
X2696000Y-37528D01*
X3092000Y-253528D02*
X3072000Y-213528D01*
X3112000D01*
X3092000Y-253528D01*
Y-245528D02*
X3080000Y-221528D01*
X3104000D01*
X3092000Y-245528D01*
X2988000Y-149528D02*
X2968000Y-109528D01*
X3008000D01*
X2988000Y-149528D01*
Y-141528D02*
X2976000Y-117528D01*
X3000000D01*
X2988000Y-141528D01*
X2884000Y-45528D02*
X2864000Y-5527D01*
X2904000D01*
X2884000Y-45528D01*
Y-37528D02*
X2872000Y-13527D01*
X2896000D01*
X2884000Y-37528D01*
X2490000Y-40528D02*
X2470000Y-527D01*
X2510000D01*
X2490000Y-40528D01*
Y-32528D02*
X2478000Y-8527D01*
X2502000D01*
X2490000Y-32528D01*
X2302000Y-40528D02*
X2282000Y-527D01*
X2322000D01*
X2302000Y-40528D01*
Y-32528D02*
X2290000Y-8527D01*
X2314000D01*
X2302000Y-32528D01*
X2406000Y-144528D02*
X2386000Y-104528D01*
X2426000D01*
X2406000Y-144528D01*
Y-136528D02*
X2394000Y-112528D01*
X2418000D01*
X2406000Y-136528D01*
X2510000Y-248528D02*
X2490000Y-208528D01*
X2530000D01*
X2510000Y-248528D01*
Y-240528D02*
X2498000Y-216528D01*
X2522000D01*
X2510000Y-240528D01*
X2114000Y-40528D02*
X2094000Y-527D01*
X2134000D01*
X2114000Y-40528D01*
Y-32528D02*
X2102000Y-8527D01*
X2126000D01*
X2114000Y-32528D01*
X2218000Y-144528D02*
X2198000Y-104528D01*
X2238000D01*
X2218000Y-144528D01*
Y-136528D02*
X2206000Y-112528D01*
X2230000D01*
X2218000Y-136528D01*
X1926000Y-40528D02*
X1906000Y-527D01*
X1946000D01*
X1926000Y-40528D01*
Y-32528D02*
X1914000Y-8527D01*
X1938000D01*
X1926000Y-32528D01*
X2030000Y-144528D02*
X2010000Y-104528D01*
X2050000D01*
X2030000Y-144528D01*
Y-136528D02*
X2018000Y-112528D01*
X2042000D01*
X2030000Y-136528D01*
X1738000Y-40528D02*
X1718000Y-527D01*
X1758000D01*
X1738000Y-40528D01*
Y-32528D02*
X1726000Y-8527D01*
X1750000D01*
X1738000Y-32528D01*
X1842000Y-144528D02*
X1822000Y-104528D01*
X1862000D01*
X1842000Y-144528D01*
Y-136528D02*
X1830000Y-112528D01*
X1854000D01*
X1842000Y-136528D01*
X1575490Y-40528D02*
X1555490Y-527D01*
X1595490D01*
X1575490Y-40528D01*
Y-32528D02*
X1563490Y-8527D01*
X1587490D01*
X1575490Y-32528D01*
X1654000Y-144528D02*
X1634000Y-104528D01*
X1674000D01*
X1654000Y-144528D01*
Y-136528D02*
X1642000Y-112528D01*
X1666000D01*
X1654000Y-136528D01*
X2950000Y-473527D02*
X2930000Y-433527D01*
X2970000D01*
X2950000Y-473527D01*
Y-465527D02*
X2938000Y-441527D01*
X2962000D01*
X2950000Y-465527D01*
X3054000Y-369527D02*
X3034000Y-329527D01*
X3074000D01*
X3054000Y-369527D01*
Y-361527D02*
X3042000Y-337527D01*
X3066000D01*
X3054000Y-361527D01*
X2950000Y-661528D02*
X2930000Y-621528D01*
X2970000D01*
X2950000Y-661528D01*
Y-653528D02*
X2938000Y-629528D01*
X2962000D01*
X2950000Y-653528D01*
X3054000Y-557528D02*
X3034000Y-517528D01*
X3074000D01*
X3054000Y-557528D01*
Y-549528D02*
X3042000Y-525528D01*
X3066000D01*
X3054000Y-549528D01*
Y-745528D02*
X3034000Y-705528D01*
X3074000D01*
X3054000Y-745528D01*
Y-737528D02*
X3042000Y-713528D01*
X3066000D01*
X3054000Y-737528D01*
X2852000Y-874528D02*
X2832000Y-834528D01*
X2872000D01*
X2852000Y-874528D01*
Y-866528D02*
X2840000Y-842528D01*
X2864000D01*
X2852000Y-866528D01*
X2150000Y-874528D02*
X2130000Y-834528D01*
X2170000D01*
X2150000Y-874528D01*
Y-866528D02*
X2138000Y-842528D01*
X2162000D01*
X2150000Y-866528D01*
X2664000Y-874528D02*
X2644000Y-834528D01*
X2684000D01*
X2664000Y-874528D01*
Y-866528D02*
X2652000Y-842528D01*
X2676000D01*
X2664000Y-866528D01*
X2476000Y-874528D02*
X2456000Y-834528D01*
X2496000D01*
X2476000Y-874528D01*
Y-866528D02*
X2464000Y-842528D01*
X2488000D01*
X2476000Y-866528D01*
X2580000Y-978528D02*
X2560000Y-938528D01*
X2600000D01*
X2580000Y-978528D01*
Y-970528D02*
X2568000Y-946528D01*
X2592000D01*
X2580000Y-970528D01*
X2288000Y-874528D02*
X2268000Y-834528D01*
X2308000D01*
X2288000Y-874528D01*
Y-866528D02*
X2276000Y-842528D01*
X2300000D01*
X2288000Y-866528D01*
X2392000Y-978528D02*
X2372000Y-938528D01*
X2412000D01*
X2392000Y-978528D01*
Y-970528D02*
X2380000Y-946528D01*
X2404000D01*
X2392000Y-970528D01*
X2031450Y-1286072D02*
X2011450Y-1246072D01*
X2051450D01*
X2031450Y-1286072D01*
Y-1278072D02*
X2019450Y-1254072D01*
X2043450D01*
X2031450Y-1278072D01*
X2156450Y-1388072D02*
X2136450Y-1348072D01*
X2176450D01*
X2156450Y-1388072D01*
Y-1380072D02*
X2144450Y-1356072D01*
X2168450D01*
X2156450Y-1380072D01*
Y-1736072D02*
X2136450Y-1696072D01*
X2176450D01*
X2156450Y-1736072D01*
Y-1728072D02*
X2144450Y-1704072D01*
X2168450D01*
X2156450Y-1728072D01*
Y-1562072D02*
X2136450Y-1522072D01*
X2176450D01*
X2156450Y-1562072D01*
Y-1554072D02*
X2144450Y-1530072D01*
X2168450D01*
X2156450Y-1554072D01*
X2031450Y-1634072D02*
X2011450Y-1594072D01*
X2051450D01*
X2031450Y-1634072D01*
Y-1626072D02*
X2019450Y-1602072D01*
X2043450D01*
X2031450Y-1626072D01*
Y-1460072D02*
X2011450Y-1420072D01*
X2051450D01*
X2031450Y-1460072D01*
Y-1452072D02*
X2019450Y-1428072D01*
X2043450D01*
X2031450Y-1452072D01*
Y-938072D02*
X2011450Y-898072D01*
X2051450D01*
X2031450Y-938072D01*
Y-930072D02*
X2019450Y-906072D01*
X2043450D01*
X2031450Y-930072D01*
X2156450Y-1040072D02*
X2136450Y-1000072D01*
X2176450D01*
X2156450Y-1040072D01*
Y-1032072D02*
X2144450Y-1008072D01*
X2168450D01*
X2156450Y-1032072D01*
X2031450Y-1112072D02*
X2011450Y-1072072D01*
X2051450D01*
X2031450Y-1112072D01*
Y-1104072D02*
X2019450Y-1080072D01*
X2043450D01*
X2031450Y-1104072D01*
X2156450Y-1214072D02*
X2136450Y-1174072D01*
X2176450D01*
X2156450Y-1214072D01*
Y-1206072D02*
X2144450Y-1182072D01*
X2168450D01*
X2156450Y-1206072D01*
X2031450Y-2678072D02*
X2011450Y-2638072D01*
X2051450D01*
X2031450Y-2678072D01*
Y-2670072D02*
X2019450Y-2646072D01*
X2043450D01*
X2031450Y-2670072D01*
X2156450Y-2780072D02*
X2136450Y-2740072D01*
X2176450D01*
X2156450Y-2780072D01*
Y-2772072D02*
X2144450Y-2748072D01*
X2168450D01*
X2156450Y-2772072D01*
Y-3128072D02*
X2136450Y-3088072D01*
X2176450D01*
X2156450Y-3128072D01*
Y-3120072D02*
X2144450Y-3096072D01*
X2168450D01*
X2156450Y-3120072D01*
Y-2954072D02*
X2136450Y-2914072D01*
X2176450D01*
X2156450Y-2954072D01*
Y-2946072D02*
X2144450Y-2922072D01*
X2168450D01*
X2156450Y-2946072D01*
X2031450Y-3026072D02*
X2011450Y-2986072D01*
X2051450D01*
X2031450Y-3026072D01*
Y-3018072D02*
X2019450Y-2994072D01*
X2043450D01*
X2031450Y-3018072D01*
X2156450Y-2606072D02*
X2136450Y-2566072D01*
X2176450D01*
X2156450Y-2606072D01*
Y-2598072D02*
X2144450Y-2574072D01*
X2168450D01*
X2156450Y-2598072D01*
X2031450Y-1808072D02*
X2011450Y-1768072D01*
X2051450D01*
X2031450Y-1808072D01*
Y-1800072D02*
X2019450Y-1776072D01*
X2043450D01*
X2031450Y-1800072D01*
X2156450Y-1910072D02*
X2136450Y-1870072D01*
X2176450D01*
X2156450Y-1910072D01*
Y-1902072D02*
X2144450Y-1878072D01*
X2168450D01*
X2156450Y-1902072D01*
X2031450Y-1982072D02*
X2011450Y-1942072D01*
X2051450D01*
X2031450Y-1982072D01*
Y-1974072D02*
X2019450Y-1950072D01*
X2043450D01*
X2031450Y-1974072D01*
X1595000Y-3313827D02*
X1575000Y-3273827D01*
X1615000D01*
X1595000Y-3313827D01*
Y-3305827D02*
X1583000Y-3281827D01*
X1607000D01*
X1595000Y-3305827D01*
X1516490Y-3209827D02*
X1496490Y-3169827D01*
X1536490D01*
X1516490Y-3209827D01*
Y-3201827D02*
X1504490Y-3177827D01*
X1528490D01*
X1516490Y-3201827D01*
X1783000Y-3313827D02*
X1763000Y-3273827D01*
X1803000D01*
X1783000Y-3313827D01*
Y-3305827D02*
X1771000Y-3281827D01*
X1795000D01*
X1783000Y-3305827D01*
X1679000Y-3209827D02*
X1659000Y-3169827D01*
X1699000D01*
X1679000Y-3209827D01*
Y-3201827D02*
X1667000Y-3177827D01*
X1691000D01*
X1679000Y-3201827D01*
X1971000Y-3313827D02*
X1951000Y-3273827D01*
X1991000D01*
X1971000Y-3313827D01*
Y-3305827D02*
X1959000Y-3281827D01*
X1983000D01*
X1971000Y-3305827D01*
X1867000Y-3209827D02*
X1847000Y-3169827D01*
X1887000D01*
X1867000Y-3209827D01*
Y-3201827D02*
X1855000Y-3177827D01*
X1879000D01*
X1867000Y-3201827D01*
X2159000Y-3313827D02*
X2139000Y-3273827D01*
X2179000D01*
X2159000Y-3313827D01*
Y-3305827D02*
X2147000Y-3281827D01*
X2171000D01*
X2159000Y-3305827D01*
X2055000Y-3209827D02*
X2035000Y-3169827D01*
X2075000D01*
X2055000Y-3209827D01*
Y-3201827D02*
X2043000Y-3177827D01*
X2067000D01*
X2055000Y-3201827D01*
X2347000Y-3313827D02*
X2327000Y-3273827D01*
X2367000D01*
X2347000Y-3313827D01*
Y-3305827D02*
X2335000Y-3281827D01*
X2359000D01*
X2347000Y-3305827D01*
X2243000Y-3209827D02*
X2223000Y-3169827D01*
X2263000D01*
X2243000Y-3209827D01*
Y-3201827D02*
X2231000Y-3177827D01*
X2255000D01*
X2243000Y-3201827D01*
X2431000Y-3209827D02*
X2411000Y-3169827D01*
X2451000D01*
X2431000Y-3209827D01*
Y-3201827D02*
X2419000Y-3177827D01*
X2443000D01*
X2431000Y-3201827D01*
X1511000Y-3417827D02*
X1491000Y-3377827D01*
X1531000D01*
X1511000Y-3417827D01*
Y-3409827D02*
X1499000Y-3385827D01*
X1523000D01*
X1511000Y-3409827D01*
Y-3811528D02*
X1491000Y-3771528D01*
X1531000D01*
X1511000Y-3811528D01*
Y-3803528D02*
X1499000Y-3779528D01*
X1523000D01*
X1511000Y-3803528D01*
X2347000Y-3707528D02*
X2327000Y-3667528D01*
X2367000D01*
X2347000Y-3707528D01*
Y-3699528D02*
X2335000Y-3675528D01*
X2359000D01*
X2347000Y-3699528D01*
X2451000Y-3811528D02*
X2431000Y-3771528D01*
X2471000D01*
X2451000Y-3811528D01*
Y-3803528D02*
X2439000Y-3779528D01*
X2463000D01*
X2451000Y-3803528D01*
X2159000Y-3707528D02*
X2139000Y-3667528D01*
X2179000D01*
X2159000Y-3707528D01*
Y-3699528D02*
X2147000Y-3675528D01*
X2171000D01*
X2159000Y-3699528D01*
X2263000Y-3811528D02*
X2243000Y-3771528D01*
X2283000D01*
X2263000Y-3811528D01*
Y-3803528D02*
X2251000Y-3779528D01*
X2275000D01*
X2263000Y-3803528D01*
X1971000Y-3707528D02*
X1951000Y-3667528D01*
X1991000D01*
X1971000Y-3707528D01*
Y-3699528D02*
X1959000Y-3675528D01*
X1983000D01*
X1971000Y-3699528D01*
X2075000Y-3811528D02*
X2055000Y-3771528D01*
X2095000D01*
X2075000Y-3811528D01*
Y-3803528D02*
X2063000Y-3779528D01*
X2087000D01*
X2075000Y-3803528D01*
X1783000Y-3707528D02*
X1763000Y-3667528D01*
X1803000D01*
X1783000Y-3707528D01*
Y-3699528D02*
X1771000Y-3675528D01*
X1795000D01*
X1783000Y-3699528D01*
X1887000Y-3811528D02*
X1867000Y-3771528D01*
X1907000D01*
X1887000Y-3811528D01*
Y-3803528D02*
X1875000Y-3779528D01*
X1899000D01*
X1887000Y-3803528D01*
X1491000Y-3603528D02*
X1471000Y-3563528D01*
X1511000D01*
X1491000Y-3603528D01*
Y-3595528D02*
X1479000Y-3571528D01*
X1503000D01*
X1491000Y-3595528D01*
X1595000Y-3707528D02*
X1575000Y-3667528D01*
X1615000D01*
X1595000Y-3707528D01*
Y-3699528D02*
X1583000Y-3675528D01*
X1607000D01*
X1595000Y-3699528D01*
X1699000Y-3811528D02*
X1679000Y-3771528D01*
X1719000D01*
X1699000Y-3811528D01*
Y-3803528D02*
X1687000Y-3779528D01*
X1711000D01*
X1699000Y-3803528D01*
X1303000Y-3777528D02*
X1283000Y-3737528D01*
X1323000D01*
X1303000Y-3777528D01*
Y-3769528D02*
X1291000Y-3745528D01*
X1315000D01*
X1303000Y-3769528D01*
Y-3603528D02*
X1283000Y-3563528D01*
X1323000D01*
X1303000Y-3603528D01*
Y-3595528D02*
X1291000Y-3571528D01*
X1315000D01*
X1303000Y-3595528D01*
X1199000Y-3673528D02*
X1179000Y-3633528D01*
X1219000D01*
X1199000Y-3673528D01*
Y-3665528D02*
X1187000Y-3641528D01*
X1211000D01*
X1199000Y-3665528D01*
X2504000Y-553528D02*
X2484000Y-513528D01*
X2524000D01*
X2504000Y-553528D01*
Y-545528D02*
X2492000Y-521528D01*
X2516000D01*
X2504000Y-545528D01*
X2400000Y-649528D02*
X2380000Y-609528D01*
X2420000D01*
X2400000Y-649528D01*
Y-641528D02*
X2388000Y-617528D01*
X2412000D01*
X2400000Y-641528D01*
X2279000Y-553528D02*
X2259000Y-513528D01*
X2299000D01*
X2279000Y-553528D01*
Y-545528D02*
X2267000Y-521528D01*
X2291000D01*
X2279000Y-545528D01*
X2175000Y-649528D02*
X2155000Y-609528D01*
X2195000D01*
X2175000Y-649528D01*
Y-641528D02*
X2163000Y-617528D01*
X2187000D01*
X2175000Y-641528D01*
X2075000Y-568528D02*
X2055000Y-528528D01*
X2095000D01*
X2075000Y-568528D01*
Y-560528D02*
X2063000Y-536528D01*
X2087000D01*
X2075000Y-560528D01*
X1950000Y-640528D02*
X1930000Y-600528D01*
X1970000D01*
X1950000Y-640528D01*
Y-632528D02*
X1938000Y-608528D01*
X1962000D01*
X1950000Y-632528D01*
X1575000Y-682528D02*
X1555000Y-642528D01*
X1595000D01*
X1575000Y-682528D01*
Y-674528D02*
X1563000Y-650528D01*
X1587000D01*
X1575000Y-674528D01*
X1700000Y-597528D02*
X1680000Y-557528D01*
X1720000D01*
X1700000Y-597528D01*
Y-589528D02*
X1688000Y-565528D01*
X1712000D01*
X1700000Y-589528D01*
X1740000Y-1309527D02*
X1720000Y-1269527D01*
X1760000D01*
X1740000Y-1309527D01*
Y-1301527D02*
X1728000Y-1277527D01*
X1752000D01*
X1740000Y-1301527D01*
X1825000Y-1234527D02*
X1805000Y-1194527D01*
X1845000D01*
X1825000Y-1234527D01*
Y-1226527D02*
X1813000Y-1202527D01*
X1837000D01*
X1825000Y-1226527D01*
X1740000Y-1129527D02*
X1720000Y-1089527D01*
X1760000D01*
X1740000Y-1129527D01*
Y-1121527D02*
X1728000Y-1097527D01*
X1752000D01*
X1740000Y-1121527D01*
X1825000Y-712528D02*
X1805000Y-672528D01*
X1845000D01*
X1825000Y-712528D01*
Y-704528D02*
X1813000Y-680528D01*
X1837000D01*
X1825000Y-704528D01*
Y-1060527D02*
X1805000Y-1020528D01*
X1845000D01*
X1825000Y-1060527D01*
Y-1052527D02*
X1813000Y-1028527D01*
X1837000D01*
X1825000Y-1052527D01*
Y-886528D02*
X1805000Y-846528D01*
X1845000D01*
X1825000Y-886528D01*
Y-878528D02*
X1813000Y-854528D01*
X1837000D01*
X1825000Y-878528D01*
X1700000Y-784528D02*
X1680000Y-744528D01*
X1720000D01*
X1700000Y-784528D01*
Y-776528D02*
X1688000Y-752528D01*
X1712000D01*
X1700000Y-776528D01*
X1825000Y-1930527D02*
X1805000Y-1890527D01*
X1845000D01*
X1825000Y-1930527D01*
Y-1922527D02*
X1813000Y-1898527D01*
X1837000D01*
X1825000Y-1922527D01*
X1755000Y-1834527D02*
X1735000Y-1794527D01*
X1775000D01*
X1755000Y-1834527D01*
Y-1826527D02*
X1743000Y-1802527D01*
X1767000D01*
X1755000Y-1826527D01*
X1825000Y-1408527D02*
X1805000Y-1368527D01*
X1845000D01*
X1825000Y-1408527D01*
Y-1400527D02*
X1813000Y-1376527D01*
X1837000D01*
X1825000Y-1400527D01*
Y-1756527D02*
X1805000Y-1716527D01*
X1845000D01*
X1825000Y-1756527D01*
Y-1748527D02*
X1813000Y-1724527D01*
X1837000D01*
X1825000Y-1748527D01*
Y-1582527D02*
X1805000Y-1542527D01*
X1845000D01*
X1825000Y-1582527D01*
Y-1574527D02*
X1813000Y-1550527D01*
X1837000D01*
X1825000Y-1574527D01*
X1755000Y-1654527D02*
X1735000Y-1614527D01*
X1775000D01*
X1755000Y-1654527D01*
Y-1646527D02*
X1743000Y-1622527D01*
X1767000D01*
X1755000Y-1646527D01*
X1745505Y-1484527D02*
X1725505Y-1444527D01*
X1765505D01*
X1745505Y-1484527D01*
Y-1476527D02*
X1733505Y-1452527D01*
X1757505D01*
X1745505Y-1476527D01*
X1750000Y-2009527D02*
X1730000Y-1969527D01*
X1770000D01*
X1750000Y-2009527D01*
Y-2001527D02*
X1738000Y-1977527D01*
X1762000D01*
X1750000Y-2001527D01*
X1825000Y-2626528D02*
X1805000Y-2586528D01*
X1845000D01*
X1825000Y-2626528D01*
Y-2618528D02*
X1813000Y-2594528D01*
X1837000D01*
X1825000Y-2618528D01*
Y-2974528D02*
X1805000Y-2934528D01*
X1845000D01*
X1825000Y-2974528D01*
Y-2966528D02*
X1813000Y-2942528D01*
X1837000D01*
X1825000Y-2966528D01*
X1659000Y-2873528D02*
X1639000Y-2833528D01*
X1679000D01*
X1659000Y-2873528D01*
Y-2865528D02*
X1647000Y-2841528D01*
X1671000D01*
X1659000Y-2865528D01*
X1518000Y-2960528D02*
X1498000Y-2920528D01*
X1538000D01*
X1518000Y-2960528D01*
Y-2952528D02*
X1506000Y-2928528D01*
X1530000D01*
X1518000Y-2952528D01*
X1659000Y-2699528D02*
X1639000Y-2659528D01*
X1679000D01*
X1659000Y-2699528D01*
Y-2691528D02*
X1647000Y-2667528D01*
X1671000D01*
X1659000Y-2691528D01*
X1518000Y-2786528D02*
X1498000Y-2746528D01*
X1538000D01*
X1518000Y-2786528D01*
Y-2778528D02*
X1506000Y-2754528D01*
X1530000D01*
X1518000Y-2778528D01*
X1659000Y-3047528D02*
X1639000Y-3007528D01*
X1679000D01*
X1659000Y-3047528D01*
Y-3039528D02*
X1647000Y-3015528D01*
X1671000D01*
X1659000Y-3039528D01*
X1377000Y-2873528D02*
X1357000Y-2833528D01*
X1397000D01*
X1377000Y-2873528D01*
Y-2865528D02*
X1365000Y-2841528D01*
X1389000D01*
X1377000Y-2865528D01*
X1236000Y-2960528D02*
X1216000Y-2920528D01*
X1256000D01*
X1236000Y-2960528D01*
Y-2952528D02*
X1224000Y-2928528D01*
X1248000D01*
X1236000Y-2952528D01*
X1377000Y-2699528D02*
X1357000Y-2659528D01*
X1397000D01*
X1377000Y-2699528D01*
Y-2691528D02*
X1365000Y-2667528D01*
X1389000D01*
X1377000Y-2691528D01*
X1236000Y-2786528D02*
X1216000Y-2746528D01*
X1256000D01*
X1236000Y-2786528D01*
Y-2778528D02*
X1224000Y-2754528D01*
X1248000D01*
X1236000Y-2778528D01*
X1377000Y-3047528D02*
X1357000Y-3007528D01*
X1397000D01*
X1377000Y-3047528D01*
Y-3039528D02*
X1365000Y-3015528D01*
X1389000D01*
X1377000Y-3039528D01*
X17000Y-3649528D02*
X-3000Y-3609528D01*
X37000D01*
X17000Y-3649528D01*
Y-3641528D02*
X5000Y-3617528D01*
X29000D01*
X17000Y-3641528D01*
X252000Y-3736528D02*
X232000Y-3696528D01*
X272000D01*
X252000Y-3736528D01*
Y-3728528D02*
X240000Y-3704528D01*
X264000D01*
X252000Y-3728528D01*
X158000Y-3736528D02*
X138000Y-3696528D01*
X178000D01*
X158000Y-3736528D01*
Y-3728528D02*
X146000Y-3704528D01*
X170000D01*
X158000Y-3728528D01*
X299000Y-3649528D02*
X279000Y-3609528D01*
X319000D01*
X299000Y-3649528D01*
Y-3641528D02*
X287000Y-3617528D01*
X311000D01*
X299000Y-3641528D01*
X346000Y-3736528D02*
X326000Y-3696528D01*
X366000D01*
X346000Y-3736528D01*
Y-3728528D02*
X334000Y-3704528D01*
X358000D01*
X346000Y-3728528D01*
Y-3562528D02*
X326000Y-3522528D01*
X366000D01*
X346000Y-3562528D01*
Y-3554528D02*
X334000Y-3530528D01*
X358000D01*
X346000Y-3554528D01*
X425000Y-3679528D02*
X405000Y-3639528D01*
X445000D01*
X425000Y-3679528D01*
Y-3671528D02*
X413000Y-3647528D01*
X437000D01*
X425000Y-3671528D01*
X441000Y-3604528D02*
X421000Y-3564528D01*
X461000D01*
X441000Y-3604528D01*
Y-3596528D02*
X429000Y-3572528D01*
X453000D01*
X441000Y-3596528D01*
X535000Y-3604528D02*
X515000Y-3564528D01*
X555000D01*
X535000Y-3604528D01*
Y-3596528D02*
X523000Y-3572528D01*
X547000D01*
X535000Y-3596528D01*
X575000Y-3679528D02*
X555000Y-3639528D01*
X595000D01*
X575000Y-3679528D01*
Y-3671528D02*
X563000Y-3647528D01*
X587000D01*
X575000Y-3671528D01*
X655000Y-3599528D02*
X635000Y-3559528D01*
X675000D01*
X655000Y-3599528D01*
Y-3591528D02*
X643000Y-3567528D01*
X667000D01*
X655000Y-3591528D01*
X720000Y-3674528D02*
X700000Y-3634528D01*
X740000D01*
X720000Y-3674528D01*
Y-3666528D02*
X708000Y-3642528D01*
X732000D01*
X720000Y-3666528D01*
X813000Y-3743528D02*
X793000Y-3703528D01*
X833000D01*
X813000Y-3743528D01*
Y-3735528D02*
X801000Y-3711528D01*
X825000D01*
X813000Y-3735528D01*
X790000Y-3594528D02*
X770000Y-3554528D01*
X810000D01*
X790000Y-3594528D01*
Y-3586528D02*
X778000Y-3562528D01*
X802000D01*
X790000Y-3586528D01*
X907000Y-3743528D02*
X887000Y-3703528D01*
X927000D01*
X907000Y-3743528D01*
Y-3735528D02*
X895000Y-3711528D01*
X919000D01*
X907000Y-3735528D01*
X1001000Y-3743528D02*
X981000Y-3703528D01*
X1021000D01*
X1001000Y-3743528D01*
Y-3735528D02*
X989000Y-3711528D01*
X1013000D01*
X1001000Y-3735528D01*
X1095000Y-3743528D02*
X1075000Y-3703528D01*
X1115000D01*
X1095000Y-3743528D01*
Y-3735528D02*
X1083000Y-3711528D01*
X1107000D01*
X1095000Y-3735528D01*
X860000Y-3656528D02*
X840000Y-3616528D01*
X880000D01*
X860000Y-3656528D01*
Y-3648528D02*
X848000Y-3624528D01*
X872000D01*
X860000Y-3648528D01*
Y-3482528D02*
X840000Y-3442528D01*
X880000D01*
X860000Y-3482528D01*
Y-3474528D02*
X848000Y-3450528D01*
X872000D01*
X860000Y-3474528D01*
X907000Y-3569528D02*
X887000Y-3529528D01*
X927000D01*
X907000Y-3569528D01*
Y-3561528D02*
X895000Y-3537528D01*
X919000D01*
X907000Y-3561528D01*
Y-3395528D02*
X887000Y-3355528D01*
X927000D01*
X907000Y-3395528D01*
Y-3387528D02*
X895000Y-3363528D01*
X919000D01*
X907000Y-3387528D01*
X954000Y-3482528D02*
X934000Y-3442528D01*
X974000D01*
X954000Y-3482528D01*
Y-3474528D02*
X942000Y-3450528D01*
X966000D01*
X954000Y-3474528D01*
X1001000Y-3395528D02*
X981000Y-3355528D01*
X1021000D01*
X1001000Y-3395528D01*
Y-3387528D02*
X989000Y-3363528D01*
X1013000D01*
X1001000Y-3387528D01*
X1095000Y-3395528D02*
X1075000Y-3355528D01*
X1115000D01*
X1095000Y-3395528D01*
Y-3387528D02*
X1083000Y-3363528D01*
X1107000D01*
X1095000Y-3387528D01*
X1048000Y-3482528D02*
X1028000Y-3442528D01*
X1068000D01*
X1048000Y-3482528D01*
Y-3474528D02*
X1036000Y-3450528D01*
X1060000D01*
X1048000Y-3474528D01*
X1001000Y-3569528D02*
X981000Y-3529528D01*
X1021000D01*
X1001000Y-3569528D01*
Y-3561528D02*
X989000Y-3537528D01*
X1013000D01*
X1001000Y-3561528D01*
X954000Y-3656528D02*
X934000Y-3616528D01*
X974000D01*
X954000Y-3656528D01*
Y-3648528D02*
X942000Y-3624528D01*
X966000D01*
X954000Y-3648528D01*
X1095000Y-3569528D02*
X1075000Y-3529528D01*
X1115000D01*
X1095000Y-3569528D01*
Y-3561528D02*
X1083000Y-3537528D01*
X1107000D01*
X1095000Y-3561528D01*
X1048000Y-3656528D02*
X1028000Y-3616528D01*
X1068000D01*
X1048000Y-3656528D01*
Y-3648528D02*
X1036000Y-3624528D01*
X1060000D01*
X1048000Y-3648528D01*
X860000Y-3134528D02*
X840000Y-3094528D01*
X880000D01*
X860000Y-3134528D01*
Y-3126528D02*
X848000Y-3102528D01*
X872000D01*
X860000Y-3126528D01*
X907000Y-3221528D02*
X887000Y-3181528D01*
X927000D01*
X907000Y-3221528D01*
Y-3213528D02*
X895000Y-3189528D01*
X919000D01*
X907000Y-3213528D01*
Y-3047528D02*
X887000Y-3007528D01*
X927000D01*
X907000Y-3047528D01*
Y-3039528D02*
X895000Y-3015528D01*
X919000D01*
X907000Y-3039528D01*
X954000Y-3134528D02*
X934000Y-3094528D01*
X974000D01*
X954000Y-3134528D01*
Y-3126528D02*
X942000Y-3102528D01*
X966000D01*
X954000Y-3126528D01*
X1001000Y-3047528D02*
X981000Y-3007528D01*
X1021000D01*
X1001000Y-3047528D01*
Y-3039528D02*
X989000Y-3015528D01*
X1013000D01*
X1001000Y-3039528D01*
X1095000Y-3047528D02*
X1075000Y-3007528D01*
X1115000D01*
X1095000Y-3047528D01*
Y-3039528D02*
X1083000Y-3015528D01*
X1107000D01*
X1095000Y-3039528D01*
X1048000Y-3134528D02*
X1028000Y-3094528D01*
X1068000D01*
X1048000Y-3134528D01*
Y-3126528D02*
X1036000Y-3102528D01*
X1060000D01*
X1048000Y-3126528D01*
X1001000Y-3221528D02*
X981000Y-3181528D01*
X1021000D01*
X1001000Y-3221528D01*
Y-3213528D02*
X989000Y-3189528D01*
X1013000D01*
X1001000Y-3213528D01*
X954000Y-3308528D02*
X934000Y-3268528D01*
X974000D01*
X954000Y-3308528D01*
Y-3300528D02*
X942000Y-3276528D01*
X966000D01*
X954000Y-3300528D01*
X1095000Y-3221528D02*
X1075000Y-3181528D01*
X1115000D01*
X1095000Y-3221528D01*
Y-3213528D02*
X1083000Y-3189528D01*
X1107000D01*
X1095000Y-3213528D01*
X1048000Y-3308528D02*
X1028000Y-3268528D01*
X1068000D01*
X1048000Y-3308528D01*
Y-3300528D02*
X1036000Y-3276528D01*
X1060000D01*
X1048000Y-3300528D01*
Y-2960528D02*
X1028000Y-2920528D01*
X1068000D01*
X1048000Y-2960528D01*
Y-2952528D02*
X1036000Y-2928528D01*
X1060000D01*
X1048000Y-2952528D01*
X1095000Y-2873528D02*
X1075000Y-2833528D01*
X1115000D01*
X1095000Y-2873528D01*
Y-2865528D02*
X1083000Y-2841528D01*
X1107000D01*
X1095000Y-2865528D01*
X954000Y-2960528D02*
X934000Y-2920528D01*
X974000D01*
X954000Y-2960528D01*
Y-2952528D02*
X942000Y-2928528D01*
X966000D01*
X954000Y-2952528D01*
X1001000Y-2873528D02*
X981000Y-2833528D01*
X1021000D01*
X1001000Y-2873528D01*
Y-2865528D02*
X989000Y-2841528D01*
X1013000D01*
X1001000Y-2865528D01*
X1048000Y-2786528D02*
X1028000Y-2746528D01*
X1068000D01*
X1048000Y-2786528D01*
Y-2778528D02*
X1036000Y-2754528D01*
X1060000D01*
X1048000Y-2778528D01*
X1095000Y-2699528D02*
X1075000Y-2659528D01*
X1115000D01*
X1095000Y-2699528D01*
Y-2691528D02*
X1083000Y-2667528D01*
X1107000D01*
X1095000Y-2691528D01*
X954000Y-2264528D02*
X934000Y-2224528D01*
X974000D01*
X954000Y-2264528D01*
Y-2256528D02*
X942000Y-2232528D01*
X966000D01*
X954000Y-2256528D01*
X907000Y-2351528D02*
X887000Y-2311528D01*
X927000D01*
X907000Y-2351528D01*
Y-2343528D02*
X895000Y-2319528D01*
X919000D01*
X907000Y-2343528D01*
X860000Y-2438528D02*
X840000Y-2398528D01*
X880000D01*
X860000Y-2438528D01*
Y-2430528D02*
X848000Y-2406528D01*
X872000D01*
X860000Y-2430528D01*
X954000Y-2438528D02*
X934000Y-2398528D01*
X974000D01*
X954000Y-2438528D01*
Y-2430528D02*
X942000Y-2406528D01*
X966000D01*
X954000Y-2430528D01*
X907000Y-2525528D02*
X887000Y-2485528D01*
X927000D01*
X907000Y-2525528D01*
Y-2517528D02*
X895000Y-2493528D01*
X919000D01*
X907000Y-2517528D01*
X954000Y-2612528D02*
X934000Y-2572528D01*
X974000D01*
X954000Y-2612528D01*
Y-2604528D02*
X942000Y-2580528D01*
X966000D01*
X954000Y-2604528D01*
X1001000Y-2699528D02*
X981000Y-2659528D01*
X1021000D01*
X1001000Y-2699528D01*
Y-2691528D02*
X989000Y-2667528D01*
X1013000D01*
X1001000Y-2691528D01*
X954000Y-2786528D02*
X934000Y-2746528D01*
X974000D01*
X954000Y-2786528D01*
Y-2778528D02*
X942000Y-2754528D01*
X966000D01*
X954000Y-2778528D01*
X907000Y-2699528D02*
X887000Y-2659528D01*
X927000D01*
X907000Y-2699528D01*
Y-2691528D02*
X895000Y-2667528D01*
X919000D01*
X907000Y-2691528D01*
X860000Y-2612528D02*
X840000Y-2572528D01*
X880000D01*
X860000Y-2612528D01*
Y-2604528D02*
X848000Y-2580528D01*
X872000D01*
X860000Y-2604528D01*
X907000Y-2873528D02*
X887000Y-2833528D01*
X927000D01*
X907000Y-2873528D01*
Y-2865528D02*
X895000Y-2841528D01*
X919000D01*
X907000Y-2865528D01*
X860000Y-2786528D02*
X840000Y-2746528D01*
X880000D01*
X860000Y-2786528D01*
Y-2778528D02*
X848000Y-2754528D01*
X872000D01*
X860000Y-2778528D01*
Y-2960528D02*
X840000Y-2920528D01*
X880000D01*
X860000Y-2960528D01*
Y-2952528D02*
X848000Y-2928528D01*
X872000D01*
X860000Y-2952528D01*
X3014844Y-89371D02*
X3024844Y-79371D01*
X3034844D01*
X3024844Y-69371D01*
X3034844Y-59371D01*
X3024844D01*
X3014844Y-49371D01*
X3004844Y-59371D01*
X2994844D01*
X3004844Y-69371D01*
X2994844Y-79371D01*
X3004844D01*
X3014844Y-89371D01*
Y-81371D02*
X3020844Y-75371D01*
X3026844D01*
X3020844Y-69371D01*
X3026844Y-63371D01*
X3020844D01*
X3014844Y-57371D01*
X3008844Y-63371D01*
X3002844D01*
X3008844Y-69371D01*
X3002844Y-75371D01*
X3008844D01*
X3014844Y-81371D01*
D114*
X645000Y-1189527D02*
G03*
X645000Y-1189527I-20000J0D01*
G01*
X545000D02*
G03*
X545000Y-1189527I-20000J0D01*
G01*
X445000D02*
G03*
X445000Y-1189527I-20000J0D01*
G01*
X645000Y-1949027D02*
G03*
X645000Y-1949027I-20000J0D01*
G01*
X545000D02*
G03*
X545000Y-1949027I-20000J0D01*
G01*
X445000D02*
G03*
X445000Y-1949027I-20000J0D01*
G01*
X645000Y-2708528D02*
G03*
X645000Y-2708528I-20000J0D01*
G01*
X545000D02*
G03*
X545000Y-2708528I-20000J0D01*
G01*
X445000D02*
G03*
X445000Y-2708528I-20000J0D01*
G01*
X3145000Y-2774528D02*
G03*
X3145000Y-2774528I-20000J0D01*
G01*
X3245000D02*
G03*
X3245000Y-2774528I-20000J0D01*
G01*
X3345000D02*
G03*
X3345000Y-2774528I-20000J0D01*
G01*
X3574998Y-2774528D02*
G03*
X3574998Y-2774528I-20000J0D01*
G01*
X3674998D02*
G03*
X3674998Y-2774528I-20000J0D01*
G01*
X3774998D02*
G03*
X3774998Y-2774528I-20000J0D01*
G01*
X3574998Y-2419115D02*
G03*
X3574998Y-2419115I-20000J0D01*
G01*
X3674998D02*
G03*
X3674998Y-2419115I-20000J0D01*
G01*
X3774998D02*
G03*
X3774998Y-2419115I-20000J0D01*
G01*
X3775000Y-2064528D02*
G03*
X3775000Y-2064528I-20000J0D01*
G01*
X3675000D02*
G03*
X3675000Y-2064528I-20000J0D01*
G01*
X3575000D02*
G03*
X3575000Y-2064528I-20000J0D01*
G01*
X1115000Y-2147528D02*
G03*
X1115000Y-2147528I-20000J0D01*
G01*
Y-1261701D02*
G03*
X1115000Y-1261701I-20000J0D01*
G01*
X2555992Y-1261086D02*
G03*
X2555992Y-1261086I-20000J0D01*
G01*
X3581000Y-1669527D02*
G03*
X3581000Y-1669527I-20000J0D01*
G01*
X3681000D02*
G03*
X3681000Y-1669527I-20000J0D01*
G01*
X3781000D02*
G03*
X3781000Y-1669527I-20000J0D01*
G01*
X3245000Y-1954527D02*
G03*
X3245000Y-1954527I-20000J0D01*
G01*
Y-1869527D02*
G03*
X3245000Y-1869527I-20000J0D01*
G01*
Y-1784527D02*
G03*
X3245000Y-1784527I-20000J0D01*
G01*
X3360000Y-1814528D02*
G03*
X3360000Y-1814528I-20000J0D01*
G01*
Y-1892861D02*
G03*
X3360000Y-1892861I-20000J0D01*
G01*
Y-1971194D02*
G03*
X3360000Y-1971194I-20000J0D01*
G01*
Y-2049528D02*
G03*
X3360000Y-2049528I-20000J0D01*
G01*
X311000Y-2364803D02*
G03*
X311000Y-2364803I-20000J0D01*
G01*
X272000D02*
G03*
X272000Y-2364803I-20000J0D01*
G01*
X350000D02*
G03*
X350000Y-2364803I-20000J0D01*
G01*
X389000D02*
G03*
X389000Y-2364803I-20000J0D01*
G01*
X311000Y-1615591D02*
G03*
X311000Y-1615591I-20000J0D01*
G01*
X272000D02*
G03*
X272000Y-1615591I-20000J0D01*
G01*
X350000D02*
G03*
X350000Y-1615591I-20000J0D01*
G01*
X389000D02*
G03*
X389000Y-1615591I-20000J0D01*
G01*
Y-866378D02*
G03*
X389000Y-866378I-20000J0D01*
G01*
X350000D02*
G03*
X350000Y-866378I-20000J0D01*
G01*
X272000D02*
G03*
X272000Y-866378I-20000J0D01*
G01*
X311000D02*
G03*
X311000Y-866378I-20000J0D01*
G01*
X3848063Y-125528D02*
G03*
X3848063Y-125528I-20000J0D01*
G01*
X3847000Y-304527D02*
G03*
X3847000Y-304527I-20000J0D01*
G01*
X3845000Y-925528D02*
G03*
X3845000Y-925528I-20000J0D01*
G01*
X3836000Y-1394527D02*
G03*
X3836000Y-1394527I-20000J0D01*
G01*
X3330000Y-1009528D02*
G03*
X3330000Y-1009528I-20000J0D01*
G01*
D115*
X3237000Y-1954527D02*
G03*
X3237000Y-1954527I-12000J0D01*
G01*
Y-1869527D02*
G03*
X3237000Y-1869527I-12000J0D01*
G01*
Y-1784527D02*
G03*
X3237000Y-1784527I-12000J0D01*
G01*
X3352000Y-1814528D02*
G03*
X3352000Y-1814528I-12000J0D01*
G01*
Y-1892861D02*
G03*
X3352000Y-1892861I-12000J0D01*
G01*
Y-1971194D02*
G03*
X3352000Y-1971194I-12000J0D01*
G01*
Y-2049528D02*
G03*
X3352000Y-2049528I-12000J0D01*
G01*
X303000Y-2364803D02*
G03*
X303000Y-2364803I-12000J0D01*
G01*
X264000D02*
G03*
X264000Y-2364803I-12000J0D01*
G01*
X342000D02*
G03*
X342000Y-2364803I-12000J0D01*
G01*
X381000D02*
G03*
X381000Y-2364803I-12000J0D01*
G01*
X303000Y-1615591D02*
G03*
X303000Y-1615591I-12000J0D01*
G01*
X264000D02*
G03*
X264000Y-1615591I-12000J0D01*
G01*
X342000D02*
G03*
X342000Y-1615591I-12000J0D01*
G01*
X381000D02*
G03*
X381000Y-1615591I-12000J0D01*
G01*
Y-866378D02*
G03*
X381000Y-866378I-12000J0D01*
G01*
X342000D02*
G03*
X342000Y-866378I-12000J0D01*
G01*
X264000D02*
G03*
X264000Y-866378I-12000J0D01*
G01*
X303000D02*
G03*
X303000Y-866378I-12000J0D01*
G01*
X3840063Y-125528D02*
G03*
X3840063Y-125528I-12000J0D01*
G01*
X3839000Y-304527D02*
G03*
X3839000Y-304527I-12000J0D01*
G01*
X3837000Y-925528D02*
G03*
X3837000Y-925528I-12000J0D01*
G01*
X3828000Y-1394527D02*
G03*
X3828000Y-1394527I-12000J0D01*
G01*
X3322000Y-1009528D02*
G03*
X3322000Y-1009528I-12000J0D01*
G01*
%TF.MD5,1d717f44dfcae8c913098ccfe9c060b2*%
M02*
