G04 Layer_Physical_Order=1*
G04 Layer_Color=255*
%FSLAX25Y25*%
%MOIN*%
G70*
G01*
G75*
%ADD10R,0.05905X0.06299*%
%ADD11R,0.05512X0.05905*%
%ADD12R,0.06299X0.05905*%
%ADD13R,0.02362X0.07087*%
%ADD14O,0.02362X0.07087*%
%ADD15R,0.05905X0.05512*%
%ADD16R,0.07874X0.13976*%
%ADD17O,0.02559X0.07087*%
%ADD18R,0.08071X0.17126*%
%ADD19C,0.10000*%
%ADD20C,0.02000*%
%ADD21C,0.03000*%
%ADD22C,0.13000*%
%ADD23C,0.06000*%
%ADD24R,0.05900X0.07100*%
%ADD25R,0.06900X0.08400*%
%ADD26R,0.05905X0.05905*%
%ADD27C,0.05905*%
%ADD28R,0.11811X0.11811*%
%ADD29C,0.11811*%
%ADD30R,0.11811X0.11811*%
%ADD31C,0.06000*%
%ADD32O,0.19685X0.11811*%
%ADD33O,0.09842X0.05118*%
%ADD34R,0.09842X0.05118*%
%ADD35C,0.04724*%
%ADD36C,0.15748*%
%ADD37C,0.31496*%
%ADD38C,0.07874*%
%ADD39C,0.03000*%
%ADD40C,0.02362*%
%ADD41C,0.05000*%
G36*
X148200Y134300D02*
X151400Y131100D01*
X151400Y123900D01*
X147800Y120300D01*
X119800Y120300D01*
Y134300D01*
X148200Y134300D01*
D02*
G37*
G36*
X374500Y311500D02*
X369200Y306200D01*
Y262700D01*
X363500Y257000D01*
X346500D01*
X341500Y262000D01*
Y271400D01*
X352400D01*
X357000Y276000D01*
Y285000D01*
X353016Y288984D01*
X353000Y288000D01*
X335000D01*
X327000Y280000D01*
Y269000D01*
X323500Y265500D01*
X315000D01*
Y245000D01*
X315030Y223970D01*
X339000Y200000D01*
X339000Y168000D01*
X342500Y164500D01*
Y156886D01*
X342038Y156694D01*
X309930Y188802D01*
X309103Y189355D01*
X308374Y189500D01*
X308423Y190000D01*
X315500D01*
Y190000D01*
X316500D01*
X318500Y192000D01*
Y212500D01*
X309000Y222000D01*
Y274500D01*
X330250Y295750D01*
X345250Y295750D01*
X353000Y303500D01*
Y307500D01*
X360000Y314500D01*
X366500D01*
X369000Y317000D01*
X374500D01*
Y311500D01*
D02*
G37*
G36*
X66600Y300000D02*
X69200Y297400D01*
Y286000D01*
X62300Y286000D01*
X53500Y286000D01*
X52500Y287000D01*
Y293500D01*
X59000Y300000D01*
X66600Y300000D01*
D02*
G37*
G36*
X268737Y194263D02*
X268530Y193763D01*
X258539D01*
X258527Y193780D01*
X257350Y194567D01*
X255961Y194843D01*
X251237D01*
X249848Y194567D01*
X248671Y193780D01*
X247884Y192603D01*
X247608Y191214D01*
X247884Y189825D01*
X248671Y188648D01*
X249695Y187964D01*
X249543Y187464D01*
X246740D01*
X246728Y187481D01*
X245551Y188268D01*
X244162Y188544D01*
X239438D01*
X238049Y188268D01*
X236872Y187481D01*
X236085Y186304D01*
X235809Y184915D01*
X236085Y183526D01*
X236872Y182349D01*
X238049Y181562D01*
X239438Y181286D01*
X244162D01*
X245551Y181562D01*
X246728Y182349D01*
X246740Y182366D01*
X249543D01*
X249695Y181866D01*
X248671Y181182D01*
X247884Y180004D01*
X247608Y178616D01*
X247884Y177227D01*
X248671Y176050D01*
X249695Y175365D01*
X249543Y174865D01*
X246740D01*
X246728Y174882D01*
X245551Y175669D01*
X244162Y175945D01*
X239438D01*
X238049Y175669D01*
X236872Y174882D01*
X236085Y173705D01*
X235809Y172317D01*
X236085Y170928D01*
X236872Y169751D01*
X238049Y168964D01*
X239438Y168688D01*
X244162D01*
X245551Y168964D01*
X246728Y169751D01*
X246740Y169768D01*
X249543D01*
X249695Y169268D01*
X248671Y168583D01*
X247884Y167406D01*
X247608Y166017D01*
X247884Y164629D01*
X248671Y163451D01*
X249695Y162767D01*
X249543Y162267D01*
X246740D01*
X246728Y162284D01*
X245551Y163071D01*
X244162Y163347D01*
X239438D01*
X238049Y163071D01*
X236872Y162284D01*
X236085Y161107D01*
X235809Y159718D01*
X236085Y158329D01*
X236872Y157152D01*
X238049Y156366D01*
X239438Y156089D01*
X244162D01*
X245551Y156366D01*
X246728Y157152D01*
X246740Y157169D01*
X249543D01*
X249695Y156669D01*
X248671Y155985D01*
X247884Y154808D01*
X247608Y153419D01*
X247884Y152030D01*
X248671Y150853D01*
X249848Y150066D01*
X251237Y149790D01*
X251830D01*
X252039Y149651D01*
X253599Y149340D01*
X259892D01*
X275116Y134116D01*
X276439Y133232D01*
X278000Y132922D01*
X279112D01*
X279390Y132506D01*
X279268Y132213D01*
Y129760D01*
X283500D01*
X287732D01*
Y132213D01*
X287611Y132506D01*
X287888Y132922D01*
X317811D01*
X325989Y124744D01*
Y107937D01*
X326306Y107172D01*
X327071Y106855D01*
X328422D01*
Y100500D01*
X328465Y100283D01*
Y97547D01*
X328782Y96782D01*
X329547Y96465D01*
X332283D01*
X332500Y96422D01*
X332717Y96465D01*
X335453D01*
X336218Y96782D01*
X336535Y97547D01*
Y100283D01*
X336578Y100500D01*
Y124000D01*
X336578Y124000D01*
X336268Y125561D01*
X335384Y126884D01*
X335384Y126884D01*
X322384Y139884D01*
X321061Y140768D01*
X319500Y141078D01*
X319500Y141078D01*
X279689D01*
X264465Y156303D01*
X263884Y156691D01*
X264030Y157169D01*
X269226D01*
X280698Y145698D01*
X281524Y145145D01*
X282500Y144951D01*
X291225D01*
Y144047D01*
X291542Y143282D01*
X292307Y142965D01*
X297819D01*
X298584Y143282D01*
X298729Y143632D01*
X299271D01*
X299416Y143282D01*
X300181Y142965D01*
X305693D01*
X306458Y143282D01*
X306775Y144047D01*
Y144451D01*
X318787D01*
X342500Y120738D01*
X342500Y69437D01*
X328000Y64000D01*
X324000Y58000D01*
X315156D01*
X315035Y58181D01*
Y60437D01*
X306965D01*
Y58181D01*
X306844Y58000D01*
X296000D01*
X278000Y76000D01*
X243000Y76000D01*
X232000Y87000D01*
Y124619D01*
X232965Y124811D01*
X234078Y125554D01*
X234821Y126666D01*
X235082Y127978D01*
X234821Y129290D01*
X234078Y130402D01*
X232965Y131145D01*
X232000Y131337D01*
Y143599D01*
X233178Y143833D01*
X234290Y144576D01*
X235033Y145688D01*
X235294Y147000D01*
X235033Y148312D01*
X234290Y149424D01*
X233178Y150167D01*
X232000Y150401D01*
Y161572D01*
X233312Y161833D01*
X234424Y162576D01*
X235167Y163688D01*
X235428Y165000D01*
X235167Y166312D01*
X234424Y167424D01*
X233312Y168167D01*
X232000Y168428D01*
Y190000D01*
X238448Y196448D01*
X266552D01*
X268737Y194263D01*
D02*
G37*
G36*
X148200Y170500D02*
X151400Y167300D01*
X151400Y160100D01*
X147800Y156500D01*
X119800Y156500D01*
Y170500D01*
X148200Y170500D01*
D02*
G37*
G36*
X66700Y149800D02*
X66700Y140200D01*
X62300Y135800D01*
X53500Y135800D01*
X52500Y136800D01*
Y143300D01*
X59000Y149800D01*
X66700Y149800D01*
D02*
G37*
G36*
X45000Y150157D02*
X51500Y143658D01*
X51500Y137157D01*
X50500Y136157D01*
X23500Y136158D01*
X22500Y135158D01*
X22500Y121157D01*
X21500Y120158D01*
X8500Y120158D01*
X7500Y121157D01*
X7500Y146158D01*
X11500Y150157D01*
X45000Y150157D01*
D02*
G37*
G36*
X298961Y373539D02*
X298187Y372381D01*
X298015Y371516D01*
X301484D01*
Y371016D01*
X301984D01*
Y367547D01*
X302850Y367719D01*
X304008Y368492D01*
X312500Y360000D01*
X312500Y302500D01*
X288052Y278052D01*
X251608D01*
X251409Y277970D01*
X251194D01*
X250470Y277670D01*
X250318Y277518D01*
X250274Y277500D01*
X230000Y277500D01*
X219000Y266500D01*
Y147518D01*
X218948Y147392D01*
Y147000D01*
Y130500D01*
Y130108D01*
X219000Y129982D01*
Y76751D01*
X230000Y65000D01*
X268050D01*
X275000Y57500D01*
Y40000D01*
X268050Y32500D01*
X135000Y32500D01*
X127000Y40500D01*
X127000Y56816D01*
X134184Y64000D01*
X187100Y64000D01*
X196800Y73700D01*
Y119300D01*
Y289300D01*
X205000Y297500D01*
X275000Y297500D01*
X287500Y310000D01*
X287500Y337500D01*
X276800Y348200D01*
X248200Y348200D01*
X129322Y348200D01*
X117300Y336178D01*
Y312601D01*
X130065Y300000D01*
X146600Y300000D01*
X147590Y299161D01*
X147365Y298696D01*
X147100Y298749D01*
X146124Y298555D01*
X145298Y298002D01*
X144745Y297176D01*
X144650Y296700D01*
X149549D01*
X149515Y296874D01*
X149971Y297143D01*
X156800Y291356D01*
X156800Y236800D01*
X152052Y232052D01*
X147593D01*
X147493Y232552D01*
X148377Y232918D01*
X149820Y234025D01*
X150926Y235468D01*
X151622Y237148D01*
X151794Y238450D01*
X140957D01*
X130121D01*
X130293Y237148D01*
X130989Y235468D01*
X132095Y234025D01*
X133538Y232918D01*
X134422Y232552D01*
X134322Y232052D01*
X125513D01*
X110136Y247429D01*
X110281Y247908D01*
X111042Y248059D01*
X112350Y248933D01*
X113223Y250240D01*
X113431Y251283D01*
X109500D01*
Y251783D01*
X109000D01*
Y255713D01*
X108065Y255527D01*
X107565Y255799D01*
Y277500D01*
X81500Y304500D01*
Y342500D01*
X72000Y352000D01*
X45500D01*
X36000Y341319D01*
X36000Y334500D01*
X26500Y325000D01*
X6497Y325000D01*
X-5000Y336497D01*
X-5000Y367500D01*
X-2500Y370000D01*
X5000Y370000D01*
X7508Y372508D01*
X7496Y379996D01*
X10000Y382500D01*
X290000Y382500D01*
X298961Y373539D01*
D02*
G37*
G36*
X384500Y304000D02*
X384500Y278000D01*
X383500Y277000D01*
X378000Y277000D01*
X377000Y278000D01*
X377000Y304000D01*
X377500Y304500D01*
X384000D01*
X384500Y304000D01*
D02*
G37*
G36*
X45000Y300000D02*
X51500Y293500D01*
X51500Y287000D01*
X50500Y286000D01*
X23500Y286000D01*
X22500Y285000D01*
X22500Y271000D01*
X21500Y270000D01*
X8500Y270000D01*
X7500Y271000D01*
X7500Y296000D01*
X11500Y300000D01*
X45000Y300000D01*
D02*
G37*
G36*
X66600Y224900D02*
X69200Y222300D01*
Y210900D01*
X62300Y210900D01*
X53500Y210900D01*
X52500Y211900D01*
Y218400D01*
X59000Y224900D01*
X66600Y224900D01*
D02*
G37*
G36*
X277500Y332860D02*
Y315000D01*
X270000Y307500D01*
X200000Y307500D01*
X189600Y297100D01*
X189600Y124600D01*
X189600Y79600D01*
X182500Y72500D01*
X167259D01*
X167107Y73000D01*
X167702Y73398D01*
X168255Y74225D01*
X168350Y74700D01*
X163451D01*
X163545Y74225D01*
X164098Y73398D01*
X164693Y73000D01*
X164541Y72500D01*
X139059D01*
X138907Y73000D01*
X139502Y73398D01*
X140055Y74225D01*
X140149Y74700D01*
X135250D01*
X135345Y74225D01*
X135898Y73398D01*
X136493Y73000D01*
X136341Y72500D01*
X127500D01*
X117500Y62500D01*
Y32273D01*
X125500Y25000D01*
X275000Y25000D01*
X280000Y20000D01*
Y13860D01*
X279500Y13450D01*
Y11000D01*
Y8551D01*
D01*
X280000Y8140D01*
Y0D01*
X275000Y-5000D01*
X97500D01*
X10000Y-5000D01*
X7500Y-2500D01*
Y5000D01*
X5000Y7500D01*
X-2500Y7500D01*
X-5000Y10000D01*
X-5000Y46976D01*
X56Y52500D01*
X27500D01*
X37500Y45000D01*
Y37500D01*
X47500Y27500D01*
X70000Y27500D01*
X80800Y38300D01*
X80800Y154750D01*
X95599Y169859D01*
X96062Y169670D01*
Y164000D01*
X101081D01*
Y163500D01*
X101581D01*
Y155429D01*
X105018D01*
X105783Y155746D01*
X106100Y156512D01*
Y160312D01*
X106579Y160457D01*
X106650Y160350D01*
X107958Y159477D01*
X109000Y159269D01*
Y163200D01*
Y167131D01*
X107958Y166923D01*
X106650Y166050D01*
X106579Y165943D01*
X106100Y166088D01*
Y170481D01*
X112500Y170500D01*
X115000Y167444D01*
Y160000D01*
X113500Y158000D01*
X110000D01*
X109000Y157000D01*
Y115300D01*
X157800Y115300D01*
X167500Y124000D01*
Y292500D01*
X152500Y307500D01*
X133300Y307500D01*
X125800Y315000D01*
X125800Y330000D01*
X135800Y340000D01*
X269159Y340000D01*
X277500Y332860D01*
D02*
G37*
G36*
X45000Y225079D02*
X51500Y218579D01*
X51500Y212079D01*
X50500Y211079D01*
X23500Y211079D01*
X22500Y210079D01*
X22500Y196079D01*
X21500Y195079D01*
X8500Y195079D01*
X7500Y196079D01*
X7500Y221079D01*
X11500Y225079D01*
X45000Y225079D01*
D02*
G37*
%LPC*%
G36*
X253649Y93900D02*
X251700D01*
Y91951D01*
X252175Y92045D01*
X253002Y92598D01*
X253555Y93424D01*
X253649Y93900D01*
D02*
G37*
G36*
X250700D02*
X248750D01*
X248845Y93424D01*
X249398Y92598D01*
X250224Y92045D01*
X250700Y91951D01*
Y93900D01*
D02*
G37*
G36*
X242300Y86449D02*
X241825Y86355D01*
X240998Y85802D01*
X240445Y84975D01*
X240351Y84500D01*
X242300D01*
Y86449D01*
D02*
G37*
G36*
X243300D02*
Y84500D01*
X245250D01*
X245155Y84975D01*
X244602Y85802D01*
X243776Y86355D01*
X243300Y86449D01*
D02*
G37*
G36*
X261100D02*
X260625Y86355D01*
X259798Y85802D01*
X259245Y84975D01*
X259151Y84500D01*
X261100D01*
Y86449D01*
D02*
G37*
G36*
X280900D02*
Y84500D01*
X282850D01*
X282755Y84975D01*
X282202Y85802D01*
X281376Y86355D01*
X280900Y86449D01*
D02*
G37*
G36*
X262100D02*
Y84500D01*
X264050D01*
X263955Y84975D01*
X263402Y85802D01*
X262576Y86355D01*
X262100Y86449D01*
D02*
G37*
G36*
X279900D02*
X279425Y86355D01*
X278598Y85802D01*
X278045Y84975D01*
X277951Y84500D01*
X279900D01*
Y86449D01*
D02*
G37*
G36*
X269500Y93900D02*
X267550D01*
X267645Y93424D01*
X268198Y92598D01*
X269024Y92045D01*
X269500Y91951D01*
Y93900D01*
D02*
G37*
G36*
X326431Y100000D02*
X323000D01*
Y96569D01*
X324042Y96777D01*
X325350Y97650D01*
X326223Y98958D01*
X326431Y100000D01*
D02*
G37*
G36*
X316431D02*
X313000D01*
Y96569D01*
X314042Y96777D01*
X315350Y97650D01*
X316223Y98958D01*
X316431Y100000D01*
D02*
G37*
G36*
X322000D02*
X318569D01*
X318777Y98958D01*
X319650Y97650D01*
X320958Y96777D01*
X322000Y96569D01*
Y100000D01*
D02*
G37*
G36*
X312000D02*
X308569D01*
X308777Y98958D01*
X309650Y97650D01*
X310958Y96777D01*
X312000Y96569D01*
Y100000D01*
D02*
G37*
G36*
X288300Y96850D02*
X287825Y96755D01*
X286998Y96202D01*
X286445Y95376D01*
X286350Y94900D01*
X288300D01*
Y96850D01*
D02*
G37*
G36*
X270500D02*
Y94900D01*
X272449D01*
X272355Y95376D01*
X271802Y96202D01*
X270975Y96755D01*
X270500Y96850D01*
D02*
G37*
G36*
X289300D02*
Y94900D01*
X291249D01*
X291155Y95376D01*
X290602Y96202D01*
X289775Y96755D01*
X289300Y96850D01*
D02*
G37*
G36*
X288300Y93900D02*
X286350D01*
X286445Y93424D01*
X286998Y92598D01*
X287825Y92045D01*
X288300Y91951D01*
Y93900D01*
D02*
G37*
G36*
X272449D02*
X270500D01*
Y91951D01*
X270975Y92045D01*
X271802Y92598D01*
X272355Y93424D01*
X272449Y93900D01*
D02*
G37*
G36*
X291249D02*
X289300D01*
Y91951D01*
X289775Y92045D01*
X290602Y92598D01*
X291155Y93424D01*
X291249Y93900D01*
D02*
G37*
G36*
X250700Y96850D02*
X250224Y96755D01*
X249398Y96202D01*
X248845Y95376D01*
X248750Y94900D01*
X250700D01*
Y96850D01*
D02*
G37*
G36*
X269500D02*
X269024Y96755D01*
X268198Y96202D01*
X267645Y95376D01*
X267550Y94900D01*
X269500D01*
Y96850D01*
D02*
G37*
G36*
X251700D02*
Y94900D01*
X253649D01*
X253555Y95376D01*
X253002Y96202D01*
X252175Y96755D01*
X251700Y96850D01*
D02*
G37*
G36*
X290300Y73100D02*
X288351D01*
X288445Y72624D01*
X288998Y71798D01*
X289825Y71245D01*
X290300Y71150D01*
Y73100D01*
D02*
G37*
G36*
X293250D02*
X291300D01*
Y71150D01*
X291775Y71245D01*
X292602Y71798D01*
X293155Y72624D01*
X293250Y73100D01*
D02*
G37*
G36*
X310500Y64775D02*
X308047D01*
X307282Y64458D01*
X306965Y63693D01*
Y61437D01*
X310500D01*
Y64775D01*
D02*
G37*
G36*
X313953D02*
X311500D01*
Y61437D01*
X315035D01*
Y63693D01*
X314718Y64458D01*
X313953Y64775D01*
D02*
G37*
G36*
X290300Y76050D02*
X289825Y75955D01*
X288998Y75402D01*
X288445Y74576D01*
X288351Y74100D01*
X290300D01*
Y76050D01*
D02*
G37*
G36*
X282850Y83500D02*
X280900D01*
Y81551D01*
X281376Y81645D01*
X282202Y82198D01*
X282755Y83025D01*
X282850Y83500D01*
D02*
G37*
G36*
X279900D02*
X277951D01*
X278045Y83025D01*
X278598Y82198D01*
X279425Y81645D01*
X279900Y81551D01*
Y83500D01*
D02*
G37*
G36*
X245250D02*
X243300D01*
Y81551D01*
X243776Y81645D01*
X244602Y82198D01*
X245155Y83025D01*
X245250Y83500D01*
D02*
G37*
G36*
X242300D02*
X240351D01*
X240445Y83025D01*
X240998Y82198D01*
X241825Y81645D01*
X242300Y81551D01*
Y83500D01*
D02*
G37*
G36*
X264050D02*
X262100D01*
Y81551D01*
X262576Y81645D01*
X263402Y82198D01*
X263955Y83025D01*
X264050Y83500D01*
D02*
G37*
G36*
X261100D02*
X259151D01*
X259245Y83025D01*
X259798Y82198D01*
X260625Y81645D01*
X261100Y81551D01*
Y83500D01*
D02*
G37*
G36*
X291300Y76050D02*
Y74100D01*
X293250D01*
X293155Y74576D01*
X292602Y75402D01*
X291775Y75955D01*
X291300Y76050D01*
D02*
G37*
G36*
X244162Y136575D02*
X242300D01*
Y132947D01*
Y129318D01*
X244162D01*
X245551Y129594D01*
X246691Y130356D01*
X246844Y130416D01*
X247252D01*
X247398Y130198D01*
X248224Y129645D01*
X248700Y129551D01*
Y132000D01*
Y134450D01*
X248224Y134355D01*
X247935Y134161D01*
X247515Y134335D01*
X246728Y135512D01*
X245551Y136299D01*
X244162Y136575D01*
D02*
G37*
G36*
X241300Y132447D02*
X235909D01*
X236085Y131558D01*
X236872Y130380D01*
X238049Y129594D01*
X239438Y129318D01*
X241300D01*
Y132447D01*
D02*
G37*
G36*
X249700Y134450D02*
Y132500D01*
X251649D01*
X251555Y132975D01*
X251002Y133802D01*
X250175Y134355D01*
X249700Y134450D01*
D02*
G37*
G36*
X251649Y131500D02*
X249700D01*
Y129551D01*
X250175Y129645D01*
X251002Y130198D01*
X251555Y131025D01*
X251649Y131500D01*
D02*
G37*
G36*
X287732Y128760D02*
X284000D01*
Y125225D01*
X286650D01*
X287415Y125542D01*
X287732Y126307D01*
Y128760D01*
D02*
G37*
G36*
X255961Y144449D02*
X251237D01*
X249848Y144173D01*
X248671Y143386D01*
X247884Y142209D01*
X247608Y140821D01*
X247884Y139432D01*
X248671Y138254D01*
X249848Y137468D01*
X251237Y137192D01*
X255961D01*
X257350Y137468D01*
X258527Y138254D01*
X259314Y139432D01*
X259590Y140821D01*
X259314Y142209D01*
X258527Y143386D01*
X257350Y144173D01*
X255961Y144449D01*
D02*
G37*
G36*
X241300Y136575D02*
X239438D01*
X238049Y136299D01*
X236872Y135512D01*
X236085Y134335D01*
X235909Y133447D01*
X241300D01*
Y136575D01*
D02*
G37*
G36*
X310929Y126145D02*
X307394D01*
Y117000D01*
X312012D01*
Y125063D01*
X311695Y125828D01*
X310929Y126145D01*
D02*
G37*
G36*
X306394D02*
X302858D01*
X302093Y125828D01*
X301776Y125063D01*
Y117000D01*
X306394D01*
Y126145D01*
D02*
G37*
G36*
X260100Y126049D02*
Y124100D01*
X262050D01*
X261955Y124575D01*
X261402Y125402D01*
X260576Y125955D01*
X260100Y126049D01*
D02*
G37*
G36*
X283000Y128760D02*
X279268D01*
Y126307D01*
X279585Y125542D01*
X280350Y125225D01*
X283000D01*
Y128760D01*
D02*
G37*
G36*
X259100Y126049D02*
X258625Y125955D01*
X257798Y125402D01*
X257245Y124575D01*
X257151Y124100D01*
X259100D01*
Y126049D01*
D02*
G37*
G36*
X262050Y123100D02*
X260100D01*
Y121151D01*
X260576Y121245D01*
X261402Y121798D01*
X261955Y122625D01*
X262050Y123100D01*
D02*
G37*
G36*
X259100D02*
X257151D01*
X257245Y122625D01*
X257798Y121798D01*
X258625Y121245D01*
X259100Y121151D01*
Y123100D01*
D02*
G37*
G36*
X244162Y150749D02*
X239438D01*
X238049Y150472D01*
X236872Y149686D01*
X236085Y148508D01*
X235809Y147120D01*
X236085Y145731D01*
X236872Y144554D01*
X238049Y143767D01*
X239438Y143491D01*
X244162D01*
X245551Y143767D01*
X246728Y144554D01*
X247515Y145731D01*
X247791Y147120D01*
X247515Y148508D01*
X246728Y149686D01*
X245551Y150472D01*
X244162Y150749D01*
D02*
G37*
G36*
X262050Y104300D02*
X260100D01*
Y102350D01*
X260576Y102445D01*
X261402Y102998D01*
X261955Y103824D01*
X262050Y104300D01*
D02*
G37*
G36*
X259100D02*
X257151D01*
X257245Y103824D01*
X257798Y102998D01*
X258625Y102445D01*
X259100Y102350D01*
Y104300D01*
D02*
G37*
G36*
X280850D02*
X278900D01*
Y102350D01*
X279376Y102445D01*
X280202Y102998D01*
X280755Y103824D01*
X280850Y104300D01*
D02*
G37*
G36*
X277900D02*
X275951D01*
X276045Y103824D01*
X276598Y102998D01*
X277425Y102445D01*
X277900Y102350D01*
Y104300D01*
D02*
G37*
G36*
X243250D02*
X241300D01*
Y102350D01*
X241775Y102445D01*
X242602Y102998D01*
X243155Y103824D01*
X243250Y104300D01*
D02*
G37*
G36*
X240300D02*
X238351D01*
X238445Y103824D01*
X238998Y102998D01*
X239825Y102445D01*
X240300Y102350D01*
Y104300D01*
D02*
G37*
G36*
X277900Y107249D02*
X277425Y107155D01*
X276598Y106602D01*
X276045Y105775D01*
X275951Y105300D01*
X277900D01*
Y107249D01*
D02*
G37*
G36*
X260100D02*
Y105300D01*
X262050D01*
X261955Y105775D01*
X261402Y106602D01*
X260576Y107155D01*
X260100Y107249D01*
D02*
G37*
G36*
X306394Y116000D02*
X301776D01*
Y107937D01*
X302093Y107172D01*
X302858Y106855D01*
X306394D01*
Y116000D01*
D02*
G37*
G36*
X278900Y107249D02*
Y105300D01*
X280850D01*
X280755Y105775D01*
X280202Y106602D01*
X279376Y107155D01*
X278900Y107249D01*
D02*
G37*
G36*
X259100D02*
X258625Y107155D01*
X257798Y106602D01*
X257245Y105775D01*
X257151Y105300D01*
X259100D01*
Y107249D01*
D02*
G37*
G36*
X241300D02*
Y105300D01*
X243250D01*
X243155Y105775D01*
X242602Y106602D01*
X241775Y107155D01*
X241300Y107249D01*
D02*
G37*
G36*
X240300D02*
X239825Y107155D01*
X238998Y106602D01*
X238445Y105775D01*
X238351Y105300D01*
X240300D01*
Y107249D01*
D02*
G37*
G36*
X322000Y104431D02*
X320958Y104223D01*
X319650Y103350D01*
X318777Y102042D01*
X318569Y101000D01*
X322000D01*
Y104431D01*
D02*
G37*
G36*
X312000D02*
X310958Y104223D01*
X309650Y103350D01*
X308777Y102042D01*
X308569Y101000D01*
X312000D01*
Y104431D01*
D02*
G37*
G36*
X323000Y104431D02*
Y101000D01*
X326431D01*
X326223Y102042D01*
X325350Y103350D01*
X324042Y104223D01*
X323000Y104431D01*
D02*
G37*
G36*
X313000D02*
Y101000D01*
X316431D01*
X316223Y102042D01*
X315350Y103350D01*
X314042Y104223D01*
X313000Y104431D01*
D02*
G37*
G36*
X251649Y112700D02*
X249700D01*
Y110750D01*
X250175Y110845D01*
X251002Y111398D01*
X251555Y112224D01*
X251649Y112700D01*
D02*
G37*
G36*
X248700D02*
X246750D01*
X246845Y112224D01*
X247398Y111398D01*
X248224Y110845D01*
X248700Y110750D01*
Y112700D01*
D02*
G37*
G36*
X249700Y115649D02*
Y113700D01*
X251649D01*
X251555Y114175D01*
X251002Y115002D01*
X250175Y115555D01*
X249700Y115649D01*
D02*
G37*
G36*
X248700D02*
X248224Y115555D01*
X247398Y115002D01*
X246845Y114175D01*
X246750Y113700D01*
X248700D01*
Y115649D01*
D02*
G37*
G36*
X312012Y116000D02*
X307394D01*
Y106855D01*
X310929D01*
X311695Y107172D01*
X312012Y107937D01*
Y116000D01*
D02*
G37*
G36*
X215145Y86995D02*
X214670Y86901D01*
X213843Y86348D01*
X213290Y85521D01*
X213195Y85045D01*
X215145D01*
Y86995D01*
D02*
G37*
G36*
X216145D02*
Y85045D01*
X218095D01*
X218000Y85521D01*
X217447Y86348D01*
X216620Y86901D01*
X216145Y86995D01*
D02*
G37*
G36*
X203645Y97195D02*
Y95245D01*
X205595D01*
X205500Y95721D01*
X204947Y96548D01*
X204120Y97101D01*
X203645Y97195D01*
D02*
G37*
G36*
X202645D02*
X202170Y97101D01*
X201343Y96548D01*
X200790Y95721D01*
X200695Y95245D01*
X202645D01*
Y97195D01*
D02*
G37*
G36*
X205595Y94245D02*
X203645D01*
Y92296D01*
X204120Y92391D01*
X204947Y92943D01*
X205500Y93770D01*
X205595Y94245D01*
D02*
G37*
G36*
X202645D02*
X200695D01*
X200790Y93770D01*
X201343Y92943D01*
X202170Y92391D01*
X202645Y92296D01*
Y94245D01*
D02*
G37*
G36*
X215145Y69595D02*
X214670Y69500D01*
X213843Y68948D01*
X213290Y68121D01*
X213195Y67646D01*
X215145D01*
Y69595D01*
D02*
G37*
G36*
X218095Y66645D02*
X216145D01*
Y64696D01*
X216620Y64791D01*
X217447Y65343D01*
X218000Y66170D01*
X218095Y66645D01*
D02*
G37*
G36*
X215145D02*
X213195D01*
X213290Y66170D01*
X213843Y65343D01*
X214670Y64791D01*
X215145Y64696D01*
Y66645D01*
D02*
G37*
G36*
X216145Y69595D02*
Y67646D01*
X218095D01*
X218000Y68121D01*
X217447Y68948D01*
X216620Y69500D01*
X216145Y69595D01*
D02*
G37*
G36*
X223800Y61420D02*
X223324Y61325D01*
X222498Y60773D01*
X221945Y59945D01*
X221850Y59470D01*
X223800D01*
Y61420D01*
D02*
G37*
G36*
X206000D02*
Y59470D01*
X207949D01*
X207855Y59945D01*
X207302Y60773D01*
X206475Y61325D01*
X206000Y61420D01*
D02*
G37*
G36*
X242600D02*
X242125Y61325D01*
X241298Y60773D01*
X240745Y59945D01*
X240651Y59470D01*
X242600D01*
Y61420D01*
D02*
G37*
G36*
X224800D02*
Y59470D01*
X226749D01*
X226655Y59945D01*
X226102Y60773D01*
X225275Y61325D01*
X224800Y61420D01*
D02*
G37*
G36*
X205000D02*
X204524Y61325D01*
X203698Y60773D01*
X203145Y59945D01*
X203050Y59470D01*
X205000D01*
Y61420D01*
D02*
G37*
G36*
X168400D02*
Y59470D01*
X170350D01*
X170255Y59945D01*
X169702Y60773D01*
X168876Y61325D01*
X168400Y61420D01*
D02*
G37*
G36*
X167400D02*
X166925Y61325D01*
X166098Y60773D01*
X165545Y59945D01*
X165451Y59470D01*
X167400D01*
Y61420D01*
D02*
G37*
G36*
X187200D02*
Y59470D01*
X189149D01*
X189055Y59945D01*
X188502Y60773D01*
X187675Y61325D01*
X187200Y61420D01*
D02*
G37*
G36*
X186200D02*
X185724Y61325D01*
X184898Y60773D01*
X184345Y59945D01*
X184250Y59470D01*
X186200D01*
Y61420D01*
D02*
G37*
G36*
X243600D02*
Y59470D01*
X245550D01*
X245455Y59945D01*
X244902Y60773D01*
X244075Y61325D01*
X243600Y61420D01*
D02*
G37*
G36*
X215145Y84045D02*
X213195D01*
X213290Y83570D01*
X213843Y82743D01*
X214670Y82191D01*
X215145Y82096D01*
Y84045D01*
D02*
G37*
G36*
X218095D02*
X216145D01*
Y82096D01*
X216620Y82191D01*
X217447Y82743D01*
X218000Y83570D01*
X218095Y84045D01*
D02*
G37*
G36*
X202645Y76846D02*
X200695D01*
X200790Y76370D01*
X201343Y75543D01*
X202170Y74991D01*
X202645Y74896D01*
Y76846D01*
D02*
G37*
G36*
X205595D02*
X203645D01*
Y74896D01*
X204120Y74991D01*
X204947Y75543D01*
X205500Y76370D01*
X205595Y76846D01*
D02*
G37*
G36*
X203645Y79795D02*
Y77846D01*
X205595D01*
X205500Y78321D01*
X204947Y79148D01*
X204120Y79700D01*
X203645Y79795D01*
D02*
G37*
G36*
X202645D02*
X202170Y79700D01*
X201343Y79148D01*
X200790Y78321D01*
X200695Y77846D01*
X202645D01*
Y79795D01*
D02*
G37*
G36*
X216145Y121795D02*
Y119845D01*
X218095D01*
X218000Y120321D01*
X217447Y121148D01*
X216620Y121701D01*
X216145Y121795D01*
D02*
G37*
G36*
X215145D02*
X214670Y121701D01*
X213843Y121148D01*
X213290Y120321D01*
X213195Y119845D01*
X215145D01*
Y121795D01*
D02*
G37*
G36*
X216145Y191395D02*
Y189445D01*
X218095D01*
X218000Y189921D01*
X217447Y190748D01*
X216620Y191300D01*
X216145Y191395D01*
D02*
G37*
G36*
X215145D02*
X214670Y191300D01*
X213843Y190748D01*
X213290Y189921D01*
X213195Y189445D01*
X215145D01*
Y191395D01*
D02*
G37*
G36*
X218095Y188445D02*
X216145D01*
Y186496D01*
X216620Y186591D01*
X217447Y187143D01*
X218000Y187970D01*
X218095Y188445D01*
D02*
G37*
G36*
X203645Y184195D02*
Y182246D01*
X205595D01*
X205500Y182721D01*
X204947Y183548D01*
X204120Y184100D01*
X203645Y184195D01*
D02*
G37*
G36*
X215145Y188445D02*
X213195D01*
X213290Y187970D01*
X213843Y187143D01*
X214670Y186591D01*
X215145Y186496D01*
Y188445D01*
D02*
G37*
G36*
X202645Y201595D02*
X202170Y201501D01*
X201343Y200948D01*
X200790Y200121D01*
X200695Y199645D01*
X202645D01*
Y201595D01*
D02*
G37*
G36*
X203645D02*
Y199645D01*
X205595D01*
X205500Y200121D01*
X204947Y200948D01*
X204120Y201501D01*
X203645Y201595D01*
D02*
G37*
G36*
X205595Y198645D02*
X203645D01*
Y196696D01*
X204120Y196791D01*
X204947Y197343D01*
X205500Y198170D01*
X205595Y198645D01*
D02*
G37*
G36*
X202645D02*
X200695D01*
X200790Y198170D01*
X201343Y197343D01*
X202170Y196791D01*
X202645Y196696D01*
Y198645D01*
D02*
G37*
G36*
X205595Y181246D02*
X203645D01*
Y179296D01*
X204120Y179391D01*
X204947Y179943D01*
X205500Y180770D01*
X205595Y181246D01*
D02*
G37*
G36*
X202645Y184195D02*
X202170Y184100D01*
X201343Y183548D01*
X200790Y182721D01*
X200695Y182246D01*
X202645D01*
Y184195D01*
D02*
G37*
G36*
Y181246D02*
X200695D01*
X200790Y180770D01*
X201343Y179943D01*
X202170Y179391D01*
X202645Y179296D01*
Y181246D01*
D02*
G37*
G36*
X218095Y118845D02*
X216145D01*
Y116896D01*
X216620Y116991D01*
X217447Y117543D01*
X218000Y118370D01*
X218095Y118845D01*
D02*
G37*
G36*
X216145Y104395D02*
Y102445D01*
X218095D01*
X218000Y102921D01*
X217447Y103748D01*
X216620Y104300D01*
X216145Y104395D01*
D02*
G37*
G36*
X215145D02*
X214670Y104300D01*
X213843Y103748D01*
X213290Y102921D01*
X213195Y102445D01*
X215145D01*
Y104395D01*
D02*
G37*
G36*
X218095Y101445D02*
X216145D01*
Y99496D01*
X216620Y99591D01*
X217447Y100143D01*
X218000Y100970D01*
X218095Y101445D01*
D02*
G37*
G36*
X215145D02*
X213195D01*
X213290Y100970D01*
X213843Y100143D01*
X214670Y99591D01*
X215145Y99496D01*
Y101445D01*
D02*
G37*
G36*
X203645Y114595D02*
Y112645D01*
X205595D01*
X205500Y113121D01*
X204947Y113948D01*
X204120Y114500D01*
X203645Y114595D01*
D02*
G37*
G36*
X202645D02*
X202170Y114500D01*
X201343Y113948D01*
X200790Y113121D01*
X200695Y112645D01*
X202645D01*
Y114595D01*
D02*
G37*
G36*
X215145Y118845D02*
X213195D01*
X213290Y118370D01*
X213843Y117543D01*
X214670Y116991D01*
X215145Y116896D01*
Y118845D01*
D02*
G37*
G36*
X205595Y111645D02*
X203645D01*
Y109696D01*
X204120Y109791D01*
X204947Y110343D01*
X205500Y111170D01*
X205595Y111645D01*
D02*
G37*
G36*
X202645D02*
X200695D01*
X200790Y111170D01*
X201343Y110343D01*
X202170Y109791D01*
X202645Y109696D01*
Y111645D01*
D02*
G37*
G36*
X152149Y61420D02*
Y59470D01*
X154098D01*
X154004Y59945D01*
X153451Y60773D01*
X152624Y61325D01*
X152149Y61420D01*
D02*
G37*
G36*
X234200Y48070D02*
X232250D01*
X232345Y47595D01*
X232898Y46768D01*
X233724Y46215D01*
X234200Y46121D01*
Y48070D01*
D02*
G37*
G36*
X218350D02*
X216400D01*
Y46121D01*
X216876Y46215D01*
X217702Y46768D01*
X218255Y47595D01*
X218350Y48070D01*
D02*
G37*
G36*
X237150D02*
X235200D01*
Y46121D01*
X235676Y46215D01*
X236502Y46768D01*
X237055Y47595D01*
X237150Y48070D01*
D02*
G37*
G36*
X215400D02*
X213451D01*
X213545Y47595D01*
X214098Y46768D01*
X214925Y46215D01*
X215400Y46121D01*
Y48070D01*
D02*
G37*
G36*
X180749D02*
X178800D01*
Y46121D01*
X179276Y46215D01*
X180102Y46768D01*
X180655Y47595D01*
X180749Y48070D01*
D02*
G37*
G36*
X177800D02*
X175850D01*
X175945Y47595D01*
X176498Y46768D01*
X177324Y46215D01*
X177800Y46121D01*
Y48070D01*
D02*
G37*
G36*
X199549D02*
X197600D01*
Y46121D01*
X198075Y46215D01*
X198902Y46768D01*
X199455Y47595D01*
X199549Y48070D01*
D02*
G37*
G36*
X196600D02*
X194650D01*
X194745Y47595D01*
X195298Y46768D01*
X196124Y46215D01*
X196600Y46121D01*
Y48070D01*
D02*
G37*
G36*
X178800Y51020D02*
Y49070D01*
X180749D01*
X180655Y49545D01*
X180102Y50372D01*
X179276Y50925D01*
X178800Y51020D01*
D02*
G37*
G36*
X177800D02*
X177324Y50925D01*
X176498Y50372D01*
X175945Y49545D01*
X175850Y49070D01*
X177800D01*
Y51020D01*
D02*
G37*
G36*
X197600D02*
Y49070D01*
X199549D01*
X199455Y49545D01*
X198902Y50372D01*
X198075Y50925D01*
X197600Y51020D01*
D02*
G37*
G36*
X196600D02*
X196124Y50925D01*
X195298Y50372D01*
X194745Y49545D01*
X194650Y49070D01*
X196600D01*
Y51020D01*
D02*
G37*
G36*
X160000D02*
Y49070D01*
X161950D01*
X161855Y49545D01*
X161302Y50372D01*
X160476Y50925D01*
X160000Y51020D01*
D02*
G37*
G36*
X159000D02*
X158525Y50925D01*
X157698Y50372D01*
X157145Y49545D01*
X157051Y49070D01*
X159000D01*
Y51020D01*
D02*
G37*
G36*
X161950Y48070D02*
X160000D01*
Y46121D01*
X160476Y46215D01*
X161302Y46768D01*
X161855Y47595D01*
X161950Y48070D01*
D02*
G37*
G36*
X245600Y40620D02*
Y38670D01*
X247550D01*
X247455Y39145D01*
X246902Y39972D01*
X246076Y40525D01*
X245600Y40620D01*
D02*
G37*
G36*
X244600D02*
X244125Y40525D01*
X243298Y39972D01*
X242745Y39145D01*
X242651Y38670D01*
X244600D01*
Y40620D01*
D02*
G37*
G36*
X226800D02*
Y38670D01*
X228749D01*
X228655Y39145D01*
X228102Y39972D01*
X227275Y40525D01*
X226800Y40620D01*
D02*
G37*
G36*
X207000D02*
X206524Y40525D01*
X205698Y39972D01*
X205145Y39145D01*
X205050Y38670D01*
X207000D01*
Y40620D01*
D02*
G37*
G36*
X189200D02*
Y38670D01*
X191149D01*
X191055Y39145D01*
X190502Y39972D01*
X189675Y40525D01*
X189200Y40620D01*
D02*
G37*
G36*
X225800D02*
X225325Y40525D01*
X224498Y39972D01*
X223945Y39145D01*
X223850Y38670D01*
X225800D01*
Y40620D01*
D02*
G37*
G36*
X208000D02*
Y38670D01*
X209949D01*
X209855Y39145D01*
X209302Y39972D01*
X208475Y40525D01*
X208000Y40620D01*
D02*
G37*
G36*
X140100Y50070D02*
X131715D01*
X131954Y48254D01*
X132849Y46095D01*
X134271Y44241D01*
X136125Y42819D01*
X138283Y41925D01*
X140100Y41685D01*
Y50070D01*
D02*
G37*
G36*
X270485D02*
X262100D01*
Y41685D01*
X263917Y41925D01*
X266075Y42819D01*
X267929Y44241D01*
X269351Y46095D01*
X270246Y48254D01*
X270485Y50070D01*
D02*
G37*
G36*
X159000Y48070D02*
X157051D01*
X157145Y47595D01*
X157698Y46768D01*
X158525Y46215D01*
X159000Y46121D01*
Y48070D01*
D02*
G37*
G36*
X261100Y50070D02*
X252715D01*
X252954Y48254D01*
X253849Y46095D01*
X255271Y44241D01*
X257125Y42819D01*
X259283Y41925D01*
X261100Y41685D01*
Y50070D01*
D02*
G37*
G36*
X149485D02*
X141100D01*
Y41685D01*
X142917Y41925D01*
X145075Y42819D01*
X146929Y44241D01*
X148351Y46095D01*
X149246Y48254D01*
X149485Y50070D01*
D02*
G37*
G36*
X207949Y58470D02*
X206000D01*
Y56521D01*
X206475Y56615D01*
X207302Y57168D01*
X207855Y57995D01*
X207949Y58470D01*
D02*
G37*
G36*
X205000D02*
X203050D01*
X203145Y57995D01*
X203698Y57168D01*
X204524Y56615D01*
X205000Y56521D01*
Y58470D01*
D02*
G37*
G36*
X226749D02*
X224800D01*
Y56521D01*
X225275Y56615D01*
X226102Y57168D01*
X226655Y57995D01*
X226749Y58470D01*
D02*
G37*
G36*
X223800D02*
X221850D01*
X221945Y57995D01*
X222498Y57168D01*
X223324Y56615D01*
X223800Y56521D01*
Y58470D01*
D02*
G37*
G36*
X189149D02*
X187200D01*
Y56521D01*
X187675Y56615D01*
X188502Y57168D01*
X189055Y57995D01*
X189149Y58470D01*
D02*
G37*
G36*
X167400D02*
X165451D01*
X165545Y57995D01*
X166098Y57168D01*
X166925Y56615D01*
X167400Y56521D01*
Y58470D01*
D02*
G37*
G36*
X154098D02*
X152149D01*
Y56521D01*
X152624Y56615D01*
X153451Y57168D01*
X154004Y57995D01*
X154098Y58470D01*
D02*
G37*
G36*
X186200D02*
X184250D01*
X184345Y57995D01*
X184898Y57168D01*
X185724Y56615D01*
X186200Y56521D01*
Y58470D01*
D02*
G37*
G36*
X170350D02*
X168400D01*
Y56521D01*
X168876Y56615D01*
X169702Y57168D01*
X170255Y57995D01*
X170350Y58470D01*
D02*
G37*
G36*
X151149Y61420D02*
X150673Y61325D01*
X149847Y60773D01*
X149294Y59945D01*
X149199Y59470D01*
X151149D01*
Y61420D01*
D02*
G37*
G36*
X245550Y58470D02*
X243600D01*
Y56521D01*
X244075Y56615D01*
X244902Y57168D01*
X245455Y57995D01*
X245550Y58470D01*
D02*
G37*
G36*
X242600D02*
X240651D01*
X240745Y57995D01*
X241298Y57168D01*
X242125Y56615D01*
X242600Y56521D01*
Y58470D01*
D02*
G37*
G36*
X151149D02*
X149199D01*
X149294Y57995D01*
X149847Y57168D01*
X150673Y56615D01*
X151149Y56521D01*
Y58470D01*
D02*
G37*
G36*
X140100Y59455D02*
X138283Y59216D01*
X136125Y58321D01*
X134271Y56899D01*
X132849Y55045D01*
X131954Y52887D01*
X131715Y51070D01*
X140100D01*
Y59455D01*
D02*
G37*
G36*
X216400Y51020D02*
Y49070D01*
X218350D01*
X218255Y49545D01*
X217702Y50372D01*
X216876Y50925D01*
X216400Y51020D01*
D02*
G37*
G36*
X215400D02*
X214925Y50925D01*
X214098Y50372D01*
X213545Y49545D01*
X213451Y49070D01*
X215400D01*
Y51020D01*
D02*
G37*
G36*
X235200D02*
Y49070D01*
X237150D01*
X237055Y49545D01*
X236502Y50372D01*
X235676Y50925D01*
X235200Y51020D01*
D02*
G37*
G36*
X234200D02*
X233724Y50925D01*
X232898Y50372D01*
X232345Y49545D01*
X232250Y49070D01*
X234200D01*
Y51020D01*
D02*
G37*
G36*
X141100Y59455D02*
Y51070D01*
X149485D01*
X149246Y52887D01*
X148351Y55045D01*
X146929Y56899D01*
X145075Y58321D01*
X142917Y59216D01*
X141100Y59455D01*
D02*
G37*
G36*
X261100Y59455D02*
X259283Y59216D01*
X257125Y58321D01*
X255271Y56899D01*
X253849Y55045D01*
X252954Y52887D01*
X252715Y51070D01*
X261100D01*
Y59455D01*
D02*
G37*
G36*
X262100Y59455D02*
Y51070D01*
X270485D01*
X270246Y52887D01*
X269351Y55045D01*
X267929Y56899D01*
X266075Y58321D01*
X263917Y59216D01*
X262100Y59455D01*
D02*
G37*
G36*
X188200Y40620D02*
X187724Y40525D01*
X186898Y39972D01*
X186345Y39145D01*
X186250Y38670D01*
X188200D01*
Y40620D01*
D02*
G37*
G36*
X244600Y37670D02*
X242651D01*
X242745Y37195D01*
X243298Y36368D01*
X244125Y35815D01*
X244600Y35721D01*
Y37670D01*
D02*
G37*
G36*
X228749D02*
X226800D01*
Y35721D01*
X227275Y35815D01*
X228102Y36368D01*
X228655Y37195D01*
X228749Y37670D01*
D02*
G37*
G36*
X247550D02*
X245600D01*
Y35721D01*
X246076Y35815D01*
X246902Y36368D01*
X247455Y37195D01*
X247550Y37670D01*
D02*
G37*
G36*
X225800D02*
X223850D01*
X223945Y37195D01*
X224498Y36368D01*
X225325Y35815D01*
X225800Y35721D01*
Y37670D01*
D02*
G37*
G36*
X191149D02*
X189200D01*
Y35721D01*
X189675Y35815D01*
X190502Y36368D01*
X191055Y37195D01*
X191149Y37670D01*
D02*
G37*
G36*
X188200D02*
X186250D01*
X186345Y37195D01*
X186898Y36368D01*
X187724Y35815D01*
X188200Y35721D01*
Y37670D01*
D02*
G37*
G36*
X209949D02*
X208000D01*
Y35721D01*
X208475Y35815D01*
X209302Y36368D01*
X209855Y37195D01*
X209949Y37670D01*
D02*
G37*
G36*
X207000D02*
X205050D01*
X205145Y37195D01*
X205698Y36368D01*
X206524Y35815D01*
X207000Y35721D01*
Y37670D01*
D02*
G37*
G36*
X151600Y40620D02*
Y38670D01*
X153550D01*
X153455Y39145D01*
X152902Y39972D01*
X152076Y40525D01*
X151600Y40620D01*
D02*
G37*
G36*
X150600D02*
X150125Y40525D01*
X149298Y39972D01*
X148745Y39145D01*
X148651Y38670D01*
X150600D01*
Y40620D01*
D02*
G37*
G36*
X170400D02*
Y38670D01*
X172350D01*
X172255Y39145D01*
X171702Y39972D01*
X170876Y40525D01*
X170400Y40620D01*
D02*
G37*
G36*
X169400D02*
X168924Y40525D01*
X168098Y39972D01*
X167545Y39145D01*
X167450Y38670D01*
X169400D01*
Y40620D01*
D02*
G37*
G36*
X172350Y37670D02*
X170400D01*
Y35721D01*
X170876Y35815D01*
X171702Y36368D01*
X172255Y37195D01*
X172350Y37670D01*
D02*
G37*
G36*
X150600D02*
X148651D01*
X148745Y37195D01*
X149298Y36368D01*
X150125Y35815D01*
X150600Y35721D01*
Y37670D01*
D02*
G37*
G36*
X169400D02*
X167450D01*
X167545Y37195D01*
X168098Y36368D01*
X168924Y35815D01*
X169400Y35721D01*
Y37670D01*
D02*
G37*
G36*
X153550D02*
X151600D01*
Y35721D01*
X152076Y35815D01*
X152902Y36368D01*
X153455Y37195D01*
X153550Y37670D01*
D02*
G37*
G36*
X292849Y354100D02*
X290900D01*
Y352151D01*
X291375Y352245D01*
X292202Y352798D01*
X292755Y353625D01*
X292849Y354100D01*
D02*
G37*
G36*
X289900D02*
X287950D01*
X288045Y353625D01*
X288598Y352798D01*
X289424Y352245D01*
X289900Y352151D01*
Y354100D01*
D02*
G37*
G36*
X311649D02*
X309700D01*
Y352151D01*
X310175Y352245D01*
X311002Y352798D01*
X311555Y353625D01*
X311649Y354100D01*
D02*
G37*
G36*
X308700D02*
X306750D01*
X306845Y353625D01*
X307398Y352798D01*
X308225Y352245D01*
X308700Y352151D01*
Y354100D01*
D02*
G37*
G36*
X274049D02*
X272100D01*
Y352151D01*
X272575Y352245D01*
X273402Y352798D01*
X273955Y353625D01*
X274049Y354100D01*
D02*
G37*
G36*
X129900D02*
X127951D01*
X128045Y353625D01*
X128598Y352798D01*
X129425Y352245D01*
X129900Y352151D01*
Y354100D01*
D02*
G37*
G36*
X114049D02*
X112100D01*
Y352151D01*
X112575Y352245D01*
X113402Y352798D01*
X113955Y353625D01*
X114049Y354100D01*
D02*
G37*
G36*
X271100D02*
X269150D01*
X269245Y353625D01*
X269798Y352798D01*
X270624Y352245D01*
X271100Y352151D01*
Y354100D01*
D02*
G37*
G36*
X132850D02*
X130900D01*
Y352151D01*
X131376Y352245D01*
X132202Y352798D01*
X132755Y353625D01*
X132850Y354100D01*
D02*
G37*
G36*
X175300Y354600D02*
X173351D01*
X173445Y354124D01*
X173998Y353298D01*
X174825Y352745D01*
X175300Y352650D01*
Y354600D01*
D02*
G37*
G36*
X159450D02*
X157500D01*
Y352650D01*
X157975Y352745D01*
X158802Y353298D01*
X159355Y354124D01*
X159450Y354600D01*
D02*
G37*
G36*
X194100D02*
X192150D01*
X192245Y354124D01*
X192798Y353298D01*
X193624Y352745D01*
X194100Y352650D01*
Y354600D01*
D02*
G37*
G36*
X178250D02*
X176300D01*
Y352650D01*
X176776Y352745D01*
X177602Y353298D01*
X178155Y354124D01*
X178250Y354600D01*
D02*
G37*
G36*
X156500D02*
X154551D01*
X154645Y354124D01*
X155198Y353298D01*
X156025Y352745D01*
X156500Y352650D01*
Y354600D01*
D02*
G37*
G36*
X39950Y354500D02*
X38000D01*
Y352551D01*
X38475Y352645D01*
X39302Y353198D01*
X39855Y354025D01*
X39950Y354500D01*
D02*
G37*
G36*
X37000D02*
X35050D01*
X35145Y354025D01*
X35698Y353198D01*
X36525Y352645D01*
X37000Y352551D01*
Y354500D01*
D02*
G37*
G36*
X84350D02*
X82400D01*
Y352551D01*
X82876Y352645D01*
X83702Y353198D01*
X84255Y354025D01*
X84350Y354500D01*
D02*
G37*
G36*
X81400D02*
X79451D01*
X79545Y354025D01*
X80098Y353198D01*
X80924Y352645D01*
X81400Y352551D01*
Y354500D01*
D02*
G37*
G36*
X111100Y354100D02*
X109151D01*
X109245Y353625D01*
X109798Y352798D01*
X110625Y352245D01*
X111100Y352151D01*
Y354100D01*
D02*
G37*
G36*
X85700Y346700D02*
X83750D01*
X83845Y346224D01*
X84398Y345398D01*
X85224Y344845D01*
X85700Y344750D01*
Y346700D01*
D02*
G37*
G36*
X305900Y345449D02*
Y343500D01*
X307850D01*
X307755Y343975D01*
X307202Y344802D01*
X306376Y345355D01*
X305900Y345449D01*
D02*
G37*
G36*
X103100Y346700D02*
X101151D01*
X101245Y346224D01*
X101798Y345398D01*
X102624Y344845D01*
X103100Y344750D01*
Y346700D01*
D02*
G37*
G36*
X88649D02*
X86700D01*
Y344750D01*
X87176Y344845D01*
X88002Y345398D01*
X88555Y346224D01*
X88649Y346700D01*
D02*
G37*
G36*
X304900Y345449D02*
X304425Y345355D01*
X303598Y344802D01*
X303045Y343975D01*
X302951Y343500D01*
X304900D01*
Y345449D01*
D02*
G37*
G36*
X95400Y344950D02*
Y343000D01*
X97350D01*
X97255Y343476D01*
X96702Y344302D01*
X95876Y344855D01*
X95400Y344950D01*
D02*
G37*
G36*
X94400D02*
X93924Y344855D01*
X93098Y344302D01*
X92545Y343476D01*
X92450Y343000D01*
X94400D01*
Y344950D01*
D02*
G37*
G36*
X112800D02*
Y343000D01*
X114750D01*
X114655Y343476D01*
X114102Y344302D01*
X113276Y344855D01*
X112800Y344950D01*
D02*
G37*
G36*
X111800D02*
X111325Y344855D01*
X110498Y344302D01*
X109945Y343476D01*
X109851Y343000D01*
X111800D01*
Y344950D01*
D02*
G37*
G36*
X18000Y364280D02*
Y348000D01*
X34280D01*
X34006Y350783D01*
X33048Y353940D01*
X31493Y356850D01*
X29400Y359400D01*
X26850Y361493D01*
X23940Y363048D01*
X20783Y364006D01*
X18000Y364280D01*
D02*
G37*
G36*
X17000Y364280D02*
X14217Y364006D01*
X11060Y363048D01*
X8150Y361493D01*
X5600Y359400D01*
X3507Y356850D01*
X1952Y353940D01*
X994Y350783D01*
X720Y348000D01*
X17000D01*
Y364280D01*
D02*
G37*
G36*
X95249Y354100D02*
X93300D01*
Y352151D01*
X93775Y352245D01*
X94602Y352798D01*
X95155Y353625D01*
X95249Y354100D01*
D02*
G37*
G36*
X92300D02*
X90351D01*
X90445Y353625D01*
X90998Y352798D01*
X91825Y352245D01*
X92300Y352151D01*
Y354100D01*
D02*
G37*
G36*
X104100Y349650D02*
Y347700D01*
X106050D01*
X105955Y348176D01*
X105402Y349002D01*
X104576Y349555D01*
X104100Y349650D01*
D02*
G37*
G36*
X85700D02*
X85224Y349555D01*
X84398Y349002D01*
X83845Y348176D01*
X83750Y347700D01*
X85700D01*
Y349650D01*
D02*
G37*
G36*
X106050Y346700D02*
X104100D01*
Y344750D01*
X104576Y344845D01*
X105402Y345398D01*
X105955Y346224D01*
X106050Y346700D01*
D02*
G37*
G36*
X103100Y349650D02*
X102624Y349555D01*
X101798Y349002D01*
X101245Y348176D01*
X101151Y347700D01*
X103100D01*
Y349650D01*
D02*
G37*
G36*
X86700D02*
Y347700D01*
X88649D01*
X88555Y348176D01*
X88002Y349002D01*
X87176Y349555D01*
X86700Y349650D01*
D02*
G37*
G36*
X81400Y357450D02*
X80924Y357355D01*
X80098Y356802D01*
X79545Y355976D01*
X79451Y355500D01*
X81400D01*
Y357450D01*
D02*
G37*
G36*
X38000D02*
Y355500D01*
X39950D01*
X39855Y355976D01*
X39302Y356802D01*
X38475Y357355D01*
X38000Y357450D01*
D02*
G37*
G36*
X46500Y357500D02*
X44550D01*
X44645Y357025D01*
X45198Y356198D01*
X46025Y355645D01*
X46500Y355551D01*
Y357500D01*
D02*
G37*
G36*
X82400Y357450D02*
Y355500D01*
X84350D01*
X84255Y355976D01*
X83702Y356802D01*
X82876Y357355D01*
X82400Y357450D01*
D02*
G37*
G36*
X37000D02*
X36525Y357355D01*
X35698Y356802D01*
X35145Y355976D01*
X35050Y355500D01*
X37000D01*
Y357450D01*
D02*
G37*
G36*
X290900Y357049D02*
Y355100D01*
X292849D01*
X292755Y355575D01*
X292202Y356402D01*
X291375Y356955D01*
X290900Y357049D01*
D02*
G37*
G36*
X289900D02*
X289424Y356955D01*
X288598Y356402D01*
X288045Y355575D01*
X287950Y355100D01*
X289900D01*
Y357049D01*
D02*
G37*
G36*
X309700D02*
Y355100D01*
X311649D01*
X311555Y355575D01*
X311002Y356402D01*
X310175Y356955D01*
X309700Y357049D01*
D02*
G37*
G36*
X308700D02*
X308225Y356955D01*
X307398Y356402D01*
X306845Y355575D01*
X306750Y355100D01*
X308700D01*
Y357049D01*
D02*
G37*
G36*
X74950Y357500D02*
X73000D01*
Y355551D01*
X73475Y355645D01*
X74302Y356198D01*
X74855Y357025D01*
X74950Y357500D01*
D02*
G37*
G36*
X72000D02*
X70051D01*
X70145Y357025D01*
X70698Y356198D01*
X71525Y355645D01*
X72000Y355551D01*
Y357500D01*
D02*
G37*
G36*
X157500Y357550D02*
Y355600D01*
X159450D01*
X159355Y356076D01*
X158802Y356902D01*
X157975Y357455D01*
X157500Y357550D01*
D02*
G37*
G36*
X156500D02*
X156025Y357455D01*
X155198Y356902D01*
X154645Y356076D01*
X154551Y355600D01*
X156500D01*
Y357550D01*
D02*
G37*
G36*
X66849Y357500D02*
X64900D01*
Y355551D01*
X65376Y355645D01*
X66202Y356198D01*
X66755Y357025D01*
X66849Y357500D01*
D02*
G37*
G36*
X54500D02*
X52551D01*
X52645Y357025D01*
X53198Y356198D01*
X54024Y355645D01*
X54500Y355551D01*
Y357500D01*
D02*
G37*
G36*
X49450D02*
X47500D01*
Y355551D01*
X47976Y355645D01*
X48802Y356198D01*
X49355Y357025D01*
X49450Y357500D01*
D02*
G37*
G36*
X63900D02*
X61950D01*
X62045Y357025D01*
X62598Y356198D01*
X63424Y355645D01*
X63900Y355551D01*
Y357500D01*
D02*
G37*
G36*
X57450D02*
X55500D01*
Y355551D01*
X55976Y355645D01*
X56802Y356198D01*
X57355Y357025D01*
X57450Y357500D01*
D02*
G37*
G36*
X272100Y357049D02*
Y355100D01*
X274049D01*
X273955Y355575D01*
X273402Y356402D01*
X272575Y356955D01*
X272100Y357049D01*
D02*
G37*
G36*
X253450Y354600D02*
X251500D01*
Y352650D01*
X251975Y352745D01*
X252802Y353298D01*
X253355Y354124D01*
X253450Y354600D01*
D02*
G37*
G36*
X250500D02*
X248551D01*
X248645Y354124D01*
X249198Y353298D01*
X250025Y352745D01*
X250500Y352650D01*
Y354600D01*
D02*
G37*
G36*
X261100Y361870D02*
X252715D01*
X252954Y360053D01*
X253849Y357895D01*
X255271Y356041D01*
X257125Y354619D01*
X259283Y353725D01*
X261100Y353485D01*
Y361870D01*
D02*
G37*
G36*
X270485D02*
X262100D01*
Y353485D01*
X263917Y353725D01*
X266075Y354619D01*
X267929Y356041D01*
X269351Y357895D01*
X270246Y360053D01*
X270485Y361870D01*
D02*
G37*
G36*
X234649Y354600D02*
X232700D01*
Y352650D01*
X233175Y352745D01*
X234002Y353298D01*
X234555Y354124D01*
X234649Y354600D01*
D02*
G37*
G36*
X212900D02*
X210950D01*
X211045Y354124D01*
X211598Y353298D01*
X212424Y352745D01*
X212900Y352650D01*
Y354600D01*
D02*
G37*
G36*
X197049D02*
X195100D01*
Y352650D01*
X195575Y352745D01*
X196402Y353298D01*
X196955Y354124D01*
X197049Y354600D01*
D02*
G37*
G36*
X231700D02*
X229750D01*
X229845Y354124D01*
X230398Y353298D01*
X231224Y352745D01*
X231700Y352650D01*
Y354600D01*
D02*
G37*
G36*
X215849D02*
X213900D01*
Y352650D01*
X214375Y352745D01*
X215202Y353298D01*
X215755Y354124D01*
X215849Y354600D01*
D02*
G37*
G36*
X129900Y357049D02*
X129425Y356955D01*
X128598Y356402D01*
X128045Y355575D01*
X127951Y355100D01*
X129900D01*
Y357049D01*
D02*
G37*
G36*
X112100D02*
Y355100D01*
X114049D01*
X113955Y355575D01*
X113402Y356402D01*
X112575Y356955D01*
X112100Y357049D01*
D02*
G37*
G36*
X271100D02*
X270624Y356955D01*
X269798Y356402D01*
X269245Y355575D01*
X269150Y355100D01*
X271100D01*
Y357049D01*
D02*
G37*
G36*
X130900D02*
Y355100D01*
X132850D01*
X132755Y355575D01*
X132202Y356402D01*
X131376Y356955D01*
X130900Y357049D01*
D02*
G37*
G36*
X111100D02*
X110625Y356955D01*
X109798Y356402D01*
X109245Y355575D01*
X109151Y355100D01*
X111100D01*
Y357049D01*
D02*
G37*
G36*
X140100Y362070D02*
X131715D01*
X131954Y360254D01*
X132849Y358095D01*
X134271Y356241D01*
X136125Y354819D01*
X138283Y353924D01*
X140100Y353685D01*
Y362070D01*
D02*
G37*
G36*
X149485D02*
X141100D01*
Y353685D01*
X142917Y353924D01*
X145075Y354819D01*
X146929Y356241D01*
X148351Y358095D01*
X149246Y360254D01*
X149485Y362070D01*
D02*
G37*
G36*
X93300Y357049D02*
Y355100D01*
X95249D01*
X95155Y355575D01*
X94602Y356402D01*
X93775Y356955D01*
X93300Y357049D01*
D02*
G37*
G36*
X92300D02*
X91825Y356955D01*
X90998Y356402D01*
X90445Y355575D01*
X90351Y355100D01*
X92300D01*
Y357049D01*
D02*
G37*
G36*
X106050Y327900D02*
X104100D01*
Y325951D01*
X104576Y326045D01*
X105402Y326598D01*
X105955Y327425D01*
X106050Y327900D01*
D02*
G37*
G36*
X103100D02*
X101151D01*
X101245Y327425D01*
X101798Y326598D01*
X102624Y326045D01*
X103100Y325951D01*
Y327900D01*
D02*
G37*
G36*
X88649D02*
X86700D01*
Y325951D01*
X87176Y326045D01*
X88002Y326598D01*
X88555Y327425D01*
X88649Y327900D01*
D02*
G37*
G36*
X85700D02*
X83750D01*
X83845Y327425D01*
X84398Y326598D01*
X85224Y326045D01*
X85700Y325951D01*
Y327900D01*
D02*
G37*
G36*
X297449Y332100D02*
X295500D01*
Y330151D01*
X295975Y330245D01*
X296802Y330798D01*
X297355Y331625D01*
X297449Y332100D01*
D02*
G37*
G36*
X294500D02*
X292550D01*
X292645Y331625D01*
X293198Y330798D01*
X294024Y330245D01*
X294500Y330151D01*
Y332100D01*
D02*
G37*
G36*
X94400Y332600D02*
X92450D01*
X92545Y332124D01*
X93098Y331298D01*
X93924Y330745D01*
X94400Y330650D01*
Y332600D01*
D02*
G37*
G36*
X34280Y347000D02*
X17500D01*
X720D01*
X994Y344217D01*
X1952Y341060D01*
X3507Y338150D01*
X5600Y335600D01*
X8150Y333507D01*
X10712Y332138D01*
Y331710D01*
X11029Y330944D01*
X11795Y330627D01*
X17200D01*
Y337615D01*
X18200D01*
Y330627D01*
X23606D01*
X24371Y330944D01*
X24688Y331710D01*
Y332352D01*
X26850Y333507D01*
X29400Y335600D01*
X31493Y338150D01*
X33048Y341060D01*
X34006Y344217D01*
X34280Y347000D01*
D02*
G37*
G36*
X104100Y330850D02*
Y328900D01*
X106050D01*
X105955Y329376D01*
X105402Y330202D01*
X104576Y330755D01*
X104100Y330850D01*
D02*
G37*
G36*
X85700D02*
X85224Y330755D01*
X84398Y330202D01*
X83845Y329376D01*
X83750Y328900D01*
X85700D01*
Y330850D01*
D02*
G37*
G36*
X103100D02*
X102624Y330755D01*
X101798Y330202D01*
X101245Y329376D01*
X101151Y328900D01*
X103100D01*
Y330850D01*
D02*
G37*
G36*
X86700D02*
Y328900D01*
X88649D01*
X88555Y329376D01*
X88002Y330202D01*
X87176Y330755D01*
X86700Y330850D01*
D02*
G37*
G36*
X307850Y323700D02*
X305900D01*
Y321750D01*
X306376Y321845D01*
X307202Y322398D01*
X307755Y323224D01*
X307850Y323700D01*
D02*
G37*
G36*
X305900Y326649D02*
Y324700D01*
X307850D01*
X307755Y325175D01*
X307202Y326002D01*
X306376Y326555D01*
X305900Y326649D01*
D02*
G37*
G36*
X304900D02*
X304425Y326555D01*
X303598Y326002D01*
X303045Y325175D01*
X302951Y324700D01*
X304900D01*
Y326649D01*
D02*
G37*
G36*
X95400Y326150D02*
Y324200D01*
X97350D01*
X97255Y324675D01*
X96702Y325502D01*
X95876Y326055D01*
X95400Y326150D01*
D02*
G37*
G36*
X94400D02*
X93924Y326055D01*
X93098Y325502D01*
X92545Y324675D01*
X92450Y324200D01*
X94400D01*
Y326150D01*
D02*
G37*
G36*
X112800D02*
Y324200D01*
X114750D01*
X114655Y324675D01*
X114102Y325502D01*
X113276Y326055D01*
X112800Y326150D01*
D02*
G37*
G36*
X111800D02*
X111325Y326055D01*
X110498Y325502D01*
X109945Y324675D01*
X109851Y324200D01*
X111800D01*
Y326150D01*
D02*
G37*
G36*
X85700Y340249D02*
X85224Y340155D01*
X84398Y339602D01*
X83845Y338775D01*
X83750Y338300D01*
X85700D01*
Y340249D01*
D02*
G37*
G36*
X88649Y337300D02*
X86700D01*
Y335350D01*
X87176Y335445D01*
X88002Y335998D01*
X88555Y336824D01*
X88649Y337300D01*
D02*
G37*
G36*
X85700D02*
X83750D01*
X83845Y336824D01*
X84398Y335998D01*
X85224Y335445D01*
X85700Y335350D01*
Y337300D01*
D02*
G37*
G36*
X106050D02*
X104100D01*
Y335350D01*
X104576Y335445D01*
X105402Y335998D01*
X105955Y336824D01*
X106050Y337300D01*
D02*
G37*
G36*
X103100D02*
X101151D01*
X101245Y336824D01*
X101798Y335998D01*
X102624Y335445D01*
X103100Y335350D01*
Y337300D01*
D02*
G37*
G36*
X114750Y342000D02*
X112800D01*
Y340051D01*
X113276Y340145D01*
X114102Y340698D01*
X114655Y341525D01*
X114750Y342000D01*
D02*
G37*
G36*
X111800D02*
X109851D01*
X109945Y341525D01*
X110498Y340698D01*
X111325Y340145D01*
X111800Y340051D01*
Y342000D01*
D02*
G37*
G36*
X307850Y342500D02*
X305900D01*
Y340550D01*
X306376Y340645D01*
X307202Y341198D01*
X307755Y342024D01*
X307850Y342500D01*
D02*
G37*
G36*
X304900D02*
X302951D01*
X303045Y342024D01*
X303598Y341198D01*
X304425Y340645D01*
X304900Y340550D01*
Y342500D01*
D02*
G37*
G36*
X97350Y342000D02*
X95400D01*
Y340051D01*
X95876Y340145D01*
X96702Y340698D01*
X97255Y341525D01*
X97350Y342000D01*
D02*
G37*
G36*
X103100Y340249D02*
X102624Y340155D01*
X101798Y339602D01*
X101245Y338775D01*
X101151Y338300D01*
X103100D01*
Y340249D01*
D02*
G37*
G36*
X86700D02*
Y338300D01*
X88649D01*
X88555Y338775D01*
X88002Y339602D01*
X87176Y340155D01*
X86700Y340249D01*
D02*
G37*
G36*
X94400Y342000D02*
X92450D01*
X92545Y341525D01*
X93098Y340698D01*
X93924Y340145D01*
X94400Y340051D01*
Y342000D01*
D02*
G37*
G36*
X104100Y340249D02*
Y338300D01*
X106050D01*
X105955Y338775D01*
X105402Y339602D01*
X104576Y340155D01*
X104100Y340249D01*
D02*
G37*
G36*
X111800Y332600D02*
X109851D01*
X109945Y332124D01*
X110498Y331298D01*
X111325Y330745D01*
X111800Y330650D01*
Y332600D01*
D02*
G37*
G36*
X97350D02*
X95400D01*
Y330650D01*
X95876Y330745D01*
X96702Y331298D01*
X97255Y332124D01*
X97350Y332600D01*
D02*
G37*
G36*
X114750D02*
X112800D01*
Y330650D01*
X113276Y330745D01*
X114102Y331298D01*
X114655Y332124D01*
X114750Y332600D01*
D02*
G37*
G36*
X111800Y335549D02*
X111325Y335455D01*
X110498Y334902D01*
X109945Y334075D01*
X109851Y333600D01*
X111800D01*
Y335549D01*
D02*
G37*
G36*
X95400D02*
Y333600D01*
X97350D01*
X97255Y334075D01*
X96702Y334902D01*
X95876Y335455D01*
X95400Y335549D01*
D02*
G37*
G36*
X112800D02*
Y333600D01*
X114750D01*
X114655Y334075D01*
X114102Y334902D01*
X113276Y335455D01*
X112800Y335549D01*
D02*
G37*
G36*
X94400D02*
X93924Y335455D01*
X93098Y334902D01*
X92545Y334075D01*
X92450Y333600D01*
X94400D01*
Y335549D01*
D02*
G37*
G36*
X295500Y335050D02*
Y333100D01*
X297449D01*
X297355Y333576D01*
X296802Y334402D01*
X295975Y334955D01*
X295500Y335050D01*
D02*
G37*
G36*
X294500D02*
X294024Y334955D01*
X293198Y334402D01*
X292645Y333576D01*
X292550Y333100D01*
X294500D01*
Y335050D01*
D02*
G37*
G36*
X39300Y374850D02*
Y372900D01*
X41249D01*
X41155Y373376D01*
X40602Y374202D01*
X39775Y374755D01*
X39300Y374850D01*
D02*
G37*
G36*
X38300D02*
X37824Y374755D01*
X36998Y374202D01*
X36445Y373376D01*
X36351Y372900D01*
X38300D01*
Y374850D01*
D02*
G37*
G36*
X93249Y374900D02*
X91300D01*
Y372951D01*
X91776Y373045D01*
X92602Y373598D01*
X93155Y374425D01*
X93249Y374900D01*
D02*
G37*
G36*
X90300D02*
X88350D01*
X88445Y374425D01*
X88998Y373598D01*
X89824Y373045D01*
X90300Y372951D01*
Y374900D01*
D02*
G37*
G36*
X29900Y374850D02*
Y372900D01*
X31850D01*
X31755Y373376D01*
X31202Y374202D01*
X30375Y374755D01*
X29900Y374850D01*
D02*
G37*
G36*
X19500D02*
X19025Y374755D01*
X18198Y374202D01*
X17645Y373376D01*
X17550Y372900D01*
X19500D01*
Y374850D01*
D02*
G37*
G36*
X11100D02*
Y372900D01*
X13049D01*
X12955Y373376D01*
X12402Y374202D01*
X11575Y374755D01*
X11100Y374850D01*
D02*
G37*
G36*
X28900D02*
X28425Y374755D01*
X27598Y374202D01*
X27045Y373376D01*
X26950Y372900D01*
X28900D01*
Y374850D01*
D02*
G37*
G36*
X20500D02*
Y372900D01*
X22449D01*
X22355Y373376D01*
X21802Y374202D01*
X20976Y374755D01*
X20500Y374850D01*
D02*
G37*
G36*
X287900Y374900D02*
X285950D01*
X286045Y374425D01*
X286598Y373598D01*
X287424Y373045D01*
X287900Y372951D01*
Y374900D01*
D02*
G37*
G36*
X272049D02*
X270100D01*
Y372951D01*
X270575Y373045D01*
X271402Y373598D01*
X271955Y374425D01*
X272049Y374900D01*
D02*
G37*
G36*
X157049Y375400D02*
X155099D01*
X155194Y374924D01*
X155747Y374098D01*
X156573Y373545D01*
X157049Y373450D01*
Y375400D01*
D02*
G37*
G36*
X290849Y374900D02*
X288900D01*
Y372951D01*
X289375Y373045D01*
X290202Y373598D01*
X290755Y374425D01*
X290849Y374900D01*
D02*
G37*
G36*
X269100D02*
X267150D01*
X267245Y374425D01*
X267798Y373598D01*
X268624Y373045D01*
X269100Y372951D01*
Y374900D01*
D02*
G37*
G36*
X112049D02*
X110100D01*
Y372951D01*
X110575Y373045D01*
X111402Y373598D01*
X111955Y374425D01*
X112049Y374900D01*
D02*
G37*
G36*
X109100D02*
X107150D01*
X107245Y374425D01*
X107798Y373598D01*
X108624Y373045D01*
X109100Y372951D01*
Y374900D01*
D02*
G37*
G36*
X130850D02*
X128900D01*
Y372951D01*
X129376Y373045D01*
X130202Y373598D01*
X130755Y374425D01*
X130850Y374900D01*
D02*
G37*
G36*
X127900D02*
X125951D01*
X126045Y374425D01*
X126598Y373598D01*
X127425Y373045D01*
X127900Y372951D01*
Y374900D01*
D02*
G37*
G36*
X10100Y374850D02*
X9625Y374755D01*
X8798Y374202D01*
X8245Y373376D01*
X8151Y372900D01*
X10100D01*
Y374850D01*
D02*
G37*
G36*
X241100Y367950D02*
Y366000D01*
X243050D01*
X242955Y366476D01*
X242402Y367302D01*
X241576Y367855D01*
X241100Y367950D01*
D02*
G37*
G36*
X240100D02*
X239625Y367855D01*
X238798Y367302D01*
X238245Y366476D01*
X238151Y366000D01*
X240100D01*
Y367950D01*
D02*
G37*
G36*
X78042Y372700D02*
X71643D01*
Y366301D01*
X72945Y366472D01*
X74625Y367168D01*
X76068Y368275D01*
X77175Y369718D01*
X77870Y371397D01*
X78042Y372700D01*
D02*
G37*
G36*
X70643D02*
X64243D01*
X64415Y371397D01*
X65111Y369718D01*
X66217Y368275D01*
X67660Y367168D01*
X68795Y366698D01*
X68743Y366178D01*
X68125Y366055D01*
X67298Y365502D01*
X66745Y364675D01*
X66650Y364200D01*
X71549D01*
X71455Y364675D01*
X70902Y365502D01*
X70418Y365826D01*
X70599Y366306D01*
X70643Y366301D01*
Y372700D01*
D02*
G37*
G36*
X222300Y367950D02*
Y366000D01*
X224250D01*
X224155Y366476D01*
X223602Y367302D01*
X222776Y367855D01*
X222300Y367950D01*
D02*
G37*
G36*
X202500D02*
X202025Y367855D01*
X201198Y367302D01*
X200645Y366476D01*
X200551Y366000D01*
X202500D01*
Y367950D01*
D02*
G37*
G36*
X184700D02*
Y366000D01*
X186650D01*
X186555Y366476D01*
X186002Y367302D01*
X185176Y367855D01*
X184700Y367950D01*
D02*
G37*
G36*
X221300D02*
X220825Y367855D01*
X219998Y367302D01*
X219445Y366476D01*
X219351Y366000D01*
X221300D01*
Y367950D01*
D02*
G37*
G36*
X203500D02*
Y366000D01*
X205450D01*
X205355Y366476D01*
X204802Y367302D01*
X203976Y367855D01*
X203500Y367950D01*
D02*
G37*
G36*
X31850Y371900D02*
X29900D01*
Y369951D01*
X30375Y370045D01*
X31202Y370598D01*
X31755Y371425D01*
X31850Y371900D01*
D02*
G37*
G36*
X28900D02*
X26950D01*
X27045Y371425D01*
X27598Y370598D01*
X28425Y370045D01*
X28900Y369951D01*
Y371900D01*
D02*
G37*
G36*
X41249D02*
X39300D01*
Y369951D01*
X39775Y370045D01*
X40602Y370598D01*
X41155Y371425D01*
X41249Y371900D01*
D02*
G37*
G36*
X38300D02*
X36351D01*
X36445Y371425D01*
X36998Y370598D01*
X37824Y370045D01*
X38300Y369951D01*
Y371900D01*
D02*
G37*
G36*
X22449D02*
X20500D01*
Y369951D01*
X20976Y370045D01*
X21802Y370598D01*
X22355Y371425D01*
X22449Y371900D01*
D02*
G37*
G36*
X10100D02*
X8151D01*
X8245Y371425D01*
X8798Y370598D01*
X9625Y370045D01*
X10100Y369951D01*
Y371900D01*
D02*
G37*
G36*
X300984Y370516D02*
X298015D01*
X298187Y369650D01*
X298534Y369131D01*
X298616Y368720D01*
X299058Y368058D01*
X299166Y367986D01*
X298971Y367515D01*
X298800Y367549D01*
X297825Y367355D01*
X296998Y366802D01*
X296445Y365975D01*
X296351Y365500D01*
X301250D01*
X301155Y365975D01*
X300602Y366802D01*
X300329Y366985D01*
X300500Y367461D01*
X300963D01*
X300984Y367465D01*
Y370516D01*
D02*
G37*
G36*
X19500Y371900D02*
X17550D01*
X17645Y371425D01*
X18198Y370598D01*
X19025Y370045D01*
X19500Y369951D01*
Y371900D01*
D02*
G37*
G36*
X13049D02*
X11100D01*
Y369951D01*
X11575Y370045D01*
X12402Y370598D01*
X12955Y371425D01*
X13049Y371900D01*
D02*
G37*
G36*
X157049Y378349D02*
X156573Y378255D01*
X155747Y377702D01*
X155194Y376875D01*
X155099Y376400D01*
X157049D01*
Y378349D01*
D02*
G37*
G36*
X288900Y377850D02*
Y375900D01*
X290849D01*
X290755Y376376D01*
X290202Y377202D01*
X289375Y377755D01*
X288900Y377850D01*
D02*
G37*
G36*
X173300Y378349D02*
X172825Y378255D01*
X171998Y377702D01*
X171445Y376875D01*
X171351Y376400D01*
X173300D01*
Y378349D01*
D02*
G37*
G36*
X158049D02*
Y376400D01*
X159999D01*
X159904Y376875D01*
X159351Y377702D01*
X158524Y378255D01*
X158049Y378349D01*
D02*
G37*
G36*
X287900Y377850D02*
X287424Y377755D01*
X286598Y377202D01*
X286045Y376376D01*
X285950Y375900D01*
X287900D01*
Y377850D01*
D02*
G37*
G36*
X128900D02*
Y375900D01*
X130850D01*
X130755Y376376D01*
X130202Y377202D01*
X129376Y377755D01*
X128900Y377850D01*
D02*
G37*
G36*
X127900D02*
X127425Y377755D01*
X126598Y377202D01*
X126045Y376376D01*
X125951Y375900D01*
X127900D01*
Y377850D01*
D02*
G37*
G36*
X270100D02*
Y375900D01*
X272049D01*
X271955Y376376D01*
X271402Y377202D01*
X270575Y377755D01*
X270100Y377850D01*
D02*
G37*
G36*
X269100D02*
X268624Y377755D01*
X267798Y377202D01*
X267245Y376376D01*
X267150Y375900D01*
X269100D01*
Y377850D01*
D02*
G37*
G36*
X230700Y378349D02*
Y376400D01*
X232649D01*
X232555Y376875D01*
X232002Y377702D01*
X231175Y378255D01*
X230700Y378349D01*
D02*
G37*
G36*
X229700D02*
X229224Y378255D01*
X228398Y377702D01*
X227845Y376875D01*
X227750Y376400D01*
X229700D01*
Y378349D01*
D02*
G37*
G36*
X249500D02*
Y376400D01*
X251449D01*
X251355Y376875D01*
X250802Y377702D01*
X249975Y378255D01*
X249500Y378349D01*
D02*
G37*
G36*
X248500D02*
X248025Y378255D01*
X247198Y377702D01*
X246645Y376875D01*
X246550Y376400D01*
X248500D01*
Y378349D01*
D02*
G37*
G36*
X211900D02*
Y376400D01*
X213849D01*
X213755Y376875D01*
X213202Y377702D01*
X212375Y378255D01*
X211900Y378349D01*
D02*
G37*
G36*
X192100D02*
X191624Y378255D01*
X190798Y377702D01*
X190245Y376875D01*
X190150Y376400D01*
X192100D01*
Y378349D01*
D02*
G37*
G36*
X174300D02*
Y376400D01*
X176250D01*
X176155Y376875D01*
X175602Y377702D01*
X174776Y378255D01*
X174300Y378349D01*
D02*
G37*
G36*
X210900D02*
X210424Y378255D01*
X209598Y377702D01*
X209045Y376875D01*
X208950Y376400D01*
X210900D01*
Y378349D01*
D02*
G37*
G36*
X193100D02*
Y376400D01*
X195050D01*
X194955Y376875D01*
X194402Y377702D01*
X193576Y378255D01*
X193100Y378349D01*
D02*
G37*
G36*
X110100Y377850D02*
Y375900D01*
X112049D01*
X111955Y376376D01*
X111402Y377202D01*
X110575Y377755D01*
X110100Y377850D01*
D02*
G37*
G36*
X213849Y375400D02*
X211900D01*
Y373450D01*
X212375Y373545D01*
X213202Y374098D01*
X213755Y374924D01*
X213849Y375400D01*
D02*
G37*
G36*
X210900D02*
X208950D01*
X209045Y374924D01*
X209598Y374098D01*
X210424Y373545D01*
X210900Y373450D01*
Y375400D01*
D02*
G37*
G36*
X232649D02*
X230700D01*
Y373450D01*
X231175Y373545D01*
X232002Y374098D01*
X232555Y374924D01*
X232649Y375400D01*
D02*
G37*
G36*
X229700D02*
X227750D01*
X227845Y374924D01*
X228398Y374098D01*
X229224Y373545D01*
X229700Y373450D01*
Y375400D01*
D02*
G37*
G36*
X195050D02*
X193100D01*
Y373450D01*
X193576Y373545D01*
X194402Y374098D01*
X194955Y374924D01*
X195050Y375400D01*
D02*
G37*
G36*
X173300D02*
X171351D01*
X171445Y374924D01*
X171998Y374098D01*
X172825Y373545D01*
X173300Y373450D01*
Y375400D01*
D02*
G37*
G36*
X159999D02*
X158049D01*
Y373450D01*
X158524Y373545D01*
X159351Y374098D01*
X159904Y374924D01*
X159999Y375400D01*
D02*
G37*
G36*
X192100D02*
X190150D01*
X190245Y374924D01*
X190798Y374098D01*
X191624Y373545D01*
X192100Y373450D01*
Y375400D01*
D02*
G37*
G36*
X176250D02*
X174300D01*
Y373450D01*
X174776Y373545D01*
X175602Y374098D01*
X176155Y374924D01*
X176250Y375400D01*
D02*
G37*
G36*
X90300Y377850D02*
X89824Y377755D01*
X88998Y377202D01*
X88445Y376376D01*
X88350Y375900D01*
X90300D01*
Y377850D01*
D02*
G37*
G36*
X71643Y380099D02*
Y373700D01*
X78042D01*
X77870Y375003D01*
X77175Y376682D01*
X76068Y378125D01*
X74625Y379232D01*
X72945Y379928D01*
X71643Y380099D01*
D02*
G37*
G36*
X109100Y377850D02*
X108624Y377755D01*
X107798Y377202D01*
X107245Y376376D01*
X107150Y375900D01*
X109100D01*
Y377850D01*
D02*
G37*
G36*
X91300D02*
Y375900D01*
X93249D01*
X93155Y376376D01*
X92602Y377202D01*
X91776Y377755D01*
X91300Y377850D01*
D02*
G37*
G36*
X70643Y380099D02*
X69340Y379928D01*
X67660Y379232D01*
X66217Y378125D01*
X65111Y376682D01*
X64415Y375003D01*
X64243Y373700D01*
X70643D01*
Y380099D01*
D02*
G37*
G36*
X251449Y375400D02*
X249500D01*
Y373450D01*
X249975Y373545D01*
X250802Y374098D01*
X251355Y374924D01*
X251449Y375400D01*
D02*
G37*
G36*
X248500D02*
X246550D01*
X246645Y374924D01*
X247198Y374098D01*
X248025Y373545D01*
X248500Y373450D01*
Y375400D01*
D02*
G37*
G36*
X57363Y380188D02*
X51957D01*
Y373700D01*
X58445D01*
Y379105D01*
X58128Y379871D01*
X57363Y380188D01*
D02*
G37*
G36*
X50958D02*
X45552D01*
X44787Y379871D01*
X44470Y379105D01*
Y373700D01*
X50958D01*
Y380188D01*
D02*
G37*
G36*
X62150Y363200D02*
X60200D01*
Y361250D01*
X60676Y361345D01*
X61502Y361898D01*
X62055Y362724D01*
X62150Y363200D01*
D02*
G37*
G36*
X59200D02*
X57250D01*
X57345Y362724D01*
X57898Y361898D01*
X58724Y361345D01*
X59200Y361250D01*
Y363200D01*
D02*
G37*
G36*
X71549D02*
X69600D01*
Y361250D01*
X70076Y361345D01*
X70902Y361898D01*
X71455Y362724D01*
X71549Y363200D01*
D02*
G37*
G36*
X68600D02*
X66650D01*
X66745Y362724D01*
X67298Y361898D01*
X68125Y361345D01*
X68600Y361250D01*
Y363200D01*
D02*
G37*
G36*
X54049D02*
X52100D01*
Y361250D01*
X52575Y361345D01*
X53402Y361898D01*
X53955Y362724D01*
X54049Y363200D01*
D02*
G37*
G36*
X41700D02*
X39750D01*
X39845Y362724D01*
X40398Y361898D01*
X41225Y361345D01*
X41700Y361250D01*
Y363200D01*
D02*
G37*
G36*
X35250D02*
X33300D01*
Y361250D01*
X33775Y361345D01*
X34602Y361898D01*
X35155Y362724D01*
X35250Y363200D01*
D02*
G37*
G36*
X51100D02*
X49150D01*
X49245Y362724D01*
X49798Y361898D01*
X50625Y361345D01*
X51100Y361250D01*
Y363200D01*
D02*
G37*
G36*
X44649D02*
X42700D01*
Y361250D01*
X43176Y361345D01*
X44002Y361898D01*
X44555Y362724D01*
X44649Y363200D01*
D02*
G37*
G36*
X119500Y364500D02*
X117551D01*
X117645Y364024D01*
X118198Y363198D01*
X119025Y362645D01*
X119500Y362550D01*
Y364500D01*
D02*
G37*
G36*
X103649D02*
X101700D01*
Y362550D01*
X102175Y362645D01*
X103002Y363198D01*
X103555Y364024D01*
X103649Y364500D01*
D02*
G37*
G36*
X279500D02*
X277551D01*
X277645Y364024D01*
X278198Y363198D01*
X279025Y362645D01*
X279500Y362550D01*
Y364500D01*
D02*
G37*
G36*
X122450D02*
X120500D01*
Y362550D01*
X120975Y362645D01*
X121802Y363198D01*
X122355Y364024D01*
X122450Y364500D01*
D02*
G37*
G36*
X100700D02*
X98751D01*
X98845Y364024D01*
X99398Y363198D01*
X100224Y362645D01*
X100700Y362550D01*
Y364500D01*
D02*
G37*
G36*
X79650Y363200D02*
X77700D01*
Y361250D01*
X78175Y361345D01*
X79002Y361898D01*
X79555Y362724D01*
X79650Y363200D01*
D02*
G37*
G36*
X76700D02*
X74751D01*
X74845Y362724D01*
X75398Y361898D01*
X76224Y361345D01*
X76700Y361250D01*
Y363200D01*
D02*
G37*
G36*
X89050D02*
X87100D01*
Y361250D01*
X87576Y361345D01*
X88402Y361898D01*
X88955Y362724D01*
X89050Y363200D01*
D02*
G37*
G36*
X86100D02*
X84150D01*
X84245Y362724D01*
X84798Y361898D01*
X85624Y361345D01*
X86100Y361250D01*
Y363200D01*
D02*
G37*
G36*
X32300D02*
X30351D01*
X30445Y362724D01*
X30998Y361898D01*
X31824Y361345D01*
X32300Y361250D01*
Y363200D01*
D02*
G37*
G36*
X231700Y357550D02*
X231224Y357455D01*
X230398Y356902D01*
X229845Y356076D01*
X229750Y355600D01*
X231700D01*
Y357550D01*
D02*
G37*
G36*
X213900D02*
Y355600D01*
X215849D01*
X215755Y356076D01*
X215202Y356902D01*
X214375Y357455D01*
X213900Y357550D01*
D02*
G37*
G36*
X250500D02*
X250025Y357455D01*
X249198Y356902D01*
X248645Y356076D01*
X248551Y355600D01*
X250500D01*
Y357550D01*
D02*
G37*
G36*
X232700D02*
Y355600D01*
X234649D01*
X234555Y356076D01*
X234002Y356902D01*
X233175Y357455D01*
X232700Y357550D01*
D02*
G37*
G36*
X212900D02*
X212424Y357455D01*
X211598Y356902D01*
X211045Y356076D01*
X210950Y355600D01*
X212900D01*
Y357550D01*
D02*
G37*
G36*
X176300D02*
Y355600D01*
X178250D01*
X178155Y356076D01*
X177602Y356902D01*
X176776Y357455D01*
X176300Y357550D01*
D02*
G37*
G36*
X175300D02*
X174825Y357455D01*
X173998Y356902D01*
X173445Y356076D01*
X173351Y355600D01*
X175300D01*
Y357550D01*
D02*
G37*
G36*
X195100D02*
Y355600D01*
X197049D01*
X196955Y356076D01*
X196402Y356902D01*
X195575Y357455D01*
X195100Y357550D01*
D02*
G37*
G36*
X194100D02*
X193624Y357455D01*
X192798Y356902D01*
X192245Y356076D01*
X192150Y355600D01*
X194100D01*
Y357550D01*
D02*
G37*
G36*
X64900Y360450D02*
Y358500D01*
X66849D01*
X66755Y358976D01*
X66202Y359802D01*
X65376Y360355D01*
X64900Y360450D01*
D02*
G37*
G36*
X63900D02*
X63424Y360355D01*
X62598Y359802D01*
X62045Y358976D01*
X61950Y358500D01*
X63900D01*
Y360450D01*
D02*
G37*
G36*
X73000D02*
Y358500D01*
X74950D01*
X74855Y358976D01*
X74302Y359802D01*
X73475Y360355D01*
X73000Y360450D01*
D02*
G37*
G36*
X72000D02*
X71525Y360355D01*
X70698Y359802D01*
X70145Y358976D01*
X70051Y358500D01*
X72000D01*
Y360450D01*
D02*
G37*
G36*
X55500D02*
Y358500D01*
X57450D01*
X57355Y358976D01*
X56802Y359802D01*
X55976Y360355D01*
X55500Y360450D01*
D02*
G37*
G36*
X46500D02*
X46025Y360355D01*
X45198Y359802D01*
X44645Y358976D01*
X44550Y358500D01*
X46500D01*
Y360450D01*
D02*
G37*
G36*
X251500Y357550D02*
Y355600D01*
X253450D01*
X253355Y356076D01*
X252802Y356902D01*
X251975Y357455D01*
X251500Y357550D01*
D02*
G37*
G36*
X54500Y360450D02*
X54024Y360355D01*
X53198Y359802D01*
X52645Y358976D01*
X52551Y358500D01*
X54500D01*
Y360450D01*
D02*
G37*
G36*
X47500D02*
Y358500D01*
X49450D01*
X49355Y358976D01*
X48802Y359802D01*
X47976Y360355D01*
X47500Y360450D01*
D02*
G37*
G36*
X77700Y366149D02*
Y364200D01*
X79650D01*
X79555Y364675D01*
X79002Y365502D01*
X78175Y366055D01*
X77700Y366149D01*
D02*
G37*
G36*
X76700D02*
X76224Y366055D01*
X75398Y365502D01*
X74845Y364675D01*
X74751Y364200D01*
X76700D01*
Y366149D01*
D02*
G37*
G36*
X87100D02*
Y364200D01*
X89050D01*
X88955Y364675D01*
X88402Y365502D01*
X87576Y366055D01*
X87100Y366149D01*
D02*
G37*
G36*
X86100D02*
X85624Y366055D01*
X84798Y365502D01*
X84245Y364675D01*
X84150Y364200D01*
X86100D01*
Y366149D01*
D02*
G37*
G36*
X60200D02*
Y364200D01*
X62150D01*
X62055Y364675D01*
X61502Y365502D01*
X60676Y366055D01*
X60200Y366149D01*
D02*
G37*
G36*
X42700D02*
Y364200D01*
X44649D01*
X44555Y364675D01*
X44002Y365502D01*
X43176Y366055D01*
X42700Y366149D01*
D02*
G37*
G36*
X41700D02*
X41225Y366055D01*
X40398Y365502D01*
X39845Y364675D01*
X39750Y364200D01*
X41700D01*
Y366149D01*
D02*
G37*
G36*
X59200D02*
X58724Y366055D01*
X57898Y365502D01*
X57345Y364675D01*
X57250Y364200D01*
X59200D01*
Y366149D01*
D02*
G37*
G36*
X58445Y372700D02*
X44470D01*
Y367295D01*
X44787Y366529D01*
X45552Y366212D01*
X49960D01*
X50111Y365712D01*
X49798Y365502D01*
X49245Y364675D01*
X49150Y364200D01*
X54049D01*
X53955Y364675D01*
X53402Y365502D01*
X53089Y365712D01*
X53240Y366212D01*
X57363D01*
X58128Y366529D01*
X58445Y367295D01*
Y372700D01*
D02*
G37*
G36*
X164900Y367950D02*
X164425Y367855D01*
X163598Y367302D01*
X163045Y366476D01*
X162951Y366000D01*
X164900D01*
Y367950D01*
D02*
G37*
G36*
X280500Y367449D02*
Y365500D01*
X282450D01*
X282355Y365975D01*
X281802Y366802D01*
X280976Y367355D01*
X280500Y367449D01*
D02*
G37*
G36*
X183700Y367950D02*
X183224Y367855D01*
X182398Y367302D01*
X181845Y366476D01*
X181751Y366000D01*
X183700D01*
Y367950D01*
D02*
G37*
G36*
X165900D02*
Y366000D01*
X167850D01*
X167755Y366476D01*
X167202Y367302D01*
X166376Y367855D01*
X165900Y367950D01*
D02*
G37*
G36*
X279500Y367449D02*
X279025Y367355D01*
X278198Y366802D01*
X277645Y365975D01*
X277551Y365500D01*
X279500D01*
Y367449D01*
D02*
G37*
G36*
X101700D02*
Y365500D01*
X103649D01*
X103555Y365975D01*
X103002Y366802D01*
X102175Y367355D01*
X101700Y367449D01*
D02*
G37*
G36*
X100700D02*
X100224Y367355D01*
X99398Y366802D01*
X98845Y365975D01*
X98751Y365500D01*
X100700D01*
Y367449D01*
D02*
G37*
G36*
X120500D02*
Y365500D01*
X122450D01*
X122355Y365975D01*
X121802Y366802D01*
X120975Y367355D01*
X120500Y367449D01*
D02*
G37*
G36*
X119500D02*
X119025Y367355D01*
X118198Y366802D01*
X117645Y365975D01*
X117551Y365500D01*
X119500D01*
Y367449D01*
D02*
G37*
G36*
X33300Y366149D02*
Y364200D01*
X35250D01*
X35155Y364675D01*
X34602Y365502D01*
X33775Y366055D01*
X33300Y366149D01*
D02*
G37*
G36*
X167850Y365000D02*
X165900D01*
Y363051D01*
X166376Y363145D01*
X167202Y363698D01*
X167755Y364525D01*
X167850Y365000D01*
D02*
G37*
G36*
X164900D02*
X162951D01*
X163045Y364525D01*
X163598Y363698D01*
X164425Y363145D01*
X164900Y363051D01*
Y365000D01*
D02*
G37*
G36*
X186650D02*
X184700D01*
Y363051D01*
X185176Y363145D01*
X186002Y363698D01*
X186555Y364525D01*
X186650Y365000D01*
D02*
G37*
G36*
X183700D02*
X181751D01*
X181845Y364525D01*
X182398Y363698D01*
X183224Y363145D01*
X183700Y363051D01*
Y365000D01*
D02*
G37*
G36*
X262100Y371255D02*
Y362870D01*
X270485D01*
X270246Y364687D01*
X269351Y366845D01*
X267929Y368699D01*
X266075Y370122D01*
X263917Y371016D01*
X262100Y371255D01*
D02*
G37*
G36*
X298300Y364500D02*
X296351D01*
X296445Y364024D01*
X296998Y363198D01*
X297825Y362645D01*
X298300Y362550D01*
Y364500D01*
D02*
G37*
G36*
X282450D02*
X280500D01*
Y362550D01*
X280976Y362645D01*
X281802Y363198D01*
X282355Y364024D01*
X282450Y364500D01*
D02*
G37*
G36*
X261100Y371255D02*
X259283Y371016D01*
X257125Y370122D01*
X255271Y368699D01*
X253849Y366845D01*
X252954Y364687D01*
X252715Y362870D01*
X261100D01*
Y371255D01*
D02*
G37*
G36*
X301250Y364500D02*
X299300D01*
Y362550D01*
X299776Y362645D01*
X300602Y363198D01*
X301155Y364024D01*
X301250Y364500D01*
D02*
G37*
G36*
X140100Y371455D02*
X138283Y371216D01*
X136125Y370321D01*
X134271Y368899D01*
X132849Y367045D01*
X131954Y364887D01*
X131715Y363070D01*
X140100D01*
Y371455D01*
D02*
G37*
G36*
X243050Y365000D02*
X241100D01*
Y363051D01*
X241576Y363145D01*
X242402Y363698D01*
X242955Y364525D01*
X243050Y365000D01*
D02*
G37*
G36*
X32300Y366149D02*
X31824Y366055D01*
X30998Y365502D01*
X30445Y364675D01*
X30351Y364200D01*
X32300D01*
Y366149D01*
D02*
G37*
G36*
X141100Y371455D02*
Y363070D01*
X149485D01*
X149246Y364887D01*
X148351Y367045D01*
X146929Y368899D01*
X145075Y370321D01*
X142917Y371216D01*
X141100Y371455D01*
D02*
G37*
G36*
X240100Y365000D02*
X238151D01*
X238245Y364525D01*
X238798Y363698D01*
X239625Y363145D01*
X240100Y363051D01*
Y365000D01*
D02*
G37*
G36*
X205450D02*
X203500D01*
Y363051D01*
X203976Y363145D01*
X204802Y363698D01*
X205355Y364525D01*
X205450Y365000D01*
D02*
G37*
G36*
X202500D02*
X200551D01*
X200645Y364525D01*
X201198Y363698D01*
X202025Y363145D01*
X202500Y363051D01*
Y365000D01*
D02*
G37*
G36*
X224250D02*
X222300D01*
Y363051D01*
X222776Y363145D01*
X223602Y363698D01*
X224155Y364525D01*
X224250Y365000D01*
D02*
G37*
G36*
X221300D02*
X219351D01*
X219445Y364525D01*
X219998Y363698D01*
X220825Y363145D01*
X221300Y363051D01*
Y365000D01*
D02*
G37*
G36*
X139200Y273349D02*
Y271400D01*
X141149D01*
X141055Y271876D01*
X140502Y272702D01*
X139675Y273255D01*
X139200Y273349D01*
D02*
G37*
G36*
X138200D02*
X137724Y273255D01*
X136898Y272702D01*
X136345Y271876D01*
X136250Y271400D01*
X138200D01*
Y273349D01*
D02*
G37*
G36*
X121600D02*
Y271400D01*
X123549D01*
X123455Y271876D01*
X122902Y272702D01*
X122075Y273255D01*
X121600Y273349D01*
D02*
G37*
G36*
X202645Y271195D02*
X202170Y271100D01*
X201343Y270548D01*
X200790Y269721D01*
X200695Y269246D01*
X202645D01*
Y271195D01*
D02*
G37*
G36*
X141149Y270400D02*
X139200D01*
Y268450D01*
X139675Y268545D01*
X140502Y269098D01*
X141055Y269924D01*
X141149Y270400D01*
D02*
G37*
G36*
X120600Y273349D02*
X120124Y273255D01*
X119298Y272702D01*
X118745Y271876D01*
X118650Y271400D01*
X120600D01*
Y273349D01*
D02*
G37*
G36*
X203645Y271195D02*
Y269246D01*
X205595D01*
X205500Y269721D01*
X204947Y270548D01*
X204120Y271100D01*
X203645Y271195D01*
D02*
G37*
G36*
X215145Y275446D02*
X213195D01*
X213290Y274970D01*
X213843Y274143D01*
X214670Y273591D01*
X215145Y273496D01*
Y275446D01*
D02*
G37*
G36*
X149849Y275100D02*
X147900D01*
Y273150D01*
X148375Y273245D01*
X149202Y273798D01*
X149755Y274624D01*
X149849Y275100D01*
D02*
G37*
G36*
X218095Y275446D02*
X216145D01*
Y273496D01*
X216620Y273591D01*
X217447Y274143D01*
X218000Y274970D01*
X218095Y275446D01*
D02*
G37*
G36*
X146900Y275100D02*
X144950D01*
X145045Y274624D01*
X145598Y273798D01*
X146424Y273245D01*
X146900Y273150D01*
Y275100D01*
D02*
G37*
G36*
X114849D02*
X112900D01*
Y273150D01*
X113375Y273245D01*
X114202Y273798D01*
X114755Y274624D01*
X114849Y275100D01*
D02*
G37*
G36*
X111900D02*
X109950D01*
X110045Y274624D01*
X110598Y273798D01*
X111425Y273245D01*
X111900Y273150D01*
Y275100D01*
D02*
G37*
G36*
X132249D02*
X130300D01*
Y273150D01*
X130775Y273245D01*
X131602Y273798D01*
X132155Y274624D01*
X132249Y275100D01*
D02*
G37*
G36*
X129300D02*
X127350D01*
X127445Y274624D01*
X127998Y273798D01*
X128824Y273245D01*
X129300Y273150D01*
Y275100D01*
D02*
G37*
G36*
X138200Y270400D02*
X136250D01*
X136345Y269924D01*
X136898Y269098D01*
X137724Y268545D01*
X138200Y268450D01*
Y270400D01*
D02*
G37*
G36*
X202645Y268246D02*
X200695D01*
X200790Y267770D01*
X201343Y266943D01*
X202170Y266391D01*
X202645Y266296D01*
Y268246D01*
D02*
G37*
G36*
X111900Y268650D02*
X111425Y268555D01*
X110598Y268002D01*
X110045Y267176D01*
X109950Y266700D01*
X111900D01*
Y268650D01*
D02*
G37*
G36*
X205595Y268246D02*
X203645D01*
Y266296D01*
X204120Y266391D01*
X204947Y266943D01*
X205500Y267770D01*
X205595Y268246D01*
D02*
G37*
G36*
X129300Y265700D02*
X127350D01*
X127445Y265225D01*
X127998Y264398D01*
X128824Y263845D01*
X129300Y263751D01*
Y265700D01*
D02*
G37*
G36*
X114849D02*
X112900D01*
Y263751D01*
X113375Y263845D01*
X114202Y264398D01*
X114755Y265225D01*
X114849Y265700D01*
D02*
G37*
G36*
X149849D02*
X144950D01*
X145045Y265225D01*
X145226Y264953D01*
X144962Y264529D01*
X144895Y264538D01*
X137021D01*
X135218Y264300D01*
X133538Y263604D01*
X132095Y262497D01*
X130989Y261055D01*
X130293Y259375D01*
X130055Y257572D01*
X130293Y255770D01*
X130989Y254090D01*
X132095Y252647D01*
X133538Y251540D01*
X135218Y250845D01*
X137021Y250607D01*
X144895D01*
X146697Y250845D01*
X148377Y251540D01*
X149820Y252647D01*
X150926Y254090D01*
X151622Y255770D01*
X151860Y257572D01*
X151622Y259375D01*
X150926Y261055D01*
X149820Y262497D01*
X148615Y263422D01*
X148630Y264015D01*
X149202Y264398D01*
X149755Y265225D01*
X149849Y265700D01*
D02*
G37*
G36*
X132249D02*
X130300D01*
Y263751D01*
X130775Y263845D01*
X131602Y264398D01*
X132155Y265225D01*
X132249Y265700D01*
D02*
G37*
G36*
X123549Y270400D02*
X121600D01*
Y268450D01*
X122075Y268545D01*
X122902Y269098D01*
X123455Y269924D01*
X123549Y270400D01*
D02*
G37*
G36*
X120600D02*
X118650D01*
X118745Y269924D01*
X119298Y269098D01*
X120124Y268545D01*
X120600Y268450D01*
Y270400D01*
D02*
G37*
G36*
X147900Y268650D02*
Y266700D01*
X149849D01*
X149755Y267176D01*
X149202Y268002D01*
X148375Y268555D01*
X147900Y268650D01*
D02*
G37*
G36*
X129300D02*
X128824Y268555D01*
X127998Y268002D01*
X127445Y267176D01*
X127350Y266700D01*
X129300D01*
Y268650D01*
D02*
G37*
G36*
X112900D02*
Y266700D01*
X114849D01*
X114755Y267176D01*
X114202Y268002D01*
X113375Y268555D01*
X112900Y268650D01*
D02*
G37*
G36*
X146900D02*
X146424Y268555D01*
X145598Y268002D01*
X145045Y267176D01*
X144950Y266700D01*
X146900D01*
Y268650D01*
D02*
G37*
G36*
X130300D02*
Y266700D01*
X132249D01*
X132155Y267176D01*
X131602Y268002D01*
X130775Y268555D01*
X130300Y268650D01*
D02*
G37*
G36*
X111900Y284500D02*
X109950D01*
X110045Y284025D01*
X110598Y283198D01*
X111425Y282645D01*
X111900Y282551D01*
Y284500D01*
D02*
G37*
G36*
X129300D02*
X127350D01*
X127445Y284025D01*
X127998Y283198D01*
X128824Y282645D01*
X129300Y282551D01*
Y284500D01*
D02*
G37*
G36*
X114849D02*
X112900D01*
Y282551D01*
X113375Y282645D01*
X114202Y283198D01*
X114755Y284025D01*
X114849Y284500D01*
D02*
G37*
G36*
X121600Y282750D02*
Y280800D01*
X123549D01*
X123455Y281276D01*
X122902Y282102D01*
X122075Y282655D01*
X121600Y282750D01*
D02*
G37*
G36*
X120600D02*
X120124Y282655D01*
X119298Y282102D01*
X118745Y281276D01*
X118650Y280800D01*
X120600D01*
Y282750D01*
D02*
G37*
G36*
X139200D02*
Y280800D01*
X141149D01*
X141055Y281276D01*
X140502Y282102D01*
X139675Y282655D01*
X139200Y282750D01*
D02*
G37*
G36*
X138200D02*
X137724Y282655D01*
X136898Y282102D01*
X136345Y281276D01*
X136250Y280800D01*
X138200D01*
Y282750D01*
D02*
G37*
G36*
X258500Y284549D02*
Y282600D01*
X260450D01*
X260355Y283075D01*
X259802Y283902D01*
X258976Y284455D01*
X258500Y284549D01*
D02*
G37*
G36*
X257500D02*
X257025Y284455D01*
X256198Y283902D01*
X255645Y283075D01*
X255551Y282600D01*
X257500D01*
Y284549D01*
D02*
G37*
G36*
X277300D02*
Y282600D01*
X279250D01*
X279155Y283075D01*
X278602Y283902D01*
X277776Y284455D01*
X277300Y284549D01*
D02*
G37*
G36*
X276300D02*
X275824Y284455D01*
X274998Y283902D01*
X274445Y283075D01*
X274351Y282600D01*
X276300D01*
Y284549D01*
D02*
G37*
G36*
X239700D02*
Y282600D01*
X241650D01*
X241555Y283075D01*
X241002Y283902D01*
X240176Y284455D01*
X239700Y284549D01*
D02*
G37*
G36*
X146900Y284500D02*
X144950D01*
X145045Y284025D01*
X145598Y283198D01*
X146424Y282645D01*
X146900Y282551D01*
Y284500D01*
D02*
G37*
G36*
X132249D02*
X130300D01*
Y282551D01*
X130775Y282645D01*
X131602Y283198D01*
X132155Y284025D01*
X132249Y284500D01*
D02*
G37*
G36*
X238700Y284549D02*
X238225Y284455D01*
X237398Y283902D01*
X236845Y283075D01*
X236751Y282600D01*
X238700D01*
Y284549D01*
D02*
G37*
G36*
X149849Y284500D02*
X147900D01*
Y282551D01*
X148375Y282645D01*
X149202Y283198D01*
X149755Y284025D01*
X149849Y284500D01*
D02*
G37*
G36*
X279250Y281600D02*
X277300D01*
Y279650D01*
X277776Y279745D01*
X278602Y280298D01*
X279155Y281124D01*
X279250Y281600D01*
D02*
G37*
G36*
X147900Y278049D02*
Y276100D01*
X149849D01*
X149755Y276575D01*
X149202Y277402D01*
X148375Y277955D01*
X147900Y278049D01*
D02*
G37*
G36*
X146900D02*
X146424Y277955D01*
X145598Y277402D01*
X145045Y276575D01*
X144950Y276100D01*
X146900D01*
Y278049D01*
D02*
G37*
G36*
X216145Y278395D02*
Y276446D01*
X218095D01*
X218000Y276921D01*
X217447Y277748D01*
X216620Y278300D01*
X216145Y278395D01*
D02*
G37*
G36*
X215145D02*
X214670Y278300D01*
X213843Y277748D01*
X213290Y276921D01*
X213195Y276446D01*
X215145D01*
Y278395D01*
D02*
G37*
G36*
X130300Y278049D02*
Y276100D01*
X132249D01*
X132155Y276575D01*
X131602Y277402D01*
X130775Y277955D01*
X130300Y278049D01*
D02*
G37*
G36*
X111900D02*
X111425Y277955D01*
X110598Y277402D01*
X110045Y276575D01*
X109950Y276100D01*
X111900D01*
Y278049D01*
D02*
G37*
G36*
X129300D02*
X128824Y277955D01*
X127998Y277402D01*
X127445Y276575D01*
X127350Y276100D01*
X129300D01*
Y278049D01*
D02*
G37*
G36*
X112900D02*
Y276100D01*
X114849D01*
X114755Y276575D01*
X114202Y277402D01*
X113375Y277955D01*
X112900Y278049D01*
D02*
G37*
G36*
X257500Y281600D02*
X255551D01*
X255645Y281124D01*
X256198Y280298D01*
X257025Y279745D01*
X257500Y279650D01*
Y281600D01*
D02*
G37*
G36*
X241650D02*
X239700D01*
Y279650D01*
X240176Y279745D01*
X241002Y280298D01*
X241555Y281124D01*
X241650Y281600D01*
D02*
G37*
G36*
X276300D02*
X274351D01*
X274445Y281124D01*
X274998Y280298D01*
X275824Y279745D01*
X276300Y279650D01*
Y281600D01*
D02*
G37*
G36*
X260450D02*
X258500D01*
Y279650D01*
X258976Y279745D01*
X259802Y280298D01*
X260355Y281124D01*
X260450Y281600D01*
D02*
G37*
G36*
X238700D02*
X236751D01*
X236845Y281124D01*
X237398Y280298D01*
X238225Y279745D01*
X238700Y279650D01*
Y281600D01*
D02*
G37*
G36*
X123549Y279800D02*
X121600D01*
Y277851D01*
X122075Y277945D01*
X122902Y278498D01*
X123455Y279325D01*
X123549Y279800D01*
D02*
G37*
G36*
X120600D02*
X118650D01*
X118745Y279325D01*
X119298Y278498D01*
X120124Y277945D01*
X120600Y277851D01*
Y279800D01*
D02*
G37*
G36*
X141149D02*
X139200D01*
Y277851D01*
X139675Y277945D01*
X140502Y278498D01*
X141055Y279325D01*
X141149Y279800D01*
D02*
G37*
G36*
X138200D02*
X136250D01*
X136345Y279325D01*
X136898Y278498D01*
X137724Y277945D01*
X138200Y277851D01*
Y279800D01*
D02*
G37*
G36*
X205595Y233446D02*
X203645D01*
Y231496D01*
X204120Y231591D01*
X204947Y232143D01*
X205500Y232970D01*
X205595Y233446D01*
D02*
G37*
G36*
X202645D02*
X200695D01*
X200790Y232970D01*
X201343Y232143D01*
X202170Y231591D01*
X202645Y231496D01*
Y233446D01*
D02*
G37*
G36*
X215145Y226195D02*
X214670Y226100D01*
X213843Y225548D01*
X213290Y224721D01*
X213195Y224246D01*
X215145D01*
Y226195D01*
D02*
G37*
G36*
X216145D02*
Y224246D01*
X218095D01*
X218000Y224721D01*
X217447Y225548D01*
X216620Y226100D01*
X216145Y226195D01*
D02*
G37*
G36*
X140457Y245916D02*
X137021D01*
X135218Y245678D01*
X133538Y244982D01*
X132095Y243876D01*
X130989Y242433D01*
X130293Y240753D01*
X130121Y239450D01*
X140457D01*
Y245916D01*
D02*
G37*
G36*
X218095Y240646D02*
X216145D01*
Y238696D01*
X216620Y238791D01*
X217447Y239343D01*
X218000Y240170D01*
X218095Y240646D01*
D02*
G37*
G36*
X144895Y245916D02*
X141457D01*
Y239450D01*
X151794D01*
X151622Y240753D01*
X150926Y242433D01*
X149820Y243876D01*
X148377Y244982D01*
X146697Y245678D01*
X144895Y245916D01*
D02*
G37*
G36*
X215145Y240646D02*
X213195D01*
X213290Y240170D01*
X213843Y239343D01*
X214670Y238791D01*
X215145Y238696D01*
Y240646D01*
D02*
G37*
G36*
X203645Y236395D02*
Y234446D01*
X205595D01*
X205500Y234921D01*
X204947Y235748D01*
X204120Y236300D01*
X203645Y236395D01*
D02*
G37*
G36*
X202645D02*
X202170Y236300D01*
X201343Y235748D01*
X200790Y234921D01*
X200695Y234446D01*
X202645D01*
Y236395D01*
D02*
G37*
G36*
X216145Y208795D02*
Y206845D01*
X218095D01*
X218000Y207321D01*
X217447Y208148D01*
X216620Y208700D01*
X216145Y208795D01*
D02*
G37*
G36*
X202645Y216045D02*
X200695D01*
X200790Y215570D01*
X201343Y214743D01*
X202170Y214191D01*
X202645Y214096D01*
Y216045D01*
D02*
G37*
G36*
X215145Y208795D02*
X214670Y208700D01*
X213843Y208148D01*
X213290Y207321D01*
X213195Y206845D01*
X215145D01*
Y208795D01*
D02*
G37*
G36*
X218095Y205845D02*
X216145D01*
Y203896D01*
X216620Y203991D01*
X217447Y204543D01*
X218000Y205370D01*
X218095Y205845D01*
D02*
G37*
G36*
X215145D02*
X213195D01*
X213290Y205370D01*
X213843Y204543D01*
X214670Y203991D01*
X215145Y203896D01*
Y205845D01*
D02*
G37*
G36*
X218095Y223246D02*
X216145D01*
Y221296D01*
X216620Y221391D01*
X217447Y221943D01*
X218000Y222770D01*
X218095Y223246D01*
D02*
G37*
G36*
X215145D02*
X213195D01*
X213290Y222770D01*
X213843Y221943D01*
X214670Y221391D01*
X215145Y221296D01*
Y223246D01*
D02*
G37*
G36*
X203645Y218995D02*
Y217045D01*
X205595D01*
X205500Y217521D01*
X204947Y218348D01*
X204120Y218900D01*
X203645Y218995D01*
D02*
G37*
G36*
X205595Y216045D02*
X203645D01*
Y214096D01*
X204120Y214191D01*
X204947Y214743D01*
X205500Y215570D01*
X205595Y216045D01*
D02*
G37*
G36*
X202645Y218995D02*
X202170Y218900D01*
X201343Y218348D01*
X200790Y217521D01*
X200695Y217045D01*
X202645D01*
Y218995D01*
D02*
G37*
G36*
X126700Y257750D02*
Y255800D01*
X128649D01*
X128555Y256276D01*
X128002Y257102D01*
X127175Y257655D01*
X126700Y257750D01*
D02*
G37*
G36*
X125700D02*
X125224Y257655D01*
X124398Y257102D01*
X123845Y256276D01*
X123750Y255800D01*
X125700D01*
Y257750D01*
D02*
G37*
G36*
X218095Y258046D02*
X216145D01*
Y256096D01*
X216620Y256191D01*
X217447Y256743D01*
X218000Y257570D01*
X218095Y258046D01*
D02*
G37*
G36*
X215145D02*
X213195D01*
X213290Y257570D01*
X213843Y256743D01*
X214670Y256191D01*
X215145Y256096D01*
Y258046D01*
D02*
G37*
G36*
X125700Y254800D02*
X123750D01*
X123845Y254325D01*
X124398Y253498D01*
X125224Y252945D01*
X125700Y252851D01*
Y254800D01*
D02*
G37*
G36*
X110000Y255713D02*
Y252283D01*
X113431D01*
X113223Y253325D01*
X112350Y254632D01*
X111042Y255506D01*
X110000Y255713D01*
D02*
G37*
G36*
X128649Y254800D02*
X126700D01*
Y252851D01*
X127175Y252945D01*
X128002Y253498D01*
X128555Y254325D01*
X128649Y254800D01*
D02*
G37*
G36*
X117000Y262450D02*
X116525Y262355D01*
X115698Y261802D01*
X115145Y260976D01*
X115050Y260500D01*
X117000D01*
Y262450D01*
D02*
G37*
G36*
X216145Y260995D02*
Y259046D01*
X218095D01*
X218000Y259521D01*
X217447Y260348D01*
X216620Y260900D01*
X216145Y260995D01*
D02*
G37*
G36*
X111900Y265700D02*
X109950D01*
X110045Y265225D01*
X110598Y264398D01*
X111425Y263845D01*
X111900Y263751D01*
Y265700D01*
D02*
G37*
G36*
X118000Y262450D02*
Y260500D01*
X119949D01*
X119855Y260976D01*
X119302Y261802D01*
X118475Y262355D01*
X118000Y262450D01*
D02*
G37*
G36*
X215145Y260995D02*
X214670Y260900D01*
X213843Y260348D01*
X213290Y259521D01*
X213195Y259046D01*
X215145D01*
Y260995D01*
D02*
G37*
G36*
X119949Y259500D02*
X118000D01*
Y257551D01*
X118475Y257645D01*
X119302Y258198D01*
X119855Y259025D01*
X119949Y259500D01*
D02*
G37*
G36*
X117000D02*
X115050D01*
X115145Y259025D01*
X115698Y258198D01*
X116525Y257645D01*
X117000Y257551D01*
Y259500D01*
D02*
G37*
G36*
X203645Y253795D02*
Y251846D01*
X205595D01*
X205500Y252321D01*
X204947Y253148D01*
X204120Y253700D01*
X203645Y253795D01*
D02*
G37*
G36*
X126700Y248349D02*
Y246400D01*
X128649D01*
X128555Y246876D01*
X128002Y247702D01*
X127175Y248255D01*
X126700Y248349D01*
D02*
G37*
G36*
X125700D02*
X125224Y248255D01*
X124398Y247702D01*
X123845Y246876D01*
X123750Y246400D01*
X125700D01*
Y248349D01*
D02*
G37*
G36*
X128649Y245400D02*
X126700D01*
Y243450D01*
X127175Y243545D01*
X128002Y244098D01*
X128555Y244924D01*
X128649Y245400D01*
D02*
G37*
G36*
X215145Y243595D02*
X214670Y243500D01*
X213843Y242948D01*
X213290Y242121D01*
X213195Y241646D01*
X215145D01*
Y243595D01*
D02*
G37*
G36*
X125700Y245400D02*
X123750D01*
X123845Y244924D01*
X124398Y244098D01*
X125224Y243545D01*
X125700Y243450D01*
Y245400D01*
D02*
G37*
G36*
X216145Y243595D02*
Y241646D01*
X218095D01*
X218000Y242121D01*
X217447Y242948D01*
X216620Y243500D01*
X216145Y243595D01*
D02*
G37*
G36*
X117000Y253049D02*
X116525Y252955D01*
X115698Y252402D01*
X115145Y251575D01*
X115050Y251100D01*
X117000D01*
Y253049D01*
D02*
G37*
G36*
X202645Y253795D02*
X202170Y253700D01*
X201343Y253148D01*
X200790Y252321D01*
X200695Y251846D01*
X202645D01*
Y253795D01*
D02*
G37*
G36*
X118000Y253049D02*
Y251100D01*
X119949D01*
X119855Y251575D01*
X119302Y252402D01*
X118475Y252955D01*
X118000Y253049D01*
D02*
G37*
G36*
X119949Y250100D02*
X118000D01*
Y248150D01*
X118475Y248245D01*
X119302Y248798D01*
X119855Y249624D01*
X119949Y250100D01*
D02*
G37*
G36*
X117000D02*
X115050D01*
X115145Y249624D01*
X115698Y248798D01*
X116525Y248245D01*
X117000Y248150D01*
Y250100D01*
D02*
G37*
G36*
X205595Y250846D02*
X203645D01*
Y248896D01*
X204120Y248991D01*
X204947Y249543D01*
X205500Y250370D01*
X205595Y250846D01*
D02*
G37*
G36*
X202645D02*
X200695D01*
X200790Y250370D01*
X201343Y249543D01*
X202170Y248991D01*
X202645Y248896D01*
Y250846D01*
D02*
G37*
G36*
X104100Y312750D02*
Y310800D01*
X106050D01*
X105955Y311276D01*
X105402Y312102D01*
X104576Y312655D01*
X104100Y312750D01*
D02*
G37*
G36*
X103100D02*
X102624Y312655D01*
X101798Y312102D01*
X101245Y311276D01*
X101151Y310800D01*
X103100D01*
Y312750D01*
D02*
G37*
G36*
X297449Y313300D02*
X295500D01*
Y311350D01*
X295975Y311445D01*
X296802Y311998D01*
X297355Y312825D01*
X297449Y313300D01*
D02*
G37*
G36*
X294500D02*
X292550D01*
X292645Y312825D01*
X293198Y311998D01*
X294024Y311445D01*
X294500Y311350D01*
Y313300D01*
D02*
G37*
G36*
X86700Y312750D02*
Y310800D01*
X88649D01*
X88555Y311276D01*
X88002Y312102D01*
X87176Y312655D01*
X86700Y312750D01*
D02*
G37*
G36*
X85700D02*
X85224Y312655D01*
X84398Y312102D01*
X83845Y311276D01*
X83750Y310800D01*
X85700D01*
Y312750D01*
D02*
G37*
G36*
X114750Y314500D02*
X112800D01*
Y312550D01*
X113276Y312645D01*
X114102Y313198D01*
X114655Y314024D01*
X114750Y314500D01*
D02*
G37*
G36*
X111800D02*
X109851D01*
X109945Y314024D01*
X110498Y313198D01*
X111325Y312645D01*
X111800Y312550D01*
Y314500D01*
D02*
G37*
G36*
X97350D02*
X95400D01*
Y312550D01*
X95876Y312645D01*
X96702Y313198D01*
X97255Y314024D01*
X97350Y314500D01*
D02*
G37*
G36*
X94400D02*
X92450D01*
X92545Y314024D01*
X93098Y313198D01*
X93924Y312645D01*
X94400Y312550D01*
Y314500D01*
D02*
G37*
G36*
X304900Y307850D02*
X304425Y307755D01*
X303598Y307202D01*
X303045Y306376D01*
X302951Y305900D01*
X304900D01*
Y307850D01*
D02*
G37*
G36*
X114750Y305100D02*
X112800D01*
Y303151D01*
X113276Y303245D01*
X114102Y303798D01*
X114655Y304625D01*
X114750Y305100D01*
D02*
G37*
G36*
X94400Y308050D02*
X93924Y307955D01*
X93098Y307402D01*
X92545Y306575D01*
X92450Y306100D01*
X94400D01*
Y308050D01*
D02*
G37*
G36*
X305900Y307850D02*
Y305900D01*
X307850D01*
X307755Y306376D01*
X307202Y307202D01*
X306376Y307755D01*
X305900Y307850D01*
D02*
G37*
G36*
X111800Y305100D02*
X109851D01*
X109945Y304625D01*
X110498Y303798D01*
X111325Y303245D01*
X111800Y303151D01*
Y305100D01*
D02*
G37*
G36*
X307850Y304900D02*
X305900D01*
Y302951D01*
X306376Y303045D01*
X307202Y303598D01*
X307755Y304425D01*
X307850Y304900D01*
D02*
G37*
G36*
X304900D02*
X302951D01*
X303045Y304425D01*
X303598Y303598D01*
X304425Y303045D01*
X304900Y302951D01*
Y304900D01*
D02*
G37*
G36*
X97350Y305100D02*
X95400D01*
Y303151D01*
X95876Y303245D01*
X96702Y303798D01*
X97255Y304625D01*
X97350Y305100D01*
D02*
G37*
G36*
X94400D02*
X92450D01*
X92545Y304625D01*
X93098Y303798D01*
X93924Y303245D01*
X94400Y303151D01*
Y305100D01*
D02*
G37*
G36*
X88649Y309800D02*
X86700D01*
Y307851D01*
X87176Y307945D01*
X88002Y308498D01*
X88555Y309325D01*
X88649Y309800D01*
D02*
G37*
G36*
X85700D02*
X83750D01*
X83845Y309325D01*
X84398Y308498D01*
X85224Y307945D01*
X85700Y307851D01*
Y309800D01*
D02*
G37*
G36*
X106050D02*
X104100D01*
Y307851D01*
X104576Y307945D01*
X105402Y308498D01*
X105955Y309325D01*
X106050Y309800D01*
D02*
G37*
G36*
X103100D02*
X101151D01*
X101245Y309325D01*
X101798Y308498D01*
X102624Y307945D01*
X103100Y307851D01*
Y309800D01*
D02*
G37*
G36*
X111800Y308050D02*
X111325Y307955D01*
X110498Y307402D01*
X109945Y306575D01*
X109851Y306100D01*
X111800D01*
Y308050D01*
D02*
G37*
G36*
X95400D02*
Y306100D01*
X97350D01*
X97255Y306575D01*
X96702Y307402D01*
X95876Y307955D01*
X95400Y308050D01*
D02*
G37*
G36*
X112800D02*
Y306100D01*
X114750D01*
X114655Y306575D01*
X114102Y307402D01*
X113276Y307955D01*
X112800Y308050D01*
D02*
G37*
G36*
X86700Y322149D02*
Y320200D01*
X88649D01*
X88555Y320675D01*
X88002Y321502D01*
X87176Y322055D01*
X86700Y322149D01*
D02*
G37*
G36*
X85700D02*
X85224Y322055D01*
X84398Y321502D01*
X83845Y320675D01*
X83750Y320200D01*
X85700D01*
Y322149D01*
D02*
G37*
G36*
X104100D02*
Y320200D01*
X106050D01*
X105955Y320675D01*
X105402Y321502D01*
X104576Y322055D01*
X104100Y322149D01*
D02*
G37*
G36*
X103100D02*
X102624Y322055D01*
X101798Y321502D01*
X101245Y320675D01*
X101151Y320200D01*
X103100D01*
Y322149D01*
D02*
G37*
G36*
Y319200D02*
X101151D01*
X101245Y318724D01*
X101798Y317898D01*
X102624Y317345D01*
X103100Y317250D01*
Y319200D01*
D02*
G37*
G36*
X88649D02*
X86700D01*
Y317250D01*
X87176Y317345D01*
X88002Y317898D01*
X88555Y318724D01*
X88649Y319200D01*
D02*
G37*
G36*
X106050D02*
X104100D01*
Y317250D01*
X104576Y317345D01*
X105402Y317898D01*
X105955Y318724D01*
X106050Y319200D01*
D02*
G37*
G36*
X111800Y323200D02*
X109851D01*
X109945Y322725D01*
X110498Y321898D01*
X111325Y321345D01*
X111800Y321251D01*
Y323200D01*
D02*
G37*
G36*
X97350D02*
X95400D01*
Y321251D01*
X95876Y321345D01*
X96702Y321898D01*
X97255Y322725D01*
X97350Y323200D01*
D02*
G37*
G36*
X304900Y323700D02*
X302951D01*
X303045Y323224D01*
X303598Y322398D01*
X304425Y321845D01*
X304900Y321750D01*
Y323700D01*
D02*
G37*
G36*
X114750Y323200D02*
X112800D01*
Y321251D01*
X113276Y321345D01*
X114102Y321898D01*
X114655Y322725D01*
X114750Y323200D01*
D02*
G37*
G36*
X94400D02*
X92450D01*
X92545Y322725D01*
X93098Y321898D01*
X93924Y321345D01*
X94400Y321251D01*
Y323200D01*
D02*
G37*
G36*
X85700Y319200D02*
X83750D01*
X83845Y318724D01*
X84398Y317898D01*
X85224Y317345D01*
X85700Y317250D01*
Y319200D01*
D02*
G37*
G36*
X295500Y316249D02*
Y314300D01*
X297449D01*
X297355Y314775D01*
X296802Y315602D01*
X295975Y316155D01*
X295500Y316249D01*
D02*
G37*
G36*
X94400Y317449D02*
X93924Y317355D01*
X93098Y316802D01*
X92545Y315975D01*
X92450Y315500D01*
X94400D01*
Y317449D01*
D02*
G37*
G36*
X294500Y316249D02*
X294024Y316155D01*
X293198Y315602D01*
X292645Y314775D01*
X292550Y314300D01*
X294500D01*
Y316249D01*
D02*
G37*
G36*
X111800Y317449D02*
X111325Y317355D01*
X110498Y316802D01*
X109945Y315975D01*
X109851Y315500D01*
X111800D01*
Y317449D01*
D02*
G37*
G36*
X95400D02*
Y315500D01*
X97350D01*
X97255Y315975D01*
X96702Y316802D01*
X95876Y317355D01*
X95400Y317449D01*
D02*
G37*
G36*
X112800D02*
Y315500D01*
X114750D01*
X114655Y315975D01*
X114102Y316802D01*
X113276Y317355D01*
X112800Y317449D01*
D02*
G37*
G36*
X250049Y292000D02*
X248100D01*
Y290051D01*
X248575Y290145D01*
X249402Y290698D01*
X249955Y291525D01*
X250049Y292000D01*
D02*
G37*
G36*
X247100D02*
X245150D01*
X245245Y291525D01*
X245798Y290698D01*
X246624Y290145D01*
X247100Y290051D01*
Y292000D01*
D02*
G37*
G36*
X268849D02*
X266900D01*
Y290051D01*
X267375Y290145D01*
X268202Y290698D01*
X268755Y291525D01*
X268849Y292000D01*
D02*
G37*
G36*
X265900D02*
X263950D01*
X264045Y291525D01*
X264598Y290698D01*
X265424Y290145D01*
X265900Y290051D01*
Y292000D01*
D02*
G37*
G36*
X231249D02*
X229300D01*
Y290051D01*
X229776Y290145D01*
X230602Y290698D01*
X231155Y291525D01*
X231249Y292000D01*
D02*
G37*
G36*
X214500D02*
X212550D01*
X212645Y291525D01*
X213198Y290698D01*
X214024Y290145D01*
X214500Y290051D01*
Y292000D01*
D02*
G37*
G36*
X228300D02*
X226350D01*
X226445Y291525D01*
X226998Y290698D01*
X227824Y290145D01*
X228300Y290051D01*
Y292000D01*
D02*
G37*
G36*
X217449D02*
X215500D01*
Y290051D01*
X215975Y290145D01*
X216802Y290698D01*
X217355Y291525D01*
X217449Y292000D01*
D02*
G37*
G36*
X138200Y292149D02*
X137724Y292055D01*
X136898Y291502D01*
X136345Y290675D01*
X136250Y290200D01*
X138200D01*
Y292149D01*
D02*
G37*
G36*
X121600D02*
Y290200D01*
X123549D01*
X123455Y290675D01*
X122902Y291502D01*
X122075Y292055D01*
X121600Y292149D01*
D02*
G37*
G36*
X139200D02*
Y290200D01*
X141149D01*
X141055Y290675D01*
X140502Y291502D01*
X139675Y292055D01*
X139200Y292149D01*
D02*
G37*
G36*
X120600D02*
X120124Y292055D01*
X119298Y291502D01*
X118745Y290675D01*
X118650Y290200D01*
X120600D01*
Y292149D01*
D02*
G37*
G36*
X287649Y292000D02*
X285700D01*
Y290051D01*
X286175Y290145D01*
X287002Y290698D01*
X287555Y291525D01*
X287649Y292000D01*
D02*
G37*
G36*
X284700D02*
X282751D01*
X282845Y291525D01*
X283398Y290698D01*
X284225Y290145D01*
X284700Y290051D01*
Y292000D01*
D02*
G37*
G36*
X104200Y292149D02*
Y290200D01*
X106149D01*
X106055Y290675D01*
X105502Y291502D01*
X104675Y292055D01*
X104200Y292149D01*
D02*
G37*
G36*
X103200D02*
X102725Y292055D01*
X101898Y291502D01*
X101345Y290675D01*
X101251Y290200D01*
X103200D01*
Y292149D01*
D02*
G37*
G36*
X129300Y287450D02*
X128824Y287355D01*
X127998Y286802D01*
X127445Y285976D01*
X127350Y285500D01*
X129300D01*
Y287450D01*
D02*
G37*
G36*
X112900D02*
Y285500D01*
X114849D01*
X114755Y285976D01*
X114202Y286802D01*
X113375Y287355D01*
X112900Y287450D01*
D02*
G37*
G36*
X146900D02*
X146424Y287355D01*
X145598Y286802D01*
X145045Y285976D01*
X144950Y285500D01*
X146900D01*
Y287450D01*
D02*
G37*
G36*
X130300D02*
Y285500D01*
X132249D01*
X132155Y285976D01*
X131602Y286802D01*
X130775Y287355D01*
X130300Y287450D01*
D02*
G37*
G36*
X111900D02*
X111425Y287355D01*
X110598Y286802D01*
X110045Y285976D01*
X109950Y285500D01*
X111900D01*
Y287450D01*
D02*
G37*
G36*
X205595Y285646D02*
X203645D01*
Y283696D01*
X204120Y283791D01*
X204947Y284343D01*
X205500Y285170D01*
X205595Y285646D01*
D02*
G37*
G36*
X202645D02*
X200695D01*
X200790Y285170D01*
X201343Y284343D01*
X202170Y283791D01*
X202645Y283696D01*
Y285646D01*
D02*
G37*
G36*
X123549Y289200D02*
X121600D01*
Y287250D01*
X122075Y287345D01*
X122902Y287898D01*
X123455Y288724D01*
X123549Y289200D01*
D02*
G37*
G36*
X120600D02*
X118650D01*
X118745Y288724D01*
X119298Y287898D01*
X120124Y287345D01*
X120600Y287250D01*
Y289200D01*
D02*
G37*
G36*
X141149D02*
X139200D01*
Y287250D01*
X139675Y287345D01*
X140502Y287898D01*
X141055Y288724D01*
X141149Y289200D01*
D02*
G37*
G36*
X138200D02*
X136250D01*
X136345Y288724D01*
X136898Y287898D01*
X137724Y287345D01*
X138200Y287250D01*
Y289200D01*
D02*
G37*
G36*
X106149D02*
X104200D01*
Y287250D01*
X104675Y287345D01*
X105502Y287898D01*
X106055Y288724D01*
X106149Y289200D01*
D02*
G37*
G36*
X202645Y288595D02*
X202170Y288500D01*
X201343Y287948D01*
X200790Y287121D01*
X200695Y286646D01*
X202645D01*
Y288595D01*
D02*
G37*
G36*
X147900Y287450D02*
Y285500D01*
X149849D01*
X149755Y285976D01*
X149202Y286802D01*
X148375Y287355D01*
X147900Y287450D01*
D02*
G37*
G36*
X103200Y289200D02*
X101251D01*
X101345Y288724D01*
X101898Y287898D01*
X102725Y287345D01*
X103200Y287250D01*
Y289200D01*
D02*
G37*
G36*
X203645Y288595D02*
Y286646D01*
X205595D01*
X205500Y287121D01*
X204947Y287948D01*
X204120Y288500D01*
X203645Y288595D01*
D02*
G37*
G36*
X103100Y300400D02*
X101151D01*
X101245Y299924D01*
X101798Y299098D01*
X102624Y298545D01*
X103100Y298450D01*
Y300400D01*
D02*
G37*
G36*
X130200Y298650D02*
Y296700D01*
X132150D01*
X132055Y297176D01*
X131502Y298002D01*
X130675Y298555D01*
X130200Y298650D01*
D02*
G37*
G36*
X120500Y300400D02*
X118551D01*
X118645Y299924D01*
X119198Y299098D01*
X120025Y298545D01*
X120500Y298450D01*
Y300400D01*
D02*
G37*
G36*
X106050D02*
X104100D01*
Y298450D01*
X104576Y298545D01*
X105402Y299098D01*
X105955Y299924D01*
X106050Y300400D01*
D02*
G37*
G36*
X129200Y298650D02*
X128725Y298555D01*
X127898Y298002D01*
X127345Y297176D01*
X127251Y296700D01*
X129200D01*
Y298650D01*
D02*
G37*
G36*
X95400D02*
Y296700D01*
X97350D01*
X97255Y297176D01*
X96702Y298002D01*
X95876Y298555D01*
X95400Y298650D01*
D02*
G37*
G36*
X94400D02*
X93924Y298555D01*
X93098Y298002D01*
X92545Y297176D01*
X92450Y296700D01*
X94400D01*
Y298650D01*
D02*
G37*
G36*
X112800D02*
Y296700D01*
X114750D01*
X114655Y297176D01*
X114102Y298002D01*
X113276Y298555D01*
X112800Y298650D01*
D02*
G37*
G36*
X111800D02*
X111325Y298555D01*
X110498Y298002D01*
X109945Y297176D01*
X109851Y296700D01*
X111800D01*
Y298650D01*
D02*
G37*
G36*
X121500Y303349D02*
Y301400D01*
X123450D01*
X123355Y301875D01*
X122802Y302702D01*
X121976Y303255D01*
X121500Y303349D01*
D02*
G37*
G36*
X120500D02*
X120025Y303255D01*
X119198Y302702D01*
X118645Y301875D01*
X118551Y301400D01*
X120500D01*
Y303349D01*
D02*
G37*
G36*
X104100D02*
Y301400D01*
X106050D01*
X105955Y301875D01*
X105402Y302702D01*
X104576Y303255D01*
X104100Y303349D01*
D02*
G37*
G36*
X123450Y300400D02*
X121500D01*
Y298450D01*
X121976Y298545D01*
X122802Y299098D01*
X123355Y299924D01*
X123450Y300400D01*
D02*
G37*
G36*
X103100Y303349D02*
X102624Y303255D01*
X101798Y302702D01*
X101245Y301875D01*
X101151Y301400D01*
X103100D01*
Y303349D01*
D02*
G37*
G36*
X149549Y295700D02*
X147600D01*
Y293751D01*
X148075Y293845D01*
X148902Y294398D01*
X149455Y295224D01*
X149549Y295700D01*
D02*
G37*
G36*
X248100Y294950D02*
Y293000D01*
X250049D01*
X249955Y293476D01*
X249402Y294302D01*
X248575Y294855D01*
X248100Y294950D01*
D02*
G37*
G36*
X247100D02*
X246624Y294855D01*
X245798Y294302D01*
X245245Y293476D01*
X245150Y293000D01*
X247100D01*
Y294950D01*
D02*
G37*
G36*
X266900D02*
Y293000D01*
X268849D01*
X268755Y293476D01*
X268202Y294302D01*
X267375Y294855D01*
X266900Y294950D01*
D02*
G37*
G36*
X265900D02*
X265424Y294855D01*
X264598Y294302D01*
X264045Y293476D01*
X263950Y293000D01*
X265900D01*
Y294950D01*
D02*
G37*
G36*
X229300D02*
Y293000D01*
X231249D01*
X231155Y293476D01*
X230602Y294302D01*
X229776Y294855D01*
X229300Y294950D01*
D02*
G37*
G36*
X214500D02*
X214024Y294855D01*
X213198Y294302D01*
X212645Y293476D01*
X212550Y293000D01*
X214500D01*
Y294950D01*
D02*
G37*
G36*
X228300D02*
X227824Y294855D01*
X226998Y294302D01*
X226445Y293476D01*
X226350Y293000D01*
X228300D01*
Y294950D01*
D02*
G37*
G36*
X215500D02*
Y293000D01*
X217449D01*
X217355Y293476D01*
X216802Y294302D01*
X215975Y294855D01*
X215500Y294950D01*
D02*
G37*
G36*
X129200Y295700D02*
X127251D01*
X127345Y295224D01*
X127898Y294398D01*
X128725Y293845D01*
X129200Y293751D01*
Y295700D01*
D02*
G37*
G36*
X114750D02*
X112800D01*
Y293751D01*
X113276Y293845D01*
X114102Y294398D01*
X114655Y295224D01*
X114750Y295700D01*
D02*
G37*
G36*
X146600D02*
X144650D01*
X144745Y295224D01*
X145298Y294398D01*
X146124Y293845D01*
X146600Y293751D01*
Y295700D01*
D02*
G37*
G36*
X132150D02*
X130200D01*
Y293751D01*
X130675Y293845D01*
X131502Y294398D01*
X132055Y295224D01*
X132150Y295700D01*
D02*
G37*
G36*
X111800D02*
X109851D01*
X109945Y295224D01*
X110498Y294398D01*
X111325Y293845D01*
X111800Y293751D01*
Y295700D01*
D02*
G37*
G36*
X285700Y294950D02*
Y293000D01*
X287649D01*
X287555Y293476D01*
X287002Y294302D01*
X286175Y294855D01*
X285700Y294950D01*
D02*
G37*
G36*
X284700D02*
X284225Y294855D01*
X283398Y294302D01*
X282845Y293476D01*
X282751Y293000D01*
X284700D01*
Y294950D01*
D02*
G37*
G36*
X97350Y295700D02*
X95400D01*
Y293751D01*
X95876Y293845D01*
X96702Y294398D01*
X97255Y295224D01*
X97350Y295700D01*
D02*
G37*
G36*
X94400D02*
X92450D01*
X92545Y295224D01*
X93098Y294398D01*
X93924Y293845D01*
X94400Y293751D01*
Y295700D01*
D02*
G37*
G36*
X111950Y92100D02*
X110000D01*
Y90150D01*
X110476Y90245D01*
X111302Y90798D01*
X111855Y91624D01*
X111950Y92100D01*
D02*
G37*
G36*
X137200D02*
X135250D01*
X135345Y91624D01*
X135898Y90798D01*
X136724Y90245D01*
X137200Y90150D01*
Y92100D01*
D02*
G37*
G36*
X109000D02*
X107051D01*
X107145Y91624D01*
X107698Y90798D01*
X108525Y90245D01*
X109000Y90150D01*
Y92100D01*
D02*
G37*
G36*
X99600D02*
X97650D01*
X97745Y91624D01*
X98298Y90798D01*
X99124Y90245D01*
X99600Y90150D01*
Y92100D01*
D02*
G37*
G36*
X102550D02*
X100600D01*
Y90150D01*
X101075Y90245D01*
X101902Y90798D01*
X102455Y91624D01*
X102550Y92100D01*
D02*
G37*
G36*
X95900Y86349D02*
Y84400D01*
X97850D01*
X97755Y84876D01*
X97202Y85702D01*
X96376Y86255D01*
X95900Y86349D01*
D02*
G37*
G36*
X94900D02*
X94424Y86255D01*
X93598Y85702D01*
X93045Y84876D01*
X92950Y84400D01*
X94900D01*
Y86349D01*
D02*
G37*
G36*
X86500D02*
Y84400D01*
X88450D01*
X88355Y84876D01*
X87802Y85702D01*
X86976Y86255D01*
X86500Y86349D01*
D02*
G37*
G36*
X85500D02*
X85024Y86255D01*
X84198Y85702D01*
X83645Y84876D01*
X83551Y84400D01*
X85500D01*
Y86349D01*
D02*
G37*
G36*
X140149Y92100D02*
X138200D01*
Y90150D01*
X138675Y90245D01*
X139502Y90798D01*
X140055Y91624D01*
X140149Y92100D01*
D02*
G37*
G36*
X165400D02*
X163451D01*
X163545Y91624D01*
X164098Y90798D01*
X164925Y90245D01*
X165400Y90150D01*
Y92100D01*
D02*
G37*
G36*
X168350D02*
X166400D01*
Y90150D01*
X166876Y90245D01*
X167702Y90798D01*
X168255Y91624D01*
X168350Y92100D01*
D02*
G37*
G36*
X93150D02*
X91200D01*
Y90150D01*
X91676Y90245D01*
X92502Y90798D01*
X93055Y91624D01*
X93150Y92100D01*
D02*
G37*
G36*
X152300Y86349D02*
Y84400D01*
X154250D01*
X154155Y84876D01*
X153602Y85702D01*
X152776Y86255D01*
X152300Y86349D01*
D02*
G37*
G36*
X151300D02*
X150824Y86255D01*
X149998Y85702D01*
X149445Y84876D01*
X149351Y84400D01*
X151300D01*
Y86349D01*
D02*
G37*
G36*
X105300D02*
Y84400D01*
X107249D01*
X107155Y84876D01*
X106602Y85702D01*
X105775Y86255D01*
X105300Y86349D01*
D02*
G37*
G36*
X123100D02*
X122625Y86255D01*
X121798Y85702D01*
X121245Y84876D01*
X121151Y84400D01*
X123100D01*
Y86349D01*
D02*
G37*
G36*
X124100D02*
Y84400D01*
X126049D01*
X125955Y84876D01*
X125402Y85702D01*
X124575Y86255D01*
X124100Y86349D01*
D02*
G37*
G36*
X90200Y92100D02*
X88250D01*
X88345Y91624D01*
X88898Y90798D01*
X89724Y90245D01*
X90200Y90150D01*
Y92100D01*
D02*
G37*
G36*
X104300Y86349D02*
X103824Y86255D01*
X102998Y85702D01*
X102445Y84876D01*
X102350Y84400D01*
X104300D01*
Y86349D01*
D02*
G37*
G36*
Y100800D02*
X102350D01*
X102445Y100324D01*
X102998Y99498D01*
X103824Y98945D01*
X104300Y98851D01*
Y100800D01*
D02*
G37*
G36*
X97850D02*
X95900D01*
Y98851D01*
X96376Y98945D01*
X97202Y99498D01*
X97755Y100324D01*
X97850Y100800D01*
D02*
G37*
G36*
X123100D02*
X121151D01*
X121245Y100324D01*
X121798Y99498D01*
X122625Y98945D01*
X123100Y98851D01*
Y100800D01*
D02*
G37*
G36*
X107249D02*
X105300D01*
Y98851D01*
X105775Y98945D01*
X106602Y99498D01*
X107155Y100324D01*
X107249Y100800D01*
D02*
G37*
G36*
X94900D02*
X92950D01*
X93045Y100324D01*
X93598Y99498D01*
X94424Y98945D01*
X94900Y98851D01*
Y100800D01*
D02*
G37*
G36*
X184950Y99400D02*
X183000D01*
Y97451D01*
X183475Y97545D01*
X184302Y98098D01*
X184855Y98924D01*
X184950Y99400D01*
D02*
G37*
G36*
X182000D02*
X180051D01*
X180145Y98924D01*
X180698Y98098D01*
X181525Y97545D01*
X182000Y97451D01*
Y99400D01*
D02*
G37*
G36*
X88450Y100800D02*
X86500D01*
Y98851D01*
X86976Y98945D01*
X87802Y99498D01*
X88355Y100324D01*
X88450Y100800D01*
D02*
G37*
G36*
X85500D02*
X83551D01*
X83645Y100324D01*
X84198Y99498D01*
X85024Y98945D01*
X85500Y98851D01*
Y100800D01*
D02*
G37*
G36*
X91200Y95050D02*
Y93100D01*
X93150D01*
X93055Y93576D01*
X92502Y94402D01*
X91676Y94955D01*
X91200Y95050D01*
D02*
G37*
G36*
X90200D02*
X89724Y94955D01*
X88898Y94402D01*
X88345Y93576D01*
X88250Y93100D01*
X90200D01*
Y95050D01*
D02*
G37*
G36*
X100600D02*
Y93100D01*
X102550D01*
X102455Y93576D01*
X101902Y94402D01*
X101075Y94955D01*
X100600Y95050D01*
D02*
G37*
G36*
X99600D02*
X99124Y94955D01*
X98298Y94402D01*
X97745Y93576D01*
X97650Y93100D01*
X99600D01*
Y95050D01*
D02*
G37*
G36*
X166400D02*
Y93100D01*
X168350D01*
X168255Y93576D01*
X167702Y94402D01*
X166876Y94955D01*
X166400Y95050D01*
D02*
G37*
G36*
X165400D02*
X164925Y94955D01*
X164098Y94402D01*
X163545Y93576D01*
X163451Y93100D01*
X165400D01*
Y95050D01*
D02*
G37*
G36*
X110000D02*
Y93100D01*
X111950D01*
X111855Y93576D01*
X111302Y94402D01*
X110476Y94955D01*
X110000Y95050D01*
D02*
G37*
G36*
X109000D02*
X108525Y94955D01*
X107698Y94402D01*
X107145Y93576D01*
X107051Y93100D01*
X109000D01*
Y95050D01*
D02*
G37*
G36*
X138200D02*
Y93100D01*
X140149D01*
X140055Y93576D01*
X139502Y94402D01*
X138675Y94955D01*
X138200Y95050D01*
D02*
G37*
G36*
X137200D02*
X136724Y94955D01*
X135898Y94402D01*
X135345Y93576D01*
X135250Y93100D01*
X137200D01*
Y95050D01*
D02*
G37*
G36*
X183000Y84949D02*
Y83000D01*
X184950D01*
X184855Y83476D01*
X184302Y84302D01*
X183475Y84855D01*
X183000Y84949D01*
D02*
G37*
G36*
X104300Y68950D02*
X103824Y68855D01*
X102998Y68302D01*
X102445Y67475D01*
X102350Y67000D01*
X104300D01*
Y68950D01*
D02*
G37*
G36*
X95900D02*
Y67000D01*
X97850D01*
X97755Y67475D01*
X97202Y68302D01*
X96376Y68855D01*
X95900Y68950D01*
D02*
G37*
G36*
X105300D02*
Y67000D01*
X107249D01*
X107155Y67475D01*
X106602Y68302D01*
X105775Y68855D01*
X105300Y68950D01*
D02*
G37*
G36*
X94900D02*
X94424Y68855D01*
X93598Y68302D01*
X93045Y67475D01*
X92950Y67000D01*
X94900D01*
Y68950D01*
D02*
G37*
G36*
X86500D02*
Y67000D01*
X88450D01*
X88355Y67475D01*
X87802Y68302D01*
X86976Y68855D01*
X86500Y68950D01*
D02*
G37*
G36*
X85500D02*
X85024Y68855D01*
X84198Y68302D01*
X83645Y67475D01*
X83551Y67000D01*
X85500D01*
Y68950D01*
D02*
G37*
G36*
X102550Y74700D02*
X100600D01*
Y72751D01*
X101075Y72845D01*
X101902Y73398D01*
X102455Y74225D01*
X102550Y74700D01*
D02*
G37*
G36*
X99600D02*
X97650D01*
X97745Y74225D01*
X98298Y73398D01*
X99124Y72845D01*
X99600Y72751D01*
Y74700D01*
D02*
G37*
G36*
X111950D02*
X110000D01*
Y72751D01*
X110476Y72845D01*
X111302Y73398D01*
X111855Y74225D01*
X111950Y74700D01*
D02*
G37*
G36*
X109000D02*
X107051D01*
X107145Y74225D01*
X107698Y73398D01*
X108525Y72845D01*
X109000Y72751D01*
Y74700D01*
D02*
G37*
G36*
X93150D02*
X91200D01*
Y72751D01*
X91676Y72845D01*
X92502Y73398D01*
X93055Y74225D01*
X93150Y74700D01*
D02*
G37*
G36*
X90200D02*
X88250D01*
X88345Y74225D01*
X88898Y73398D01*
X89724Y72845D01*
X90200Y72751D01*
Y74700D01*
D02*
G37*
G36*
X97850Y66000D02*
X95900D01*
Y64051D01*
X96376Y64145D01*
X97202Y64698D01*
X97755Y65525D01*
X97850Y66000D01*
D02*
G37*
G36*
X94900D02*
X92950D01*
X93045Y65525D01*
X93598Y64698D01*
X94424Y64145D01*
X94900Y64051D01*
Y66000D01*
D02*
G37*
G36*
X107249D02*
X105300D01*
Y64051D01*
X105775Y64145D01*
X106602Y64698D01*
X107155Y65525D01*
X107249Y66000D01*
D02*
G37*
G36*
X104300D02*
X102350D01*
X102445Y65525D01*
X102998Y64698D01*
X103824Y64145D01*
X104300Y64051D01*
Y66000D01*
D02*
G37*
G36*
X88450D02*
X86500D01*
Y64051D01*
X86976Y64145D01*
X87802Y64698D01*
X88355Y65525D01*
X88450Y66000D01*
D02*
G37*
G36*
X85500D02*
X83551D01*
X83645Y65525D01*
X84198Y64698D01*
X85024Y64145D01*
X85500Y64051D01*
Y66000D01*
D02*
G37*
G36*
X126049Y83400D02*
X124100D01*
Y81450D01*
X124575Y81545D01*
X125402Y82098D01*
X125955Y82924D01*
X126049Y83400D01*
D02*
G37*
G36*
X123100D02*
X121151D01*
X121245Y82924D01*
X121798Y82098D01*
X122625Y81545D01*
X123100Y81450D01*
Y83400D01*
D02*
G37*
G36*
X154250D02*
X152300D01*
Y81450D01*
X152776Y81545D01*
X153602Y82098D01*
X154155Y82924D01*
X154250Y83400D01*
D02*
G37*
G36*
X151300D02*
X149351D01*
X149445Y82924D01*
X149998Y82098D01*
X150824Y81545D01*
X151300Y81450D01*
Y83400D01*
D02*
G37*
G36*
X107249D02*
X105300D01*
Y81450D01*
X105775Y81545D01*
X106602Y82098D01*
X107155Y82924D01*
X107249Y83400D01*
D02*
G37*
G36*
X94900D02*
X92950D01*
X93045Y82924D01*
X93598Y82098D01*
X94424Y81545D01*
X94900Y81450D01*
Y83400D01*
D02*
G37*
G36*
X88450D02*
X86500D01*
Y81450D01*
X86976Y81545D01*
X87802Y82098D01*
X88355Y82924D01*
X88450Y83400D01*
D02*
G37*
G36*
X104300D02*
X102350D01*
X102445Y82924D01*
X102998Y82098D01*
X103824Y81545D01*
X104300Y81450D01*
Y83400D01*
D02*
G37*
G36*
X97850D02*
X95900D01*
Y81450D01*
X96376Y81545D01*
X97202Y82098D01*
X97755Y82924D01*
X97850Y83400D01*
D02*
G37*
G36*
X182000Y84949D02*
X181525Y84855D01*
X180698Y84302D01*
X180145Y83476D01*
X180051Y83000D01*
X182000D01*
Y84949D01*
D02*
G37*
G36*
X100600Y77649D02*
Y75700D01*
X102550D01*
X102455Y76175D01*
X101902Y77002D01*
X101075Y77555D01*
X100600Y77649D01*
D02*
G37*
G36*
X99600D02*
X99124Y77555D01*
X98298Y77002D01*
X97745Y76175D01*
X97650Y75700D01*
X99600D01*
Y77649D01*
D02*
G37*
G36*
X110000D02*
Y75700D01*
X111950D01*
X111855Y76175D01*
X111302Y77002D01*
X110476Y77555D01*
X110000Y77649D01*
D02*
G37*
G36*
X109000D02*
X108525Y77555D01*
X107698Y77002D01*
X107145Y76175D01*
X107051Y75700D01*
X109000D01*
Y77649D01*
D02*
G37*
G36*
X91200D02*
Y75700D01*
X93150D01*
X93055Y76175D01*
X92502Y77002D01*
X91676Y77555D01*
X91200Y77649D01*
D02*
G37*
G36*
X90200D02*
X89724Y77555D01*
X88898Y77002D01*
X88345Y76175D01*
X88250Y75700D01*
X90200D01*
Y77649D01*
D02*
G37*
G36*
X182000Y82000D02*
X180051D01*
X180145Y81524D01*
X180698Y80698D01*
X181525Y80145D01*
X182000Y80050D01*
Y82000D01*
D02*
G37*
G36*
X85500Y83400D02*
X83551D01*
X83645Y82924D01*
X84198Y82098D01*
X85024Y81545D01*
X85500Y81450D01*
Y83400D01*
D02*
G37*
G36*
X184950Y82000D02*
X183000D01*
Y80050D01*
X183475Y80145D01*
X184302Y80698D01*
X184855Y81524D01*
X184950Y82000D01*
D02*
G37*
G36*
X138200Y77649D02*
Y75700D01*
X140149D01*
X140055Y76175D01*
X139502Y77002D01*
X138675Y77555D01*
X138200Y77649D01*
D02*
G37*
G36*
X137200D02*
X136724Y77555D01*
X135898Y77002D01*
X135345Y76175D01*
X135250Y75700D01*
X137200D01*
Y77649D01*
D02*
G37*
G36*
X166400D02*
Y75700D01*
X168350D01*
X168255Y76175D01*
X167702Y77002D01*
X166876Y77555D01*
X166400Y77649D01*
D02*
G37*
G36*
X165400D02*
X164925Y77555D01*
X164098Y77002D01*
X163545Y76175D01*
X163451Y75700D01*
X165400D01*
Y77649D01*
D02*
G37*
G36*
X91200Y129850D02*
Y127900D01*
X93150D01*
X93055Y128375D01*
X92502Y129202D01*
X91676Y129755D01*
X91200Y129850D01*
D02*
G37*
G36*
X98010Y135600D02*
X95900D01*
Y133421D01*
X96062Y133289D01*
Y127800D01*
X100581D01*
Y135371D01*
X98198D01*
X98010Y135600D01*
D02*
G37*
G36*
X90200Y129850D02*
X89724Y129755D01*
X88898Y129202D01*
X88345Y128375D01*
X88250Y127900D01*
X90200D01*
Y129850D01*
D02*
G37*
G36*
X105018Y135371D02*
X101581D01*
Y127800D01*
X106100D01*
Y134288D01*
X105783Y135054D01*
X105018Y135371D01*
D02*
G37*
G36*
X94900Y138549D02*
X94424Y138455D01*
X93598Y137902D01*
X93045Y137075D01*
X92950Y136600D01*
X94900D01*
Y138549D01*
D02*
G37*
G36*
X86500D02*
Y136600D01*
X88450D01*
X88355Y137075D01*
X87802Y137902D01*
X86976Y138455D01*
X86500Y138549D01*
D02*
G37*
G36*
X95900D02*
Y136600D01*
X97850D01*
X97755Y137075D01*
X97202Y137902D01*
X96376Y138455D01*
X95900Y138549D01*
D02*
G37*
G36*
X85500D02*
X85024Y138455D01*
X84198Y137902D01*
X83645Y137075D01*
X83551Y136600D01*
X85500D01*
Y138549D01*
D02*
G37*
G36*
Y135600D02*
X83551D01*
X83645Y135125D01*
X84198Y134298D01*
X85024Y133745D01*
X85500Y133651D01*
Y135600D01*
D02*
G37*
G36*
X94900D02*
X92950D01*
X93045Y135125D01*
X93598Y134298D01*
X94424Y133745D01*
X94900Y133651D01*
Y135600D01*
D02*
G37*
G36*
X88450D02*
X86500D01*
Y133651D01*
X86976Y133745D01*
X87802Y134298D01*
X88355Y135125D01*
X88450Y135600D01*
D02*
G37*
G36*
X94900Y121150D02*
X94424Y121055D01*
X93598Y120502D01*
X93045Y119676D01*
X92950Y119200D01*
X94900D01*
Y121150D01*
D02*
G37*
G36*
X86500D02*
Y119200D01*
X88450D01*
X88355Y119676D01*
X87802Y120502D01*
X86976Y121055D01*
X86500Y121150D01*
D02*
G37*
G36*
X106100Y126800D02*
X101581D01*
Y119229D01*
X105018D01*
X105783Y119546D01*
X106100Y120312D01*
Y126800D01*
D02*
G37*
G36*
X100581D02*
X96062D01*
Y121511D01*
X95900Y121379D01*
Y119200D01*
X98214D01*
X98238Y119229D01*
X100581D01*
Y126800D01*
D02*
G37*
G36*
X85500Y121150D02*
X85024Y121055D01*
X84198Y120502D01*
X83645Y119676D01*
X83551Y119200D01*
X85500D01*
Y121150D01*
D02*
G37*
G36*
X183000Y119749D02*
Y117800D01*
X184950D01*
X184855Y118275D01*
X184302Y119102D01*
X183475Y119655D01*
X183000Y119749D01*
D02*
G37*
G36*
X182000D02*
X181525Y119655D01*
X180698Y119102D01*
X180145Y118275D01*
X180051Y117800D01*
X182000D01*
Y119749D01*
D02*
G37*
G36*
X90200Y126900D02*
X88250D01*
X88345Y126425D01*
X88898Y125598D01*
X89724Y125045D01*
X90200Y124951D01*
Y126900D01*
D02*
G37*
G36*
X93150D02*
X91200D01*
Y124951D01*
X91676Y125045D01*
X92502Y125598D01*
X93055Y126425D01*
X93150Y126900D01*
D02*
G37*
G36*
X183000Y189349D02*
Y187400D01*
X184950D01*
X184855Y187875D01*
X184302Y188702D01*
X183475Y189255D01*
X183000Y189349D01*
D02*
G37*
G36*
X182000D02*
X181525Y189255D01*
X180698Y188702D01*
X180145Y187875D01*
X180051Y187400D01*
X182000D01*
Y189349D01*
D02*
G37*
G36*
Y186400D02*
X180051D01*
X180145Y185924D01*
X180698Y185098D01*
X181525Y184545D01*
X182000Y184450D01*
Y186400D01*
D02*
G37*
G36*
X184950D02*
X183000D01*
Y184450D01*
X183475Y184545D01*
X184302Y185098D01*
X184855Y185924D01*
X184950Y186400D01*
D02*
G37*
G36*
X176000Y198950D02*
Y197000D01*
X177950D01*
X177855Y197476D01*
X177302Y198302D01*
X176476Y198855D01*
X176000Y198950D01*
D02*
G37*
G36*
X182000Y203800D02*
X180051D01*
X180145Y203325D01*
X180698Y202498D01*
X181525Y201945D01*
X182000Y201851D01*
Y203800D01*
D02*
G37*
G36*
X175000Y198950D02*
X174524Y198855D01*
X173698Y198302D01*
X173145Y197476D01*
X173050Y197000D01*
X175000D01*
Y198950D01*
D02*
G37*
G36*
X177950Y196000D02*
X176000D01*
Y194051D01*
X176476Y194145D01*
X177302Y194698D01*
X177855Y195525D01*
X177950Y196000D01*
D02*
G37*
G36*
X175000D02*
X173050D01*
X173145Y195525D01*
X173698Y194698D01*
X174524Y194145D01*
X175000Y194051D01*
Y196000D01*
D02*
G37*
G36*
X97850Y153000D02*
X95900D01*
Y151050D01*
X96376Y151145D01*
X97202Y151698D01*
X97755Y152524D01*
X97850Y153000D01*
D02*
G37*
G36*
X94900D02*
X92950D01*
X93045Y152524D01*
X93598Y151698D01*
X94424Y151145D01*
X94900Y151050D01*
Y153000D01*
D02*
G37*
G36*
X100581Y163000D02*
X96062D01*
Y156512D01*
X96127Y156354D01*
X95900Y156077D01*
Y154000D01*
X97850D01*
X97755Y154475D01*
X97452Y154929D01*
X97719Y155429D01*
X100581D01*
Y163000D01*
D02*
G37*
G36*
X94900Y155949D02*
X94424Y155855D01*
X93598Y155302D01*
X93045Y154475D01*
X92950Y154000D01*
X94900D01*
Y155949D01*
D02*
G37*
G36*
X91200Y147249D02*
Y145300D01*
X93150D01*
X93055Y145775D01*
X92502Y146602D01*
X91676Y147155D01*
X91200Y147249D01*
D02*
G37*
G36*
X93150Y144300D02*
X91200D01*
Y142350D01*
X91676Y142445D01*
X92502Y142998D01*
X93055Y143825D01*
X93150Y144300D01*
D02*
G37*
G36*
X90200D02*
X88250D01*
X88345Y143825D01*
X88898Y142998D01*
X89724Y142445D01*
X90200Y142350D01*
Y144300D01*
D02*
G37*
G36*
Y147249D02*
X89724Y147155D01*
X88898Y146602D01*
X88345Y145775D01*
X88250Y145300D01*
X90200D01*
Y147249D01*
D02*
G37*
G36*
X174500Y181449D02*
X174024Y181355D01*
X173198Y180802D01*
X172645Y179975D01*
X172550Y179500D01*
X174500D01*
Y181449D01*
D02*
G37*
G36*
X175500D02*
Y179500D01*
X177450D01*
X177355Y179975D01*
X176802Y180802D01*
X175976Y181355D01*
X175500Y181449D01*
D02*
G37*
G36*
X110000Y167131D02*
Y163700D01*
X113431D01*
X113223Y164742D01*
X112350Y166050D01*
X111042Y166923D01*
X110000Y167131D01*
D02*
G37*
G36*
X113431Y162700D02*
X110000D01*
Y159269D01*
X111042Y159477D01*
X112350Y160350D01*
X113223Y161658D01*
X113431Y162700D01*
D02*
G37*
G36*
X177450Y178500D02*
X175500D01*
Y176550D01*
X175976Y176645D01*
X176802Y177198D01*
X177355Y178024D01*
X177450Y178500D01*
D02*
G37*
G36*
X174500D02*
X172550D01*
X172645Y178024D01*
X173198Y177198D01*
X174024Y176645D01*
X174500Y176550D01*
Y178500D01*
D02*
G37*
G36*
X151300Y103750D02*
X150824Y103655D01*
X149998Y103102D01*
X149445Y102276D01*
X149351Y101800D01*
X151300D01*
Y103750D01*
D02*
G37*
G36*
X124100D02*
Y101800D01*
X126049D01*
X125955Y102276D01*
X125402Y103102D01*
X124575Y103655D01*
X124100Y103750D01*
D02*
G37*
G36*
X152300D02*
Y101800D01*
X154250D01*
X154155Y102276D01*
X153602Y103102D01*
X152776Y103655D01*
X152300Y103750D01*
D02*
G37*
G36*
X183000Y102349D02*
Y100400D01*
X184950D01*
X184855Y100875D01*
X184302Y101702D01*
X183475Y102255D01*
X183000Y102349D01*
D02*
G37*
G36*
X182000D02*
X181525Y102255D01*
X180698Y101702D01*
X180145Y100875D01*
X180051Y100400D01*
X182000D01*
Y102349D01*
D02*
G37*
G36*
X151300Y100800D02*
X149351D01*
X149445Y100324D01*
X149998Y99498D01*
X150824Y98945D01*
X151300Y98851D01*
Y100800D01*
D02*
G37*
G36*
X126049D02*
X124100D01*
Y98851D01*
X124575Y98945D01*
X125402Y99498D01*
X125955Y100324D01*
X126049Y100800D01*
D02*
G37*
G36*
X154250D02*
X152300D01*
Y98851D01*
X152776Y98945D01*
X153602Y99498D01*
X154155Y100324D01*
X154250Y100800D01*
D02*
G37*
G36*
X104300Y103750D02*
X103824Y103655D01*
X102998Y103102D01*
X102445Y102276D01*
X102350Y101800D01*
X104300D01*
Y103750D01*
D02*
G37*
G36*
X95900D02*
Y101800D01*
X97850D01*
X97755Y102276D01*
X97202Y103102D01*
X96376Y103655D01*
X95900Y103750D01*
D02*
G37*
G36*
X123100D02*
X122625Y103655D01*
X121798Y103102D01*
X121245Y102276D01*
X121151Y101800D01*
X123100D01*
Y103750D01*
D02*
G37*
G36*
X105300D02*
Y101800D01*
X107249D01*
X107155Y102276D01*
X106602Y103102D01*
X105775Y103655D01*
X105300Y103750D01*
D02*
G37*
G36*
X94900D02*
X94424Y103655D01*
X93598Y103102D01*
X93045Y102276D01*
X92950Y101800D01*
X94900D01*
Y103750D01*
D02*
G37*
G36*
X86500D02*
Y101800D01*
X88450D01*
X88355Y102276D01*
X87802Y103102D01*
X86976Y103655D01*
X86500Y103750D01*
D02*
G37*
G36*
X85500D02*
X85024Y103655D01*
X84198Y103102D01*
X83645Y102276D01*
X83551Y101800D01*
X85500D01*
Y103750D01*
D02*
G37*
G36*
X166400Y112450D02*
Y110500D01*
X168350D01*
X168255Y110976D01*
X167702Y111802D01*
X166876Y112355D01*
X166400Y112450D01*
D02*
G37*
G36*
X137200D02*
X136724Y112355D01*
X135898Y111802D01*
X135345Y110976D01*
X135250Y110500D01*
X137200D01*
Y112450D01*
D02*
G37*
G36*
X110000D02*
Y110500D01*
X111950D01*
X111855Y110976D01*
X111302Y111802D01*
X110476Y112355D01*
X110000Y112450D01*
D02*
G37*
G36*
X165400D02*
X164925Y112355D01*
X164098Y111802D01*
X163545Y110976D01*
X163451Y110500D01*
X165400D01*
Y112450D01*
D02*
G37*
G36*
X138200D02*
Y110500D01*
X140149D01*
X140055Y110976D01*
X139502Y111802D01*
X138675Y112355D01*
X138200Y112450D01*
D02*
G37*
G36*
X94900Y118200D02*
X92950D01*
X93045Y117725D01*
X93598Y116898D01*
X94424Y116345D01*
X94900Y116251D01*
Y118200D01*
D02*
G37*
G36*
X88450D02*
X86500D01*
Y116251D01*
X86976Y116345D01*
X87802Y116898D01*
X88355Y117725D01*
X88450Y118200D01*
D02*
G37*
G36*
X97850D02*
X95900D01*
Y116251D01*
X96376Y116345D01*
X97202Y116898D01*
X97755Y117725D01*
X97850Y118200D01*
D02*
G37*
G36*
X85500D02*
X83551D01*
X83645Y117725D01*
X84198Y116898D01*
X85024Y116345D01*
X85500Y116251D01*
Y118200D01*
D02*
G37*
G36*
X184950Y116800D02*
X183000D01*
Y114850D01*
X183475Y114945D01*
X184302Y115498D01*
X184855Y116324D01*
X184950Y116800D01*
D02*
G37*
G36*
X182000D02*
X180051D01*
X180145Y116324D01*
X180698Y115498D01*
X181525Y114945D01*
X182000Y114850D01*
Y116800D01*
D02*
G37*
G36*
X111950Y109500D02*
X110000D01*
Y107551D01*
X110476Y107645D01*
X111302Y108198D01*
X111855Y109025D01*
X111950Y109500D01*
D02*
G37*
G36*
X109000D02*
X107051D01*
X107145Y109025D01*
X107698Y108198D01*
X108525Y107645D01*
X109000Y107551D01*
Y109500D01*
D02*
G37*
G36*
X140149D02*
X138200D01*
Y107551D01*
X138675Y107645D01*
X139502Y108198D01*
X140055Y109025D01*
X140149Y109500D01*
D02*
G37*
G36*
X137200D02*
X135250D01*
X135345Y109025D01*
X135898Y108198D01*
X136724Y107645D01*
X137200Y107551D01*
Y109500D01*
D02*
G37*
G36*
X102550D02*
X100600D01*
Y107551D01*
X101075Y107645D01*
X101902Y108198D01*
X102455Y109025D01*
X102550Y109500D01*
D02*
G37*
G36*
X90200D02*
X88250D01*
X88345Y109025D01*
X88898Y108198D01*
X89724Y107645D01*
X90200Y107551D01*
Y109500D01*
D02*
G37*
G36*
X99600D02*
X97650D01*
X97745Y109025D01*
X98298Y108198D01*
X99124Y107645D01*
X99600Y107551D01*
Y109500D01*
D02*
G37*
G36*
X93150D02*
X91200D01*
Y107551D01*
X91676Y107645D01*
X92502Y108198D01*
X93055Y109025D01*
X93150Y109500D01*
D02*
G37*
G36*
X99600Y112450D02*
X99124Y112355D01*
X98298Y111802D01*
X97745Y110976D01*
X97650Y110500D01*
X99600D01*
Y112450D01*
D02*
G37*
G36*
X91200D02*
Y110500D01*
X93150D01*
X93055Y110976D01*
X92502Y111802D01*
X91676Y112355D01*
X91200Y112450D01*
D02*
G37*
G36*
X109000D02*
X108525Y112355D01*
X107698Y111802D01*
X107145Y110976D01*
X107051Y110500D01*
X109000D01*
Y112450D01*
D02*
G37*
G36*
X100600D02*
Y110500D01*
X102550D01*
X102455Y110976D01*
X101902Y111802D01*
X101075Y112355D01*
X100600Y112450D01*
D02*
G37*
G36*
X90200D02*
X89724Y112355D01*
X88898Y111802D01*
X88345Y110976D01*
X88250Y110500D01*
X90200D01*
Y112450D01*
D02*
G37*
G36*
X168350Y109500D02*
X166400D01*
Y107551D01*
X166876Y107645D01*
X167702Y108198D01*
X168255Y109025D01*
X168350Y109500D01*
D02*
G37*
G36*
X165400D02*
X163451D01*
X163545Y109025D01*
X164098Y108198D01*
X164925Y107645D01*
X165400Y107551D01*
Y109500D01*
D02*
G37*
G36*
X94900Y13800D02*
X92950D01*
X93045Y13325D01*
X93598Y12498D01*
X94424Y11945D01*
X94900Y11851D01*
Y13800D01*
D02*
G37*
G36*
X88450D02*
X86500D01*
Y11851D01*
X86976Y11945D01*
X87802Y12498D01*
X88355Y13325D01*
X88450Y13800D01*
D02*
G37*
G36*
X104300D02*
X102350D01*
X102445Y13325D01*
X102998Y12498D01*
X103824Y11945D01*
X104300Y11851D01*
Y13800D01*
D02*
G37*
G36*
X97850D02*
X95900D01*
Y11851D01*
X96376Y11945D01*
X97202Y12498D01*
X97755Y13325D01*
X97850Y13800D01*
D02*
G37*
G36*
X85500D02*
X83551D01*
X83645Y13325D01*
X84198Y12498D01*
X85024Y11945D01*
X85500Y11851D01*
Y13800D01*
D02*
G37*
G36*
X140100Y20085D02*
X138283Y19846D01*
X136125Y18951D01*
X134271Y17529D01*
X132849Y15675D01*
X131954Y13517D01*
X131715Y11700D01*
X140100D01*
Y20085D01*
D02*
G37*
G36*
X278500Y13450D02*
X278025Y13355D01*
X277198Y12802D01*
X276645Y11975D01*
X276551Y11500D01*
X278500D01*
Y13450D01*
D02*
G37*
G36*
X262100Y20085D02*
Y11700D01*
X270485D01*
X270246Y13517D01*
X269351Y15675D01*
X267929Y17529D01*
X266075Y18951D01*
X263917Y19846D01*
X262100Y20085D01*
D02*
G37*
G36*
X261100Y20085D02*
X259283Y19846D01*
X257125Y18951D01*
X255271Y17529D01*
X253849Y15675D01*
X252954Y13517D01*
X252715Y11700D01*
X261100D01*
Y20085D01*
D02*
G37*
G36*
X4149Y14500D02*
X2200D01*
Y12551D01*
X2675Y12645D01*
X3502Y13198D01*
X4055Y14025D01*
X4149Y14500D01*
D02*
G37*
G36*
X1200D02*
X-750D01*
X-655Y14025D01*
X-102Y13198D01*
X724Y12645D01*
X1200Y12551D01*
Y14500D01*
D02*
G37*
G36*
X32350D02*
X30400D01*
Y12551D01*
X30876Y12645D01*
X31702Y13198D01*
X32255Y14025D01*
X32350Y14500D01*
D02*
G37*
G36*
X29400D02*
X27450D01*
X27545Y14025D01*
X28098Y13198D01*
X28925Y12645D01*
X29400Y12551D01*
Y14500D01*
D02*
G37*
G36*
X58000Y14449D02*
Y12500D01*
X59949D01*
X59855Y12976D01*
X59302Y13802D01*
X58476Y14355D01*
X58000Y14449D01*
D02*
G37*
G36*
X42000D02*
X41524Y14355D01*
X40698Y13802D01*
X40145Y12976D01*
X40051Y12500D01*
X42000D01*
Y14449D01*
D02*
G37*
G36*
X107249Y13800D02*
X105300D01*
Y11851D01*
X105775Y11945D01*
X106602Y12498D01*
X107155Y13325D01*
X107249Y13800D01*
D02*
G37*
G36*
X57000Y14449D02*
X56524Y14355D01*
X55698Y13802D01*
X55145Y12976D01*
X55050Y12500D01*
X57000D01*
Y14449D01*
D02*
G37*
G36*
X43000D02*
Y12500D01*
X44949D01*
X44855Y12976D01*
X44302Y13802D01*
X43475Y14355D01*
X43000Y14449D01*
D02*
G37*
G36*
X122350Y12100D02*
X120400D01*
Y10150D01*
X120876Y10245D01*
X121702Y10798D01*
X122255Y11625D01*
X122350Y12100D01*
D02*
G37*
G36*
X59949Y11500D02*
X58000D01*
Y9550D01*
X58476Y9645D01*
X59302Y10198D01*
X59855Y11025D01*
X59949Y11500D01*
D02*
G37*
G36*
X57000D02*
X55050D01*
X55145Y11025D01*
X55698Y10198D01*
X56524Y9645D01*
X57000Y9550D01*
Y11500D01*
D02*
G37*
G36*
X160000Y11649D02*
Y9700D01*
X161950D01*
X161855Y10175D01*
X161302Y11002D01*
X160476Y11555D01*
X160000Y11649D01*
D02*
G37*
G36*
X159000D02*
X158525Y11555D01*
X157698Y11002D01*
X157145Y10175D01*
X157051Y9700D01*
X159000D01*
Y11649D01*
D02*
G37*
G36*
X42000Y11500D02*
X40051D01*
X40145Y11025D01*
X40698Y10198D01*
X41524Y9645D01*
X42000Y9550D01*
Y11500D01*
D02*
G37*
G36*
X34100Y8749D02*
X33625Y8655D01*
X32798Y8102D01*
X32245Y7275D01*
X32151Y6800D01*
X34100D01*
Y8749D01*
D02*
G37*
G36*
X25700D02*
Y6800D01*
X27650D01*
X27555Y7275D01*
X27002Y8102D01*
X26175Y8655D01*
X25700Y8749D01*
D02*
G37*
G36*
X278500Y10500D02*
X276551D01*
X276645Y10025D01*
X277198Y9198D01*
X278025Y8645D01*
X278500Y8551D01*
Y10500D01*
D02*
G37*
G36*
X35100Y8749D02*
Y6800D01*
X37049D01*
X36955Y7275D01*
X36402Y8102D01*
X35576Y8655D01*
X35100Y8749D01*
D02*
G37*
G36*
X234200Y11649D02*
X233724Y11555D01*
X232898Y11002D01*
X232345Y10175D01*
X232250Y9700D01*
X234200D01*
Y11649D01*
D02*
G37*
G36*
X216400D02*
Y9700D01*
X218350D01*
X218255Y10175D01*
X217702Y11002D01*
X216876Y11555D01*
X216400Y11649D01*
D02*
G37*
G36*
X119400Y12100D02*
X117450D01*
X117545Y11625D01*
X118098Y10798D01*
X118924Y10245D01*
X119400Y10150D01*
Y12100D01*
D02*
G37*
G36*
X235200Y11649D02*
Y9700D01*
X237150D01*
X237055Y10175D01*
X236502Y11002D01*
X235676Y11555D01*
X235200Y11649D01*
D02*
G37*
G36*
X215400D02*
X214925Y11555D01*
X214098Y11002D01*
X213545Y10175D01*
X213451Y9700D01*
X215400D01*
Y11649D01*
D02*
G37*
G36*
X178800D02*
Y9700D01*
X180749D01*
X180655Y10175D01*
X180102Y11002D01*
X179276Y11555D01*
X178800Y11649D01*
D02*
G37*
G36*
X177800D02*
X177324Y11555D01*
X176498Y11002D01*
X175945Y10175D01*
X175850Y9700D01*
X177800D01*
Y11649D01*
D02*
G37*
G36*
X197600D02*
Y9700D01*
X199549D01*
X199455Y10175D01*
X198902Y11002D01*
X198075Y11555D01*
X197600Y11649D01*
D02*
G37*
G36*
X196600D02*
X196124Y11555D01*
X195298Y11002D01*
X194745Y10175D01*
X194650Y9700D01*
X196600D01*
Y11649D01*
D02*
G37*
G36*
X186200Y19100D02*
X184250D01*
X184345Y18624D01*
X184898Y17798D01*
X185724Y17245D01*
X186200Y17151D01*
Y19100D01*
D02*
G37*
G36*
X170350D02*
X168400D01*
Y17151D01*
X168876Y17245D01*
X169702Y17798D01*
X170255Y18624D01*
X170350Y19100D01*
D02*
G37*
G36*
X205000D02*
X203050D01*
X203145Y18624D01*
X203698Y17798D01*
X204524Y17245D01*
X205000Y17151D01*
Y19100D01*
D02*
G37*
G36*
X189149D02*
X187200D01*
Y17151D01*
X187675Y17245D01*
X188502Y17798D01*
X189055Y18624D01*
X189149Y19100D01*
D02*
G37*
G36*
X167400D02*
X165451D01*
X165545Y18624D01*
X166098Y17798D01*
X166925Y17245D01*
X167400Y17151D01*
Y19100D01*
D02*
G37*
G36*
X132749D02*
X130800D01*
Y17151D01*
X131275Y17245D01*
X132102Y17798D01*
X132655Y18624D01*
X132749Y19100D01*
D02*
G37*
G36*
X129800D02*
X127850D01*
X127945Y18624D01*
X128498Y17798D01*
X129324Y17245D01*
X129800Y17151D01*
Y19100D01*
D02*
G37*
G36*
X151549D02*
X149600D01*
Y17151D01*
X150075Y17245D01*
X150902Y17798D01*
X151455Y18624D01*
X151549Y19100D01*
D02*
G37*
G36*
X141100Y20085D02*
Y11700D01*
X149485D01*
X149246Y13517D01*
X148351Y15675D01*
X147148Y17243D01*
X147065Y17352D01*
X147412Y17721D01*
X147548Y17630D01*
X148125Y17245D01*
X148600Y17151D01*
Y19100D01*
X146651D01*
X146745Y18624D01*
X147103Y18089D01*
X147189Y17959D01*
X146820Y17613D01*
X146706Y17700D01*
X145075Y18951D01*
X142917Y19846D01*
X141100Y20085D01*
D02*
G37*
G36*
X67949Y19500D02*
X66000D01*
Y17550D01*
X66475Y17645D01*
X67302Y18198D01*
X67855Y19025D01*
X67949Y19500D01*
D02*
G37*
G36*
X65000D02*
X63051D01*
X63145Y19025D01*
X63698Y18198D01*
X64525Y17645D01*
X65000Y17550D01*
Y19500D01*
D02*
G37*
G36*
X81450Y20000D02*
X79500D01*
Y18050D01*
X79975Y18145D01*
X80802Y18698D01*
X81355Y19524D01*
X81450Y20000D01*
D02*
G37*
G36*
X78500D02*
X76551D01*
X76645Y19524D01*
X77198Y18698D01*
X78025Y18145D01*
X78500Y18050D01*
Y20000D01*
D02*
G37*
G36*
X245550Y19100D02*
X243600D01*
Y17151D01*
X244075Y17245D01*
X244902Y17798D01*
X245455Y18624D01*
X245550Y19100D01*
D02*
G37*
G36*
X223800D02*
X221850D01*
X221945Y18624D01*
X222498Y17798D01*
X223324Y17245D01*
X223800Y17151D01*
Y19100D01*
D02*
G37*
G36*
X207949D02*
X206000D01*
Y17151D01*
X206475Y17245D01*
X207302Y17798D01*
X207855Y18624D01*
X207949Y19100D01*
D02*
G37*
G36*
X242600D02*
X240651D01*
X240745Y18624D01*
X241298Y17798D01*
X242125Y17245D01*
X242600Y17151D01*
Y19100D01*
D02*
G37*
G36*
X226749D02*
X224800D01*
Y17151D01*
X225275Y17245D01*
X226102Y17798D01*
X226655Y18624D01*
X226749Y19100D01*
D02*
G37*
G36*
X55949Y19000D02*
X54000D01*
Y17051D01*
X54475Y17145D01*
X55302Y17698D01*
X55855Y18525D01*
X55949Y19000D01*
D02*
G37*
G36*
X86500Y16749D02*
Y14800D01*
X88450D01*
X88355Y15276D01*
X87802Y16102D01*
X86976Y16655D01*
X86500Y16749D01*
D02*
G37*
G36*
X85500D02*
X85024Y16655D01*
X84198Y16102D01*
X83645Y15276D01*
X83551Y14800D01*
X85500D01*
Y16749D01*
D02*
G37*
G36*
X95900D02*
Y14800D01*
X97850D01*
X97755Y15276D01*
X97202Y16102D01*
X96376Y16655D01*
X95900Y16749D01*
D02*
G37*
G36*
X94900D02*
X94424Y16655D01*
X93598Y16102D01*
X93045Y15276D01*
X92950Y14800D01*
X94900D01*
Y16749D01*
D02*
G37*
G36*
X31780Y29500D02*
X15000D01*
X-1780D01*
X-1506Y26717D01*
X-548Y23560D01*
X1007Y20650D01*
X3100Y18100D01*
X5650Y16007D01*
X8212Y14638D01*
Y14209D01*
X8529Y13444D01*
X9295Y13127D01*
X14700D01*
Y20115D01*
X15700D01*
Y13127D01*
X21105D01*
X21871Y13444D01*
X22188Y14209D01*
Y14852D01*
X24350Y16007D01*
X26900Y18100D01*
X28993Y20650D01*
X30548Y23560D01*
X31506Y26717D01*
X31780Y29500D01*
D02*
G37*
G36*
X72500Y14950D02*
Y13000D01*
X74449D01*
X74355Y13476D01*
X73802Y14302D01*
X72975Y14855D01*
X72500Y14950D01*
D02*
G37*
G36*
X71500D02*
X71025Y14855D01*
X70198Y14302D01*
X69645Y13476D01*
X69551Y13000D01*
X71500D01*
Y14950D01*
D02*
G37*
G36*
X120400Y15049D02*
Y13100D01*
X122350D01*
X122255Y13576D01*
X121702Y14402D01*
X120876Y14955D01*
X120400Y15049D01*
D02*
G37*
G36*
X119400D02*
X118924Y14955D01*
X118098Y14402D01*
X117545Y13576D01*
X117450Y13100D01*
X119400D01*
Y15049D01*
D02*
G37*
G36*
X43600Y19000D02*
X41651D01*
X41745Y18525D01*
X42298Y17698D01*
X43124Y17145D01*
X43600Y17051D01*
Y19000D01*
D02*
G37*
G36*
X30400Y17449D02*
Y15500D01*
X32350D01*
X32255Y15976D01*
X31702Y16802D01*
X30876Y17355D01*
X30400Y17449D01*
D02*
G37*
G36*
X53000Y19000D02*
X51051D01*
X51145Y18525D01*
X51698Y17698D01*
X52525Y17145D01*
X53000Y17051D01*
Y19000D01*
D02*
G37*
G36*
X46549D02*
X44600D01*
Y17051D01*
X45076Y17145D01*
X45902Y17698D01*
X46455Y18525D01*
X46549Y19000D01*
D02*
G37*
G36*
X29400Y17449D02*
X28925Y17355D01*
X28098Y16802D01*
X27545Y15976D01*
X27450Y15500D01*
X29400D01*
Y17449D01*
D02*
G37*
G36*
X105300Y16749D02*
Y14800D01*
X107249D01*
X107155Y15276D01*
X106602Y16102D01*
X105775Y16655D01*
X105300Y16749D01*
D02*
G37*
G36*
X104300D02*
X103824Y16655D01*
X102998Y16102D01*
X102445Y15276D01*
X102350Y14800D01*
X104300D01*
Y16749D01*
D02*
G37*
G36*
X2200Y17449D02*
Y15500D01*
X4149D01*
X4055Y15976D01*
X3502Y16802D01*
X2675Y17355D01*
X2200Y17449D01*
D02*
G37*
G36*
X1200D02*
X724Y17355D01*
X-102Y16802D01*
X-655Y15976D01*
X-750Y15500D01*
X1200D01*
Y17449D01*
D02*
G37*
G36*
X24700Y8749D02*
X24225Y8655D01*
X23398Y8102D01*
X22845Y7275D01*
X22750Y6800D01*
X24700D01*
Y8749D01*
D02*
G37*
G36*
X226800Y1249D02*
Y-700D01*
X228749D01*
X228655Y-225D01*
X228102Y602D01*
X227275Y1155D01*
X226800Y1249D01*
D02*
G37*
G36*
X225800D02*
X225325Y1155D01*
X224498Y602D01*
X223945Y-225D01*
X223850Y-700D01*
X225800D01*
Y1249D01*
D02*
G37*
G36*
X245600D02*
Y-700D01*
X247550D01*
X247455Y-225D01*
X246902Y602D01*
X246076Y1155D01*
X245600Y1249D01*
D02*
G37*
G36*
X244600D02*
X244125Y1155D01*
X243298Y602D01*
X242745Y-225D01*
X242651Y-700D01*
X244600D01*
Y1249D01*
D02*
G37*
G36*
X208000D02*
Y-700D01*
X209949D01*
X209855Y-225D01*
X209302Y602D01*
X208475Y1155D01*
X208000Y1249D01*
D02*
G37*
G36*
X188200D02*
X187724Y1155D01*
X186898Y602D01*
X186345Y-225D01*
X186250Y-700D01*
X188200D01*
Y1249D01*
D02*
G37*
G36*
X170400D02*
Y-700D01*
X172350D01*
X172255Y-225D01*
X171702Y602D01*
X170876Y1155D01*
X170400Y1249D01*
D02*
G37*
G36*
X207000D02*
X206524Y1155D01*
X205698Y602D01*
X205145Y-225D01*
X205050Y-700D01*
X207000D01*
Y1249D01*
D02*
G37*
G36*
X189200D02*
Y-700D01*
X191149D01*
X191055Y-225D01*
X190502Y602D01*
X189675Y1155D01*
X189200Y1249D01*
D02*
G37*
G36*
X129800Y4650D02*
X129324Y4555D01*
X128498Y4002D01*
X127945Y3176D01*
X127850Y2700D01*
X129800D01*
Y4650D01*
D02*
G37*
G36*
X261100Y10700D02*
X252715D01*
X252954Y8883D01*
X253849Y6725D01*
X255271Y4871D01*
X257125Y3449D01*
X259283Y2554D01*
X261100Y2315D01*
Y10700D01*
D02*
G37*
G36*
X80800Y5100D02*
X78851D01*
X78945Y4625D01*
X79498Y3798D01*
X80325Y3245D01*
X80800Y3150D01*
Y5100D01*
D02*
G37*
G36*
X130800Y4650D02*
Y2700D01*
X132749D01*
X132655Y3176D01*
X132102Y4002D01*
X131275Y4555D01*
X130800Y4650D01*
D02*
G37*
G36*
X140100Y10700D02*
X131715D01*
X131954Y8883D01*
X132849Y6725D01*
X134271Y4871D01*
X136125Y3449D01*
X138283Y2554D01*
X140100Y2315D01*
Y10700D01*
D02*
G37*
G36*
X132749Y1700D02*
X130800D01*
Y-249D01*
X131275Y-155D01*
X132102Y398D01*
X132655Y1225D01*
X132749Y1700D01*
D02*
G37*
G36*
X129800D02*
X127850D01*
X127945Y1225D01*
X128498Y398D01*
X129324Y-155D01*
X129800Y-249D01*
Y1700D01*
D02*
G37*
G36*
X270485Y10700D02*
X262100D01*
Y2315D01*
X263917Y2554D01*
X266075Y3449D01*
X267929Y4871D01*
X269351Y6725D01*
X270246Y8883D01*
X270485Y10700D01*
D02*
G37*
G36*
X149485D02*
X141100D01*
Y2315D01*
X142917Y2554D01*
X145075Y3449D01*
X146929Y4871D01*
X148351Y6725D01*
X149246Y8883D01*
X149485Y10700D01*
D02*
G37*
G36*
X169400Y1249D02*
X168924Y1155D01*
X168098Y602D01*
X167545Y-225D01*
X167450Y-700D01*
X169400D01*
Y1249D01*
D02*
G37*
G36*
X207000Y-1700D02*
X205050D01*
X205145Y-2176D01*
X205698Y-3002D01*
X206524Y-3555D01*
X207000Y-3650D01*
Y-1700D01*
D02*
G37*
G36*
X191149D02*
X189200D01*
Y-3650D01*
X189675Y-3555D01*
X190502Y-3002D01*
X191055Y-2176D01*
X191149Y-1700D01*
D02*
G37*
G36*
X225800D02*
X223850D01*
X223945Y-2176D01*
X224498Y-3002D01*
X225325Y-3555D01*
X225800Y-3650D01*
Y-1700D01*
D02*
G37*
G36*
X209949D02*
X208000D01*
Y-3650D01*
X208475Y-3555D01*
X209302Y-3002D01*
X209855Y-2176D01*
X209949Y-1700D01*
D02*
G37*
G36*
X188200D02*
X186250D01*
X186345Y-2176D01*
X186898Y-3002D01*
X187724Y-3555D01*
X188200Y-3650D01*
Y-1700D01*
D02*
G37*
G36*
X153550D02*
X151600D01*
Y-3650D01*
X152076Y-3555D01*
X152902Y-3002D01*
X153455Y-2176D01*
X153550Y-1700D01*
D02*
G37*
G36*
X150600D02*
X148651D01*
X148745Y-2176D01*
X149298Y-3002D01*
X150125Y-3555D01*
X150600Y-3650D01*
Y-1700D01*
D02*
G37*
G36*
X172350D02*
X170400D01*
Y-3650D01*
X170876Y-3555D01*
X171702Y-3002D01*
X172255Y-2176D01*
X172350Y-1700D01*
D02*
G37*
G36*
X169400D02*
X167450D01*
X167545Y-2176D01*
X168098Y-3002D01*
X168924Y-3555D01*
X169400Y-3650D01*
Y-1700D01*
D02*
G37*
G36*
X47857Y4000D02*
X41458D01*
X41630Y2697D01*
X42325Y1017D01*
X43432Y-425D01*
X44875Y-1532D01*
X46555Y-2228D01*
X47857Y-2399D01*
Y4000D01*
D02*
G37*
G36*
X55257D02*
X48858D01*
Y-2399D01*
X50160Y-2228D01*
X51840Y-1532D01*
X53283Y-425D01*
X54389Y1017D01*
X55085Y2697D01*
X55257Y4000D01*
D02*
G37*
G36*
X151600Y1249D02*
Y-700D01*
X153550D01*
X153455Y-225D01*
X152902Y602D01*
X152076Y1155D01*
X151600Y1249D01*
D02*
G37*
G36*
X150600D02*
X150125Y1155D01*
X149298Y602D01*
X148745Y-225D01*
X148651Y-700D01*
X150600D01*
Y1249D01*
D02*
G37*
G36*
X75030Y4000D02*
X68542D01*
Y-2488D01*
X73948D01*
X74713Y-2171D01*
X75030Y-1405D01*
Y4000D01*
D02*
G37*
G36*
X244600Y-1700D02*
X242651D01*
X242745Y-2176D01*
X243298Y-3002D01*
X244125Y-3555D01*
X244600Y-3650D01*
Y-1700D01*
D02*
G37*
G36*
X228749D02*
X226800D01*
Y-3650D01*
X227275Y-3555D01*
X228102Y-3002D01*
X228655Y-2176D01*
X228749Y-1700D01*
D02*
G37*
G36*
X67542Y4000D02*
X61055D01*
Y-1405D01*
X61372Y-2171D01*
X62137Y-2488D01*
X67542D01*
Y4000D01*
D02*
G37*
G36*
X247550Y-1700D02*
X245600D01*
Y-3650D01*
X246076Y-3555D01*
X246902Y-3002D01*
X247455Y-2176D01*
X247550Y-1700D01*
D02*
G37*
G36*
X159000Y8700D02*
X157051D01*
X157145Y8225D01*
X157698Y7398D01*
X158525Y6845D01*
X159000Y6751D01*
Y8700D01*
D02*
G37*
G36*
X110000Y8049D02*
Y6100D01*
X111950D01*
X111855Y6575D01*
X111302Y7402D01*
X110476Y7955D01*
X110000Y8049D01*
D02*
G37*
G36*
X177800Y8700D02*
X175850D01*
X175945Y8225D01*
X176498Y7398D01*
X177324Y6845D01*
X177800Y6751D01*
Y8700D01*
D02*
G37*
G36*
X161950D02*
X160000D01*
Y6751D01*
X160476Y6845D01*
X161302Y7398D01*
X161855Y8225D01*
X161950Y8700D01*
D02*
G37*
G36*
X109000Y8049D02*
X108525Y7955D01*
X107698Y7402D01*
X107145Y6575D01*
X107051Y6100D01*
X109000D01*
Y8049D01*
D02*
G37*
G36*
X91200D02*
Y6100D01*
X93150D01*
X93055Y6575D01*
X92502Y7402D01*
X91676Y7955D01*
X91200Y8049D01*
D02*
G37*
G36*
X90200D02*
X89724Y7955D01*
X88898Y7402D01*
X88345Y6575D01*
X88250Y6100D01*
X90200D01*
Y8049D01*
D02*
G37*
G36*
X100600D02*
Y6100D01*
X102550D01*
X102455Y6575D01*
X101902Y7402D01*
X101075Y7955D01*
X100600Y8049D01*
D02*
G37*
G36*
X99600D02*
X99124Y7955D01*
X98298Y7402D01*
X97745Y6575D01*
X97650Y6100D01*
X99600D01*
Y8049D01*
D02*
G37*
G36*
X237150Y8700D02*
X235200D01*
Y6751D01*
X235676Y6845D01*
X236502Y7398D01*
X237055Y8225D01*
X237150Y8700D01*
D02*
G37*
G36*
X234200D02*
X232250D01*
X232345Y8225D01*
X232898Y7398D01*
X233724Y6845D01*
X234200Y6751D01*
Y8700D01*
D02*
G37*
G36*
X16300Y8749D02*
Y6800D01*
X18249D01*
X18155Y7275D01*
X17602Y8102D01*
X16775Y8655D01*
X16300Y8749D01*
D02*
G37*
G36*
X15300D02*
X14825Y8655D01*
X13998Y8102D01*
X13445Y7275D01*
X13351Y6800D01*
X15300D01*
Y8749D01*
D02*
G37*
G36*
X218350Y8700D02*
X216400D01*
Y6751D01*
X216876Y6845D01*
X217702Y7398D01*
X218255Y8225D01*
X218350Y8700D01*
D02*
G37*
G36*
X196600D02*
X194650D01*
X194745Y8225D01*
X195298Y7398D01*
X196124Y6845D01*
X196600Y6751D01*
Y8700D01*
D02*
G37*
G36*
X180749D02*
X178800D01*
Y6751D01*
X179276Y6845D01*
X180102Y7398D01*
X180655Y8225D01*
X180749Y8700D01*
D02*
G37*
G36*
X215400D02*
X213451D01*
X213545Y8225D01*
X214098Y7398D01*
X214925Y6845D01*
X215400Y6751D01*
Y8700D01*
D02*
G37*
G36*
X199549D02*
X197600D01*
Y6751D01*
X198075Y6845D01*
X198902Y7398D01*
X199455Y8225D01*
X199549Y8700D01*
D02*
G37*
G36*
X81800Y8049D02*
Y6100D01*
X83750D01*
X83655Y6575D01*
X83102Y7402D01*
X82275Y7955D01*
X81800Y8049D01*
D02*
G37*
G36*
X111950Y5100D02*
X110000D01*
Y3150D01*
X110476Y3245D01*
X111302Y3798D01*
X111855Y4625D01*
X111950Y5100D01*
D02*
G37*
G36*
X109000D02*
X107051D01*
X107145Y4625D01*
X107698Y3798D01*
X108525Y3245D01*
X109000Y3150D01*
Y5100D01*
D02*
G37*
G36*
X18249Y5800D02*
X16300D01*
Y3850D01*
X16775Y3945D01*
X17602Y4498D01*
X18155Y5325D01*
X18249Y5800D01*
D02*
G37*
G36*
X15300D02*
X13351D01*
X13445Y5325D01*
X13998Y4498D01*
X14825Y3945D01*
X15300Y3850D01*
Y5800D01*
D02*
G37*
G36*
X102550Y5100D02*
X100600D01*
Y3150D01*
X101075Y3245D01*
X101902Y3798D01*
X102455Y4625D01*
X102550Y5100D01*
D02*
G37*
G36*
X90200D02*
X88250D01*
X88345Y4625D01*
X88898Y3798D01*
X89724Y3245D01*
X90200Y3150D01*
Y5100D01*
D02*
G37*
G36*
X83750D02*
X81800D01*
Y3150D01*
X82275Y3245D01*
X83102Y3798D01*
X83655Y4625D01*
X83750Y5100D01*
D02*
G37*
G36*
X99600D02*
X97650D01*
X97745Y4625D01*
X98298Y3798D01*
X99124Y3245D01*
X99600Y3150D01*
Y5100D01*
D02*
G37*
G36*
X93150D02*
X91200D01*
Y3150D01*
X91676Y3245D01*
X92502Y3798D01*
X93055Y4625D01*
X93150Y5100D01*
D02*
G37*
G36*
X48858Y11399D02*
Y5000D01*
X55257D01*
X55085Y6303D01*
X54389Y7983D01*
X53283Y9425D01*
X51840Y10532D01*
X50160Y11228D01*
X48858Y11399D01*
D02*
G37*
G36*
X44949Y11500D02*
X43000D01*
Y9334D01*
X43162Y9073D01*
X42325Y7983D01*
X41630Y6303D01*
X41458Y5000D01*
X47857D01*
Y11399D01*
X46555Y11228D01*
X45224Y10676D01*
X44976Y10910D01*
X44864Y11068D01*
X44949Y11500D01*
D02*
G37*
G36*
X80800Y8049D02*
X80325Y7955D01*
X79498Y7402D01*
X78945Y6575D01*
X78851Y6100D01*
X80800D01*
Y8049D01*
D02*
G37*
G36*
X74449Y12000D02*
X69551D01*
X69553Y11988D01*
X69143Y11488D01*
X68542D01*
Y5000D01*
X75030D01*
Y10406D01*
X74713Y11171D01*
X74426Y11290D01*
X74355Y11525D01*
X74449Y12000D01*
D02*
G37*
G36*
X67542Y11488D02*
X62137D01*
X61372Y11171D01*
X61055Y10406D01*
Y5000D01*
X67542D01*
Y11488D01*
D02*
G37*
G36*
X27650Y5800D02*
X25700D01*
Y3850D01*
X26175Y3945D01*
X27002Y4498D01*
X27555Y5325D01*
X27650Y5800D01*
D02*
G37*
G36*
X24700D02*
X22750D01*
X22845Y5325D01*
X23398Y4498D01*
X24225Y3945D01*
X24700Y3850D01*
Y5800D01*
D02*
G37*
G36*
X37049D02*
X35100D01*
Y3850D01*
X35576Y3945D01*
X36402Y4498D01*
X36955Y5325D01*
X37049Y5800D01*
D02*
G37*
G36*
X34100D02*
X32151D01*
X32245Y5325D01*
X32798Y4498D01*
X33625Y3945D01*
X34100Y3850D01*
Y5800D01*
D02*
G37*
G36*
X94900Y48600D02*
X92950D01*
X93045Y48125D01*
X93598Y47298D01*
X94424Y46745D01*
X94900Y46650D01*
Y48600D01*
D02*
G37*
G36*
X104300D02*
X102350D01*
X102445Y48125D01*
X102998Y47298D01*
X103824Y46745D01*
X104300Y46650D01*
Y48600D01*
D02*
G37*
G36*
X97850D02*
X95900D01*
Y46650D01*
X96376Y46745D01*
X97202Y47298D01*
X97755Y48125D01*
X97850Y48600D01*
D02*
G37*
G36*
X107249D02*
X105300D01*
Y46650D01*
X105775Y46745D01*
X106602Y47298D01*
X107155Y48125D01*
X107249Y48600D01*
D02*
G37*
G36*
X91200Y42849D02*
Y40900D01*
X93150D01*
X93055Y41375D01*
X92502Y42202D01*
X91676Y42755D01*
X91200Y42849D01*
D02*
G37*
G36*
X90200D02*
X89724Y42755D01*
X88898Y42202D01*
X88345Y41375D01*
X88250Y40900D01*
X90200D01*
Y42849D01*
D02*
G37*
G36*
X100600D02*
Y40900D01*
X102550D01*
X102455Y41375D01*
X101902Y42202D01*
X101075Y42755D01*
X100600Y42849D01*
D02*
G37*
G36*
X99600D02*
X99124Y42755D01*
X98298Y42202D01*
X97745Y41375D01*
X97650Y40900D01*
X99600D01*
Y42849D01*
D02*
G37*
G36*
X110000D02*
Y40900D01*
X111950D01*
X111855Y41375D01*
X111302Y42202D01*
X110476Y42755D01*
X110000Y42849D01*
D02*
G37*
G36*
X109000D02*
X108525Y42755D01*
X107698Y42202D01*
X107145Y41375D01*
X107051Y40900D01*
X109000D01*
Y42849D01*
D02*
G37*
G36*
Y60250D02*
X108525Y60155D01*
X107698Y59602D01*
X107145Y58776D01*
X107051Y58300D01*
X109000D01*
Y60250D01*
D02*
G37*
G36*
X100600D02*
Y58300D01*
X102550D01*
X102455Y58776D01*
X101902Y59602D01*
X101075Y60155D01*
X100600Y60250D01*
D02*
G37*
G36*
X110000D02*
Y58300D01*
X111950D01*
X111855Y58776D01*
X111302Y59602D01*
X110476Y60155D01*
X110000Y60250D01*
D02*
G37*
G36*
X99600D02*
X99124Y60155D01*
X98298Y59602D01*
X97745Y58776D01*
X97650Y58300D01*
X99600D01*
Y60250D01*
D02*
G37*
G36*
X91200D02*
Y58300D01*
X93150D01*
X93055Y58776D01*
X92502Y59602D01*
X91676Y60155D01*
X91200Y60250D01*
D02*
G37*
G36*
X90200D02*
X89724Y60155D01*
X88898Y59602D01*
X88345Y58776D01*
X88250Y58300D01*
X90200D01*
Y60250D01*
D02*
G37*
G36*
X104300Y51550D02*
X103824Y51455D01*
X102998Y50902D01*
X102445Y50076D01*
X102350Y49600D01*
X104300D01*
Y51550D01*
D02*
G37*
G36*
X95900D02*
Y49600D01*
X97850D01*
X97755Y50076D01*
X97202Y50902D01*
X96376Y51455D01*
X95900Y51550D01*
D02*
G37*
G36*
X105300D02*
Y49600D01*
X107249D01*
X107155Y50076D01*
X106602Y50902D01*
X105775Y51455D01*
X105300Y51550D01*
D02*
G37*
G36*
X94900D02*
X94424Y51455D01*
X93598Y50902D01*
X93045Y50076D01*
X92950Y49600D01*
X94900D01*
Y51550D01*
D02*
G37*
G36*
X102550Y57300D02*
X100600D01*
Y55351D01*
X101075Y55445D01*
X101902Y55998D01*
X102455Y56824D01*
X102550Y57300D01*
D02*
G37*
G36*
X99600D02*
X97650D01*
X97745Y56824D01*
X98298Y55998D01*
X99124Y55445D01*
X99600Y55351D01*
Y57300D01*
D02*
G37*
G36*
X111950D02*
X110000D01*
Y55351D01*
X110476Y55445D01*
X111302Y55998D01*
X111855Y56824D01*
X111950Y57300D01*
D02*
G37*
G36*
X109000D02*
X107051D01*
X107145Y56824D01*
X107698Y55998D01*
X108525Y55445D01*
X109000Y55351D01*
Y57300D01*
D02*
G37*
G36*
X93150D02*
X91200D01*
Y55351D01*
X91676Y55445D01*
X92502Y55998D01*
X93055Y56824D01*
X93150Y57300D01*
D02*
G37*
G36*
X90200D02*
X88250D01*
X88345Y56824D01*
X88898Y55998D01*
X89724Y55445D01*
X90200Y55351D01*
Y57300D01*
D02*
G37*
G36*
X111950Y22500D02*
X110000D01*
Y20550D01*
X110476Y20645D01*
X111302Y21198D01*
X111855Y22025D01*
X111950Y22500D01*
D02*
G37*
G36*
X109000D02*
X107051D01*
X107145Y22025D01*
X107698Y21198D01*
X108525Y20645D01*
X109000Y20550D01*
Y22500D01*
D02*
G37*
G36*
X79500Y22950D02*
Y21000D01*
X81450D01*
X81355Y21475D01*
X80802Y22302D01*
X79975Y22855D01*
X79500Y22950D01*
D02*
G37*
G36*
X78500D02*
X78025Y22855D01*
X77198Y22302D01*
X76645Y21475D01*
X76551Y21000D01*
X78500D01*
Y22950D01*
D02*
G37*
G36*
X102550Y22500D02*
X100600D01*
Y20550D01*
X101075Y20645D01*
X101902Y21198D01*
X102455Y22025D01*
X102550Y22500D01*
D02*
G37*
G36*
X90200D02*
X88250D01*
X88345Y22025D01*
X88898Y21198D01*
X89724Y20645D01*
X90200Y20550D01*
Y22500D01*
D02*
G37*
G36*
X66000Y22449D02*
Y20500D01*
X67949D01*
X67855Y20976D01*
X67302Y21802D01*
X66475Y22355D01*
X66000Y22449D01*
D02*
G37*
G36*
X99600Y22500D02*
X97650D01*
X97745Y22025D01*
X98298Y21198D01*
X99124Y20645D01*
X99600Y20550D01*
Y22500D01*
D02*
G37*
G36*
X93150D02*
X91200D01*
Y20550D01*
X91676Y20645D01*
X92502Y21198D01*
X93055Y22025D01*
X93150Y22500D01*
D02*
G37*
G36*
X109000Y25449D02*
X108525Y25355D01*
X107698Y24802D01*
X107145Y23976D01*
X107051Y23500D01*
X109000D01*
Y25449D01*
D02*
G37*
G36*
X100600D02*
Y23500D01*
X102550D01*
X102455Y23976D01*
X101902Y24802D01*
X101075Y25355D01*
X100600Y25449D01*
D02*
G37*
G36*
X34100Y26149D02*
X33625Y26055D01*
X32798Y25502D01*
X32245Y24676D01*
X32151Y24200D01*
X34100D01*
Y26149D01*
D02*
G37*
G36*
X110000Y25449D02*
Y23500D01*
X111950D01*
X111855Y23976D01*
X111302Y24802D01*
X110476Y25355D01*
X110000Y25449D01*
D02*
G37*
G36*
X99600D02*
X99124Y25355D01*
X98298Y24802D01*
X97745Y23976D01*
X97650Y23500D01*
X99600D01*
Y25449D01*
D02*
G37*
G36*
X37049Y23200D02*
X35100D01*
Y21250D01*
X35576Y21345D01*
X36402Y21898D01*
X36955Y22725D01*
X37049Y23200D01*
D02*
G37*
G36*
X34100D02*
X32151D01*
X32245Y22725D01*
X32798Y21898D01*
X33625Y21345D01*
X34100Y21250D01*
Y23200D01*
D02*
G37*
G36*
X91200Y25449D02*
Y23500D01*
X93150D01*
X93055Y23976D01*
X92502Y24802D01*
X91676Y25355D01*
X91200Y25449D01*
D02*
G37*
G36*
X90200D02*
X89724Y25355D01*
X88898Y24802D01*
X88345Y23976D01*
X88250Y23500D01*
X90200D01*
Y25449D01*
D02*
G37*
G36*
X65000Y22449D02*
X64525Y22355D01*
X63698Y21802D01*
X63145Y20976D01*
X63051Y20500D01*
X65000D01*
Y22449D01*
D02*
G37*
G36*
X148600Y22050D02*
X148125Y21955D01*
X147298Y21402D01*
X146745Y20575D01*
X146651Y20100D01*
X148600D01*
Y22050D01*
D02*
G37*
G36*
X130800D02*
Y20100D01*
X132749D01*
X132655Y20575D01*
X132102Y21402D01*
X131275Y21955D01*
X130800Y22050D01*
D02*
G37*
G36*
X167400D02*
X166925Y21955D01*
X166098Y21402D01*
X165545Y20575D01*
X165451Y20100D01*
X167400D01*
Y22050D01*
D02*
G37*
G36*
X149600D02*
Y20100D01*
X151549D01*
X151455Y20575D01*
X150902Y21402D01*
X150075Y21955D01*
X149600Y22050D01*
D02*
G37*
G36*
X129800D02*
X129324Y21955D01*
X128498Y21402D01*
X127945Y20575D01*
X127850Y20100D01*
X129800D01*
Y22050D01*
D02*
G37*
G36*
X44600Y21949D02*
Y20000D01*
X46549D01*
X46455Y20475D01*
X45902Y21302D01*
X45076Y21855D01*
X44600Y21949D01*
D02*
G37*
G36*
X43600D02*
X43124Y21855D01*
X42298Y21302D01*
X41745Y20475D01*
X41651Y20000D01*
X43600D01*
Y21949D01*
D02*
G37*
G36*
X54000D02*
Y20000D01*
X55949D01*
X55855Y20475D01*
X55302Y21302D01*
X54475Y21855D01*
X54000Y21949D01*
D02*
G37*
G36*
X53000D02*
X52525Y21855D01*
X51698Y21302D01*
X51145Y20475D01*
X51051Y20000D01*
X53000D01*
Y21949D01*
D02*
G37*
G36*
X224800Y22050D02*
Y20100D01*
X226749D01*
X226655Y20575D01*
X226102Y21402D01*
X225275Y21955D01*
X224800Y22050D01*
D02*
G37*
G36*
X223800D02*
X223324Y21955D01*
X222498Y21402D01*
X221945Y20575D01*
X221850Y20100D01*
X223800D01*
Y22050D01*
D02*
G37*
G36*
X243600D02*
Y20100D01*
X245550D01*
X245455Y20575D01*
X244902Y21402D01*
X244075Y21955D01*
X243600Y22050D01*
D02*
G37*
G36*
X242600D02*
X242125Y21955D01*
X241298Y21402D01*
X240745Y20575D01*
X240651Y20100D01*
X242600D01*
Y22050D01*
D02*
G37*
G36*
X206000D02*
Y20100D01*
X207949D01*
X207855Y20575D01*
X207302Y21402D01*
X206475Y21955D01*
X206000Y22050D01*
D02*
G37*
G36*
X186200D02*
X185724Y21955D01*
X184898Y21402D01*
X184345Y20575D01*
X184250Y20100D01*
X186200D01*
Y22050D01*
D02*
G37*
G36*
X168400D02*
Y20100D01*
X170350D01*
X170255Y20575D01*
X169702Y21402D01*
X168876Y21955D01*
X168400Y22050D01*
D02*
G37*
G36*
X205000D02*
X204524Y21955D01*
X203698Y21402D01*
X203145Y20575D01*
X203050Y20100D01*
X205000D01*
Y22050D01*
D02*
G37*
G36*
X187200D02*
Y20100D01*
X189149D01*
X189055Y20575D01*
X188502Y21402D01*
X187675Y21955D01*
X187200Y22050D01*
D02*
G37*
G36*
X90200Y39900D02*
X88250D01*
X88345Y39424D01*
X88898Y38598D01*
X89724Y38045D01*
X90200Y37951D01*
Y39900D01*
D02*
G37*
G36*
X111950D02*
X110000D01*
Y37951D01*
X110476Y38045D01*
X111302Y38598D01*
X111855Y39424D01*
X111950Y39900D01*
D02*
G37*
G36*
X99600D02*
X97650D01*
X97745Y39424D01*
X98298Y38598D01*
X99124Y38045D01*
X99600Y37951D01*
Y39900D01*
D02*
G37*
G36*
X93150D02*
X91200D01*
Y37951D01*
X91676Y38045D01*
X92502Y38598D01*
X93055Y39424D01*
X93150Y39900D01*
D02*
G37*
G36*
X109000D02*
X107051D01*
X107145Y39424D01*
X107698Y38598D01*
X108525Y38045D01*
X109000Y37951D01*
Y39900D01*
D02*
G37*
G36*
X102550D02*
X100600D01*
Y37951D01*
X101075Y38045D01*
X101902Y38598D01*
X102455Y39424D01*
X102550Y39900D01*
D02*
G37*
G36*
X107249Y31200D02*
X105300D01*
Y29250D01*
X105775Y29345D01*
X106602Y29898D01*
X107155Y30724D01*
X107249Y31200D01*
D02*
G37*
G36*
X104300D02*
X102350D01*
X102445Y30724D01*
X102998Y29898D01*
X103824Y29345D01*
X104300Y29250D01*
Y31200D01*
D02*
G37*
G36*
X15500Y46780D02*
Y30500D01*
X31780D01*
X31506Y33283D01*
X30548Y36440D01*
X28993Y39350D01*
X26900Y41900D01*
X24350Y43993D01*
X21440Y45548D01*
X18283Y46506D01*
X15500Y46780D01*
D02*
G37*
G36*
X14500Y46780D02*
X11717Y46506D01*
X8560Y45548D01*
X5650Y43993D01*
X3100Y41900D01*
X1007Y39350D01*
X-548Y36440D01*
X-1506Y33283D01*
X-1780Y30500D01*
X14500D01*
Y46780D01*
D02*
G37*
G36*
X97850Y31200D02*
X95900D01*
Y29250D01*
X96376Y29345D01*
X97202Y29898D01*
X97755Y30724D01*
X97850Y31200D01*
D02*
G37*
G36*
X85500D02*
X83551D01*
X83645Y30724D01*
X84198Y29898D01*
X85024Y29345D01*
X85500Y29250D01*
Y31200D01*
D02*
G37*
G36*
X35100Y26149D02*
Y24200D01*
X37049D01*
X36955Y24676D01*
X36402Y25502D01*
X35576Y26055D01*
X35100Y26149D01*
D02*
G37*
G36*
X94900Y31200D02*
X92950D01*
X93045Y30724D01*
X93598Y29898D01*
X94424Y29345D01*
X94900Y29250D01*
Y31200D01*
D02*
G37*
G36*
X88450D02*
X86500D01*
Y29250D01*
X86976Y29345D01*
X87802Y29898D01*
X88355Y30724D01*
X88450Y31200D01*
D02*
G37*
G36*
X105300Y34150D02*
Y32200D01*
X107249D01*
X107155Y32675D01*
X106602Y33502D01*
X105775Y34055D01*
X105300Y34150D01*
D02*
G37*
G36*
X104300D02*
X103824Y34055D01*
X102998Y33502D01*
X102445Y32675D01*
X102350Y32200D01*
X104300D01*
Y34150D01*
D02*
G37*
G36*
X86500D02*
Y32200D01*
X88450D01*
X88355Y32675D01*
X87802Y33502D01*
X86976Y34055D01*
X86500Y34150D01*
D02*
G37*
G36*
X85500D02*
X85024Y34055D01*
X84198Y33502D01*
X83645Y32675D01*
X83551Y32200D01*
X85500D01*
Y34150D01*
D02*
G37*
G36*
X95900D02*
Y32200D01*
X97850D01*
X97755Y32675D01*
X97202Y33502D01*
X96376Y34055D01*
X95900Y34150D01*
D02*
G37*
G36*
X94900D02*
X94424Y34055D01*
X93598Y33502D01*
X93045Y32675D01*
X92950Y32200D01*
X94900D01*
Y34150D01*
D02*
G37*
G36*
X184950Y203800D02*
X183000D01*
Y201851D01*
X183475Y201945D01*
X184302Y202498D01*
X184855Y203325D01*
X184950Y203800D01*
D02*
G37*
G36*
X182000Y329850D02*
X181525Y329755D01*
X180698Y329202D01*
X180145Y328376D01*
X180051Y327900D01*
X182000D01*
Y329850D01*
D02*
G37*
G36*
X157000Y329900D02*
X155051D01*
X155145Y329425D01*
X155698Y328598D01*
X156525Y328045D01*
X157000Y327951D01*
Y329900D01*
D02*
G37*
G36*
X183000Y329850D02*
Y327900D01*
X184950D01*
X184855Y328376D01*
X184302Y329202D01*
X183475Y329755D01*
X183000Y329850D01*
D02*
G37*
G36*
X261100Y331885D02*
X259283Y331646D01*
X257125Y330751D01*
X255271Y329329D01*
X253849Y327475D01*
X253173Y325843D01*
X252610Y325792D01*
X252202Y326402D01*
X251376Y326955D01*
X250900Y327049D01*
Y324600D01*
Y322150D01*
X251376Y322245D01*
X252174Y322779D01*
X252348Y322751D01*
X252697Y322638D01*
X252954Y320683D01*
X253849Y318525D01*
X255271Y316671D01*
X257125Y315249D01*
X259283Y314354D01*
X261100Y314115D01*
Y323000D01*
Y331885D01*
D02*
G37*
G36*
X249900Y327049D02*
X249425Y326955D01*
X248598Y326402D01*
X248045Y325575D01*
X247951Y325100D01*
X249900D01*
Y327049D01*
D02*
G37*
G36*
X159950Y329900D02*
X158000D01*
Y327951D01*
X158475Y328045D01*
X159302Y328598D01*
X159855Y329425D01*
X159950Y329900D01*
D02*
G37*
G36*
X228400Y327049D02*
Y325100D01*
X230349D01*
X230255Y325575D01*
X229702Y326402D01*
X228875Y326955D01*
X228400Y327049D01*
D02*
G37*
G36*
X208000Y325550D02*
Y323600D01*
X209949D01*
X209855Y324076D01*
X209302Y324902D01*
X208475Y325455D01*
X208000Y325550D01*
D02*
G37*
G36*
X207000D02*
X206524Y325455D01*
X205698Y324902D01*
X205145Y324076D01*
X205050Y323600D01*
X207000D01*
Y325550D01*
D02*
G37*
G36*
X141100Y332085D02*
Y323700D01*
X149485D01*
X149246Y325517D01*
X148351Y327675D01*
X146929Y329529D01*
X145075Y330951D01*
X142917Y331846D01*
X141100Y332085D01*
D02*
G37*
G36*
X140100Y332085D02*
X138283Y331846D01*
X136125Y330951D01*
X134271Y329529D01*
X132849Y327675D01*
X131954Y325517D01*
X131715Y323700D01*
X140100D01*
Y332085D01*
D02*
G37*
G36*
X262100Y331885D02*
Y323500D01*
X270485D01*
X270246Y325317D01*
X269351Y327475D01*
X267929Y329329D01*
X266075Y330751D01*
X263917Y331646D01*
X262100Y331885D01*
D02*
G37*
G36*
X227400Y324100D02*
X225450D01*
X225545Y323624D01*
X226098Y322798D01*
X226924Y322245D01*
X227400Y322150D01*
Y324100D01*
D02*
G37*
G36*
X249900D02*
X247951D01*
X248045Y323624D01*
X248598Y322798D01*
X249425Y322245D01*
X249900Y322150D01*
Y324100D01*
D02*
G37*
G36*
X230349D02*
X228400D01*
Y322150D01*
X228875Y322245D01*
X229702Y322798D01*
X230255Y323624D01*
X230349Y324100D01*
D02*
G37*
G36*
X182000Y326900D02*
X180051D01*
X180145Y326425D01*
X180698Y325598D01*
X181525Y325045D01*
X182000Y324951D01*
Y326900D01*
D02*
G37*
G36*
X227400Y327049D02*
X226924Y326955D01*
X226098Y326402D01*
X225545Y325575D01*
X225450Y325100D01*
X227400D01*
Y327049D01*
D02*
G37*
G36*
X184950Y326900D02*
X183000D01*
Y324951D01*
X183475Y325045D01*
X184302Y325598D01*
X184855Y326425D01*
X184950Y326900D01*
D02*
G37*
G36*
X239500Y337450D02*
X239024Y337355D01*
X238198Y336802D01*
X237645Y335976D01*
X237550Y335500D01*
X239500D01*
Y337450D01*
D02*
G37*
G36*
X218000D02*
Y335500D01*
X219950D01*
X219855Y335976D01*
X219302Y336802D01*
X218476Y337355D01*
X218000Y337450D01*
D02*
G37*
G36*
X240500D02*
Y335500D01*
X242449D01*
X242355Y335976D01*
X241802Y336802D01*
X240975Y337355D01*
X240500Y337450D01*
D02*
G37*
G36*
X217000D02*
X216525Y337355D01*
X215698Y336802D01*
X215145Y335976D01*
X215051Y335500D01*
X217000D01*
Y337450D01*
D02*
G37*
G36*
X195500Y337050D02*
Y335100D01*
X197450D01*
X197355Y335576D01*
X196802Y336402D01*
X195975Y336955D01*
X195500Y337050D01*
D02*
G37*
G36*
X197450Y334100D02*
X195500D01*
Y332151D01*
X195975Y332245D01*
X196802Y332798D01*
X197355Y333625D01*
X197450Y334100D01*
D02*
G37*
G36*
X194500D02*
X192551D01*
X192645Y333625D01*
X193198Y332798D01*
X194025Y332245D01*
X194500Y332151D01*
Y334100D01*
D02*
G37*
G36*
X219950Y334500D02*
X218000D01*
Y332551D01*
X218476Y332645D01*
X219302Y333198D01*
X219855Y334025D01*
X219950Y334500D01*
D02*
G37*
G36*
X217000D02*
X215051D01*
X215145Y334025D01*
X215698Y333198D01*
X216525Y332645D01*
X217000Y332551D01*
Y334500D01*
D02*
G37*
G36*
X158000Y332850D02*
Y330900D01*
X159950D01*
X159855Y331376D01*
X159302Y332202D01*
X158475Y332755D01*
X158000Y332850D01*
D02*
G37*
G36*
X157000D02*
X156525Y332755D01*
X155698Y332202D01*
X155145Y331376D01*
X155051Y330900D01*
X157000D01*
Y332850D01*
D02*
G37*
G36*
X194500Y337050D02*
X194025Y336955D01*
X193198Y336402D01*
X192645Y335576D01*
X192551Y335100D01*
X194500D01*
Y337050D01*
D02*
G37*
G36*
X242449Y334500D02*
X240500D01*
Y332551D01*
X240975Y332645D01*
X241802Y333198D01*
X242355Y334025D01*
X242449Y334500D01*
D02*
G37*
G36*
X239500D02*
X237550D01*
X237645Y334025D01*
X238198Y333198D01*
X239024Y332645D01*
X239500Y332551D01*
Y334500D01*
D02*
G37*
G36*
X184950Y273400D02*
X183000D01*
Y271450D01*
X183475Y271545D01*
X184302Y272098D01*
X184855Y272924D01*
X184950Y273400D01*
D02*
G37*
G36*
X182000D02*
X180051D01*
X180145Y272924D01*
X180698Y272098D01*
X181525Y271545D01*
X182000Y271450D01*
Y273400D01*
D02*
G37*
G36*
Y276349D02*
X181525Y276255D01*
X180698Y275702D01*
X180145Y274875D01*
X180051Y274400D01*
X182000D01*
Y276349D01*
D02*
G37*
G36*
X176450Y266500D02*
X174500D01*
Y264550D01*
X174976Y264645D01*
X175802Y265198D01*
X176355Y266024D01*
X176450Y266500D01*
D02*
G37*
G36*
X173500D02*
X171551D01*
X171645Y266024D01*
X172198Y265198D01*
X173024Y264645D01*
X173500Y264550D01*
Y266500D01*
D02*
G37*
G36*
X174500Y269449D02*
Y267500D01*
X176450D01*
X176355Y267975D01*
X175802Y268802D01*
X174976Y269355D01*
X174500Y269449D01*
D02*
G37*
G36*
X173500D02*
X173024Y269355D01*
X172198Y268802D01*
X171645Y267975D01*
X171551Y267500D01*
X173500D01*
Y269449D01*
D02*
G37*
G36*
X176450Y283500D02*
X174500D01*
Y281551D01*
X174976Y281645D01*
X175802Y282198D01*
X176355Y283025D01*
X176450Y283500D01*
D02*
G37*
G36*
X173500D02*
X171551D01*
X171645Y283025D01*
X172198Y282198D01*
X173024Y281645D01*
X173500Y281551D01*
Y283500D01*
D02*
G37*
G36*
X183000Y276349D02*
Y274400D01*
X184950D01*
X184855Y274875D01*
X184302Y275702D01*
X183475Y276255D01*
X183000Y276349D01*
D02*
G37*
G36*
X175050Y233949D02*
Y232000D01*
X177000D01*
X176905Y232475D01*
X176353Y233302D01*
X175526Y233855D01*
X175050Y233949D01*
D02*
G37*
G36*
X174050D02*
X173575Y233855D01*
X172748Y233302D01*
X172195Y232475D01*
X172101Y232000D01*
X174050D01*
Y233949D01*
D02*
G37*
G36*
X177000Y231000D02*
X175050D01*
Y229050D01*
X175526Y229145D01*
X176353Y229698D01*
X176905Y230524D01*
X177000Y231000D01*
D02*
G37*
G36*
X183000Y224149D02*
Y222200D01*
X184950D01*
X184855Y222675D01*
X184302Y223502D01*
X183475Y224055D01*
X183000Y224149D01*
D02*
G37*
G36*
X174050Y231000D02*
X172101D01*
X172195Y230524D01*
X172748Y229698D01*
X173575Y229145D01*
X174050Y229050D01*
Y231000D01*
D02*
G37*
G36*
X182000Y241549D02*
X181525Y241455D01*
X180698Y240902D01*
X180145Y240075D01*
X180051Y239600D01*
X182000D01*
Y241549D01*
D02*
G37*
G36*
X184950Y238600D02*
X183000D01*
Y236650D01*
X183475Y236745D01*
X184302Y237298D01*
X184855Y238124D01*
X184950Y238600D01*
D02*
G37*
G36*
X182000D02*
X180051D01*
X180145Y238124D01*
X180698Y237298D01*
X181525Y236745D01*
X182000Y236650D01*
Y238600D01*
D02*
G37*
G36*
Y224149D02*
X181525Y224055D01*
X180698Y223502D01*
X180145Y222675D01*
X180051Y222200D01*
X182000D01*
Y224149D01*
D02*
G37*
G36*
X175000Y214000D02*
X173050D01*
X173145Y213525D01*
X173698Y212698D01*
X174524Y212145D01*
X175000Y212051D01*
Y214000D01*
D02*
G37*
G36*
X177950D02*
X176000D01*
Y212051D01*
X176476Y212145D01*
X177302Y212698D01*
X177855Y213525D01*
X177950Y214000D01*
D02*
G37*
G36*
X183000Y206750D02*
Y204800D01*
X184950D01*
X184855Y205276D01*
X184302Y206102D01*
X183475Y206655D01*
X183000Y206750D01*
D02*
G37*
G36*
X182000D02*
X181525Y206655D01*
X180698Y206102D01*
X180145Y205276D01*
X180051Y204800D01*
X182000D01*
Y206750D01*
D02*
G37*
G36*
X184950Y221200D02*
X183000D01*
Y219250D01*
X183475Y219345D01*
X184302Y219898D01*
X184855Y220725D01*
X184950Y221200D01*
D02*
G37*
G36*
X182000D02*
X180051D01*
X180145Y220725D01*
X180698Y219898D01*
X181525Y219345D01*
X182000Y219250D01*
Y221200D01*
D02*
G37*
G36*
X175000Y216950D02*
X174524Y216855D01*
X173698Y216302D01*
X173145Y215476D01*
X173050Y215000D01*
X175000D01*
Y216950D01*
D02*
G37*
G36*
X176000D02*
Y215000D01*
X177950D01*
X177855Y215476D01*
X177302Y216302D01*
X176476Y216855D01*
X176000Y216950D01*
D02*
G37*
G36*
X184950Y256000D02*
X183000D01*
Y254050D01*
X183475Y254145D01*
X184302Y254698D01*
X184855Y255524D01*
X184950Y256000D01*
D02*
G37*
G36*
X182000D02*
X180051D01*
X180145Y255524D01*
X180698Y254698D01*
X181525Y254145D01*
X182000Y254050D01*
Y256000D01*
D02*
G37*
G36*
X183000Y258949D02*
Y257000D01*
X184950D01*
X184855Y257475D01*
X184302Y258302D01*
X183475Y258855D01*
X183000Y258949D01*
D02*
G37*
G36*
X182000D02*
X181525Y258855D01*
X180698Y258302D01*
X180145Y257475D01*
X180051Y257000D01*
X182000D01*
Y258949D01*
D02*
G37*
G36*
X176450Y248500D02*
X174500D01*
Y246550D01*
X174976Y246645D01*
X175802Y247198D01*
X176355Y248025D01*
X176450Y248500D01*
D02*
G37*
G36*
X173500D02*
X171551D01*
X171645Y248025D01*
X172198Y247198D01*
X173024Y246645D01*
X173500Y246550D01*
Y248500D01*
D02*
G37*
G36*
X183000Y241549D02*
Y239600D01*
X184950D01*
X184855Y240075D01*
X184302Y240902D01*
X183475Y241455D01*
X183000Y241549D01*
D02*
G37*
G36*
X174500Y251449D02*
Y249500D01*
X176450D01*
X176355Y249975D01*
X175802Y250802D01*
X174976Y251355D01*
X174500Y251449D01*
D02*
G37*
G36*
X173500D02*
X173024Y251355D01*
X172198Y250802D01*
X171645Y249975D01*
X171551Y249500D01*
X173500D01*
Y251449D01*
D02*
G37*
G36*
X157000Y311200D02*
X155051D01*
X155145Y310724D01*
X155698Y309898D01*
X156525Y309345D01*
X157000Y309250D01*
Y311200D01*
D02*
G37*
G36*
X183000Y311150D02*
Y309200D01*
X184950D01*
X184855Y309676D01*
X184302Y310502D01*
X183475Y311055D01*
X183000Y311150D01*
D02*
G37*
G36*
X159950Y311200D02*
X158000D01*
Y309250D01*
X158475Y309345D01*
X159302Y309898D01*
X159855Y310724D01*
X159950Y311200D01*
D02*
G37*
G36*
X217000Y314500D02*
X215051D01*
X215145Y314024D01*
X215698Y313198D01*
X216525Y312645D01*
X217000Y312550D01*
Y314500D01*
D02*
G37*
G36*
X239500D02*
X237550D01*
X237645Y314024D01*
X238198Y313198D01*
X239024Y312645D01*
X239500Y312550D01*
Y314500D01*
D02*
G37*
G36*
X219950D02*
X218000D01*
Y312550D01*
X218476Y312645D01*
X219302Y313198D01*
X219855Y314024D01*
X219950Y314500D01*
D02*
G37*
G36*
X158000Y314149D02*
Y312200D01*
X159950D01*
X159855Y312675D01*
X159302Y313502D01*
X158475Y314055D01*
X158000Y314149D01*
D02*
G37*
G36*
X157000D02*
X156525Y314055D01*
X155698Y313502D01*
X155145Y312675D01*
X155051Y312200D01*
X157000D01*
Y314149D01*
D02*
G37*
G36*
X182000Y311150D02*
X181525Y311055D01*
X180698Y310502D01*
X180145Y309676D01*
X180051Y309200D01*
X182000D01*
Y311150D01*
D02*
G37*
G36*
X184950Y308200D02*
X183000D01*
Y306251D01*
X183475Y306345D01*
X184302Y306898D01*
X184855Y307724D01*
X184950Y308200D01*
D02*
G37*
G36*
X182000D02*
X180051D01*
X180145Y307724D01*
X180698Y306898D01*
X181525Y306345D01*
X182000Y306251D01*
Y308200D01*
D02*
G37*
G36*
X172450Y319700D02*
X170500D01*
Y317751D01*
X170975Y317845D01*
X171802Y318398D01*
X172355Y319225D01*
X172450Y319700D01*
D02*
G37*
G36*
X169500D02*
X167551D01*
X167645Y319225D01*
X168198Y318398D01*
X169025Y317845D01*
X169500Y317751D01*
Y319700D01*
D02*
G37*
G36*
X209949Y322600D02*
X208000D01*
Y320651D01*
X208475Y320745D01*
X209302Y321298D01*
X209855Y322125D01*
X209949Y322600D01*
D02*
G37*
G36*
X207000D02*
X205050D01*
X205145Y322125D01*
X205698Y321298D01*
X206524Y320745D01*
X207000Y320651D01*
Y322600D01*
D02*
G37*
G36*
X170500Y322650D02*
Y320700D01*
X172450D01*
X172355Y321176D01*
X171802Y322002D01*
X170975Y322555D01*
X170500Y322650D01*
D02*
G37*
G36*
X169500D02*
X169025Y322555D01*
X168198Y322002D01*
X167645Y321176D01*
X167551Y320700D01*
X169500D01*
Y322650D01*
D02*
G37*
G36*
X149485Y322700D02*
X141100D01*
Y314315D01*
X142917Y314554D01*
X145075Y315449D01*
X146929Y316871D01*
X148351Y318725D01*
X149246Y320883D01*
X149485Y322700D01*
D02*
G37*
G36*
X140100D02*
X131715D01*
X131954Y320883D01*
X132849Y318725D01*
X134271Y316871D01*
X136125Y315449D01*
X138283Y314554D01*
X140100Y314315D01*
Y322700D01*
D02*
G37*
G36*
X194500Y315400D02*
X192551D01*
X192645Y314925D01*
X193198Y314098D01*
X194025Y313545D01*
X194500Y313451D01*
Y315400D01*
D02*
G37*
G36*
X242449Y314500D02*
X240500D01*
Y312550D01*
X240975Y312645D01*
X241802Y313198D01*
X242355Y314024D01*
X242449Y314500D01*
D02*
G37*
G36*
X270485Y322500D02*
X262100D01*
Y314115D01*
X263917Y314354D01*
X266075Y315249D01*
X267929Y316671D01*
X269351Y318525D01*
X270246Y320683D01*
X270485Y322500D01*
D02*
G37*
G36*
X197450Y315400D02*
X195500D01*
Y313451D01*
X195975Y313545D01*
X196802Y314098D01*
X197355Y314925D01*
X197450Y315400D01*
D02*
G37*
G36*
X240500Y317449D02*
Y315500D01*
X242449D01*
X242355Y315975D01*
X241802Y316802D01*
X240975Y317355D01*
X240500Y317449D01*
D02*
G37*
G36*
X239500D02*
X239024Y317355D01*
X238198Y316802D01*
X237645Y315975D01*
X237550Y315500D01*
X239500D01*
Y317449D01*
D02*
G37*
G36*
X195500Y318350D02*
Y316400D01*
X197450D01*
X197355Y316876D01*
X196802Y317702D01*
X195975Y318255D01*
X195500Y318350D01*
D02*
G37*
G36*
X194500D02*
X194025Y318255D01*
X193198Y317702D01*
X192645Y316876D01*
X192551Y316400D01*
X194500D01*
Y318350D01*
D02*
G37*
G36*
X218000Y317449D02*
Y315500D01*
X219950D01*
X219855Y315975D01*
X219302Y316802D01*
X218476Y317355D01*
X218000Y317449D01*
D02*
G37*
G36*
X217000D02*
X216525Y317355D01*
X215698Y316802D01*
X215145Y315975D01*
X215051Y315500D01*
X217000D01*
Y317449D01*
D02*
G37*
G36*
X184950Y290800D02*
X183000D01*
Y288850D01*
X183475Y288945D01*
X184302Y289498D01*
X184855Y290324D01*
X184950Y290800D01*
D02*
G37*
G36*
X182000Y293749D02*
X181525Y293655D01*
X180698Y293102D01*
X180145Y292276D01*
X180051Y291800D01*
X182000D01*
Y293749D01*
D02*
G37*
G36*
Y290800D02*
X180051D01*
X180145Y290324D01*
X180698Y289498D01*
X181525Y288945D01*
X182000Y288850D01*
Y290800D01*
D02*
G37*
G36*
X174500Y286450D02*
Y284500D01*
X176450D01*
X176355Y284976D01*
X175802Y285802D01*
X174976Y286355D01*
X174500Y286450D01*
D02*
G37*
G36*
X173500D02*
X173024Y286355D01*
X172198Y285802D01*
X171645Y284976D01*
X171551Y284500D01*
X173500D01*
Y286450D01*
D02*
G37*
G36*
X170500Y303949D02*
Y302000D01*
X172450D01*
X172355Y302476D01*
X171802Y303302D01*
X170975Y303855D01*
X170500Y303949D01*
D02*
G37*
G36*
X169500D02*
X169025Y303855D01*
X168198Y303302D01*
X167645Y302476D01*
X167551Y302000D01*
X169500D01*
Y303949D01*
D02*
G37*
G36*
Y301000D02*
X167551D01*
X167645Y300524D01*
X168198Y299698D01*
X169025Y299145D01*
X169500Y299050D01*
Y301000D01*
D02*
G37*
G36*
X172450D02*
X170500D01*
Y299050D01*
X170975Y299145D01*
X171802Y299698D01*
X172355Y300524D01*
X172450Y301000D01*
D02*
G37*
G36*
X183000Y293749D02*
Y291800D01*
X184950D01*
X184855Y292276D01*
X184302Y293102D01*
X183475Y293655D01*
X183000Y293749D01*
D02*
G37*
%LPD*%
D10*
X366760Y163500D02*
D03*
X374240D02*
D03*
X357160Y202600D02*
D03*
X364640D02*
D03*
X55340Y250100D02*
D03*
X47860D02*
D03*
X55340Y173300D02*
D03*
X47860D02*
D03*
X55340Y96500D02*
D03*
X47860D02*
D03*
D11*
X364937Y182000D02*
D03*
X357063D02*
D03*
X378137Y333800D02*
D03*
X370263D02*
D03*
X370463Y347600D02*
D03*
X378337D02*
D03*
X370163Y365400D02*
D03*
X378037D02*
D03*
X345763Y356600D02*
D03*
X353637D02*
D03*
X335537Y378200D02*
D03*
X327663D02*
D03*
X327963Y367350D02*
D03*
X335837D02*
D03*
X335537Y356500D02*
D03*
X327663D02*
D03*
X317437Y378100D02*
D03*
X309563D02*
D03*
X295063Y147000D02*
D03*
X302937D02*
D03*
X295063Y155000D02*
D03*
X302937D02*
D03*
X295063Y163000D02*
D03*
X302937D02*
D03*
X295063Y171000D02*
D03*
X302937D02*
D03*
X295063Y179000D02*
D03*
X302937D02*
D03*
X295063Y187000D02*
D03*
X302937D02*
D03*
D12*
X344000Y231760D02*
D03*
Y239240D02*
D03*
X363200Y311660D02*
D03*
Y319140D02*
D03*
X375900Y195060D02*
D03*
Y202540D02*
D03*
X344900Y268260D02*
D03*
Y275740D02*
D03*
X283500Y136740D02*
D03*
Y129260D02*
D03*
D13*
X378500Y281500D02*
D03*
X336000Y273000D02*
D03*
D14*
X373500Y281500D02*
D03*
X368500D02*
D03*
X363500D02*
D03*
X378500Y238587D02*
D03*
X373500D02*
D03*
X368500D02*
D03*
X363500D02*
D03*
X331000Y273000D02*
D03*
X326000D02*
D03*
X321000D02*
D03*
X336000Y230087D02*
D03*
X331000D02*
D03*
X326000D02*
D03*
X321000D02*
D03*
D15*
X353440Y366753D02*
D03*
Y374627D02*
D03*
X373700Y229837D02*
D03*
Y221963D02*
D03*
X311000Y60937D02*
D03*
Y53063D02*
D03*
X371600Y314263D02*
D03*
Y322137D02*
D03*
X379900Y314263D02*
D03*
Y322137D02*
D03*
D16*
X123719Y127300D02*
D03*
X101081D02*
D03*
X123719Y163500D02*
D03*
X101081D02*
D03*
D17*
X44500Y117776D02*
D03*
X49500D02*
D03*
X54500D02*
D03*
X59500D02*
D03*
X44500Y139824D02*
D03*
X49500D02*
D03*
X54500D02*
D03*
X59500D02*
D03*
X44500Y192876D02*
D03*
X49500D02*
D03*
X54500D02*
D03*
X59500D02*
D03*
X44500Y214924D02*
D03*
X49500D02*
D03*
X54500D02*
D03*
X59500D02*
D03*
X44500Y267976D02*
D03*
X49500D02*
D03*
X54500D02*
D03*
X59500D02*
D03*
X44500Y290024D02*
D03*
X49500D02*
D03*
X54500D02*
D03*
X59500D02*
D03*
D18*
X331106Y116500D02*
D03*
X306894D02*
D03*
X306606Y205000D02*
D03*
X282394D02*
D03*
X270787Y232000D02*
D03*
X295000D02*
D03*
X271894Y259000D02*
D03*
X296106D02*
D03*
X356594Y296400D02*
D03*
X380806D02*
D03*
D19*
X62600Y152400D02*
X93284Y183084D01*
X62600Y142900D02*
Y152400D01*
X93284Y183084D02*
X140957D01*
D20*
X54200Y117476D02*
X54500Y117776D01*
X54200Y111000D02*
Y117476D01*
X52500Y109300D02*
X54200Y111000D01*
X52500Y107100D02*
Y109300D01*
X54500Y186900D02*
Y192876D01*
X52500Y184900D02*
X54500Y186900D01*
X52500Y183050D02*
Y184900D01*
X279000Y11000D02*
X291000D01*
X311000Y31000D01*
Y53063D01*
X373700Y229837D02*
Y238387D01*
X300500Y369500D02*
X300963D01*
X300500D02*
Y370031D01*
X301484Y371016D01*
X300963Y369500D02*
X309563Y378100D01*
D21*
X57702Y96500D02*
X62500Y101298D01*
Y107100D01*
X59500Y117776D02*
X62500Y114776D01*
Y107100D02*
Y114776D01*
X42500Y99498D02*
X45498Y96500D01*
X42500Y99498D02*
Y107100D01*
Y115776D02*
X44500Y117776D01*
X42500Y107100D02*
Y115776D01*
X57702Y173300D02*
X62500Y178098D01*
Y183050D01*
X59500Y192876D02*
X62500Y189876D01*
Y183050D02*
Y189876D01*
X42500Y176298D02*
X45498Y173300D01*
X42500Y176298D02*
Y183050D01*
Y190876D02*
X44500Y192876D01*
X42500Y183050D02*
Y190876D01*
X57702Y250100D02*
X62500Y254898D01*
Y259000D01*
X45498Y250100D02*
Y252202D01*
X42500Y255200D02*
X45498Y252202D01*
X42500Y255200D02*
Y259000D01*
X54500Y261000D02*
Y267976D01*
X52500Y259000D02*
X54500Y261000D01*
X59500Y267976D02*
X62500Y264976D01*
Y259000D02*
Y264976D01*
X42500Y265976D02*
X44500Y267976D01*
X42500Y259000D02*
Y265976D01*
X303410Y216590D02*
X308213Y211787D01*
X303410Y216590D02*
X303410D01*
X303351Y216531D02*
X303410Y216590D01*
X265531Y216531D02*
X303351D01*
X259899Y210899D02*
X265531Y216531D01*
X241800Y224285D02*
Y228302D01*
X255143Y235643D02*
X263032Y243531D01*
X249142Y235643D02*
X255143D01*
X241800Y228302D02*
X249142Y235643D01*
X263032Y243531D02*
X291000D01*
X295000Y232000D02*
Y239531D01*
X291000Y243531D02*
X295000Y239531D01*
X296106Y259000D02*
Y266894D01*
X292469Y270532D02*
X296106Y266894D01*
X255532Y270532D02*
X292469D01*
X241800Y256800D02*
X255532Y270532D01*
X241800Y243970D02*
Y256800D01*
X296106Y252606D02*
Y259000D01*
X295000Y179000D02*
X296000Y178000D01*
X268786Y191214D02*
X273000Y187000D01*
X253599Y191214D02*
X268786D01*
X273000Y187000D02*
X295063D01*
X271012Y166017D02*
X282029Y155000D01*
X253599Y166017D02*
X271012D01*
X282029Y155000D02*
X295063D01*
X270370Y172317D02*
X279686Y163000D01*
X241800Y172317D02*
X270370D01*
X279686Y163000D02*
X295063D01*
X277343Y171000D02*
X295063D01*
X269727Y178616D02*
X277343Y171000D01*
X275000Y179000D02*
X295000D01*
X269085Y184915D02*
X275000Y179000D01*
X253599Y178616D02*
X269727D01*
X241800Y184915D02*
X269085D01*
X308213Y204000D02*
Y211787D01*
X253599Y210899D02*
X259899D01*
X283400Y204600D02*
X284000Y204000D01*
X241800Y204600D02*
X284000D01*
X269372Y230584D02*
X270787Y232000D01*
X253599Y230584D02*
X269372D01*
X255000Y259000D02*
X271894D01*
X253599Y257599D02*
X255000Y259000D01*
X253599Y251844D02*
Y257599D01*
X353440Y374627D02*
X364573D01*
X370263Y368937D01*
Y367253D02*
Y368937D01*
X378037Y365400D02*
X382806D01*
X378437Y347500D02*
X382700D01*
X378337Y347600D02*
X378437Y347500D01*
X370463Y334000D02*
Y347600D01*
X370263Y333800D02*
X370463Y334000D01*
X344900Y275740D02*
Y276241D01*
X351600Y282941D01*
X373700Y281300D02*
Y306100D01*
X379900Y312300D01*
Y314263D01*
X364859Y242941D02*
X366100Y241700D01*
X366000Y238100D02*
X366100Y238200D01*
X369463Y221963D02*
X373700D01*
X366100Y218600D02*
X369463Y221963D01*
X366100Y211000D02*
Y218600D01*
X364640Y209540D02*
X366100Y211000D01*
X364640Y202600D02*
Y209540D01*
X357160Y197040D02*
Y202600D01*
Y197040D02*
X358300Y195900D01*
X375060D01*
X375900Y202540D02*
Y210800D01*
X376100Y211000D01*
X357160Y202600D02*
Y209940D01*
X356100Y211000D02*
X357160Y209940D01*
X366100Y238200D02*
Y241700D01*
X356100Y211000D02*
Y218800D01*
X366000Y228700D01*
Y238100D01*
X241800Y159718D02*
X270282D01*
X282500Y147500D01*
X294563D01*
X295063Y147000D01*
X338740Y275740D02*
X344900D01*
X336000Y273000D02*
X338740Y275740D01*
X321000Y273000D02*
X326000D01*
Y286000D01*
X321000Y230087D02*
X326000D01*
Y236500D01*
X328500Y239000D01*
X346000D01*
X349941Y242941D01*
X351600D01*
X364859D01*
X336000Y230087D02*
X341587D01*
X344441Y232941D01*
X351600D01*
X331000Y273000D02*
Y277000D01*
X375060Y195900D02*
X375500Y195460D01*
X331000Y225500D02*
Y230087D01*
Y225500D02*
X332500Y224000D01*
X339500D01*
X347500Y216000D01*
Y195500D02*
Y216000D01*
Y195500D02*
X357063Y185937D01*
Y182000D02*
Y185937D01*
X364937Y165323D02*
X366760Y163500D01*
X364937Y165323D02*
Y182000D01*
X374240Y163500D02*
X375500Y164760D01*
Y171500D01*
Y195460D01*
X355500Y100500D02*
X355500Y100500D01*
X302937Y155000D02*
X317500D01*
X365500Y107000D01*
Y100500D02*
Y107000D01*
X302937Y147000D02*
X319843D01*
X355500Y111343D01*
Y100500D02*
Y111343D01*
X315157Y163000D02*
X369500Y108657D01*
Y106500D02*
Y108657D01*
Y106500D02*
X375500Y100500D01*
X348314Y135500D02*
X355500D01*
X346985Y142485D02*
X359515D01*
X365151Y136849D01*
Y135692D02*
Y136849D01*
X348127Y147000D02*
X363500D01*
X373750Y136750D01*
X376750D01*
X302937Y187000D02*
X308127D01*
X348127Y147000D01*
X302937Y179000D02*
X310471D01*
X346985Y142485D01*
X302937Y171000D02*
X312814D01*
X348314Y135500D01*
X302937Y163000D02*
X315157D01*
X317437Y378100D02*
X327563D01*
X327663Y378200D01*
X335537Y367650D02*
Y378200D01*
Y367650D02*
X335837Y367350D01*
X327963Y356800D02*
Y367350D01*
X327663Y356500D02*
X327963Y356800D01*
X335537Y356500D02*
X345663D01*
X345763Y356600D01*
X353637D02*
Y366556D01*
X353440Y366753D02*
X353637Y366556D01*
X378137Y323900D02*
Y333800D01*
Y323900D02*
X379900Y322137D01*
X363200Y319140D02*
X365000Y320940D01*
Y321500D01*
X365637Y322137D01*
X379900D01*
X323500Y286000D02*
X326000D01*
D22*
X64100Y217400D02*
X93300D01*
X90000Y249100D02*
X118772Y220328D01*
X90000Y249100D02*
Y267500D01*
X118772Y220328D02*
X144800D01*
X65150Y292350D02*
X90000Y267500D01*
X93300Y217400D02*
X108994Y201706D01*
X144700D01*
D23*
X253599Y153419D02*
X261581D01*
X278000Y137000D01*
X319500D01*
X332500Y124000D01*
Y100500D02*
Y124000D01*
D24*
X380450Y238350D02*
D03*
D25*
X366350Y238300D02*
D03*
D26*
X62500Y259000D02*
D03*
Y183050D02*
D03*
Y107100D02*
D03*
X332500Y100500D02*
D03*
X375500Y100500D02*
D03*
Y136041D02*
D03*
X355500Y171500D02*
D03*
X376100Y211000D02*
D03*
D27*
X52500Y259000D02*
D03*
X42500D02*
D03*
X52500Y183050D02*
D03*
X42500D02*
D03*
X52500Y107100D02*
D03*
X42500D02*
D03*
X312500Y100500D02*
D03*
X322500D02*
D03*
X355500Y100500D02*
D03*
X365500D02*
D03*
X355500Y136041D02*
D03*
X365500D02*
D03*
X375500Y171500D02*
D03*
X365500D02*
D03*
X109500Y163200D02*
D03*
Y251783D02*
D03*
X356100Y211000D02*
D03*
X366100D02*
D03*
D28*
X68042Y4500D02*
D03*
X51458Y373200D02*
D03*
D29*
X48357Y4500D02*
D03*
X15000Y139842D02*
D03*
Y214764D02*
D03*
Y289685D02*
D03*
X15200Y39800D02*
D03*
X17700Y357300D02*
D03*
X71143Y373200D02*
D03*
D30*
X15000Y120158D02*
D03*
Y195079D02*
D03*
Y270000D02*
D03*
X15200Y20115D02*
D03*
X17700Y337615D02*
D03*
D31*
X351600Y232941D02*
D03*
Y242941D02*
D03*
Y260500D02*
D03*
Y282941D02*
D03*
X377953Y377953D02*
D03*
X377953Y0D02*
D03*
X0Y377953D02*
D03*
Y0D02*
D03*
D32*
X140957Y127218D02*
D03*
Y145840D02*
D03*
Y164462D02*
D03*
Y183084D02*
D03*
Y201706D02*
D03*
Y220328D02*
D03*
Y238950D02*
D03*
Y257572D02*
D03*
D33*
X253599Y140821D02*
D03*
X241800Y132947D02*
D03*
Y147120D02*
D03*
Y159718D02*
D03*
X253599Y166017D02*
D03*
X241800Y172317D02*
D03*
X253599Y178616D02*
D03*
X241800Y184915D02*
D03*
X253599Y191214D02*
D03*
X241800Y204600D02*
D03*
X253599Y210899D02*
D03*
X241800Y224285D02*
D03*
X253599Y230584D02*
D03*
X241800Y243970D02*
D03*
X253599Y153419D02*
D03*
D34*
Y251844D02*
D03*
D35*
X231653Y127978D02*
D03*
X160787D02*
D03*
X231866Y147000D02*
D03*
X161000D02*
D03*
X232000Y165000D02*
D03*
X161134D02*
D03*
D36*
X140600Y11200D02*
D03*
Y50570D02*
D03*
X261600Y11200D02*
D03*
Y50570D02*
D03*
Y323000D02*
D03*
Y362370D02*
D03*
X140600Y323200D02*
D03*
Y362570D02*
D03*
D37*
X15000Y30000D02*
D03*
X17500Y347500D02*
D03*
D38*
X59035Y330965D02*
D03*
X342500D02*
D03*
Y47500D02*
D03*
X59035D02*
D03*
D39*
X322500Y182500D02*
D03*
Y191000D02*
D03*
Y199500D02*
D03*
X334000Y196500D02*
D03*
Y188667D02*
D03*
Y180833D02*
D03*
Y173000D02*
D03*
X279000Y11000D02*
D03*
X249200Y132000D02*
D03*
Y113200D02*
D03*
X259600Y123600D02*
D03*
X288800Y94400D02*
D03*
X290800Y73600D02*
D03*
X278400Y104800D02*
D03*
X259600D02*
D03*
X270000Y94400D02*
D03*
X280400Y84000D02*
D03*
X240800Y104800D02*
D03*
X251200Y94400D02*
D03*
X261600Y84000D02*
D03*
X242800D02*
D03*
X276800Y282100D02*
D03*
X10600Y372400D02*
D03*
X20000D02*
D03*
X32800Y363700D02*
D03*
X29400Y372400D02*
D03*
X38800D02*
D03*
X47000Y358000D02*
D03*
X51600Y363700D02*
D03*
X42200D02*
D03*
X37500Y355000D02*
D03*
X64400Y358000D02*
D03*
X69100Y363700D02*
D03*
X59700D02*
D03*
X55000Y358000D02*
D03*
X81900Y355000D02*
D03*
X86600Y363700D02*
D03*
X77200D02*
D03*
X72500Y358000D02*
D03*
X117500Y250600D02*
D03*
X126200Y245900D02*
D03*
Y255300D02*
D03*
X117500Y260000D02*
D03*
X138700Y289700D02*
D03*
X147400Y285000D02*
D03*
Y275600D02*
D03*
X138700Y280300D02*
D03*
X147400Y266200D02*
D03*
X138700Y270900D02*
D03*
X147100Y296200D02*
D03*
X129700D02*
D03*
X121000Y300900D02*
D03*
X103700Y289700D02*
D03*
X121100D02*
D03*
X112400Y285000D02*
D03*
X129800D02*
D03*
X121100Y280300D02*
D03*
X129800Y275600D02*
D03*
Y266200D02*
D03*
X121100Y270900D02*
D03*
X112400Y275600D02*
D03*
Y266200D02*
D03*
X86200Y319700D02*
D03*
X103600D02*
D03*
X94900Y315000D02*
D03*
X112300D02*
D03*
X103600Y310300D02*
D03*
X112300Y305600D02*
D03*
Y296200D02*
D03*
X103600Y300900D02*
D03*
X94900Y305600D02*
D03*
X86200Y310300D02*
D03*
X94900Y296200D02*
D03*
X86200Y347200D02*
D03*
X103600D02*
D03*
X94900Y342500D02*
D03*
X112300D02*
D03*
X103600Y337800D02*
D03*
X112300Y333100D02*
D03*
Y323700D02*
D03*
X103600Y328400D02*
D03*
X94900Y333100D02*
D03*
X86200Y337800D02*
D03*
X94900Y323700D02*
D03*
X86200Y328400D02*
D03*
X128400Y375400D02*
D03*
X109600D02*
D03*
X120000Y365000D02*
D03*
X130400Y354600D02*
D03*
X90800Y375400D02*
D03*
X101200Y365000D02*
D03*
X111600Y354600D02*
D03*
X92800D02*
D03*
X271600D02*
D03*
X290400D02*
D03*
X280000Y365000D02*
D03*
X269600Y375400D02*
D03*
X309200Y354600D02*
D03*
X298800Y365000D02*
D03*
X288400Y375400D02*
D03*
X157000Y355100D02*
D03*
X249000Y375900D02*
D03*
X230200D02*
D03*
X240600Y365500D02*
D03*
X251000Y355100D02*
D03*
X211400Y375900D02*
D03*
X221800Y365500D02*
D03*
X232200Y355100D02*
D03*
X192600Y375900D02*
D03*
X203000Y365500D02*
D03*
X213400Y355100D02*
D03*
X173800Y375900D02*
D03*
X184200Y365500D02*
D03*
X194600Y355100D02*
D03*
X157549Y375900D02*
D03*
X165400Y365500D02*
D03*
X175800Y355100D02*
D03*
X295000Y332600D02*
D03*
X305400Y343000D02*
D03*
X295000Y313800D02*
D03*
X305400Y324200D02*
D03*
Y305400D02*
D03*
X285200Y292500D02*
D03*
X215000D02*
D03*
X266400D02*
D03*
X247600D02*
D03*
X258000Y282100D02*
D03*
X228800Y292500D02*
D03*
X239200Y282100D02*
D03*
X203145Y251345D02*
D03*
X215645Y241145D02*
D03*
Y206346D02*
D03*
Y223745D02*
D03*
X203145Y216546D02*
D03*
Y233945D02*
D03*
Y286145D02*
D03*
X215645Y275945D02*
D03*
X203145Y268745D02*
D03*
X215645Y258545D02*
D03*
X203145Y112145D02*
D03*
X215645Y101945D02*
D03*
Y67146D02*
D03*
Y84545D02*
D03*
X203145Y77346D02*
D03*
Y94745D02*
D03*
X215645Y119345D02*
D03*
X203145Y199145D02*
D03*
X215645Y188945D02*
D03*
X203145Y181746D02*
D03*
X169900Y38170D02*
D03*
X159500Y48570D02*
D03*
X151649Y58970D02*
D03*
X188700Y38170D02*
D03*
X178300Y48570D02*
D03*
X167900Y58970D02*
D03*
X207500Y38170D02*
D03*
X197100Y48570D02*
D03*
X186700Y58970D02*
D03*
X226300Y38170D02*
D03*
X215900Y48570D02*
D03*
X205500Y58970D02*
D03*
X245100Y38170D02*
D03*
X234700Y48570D02*
D03*
X224300Y58970D02*
D03*
X243100D02*
D03*
X151100Y38170D02*
D03*
Y-1200D02*
D03*
X243100Y19600D02*
D03*
X224300D02*
D03*
X234700Y9200D02*
D03*
X245100Y-1200D02*
D03*
X205500Y19600D02*
D03*
X215900Y9200D02*
D03*
X226300Y-1200D02*
D03*
X186700Y19600D02*
D03*
X197100Y9200D02*
D03*
X207500Y-1200D02*
D03*
X167900Y19600D02*
D03*
X178300Y9200D02*
D03*
X188700Y-1200D02*
D03*
X149100Y19600D02*
D03*
X159500Y9200D02*
D03*
X169900Y-1200D02*
D03*
X130300Y2200D02*
D03*
Y19600D02*
D03*
X119900Y12600D02*
D03*
X250400Y324600D02*
D03*
X240000Y315000D02*
D03*
Y335000D02*
D03*
X227900Y324600D02*
D03*
X217500Y335000D02*
D03*
Y315000D02*
D03*
X207500Y323100D02*
D03*
X195000Y315900D02*
D03*
Y334600D02*
D03*
X182500Y327400D02*
D03*
X157500Y330400D02*
D03*
Y311700D02*
D03*
X170000Y320200D02*
D03*
X174000Y249000D02*
D03*
X182500Y256500D02*
D03*
X174000Y267000D02*
D03*
X182500Y308700D02*
D03*
Y273900D02*
D03*
Y291300D02*
D03*
X174000Y284000D02*
D03*
X170000Y301500D02*
D03*
X182500Y186900D02*
D03*
X175500Y196500D02*
D03*
X182500Y239100D02*
D03*
Y204300D02*
D03*
Y221700D02*
D03*
X175500Y214500D02*
D03*
X174550Y231500D02*
D03*
X175000Y179000D02*
D03*
X182500Y117300D02*
D03*
Y82500D02*
D03*
Y99900D02*
D03*
X165900Y92600D02*
D03*
X151800Y83900D02*
D03*
X165900Y110000D02*
D03*
X151800Y101300D02*
D03*
X165900Y75200D02*
D03*
X137700Y92600D02*
D03*
X123600Y83900D02*
D03*
X137700Y110000D02*
D03*
X123600Y101300D02*
D03*
X137700Y75200D02*
D03*
X1700Y15000D02*
D03*
X25200Y6300D02*
D03*
X15800D02*
D03*
X29900Y15000D02*
D03*
X34600Y6300D02*
D03*
Y23700D02*
D03*
X42500Y12000D02*
D03*
X44100Y19500D02*
D03*
X53500D02*
D03*
X57500Y12000D02*
D03*
X65500Y20000D02*
D03*
X72000Y12500D02*
D03*
X81300Y5600D02*
D03*
X79000Y20500D02*
D03*
X90700Y5600D02*
D03*
X100100D02*
D03*
X109500D02*
D03*
X86000Y14300D02*
D03*
Y31700D02*
D03*
X90700Y23000D02*
D03*
Y40400D02*
D03*
X95400Y31700D02*
D03*
X100100Y40400D02*
D03*
X109500D02*
D03*
X104800Y31700D02*
D03*
X100100Y23000D02*
D03*
X95400Y14300D02*
D03*
X109500Y23000D02*
D03*
X104800Y14300D02*
D03*
X86000Y66500D02*
D03*
X90700Y57800D02*
D03*
Y75200D02*
D03*
X95400Y66500D02*
D03*
X100100Y75200D02*
D03*
X109500D02*
D03*
X104800Y66500D02*
D03*
X100100Y57800D02*
D03*
X95400Y49100D02*
D03*
X109500Y57800D02*
D03*
X104800Y49100D02*
D03*
Y83900D02*
D03*
X109500Y92600D02*
D03*
X95400Y83900D02*
D03*
X100100Y92600D02*
D03*
X104800Y101300D02*
D03*
X109500Y110000D02*
D03*
X95400Y153500D02*
D03*
X90700Y144800D02*
D03*
X86000Y136100D02*
D03*
X95400D02*
D03*
X90700Y127400D02*
D03*
X95400Y118700D02*
D03*
X100100Y110000D02*
D03*
X95400Y101300D02*
D03*
X90700Y110000D02*
D03*
X86000Y118700D02*
D03*
X90700Y92600D02*
D03*
X86000Y101300D02*
D03*
Y83900D02*
D03*
X382806Y365400D02*
D03*
X382700Y347500D02*
D03*
X382500Y285400D02*
D03*
X381600Y238500D02*
D03*
X331000Y277000D02*
D03*
D40*
X24100Y37800D02*
D03*
X22800Y20900D02*
D03*
X5900Y22200D02*
D03*
X7200Y39100D02*
D03*
X27300Y30000D02*
D03*
X2700D02*
D03*
X26600Y355300D02*
D03*
X25300Y338400D02*
D03*
X8400Y339700D02*
D03*
X9700Y356600D02*
D03*
X29800Y347500D02*
D03*
X5200D02*
D03*
X29100Y141472D02*
D03*
X25200D02*
D03*
X33000D02*
D03*
X36900D02*
D03*
X29100Y216394D02*
D03*
X25200D02*
D03*
X33000D02*
D03*
X36900D02*
D03*
Y291315D02*
D03*
X33000D02*
D03*
X25200D02*
D03*
X29100D02*
D03*
D41*
X301484Y371016D02*
D03*
M02*
