G04 Layer_Color=65535*
%FSLAX25Y25*%
%MOIN*%
G70*
G01*
G75*
%ADD46C,0.00787*%
%ADD47C,0.02362*%
%ADD48C,0.00984*%
%ADD49C,0.00394*%
%ADD50C,0.07874*%
%ADD51C,0.00500*%
%ADD52C,0.00600*%
%ADD53C,0.00700*%
%ADD54C,0.01000*%
D46*
X381000Y-116659D02*
G03*
X381000Y-119159I0J-1250D01*
G01*
X338500Y-125159D02*
G03*
X338500Y-127659I0J-1250D01*
G01*
X159047Y-91807D02*
X164953D01*
X159047Y-105193D02*
X164953D01*
X190247Y-286593D02*
X196153D01*
X190247Y-273207D02*
X196153D01*
X239693Y-352453D02*
Y-346547D01*
X226307Y-352453D02*
Y-346547D01*
X219026Y-352453D02*
Y-346547D01*
X205640Y-352453D02*
Y-346547D01*
X198360Y-352453D02*
Y-346547D01*
X184974Y-352453D02*
Y-346547D01*
X177693Y-352453D02*
Y-346547D01*
X164307Y-352453D02*
Y-346547D01*
X195860Y-36953D02*
Y-31047D01*
X182474Y-36953D02*
Y-31047D01*
X237193Y-36953D02*
Y-31047D01*
X223807Y-36953D02*
Y-31047D01*
X216526Y-36953D02*
Y-31047D01*
X203140Y-36953D02*
Y-31047D01*
X175193Y-36953D02*
Y-31047D01*
X161807Y-36953D02*
Y-31047D01*
X29764Y-61685D02*
Y-22315D01*
X236Y-61685D02*
Y-22315D01*
X29764D01*
X236Y-61685D02*
X29764D01*
Y-355638D02*
Y-316268D01*
X236Y-355638D02*
Y-316268D01*
X29764D01*
X236Y-355638D02*
X29764D01*
X361000Y-198512D02*
Y-193394D01*
X381000Y-116659D02*
Y-103283D01*
Y-132535D02*
Y-119159D01*
X361000Y-132535D02*
X381000D01*
X361000D02*
Y-103283D01*
X381000D01*
X338500Y-125159D02*
Y-111783D01*
Y-141035D02*
Y-127659D01*
X318500Y-141035D02*
X338500D01*
X318500D02*
Y-111783D01*
X338500D01*
X374200Y-46712D02*
Y-41594D01*
X374400Y-32912D02*
Y-27794D01*
X374100Y-15112D02*
Y-9994D01*
X350881Y-7263D02*
X355999D01*
X349700Y-23912D02*
Y-18794D01*
X331600Y-2312D02*
Y2806D01*
X331900Y-13162D02*
Y-8044D01*
X331600Y-24012D02*
Y-18894D01*
X313500Y-2412D02*
Y2706D01*
X106494Y-257247D02*
X118306D01*
X106494Y-244058D02*
X118306D01*
X106494Y-221047D02*
X118306D01*
X106494Y-207858D02*
X118306D01*
X38515Y-358689D02*
X77885D01*
X38515Y-388216D02*
X77885D01*
X38515D02*
Y-358689D01*
X77885Y-388216D02*
Y-358689D01*
X29764Y-267638D02*
Y-228268D01*
X236Y-267638D02*
Y-228268D01*
X29764D01*
X236Y-267638D02*
X29764D01*
Y-192717D02*
Y-153347D01*
X236Y-192717D02*
Y-153347D01*
X29764D01*
X236Y-192717D02*
X29764D01*
Y-117795D02*
Y-78425D01*
X236Y-117795D02*
Y-78425D01*
X29764D01*
X236Y-117795D02*
X29764D01*
X371141Y-152053D02*
X376259D01*
X308441Y-320953D02*
X313559D01*
X299000Y-233512D02*
Y-228394D01*
Y-225512D02*
Y-220394D01*
Y-217512D02*
Y-212394D01*
Y-209512D02*
Y-204394D01*
Y-201512D02*
Y-196394D01*
Y-193512D02*
Y-188394D01*
X42158Y-255058D02*
Y-243247D01*
X61843Y-255058D02*
Y-243247D01*
X42158Y-255058D02*
X61843D01*
X42158Y-243247D02*
X61843D01*
X42158Y-179958D02*
Y-168147D01*
X61843Y-179958D02*
Y-168147D01*
X42158Y-179958D02*
X61843D01*
X42158Y-168147D02*
X61843D01*
X42158Y-104858D02*
Y-93047D01*
X61843Y-104858D02*
Y-93047D01*
X42158Y-104858D02*
X61843D01*
X42158Y-93047D02*
X61843D01*
X312504Y-269622D02*
X325496D01*
X312504Y-253284D02*
X325496D01*
X288004Y-181122D02*
X300996D01*
X288004Y-164784D02*
X300996D01*
X276398Y-137784D02*
X289390D01*
X276398Y-154122D02*
X289390D01*
X277504Y-110784D02*
X290496D01*
X277504Y-127122D02*
X290496D01*
X41615Y-19516D02*
X80985D01*
X41615Y10011D02*
X80985D01*
Y-19516D02*
Y10011D01*
X41615Y-19516D02*
Y10011D01*
X369041Y-59753D02*
X374159D01*
X362204Y-73383D02*
X375196D01*
X362204Y-89722D02*
X375196D01*
X377341Y-59753D02*
X382459D01*
D47*
X59087Y-247184D02*
G03*
X59087Y-247184I-1181J0D01*
G01*
Y-172084D02*
G03*
X59087Y-172084I-1181J0D01*
G01*
Y-96984D02*
G03*
X59087Y-96984I-1181J0D01*
G01*
D48*
X63437Y-238129D02*
G03*
X63437Y-238129I-492J0D01*
G01*
Y-163029D02*
G03*
X63437Y-163029I-492J0D01*
G01*
Y-87929D02*
G03*
X63437Y-87929I-492J0D01*
G01*
D49*
X302220Y-252055D02*
G03*
X302220Y-252055I-197J0D01*
G01*
X277720Y-163555D02*
G03*
X277720Y-163555I-197J0D01*
G01*
X300067Y-155351D02*
G03*
X300067Y-155351I-197J0D01*
G01*
X301174Y-128351D02*
G03*
X301174Y-128351I-197J0D01*
G01*
X351920Y-72155D02*
G03*
X351920Y-72155I-197J0D01*
G01*
D50*
X71086Y-330453D02*
G03*
X71086Y-330453I-12051J0D01*
G01*
X355000D02*
G03*
X355000Y-330453I-12500J0D01*
G01*
X355977Y-46988D02*
G03*
X355977Y-46988I-13477J0D01*
G01*
X71517D02*
G03*
X71517Y-46988I-12482J0D01*
G01*
D51*
X378095Y-218503D02*
Y-210403D01*
X362905D02*
X378095D01*
X362905Y-218503D02*
X378095D01*
X362905D02*
Y-210403D01*
X353264Y-199949D02*
Y-191957D01*
Y-199949D02*
X368736D01*
Y-191957D01*
X353264D02*
X368736D01*
X339950Y-134858D02*
X348050D01*
X339950Y-150048D02*
Y-134858D01*
X348050Y-150048D02*
Y-134858D01*
X339950Y-150048D02*
X348050D01*
X366464Y-48149D02*
Y-40157D01*
Y-48149D02*
X381936D01*
Y-40157D01*
X366464D02*
X381936D01*
X382136Y-34349D02*
Y-26357D01*
X366664D02*
X382136D01*
X366664Y-34349D02*
Y-26357D01*
Y-34349D02*
X382136D01*
X381836Y-16549D02*
Y-8557D01*
X366364D02*
X381836D01*
X366364Y-16549D02*
Y-8557D01*
Y-16549D02*
X381836D01*
X349444Y474D02*
X357436D01*
X349444Y-14999D02*
Y474D01*
Y-14999D02*
X357436D01*
Y474D01*
Y-25349D02*
Y-17357D01*
X341964D02*
X357436D01*
X341964Y-25349D02*
Y-17357D01*
Y-25349D02*
X357436D01*
X323864Y-3749D02*
Y4243D01*
Y-3749D02*
X339336D01*
Y4243D01*
X323864D02*
X339336D01*
X339636Y-14599D02*
Y-6607D01*
X324164D02*
X339636D01*
X324164Y-14599D02*
Y-6607D01*
Y-14599D02*
X339636D01*
X323864Y-25449D02*
Y-17457D01*
Y-25449D02*
X339336D01*
Y-17457D01*
X323864D02*
X339336D01*
X305764Y-3849D02*
Y4143D01*
Y-3849D02*
X321236D01*
Y4143D01*
X305764D02*
X321236D01*
X377696Y-159789D02*
Y-144316D01*
X369704Y-159789D02*
X377696D01*
X369704D02*
Y-144316D01*
X377696D01*
X314996Y-328689D02*
Y-313216D01*
X307004Y-328689D02*
X314996D01*
X307004D02*
Y-313216D01*
X314996D01*
X291264Y-226957D02*
X306736D01*
Y-234949D02*
Y-226957D01*
X291264Y-234949D02*
X306736D01*
X291264D02*
Y-226957D01*
Y-218957D02*
X306736D01*
Y-226949D02*
Y-218957D01*
X291264Y-226949D02*
X306736D01*
X291264D02*
Y-218957D01*
Y-210957D02*
X306736D01*
Y-218949D02*
Y-210957D01*
X291264Y-218949D02*
X306736D01*
X291264D02*
Y-210957D01*
Y-202957D02*
X306736D01*
Y-210949D02*
Y-202957D01*
X291264Y-210949D02*
X306736D01*
X291264D02*
Y-202957D01*
Y-194957D02*
X306736D01*
Y-202949D02*
Y-194957D01*
X291264Y-202949D02*
X306736D01*
X291264D02*
Y-194957D01*
Y-186957D02*
X306736D01*
Y-194949D02*
Y-186957D01*
X291264Y-194949D02*
X306736D01*
X291264D02*
Y-186957D01*
X368495Y-179403D02*
Y-171303D01*
X353305D02*
X368495D01*
X353305Y-179403D02*
X368495D01*
X353305D02*
Y-171303D01*
X367604Y-67489D02*
Y-52017D01*
X375596D01*
Y-67489D02*
Y-52017D01*
X367604Y-67489D02*
X375596D01*
X359150Y-54958D02*
X367250D01*
X359150Y-70148D02*
Y-54958D01*
X367250Y-70148D02*
Y-54958D01*
X359150Y-70148D02*
X367250D01*
X375904Y-52017D02*
X383896D01*
X375904Y-67489D02*
Y-52017D01*
Y-67489D02*
X383896D01*
Y-52017D01*
X371850Y-171558D02*
X379950D01*
X371850Y-186748D02*
Y-171558D01*
X379950Y-186748D02*
Y-171558D01*
X371850Y-186748D02*
X379950D01*
X340850Y-98358D02*
X348950D01*
X340850Y-113548D02*
Y-98358D01*
X348950Y-113548D02*
Y-98358D01*
X340850Y-113548D02*
X348950D01*
X44005Y-131903D02*
Y-123803D01*
Y-131903D02*
X59195D01*
X44005Y-123803D02*
X59195D01*
Y-131903D02*
Y-123803D01*
X44005Y-208703D02*
Y-200603D01*
Y-208703D02*
X59195D01*
X44005Y-200603D02*
X59195D01*
Y-208703D02*
Y-200603D01*
X44005Y-285503D02*
Y-277403D01*
Y-285503D02*
X59195D01*
X44005Y-277403D02*
X59195D01*
Y-285503D02*
Y-277403D01*
X279450Y-252548D02*
X287550D01*
Y-237358D01*
X279450Y-252548D02*
Y-237358D01*
X287550D01*
D52*
X364862Y-350853D02*
Y-349853D01*
Y-350353D01*
X367862D01*
Y-350853D01*
Y-349853D01*
Y-348354D02*
X365862D01*
Y-346854D01*
X366362Y-346354D01*
X367862D01*
X365862Y-345355D02*
X367862Y-344355D01*
X365862Y-343355D01*
X367862Y-340856D02*
Y-341856D01*
X367362Y-342355D01*
X366362D01*
X365862Y-341856D01*
Y-340856D01*
X366362Y-340356D01*
X366862D01*
Y-342355D01*
X365862Y-339356D02*
X367862D01*
X366862D01*
X366362Y-338857D01*
X365862Y-338357D01*
Y-337857D01*
X365362Y-335858D02*
X365862D01*
Y-336357D01*
Y-335358D01*
Y-335858D01*
X367362D01*
X367862Y-335358D01*
Y-332359D02*
Y-333358D01*
X367362Y-333858D01*
X366362D01*
X365862Y-333358D01*
Y-332359D01*
X366362Y-331859D01*
X366862D01*
Y-333858D01*
X365862Y-330859D02*
X367862D01*
X366862D01*
X366362Y-330359D01*
X365862Y-329859D01*
Y-329360D01*
X367862Y-324861D02*
X364862D01*
Y-323362D01*
X365362Y-322862D01*
X366362D01*
X366862Y-323362D01*
Y-324861D01*
Y-323862D02*
X367862Y-322862D01*
X364862Y-319863D02*
Y-321862D01*
X367862D01*
Y-319863D01*
X366362Y-321862D02*
Y-320862D01*
X364862Y-318863D02*
X366862D01*
X367862Y-317863D01*
X366862Y-316864D01*
X364862D01*
X365362Y-315864D02*
X364862Y-315364D01*
Y-314365D01*
X365362Y-313865D01*
X365862D01*
X366362Y-314365D01*
Y-314864D01*
Y-314365D01*
X366862Y-313865D01*
X367362D01*
X367862Y-314365D01*
Y-315364D01*
X367362Y-315864D01*
X367862Y-312865D02*
X367362D01*
Y-312365D01*
X367862D01*
Y-312865D01*
X365362Y-310366D02*
X364862Y-309866D01*
Y-308866D01*
X365362Y-308366D01*
X367362D01*
X367862Y-308866D01*
Y-309866D01*
X367362Y-310366D01*
X365362D01*
X370901Y-350853D02*
X372900Y-349853D01*
X370901Y-348853D01*
X372900Y-347854D02*
X372400D01*
Y-347354D01*
X372900D01*
Y-347854D01*
Y-345355D02*
X370901D01*
Y-344855D01*
X371401Y-344355D01*
X372900D01*
X371401D01*
X370901Y-343855D01*
X371401Y-343355D01*
X372900D01*
Y-341856D02*
Y-340856D01*
X372400Y-340356D01*
X371401D01*
X370901Y-340856D01*
Y-341856D01*
X371401Y-342355D01*
X372400D01*
X372900Y-341856D01*
X370901Y-339356D02*
X372900D01*
X371901D01*
X371401Y-338857D01*
X370901Y-338357D01*
Y-337857D01*
Y-335858D02*
Y-334858D01*
X371401Y-334358D01*
X372900D01*
Y-335858D01*
X372400Y-336357D01*
X371901Y-335858D01*
Y-334358D01*
X372900Y-333358D02*
Y-332359D01*
Y-332859D01*
X370901D01*
Y-333358D01*
X372900Y-330859D02*
Y-329360D01*
X372400Y-328860D01*
X371901Y-329360D01*
Y-330359D01*
X371401Y-330859D01*
X370901Y-330359D01*
Y-328860D01*
X371901Y-326361D02*
X371401D01*
Y-326860D01*
X371901D01*
Y-326361D01*
X371401Y-325861D01*
X370401D01*
X369901Y-326361D01*
Y-327360D01*
X370401Y-327860D01*
X372400D01*
X372900Y-327360D01*
Y-325861D01*
Y-324361D02*
X370401D01*
X371401D01*
Y-324861D01*
Y-323862D01*
Y-324361D01*
X370401D01*
X369901Y-323862D01*
X372900Y-320862D02*
Y-321862D01*
X372400Y-322362D01*
X371401D01*
X370901Y-321862D01*
Y-320862D01*
X371401Y-320363D01*
X371901D01*
Y-322362D01*
X372900Y-319363D02*
X372400D01*
Y-318863D01*
X372900D01*
Y-319363D01*
X370901Y-316864D02*
X372400D01*
X372900Y-316364D01*
Y-314864D01*
X370901D01*
X373900Y-313865D02*
X370901D01*
Y-312365D01*
X371401Y-311865D01*
X372400D01*
X372900Y-312365D01*
Y-313865D01*
Y-310866D02*
X372400D01*
Y-310366D01*
X372900D01*
Y-310866D01*
X373900Y-308366D02*
X370901D01*
Y-306867D01*
X371401Y-306367D01*
X372400D01*
X372900Y-306867D01*
Y-308366D01*
X370401Y-304868D02*
X370901D01*
Y-305367D01*
Y-304368D01*
Y-304868D01*
X372400D01*
X372900Y-304368D01*
X317499Y-259954D02*
X317000Y-259454D01*
X316000D01*
X315500Y-259954D01*
Y-261953D01*
X316000Y-262453D01*
X317000D01*
X317499Y-261953D01*
X320498Y-262453D02*
X318499D01*
X320498Y-260453D01*
Y-259954D01*
X319999Y-259454D01*
X318999D01*
X318499Y-259954D01*
X321498Y-259454D02*
X323497D01*
Y-259954D01*
X321498Y-261953D01*
Y-262453D01*
X307000Y-310953D02*
Y-307954D01*
X308500D01*
X308999Y-308454D01*
Y-309453D01*
X308500Y-309953D01*
X307000D01*
X308000D02*
X308999Y-310953D01*
X309999D02*
X310999D01*
X310499D01*
Y-307954D01*
X309999Y-308454D01*
X314498Y-307954D02*
X312498D01*
Y-309453D01*
X313498Y-308953D01*
X313998D01*
X314498Y-309453D01*
Y-310453D01*
X313998Y-310953D01*
X312998D01*
X312498Y-310453D01*
X309705Y-234303D02*
Y-231304D01*
X311204D01*
X311704Y-231804D01*
Y-232804D01*
X311204Y-233303D01*
X309705D01*
X310704D02*
X311704Y-234303D01*
X312704D02*
X313703D01*
X313204D01*
Y-231304D01*
X312704Y-231804D01*
X309705Y-226303D02*
Y-223304D01*
X311204D01*
X311704Y-223804D01*
Y-224804D01*
X311204Y-225304D01*
X309705D01*
X310704D02*
X311704Y-226303D01*
X314703D02*
X312704D01*
X314703Y-224304D01*
Y-223804D01*
X314203Y-223304D01*
X313204D01*
X312704Y-223804D01*
X308937Y-217953D02*
Y-214954D01*
X310437D01*
X310936Y-215454D01*
Y-216453D01*
X310437Y-216953D01*
X308937D01*
X309937D02*
X310936Y-217953D01*
X311936Y-215454D02*
X312436Y-214954D01*
X313436D01*
X313935Y-215454D01*
Y-215953D01*
X313436Y-216453D01*
X312936D01*
X313436D01*
X313935Y-216953D01*
Y-217453D01*
X313436Y-217953D01*
X312436D01*
X311936Y-217453D01*
X309000Y-209953D02*
Y-206954D01*
X310500D01*
X310999Y-207454D01*
Y-208453D01*
X310500Y-208953D01*
X309000D01*
X310000D02*
X310999Y-209953D01*
X313498D02*
Y-206954D01*
X311999Y-208453D01*
X313998D01*
X309000Y-201953D02*
Y-198954D01*
X310500D01*
X310999Y-199454D01*
Y-200453D01*
X310500Y-200953D01*
X309000D01*
X310000D02*
X310999Y-201953D01*
X313998Y-198954D02*
X311999D01*
Y-200453D01*
X312999Y-199953D01*
X313498D01*
X313998Y-200453D01*
Y-201453D01*
X313498Y-201953D01*
X312499D01*
X311999Y-201453D01*
X309000Y-193953D02*
Y-190954D01*
X310500D01*
X310999Y-191454D01*
Y-192453D01*
X310500Y-192953D01*
X309000D01*
X310000D02*
X310999Y-193953D01*
X313998Y-190954D02*
X312999Y-191454D01*
X311999Y-192453D01*
Y-193453D01*
X312499Y-193953D01*
X313498D01*
X313998Y-193453D01*
Y-192953D01*
X313498Y-192453D01*
X311999D01*
X293499Y-171954D02*
X293000Y-171454D01*
X292000D01*
X291500Y-171954D01*
Y-173953D01*
X292000Y-174453D01*
X293000D01*
X293499Y-173953D01*
X294499Y-171954D02*
X294999Y-171454D01*
X295999D01*
X296498Y-171954D01*
Y-172453D01*
X295999Y-172953D01*
X296498Y-173453D01*
Y-173953D01*
X295999Y-174453D01*
X294999D01*
X294499Y-173953D01*
Y-173453D01*
X294999Y-172953D01*
X294499Y-172453D01*
Y-171954D01*
X294999Y-172953D02*
X295999D01*
X283499Y-145454D02*
X282999Y-144954D01*
X282000D01*
X281500Y-145454D01*
Y-147453D01*
X282000Y-147953D01*
X282999D01*
X283499Y-147453D01*
X286498Y-144954D02*
X285499Y-145454D01*
X284499Y-146453D01*
Y-147453D01*
X284999Y-147953D01*
X285999D01*
X286498Y-147453D01*
Y-146953D01*
X285999Y-146453D01*
X284499D01*
X282999Y-117954D02*
X282500Y-117454D01*
X281500D01*
X281000Y-117954D01*
Y-119953D01*
X281500Y-120453D01*
X282500D01*
X282999Y-119953D01*
X285498Y-120453D02*
Y-117454D01*
X283999Y-118953D01*
X285998D01*
X30500Y-366953D02*
Y-368952D01*
X31999Y-369952D02*
X30000D01*
X29000Y-370952D01*
X30000Y-371951D01*
X31999D01*
Y-372951D02*
X29000D01*
Y-374450D01*
X29500Y-374950D01*
X31499D01*
X31999Y-374450D01*
Y-372951D01*
X31499Y-377949D02*
X31999Y-377449D01*
Y-376450D01*
X31499Y-375950D01*
X29500D01*
X29000Y-376450D01*
Y-377449D01*
X29500Y-377949D01*
X29000Y-378949D02*
Y-379948D01*
Y-379449D01*
X31999D01*
X31499Y-378949D01*
X34499Y1547D02*
Y-452D01*
X35499Y548D02*
X33500D01*
X35999Y-1452D02*
X34000D01*
X33000Y-2451D01*
X34000Y-3451D01*
X35999D01*
Y-4451D02*
X33000D01*
Y-5950D01*
X33500Y-6450D01*
X35499D01*
X35999Y-5950D01*
Y-4451D01*
X35499Y-9449D02*
X35999Y-8949D01*
Y-7950D01*
X35499Y-7450D01*
X33500D01*
X33000Y-7950D01*
Y-8949D01*
X33500Y-9449D01*
X33000Y-10449D02*
Y-11449D01*
Y-10949D01*
X35999D01*
X35499Y-10449D01*
X13300Y-220354D02*
Y-223353D01*
X14300Y-222353D01*
X15299Y-223353D01*
Y-220354D01*
X16299Y-223353D02*
X17299D01*
X16799D01*
Y-220354D01*
X16299Y-220854D01*
X13300Y-146254D02*
Y-148253D01*
X14300Y-149253D01*
X15299Y-148253D01*
Y-146254D01*
X16299Y-149253D02*
X17299D01*
X16799D01*
Y-146254D01*
X16299Y-146754D01*
X13300Y-72454D02*
Y-74953D01*
X13800Y-75453D01*
X14799D01*
X15299Y-74953D01*
Y-72454D01*
X16299Y-75453D02*
X17299D01*
X16799D01*
Y-72454D01*
X16299Y-72954D01*
X65499Y-280954D02*
X65000Y-280454D01*
X64000D01*
X63500Y-280954D01*
Y-282953D01*
X64000Y-283453D01*
X65000D01*
X65499Y-282953D01*
X66499Y-280954D02*
X66999Y-280454D01*
X67999D01*
X68498Y-280954D01*
Y-281453D01*
X67999Y-281953D01*
X67499D01*
X67999D01*
X68498Y-282453D01*
Y-282953D01*
X67999Y-283453D01*
X66999D01*
X66499Y-282953D01*
X65999Y-203954D02*
X65500Y-203454D01*
X64500D01*
X64000Y-203954D01*
Y-205953D01*
X64500Y-206453D01*
X65500D01*
X65999Y-205953D01*
X68998Y-206453D02*
X66999D01*
X68998Y-204453D01*
Y-203954D01*
X68499Y-203454D01*
X67499D01*
X66999Y-203954D01*
X66499Y-127454D02*
X66000Y-126954D01*
X65000D01*
X64500Y-127454D01*
Y-129453D01*
X65000Y-129953D01*
X66000D01*
X66499Y-129453D01*
X67499Y-129953D02*
X68499D01*
X67999D01*
Y-126954D01*
X67499Y-127454D01*
X46999Y-95454D02*
X46499Y-94954D01*
X45500D01*
X45000Y-95454D01*
Y-97453D01*
X45500Y-97953D01*
X46499D01*
X46999Y-97453D01*
X49998Y-95454D02*
X49499Y-94954D01*
X48499D01*
X47999Y-95454D01*
Y-97453D01*
X48499Y-97953D01*
X49499D01*
X49998Y-97453D01*
X50998Y-97953D02*
X51998D01*
X51498D01*
Y-94954D01*
X50998Y-95454D01*
X46499Y-170454D02*
X46000Y-169954D01*
X45000D01*
X44500Y-170454D01*
Y-172453D01*
X45000Y-172953D01*
X46000D01*
X46499Y-172453D01*
X49498Y-170454D02*
X48999Y-169954D01*
X47999D01*
X47499Y-170454D01*
Y-172453D01*
X47999Y-172953D01*
X48999D01*
X49498Y-172453D01*
X52497Y-172953D02*
X50498D01*
X52497Y-170953D01*
Y-170454D01*
X51998Y-169954D01*
X50998D01*
X50498Y-170454D01*
X46499Y-245954D02*
X46000Y-245454D01*
X45000D01*
X44500Y-245954D01*
Y-247953D01*
X45000Y-248453D01*
X46000D01*
X46499Y-247953D01*
X49498Y-245954D02*
X48999Y-245454D01*
X47999D01*
X47499Y-245954D01*
Y-247953D01*
X47999Y-248453D01*
X48999D01*
X49498Y-247953D01*
X50498Y-245954D02*
X50998Y-245454D01*
X51998D01*
X52497Y-245954D01*
Y-246453D01*
X51998Y-246953D01*
X51498D01*
X51998D01*
X52497Y-247453D01*
Y-247953D01*
X51998Y-248453D01*
X50998D01*
X50498Y-247953D01*
X352499Y-105454D02*
X351999Y-104954D01*
X351000D01*
X350500Y-105454D01*
Y-107453D01*
X351000Y-107953D01*
X351999D01*
X352499Y-107453D01*
X353499Y-105454D02*
X353999Y-104954D01*
X354998D01*
X355498Y-105454D01*
Y-105953D01*
X354998Y-106453D01*
X354499D01*
X354998D01*
X355498Y-106953D01*
Y-107453D01*
X354998Y-107953D01*
X353999D01*
X353499Y-107453D01*
X356498Y-105454D02*
X356998Y-104954D01*
X357998D01*
X358497Y-105454D01*
Y-105953D01*
X357998Y-106453D01*
X357498D01*
X357998D01*
X358497Y-106953D01*
Y-107453D01*
X357998Y-107953D01*
X356998D01*
X356498Y-107453D01*
X366499Y-80954D02*
X366000Y-80454D01*
X365000D01*
X364500Y-80954D01*
Y-82953D01*
X365000Y-83453D01*
X366000D01*
X366499Y-82953D01*
X367499Y-80954D02*
X367999Y-80454D01*
X368999D01*
X369498Y-80954D01*
Y-81453D01*
X368999Y-81953D01*
X368499D01*
X368999D01*
X369498Y-82453D01*
Y-82953D01*
X368999Y-83453D01*
X367999D01*
X367499Y-82953D01*
X371998Y-83453D02*
Y-80454D01*
X370498Y-81953D01*
X372497D01*
X351999Y-65454D02*
X351500Y-64954D01*
X350500D01*
X350000Y-65454D01*
Y-67453D01*
X350500Y-67953D01*
X351500D01*
X351999Y-67453D01*
X352999Y-65454D02*
X353499Y-64954D01*
X354499D01*
X354998Y-65454D01*
Y-65953D01*
X354499Y-66453D01*
X353999D01*
X354499D01*
X354998Y-66953D01*
Y-67453D01*
X354499Y-67953D01*
X353499D01*
X352999Y-67453D01*
X355998Y-64954D02*
X357997D01*
Y-65454D01*
X355998Y-67453D01*
Y-67953D01*
X358999Y-180954D02*
X358500Y-180454D01*
X357500D01*
X357000Y-180954D01*
Y-182953D01*
X357500Y-183453D01*
X358500D01*
X358999Y-182953D01*
X359999Y-180954D02*
X360499Y-180454D01*
X361498D01*
X361998Y-180954D01*
Y-181453D01*
X361498Y-181953D01*
X360999D01*
X361498D01*
X361998Y-182453D01*
Y-182953D01*
X361498Y-183453D01*
X360499D01*
X359999Y-182953D01*
X362998Y-180954D02*
X363498Y-180454D01*
X364498D01*
X364997Y-180954D01*
Y-181453D01*
X364498Y-181953D01*
X364997Y-182453D01*
Y-182953D01*
X364498Y-183453D01*
X363498D01*
X362998Y-182953D01*
Y-182453D01*
X363498Y-181953D01*
X362998Y-181453D01*
Y-180954D01*
X363498Y-181953D02*
X364498D01*
X373499Y-187954D02*
X373000Y-187454D01*
X372000D01*
X371500Y-187954D01*
Y-189953D01*
X372000Y-190453D01*
X373000D01*
X373499Y-189953D01*
X374499Y-187954D02*
X374999Y-187454D01*
X375998D01*
X376498Y-187954D01*
Y-188453D01*
X375998Y-188953D01*
X375499D01*
X375998D01*
X376498Y-189453D01*
Y-189953D01*
X375998Y-190453D01*
X374999D01*
X374499Y-189953D01*
X377498D02*
X377998Y-190453D01*
X378998D01*
X379497Y-189953D01*
Y-187954D01*
X378998Y-187454D01*
X377998D01*
X377498Y-187954D01*
Y-188453D01*
X377998Y-188953D01*
X379497D01*
X109000Y-225953D02*
Y-222954D01*
X110500D01*
X110999Y-223454D01*
Y-224453D01*
X110500Y-224953D01*
X109000D01*
X110000D02*
X110999Y-225953D01*
X111999Y-222954D02*
X113998D01*
Y-223454D01*
X111999Y-225453D01*
Y-225953D01*
X109500Y-261953D02*
Y-258954D01*
X111000D01*
X111499Y-259454D01*
Y-260453D01*
X111000Y-260953D01*
X109500D01*
X110500D02*
X111499Y-261953D01*
X112499Y-261453D02*
X112999Y-261953D01*
X113999D01*
X114498Y-261453D01*
Y-259454D01*
X113999Y-258954D01*
X112999D01*
X112499Y-259454D01*
Y-259953D01*
X112999Y-260453D01*
X114498D01*
X360000Y-148953D02*
Y-145954D01*
X361500D01*
X361999Y-146454D01*
Y-147453D01*
X361500Y-147953D01*
X360000D01*
X361000D02*
X361999Y-148953D01*
X364998D02*
X362999D01*
X364998Y-146953D01*
Y-146454D01*
X364498Y-145954D01*
X363499D01*
X362999Y-146454D01*
X367498Y-148953D02*
Y-145954D01*
X365998Y-147453D01*
X367997D01*
X367000Y-71453D02*
Y-68454D01*
X368499D01*
X368999Y-68954D01*
Y-69953D01*
X368499Y-70453D01*
X367000D01*
X368000D02*
X368999Y-71453D01*
X371998D02*
X369999D01*
X371998Y-69453D01*
Y-68954D01*
X371498Y-68454D01*
X370499D01*
X369999Y-68954D01*
X374997Y-68454D02*
X372998D01*
Y-69953D01*
X373998Y-69453D01*
X374498D01*
X374997Y-69953D01*
Y-70953D01*
X374498Y-71453D01*
X373498D01*
X372998Y-70953D01*
X374000Y-105454D02*
Y-107953D01*
X374500Y-108453D01*
X375500D01*
X375999Y-107953D01*
Y-105454D01*
X378998D02*
X376999D01*
Y-106953D01*
X377999Y-106453D01*
X378499D01*
X378998Y-106953D01*
Y-107953D01*
X378499Y-108453D01*
X377499D01*
X376999Y-107953D01*
X370500Y-38453D02*
Y-35454D01*
X372000D01*
X372499Y-35954D01*
Y-36953D01*
X372000Y-37453D01*
X370500D01*
X371500D02*
X372499Y-38453D01*
X375498D02*
X373499D01*
X375498Y-36453D01*
Y-35954D01*
X374998Y-35454D01*
X373999D01*
X373499Y-35954D01*
X376498Y-38453D02*
X377498D01*
X376998D01*
Y-35454D01*
X376498Y-35954D01*
X365000Y-43953D02*
X362001D01*
Y-42453D01*
X362501Y-41953D01*
X363500D01*
X364000Y-42453D01*
Y-43953D01*
Y-42953D02*
X365000Y-41953D01*
Y-38954D02*
Y-40954D01*
X363001Y-38954D01*
X362501D01*
X362001Y-39454D01*
Y-40454D01*
X362501Y-40954D01*
X365000Y-35955D02*
Y-37955D01*
X363001Y-35955D01*
X362501D01*
X362001Y-36455D01*
Y-37455D01*
X362501Y-37955D01*
X376000Y-71453D02*
Y-68454D01*
X377500D01*
X377999Y-68954D01*
Y-69953D01*
X377500Y-70453D01*
X376000D01*
X377000D02*
X377999Y-71453D01*
X380998D02*
X378999D01*
X380998Y-69453D01*
Y-68954D01*
X380499Y-68454D01*
X379499D01*
X378999Y-68954D01*
X381998D02*
X382498Y-68454D01*
X383498D01*
X383997Y-68954D01*
Y-69453D01*
X383498Y-69953D01*
X382998D01*
X383498D01*
X383997Y-70453D01*
Y-70953D01*
X383498Y-71453D01*
X382498D01*
X381998Y-70953D01*
X369500Y-20453D02*
Y-17454D01*
X371000D01*
X371499Y-17954D01*
Y-18953D01*
X371000Y-19453D01*
X369500D01*
X370500D02*
X371499Y-20453D01*
X374498D02*
X372499D01*
X374498Y-18453D01*
Y-17954D01*
X373998Y-17454D01*
X372999D01*
X372499Y-17954D01*
X375498Y-17454D02*
X377497D01*
Y-17954D01*
X375498Y-19953D01*
Y-20453D01*
X358500Y-4453D02*
Y-1454D01*
X359999D01*
X360499Y-1954D01*
Y-2953D01*
X359999Y-3453D01*
X358500D01*
X359500D02*
X360499Y-4453D01*
X363498D02*
X361499D01*
X363498Y-2453D01*
Y-1954D01*
X362999Y-1454D01*
X361999D01*
X361499Y-1954D01*
X364498D02*
X364998Y-1454D01*
X365998D01*
X366497Y-1954D01*
Y-2453D01*
X365998Y-2953D01*
X366497Y-3453D01*
Y-3953D01*
X365998Y-4453D01*
X364998D01*
X364498Y-3953D01*
Y-3453D01*
X364998Y-2953D01*
X364498Y-2453D01*
Y-1954D01*
X364998Y-2953D02*
X365998D01*
X345500Y-28953D02*
Y-25954D01*
X347000D01*
X347499Y-26454D01*
Y-27453D01*
X347000Y-27953D01*
X345500D01*
X346500D02*
X347499Y-28953D01*
X350498D02*
X348499D01*
X350498Y-26953D01*
Y-26454D01*
X349998Y-25954D01*
X348999D01*
X348499Y-26454D01*
X351498Y-28453D02*
X351998Y-28953D01*
X352998D01*
X353497Y-28453D01*
Y-26454D01*
X352998Y-25954D01*
X351998D01*
X351498Y-26454D01*
Y-26953D01*
X351998Y-27453D01*
X353497D01*
X307500Y-8953D02*
Y-5954D01*
X308999D01*
X309499Y-6454D01*
Y-7453D01*
X308999Y-7953D01*
X307500D01*
X308500D02*
X309499Y-8953D01*
X310499Y-6454D02*
X310999Y-5954D01*
X311999D01*
X312498Y-6454D01*
Y-6953D01*
X311999Y-7453D01*
X311499D01*
X311999D01*
X312498Y-7953D01*
Y-8453D01*
X311999Y-8953D01*
X310999D01*
X310499Y-8453D01*
X313498Y-6454D02*
X313998Y-5954D01*
X314998D01*
X315497Y-6454D01*
Y-8453D01*
X314998Y-8953D01*
X313998D01*
X313498Y-8453D01*
Y-6454D01*
X327000Y-6607D02*
Y-3608D01*
X328500D01*
X328999Y-4107D01*
Y-5107D01*
X328500Y-5607D01*
X327000D01*
X328000D02*
X328999Y-6607D01*
X329999Y-4107D02*
X330499Y-3608D01*
X331499D01*
X331998Y-4107D01*
Y-4607D01*
X331499Y-5107D01*
X330999D01*
X331499D01*
X331998Y-5607D01*
Y-6107D01*
X331499Y-6607D01*
X330499D01*
X329999Y-6107D01*
X332998Y-6607D02*
X333998D01*
X333498D01*
Y-3608D01*
X332998Y-4107D01*
X327000Y-17457D02*
Y-14458D01*
X328500D01*
X328999Y-14957D01*
Y-15957D01*
X328500Y-16457D01*
X327000D01*
X328000D02*
X328999Y-17457D01*
X329999Y-14957D02*
X330499Y-14458D01*
X331499D01*
X331998Y-14957D01*
Y-15457D01*
X331499Y-15957D01*
X330999D01*
X331499D01*
X331998Y-16457D01*
Y-16957D01*
X331499Y-17457D01*
X330499D01*
X329999Y-16957D01*
X334997Y-17457D02*
X332998D01*
X334997Y-15457D01*
Y-14957D01*
X334498Y-14458D01*
X333498D01*
X332998Y-14957D01*
X326500Y-29953D02*
Y-26954D01*
X327999D01*
X328499Y-27454D01*
Y-28453D01*
X327999Y-28953D01*
X326500D01*
X327500D02*
X328499Y-29953D01*
X329499Y-27454D02*
X329999Y-26954D01*
X330998D01*
X331498Y-27454D01*
Y-27953D01*
X330998Y-28453D01*
X330499D01*
X330998D01*
X331498Y-28953D01*
Y-29453D01*
X330998Y-29953D01*
X329999D01*
X329499Y-29453D01*
X332498Y-27454D02*
X332998Y-26954D01*
X333998D01*
X334497Y-27454D01*
Y-27953D01*
X333998Y-28453D01*
X333498D01*
X333998D01*
X334497Y-28953D01*
Y-29453D01*
X333998Y-29953D01*
X332998D01*
X332498Y-29453D01*
X281499Y-257454D02*
X280999Y-256954D01*
X280000D01*
X279500Y-257454D01*
Y-259453D01*
X280000Y-259953D01*
X280999D01*
X281499Y-259453D01*
X284498Y-259953D02*
X282499D01*
X284498Y-257953D01*
Y-257454D01*
X283998Y-256954D01*
X282999D01*
X282499Y-257454D01*
X285498D02*
X285998Y-256954D01*
X286998D01*
X287497Y-257454D01*
Y-257953D01*
X286998Y-258453D01*
X287497Y-258953D01*
Y-259453D01*
X286998Y-259953D01*
X285998D01*
X285498Y-259453D01*
Y-258953D01*
X285998Y-258453D01*
X285498Y-257953D01*
Y-257454D01*
X285998Y-258453D02*
X286998D01*
X368999Y-220454D02*
X368499Y-219954D01*
X367500D01*
X367000Y-220454D01*
Y-222453D01*
X367500Y-222953D01*
X368499D01*
X368999Y-222453D01*
X369999Y-220454D02*
X370499Y-219954D01*
X371498D01*
X371998Y-220454D01*
Y-220953D01*
X371498Y-221453D01*
X370999D01*
X371498D01*
X371998Y-221953D01*
Y-222453D01*
X371498Y-222953D01*
X370499D01*
X369999Y-222453D01*
X374997Y-219954D02*
X372998D01*
Y-221453D01*
X373998Y-220953D01*
X374498D01*
X374997Y-221453D01*
Y-222453D01*
X374498Y-222953D01*
X373498D01*
X372998Y-222453D01*
X341999Y-151954D02*
X341499Y-151454D01*
X340500D01*
X340000Y-151954D01*
Y-153953D01*
X340500Y-154453D01*
X341499D01*
X341999Y-153953D01*
X342999Y-151954D02*
X343499Y-151454D01*
X344498D01*
X344998Y-151954D01*
Y-152453D01*
X344498Y-152953D01*
X343999D01*
X344498D01*
X344998Y-153453D01*
Y-153953D01*
X344498Y-154453D01*
X343499D01*
X342999Y-153953D01*
X347997Y-151454D02*
X346998Y-151954D01*
X345998Y-152953D01*
Y-153953D01*
X346498Y-154453D01*
X347498D01*
X347997Y-153953D01*
Y-153453D01*
X347498Y-152953D01*
X345998D01*
X357500Y-190453D02*
Y-187454D01*
X358999D01*
X359499Y-187954D01*
Y-188953D01*
X358999Y-189453D01*
X357500D01*
X358500D02*
X359499Y-190453D01*
X360499D02*
X361499D01*
X360999D01*
Y-187454D01*
X360499Y-187954D01*
X362998Y-189953D02*
X363498Y-190453D01*
X364498D01*
X364998Y-189953D01*
Y-187954D01*
X364498Y-187454D01*
X363498D01*
X362998Y-187954D01*
Y-188453D01*
X363498Y-188953D01*
X364998D01*
X331500Y-113954D02*
Y-116453D01*
X332000Y-116953D01*
X332999D01*
X333499Y-116453D01*
Y-113954D01*
X335999Y-116953D02*
Y-113954D01*
X334499Y-115453D01*
X336498D01*
D53*
X151328Y-83687D02*
X150745Y-83104D01*
X149578D01*
X148995Y-83687D01*
Y-86019D01*
X149578Y-86602D01*
X150745D01*
X151328Y-86019D01*
X154827Y-86602D02*
X152494D01*
X154827Y-84270D01*
Y-83687D01*
X154244Y-83104D01*
X153077D01*
X152494Y-83687D01*
X158326Y-83104D02*
X155993D01*
Y-84853D01*
X157159Y-84270D01*
X157742D01*
X158326Y-84853D01*
Y-86019D01*
X157742Y-86602D01*
X156576D01*
X155993Y-86019D01*
X182533Y-265084D02*
X181949Y-264501D01*
X180783D01*
X180200Y-265084D01*
Y-267417D01*
X180783Y-268000D01*
X181949D01*
X182533Y-267417D01*
X186031Y-268000D02*
X183699D01*
X186031Y-265667D01*
Y-265084D01*
X185448Y-264501D01*
X184282D01*
X183699Y-265084D01*
X188947Y-268000D02*
Y-264501D01*
X187198Y-266251D01*
X189530D01*
X226928Y-330187D02*
X226345Y-329604D01*
X225178D01*
X224595Y-330187D01*
Y-332519D01*
X225178Y-333102D01*
X226345D01*
X226928Y-332519D01*
X230427Y-333102D02*
X228094D01*
X230427Y-330770D01*
Y-330187D01*
X229844Y-329604D01*
X228677D01*
X228094Y-330187D01*
X231593D02*
X232176Y-329604D01*
X233342D01*
X233926Y-330187D01*
Y-330770D01*
X233342Y-331353D01*
X232759D01*
X233342D01*
X233926Y-331936D01*
Y-332519D01*
X233342Y-333102D01*
X232176D01*
X231593Y-332519D01*
X206261Y-330187D02*
X205678Y-329604D01*
X204512D01*
X203929Y-330187D01*
Y-332519D01*
X204512Y-333102D01*
X205678D01*
X206261Y-332519D01*
X209760Y-333102D02*
X207428D01*
X209760Y-330770D01*
Y-330187D01*
X209177Y-329604D01*
X208011D01*
X207428Y-330187D01*
X213259Y-333102D02*
X210926D01*
X213259Y-330770D01*
Y-330187D01*
X212676Y-329604D01*
X211509D01*
X210926Y-330187D01*
X185594D02*
X185011Y-329604D01*
X183845D01*
X183262Y-330187D01*
Y-332519D01*
X183845Y-333102D01*
X185011D01*
X185594Y-332519D01*
X189093Y-333102D02*
X186761D01*
X189093Y-330770D01*
Y-330187D01*
X188510Y-329604D01*
X187344D01*
X186761Y-330187D01*
X190260Y-333102D02*
X191426D01*
X190843D01*
Y-329604D01*
X190260Y-330187D01*
X164928D02*
X164345Y-329604D01*
X163178D01*
X162595Y-330187D01*
Y-332519D01*
X163178Y-333102D01*
X164345D01*
X164928Y-332519D01*
X168427Y-333102D02*
X166094D01*
X168427Y-330770D01*
Y-330187D01*
X167844Y-329604D01*
X166677D01*
X166094Y-330187D01*
X169593D02*
X170176Y-329604D01*
X171342D01*
X171926Y-330187D01*
Y-332519D01*
X171342Y-333102D01*
X170176D01*
X169593Y-332519D01*
Y-330187D01*
X183028Y-14687D02*
X182445Y-14104D01*
X181278D01*
X180695Y-14687D01*
Y-17019D01*
X181278Y-17602D01*
X182445D01*
X183028Y-17019D01*
X184194Y-17602D02*
X185360D01*
X184777D01*
Y-14104D01*
X184194Y-14687D01*
X187110D02*
X187693Y-14104D01*
X188859D01*
X189442Y-14687D01*
Y-15270D01*
X188859Y-15853D01*
X189442Y-16436D01*
Y-17019D01*
X188859Y-17602D01*
X187693D01*
X187110Y-17019D01*
Y-16436D01*
X187693Y-15853D01*
X187110Y-15270D01*
Y-14687D01*
X187693Y-15853D02*
X188859D01*
X224428Y-14687D02*
X223845Y-14104D01*
X222678D01*
X222095Y-14687D01*
Y-17019D01*
X222678Y-17602D01*
X223845D01*
X224428Y-17019D01*
X225594Y-17602D02*
X226760D01*
X226177D01*
Y-14104D01*
X225594Y-14687D01*
X228510Y-17019D02*
X229093Y-17602D01*
X230259D01*
X230842Y-17019D01*
Y-14687D01*
X230259Y-14104D01*
X229093D01*
X228510Y-14687D01*
Y-15270D01*
X229093Y-15853D01*
X230842D01*
X203728Y-14687D02*
X203145Y-14104D01*
X201978D01*
X201395Y-14687D01*
Y-17019D01*
X201978Y-17602D01*
X203145D01*
X203728Y-17019D01*
X204894Y-17602D02*
X206060D01*
X205477D01*
Y-14104D01*
X204894Y-14687D01*
X207810Y-14104D02*
X210142D01*
Y-14687D01*
X207810Y-17019D01*
Y-17602D01*
X162428Y-14687D02*
X161845Y-14104D01*
X160678D01*
X160095Y-14687D01*
Y-17019D01*
X160678Y-17602D01*
X161845D01*
X162428Y-17019D01*
X163594Y-17602D02*
X164760D01*
X164177D01*
Y-14104D01*
X163594Y-14687D01*
X168842Y-14104D02*
X167676Y-14687D01*
X166510Y-15853D01*
Y-17019D01*
X167093Y-17602D01*
X168259D01*
X168842Y-17019D01*
Y-16436D01*
X168259Y-15853D01*
X166510D01*
D54*
X-1605Y-13603D02*
X2394D01*
X395Y-11604D02*
Y-15603D01*
X4393Y-10604D02*
Y-14603D01*
X6393Y-16602D01*
X8392Y-14603D01*
Y-10604D01*
X10391D02*
Y-16602D01*
X13390D01*
X14390Y-15603D01*
Y-11604D01*
X13390Y-10604D01*
X10391D01*
X20388Y-11604D02*
X19388Y-10604D01*
X17389D01*
X16389Y-11604D01*
Y-15603D01*
X17389Y-16602D01*
X19388D01*
X20388Y-15603D01*
X26386Y-16602D02*
X22388D01*
X26386Y-12604D01*
Y-11604D01*
X25387Y-10604D01*
X23387D01*
X22388Y-11604D01*
X3000Y-306954D02*
X6999D01*
X8998Y-303955D02*
Y-307953D01*
X10997Y-309953D01*
X12997Y-307953D01*
Y-303955D01*
X14996D02*
Y-309953D01*
X17995D01*
X18995Y-308953D01*
Y-304954D01*
X17995Y-303955D01*
X14996D01*
X24993Y-304954D02*
X23993Y-303955D01*
X21994D01*
X20994Y-304954D01*
Y-308953D01*
X21994Y-309953D01*
X23993D01*
X24993Y-308953D01*
X30991Y-309953D02*
X26992D01*
X30991Y-305954D01*
Y-304954D01*
X29991Y-303955D01*
X27992D01*
X26992Y-304954D01*
X337000Y-370955D02*
X340999D01*
X338999D01*
Y-376953D01*
X345997Y-370955D02*
X343998D01*
X342998Y-371954D01*
Y-375953D01*
X343998Y-376953D01*
X345997D01*
X346997Y-375953D01*
Y-371954D01*
X345997Y-370955D01*
X348996Y-376953D02*
Y-370955D01*
X351995D01*
X352995Y-371954D01*
Y-373954D01*
X351995Y-374953D01*
X348996D01*
M02*
