M48
;Layer_Color=9474304
;FILE_FORMAT=2:5
INCH,LZ
;TYPE=PLATED
T1F00S00C0.01500
T2F00S00C0.01575
T3F00S00C0.01968
T4F00S00C0.02756
T5F00S00C0.02800
T6F00S00C0.03000
T7F00S00C0.03543
T8F00S00C0.03937
T9F00S00C0.04724
T10F00S00C0.05906
T11F00S00C0.07874
T12F00S00C0.19685
;TYPE=NON_PLATED
T13F00S00C0.11811
T14F00S00C0.15748
%
T01
X00017Y0015
X00158Y00063
X00252
X00346
X00299Y0015
X00346Y00237
X00441Y00195
X00425Y0012
X00575
X00535Y00195
X00655Y002
X0072Y00125
X0079Y00205
X0086Y00143
X00954
X01048
X01001Y00056
X00907
X00813
X00907Y0023
X01001
X01095
X01048Y00317
X00954
X0086
X00907Y00404
X01001
X01095
X01048Y00491
X00954
X00907Y00578
X01001
X01095
X01048Y00665
X00954
X0086
X00907Y00752
X01001
X01095
X01048Y00839
X00954
X0086
X00907Y00926
X01001
X01095
X01048Y01013
X00954
X0086
X00907Y011
X01001
X01095
X01236Y01013
Y00839
X01377Y00926
Y011
Y00752
X01303Y00196
Y00022
X01199Y00126
X01095Y00056
X00954Y01187
X0086
X00907Y01274
X01518Y01013
Y00839
X01659Y00926
Y011
X01825Y01173
Y00999
Y00825
X01659Y00752
X01679Y005897
X0151649
X01595Y004857
X01783
X01699Y003817
X01887
X02075
X02263
X02451
X02431Y00196
X02243
X02055
X01867
X01679
X01491
X01511Y003817
X01595Y00092
X01511Y-00012
X01699
X01783Y00092
X01971
X02159
X02347
X02263Y-00012
X02451
X02075
X01887
X01971Y004857
X02159
X02347
X02431Y005897
X02243
X0215645Y0067146
Y0084545
Y0101945
Y0119345
X0203145Y0112145
Y0094745
Y0077346
X02055Y005897
X01867
X02428Y0084
X02512Y00944
X02596Y01048
X02492Y01132
X02408Y01048
X02596Y01236
X02784Y01048
X027Y00944
X02888
X02804Y0084
X02616
X02908Y00736
X0279Y0011
X02492Y0132
X0215645Y0188945
Y0206346
Y0223745
Y0241145
Y0258545
Y0275945
X0203145Y0268745
Y0251345
Y0233945
Y0216546
Y0199145
Y0181746
X01825Y01869
X0175Y0179
X01755Y01965
X01825Y02043
X01755Y02145
X01825Y02217
Y02391
X017455Y02315
X0174Y0249
X01825Y02565
Y02739
X0174Y0267
Y0284
X01474Y02756
Y02662
X02392Y02821
X0258
X02768
X01387Y02803
Y02709
X01298Y02756
Y02662
X01211Y02709
Y02803
X01124Y02756
Y02662
X01175Y026
Y02506
X01262Y02459
Y02553
X00954Y01535
X00907Y01448
X0086Y01361
X00954
X00949Y02962
Y03056
Y0315
Y03237
Y03331
Y03425
X00862Y03472
Y03378
Y03284
Y03197
Y03103
X01036
Y03197
Y03284
Y03378
Y03472
X01123Y03425
Y03331
Y03237
Y0315
Y03056
Y02962
X01124Y0285
X01037Y02897
X01036Y03009
X0121
X01211Y02897
X01298Y0285
X01297Y02962
X01387Y02897
X01304Y03546
X01116
X012Y0365
X01284Y03754
X01096
X00908
X00866Y03637
X00772
X00691
X00725Y0358
X00644
X0055
X0047
X00516Y03637
X00597
X00422
X00328
X00294Y03724
X002
X00106
X00388
X00375Y0355
X00819
X00928Y03546
X01012Y0365
X01654Y03655
X0157549Y03759
X01738
X01926
X02114
X02302
X0249
X02406Y03655
X02218
X0203
X01842
X01758Y03551
X0157
X01575Y03304
Y03117
X017Y03202
Y03015
X01825Y03087
Y02913
X0203145Y0286145
X0215Y02925
X02288
X02476
X02664
X02852
X0295Y03138
Y03326
X02904Y03546
X02716
X028Y0365
X02884Y03754
X02696
X0251Y03551
X02322
X02134
X01946
X0195Y03346
Y03159
X02075Y03231
X02175Y0315
X02279Y03246
X02175Y0335
X024
Y0315
X02504Y03246
X01825Y03274
X01471Y02962
X01474Y0285
X03054Y03054
Y03242
Y0343
X03092Y03546
X02988Y0365
T02
X03225Y01825
Y0191
Y01995
X0334Y01965
Y0188667
Y0180833
Y0173
X0331Y0277
X03816Y02385
X00369Y0216394
X0033
X00291
X00252
Y0141472
X00291
X0033
X00369
Y0291315
X0033
X00291
X00252
X03825Y02854
X03827Y03475
X0382806Y03654
T03
X00059Y00222
X00027Y003
X00072Y00391
X00241Y00378
X00273Y003
X00228Y00209
X00253Y03384
X00298Y03475
X00266Y03553
X00097Y03566
X00052Y03475
X00084Y03397
T04
X0160787Y0127978
X0231653
X0231866Y0147
X0232Y0165
X0161134
X0161Y0147
T05
X0301484Y0371016
T06
X03516Y0232941
Y0242941
Y02605
Y0282941
T07
X00425Y01071
X00525
X00625
X03125Y01005
X03225
X03325
X03555Y01005
X03655
X03755
Y0136041
X03655
X03555
X03555Y01715
X03655
X03755
X03761Y0211
X03661
X03561
X0253599Y0251844
X01095Y0251783
X00625Y0259
X00525
X00425
Y018305
X00525
X00625
X01095Y01632
T08
X02418Y0132947
Y014712
Y0159718
Y0172317
Y0184915
X0253599Y0178616
Y0166017
Y0153419
Y0140821
Y0191214
Y0210899
X02418Y02046
Y0224285
X0253599Y0230584
X02418Y024397
T09
X00152Y0020115
Y00398
X0048357Y00045
X0068042
X0015Y0120158
Y0139842
Y0195079
Y0214764
Y027
Y0289685
X00177Y0337615
Y03573
X0051458Y03732
X0071143
T10
X0140957Y0127218
Y014584
Y0164462
Y0183084
Y0201706
Y0220328
Y023895
Y0257572
T11
X01406Y00112
Y005057
X02616
Y00112
X01406Y03232
Y036257
X02616Y036237
Y0323
T12
X0059035Y00475
X03425
X0059035Y0330965
X03425
T13
X0Y0
X0377953
X0Y0377953
X0377953
T14
X0015Y003
X00175Y03475
M30
