G04 Layer_Color=16711935*
%FSLAX25Y25*%
%MOIN*%
G70*
G01*
G75*
%ADD57R,0.06706X0.07099*%
%ADD58R,0.06312X0.06706*%
%ADD59R,0.07099X0.06706*%
%ADD63R,0.08674X0.14776*%
%ADD65R,0.08871X0.17926*%
%ADD67R,0.06706X0.06706*%
%ADD68C,0.06706*%
%ADD69R,0.12611X0.12611*%
%ADD70C,0.12611*%
%ADD71R,0.12611X0.12611*%
%ADD72C,0.06800*%
%ADD73O,0.20485X0.12611*%
%ADD74O,0.10642X0.05918*%
%ADD75R,0.10642X0.05918*%
%ADD76C,0.05524*%
%ADD77C,0.16548*%
%ADD78C,0.32296*%
%ADD79C,0.08674*%
%ADD80C,0.03800*%
%ADD81C,0.03162*%
%ADD82C,0.05800*%
%ADD83R,0.05131X0.32296*%
%ADD84R,0.05682X0.28359*%
%ADD85R,0.17926X0.08871*%
G36*
X148181Y152200D02*
X151381Y149000D01*
X151381Y141800D01*
X147781Y138200D01*
X119781Y138200D01*
Y152200D01*
X148181Y152200D01*
D02*
G37*
D57*
X166740Y160000D02*
D03*
X159260D02*
D03*
X166740Y141000D02*
D03*
X159260D02*
D03*
X166740Y122000D02*
D03*
X159260D02*
D03*
X302740Y187000D02*
D03*
X295260D02*
D03*
X302740Y163000D02*
D03*
X295260D02*
D03*
X302740Y179000D02*
D03*
X295260D02*
D03*
X302740Y155000D02*
D03*
X295260D02*
D03*
X302740Y171000D02*
D03*
X295260D02*
D03*
X302740Y147000D02*
D03*
X295260D02*
D03*
D58*
X325063Y265500D02*
D03*
X332937D02*
D03*
X325437Y273000D02*
D03*
X317563D02*
D03*
X325563Y283500D02*
D03*
X333437D02*
D03*
X378237Y347500D02*
D03*
X370363D02*
D03*
X378237Y365200D02*
D03*
X370363D02*
D03*
X240437Y119000D02*
D03*
X232563D02*
D03*
X154063Y133000D02*
D03*
X161937D02*
D03*
X155063Y152000D02*
D03*
X162937D02*
D03*
X232563Y140000D02*
D03*
X240437D02*
D03*
X155063Y171000D02*
D03*
X162937D02*
D03*
D59*
X263500Y131260D02*
D03*
Y138740D02*
D03*
D63*
X123719Y145200D02*
D03*
X101081D02*
D03*
D65*
X306106Y205500D02*
D03*
X281894D02*
D03*
X271894Y232000D02*
D03*
X296106D02*
D03*
X270894Y259000D02*
D03*
X295106D02*
D03*
D67*
X62500D02*
D03*
Y183050D02*
D03*
Y107100D02*
D03*
X332500Y100500D02*
D03*
X375500Y100500D02*
D03*
Y136041D02*
D03*
X355500Y171500D02*
D03*
X376100Y211000D02*
D03*
D68*
X52500Y259000D02*
D03*
X42500D02*
D03*
X52500Y183050D02*
D03*
X42500D02*
D03*
X52500Y107100D02*
D03*
X42500D02*
D03*
X312500Y100500D02*
D03*
X322500D02*
D03*
X355500Y100500D02*
D03*
X365500D02*
D03*
X355500Y136041D02*
D03*
X365500D02*
D03*
X375500Y171500D02*
D03*
X365500D02*
D03*
X109500Y163200D02*
D03*
Y251783D02*
D03*
X356100Y211000D02*
D03*
X366100D02*
D03*
D69*
X68042Y4500D02*
D03*
X51458Y373200D02*
D03*
D70*
X48357Y4500D02*
D03*
X15000Y139842D02*
D03*
Y214764D02*
D03*
Y289685D02*
D03*
X15200Y39800D02*
D03*
X17700Y357300D02*
D03*
X71143Y373200D02*
D03*
D71*
X15000Y120158D02*
D03*
Y195079D02*
D03*
Y270000D02*
D03*
X15200Y20115D02*
D03*
X17700Y337615D02*
D03*
D72*
X351600Y232941D02*
D03*
Y242941D02*
D03*
Y260500D02*
D03*
Y282941D02*
D03*
X377953Y377953D02*
D03*
X377953Y0D02*
D03*
X0Y377953D02*
D03*
Y0D02*
D03*
D73*
X140957Y127218D02*
D03*
Y145840D02*
D03*
Y164462D02*
D03*
Y183084D02*
D03*
Y201706D02*
D03*
Y220328D02*
D03*
Y238950D02*
D03*
Y257572D02*
D03*
D74*
X253599Y140821D02*
D03*
X241800Y132947D02*
D03*
Y147120D02*
D03*
Y159718D02*
D03*
X253599Y166017D02*
D03*
X241800Y172317D02*
D03*
X253599Y178616D02*
D03*
X241800Y184915D02*
D03*
X253599Y191214D02*
D03*
X241800Y204600D02*
D03*
X253599Y210899D02*
D03*
X241800Y224285D02*
D03*
X253599Y230584D02*
D03*
X241800Y243970D02*
D03*
X253599Y153419D02*
D03*
D75*
Y251844D02*
D03*
D76*
X231653Y127978D02*
D03*
X160787D02*
D03*
X231866Y147000D02*
D03*
X161000D02*
D03*
X232000Y165000D02*
D03*
X161134D02*
D03*
D77*
X140600Y11200D02*
D03*
Y50570D02*
D03*
X261600Y11200D02*
D03*
Y50570D02*
D03*
Y323000D02*
D03*
Y362370D02*
D03*
X140600Y323200D02*
D03*
Y362570D02*
D03*
D78*
X15000Y30000D02*
D03*
X17500Y347500D02*
D03*
D79*
X59035Y330965D02*
D03*
X342500D02*
D03*
Y47500D02*
D03*
X59035D02*
D03*
D80*
X322500Y182500D02*
D03*
Y191000D02*
D03*
Y199500D02*
D03*
X334000Y196500D02*
D03*
Y188667D02*
D03*
Y180833D02*
D03*
Y173000D02*
D03*
X279000Y11000D02*
D03*
X249200Y132000D02*
D03*
Y113200D02*
D03*
X259600Y123600D02*
D03*
X288800Y94400D02*
D03*
X290800Y73600D02*
D03*
X278400Y104800D02*
D03*
X259600D02*
D03*
X270000Y94400D02*
D03*
X280400Y84000D02*
D03*
X240800Y104800D02*
D03*
X251200Y94400D02*
D03*
X261600Y84000D02*
D03*
X242800D02*
D03*
X276800Y282100D02*
D03*
X10600Y372400D02*
D03*
X20000D02*
D03*
X32800Y363700D02*
D03*
X29400Y372400D02*
D03*
X38800D02*
D03*
X47000Y358000D02*
D03*
X51600Y363700D02*
D03*
X42200D02*
D03*
X37500Y355000D02*
D03*
X64400Y358000D02*
D03*
X69100Y363700D02*
D03*
X59700D02*
D03*
X55000Y358000D02*
D03*
X81900Y355000D02*
D03*
X86600Y363700D02*
D03*
X77200D02*
D03*
X72500Y358000D02*
D03*
X117500Y250600D02*
D03*
X126200Y245900D02*
D03*
Y255300D02*
D03*
X117500Y260000D02*
D03*
X138700Y289700D02*
D03*
X147400Y285000D02*
D03*
Y275600D02*
D03*
X138700Y280300D02*
D03*
X147400Y266200D02*
D03*
X138700Y270900D02*
D03*
X147100Y296200D02*
D03*
X129700D02*
D03*
X121000Y300900D02*
D03*
X103700Y289700D02*
D03*
X121100D02*
D03*
X112400Y285000D02*
D03*
X129800D02*
D03*
X121100Y280300D02*
D03*
X129800Y275600D02*
D03*
Y266200D02*
D03*
X121100Y270900D02*
D03*
X112400Y275600D02*
D03*
Y266200D02*
D03*
X86200Y319700D02*
D03*
X103600D02*
D03*
X94900Y315000D02*
D03*
X112300D02*
D03*
X103600Y310300D02*
D03*
X112300Y305600D02*
D03*
Y296200D02*
D03*
X103600Y300900D02*
D03*
X94900Y305600D02*
D03*
X86200Y310300D02*
D03*
X94900Y296200D02*
D03*
X86200Y347200D02*
D03*
X103600D02*
D03*
X94900Y342500D02*
D03*
X112300D02*
D03*
X103600Y337800D02*
D03*
X112300Y333100D02*
D03*
Y323700D02*
D03*
X103600Y328400D02*
D03*
X94900Y333100D02*
D03*
X86200Y337800D02*
D03*
X94900Y323700D02*
D03*
X86200Y328400D02*
D03*
X128400Y375400D02*
D03*
X109600D02*
D03*
X120000Y365000D02*
D03*
X130400Y354600D02*
D03*
X90800Y375400D02*
D03*
X101200Y365000D02*
D03*
X111600Y354600D02*
D03*
X92800D02*
D03*
X271600D02*
D03*
X290400D02*
D03*
X280000Y365000D02*
D03*
X269600Y375400D02*
D03*
X309200Y354600D02*
D03*
X298800Y365000D02*
D03*
X288400Y375400D02*
D03*
X157000Y355100D02*
D03*
X249000Y375900D02*
D03*
X230200D02*
D03*
X240600Y365500D02*
D03*
X251000Y355100D02*
D03*
X211400Y375900D02*
D03*
X221800Y365500D02*
D03*
X232200Y355100D02*
D03*
X192600Y375900D02*
D03*
X203000Y365500D02*
D03*
X213400Y355100D02*
D03*
X173800Y375900D02*
D03*
X184200Y365500D02*
D03*
X194600Y355100D02*
D03*
X157549Y375900D02*
D03*
X165400Y365500D02*
D03*
X175800Y355100D02*
D03*
X295000Y332600D02*
D03*
X305400Y343000D02*
D03*
X295000Y313800D02*
D03*
X305400Y324200D02*
D03*
Y305400D02*
D03*
X285200Y292500D02*
D03*
X215000D02*
D03*
X266400D02*
D03*
X247600D02*
D03*
X258000Y282100D02*
D03*
X228800Y292500D02*
D03*
X239200Y282100D02*
D03*
X203145Y251345D02*
D03*
X215645Y241145D02*
D03*
Y206346D02*
D03*
Y223745D02*
D03*
X203145Y216546D02*
D03*
Y233945D02*
D03*
Y286145D02*
D03*
X215645Y275945D02*
D03*
X203145Y268745D02*
D03*
X215645Y258545D02*
D03*
X203145Y112145D02*
D03*
X215645Y101945D02*
D03*
Y67146D02*
D03*
Y84545D02*
D03*
X203145Y77346D02*
D03*
Y94745D02*
D03*
X215645Y119345D02*
D03*
X203145Y199145D02*
D03*
X215645Y188945D02*
D03*
X203145Y181746D02*
D03*
X169900Y38170D02*
D03*
X159500Y48570D02*
D03*
X151649Y58970D02*
D03*
X188700Y38170D02*
D03*
X178300Y48570D02*
D03*
X167900Y58970D02*
D03*
X207500Y38170D02*
D03*
X197100Y48570D02*
D03*
X186700Y58970D02*
D03*
X226300Y38170D02*
D03*
X215900Y48570D02*
D03*
X205500Y58970D02*
D03*
X245100Y38170D02*
D03*
X234700Y48570D02*
D03*
X224300Y58970D02*
D03*
X243100D02*
D03*
X151100Y38170D02*
D03*
Y-1200D02*
D03*
X243100Y19600D02*
D03*
X224300D02*
D03*
X234700Y9200D02*
D03*
X245100Y-1200D02*
D03*
X205500Y19600D02*
D03*
X215900Y9200D02*
D03*
X226300Y-1200D02*
D03*
X186700Y19600D02*
D03*
X197100Y9200D02*
D03*
X207500Y-1200D02*
D03*
X167900Y19600D02*
D03*
X178300Y9200D02*
D03*
X188700Y-1200D02*
D03*
X149100Y19600D02*
D03*
X159500Y9200D02*
D03*
X169900Y-1200D02*
D03*
X130300Y2200D02*
D03*
Y19600D02*
D03*
X119900Y12600D02*
D03*
X250400Y324600D02*
D03*
X240000Y315000D02*
D03*
Y335000D02*
D03*
X227900Y324600D02*
D03*
X217500Y335000D02*
D03*
Y315000D02*
D03*
X207500Y323100D02*
D03*
X195000Y315900D02*
D03*
Y334600D02*
D03*
X182500Y327400D02*
D03*
X157500Y330400D02*
D03*
Y311700D02*
D03*
X170000Y320200D02*
D03*
X174000Y249000D02*
D03*
X182500Y256500D02*
D03*
X174000Y267000D02*
D03*
X182500Y308700D02*
D03*
Y273900D02*
D03*
Y291300D02*
D03*
X174000Y284000D02*
D03*
X170000Y301500D02*
D03*
X182500Y186900D02*
D03*
X175500Y196500D02*
D03*
X182500Y239100D02*
D03*
Y204300D02*
D03*
Y221700D02*
D03*
X175500Y214500D02*
D03*
X174550Y231500D02*
D03*
X175000Y179000D02*
D03*
X182500Y117300D02*
D03*
Y82500D02*
D03*
Y99900D02*
D03*
X165900Y92600D02*
D03*
X151800Y83900D02*
D03*
X165900Y110000D02*
D03*
X151800Y101300D02*
D03*
X165900Y75200D02*
D03*
X137700Y92600D02*
D03*
X123600Y83900D02*
D03*
X137700Y110000D02*
D03*
X123600Y101300D02*
D03*
X137700Y75200D02*
D03*
X1700Y15000D02*
D03*
X25200Y6300D02*
D03*
X15800D02*
D03*
X29900Y15000D02*
D03*
X34600Y6300D02*
D03*
Y23700D02*
D03*
X42500Y12000D02*
D03*
X44100Y19500D02*
D03*
X53500D02*
D03*
X57500Y12000D02*
D03*
X65500Y20000D02*
D03*
X72000Y12500D02*
D03*
X81300Y5600D02*
D03*
X79000Y20500D02*
D03*
X90700Y5600D02*
D03*
X100100D02*
D03*
X109500D02*
D03*
X86000Y14300D02*
D03*
Y31700D02*
D03*
X90700Y23000D02*
D03*
Y40400D02*
D03*
X95400Y31700D02*
D03*
X100100Y40400D02*
D03*
X109500D02*
D03*
X104800Y31700D02*
D03*
X100100Y23000D02*
D03*
X95400Y14300D02*
D03*
X109500Y23000D02*
D03*
X104800Y14300D02*
D03*
X86000Y66500D02*
D03*
X90700Y57800D02*
D03*
Y75200D02*
D03*
X95400Y66500D02*
D03*
X100100Y75200D02*
D03*
X109500D02*
D03*
X104800Y66500D02*
D03*
X100100Y57800D02*
D03*
X95400Y49100D02*
D03*
X109500Y57800D02*
D03*
X104800Y49100D02*
D03*
Y83900D02*
D03*
X109500Y92600D02*
D03*
X95400Y83900D02*
D03*
X100100Y92600D02*
D03*
X104800Y101300D02*
D03*
X109500Y110000D02*
D03*
X95400Y153500D02*
D03*
X90700Y144800D02*
D03*
X86000Y136100D02*
D03*
X95400D02*
D03*
X90700Y127400D02*
D03*
X95400Y118700D02*
D03*
X100100Y110000D02*
D03*
X95400Y101300D02*
D03*
X90700Y110000D02*
D03*
X86000Y118700D02*
D03*
X90700Y92600D02*
D03*
X86000Y101300D02*
D03*
Y83900D02*
D03*
X382806Y365400D02*
D03*
X382700Y347500D02*
D03*
X382500Y285400D02*
D03*
X381600Y238500D02*
D03*
X331000Y277000D02*
D03*
D81*
X24100Y37800D02*
D03*
X22800Y20900D02*
D03*
X5900Y22200D02*
D03*
X7200Y39100D02*
D03*
X27300Y30000D02*
D03*
X2700D02*
D03*
X26600Y355300D02*
D03*
X25300Y338400D02*
D03*
X8400Y339700D02*
D03*
X9700Y356600D02*
D03*
X29800Y347500D02*
D03*
X5200D02*
D03*
X29100Y141472D02*
D03*
X25200D02*
D03*
X33000D02*
D03*
X36900D02*
D03*
X29100Y216394D02*
D03*
X25200D02*
D03*
X33000D02*
D03*
X36900D02*
D03*
Y291315D02*
D03*
X33000D02*
D03*
X25200D02*
D03*
X29100D02*
D03*
D82*
X301484Y371016D02*
D03*
D83*
X69449Y259000D02*
D03*
X35551D02*
D03*
X69449Y183050D02*
D03*
X35551D02*
D03*
X69449Y107100D02*
D03*
X35551D02*
D03*
X305551Y100500D02*
D03*
X339449D02*
D03*
X348551Y100500D02*
D03*
X382449D02*
D03*
X348551Y136041D02*
D03*
X382449D02*
D03*
X382449Y171500D02*
D03*
X348551D02*
D03*
X349151Y211000D02*
D03*
X383049D02*
D03*
D84*
X42658Y259000D02*
D03*
X62343D02*
D03*
X52500D02*
D03*
X42658Y183050D02*
D03*
X62343D02*
D03*
X52500D02*
D03*
X42658Y107100D02*
D03*
X62343D02*
D03*
X52500D02*
D03*
X322500Y100500D02*
D03*
X332343D02*
D03*
X312657D02*
D03*
X365500Y100500D02*
D03*
X375342D02*
D03*
X355657D02*
D03*
X365500Y136041D02*
D03*
X375342D02*
D03*
X355657D02*
D03*
X365500Y171500D02*
D03*
X355658D02*
D03*
X375342D02*
D03*
X366100Y211000D02*
D03*
X375942D02*
D03*
X356258D02*
D03*
D85*
X293000Y136106D02*
D03*
Y111894D02*
D03*
M02*
