G04 Layer_Color=32768*
%FSLAX26Y26*%
%MOIN*%
%TF.FileFunction,Other,Mechanical_15*%
%TF.Part,Single*%
G01*
G75*
%TA.AperFunction,NonConductor*%
%ADD49C,0.003937*%
%ADD91C,0.001968*%
D49*
X500315Y-989528D02*
X539685D01*
X520000Y-1009213D02*
Y-969842D01*
X1620000Y-1004685D02*
Y-965315D01*
X1600315Y-985000D02*
X1639685D01*
X1932000Y-2818685D02*
Y-2779315D01*
X1912315Y-2799000D02*
X1951685D01*
X2310315Y-3495000D02*
X2349685D01*
X2330000Y-3514685D02*
Y-3475315D01*
X2103648Y-3495000D02*
X2143018D01*
X2123333Y-3514685D02*
Y-3475315D01*
X1896982Y-3495000D02*
X1936352D01*
X1916667Y-3514685D02*
Y-3475315D01*
X1690315Y-3495000D02*
X1729685D01*
X1710000Y-3514685D02*
Y-3475315D01*
X1871982Y-340000D02*
X1911352D01*
X1891667Y-359685D02*
Y-320315D01*
X2285315Y-340000D02*
X2324685D01*
X2305000Y-359685D02*
Y-320315D01*
X2078648Y-340000D02*
X2118018D01*
X2098333Y-359685D02*
Y-320315D01*
X1665315Y-340000D02*
X1704685D01*
X1685000Y-359685D02*
Y-320315D01*
X3685315Y-2144528D02*
X3724685D01*
X3705000Y-2164213D02*
Y-2124843D01*
X3610000Y-1979213D02*
Y-1939842D01*
X3590315Y-1959527D02*
X3629685D01*
X3440000Y-1444213D02*
Y-1404842D01*
X3420315Y-1424528D02*
X3459685D01*
X3742000Y-461212D02*
Y-421842D01*
X3722315Y-441527D02*
X3761685D01*
X3744000Y-323213D02*
Y-283842D01*
X3724315Y-303527D02*
X3763685D01*
X3741000Y-145213D02*
Y-105843D01*
X3721315Y-125528D02*
X3760685D01*
X3514717Y-72626D02*
X3554087D01*
X3534402Y-92311D02*
Y-52941D01*
X3497000Y-233213D02*
Y-193843D01*
X3477315Y-213528D02*
X3516685D01*
X3316000Y-17212D02*
Y22158D01*
X3296315Y2473D02*
X3335685D01*
X3319000Y-125713D02*
Y-86343D01*
X3299315Y-106028D02*
X3338685D01*
X3316000Y-234213D02*
Y-194842D01*
X3296315Y-214528D02*
X3335685D01*
X3135000Y-18212D02*
Y21158D01*
X3115315Y1472D02*
X3154685D01*
X3290000Y-1144213D02*
Y-1104842D01*
X3270315Y-1124527D02*
X3309685D01*
X3215000Y-1069213D02*
Y-1029842D01*
X3195315Y-1049527D02*
X3234685D01*
X3295000Y-964212D02*
Y-924842D01*
X3275315Y-944528D02*
X3314685D01*
X3743000Y-324213D02*
Y-284842D01*
X3723315Y-304527D02*
X3762685D01*
X3743000Y-147213D02*
Y-107843D01*
X3723315Y-127528D02*
X3762685D01*
X2910315Y-2539528D02*
X2949685D01*
X2930000Y-2559213D02*
Y-2519843D01*
X1104315Y-2327528D02*
X1143685D01*
X1124000Y-2347213D02*
Y-2307843D01*
X1104315Y-2506528D02*
X1143685D01*
X1124000Y-2526213D02*
Y-2486843D01*
X1104315Y-2144528D02*
X1143685D01*
X1124000Y-2164213D02*
Y-2124843D01*
X3737000Y-1540213D02*
Y-1500842D01*
X3717315Y-1520528D02*
X3756685D01*
X3110000Y-3229213D02*
Y-3189843D01*
X3090315Y-3209528D02*
X3129685D01*
X2345315Y-2589528D02*
X2384685D01*
X2365000Y-2609213D02*
Y-2569842D01*
X1560315Y-2449528D02*
X1599685D01*
X1580000Y-2469213D02*
Y-2429843D01*
X1570315Y-2259528D02*
X1609685D01*
X1590000Y-2279213D02*
Y-2239843D01*
X2345315Y-2379528D02*
X2384685D01*
X2365000Y-2399213D02*
Y-2359843D01*
X1570315Y-2069528D02*
X1609685D01*
X1590000Y-2089213D02*
Y-2049843D01*
X2970315Y-2309528D02*
X3009685D01*
X2990000Y-2329213D02*
Y-2289842D01*
X2970315Y-2229528D02*
X3009685D01*
X2990000Y-2249213D02*
Y-2209842D01*
X2970315Y-2149528D02*
X3009685D01*
X2990000Y-2169213D02*
Y-2129842D01*
X2970315Y-2069528D02*
X3009685D01*
X2990000Y-2089213D02*
Y-2049842D01*
X2970315Y-1989527D02*
X3009685D01*
X2990000Y-2009213D02*
Y-1969842D01*
X2970315Y-1909527D02*
X3009685D01*
X2990000Y-1929213D02*
Y-1889842D01*
X500315Y-2491528D02*
X539685D01*
X520000Y-2511213D02*
Y-2471843D01*
X500315Y-1740527D02*
X539685D01*
X520000Y-1760213D02*
Y-1720842D01*
X3609000Y-1773212D02*
Y-1733842D01*
X3589315Y-1753527D02*
X3628685D01*
X1630000Y-2199212D02*
Y-2159842D01*
X1610315Y-2179527D02*
X1649685D01*
X1630000Y-2389212D02*
Y-2349842D01*
X1610315Y-2369527D02*
X1649685D01*
X1630000Y-2579212D02*
Y-2539842D01*
X1610315Y-2559527D02*
X1649685D01*
X2615315Y-2429527D02*
X2654685D01*
X2635000Y-2449213D02*
Y-2409842D01*
X3190000Y-2634213D02*
Y-2594843D01*
X3170315Y-2614528D02*
X3209685D01*
X2990000Y-1929212D02*
Y-1889842D01*
X2970315Y-1909527D02*
X3009685D01*
X2990000Y-2169212D02*
Y-2129842D01*
X2970315Y-2149527D02*
X3009685D01*
X2990000Y-2009212D02*
Y-1969842D01*
X2970315Y-1989527D02*
X3009685D01*
X2990000Y-2249212D02*
Y-2209842D01*
X2970315Y-2229527D02*
X3009685D01*
X2990000Y-2089212D02*
Y-2049842D01*
X2970315Y-2069527D02*
X3009685D01*
X2990000Y-2329212D02*
Y-2289842D01*
X2970315Y-2309527D02*
X3009685D01*
X2940000Y-1744213D02*
Y-1704842D01*
X2920315Y-1724527D02*
X2959685D01*
X2945000Y-1749213D02*
Y-1709842D01*
X2925315Y-1729527D02*
X2964685D01*
X2840000Y-1479213D02*
Y-1439842D01*
X2820315Y-1459527D02*
X2859685D01*
X2828937Y-1479213D02*
Y-1439842D01*
X2809252Y-1459527D02*
X2848622D01*
X2830000Y-1209213D02*
Y-1169842D01*
X2810315Y-1189527D02*
X2849685D01*
X2840000Y-1209213D02*
Y-1169842D01*
X2820315Y-1189527D02*
X2859685D01*
X3716000Y-617212D02*
Y-577842D01*
X3696315Y-597527D02*
X3735685D01*
X3612315Y-625527D02*
X3651685D01*
X3632000Y-645212D02*
Y-605842D01*
X3667315Y-815528D02*
X3706685D01*
X3687000Y-835213D02*
Y-795842D01*
X3779315Y-597528D02*
X3818685D01*
X3799000Y-617213D02*
Y-577842D01*
X3739315Y-1791527D02*
X3778685D01*
X3759000Y-1811213D02*
Y-1771842D01*
X3429315Y-1059527D02*
X3468685D01*
X3449000Y-1079213D02*
Y-1039842D01*
X496315Y-1278527D02*
X535685D01*
X516000Y-1298212D02*
Y-1258842D01*
X496315Y-2046527D02*
X535685D01*
X516000Y-2066212D02*
Y-2026842D01*
X496315Y-2814527D02*
X535685D01*
X516000Y-2834212D02*
Y-2794842D01*
X2835000Y-2469213D02*
Y-2429842D01*
X2815315Y-2449527D02*
X2854685D01*
D91*
X411732Y-1144055D02*
Y-835000D01*
X628268Y-1144055D02*
Y-835000D01*
X411732Y-1144055D02*
X628268D01*
X411732Y-835000D02*
X628268D01*
X1484173Y-894449D02*
X1755827D01*
X1484173Y-1075551D02*
X1755827D01*
X1484173D02*
Y-894449D01*
X1755827Y-1075551D02*
Y-894449D01*
X1796173Y-2889551D02*
X2067827D01*
X1796173Y-2708449D02*
X2067827D01*
Y-2889551D02*
Y-2708449D01*
X1796173Y-2889551D02*
Y-2708449D01*
X2420551Y-3630827D02*
Y-3359173D01*
X2239449Y-3630827D02*
Y-3359173D01*
X2420551D01*
X2239449Y-3630827D02*
X2420551D01*
X2213884D02*
Y-3359173D01*
X2032782Y-3630827D02*
Y-3359173D01*
X2213884D01*
X2032782Y-3630827D02*
X2213884D01*
X2007218D02*
Y-3359173D01*
X1826116Y-3630827D02*
Y-3359173D01*
X2007218D01*
X1826116Y-3630827D02*
X2007218D01*
X1800551D02*
Y-3359173D01*
X1619449Y-3630827D02*
Y-3359173D01*
X1800551D01*
X1619449Y-3630827D02*
X1800551D01*
X1982218Y-475827D02*
Y-204173D01*
X1801116Y-475827D02*
Y-204173D01*
X1982218D01*
X1801116Y-475827D02*
X1982218D01*
X2395551D02*
Y-204173D01*
X2214449Y-475827D02*
Y-204173D01*
X2395551D01*
X2214449Y-475827D02*
X2395551D01*
X2188884D02*
Y-204173D01*
X2007782Y-475827D02*
Y-204173D01*
X2188884D01*
X2007782Y-475827D02*
X2188884D01*
X1775551D02*
Y-204173D01*
X1594449Y-475827D02*
Y-204173D01*
X1775551D01*
X1594449Y-475827D02*
X1775551D01*
X2833543Y-2710787D02*
Y-2368268D01*
X3026457Y-2710787D02*
Y-2368268D01*
X2833543D02*
X3026457D01*
X2833543Y-2710787D02*
X3026457D01*
X1297228Y-2418079D02*
Y-2236976D01*
X950772Y-2418079D02*
Y-2236976D01*
X1297228D01*
X950772Y-2418079D02*
X1297228D01*
Y-2597079D02*
Y-2415976D01*
X950772Y-2597079D02*
Y-2415976D01*
Y-2597079D02*
X1297228D01*
X950772Y-2415976D02*
X1297228D01*
Y-2235079D02*
Y-2053976D01*
X950772Y-2235079D02*
Y-2053976D01*
Y-2235079D02*
X1297228D01*
X950772Y-2053976D02*
X1297228D01*
X411732Y-2646055D02*
Y-2337000D01*
X628268Y-2646055D02*
Y-2337000D01*
X411732Y-2646055D02*
X628268D01*
X411732Y-2337000D02*
X628268D01*
X411732Y-1895055D02*
Y-1586000D01*
X628268Y-1895055D02*
Y-1586000D01*
X411732Y-1895055D02*
X628268D01*
X411732Y-1586000D02*
X628268D01*
X3018740Y-2710984D02*
X3361260D01*
X3018740Y-2518071D02*
X3361260D01*
Y-2710984D02*
Y-2518071D01*
X3018740Y-2710984D02*
Y-2518071D01*
X2768740Y-1628071D02*
X3111260D01*
X2768740Y-1820984D02*
X3111260D01*
Y-1628071D01*
X2768740Y-1820984D02*
Y-1628071D01*
X2773740Y-1825984D02*
X3116260D01*
X2773740Y-1633071D02*
X3116260D01*
Y-1825984D02*
Y-1633071D01*
X2773740Y-1825984D02*
Y-1633071D01*
X2668740Y-1555984D02*
X3011260D01*
X2668740Y-1363071D02*
X3011260D01*
X2668740Y-1555984D02*
Y-1363071D01*
X3011260Y-1555984D02*
Y-1363071D01*
X2657677D02*
X3000197D01*
X2657677Y-1555984D02*
X3000197D01*
X2657677D02*
Y-1363071D01*
X3000197Y-1555984D02*
Y-1363071D01*
X2658740Y-1285984D02*
X3001260D01*
X2658740Y-1093071D02*
X3001260D01*
X2658740Y-1285984D02*
Y-1093071D01*
X3001260Y-1285984D02*
Y-1093071D01*
X2668740D02*
X3011260D01*
X2668740Y-1285984D02*
X3011260D01*
X2668740D02*
Y-1093071D01*
X3011260Y-1285984D02*
Y-1093071D01*
X3515740Y-911984D02*
Y-719071D01*
X3858260Y-911984D02*
Y-719071D01*
X3515740D02*
X3858260D01*
X3515740Y-911984D02*
X3858260D01*
%TF.MD5,3618acd9a86eaec03a447066aa18bbe2*%
M02*
