G04 Layer_Color=255*
%FSLAX26Y26*%
%MOIN*%
%TF.FileFunction,Pads,Bot*%
%TF.Part,Single*%
G01*
G75*
%TA.AperFunction,SMDPad,CuDef*%
%ADD13R,0.059055X0.062992*%
%ADD14R,0.055118X0.059055*%
%ADD15R,0.062992X0.059055*%
%ADD19R,0.078740X0.139764*%
%ADD20R,0.080709X0.171260*%
%TA.AperFunction,ComponentPad*%
%ADD28R,0.118110X0.118110*%
%ADD29C,0.118110*%
%ADD30R,0.059055X0.059055*%
%ADD31C,0.059055*%
%ADD32R,0.118110X0.118110*%
%ADD33C,0.060000*%
%ADD34O,0.196850X0.118110*%
%ADD35O,0.098425X0.051181*%
%ADD36R,0.098425X0.051181*%
%ADD37C,0.047244*%
%ADD38C,0.157480*%
%TA.AperFunction,ViaPad*%
%ADD39C,0.078740*%
%TA.AperFunction,WasherPad*%
%ADD40C,0.060000*%
%TA.AperFunction,SMDPad,CuDef*%
%ADD44R,0.043307X0.314961*%
%ADD45R,0.048819X0.275591*%
%TA.AperFunction,ConnectorPad*%
%ADD46R,0.048819X0.275591*%
%ADD47R,0.043307X0.314961*%
%TA.AperFunction,SMDPad,CuDef*%
%ADD48R,0.171260X0.080709*%
D13*
X1667401Y-2179527D02*
D03*
X1592598D02*
D03*
X1667401Y-2369527D02*
D03*
X1592598D02*
D03*
X1667401Y-2559527D02*
D03*
X1592598D02*
D03*
X3027401Y-1909527D02*
D03*
X2952598D02*
D03*
X3027401Y-2149527D02*
D03*
X2952598D02*
D03*
X3027401Y-1989527D02*
D03*
X2952598D02*
D03*
X3027401Y-2229527D02*
D03*
X2952598D02*
D03*
X3027401Y-2069527D02*
D03*
X2952598D02*
D03*
X3027401Y-2309527D02*
D03*
X2952598D02*
D03*
D14*
X3250630Y-1124527D02*
D03*
X3329370D02*
D03*
X3254370Y-1049527D02*
D03*
X3175630D02*
D03*
X3255630Y-944528D02*
D03*
X3334370D02*
D03*
X3782370Y-304527D02*
D03*
X3703630D02*
D03*
X3782370Y-127528D02*
D03*
X3703630D02*
D03*
X2404370Y-2589528D02*
D03*
X2325630D02*
D03*
X1540630Y-2449528D02*
D03*
X1619370D02*
D03*
X1550630Y-2259528D02*
D03*
X1629370D02*
D03*
X2325630Y-2379528D02*
D03*
X2404370D02*
D03*
X1550630Y-2069528D02*
D03*
X1629370D02*
D03*
D15*
X2635000Y-2466929D02*
D03*
Y-2392126D02*
D03*
D19*
X1237189Y-2327528D02*
D03*
X1010811D02*
D03*
D20*
X3061063Y-1724527D02*
D03*
X2818937D02*
D03*
X2718937Y-1459527D02*
D03*
X2961063D02*
D03*
X2708937Y-1189527D02*
D03*
X2951063D02*
D03*
D28*
X150000Y-518425D02*
D03*
Y-3457953D02*
D03*
Y-2577953D02*
D03*
Y-1828740D02*
D03*
Y-1079527D02*
D03*
D29*
Y-321575D02*
D03*
Y-3261102D02*
D03*
X483575Y-3734528D02*
D03*
X150000Y-2381102D02*
D03*
Y-1631890D02*
D03*
Y-882677D02*
D03*
X711425Y-47528D02*
D03*
D30*
X625000Y-1189527D02*
D03*
Y-1949027D02*
D03*
Y-2708528D02*
D03*
X3325000Y-2774528D02*
D03*
X3754998Y-2774528D02*
D03*
Y-2419115D02*
D03*
X3555000Y-2064528D02*
D03*
X3761000Y-1669527D02*
D03*
D31*
X525000Y-1189527D02*
D03*
X425000D02*
D03*
X525000Y-1949027D02*
D03*
X425000D02*
D03*
X525000Y-2708528D02*
D03*
X425000D02*
D03*
X3125000Y-2774528D02*
D03*
X3225000D02*
D03*
X3554998Y-2774528D02*
D03*
X3654998D02*
D03*
X3554998Y-2419115D02*
D03*
X3654998D02*
D03*
X3755000Y-2064528D02*
D03*
X3655000D02*
D03*
X1095000Y-2147528D02*
D03*
Y-1261701D02*
D03*
X3561000Y-1669527D02*
D03*
X3661000D02*
D03*
D32*
X680425Y-3734528D02*
D03*
X514575Y-47528D02*
D03*
D33*
X3516000Y-1450118D02*
D03*
Y-1350118D02*
D03*
Y-1174527D02*
D03*
Y-950118D02*
D03*
D34*
X1409575Y-2507347D02*
D03*
Y-2321126D02*
D03*
Y-2134905D02*
D03*
Y-1948685D02*
D03*
Y-1762465D02*
D03*
Y-1576244D02*
D03*
Y-1390024D02*
D03*
Y-1203803D02*
D03*
D35*
X2535992Y-2371323D02*
D03*
X2418000Y-2450063D02*
D03*
Y-2308331D02*
D03*
Y-2182347D02*
D03*
X2535992Y-2119354D02*
D03*
X2418000Y-2056362D02*
D03*
X2535992Y-1993370D02*
D03*
X2418000Y-1930378D02*
D03*
X2535992Y-1867386D02*
D03*
X2418000Y-1733527D02*
D03*
X2535992Y-1670535D02*
D03*
X2418000Y-1536677D02*
D03*
X2535992Y-1473685D02*
D03*
X2418000Y-1339827D02*
D03*
X2535992Y-2245338D02*
D03*
D36*
Y-1261086D02*
D03*
D37*
X2316535Y-2499747D02*
D03*
X1607874D02*
D03*
X2318661Y-2309528D02*
D03*
X1610000D02*
D03*
X2320000Y-2129528D02*
D03*
X1611339D02*
D03*
D38*
X1406000Y-3667528D02*
D03*
Y-3273827D02*
D03*
X2616000Y-3667528D02*
D03*
Y-3273827D02*
D03*
Y-549528D02*
D03*
Y-155827D02*
D03*
X1406000Y-547528D02*
D03*
Y-153827D02*
D03*
D39*
X590354Y-469882D02*
D03*
X3425000D02*
D03*
Y-3304528D02*
D03*
X590354D02*
D03*
D40*
X3779527Y0D02*
D03*
X3779528Y-3779528D02*
D03*
X0Y0D02*
D03*
Y-3779528D02*
D03*
D44*
X694488Y-1189527D02*
D03*
X355512D02*
D03*
X694488Y-1949027D02*
D03*
X355512D02*
D03*
X694488Y-2708528D02*
D03*
X355512D02*
D03*
X3055512Y-2774528D02*
D03*
X3394488D02*
D03*
D45*
X426575Y-1189527D02*
D03*
X623425D02*
D03*
X525000D02*
D03*
X426575Y-1949027D02*
D03*
X623425D02*
D03*
X525000D02*
D03*
X426575Y-2708528D02*
D03*
X623425D02*
D03*
X525000D02*
D03*
X3225000Y-2774528D02*
D03*
X3323425D02*
D03*
X3126575D02*
D03*
D46*
X3654998Y-2774528D02*
D03*
X3753423D02*
D03*
X3556573D02*
D03*
X3654998Y-2419115D02*
D03*
X3753423D02*
D03*
X3556573D02*
D03*
X3655000Y-2064528D02*
D03*
X3556575D02*
D03*
X3753425D02*
D03*
X3661000Y-1669527D02*
D03*
X3759425D02*
D03*
X3562575D02*
D03*
D47*
X3485510Y-2774528D02*
D03*
X3824486D02*
D03*
X3485510Y-2419115D02*
D03*
X3824486D02*
D03*
X3824488Y-2064528D02*
D03*
X3485512D02*
D03*
X3491512Y-1669527D02*
D03*
X3830488D02*
D03*
D48*
X2930000Y-2418465D02*
D03*
Y-2660590D02*
D03*
%TF.MD5,3212e30ee1fd9feffc5ee6a005c0785f*%
M02*
