G04 Layer_Color=16711935*
%FSLAX26Y26*%
%MOIN*%
%TF.FileFunction,Other,Mechanical_13*%
%TF.Part,Single*%
G01*
G75*
%TA.AperFunction,NonConductor*%
%ADD49C,0.003937*%
%ADD51C,0.007874*%
D49*
X602677Y-950157D02*
G03*
X602677Y-950157I-19685J0D01*
G01*
Y-2452157D02*
G03*
X602677Y-2452157I-19685J0D01*
G01*
Y-1701157D02*
G03*
X602677Y-1701157I-19685J0D01*
G01*
X421575Y-1064331D02*
Y-914724D01*
X618425Y-1064331D02*
Y-914724D01*
X421575Y-1064331D02*
X618425D01*
X421575Y-914724D02*
X618425D01*
X1525512Y-916102D02*
X1714488D01*
X1525512Y-1053898D02*
X1714488D01*
X1525512D02*
Y-916102D01*
X1714488Y-1053898D02*
Y-916102D01*
X1837512Y-2867898D02*
X2026488D01*
X1837512Y-2730102D02*
X2026488D01*
Y-2867898D02*
Y-2730102D01*
X1837512Y-2867898D02*
Y-2730102D01*
X2398898Y-3589488D02*
Y-3400512D01*
X2261102Y-3589488D02*
Y-3400512D01*
X2398898D01*
X2261102Y-3589488D02*
X2398898D01*
X2192231D02*
Y-3400512D01*
X2054436Y-3589488D02*
Y-3400512D01*
X2192231D01*
X2054436Y-3589488D02*
X2192231D01*
X1985564D02*
Y-3400512D01*
X1847769Y-3589488D02*
Y-3400512D01*
X1985564D01*
X1847769Y-3589488D02*
X1985564D01*
X1778898D02*
Y-3400512D01*
X1641102Y-3589488D02*
Y-3400512D01*
X1778898D01*
X1641102Y-3589488D02*
X1778898D01*
X1960564Y-434488D02*
Y-245512D01*
X1822769Y-434488D02*
Y-245512D01*
X1960564D01*
X1822769Y-434488D02*
X1960564D01*
X2373898D02*
Y-245512D01*
X2236102Y-434488D02*
Y-245512D01*
X2373898D01*
X2236102Y-434488D02*
X2373898D01*
X2167231D02*
Y-245512D01*
X2029436Y-434488D02*
Y-245512D01*
X2167231D01*
X2029436Y-434488D02*
X2167231D01*
X1753898D02*
Y-245512D01*
X1616102Y-434488D02*
Y-245512D01*
X1753898D01*
X1616102Y-434488D02*
X1753898D01*
X3661693Y-2115984D02*
X3748307D01*
X3661693Y-2173071D02*
X3748307D01*
X3661693D02*
Y-2115984D01*
X3748307Y-2173071D02*
Y-2115984D01*
X3567677Y-1987086D02*
X3652323D01*
X3567677Y-1931968D02*
X3652323D01*
Y-1987086D02*
Y-1931968D01*
X3567677Y-1987086D02*
Y-1931968D01*
X3411457Y-1467835D02*
Y-1381220D01*
X3468543Y-1467835D02*
Y-1381220D01*
X3411457Y-1467835D02*
X3468543D01*
X3411457Y-1381220D02*
X3468543D01*
X3699677Y-469087D02*
X3784323D01*
X3699677Y-413968D02*
X3784323D01*
Y-469087D02*
Y-413968D01*
X3699677Y-469087D02*
Y-413968D01*
X3701677Y-275969D02*
X3786323D01*
X3701677Y-331087D02*
X3786323D01*
X3701677D02*
Y-275969D01*
X3786323Y-331087D02*
Y-275969D01*
X3698677Y-97969D02*
X3783323D01*
X3698677Y-153087D02*
X3783323D01*
X3698677D02*
Y-97969D01*
X3783323Y-153087D02*
Y-97969D01*
X3506843Y-114949D02*
Y-30303D01*
X3561961Y-114949D02*
Y-30303D01*
X3506843Y-114949D02*
X3561961D01*
X3506843Y-30303D02*
X3561961D01*
X3454677Y-185969D02*
X3539323D01*
X3454677Y-241087D02*
X3539323D01*
X3454677D02*
Y-185969D01*
X3539323Y-241087D02*
Y-185969D01*
X3273677Y-25087D02*
X3358323D01*
X3273677Y30032D02*
X3358323D01*
Y-25087D02*
Y30032D01*
X3273677Y-25087D02*
Y30032D01*
X3276677Y-78469D02*
X3361323D01*
X3276677Y-133587D02*
X3361323D01*
X3276677D02*
Y-78469D01*
X3361323Y-133587D02*
Y-78469D01*
X3273677Y-242087D02*
X3358323D01*
X3273677Y-186968D02*
X3358323D01*
Y-242087D02*
Y-186968D01*
X3273677Y-242087D02*
Y-186968D01*
X3092677Y-26087D02*
X3177323D01*
X3092677Y29032D02*
X3177323D01*
Y-26087D02*
Y29032D01*
X3092677Y-26087D02*
Y29032D01*
X3247677Y-1152086D02*
X3332323D01*
X3247677Y-1096968D02*
X3332323D01*
X3247677Y-1152086D02*
Y-1096968D01*
X3332323Y-1152086D02*
Y-1096968D01*
X3172677Y-1021968D02*
X3257323D01*
X3172677Y-1077087D02*
X3257323D01*
Y-1021968D01*
X3172677Y-1077087D02*
Y-1021968D01*
X3252677Y-972087D02*
X3337323D01*
X3252677Y-916968D02*
X3337323D01*
X3252677Y-972087D02*
Y-916968D01*
X3337323Y-972087D02*
Y-916968D01*
X3700677Y-276969D02*
X3785323D01*
X3700677Y-332087D02*
X3785323D01*
Y-276969D01*
X3700677Y-332087D02*
Y-276969D01*
Y-99969D02*
X3785323D01*
X3700677Y-155087D02*
X3785323D01*
Y-99969D01*
X3700677Y-155087D02*
Y-99969D01*
X2845354Y-2687165D02*
Y-2391890D01*
X3014646Y-2687165D02*
Y-2391890D01*
X2845354D02*
X3014646D01*
X2845354Y-2687165D02*
X3014646D01*
X1254906Y-2395441D02*
Y-2259614D01*
X993095Y-2395441D02*
Y-2259614D01*
X1254906D01*
X993095Y-2395441D02*
X1254906D01*
Y-2574441D02*
Y-2438614D01*
X993095Y-2574441D02*
Y-2438614D01*
Y-2574441D02*
X1254906D01*
X993095Y-2438614D02*
X1254906D01*
Y-2212441D02*
Y-2076614D01*
X993095Y-2212441D02*
Y-2076614D01*
Y-2212441D02*
X1254906D01*
X993095Y-2076614D02*
X1254906D01*
X3709441Y-1478205D02*
X3764559D01*
X3709441Y-1562850D02*
X3764559D01*
Y-1478205D01*
X3709441Y-1562850D02*
Y-1478205D01*
X3082441Y-3167205D02*
X3137559D01*
X3082441Y-3251850D02*
X3137559D01*
Y-3167205D01*
X3082441Y-3251850D02*
Y-3167205D01*
X2407323Y-2617086D02*
Y-2561968D01*
X2322677Y-2617086D02*
Y-2561968D01*
X2407323D01*
X2322677Y-2617086D02*
X2407323D01*
X1537677Y-2477087D02*
Y-2421968D01*
X1622323Y-2477087D02*
Y-2421968D01*
X1537677Y-2477087D02*
X1622323D01*
X1537677Y-2421968D02*
X1622323D01*
X1547677Y-2287087D02*
Y-2231968D01*
X1632323Y-2287087D02*
Y-2231968D01*
X1547677Y-2287087D02*
X1632323D01*
X1547677Y-2231968D02*
X1632323D01*
X2322677Y-2407087D02*
Y-2351968D01*
X2407323Y-2407087D02*
Y-2351968D01*
X2322677Y-2407087D02*
X2407323D01*
X2322677Y-2351968D02*
X2407323D01*
X1547677Y-2097087D02*
Y-2041968D01*
X1632323Y-2097087D02*
Y-2041968D01*
X1547677Y-2097087D02*
X1632323D01*
X1547677Y-2041968D02*
X1632323D01*
X2947677Y-2337086D02*
Y-2281968D01*
X3032323Y-2337086D02*
Y-2281968D01*
X2947677D02*
X3032323D01*
X2947677Y-2337086D02*
X3032323D01*
X2947677Y-2257086D02*
Y-2201968D01*
X3032323Y-2257086D02*
Y-2201968D01*
X2947677D02*
X3032323D01*
X2947677Y-2257086D02*
X3032323D01*
X2947677Y-2177086D02*
Y-2121968D01*
X3032323Y-2177086D02*
Y-2121968D01*
X2947677D02*
X3032323D01*
X2947677Y-2177086D02*
X3032323D01*
X2947677Y-2097086D02*
Y-2041968D01*
X3032323Y-2097086D02*
Y-2041968D01*
X2947677D02*
X3032323D01*
X2947677Y-2097086D02*
X3032323D01*
X2947677Y-2017086D02*
Y-1961968D01*
X3032323Y-2017086D02*
Y-1961968D01*
X2947677D02*
X3032323D01*
X2947677Y-2017086D02*
X3032323D01*
X2947677Y-1937086D02*
Y-1881968D01*
X3032323Y-1937086D02*
Y-1881968D01*
X2947677D02*
X3032323D01*
X2947677Y-1937086D02*
X3032323D01*
X421575Y-2566331D02*
Y-2416724D01*
X618425Y-2566331D02*
Y-2416724D01*
X421575Y-2566331D02*
X618425D01*
X421575Y-2416724D02*
X618425D01*
X421575Y-1815331D02*
Y-1665724D01*
X618425Y-1815331D02*
Y-1665724D01*
X421575Y-1815331D02*
X618425D01*
X421575Y-1665724D02*
X618425D01*
X3565693Y-1782071D02*
Y-1724984D01*
X3652307Y-1782071D02*
Y-1724984D01*
X3565693D02*
X3652307D01*
X3565693Y-1782071D02*
X3652307D01*
X1673307Y-2208071D02*
Y-2150984D01*
X1586693Y-2208071D02*
Y-2150984D01*
X1673307D01*
X1586693Y-2208071D02*
X1673307D01*
Y-2398071D02*
Y-2340984D01*
X1586693Y-2398071D02*
Y-2340984D01*
X1673307D01*
X1586693Y-2398071D02*
X1673307D01*
Y-2588071D02*
Y-2530984D01*
X1586693Y-2588071D02*
Y-2530984D01*
X1673307D01*
X1586693Y-2588071D02*
X1673307D01*
X2606457Y-2472834D02*
X2663543D01*
X2606457Y-2386220D02*
X2663543D01*
Y-2472834D02*
Y-2386220D01*
X2606457Y-2472834D02*
Y-2386220D01*
X3042362Y-2699173D02*
X3337638D01*
X3042362Y-2529882D02*
X3337638D01*
Y-2699173D02*
Y-2529882D01*
X3042362Y-2699173D02*
Y-2529882D01*
X3033307Y-1938071D02*
Y-1880984D01*
X2946693Y-1938071D02*
Y-1880984D01*
X3033307D01*
X2946693Y-1938071D02*
X3033307D01*
Y-2178071D02*
Y-2120984D01*
X2946693Y-2178071D02*
Y-2120984D01*
X3033307D01*
X2946693Y-2178071D02*
X3033307D01*
Y-2018071D02*
Y-1960984D01*
X2946693Y-2018071D02*
Y-1960984D01*
X3033307D01*
X2946693Y-2018071D02*
X3033307D01*
Y-2258071D02*
Y-2200984D01*
X2946693Y-2258071D02*
Y-2200984D01*
X3033307D01*
X2946693Y-2258071D02*
X3033307D01*
Y-2098071D02*
Y-2040984D01*
X2946693Y-2098071D02*
Y-2040984D01*
X3033307D01*
X2946693Y-2098071D02*
X3033307D01*
Y-2338071D02*
Y-2280984D01*
X2946693Y-2338071D02*
Y-2280984D01*
X3033307D01*
X2946693Y-2338071D02*
X3033307D01*
X2792362Y-1639882D02*
X3087638D01*
X2792362Y-1809173D02*
X3087638D01*
Y-1639882D01*
X2792362Y-1809173D02*
Y-1639882D01*
X2797362Y-1814173D02*
X3092638D01*
X2797362Y-1644882D02*
X3092638D01*
Y-1814173D02*
Y-1644882D01*
X2797362Y-1814173D02*
Y-1644882D01*
X2692362Y-1544173D02*
X2987638D01*
X2692362Y-1374882D02*
X2987638D01*
X2692362Y-1544173D02*
Y-1374882D01*
X2987638Y-1544173D02*
Y-1374882D01*
X2681299Y-1374882D02*
X2976575D01*
X2681299Y-1544173D02*
X2976575D01*
X2681299D02*
Y-1374882D01*
X2976575Y-1544173D02*
Y-1374882D01*
X2682362Y-1274173D02*
X2977638D01*
X2682362Y-1104882D02*
X2977638D01*
X2682362Y-1274173D02*
Y-1104882D01*
X2977638Y-1274173D02*
Y-1104882D01*
X2692362Y-1104882D02*
X2987638D01*
X2692362Y-1274173D02*
X2987638D01*
X2692362D02*
Y-1104882D01*
X2987638Y-1274173D02*
Y-1104882D01*
X3688441Y-639850D02*
X3743559D01*
X3688441Y-555205D02*
X3743559D01*
X3688441Y-639850D02*
Y-555205D01*
X3743559Y-639850D02*
Y-555205D01*
X3603457Y-668835D02*
X3660543D01*
X3603457Y-582220D02*
X3660543D01*
X3603457Y-668835D02*
Y-582220D01*
X3660543Y-668835D02*
Y-582220D01*
X3539362Y-900173D02*
Y-730882D01*
X3834638Y-900173D02*
Y-730882D01*
X3539362D02*
X3834638D01*
X3539362Y-900173D02*
X3834638D01*
X3771441Y-639850D02*
Y-555205D01*
X3826559Y-639850D02*
Y-555205D01*
X3771441Y-639850D02*
X3826559D01*
X3771441Y-555205D02*
X3826559D01*
X3730457Y-1834834D02*
X3787543D01*
X3730457Y-1748220D02*
X3787543D01*
X3730457Y-1834834D02*
Y-1748220D01*
X3787543Y-1834834D02*
Y-1748220D01*
X3420457Y-1102834D02*
X3477543D01*
X3420457Y-1016220D02*
X3477543D01*
X3420457Y-1102834D02*
Y-1016220D01*
X3477543Y-1102834D02*
Y-1016220D01*
X472693Y-1307071D02*
X559307D01*
X472693Y-1249984D02*
X559307D01*
Y-1307071D02*
Y-1249984D01*
X472693Y-1307071D02*
Y-1249984D01*
Y-2075071D02*
X559307D01*
X472693Y-2017984D02*
X559307D01*
Y-2075071D02*
Y-2017984D01*
X472693Y-2075071D02*
Y-2017984D01*
Y-2843071D02*
X559307D01*
X472693Y-2785984D02*
X559307D01*
Y-2843071D02*
Y-2785984D01*
X472693Y-2843071D02*
Y-2785984D01*
X2863543Y-2492834D02*
Y-2406220D01*
X2806457Y-2492834D02*
Y-2406220D01*
X2863543D01*
X2806457Y-2492834D02*
X2863543D01*
D51*
X3365000Y-1509118D02*
X3582000D01*
X3365000D02*
X3366000Y-1508118D01*
Y-875118D01*
X3594000D01*
Y-1497118D02*
Y-875118D01*
X3582000Y-1509118D02*
X3594000Y-1497118D01*
%TF.MD5,f0ca7e91fcace71e46e72c3c10acc37f*%
M02*
