G04 Layer_Color=32896*
%FSLAX26Y26*%
%MOIN*%
%TF.FileFunction,Legend,Bot*%
%TF.Part,Single*%
G01*
G75*
%TA.AperFunction,NonConductor*%
%ADD40C,0.007874*%
%ADD41C,0.010000*%
%ADD42C,0.007000*%
%ADD43C,0.006000*%
G36*
X4139000Y2298913D02*
X4147000D01*
Y2290913D01*
X4163000D01*
Y2298913D01*
X4171000D01*
Y2306913D01*
X4187000D01*
Y2298913D01*
X4195000D01*
Y2282913D01*
X4179000D01*
Y2266913D01*
X4187000D01*
Y2250913D01*
X4195000D01*
Y2058913D01*
X4187000D01*
Y2042913D01*
X4179000D01*
Y2026913D01*
X4195000D01*
Y2010913D01*
X4187000D01*
Y2002913D01*
X4179000D01*
Y2010913D01*
X4139000D01*
Y1466913D01*
X251000D01*
Y1474913D01*
X243000D01*
Y1458913D01*
X235000D01*
Y1466913D01*
X227000D01*
Y1474913D01*
X219000D01*
Y1522913D01*
X179000D01*
Y2274913D01*
X163000D01*
Y2282913D01*
X179000D01*
Y2290913D01*
X219000D01*
Y2442913D01*
X203000D01*
Y2434913D01*
X179000D01*
Y2442913D01*
X163000D01*
Y2450913D01*
X187000D01*
Y2466913D01*
X179000D01*
Y2482913D01*
X163000D01*
Y2674913D01*
X179000D01*
Y2682913D01*
X187000D01*
Y2698913D01*
X179000D01*
Y2714913D01*
X163000D01*
Y2722913D01*
X179000D01*
Y2730913D01*
X187000D01*
Y2722913D01*
X219000D01*
Y2890913D01*
X211000D01*
Y2898913D01*
X203000D01*
Y2914913D01*
X195000D01*
Y2922913D01*
X187000D01*
Y3330913D01*
X195000D01*
Y3338913D01*
X203000D01*
Y3346913D01*
X211000D01*
Y3354913D01*
X219000D01*
Y3490913D01*
X227000D01*
Y3506913D01*
X243000D01*
Y3490913D01*
X251000D01*
Y3498913D01*
X4131000D01*
Y3506913D01*
X4139000D01*
Y2298913D01*
D02*
G37*
%LPC*%
G36*
X4123000Y2282913D02*
X3971000D01*
Y2242913D01*
X3987000D01*
Y2234913D01*
X3995000D01*
Y2210913D01*
X3987000D01*
Y2202913D01*
X3971000D01*
Y2106913D01*
X3987000D01*
Y2098913D01*
X3995000D01*
Y2074913D01*
X3979000D01*
Y2066913D01*
X3971000D01*
Y2034913D01*
X4035000D01*
Y2026913D01*
X4067000D01*
Y2034913D01*
X4091000D01*
Y2026913D01*
X4123000D01*
Y2034913D01*
X4131000D01*
Y2066913D01*
X4091000D01*
Y2074913D01*
X4051000D01*
Y2082913D01*
X4043000D01*
Y2098913D01*
X4051000D01*
Y2106913D01*
X4099000D01*
Y2114913D01*
X4115000D01*
Y2106913D01*
X4131000D01*
Y2202913D01*
X4091000D01*
Y2210913D01*
X4059000D01*
Y2202913D01*
X4051000D01*
Y2210913D01*
X4043000D01*
Y2234913D01*
X4051000D01*
Y2242913D01*
X4059000D01*
Y2234913D01*
X4091000D01*
Y2242913D01*
X4131000D01*
Y2274913D01*
X4123000D01*
Y2282913D01*
D02*
G37*
G36*
X219000Y2274913D02*
X187000D01*
Y2210913D01*
X219000D01*
Y2274913D01*
D02*
G37*
G36*
Y1594913D02*
X187000D01*
Y1530913D01*
X219000D01*
Y1594913D01*
D02*
G37*
G36*
X251000Y2522913D02*
X235000D01*
Y2506913D01*
X251000D01*
Y2522913D01*
D02*
G37*
G36*
X203000Y2666913D02*
X179000D01*
Y2490913D01*
X195000D01*
Y2474913D01*
X203000D01*
Y2466913D01*
X219000D01*
Y2498913D01*
X203000D01*
Y2666913D01*
D02*
G37*
G36*
X1027000Y2274913D02*
X235000D01*
Y2218913D01*
X243000D01*
Y2074913D01*
X235000D01*
Y1922913D01*
X243000D01*
Y1914913D01*
X235000D01*
Y1738913D01*
X243000D01*
Y1594913D01*
X235000D01*
Y1530913D01*
X1027000D01*
Y2274913D01*
D02*
G37*
G36*
X219000Y1898913D02*
X187000D01*
Y1738913D01*
X219000D01*
Y1898913D01*
D02*
G37*
G36*
Y1722913D02*
X187000D01*
Y1610913D01*
X219000D01*
Y1722913D01*
D02*
G37*
G36*
Y2074913D02*
X187000D01*
Y1906913D01*
X211000D01*
Y1914913D01*
X219000D01*
Y2074913D01*
D02*
G37*
G36*
Y2202913D02*
X187000D01*
Y2082913D01*
X219000D01*
Y2202913D01*
D02*
G37*
G36*
X4163000Y2266913D02*
X4147000D01*
Y2258913D01*
X4139000D01*
Y2242913D01*
X4163000D01*
Y2074913D01*
X4147000D01*
Y2066913D01*
X4139000D01*
Y2050913D01*
X4147000D01*
Y2042913D01*
X4163000D01*
Y2066913D01*
X4171000D01*
Y2058913D01*
X4179000D01*
Y2066913D01*
X4187000D01*
Y2242913D01*
X4163000D01*
Y2266913D01*
D02*
G37*
G36*
X283000Y3346913D02*
X235000D01*
Y2906913D01*
X299000D01*
Y2914913D01*
X307000D01*
Y2938913D01*
X315000D01*
Y2962913D01*
X323000D01*
Y2994913D01*
X331000D01*
Y3002913D01*
X339000D01*
Y3050913D01*
X347000D01*
Y3178913D01*
X339000D01*
Y3226913D01*
X331000D01*
Y3242913D01*
X323000D01*
Y3266913D01*
X315000D01*
Y3290913D01*
X307000D01*
Y3314913D01*
X299000D01*
Y3330913D01*
X291000D01*
Y3338913D01*
X283000D01*
Y3346913D01*
D02*
G37*
G36*
X3099000Y3490913D02*
X1083000D01*
Y3482913D01*
X235000D01*
Y3354913D01*
X251000D01*
Y3450913D01*
X859000D01*
Y3458913D01*
X867000D01*
Y2882913D01*
X875000D01*
Y2874913D01*
X867000D01*
Y2866913D01*
X851000D01*
Y2874913D01*
X291000D01*
Y2890913D01*
X235000D01*
Y2746913D01*
X243000D01*
Y2714913D01*
X267000D01*
Y2746913D01*
X307000D01*
Y2714913D01*
X339000D01*
Y2722913D01*
X411000D01*
Y2442913D01*
X307000D01*
Y2410913D01*
X275000D01*
Y2418913D01*
X267000D01*
Y2442913D01*
X243000D01*
Y2410913D01*
X235000D01*
Y2290913D01*
X1035000D01*
Y2282913D01*
X1043000D01*
Y2274913D01*
X1035000D01*
Y1522913D01*
X235000D01*
Y1482913D01*
X1091000D01*
Y1474913D01*
X3099000D01*
Y1482913D01*
X4131000D01*
Y2010913D01*
X4099000D01*
Y1986913D01*
X4091000D01*
Y1994913D01*
X4067000D01*
Y1986913D01*
X4059000D01*
Y2010913D01*
X3955000D01*
Y2042913D01*
X3963000D01*
Y2050913D01*
X3955000D01*
Y2290913D01*
X4051000D01*
Y2298913D01*
X4059000D01*
Y2322913D01*
X4099000D01*
Y2290913D01*
X4123000D01*
Y2298913D01*
X4131000D01*
Y3482913D01*
X3099000D01*
Y3490913D01*
D02*
G37*
G36*
X299000Y3442913D02*
X275000D01*
Y3434913D01*
X267000D01*
Y3362913D01*
X291000D01*
Y3354913D01*
X307000D01*
Y3330913D01*
X315000D01*
Y3314913D01*
X323000D01*
Y3290913D01*
X331000D01*
Y3274913D01*
X339000D01*
Y3258913D01*
X347000D01*
Y3226913D01*
X355000D01*
Y3170913D01*
X363000D01*
Y3058913D01*
X355000D01*
Y3010913D01*
X347000D01*
Y2978913D01*
X339000D01*
Y2962913D01*
X331000D01*
Y2938913D01*
X323000D01*
Y2922913D01*
X315000D01*
Y2898913D01*
X307000D01*
Y2882913D01*
X859000D01*
Y2914913D01*
X827000D01*
Y2906913D01*
X819000D01*
Y2938913D01*
X859000D01*
Y2986913D01*
X819000D01*
Y3010913D01*
X859000D01*
Y3138913D01*
X827000D01*
Y3130913D01*
X819000D01*
Y3162913D01*
X859000D01*
Y3210913D01*
X819000D01*
Y3234913D01*
X835000D01*
Y3226913D01*
X859000D01*
Y3434913D01*
X339000D01*
Y3394913D01*
X307000D01*
Y3434913D01*
X299000D01*
Y3442913D01*
D02*
G37*
G36*
X219000Y3330913D02*
X203000D01*
Y2914913D01*
X219000D01*
Y3330913D01*
D02*
G37*
G36*
X251000Y2658913D02*
X235000D01*
Y2634913D01*
X251000D01*
Y2658913D01*
D02*
G37*
G36*
X395000Y2706913D02*
X243000D01*
Y2674913D01*
X235000D01*
Y2666913D01*
X251000D01*
Y2674913D01*
X275000D01*
Y2658913D01*
X323000D01*
Y2634913D01*
X275000D01*
Y2618913D01*
X251000D01*
Y2626913D01*
X235000D01*
Y2618913D01*
X243000D01*
Y2538913D01*
X235000D01*
Y2530913D01*
X251000D01*
Y2538913D01*
X275000D01*
Y2522913D01*
X323000D01*
Y2498913D01*
X275000D01*
Y2490913D01*
X267000D01*
Y2482913D01*
X251000D01*
Y2490913D01*
X235000D01*
Y2482913D01*
X243000D01*
Y2450913D01*
X395000D01*
Y2498913D01*
X387000D01*
Y2490913D01*
X379000D01*
Y2498913D01*
X371000D01*
Y2522913D01*
X395000D01*
Y2634913D01*
X371000D01*
Y2658913D01*
X395000D01*
Y2706913D01*
D02*
G37*
G36*
X219000Y2690913D02*
X203000D01*
Y2666913D01*
X211000D01*
Y2658913D01*
X219000D01*
Y2690913D01*
D02*
G37*
%LPD*%
G36*
X3083000Y3458913D02*
X3099000D01*
Y3450913D01*
X3107000D01*
Y3226913D01*
X3099000D01*
Y3218913D01*
X3083000D01*
Y3210913D01*
X1099000D01*
Y3218913D01*
X1091000D01*
Y3226913D01*
X1083000D01*
Y3458913D01*
X1099000D01*
Y3466913D01*
X1107000D01*
Y3474913D01*
X1115000D01*
Y3466913D01*
X3075000D01*
Y3474913D01*
X3083000D01*
Y3458913D01*
D02*
G37*
G36*
X3091000Y1746913D02*
X3099000D01*
Y1738913D01*
X3107000D01*
Y1514913D01*
X3099000D01*
Y1506913D01*
X3083000D01*
Y1498913D01*
X1107000D01*
Y1506913D01*
X1091000D01*
Y1514913D01*
X1083000D01*
Y1738913D01*
X1091000D01*
Y1522913D01*
X1099000D01*
Y1514913D01*
X1123000D01*
Y1506913D01*
X3059000D01*
Y1514913D01*
X3091000D01*
Y1738913D01*
X1091000D01*
Y1746913D01*
X1099000D01*
Y1754913D01*
X3091000D01*
Y1746913D01*
D02*
G37*
G36*
X3243000Y2042913D02*
X3251000D01*
Y1618913D01*
X3243000D01*
Y1610913D01*
X3227000D01*
Y1602913D01*
X3219000D01*
Y1610913D01*
X3203000D01*
Y1626913D01*
X3195000D01*
Y1642913D01*
X3203000D01*
Y2018913D01*
X3195000D01*
Y2034913D01*
X3203000D01*
Y2050913D01*
X3243000D01*
Y2042913D01*
D02*
G37*
G36*
X2155000Y2874913D02*
X2163000D01*
Y2866913D01*
X2171000D01*
Y2858913D01*
X2179000D01*
Y2850913D01*
X2187000D01*
Y2842913D01*
X2203000D01*
Y2826913D01*
X2211000D01*
Y2818913D01*
X2219000D01*
Y2810913D01*
X2227000D01*
Y2802913D01*
X2235000D01*
Y2794913D01*
X2243000D01*
Y2786913D01*
X2251000D01*
Y2778913D01*
X2267000D01*
Y2762913D01*
X2275000D01*
Y2754913D01*
X2283000D01*
Y2746913D01*
X2291000D01*
Y2738913D01*
X2299000D01*
Y2730913D01*
X2307000D01*
Y2722913D01*
X2315000D01*
Y2714913D01*
X2323000D01*
Y2706913D01*
X2331000D01*
Y2698913D01*
X2339000D01*
Y2690913D01*
X2347000D01*
Y2682913D01*
X2355000D01*
Y2674913D01*
X2363000D01*
Y2666913D01*
X2371000D01*
Y2658913D01*
X2379000D01*
Y2650913D01*
X2387000D01*
Y2642913D01*
X2395000D01*
Y2634913D01*
X2403000D01*
Y2626913D01*
X2411000D01*
Y2618913D01*
X2419000D01*
Y2610913D01*
X2427000D01*
Y2602913D01*
X2435000D01*
Y2594913D01*
X2443000D01*
Y2586913D01*
X2451000D01*
Y2578913D01*
X2467000D01*
Y2562913D01*
X2475000D01*
Y2554913D01*
X2483000D01*
Y2546913D01*
X2491000D01*
Y2530913D01*
X2483000D01*
Y2522913D01*
X2475000D01*
Y2490913D01*
X2467000D01*
Y2474913D01*
X2475000D01*
Y2450913D01*
X2483000D01*
Y2442913D01*
X2491000D01*
Y2434913D01*
X2499000D01*
Y2426913D01*
X2491000D01*
Y2418913D01*
X2483000D01*
Y2410913D01*
X2475000D01*
Y2402913D01*
X2467000D01*
Y2394913D01*
X2459000D01*
Y2386913D01*
X2451000D01*
Y2378913D01*
X2443000D01*
Y2370913D01*
X2435000D01*
Y2362913D01*
X2427000D01*
Y2354913D01*
X2419000D01*
Y2346913D01*
X2411000D01*
Y2338913D01*
X2403000D01*
Y2330913D01*
X2395000D01*
Y2322913D01*
X2387000D01*
Y2314913D01*
X2379000D01*
Y2306913D01*
X2371000D01*
Y2298913D01*
X2363000D01*
Y2290913D01*
X2355000D01*
Y2282913D01*
X2347000D01*
Y2274913D01*
X2339000D01*
Y2266913D01*
X2331000D01*
Y2258913D01*
X2323000D01*
Y2250913D01*
X2315000D01*
Y2242913D01*
X2307000D01*
Y2234913D01*
X2299000D01*
Y2226913D01*
X2291000D01*
Y2218913D01*
X2283000D01*
Y2210913D01*
X2275000D01*
Y2202913D01*
X2267000D01*
Y2194913D01*
X2259000D01*
Y2186913D01*
X2251000D01*
Y2178913D01*
X2243000D01*
Y2170913D01*
X2235000D01*
Y2162913D01*
X2227000D01*
Y2154913D01*
X2219000D01*
Y2146913D01*
X2211000D01*
Y2138913D01*
X2203000D01*
Y2130913D01*
X2195000D01*
Y2122913D01*
X2187000D01*
Y2114913D01*
X2179000D01*
Y2106913D01*
X2171000D01*
Y2098913D01*
X2163000D01*
Y2090913D01*
X2155000D01*
Y2082913D01*
X2139000D01*
Y2090913D01*
X2131000D01*
Y2106913D01*
X2107000D01*
Y2098913D01*
X2075000D01*
Y2106913D01*
X2051000D01*
Y2090913D01*
X2043000D01*
Y2082913D01*
X2035000D01*
Y2090913D01*
X2027000D01*
Y2098913D01*
X2019000D01*
Y2106913D01*
X2011000D01*
Y2114913D01*
X2003000D01*
Y2122913D01*
X1995000D01*
Y2130913D01*
X1987000D01*
Y2138913D01*
X1979000D01*
Y2146913D01*
X1971000D01*
Y2154913D01*
X1963000D01*
Y2162913D01*
X1955000D01*
Y2170913D01*
X1947000D01*
Y2178913D01*
X1939000D01*
Y2186913D01*
X1931000D01*
Y2194913D01*
X1923000D01*
Y2202913D01*
X1915000D01*
Y2210913D01*
X1907000D01*
Y2218913D01*
X1899000D01*
Y2226913D01*
X1891000D01*
Y2234913D01*
X1883000D01*
Y2242913D01*
X1875000D01*
Y2250913D01*
X1867000D01*
Y2258913D01*
X1859000D01*
Y2266913D01*
X1851000D01*
Y2274913D01*
X1843000D01*
Y2282913D01*
X1835000D01*
Y2290913D01*
X1827000D01*
Y2298913D01*
X1819000D01*
Y2306913D01*
X1811000D01*
Y2314913D01*
X1803000D01*
Y2322913D01*
X1795000D01*
Y2330913D01*
X1787000D01*
Y2338913D01*
X1779000D01*
Y2346913D01*
X1771000D01*
Y2354913D01*
X1763000D01*
Y2362913D01*
X1755000D01*
Y2370913D01*
X1747000D01*
Y2378913D01*
X1739000D01*
Y2386913D01*
X1731000D01*
Y2394913D01*
X1723000D01*
Y2402913D01*
X1715000D01*
Y2410913D01*
X1707000D01*
Y2418913D01*
X1699000D01*
Y2426913D01*
X1691000D01*
Y2434913D01*
X1699000D01*
Y2442913D01*
X1707000D01*
Y2450913D01*
X1715000D01*
Y2474913D01*
X1707000D01*
Y2498913D01*
X1715000D01*
Y2514913D01*
X1707000D01*
Y2522913D01*
X1699000D01*
Y2530913D01*
X1691000D01*
Y2546913D01*
X1699000D01*
Y2554913D01*
X1707000D01*
Y2562913D01*
X1723000D01*
Y2578913D01*
X1731000D01*
Y2586913D01*
X1739000D01*
Y2594913D01*
X1747000D01*
Y2602913D01*
X1755000D01*
Y2610913D01*
X1763000D01*
Y2618913D01*
X1771000D01*
Y2626913D01*
X1779000D01*
Y2634913D01*
X1787000D01*
Y2642913D01*
X1795000D01*
Y2650913D01*
X1803000D01*
Y2658913D01*
X1819000D01*
Y2674913D01*
X1827000D01*
Y2682913D01*
X1835000D01*
Y2690913D01*
X1851000D01*
Y2698913D01*
X1859000D01*
Y2714913D01*
X1867000D01*
Y2722913D01*
X1875000D01*
Y2730913D01*
X1891000D01*
Y2746913D01*
X1899000D01*
Y2754913D01*
X1907000D01*
Y2762913D01*
X1923000D01*
Y2778913D01*
X1931000D01*
Y2786913D01*
X1939000D01*
Y2794913D01*
X1947000D01*
Y2802913D01*
X1955000D01*
Y2810913D01*
X1963000D01*
Y2818913D01*
X1971000D01*
Y2826913D01*
X1979000D01*
Y2834913D01*
X1987000D01*
Y2842913D01*
X1995000D01*
Y2850913D01*
X2003000D01*
Y2858913D01*
X2011000D01*
Y2866913D01*
X2027000D01*
Y2882913D01*
X2051000D01*
Y2866913D01*
X2059000D01*
Y2858913D01*
X2075000D01*
Y2866913D01*
X2083000D01*
Y2874913D01*
X2107000D01*
Y2858913D01*
X2131000D01*
Y2874913D01*
X2139000D01*
Y2882913D01*
X2155000D01*
Y2874913D01*
D02*
G37*
G36*
X3235000Y3354913D02*
X3243000D01*
Y3346913D01*
X3251000D01*
Y2418913D01*
X3243000D01*
Y2410913D01*
X3203000D01*
Y2426913D01*
X3195000D01*
Y2442913D01*
X3203000D01*
Y3322913D01*
X3195000D01*
Y3338913D01*
X3203000D01*
Y3354913D01*
X3211000D01*
Y2418913D01*
X3227000D01*
Y2426913D01*
X3235000D01*
Y2434913D01*
X3243000D01*
Y3338913D01*
X3235000D01*
Y3346913D01*
X3227000D01*
Y3354913D01*
X3211000D01*
Y3362913D01*
X3235000D01*
Y3354913D01*
D02*
G37*
G36*
X3747000Y3178913D02*
X3755000D01*
Y3170913D01*
X3763000D01*
Y3154913D01*
X3779000D01*
Y3146913D01*
X3787000D01*
Y3138913D01*
X3795000D01*
Y3122913D01*
X3803000D01*
Y3114913D01*
X3819000D01*
Y3106913D01*
X3827000D01*
Y3090913D01*
X3835000D01*
Y3082913D01*
X3851000D01*
Y3074913D01*
X3859000D01*
Y3066913D01*
X3867000D01*
Y3050913D01*
X3883000D01*
Y3042913D01*
X3891000D01*
Y3034913D01*
X3899000D01*
Y3018913D01*
X3915000D01*
Y3010913D01*
X3923000D01*
Y3002913D01*
X3931000D01*
Y2986913D01*
X3939000D01*
Y2978913D01*
X3955000D01*
Y2970913D01*
X3963000D01*
Y2954913D01*
X3971000D01*
Y2946913D01*
X3987000D01*
Y2938913D01*
X3995000D01*
Y2922913D01*
X4003000D01*
Y2914913D01*
X4019000D01*
Y2906913D01*
X4027000D01*
Y2898913D01*
X4035000D01*
Y2882913D01*
X4051000D01*
Y2874913D01*
X4059000D01*
Y2866913D01*
X4067000D01*
Y2850913D01*
X4083000D01*
Y2826913D01*
X4067000D01*
Y2818913D01*
X4059000D01*
Y2754913D01*
X4067000D01*
Y2746913D01*
X4075000D01*
Y2738913D01*
X4083000D01*
Y2722913D01*
X4075000D01*
Y2714913D01*
X4067000D01*
Y2706913D01*
X4059000D01*
Y2698913D01*
X4051000D01*
Y2690913D01*
X4043000D01*
Y2682913D01*
X4035000D01*
Y2674913D01*
X4027000D01*
Y2666913D01*
X4019000D01*
Y2658913D01*
X4011000D01*
Y2650913D01*
X4003000D01*
Y2642913D01*
X3995000D01*
Y2634913D01*
X3987000D01*
Y2626913D01*
X3979000D01*
Y2618913D01*
X3971000D01*
Y2610913D01*
X3963000D01*
Y2602913D01*
X3955000D01*
Y2594913D01*
X3947000D01*
Y2586913D01*
X3939000D01*
Y2578913D01*
X3931000D01*
Y2570913D01*
X3923000D01*
Y2562913D01*
X3915000D01*
Y2554913D01*
X3907000D01*
Y2546913D01*
X3899000D01*
Y2538913D01*
X3891000D01*
Y2530913D01*
X3883000D01*
Y2522913D01*
X3875000D01*
Y2514913D01*
X3867000D01*
Y2506913D01*
X3859000D01*
Y2498913D01*
X3851000D01*
Y2490913D01*
X3843000D01*
Y2482913D01*
X3835000D01*
Y2474913D01*
X3827000D01*
Y2466913D01*
X3819000D01*
Y2458913D01*
X3811000D01*
Y2450913D01*
X3803000D01*
Y2442913D01*
X3795000D01*
Y2434913D01*
X3787000D01*
Y2426913D01*
X3779000D01*
Y2418913D01*
X3771000D01*
Y2410913D01*
X3763000D01*
Y2402913D01*
X3755000D01*
Y2394913D01*
X3747000D01*
Y2386913D01*
X3723000D01*
Y2402913D01*
X3643000D01*
Y2394913D01*
X3635000D01*
Y2386913D01*
X3619000D01*
Y2394913D01*
X3611000D01*
Y2410913D01*
X3595000D01*
Y2418913D01*
X3587000D01*
Y2426913D01*
X3579000D01*
Y2434913D01*
X3571000D01*
Y2442913D01*
X3563000D01*
Y2450913D01*
X3555000D01*
Y2458913D01*
X3547000D01*
Y2466913D01*
X3539000D01*
Y2474913D01*
X3531000D01*
Y2482913D01*
X3523000D01*
Y2490913D01*
X3515000D01*
Y2498913D01*
X3507000D01*
Y2514913D01*
X3491000D01*
Y2522913D01*
X3483000D01*
Y2530913D01*
X3475000D01*
Y2546913D01*
X3459000D01*
Y2554913D01*
X3451000D01*
Y2562913D01*
X3443000D01*
Y2570913D01*
X3435000D01*
Y2578913D01*
X3427000D01*
Y2586913D01*
X3419000D01*
Y2594913D01*
X3411000D01*
Y2610913D01*
X3395000D01*
Y2618913D01*
X3387000D01*
Y2626913D01*
X3379000D01*
Y2634913D01*
X3371000D01*
Y2642913D01*
X3363000D01*
Y2650913D01*
X3355000D01*
Y2658913D01*
X3347000D01*
Y2666913D01*
X3339000D01*
Y2682913D01*
X3323000D01*
Y2690913D01*
X3315000D01*
Y2698913D01*
X3307000D01*
Y2714913D01*
X3291000D01*
Y2722913D01*
X3283000D01*
Y2738913D01*
X3291000D01*
Y2746913D01*
X3299000D01*
Y2754913D01*
X3307000D01*
Y2770913D01*
X3299000D01*
Y2778913D01*
X3291000D01*
Y2794913D01*
X3299000D01*
Y2802913D01*
X3307000D01*
Y2818913D01*
X3291000D01*
Y2826913D01*
X3283000D01*
Y2850913D01*
X3291000D01*
Y2858913D01*
X3307000D01*
Y2874913D01*
X3315000D01*
Y2882913D01*
X3323000D01*
Y2890913D01*
X3339000D01*
Y2898913D01*
X3347000D01*
Y2914913D01*
X3355000D01*
Y2922913D01*
X3371000D01*
Y2930913D01*
X3379000D01*
Y2946913D01*
X3387000D01*
Y2954913D01*
X3395000D01*
Y2962913D01*
X3411000D01*
Y2970913D01*
X3419000D01*
Y2986913D01*
X3427000D01*
Y2994913D01*
X3443000D01*
Y3010913D01*
X3451000D01*
Y3018913D01*
X3459000D01*
Y3026913D01*
X3475000D01*
Y3034913D01*
X3483000D01*
Y3050913D01*
X3491000D01*
Y3058913D01*
X3507000D01*
Y3074913D01*
X3515000D01*
Y3082913D01*
X3523000D01*
Y3090913D01*
X3539000D01*
Y3098913D01*
X3547000D01*
Y3114913D01*
X3555000D01*
Y3122913D01*
X3563000D01*
Y3130913D01*
X3579000D01*
Y3146913D01*
X3587000D01*
Y3154913D01*
X3595000D01*
Y3162913D01*
X3611000D01*
Y3178913D01*
X3619000D01*
Y3186913D01*
X3635000D01*
Y3178913D01*
X3643000D01*
Y3170913D01*
X3651000D01*
Y3162913D01*
X3675000D01*
Y3178913D01*
X3691000D01*
Y3162913D01*
X3723000D01*
Y3178913D01*
X3731000D01*
Y3186913D01*
X3747000D01*
Y3178913D01*
D02*
G37*
%LPC*%
G36*
X3067000Y3458913D02*
X1123000D01*
Y3450913D01*
X1099000D01*
Y3442913D01*
X1091000D01*
Y3234913D01*
X1099000D01*
Y3226913D01*
X3091000D01*
Y3450913D01*
X3067000D01*
Y3458913D01*
D02*
G37*
G36*
X3235000Y2042913D02*
X3211000D01*
Y1618913D01*
X3227000D01*
Y1626913D01*
X3235000D01*
Y1634913D01*
X3243000D01*
Y2026913D01*
X3235000D01*
Y2042913D01*
D02*
G37*
G36*
X2107000Y2850913D02*
X2075000D01*
Y2834913D01*
X2067000D01*
Y2826913D01*
X2059000D01*
Y2818913D01*
X2051000D01*
Y2810913D01*
X2043000D01*
Y2802913D01*
X2035000D01*
Y2794913D01*
X2027000D01*
Y2786913D01*
X2019000D01*
Y2778913D01*
X2011000D01*
Y2770913D01*
X2003000D01*
Y2762913D01*
X1995000D01*
Y2754913D01*
X1987000D01*
Y2746913D01*
X1979000D01*
Y2738913D01*
X1971000D01*
Y2730913D01*
X1963000D01*
Y2722913D01*
X1955000D01*
Y2714913D01*
X1947000D01*
Y2706913D01*
X1939000D01*
Y2698913D01*
X1931000D01*
Y2690913D01*
X1923000D01*
Y2682913D01*
X1915000D01*
Y2674913D01*
X1907000D01*
Y2666913D01*
X1899000D01*
Y2658913D01*
X1891000D01*
Y2650913D01*
X1883000D01*
Y2642913D01*
X1875000D01*
Y2634913D01*
X1867000D01*
Y2626913D01*
X1859000D01*
Y2618913D01*
X1851000D01*
Y2610913D01*
X1843000D01*
Y2602913D01*
X1835000D01*
Y2594913D01*
X1827000D01*
Y2586913D01*
X1819000D01*
Y2578913D01*
X1811000D01*
Y2570913D01*
X1803000D01*
Y2562913D01*
X1795000D01*
Y2554913D01*
X1787000D01*
Y2546913D01*
X1779000D01*
Y2538913D01*
X1771000D01*
Y2530913D01*
X1763000D01*
Y2522913D01*
X1755000D01*
Y2514913D01*
X1747000D01*
Y2506913D01*
X1739000D01*
Y2498913D01*
X1731000D01*
Y2474913D01*
X1739000D01*
Y2458913D01*
X1755000D01*
Y2450913D01*
X1763000D01*
Y2442913D01*
X1771000D01*
Y2426913D01*
X1779000D01*
Y2418913D01*
X1795000D01*
Y2410913D01*
X1803000D01*
Y2402913D01*
X1811000D01*
Y2386913D01*
X1827000D01*
Y2378913D01*
X1835000D01*
Y2370913D01*
X1843000D01*
Y2354913D01*
X1859000D01*
Y2346913D01*
X1867000D01*
Y2338913D01*
X1875000D01*
Y2322913D01*
X1891000D01*
Y2314913D01*
X1899000D01*
Y2306913D01*
X1907000D01*
Y2290913D01*
X1923000D01*
Y2282913D01*
X1931000D01*
Y2274913D01*
X1939000D01*
Y2258913D01*
X1947000D01*
Y2250913D01*
X1963000D01*
Y2242913D01*
X1971000D01*
Y2234913D01*
X1979000D01*
Y2218913D01*
X1995000D01*
Y2210913D01*
X2003000D01*
Y2202913D01*
X2011000D01*
Y2186913D01*
X2027000D01*
Y2178913D01*
X2035000D01*
Y2170913D01*
X2043000D01*
Y2154913D01*
X2059000D01*
Y2146913D01*
X2067000D01*
Y2138913D01*
X2075000D01*
Y2122913D01*
X2091000D01*
Y2114913D01*
X2107000D01*
Y2130913D01*
X2115000D01*
Y2138913D01*
X2123000D01*
Y2146913D01*
X2131000D01*
Y2154913D01*
X2139000D01*
Y2162913D01*
X2147000D01*
Y2170913D01*
X2155000D01*
Y2178913D01*
X2163000D01*
Y2186913D01*
X2171000D01*
Y2194913D01*
X2179000D01*
Y2202913D01*
X2187000D01*
Y2210913D01*
X2195000D01*
Y2218913D01*
X2203000D01*
Y2226913D01*
X2211000D01*
Y2234913D01*
X2219000D01*
Y2242913D01*
X2227000D01*
Y2250913D01*
X2235000D01*
Y2258913D01*
X2243000D01*
Y2266913D01*
X2251000D01*
Y2274913D01*
X2259000D01*
Y2282913D01*
X2267000D01*
Y2290913D01*
X2275000D01*
Y2298913D01*
X2283000D01*
Y2306913D01*
X2291000D01*
Y2314913D01*
X2299000D01*
Y2322913D01*
X2307000D01*
Y2330913D01*
X2315000D01*
Y2338913D01*
X2323000D01*
Y2346913D01*
X2331000D01*
Y2354913D01*
X2339000D01*
Y2362913D01*
X2347000D01*
Y2370913D01*
X2355000D01*
Y2378913D01*
X2363000D01*
Y2386913D01*
X2371000D01*
Y2394913D01*
X2379000D01*
Y2402913D01*
X2387000D01*
Y2410913D01*
X2395000D01*
Y2418913D01*
X2403000D01*
Y2426913D01*
X2411000D01*
Y2434913D01*
X2419000D01*
Y2442913D01*
X2427000D01*
Y2450913D01*
X2435000D01*
Y2458913D01*
X2427000D01*
Y2466913D01*
X2411000D01*
Y2482913D01*
X2403000D01*
Y2490913D01*
X2411000D01*
Y2506913D01*
X2435000D01*
Y2514913D01*
X2427000D01*
Y2530913D01*
X2419000D01*
Y2538913D01*
X2411000D01*
Y2546913D01*
X2403000D01*
Y2554913D01*
X2395000D01*
Y2562913D01*
X2387000D01*
Y2570913D01*
X2379000D01*
Y2578913D01*
X2371000D01*
Y2586913D01*
X2363000D01*
Y2594913D01*
X2355000D01*
Y2602913D01*
X2347000D01*
Y2610913D01*
X2339000D01*
Y2618913D01*
X2331000D01*
Y2626913D01*
X2323000D01*
Y2634913D01*
X2315000D01*
Y2642913D01*
X2307000D01*
Y2650913D01*
X2299000D01*
Y2658913D01*
X2291000D01*
Y2666913D01*
X2283000D01*
Y2674913D01*
X2275000D01*
Y2682913D01*
X2267000D01*
Y2690913D01*
X2259000D01*
Y2698913D01*
X2251000D01*
Y2706913D01*
X2243000D01*
Y2714913D01*
X2235000D01*
Y2722913D01*
X2227000D01*
Y2730913D01*
X2219000D01*
Y2738913D01*
X2211000D01*
Y2746913D01*
X2203000D01*
Y2754913D01*
X2195000D01*
Y2762913D01*
X2187000D01*
Y2770913D01*
X2179000D01*
Y2778913D01*
X2171000D01*
Y2786913D01*
X2163000D01*
Y2794913D01*
X2155000D01*
Y2802913D01*
X2147000D01*
Y2810913D01*
X2139000D01*
Y2818913D01*
X2131000D01*
Y2826913D01*
X2123000D01*
Y2834913D01*
X2115000D01*
Y2842913D01*
X2107000D01*
Y2850913D01*
D02*
G37*
G36*
X3691000Y3154913D02*
X3667000D01*
Y3138913D01*
X3659000D01*
Y3130913D01*
X3651000D01*
Y3122913D01*
X3643000D01*
Y3114913D01*
X3635000D01*
Y3106913D01*
X3627000D01*
Y3098913D01*
X3619000D01*
Y3090913D01*
X3611000D01*
Y3082913D01*
X3603000D01*
Y3074913D01*
X3595000D01*
Y3066913D01*
X3587000D01*
Y3058913D01*
X3579000D01*
Y3050913D01*
X3571000D01*
Y3042913D01*
X3563000D01*
Y3034913D01*
X3555000D01*
Y3026913D01*
X3547000D01*
Y3018913D01*
X3539000D01*
Y3010913D01*
X3531000D01*
Y3002913D01*
X3523000D01*
Y2994913D01*
X3515000D01*
Y2986913D01*
X3507000D01*
Y2978913D01*
X3499000D01*
Y2970913D01*
X3491000D01*
Y2962913D01*
X3483000D01*
Y2954913D01*
X3475000D01*
Y2946913D01*
X3467000D01*
Y2938913D01*
X3459000D01*
Y2930913D01*
X3451000D01*
Y2922913D01*
X3443000D01*
Y2914913D01*
X3435000D01*
Y2906913D01*
X3427000D01*
Y2898913D01*
X3419000D01*
Y2890913D01*
X3411000D01*
Y2882913D01*
X3403000D01*
Y2874913D01*
X3395000D01*
Y2866913D01*
X3387000D01*
Y2858913D01*
X3379000D01*
Y2850913D01*
X3371000D01*
Y2842913D01*
X3363000D01*
Y2834913D01*
X3355000D01*
Y2826913D01*
X3347000D01*
Y2818913D01*
X3339000D01*
Y2810913D01*
X3331000D01*
Y2802913D01*
X3323000D01*
Y2794913D01*
X3315000D01*
Y2786913D01*
X3323000D01*
Y2770913D01*
X3331000D01*
Y2762913D01*
X3339000D01*
Y2754913D01*
X3347000D01*
Y2746913D01*
X3355000D01*
Y2738913D01*
X3363000D01*
Y2730913D01*
X3371000D01*
Y2722913D01*
X3379000D01*
Y2714913D01*
X3387000D01*
Y2706913D01*
X3395000D01*
Y2698913D01*
X3403000D01*
Y2690913D01*
X3411000D01*
Y2682913D01*
X3419000D01*
Y2674913D01*
X3427000D01*
Y2666913D01*
X3435000D01*
Y2658913D01*
X3443000D01*
Y2650913D01*
X3451000D01*
Y2642913D01*
X3459000D01*
Y2634913D01*
X3467000D01*
Y2626913D01*
X3475000D01*
Y2618913D01*
X3483000D01*
Y2610913D01*
X3491000D01*
Y2602913D01*
X3499000D01*
Y2594913D01*
X3507000D01*
Y2586913D01*
X3515000D01*
Y2578913D01*
X3523000D01*
Y2570913D01*
X3531000D01*
Y2562913D01*
X3539000D01*
Y2554913D01*
X3547000D01*
Y2546913D01*
X3555000D01*
Y2538913D01*
X3563000D01*
Y2530913D01*
X3571000D01*
Y2522913D01*
X3579000D01*
Y2514913D01*
X3587000D01*
Y2506913D01*
X3595000D01*
Y2498913D01*
X3603000D01*
Y2490913D01*
X3611000D01*
Y2482913D01*
X3619000D01*
Y2474913D01*
X3627000D01*
Y2466913D01*
X3635000D01*
Y2458913D01*
X3643000D01*
Y2450913D01*
X3651000D01*
Y2442913D01*
X3659000D01*
Y2434913D01*
X3667000D01*
Y2418913D01*
X3691000D01*
Y2426913D01*
X3699000D01*
Y2434913D01*
X3707000D01*
Y2442913D01*
X3715000D01*
Y2450913D01*
X3723000D01*
Y2458913D01*
X3731000D01*
Y2466913D01*
X3739000D01*
Y2474913D01*
X3747000D01*
Y2482913D01*
X3755000D01*
Y2490913D01*
X3763000D01*
Y2498913D01*
X3771000D01*
Y2506913D01*
X3779000D01*
Y2514913D01*
X3787000D01*
Y2522913D01*
X3795000D01*
Y2530913D01*
X3803000D01*
Y2538913D01*
X3811000D01*
Y2546913D01*
X3819000D01*
Y2554913D01*
X3827000D01*
Y2562913D01*
X3835000D01*
Y2570913D01*
X3843000D01*
Y2578913D01*
X3851000D01*
Y2586913D01*
X3859000D01*
Y2594913D01*
X3867000D01*
Y2602913D01*
X3875000D01*
Y2610913D01*
X3883000D01*
Y2618913D01*
X3891000D01*
Y2626913D01*
X3899000D01*
Y2634913D01*
X3907000D01*
Y2642913D01*
X3915000D01*
Y2650913D01*
X3923000D01*
Y2658913D01*
X3931000D01*
Y2666913D01*
X3939000D01*
Y2674913D01*
X3947000D01*
Y2682913D01*
X3955000D01*
Y2690913D01*
X3963000D01*
Y2698913D01*
X3971000D01*
Y2706913D01*
X3979000D01*
Y2714913D01*
X3987000D01*
Y2722913D01*
X3995000D01*
Y2730913D01*
X4003000D01*
Y2738913D01*
X4011000D01*
Y2746913D01*
X4019000D01*
Y2770913D01*
X3995000D01*
Y2794913D01*
X4003000D01*
Y2802913D01*
X4011000D01*
Y2810913D01*
X4019000D01*
Y2826913D01*
X4011000D01*
Y2834913D01*
X4003000D01*
Y2842913D01*
X3995000D01*
Y2850913D01*
X3987000D01*
Y2858913D01*
X3979000D01*
Y2866913D01*
X3971000D01*
Y2874913D01*
X3963000D01*
Y2882913D01*
X3955000D01*
Y2890913D01*
X3947000D01*
Y2898913D01*
X3939000D01*
Y2906913D01*
X3931000D01*
Y2914913D01*
X3923000D01*
Y2922913D01*
X3915000D01*
Y2930913D01*
X3907000D01*
Y2938913D01*
X3899000D01*
Y2946913D01*
X3891000D01*
Y2954913D01*
X3883000D01*
Y2962913D01*
X3875000D01*
Y2970913D01*
X3867000D01*
Y2978913D01*
X3859000D01*
Y2986913D01*
X3851000D01*
Y2994913D01*
X3843000D01*
Y3002913D01*
X3835000D01*
Y3010913D01*
X3827000D01*
Y3018913D01*
X3819000D01*
Y3026913D01*
X3811000D01*
Y3034913D01*
X3803000D01*
Y3042913D01*
X3795000D01*
Y3050913D01*
X3787000D01*
Y3058913D01*
X3779000D01*
Y3066913D01*
X3771000D01*
Y3074913D01*
X3763000D01*
Y3082913D01*
X3755000D01*
Y3090913D01*
X3747000D01*
Y3098913D01*
X3739000D01*
Y3106913D01*
X3731000D01*
Y3114913D01*
X3723000D01*
Y3122913D01*
X3715000D01*
Y3130913D01*
X3707000D01*
Y3138913D01*
X3699000D01*
Y3146913D01*
X3691000D01*
Y3154913D01*
D02*
G37*
%LPD*%
D40*
X393150Y207638D02*
X786850D01*
X393150Y-87638D02*
X786850D01*
Y207638D01*
X393150Y-87638D02*
Y207638D01*
X1377520Y212638D02*
X1771220D01*
X1377520Y-82638D02*
X1771220D01*
Y212638D01*
X1377520Y-82638D02*
Y212638D01*
X2398150Y207638D02*
X2791850D01*
X2398150Y-87638D02*
X2791850D01*
Y207638D01*
X2398150Y-87638D02*
Y207638D01*
D41*
X1915001Y2400000D02*
Y2500000D01*
X1815001D02*
X2615001D01*
Y2400000D02*
Y2500000D01*
X1815001Y2400000D02*
X2615001D01*
X1815001D02*
Y2500000D01*
X1915001D02*
Y2600000D01*
X1815001D02*
X2615001D01*
Y2500000D02*
Y2600000D01*
X1815001Y2500000D02*
X2615001D01*
X1815001D02*
Y2600000D01*
X3000001Y2400000D02*
Y2500000D01*
X2900001D02*
X3700001D01*
Y2400000D02*
Y2500000D01*
X2900001Y2400000D02*
X3700001D01*
X2900001D02*
Y2500000D01*
X3000001D02*
Y2600000D01*
X2900001D02*
X3700001D01*
Y2500000D02*
Y2600000D01*
X2900001Y2500000D02*
X3700001D01*
X2900001D02*
Y2600000D01*
X3315000Y415000D02*
X3415000D01*
Y1215000D01*
X3315000D02*
X3415000D01*
X3315000Y415000D02*
Y1215000D01*
Y515000D02*
X3415000D01*
X3210000Y415000D02*
X3310000D01*
Y1215000D01*
X3210000D02*
X3310000D01*
X3210000Y415000D02*
Y1215000D01*
Y515000D02*
X3310000D01*
D42*
X806953Y265504D02*
Y300493D01*
X789458D01*
X783627Y294661D01*
Y282998D01*
X789458Y277167D01*
X806953D01*
X771964Y265504D02*
X760301D01*
X766133D01*
Y300493D01*
X771964Y294661D01*
X742807Y265504D02*
X731144D01*
X736975D01*
Y300493D01*
X742807Y294661D01*
X1790953Y270504D02*
Y305493D01*
X1773458D01*
X1767627Y299661D01*
Y287998D01*
X1773458Y282167D01*
X1790953D01*
X1755964Y276335D02*
X1750133Y270504D01*
X1738470D01*
X1732638Y276335D01*
Y299661D01*
X1738470Y305493D01*
X1750133D01*
X1755964Y299661D01*
Y293830D01*
X1750133Y287998D01*
X1732638D01*
X2917953Y1335493D02*
Y1306335D01*
X2912121Y1300504D01*
X2900458D01*
X2894627Y1306335D01*
Y1335493D01*
X2859638D02*
X2871301Y1329661D01*
X2882964Y1317998D01*
Y1306335D01*
X2877133Y1300504D01*
X2865470D01*
X2859638Y1306335D01*
Y1312167D01*
X2865470Y1317998D01*
X2882964D01*
X2811953Y265504D02*
Y300493D01*
X2794458D01*
X2788627Y294661D01*
Y282998D01*
X2794458Y277167D01*
X2811953D01*
X2776964Y265504D02*
X2765301D01*
X2771133D01*
Y300493D01*
X2776964Y294661D01*
X2747807D02*
X2741975Y300493D01*
X2730312D01*
X2724481Y294661D01*
Y271335D01*
X2730312Y265504D01*
X2741975D01*
X2747807Y271335D01*
Y294661D01*
X907953Y1335493D02*
Y1306335D01*
X902121Y1300504D01*
X890458D01*
X884627Y1306335D01*
Y1335493D01*
X872964D02*
X849638D01*
Y1329661D01*
X872964Y1306335D01*
Y1300504D01*
X1891953Y1340493D02*
Y1311335D01*
X1886121Y1305504D01*
X1874458D01*
X1868627Y1311335D01*
Y1340493D01*
X1856964Y1334661D02*
X1851133Y1340493D01*
X1839470D01*
X1833638Y1334661D01*
Y1328830D01*
X1839470Y1322998D01*
X1845301D01*
X1839470D01*
X1833638Y1317167D01*
Y1311335D01*
X1839470Y1305504D01*
X1851133D01*
X1856964Y1311335D01*
X4187953Y3568492D02*
X4164627Y3533504D01*
Y3568492D02*
X4187953Y3533504D01*
X4152964D02*
Y3568492D01*
X4141301Y3556830D01*
X4129638Y3568492D01*
Y3533504D01*
X4094649Y3562661D02*
X4100481Y3568492D01*
X4112144D01*
X4117975Y3562661D01*
Y3539335D01*
X4112144Y3533504D01*
X4100481D01*
X4094649Y3539335D01*
X4082987Y3533504D02*
X4071324D01*
X4077155D01*
Y3568492D01*
X4082987Y3562661D01*
X1785000Y2490000D02*
X1750011D01*
Y2472506D01*
X1755843Y2466674D01*
X1767506D01*
X1773337Y2472506D01*
Y2490000D01*
X1750011Y2431686D02*
X1755843Y2443348D01*
X1767506Y2455011D01*
X1779169D01*
X1785000Y2449180D01*
Y2437517D01*
X1779169Y2431686D01*
X1773337D01*
X1767506Y2437517D01*
Y2455011D01*
X1790000Y2590000D02*
X1755011D01*
Y2572506D01*
X1760843Y2566674D01*
X1772506D01*
X1778337Y2572506D01*
Y2590000D01*
X1790000Y2555011D02*
Y2543348D01*
Y2549180D01*
X1755011D01*
X1760843Y2555011D01*
X2875000Y2485000D02*
X2840011D01*
Y2467506D01*
X2845843Y2461674D01*
X2857506D01*
X2863337Y2467506D01*
Y2485000D01*
X2840011Y2450011D02*
Y2426686D01*
X2845843D01*
X2869169Y2450011D01*
X2875000D01*
Y2585000D02*
X2840011D01*
Y2567506D01*
X2845843Y2561674D01*
X2857506D01*
X2863337Y2567506D01*
Y2585000D01*
X2845843Y2550011D02*
X2840011Y2544180D01*
Y2532517D01*
X2845843Y2526686D01*
X2851674D01*
X2857506Y2532517D01*
X2863337Y2526686D01*
X2869169D01*
X2875000Y2532517D01*
Y2544180D01*
X2869169Y2550011D01*
X2863337D01*
X2857506Y2544180D01*
X2851674Y2550011D01*
X2845843D01*
X2857506Y2544180D02*
Y2532517D01*
X3412953Y1246504D02*
Y1281493D01*
X3395458D01*
X3389627Y1275661D01*
Y1263998D01*
X3395458Y1258167D01*
X3412953D01*
X3360470Y1246504D02*
Y1281493D01*
X3377964Y1263998D01*
X3354638D01*
X3307953Y1246504D02*
Y1281493D01*
X3290458D01*
X3284627Y1275661D01*
Y1263998D01*
X3290458Y1258167D01*
X3307953D01*
X3249638Y1281493D02*
X3272964D01*
Y1263998D01*
X3261301Y1269830D01*
X3255470D01*
X3249638Y1263998D01*
Y1252335D01*
X3255470Y1246504D01*
X3267133D01*
X3272964Y1252335D01*
D43*
X3595000Y-10D02*
Y-30000D01*
X3580005D01*
X3575006Y-25002D01*
Y-20003D01*
X3580005Y-15005D01*
X3595000D01*
X3580005D01*
X3575006Y-10007D01*
Y-5008D01*
X3580005Y-10D01*
X3595000D01*
X3550015D02*
X3560011D01*
X3565010Y-5008D01*
Y-25002D01*
X3560011Y-30000D01*
X3550015D01*
X3545016Y-25002D01*
Y-5008D01*
X3550015Y-10D01*
X3535019D02*
X3515026D01*
X3525023D01*
Y-30000D01*
%TF.MD5,5575786aad9ba905408b5021f891f97a*%
M02*
