G04 Layer_Color=255*
%FSLAX25Y25*%
%MOIN*%
%TF.FileFunction,Pads,Top*%
%TF.Part,Single*%
G01*
G75*
%TA.AperFunction,SMDPad,CuDef*%
%ADD10R,0.05905X0.05512*%
%ADD11R,0.05512X0.05905*%
%ADD12R,0.06299X0.05905*%
%ADD13R,0.05905X0.06299*%
%ADD14R,0.02362X0.07087*%
%ADD15O,0.02362X0.07087*%
%ADD16O,0.05709X0.02362*%
%TA.AperFunction,WasherPad*%
%ADD28C,0.06000*%
%TA.AperFunction,ComponentPad*%
%ADD29C,0.06000*%
%ADD30R,0.06000X0.06000*%
%ADD31R,0.06000X0.06000*%
%ADD32R,0.05905X0.05905*%
%ADD33C,0.05905*%
%ADD34C,0.11811*%
%ADD35R,0.11811X0.11811*%
D10*
X46500Y300937D02*
D03*
Y293063D02*
D03*
X150500Y293063D02*
D03*
Y300937D02*
D03*
X94500Y300937D02*
D03*
Y293063D02*
D03*
X259500Y303063D02*
D03*
Y310937D02*
D03*
X192177Y27937D02*
D03*
Y20063D02*
D03*
X124937Y27937D02*
D03*
Y20063D02*
D03*
X295437Y25437D02*
D03*
Y17563D02*
D03*
X225500Y27437D02*
D03*
Y19563D02*
D03*
X104000Y300937D02*
D03*
Y293063D02*
D03*
X140500Y300937D02*
D03*
Y293063D02*
D03*
X32500Y140437D02*
D03*
Y132563D02*
D03*
X148833Y140437D02*
D03*
Y132563D02*
D03*
X158500Y132563D02*
D03*
Y140437D02*
D03*
X129500Y140437D02*
D03*
Y132563D02*
D03*
X25746Y27437D02*
D03*
Y19563D02*
D03*
X94986Y27437D02*
D03*
Y19563D02*
D03*
X51833Y140437D02*
D03*
Y132563D02*
D03*
X61500Y132563D02*
D03*
Y140437D02*
D03*
X231000Y132563D02*
D03*
Y140437D02*
D03*
X240982Y140437D02*
D03*
Y132563D02*
D03*
X250964Y140437D02*
D03*
Y132563D02*
D03*
X271000Y140437D02*
D03*
Y132563D02*
D03*
X281000Y132563D02*
D03*
Y140437D02*
D03*
X296500Y140437D02*
D03*
Y132563D02*
D03*
X306000Y132563D02*
D03*
Y140437D02*
D03*
X289500Y182563D02*
D03*
Y190437D02*
D03*
X280500Y182563D02*
D03*
Y190437D02*
D03*
X266500Y182500D02*
D03*
Y190374D02*
D03*
X257500Y190437D02*
D03*
Y182563D02*
D03*
X248500Y182563D02*
D03*
Y190437D02*
D03*
X190500Y190437D02*
D03*
Y182563D02*
D03*
X181500Y182563D02*
D03*
Y190437D02*
D03*
X166500Y191437D02*
D03*
Y183563D02*
D03*
X157500Y183563D02*
D03*
Y191437D02*
D03*
X146500Y190937D02*
D03*
Y183063D02*
D03*
X137000Y183063D02*
D03*
Y190937D02*
D03*
X59500Y237937D02*
D03*
Y230063D02*
D03*
X68500Y237937D02*
D03*
Y230063D02*
D03*
X107000Y237937D02*
D03*
Y230063D02*
D03*
X116000Y237937D02*
D03*
Y230063D02*
D03*
X154000Y237937D02*
D03*
Y230063D02*
D03*
X163000Y237937D02*
D03*
Y230063D02*
D03*
X56500Y300937D02*
D03*
Y293063D02*
D03*
X247500Y303063D02*
D03*
Y310937D02*
D03*
X268500Y303063D02*
D03*
Y310937D02*
D03*
D11*
X154000Y67500D02*
D03*
X161874D02*
D03*
X174500Y31000D02*
D03*
X182374D02*
D03*
X182374Y44500D02*
D03*
X174500D02*
D03*
X174500Y58000D02*
D03*
X182374D02*
D03*
X192374Y6500D02*
D03*
X184500D02*
D03*
X142437Y58000D02*
D03*
X134563D02*
D03*
X134500Y44500D02*
D03*
X142374D02*
D03*
X142374Y31000D02*
D03*
X134500D02*
D03*
X125000Y6500D02*
D03*
X132874D02*
D03*
X256563Y66000D02*
D03*
X264437D02*
D03*
X295437Y6000D02*
D03*
X287563D02*
D03*
X278063Y30500D02*
D03*
X285937D02*
D03*
X285937Y44000D02*
D03*
X278063D02*
D03*
X278063Y57500D02*
D03*
X285937D02*
D03*
X225303Y6000D02*
D03*
X233177D02*
D03*
X242937Y30500D02*
D03*
X235063D02*
D03*
X235063Y44000D02*
D03*
X242937D02*
D03*
X242937Y57500D02*
D03*
X235063D02*
D03*
X25549Y6000D02*
D03*
X33423D02*
D03*
X95183D02*
D03*
X87309D02*
D03*
X77063Y30500D02*
D03*
X84937D02*
D03*
X43437D02*
D03*
X35563D02*
D03*
X35563Y44893D02*
D03*
X43437D02*
D03*
X43437Y56607D02*
D03*
X35563D02*
D03*
X84937Y44893D02*
D03*
X77063D02*
D03*
X77063Y56607D02*
D03*
X84937D02*
D03*
X56063Y65000D02*
D03*
X63937D02*
D03*
D12*
X184437Y78760D02*
D03*
Y86240D02*
D03*
X119000Y119260D02*
D03*
Y126740D02*
D03*
X84500Y78760D02*
D03*
Y86240D02*
D03*
X286000Y76760D02*
D03*
Y84240D02*
D03*
X20000Y119260D02*
D03*
Y126740D02*
D03*
X120500Y72260D02*
D03*
Y79740D02*
D03*
X223500Y72260D02*
D03*
Y79740D02*
D03*
X139221Y140099D02*
D03*
Y132619D02*
D03*
X176500Y283260D02*
D03*
Y290740D02*
D03*
X22500Y72260D02*
D03*
Y79740D02*
D03*
X42221Y140381D02*
D03*
Y132901D02*
D03*
X219500Y119260D02*
D03*
Y126740D02*
D03*
X261000Y140099D02*
D03*
Y132619D02*
D03*
X82000Y282760D02*
D03*
Y290240D02*
D03*
X129500Y282760D02*
D03*
Y290240D02*
D03*
D13*
X154197Y58500D02*
D03*
X161677D02*
D03*
X56260Y56500D02*
D03*
X63740D02*
D03*
X256619Y57554D02*
D03*
X264099D02*
D03*
D14*
X30500Y76500D02*
D03*
X129500D02*
D03*
X232000D02*
D03*
D15*
X35500D02*
D03*
X40500D02*
D03*
X45500D02*
D03*
X30500Y119413D02*
D03*
X35500D02*
D03*
X40500D02*
D03*
X45500D02*
D03*
X134500Y76500D02*
D03*
X139500D02*
D03*
X144500D02*
D03*
X129500Y119413D02*
D03*
X134500D02*
D03*
X139500D02*
D03*
X144500D02*
D03*
X237000Y76500D02*
D03*
X242000D02*
D03*
X247000D02*
D03*
X232000Y119413D02*
D03*
X237000D02*
D03*
X242000D02*
D03*
X247000D02*
D03*
D16*
X140543Y283000D02*
D03*
Y278000D02*
D03*
Y273000D02*
D03*
Y268000D02*
D03*
Y263000D02*
D03*
Y258000D02*
D03*
Y253000D02*
D03*
X162000Y283000D02*
D03*
Y278000D02*
D03*
Y273000D02*
D03*
Y268000D02*
D03*
Y263000D02*
D03*
Y258000D02*
D03*
Y253000D02*
D03*
X94272Y282500D02*
D03*
Y277500D02*
D03*
Y272500D02*
D03*
Y267500D02*
D03*
Y262500D02*
D03*
Y257500D02*
D03*
Y252500D02*
D03*
X115728Y282500D02*
D03*
Y277500D02*
D03*
Y272500D02*
D03*
Y267500D02*
D03*
Y262500D02*
D03*
Y257500D02*
D03*
Y252500D02*
D03*
X46272Y282500D02*
D03*
Y277500D02*
D03*
Y272500D02*
D03*
Y267500D02*
D03*
Y262500D02*
D03*
Y257500D02*
D03*
Y252500D02*
D03*
X67728Y282500D02*
D03*
Y277500D02*
D03*
Y272500D02*
D03*
Y267500D02*
D03*
Y262500D02*
D03*
Y257500D02*
D03*
Y252500D02*
D03*
D28*
X377953Y377953D02*
D03*
Y-0D02*
D03*
X0Y377953D02*
D03*
Y-0D02*
D03*
D29*
X184500Y313500D02*
D03*
X174500D02*
D03*
X234500D02*
D03*
X224500D02*
D03*
X214500D02*
D03*
X204500D02*
D03*
X194500D02*
D03*
X184500Y350500D02*
D03*
X174500D02*
D03*
X234500D02*
D03*
X224500D02*
D03*
X214500D02*
D03*
X204500D02*
D03*
X194500D02*
D03*
X326000Y66500D02*
D03*
Y56500D02*
D03*
Y116500D02*
D03*
Y106500D02*
D03*
Y96500D02*
D03*
Y86500D02*
D03*
Y76500D02*
D03*
X336500Y66500D02*
D03*
Y56500D02*
D03*
Y116500D02*
D03*
Y106500D02*
D03*
Y96500D02*
D03*
Y86500D02*
D03*
Y76500D02*
D03*
X325000Y255000D02*
D03*
X335000D02*
D03*
X345000D02*
D03*
X355000D02*
D03*
X365000D02*
D03*
X305000D02*
D03*
X315000D02*
D03*
X325000Y245000D02*
D03*
X335000D02*
D03*
X345000D02*
D03*
X355000D02*
D03*
X365000D02*
D03*
X305000D02*
D03*
X315000D02*
D03*
X216500Y255000D02*
D03*
X226500D02*
D03*
X236500D02*
D03*
X246500D02*
D03*
X256500D02*
D03*
X196500D02*
D03*
X206500D02*
D03*
X216500Y245000D02*
D03*
X226500D02*
D03*
X236500D02*
D03*
X246500D02*
D03*
X256500D02*
D03*
X196500D02*
D03*
X206500D02*
D03*
X174437Y71559D02*
D03*
Y94000D02*
D03*
Y111559D02*
D03*
Y121559D02*
D03*
X76000Y71059D02*
D03*
Y93500D02*
D03*
Y111059D02*
D03*
Y121059D02*
D03*
X277000Y71059D02*
D03*
Y93500D02*
D03*
Y111059D02*
D03*
Y121059D02*
D03*
D30*
X164500Y313500D02*
D03*
Y350500D02*
D03*
X295000Y255000D02*
D03*
Y245000D02*
D03*
X186500Y255000D02*
D03*
Y245000D02*
D03*
D31*
X326000Y46500D02*
D03*
X336500D02*
D03*
D32*
X114500Y159000D02*
D03*
D33*
X124500D02*
D03*
X134500D02*
D03*
X144500D02*
D03*
X154500D02*
D03*
X164500D02*
D03*
X174500D02*
D03*
X184500D02*
D03*
X194500D02*
D03*
X204500D02*
D03*
X214500D02*
D03*
X224500D02*
D03*
X234500D02*
D03*
X244500D02*
D03*
X254500D02*
D03*
X264500D02*
D03*
X274500D02*
D03*
X284500D02*
D03*
X294500D02*
D03*
X304500D02*
D03*
X114500Y169000D02*
D03*
X124500D02*
D03*
X134500D02*
D03*
X144500D02*
D03*
X154500D02*
D03*
X164500D02*
D03*
X174500D02*
D03*
X184500D02*
D03*
X194500D02*
D03*
X204500D02*
D03*
X214500D02*
D03*
X224500D02*
D03*
X234500D02*
D03*
X244500D02*
D03*
X254500D02*
D03*
X264500D02*
D03*
X274500D02*
D03*
X284500D02*
D03*
X294500D02*
D03*
X304500D02*
D03*
X114500Y328291D02*
D03*
X304500Y338291D02*
D03*
X294500D02*
D03*
X284500D02*
D03*
X274500D02*
D03*
X264500D02*
D03*
X254500D02*
D03*
X244500D02*
D03*
X234500D02*
D03*
X224500D02*
D03*
X214500D02*
D03*
X204500D02*
D03*
X194500D02*
D03*
X184500D02*
D03*
X174500D02*
D03*
X164500D02*
D03*
X154500D02*
D03*
X144500D02*
D03*
X134500D02*
D03*
X124500D02*
D03*
X114500D02*
D03*
X304500Y328291D02*
D03*
X294500D02*
D03*
X284500D02*
D03*
X274500D02*
D03*
X264500D02*
D03*
X254500D02*
D03*
X244500D02*
D03*
X234500D02*
D03*
X224500D02*
D03*
X214500D02*
D03*
X204500D02*
D03*
X194500D02*
D03*
X184500D02*
D03*
X174500D02*
D03*
X164500D02*
D03*
X154500D02*
D03*
X144500D02*
D03*
X134500D02*
D03*
X124500D02*
D03*
D34*
X269342Y6000D02*
D03*
X167280Y6500D02*
D03*
X68843Y6000D02*
D03*
D35*
X249658D02*
D03*
X147594Y6500D02*
D03*
X49158Y6000D02*
D03*
%TF.MD5,609217c47c8bcd0cc950b503e300ae37*%
M02*
