G04 Layer_Color=32896*
%FSLAX25Y25*%
%MOIN*%
%TF.FileFunction,Legend,Bot*%
%TF.Part,Single*%
G01*
G75*
%TA.AperFunction,NonConductor*%
%ADD40C,0.01000*%
%ADD41C,0.00787*%
%ADD42C,0.00700*%
%ADD43C,0.00600*%
G36*
X413900Y229891D02*
X414700D01*
Y229091D01*
X416300D01*
Y229891D01*
X417100D01*
Y230691D01*
X418700D01*
Y229891D01*
X419500D01*
Y228291D01*
X417900D01*
Y226691D01*
X418700D01*
Y225091D01*
X419500D01*
Y205891D01*
X418700D01*
Y204291D01*
X417900D01*
Y202691D01*
X419500D01*
Y201091D01*
X418700D01*
Y200291D01*
X417900D01*
Y201091D01*
X413900D01*
Y146691D01*
X25100D01*
Y147491D01*
X24300D01*
Y145891D01*
X23500D01*
Y146691D01*
X22700D01*
Y147491D01*
X21900D01*
Y152291D01*
X17900D01*
Y227491D01*
X16300D01*
Y228291D01*
X17900D01*
Y229091D01*
X21900D01*
Y244291D01*
X20300D01*
Y243491D01*
X17900D01*
Y244291D01*
X16300D01*
Y245091D01*
X18700D01*
Y246691D01*
X17900D01*
Y248291D01*
X16300D01*
Y267491D01*
X17900D01*
Y268291D01*
X18700D01*
Y269891D01*
X17900D01*
Y271491D01*
X16300D01*
Y272291D01*
X17900D01*
Y273091D01*
X18700D01*
Y272291D01*
X21900D01*
Y289091D01*
X21100D01*
Y289891D01*
X20300D01*
Y291491D01*
X19500D01*
Y292291D01*
X18700D01*
Y333091D01*
X19500D01*
Y333891D01*
X20300D01*
Y334691D01*
X21100D01*
Y335491D01*
X21900D01*
Y349091D01*
X22700D01*
Y350691D01*
X24300D01*
Y349091D01*
X25100D01*
Y349891D01*
X413100D01*
Y350691D01*
X413900D01*
Y229891D01*
D02*
G37*
%LPC*%
G36*
X412300Y228291D02*
X397100D01*
Y224291D01*
X398700D01*
Y223491D01*
X399500D01*
Y221091D01*
X398700D01*
Y220291D01*
X397100D01*
Y210691D01*
X398700D01*
Y209891D01*
X399500D01*
Y207491D01*
X397900D01*
Y206691D01*
X397100D01*
Y203491D01*
X403500D01*
Y202691D01*
X406700D01*
Y203491D01*
X409100D01*
Y202691D01*
X412300D01*
Y203491D01*
X413100D01*
Y206691D01*
X409100D01*
Y207491D01*
X405100D01*
Y208291D01*
X404300D01*
Y209891D01*
X405100D01*
Y210691D01*
X409900D01*
Y211491D01*
X411500D01*
Y210691D01*
X413100D01*
Y220291D01*
X409100D01*
Y221091D01*
X405900D01*
Y220291D01*
X405100D01*
Y221091D01*
X404300D01*
Y223491D01*
X405100D01*
Y224291D01*
X405900D01*
Y223491D01*
X409100D01*
Y224291D01*
X413100D01*
Y227491D01*
X412300D01*
Y228291D01*
D02*
G37*
G36*
X21900Y227491D02*
X18700D01*
Y221091D01*
X21900D01*
Y227491D01*
D02*
G37*
G36*
Y159491D02*
X18700D01*
Y153091D01*
X21900D01*
Y159491D01*
D02*
G37*
G36*
X25100Y252291D02*
X23500D01*
Y250691D01*
X25100D01*
Y252291D01*
D02*
G37*
G36*
X20300Y266691D02*
X17900D01*
Y249091D01*
X19500D01*
Y247491D01*
X20300D01*
Y246691D01*
X21900D01*
Y249891D01*
X20300D01*
Y266691D01*
D02*
G37*
G36*
X102700Y227491D02*
X23500D01*
Y221891D01*
X24300D01*
Y207491D01*
X23500D01*
Y192291D01*
X24300D01*
Y191491D01*
X23500D01*
Y173891D01*
X24300D01*
Y159491D01*
X23500D01*
Y153091D01*
X102700D01*
Y227491D01*
D02*
G37*
G36*
X21900Y189891D02*
X18700D01*
Y173891D01*
X21900D01*
Y189891D01*
D02*
G37*
G36*
Y172291D02*
X18700D01*
Y161091D01*
X21900D01*
Y172291D01*
D02*
G37*
G36*
Y207491D02*
X18700D01*
Y190691D01*
X21100D01*
Y191491D01*
X21900D01*
Y207491D01*
D02*
G37*
G36*
Y220291D02*
X18700D01*
Y208291D01*
X21900D01*
Y220291D01*
D02*
G37*
G36*
X416300Y226691D02*
X414700D01*
Y225891D01*
X413900D01*
Y224291D01*
X416300D01*
Y207491D01*
X414700D01*
Y206691D01*
X413900D01*
Y205091D01*
X414700D01*
Y204291D01*
X416300D01*
Y206691D01*
X417100D01*
Y205891D01*
X417900D01*
Y206691D01*
X418700D01*
Y224291D01*
X416300D01*
Y226691D01*
D02*
G37*
G36*
X28300Y334691D02*
X23500D01*
Y290691D01*
X29900D01*
Y291491D01*
X30700D01*
Y293891D01*
X31500D01*
Y296291D01*
X32300D01*
Y299491D01*
X33100D01*
Y300291D01*
X33900D01*
Y305091D01*
X34700D01*
Y317891D01*
X33900D01*
Y322691D01*
X33100D01*
Y324291D01*
X32300D01*
Y326691D01*
X31500D01*
Y329091D01*
X30700D01*
Y331491D01*
X29900D01*
Y333091D01*
X29100D01*
Y333891D01*
X28300D01*
Y334691D01*
D02*
G37*
G36*
X309900Y349091D02*
X108300D01*
Y348291D01*
X23500D01*
Y335491D01*
X25100D01*
Y345091D01*
X85900D01*
Y345891D01*
X86700D01*
Y288291D01*
X87500D01*
Y287491D01*
X86700D01*
Y286691D01*
X85100D01*
Y287491D01*
X29100D01*
Y289091D01*
X23500D01*
Y274691D01*
X24300D01*
Y271491D01*
X26700D01*
Y274691D01*
X30700D01*
Y271491D01*
X33900D01*
Y272291D01*
X41100D01*
Y244291D01*
X30700D01*
Y241091D01*
X27500D01*
Y241891D01*
X26700D01*
Y244291D01*
X24300D01*
Y241091D01*
X23500D01*
Y229091D01*
X103500D01*
Y228291D01*
X104300D01*
Y227491D01*
X103500D01*
Y152291D01*
X23500D01*
Y148291D01*
X109100D01*
Y147491D01*
X309900D01*
Y148291D01*
X413100D01*
Y201091D01*
X409900D01*
Y198691D01*
X409100D01*
Y199491D01*
X406700D01*
Y198691D01*
X405900D01*
Y201091D01*
X395500D01*
Y204291D01*
X396300D01*
Y205091D01*
X395500D01*
Y229091D01*
X405100D01*
Y229891D01*
X405900D01*
Y232291D01*
X409900D01*
Y229091D01*
X412300D01*
Y229891D01*
X413100D01*
Y348291D01*
X309900D01*
Y349091D01*
D02*
G37*
G36*
X29900Y344291D02*
X27500D01*
Y343491D01*
X26700D01*
Y336291D01*
X29100D01*
Y335491D01*
X30700D01*
Y333091D01*
X31500D01*
Y331491D01*
X32300D01*
Y329091D01*
X33100D01*
Y327491D01*
X33900D01*
Y325891D01*
X34700D01*
Y322691D01*
X35500D01*
Y317091D01*
X36300D01*
Y305891D01*
X35500D01*
Y301091D01*
X34700D01*
Y297891D01*
X33900D01*
Y296291D01*
X33100D01*
Y293891D01*
X32300D01*
Y292291D01*
X31500D01*
Y289891D01*
X30700D01*
Y288291D01*
X85900D01*
Y291491D01*
X82700D01*
Y290691D01*
X81900D01*
Y293891D01*
X85900D01*
Y298691D01*
X81900D01*
Y301091D01*
X85900D01*
Y313891D01*
X82700D01*
Y313091D01*
X81900D01*
Y316291D01*
X85900D01*
Y321091D01*
X81900D01*
Y323491D01*
X83500D01*
Y322691D01*
X85900D01*
Y343491D01*
X33900D01*
Y339491D01*
X30700D01*
Y343491D01*
X29900D01*
Y344291D01*
D02*
G37*
G36*
X21900Y333091D02*
X20300D01*
Y291491D01*
X21900D01*
Y333091D01*
D02*
G37*
G36*
X25100Y265891D02*
X23500D01*
Y263491D01*
X25100D01*
Y265891D01*
D02*
G37*
G36*
X39500Y270691D02*
X24300D01*
Y267491D01*
X23500D01*
Y266691D01*
X25100D01*
Y267491D01*
X27500D01*
Y265891D01*
X32300D01*
Y263491D01*
X27500D01*
Y261891D01*
X25100D01*
Y262691D01*
X23500D01*
Y261891D01*
X24300D01*
Y253891D01*
X23500D01*
Y253091D01*
X25100D01*
Y253891D01*
X27500D01*
Y252291D01*
X32300D01*
Y249891D01*
X27500D01*
Y249091D01*
X26700D01*
Y248291D01*
X25100D01*
Y249091D01*
X23500D01*
Y248291D01*
X24300D01*
Y245091D01*
X39500D01*
Y249891D01*
X38700D01*
Y249091D01*
X37900D01*
Y249891D01*
X37100D01*
Y252291D01*
X39500D01*
Y263491D01*
X37100D01*
Y265891D01*
X39500D01*
Y270691D01*
D02*
G37*
G36*
X21900Y269091D02*
X20300D01*
Y266691D01*
X21100D01*
Y265891D01*
X21900D01*
Y269091D01*
D02*
G37*
%LPD*%
G36*
X308300Y345891D02*
X309900D01*
Y345091D01*
X310700D01*
Y322691D01*
X309900D01*
Y321891D01*
X308300D01*
Y321091D01*
X109900D01*
Y321891D01*
X109100D01*
Y322691D01*
X108300D01*
Y345891D01*
X109900D01*
Y346691D01*
X110700D01*
Y347491D01*
X111500D01*
Y346691D01*
X307500D01*
Y347491D01*
X308300D01*
Y345891D01*
D02*
G37*
G36*
X309100Y174691D02*
X309900D01*
Y173891D01*
X310700D01*
Y151491D01*
X309900D01*
Y150691D01*
X308300D01*
Y149891D01*
X110700D01*
Y150691D01*
X109100D01*
Y151491D01*
X108300D01*
Y173891D01*
X109100D01*
Y152291D01*
X109900D01*
Y151491D01*
X112300D01*
Y150691D01*
X305900D01*
Y151491D01*
X309100D01*
Y173891D01*
X109100D01*
Y174691D01*
X109900D01*
Y175491D01*
X309100D01*
Y174691D01*
D02*
G37*
G36*
X324300Y204291D02*
X325100D01*
Y161891D01*
X324300D01*
Y161091D01*
X322700D01*
Y160291D01*
X321900D01*
Y161091D01*
X320300D01*
Y162691D01*
X319500D01*
Y164291D01*
X320300D01*
Y201891D01*
X319500D01*
Y203491D01*
X320300D01*
Y205091D01*
X324300D01*
Y204291D01*
D02*
G37*
G36*
X215500Y287491D02*
X216300D01*
Y286691D01*
X217100D01*
Y285891D01*
X217900D01*
Y285091D01*
X218700D01*
Y284291D01*
X220300D01*
Y282691D01*
X221100D01*
Y281891D01*
X221900D01*
Y281091D01*
X222700D01*
Y280291D01*
X223500D01*
Y279491D01*
X224300D01*
Y278691D01*
X225100D01*
Y277891D01*
X226700D01*
Y276291D01*
X227500D01*
Y275491D01*
X228300D01*
Y274691D01*
X229100D01*
Y273891D01*
X229900D01*
Y273091D01*
X230700D01*
Y272291D01*
X231500D01*
Y271491D01*
X232300D01*
Y270691D01*
X233100D01*
Y269891D01*
X233900D01*
Y269091D01*
X234700D01*
Y268291D01*
X235500D01*
Y267491D01*
X236300D01*
Y266691D01*
X237100D01*
Y265891D01*
X237900D01*
Y265091D01*
X238700D01*
Y264291D01*
X239500D01*
Y263491D01*
X240300D01*
Y262691D01*
X241100D01*
Y261891D01*
X241900D01*
Y261091D01*
X242700D01*
Y260291D01*
X243500D01*
Y259491D01*
X244300D01*
Y258691D01*
X245100D01*
Y257891D01*
X246700D01*
Y256291D01*
X247500D01*
Y255491D01*
X248300D01*
Y254691D01*
X249100D01*
Y253091D01*
X248300D01*
Y252291D01*
X247500D01*
Y249091D01*
X246700D01*
Y247491D01*
X247500D01*
Y245091D01*
X248300D01*
Y244291D01*
X249100D01*
Y243491D01*
X249900D01*
Y242691D01*
X249100D01*
Y241891D01*
X248300D01*
Y241091D01*
X247500D01*
Y240291D01*
X246700D01*
Y239491D01*
X245900D01*
Y238691D01*
X245100D01*
Y237891D01*
X244300D01*
Y237091D01*
X243500D01*
Y236291D01*
X242700D01*
Y235491D01*
X241900D01*
Y234691D01*
X241100D01*
Y233891D01*
X240300D01*
Y233091D01*
X239500D01*
Y232291D01*
X238700D01*
Y231491D01*
X237900D01*
Y230691D01*
X237100D01*
Y229891D01*
X236300D01*
Y229091D01*
X235500D01*
Y228291D01*
X234700D01*
Y227491D01*
X233900D01*
Y226691D01*
X233100D01*
Y225891D01*
X232300D01*
Y225091D01*
X231500D01*
Y224291D01*
X230700D01*
Y223491D01*
X229900D01*
Y222691D01*
X229100D01*
Y221891D01*
X228300D01*
Y221091D01*
X227500D01*
Y220291D01*
X226700D01*
Y219491D01*
X225900D01*
Y218691D01*
X225100D01*
Y217891D01*
X224300D01*
Y217091D01*
X223500D01*
Y216291D01*
X222700D01*
Y215491D01*
X221900D01*
Y214691D01*
X221100D01*
Y213891D01*
X220300D01*
Y213091D01*
X219500D01*
Y212291D01*
X218700D01*
Y211491D01*
X217900D01*
Y210691D01*
X217100D01*
Y209891D01*
X216300D01*
Y209091D01*
X215500D01*
Y208291D01*
X213900D01*
Y209091D01*
X213100D01*
Y210691D01*
X210700D01*
Y209891D01*
X207500D01*
Y210691D01*
X205100D01*
Y209091D01*
X204300D01*
Y208291D01*
X203500D01*
Y209091D01*
X202700D01*
Y209891D01*
X201900D01*
Y210691D01*
X201100D01*
Y211491D01*
X200300D01*
Y212291D01*
X199500D01*
Y213091D01*
X198700D01*
Y213891D01*
X197900D01*
Y214691D01*
X197100D01*
Y215491D01*
X196300D01*
Y216291D01*
X195500D01*
Y217091D01*
X194700D01*
Y217891D01*
X193900D01*
Y218691D01*
X193100D01*
Y219491D01*
X192300D01*
Y220291D01*
X191500D01*
Y221091D01*
X190700D01*
Y221891D01*
X189900D01*
Y222691D01*
X189100D01*
Y223491D01*
X188300D01*
Y224291D01*
X187500D01*
Y225091D01*
X186700D01*
Y225891D01*
X185900D01*
Y226691D01*
X185100D01*
Y227491D01*
X184300D01*
Y228291D01*
X183500D01*
Y229091D01*
X182700D01*
Y229891D01*
X181900D01*
Y230691D01*
X181100D01*
Y231491D01*
X180300D01*
Y232291D01*
X179500D01*
Y233091D01*
X178700D01*
Y233891D01*
X177900D01*
Y234691D01*
X177100D01*
Y235491D01*
X176300D01*
Y236291D01*
X175500D01*
Y237091D01*
X174700D01*
Y237891D01*
X173900D01*
Y238691D01*
X173100D01*
Y239491D01*
X172300D01*
Y240291D01*
X171500D01*
Y241091D01*
X170700D01*
Y241891D01*
X169900D01*
Y242691D01*
X169100D01*
Y243491D01*
X169900D01*
Y244291D01*
X170700D01*
Y245091D01*
X171500D01*
Y247491D01*
X170700D01*
Y249891D01*
X171500D01*
Y251491D01*
X170700D01*
Y252291D01*
X169900D01*
Y253091D01*
X169100D01*
Y254691D01*
X169900D01*
Y255491D01*
X170700D01*
Y256291D01*
X172300D01*
Y257891D01*
X173100D01*
Y258691D01*
X173900D01*
Y259491D01*
X174700D01*
Y260291D01*
X175500D01*
Y261091D01*
X176300D01*
Y261891D01*
X177100D01*
Y262691D01*
X177900D01*
Y263491D01*
X178700D01*
Y264291D01*
X179500D01*
Y265091D01*
X180300D01*
Y265891D01*
X181900D01*
Y267491D01*
X182700D01*
Y268291D01*
X183500D01*
Y269091D01*
X185100D01*
Y269891D01*
X185900D01*
Y271491D01*
X186700D01*
Y272291D01*
X187500D01*
Y273091D01*
X189100D01*
Y274691D01*
X189900D01*
Y275491D01*
X190700D01*
Y276291D01*
X192300D01*
Y277891D01*
X193100D01*
Y278691D01*
X193900D01*
Y279491D01*
X194700D01*
Y280291D01*
X195500D01*
Y281091D01*
X196300D01*
Y281891D01*
X197100D01*
Y282691D01*
X197900D01*
Y283491D01*
X198700D01*
Y284291D01*
X199500D01*
Y285091D01*
X200300D01*
Y285891D01*
X201100D01*
Y286691D01*
X202700D01*
Y288291D01*
X205100D01*
Y286691D01*
X205900D01*
Y285891D01*
X207500D01*
Y286691D01*
X208300D01*
Y287491D01*
X210700D01*
Y285891D01*
X213100D01*
Y287491D01*
X213900D01*
Y288291D01*
X215500D01*
Y287491D01*
D02*
G37*
G36*
X323500Y335491D02*
X324300D01*
Y334691D01*
X325100D01*
Y241891D01*
X324300D01*
Y241091D01*
X320300D01*
Y242691D01*
X319500D01*
Y244291D01*
X320300D01*
Y332291D01*
X319500D01*
Y333891D01*
X320300D01*
Y335491D01*
X321100D01*
Y241891D01*
X322700D01*
Y242691D01*
X323500D01*
Y243491D01*
X324300D01*
Y333891D01*
X323500D01*
Y334691D01*
X322700D01*
Y335491D01*
X321100D01*
Y336291D01*
X323500D01*
Y335491D01*
D02*
G37*
G36*
X374700Y317891D02*
X375500D01*
Y317091D01*
X376300D01*
Y315491D01*
X377900D01*
Y314691D01*
X378700D01*
Y313891D01*
X379500D01*
Y312291D01*
X380300D01*
Y311491D01*
X381900D01*
Y310691D01*
X382700D01*
Y309091D01*
X383500D01*
Y308291D01*
X385100D01*
Y307491D01*
X385900D01*
Y306691D01*
X386700D01*
Y305091D01*
X388300D01*
Y304291D01*
X389100D01*
Y303491D01*
X389900D01*
Y301891D01*
X391500D01*
Y301091D01*
X392300D01*
Y300291D01*
X393100D01*
Y298691D01*
X393900D01*
Y297891D01*
X395500D01*
Y297091D01*
X396300D01*
Y295491D01*
X397100D01*
Y294691D01*
X398700D01*
Y293891D01*
X399500D01*
Y292291D01*
X400300D01*
Y291491D01*
X401900D01*
Y290691D01*
X402700D01*
Y289891D01*
X403500D01*
Y288291D01*
X405100D01*
Y287491D01*
X405900D01*
Y286691D01*
X406700D01*
Y285091D01*
X408300D01*
Y282691D01*
X406700D01*
Y281891D01*
X405900D01*
Y275491D01*
X406700D01*
Y274691D01*
X407500D01*
Y273891D01*
X408300D01*
Y272291D01*
X407500D01*
Y271491D01*
X406700D01*
Y270691D01*
X405900D01*
Y269891D01*
X405100D01*
Y269091D01*
X404300D01*
Y268291D01*
X403500D01*
Y267491D01*
X402700D01*
Y266691D01*
X401900D01*
Y265891D01*
X401100D01*
Y265091D01*
X400300D01*
Y264291D01*
X399500D01*
Y263491D01*
X398700D01*
Y262691D01*
X397900D01*
Y261891D01*
X397100D01*
Y261091D01*
X396300D01*
Y260291D01*
X395500D01*
Y259491D01*
X394700D01*
Y258691D01*
X393900D01*
Y257891D01*
X393100D01*
Y257091D01*
X392300D01*
Y256291D01*
X391500D01*
Y255491D01*
X390700D01*
Y254691D01*
X389900D01*
Y253891D01*
X389100D01*
Y253091D01*
X388300D01*
Y252291D01*
X387500D01*
Y251491D01*
X386700D01*
Y250691D01*
X385900D01*
Y249891D01*
X385100D01*
Y249091D01*
X384300D01*
Y248291D01*
X383500D01*
Y247491D01*
X382700D01*
Y246691D01*
X381900D01*
Y245891D01*
X381100D01*
Y245091D01*
X380300D01*
Y244291D01*
X379500D01*
Y243491D01*
X378700D01*
Y242691D01*
X377900D01*
Y241891D01*
X377100D01*
Y241091D01*
X376300D01*
Y240291D01*
X375500D01*
Y239491D01*
X374700D01*
Y238691D01*
X372300D01*
Y240291D01*
X364300D01*
Y239491D01*
X363500D01*
Y238691D01*
X361900D01*
Y239491D01*
X361100D01*
Y241091D01*
X359500D01*
Y241891D01*
X358700D01*
Y242691D01*
X357900D01*
Y243491D01*
X357100D01*
Y244291D01*
X356300D01*
Y245091D01*
X355500D01*
Y245891D01*
X354700D01*
Y246691D01*
X353900D01*
Y247491D01*
X353100D01*
Y248291D01*
X352300D01*
Y249091D01*
X351500D01*
Y249891D01*
X350700D01*
Y251491D01*
X349100D01*
Y252291D01*
X348300D01*
Y253091D01*
X347500D01*
Y254691D01*
X345900D01*
Y255491D01*
X345100D01*
Y256291D01*
X344300D01*
Y257091D01*
X343500D01*
Y257891D01*
X342700D01*
Y258691D01*
X341900D01*
Y259491D01*
X341100D01*
Y261091D01*
X339500D01*
Y261891D01*
X338700D01*
Y262691D01*
X337900D01*
Y263491D01*
X337100D01*
Y264291D01*
X336300D01*
Y265091D01*
X335500D01*
Y265891D01*
X334700D01*
Y266691D01*
X333900D01*
Y268291D01*
X332300D01*
Y269091D01*
X331500D01*
Y269891D01*
X330700D01*
Y271491D01*
X329100D01*
Y272291D01*
X328300D01*
Y273891D01*
X329100D01*
Y274691D01*
X329900D01*
Y275491D01*
X330700D01*
Y277091D01*
X329900D01*
Y277891D01*
X329100D01*
Y279491D01*
X329900D01*
Y280291D01*
X330700D01*
Y281891D01*
X329100D01*
Y282691D01*
X328300D01*
Y285091D01*
X329100D01*
Y285891D01*
X330700D01*
Y287491D01*
X331500D01*
Y288291D01*
X332300D01*
Y289091D01*
X333900D01*
Y289891D01*
X334700D01*
Y291491D01*
X335500D01*
Y292291D01*
X337100D01*
Y293091D01*
X337900D01*
Y294691D01*
X338700D01*
Y295491D01*
X339500D01*
Y296291D01*
X341100D01*
Y297091D01*
X341900D01*
Y298691D01*
X342700D01*
Y299491D01*
X344300D01*
Y301091D01*
X345100D01*
Y301891D01*
X345900D01*
Y302691D01*
X347500D01*
Y303491D01*
X348300D01*
Y305091D01*
X349100D01*
Y305891D01*
X350700D01*
Y307491D01*
X351500D01*
Y308291D01*
X352300D01*
Y309091D01*
X353900D01*
Y309891D01*
X354700D01*
Y311491D01*
X355500D01*
Y312291D01*
X356300D01*
Y313091D01*
X357900D01*
Y314691D01*
X358700D01*
Y315491D01*
X359500D01*
Y316291D01*
X361100D01*
Y317891D01*
X361900D01*
Y318691D01*
X363500D01*
Y317891D01*
X364300D01*
Y317091D01*
X365100D01*
Y316291D01*
X367500D01*
Y317891D01*
X369100D01*
Y316291D01*
X372300D01*
Y317891D01*
X373100D01*
Y318691D01*
X374700D01*
Y317891D01*
D02*
G37*
%LPC*%
G36*
X306700Y345891D02*
X112300D01*
Y345091D01*
X109900D01*
Y344291D01*
X109100D01*
Y323491D01*
X109900D01*
Y322691D01*
X309100D01*
Y345091D01*
X306700D01*
Y345891D01*
D02*
G37*
G36*
X323500Y204291D02*
X321100D01*
Y161891D01*
X322700D01*
Y162691D01*
X323500D01*
Y163491D01*
X324300D01*
Y202691D01*
X323500D01*
Y204291D01*
D02*
G37*
G36*
X210700Y285091D02*
X207500D01*
Y283491D01*
X206700D01*
Y282691D01*
X205900D01*
Y281891D01*
X205100D01*
Y281091D01*
X204300D01*
Y280291D01*
X203500D01*
Y279491D01*
X202700D01*
Y278691D01*
X201900D01*
Y277891D01*
X201100D01*
Y277091D01*
X200300D01*
Y276291D01*
X199500D01*
Y275491D01*
X198700D01*
Y274691D01*
X197900D01*
Y273891D01*
X197100D01*
Y273091D01*
X196300D01*
Y272291D01*
X195500D01*
Y271491D01*
X194700D01*
Y270691D01*
X193900D01*
Y269891D01*
X193100D01*
Y269091D01*
X192300D01*
Y268291D01*
X191500D01*
Y267491D01*
X190700D01*
Y266691D01*
X189900D01*
Y265891D01*
X189100D01*
Y265091D01*
X188300D01*
Y264291D01*
X187500D01*
Y263491D01*
X186700D01*
Y262691D01*
X185900D01*
Y261891D01*
X185100D01*
Y261091D01*
X184300D01*
Y260291D01*
X183500D01*
Y259491D01*
X182700D01*
Y258691D01*
X181900D01*
Y257891D01*
X181100D01*
Y257091D01*
X180300D01*
Y256291D01*
X179500D01*
Y255491D01*
X178700D01*
Y254691D01*
X177900D01*
Y253891D01*
X177100D01*
Y253091D01*
X176300D01*
Y252291D01*
X175500D01*
Y251491D01*
X174700D01*
Y250691D01*
X173900D01*
Y249891D01*
X173100D01*
Y247491D01*
X173900D01*
Y245891D01*
X175500D01*
Y245091D01*
X176300D01*
Y244291D01*
X177100D01*
Y242691D01*
X177900D01*
Y241891D01*
X179500D01*
Y241091D01*
X180300D01*
Y240291D01*
X181100D01*
Y238691D01*
X182700D01*
Y237891D01*
X183500D01*
Y237091D01*
X184300D01*
Y235491D01*
X185900D01*
Y234691D01*
X186700D01*
Y233891D01*
X187500D01*
Y232291D01*
X189100D01*
Y231491D01*
X189900D01*
Y230691D01*
X190700D01*
Y229091D01*
X192300D01*
Y228291D01*
X193100D01*
Y227491D01*
X193900D01*
Y225891D01*
X194700D01*
Y225091D01*
X196300D01*
Y224291D01*
X197100D01*
Y223491D01*
X197900D01*
Y221891D01*
X199500D01*
Y221091D01*
X200300D01*
Y220291D01*
X201100D01*
Y218691D01*
X202700D01*
Y217891D01*
X203500D01*
Y217091D01*
X204300D01*
Y215491D01*
X205900D01*
Y214691D01*
X206700D01*
Y213891D01*
X207500D01*
Y212291D01*
X209100D01*
Y211491D01*
X210700D01*
Y213091D01*
X211500D01*
Y213891D01*
X212300D01*
Y214691D01*
X213100D01*
Y215491D01*
X213900D01*
Y216291D01*
X214700D01*
Y217091D01*
X215500D01*
Y217891D01*
X216300D01*
Y218691D01*
X217100D01*
Y219491D01*
X217900D01*
Y220291D01*
X218700D01*
Y221091D01*
X219500D01*
Y221891D01*
X220300D01*
Y222691D01*
X221100D01*
Y223491D01*
X221900D01*
Y224291D01*
X222700D01*
Y225091D01*
X223500D01*
Y225891D01*
X224300D01*
Y226691D01*
X225100D01*
Y227491D01*
X225900D01*
Y228291D01*
X226700D01*
Y229091D01*
X227500D01*
Y229891D01*
X228300D01*
Y230691D01*
X229100D01*
Y231491D01*
X229900D01*
Y232291D01*
X230700D01*
Y233091D01*
X231500D01*
Y233891D01*
X232300D01*
Y234691D01*
X233100D01*
Y235491D01*
X233900D01*
Y236291D01*
X234700D01*
Y237091D01*
X235500D01*
Y237891D01*
X236300D01*
Y238691D01*
X237100D01*
Y239491D01*
X237900D01*
Y240291D01*
X238700D01*
Y241091D01*
X239500D01*
Y241891D01*
X240300D01*
Y242691D01*
X241100D01*
Y243491D01*
X241900D01*
Y244291D01*
X242700D01*
Y245091D01*
X243500D01*
Y245891D01*
X242700D01*
Y246691D01*
X241100D01*
Y248291D01*
X240300D01*
Y249091D01*
X241100D01*
Y250691D01*
X243500D01*
Y251491D01*
X242700D01*
Y253091D01*
X241900D01*
Y253891D01*
X241100D01*
Y254691D01*
X240300D01*
Y255491D01*
X239500D01*
Y256291D01*
X238700D01*
Y257091D01*
X237900D01*
Y257891D01*
X237100D01*
Y258691D01*
X236300D01*
Y259491D01*
X235500D01*
Y260291D01*
X234700D01*
Y261091D01*
X233900D01*
Y261891D01*
X233100D01*
Y262691D01*
X232300D01*
Y263491D01*
X231500D01*
Y264291D01*
X230700D01*
Y265091D01*
X229900D01*
Y265891D01*
X229100D01*
Y266691D01*
X228300D01*
Y267491D01*
X227500D01*
Y268291D01*
X226700D01*
Y269091D01*
X225900D01*
Y269891D01*
X225100D01*
Y270691D01*
X224300D01*
Y271491D01*
X223500D01*
Y272291D01*
X222700D01*
Y273091D01*
X221900D01*
Y273891D01*
X221100D01*
Y274691D01*
X220300D01*
Y275491D01*
X219500D01*
Y276291D01*
X218700D01*
Y277091D01*
X217900D01*
Y277891D01*
X217100D01*
Y278691D01*
X216300D01*
Y279491D01*
X215500D01*
Y280291D01*
X214700D01*
Y281091D01*
X213900D01*
Y281891D01*
X213100D01*
Y282691D01*
X212300D01*
Y283491D01*
X211500D01*
Y284291D01*
X210700D01*
Y285091D01*
D02*
G37*
G36*
X369100Y315491D02*
X366700D01*
Y313891D01*
X365900D01*
Y313091D01*
X365100D01*
Y312291D01*
X364300D01*
Y311491D01*
X363500D01*
Y310691D01*
X362700D01*
Y309891D01*
X361900D01*
Y309091D01*
X361100D01*
Y308291D01*
X360300D01*
Y307491D01*
X359500D01*
Y306691D01*
X358700D01*
Y305891D01*
X357900D01*
Y305091D01*
X357100D01*
Y304291D01*
X356300D01*
Y303491D01*
X355500D01*
Y302691D01*
X354700D01*
Y301891D01*
X353900D01*
Y301091D01*
X353100D01*
Y300291D01*
X352300D01*
Y299491D01*
X351500D01*
Y298691D01*
X350700D01*
Y297891D01*
X349900D01*
Y297091D01*
X349100D01*
Y296291D01*
X348300D01*
Y295491D01*
X347500D01*
Y294691D01*
X346700D01*
Y293891D01*
X345900D01*
Y293091D01*
X345100D01*
Y292291D01*
X344300D01*
Y291491D01*
X343500D01*
Y290691D01*
X342700D01*
Y289891D01*
X341900D01*
Y289091D01*
X341100D01*
Y288291D01*
X340300D01*
Y287491D01*
X339500D01*
Y286691D01*
X338700D01*
Y285891D01*
X337900D01*
Y285091D01*
X337100D01*
Y284291D01*
X336300D01*
Y283491D01*
X335500D01*
Y282691D01*
X334700D01*
Y281891D01*
X333900D01*
Y281091D01*
X333100D01*
Y280291D01*
X332300D01*
Y279491D01*
X331500D01*
Y278691D01*
X332300D01*
Y277091D01*
X333100D01*
Y276291D01*
X333900D01*
Y275491D01*
X334700D01*
Y274691D01*
X335500D01*
Y273891D01*
X336300D01*
Y273091D01*
X337100D01*
Y272291D01*
X337900D01*
Y271491D01*
X338700D01*
Y270691D01*
X339500D01*
Y269891D01*
X340300D01*
Y269091D01*
X341100D01*
Y268291D01*
X341900D01*
Y267491D01*
X342700D01*
Y266691D01*
X343500D01*
Y265891D01*
X344300D01*
Y265091D01*
X345100D01*
Y264291D01*
X345900D01*
Y263491D01*
X346700D01*
Y262691D01*
X347500D01*
Y261891D01*
X348300D01*
Y261091D01*
X349100D01*
Y260291D01*
X349900D01*
Y259491D01*
X350700D01*
Y258691D01*
X351500D01*
Y257891D01*
X352300D01*
Y257091D01*
X353100D01*
Y256291D01*
X353900D01*
Y255491D01*
X354700D01*
Y254691D01*
X355500D01*
Y253891D01*
X356300D01*
Y253091D01*
X357100D01*
Y252291D01*
X357900D01*
Y251491D01*
X358700D01*
Y250691D01*
X359500D01*
Y249891D01*
X360300D01*
Y249091D01*
X361100D01*
Y248291D01*
X361900D01*
Y247491D01*
X362700D01*
Y246691D01*
X363500D01*
Y245891D01*
X364300D01*
Y245091D01*
X365100D01*
Y244291D01*
X365900D01*
Y243491D01*
X366700D01*
Y241891D01*
X369100D01*
Y242691D01*
X369900D01*
Y243491D01*
X370700D01*
Y244291D01*
X371500D01*
Y245091D01*
X372300D01*
Y245891D01*
X373100D01*
Y246691D01*
X373900D01*
Y247491D01*
X374700D01*
Y248291D01*
X375500D01*
Y249091D01*
X376300D01*
Y249891D01*
X377100D01*
Y250691D01*
X377900D01*
Y251491D01*
X378700D01*
Y252291D01*
X379500D01*
Y253091D01*
X380300D01*
Y253891D01*
X381100D01*
Y254691D01*
X381900D01*
Y255491D01*
X382700D01*
Y256291D01*
X383500D01*
Y257091D01*
X384300D01*
Y257891D01*
X385100D01*
Y258691D01*
X385900D01*
Y259491D01*
X386700D01*
Y260291D01*
X387500D01*
Y261091D01*
X388300D01*
Y261891D01*
X389100D01*
Y262691D01*
X389900D01*
Y263491D01*
X390700D01*
Y264291D01*
X391500D01*
Y265091D01*
X392300D01*
Y265891D01*
X393100D01*
Y266691D01*
X393900D01*
Y267491D01*
X394700D01*
Y268291D01*
X395500D01*
Y269091D01*
X396300D01*
Y269891D01*
X397100D01*
Y270691D01*
X397900D01*
Y271491D01*
X398700D01*
Y272291D01*
X399500D01*
Y273091D01*
X400300D01*
Y273891D01*
X401100D01*
Y274691D01*
X401900D01*
Y277091D01*
X399500D01*
Y279491D01*
X400300D01*
Y280291D01*
X401100D01*
Y281091D01*
X401900D01*
Y282691D01*
X401100D01*
Y283491D01*
X400300D01*
Y284291D01*
X399500D01*
Y285091D01*
X398700D01*
Y285891D01*
X397900D01*
Y286691D01*
X397100D01*
Y287491D01*
X396300D01*
Y288291D01*
X395500D01*
Y289091D01*
X394700D01*
Y289891D01*
X393900D01*
Y290691D01*
X393100D01*
Y291491D01*
X392300D01*
Y292291D01*
X391500D01*
Y293091D01*
X390700D01*
Y293891D01*
X389900D01*
Y294691D01*
X389100D01*
Y295491D01*
X388300D01*
Y296291D01*
X387500D01*
Y297091D01*
X386700D01*
Y297891D01*
X385900D01*
Y298691D01*
X385100D01*
Y299491D01*
X384300D01*
Y300291D01*
X383500D01*
Y301091D01*
X382700D01*
Y301891D01*
X381900D01*
Y302691D01*
X381100D01*
Y303491D01*
X380300D01*
Y304291D01*
X379500D01*
Y305091D01*
X378700D01*
Y305891D01*
X377900D01*
Y306691D01*
X377100D01*
Y307491D01*
X376300D01*
Y308291D01*
X375500D01*
Y309091D01*
X374700D01*
Y309891D01*
X373900D01*
Y310691D01*
X373100D01*
Y311491D01*
X372300D01*
Y312291D01*
X371500D01*
Y313091D01*
X370700D01*
Y313891D01*
X369900D01*
Y314691D01*
X369100D01*
Y315491D01*
D02*
G37*
%LPD*%
D40*
X321000Y51500D02*
X331000D01*
X321000Y41500D02*
Y121500D01*
X331000D01*
Y41500D02*
Y121500D01*
X321000Y41500D02*
X331000D01*
X331500Y51500D02*
X341500D01*
X331500Y41500D02*
Y121500D01*
X341500D01*
Y41500D02*
Y121500D01*
X331500Y41500D02*
X341500D01*
X290000Y250000D02*
Y260000D01*
Y250000D02*
X370000D01*
Y260000D01*
X290000D02*
X370000D01*
X300000Y250000D02*
Y260000D01*
X290000Y240000D02*
Y250000D01*
Y240000D02*
X370000D01*
Y250000D01*
X290000D02*
X370000D01*
X300000Y240000D02*
Y250000D01*
X181500D02*
Y260000D01*
Y250000D02*
X261500D01*
Y260000D01*
X181500D02*
X261500D01*
X191500Y250000D02*
Y260000D01*
X181500Y240000D02*
Y250000D01*
Y240000D02*
X261500D01*
Y250000D01*
X181500D02*
X261500D01*
X191500Y240000D02*
Y250000D01*
D41*
X239815Y-8764D02*
Y20764D01*
X279185Y-8764D02*
Y20764D01*
X239815Y-8764D02*
X279185D01*
X239815Y20764D02*
X279185D01*
X137752Y-8264D02*
Y21264D01*
X177122Y-8264D02*
Y21264D01*
X137752Y-8264D02*
X177122D01*
X137752Y21264D02*
X177122D01*
X39315Y-8764D02*
Y20764D01*
X78685Y-8764D02*
Y20764D01*
X39315Y-8764D02*
X78685D01*
X39315Y20764D02*
X78685D01*
D42*
X330795Y124650D02*
Y128149D01*
X329046D01*
X328463Y127566D01*
Y126400D01*
X329046Y125817D01*
X330795D01*
X324964Y128149D02*
X327296D01*
Y126400D01*
X326130Y126983D01*
X325547D01*
X324964Y126400D01*
Y125233D01*
X325547Y124650D01*
X326713D01*
X327296Y125233D01*
X341295Y124650D02*
Y128149D01*
X339546D01*
X338963Y127566D01*
Y126400D01*
X339546Y125817D01*
X341295D01*
X336047Y124650D02*
Y128149D01*
X337796Y126400D01*
X335464D01*
X287500Y258500D02*
X284001D01*
Y256751D01*
X284584Y256167D01*
X285751D01*
X286334Y256751D01*
Y258500D01*
X284584Y255001D02*
X284001Y254418D01*
Y253252D01*
X284584Y252669D01*
X285167D01*
X285751Y253252D01*
X286334Y252669D01*
X286917D01*
X287500Y253252D01*
Y254418D01*
X286917Y255001D01*
X286334D01*
X285751Y254418D01*
X285167Y255001D01*
X284584D01*
X285751Y254418D02*
Y253252D01*
X287500Y248500D02*
X284001D01*
Y246751D01*
X284584Y246167D01*
X285751D01*
X286334Y246751D01*
Y248500D01*
X284001Y245001D02*
Y242669D01*
X284584D01*
X286917Y245001D01*
X287500D01*
X179000Y259000D02*
X175501D01*
Y257251D01*
X176084Y256667D01*
X177251D01*
X177834Y257251D01*
Y259000D01*
X179000Y255501D02*
Y254335D01*
Y254918D01*
X175501D01*
X176084Y255501D01*
X178500Y249000D02*
X175001D01*
Y247251D01*
X175584Y246667D01*
X176751D01*
X177334Y247251D01*
Y249000D01*
X175001Y243169D02*
X175584Y244335D01*
X176751Y245501D01*
X177917D01*
X178500Y244918D01*
Y243752D01*
X177917Y243169D01*
X177334D01*
X176751Y243752D01*
Y245501D01*
X418795Y356849D02*
X416463Y353350D01*
Y356849D02*
X418795Y353350D01*
X415296D02*
Y356849D01*
X414130Y355683D01*
X412964Y356849D01*
Y353350D01*
X409465Y356266D02*
X410048Y356849D01*
X411214D01*
X411798Y356266D01*
Y353934D01*
X411214Y353350D01*
X410048D01*
X409465Y353934D01*
X408299Y353350D02*
X407132D01*
X407716D01*
Y356849D01*
X408299Y356266D01*
X189195Y134049D02*
Y131133D01*
X188612Y130550D01*
X187446D01*
X186863Y131133D01*
Y134049D01*
X185696Y133466D02*
X185113Y134049D01*
X183947D01*
X183364Y133466D01*
Y132883D01*
X183947Y132300D01*
X184530D01*
X183947D01*
X183364Y131717D01*
Y131133D01*
X183947Y130550D01*
X185113D01*
X185696Y131133D01*
X90795Y133549D02*
Y130633D01*
X90212Y130050D01*
X89046D01*
X88463Y130633D01*
Y133549D01*
X87296D02*
X84964D01*
Y132966D01*
X87296Y130633D01*
Y130050D01*
X281195Y26550D02*
Y30049D01*
X279446D01*
X278863Y29466D01*
Y28300D01*
X279446Y27717D01*
X281195D01*
X277696Y26550D02*
X276530D01*
X277113D01*
Y30049D01*
X277696Y29466D01*
X274781D02*
X274198Y30049D01*
X273031D01*
X272448Y29466D01*
Y27134D01*
X273031Y26550D01*
X274198D01*
X274781Y27134D01*
Y29466D01*
X291795Y133549D02*
Y130633D01*
X291212Y130050D01*
X290046D01*
X289463Y130633D01*
Y133549D01*
X285964D02*
X287130Y132966D01*
X288296Y131800D01*
Y130633D01*
X287713Y130050D01*
X286547D01*
X285964Y130633D01*
Y131217D01*
X286547Y131800D01*
X288296D01*
X179095Y27050D02*
Y30549D01*
X177346D01*
X176763Y29966D01*
Y28800D01*
X177346Y28217D01*
X179095D01*
X175596Y27634D02*
X175013Y27050D01*
X173847D01*
X173264Y27634D01*
Y29966D01*
X173847Y30549D01*
X175013D01*
X175596Y29966D01*
Y29383D01*
X175013Y28800D01*
X173264D01*
X80695Y26550D02*
Y30049D01*
X78946D01*
X78363Y29466D01*
Y28300D01*
X78946Y27717D01*
X80695D01*
X77196Y26550D02*
X76030D01*
X76613D01*
Y30049D01*
X77196Y29466D01*
X74281Y26550D02*
X73114D01*
X73698D01*
Y30049D01*
X74281Y29466D01*
D43*
X359500Y-1D02*
Y-3000D01*
X358000D01*
X357501Y-2500D01*
Y-2000D01*
X358000Y-1500D01*
X359500D01*
X358000D01*
X357501Y-1001D01*
Y-501D01*
X358000Y-1D01*
X359500D01*
X355001D02*
X356001D01*
X356501Y-501D01*
Y-2500D01*
X356001Y-3000D01*
X355001D01*
X354502Y-2500D01*
Y-501D01*
X355001Y-1D01*
X353502D02*
X351503D01*
X352502D01*
Y-3000D01*
%TF.MD5,20eb7ec3dafd21de92fdd720f073db45*%
M02*
