G04 Layer_Color=255*
%FSLAX26Y26*%
%MOIN*%
%TF.FileFunction,Pads,Top*%
%TF.Part,Single*%
G01*
G75*
%TA.AperFunction,SMDPad,CuDef*%
%ADD10R,0.059055X0.055118*%
%ADD11R,0.062992X0.059055*%
%ADD12O,0.057087X0.023622*%
%ADD13O,0.023622X0.070866*%
%ADD14R,0.023622X0.070866*%
%ADD15R,0.055118X0.059055*%
%ADD16R,0.059055X0.062992*%
%TA.AperFunction,ComponentPad*%
%ADD28R,0.118110X0.118110*%
%ADD29C,0.118110*%
%ADD30C,0.060000*%
%ADD31C,0.059055*%
%ADD32R,0.059055X0.059055*%
%ADD33R,0.060000X0.060000*%
%ADD34R,0.060000X0.060000*%
%TA.AperFunction,WasherPad*%
%ADD35C,0.060000*%
D10*
X2685000Y3109370D02*
D03*
Y3030630D02*
D03*
X2475000Y3109370D02*
D03*
Y3030630D02*
D03*
X565000Y2930630D02*
D03*
Y3009370D02*
D03*
X1630000Y2300630D02*
D03*
Y2379370D02*
D03*
X1540000Y2300630D02*
D03*
Y2379370D02*
D03*
X1160000Y2300630D02*
D03*
Y2379370D02*
D03*
X1070000Y2300630D02*
D03*
Y2379370D02*
D03*
X685000Y2300630D02*
D03*
Y2379370D02*
D03*
X595000Y2300630D02*
D03*
Y2379370D02*
D03*
X1370000Y1909370D02*
D03*
Y1830630D02*
D03*
X1465000Y1830630D02*
D03*
Y1909370D02*
D03*
X1575000Y1914370D02*
D03*
Y1835630D02*
D03*
X1665000Y1835630D02*
D03*
Y1914370D02*
D03*
X1815000Y1904370D02*
D03*
Y1825630D02*
D03*
X1905000Y1825630D02*
D03*
Y1904370D02*
D03*
X2485000Y1904370D02*
D03*
Y1825630D02*
D03*
X2575000Y1825630D02*
D03*
Y1904370D02*
D03*
X2665000Y1903740D02*
D03*
Y1825000D02*
D03*
X2805000Y1904370D02*
D03*
Y1825630D02*
D03*
X2895000Y1904370D02*
D03*
Y1825630D02*
D03*
X3060000Y1404370D02*
D03*
Y1325630D02*
D03*
X2965000Y1325630D02*
D03*
Y1404370D02*
D03*
X2810000Y1404370D02*
D03*
Y1325630D02*
D03*
X2710000Y1325630D02*
D03*
Y1404370D02*
D03*
X2509640Y1325630D02*
D03*
Y1404370D02*
D03*
X2409820Y1325630D02*
D03*
Y1404370D02*
D03*
X2310000Y1404370D02*
D03*
Y1325630D02*
D03*
X615000Y1404370D02*
D03*
Y1325630D02*
D03*
X518333Y1325630D02*
D03*
Y1404370D02*
D03*
X949862Y195630D02*
D03*
Y274370D02*
D03*
X257461Y195630D02*
D03*
Y274370D02*
D03*
X1295000Y1325630D02*
D03*
Y1404370D02*
D03*
X1585000Y1404370D02*
D03*
Y1325630D02*
D03*
X1488333Y1325630D02*
D03*
Y1404370D02*
D03*
X325000Y1325630D02*
D03*
Y1404370D02*
D03*
X1405000Y2930630D02*
D03*
Y3009370D02*
D03*
X1040000Y2930630D02*
D03*
Y3009370D02*
D03*
X2255000Y195630D02*
D03*
Y274370D02*
D03*
X2954370Y175630D02*
D03*
Y254370D02*
D03*
X1249370Y200630D02*
D03*
Y279370D02*
D03*
X1921772Y200630D02*
D03*
Y279370D02*
D03*
X2595000Y3109370D02*
D03*
Y3030630D02*
D03*
X945000Y2930630D02*
D03*
Y3009370D02*
D03*
X1505000Y3009370D02*
D03*
Y2930630D02*
D03*
X465000Y2930630D02*
D03*
Y3009370D02*
D03*
D11*
X1295000Y2902401D02*
D03*
Y2827598D02*
D03*
X820000Y2902401D02*
D03*
Y2827598D02*
D03*
X2610000Y1326186D02*
D03*
Y1400989D02*
D03*
X2195000Y1267401D02*
D03*
Y1192598D02*
D03*
X422206Y1329011D02*
D03*
Y1403814D02*
D03*
X225000Y797402D02*
D03*
Y722598D02*
D03*
X1765000Y2907401D02*
D03*
Y2832598D02*
D03*
X1392206Y1326186D02*
D03*
Y1400989D02*
D03*
X2235000Y797402D02*
D03*
Y722598D02*
D03*
X1205000Y797402D02*
D03*
Y722598D02*
D03*
X200000Y1267401D02*
D03*
Y1192598D02*
D03*
X2860000Y842402D02*
D03*
Y767598D02*
D03*
X845000Y862402D02*
D03*
Y787598D02*
D03*
X1190000Y1267401D02*
D03*
Y1192598D02*
D03*
X1844370Y862402D02*
D03*
Y787598D02*
D03*
D12*
X677283Y2525000D02*
D03*
Y2575000D02*
D03*
Y2625000D02*
D03*
Y2675000D02*
D03*
Y2725000D02*
D03*
Y2775000D02*
D03*
Y2825000D02*
D03*
X462716Y2525000D02*
D03*
Y2575000D02*
D03*
Y2625000D02*
D03*
Y2675000D02*
D03*
Y2725000D02*
D03*
Y2775000D02*
D03*
Y2825000D02*
D03*
X1157283Y2525000D02*
D03*
Y2575000D02*
D03*
Y2625000D02*
D03*
Y2675000D02*
D03*
Y2725000D02*
D03*
Y2775000D02*
D03*
Y2825000D02*
D03*
X942716Y2525000D02*
D03*
Y2575000D02*
D03*
Y2625000D02*
D03*
Y2675000D02*
D03*
Y2725000D02*
D03*
Y2775000D02*
D03*
Y2825000D02*
D03*
X1620000Y2530000D02*
D03*
Y2580000D02*
D03*
Y2630000D02*
D03*
Y2680000D02*
D03*
Y2730000D02*
D03*
Y2780000D02*
D03*
Y2830000D02*
D03*
X1405433Y2530000D02*
D03*
Y2580000D02*
D03*
Y2630000D02*
D03*
Y2680000D02*
D03*
Y2730000D02*
D03*
Y2780000D02*
D03*
Y2830000D02*
D03*
D13*
X2470000Y1194134D02*
D03*
X2420000D02*
D03*
X2370000D02*
D03*
X2320000D02*
D03*
X2470000Y765000D02*
D03*
X2420000D02*
D03*
X2370000D02*
D03*
X1445000Y1194134D02*
D03*
X1395000D02*
D03*
X1345000D02*
D03*
X1295000D02*
D03*
X1445000Y765000D02*
D03*
X1395000D02*
D03*
X1345000D02*
D03*
X455000Y1194134D02*
D03*
X405000D02*
D03*
X355000D02*
D03*
X305000D02*
D03*
X455000Y765000D02*
D03*
X405000D02*
D03*
X355000D02*
D03*
D14*
X2320000D02*
D03*
X1295000D02*
D03*
X305000D02*
D03*
D15*
X639370Y650000D02*
D03*
X560630D02*
D03*
X849370Y566067D02*
D03*
X770630D02*
D03*
X770630Y448933D02*
D03*
X849370D02*
D03*
X355630Y566067D02*
D03*
X434370D02*
D03*
X434370Y448933D02*
D03*
X355630D02*
D03*
X355630Y305000D02*
D03*
X434370D02*
D03*
X849370D02*
D03*
X770630D02*
D03*
X873091Y60000D02*
D03*
X951831D02*
D03*
X334232D02*
D03*
X255492D02*
D03*
X2350630Y575000D02*
D03*
X2429370D02*
D03*
X2429370Y440000D02*
D03*
X2350630D02*
D03*
X2350630Y305000D02*
D03*
X2429370D02*
D03*
X2331772Y60000D02*
D03*
X2253031D02*
D03*
X2859370Y575000D02*
D03*
X2780630D02*
D03*
X2780630Y440000D02*
D03*
X2859370D02*
D03*
X2859370Y305000D02*
D03*
X2780630D02*
D03*
X2875630Y60000D02*
D03*
X2954370D02*
D03*
X2644370Y660000D02*
D03*
X2565630D02*
D03*
X1328740Y65000D02*
D03*
X1250000D02*
D03*
X1345000Y310000D02*
D03*
X1423740D02*
D03*
X1423740Y445000D02*
D03*
X1345000D02*
D03*
X1345630Y580000D02*
D03*
X1424370D02*
D03*
X1845000Y65000D02*
D03*
X1923740D02*
D03*
X1823740Y580000D02*
D03*
X1745000D02*
D03*
X1745000Y445000D02*
D03*
X1823740D02*
D03*
X1823740Y310000D02*
D03*
X1745000D02*
D03*
X1618740Y675000D02*
D03*
X1540000D02*
D03*
D16*
X2640989Y575539D02*
D03*
X2566186D02*
D03*
X637402Y565000D02*
D03*
X562598D02*
D03*
X1616772Y585000D02*
D03*
X1541968D02*
D03*
D28*
X491575Y60000D02*
D03*
X1475945Y65000D02*
D03*
X2496575Y60000D02*
D03*
D29*
X688425D02*
D03*
X1672795Y65000D02*
D03*
X2693425Y60000D02*
D03*
D30*
X2770000Y1210591D02*
D03*
Y1110591D02*
D03*
Y935000D02*
D03*
Y710591D02*
D03*
X760000Y1210591D02*
D03*
Y1110591D02*
D03*
Y935000D02*
D03*
Y710591D02*
D03*
X1744370Y1215591D02*
D03*
Y1115591D02*
D03*
Y940000D02*
D03*
Y715591D02*
D03*
X2065001Y2450000D02*
D03*
X1965001D02*
D03*
X2565001D02*
D03*
X2465001D02*
D03*
X2365001D02*
D03*
X2265001D02*
D03*
X2165001D02*
D03*
X2065001Y2550000D02*
D03*
X1965001D02*
D03*
X2565001D02*
D03*
X2465001D02*
D03*
X2365001D02*
D03*
X2265001D02*
D03*
X2165001D02*
D03*
X3150001Y2450000D02*
D03*
X3050001D02*
D03*
X3650001D02*
D03*
X3550001D02*
D03*
X3450001D02*
D03*
X3350001D02*
D03*
X3250001D02*
D03*
X3150001Y2550000D02*
D03*
X3050001D02*
D03*
X3650001D02*
D03*
X3550001D02*
D03*
X3450001D02*
D03*
X3350001D02*
D03*
X3250001D02*
D03*
X3365000Y765000D02*
D03*
Y865000D02*
D03*
Y965000D02*
D03*
Y1065000D02*
D03*
Y1165000D02*
D03*
Y565000D02*
D03*
Y665000D02*
D03*
X3260000Y765000D02*
D03*
Y865000D02*
D03*
Y965000D02*
D03*
Y1065000D02*
D03*
Y1165000D02*
D03*
Y565000D02*
D03*
Y665000D02*
D03*
X1945000Y3505000D02*
D03*
X2045000D02*
D03*
X2145000D02*
D03*
X2245000D02*
D03*
X2345000D02*
D03*
X1745000D02*
D03*
X1845000D02*
D03*
X1945000Y3135000D02*
D03*
X2045000D02*
D03*
X2145000D02*
D03*
X2245000D02*
D03*
X2345000D02*
D03*
X1745000D02*
D03*
X1845000D02*
D03*
D31*
X1245000Y3282913D02*
D03*
X1345000D02*
D03*
X1445000D02*
D03*
X1545000D02*
D03*
X1645000D02*
D03*
X1745000D02*
D03*
X1845000D02*
D03*
X1945000D02*
D03*
X2045000D02*
D03*
X2145000D02*
D03*
X2245000D02*
D03*
X2345000D02*
D03*
X2445000D02*
D03*
X2545000D02*
D03*
X2645000D02*
D03*
X2745000D02*
D03*
X2845000D02*
D03*
X2945000D02*
D03*
X3045000D02*
D03*
X1145000Y3382913D02*
D03*
X1245000D02*
D03*
X1345000D02*
D03*
X1445000D02*
D03*
X1545000D02*
D03*
X1645000D02*
D03*
X1745000D02*
D03*
X1845000D02*
D03*
X1945000D02*
D03*
X2045000D02*
D03*
X2145000D02*
D03*
X2245000D02*
D03*
X2345000D02*
D03*
X2445000D02*
D03*
X2545000D02*
D03*
X2645000D02*
D03*
X2745000D02*
D03*
X2845000D02*
D03*
X2945000D02*
D03*
X3045000D02*
D03*
X1145000Y3282913D02*
D03*
X3045000Y1690000D02*
D03*
X2945000D02*
D03*
X2845000D02*
D03*
X2745000D02*
D03*
X2645000D02*
D03*
X2545000D02*
D03*
X2445000D02*
D03*
X2345000D02*
D03*
X2245000D02*
D03*
X2145000D02*
D03*
X2045000D02*
D03*
X1945000D02*
D03*
X1845000D02*
D03*
X1745000D02*
D03*
X1645000D02*
D03*
X1545000D02*
D03*
X1445000D02*
D03*
X1345000D02*
D03*
X1245000D02*
D03*
X1145000D02*
D03*
X3045000Y1590000D02*
D03*
X2945000D02*
D03*
X2845000D02*
D03*
X2745000D02*
D03*
X2645000D02*
D03*
X2545000D02*
D03*
X2445000D02*
D03*
X2345000D02*
D03*
X2245000D02*
D03*
X2145000D02*
D03*
X2045000D02*
D03*
X1945000D02*
D03*
X1845000D02*
D03*
X1745000D02*
D03*
X1645000D02*
D03*
X1545000D02*
D03*
X1445000D02*
D03*
X1345000D02*
D03*
X1245000D02*
D03*
D32*
X1145000D02*
D03*
D33*
X1865001Y2450000D02*
D03*
Y2550000D02*
D03*
X2950001Y2450000D02*
D03*
Y2550000D02*
D03*
X1645000Y3505000D02*
D03*
Y3135000D02*
D03*
D34*
X3365000Y465000D02*
D03*
X3260000D02*
D03*
D35*
X1Y-0D02*
D03*
Y3779528D02*
D03*
X3779527Y-0D02*
D03*
Y3779528D02*
D03*
%TF.MD5,76357a5bd7fa4bf03fa1fc8a2a0f7367*%
M02*
