G04 Layer_Color=32768*
%FSLAX26Y26*%
%MOIN*%
%TF.FileFunction,Other,Mechanical_15*%
%TF.Part,Single*%
G01*
G75*
%TA.AperFunction,NonConductor*%
%ADD67C,0.003937*%
%ADD68C,0.001968*%
D67*
X2665315Y3070000D02*
X2704685D01*
X2685000Y3050315D02*
Y3089685D01*
X2455315Y3070000D02*
X2494685D01*
X2475000Y3050315D02*
Y3089685D01*
X1275315Y2865000D02*
X1314685D01*
X1295000Y2845315D02*
Y2884685D01*
X800315Y2865000D02*
X839685D01*
X820000Y2845315D02*
Y2884685D01*
X565000Y2950315D02*
Y2989685D01*
X545315Y2970000D02*
X584685D01*
X570000Y2655315D02*
Y2694685D01*
X550315Y2675000D02*
X589685D01*
X1050000Y2655315D02*
Y2694685D01*
X1030315Y2675000D02*
X1069685D01*
X1512717Y2660315D02*
Y2699685D01*
X1493032Y2680000D02*
X1532402D01*
X1610315Y2340000D02*
X1649685D01*
X1630000Y2320315D02*
Y2359685D01*
X1520315Y2340000D02*
X1559685D01*
X1540000Y2320315D02*
Y2359685D01*
X1140315Y2340000D02*
X1179685D01*
X1160000Y2320315D02*
Y2359685D01*
X1050315Y2340000D02*
X1089685D01*
X1070000Y2320315D02*
Y2359685D01*
X665315Y2340000D02*
X704685D01*
X685000Y2320315D02*
Y2359685D01*
X575315Y2340000D02*
X614685D01*
X595000Y2320315D02*
Y2359685D01*
X1350315Y1870000D02*
X1389685D01*
X1370000Y1850315D02*
Y1889685D01*
X1445315Y1870000D02*
X1484685D01*
X1465000Y1850315D02*
Y1889685D01*
X1555315Y1875000D02*
X1594685D01*
X1575000Y1855315D02*
Y1894685D01*
X1645315Y1875000D02*
X1684685D01*
X1665000Y1855315D02*
Y1894685D01*
X1795315Y1865000D02*
X1834685D01*
X1815000Y1845315D02*
Y1884685D01*
X1885315Y1865000D02*
X1924685D01*
X1905000Y1845315D02*
Y1884685D01*
X2465315Y1865000D02*
X2504685D01*
X2485000Y1845315D02*
Y1884685D01*
X2555315Y1865000D02*
X2594685D01*
X2575000Y1845315D02*
Y1884685D01*
X2645315Y1864370D02*
X2684685D01*
X2665000Y1844685D02*
Y1884055D01*
X2785315Y1865000D02*
X2824685D01*
X2805000Y1845315D02*
Y1884685D01*
X2875315Y1865000D02*
X2914685D01*
X2895000Y1845315D02*
Y1884685D01*
X3060000Y1345315D02*
Y1384685D01*
X3040315Y1365000D02*
X3079685D01*
X2965000Y1345315D02*
Y1384685D01*
X2945315Y1365000D02*
X2984685D01*
X2810000Y1345315D02*
Y1384685D01*
X2790315Y1365000D02*
X2829685D01*
X2710000Y1345315D02*
Y1384685D01*
X2690315Y1365000D02*
X2729685D01*
X2590315Y1363588D02*
X2629685D01*
X2610000Y1343903D02*
Y1383273D01*
X2509640Y1345315D02*
Y1384685D01*
X2489955Y1365000D02*
X2529325D01*
X2409820Y1345315D02*
Y1384685D01*
X2390135Y1365000D02*
X2429505D01*
X2310000Y1345315D02*
Y1384685D01*
X2290315Y1365000D02*
X2329685D01*
X2175315Y1230000D02*
X2214685D01*
X2195000Y1210315D02*
Y1249685D01*
X615000Y1345315D02*
Y1384685D01*
X595315Y1365000D02*
X634685D01*
X518333Y1345315D02*
Y1384685D01*
X498648Y1365000D02*
X538018D01*
X402521Y1366412D02*
X441891D01*
X422206Y1346727D02*
Y1386097D01*
X580315Y650000D02*
X619685D01*
X600000Y630315D02*
Y669685D01*
X205315Y760000D02*
X244685D01*
X225000Y740315D02*
Y779685D01*
X790315Y566067D02*
X829685D01*
X810000Y546382D02*
Y585752D01*
X790315Y448933D02*
X829685D01*
X810000Y429248D02*
Y468618D01*
X375315Y566067D02*
X414685D01*
X395000Y546382D02*
Y585752D01*
X375315Y448933D02*
X414685D01*
X395000Y429248D02*
Y468618D01*
X375315Y305000D02*
X414685D01*
X395000Y285315D02*
Y324685D01*
X790315Y305000D02*
X829685D01*
X810000Y285315D02*
Y324685D01*
X949862Y215315D02*
Y254685D01*
X930177Y235000D02*
X969547D01*
X892776Y60000D02*
X932146D01*
X912461Y40315D02*
Y79685D01*
X257461Y215315D02*
Y254685D01*
X237775Y235000D02*
X277146D01*
X275177Y60000D02*
X314547D01*
X294862Y40315D02*
Y79685D01*
X1745315Y2870000D02*
X1784685D01*
X1765000Y2850315D02*
Y2889685D01*
X1295000Y1345315D02*
Y1384685D01*
X1275315Y1365000D02*
X1314685D01*
X1372521Y1363588D02*
X1411891D01*
X1392206Y1343903D02*
Y1383273D01*
X1585000Y1345315D02*
Y1384685D01*
X1565315Y1365000D02*
X1604685D01*
X1488333Y1345315D02*
Y1384685D01*
X1468648Y1365000D02*
X1508018D01*
X325000Y1345315D02*
Y1384685D01*
X305315Y1365000D02*
X344685D01*
X2215315Y760000D02*
X2254685D01*
X2235000Y740315D02*
Y779685D01*
X1185315Y760000D02*
X1224685D01*
X1205000Y740315D02*
Y779685D01*
X1405000Y2950315D02*
Y2989685D01*
X1385315Y2970000D02*
X1424685D01*
X1040000Y2950315D02*
Y2989685D01*
X1020315Y2970000D02*
X1059685D01*
X180315Y1230000D02*
X219685D01*
X200000Y1210315D02*
Y1249685D01*
X2370315Y575000D02*
X2409685D01*
X2390000Y555315D02*
Y594685D01*
X2370315Y440000D02*
X2409685D01*
X2390000Y420315D02*
Y459685D01*
X2370315Y305000D02*
X2409685D01*
X2390000Y285315D02*
Y324685D01*
X2255000Y215315D02*
Y254685D01*
X2235315Y235000D02*
X2274685D01*
X2272716Y60000D02*
X2312087D01*
X2292401Y40315D02*
Y79685D01*
X2800315Y575000D02*
X2839685D01*
X2820000Y555315D02*
Y594685D01*
X2800315Y440000D02*
X2839685D01*
X2820000Y420315D02*
Y459685D01*
X2800315Y305000D02*
X2839685D01*
X2820000Y285315D02*
Y324685D01*
X2954370Y195315D02*
Y234685D01*
X2934685Y215000D02*
X2974055D01*
X2895315Y60000D02*
X2934685D01*
X2915000Y40315D02*
Y79685D01*
X2585315Y660000D02*
X2624685D01*
X2605000Y640315D02*
Y679685D01*
X2603588Y555854D02*
Y595224D01*
X2583903Y575539D02*
X2623273D01*
X2840315Y805000D02*
X2879685D01*
X2860000Y785315D02*
Y824685D01*
X825315Y825000D02*
X864685D01*
X845000Y805315D02*
Y844685D01*
X600000Y545315D02*
Y584685D01*
X580315Y565000D02*
X619685D01*
X1170315Y1230000D02*
X1209685D01*
X1190000Y1210315D02*
Y1249685D01*
X1579370Y565315D02*
Y604685D01*
X1559685Y585000D02*
X1599055D01*
X1824685Y825000D02*
X1864055D01*
X1844370Y805315D02*
Y844685D01*
X1269685Y65000D02*
X1309055D01*
X1289370Y45315D02*
Y84685D01*
X1249370Y220315D02*
Y259685D01*
X1229685Y240000D02*
X1269055D01*
X1364685Y310000D02*
X1404055D01*
X1384370Y290315D02*
Y329685D01*
X1364685Y445000D02*
X1404055D01*
X1384370Y425315D02*
Y464685D01*
X1365315Y580000D02*
X1404685D01*
X1385000Y560315D02*
Y599685D01*
X1864685Y65000D02*
X1904055D01*
X1884370Y45315D02*
Y84685D01*
X1921772Y220315D02*
Y259685D01*
X1902086Y240000D02*
X1941457D01*
X1764685Y580000D02*
X1804055D01*
X1784370Y560315D02*
Y599685D01*
X1764685Y445000D02*
X1804055D01*
X1784370Y425315D02*
Y464685D01*
X1764685Y310000D02*
X1804055D01*
X1784370Y290315D02*
Y329685D01*
X1559685Y675000D02*
X1599055D01*
X1579370Y655315D02*
Y694685D01*
X2575315Y3070000D02*
X2614685D01*
X2595000Y3050315D02*
Y3089685D01*
X925315Y2970000D02*
X964685D01*
X945000Y2950315D02*
Y2989685D01*
X1485315Y2970000D02*
X1524685D01*
X1505000Y2950315D02*
Y2989685D01*
X445315Y2970000D02*
X484685D01*
X465000Y2950315D02*
Y2989685D01*
D68*
X424331Y2491929D02*
X715669D01*
X424331Y2858071D02*
X715669D01*
Y2491929D02*
Y2858071D01*
X424331Y2491929D02*
Y2858071D01*
X904331Y2491929D02*
X1195669D01*
X904331Y2858071D02*
X1195669D01*
Y2491929D02*
Y2858071D01*
X904331Y2491929D02*
Y2858071D01*
X1367047Y2496929D02*
X1658386D01*
X1367047Y2863071D02*
X1658386D01*
Y2496929D02*
Y2863071D01*
X1367047Y2496929D02*
Y2863071D01*
%TF.MD5,b28f6be8e09b61e6c9d6eae20f2bbcb1*%
M02*
