G04 Layer_Color=255*
%FSLAX26Y26*%
%MOIN*%
%TF.FileFunction,Pads,Bot*%
%TF.Part,Single*%
G01*
G75*
%TA.AperFunction,ComponentPad*%
%ADD28R,0.118110X0.118110*%
%ADD29C,0.118110*%
%ADD30C,0.060000*%
%ADD31C,0.059055*%
%ADD32R,0.059055X0.059055*%
%ADD33R,0.060000X0.060000*%
%ADD34R,0.060000X0.060000*%
%TA.AperFunction,WasherPad*%
%ADD35C,0.060000*%
D28*
X491575Y60000D02*
D03*
X1475945Y65000D02*
D03*
X2496575Y60000D02*
D03*
D29*
X688425D02*
D03*
X1672795Y65000D02*
D03*
X2693425Y60000D02*
D03*
D30*
X2770000Y1210591D02*
D03*
Y1110591D02*
D03*
Y935000D02*
D03*
Y710591D02*
D03*
X760000Y1210591D02*
D03*
Y1110591D02*
D03*
Y935000D02*
D03*
Y710591D02*
D03*
X1744370Y1215591D02*
D03*
Y1115591D02*
D03*
Y940000D02*
D03*
Y715591D02*
D03*
X2065001Y2450000D02*
D03*
X1965001D02*
D03*
X2565001D02*
D03*
X2465001D02*
D03*
X2365001D02*
D03*
X2265001D02*
D03*
X2165001D02*
D03*
X2065001Y2550000D02*
D03*
X1965001D02*
D03*
X2565001D02*
D03*
X2465001D02*
D03*
X2365001D02*
D03*
X2265001D02*
D03*
X2165001D02*
D03*
X3150001Y2450000D02*
D03*
X3050001D02*
D03*
X3650001D02*
D03*
X3550001D02*
D03*
X3450001D02*
D03*
X3350001D02*
D03*
X3250001D02*
D03*
X3150001Y2550000D02*
D03*
X3050001D02*
D03*
X3650001D02*
D03*
X3550001D02*
D03*
X3450001D02*
D03*
X3350001D02*
D03*
X3250001D02*
D03*
X3365000Y765000D02*
D03*
Y865000D02*
D03*
Y965000D02*
D03*
Y1065000D02*
D03*
Y1165000D02*
D03*
Y565000D02*
D03*
Y665000D02*
D03*
X3260000Y765000D02*
D03*
Y865000D02*
D03*
Y965000D02*
D03*
Y1065000D02*
D03*
Y1165000D02*
D03*
Y565000D02*
D03*
Y665000D02*
D03*
X1945000Y3505000D02*
D03*
X2045000D02*
D03*
X2145000D02*
D03*
X2245000D02*
D03*
X2345000D02*
D03*
X1745000D02*
D03*
X1845000D02*
D03*
X1945000Y3135000D02*
D03*
X2045000D02*
D03*
X2145000D02*
D03*
X2245000D02*
D03*
X2345000D02*
D03*
X1745000D02*
D03*
X1845000D02*
D03*
D31*
X1245000Y3282913D02*
D03*
X1345000D02*
D03*
X1445000D02*
D03*
X1545000D02*
D03*
X1645000D02*
D03*
X1745000D02*
D03*
X1845000D02*
D03*
X1945000D02*
D03*
X2045000D02*
D03*
X2145000D02*
D03*
X2245000D02*
D03*
X2345000D02*
D03*
X2445000D02*
D03*
X2545000D02*
D03*
X2645000D02*
D03*
X2745000D02*
D03*
X2845000D02*
D03*
X2945000D02*
D03*
X3045000D02*
D03*
X1145000Y3382913D02*
D03*
X1245000D02*
D03*
X1345000D02*
D03*
X1445000D02*
D03*
X1545000D02*
D03*
X1645000D02*
D03*
X1745000D02*
D03*
X1845000D02*
D03*
X1945000D02*
D03*
X2045000D02*
D03*
X2145000D02*
D03*
X2245000D02*
D03*
X2345000D02*
D03*
X2445000D02*
D03*
X2545000D02*
D03*
X2645000D02*
D03*
X2745000D02*
D03*
X2845000D02*
D03*
X2945000D02*
D03*
X3045000D02*
D03*
X1145000Y3282913D02*
D03*
X3045000Y1690000D02*
D03*
X2945000D02*
D03*
X2845000D02*
D03*
X2745000D02*
D03*
X2645000D02*
D03*
X2545000D02*
D03*
X2445000D02*
D03*
X2345000D02*
D03*
X2245000D02*
D03*
X2145000D02*
D03*
X2045000D02*
D03*
X1945000D02*
D03*
X1845000D02*
D03*
X1745000D02*
D03*
X1645000D02*
D03*
X1545000D02*
D03*
X1445000D02*
D03*
X1345000D02*
D03*
X1245000D02*
D03*
X1145000D02*
D03*
X3045000Y1590000D02*
D03*
X2945000D02*
D03*
X2845000D02*
D03*
X2745000D02*
D03*
X2645000D02*
D03*
X2545000D02*
D03*
X2445000D02*
D03*
X2345000D02*
D03*
X2245000D02*
D03*
X2145000D02*
D03*
X2045000D02*
D03*
X1945000D02*
D03*
X1845000D02*
D03*
X1745000D02*
D03*
X1645000D02*
D03*
X1545000D02*
D03*
X1445000D02*
D03*
X1345000D02*
D03*
X1245000D02*
D03*
D32*
X1145000D02*
D03*
D33*
X1865001Y2450000D02*
D03*
Y2550000D02*
D03*
X2950001Y2450000D02*
D03*
Y2550000D02*
D03*
X1645000Y3505000D02*
D03*
Y3135000D02*
D03*
D34*
X3365000Y465000D02*
D03*
X3260000D02*
D03*
D35*
X1Y-0D02*
D03*
Y3779528D02*
D03*
X3779527Y-0D02*
D03*
Y3779528D02*
D03*
%TF.MD5,2f1570a6f52aacbf8eac341cbb9f3181*%
M02*
