G04 Layer_Color=65535*
%FSLAX26Y26*%
%MOIN*%
%TF.FileFunction,Legend,Top*%
%TF.Part,Single*%
G01*
G75*
%TA.AperFunction,NonConductor*%
%ADD40C,0.007874*%
%ADD41C,0.010000*%
%ADD42C,0.007000*%
%ADD43C,0.006000*%
%ADD63C,0.023622*%
%ADD64C,0.009842*%
%ADD65C,0.005000*%
%ADD66C,0.008000*%
D40*
X2295000Y967067D02*
G03*
X2295000Y992067I0J12500D01*
G01*
X1270000Y967067D02*
G03*
X1270000Y992067I0J12500D01*
G01*
X280000Y967067D02*
G03*
X280000Y992067I0J12500D01*
G01*
X2659409Y3070000D02*
X2710591D01*
X2449409D02*
X2500591D01*
X539409Y2970000D02*
X590591D01*
X507008Y2501772D02*
X632992D01*
X507008Y2848228D02*
X632992D01*
Y2501772D02*
Y2848228D01*
X507008Y2501772D02*
Y2848228D01*
X987008Y2501772D02*
X1112992D01*
X987008Y2848228D02*
X1112992D01*
Y2501772D02*
Y2848228D01*
X987008Y2501772D02*
Y2848228D01*
X1449724Y2506772D02*
X1575709D01*
X1449724Y2853228D02*
X1575709D01*
Y2506772D02*
Y2853228D01*
X1449724Y2506772D02*
Y2853228D01*
X1604409Y2340000D02*
X1655591D01*
X1514409D02*
X1565591D01*
X1134409D02*
X1185591D01*
X1044409D02*
X1095591D01*
X659409D02*
X710591D01*
X569409D02*
X620591D01*
X1344409Y1870000D02*
X1395591D01*
X1439409Y1870000D02*
X1490591D01*
X1549409Y1875000D02*
X1600591D01*
X1639409Y1875000D02*
X1690591D01*
X1789409Y1865000D02*
X1840591D01*
X1879409Y1865000D02*
X1930591D01*
X2459409Y1865000D02*
X2510591D01*
X2549409Y1865000D02*
X2600591D01*
X2639409Y1864370D02*
X2690591D01*
X2779409Y1865000D02*
X2830591D01*
X2869409D02*
X2920591D01*
X3034409Y1365000D02*
X3085591D01*
X2939409Y1365000D02*
X2990591D01*
X2784409Y1365000D02*
X2835591D01*
X2684409Y1365000D02*
X2735591D01*
X2484050D02*
X2535231D01*
X2384230D02*
X2435411D01*
X2284409Y1365000D02*
X2335591D01*
X2295000Y833307D02*
X2495000D01*
Y1125827D01*
X2295000D02*
X2495000D01*
X2295000Y992067D02*
Y1125827D01*
Y833307D02*
Y967067D01*
X1270000Y833307D02*
X1470000D01*
Y1125827D01*
X1270000D02*
X1470000D01*
X1270000Y992067D02*
Y1125827D01*
Y833307D02*
Y967067D01*
X589409Y1365000D02*
X640590D01*
X492743Y1365000D02*
X543924D01*
X600000Y624409D02*
Y675591D01*
X810000Y540476D02*
Y591658D01*
X810000Y423342D02*
Y474524D01*
X395000Y540476D02*
Y591658D01*
X395000Y423342D02*
Y474524D01*
X395000Y279409D02*
Y330591D01*
X810000Y279409D02*
Y330591D01*
X924272Y235000D02*
X975453D01*
X912461Y34409D02*
Y85591D01*
X231870Y235000D02*
X283051D01*
X294862Y34409D02*
Y85591D01*
X1269409Y1365000D02*
X1320591D01*
X1559409Y1365000D02*
X1610590D01*
X1462743Y1365000D02*
X1513924D01*
X299409D02*
X350591D01*
X280000Y833307D02*
X480000D01*
Y1125827D01*
X280000D02*
X480000D01*
X280000Y992067D02*
Y1125827D01*
Y833307D02*
Y967067D01*
X1379409Y2970000D02*
X1430591D01*
X1014409D02*
X1065591D01*
X2390000Y549409D02*
Y600591D01*
X2390000Y414409D02*
Y465591D01*
X2390000Y279409D02*
Y330591D01*
X2229409Y235000D02*
X2280591D01*
X2292401Y34409D02*
Y85591D01*
X2820000Y549409D02*
Y600591D01*
X2820000Y414409D02*
Y465591D01*
X2820000Y279409D02*
Y330591D01*
X2928780Y215000D02*
X2979961D01*
X2915000Y34409D02*
Y85591D01*
X2605000Y634409D02*
Y685591D01*
X1289370Y39409D02*
Y90591D01*
X1223779Y240000D02*
X1274961D01*
X1384370Y284409D02*
Y335591D01*
X1384370Y419409D02*
Y470591D01*
X1385000Y554409D02*
Y605591D01*
X1884370Y39409D02*
Y90591D01*
X1896181Y240000D02*
X1947362D01*
X1784370Y554409D02*
Y605591D01*
X1784370Y419409D02*
Y470591D01*
X1784370Y284409D02*
Y335591D01*
X1579370Y649409D02*
Y700591D01*
X2569409Y3070000D02*
X2620591D01*
X919409Y2970000D02*
X970591D01*
X1479409Y2970000D02*
X1530591D01*
X439409Y2970000D02*
X490591D01*
D41*
X1595000Y3455000D02*
Y3555000D01*
X2395000D01*
Y3455000D02*
Y3555000D01*
X1595000Y3455000D02*
X2395000D01*
X1695000D02*
Y3555000D01*
X1595000Y3085000D02*
Y3185000D01*
X2395000D01*
Y3085000D02*
Y3185000D01*
X1595000Y3085000D02*
X2395000D01*
X1695000D02*
Y3185000D01*
D42*
X2715000Y3165000D02*
Y3199989D01*
X2732494D01*
X2738326Y3194157D01*
Y3182494D01*
X2732494Y3176663D01*
X2715000D01*
X2726663D02*
X2738326Y3165000D01*
X2749989Y3170831D02*
X2755820Y3165000D01*
X2767483D01*
X2773314Y3170831D01*
Y3194157D01*
X2767483Y3199989D01*
X2755820D01*
X2749989Y3194157D01*
Y3188326D01*
X2755820Y3182494D01*
X2773314D01*
X2440000Y3175000D02*
Y3209989D01*
X2457494D01*
X2463326Y3204157D01*
Y3192494D01*
X2457494Y3186663D01*
X2440000D01*
X2451663D02*
X2463326Y3175000D01*
X2498314Y3209989D02*
X2474989D01*
Y3192494D01*
X2486652Y3198326D01*
X2492483D01*
X2498314Y3192494D01*
Y3180831D01*
X2492483Y3175000D01*
X2480820D01*
X2474989Y3180831D01*
X1265843Y2993326D02*
X1260011Y2987494D01*
Y2975831D01*
X1265843Y2970000D01*
X1289169D01*
X1295000Y2975831D01*
Y2987494D01*
X1289169Y2993326D01*
X1295000Y3028314D02*
Y3004989D01*
X1271674Y3028314D01*
X1265843D01*
X1260011Y3022483D01*
Y3010820D01*
X1265843Y3004989D01*
X785843Y2993326D02*
X780011Y2987494D01*
Y2975831D01*
X785843Y2970000D01*
X809169D01*
X815000Y2975831D01*
Y2987494D01*
X809169Y2993326D01*
X815000Y3004989D02*
Y3016652D01*
Y3010820D01*
X780011D01*
X785843Y3004989D01*
X540000Y3075000D02*
Y3109989D01*
X557494D01*
X563326Y3104157D01*
Y3092494D01*
X557494Y3086663D01*
X540000D01*
X551663D02*
X563326Y3075000D01*
X574989D02*
X586652D01*
X580820D01*
Y3109989D01*
X574989Y3104157D01*
X330000Y2864989D02*
Y2835831D01*
X335831Y2830000D01*
X347494D01*
X353326Y2835831D01*
Y2864989D01*
X382483Y2830000D02*
Y2864989D01*
X364989Y2847494D01*
X388315D01*
X1110000Y2944989D02*
Y2915831D01*
X1115831Y2910000D01*
X1127494D01*
X1133326Y2915831D01*
Y2944989D01*
X1168314Y2910000D02*
X1144989D01*
X1168314Y2933326D01*
Y2939157D01*
X1162483Y2944989D01*
X1150820D01*
X1144989Y2939157D01*
X1575000Y2924989D02*
Y2895831D01*
X1580831Y2890000D01*
X1592494D01*
X1598326Y2895831D01*
Y2924989D01*
X1609989Y2890000D02*
X1621652D01*
X1615820D01*
Y2924989D01*
X1609989Y2919157D01*
X1584953Y2206504D02*
Y2241492D01*
X1602447D01*
X1608278Y2235661D01*
Y2223998D01*
X1602447Y2218167D01*
X1584953D01*
X1596616D02*
X1608278Y2206504D01*
X1619941D02*
X1631604D01*
X1625773D01*
Y2241492D01*
X1619941Y2235661D01*
X1666593Y2206504D02*
Y2241492D01*
X1649099Y2223998D01*
X1672424D01*
X1494953Y2206504D02*
Y2241492D01*
X1512447D01*
X1518278Y2235661D01*
Y2223998D01*
X1512447Y2218167D01*
X1494953D01*
X1506616D02*
X1518278Y2206504D01*
X1547436D02*
Y2241492D01*
X1529941Y2223998D01*
X1553267D01*
X1160000Y2205000D02*
Y2239989D01*
X1177494D01*
X1183326Y2234157D01*
Y2222494D01*
X1177494Y2216663D01*
X1160000D01*
X1171663D02*
X1183326Y2205000D01*
X1194989Y2234157D02*
X1200820Y2239989D01*
X1212483D01*
X1218314Y2234157D01*
Y2228326D01*
X1212483Y2222494D01*
X1206652D01*
X1212483D01*
X1218314Y2216663D01*
Y2210831D01*
X1212483Y2205000D01*
X1200820D01*
X1194989Y2210831D01*
X1247472Y2205000D02*
Y2239989D01*
X1229977Y2222494D01*
X1253303D01*
X1015000Y2205000D02*
Y2239989D01*
X1032494D01*
X1038326Y2234157D01*
Y2222494D01*
X1032494Y2216663D01*
X1015000D01*
X1026663D02*
X1038326Y2205000D01*
X1073314D02*
X1049989D01*
X1073314Y2228326D01*
Y2234157D01*
X1067483Y2239989D01*
X1055820D01*
X1049989Y2234157D01*
X1084977D02*
X1090809Y2239989D01*
X1102472D01*
X1108303Y2234157D01*
Y2210831D01*
X1102472Y2205000D01*
X1090809D01*
X1084977Y2210831D01*
Y2234157D01*
X685000Y2205000D02*
Y2239989D01*
X702494D01*
X708326Y2234157D01*
Y2222494D01*
X702494Y2216663D01*
X685000D01*
X696663D02*
X708326Y2205000D01*
X737483D02*
Y2239989D01*
X719989Y2222494D01*
X743314D01*
X754977Y2234157D02*
X760809Y2239989D01*
X772472D01*
X778303Y2234157D01*
Y2228326D01*
X772472Y2222494D01*
X778303Y2216663D01*
Y2210831D01*
X772472Y2205000D01*
X760809D01*
X754977Y2210831D01*
Y2216663D01*
X760809Y2222494D01*
X754977Y2228326D01*
Y2234157D01*
X760809Y2222494D02*
X772472D01*
X545000Y2200000D02*
Y2234989D01*
X562494D01*
X568326Y2229157D01*
Y2217494D01*
X562494Y2211663D01*
X545000D01*
X556663D02*
X568326Y2200000D01*
X597483D02*
Y2234989D01*
X579989Y2217494D01*
X603314D01*
X638303Y2200000D02*
X614977D01*
X638303Y2223326D01*
Y2229157D01*
X632472Y2234989D01*
X620809D01*
X614977Y2229157D01*
X1345000Y2020000D02*
X1310011D01*
Y2037494D01*
X1315843Y2043326D01*
X1327506D01*
X1333337Y2037494D01*
Y2020000D01*
Y2031663D02*
X1345000Y2043326D01*
X1315843Y2054989D02*
X1310011Y2060820D01*
Y2072483D01*
X1315843Y2078314D01*
X1321674D01*
X1327506Y2072483D01*
Y2066652D01*
Y2072483D01*
X1333337Y2078314D01*
X1339169D01*
X1345000Y2072483D01*
Y2060820D01*
X1339169Y2054989D01*
X1315843Y2089977D02*
X1310011Y2095809D01*
Y2107472D01*
X1315843Y2113303D01*
X1339169D01*
X1345000Y2107472D01*
Y2095809D01*
X1339169Y2089977D01*
X1315843D01*
X1440000Y2025000D02*
X1405011D01*
Y2042494D01*
X1410843Y2048326D01*
X1422506D01*
X1428337Y2042494D01*
Y2025000D01*
Y2036663D02*
X1440000Y2048326D01*
X1410843Y2059989D02*
X1405011Y2065820D01*
Y2077483D01*
X1410843Y2083314D01*
X1416674D01*
X1422506Y2077483D01*
Y2071652D01*
Y2077483D01*
X1428337Y2083314D01*
X1434169D01*
X1440000Y2077483D01*
Y2065820D01*
X1434169Y2059989D01*
X1440000Y2118303D02*
Y2094977D01*
X1416674Y2118303D01*
X1410843D01*
X1405011Y2112472D01*
Y2100809D01*
X1410843Y2094977D01*
X1570000Y2025000D02*
X1535011D01*
Y2042494D01*
X1540843Y2048326D01*
X1552506D01*
X1558337Y2042494D01*
Y2025000D01*
Y2036663D02*
X1570000Y2048326D01*
Y2059989D02*
Y2071652D01*
Y2065820D01*
X1535011D01*
X1540843Y2059989D01*
Y2089146D02*
X1535011Y2094977D01*
Y2106640D01*
X1540843Y2112472D01*
X1546674D01*
X1552506Y2106640D01*
X1558337Y2112472D01*
X1564169D01*
X1570000Y2106640D01*
Y2094977D01*
X1564169Y2089146D01*
X1558337D01*
X1552506Y2094977D01*
X1546674Y2089146D01*
X1540843D01*
X1552506Y2094977D02*
Y2106640D01*
X1655000Y2020000D02*
X1620011D01*
Y2037494D01*
X1625843Y2043326D01*
X1637506D01*
X1643337Y2037494D01*
Y2020000D01*
Y2031663D02*
X1655000Y2043326D01*
Y2078314D02*
Y2054989D01*
X1631674Y2078314D01*
X1625843D01*
X1620011Y2072483D01*
Y2060820D01*
X1625843Y2054989D01*
X1655000Y2113303D02*
Y2089977D01*
X1631674Y2113303D01*
X1625843D01*
X1620011Y2107472D01*
Y2095809D01*
X1625843Y2089977D01*
X1885000Y1975000D02*
X1850011D01*
Y1992494D01*
X1855843Y1998326D01*
X1867506D01*
X1873337Y1992494D01*
Y1975000D01*
Y1986663D02*
X1885000Y1998326D01*
Y2033314D02*
Y2009989D01*
X1861674Y2033314D01*
X1855843D01*
X1850011Y2027483D01*
Y2015820D01*
X1855843Y2009989D01*
X1850011Y2068303D02*
Y2044977D01*
X1867506D01*
X1861674Y2056640D01*
Y2062472D01*
X1867506Y2068303D01*
X1879169D01*
X1885000Y2062472D01*
Y2050809D01*
X1879169Y2044977D01*
X1950000Y1975000D02*
X1915011D01*
Y1992494D01*
X1920843Y1998326D01*
X1932506D01*
X1938337Y1992494D01*
Y1975000D01*
Y1986663D02*
X1950000Y1998326D01*
Y2033314D02*
Y2009989D01*
X1926674Y2033314D01*
X1920843D01*
X1915011Y2027483D01*
Y2015820D01*
X1920843Y2009989D01*
Y2044977D02*
X1915011Y2050809D01*
Y2062472D01*
X1920843Y2068303D01*
X1926674D01*
X1932506Y2062472D01*
X1938337Y2068303D01*
X1944169D01*
X1950000Y2062472D01*
Y2050809D01*
X1944169Y2044977D01*
X1938337D01*
X1932506Y2050809D01*
X1926674Y2044977D01*
X1920843D01*
X1932506Y2050809D02*
Y2062472D01*
X2500000Y1965000D02*
X2465011D01*
Y1982494D01*
X2470843Y1988326D01*
X2482506D01*
X2488337Y1982494D01*
Y1965000D01*
Y1976663D02*
X2500000Y1988326D01*
Y1999989D02*
Y2011652D01*
Y2005820D01*
X2465011D01*
X2470843Y1999989D01*
Y2029146D02*
X2465011Y2034977D01*
Y2046640D01*
X2470843Y2052472D01*
X2494169D01*
X2500000Y2046640D01*
Y2034977D01*
X2494169Y2029146D01*
X2470843D01*
X2595000Y1965000D02*
X2560011D01*
Y1982494D01*
X2565843Y1988326D01*
X2577506D01*
X2583337Y1982494D01*
Y1965000D01*
Y1976663D02*
X2595000Y1988326D01*
Y1999989D02*
Y2011652D01*
Y2005820D01*
X2560011D01*
X2565843Y1999989D01*
X2595000Y2052472D02*
Y2029146D01*
X2571674Y2052472D01*
X2565843D01*
X2560011Y2046640D01*
Y2034977D01*
X2565843Y2029146D01*
X2690000Y1970000D02*
X2655011D01*
Y1987494D01*
X2660843Y1993326D01*
X2672506D01*
X2678337Y1987494D01*
Y1970000D01*
Y1981663D02*
X2690000Y1993326D01*
Y2004989D02*
Y2016652D01*
Y2010820D01*
X2655011D01*
X2660843Y2004989D01*
Y2034146D02*
X2655011Y2039977D01*
Y2051640D01*
X2660843Y2057472D01*
X2666674D01*
X2672506Y2051640D01*
Y2045809D01*
Y2051640D01*
X2678337Y2057472D01*
X2684169D01*
X2690000Y2051640D01*
Y2039977D01*
X2684169Y2034146D01*
X2760000Y2020000D02*
Y2054989D01*
X2777494D01*
X2783326Y2049157D01*
Y2037494D01*
X2777494Y2031663D01*
X2760000D01*
X2771663D02*
X2783326Y2020000D01*
X2794989D02*
X2806652D01*
X2800820D01*
Y2054989D01*
X2794989Y2049157D01*
X2847472Y2054989D02*
X2824146D01*
Y2037494D01*
X2835809Y2043326D01*
X2841640D01*
X2847472Y2037494D01*
Y2025831D01*
X2841640Y2020000D01*
X2829977D01*
X2824146Y2025831D01*
X2870000Y2015000D02*
Y2049989D01*
X2887494D01*
X2893326Y2044157D01*
Y2032494D01*
X2887494Y2026663D01*
X2870000D01*
X2881663D02*
X2893326Y2015000D01*
X2904989D02*
X2916652D01*
X2910820D01*
Y2049989D01*
X2904989Y2044157D01*
X2957472Y2049989D02*
X2945809Y2044157D01*
X2934146Y2032494D01*
Y2020831D01*
X2939977Y2015000D01*
X2951640D01*
X2957472Y2020831D01*
Y2026663D01*
X2951640Y2032494D01*
X2934146D01*
X3030000Y1465000D02*
Y1499989D01*
X3047494D01*
X3053326Y1494157D01*
Y1482494D01*
X3047494Y1476663D01*
X3030000D01*
X3041663D02*
X3053326Y1465000D01*
X3088314D02*
X3064989D01*
X3088314Y1488326D01*
Y1494157D01*
X3082483Y1499989D01*
X3070820D01*
X3064989Y1494157D01*
X3117472Y1465000D02*
Y1499989D01*
X3099977Y1482494D01*
X3123303D01*
X2905000Y1465000D02*
Y1499989D01*
X2922494D01*
X2928326Y1494157D01*
Y1482494D01*
X2922494Y1476663D01*
X2905000D01*
X2916663D02*
X2928326Y1465000D01*
X2963314D02*
X2939989D01*
X2963314Y1488326D01*
Y1494157D01*
X2957483Y1499989D01*
X2945820D01*
X2939989Y1494157D01*
X2974977Y1499989D02*
X2998303D01*
Y1494157D01*
X2974977Y1470831D01*
Y1465000D01*
X2785000D02*
Y1499989D01*
X2802494D01*
X2808326Y1494157D01*
Y1482494D01*
X2802494Y1476663D01*
X2785000D01*
X2796663D02*
X2808326Y1465000D01*
X2819989D02*
X2831652D01*
X2825820D01*
Y1499989D01*
X2819989Y1494157D01*
X2849146Y1499989D02*
X2872472D01*
Y1494157D01*
X2849146Y1470831D01*
Y1465000D01*
X2680000D02*
Y1499989D01*
X2697494D01*
X2703326Y1494157D01*
Y1482494D01*
X2697494Y1476663D01*
X2680000D01*
X2691663D02*
X2703326Y1465000D01*
X2738314D02*
X2714989D01*
X2738314Y1488326D01*
Y1494157D01*
X2732483Y1499989D01*
X2720820D01*
X2714989Y1494157D01*
X2749977Y1465000D02*
X2761640D01*
X2755809D01*
Y1499989D01*
X2749977Y1494157D01*
X2598326D02*
X2592494Y1499989D01*
X2580831D01*
X2575000Y1494157D01*
Y1470831D01*
X2580831Y1465000D01*
X2592494D01*
X2598326Y1470831D01*
X2609989Y1465000D02*
X2621652D01*
X2615820D01*
Y1499989D01*
X2609989Y1494157D01*
X2662472Y1499989D02*
X2639146D01*
Y1482494D01*
X2650809Y1488326D01*
X2656640D01*
X2662472Y1482494D01*
Y1470831D01*
X2656640Y1465000D01*
X2644977D01*
X2639146Y1470831D01*
X2460000Y1465000D02*
Y1499989D01*
X2477494D01*
X2483326Y1494157D01*
Y1482494D01*
X2477494Y1476663D01*
X2460000D01*
X2471663D02*
X2483326Y1465000D01*
X2512483D02*
Y1499989D01*
X2494989Y1482494D01*
X2518314D01*
X2529977Y1470831D02*
X2535809Y1465000D01*
X2547472D01*
X2553303Y1470831D01*
Y1494157D01*
X2547472Y1499989D01*
X2535809D01*
X2529977Y1494157D01*
Y1488326D01*
X2535809Y1482494D01*
X2553303D01*
X2355000Y1465000D02*
Y1499989D01*
X2372494D01*
X2378326Y1494157D01*
Y1482494D01*
X2372494Y1476663D01*
X2355000D01*
X2366663D02*
X2378326Y1465000D01*
X2389989Y1494157D02*
X2395820Y1499989D01*
X2407483D01*
X2413314Y1494157D01*
Y1488326D01*
X2407483Y1482494D01*
X2401652D01*
X2407483D01*
X2413314Y1476663D01*
Y1470831D01*
X2407483Y1465000D01*
X2395820D01*
X2389989Y1470831D01*
X2424977Y1465000D02*
X2436640D01*
X2430809D01*
Y1499989D01*
X2424977Y1494157D01*
X2240000Y1465000D02*
Y1499989D01*
X2257494D01*
X2263326Y1494157D01*
Y1482494D01*
X2257494Y1476663D01*
X2240000D01*
X2251663D02*
X2263326Y1465000D01*
X2274989Y1494157D02*
X2280820Y1499989D01*
X2292483D01*
X2298314Y1494157D01*
Y1488326D01*
X2292483Y1482494D01*
X2286652D01*
X2292483D01*
X2298314Y1476663D01*
Y1470831D01*
X2292483Y1465000D01*
X2280820D01*
X2274989Y1470831D01*
X2309977Y1494157D02*
X2315809Y1499989D01*
X2327472D01*
X2333303Y1494157D01*
Y1488326D01*
X2327472Y1482494D01*
X2321640D01*
X2327472D01*
X2333303Y1476663D01*
Y1470831D01*
X2327472Y1465000D01*
X2315809D01*
X2309977Y1470831D01*
X2168326Y1359157D02*
X2162494Y1364989D01*
X2150831D01*
X2145000Y1359157D01*
Y1335831D01*
X2150831Y1330000D01*
X2162494D01*
X2168326Y1335831D01*
X2179989Y1330000D02*
X2191652D01*
X2185820D01*
Y1364989D01*
X2179989Y1359157D01*
X2209146D02*
X2214977Y1364989D01*
X2226640D01*
X2232472Y1359157D01*
Y1353326D01*
X2226640Y1347494D01*
X2220809D01*
X2226640D01*
X2232472Y1341663D01*
Y1335831D01*
X2226640Y1330000D01*
X2214977D01*
X2209146Y1335831D01*
X2200000Y1114989D02*
Y1085831D01*
X2205831Y1080000D01*
X2217494D01*
X2223326Y1085831D01*
Y1114989D01*
X2234989Y1109157D02*
X2240820Y1114989D01*
X2252483D01*
X2258314Y1109157D01*
Y1103326D01*
X2252483Y1097494D01*
X2258314Y1091663D01*
Y1085831D01*
X2252483Y1080000D01*
X2240820D01*
X2234989Y1085831D01*
Y1091663D01*
X2240820Y1097494D01*
X2234989Y1103326D01*
Y1109157D01*
X2240820Y1097494D02*
X2252483D01*
X1175000Y1119989D02*
Y1090831D01*
X1180831Y1085000D01*
X1192494D01*
X1198326Y1090831D01*
Y1119989D01*
X1233314D02*
X1209989D01*
Y1102494D01*
X1221652Y1108326D01*
X1227483D01*
X1233314Y1102494D01*
Y1090831D01*
X1227483Y1085000D01*
X1215820D01*
X1209989Y1090831D01*
X585000Y1460000D02*
Y1494989D01*
X602494D01*
X608326Y1489157D01*
Y1477494D01*
X602494Y1471663D01*
X585000D01*
X596663D02*
X608326Y1460000D01*
X643314D02*
X619989D01*
X643314Y1483326D01*
Y1489157D01*
X637483Y1494989D01*
X625820D01*
X619989Y1489157D01*
X654977Y1465831D02*
X660809Y1460000D01*
X672472D01*
X678303Y1465831D01*
Y1489157D01*
X672472Y1494989D01*
X660809D01*
X654977Y1489157D01*
Y1483326D01*
X660809Y1477494D01*
X678303D01*
X480000Y1465000D02*
Y1499989D01*
X497494D01*
X503326Y1494157D01*
Y1482494D01*
X497494Y1476663D01*
X480000D01*
X491663D02*
X503326Y1465000D01*
X538314D02*
X514989D01*
X538314Y1488326D01*
Y1494157D01*
X532483Y1499989D01*
X520820D01*
X514989Y1494157D01*
X573303Y1499989D02*
X561640Y1494157D01*
X549977Y1482494D01*
Y1470831D01*
X555809Y1465000D01*
X567472D01*
X573303Y1470831D01*
Y1476663D01*
X567472Y1482494D01*
X549977D01*
X408326Y1489157D02*
X402494Y1494989D01*
X390831D01*
X385000Y1489157D01*
Y1465831D01*
X390831Y1460000D01*
X402494D01*
X408326Y1465831D01*
X419989Y1460000D02*
X431652D01*
X425820D01*
Y1494989D01*
X419989Y1489157D01*
X449146Y1494989D02*
X472472D01*
Y1489157D01*
X449146Y1465831D01*
Y1460000D01*
X550000Y715000D02*
Y749989D01*
X567494D01*
X573326Y744157D01*
Y732494D01*
X567494Y726663D01*
X550000D01*
X561663D02*
X573326Y715000D01*
X608314Y749989D02*
X584989D01*
Y732494D01*
X596652Y738326D01*
X602483D01*
X608314Y732494D01*
Y720831D01*
X602483Y715000D01*
X590820D01*
X584989Y720831D01*
X643303Y715000D02*
X619977D01*
X643303Y738326D01*
Y744157D01*
X637472Y749989D01*
X625809D01*
X619977Y744157D01*
X198326Y894157D02*
X192494Y899989D01*
X180831D01*
X175000Y894157D01*
Y870831D01*
X180831Y865000D01*
X192494D01*
X198326Y870831D01*
X209989Y865000D02*
X221652D01*
X215820D01*
Y899989D01*
X209989Y894157D01*
X262472Y865000D02*
X239146D01*
X262472Y888326D01*
Y894157D01*
X256640Y899989D01*
X244977D01*
X239146Y894157D01*
X910000Y545000D02*
Y579989D01*
X927494D01*
X933326Y574157D01*
Y562494D01*
X927494Y556663D01*
X910000D01*
X921663D02*
X933326Y545000D01*
X968314Y579989D02*
X956652Y574157D01*
X944989Y562494D01*
Y550831D01*
X950820Y545000D01*
X962483D01*
X968314Y550831D01*
Y556663D01*
X962483Y562494D01*
X944989D01*
X1003303Y545000D02*
X979977D01*
X1003303Y568326D01*
Y574157D01*
X997472Y579989D01*
X985809D01*
X979977Y574157D01*
X915000Y440000D02*
Y474989D01*
X932494D01*
X938326Y469157D01*
Y457494D01*
X932494Y451663D01*
X915000D01*
X926663D02*
X938326Y440000D01*
X973314Y474989D02*
X961652Y469157D01*
X949989Y457494D01*
Y445831D01*
X955820Y440000D01*
X967483D01*
X973314Y445831D01*
Y451663D01*
X967483Y457494D01*
X949989D01*
X984977Y440000D02*
X996640D01*
X990809D01*
Y474989D01*
X984977Y469157D01*
X210000Y555000D02*
Y589989D01*
X227494D01*
X233326Y584157D01*
Y572494D01*
X227494Y566663D01*
X210000D01*
X221663D02*
X233326Y555000D01*
X244989Y589989D02*
X268315D01*
Y584157D01*
X244989Y560831D01*
Y555000D01*
X303303D02*
X279977D01*
X303303Y578326D01*
Y584157D01*
X297472Y589989D01*
X285809D01*
X279977Y584157D01*
X220000Y435000D02*
Y469989D01*
X237494D01*
X243326Y464157D01*
Y452494D01*
X237494Y446663D01*
X220000D01*
X231663D02*
X243326Y435000D01*
X254989Y469989D02*
X278315D01*
Y464157D01*
X254989Y440831D01*
Y435000D01*
X289977D02*
X301640D01*
X295809D01*
Y469989D01*
X289977Y464157D01*
X355000Y360000D02*
Y394989D01*
X372494D01*
X378326Y389157D01*
Y377494D01*
X372494Y371663D01*
X355000D01*
X366663D02*
X378326Y360000D01*
X389989Y394989D02*
X413315D01*
Y389157D01*
X389989Y365831D01*
Y360000D01*
X424977Y389157D02*
X430809Y394989D01*
X442472D01*
X448303Y389157D01*
Y365831D01*
X442472Y360000D01*
X430809D01*
X424977Y365831D01*
Y389157D01*
X760000Y360000D02*
Y394989D01*
X777494D01*
X783326Y389157D01*
Y377494D01*
X777494Y371663D01*
X760000D01*
X771663D02*
X783326Y360000D01*
X818314Y394989D02*
X806652Y389157D01*
X794989Y377494D01*
Y365831D01*
X800820Y360000D01*
X812483D01*
X818314Y365831D01*
Y371663D01*
X812483Y377494D01*
X794989D01*
X829977Y389157D02*
X835809Y394989D01*
X847472D01*
X853303Y389157D01*
Y365831D01*
X847472Y360000D01*
X835809D01*
X829977Y365831D01*
Y389157D01*
X915000Y335000D02*
Y369989D01*
X932494D01*
X938326Y364157D01*
Y352494D01*
X932494Y346663D01*
X915000D01*
X926663D02*
X938326Y335000D01*
X973314Y369989D02*
X949989D01*
Y352494D01*
X961652Y358326D01*
X967483D01*
X973314Y352494D01*
Y340831D01*
X967483Y335000D01*
X955820D01*
X949989Y340831D01*
X984977D02*
X990809Y335000D01*
X1002472D01*
X1008303Y340831D01*
Y364157D01*
X1002472Y369989D01*
X990809D01*
X984977Y364157D01*
Y358326D01*
X990809Y352494D01*
X1008303D01*
X840000Y115000D02*
Y149989D01*
X857494D01*
X863326Y144157D01*
Y132494D01*
X857494Y126663D01*
X840000D01*
X851663D02*
X863326Y115000D01*
X898314Y149989D02*
X874989D01*
Y132494D01*
X886652Y138326D01*
X892483D01*
X898314Y132494D01*
Y120831D01*
X892483Y115000D01*
X880820D01*
X874989Y120831D01*
X909977Y144157D02*
X915809Y149989D01*
X927472D01*
X933303Y144157D01*
Y138326D01*
X927472Y132494D01*
X933303Y126663D01*
Y120831D01*
X927472Y115000D01*
X915809D01*
X909977Y120831D01*
Y126663D01*
X915809Y132494D01*
X909977Y138326D01*
Y144157D01*
X915809Y132494D02*
X927472D01*
X200000Y340000D02*
Y374989D01*
X217494D01*
X223326Y369157D01*
Y357494D01*
X217494Y351663D01*
X200000D01*
X211663D02*
X223326Y340000D01*
X258315Y374989D02*
X246652Y369157D01*
X234989Y357494D01*
Y345831D01*
X240820Y340000D01*
X252483D01*
X258315Y345831D01*
Y351663D01*
X252483Y357494D01*
X234989D01*
X269977Y345831D02*
X275809Y340000D01*
X287472D01*
X293303Y345831D01*
Y369157D01*
X287472Y374989D01*
X275809D01*
X269977Y369157D01*
Y363326D01*
X275809Y357494D01*
X293303D01*
X225000Y110000D02*
Y144989D01*
X242494D01*
X248326Y139157D01*
Y127494D01*
X242494Y121663D01*
X225000D01*
X236663D02*
X248326Y110000D01*
X283315Y144989D02*
X271652Y139157D01*
X259989Y127494D01*
Y115831D01*
X265820Y110000D01*
X277483D01*
X283315Y115831D01*
Y121663D01*
X277483Y127494D01*
X259989D01*
X294977Y139157D02*
X300809Y144989D01*
X312472D01*
X318303Y139157D01*
Y133326D01*
X312472Y127494D01*
X318303Y121663D01*
Y115831D01*
X312472Y110000D01*
X300809D01*
X294977Y115831D01*
Y121663D01*
X300809Y127494D01*
X294977Y133326D01*
Y139157D01*
X300809Y127494D02*
X312472D01*
X1752278Y3004661D02*
X1746447Y3010492D01*
X1734784D01*
X1728953Y3004661D01*
Y2981335D01*
X1734784Y2975504D01*
X1746447D01*
X1752278Y2981335D01*
X1763941Y3004661D02*
X1769773Y3010492D01*
X1781436D01*
X1787267Y3004661D01*
Y2998830D01*
X1781436Y2992998D01*
X1775604D01*
X1781436D01*
X1787267Y2987167D01*
Y2981335D01*
X1781436Y2975504D01*
X1769773D01*
X1763941Y2981335D01*
X1235000Y1470000D02*
Y1504989D01*
X1252494D01*
X1258326Y1499157D01*
Y1487494D01*
X1252494Y1481663D01*
X1235000D01*
X1246663D02*
X1258326Y1470000D01*
X1269989Y1499157D02*
X1275820Y1504989D01*
X1287483D01*
X1293314Y1499157D01*
Y1493326D01*
X1287483Y1487494D01*
X1281652D01*
X1287483D01*
X1293314Y1481663D01*
Y1475831D01*
X1287483Y1470000D01*
X1275820D01*
X1269989Y1475831D01*
X1328303Y1504989D02*
X1304977D01*
Y1487494D01*
X1316640Y1493326D01*
X1322472D01*
X1328303Y1487494D01*
Y1475831D01*
X1322472Y1470000D01*
X1310809D01*
X1304977Y1475831D01*
X1378326Y1499157D02*
X1372494Y1504989D01*
X1360831D01*
X1355000Y1499157D01*
Y1475831D01*
X1360831Y1470000D01*
X1372494D01*
X1378326Y1475831D01*
X1389989Y1504989D02*
X1413314D01*
Y1499157D01*
X1389989Y1475831D01*
Y1470000D01*
X1570000D02*
Y1504989D01*
X1587494D01*
X1593326Y1499157D01*
Y1487494D01*
X1587494Y1481663D01*
X1570000D01*
X1581663D02*
X1593326Y1470000D01*
X1628314D02*
X1604989D01*
X1628314Y1493326D01*
Y1499157D01*
X1622483Y1504989D01*
X1610820D01*
X1604989Y1499157D01*
X1639977D02*
X1645809Y1504989D01*
X1657472D01*
X1663303Y1499157D01*
Y1493326D01*
X1657472Y1487494D01*
X1651640D01*
X1657472D01*
X1663303Y1481663D01*
Y1475831D01*
X1657472Y1470000D01*
X1645809D01*
X1639977Y1475831D01*
X1450000Y1470000D02*
Y1504989D01*
X1467494D01*
X1473326Y1499157D01*
Y1487494D01*
X1467494Y1481663D01*
X1450000D01*
X1461663D02*
X1473326Y1470000D01*
X1484989D02*
X1496652D01*
X1490820D01*
Y1504989D01*
X1484989Y1499157D01*
X1514146Y1475831D02*
X1519977Y1470000D01*
X1531640D01*
X1537472Y1475831D01*
Y1499157D01*
X1531640Y1504989D01*
X1519977D01*
X1514146Y1499157D01*
Y1493326D01*
X1519977Y1487494D01*
X1537472D01*
X270000Y1460000D02*
Y1494989D01*
X287494D01*
X293326Y1489157D01*
Y1477494D01*
X287494Y1471663D01*
X270000D01*
X281663D02*
X293326Y1460000D01*
X328315Y1494989D02*
X304989D01*
Y1477494D01*
X316652Y1483326D01*
X322483D01*
X328315Y1477494D01*
Y1465831D01*
X322483Y1460000D01*
X310820D01*
X304989Y1465831D01*
X339977Y1489157D02*
X345809Y1494989D01*
X357472D01*
X363303Y1489157D01*
Y1465831D01*
X357472Y1460000D01*
X345809D01*
X339977Y1465831D01*
Y1489157D01*
X2222278Y894661D02*
X2216447Y900492D01*
X2204784D01*
X2198953Y894661D01*
Y871335D01*
X2204784Y865504D01*
X2216447D01*
X2222278Y871335D01*
X2233941Y865504D02*
X2245604D01*
X2239773D01*
Y900492D01*
X2233941Y894661D01*
X2263099D02*
X2268930Y900492D01*
X2280593D01*
X2286424Y894661D01*
Y871335D01*
X2280593Y865504D01*
X2268930D01*
X2263099Y871335D01*
Y894661D01*
X1192278D02*
X1186447Y900492D01*
X1174784D01*
X1168953Y894661D01*
Y871335D01*
X1174784Y865504D01*
X1186447D01*
X1192278Y871335D01*
X1221436Y865504D02*
Y900492D01*
X1203941Y882998D01*
X1227267D01*
X180000Y1114989D02*
Y1085831D01*
X185831Y1080000D01*
X197494D01*
X203326Y1085831D01*
Y1114989D01*
X214989Y1085831D02*
X220820Y1080000D01*
X232483D01*
X238315Y1085831D01*
Y1109157D01*
X232483Y1114989D01*
X220820D01*
X214989Y1109157D01*
Y1103326D01*
X220820Y1097494D01*
X238315D01*
X1596953Y3586504D02*
Y3621492D01*
X1614447D01*
X1620278Y3615661D01*
Y3603998D01*
X1614447Y3598167D01*
X1596953D01*
X1631941Y3615661D02*
X1637773Y3621492D01*
X1649436D01*
X1655267Y3615661D01*
Y3609830D01*
X1649436Y3603998D01*
X1643604D01*
X1649436D01*
X1655267Y3598167D01*
Y3592335D01*
X1649436Y3586504D01*
X1637773D01*
X1631941Y3592335D01*
X1596953Y3216504D02*
Y3251492D01*
X1614447D01*
X1620278Y3245661D01*
Y3233998D01*
X1614447Y3228167D01*
X1596953D01*
X1655267Y3216504D02*
X1631941D01*
X1655267Y3239830D01*
Y3245661D01*
X1649436Y3251492D01*
X1637773D01*
X1631941Y3245661D01*
X1369953Y3076504D02*
Y3111492D01*
X1387447D01*
X1393278Y3105661D01*
Y3093998D01*
X1387447Y3088167D01*
X1369953D01*
X1381616D02*
X1393278Y3076504D01*
X1404941Y3105661D02*
X1410773Y3111492D01*
X1422436D01*
X1428267Y3105661D01*
Y3099830D01*
X1422436Y3093998D01*
X1416604D01*
X1422436D01*
X1428267Y3088167D01*
Y3082335D01*
X1422436Y3076504D01*
X1410773D01*
X1404941Y3082335D01*
X1004953Y3076504D02*
Y3111492D01*
X1022447D01*
X1028278Y3105661D01*
Y3093998D01*
X1022447Y3088167D01*
X1004953D01*
X1016616D02*
X1028278Y3076504D01*
X1063267D02*
X1039941D01*
X1063267Y3099830D01*
Y3105661D01*
X1057436Y3111492D01*
X1045773D01*
X1039941Y3105661D01*
X187279Y1364661D02*
X181447Y1370493D01*
X169784D01*
X163953Y1364661D01*
Y1341335D01*
X169784Y1335504D01*
X181447D01*
X187279Y1341335D01*
X198941Y1335504D02*
X210604D01*
X204773D01*
Y1370493D01*
X198941Y1364661D01*
X228099D02*
X233930Y1370493D01*
X245593D01*
X251424Y1364661D01*
Y1358830D01*
X245593Y1352998D01*
X251424Y1347167D01*
Y1341335D01*
X245593Y1335504D01*
X233930D01*
X228099Y1341335D01*
Y1347167D01*
X233930Y1352998D01*
X228099Y1358830D01*
Y1364661D01*
X233930Y1352998D02*
X245593D01*
X2355000Y635000D02*
Y669989D01*
X2372494D01*
X2378326Y664157D01*
Y652494D01*
X2372494Y646663D01*
X2355000D01*
X2366663D02*
X2378326Y635000D01*
X2413314Y669989D02*
X2401652Y664157D01*
X2389989Y652494D01*
Y640831D01*
X2395820Y635000D01*
X2407483D01*
X2413314Y640831D01*
Y646663D01*
X2407483Y652494D01*
X2389989D01*
X2424977Y669989D02*
X2448303D01*
Y664157D01*
X2424977Y640831D01*
Y635000D01*
X2350000Y490000D02*
Y524989D01*
X2367494D01*
X2373326Y519157D01*
Y507494D01*
X2367494Y501663D01*
X2350000D01*
X2361663D02*
X2373326Y490000D01*
X2408314Y524989D02*
X2396652Y519157D01*
X2384989Y507494D01*
Y495831D01*
X2390820Y490000D01*
X2402483D01*
X2408314Y495831D01*
Y501663D01*
X2402483Y507494D01*
X2384989D01*
X2443303Y524989D02*
X2431640Y519157D01*
X2419977Y507494D01*
Y495831D01*
X2425809Y490000D01*
X2437472D01*
X2443303Y495831D01*
Y501663D01*
X2437472Y507494D01*
X2419977D01*
X2345000Y360000D02*
Y394989D01*
X2362494D01*
X2368326Y389157D01*
Y377494D01*
X2362494Y371663D01*
X2345000D01*
X2356663D02*
X2368326Y360000D01*
X2403314Y394989D02*
X2391652Y389157D01*
X2379989Y377494D01*
Y365831D01*
X2385820Y360000D01*
X2397483D01*
X2403314Y365831D01*
Y371663D01*
X2397483Y377494D01*
X2379989D01*
X2438303Y394989D02*
X2414977D01*
Y377494D01*
X2426640Y383326D01*
X2432472D01*
X2438303Y377494D01*
Y365831D01*
X2432472Y360000D01*
X2420809D01*
X2414977Y365831D01*
X2210000Y340000D02*
Y374989D01*
X2227494D01*
X2233326Y369157D01*
Y357494D01*
X2227494Y351663D01*
X2210000D01*
X2221663D02*
X2233326Y340000D01*
X2268314Y374989D02*
X2256652Y369157D01*
X2244989Y357494D01*
Y345831D01*
X2250820Y340000D01*
X2262483D01*
X2268314Y345831D01*
Y351663D01*
X2262483Y357494D01*
X2244989D01*
X2297472Y340000D02*
Y374989D01*
X2279977Y357494D01*
X2303303D01*
X2300000Y120000D02*
Y154989D01*
X2317494D01*
X2323326Y149157D01*
Y137494D01*
X2317494Y131663D01*
X2300000D01*
X2311663D02*
X2323326Y120000D01*
X2358314Y154989D02*
X2346652Y149157D01*
X2334989Y137494D01*
Y125831D01*
X2340820Y120000D01*
X2352483D01*
X2358314Y125831D01*
Y131663D01*
X2352483Y137494D01*
X2334989D01*
X2369977Y149157D02*
X2375809Y154989D01*
X2387472D01*
X2393303Y149157D01*
Y143326D01*
X2387472Y137494D01*
X2381640D01*
X2387472D01*
X2393303Y131663D01*
Y125831D01*
X2387472Y120000D01*
X2375809D01*
X2369977Y125831D01*
X2755000Y635000D02*
Y669989D01*
X2772494D01*
X2778326Y664157D01*
Y652494D01*
X2772494Y646663D01*
X2755000D01*
X2766663D02*
X2778326Y635000D01*
X2813314Y669989D02*
X2789989D01*
Y652494D01*
X2801652Y658326D01*
X2807483D01*
X2813314Y652494D01*
Y640831D01*
X2807483Y635000D01*
X2795820D01*
X2789989Y640831D01*
X2824977Y669989D02*
X2848303D01*
Y664157D01*
X2824977Y640831D01*
Y635000D01*
X2785000Y495000D02*
Y529989D01*
X2802494D01*
X2808326Y524157D01*
Y512494D01*
X2802494Y506663D01*
X2785000D01*
X2796663D02*
X2808326Y495000D01*
X2843314Y529989D02*
X2819989D01*
Y512494D01*
X2831652Y518326D01*
X2837483D01*
X2843314Y512494D01*
Y500831D01*
X2837483Y495000D01*
X2825820D01*
X2819989Y500831D01*
X2878303Y529989D02*
X2866640Y524157D01*
X2854977Y512494D01*
Y500831D01*
X2860809Y495000D01*
X2872472D01*
X2878303Y500831D01*
Y506663D01*
X2872472Y512494D01*
X2854977D01*
X2780000Y360000D02*
Y394989D01*
X2797494D01*
X2803326Y389157D01*
Y377494D01*
X2797494Y371663D01*
X2780000D01*
X2791663D02*
X2803326Y360000D01*
X2838314Y394989D02*
X2814989D01*
Y377494D01*
X2826652Y383326D01*
X2832483D01*
X2838314Y377494D01*
Y365831D01*
X2832483Y360000D01*
X2820820D01*
X2814989Y365831D01*
X2873303Y394989D02*
X2849977D01*
Y377494D01*
X2861640Y383326D01*
X2867472D01*
X2873303Y377494D01*
Y365831D01*
X2867472Y360000D01*
X2855809D01*
X2849977Y365831D01*
X2920000Y330000D02*
Y364989D01*
X2937494D01*
X2943326Y359157D01*
Y347494D01*
X2937494Y341663D01*
X2920000D01*
X2931663D02*
X2943326Y330000D01*
X2978314Y364989D02*
X2954989D01*
Y347494D01*
X2966652Y353326D01*
X2972483D01*
X2978314Y347494D01*
Y335831D01*
X2972483Y330000D01*
X2960820D01*
X2954989Y335831D01*
X3007472Y330000D02*
Y364989D01*
X2989977Y347494D01*
X3013303D01*
X2800000Y135000D02*
Y169989D01*
X2817494D01*
X2823326Y164157D01*
Y152494D01*
X2817494Y146663D01*
X2800000D01*
X2811663D02*
X2823326Y135000D01*
X2858314Y169989D02*
X2834989D01*
Y152494D01*
X2846652Y158326D01*
X2852483D01*
X2858314Y152494D01*
Y140831D01*
X2852483Y135000D01*
X2840820D01*
X2834989Y140831D01*
X2869977Y164157D02*
X2875809Y169989D01*
X2887472D01*
X2893303Y164157D01*
Y158326D01*
X2887472Y152494D01*
X2881640D01*
X2887472D01*
X2893303Y146663D01*
Y140831D01*
X2887472Y135000D01*
X2875809D01*
X2869977Y140831D01*
X2550000Y715000D02*
Y749989D01*
X2567494D01*
X2573326Y744157D01*
Y732494D01*
X2567494Y726663D01*
X2550000D01*
X2561663D02*
X2573326Y715000D01*
X2608314Y749989D02*
X2584989D01*
Y732494D01*
X2596652Y738326D01*
X2602483D01*
X2608314Y732494D01*
Y720831D01*
X2602483Y715000D01*
X2590820D01*
X2584989Y720831D01*
X2619977Y715000D02*
X2631640D01*
X2625809D01*
Y749989D01*
X2619977Y744157D01*
X2583326Y519157D02*
X2577494Y524989D01*
X2565831D01*
X2560000Y519157D01*
Y495831D01*
X2565831Y490000D01*
X2577494D01*
X2583326Y495831D01*
X2594989Y490000D02*
X2606652D01*
X2600820D01*
Y524989D01*
X2594989Y519157D01*
X2641640Y490000D02*
Y524989D01*
X2624146Y507494D01*
X2647472D01*
X2858326Y929157D02*
X2852494Y934989D01*
X2840831D01*
X2835000Y929157D01*
Y905831D01*
X2840831Y900000D01*
X2852494D01*
X2858326Y905831D01*
X2869989D02*
X2875820Y900000D01*
X2887483D01*
X2893314Y905831D01*
Y929157D01*
X2887483Y934989D01*
X2875820D01*
X2869989Y929157D01*
Y923326D01*
X2875820Y917494D01*
X2893314D01*
X832279Y959661D02*
X826447Y965492D01*
X814784D01*
X808953Y959661D01*
Y936335D01*
X814784Y930504D01*
X826447D01*
X832279Y936335D01*
X843941Y930504D02*
X855604D01*
X849773D01*
Y965492D01*
X843941Y959661D01*
X873099Y930504D02*
X884761D01*
X878930D01*
Y965492D01*
X873099Y959661D01*
X583326Y504157D02*
X577494Y509989D01*
X565831D01*
X560000Y504157D01*
Y480831D01*
X565831Y475000D01*
X577494D01*
X583326Y480831D01*
X594989Y475000D02*
X606652D01*
X600820D01*
Y509989D01*
X594989Y504157D01*
X647472Y509989D02*
X635809Y504157D01*
X624146Y492494D01*
Y480831D01*
X629977Y475000D01*
X641640D01*
X647472Y480831D01*
Y486663D01*
X641640Y492494D01*
X624146D01*
X1177278Y1364661D02*
X1171447Y1370493D01*
X1159784D01*
X1153953Y1364661D01*
Y1341335D01*
X1159784Y1335504D01*
X1171447D01*
X1177278Y1341335D01*
X1188941Y1364661D02*
X1194773Y1370493D01*
X1206436D01*
X1212267Y1364661D01*
Y1358830D01*
X1206436Y1352998D01*
X1212267Y1347167D01*
Y1341335D01*
X1206436Y1335504D01*
X1194773D01*
X1188941Y1341335D01*
Y1347167D01*
X1194773Y1352998D01*
X1188941Y1358830D01*
Y1364661D01*
X1194773Y1352998D02*
X1206436D01*
X1587696Y529157D02*
X1581864Y534989D01*
X1570201D01*
X1564370Y529157D01*
Y505831D01*
X1570201Y500000D01*
X1581864D01*
X1587696Y505831D01*
X1622685Y534989D02*
X1611022Y529157D01*
X1599359Y517494D01*
Y505831D01*
X1605190Y500000D01*
X1616853D01*
X1622685Y505831D01*
Y511663D01*
X1616853Y517494D01*
X1599359D01*
X1831278Y959661D02*
X1825447Y965492D01*
X1813784D01*
X1807953Y959661D01*
Y936335D01*
X1813784Y930504D01*
X1825447D01*
X1831278Y936335D01*
X1866267Y965492D02*
X1842941D01*
Y947998D01*
X1854604Y953830D01*
X1860436D01*
X1866267Y947998D01*
Y936335D01*
X1860436Y930504D01*
X1848773D01*
X1842941Y936335D01*
X1289370Y130000D02*
Y164989D01*
X1306864D01*
X1312696Y159157D01*
Y147494D01*
X1306864Y141663D01*
X1289370D01*
X1301033D02*
X1312696Y130000D01*
X1341853D02*
Y164989D01*
X1324359Y147494D01*
X1347685D01*
X1359347Y159157D02*
X1365179Y164989D01*
X1376842D01*
X1382673Y159157D01*
Y153326D01*
X1376842Y147494D01*
X1371010D01*
X1376842D01*
X1382673Y141663D01*
Y135831D01*
X1376842Y130000D01*
X1365179D01*
X1359347Y135831D01*
X1209370Y335000D02*
Y369989D01*
X1226864D01*
X1232696Y364157D01*
Y352494D01*
X1226864Y346663D01*
X1209370D01*
X1221033D02*
X1232696Y335000D01*
X1261853D02*
Y369989D01*
X1244359Y352494D01*
X1267685D01*
X1296842Y335000D02*
Y369989D01*
X1279347Y352494D01*
X1302673D01*
X1344370Y365000D02*
Y399989D01*
X1361864D01*
X1367696Y394157D01*
Y382494D01*
X1361864Y376663D01*
X1344370D01*
X1356033D02*
X1367696Y365000D01*
X1396853D02*
Y399989D01*
X1379359Y382494D01*
X1402685D01*
X1437673Y399989D02*
X1414347D01*
Y382494D01*
X1426010Y388326D01*
X1431842D01*
X1437673Y382494D01*
Y370831D01*
X1431842Y365000D01*
X1420179D01*
X1414347Y370831D01*
X1339370Y495000D02*
Y529989D01*
X1356864D01*
X1362696Y524157D01*
Y512494D01*
X1356864Y506663D01*
X1339370D01*
X1351033D02*
X1362696Y495000D01*
X1391853D02*
Y529989D01*
X1374359Y512494D01*
X1397685D01*
X1432673Y529989D02*
X1421010Y524157D01*
X1409347Y512494D01*
Y500831D01*
X1415179Y495000D01*
X1426842D01*
X1432673Y500831D01*
Y506663D01*
X1426842Y512494D01*
X1409347D01*
X1344370Y640000D02*
Y674989D01*
X1361864D01*
X1367696Y669157D01*
Y657494D01*
X1361864Y651663D01*
X1344370D01*
X1356033D02*
X1367696Y640000D01*
X1396853D02*
Y674989D01*
X1379359Y657494D01*
X1402685D01*
X1414347Y674989D02*
X1437673D01*
Y669157D01*
X1414347Y645831D01*
Y640000D01*
X1824370Y125000D02*
Y159989D01*
X1841864D01*
X1847696Y154157D01*
Y142494D01*
X1841864Y136663D01*
X1824370D01*
X1836033D02*
X1847696Y125000D01*
X1859359Y154157D02*
X1865190Y159989D01*
X1876853D01*
X1882685Y154157D01*
Y148326D01*
X1876853Y142494D01*
X1871022D01*
X1876853D01*
X1882685Y136663D01*
Y130831D01*
X1876853Y125000D01*
X1865190D01*
X1859359Y130831D01*
X1894347Y159989D02*
X1917673D01*
Y154157D01*
X1894347Y130831D01*
Y125000D01*
X1885953Y346504D02*
Y381493D01*
X1903447D01*
X1909278Y375661D01*
Y363998D01*
X1903447Y358167D01*
X1885953D01*
X1897616D02*
X1909278Y346504D01*
X1920941Y375661D02*
X1926773Y381493D01*
X1938436D01*
X1944267Y375661D01*
Y369830D01*
X1938436Y363998D01*
X1932604D01*
X1938436D01*
X1944267Y358167D01*
Y352335D01*
X1938436Y346504D01*
X1926773D01*
X1920941Y352335D01*
X1955930Y375661D02*
X1961762Y381493D01*
X1973424D01*
X1979256Y375661D01*
Y369830D01*
X1973424Y363998D01*
X1979256Y358167D01*
Y352335D01*
X1973424Y346504D01*
X1961762D01*
X1955930Y352335D01*
Y358167D01*
X1961762Y363998D01*
X1955930Y369830D01*
Y375661D01*
X1961762Y363998D02*
X1973424D01*
X1714370Y635000D02*
Y669989D01*
X1731864D01*
X1737696Y664157D01*
Y652494D01*
X1731864Y646663D01*
X1714370D01*
X1726033D02*
X1737696Y635000D01*
X1766853D02*
Y669989D01*
X1749359Y652494D01*
X1772685D01*
X1784347Y635000D02*
X1796010D01*
X1790179D01*
Y669989D01*
X1784347Y664157D01*
X1714370Y500000D02*
Y534989D01*
X1731864D01*
X1737696Y529157D01*
Y517494D01*
X1731864Y511663D01*
X1714370D01*
X1726033D02*
X1737696Y500000D01*
X1766853D02*
Y534989D01*
X1749359Y517494D01*
X1772685D01*
X1784347Y529157D02*
X1790179Y534989D01*
X1801842D01*
X1807673Y529157D01*
Y505831D01*
X1801842Y500000D01*
X1790179D01*
X1784347Y505831D01*
Y529157D01*
X1714370Y365000D02*
Y399989D01*
X1731864D01*
X1737696Y394157D01*
Y382494D01*
X1731864Y376663D01*
X1714370D01*
X1726033D02*
X1737696Y365000D01*
X1749359Y394157D02*
X1755190Y399989D01*
X1766853D01*
X1772685Y394157D01*
Y388326D01*
X1766853Y382494D01*
X1761022D01*
X1766853D01*
X1772685Y376663D01*
Y370831D01*
X1766853Y365000D01*
X1755190D01*
X1749359Y370831D01*
X1784347D02*
X1790179Y365000D01*
X1801842D01*
X1807673Y370831D01*
Y394157D01*
X1801842Y399989D01*
X1790179D01*
X1784347Y394157D01*
Y388326D01*
X1790179Y382494D01*
X1807673D01*
X1534370Y735000D02*
Y769989D01*
X1551864D01*
X1557696Y764157D01*
Y752494D01*
X1551864Y746663D01*
X1534370D01*
X1546033D02*
X1557696Y735000D01*
X1569359Y764157D02*
X1575190Y769989D01*
X1586853D01*
X1592685Y764157D01*
Y758326D01*
X1586853Y752494D01*
X1581022D01*
X1586853D01*
X1592685Y746663D01*
Y740831D01*
X1586853Y735000D01*
X1575190D01*
X1569359Y740831D01*
X1627673Y769989D02*
X1616010Y764157D01*
X1604347Y752494D01*
Y740831D01*
X1610179Y735000D01*
X1621842D01*
X1627673Y740831D01*
Y746663D01*
X1621842Y752494D01*
X1604347D01*
X2559953Y3176504D02*
Y3211492D01*
X2577447D01*
X2583278Y3205661D01*
Y3193998D01*
X2577447Y3188167D01*
X2559953D01*
X2571616D02*
X2583278Y3176504D01*
X2618267Y3211492D02*
X2606604Y3205661D01*
X2594941Y3193998D01*
Y3182335D01*
X2600773Y3176504D01*
X2612436D01*
X2618267Y3182335D01*
Y3188167D01*
X2612436Y3193998D01*
X2594941D01*
X909953Y3076504D02*
Y3111492D01*
X927447D01*
X933279Y3105661D01*
Y3093998D01*
X927447Y3088167D01*
X909953D01*
X921616D02*
X933279Y3076504D01*
X944941Y3111492D02*
X968267D01*
Y3105661D01*
X944941Y3082335D01*
Y3076504D01*
X1469953D02*
Y3111492D01*
X1487447D01*
X1493278Y3105661D01*
Y3093998D01*
X1487447Y3088167D01*
X1469953D01*
X1481616D02*
X1493278Y3076504D01*
X1504941Y3105661D02*
X1510773Y3111492D01*
X1522436D01*
X1528267Y3105661D01*
Y3099830D01*
X1522436Y3093998D01*
X1528267Y3088167D01*
Y3082335D01*
X1522436Y3076504D01*
X1510773D01*
X1504941Y3082335D01*
Y3088167D01*
X1510773Y3093998D01*
X1504941Y3099830D01*
Y3105661D01*
X1510773Y3093998D02*
X1522436D01*
X429953Y3076504D02*
Y3111492D01*
X447447D01*
X453279Y3105661D01*
Y3093998D01*
X447447Y3088167D01*
X429953D01*
X441616D02*
X453279Y3076504D01*
X464941D02*
X476604D01*
X470773D01*
Y3111492D01*
X464941Y3105661D01*
X494099Y3076504D02*
X505762D01*
X499930D01*
Y3111492D01*
X494099Y3105661D01*
D43*
X3440000Y-10D02*
X3459994D01*
X3449997D01*
Y-30000D01*
X3484985Y-10D02*
X3474989D01*
X3469990Y-5008D01*
Y-25002D01*
X3474989Y-30000D01*
X3484985D01*
X3489984Y-25002D01*
Y-5008D01*
X3484985Y-10D01*
X3499981Y-30000D02*
Y-10D01*
X3514976D01*
X3519974Y-5008D01*
Y-15005D01*
X3514976Y-20003D01*
X3499981D01*
D63*
X558189Y2808858D02*
G03*
X558189Y2808858I-11811J0D01*
G01*
X1038189D02*
G03*
X1038189Y2808858I-11811J0D01*
G01*
X1500906Y2813858D02*
G03*
X1500906Y2813858I-11811J0D01*
G01*
D64*
X467638Y2858465D02*
G03*
X467638Y2858465I-4921J0D01*
G01*
X947638D02*
G03*
X947638Y2858465I-4921J0D01*
G01*
X1410354Y2863465D02*
G03*
X1410354Y2863465I-4921J0D01*
G01*
D65*
X2645039Y2992638D02*
X2724961D01*
Y3147362D01*
X2645039D02*
X2724961D01*
X2645039Y2992638D02*
Y3147362D01*
X2435039Y2992638D02*
X2514961D01*
Y3147362D01*
X2435039D02*
X2514961D01*
X2435039Y2992638D02*
Y3147362D01*
X1254500Y2789050D02*
X1335500D01*
Y2940950D01*
X1254500Y2789050D02*
Y2940950D01*
X1335500D01*
X779500Y2789050D02*
X860500D01*
Y2940950D01*
X779500Y2789050D02*
Y2940950D01*
X860500D01*
X525039Y2892638D02*
Y3047362D01*
X604961D01*
Y2892638D02*
Y3047362D01*
X525039Y2892638D02*
X604961D01*
X1590039Y2417362D02*
X1669961D01*
X1590039Y2262638D02*
Y2417362D01*
Y2262638D02*
X1669961D01*
Y2417362D01*
X1500039D02*
X1579961D01*
X1500039Y2262638D02*
Y2417362D01*
Y2262638D02*
X1579961D01*
Y2417362D01*
X1120039D02*
X1199961D01*
X1120039Y2262638D02*
Y2417362D01*
Y2262638D02*
X1199961D01*
Y2417362D01*
X1030039D02*
X1109961D01*
X1030039Y2262638D02*
Y2417362D01*
Y2262638D02*
X1109961D01*
Y2417362D01*
X645039D02*
X724961D01*
X645039Y2262638D02*
Y2417362D01*
Y2262638D02*
X724961D01*
Y2417362D01*
X555039D02*
X634961D01*
X555039Y2262638D02*
Y2417362D01*
Y2262638D02*
X634961D01*
Y2417362D01*
X1330039Y1792638D02*
X1409961D01*
Y1947362D01*
X1330039D02*
X1409961D01*
X1330039Y1792638D02*
Y1947362D01*
X1425039D02*
X1504961D01*
X1425039Y1792638D02*
Y1947362D01*
Y1792638D02*
X1504961D01*
Y1947362D01*
X1535039Y1797638D02*
X1614961D01*
Y1952362D01*
X1535039D02*
X1614961D01*
X1535039Y1797638D02*
Y1952362D01*
X1625039D02*
X1704961D01*
X1625039Y1797638D02*
Y1952362D01*
Y1797638D02*
X1704961D01*
Y1952362D01*
X1775039Y1787638D02*
X1854961D01*
Y1942362D01*
X1775039D02*
X1854961D01*
X1775039Y1787638D02*
Y1942362D01*
X1865039D02*
X1944961D01*
X1865039Y1787638D02*
Y1942362D01*
Y1787638D02*
X1944961D01*
Y1942362D01*
X2445039Y1787638D02*
X2524961D01*
Y1942362D01*
X2445039D02*
X2524961D01*
X2445039Y1787638D02*
Y1942362D01*
X2535039D02*
X2614961D01*
X2535039Y1787638D02*
Y1942362D01*
Y1787638D02*
X2614961D01*
Y1942362D01*
X2625039Y1787008D02*
X2704961D01*
Y1941732D01*
X2625039D02*
X2704961D01*
X2625039Y1787008D02*
Y1941732D01*
X2765039Y1787638D02*
X2844961D01*
Y1942362D01*
X2765039D02*
X2844961D01*
X2765039Y1787638D02*
Y1942362D01*
X2855039Y1787638D02*
X2934961D01*
Y1942362D01*
X2855039D02*
X2934961D01*
X2855039Y1787638D02*
Y1942362D01*
X3099961Y1287638D02*
Y1442362D01*
X3020039Y1287638D02*
X3099961D01*
X3020039D02*
Y1442362D01*
X3099961D01*
X2925039Y1287638D02*
Y1442362D01*
X3004961D01*
Y1287638D02*
Y1442362D01*
X2925039Y1287638D02*
X3004961D01*
X2849961D02*
Y1442362D01*
X2770039Y1287638D02*
X2849961D01*
X2770039D02*
Y1442362D01*
X2849961D01*
X2670039Y1287638D02*
Y1442362D01*
X2749961D01*
Y1287638D02*
Y1442362D01*
X2670039Y1287638D02*
X2749961D01*
X2569500Y1439538D02*
X2650500D01*
X2569500Y1287638D02*
Y1439538D01*
X2650500Y1287638D02*
Y1439538D01*
X2569500Y1287638D02*
X2650500D01*
X2469680D02*
Y1442362D01*
X2549601D01*
Y1287638D02*
Y1442362D01*
X2469680Y1287638D02*
X2549601D01*
X2369860D02*
Y1442362D01*
X2449781D01*
Y1287638D02*
Y1442362D01*
X2369860Y1287638D02*
X2449781D01*
X2349961D02*
Y1442362D01*
X2270039Y1287638D02*
X2349961D01*
X2270039D02*
Y1442362D01*
X2349961D01*
X2154500Y1154050D02*
X2235500D01*
Y1305950D01*
X2154500Y1154050D02*
Y1305950D01*
X2235500D01*
X654960Y1287638D02*
Y1442362D01*
X575039Y1287638D02*
X654960D01*
X575039D02*
Y1442362D01*
X654960D01*
X478373Y1287638D02*
Y1442362D01*
X558294D01*
Y1287638D02*
Y1442362D01*
X478373Y1287638D02*
X558294D01*
X381706Y1442362D02*
X462706D01*
X381706Y1290462D02*
Y1442362D01*
X462706Y1290462D02*
Y1442362D01*
X381706Y1290462D02*
X462706D01*
X522638Y610039D02*
X677362D01*
X522638D02*
Y689961D01*
X677362D01*
Y610039D02*
Y689961D01*
X184500Y684050D02*
X265500D01*
Y835950D01*
X184500Y684050D02*
Y835950D01*
X265500D01*
X732638Y526106D02*
X887362D01*
X732638D02*
Y606028D01*
X887362D01*
Y526106D02*
Y606028D01*
X732638Y488894D02*
X887362D01*
Y408973D02*
Y488894D01*
X732638Y408973D02*
X887362D01*
X732638D02*
Y488894D01*
X317638Y606028D02*
X472362D01*
Y526106D02*
Y606028D01*
X317638Y526106D02*
X472362D01*
X317638D02*
Y606028D01*
Y408973D02*
X472362D01*
X317638D02*
Y488894D01*
X472362D01*
Y408973D02*
Y488894D01*
X317638Y344961D02*
X472362D01*
Y265039D02*
Y344961D01*
X317638Y265039D02*
X472362D01*
X317638D02*
Y344961D01*
X732638Y265039D02*
X887362D01*
X732638D02*
Y344961D01*
X887362D01*
Y265039D02*
Y344961D01*
X909902Y157638D02*
Y312362D01*
X989823D01*
Y157638D02*
Y312362D01*
X909902Y157638D02*
X989823D01*
X835098Y99961D02*
X989823D01*
Y20039D02*
Y99961D01*
X835098Y20039D02*
X989823D01*
X835098D02*
Y99961D01*
X217500Y157638D02*
Y312362D01*
X297421D01*
Y157638D02*
Y312362D01*
X217500Y157638D02*
X297421D01*
X217500Y20039D02*
X372224D01*
X217500D02*
Y99961D01*
X372224D01*
Y20039D02*
Y99961D01*
X1724500Y2794050D02*
X1805500D01*
Y2945950D01*
X1724500Y2794050D02*
Y2945950D01*
X1805500D01*
X1255039Y1287638D02*
Y1442362D01*
X1334961D01*
Y1287638D02*
Y1442362D01*
X1255039Y1287638D02*
X1334961D01*
X1351706Y1439538D02*
X1432706D01*
X1351706Y1287638D02*
Y1439538D01*
X1432706Y1287638D02*
Y1439538D01*
X1351706Y1287638D02*
X1432706D01*
X1624960D02*
Y1442362D01*
X1545039Y1287638D02*
X1624960D01*
X1545039D02*
Y1442362D01*
X1624960D01*
X1448373Y1287638D02*
Y1442362D01*
X1528294D01*
Y1287638D02*
Y1442362D01*
X1448373Y1287638D02*
X1528294D01*
X285039D02*
Y1442362D01*
X364961D01*
Y1287638D02*
Y1442362D01*
X285039Y1287638D02*
X364961D01*
X2194500Y684050D02*
X2275500D01*
Y835950D01*
X2194500Y684050D02*
Y835950D01*
X2275500D01*
X1164500Y684050D02*
X1245500D01*
Y835950D01*
X1164500Y684050D02*
Y835950D01*
X1245500D01*
X1365039Y2892638D02*
Y3047362D01*
X1444961D01*
Y2892638D02*
Y3047362D01*
X1365039Y2892638D02*
X1444961D01*
X1000039D02*
Y3047362D01*
X1079961D01*
Y2892638D02*
Y3047362D01*
X1000039Y2892638D02*
X1079961D01*
X159500Y1154050D02*
X240500D01*
Y1305950D01*
X159500Y1154050D02*
Y1305950D01*
X240500D01*
X2312638Y614961D02*
X2467362D01*
Y535039D02*
Y614961D01*
X2312638Y535039D02*
X2467362D01*
X2312638D02*
Y614961D01*
Y400039D02*
X2467362D01*
X2312638D02*
Y479961D01*
X2467362D01*
Y400039D02*
Y479961D01*
X2312638Y344961D02*
X2467362D01*
Y265039D02*
Y344961D01*
X2312638Y265039D02*
X2467362D01*
X2312638D02*
Y344961D01*
X2215039Y157638D02*
Y312362D01*
X2294961D01*
Y157638D02*
Y312362D01*
X2215039Y157638D02*
X2294961D01*
X2215039Y20039D02*
X2369764D01*
X2215039D02*
Y99961D01*
X2369764D01*
Y20039D02*
Y99961D01*
X2742638Y535039D02*
X2897362D01*
X2742638D02*
Y614961D01*
X2897362D01*
Y535039D02*
Y614961D01*
X2742638Y479961D02*
X2897362D01*
Y400039D02*
Y479961D01*
X2742638Y400039D02*
X2897362D01*
X2742638D02*
Y479961D01*
Y265039D02*
X2897362D01*
X2742638D02*
Y344961D01*
X2897362D01*
Y265039D02*
Y344961D01*
X2914410Y137638D02*
Y292362D01*
X2994331D01*
Y137638D02*
Y292362D01*
X2914410Y137638D02*
X2994331D01*
X2837638Y99961D02*
X2992362D01*
Y20039D02*
Y99961D01*
X2837638Y20039D02*
X2992362D01*
X2837638D02*
Y99961D01*
X2527638Y620039D02*
X2682362D01*
X2527638D02*
Y699961D01*
X2682362D01*
Y620039D02*
Y699961D01*
X2527638Y535039D02*
Y616039D01*
Y535039D02*
X2679538D01*
X2527638Y616039D02*
X2679538D01*
Y535039D02*
Y616039D01*
X2819500Y729050D02*
X2900500D01*
Y880950D01*
X2819500Y729050D02*
Y880950D01*
X2900500D01*
X804500Y749050D02*
X885500D01*
Y900950D01*
X804500Y749050D02*
Y900950D01*
X885500D01*
X524050Y524500D02*
Y605500D01*
Y524500D02*
X675950D01*
X524050Y605500D02*
X675950D01*
Y524500D02*
Y605500D01*
X1149500Y1154050D02*
X1230500D01*
Y1305950D01*
X1149500Y1154050D02*
Y1305950D01*
X1230500D01*
X1503420Y544500D02*
Y625500D01*
Y544500D02*
X1655320D01*
X1503420Y625500D02*
X1655320D01*
Y544500D02*
Y625500D01*
X1803870Y749050D02*
X1884870D01*
Y900950D01*
X1803870Y749050D02*
Y900950D01*
X1884870D01*
X1212008Y25039D02*
X1366732D01*
X1212008D02*
Y104961D01*
X1366732D01*
Y25039D02*
Y104961D01*
X1209409Y162638D02*
Y317362D01*
X1289331D01*
Y162638D02*
Y317362D01*
X1209409Y162638D02*
X1289331D01*
X1307008Y349961D02*
X1461732D01*
Y270039D02*
Y349961D01*
X1307008Y270039D02*
X1461732D01*
X1307008D02*
Y349961D01*
Y405039D02*
X1461732D01*
X1307008D02*
Y484961D01*
X1461732D01*
Y405039D02*
Y484961D01*
X1307638Y619961D02*
X1462362D01*
Y540039D02*
Y619961D01*
X1307638Y540039D02*
X1462362D01*
X1307638D02*
Y619961D01*
X1807008Y104961D02*
X1961732D01*
Y25039D02*
Y104961D01*
X1807008Y25039D02*
X1961732D01*
X1807008D02*
Y104961D01*
X1881811Y162638D02*
Y317362D01*
X1961732D01*
Y162638D02*
Y317362D01*
X1881811Y162638D02*
X1961732D01*
X1707008Y540039D02*
X1861732D01*
X1707008D02*
Y619961D01*
X1861732D01*
Y540039D02*
Y619961D01*
X1707008Y484961D02*
X1861732D01*
Y405039D02*
Y484961D01*
X1707008Y405039D02*
X1861732D01*
X1707008D02*
Y484961D01*
Y270039D02*
X1861732D01*
X1707008D02*
Y349961D01*
X1861732D01*
Y270039D02*
Y349961D01*
X1502008Y635039D02*
X1656732D01*
X1502008D02*
Y714961D01*
X1656732D01*
Y635039D02*
Y714961D01*
X2555039Y2992638D02*
X2634961D01*
Y3147362D01*
X2555039D02*
X2634961D01*
X2555039Y2992638D02*
Y3147362D01*
X905039Y3047362D02*
X984961D01*
X905039Y2892638D02*
Y3047362D01*
Y2892638D02*
X984961D01*
Y3047362D01*
X1465039Y2892638D02*
X1544961D01*
Y3047362D01*
X1465039D02*
X1544961D01*
X1465039Y2892638D02*
Y3047362D01*
X425039D02*
X504961D01*
X425039Y2892638D02*
Y3047362D01*
Y2892638D02*
X504961D01*
Y3047362D01*
D66*
X3629829Y179658D02*
Y159665D01*
X3636493Y153000D01*
X3649822D01*
X3656486Y159665D01*
Y179658D01*
Y199652D02*
Y212981D01*
X3649822Y219645D01*
X3636493D01*
X3629829Y212981D01*
Y199652D01*
X3636493Y192987D01*
X3649822D01*
X3656486Y199652D01*
Y232974D02*
X3629829D01*
Y252968D01*
X3636493Y259632D01*
X3656486D01*
X3623164Y279626D02*
X3629829D01*
Y272961D01*
Y286290D01*
Y279626D01*
X3649822D01*
X3656486Y286290D01*
X3629829Y306284D02*
X3656486D01*
X3643157D01*
X3636493Y312948D01*
X3629829Y319613D01*
Y326277D01*
X3656486Y352935D02*
Y366264D01*
X3649822Y372929D01*
X3636493D01*
X3629829Y366264D01*
Y352935D01*
X3636493Y346271D01*
X3649822D01*
X3656486Y352935D01*
Y386258D02*
Y399587D01*
Y392923D01*
X3616499D01*
Y386258D01*
X3656486Y426245D02*
Y439574D01*
X3649822Y446239D01*
X3636493D01*
X3629829Y439574D01*
Y426245D01*
X3636493Y419581D01*
X3649822D01*
X3656486Y426245D01*
Y499555D02*
X3616499D01*
Y519548D01*
X3623164Y526213D01*
X3636493D01*
X3643157Y519548D01*
Y499555D01*
Y512884D02*
X3656486Y526213D01*
X3616499Y566200D02*
Y539542D01*
X3656486D01*
Y566200D01*
X3636493Y539542D02*
Y552871D01*
X3616499Y579529D02*
X3643157D01*
X3656486Y592858D01*
X3643157Y606187D01*
X3616499D01*
X3656486Y639510D02*
X3616499D01*
X3636493Y619516D01*
Y646174D01*
X3656486Y659503D02*
X3649822D01*
Y666168D01*
X3656486D01*
Y659503D01*
X3623164Y692826D02*
X3616499Y699490D01*
Y712819D01*
X3623164Y719484D01*
X3649822D01*
X3656486Y712819D01*
Y699490D01*
X3649822Y692826D01*
X3623164D01*
X3697013Y153000D02*
X3723671Y166329D01*
X3697013Y179658D01*
X3723671Y192987D02*
X3717006D01*
Y199652D01*
X3723671D01*
Y192987D01*
Y226310D02*
X3697013D01*
Y232974D01*
X3703677Y239639D01*
X3723671D01*
X3703677D01*
X3697013Y246303D01*
X3703677Y252968D01*
X3723671D01*
Y272961D02*
Y286290D01*
X3717006Y292955D01*
X3703677D01*
X3697013Y286290D01*
Y272961D01*
X3703677Y266297D01*
X3717006D01*
X3723671Y272961D01*
X3697013Y306284D02*
X3723671D01*
X3710342D01*
X3703677Y312948D01*
X3697013Y319613D01*
Y326277D01*
Y352935D02*
Y366264D01*
X3703677Y372929D01*
X3723671D01*
Y352935D01*
X3717006Y346271D01*
X3710342Y352935D01*
Y372929D01*
X3723671Y386258D02*
Y399587D01*
Y392923D01*
X3697013D01*
Y386258D01*
X3723671Y419581D02*
Y439574D01*
X3717006Y446239D01*
X3710342Y439574D01*
Y426245D01*
X3703677Y419581D01*
X3697013Y426245D01*
Y446239D01*
X3710342Y479561D02*
X3703677D01*
Y472897D01*
X3710342D01*
Y479561D01*
X3703677Y486226D01*
X3690348D01*
X3683684Y479561D01*
Y466232D01*
X3690348Y459568D01*
X3717006D01*
X3723671Y466232D01*
Y486226D01*
Y506219D02*
X3690348D01*
X3703677D01*
Y499555D01*
Y512884D01*
Y506219D01*
X3690348D01*
X3683684Y512884D01*
X3723671Y552871D02*
Y539542D01*
X3717006Y532878D01*
X3703677D01*
X3697013Y539542D01*
Y552871D01*
X3703677Y559535D01*
X3710342D01*
Y532878D01*
X3723671Y572865D02*
X3717006D01*
Y579529D01*
X3723671D01*
Y572865D01*
X3697013Y606187D02*
X3717006D01*
X3723671Y612852D01*
Y632845D01*
X3697013D01*
X3737000Y646174D02*
X3697013D01*
Y666168D01*
X3703677Y672832D01*
X3717006D01*
X3723671Y666168D01*
Y646174D01*
Y686161D02*
X3717006D01*
Y692826D01*
X3723671D01*
Y686161D01*
X3737000Y719484D02*
X3697013D01*
Y739477D01*
X3703677Y746142D01*
X3717006D01*
X3723671Y739477D01*
Y719484D01*
X3690348Y766136D02*
X3697013D01*
Y759471D01*
Y772800D01*
Y766136D01*
X3717006D01*
X3723671Y772800D01*
%TF.MD5,531ccaa194712d58352000fb5b7c8213*%
M02*
