G04 Layer_Color=2752767*
%FSLAX26Y26*%
%MOIN*%
%TF.FileFunction,Drawing*%
%TF.Part,Single*%
G01*
G75*
%TA.AperFunction,NonConductor*%
%ADD65C,0.005000*%
%ADD83C,0.006667*%
D65*
X471575Y40000D02*
Y80000D01*
X511575D01*
Y40000D01*
X471575D01*
X668425D02*
Y80000D01*
X708425D01*
Y40000D01*
X668425D01*
X1455945Y45000D02*
Y85000D01*
X1495945D01*
Y45000D01*
X1455945D01*
X1652795D02*
Y85000D01*
X1692795D01*
Y45000D01*
X1652795D01*
X2476575Y40000D02*
Y80000D01*
X2516575D01*
Y40000D01*
X2476575D01*
X2673425D02*
Y80000D01*
X2713425D01*
Y40000D01*
X2673425D01*
X1245000Y3262913D02*
X1225000Y3302913D01*
X1265000D01*
X1245000Y3262913D01*
X1345000D02*
X1325000Y3302913D01*
X1365000D01*
X1345000Y3262913D01*
X1445000D02*
X1425000Y3302913D01*
X1465000D01*
X1445000Y3262913D01*
X1545000D02*
X1525000Y3302913D01*
X1565000D01*
X1545000Y3262913D01*
X1645000D02*
X1625000Y3302913D01*
X1665000D01*
X1645000Y3262913D01*
X1745000D02*
X1725000Y3302913D01*
X1765000D01*
X1745000Y3262913D01*
X1845000D02*
X1825000Y3302913D01*
X1865000D01*
X1845000Y3262913D01*
X1945000D02*
X1925000Y3302913D01*
X1965000D01*
X1945000Y3262913D01*
X2045000D02*
X2025000Y3302913D01*
X2065000D01*
X2045000Y3262913D01*
X2145000D02*
X2125000Y3302913D01*
X2165000D01*
X2145000Y3262913D01*
X2245000D02*
X2225000Y3302913D01*
X2265000D01*
X2245000Y3262913D01*
X2345000D02*
X2325000Y3302913D01*
X2365000D01*
X2345000Y3262913D01*
X2445000D02*
X2425000Y3302913D01*
X2465000D01*
X2445000Y3262913D01*
X2545000D02*
X2525000Y3302913D01*
X2565000D01*
X2545000Y3262913D01*
X2645000D02*
X2625000Y3302913D01*
X2665000D01*
X2645000Y3262913D01*
X2745000D02*
X2725000Y3302913D01*
X2765000D01*
X2745000Y3262913D01*
X2845000D02*
X2825000Y3302913D01*
X2865000D01*
X2845000Y3262913D01*
X2945000D02*
X2925000Y3302913D01*
X2965000D01*
X2945000Y3262913D01*
X3045000D02*
X3025000Y3302913D01*
X3065000D01*
X3045000Y3262913D01*
X1145000Y3362913D02*
X1125000Y3402913D01*
X1165000D01*
X1145000Y3362913D01*
X1245000D02*
X1225000Y3402913D01*
X1265000D01*
X1245000Y3362913D01*
X1345000D02*
X1325000Y3402913D01*
X1365000D01*
X1345000Y3362913D01*
X1445000D02*
X1425000Y3402913D01*
X1465000D01*
X1445000Y3362913D01*
X1545000D02*
X1525000Y3402913D01*
X1565000D01*
X1545000Y3362913D01*
X1645000D02*
X1625000Y3402913D01*
X1665000D01*
X1645000Y3362913D01*
X1745000D02*
X1725000Y3402913D01*
X1765000D01*
X1745000Y3362913D01*
X1845000D02*
X1825000Y3402913D01*
X1865000D01*
X1845000Y3362913D01*
X1945000D02*
X1925000Y3402913D01*
X1965000D01*
X1945000Y3362913D01*
X2045000D02*
X2025000Y3402913D01*
X2065000D01*
X2045000Y3362913D01*
X2145000D02*
X2125000Y3402913D01*
X2165000D01*
X2145000Y3362913D01*
X2245000D02*
X2225000Y3402913D01*
X2265000D01*
X2245000Y3362913D01*
X2345000D02*
X2325000Y3402913D01*
X2365000D01*
X2345000Y3362913D01*
X2445000D02*
X2425000Y3402913D01*
X2465000D01*
X2445000Y3362913D01*
X2545000D02*
X2525000Y3402913D01*
X2565000D01*
X2545000Y3362913D01*
X2645000D02*
X2625000Y3402913D01*
X2665000D01*
X2645000Y3362913D01*
X2745000D02*
X2725000Y3402913D01*
X2765000D01*
X2745000Y3362913D01*
X2845000D02*
X2825000Y3402913D01*
X2865000D01*
X2845000Y3362913D01*
X2945000D02*
X2925000Y3402913D01*
X2965000D01*
X2945000Y3362913D01*
X3045000D02*
X3025000Y3402913D01*
X3065000D01*
X3045000Y3362913D01*
X1145000Y3262913D02*
X1125000Y3302913D01*
X1165000D01*
X1145000Y3262913D01*
X3045000Y1670000D02*
X3025000Y1710000D01*
X3065000D01*
X3045000Y1670000D01*
X2945000D02*
X2925000Y1710000D01*
X2965000D01*
X2945000Y1670000D01*
X2845000D02*
X2825000Y1710000D01*
X2865000D01*
X2845000Y1670000D01*
X2745000D02*
X2725000Y1710000D01*
X2765000D01*
X2745000Y1670000D01*
X2645000D02*
X2625000Y1710000D01*
X2665000D01*
X2645000Y1670000D01*
X2545000D02*
X2525000Y1710000D01*
X2565000D01*
X2545000Y1670000D01*
X2445000D02*
X2425000Y1710000D01*
X2465000D01*
X2445000Y1670000D01*
X2345000D02*
X2325000Y1710000D01*
X2365000D01*
X2345000Y1670000D01*
X2245000D02*
X2225000Y1710000D01*
X2265000D01*
X2245000Y1670000D01*
X2145000D02*
X2125000Y1710000D01*
X2165000D01*
X2145000Y1670000D01*
X2045000D02*
X2025000Y1710000D01*
X2065000D01*
X2045000Y1670000D01*
X1945000D02*
X1925000Y1710000D01*
X1965000D01*
X1945000Y1670000D01*
X1845000D02*
X1825000Y1710000D01*
X1865000D01*
X1845000Y1670000D01*
X1745000D02*
X1725000Y1710000D01*
X1765000D01*
X1745000Y1670000D01*
X1645000D02*
X1625000Y1710000D01*
X1665000D01*
X1645000Y1670000D01*
X1545000D02*
X1525000Y1710000D01*
X1565000D01*
X1545000Y1670000D01*
X1445000D02*
X1425000Y1710000D01*
X1465000D01*
X1445000Y1670000D01*
X1345000D02*
X1325000Y1710000D01*
X1365000D01*
X1345000Y1670000D01*
X1245000D02*
X1225000Y1710000D01*
X1265000D01*
X1245000Y1670000D01*
X1145000D02*
X1125000Y1710000D01*
X1165000D01*
X1145000Y1670000D01*
X3045000Y1570000D02*
X3025000Y1610000D01*
X3065000D01*
X3045000Y1570000D01*
X2945000D02*
X2925000Y1610000D01*
X2965000D01*
X2945000Y1570000D01*
X2845000D02*
X2825000Y1610000D01*
X2865000D01*
X2845000Y1570000D01*
X2745000D02*
X2725000Y1610000D01*
X2765000D01*
X2745000Y1570000D01*
X2645000D02*
X2625000Y1610000D01*
X2665000D01*
X2645000Y1570000D01*
X2545000D02*
X2525000Y1610000D01*
X2565000D01*
X2545000Y1570000D01*
X2445000D02*
X2425000Y1610000D01*
X2465000D01*
X2445000Y1570000D01*
X2345000D02*
X2325000Y1610000D01*
X2365000D01*
X2345000Y1570000D01*
X2245000D02*
X2225000Y1610000D01*
X2265000D01*
X2245000Y1570000D01*
X2145000D02*
X2125000Y1610000D01*
X2165000D01*
X2145000Y1570000D01*
X2045000D02*
X2025000Y1610000D01*
X2065000D01*
X2045000Y1570000D01*
X1945000D02*
X1925000Y1610000D01*
X1965000D01*
X1945000Y1570000D01*
X1845000D02*
X1825000Y1610000D01*
X1865000D01*
X1845000Y1570000D01*
X1745000D02*
X1725000Y1610000D01*
X1765000D01*
X1745000Y1570000D01*
X1645000D02*
X1625000Y1610000D01*
X1665000D01*
X1645000Y1570000D01*
X1545000D02*
X1525000Y1610000D01*
X1565000D01*
X1545000Y1570000D01*
X1445000D02*
X1425000Y1610000D01*
X1465000D01*
X1445000Y1570000D01*
X1345000D02*
X1325000Y1610000D01*
X1365000D01*
X1345000Y1570000D01*
X1245000D02*
X1225000Y1610000D01*
X1265000D01*
X1245000Y1570000D01*
X1145000D02*
X1125000Y1610000D01*
X1165000D01*
X1145000Y1570000D01*
X1Y-20000D02*
X10001Y-10000D01*
X20001D01*
X10001Y-0D01*
X20001Y10000D01*
X10001D01*
X1Y20000D01*
X-9999Y10000D01*
X-19999D01*
X-9999Y-0D01*
X-19999Y-10000D01*
X-9999D01*
X1Y-20000D01*
Y3759528D02*
X10001Y3769528D01*
X20001D01*
X10001Y3779528D01*
X20001Y3789528D01*
X10001D01*
X1Y3799528D01*
X-9999Y3789528D01*
X-19999D01*
X-9999Y3779528D01*
X-19999Y3769528D01*
X-9999D01*
X1Y3759528D01*
X3779527Y-20000D02*
X3789527Y-10000D01*
X3799527D01*
X3789527Y-0D01*
X3799527Y10000D01*
X3789527D01*
X3779527Y20000D01*
X3769527Y10000D01*
X3759527D01*
X3769527Y-0D01*
X3759527Y-10000D01*
X3769527D01*
X3779527Y-20000D01*
Y3759528D02*
X3789527Y3769528D01*
X3799527D01*
X3789527Y3779528D01*
X3799527Y3789528D01*
X3789527D01*
X3779527Y3799528D01*
X3769527Y3789528D01*
X3759527D01*
X3769527Y3779528D01*
X3759527Y3769528D01*
X3769527D01*
X3779527Y3759528D01*
X60000Y1405000D02*
X70000Y1425000D01*
X60000Y1445000D01*
X80000Y1435000D01*
X100000Y1445000D01*
X90000Y1425000D01*
X100000Y1405000D01*
X80000Y1415000D01*
X60000Y1405000D01*
X260000Y3600000D02*
X270000Y3620000D01*
X260000Y3640000D01*
X280000Y3630000D01*
X300000Y3640000D01*
X290000Y3620000D01*
X300000Y3600000D01*
X280000Y3610000D01*
X260000Y3600000D01*
X3460000Y3595000D02*
X3470000Y3615000D01*
X3460000Y3635000D01*
X3480000Y3625000D01*
X3500000Y3635000D01*
X3490000Y3615000D01*
X3500000Y3595000D01*
X3480000Y3605000D01*
X3460000Y3595000D01*
X3355000Y100000D02*
X3365000Y120000D01*
X3355000Y140000D01*
X3375000Y130000D01*
X3395000Y140000D01*
X3385000Y120000D01*
X3395000Y100000D01*
X3375000Y110000D01*
X3355000Y100000D01*
X1930000Y2910000D02*
Y2900000D01*
X1950000D01*
Y2910000D01*
X1960000D01*
Y2930000D01*
X1950000D01*
Y2940000D01*
X1930000D01*
Y2930000D01*
X1920000D01*
Y2910000D01*
X1930000D01*
X2760000Y2815000D02*
X2770000D01*
X2780000Y2825000D01*
X2790000Y2815000D01*
X2800000D01*
Y2825000D01*
X2790000Y2835000D01*
X2800000Y2845000D01*
Y2855000D01*
X2790000D01*
X2780000Y2845000D01*
X2770000Y2855000D01*
X2760000D01*
Y2845000D01*
X2770000Y2835000D01*
X2760000Y2825000D01*
Y2815000D01*
X2190000Y2745000D02*
Y2735000D01*
X2210000D01*
Y2745000D01*
X2220000D01*
Y2765000D01*
X2210000D01*
Y2775000D01*
X2190000D01*
Y2765000D01*
X2180000D01*
Y2745000D01*
X2190000D01*
X1170000Y2010000D02*
Y2000000D01*
X1190000D01*
Y2010000D01*
X1200000D01*
Y2030000D01*
X1190000D01*
Y2040000D01*
X1170000D01*
Y2030000D01*
X1160000D01*
Y2010000D01*
X1170000D01*
X1270000Y2110000D02*
Y2100000D01*
X1290000D01*
Y2110000D01*
X1300000D01*
Y2130000D01*
X1290000D01*
Y2140000D01*
X1270000D01*
Y2130000D01*
X1260000D01*
Y2110000D01*
X1270000D01*
X870000D02*
Y2100000D01*
X890000D01*
Y2110000D01*
X900000D01*
Y2130000D01*
X890000D01*
Y2140000D01*
X870000D01*
Y2130000D01*
X860000D01*
Y2110000D01*
X870000D01*
X970000Y2010000D02*
Y2000000D01*
X990000D01*
Y2010000D01*
X1000000D01*
Y2030000D01*
X990000D01*
Y2040000D01*
X970000D01*
Y2030000D01*
X960000D01*
Y2010000D01*
X970000D01*
X1070000Y2110000D02*
Y2100000D01*
X1090000D01*
Y2110000D01*
X1100000D01*
Y2130000D01*
X1090000D01*
Y2140000D01*
X1070000D01*
Y2130000D01*
X1060000D01*
Y2110000D01*
X1070000D01*
X1270000Y2750000D02*
Y2740000D01*
X1290000D01*
Y2750000D01*
X1300000D01*
Y2770000D01*
X1290000D01*
Y2780000D01*
X1270000D01*
Y2770000D01*
X1260000D01*
Y2750000D01*
X1270000D01*
X1215000Y2830000D02*
X1235000Y2850000D01*
X1255000Y2830000D01*
X1235000Y2810000D01*
X1215000Y2830000D01*
X509370Y2300630D02*
X529370Y2320630D01*
X549370Y2300630D01*
X529370Y2280630D01*
X509370Y2300630D01*
X984370D02*
X1004370Y2320630D01*
X1024370Y2300630D01*
X1004370Y2280630D01*
X984370Y2300630D01*
X1454370D02*
X1474370Y2320630D01*
X1494370Y2300630D01*
X1474370Y2280630D01*
X1454370Y2300630D01*
X1397717Y2470000D02*
Y2460000D01*
X1417717D01*
Y2470000D01*
X1427717D01*
Y2490000D01*
X1417717D01*
Y2500000D01*
X1397717D01*
Y2490000D01*
X1387717D01*
Y2470000D01*
X1397717D01*
X935000Y2465000D02*
Y2455000D01*
X955000D01*
Y2465000D01*
X965000D01*
Y2485000D01*
X955000D01*
Y2495000D01*
X935000D01*
Y2485000D01*
X925000D01*
Y2465000D01*
X935000D01*
X1677717Y2830000D02*
X1697717Y2850000D01*
X1717717Y2830000D01*
X1697717Y2810000D01*
X1677717Y2830000D01*
X735000Y2825000D02*
X755000Y2845000D01*
X775000Y2825000D01*
X755000Y2805000D01*
X735000Y2825000D01*
X835000Y2990000D02*
X845000D01*
X855000Y3000000D01*
X865000Y2990000D01*
X875000D01*
Y3000000D01*
X865000Y3010000D01*
X875000Y3020000D01*
Y3030000D01*
X865000D01*
X855000Y3020000D01*
X845000Y3030000D01*
X835000D01*
Y3020000D01*
X845000Y3010000D01*
X835000Y3000000D01*
Y2990000D01*
X2330000D02*
X2340000D01*
X2350000Y3000000D01*
X2360000Y2990000D01*
X2370000D01*
Y3000000D01*
X2360000Y3010000D01*
X2370000Y3020000D01*
Y3030000D01*
X2360000D01*
X2350000Y3020000D01*
X2340000Y3030000D01*
X2330000D01*
Y3020000D01*
X2340000Y3010000D01*
X2330000Y3000000D01*
Y2990000D01*
X2870000Y1305000D02*
X2880000D01*
X2890000Y1315000D01*
X2900000Y1305000D01*
X2910000D01*
Y1315000D01*
X2900000Y1325000D01*
X2910000Y1335000D01*
Y1345000D01*
X2900000D01*
X2890000Y1335000D01*
X2880000Y1345000D01*
X2870000D01*
Y1335000D01*
X2880000Y1325000D01*
X2870000Y1315000D01*
Y1305000D01*
X1225000Y1190000D02*
X1245000Y1210000D01*
X1265000Y1190000D01*
X1245000Y1170000D01*
X1225000Y1190000D01*
X2250000D02*
X2270000Y1210000D01*
X2290000Y1190000D01*
X2270000Y1170000D01*
X2250000Y1190000D01*
X245000Y1170000D02*
X255000D01*
X265000Y1180000D01*
X275000Y1170000D01*
X285000D01*
Y1180000D01*
X275000Y1190000D01*
X285000Y1200000D01*
Y1210000D01*
X275000D01*
X265000Y1200000D01*
X255000Y1210000D01*
X245000D01*
Y1200000D01*
X255000Y1190000D01*
X245000Y1180000D01*
Y1170000D01*
X1640000Y1385000D02*
X1650000D01*
X1660000Y1395000D01*
X1670000Y1385000D01*
X1680000D01*
Y1395000D01*
X1670000Y1405000D01*
X1680000Y1415000D01*
Y1425000D01*
X1670000D01*
X1660000Y1415000D01*
X1650000Y1425000D01*
X1640000D01*
Y1415000D01*
X1650000Y1405000D01*
X1640000Y1395000D01*
Y1385000D01*
X2230000D02*
X2240000D01*
X2250000Y1395000D01*
X2260000Y1385000D01*
X2270000D01*
Y1395000D01*
X2260000Y1405000D01*
X2270000Y1415000D01*
Y1425000D01*
X2260000D01*
X2250000Y1415000D01*
X2240000Y1425000D01*
X2230000D01*
Y1415000D01*
X2240000Y1405000D01*
X2230000Y1395000D01*
Y1385000D01*
X2430000Y810000D02*
X2440000D01*
X2450000Y820000D01*
X2460000Y810000D01*
X2470000D01*
Y820000D01*
X2460000Y830000D01*
X2470000Y840000D01*
Y850000D01*
X2460000D01*
X2450000Y840000D01*
X2440000Y850000D01*
X2430000D01*
Y840000D01*
X2440000Y830000D01*
X2430000Y820000D01*
Y810000D01*
X2287598Y722598D02*
X2307598Y742598D01*
X2327598Y722598D01*
X2307598Y702598D01*
X2287598Y722598D01*
X1400000Y810000D02*
X1410000D01*
X1420000Y820000D01*
X1430000Y810000D01*
X1440000D01*
Y820000D01*
X1430000Y830000D01*
X1440000Y840000D01*
Y850000D01*
X1430000D01*
X1420000Y840000D01*
X1410000Y850000D01*
X1400000D01*
Y840000D01*
X1410000Y830000D01*
X1400000Y820000D01*
Y810000D01*
X1257598Y722598D02*
X1277598Y742598D01*
X1297598Y722598D01*
X1277598Y702598D01*
X1257598Y722598D01*
X420000Y810000D02*
X430000D01*
X440000Y820000D01*
X450000Y810000D01*
X460000D01*
Y820000D01*
X450000Y830000D01*
X460000Y840000D01*
Y850000D01*
X450000D01*
X440000Y840000D01*
X430000Y850000D01*
X420000D01*
Y840000D01*
X430000Y830000D01*
X420000Y820000D01*
Y810000D01*
X277598Y722598D02*
X297598Y742598D01*
X317598Y722598D01*
X297598Y702598D01*
X277598Y722598D01*
X2675000Y3155000D02*
Y3145000D01*
X2695000D01*
Y3155000D01*
X2705000D01*
Y3175000D01*
X2695000D01*
Y3185000D01*
X2675000D01*
Y3175000D01*
X2665000D01*
Y3155000D01*
X2675000D01*
X1960000Y1885000D02*
X1970000D01*
X1980000Y1895000D01*
X1990000Y1885000D01*
X2000000D01*
Y1895000D01*
X1990000Y1905000D01*
X2000000Y1915000D01*
Y1925000D01*
X1990000D01*
X1980000Y1915000D01*
X1970000Y1925000D01*
X1960000D01*
Y1915000D01*
X1970000Y1905000D01*
X1960000Y1895000D01*
Y1885000D01*
X1795000Y2010000D02*
X1805000D01*
X1815000Y2020000D01*
X1825000Y2010000D01*
X1835000D01*
Y2020000D01*
X1825000Y2030000D01*
X1835000Y2040000D01*
Y2050000D01*
X1825000D01*
X1815000Y2040000D01*
X1805000Y2050000D01*
X1795000D01*
Y2040000D01*
X1805000Y2030000D01*
X1795000Y2020000D01*
Y2010000D01*
X1270000Y3510000D02*
Y3500000D01*
X1290000D01*
Y3510000D01*
X1300000D01*
Y3530000D01*
X1290000D01*
Y3540000D01*
X1270000D01*
Y3530000D01*
X1260000D01*
Y3510000D01*
X1270000D01*
X1470000D02*
Y3500000D01*
X1490000D01*
Y3510000D01*
X1500000D01*
Y3530000D01*
X1490000D01*
Y3540000D01*
X1470000D01*
Y3530000D01*
X1460000D01*
Y3510000D01*
X1470000D01*
X3370000Y1410000D02*
Y1400000D01*
X3390000D01*
Y1410000D01*
X3400000D01*
Y1430000D01*
X3390000D01*
Y1440000D01*
X3370000D01*
Y1430000D01*
X3360000D01*
Y1410000D01*
X3370000D01*
X3270000Y1310000D02*
Y1300000D01*
X3290000D01*
Y1310000D01*
X3300000D01*
Y1330000D01*
X3290000D01*
Y1340000D01*
X3270000D01*
Y1330000D01*
X3260000D01*
Y1310000D01*
X3270000D01*
Y1510000D02*
Y1500000D01*
X3290000D01*
Y1510000D01*
X3300000D01*
Y1530000D01*
X3290000D01*
Y1540000D01*
X3270000D01*
Y1530000D01*
X3260000D01*
Y1510000D01*
X3270000D01*
X1740000Y1305000D02*
Y1295000D01*
X1760000D01*
Y1305000D01*
X1770000D01*
Y1325000D01*
X1760000D01*
Y1335000D01*
X1740000D01*
Y1325000D01*
X1730000D01*
Y1305000D01*
X1740000D01*
X1940000D02*
Y1295000D01*
X1960000D01*
Y1305000D01*
X1970000D01*
Y1325000D01*
X1960000D01*
Y1335000D01*
X1940000D01*
Y1325000D01*
X1930000D01*
Y1305000D01*
X1940000D01*
Y1105000D02*
Y1095000D01*
X1960000D01*
Y1105000D01*
X1970000D01*
Y1125000D01*
X1960000D01*
Y1135000D01*
X1940000D01*
Y1125000D01*
X1930000D01*
Y1105000D01*
X1940000D01*
X2140000D02*
Y1095000D01*
X2160000D01*
Y1105000D01*
X2170000D01*
Y1125000D01*
X2160000D01*
Y1135000D01*
X2140000D01*
Y1125000D01*
X2130000D01*
Y1105000D01*
X2140000D01*
X3570000Y210000D02*
Y200000D01*
X3590000D01*
Y210000D01*
X3600000D01*
Y230000D01*
X3590000D01*
Y240000D01*
X3570000D01*
Y230000D01*
X3560000D01*
Y210000D01*
X3570000D01*
X3670000Y110000D02*
Y100000D01*
X3690000D01*
Y110000D01*
X3700000D01*
Y130000D01*
X3690000D01*
Y140000D01*
X3670000D01*
Y130000D01*
X3660000D01*
Y110000D01*
X3670000D01*
X3370000Y10000D02*
Y0D01*
X3390000D01*
Y10000D01*
X3400000D01*
Y30000D01*
X3390000D01*
Y40000D01*
X3370000D01*
Y30000D01*
X3360000D01*
Y10000D01*
X3370000D01*
X3470000Y110000D02*
Y100000D01*
X3490000D01*
Y110000D01*
X3500000D01*
Y130000D01*
X3490000D01*
Y140000D01*
X3470000D01*
Y130000D01*
X3460000D01*
Y110000D01*
X3470000D01*
X3570000Y10000D02*
Y0D01*
X3590000D01*
Y10000D01*
X3600000D01*
Y30000D01*
X3590000D01*
Y40000D01*
X3570000D01*
Y30000D01*
X3560000D01*
Y10000D01*
X3570000D01*
X3270000Y310000D02*
Y300000D01*
X3290000D01*
Y310000D01*
X3300000D01*
Y330000D01*
X3290000D01*
Y340000D01*
X3270000D01*
Y330000D01*
X3260000D01*
Y310000D01*
X3270000D01*
X3370000Y210000D02*
Y200000D01*
X3390000D01*
Y210000D01*
X3400000D01*
Y230000D01*
X3390000D01*
Y240000D01*
X3370000D01*
Y230000D01*
X3360000D01*
Y210000D01*
X3370000D01*
X3270000Y110000D02*
Y100000D01*
X3290000D01*
Y110000D01*
X3300000D01*
Y130000D01*
X3290000D01*
Y140000D01*
X3270000D01*
Y130000D01*
X3260000D01*
Y110000D01*
X3270000D01*
X3570000Y610000D02*
Y600000D01*
X3590000D01*
Y610000D01*
X3600000D01*
Y630000D01*
X3590000D01*
Y640000D01*
X3570000D01*
Y630000D01*
X3560000D01*
Y610000D01*
X3570000D01*
X3470000Y510000D02*
Y500000D01*
X3490000D01*
Y510000D01*
X3500000D01*
Y530000D01*
X3490000D01*
Y540000D01*
X3470000D01*
Y530000D01*
X3460000D01*
Y510000D01*
X3470000D01*
X3570000Y410000D02*
Y400000D01*
X3590000D01*
Y410000D01*
X3600000D01*
Y430000D01*
X3590000D01*
Y440000D01*
X3570000D01*
Y430000D01*
X3560000D01*
Y410000D01*
X3570000D01*
X3470000Y310000D02*
Y300000D01*
X3490000D01*
Y310000D01*
X3500000D01*
Y330000D01*
X3490000D01*
Y340000D01*
X3470000D01*
Y330000D01*
X3460000D01*
Y310000D01*
X3470000D01*
X3770000Y210000D02*
Y200000D01*
X3790000D01*
Y210000D01*
X3800000D01*
Y230000D01*
X3790000D01*
Y240000D01*
X3770000D01*
Y230000D01*
X3760000D01*
Y210000D01*
X3770000D01*
Y410000D02*
Y400000D01*
X3790000D01*
Y410000D01*
X3800000D01*
Y430000D01*
X3790000D01*
Y440000D01*
X3770000D01*
Y430000D01*
X3760000D01*
Y410000D01*
X3770000D01*
Y610000D02*
Y600000D01*
X3790000D01*
Y610000D01*
X3800000D01*
Y630000D01*
X3790000D01*
Y640000D01*
X3770000D01*
Y630000D01*
X3760000D01*
Y610000D01*
X3770000D01*
Y810000D02*
Y800000D01*
X3790000D01*
Y810000D01*
X3800000D01*
Y830000D01*
X3790000D01*
Y840000D01*
X3770000D01*
Y830000D01*
X3760000D01*
Y810000D01*
X3770000D01*
X3670000Y910000D02*
Y900000D01*
X3690000D01*
Y910000D01*
X3700000D01*
Y930000D01*
X3690000D01*
Y940000D01*
X3670000D01*
Y930000D01*
X3660000D01*
Y910000D01*
X3670000D01*
Y1110000D02*
Y1100000D01*
X3690000D01*
Y1110000D01*
X3700000D01*
Y1130000D01*
X3690000D01*
Y1140000D01*
X3670000D01*
Y1130000D01*
X3660000D01*
Y1110000D01*
X3670000D01*
Y1310000D02*
Y1300000D01*
X3690000D01*
Y1310000D01*
X3700000D01*
Y1330000D01*
X3690000D01*
Y1340000D01*
X3670000D01*
Y1330000D01*
X3660000D01*
Y1310000D01*
X3670000D01*
X3770000Y1010000D02*
Y1000000D01*
X3790000D01*
Y1010000D01*
X3800000D01*
Y1030000D01*
X3790000D01*
Y1040000D01*
X3770000D01*
Y1030000D01*
X3760000D01*
Y1010000D01*
X3770000D01*
Y1210000D02*
Y1200000D01*
X3790000D01*
Y1210000D01*
X3800000D01*
Y1230000D01*
X3790000D01*
Y1240000D01*
X3770000D01*
Y1230000D01*
X3760000D01*
Y1210000D01*
X3770000D01*
Y2210000D02*
Y2200000D01*
X3790000D01*
Y2210000D01*
X3800000D01*
Y2230000D01*
X3790000D01*
Y2240000D01*
X3770000D01*
Y2230000D01*
X3760000D01*
Y2210000D01*
X3770000D01*
Y2010000D02*
Y2000000D01*
X3790000D01*
Y2010000D01*
X3800000D01*
Y2030000D01*
X3790000D01*
Y2040000D01*
X3770000D01*
Y2030000D01*
X3760000D01*
Y2010000D01*
X3770000D01*
Y1410000D02*
Y1400000D01*
X3790000D01*
Y1410000D01*
X3800000D01*
Y1430000D01*
X3790000D01*
Y1440000D01*
X3770000D01*
Y1430000D01*
X3760000D01*
Y1410000D01*
X3770000D01*
X3670000Y1510000D02*
Y1500000D01*
X3690000D01*
Y1510000D01*
X3700000D01*
Y1530000D01*
X3690000D01*
Y1540000D01*
X3670000D01*
Y1530000D01*
X3660000D01*
Y1510000D01*
X3670000D01*
X3570000Y1610000D02*
Y1600000D01*
X3590000D01*
Y1610000D01*
X3600000D01*
Y1630000D01*
X3590000D01*
Y1640000D01*
X3570000D01*
Y1630000D01*
X3560000D01*
Y1610000D01*
X3570000D01*
X3770000D02*
Y1600000D01*
X3790000D01*
Y1610000D01*
X3800000D01*
Y1630000D01*
X3790000D01*
Y1640000D01*
X3770000D01*
Y1630000D01*
X3760000D01*
Y1610000D01*
X3770000D01*
X3470000Y1710000D02*
Y1700000D01*
X3490000D01*
Y1710000D01*
X3500000D01*
Y1730000D01*
X3490000D01*
Y1740000D01*
X3470000D01*
Y1730000D01*
X3460000D01*
Y1710000D01*
X3470000D01*
X3670000D02*
Y1700000D01*
X3690000D01*
Y1710000D01*
X3700000D01*
Y1730000D01*
X3690000D01*
Y1740000D01*
X3670000D01*
Y1730000D01*
X3660000D01*
Y1710000D01*
X3670000D01*
X3770000Y1810000D02*
Y1800000D01*
X3790000D01*
Y1810000D01*
X3800000D01*
Y1830000D01*
X3790000D01*
Y1840000D01*
X3770000D01*
Y1830000D01*
X3760000D01*
Y1810000D01*
X3770000D01*
X3670000Y1910000D02*
Y1900000D01*
X3690000D01*
Y1910000D01*
X3700000D01*
Y1930000D01*
X3690000D01*
Y1940000D01*
X3670000D01*
Y1930000D01*
X3660000D01*
Y1910000D01*
X3670000D01*
X3570000Y1810000D02*
Y1800000D01*
X3590000D01*
Y1810000D01*
X3600000D01*
Y1830000D01*
X3590000D01*
Y1840000D01*
X3570000D01*
Y1830000D01*
X3560000D01*
Y1810000D01*
X3570000D01*
X3370000D02*
Y1800000D01*
X3390000D01*
Y1810000D01*
X3400000D01*
Y1830000D01*
X3390000D01*
Y1840000D01*
X3370000D01*
Y1830000D01*
X3360000D01*
Y1810000D01*
X3370000D01*
X3270000Y1910000D02*
Y1900000D01*
X3290000D01*
Y1910000D01*
X3300000D01*
Y1930000D01*
X3290000D01*
Y1940000D01*
X3270000D01*
Y1930000D01*
X3260000D01*
Y1910000D01*
X3270000D01*
X3470000D02*
Y1900000D01*
X3490000D01*
Y1910000D01*
X3500000D01*
Y1930000D01*
X3490000D01*
Y1940000D01*
X3470000D01*
Y1930000D01*
X3460000D01*
Y1910000D01*
X3470000D01*
X3550000Y2255000D02*
Y2245000D01*
X3570000D01*
Y2255000D01*
X3580000D01*
Y2275000D01*
X3570000D01*
Y2285000D01*
X3550000D01*
Y2275000D01*
X3540000D01*
Y2255000D01*
X3550000D01*
X3570000Y2010000D02*
Y2000000D01*
X3590000D01*
Y2010000D01*
X3600000D01*
Y2030000D01*
X3590000D01*
Y2040000D01*
X3570000D01*
Y2030000D01*
X3560000D01*
Y2010000D01*
X3570000D01*
X3370000D02*
Y2000000D01*
X3390000D01*
Y2010000D01*
X3400000D01*
Y2030000D01*
X3390000D01*
Y2040000D01*
X3370000D01*
Y2030000D01*
X3360000D01*
Y2010000D01*
X3370000D01*
X3670000Y2110000D02*
Y2100000D01*
X3690000D01*
Y2110000D01*
X3700000D01*
Y2130000D01*
X3690000D01*
Y2140000D01*
X3670000D01*
Y2130000D01*
X3660000D01*
Y2110000D01*
X3670000D01*
Y2910000D02*
Y2900000D01*
X3690000D01*
Y2910000D01*
X3700000D01*
Y2930000D01*
X3690000D01*
Y2940000D01*
X3670000D01*
Y2930000D01*
X3660000D01*
Y2910000D01*
X3670000D01*
X2190000Y2245000D02*
Y2235000D01*
X2210000D01*
Y2245000D01*
X2220000D01*
Y2265000D01*
X2210000D01*
Y2275000D01*
X2190000D01*
Y2265000D01*
X2180000D01*
Y2245000D01*
X2190000D01*
X2695000Y2335000D02*
Y2325000D01*
X2715000D01*
Y2335000D01*
X2725000D01*
Y2355000D01*
X2715000D01*
Y2365000D01*
X2695000D01*
Y2355000D01*
X2685000D01*
Y2335000D01*
X2695000D01*
X1755000Y2325000D02*
Y2315000D01*
X1775000D01*
Y2325000D01*
X1785000D01*
Y2345000D01*
X1775000D01*
Y2355000D01*
X1755000D01*
Y2345000D01*
X1745000D01*
Y2325000D01*
X1755000D01*
X2690000Y2530000D02*
Y2520000D01*
X2710000D01*
Y2530000D01*
X2720000D01*
Y2550000D01*
X2710000D01*
Y2560000D01*
X2690000D01*
Y2550000D01*
X2680000D01*
Y2530000D01*
X2690000D01*
X2295000Y2905000D02*
Y2895000D01*
X2315000D01*
Y2905000D01*
X2325000D01*
Y2925000D01*
X2315000D01*
Y2935000D01*
X2295000D01*
Y2925000D01*
X2285000D01*
Y2905000D01*
X2295000D01*
X2970000Y2855000D02*
Y2845000D01*
X2990000D01*
Y2855000D01*
X3000000D01*
Y2875000D01*
X2990000D01*
Y2885000D01*
X2970000D01*
Y2875000D01*
X2960000D01*
Y2855000D01*
X2970000D01*
X2870000Y2910000D02*
Y2900000D01*
X2890000D01*
Y2910000D01*
X2900000D01*
Y2930000D01*
X2890000D01*
Y2940000D01*
X2870000D01*
Y2930000D01*
X2860000D01*
Y2910000D01*
X2870000D01*
X2770000Y3010000D02*
Y3000000D01*
X2790000D01*
Y3010000D01*
X2800000D01*
Y3030000D01*
X2790000D01*
Y3040000D01*
X2770000D01*
Y3030000D01*
X2760000D01*
Y3010000D01*
X2770000D01*
X2970000D02*
Y3000000D01*
X2990000D01*
Y3010000D01*
X3000000D01*
Y3030000D01*
X2990000D01*
Y3040000D01*
X2970000D01*
Y3030000D01*
X2960000D01*
Y3010000D01*
X2970000D01*
X2870000Y3110000D02*
Y3100000D01*
X2890000D01*
Y3110000D01*
X2900000D01*
Y3130000D01*
X2890000D01*
Y3140000D01*
X2870000D01*
Y3130000D01*
X2860000D01*
Y3110000D01*
X2870000D01*
Y3510000D02*
Y3500000D01*
X2890000D01*
Y3510000D01*
X2900000D01*
Y3530000D01*
X2890000D01*
Y3540000D01*
X2870000D01*
Y3530000D01*
X2860000D01*
Y3510000D01*
X2870000D01*
X3070000D02*
Y3500000D01*
X3090000D01*
Y3510000D01*
X3100000D01*
Y3530000D01*
X3090000D01*
Y3540000D01*
X3070000D01*
Y3530000D01*
X3060000D01*
Y3510000D01*
X3070000D01*
X3670000D02*
Y3500000D01*
X3690000D01*
Y3510000D01*
X3700000D01*
Y3530000D01*
X3690000D01*
Y3540000D01*
X3670000D01*
Y3530000D01*
X3660000D01*
Y3510000D01*
X3670000D01*
X3570000Y3610000D02*
Y3600000D01*
X3590000D01*
Y3610000D01*
X3600000D01*
Y3630000D01*
X3590000D01*
Y3640000D01*
X3570000D01*
Y3630000D01*
X3560000D01*
Y3610000D01*
X3570000D01*
X3670000Y3110000D02*
Y3100000D01*
X3690000D01*
Y3110000D01*
X3700000D01*
Y3130000D01*
X3690000D01*
Y3140000D01*
X3670000D01*
Y3130000D01*
X3660000D01*
Y3110000D01*
X3670000D01*
Y3310000D02*
Y3300000D01*
X3690000D01*
Y3310000D01*
X3700000D01*
Y3330000D01*
X3690000D01*
Y3340000D01*
X3670000D01*
Y3330000D01*
X3660000D01*
Y3310000D01*
X3670000D01*
X3470000Y3110000D02*
Y3100000D01*
X3490000D01*
Y3110000D01*
X3500000D01*
Y3130000D01*
X3490000D01*
Y3140000D01*
X3470000D01*
Y3130000D01*
X3460000D01*
Y3110000D01*
X3470000D01*
X3270000D02*
Y3100000D01*
X3290000D01*
Y3110000D01*
X3300000D01*
Y3130000D01*
X3290000D01*
Y3140000D01*
X3270000D01*
Y3130000D01*
X3260000D01*
Y3110000D01*
X3270000D01*
X3470000Y3510000D02*
Y3500000D01*
X3490000D01*
Y3510000D01*
X3500000D01*
Y3530000D01*
X3490000D01*
Y3540000D01*
X3470000D01*
Y3530000D01*
X3460000D01*
Y3510000D01*
X3470000D01*
X3270000D02*
Y3500000D01*
X3290000D01*
Y3510000D01*
X3300000D01*
Y3530000D01*
X3290000D01*
Y3540000D01*
X3270000D01*
Y3530000D01*
X3260000D01*
Y3510000D01*
X3270000D01*
Y2910000D02*
Y2900000D01*
X3290000D01*
Y2910000D01*
X3300000D01*
Y2930000D01*
X3290000D01*
Y2940000D01*
X3270000D01*
Y2930000D01*
X3260000D01*
Y2910000D01*
X3270000D01*
X3470000D02*
Y2900000D01*
X3490000D01*
Y2910000D01*
X3500000D01*
Y2930000D01*
X3490000D01*
Y2940000D01*
X3470000D01*
Y2930000D01*
X3460000D01*
Y2910000D01*
X3470000D01*
X3370000Y3010000D02*
Y3000000D01*
X3390000D01*
Y3010000D01*
X3400000D01*
Y3030000D01*
X3390000D01*
Y3040000D01*
X3370000D01*
Y3030000D01*
X3360000D01*
Y3010000D01*
X3370000D01*
X3170000D02*
Y3000000D01*
X3190000D01*
Y3010000D01*
X3200000D01*
Y3030000D01*
X3190000D01*
Y3040000D01*
X3170000D01*
Y3030000D01*
X3160000D01*
Y3010000D01*
X3170000D01*
X3570000D02*
Y3000000D01*
X3590000D01*
Y3010000D01*
X3600000D01*
Y3030000D01*
X3590000D01*
Y3040000D01*
X3570000D01*
Y3030000D01*
X3560000D01*
Y3010000D01*
X3570000D01*
X3370000Y2810000D02*
Y2800000D01*
X3390000D01*
Y2810000D01*
X3400000D01*
Y2830000D01*
X3390000D01*
Y2840000D01*
X3370000D01*
Y2830000D01*
X3360000D01*
Y2810000D01*
X3370000D01*
X3170000D02*
Y2800000D01*
X3190000D01*
Y2810000D01*
X3200000D01*
Y2830000D01*
X3190000D01*
Y2840000D01*
X3170000D01*
Y2830000D01*
X3160000D01*
Y2810000D01*
X3170000D01*
X3570000D02*
Y2800000D01*
X3590000D01*
Y2810000D01*
X3600000D01*
Y2830000D01*
X3590000D01*
Y2840000D01*
X3570000D01*
Y2830000D01*
X3560000D01*
Y2810000D01*
X3570000D01*
X3270000Y3310000D02*
Y3300000D01*
X3290000D01*
Y3310000D01*
X3300000D01*
Y3330000D01*
X3290000D01*
Y3340000D01*
X3270000D01*
Y3330000D01*
X3260000D01*
Y3310000D01*
X3270000D01*
X3470000D02*
Y3300000D01*
X3490000D01*
Y3310000D01*
X3500000D01*
Y3330000D01*
X3490000D01*
Y3340000D01*
X3470000D01*
Y3330000D01*
X3460000D01*
Y3310000D01*
X3470000D01*
X3370000Y3410000D02*
Y3400000D01*
X3390000D01*
Y3410000D01*
X3400000D01*
Y3430000D01*
X3390000D01*
Y3440000D01*
X3370000D01*
Y3430000D01*
X3360000D01*
Y3410000D01*
X3370000D01*
X3170000D02*
Y3400000D01*
X3190000D01*
Y3410000D01*
X3200000D01*
Y3430000D01*
X3190000D01*
Y3440000D01*
X3170000D01*
Y3430000D01*
X3160000D01*
Y3410000D01*
X3170000D01*
X3570000D02*
Y3400000D01*
X3590000D01*
Y3410000D01*
X3600000D01*
Y3430000D01*
X3590000D01*
Y3440000D01*
X3570000D01*
Y3430000D01*
X3560000D01*
Y3410000D01*
X3570000D01*
X3370000Y3210000D02*
Y3200000D01*
X3390000D01*
Y3210000D01*
X3400000D01*
Y3230000D01*
X3390000D01*
Y3240000D01*
X3370000D01*
Y3230000D01*
X3360000D01*
Y3210000D01*
X3370000D01*
X3170000D02*
Y3200000D01*
X3190000D01*
Y3210000D01*
X3200000D01*
Y3230000D01*
X3190000D01*
Y3240000D01*
X3170000D01*
Y3230000D01*
X3160000D01*
Y3210000D01*
X3170000D01*
X3570000D02*
Y3200000D01*
X3590000D01*
Y3210000D01*
X3600000D01*
Y3230000D01*
X3590000D01*
Y3240000D01*
X3570000D01*
Y3230000D01*
X3560000D01*
Y3210000D01*
X3570000D01*
X575000Y3160000D02*
Y3150000D01*
X595000D01*
Y3160000D01*
X605000D01*
Y3180000D01*
X595000D01*
Y3190000D01*
X575000D01*
Y3180000D01*
X565000D01*
Y3160000D01*
X575000D01*
X835000D02*
Y3150000D01*
X855000D01*
Y3160000D01*
X865000D01*
Y3180000D01*
X855000D01*
Y3190000D01*
X835000D01*
Y3180000D01*
X825000D01*
Y3160000D01*
X835000D01*
X870000Y3510000D02*
Y3500000D01*
X890000D01*
Y3510000D01*
X900000D01*
Y3530000D01*
X890000D01*
Y3540000D01*
X870000D01*
Y3530000D01*
X860000D01*
Y3510000D01*
X870000D01*
X705000Y3465000D02*
Y3455000D01*
X725000D01*
Y3465000D01*
X735000D01*
Y3485000D01*
X725000D01*
Y3495000D01*
X705000D01*
Y3485000D01*
X695000D01*
Y3465000D01*
X705000D01*
Y3210000D02*
Y3200000D01*
X725000D01*
Y3210000D01*
X735000D01*
Y3230000D01*
X725000D01*
Y3240000D01*
X705000D01*
Y3230000D01*
X695000D01*
Y3210000D01*
X705000D01*
X830000Y3340000D02*
Y3330000D01*
X850000D01*
Y3340000D01*
X860000D01*
Y3360000D01*
X850000D01*
Y3370000D01*
X830000D01*
Y3360000D01*
X820000D01*
Y3340000D01*
X830000D01*
X685000Y2445000D02*
Y2435000D01*
X705000D01*
Y2445000D01*
X715000D01*
Y2465000D01*
X705000D01*
Y2475000D01*
X685000D01*
Y2465000D01*
X675000D01*
Y2445000D01*
X685000D01*
X1320000Y2310000D02*
Y2300000D01*
X1340000D01*
Y2310000D01*
X1350000D01*
Y2330000D01*
X1340000D01*
Y2340000D01*
X1320000D01*
Y2330000D01*
X1310000D01*
Y2310000D01*
X1320000D01*
X1090000Y2450000D02*
Y2440000D01*
X1110000D01*
Y2450000D01*
X1120000D01*
Y2470000D01*
X1110000D01*
Y2480000D01*
X1090000D01*
Y2470000D01*
X1080000D01*
Y2450000D01*
X1090000D01*
X565000Y3310000D02*
Y3300000D01*
X585000D01*
Y3310000D01*
X595000D01*
Y3330000D01*
X585000D01*
Y3340000D01*
X565000D01*
Y3330000D01*
X555000D01*
Y3310000D01*
X565000D01*
X2270000Y2110000D02*
Y2100000D01*
X2290000D01*
Y2110000D01*
X2300000D01*
Y2130000D01*
X2290000D01*
Y2140000D01*
X2270000D01*
Y2130000D01*
X2260000D01*
Y2110000D01*
X2270000D01*
X2070000D02*
Y2100000D01*
X2090000D01*
Y2110000D01*
X2100000D01*
Y2130000D01*
X2090000D01*
Y2140000D01*
X2070000D01*
Y2130000D01*
X2060000D01*
Y2110000D01*
X2070000D01*
X1870000D02*
Y2100000D01*
X1890000D01*
Y2110000D01*
X1900000D01*
Y2130000D01*
X1890000D01*
Y2140000D01*
X1870000D01*
Y2130000D01*
X1860000D01*
Y2110000D01*
X1870000D01*
X1670000D02*
Y2100000D01*
X1690000D01*
Y2110000D01*
X1700000D01*
Y2130000D01*
X1690000D01*
Y2140000D01*
X1670000D01*
Y2130000D01*
X1660000D01*
Y2110000D01*
X1670000D01*
X1150000Y3165000D02*
Y3155000D01*
X1170000D01*
Y3165000D01*
X1180000D01*
Y3185000D01*
X1170000D01*
Y3195000D01*
X1150000D01*
Y3185000D01*
X1140000D01*
Y3165000D01*
X1150000D01*
X1270000Y1910000D02*
Y1900000D01*
X1290000D01*
Y1910000D01*
X1300000D01*
Y1930000D01*
X1290000D01*
Y1940000D01*
X1270000D01*
Y1930000D01*
X1260000D01*
Y1910000D01*
X1270000D01*
X1070000Y1310000D02*
Y1300000D01*
X1090000D01*
Y1310000D01*
X1100000D01*
Y1330000D01*
X1090000D01*
Y1340000D01*
X1070000D01*
Y1330000D01*
X1060000D01*
Y1310000D01*
X1070000D01*
X470000Y1265000D02*
Y1255000D01*
X490000D01*
Y1265000D01*
X500000D01*
Y1285000D01*
X490000D01*
Y1295000D01*
X470000D01*
Y1285000D01*
X460000D01*
Y1265000D01*
X470000D01*
X870000Y1110000D02*
Y1100000D01*
X890000D01*
Y1110000D01*
X900000D01*
Y1130000D01*
X890000D01*
Y1140000D01*
X870000D01*
Y1130000D01*
X860000D01*
Y1110000D01*
X870000D01*
X1070000D02*
Y1100000D01*
X1090000D01*
Y1110000D01*
X1100000D01*
Y1130000D01*
X1090000D01*
Y1140000D01*
X1070000D01*
Y1130000D01*
X1060000D01*
Y1110000D01*
X1070000D01*
X870000Y1310000D02*
Y1300000D01*
X890000D01*
Y1310000D01*
X900000D01*
Y1330000D01*
X890000D01*
Y1340000D01*
X870000D01*
Y1330000D01*
X860000D01*
Y1310000D01*
X870000D01*
X670000Y1510000D02*
Y1500000D01*
X690000D01*
Y1510000D01*
X700000D01*
Y1530000D01*
X690000D01*
Y1540000D01*
X670000D01*
Y1530000D01*
X660000D01*
Y1510000D01*
X670000D01*
X570000Y1610000D02*
Y1600000D01*
X590000D01*
Y1610000D01*
X600000D01*
Y1630000D01*
X590000D01*
Y1640000D01*
X570000D01*
Y1630000D01*
X560000D01*
Y1610000D01*
X570000D01*
X970000D02*
Y1600000D01*
X990000D01*
Y1610000D01*
X1000000D01*
Y1630000D01*
X990000D01*
Y1640000D01*
X970000D01*
Y1630000D01*
X960000D01*
Y1610000D01*
X970000D01*
X1170000Y1810000D02*
Y1800000D01*
X1190000D01*
Y1810000D01*
X1200000D01*
Y1830000D01*
X1190000D01*
Y1840000D01*
X1170000D01*
Y1830000D01*
X1160000D01*
Y1810000D01*
X1170000D01*
X1070000Y1910000D02*
Y1900000D01*
X1090000D01*
Y1910000D01*
X1100000D01*
Y1930000D01*
X1090000D01*
Y1940000D01*
X1070000D01*
Y1930000D01*
X1060000D01*
Y1910000D01*
X1070000D01*
X970000Y1810000D02*
Y1800000D01*
X990000D01*
Y1810000D01*
X1000000D01*
Y1830000D01*
X990000D01*
Y1840000D01*
X970000D01*
Y1830000D01*
X960000D01*
Y1810000D01*
X970000D01*
X1155000Y2865000D02*
Y2855000D01*
X1175000D01*
Y2865000D01*
X1185000D01*
Y2885000D01*
X1175000D01*
Y2895000D01*
X1155000D01*
Y2885000D01*
X1145000D01*
Y2865000D01*
X1155000D01*
X1120000Y2970000D02*
Y2960000D01*
X1140000D01*
Y2970000D01*
X1150000D01*
Y2990000D01*
X1140000D01*
Y3000000D01*
X1120000D01*
Y2990000D01*
X1110000D01*
Y2970000D01*
X1120000D01*
X870000Y1910000D02*
Y1900000D01*
X890000D01*
Y1910000D01*
X900000D01*
Y1930000D01*
X890000D01*
Y1940000D01*
X870000D01*
Y1930000D01*
X860000D01*
Y1910000D01*
X870000D01*
X570000Y2010000D02*
Y2000000D01*
X590000D01*
Y2010000D01*
X600000D01*
Y2030000D01*
X590000D01*
Y2040000D01*
X570000D01*
Y2030000D01*
X560000D01*
Y2010000D01*
X570000D01*
Y1810000D02*
Y1800000D01*
X590000D01*
Y1810000D01*
X600000D01*
Y1830000D01*
X590000D01*
Y1840000D01*
X570000D01*
Y1830000D01*
X560000D01*
Y1810000D01*
X570000D01*
X770000D02*
Y1800000D01*
X790000D01*
Y1810000D01*
X800000D01*
Y1830000D01*
X790000D01*
Y1840000D01*
X770000D01*
Y1830000D01*
X760000D01*
Y1810000D01*
X770000D01*
X670000Y1910000D02*
Y1900000D01*
X690000D01*
Y1910000D01*
X700000D01*
Y1930000D01*
X690000D01*
Y1940000D01*
X670000D01*
Y1930000D01*
X660000D01*
Y1910000D01*
X670000D01*
X770000Y1610000D02*
Y1600000D01*
X790000D01*
Y1610000D01*
X800000D01*
Y1630000D01*
X790000D01*
Y1640000D01*
X770000D01*
Y1630000D01*
X760000D01*
Y1610000D01*
X770000D01*
X670000Y1710000D02*
Y1700000D01*
X690000D01*
Y1710000D01*
X700000D01*
Y1730000D01*
X690000D01*
Y1740000D01*
X670000D01*
Y1730000D01*
X660000D01*
Y1710000D01*
X670000D01*
X870000D02*
Y1700000D01*
X890000D01*
Y1710000D01*
X900000D01*
Y1730000D01*
X890000D01*
Y1740000D01*
X870000D01*
Y1730000D01*
X860000D01*
Y1710000D01*
X870000D01*
X805000Y2720000D02*
Y2710000D01*
X825000D01*
Y2720000D01*
X835000D01*
Y2740000D01*
X825000D01*
Y2750000D01*
X805000D01*
Y2740000D01*
X795000D01*
Y2720000D01*
X805000D01*
X860000Y2290000D02*
Y2280000D01*
X880000D01*
Y2290000D01*
X890000D01*
Y2310000D01*
X880000D01*
Y2320000D01*
X860000D01*
Y2310000D01*
X850000D01*
Y2290000D01*
X860000D01*
X1470000Y2110000D02*
Y2100000D01*
X1490000D01*
Y2110000D01*
X1500000D01*
Y2130000D01*
X1490000D01*
Y2140000D01*
X1470000D01*
Y2130000D01*
X1460000D01*
Y2110000D01*
X1470000D01*
X640000Y2890000D02*
Y2880000D01*
X660000D01*
Y2890000D01*
X670000D01*
Y2910000D01*
X660000D01*
Y2920000D01*
X640000D01*
Y2910000D01*
X630000D01*
Y2890000D01*
X640000D01*
X1010000Y3165000D02*
Y3155000D01*
X1030000D01*
Y3165000D01*
X1040000D01*
Y3185000D01*
X1030000D01*
Y3195000D01*
X1010000D01*
Y3185000D01*
X1000000D01*
Y3165000D01*
X1010000D01*
X1324495Y3010000D02*
Y3000000D01*
X1344495D01*
Y3010000D01*
X1354495D01*
Y3030000D01*
X1344495D01*
Y3040000D01*
X1324495D01*
Y3030000D01*
X1314495D01*
Y3010000D01*
X1324495D01*
X1560000Y2455000D02*
Y2445000D01*
X1580000D01*
Y2455000D01*
X1590000D01*
Y2475000D01*
X1580000D01*
Y2485000D01*
X1560000D01*
Y2475000D01*
X1550000D01*
Y2455000D01*
X1560000D01*
X1210000Y2950000D02*
Y2940000D01*
X1230000D01*
Y2950000D01*
X1240000D01*
Y2970000D01*
X1230000D01*
Y2980000D01*
X1210000D01*
Y2970000D01*
X1200000D01*
Y2950000D01*
X1210000D01*
X1015000Y3310000D02*
Y3300000D01*
X1035000D01*
Y3310000D01*
X1045000D01*
Y3330000D01*
X1035000D01*
Y3340000D01*
X1015000D01*
Y3330000D01*
X1005000D01*
Y3310000D01*
X1015000D01*
X670000Y2110000D02*
Y2100000D01*
X690000D01*
Y2110000D01*
X700000D01*
Y2130000D01*
X690000D01*
Y2140000D01*
X670000D01*
Y2130000D01*
X660000D01*
Y2110000D01*
X670000D01*
X725000Y2940000D02*
Y2930000D01*
X745000D01*
Y2940000D01*
X755000D01*
Y2960000D01*
X745000D01*
Y2970000D01*
X725000D01*
Y2960000D01*
X715000D01*
Y2940000D01*
X725000D01*
X770000Y2010000D02*
Y2000000D01*
X790000D01*
Y2010000D01*
X800000D01*
Y2030000D01*
X790000D01*
Y2040000D01*
X770000D01*
Y2030000D01*
X760000D01*
Y2010000D01*
X770000D01*
X70000Y1310000D02*
Y1300000D01*
X90000D01*
Y1310000D01*
X100000D01*
Y1330000D01*
X90000D01*
Y1340000D01*
X70000D01*
Y1330000D01*
X60000D01*
Y1310000D01*
X70000D01*
X470000Y1510000D02*
Y1500000D01*
X490000D01*
Y1510000D01*
X500000D01*
Y1530000D01*
X490000D01*
Y1540000D01*
X470000D01*
Y1530000D01*
X460000D01*
Y1510000D01*
X470000D01*
X70000D02*
Y1500000D01*
X90000D01*
Y1510000D01*
X100000D01*
Y1530000D01*
X90000D01*
Y1540000D01*
X70000D01*
Y1530000D01*
X60000D01*
Y1510000D01*
X70000D01*
X270000D02*
Y1500000D01*
X290000D01*
Y1510000D01*
X300000D01*
Y1530000D01*
X290000D01*
Y1540000D01*
X270000D01*
Y1530000D01*
X260000D01*
Y1510000D01*
X270000D01*
X170000Y1410000D02*
Y1400000D01*
X190000D01*
Y1410000D01*
X200000D01*
Y1430000D01*
X190000D01*
Y1440000D01*
X170000D01*
Y1430000D01*
X160000D01*
Y1410000D01*
X170000D01*
X470000Y1710000D02*
Y1700000D01*
X490000D01*
Y1710000D01*
X500000D01*
Y1730000D01*
X490000D01*
Y1740000D01*
X470000D01*
Y1730000D01*
X460000D01*
Y1710000D01*
X470000D01*
X70000D02*
Y1700000D01*
X90000D01*
Y1710000D01*
X100000D01*
Y1730000D01*
X90000D01*
Y1740000D01*
X70000D01*
Y1730000D01*
X60000D01*
Y1710000D01*
X70000D01*
X270000D02*
Y1700000D01*
X290000D01*
Y1710000D01*
X300000D01*
Y1730000D01*
X290000D01*
Y1740000D01*
X270000D01*
Y1730000D01*
X260000D01*
Y1710000D01*
X270000D01*
X370000Y1610000D02*
Y1600000D01*
X390000D01*
Y1610000D01*
X400000D01*
Y1630000D01*
X390000D01*
Y1640000D01*
X370000D01*
Y1630000D01*
X360000D01*
Y1610000D01*
X370000D01*
X170000D02*
Y1600000D01*
X190000D01*
Y1610000D01*
X200000D01*
Y1630000D01*
X190000D01*
Y1640000D01*
X170000D01*
Y1630000D01*
X160000D01*
Y1610000D01*
X170000D01*
X470000Y1910000D02*
Y1900000D01*
X490000D01*
Y1910000D01*
X500000D01*
Y1930000D01*
X490000D01*
Y1940000D01*
X470000D01*
Y1930000D01*
X460000D01*
Y1910000D01*
X470000D01*
X70000D02*
Y1900000D01*
X90000D01*
Y1910000D01*
X100000D01*
Y1930000D01*
X90000D01*
Y1940000D01*
X70000D01*
Y1930000D01*
X60000D01*
Y1910000D01*
X70000D01*
X270000D02*
Y1900000D01*
X290000D01*
Y1910000D01*
X300000D01*
Y1930000D01*
X290000D01*
Y1940000D01*
X270000D01*
Y1930000D01*
X260000D01*
Y1910000D01*
X270000D01*
X370000Y1810000D02*
Y1800000D01*
X390000D01*
Y1810000D01*
X400000D01*
Y1830000D01*
X390000D01*
Y1840000D01*
X370000D01*
Y1830000D01*
X360000D01*
Y1810000D01*
X370000D01*
X170000D02*
Y1800000D01*
X190000D01*
Y1810000D01*
X200000D01*
Y1830000D01*
X190000D01*
Y1840000D01*
X170000D01*
Y1830000D01*
X160000D01*
Y1810000D01*
X170000D01*
X470000Y2110000D02*
Y2100000D01*
X490000D01*
Y2110000D01*
X500000D01*
Y2130000D01*
X490000D01*
Y2140000D01*
X470000D01*
Y2130000D01*
X460000D01*
Y2110000D01*
X470000D01*
X70000D02*
Y2100000D01*
X90000D01*
Y2110000D01*
X100000D01*
Y2130000D01*
X90000D01*
Y2140000D01*
X70000D01*
Y2130000D01*
X60000D01*
Y2110000D01*
X70000D01*
X270000D02*
Y2100000D01*
X290000D01*
Y2110000D01*
X300000D01*
Y2130000D01*
X290000D01*
Y2140000D01*
X270000D01*
Y2130000D01*
X260000D01*
Y2110000D01*
X270000D01*
X370000Y2010000D02*
Y2000000D01*
X390000D01*
Y2010000D01*
X400000D01*
Y2030000D01*
X390000D01*
Y2040000D01*
X370000D01*
Y2030000D01*
X360000D01*
Y2010000D01*
X370000D01*
X170000D02*
Y2000000D01*
X190000D01*
Y2010000D01*
X200000D01*
Y2030000D01*
X190000D01*
Y2040000D01*
X170000D01*
Y2030000D01*
X160000D01*
Y2010000D01*
X170000D01*
X70000Y2310000D02*
Y2300000D01*
X90000D01*
Y2310000D01*
X100000D01*
Y2330000D01*
X90000D01*
Y2340000D01*
X70000D01*
Y2330000D01*
X60000D01*
Y2310000D01*
X70000D01*
X270000D02*
Y2300000D01*
X290000D01*
Y2310000D01*
X300000D01*
Y2330000D01*
X290000D01*
Y2340000D01*
X270000D01*
Y2330000D01*
X260000D01*
Y2310000D01*
X270000D01*
X370000Y2210000D02*
Y2200000D01*
X390000D01*
Y2210000D01*
X400000D01*
Y2230000D01*
X390000D01*
Y2240000D01*
X370000D01*
Y2230000D01*
X360000D01*
Y2210000D01*
X370000D01*
X170000D02*
Y2200000D01*
X190000D01*
Y2210000D01*
X200000D01*
Y2230000D01*
X190000D01*
Y2240000D01*
X170000D01*
Y2230000D01*
X160000D01*
Y2210000D01*
X170000D01*
X70000Y2510000D02*
Y2500000D01*
X90000D01*
Y2510000D01*
X100000D01*
Y2530000D01*
X90000D01*
Y2540000D01*
X70000D01*
Y2530000D01*
X60000D01*
Y2510000D01*
X70000D01*
X455000Y2465000D02*
Y2455000D01*
X475000D01*
Y2465000D01*
X485000D01*
Y2485000D01*
X475000D01*
Y2495000D01*
X455000D01*
Y2485000D01*
X445000D01*
Y2465000D01*
X455000D01*
X170000Y2410000D02*
Y2400000D01*
X190000D01*
Y2410000D01*
X200000D01*
Y2430000D01*
X190000D01*
Y2440000D01*
X170000D01*
Y2430000D01*
X160000D01*
Y2410000D01*
X170000D01*
X70000Y2710000D02*
Y2700000D01*
X90000D01*
Y2710000D01*
X100000D01*
Y2730000D01*
X90000D01*
Y2740000D01*
X70000D01*
Y2730000D01*
X60000D01*
Y2710000D01*
X70000D01*
X270000D02*
Y2700000D01*
X290000D01*
Y2710000D01*
X300000D01*
Y2730000D01*
X290000D01*
Y2740000D01*
X270000D01*
Y2730000D01*
X260000D01*
Y2710000D01*
X270000D01*
X170000Y2610000D02*
Y2600000D01*
X190000D01*
Y2610000D01*
X200000D01*
Y2630000D01*
X190000D01*
Y2640000D01*
X170000D01*
Y2630000D01*
X160000D01*
Y2610000D01*
X170000D01*
X70000Y2910000D02*
Y2900000D01*
X90000D01*
Y2910000D01*
X100000D01*
Y2930000D01*
X90000D01*
Y2940000D01*
X70000D01*
Y2930000D01*
X60000D01*
Y2910000D01*
X70000D01*
X270000D02*
Y2900000D01*
X290000D01*
Y2910000D01*
X300000D01*
Y2930000D01*
X290000D01*
Y2940000D01*
X270000D01*
Y2930000D01*
X260000D01*
Y2910000D01*
X270000D01*
X170000Y2810000D02*
Y2800000D01*
X190000D01*
Y2810000D01*
X200000D01*
Y2830000D01*
X190000D01*
Y2840000D01*
X170000D01*
Y2830000D01*
X160000D01*
Y2810000D01*
X170000D01*
X70000Y3110000D02*
Y3100000D01*
X90000D01*
Y3110000D01*
X100000D01*
Y3130000D01*
X90000D01*
Y3140000D01*
X70000D01*
Y3130000D01*
X60000D01*
Y3110000D01*
X70000D01*
X270000D02*
Y3100000D01*
X290000D01*
Y3110000D01*
X300000D01*
Y3130000D01*
X290000D01*
Y3140000D01*
X270000D01*
Y3130000D01*
X260000D01*
Y3110000D01*
X270000D01*
X170000Y3010000D02*
Y3000000D01*
X190000D01*
Y3010000D01*
X200000D01*
Y3030000D01*
X190000D01*
Y3040000D01*
X170000D01*
Y3030000D01*
X160000D01*
Y3010000D01*
X170000D01*
X70000Y3310000D02*
Y3300000D01*
X90000D01*
Y3310000D01*
X100000D01*
Y3330000D01*
X90000D01*
Y3340000D01*
X70000D01*
Y3330000D01*
X60000D01*
Y3310000D01*
X70000D01*
X270000D02*
Y3300000D01*
X290000D01*
Y3310000D01*
X300000D01*
Y3330000D01*
X290000D01*
Y3340000D01*
X270000D01*
Y3330000D01*
X260000D01*
Y3310000D01*
X270000D01*
X370000Y3210000D02*
Y3200000D01*
X390000D01*
Y3210000D01*
X400000D01*
Y3230000D01*
X390000D01*
Y3240000D01*
X370000D01*
Y3230000D01*
X360000D01*
Y3210000D01*
X370000D01*
X170000D02*
Y3200000D01*
X190000D01*
Y3210000D01*
X200000D01*
Y3230000D01*
X190000D01*
Y3240000D01*
X170000D01*
Y3230000D01*
X160000D01*
Y3210000D01*
X170000D01*
Y3410000D02*
Y3400000D01*
X190000D01*
Y3410000D01*
X200000D01*
Y3430000D01*
X190000D01*
Y3440000D01*
X170000D01*
Y3430000D01*
X160000D01*
Y3410000D01*
X170000D01*
X370000D02*
Y3400000D01*
X390000D01*
Y3410000D01*
X400000D01*
Y3430000D01*
X390000D01*
Y3440000D01*
X370000D01*
Y3430000D01*
X360000D01*
Y3410000D01*
X370000D01*
X270000Y3510000D02*
Y3500000D01*
X290000D01*
Y3510000D01*
X300000D01*
Y3530000D01*
X290000D01*
Y3540000D01*
X270000D01*
Y3530000D01*
X260000D01*
Y3510000D01*
X270000D01*
X70000D02*
Y3500000D01*
X90000D01*
Y3510000D01*
X100000D01*
Y3530000D01*
X90000D01*
Y3540000D01*
X70000D01*
Y3530000D01*
X60000D01*
Y3510000D01*
X70000D01*
X3470000Y3710000D02*
Y3700000D01*
X3490000D01*
Y3710000D01*
X3500000D01*
Y3730000D01*
X3490000D01*
Y3740000D01*
X3470000D01*
Y3730000D01*
X3460000D01*
Y3710000D01*
X3470000D01*
X3370000Y3610000D02*
Y3600000D01*
X3390000D01*
Y3610000D01*
X3400000D01*
Y3630000D01*
X3390000D01*
Y3640000D01*
X3370000D01*
Y3630000D01*
X3360000D01*
Y3610000D01*
X3370000D01*
X3270000Y3710000D02*
Y3700000D01*
X3290000D01*
Y3710000D01*
X3300000D01*
Y3730000D01*
X3290000D01*
Y3740000D01*
X3270000D01*
Y3730000D01*
X3260000D01*
Y3710000D01*
X3270000D01*
X3170000Y3610000D02*
Y3600000D01*
X3190000D01*
Y3610000D01*
X3200000D01*
Y3630000D01*
X3190000D01*
Y3640000D01*
X3170000D01*
Y3630000D01*
X3160000D01*
Y3610000D01*
X3170000D01*
X3070000Y3710000D02*
Y3700000D01*
X3090000D01*
Y3710000D01*
X3100000D01*
Y3730000D01*
X3090000D01*
Y3740000D01*
X3070000D01*
Y3730000D01*
X3060000D01*
Y3710000D01*
X3070000D01*
X2970000Y3610000D02*
Y3600000D01*
X2990000D01*
Y3610000D01*
X3000000D01*
Y3630000D01*
X2990000D01*
Y3640000D01*
X2970000D01*
Y3630000D01*
X2960000D01*
Y3610000D01*
X2970000D01*
X2870000Y3710000D02*
Y3700000D01*
X2890000D01*
Y3710000D01*
X2900000D01*
Y3730000D01*
X2890000D01*
Y3740000D01*
X2870000D01*
Y3730000D01*
X2860000D01*
Y3710000D01*
X2870000D01*
X2770000Y3610000D02*
Y3600000D01*
X2790000D01*
Y3610000D01*
X2800000D01*
Y3630000D01*
X2790000D01*
Y3640000D01*
X2770000D01*
Y3630000D01*
X2760000D01*
Y3610000D01*
X2770000D01*
X2670000Y3710000D02*
Y3700000D01*
X2690000D01*
Y3710000D01*
X2700000D01*
Y3730000D01*
X2690000D01*
Y3740000D01*
X2670000D01*
Y3730000D01*
X2660000D01*
Y3710000D01*
X2670000D01*
X2570000Y3610000D02*
Y3600000D01*
X2590000D01*
Y3610000D01*
X2600000D01*
Y3630000D01*
X2590000D01*
Y3640000D01*
X2570000D01*
Y3630000D01*
X2560000D01*
Y3610000D01*
X2570000D01*
X2470000Y3710000D02*
Y3700000D01*
X2490000D01*
Y3710000D01*
X2500000D01*
Y3730000D01*
X2490000D01*
Y3740000D01*
X2470000D01*
Y3730000D01*
X2460000D01*
Y3710000D01*
X2470000D01*
X2370000Y3610000D02*
Y3600000D01*
X2390000D01*
Y3610000D01*
X2400000D01*
Y3630000D01*
X2390000D01*
Y3640000D01*
X2370000D01*
Y3630000D01*
X2360000D01*
Y3610000D01*
X2370000D01*
X2270000Y3710000D02*
Y3700000D01*
X2290000D01*
Y3710000D01*
X2300000D01*
Y3730000D01*
X2290000D01*
Y3740000D01*
X2270000D01*
Y3730000D01*
X2260000D01*
Y3710000D01*
X2270000D01*
X2170000Y3610000D02*
Y3600000D01*
X2190000D01*
Y3610000D01*
X2200000D01*
Y3630000D01*
X2190000D01*
Y3640000D01*
X2170000D01*
Y3630000D01*
X2160000D01*
Y3610000D01*
X2170000D01*
X2070000Y3710000D02*
Y3700000D01*
X2090000D01*
Y3710000D01*
X2100000D01*
Y3730000D01*
X2090000D01*
Y3740000D01*
X2070000D01*
Y3730000D01*
X2060000D01*
Y3710000D01*
X2070000D01*
X1970000Y3610000D02*
Y3600000D01*
X1990000D01*
Y3610000D01*
X2000000D01*
Y3630000D01*
X1990000D01*
Y3640000D01*
X1970000D01*
Y3630000D01*
X1960000D01*
Y3610000D01*
X1970000D01*
X1870000Y3710000D02*
Y3700000D01*
X1890000D01*
Y3710000D01*
X1900000D01*
Y3730000D01*
X1890000D01*
Y3740000D01*
X1870000D01*
Y3730000D01*
X1860000D01*
Y3710000D01*
X1870000D01*
X1770000Y3610000D02*
Y3600000D01*
X1790000D01*
Y3610000D01*
X1800000D01*
Y3630000D01*
X1790000D01*
Y3640000D01*
X1770000D01*
Y3630000D01*
X1760000D01*
Y3610000D01*
X1770000D01*
X1670000Y3710000D02*
Y3700000D01*
X1690000D01*
Y3710000D01*
X1700000D01*
Y3730000D01*
X1690000D01*
Y3740000D01*
X1670000D01*
Y3730000D01*
X1660000D01*
Y3710000D01*
X1670000D01*
X1570000Y3610000D02*
Y3600000D01*
X1590000D01*
Y3610000D01*
X1600000D01*
Y3630000D01*
X1590000D01*
Y3640000D01*
X1570000D01*
Y3630000D01*
X1560000D01*
Y3610000D01*
X1570000D01*
X1470000Y3710000D02*
Y3700000D01*
X1490000D01*
Y3710000D01*
X1500000D01*
Y3730000D01*
X1490000D01*
Y3740000D01*
X1470000D01*
Y3730000D01*
X1460000D01*
Y3710000D01*
X1470000D01*
X1370000Y3610000D02*
Y3600000D01*
X1390000D01*
Y3610000D01*
X1400000D01*
Y3630000D01*
X1390000D01*
Y3640000D01*
X1370000D01*
Y3630000D01*
X1360000D01*
Y3610000D01*
X1370000D01*
X1270000Y3710000D02*
Y3700000D01*
X1290000D01*
Y3710000D01*
X1300000D01*
Y3730000D01*
X1290000D01*
Y3740000D01*
X1270000D01*
Y3730000D01*
X1260000D01*
Y3710000D01*
X1270000D01*
X1170000Y3610000D02*
Y3600000D01*
X1190000D01*
Y3610000D01*
X1200000D01*
Y3630000D01*
X1190000D01*
Y3640000D01*
X1170000D01*
Y3630000D01*
X1160000D01*
Y3610000D01*
X1170000D01*
X1070000Y3710000D02*
Y3700000D01*
X1090000D01*
Y3710000D01*
X1100000D01*
Y3730000D01*
X1090000D01*
Y3740000D01*
X1070000D01*
Y3730000D01*
X1060000D01*
Y3710000D01*
X1070000D01*
X970000Y3610000D02*
Y3600000D01*
X990000D01*
Y3610000D01*
X1000000D01*
Y3630000D01*
X990000D01*
Y3640000D01*
X970000D01*
Y3630000D01*
X960000D01*
Y3610000D01*
X970000D01*
X870000Y3710000D02*
Y3700000D01*
X890000D01*
Y3710000D01*
X900000D01*
Y3730000D01*
X890000D01*
Y3740000D01*
X870000D01*
Y3730000D01*
X860000D01*
Y3710000D01*
X870000D01*
X770000Y3610000D02*
Y3600000D01*
X790000D01*
Y3610000D01*
X800000D01*
Y3630000D01*
X790000D01*
Y3640000D01*
X770000D01*
Y3630000D01*
X760000D01*
Y3610000D01*
X770000D01*
X670000Y3710000D02*
Y3700000D01*
X690000D01*
Y3710000D01*
X700000D01*
Y3730000D01*
X690000D01*
Y3740000D01*
X670000D01*
Y3730000D01*
X660000D01*
Y3710000D01*
X670000D01*
X570000Y3610000D02*
Y3600000D01*
X590000D01*
Y3610000D01*
X600000D01*
Y3630000D01*
X590000D01*
Y3640000D01*
X570000D01*
Y3630000D01*
X560000D01*
Y3610000D01*
X570000D01*
X170000D02*
Y3600000D01*
X190000D01*
Y3610000D01*
X200000D01*
Y3630000D01*
X190000D01*
Y3640000D01*
X170000D01*
Y3630000D01*
X160000D01*
Y3610000D01*
X170000D01*
X270000Y3710000D02*
Y3700000D01*
X290000D01*
Y3710000D01*
X300000D01*
Y3730000D01*
X290000D01*
Y3740000D01*
X270000D01*
Y3730000D01*
X260000D01*
Y3710000D01*
X270000D01*
X370000Y3610000D02*
Y3600000D01*
X390000D01*
Y3610000D01*
X400000D01*
Y3630000D01*
X390000D01*
Y3640000D01*
X370000D01*
Y3630000D01*
X360000D01*
Y3610000D01*
X370000D01*
X470000Y3710000D02*
Y3700000D01*
X490000D01*
Y3710000D01*
X500000D01*
Y3730000D01*
X490000D01*
Y3740000D01*
X470000D01*
Y3730000D01*
X460000D01*
Y3710000D01*
X470000D01*
X2960000Y2350000D02*
X2970000D01*
X2980000Y2360000D01*
X2990000Y2350000D01*
X3000000D01*
Y2360000D01*
X2990000Y2370000D01*
X3000000Y2380000D01*
Y2390000D01*
X2990000D01*
X2980000Y2380000D01*
X2970000Y2390000D01*
X2960000D01*
Y2380000D01*
X2970000Y2370000D01*
X2960000Y2360000D01*
Y2350000D01*
X3105000Y2220000D02*
X3115000D01*
X3125000Y2230000D01*
X3135000Y2220000D01*
X3145000D01*
Y2230000D01*
X3135000Y2240000D01*
X3145000Y2250000D01*
Y2260000D01*
X3135000D01*
X3125000Y2250000D01*
X3115000Y2260000D01*
X3105000D01*
Y2250000D01*
X3115000Y2240000D01*
X3105000Y2230000D01*
Y2220000D01*
X3165000Y2160000D02*
X3175000D01*
X3185000Y2170000D01*
X3195000Y2160000D01*
X3205000D01*
Y2170000D01*
X3195000Y2180000D01*
X3205000Y2190000D01*
Y2200000D01*
X3195000D01*
X3185000Y2190000D01*
X3175000Y2200000D01*
X3165000D01*
Y2190000D01*
X3175000Y2180000D01*
X3165000Y2170000D01*
Y2160000D01*
X1565000Y1960000D02*
X1575000D01*
X1585000Y1970000D01*
X1595000Y1960000D01*
X1605000D01*
Y1970000D01*
X1595000Y1980000D01*
X1605000Y1990000D01*
Y2000000D01*
X1595000D01*
X1585000Y1990000D01*
X1575000Y2000000D01*
X1565000D01*
Y1990000D01*
X1575000Y1980000D01*
X1565000Y1970000D01*
Y1960000D01*
X1350000Y1955000D02*
X1360000D01*
X1370000Y1965000D01*
X1380000Y1955000D01*
X1390000D01*
Y1965000D01*
X1380000Y1975000D01*
X1390000Y1985000D01*
Y1995000D01*
X1380000D01*
X1370000Y1985000D01*
X1360000Y1995000D01*
X1350000D01*
Y1985000D01*
X1360000Y1975000D01*
X1350000Y1965000D01*
Y1955000D01*
X1445000Y1960000D02*
X1455000D01*
X1465000Y1970000D01*
X1475000Y1960000D01*
X1485000D01*
Y1970000D01*
X1475000Y1980000D01*
X1485000Y1990000D01*
Y2000000D01*
X1475000D01*
X1465000Y1990000D01*
X1455000Y2000000D01*
X1445000D01*
Y1990000D01*
X1455000Y1980000D01*
X1445000Y1970000D01*
Y1960000D01*
X1720000Y1895000D02*
X1730000D01*
X1740000Y1905000D01*
X1750000Y1895000D01*
X1760000D01*
Y1905000D01*
X1750000Y1915000D01*
X1760000Y1925000D01*
Y1935000D01*
X1750000D01*
X1740000Y1925000D01*
X1730000Y1935000D01*
X1720000D01*
Y1925000D01*
X1730000Y1915000D01*
X1720000Y1905000D01*
Y1895000D01*
X2785000Y1950000D02*
X2795000D01*
X2805000Y1960000D01*
X2815000Y1950000D01*
X2825000D01*
Y1960000D01*
X2815000Y1970000D01*
X2825000Y1980000D01*
Y1990000D01*
X2815000D01*
X2805000Y1980000D01*
X2795000Y1990000D01*
X2785000D01*
Y1980000D01*
X2795000Y1970000D01*
X2785000Y1960000D01*
Y1950000D01*
X2875000D02*
X2885000D01*
X2895000Y1960000D01*
X2905000Y1950000D01*
X2915000D01*
Y1960000D01*
X2905000Y1970000D01*
X2915000Y1980000D01*
Y1990000D01*
X2905000D01*
X2895000Y1980000D01*
X2885000Y1990000D01*
X2875000D01*
Y1980000D01*
X2885000Y1970000D01*
X2875000Y1960000D01*
Y1950000D01*
D83*
X2790000Y1210591D02*
G03*
X2790000Y1210591I-20000J0D01*
G01*
Y1110591D02*
G03*
X2790000Y1110591I-20000J0D01*
G01*
Y935000D02*
G03*
X2790000Y935000I-20000J0D01*
G01*
Y710591D02*
G03*
X2790000Y710591I-20000J0D01*
G01*
X780000Y1210591D02*
G03*
X780000Y1210591I-20000J0D01*
G01*
Y1110591D02*
G03*
X780000Y1110591I-20000J0D01*
G01*
Y935000D02*
G03*
X780000Y935000I-20000J0D01*
G01*
Y710591D02*
G03*
X780000Y710591I-20000J0D01*
G01*
X1764370Y1215591D02*
G03*
X1764370Y1215591I-20000J0D01*
G01*
Y1115591D02*
G03*
X1764370Y1115591I-20000J0D01*
G01*
Y940000D02*
G03*
X1764370Y940000I-20000J0D01*
G01*
Y715591D02*
G03*
X1764370Y715591I-20000J0D01*
G01*
X2085001Y2450000D02*
G03*
X2085001Y2450000I-20000J0D01*
G01*
X1985001D02*
G03*
X1985001Y2450000I-20000J0D01*
G01*
X2585001D02*
G03*
X2585001Y2450000I-20000J0D01*
G01*
X2485001D02*
G03*
X2485001Y2450000I-20000J0D01*
G01*
X2385001D02*
G03*
X2385001Y2450000I-20000J0D01*
G01*
X2285001D02*
G03*
X2285001Y2450000I-20000J0D01*
G01*
X2185001D02*
G03*
X2185001Y2450000I-20000J0D01*
G01*
X1885001D02*
G03*
X1885001Y2450000I-20000J0D01*
G01*
X2085001Y2550000D02*
G03*
X2085001Y2550000I-20000J0D01*
G01*
X1985001D02*
G03*
X1985001Y2550000I-20000J0D01*
G01*
X2585001D02*
G03*
X2585001Y2550000I-20000J0D01*
G01*
X2485001D02*
G03*
X2485001Y2550000I-20000J0D01*
G01*
X2385001D02*
G03*
X2385001Y2550000I-20000J0D01*
G01*
X2285001D02*
G03*
X2285001Y2550000I-20000J0D01*
G01*
X2185001D02*
G03*
X2185001Y2550000I-20000J0D01*
G01*
X1885001D02*
G03*
X1885001Y2550000I-20000J0D01*
G01*
X3170001Y2450000D02*
G03*
X3170001Y2450000I-20000J0D01*
G01*
X3070001D02*
G03*
X3070001Y2450000I-20000J0D01*
G01*
X3670001D02*
G03*
X3670001Y2450000I-20000J0D01*
G01*
X3570001D02*
G03*
X3570001Y2450000I-20000J0D01*
G01*
X3470001D02*
G03*
X3470001Y2450000I-20000J0D01*
G01*
X3370001D02*
G03*
X3370001Y2450000I-20000J0D01*
G01*
X3270001D02*
G03*
X3270001Y2450000I-20000J0D01*
G01*
X2970001D02*
G03*
X2970001Y2450000I-20000J0D01*
G01*
X3170001Y2550000D02*
G03*
X3170001Y2550000I-20000J0D01*
G01*
X3070001D02*
G03*
X3070001Y2550000I-20000J0D01*
G01*
X3670001D02*
G03*
X3670001Y2550000I-20000J0D01*
G01*
X3570001D02*
G03*
X3570001Y2550000I-20000J0D01*
G01*
X3470001D02*
G03*
X3470001Y2550000I-20000J0D01*
G01*
X3370001D02*
G03*
X3370001Y2550000I-20000J0D01*
G01*
X3270001D02*
G03*
X3270001Y2550000I-20000J0D01*
G01*
X2970001D02*
G03*
X2970001Y2550000I-20000J0D01*
G01*
X3385000Y465000D02*
G03*
X3385000Y465000I-20000J0D01*
G01*
Y765000D02*
G03*
X3385000Y765000I-20000J0D01*
G01*
Y865000D02*
G03*
X3385000Y865000I-20000J0D01*
G01*
Y965000D02*
G03*
X3385000Y965000I-20000J0D01*
G01*
Y1065000D02*
G03*
X3385000Y1065000I-20000J0D01*
G01*
Y1165000D02*
G03*
X3385000Y1165000I-20000J0D01*
G01*
Y565000D02*
G03*
X3385000Y565000I-20000J0D01*
G01*
Y665000D02*
G03*
X3385000Y665000I-20000J0D01*
G01*
X3280000Y465000D02*
G03*
X3280000Y465000I-20000J0D01*
G01*
Y765000D02*
G03*
X3280000Y765000I-20000J0D01*
G01*
Y865000D02*
G03*
X3280000Y865000I-20000J0D01*
G01*
Y965000D02*
G03*
X3280000Y965000I-20000J0D01*
G01*
Y1065000D02*
G03*
X3280000Y1065000I-20000J0D01*
G01*
Y1165000D02*
G03*
X3280000Y1165000I-20000J0D01*
G01*
Y565000D02*
G03*
X3280000Y565000I-20000J0D01*
G01*
Y665000D02*
G03*
X3280000Y665000I-20000J0D01*
G01*
X1665000Y3505000D02*
G03*
X1665000Y3505000I-20000J0D01*
G01*
X1965000D02*
G03*
X1965000Y3505000I-20000J0D01*
G01*
X2065000D02*
G03*
X2065000Y3505000I-20000J0D01*
G01*
X2165000D02*
G03*
X2165000Y3505000I-20000J0D01*
G01*
X2265000D02*
G03*
X2265000Y3505000I-20000J0D01*
G01*
X2365000D02*
G03*
X2365000Y3505000I-20000J0D01*
G01*
X1765000D02*
G03*
X1765000Y3505000I-20000J0D01*
G01*
X1865000D02*
G03*
X1865000Y3505000I-20000J0D01*
G01*
X1665000Y3135000D02*
G03*
X1665000Y3135000I-20000J0D01*
G01*
X1965000D02*
G03*
X1965000Y3135000I-20000J0D01*
G01*
X2065000D02*
G03*
X2065000Y3135000I-20000J0D01*
G01*
X2165000D02*
G03*
X2165000Y3135000I-20000J0D01*
G01*
X2265000D02*
G03*
X2265000Y3135000I-20000J0D01*
G01*
X2365000D02*
G03*
X2365000Y3135000I-20000J0D01*
G01*
X1765000D02*
G03*
X1765000Y3135000I-20000J0D01*
G01*
X1865000D02*
G03*
X1865000Y3135000I-20000J0D01*
G01*
%TF.MD5,7a45271521fc366b8d109ceaeaa71568*%
M02*
