G04 Layer_Color=2752767*
%FSLAX26Y26*%
%MOIN*%
%TF.FileFunction,Drawing*%
%TF.Part,Single*%
G01*
G75*
%TA.AperFunction,NonConductor*%
%ADD48C,0.005000*%
%ADD97C,0.006667*%
%ADD98C,0.004000*%
D48*
X-20000Y-20000D02*
Y20000D01*
X20000D01*
Y-20000D01*
X-20000D01*
X3759526D02*
Y20000D01*
X3799526D01*
Y-20000D01*
X3759526D01*
Y3759528D02*
Y3799528D01*
X3799526D01*
Y3759528D01*
X3759526D01*
X-20000D02*
Y3799528D01*
X20000D01*
Y3759528D01*
X-20000D01*
X625002Y2570000D02*
X605002Y2610000D01*
X645002D01*
X625002Y2570000D01*
X525002D02*
X505002Y2610000D01*
X545002D01*
X525002Y2570000D01*
X425002D02*
X405002Y2610000D01*
X445002D01*
X425002Y2570000D01*
X625002Y1810500D02*
X605002Y1850500D01*
X645002D01*
X625002Y1810500D01*
X525002D02*
X505002Y1850500D01*
X545002D01*
X525002Y1810500D01*
X425002D02*
X405002Y1850500D01*
X445002D01*
X425002Y1810500D01*
X625002Y1051000D02*
X605002Y1091000D01*
X645002D01*
X625002Y1051000D01*
X525002D02*
X505002Y1091000D01*
X545002D01*
X525002Y1051000D01*
X425002D02*
X405002Y1091000D01*
X445002D01*
X425002Y1051000D01*
X3761001Y2090000D02*
X3741001Y2130000D01*
X3781001D01*
X3761001Y2090000D01*
X3661001D02*
X3641001Y2130000D01*
X3681001D01*
X3661001Y2090000D01*
X3561001D02*
X3541001Y2130000D01*
X3581001D01*
X3561001Y2090000D01*
X3554996Y1695000D02*
X3534996Y1735000D01*
X3574996D01*
X3554996Y1695000D01*
X3654996D02*
X3634996Y1735000D01*
X3674996D01*
X3654996Y1695000D01*
X3754996D02*
X3734996Y1735000D01*
X3774996D01*
X3754996Y1695000D01*
X3325001Y985000D02*
X3305001Y1025000D01*
X3345001D01*
X3325001Y985000D01*
X3225001D02*
X3205001Y1025000D01*
X3245001D01*
X3225001Y985000D01*
X3125001D02*
X3105001Y1025000D01*
X3145001D01*
X3125001Y985000D01*
X3754999Y985000D02*
X3734999Y1025000D01*
X3774999D01*
X3754999Y985000D01*
X3654999D02*
X3634999Y1025000D01*
X3674999D01*
X3654999Y985000D01*
X3554999D02*
X3534999Y1025000D01*
X3574999D01*
X3554999Y985000D01*
X3754999Y1340413D02*
X3734999Y1380413D01*
X3774999D01*
X3754999Y1340413D01*
X3654999D02*
X3634999Y1380413D01*
X3674999D01*
X3654999Y1340413D01*
X3554999D02*
X3534999Y1380413D01*
X3574999D01*
X3554999Y1340413D01*
X2065000Y2530000D02*
X2075000Y2540000D01*
X2085000D01*
X2075000Y2550000D01*
X2085000Y2560000D01*
X2075000D01*
X2065000Y2570000D01*
X2055000Y2560000D01*
X2045000D01*
X2055000Y2550000D01*
X2045000Y2540000D01*
X2055000D01*
X2065000Y2530000D01*
X1965000D02*
X1975000Y2540000D01*
X1985000D01*
X1975000Y2550000D01*
X1985000Y2560000D01*
X1975000D01*
X1965000Y2570000D01*
X1955000Y2560000D01*
X1945000D01*
X1955000Y2550000D01*
X1945000Y2540000D01*
X1955000D01*
X1965000Y2530000D01*
X2565000D02*
X2575000Y2540000D01*
X2585000D01*
X2575000Y2550000D01*
X2585000Y2560000D01*
X2575000D01*
X2565000Y2570000D01*
X2555000Y2560000D01*
X2545000D01*
X2555000Y2550000D01*
X2545000Y2540000D01*
X2555000D01*
X2565000Y2530000D01*
X2465000D02*
X2475000Y2540000D01*
X2485000D01*
X2475000Y2550000D01*
X2485000Y2560000D01*
X2475000D01*
X2465000Y2570000D01*
X2455000Y2560000D01*
X2445000D01*
X2455000Y2550000D01*
X2445000Y2540000D01*
X2455000D01*
X2465000Y2530000D01*
X2365000D02*
X2375000Y2540000D01*
X2385000D01*
X2375000Y2550000D01*
X2385000Y2560000D01*
X2375000D01*
X2365000Y2570000D01*
X2355000Y2560000D01*
X2345000D01*
X2355000Y2550000D01*
X2345000Y2540000D01*
X2355000D01*
X2365000Y2530000D01*
X2265000D02*
X2275000Y2540000D01*
X2285000D01*
X2275000Y2550000D01*
X2285000Y2560000D01*
X2275000D01*
X2265000Y2570000D01*
X2255000Y2560000D01*
X2245000D01*
X2255000Y2550000D01*
X2245000Y2540000D01*
X2255000D01*
X2265000Y2530000D01*
X2165000D02*
X2175000Y2540000D01*
X2185000D01*
X2175000Y2550000D01*
X2185000Y2560000D01*
X2175000D01*
X2165000Y2570000D01*
X2155000Y2560000D01*
X2145000D01*
X2155000Y2550000D01*
X2145000Y2540000D01*
X2155000D01*
X2165000Y2530000D01*
X1865000D02*
X1875000Y2540000D01*
X1885000D01*
X1875000Y2550000D01*
X1885000Y2560000D01*
X1875000D01*
X1865000Y2570000D01*
X1855000Y2560000D01*
X1845000D01*
X1855000Y2550000D01*
X1845000Y2540000D01*
X1855000D01*
X1865000Y2530000D01*
X2065000Y2430000D02*
X2075000Y2440000D01*
X2085000D01*
X2075000Y2450000D01*
X2085000Y2460000D01*
X2075000D01*
X2065000Y2470000D01*
X2055000Y2460000D01*
X2045000D01*
X2055000Y2450000D01*
X2045000Y2440000D01*
X2055000D01*
X2065000Y2430000D01*
X1965000D02*
X1975000Y2440000D01*
X1985000D01*
X1975000Y2450000D01*
X1985000Y2460000D01*
X1975000D01*
X1965000Y2470000D01*
X1955000Y2460000D01*
X1945000D01*
X1955000Y2450000D01*
X1945000Y2440000D01*
X1955000D01*
X1965000Y2430000D01*
X2565000D02*
X2575000Y2440000D01*
X2585000D01*
X2575000Y2450000D01*
X2585000Y2460000D01*
X2575000D01*
X2565000Y2470000D01*
X2555000Y2460000D01*
X2545000D01*
X2555000Y2450000D01*
X2545000Y2440000D01*
X2555000D01*
X2565000Y2430000D01*
X2465000D02*
X2475000Y2440000D01*
X2485000D01*
X2475000Y2450000D01*
X2485000Y2460000D01*
X2475000D01*
X2465000Y2470000D01*
X2455000Y2460000D01*
X2445000D01*
X2455000Y2450000D01*
X2445000Y2440000D01*
X2455000D01*
X2465000Y2430000D01*
X2365000D02*
X2375000Y2440000D01*
X2385000D01*
X2375000Y2450000D01*
X2385000Y2460000D01*
X2375000D01*
X2365000Y2470000D01*
X2355000Y2460000D01*
X2345000D01*
X2355000Y2450000D01*
X2345000Y2440000D01*
X2355000D01*
X2365000Y2430000D01*
X2265000D02*
X2275000Y2440000D01*
X2285000D01*
X2275000Y2450000D01*
X2285000Y2460000D01*
X2275000D01*
X2265000Y2470000D01*
X2255000Y2460000D01*
X2245000D01*
X2255000Y2450000D01*
X2245000Y2440000D01*
X2255000D01*
X2265000Y2430000D01*
X2165000D02*
X2175000Y2440000D01*
X2185000D01*
X2175000Y2450000D01*
X2185000Y2460000D01*
X2175000D01*
X2165000Y2470000D01*
X2155000Y2460000D01*
X2145000D01*
X2155000Y2450000D01*
X2145000Y2440000D01*
X2155000D01*
X2165000Y2430000D01*
X1865000D02*
X1875000Y2440000D01*
X1885000D01*
X1875000Y2450000D01*
X1885000Y2460000D01*
X1875000D01*
X1865000Y2470000D01*
X1855000Y2460000D01*
X1845000D01*
X1855000Y2450000D01*
X1845000Y2440000D01*
X1855000D01*
X1865000Y2430000D01*
X3150000D02*
X3160000Y2440000D01*
X3170000D01*
X3160000Y2450000D01*
X3170000Y2460000D01*
X3160000D01*
X3150000Y2470000D01*
X3140000Y2460000D01*
X3130000D01*
X3140000Y2450000D01*
X3130000Y2440000D01*
X3140000D01*
X3150000Y2430000D01*
X3050000D02*
X3060000Y2440000D01*
X3070000D01*
X3060000Y2450000D01*
X3070000Y2460000D01*
X3060000D01*
X3050000Y2470000D01*
X3040000Y2460000D01*
X3030000D01*
X3040000Y2450000D01*
X3030000Y2440000D01*
X3040000D01*
X3050000Y2430000D01*
X3650000D02*
X3660000Y2440000D01*
X3670000D01*
X3660000Y2450000D01*
X3670000Y2460000D01*
X3660000D01*
X3650000Y2470000D01*
X3640000Y2460000D01*
X3630000D01*
X3640000Y2450000D01*
X3630000Y2440000D01*
X3640000D01*
X3650000Y2430000D01*
X3550000D02*
X3560000Y2440000D01*
X3570000D01*
X3560000Y2450000D01*
X3570000Y2460000D01*
X3560000D01*
X3550000Y2470000D01*
X3540000Y2460000D01*
X3530000D01*
X3540000Y2450000D01*
X3530000Y2440000D01*
X3540000D01*
X3550000Y2430000D01*
X3450000D02*
X3460000Y2440000D01*
X3470000D01*
X3460000Y2450000D01*
X3470000Y2460000D01*
X3460000D01*
X3450000Y2470000D01*
X3440000Y2460000D01*
X3430000D01*
X3440000Y2450000D01*
X3430000Y2440000D01*
X3440000D01*
X3450000Y2430000D01*
X3350000D02*
X3360000Y2440000D01*
X3370000D01*
X3360000Y2450000D01*
X3370000Y2460000D01*
X3360000D01*
X3350000Y2470000D01*
X3340000Y2460000D01*
X3330000D01*
X3340000Y2450000D01*
X3330000Y2440000D01*
X3340000D01*
X3350000Y2430000D01*
X3250000D02*
X3260000Y2440000D01*
X3270000D01*
X3260000Y2450000D01*
X3270000Y2460000D01*
X3260000D01*
X3250000Y2470000D01*
X3240000Y2460000D01*
X3230000D01*
X3240000Y2450000D01*
X3230000Y2440000D01*
X3240000D01*
X3250000Y2430000D01*
X2950000D02*
X2960000Y2440000D01*
X2970000D01*
X2960000Y2450000D01*
X2970000Y2460000D01*
X2960000D01*
X2950000Y2470000D01*
X2940000Y2460000D01*
X2930000D01*
X2940000Y2450000D01*
X2930000Y2440000D01*
X2940000D01*
X2950000Y2430000D01*
X3740000Y2940000D02*
X3750000Y2950000D01*
X3760000D01*
X3750000Y2960000D01*
X3760000Y2970000D01*
X3750000D01*
X3740000Y2980000D01*
X3730000Y2970000D01*
X3720000D01*
X3730000Y2960000D01*
X3720000Y2950000D01*
X3730000D01*
X3740000Y2940000D01*
Y3040000D02*
X3750000Y3050000D01*
X3760000D01*
X3750000Y3060000D01*
X3760000Y3070000D01*
X3750000D01*
X3740000Y3080000D01*
X3730000Y3070000D01*
X3720000D01*
X3730000Y3060000D01*
X3720000Y3050000D01*
X3730000D01*
X3740000Y3040000D01*
Y3140000D02*
X3750000Y3150000D01*
X3760000D01*
X3750000Y3160000D01*
X3760000Y3170000D01*
X3750000D01*
X3740000Y3180000D01*
X3730000Y3170000D01*
X3720000D01*
X3730000Y3160000D01*
X3720000Y3150000D01*
X3730000D01*
X3740000Y3140000D01*
Y3240000D02*
X3750000Y3250000D01*
X3760000D01*
X3750000Y3260000D01*
X3760000Y3270000D01*
X3750000D01*
X3740000Y3280000D01*
X3730000Y3270000D01*
X3720000D01*
X3730000Y3260000D01*
X3720000Y3250000D01*
X3730000D01*
X3740000Y3240000D01*
X3150000Y2530000D02*
X3160000Y2540000D01*
X3170000D01*
X3160000Y2550000D01*
X3170000Y2560000D01*
X3160000D01*
X3150000Y2570000D01*
X3140000Y2560000D01*
X3130000D01*
X3140000Y2550000D01*
X3130000Y2540000D01*
X3140000D01*
X3150000Y2530000D01*
X3050000D02*
X3060000Y2540000D01*
X3070000D01*
X3060000Y2550000D01*
X3070000Y2560000D01*
X3060000D01*
X3050000Y2570000D01*
X3040000Y2560000D01*
X3030000D01*
X3040000Y2550000D01*
X3030000Y2540000D01*
X3040000D01*
X3050000Y2530000D01*
X3650000D02*
X3660000Y2540000D01*
X3670000D01*
X3660000Y2550000D01*
X3670000Y2560000D01*
X3660000D01*
X3650000Y2570000D01*
X3640000Y2560000D01*
X3630000D01*
X3640000Y2550000D01*
X3630000Y2540000D01*
X3640000D01*
X3650000Y2530000D01*
X3550000D02*
X3560000Y2540000D01*
X3570000D01*
X3560000Y2550000D01*
X3570000Y2560000D01*
X3560000D01*
X3550000Y2570000D01*
X3540000Y2560000D01*
X3530000D01*
X3540000Y2550000D01*
X3530000Y2540000D01*
X3540000D01*
X3550000Y2530000D01*
X3450000D02*
X3460000Y2540000D01*
X3470000D01*
X3460000Y2550000D01*
X3470000Y2560000D01*
X3460000D01*
X3450000Y2570000D01*
X3440000Y2560000D01*
X3430000D01*
X3440000Y2550000D01*
X3430000Y2540000D01*
X3440000D01*
X3450000Y2530000D01*
X3350000D02*
X3360000Y2540000D01*
X3370000D01*
X3360000Y2550000D01*
X3370000Y2560000D01*
X3360000D01*
X3350000Y2570000D01*
X3340000Y2560000D01*
X3330000D01*
X3340000Y2550000D01*
X3330000Y2540000D01*
X3340000D01*
X3350000Y2530000D01*
X3250000D02*
X3260000Y2540000D01*
X3270000D01*
X3260000Y2550000D01*
X3270000Y2560000D01*
X3260000D01*
X3250000Y2570000D01*
X3240000Y2560000D01*
X3230000D01*
X3240000Y2550000D01*
X3230000Y2540000D01*
X3240000D01*
X3250000Y2530000D01*
X2950000D02*
X2960000Y2540000D01*
X2970000D01*
X2960000Y2550000D01*
X2970000Y2560000D01*
X2960000D01*
X2950000Y2570000D01*
X2940000Y2560000D01*
X2930000D01*
X2940000Y2550000D01*
X2930000Y2540000D01*
X2940000D01*
X2950000Y2530000D01*
X1225000Y1615000D02*
X1235000Y1635000D01*
X1225000Y1655000D01*
X1245000Y1645000D01*
X1265000Y1655000D01*
X1255000Y1635000D01*
X1265000Y1615000D01*
X1245000Y1625000D01*
X1225000Y1615000D01*
X1825000D02*
X1835000Y1635000D01*
X1825000Y1655000D01*
X1845000Y1645000D01*
X1865000Y1655000D01*
X1855000Y1635000D01*
X1865000Y1615000D01*
X1845000Y1625000D01*
X1825000Y1615000D01*
X2025000D02*
X2035000Y1635000D01*
X2025000Y1655000D01*
X2045000Y1645000D01*
X2065000Y1655000D01*
X2055000Y1635000D01*
X2065000Y1615000D01*
X2045000Y1625000D01*
X2025000Y1615000D01*
X1125000D02*
X1135000Y1635000D01*
X1125000Y1655000D01*
X1145000Y1645000D01*
X1165000Y1655000D01*
X1155000Y1635000D01*
X1165000Y1615000D01*
X1145000Y1625000D01*
X1125000Y1615000D01*
X2025000Y1015000D02*
X2035000Y1035000D01*
X2025000Y1055000D01*
X2045000Y1045000D01*
X2065000Y1055000D01*
X2055000Y1035000D01*
X2065000Y1015000D01*
X2045000Y1025000D01*
X2025000Y1015000D01*
X1825000D02*
X1835000Y1035000D01*
X1825000Y1055000D01*
X1845000Y1045000D01*
X1865000Y1055000D01*
X1855000Y1035000D01*
X1865000Y1015000D01*
X1845000Y1025000D01*
X1825000Y1015000D01*
X1225000D02*
X1235000Y1035000D01*
X1225000Y1055000D01*
X1245000Y1045000D01*
X1265000Y1055000D01*
X1255000Y1035000D01*
X1265000Y1015000D01*
X1245000Y1025000D01*
X1225000Y1015000D01*
X1125000D02*
X1135000Y1035000D01*
X1125000Y1055000D01*
X1145000Y1045000D01*
X1165000Y1055000D01*
X1155000Y1035000D01*
X1165000Y1015000D01*
X1145000Y1025000D01*
X1125000Y1015000D01*
X130000Y2265000D02*
X140000Y2275000D01*
X150000D01*
X140000Y2285000D01*
X150000Y2295000D01*
X140000D01*
X130000Y2305000D01*
X120000Y2295000D01*
X110000D01*
X120000Y2285000D01*
X110000Y2275000D01*
X120000D01*
X130000Y2265000D01*
X230000D02*
X240000Y2275000D01*
X250000D01*
X240000Y2285000D01*
X250000Y2295000D01*
X240000D01*
X230000Y2305000D01*
X220000Y2295000D01*
X210000D01*
X220000Y2285000D01*
X210000Y2275000D01*
X220000D01*
X230000Y2265000D01*
X330000D02*
X340000Y2275000D01*
X350000D01*
X340000Y2285000D01*
X350000Y2295000D01*
X340000D01*
X330000Y2305000D01*
X320000Y2295000D01*
X310000D01*
X320000Y2285000D01*
X310000Y2275000D01*
X320000D01*
X330000Y2265000D01*
X2350000Y1225000D02*
X2360000Y1235000D01*
X2370000D01*
X2360000Y1245000D01*
X2370000Y1255000D01*
X2360000D01*
X2350000Y1265000D01*
X2340000Y1255000D01*
X2330000D01*
X2340000Y1245000D01*
X2330000Y1235000D01*
X2340000D01*
X2350000Y1225000D01*
X2450000D02*
X2460000Y1235000D01*
X2470000D01*
X2460000Y1245000D01*
X2470000Y1255000D01*
X2460000D01*
X2450000Y1265000D01*
X2440000Y1255000D01*
X2430000D01*
X2440000Y1245000D01*
X2430000Y1235000D01*
X2440000D01*
X2450000Y1225000D01*
X2550000D02*
X2560000Y1235000D01*
X2570000D01*
X2560000Y1245000D01*
X2570000Y1255000D01*
X2560000D01*
X2550000Y1265000D01*
X2540000Y1255000D01*
X2530000D01*
X2540000Y1245000D01*
X2530000Y1235000D01*
X2540000D01*
X2550000Y1225000D01*
X139843Y1470000D02*
X149843Y1480000D01*
X159843D01*
X149843Y1490000D01*
X159843Y1500000D01*
X149843D01*
X139843Y1510000D01*
X129843Y1500000D01*
X119843D01*
X129843Y1490000D01*
X119843Y1480000D01*
X129843D01*
X139843Y1470000D01*
X239843D02*
X249843Y1480000D01*
X259842D01*
X249843Y1490000D01*
X259842Y1500000D01*
X249843D01*
X239843Y1510000D01*
X229843Y1500000D01*
X219843D01*
X229843Y1490000D01*
X219843Y1480000D01*
X229843D01*
X239843Y1470000D01*
X339842D02*
X349842Y1480000D01*
X359842D01*
X349842Y1490000D01*
X359842Y1500000D01*
X349842D01*
X339842Y1510000D01*
X329842Y1500000D01*
X319842D01*
X329842Y1490000D01*
X319842Y1480000D01*
X329842D01*
X339842Y1470000D01*
X1135000Y2050000D02*
X1145000Y2060000D01*
X1155000D01*
X1145000Y2070000D01*
X1155000Y2080000D01*
X1145000D01*
X1135000Y2090000D01*
X1125000Y2080000D01*
X1115000D01*
X1125000Y2070000D01*
X1115000Y2060000D01*
X1125000D01*
X1135000Y2050000D01*
X1235000D02*
X1245000Y2060000D01*
X1255000D01*
X1245000Y2070000D01*
X1255000Y2080000D01*
X1245000D01*
X1235000Y2090000D01*
X1225000Y2080000D01*
X1215000D01*
X1225000Y2070000D01*
X1215000Y2060000D01*
X1225000D01*
X1235000Y2050000D01*
X1335000D02*
X1345000Y2060000D01*
X1355000D01*
X1345000Y2070000D01*
X1355000Y2080000D01*
X1345000D01*
X1335000Y2090000D01*
X1325000Y2080000D01*
X1315000D01*
X1325000Y2070000D01*
X1315000Y2060000D01*
X1325000D01*
X1335000Y2050000D01*
X488787Y2770000D02*
X498787Y2790000D01*
X488787Y2810000D01*
X508787Y2800000D01*
X528787Y2810000D01*
X518787Y2790000D01*
X528787Y2770000D01*
X508787Y2780000D01*
X488787Y2770000D01*
Y2870000D02*
X498787Y2890000D01*
X488787Y2910000D01*
X508787Y2900000D01*
X528787Y2910000D01*
X518787Y2890000D01*
X528787Y2870000D01*
X508787Y2880000D01*
X488787Y2870000D01*
X498787Y3180000D02*
Y3170000D01*
X518787D01*
Y3180000D01*
X528787D01*
Y3200000D01*
X518787D01*
Y3210000D01*
X498787D01*
Y3200000D01*
X488787D01*
Y3180000D01*
X498787D01*
Y3480000D02*
Y3470000D01*
X518787D01*
Y3480000D01*
X528787D01*
Y3500000D01*
X518787D01*
Y3510000D01*
X498787D01*
Y3500000D01*
X488787D01*
Y3480000D01*
X498787D01*
X703787Y2770000D02*
X713787Y2790000D01*
X703787Y2810000D01*
X723787Y2800000D01*
X743787Y2810000D01*
X733787Y2790000D01*
X743787Y2770000D01*
X723787Y2780000D01*
X703787Y2770000D01*
Y2870000D02*
X713787Y2890000D01*
X703787Y2910000D01*
X723787Y2900000D01*
X743787Y2910000D01*
X733787Y2890000D01*
X743787Y2870000D01*
X723787Y2880000D01*
X703787Y2870000D01*
X713787Y3180000D02*
Y3170000D01*
X733787D01*
Y3180000D01*
X743787D01*
Y3200000D01*
X733787D01*
Y3210000D01*
X713787D01*
Y3200000D01*
X703787D01*
Y3180000D01*
X713787D01*
Y3480000D02*
Y3470000D01*
X733787D01*
Y3480000D01*
X743787D01*
Y3500000D01*
X733787D01*
Y3510000D01*
X713787D01*
Y3500000D01*
X703787D01*
Y3480000D01*
X713787D01*
X1029685Y2475000D02*
X1039685D01*
X1049685Y2485000D01*
X1059685Y2475000D01*
X1069685D01*
Y2485000D01*
X1059685Y2495000D01*
X1069685Y2505000D01*
Y2515000D01*
X1059685D01*
X1049685Y2505000D01*
X1039685Y2515000D01*
X1029685D01*
Y2505000D01*
X1039685Y2495000D01*
X1029685Y2485000D01*
Y2475000D01*
X874685Y2480000D02*
X884685D01*
X894685Y2490000D01*
X904685Y2480000D01*
X914685D01*
Y2490000D01*
X904685Y2500000D01*
X914685Y2510000D01*
Y2520000D01*
X904685D01*
X894685Y2510000D01*
X884685Y2520000D01*
X874685D01*
Y2510000D01*
X884685Y2500000D01*
X874685Y2490000D01*
Y2480000D01*
X30000Y1540000D02*
X40000D01*
X50000Y1550000D01*
X60000Y1540000D01*
X70000D01*
Y1550000D01*
X60000Y1560000D01*
X70000Y1570000D01*
Y1580000D01*
X60000D01*
X50000Y1570000D01*
X40000Y1580000D01*
X30000D01*
Y1570000D01*
X40000Y1560000D01*
X30000Y1550000D01*
Y1540000D01*
X-45000D02*
X-35000D01*
X-25000Y1550000D01*
X-15000Y1540000D01*
X-5000D01*
Y1550000D01*
X-15000Y1560000D01*
X-5000Y1570000D01*
Y1580000D01*
X-15000D01*
X-25000Y1570000D01*
X-35000Y1580000D01*
X-45000D01*
Y1570000D01*
X-35000Y1560000D01*
X-45000Y1550000D01*
Y1540000D01*
X20000Y2075000D02*
X30000D01*
X40000Y2085000D01*
X50000Y2075000D01*
X60000D01*
Y2085000D01*
X50000Y2095000D01*
X60000Y2105000D01*
Y2115000D01*
X50000D01*
X40000Y2105000D01*
X30000Y2115000D01*
X20000D01*
Y2105000D01*
X30000Y2095000D01*
X20000Y2085000D01*
Y2075000D01*
X-30000D02*
X-20000D01*
X-10000Y2085000D01*
X0Y2075000D01*
X10000D01*
Y2085000D01*
X0Y2095000D01*
X10000Y2105000D01*
Y2115000D01*
X0D01*
X-10000Y2105000D01*
X-20000Y2115000D01*
X-30000D01*
Y2105000D01*
X-20000Y2095000D01*
X-30000Y2085000D01*
Y2075000D01*
X990000Y2270000D02*
X1010000Y2290000D01*
X1030000Y2270000D01*
X1010000Y2250000D01*
X990000Y2270000D01*
X1109685Y2665000D02*
X1129685Y2685000D01*
X1149685Y2665000D01*
X1129685Y2645000D01*
X1109685Y2665000D01*
X450000Y2199882D02*
X470000Y2219882D01*
X490000Y2199882D01*
X470000Y2179882D01*
X450000Y2199882D01*
X455000Y1405000D02*
X475000Y1425000D01*
X495000Y1405000D01*
X475000Y1385000D01*
X455000Y1405000D01*
X3400000Y1360000D02*
X3420000Y1380000D01*
X3440000Y1360000D01*
X3420000Y1340000D01*
X3400000Y1360000D01*
Y1480000D02*
X3420000Y1500000D01*
X3440000Y1480000D01*
X3420000Y1460000D01*
X3400000Y1480000D01*
X3145000Y2045000D02*
X3165000Y2065000D01*
X3185000Y2045000D01*
X3165000Y2025000D01*
X3145000Y2045000D01*
X3155000Y1740000D02*
X3175000Y1760000D01*
X3195000Y1740000D01*
X3175000Y1720000D01*
X3155000Y1740000D01*
X3225000Y1770000D02*
X3235000D01*
X3245000Y1780000D01*
X3255000Y1770000D01*
X3265000D01*
Y1780000D01*
X3255000Y1790000D01*
X3265000Y1800000D01*
Y1810000D01*
X3255000D01*
X3245000Y1800000D01*
X3235000Y1810000D01*
X3225000D01*
Y1800000D01*
X3235000Y1790000D01*
X3225000Y1780000D01*
Y1770000D01*
X3230000Y1465000D02*
X3240000D01*
X3250000Y1475000D01*
X3260000Y1465000D01*
X3270000D01*
Y1475000D01*
X3260000Y1485000D01*
X3270000Y1495000D01*
Y1505000D01*
X3260000D01*
X3250000Y1495000D01*
X3240000Y1505000D01*
X3230000D01*
Y1495000D01*
X3240000Y1485000D01*
X3230000Y1475000D01*
Y1465000D01*
X3155000Y1440000D02*
X3175000Y1460000D01*
X3195000Y1440000D01*
X3175000Y1420000D01*
X3155000Y1440000D01*
X2140000Y1925000D02*
X2150000D01*
X2160000Y1935000D01*
X2170000Y1925000D01*
X2180000D01*
Y1935000D01*
X2170000Y1945000D01*
X2180000Y1955000D01*
Y1965000D01*
X2170000D01*
X2160000Y1955000D01*
X2150000Y1965000D01*
X2140000D01*
Y1955000D01*
X2150000Y1945000D01*
X2140000Y1935000D01*
Y1925000D01*
Y1855000D02*
X2150000D01*
X2160000Y1865000D01*
X2170000Y1855000D01*
X2180000D01*
Y1865000D01*
X2170000Y1875000D01*
X2180000Y1885000D01*
Y1895000D01*
X2170000D01*
X2160000Y1885000D01*
X2150000Y1895000D01*
X2140000D01*
Y1885000D01*
X2150000Y1875000D01*
X2140000Y1865000D01*
Y1855000D01*
X2165000Y1890000D02*
X2175000D01*
X2185000Y1900000D01*
X2195000Y1890000D01*
X2205000D01*
Y1900000D01*
X2195000Y1910000D01*
X2205000Y1920000D01*
Y1930000D01*
X2195000D01*
X2185000Y1920000D01*
X2175000Y1930000D01*
X2165000D01*
Y1920000D01*
X2175000Y1910000D01*
X2165000Y1900000D01*
Y1890000D01*
Y1820000D02*
X2175000D01*
X2185000Y1830000D01*
X2195000Y1820000D01*
X2205000D01*
Y1830000D01*
X2195000Y1840000D01*
X2205000Y1850000D01*
Y1860000D01*
X2195000D01*
X2185000Y1850000D01*
X2175000Y1860000D01*
X2165000D01*
Y1850000D01*
X2175000Y1840000D01*
X2165000Y1830000D01*
Y1820000D01*
X2140000Y1783579D02*
X2150000D01*
X2160000Y1793579D01*
X2170000Y1783579D01*
X2180000D01*
Y1793579D01*
X2170000Y1803579D01*
X2180000Y1813579D01*
Y1823579D01*
X2170000D01*
X2160000Y1813579D01*
X2150000Y1823579D01*
X2140000D01*
Y1813579D01*
X2150000Y1803579D01*
X2140000Y1793579D01*
Y1783579D01*
X2165000Y1748224D02*
X2175000D01*
X2185000Y1758224D01*
X2195000Y1748224D01*
X2205000D01*
Y1758224D01*
X2195000Y1768224D01*
X2205000Y1778224D01*
Y1788224D01*
X2195000D01*
X2185000Y1778224D01*
X2175000Y1788224D01*
X2165000D01*
Y1778224D01*
X2175000Y1768224D01*
X2165000Y1758224D01*
Y1748224D01*
X2840000Y1925000D02*
X2850000D01*
X2860000Y1935000D01*
X2870000Y1925000D01*
X2880000D01*
Y1935000D01*
X2870000Y1945000D01*
X2880000Y1955000D01*
Y1965000D01*
X2870000D01*
X2860000Y1955000D01*
X2850000Y1965000D01*
X2840000D01*
Y1955000D01*
X2850000Y1945000D01*
X2840000Y1935000D01*
Y1925000D01*
X2745000Y1879645D02*
X2755000D01*
X2765000Y1889645D01*
X2775000Y1879645D01*
X2785000D01*
Y1889645D01*
X2775000Y1899645D01*
X2785000Y1909645D01*
Y1919645D01*
X2775000D01*
X2765000Y1909645D01*
X2755000Y1919645D01*
X2745000D01*
Y1909645D01*
X2755000Y1899645D01*
X2745000Y1889645D01*
Y1879645D01*
X2760000Y1970000D02*
X2770000D01*
X2780000Y1980000D01*
X2790000Y1970000D01*
X2800000D01*
Y1980000D01*
X2790000Y1990000D01*
X2800000Y2000000D01*
Y2010000D01*
X2790000D01*
X2780000Y2000000D01*
X2770000Y2010000D01*
X2760000D01*
Y2000000D01*
X2770000Y1990000D01*
X2760000Y1980000D01*
Y1970000D01*
X2765000Y2075000D02*
X2775000D01*
X2785000Y2085000D01*
X2795000Y2075000D01*
X2805000D01*
Y2085000D01*
X2795000Y2095000D01*
X2805000Y2105000D01*
Y2115000D01*
X2795000D01*
X2785000Y2105000D01*
X2775000Y2115000D01*
X2765000D01*
Y2105000D01*
X2775000Y2095000D01*
X2765000Y2085000D01*
Y2075000D01*
X2760000Y1770000D02*
X2770000D01*
X2780000Y1780000D01*
X2790000Y1770000D01*
X2800000D01*
Y1780000D01*
X2790000Y1790000D01*
X2800000Y1800000D01*
Y1810000D01*
X2790000D01*
X2780000Y1800000D01*
X2770000Y1810000D01*
X2760000D01*
Y1800000D01*
X2770000Y1790000D01*
X2760000Y1780000D01*
Y1770000D01*
Y1670000D02*
X2770000D01*
X2780000Y1680000D01*
X2790000Y1670000D01*
X2800000D01*
Y1680000D01*
X2790000Y1690000D01*
X2800000Y1700000D01*
Y1710000D01*
X2790000D01*
X2780000Y1700000D01*
X2770000Y1710000D01*
X2760000D01*
Y1700000D01*
X2770000Y1690000D01*
X2760000Y1680000D01*
Y1670000D01*
X2580000Y1675000D02*
X2590000D01*
X2600000Y1685000D01*
X2610000Y1675000D01*
X2620000D01*
Y1685000D01*
X2610000Y1695000D01*
X2620000Y1705000D01*
Y1715000D01*
X2610000D01*
X2600000Y1705000D01*
X2590000Y1715000D01*
X2580000D01*
Y1705000D01*
X2590000Y1695000D01*
X2580000Y1685000D01*
Y1675000D01*
Y1575000D02*
X2590000D01*
X2600000Y1585000D01*
X2610000Y1575000D01*
X2620000D01*
Y1585000D01*
X2610000Y1595000D01*
X2620000Y1605000D01*
Y1615000D01*
X2610000D01*
X2600000Y1605000D01*
X2590000Y1615000D01*
X2580000D01*
Y1605000D01*
X2590000Y1595000D01*
X2580000Y1585000D01*
Y1575000D01*
X2820000Y1415000D02*
X2830000D01*
X2840000Y1425000D01*
X2850000Y1415000D01*
X2860000D01*
Y1425000D01*
X2850000Y1435000D01*
X2860000Y1445000D01*
Y1455000D01*
X2850000D01*
X2840000Y1445000D01*
X2830000Y1455000D01*
X2820000D01*
Y1445000D01*
X2830000Y1435000D01*
X2820000Y1425000D01*
Y1415000D01*
Y1720000D02*
X2830000D01*
X2840000Y1730000D01*
X2850000Y1720000D01*
X2860000D01*
Y1730000D01*
X2850000Y1740000D01*
X2860000Y1750000D01*
Y1760000D01*
X2850000D01*
X2840000Y1750000D01*
X2830000Y1760000D01*
X2820000D01*
Y1750000D01*
X2830000Y1740000D01*
X2820000Y1730000D01*
Y1720000D01*
X2825000Y2025000D02*
X2835000D01*
X2845000Y2035000D01*
X2855000Y2025000D01*
X2865000D01*
Y2035000D01*
X2855000Y2045000D01*
X2865000Y2055000D01*
Y2065000D01*
X2855000D01*
X2845000Y2055000D01*
X2835000Y2065000D01*
X2825000D01*
Y2055000D01*
X2835000Y2045000D01*
X2825000Y2035000D01*
Y2025000D01*
X2910000Y855000D02*
X2920000D01*
X2930000Y865000D01*
X2940000Y855000D01*
X2950000D01*
Y865000D01*
X2940000Y875000D01*
X2950000Y885000D01*
Y895000D01*
X2940000D01*
X2930000Y885000D01*
X2920000Y895000D01*
X2910000D01*
Y885000D01*
X2920000Y875000D01*
X2910000Y865000D01*
Y855000D01*
X2145000Y2025000D02*
X2155000D01*
X2165000Y2035000D01*
X2175000Y2025000D01*
X2185000D01*
Y2035000D01*
X2175000Y2045000D01*
X2185000Y2055000D01*
Y2065000D01*
X2175000D01*
X2165000Y2055000D01*
X2155000Y2065000D01*
X2145000D01*
Y2055000D01*
X2155000Y2045000D01*
X2145000Y2035000D01*
Y2025000D01*
X2665000Y2030000D02*
X2675000D01*
X2685000Y2040000D01*
X2695000Y2030000D01*
X2705000D01*
Y2040000D01*
X2695000Y2050000D01*
X2705000Y2060000D01*
Y2070000D01*
X2695000D01*
X2685000Y2060000D01*
X2675000Y2070000D01*
X2665000D01*
Y2060000D01*
X2675000Y2050000D01*
X2665000Y2040000D01*
Y2030000D01*
X2395000Y1700000D02*
X2405000D01*
X2415000Y1710000D01*
X2425000Y1700000D01*
X2435000D01*
Y1710000D01*
X2425000Y1720000D01*
X2435000Y1730000D01*
Y1740000D01*
X2425000D01*
X2415000Y1730000D01*
X2405000Y1740000D01*
X2395000D01*
Y1730000D01*
X2405000Y1720000D01*
X2395000Y1710000D01*
Y1700000D01*
X2135000D02*
X2145000D01*
X2155000Y1710000D01*
X2165000Y1700000D01*
X2175000D01*
Y1710000D01*
X2165000Y1720000D01*
X2175000Y1730000D01*
Y1740000D01*
X2165000D01*
X2155000Y1730000D01*
X2145000Y1740000D01*
X2135000D01*
Y1730000D01*
X2145000Y1720000D01*
X2135000Y1710000D01*
Y1700000D01*
X2270000Y2305000D02*
X2280000D01*
X2290000Y2315000D01*
X2300000Y2305000D01*
X2310000D01*
Y2315000D01*
X2300000Y2325000D01*
X2310000Y2335000D01*
Y2345000D01*
X2300000D01*
X2290000Y2335000D01*
X2280000Y2345000D01*
X2270000D01*
Y2335000D01*
X2280000Y2325000D01*
X2270000Y2315000D01*
Y2305000D01*
X2145000Y2241535D02*
X2155000D01*
X2165000Y2251535D01*
X2175000Y2241535D01*
X2185000D01*
Y2251535D01*
X2175000Y2261535D01*
X2185000Y2271535D01*
Y2281535D01*
X2175000D01*
X2165000Y2271535D01*
X2155000Y2281535D01*
X2145000D01*
Y2271535D01*
X2155000Y2261535D01*
X2145000Y2251535D01*
Y2241535D01*
X1700000Y2385000D02*
X1720000Y2405000D01*
X1740000Y2385000D01*
X1720000Y2365000D01*
X1700000Y2385000D01*
X1755000Y2325000D02*
X1775000Y2345000D01*
X1795000Y2325000D01*
X1775000Y2305000D01*
X1755000Y2325000D01*
X995000Y2185000D02*
X1015000Y2205000D01*
X1035000Y2185000D01*
X1015000Y2165000D01*
X995000Y2185000D01*
X1455000Y1995000D02*
X1475000Y2015000D01*
X1495000Y1995000D01*
X1475000Y1975000D01*
X1455000Y1995000D01*
X3280000Y3565000D02*
Y3605000D01*
X3320000D01*
Y3565000D01*
X3280000D01*
X3288000Y3573000D02*
Y3597000D01*
X3312000D01*
Y3573000D01*
X3288000D01*
X3380000Y3465000D02*
Y3505000D01*
X3420000D01*
Y3465000D01*
X3380000D01*
X3388000Y3473000D02*
Y3497000D01*
X3412000D01*
Y3473000D01*
X3388000D01*
X3480000Y3565000D02*
Y3605000D01*
X3520000D01*
Y3565000D01*
X3480000D01*
X3488000Y3573000D02*
Y3597000D01*
X3512000D01*
Y3573000D01*
X3488000D01*
X3580000Y3465000D02*
Y3505000D01*
X3620000D01*
Y3465000D01*
X3580000D01*
X3588000Y3473000D02*
Y3497000D01*
X3612000D01*
Y3473000D01*
X3588000D01*
X3380000Y3665000D02*
Y3705000D01*
X3420000D01*
Y3665000D01*
X3380000D01*
X3388000Y3673000D02*
Y3697000D01*
X3412000D01*
Y3673000D01*
X3388000D01*
X3580000Y3665000D02*
Y3705000D01*
X3620000D01*
Y3665000D01*
X3580000D01*
X3588000Y3673000D02*
Y3697000D01*
X3612000D01*
Y3673000D01*
X3588000D01*
X3480000Y3765000D02*
Y3805000D01*
X3520000D01*
Y3765000D01*
X3480000D01*
X3488000Y3773000D02*
Y3797000D01*
X3512000D01*
Y3773000D01*
X3488000D01*
X3280000Y3765000D02*
Y3805000D01*
X3320000D01*
Y3765000D01*
X3280000D01*
X3288000Y3773000D02*
Y3797000D01*
X3312000D01*
Y3773000D01*
X3288000D01*
X3680000Y3565000D02*
Y3605000D01*
X3720000D01*
Y3565000D01*
X3680000D01*
X3688000Y3573000D02*
Y3597000D01*
X3712000D01*
Y3573000D01*
X3688000D01*
X3280000Y3365000D02*
Y3405000D01*
X3320000D01*
Y3365000D01*
X3280000D01*
X3288000Y3373000D02*
Y3397000D01*
X3312000D01*
Y3373000D01*
X3288000D01*
X3480000Y3365000D02*
Y3405000D01*
X3520000D01*
Y3365000D01*
X3480000D01*
X3488000Y3373000D02*
Y3397000D01*
X3512000D01*
Y3373000D01*
X3488000D01*
X3680000Y3365000D02*
Y3405000D01*
X3720000D01*
Y3365000D01*
X3680000D01*
X3688000Y3373000D02*
Y3397000D01*
X3712000D01*
Y3373000D01*
X3688000D01*
X3780000Y3465000D02*
Y3505000D01*
X3820000D01*
Y3465000D01*
X3780000D01*
X3788000Y3473000D02*
Y3497000D01*
X3812000D01*
Y3473000D01*
X3788000D01*
X3580000Y3265000D02*
Y3305000D01*
X3620000D01*
Y3265000D01*
X3580000D01*
X3588000Y3273000D02*
Y3297000D01*
X3612000D01*
Y3273000D01*
X3588000D01*
X3380000Y3265000D02*
Y3305000D01*
X3420000D01*
Y3265000D01*
X3380000D01*
X3388000Y3273000D02*
Y3297000D01*
X3412000D01*
Y3273000D01*
X3388000D01*
X3280000Y3165000D02*
Y3205000D01*
X3320000D01*
Y3165000D01*
X3280000D01*
X3288000Y3173000D02*
Y3197000D01*
X3312000D01*
Y3173000D01*
X3288000D01*
X3180000Y3020000D02*
Y3060000D01*
X3220000D01*
Y3020000D01*
X3180000D01*
X3188000Y3028000D02*
Y3052000D01*
X3212000D01*
Y3028000D01*
X3188000D01*
X2980000Y2820000D02*
Y2860000D01*
X3020000D01*
Y2820000D01*
X2980000D01*
X2988000Y2828000D02*
Y2852000D01*
X3012000D01*
Y2828000D01*
X2988000D01*
X3080000Y2920000D02*
Y2960000D01*
X3120000D01*
Y2920000D01*
X3080000D01*
X3088000Y2928000D02*
Y2952000D01*
X3112000D01*
Y2928000D01*
X3088000D01*
X3695000Y2750000D02*
Y2790000D01*
X3735000D01*
Y2750000D01*
X3695000D01*
X3703000Y2758000D02*
Y2782000D01*
X3727000D01*
Y2758000D01*
X3703000D01*
X3780000Y2815000D02*
Y2855000D01*
X3820000D01*
Y2815000D01*
X3780000D01*
X3788000Y2823000D02*
Y2847000D01*
X3812000D01*
Y2823000D01*
X3788000D01*
X3600000Y2815000D02*
Y2855000D01*
X3640000D01*
Y2815000D01*
X3600000D01*
X3608000Y2823000D02*
Y2847000D01*
X3632000D01*
Y2823000D01*
X3608000D01*
X3605000Y2695000D02*
Y2735000D01*
X3645000D01*
Y2695000D01*
X3605000D01*
X3613000Y2703000D02*
Y2727000D01*
X3637000D01*
Y2703000D01*
X3613000D01*
X3505000Y2750000D02*
Y2790000D01*
X3545000D01*
Y2750000D01*
X3505000D01*
X3513000Y2758000D02*
Y2782000D01*
X3537000D01*
Y2758000D01*
X3513000D01*
X3415000Y2815000D02*
Y2855000D01*
X3455000D01*
Y2815000D01*
X3415000D01*
X3423000Y2823000D02*
Y2847000D01*
X3447000D01*
Y2823000D01*
X3423000D01*
X3785000Y2695000D02*
Y2735000D01*
X3825000D01*
Y2695000D01*
X3785000D01*
X3793000Y2703000D02*
Y2727000D01*
X3817000D01*
Y2703000D01*
X3793000D01*
X3695000Y2640000D02*
Y2680000D01*
X3735000D01*
Y2640000D01*
X3695000D01*
X3703000Y2648000D02*
Y2672000D01*
X3727000D01*
Y2648000D01*
X3703000D01*
X3785000Y2585000D02*
Y2625000D01*
X3825000D01*
Y2585000D01*
X3785000D01*
X3793000Y2593000D02*
Y2617000D01*
X3817000D01*
Y2593000D01*
X3793000D01*
X3785000Y2475000D02*
Y2515000D01*
X3825000D01*
Y2475000D01*
X3785000D01*
X3793000Y2483000D02*
Y2507000D01*
X3817000D01*
Y2483000D01*
X3793000D01*
X3785000Y2365000D02*
Y2405000D01*
X3825000D01*
Y2365000D01*
X3785000D01*
X3793000Y2373000D02*
Y2397000D01*
X3817000D01*
Y2373000D01*
X3793000D01*
X3695000Y2310000D02*
Y2350000D01*
X3735000D01*
Y2310000D01*
X3695000D01*
X3703000Y2318000D02*
Y2342000D01*
X3727000D01*
Y2318000D01*
X3703000D01*
X3605000Y2285000D02*
Y2325000D01*
X3645000D01*
Y2285000D01*
X3605000D01*
X3613000Y2293000D02*
Y2317000D01*
X3637000D01*
Y2293000D01*
X3613000D01*
X3360000Y2340000D02*
Y2380000D01*
X3400000D01*
Y2340000D01*
X3360000D01*
X3368000Y2348000D02*
Y2372000D01*
X3392000D01*
Y2348000D01*
X3368000D01*
X3285000Y2295000D02*
Y2335000D01*
X3325000D01*
Y2295000D01*
X3285000D01*
X3293000Y2303000D02*
Y2327000D01*
X3317000D01*
Y2303000D01*
X3293000D01*
X3365000Y2245000D02*
Y2285000D01*
X3405000D01*
Y2245000D01*
X3365000D01*
X3373000Y2253000D02*
Y2277000D01*
X3397000D01*
Y2253000D01*
X3373000D01*
X2955000Y2285000D02*
Y2325000D01*
X2995000D01*
Y2285000D01*
X2955000D01*
X2963000Y2293000D02*
Y2317000D01*
X2987000D01*
Y2293000D01*
X2963000D01*
X3020000Y2330000D02*
Y2370000D01*
X3060000D01*
Y2330000D01*
X3020000D01*
X3028000Y2338000D02*
Y2362000D01*
X3052000D01*
Y2338000D01*
X3028000D01*
X3075000Y2280000D02*
Y2320000D01*
X3115000D01*
Y2280000D01*
X3075000D01*
X3083000Y2288000D02*
Y2312000D01*
X3107000D01*
Y2288000D01*
X3083000D01*
X2640000Y2430000D02*
Y2470000D01*
X2680000D01*
Y2430000D01*
X2640000D01*
X2648000Y2438000D02*
Y2462000D01*
X2672000D01*
Y2438000D01*
X2648000D01*
X2640000Y2540000D02*
Y2580000D01*
X2680000D01*
Y2540000D01*
X2640000D01*
X2648000Y2548000D02*
Y2572000D01*
X2672000D01*
Y2548000D01*
X2648000D01*
X2730000Y2485000D02*
Y2525000D01*
X2770000D01*
Y2485000D01*
X2730000D01*
X2738000Y2493000D02*
Y2517000D01*
X2762000D01*
Y2493000D01*
X2738000D01*
X1745000Y2420000D02*
Y2460000D01*
X1785000D01*
Y2420000D01*
X1745000D01*
X1753000Y2428000D02*
Y2452000D01*
X1777000D01*
Y2428000D01*
X1753000D01*
X1560000Y2420000D02*
Y2460000D01*
X1600000D01*
Y2420000D01*
X1560000D01*
X1568000Y2428000D02*
Y2452000D01*
X1592000D01*
Y2428000D01*
X1568000D01*
X1560000Y2540000D02*
Y2580000D01*
X1600000D01*
Y2540000D01*
X1560000D01*
X1568000Y2548000D02*
Y2572000D01*
X1592000D01*
Y2548000D01*
X1568000D01*
X1745000Y2540000D02*
Y2580000D01*
X1785000D01*
Y2540000D01*
X1745000D01*
X1753000Y2548000D02*
Y2572000D01*
X1777000D01*
Y2548000D01*
X1753000D01*
X1655000Y2475000D02*
Y2515000D01*
X1695000D01*
Y2475000D01*
X1655000D01*
X1663000Y2483000D02*
Y2507000D01*
X1687000D01*
Y2483000D01*
X1663000D01*
X1470000Y2365000D02*
Y2405000D01*
X1510000D01*
Y2365000D01*
X1470000D01*
X1478000Y2373000D02*
Y2397000D01*
X1502000D01*
Y2373000D01*
X1478000D01*
X1480000Y2475000D02*
Y2515000D01*
X1520000D01*
Y2475000D01*
X1480000D01*
X1488000Y2483000D02*
Y2507000D01*
X1512000D01*
Y2483000D01*
X1488000D01*
X1325000Y2325000D02*
Y2365000D01*
X1365000D01*
Y2325000D01*
X1325000D01*
X1333000Y2333000D02*
Y2357000D01*
X1357000D01*
Y2333000D01*
X1333000D01*
X1280000Y2735000D02*
Y2775000D01*
X1320000D01*
Y2735000D01*
X1280000D01*
X1288000Y2743000D02*
Y2767000D01*
X1312000D01*
Y2743000D01*
X1288000D01*
X1225000Y2645000D02*
Y2685000D01*
X1265000D01*
Y2645000D01*
X1225000D01*
X1233000Y2653000D02*
Y2677000D01*
X1257000D01*
Y2653000D01*
X1233000D01*
X1170000Y2735000D02*
Y2775000D01*
X1210000D01*
Y2735000D01*
X1170000D01*
X1178000Y2743000D02*
Y2767000D01*
X1202000D01*
Y2743000D01*
X1178000D01*
X1070000Y2745000D02*
Y2785000D01*
X1110000D01*
Y2745000D01*
X1070000D01*
X1078000Y2753000D02*
Y2777000D01*
X1102000D01*
Y2753000D01*
X1078000D01*
X1475000Y950000D02*
Y990000D01*
X1515000D01*
Y950000D01*
X1475000D01*
X1483000Y958000D02*
Y982000D01*
X1507000D01*
Y958000D01*
X1483000D01*
X1275000Y950000D02*
Y990000D01*
X1315000D01*
Y950000D01*
X1275000D01*
X1283000Y958000D02*
Y982000D01*
X1307000D01*
Y958000D01*
X1283000D01*
X1075000Y950000D02*
Y990000D01*
X1115000D01*
Y950000D01*
X1075000D01*
X1083000Y958000D02*
Y982000D01*
X1107000D01*
Y958000D01*
X1083000D01*
X1475000Y1150000D02*
Y1190000D01*
X1515000D01*
Y1150000D01*
X1475000D01*
X1483000Y1158000D02*
Y1182000D01*
X1507000D01*
Y1158000D01*
X1483000D01*
X1075000Y1350000D02*
Y1390000D01*
X1115000D01*
Y1350000D01*
X1075000D01*
X1083000Y1358000D02*
Y1382000D01*
X1107000D01*
Y1358000D01*
X1083000D01*
X1275000Y1350000D02*
Y1390000D01*
X1315000D01*
Y1350000D01*
X1275000D01*
X1283000Y1358000D02*
Y1382000D01*
X1307000D01*
Y1358000D01*
X1283000D01*
X1375000Y1250000D02*
Y1290000D01*
X1415000D01*
Y1250000D01*
X1375000D01*
X1383000Y1258000D02*
Y1282000D01*
X1407000D01*
Y1258000D01*
X1383000D01*
X1175000Y1250000D02*
Y1290000D01*
X1215000D01*
Y1250000D01*
X1175000D01*
X1183000Y1258000D02*
Y1282000D01*
X1207000D01*
Y1258000D01*
X1183000D01*
X1375000Y1050000D02*
Y1090000D01*
X1415000D01*
Y1050000D01*
X1375000D01*
X1383000Y1058000D02*
Y1082000D01*
X1407000D01*
Y1058000D01*
X1383000D01*
X1275000Y1150000D02*
Y1190000D01*
X1315000D01*
Y1150000D01*
X1275000D01*
X1283000Y1158000D02*
Y1182000D01*
X1307000D01*
Y1158000D01*
X1283000D01*
X1075000Y1150000D02*
Y1190000D01*
X1115000D01*
Y1150000D01*
X1075000D01*
X1083000Y1158000D02*
Y1182000D01*
X1107000D01*
Y1158000D01*
X1083000D01*
X1475000Y1350000D02*
Y1390000D01*
X1515000D01*
Y1350000D01*
X1475000D01*
X1483000Y1358000D02*
Y1382000D01*
X1507000D01*
Y1358000D01*
X1483000D01*
X1375000Y1450000D02*
Y1490000D01*
X1415000D01*
Y1450000D01*
X1375000D01*
X1383000Y1458000D02*
Y1482000D01*
X1407000D01*
Y1458000D01*
X1383000D01*
X1475000Y1550000D02*
Y1590000D01*
X1515000D01*
Y1550000D01*
X1475000D01*
X1483000Y1558000D02*
Y1582000D01*
X1507000D01*
Y1558000D01*
X1483000D01*
X1175000Y1450000D02*
Y1490000D01*
X1215000D01*
Y1450000D01*
X1175000D01*
X1183000Y1458000D02*
Y1482000D01*
X1207000D01*
Y1458000D01*
X1183000D01*
X1375000Y1650000D02*
Y1690000D01*
X1415000D01*
Y1650000D01*
X1375000D01*
X1383000Y1658000D02*
Y1682000D01*
X1407000D01*
Y1658000D01*
X1383000D01*
X1475000Y1750000D02*
Y1790000D01*
X1515000D01*
Y1750000D01*
X1475000D01*
X1483000Y1758000D02*
Y1782000D01*
X1507000D01*
Y1758000D01*
X1483000D01*
X1275000Y1750000D02*
Y1790000D01*
X1315000D01*
Y1750000D01*
X1275000D01*
X1283000Y1758000D02*
Y1782000D01*
X1307000D01*
Y1758000D01*
X1283000D01*
X1375000Y1850000D02*
Y1890000D01*
X1415000D01*
Y1850000D01*
X1375000D01*
X1383000Y1858000D02*
Y1882000D01*
X1407000D01*
Y1858000D01*
X1383000D01*
X1275000Y1950000D02*
Y1990000D01*
X1315000D01*
Y1950000D01*
X1275000D01*
X1283000Y1958000D02*
Y1982000D01*
X1307000D01*
Y1958000D01*
X1283000D01*
X975000Y1250000D02*
Y1290000D01*
X1015000D01*
Y1250000D01*
X975000D01*
X983000Y1258000D02*
Y1282000D01*
X1007000D01*
Y1258000D01*
X983000D01*
X975000Y1050000D02*
Y1090000D01*
X1015000D01*
Y1050000D01*
X975000D01*
X983000Y1058000D02*
Y1082000D01*
X1007000D01*
Y1058000D01*
X983000D01*
X975000Y850000D02*
Y890000D01*
X1015000D01*
Y850000D01*
X975000D01*
X983000Y858000D02*
Y882000D01*
X1007000D01*
Y858000D01*
X983000D01*
X885000Y735000D02*
Y775000D01*
X925000D01*
Y735000D01*
X885000D01*
X893000Y743000D02*
Y767000D01*
X917000D01*
Y743000D01*
X893000D01*
X775000Y650000D02*
Y690000D01*
X815000D01*
Y650000D01*
X775000D01*
X783000Y658000D02*
Y682000D01*
X807000D01*
Y658000D01*
X783000D01*
X675000Y550000D02*
Y590000D01*
X715000D01*
Y550000D01*
X675000D01*
X683000Y558000D02*
Y582000D01*
X707000D01*
Y558000D01*
X683000D01*
X575000Y450000D02*
Y490000D01*
X615000D01*
Y450000D01*
X575000D01*
X583000Y458000D02*
Y482000D01*
X607000D01*
Y458000D01*
X583000D01*
X675000Y350000D02*
Y390000D01*
X715000D01*
Y350000D01*
X675000D01*
X683000Y358000D02*
Y382000D01*
X707000D01*
Y358000D01*
X683000D01*
X575000Y650000D02*
Y690000D01*
X615000D01*
Y650000D01*
X575000D01*
X583000Y658000D02*
Y682000D01*
X607000D01*
Y658000D01*
X583000D01*
X575000Y250000D02*
Y290000D01*
X615000D01*
Y250000D01*
X575000D01*
X583000Y258000D02*
Y282000D01*
X607000D01*
Y258000D01*
X583000D01*
X675000Y-50000D02*
Y-10000D01*
X715000D01*
Y-50000D01*
X675000D01*
X683000Y-42000D02*
Y-18000D01*
X707000D01*
Y-42000D01*
X683000D01*
X275000Y550000D02*
Y590000D01*
X315000D01*
Y550000D01*
X275000D01*
X283000Y558000D02*
Y582000D01*
X307000D01*
Y558000D01*
X283000D01*
X275000Y350000D02*
Y390000D01*
X315000D01*
Y350000D01*
X275000D01*
X283000Y358000D02*
Y382000D01*
X307000D01*
Y358000D01*
X283000D01*
X-25000Y450000D02*
Y490000D01*
X15000D01*
Y450000D01*
X-25000D01*
X-17000Y458000D02*
Y482000D01*
X7000D01*
Y458000D01*
X-17000D01*
X-25000Y250000D02*
Y290000D01*
X15000D01*
Y250000D01*
X-25000D01*
X-17000Y258000D02*
Y282000D01*
X7000D01*
Y258000D01*
X-17000D01*
X75000Y350000D02*
Y390000D01*
X115000D01*
Y350000D01*
X75000D01*
X83000Y358000D02*
Y382000D01*
X107000D01*
Y358000D01*
X83000D01*
X275000Y150000D02*
Y190000D01*
X315000D01*
Y150000D01*
X275000D01*
X283000Y158000D02*
Y182000D01*
X307000D01*
Y158000D01*
X283000D01*
X275000Y-50000D02*
Y-10000D01*
X315000D01*
Y-50000D01*
X275000D01*
X283000Y-42000D02*
Y-18000D01*
X307000D01*
Y-42000D01*
X283000D01*
X175000Y450000D02*
Y490000D01*
X215000D01*
Y450000D01*
X175000D01*
X183000Y458000D02*
Y482000D01*
X207000D01*
Y458000D01*
X183000D01*
X175000Y650000D02*
Y690000D01*
X215000D01*
Y650000D01*
X175000D01*
X183000Y658000D02*
Y682000D01*
X207000D01*
Y658000D01*
X183000D01*
X75000Y550000D02*
Y590000D01*
X115000D01*
Y550000D01*
X75000D01*
X83000Y558000D02*
Y582000D01*
X107000D01*
Y558000D01*
X83000D01*
X75000Y150000D02*
Y190000D01*
X115000D01*
Y150000D01*
X75000D01*
X83000Y158000D02*
Y182000D01*
X107000D01*
Y158000D01*
X83000D01*
X-25000Y650000D02*
Y690000D01*
X15000D01*
Y650000D01*
X-25000D01*
X-17000Y658000D02*
Y682000D01*
X7000D01*
Y658000D01*
X-17000D01*
X175000Y875000D02*
Y915000D01*
X215000D01*
Y875000D01*
X175000D01*
X183000Y883000D02*
Y907000D01*
X207000D01*
Y883000D01*
X183000D01*
X175000Y1050000D02*
Y1090000D01*
X215000D01*
Y1050000D01*
X175000D01*
X183000Y1058000D02*
Y1082000D01*
X207000D01*
Y1058000D01*
X183000D01*
X260000Y950000D02*
Y990000D01*
X300000D01*
Y950000D01*
X260000D01*
X268000Y958000D02*
Y982000D01*
X292000D01*
Y958000D01*
X268000D01*
X175000Y1250000D02*
Y1290000D01*
X215000D01*
Y1250000D01*
X175000D01*
X183000Y1258000D02*
Y1282000D01*
X207000D01*
Y1258000D01*
X183000D01*
X260000Y1150000D02*
Y1190000D01*
X300000D01*
Y1150000D01*
X260000D01*
X268000Y1158000D02*
Y1182000D01*
X292000D01*
Y1158000D01*
X268000D01*
X100000Y955000D02*
Y995000D01*
X140000D01*
Y955000D01*
X100000D01*
X108000Y963000D02*
Y987000D01*
X132000D01*
Y963000D01*
X108000D01*
X90000Y1150000D02*
Y1190000D01*
X130000D01*
Y1150000D01*
X90000D01*
X98000Y1158000D02*
Y1182000D01*
X122000D01*
Y1158000D01*
X98000D01*
X405000Y870000D02*
Y910000D01*
X445000D01*
Y870000D01*
X405000D01*
X413000Y878000D02*
Y902000D01*
X437000D01*
Y878000D01*
X413000D01*
X580000Y870000D02*
Y910000D01*
X620000D01*
Y870000D01*
X580000D01*
X588000Y878000D02*
Y902000D01*
X612000D01*
Y878000D01*
X588000D01*
X745353Y982696D02*
Y1022696D01*
X785353D01*
Y982696D01*
X745353D01*
X753353Y990696D02*
Y1014696D01*
X777353D01*
Y990696D01*
X753353D01*
X745353Y1180527D02*
Y1220527D01*
X785353D01*
Y1180527D01*
X745353D01*
X753353Y1188527D02*
Y1212527D01*
X777353D01*
Y1188527D01*
X753353D01*
X745353Y1380527D02*
Y1420527D01*
X785353D01*
Y1380527D01*
X745353D01*
X753353Y1388527D02*
Y1412527D01*
X777353D01*
Y1388527D01*
X753353D01*
X275000Y1550000D02*
Y1590000D01*
X315000D01*
Y1550000D01*
X275000D01*
X283000Y1558000D02*
Y1582000D01*
X307000D01*
Y1558000D01*
X283000D01*
X275000Y1950000D02*
Y1990000D01*
X315000D01*
Y1950000D01*
X275000D01*
X283000Y1958000D02*
Y1982000D01*
X307000D01*
Y1958000D01*
X283000D01*
X375000Y2050000D02*
Y2090000D01*
X415000D01*
Y2050000D01*
X375000D01*
X383000Y2058000D02*
Y2082000D01*
X407000D01*
Y2058000D01*
X383000D01*
X-25000Y2450000D02*
Y2490000D01*
X15000D01*
Y2450000D01*
X-25000D01*
X-17000Y2458000D02*
Y2482000D01*
X7000D01*
Y2458000D01*
X-17000D01*
X75000Y2350000D02*
Y2390000D01*
X115000D01*
Y2350000D01*
X75000D01*
X83000Y2358000D02*
Y2382000D01*
X107000D01*
Y2358000D01*
X83000D01*
X175000Y2450000D02*
Y2490000D01*
X215000D01*
Y2450000D01*
X175000D01*
X183000Y2458000D02*
Y2482000D01*
X207000D01*
Y2458000D01*
X183000D01*
X-25000Y2250000D02*
Y2290000D01*
X15000D01*
Y2250000D01*
X-25000D01*
X-17000Y2258000D02*
Y2282000D01*
X7000D01*
Y2258000D01*
X-17000D01*
X755000Y2645000D02*
Y2685000D01*
X795000D01*
Y2645000D01*
X755000D01*
X763000Y2653000D02*
Y2677000D01*
X787000D01*
Y2653000D01*
X763000D01*
X750000Y2455000D02*
Y2495000D01*
X790000D01*
Y2455000D01*
X750000D01*
X758000Y2463000D02*
Y2487000D01*
X782000D01*
Y2463000D01*
X758000D01*
X685000Y2335000D02*
Y2375000D01*
X725000D01*
Y2335000D01*
X685000D01*
X693000Y2343000D02*
Y2367000D01*
X717000D01*
Y2343000D01*
X693000D01*
X350000Y1265000D02*
Y1305000D01*
X390000D01*
Y1265000D01*
X350000D01*
X358000Y1273000D02*
Y1297000D01*
X382000D01*
Y1273000D01*
X358000D01*
X525000Y1250000D02*
Y1290000D01*
X565000D01*
Y1250000D01*
X525000D01*
X533000Y1258000D02*
Y1282000D01*
X557000D01*
Y1258000D01*
X533000D01*
X450000Y-50000D02*
Y-10000D01*
X490000D01*
Y-50000D01*
X450000D01*
X458000Y-42000D02*
Y-18000D01*
X482000D01*
Y-42000D01*
X458000D01*
X1075000Y1535000D02*
Y1575000D01*
X1115000D01*
Y1535000D01*
X1075000D01*
X1083000Y1543000D02*
Y1567000D01*
X1107000D01*
Y1543000D01*
X1083000D01*
X1285000Y1545000D02*
Y1585000D01*
X1325000D01*
Y1545000D01*
X1285000D01*
X1293000Y1553000D02*
Y1577000D01*
X1317000D01*
Y1553000D01*
X1293000D01*
X3400000Y1420000D02*
X3420000Y1440000D01*
X3440000Y1420000D01*
X3420000Y1400000D01*
X3400000Y1420000D01*
X750000Y1725000D02*
Y1765000D01*
X790000D01*
Y1725000D01*
X750000D01*
X758000Y1733000D02*
Y1757000D01*
X782000D01*
Y1733000D01*
X758000D01*
X750000Y1925000D02*
Y1965000D01*
X790000D01*
Y1925000D01*
X750000D01*
X758000Y1933000D02*
Y1957000D01*
X782000D01*
Y1933000D01*
X758000D01*
D97*
X464447Y125000D02*
G03*
X464447Y125000I-20000J0D01*
G01*
X661297D02*
G03*
X661297Y125000I-20000J0D01*
G01*
X650553Y3715000D02*
G03*
X650553Y3715000I-20000J0D01*
G01*
X453703D02*
G03*
X453703Y3715000I-20000J0D01*
G01*
X122665Y3221575D02*
G03*
X122665Y3221575I-20000J0D01*
G01*
Y3418425D02*
G03*
X122665Y3418425I-20000J0D01*
G01*
Y2776575D02*
G03*
X122665Y2776575I-20000J0D01*
G01*
Y2973425D02*
G03*
X122665Y2973425I-20000J0D01*
G01*
X2715000Y2260000D02*
G03*
X2715000Y2260000I-20000J0D01*
G01*
X1950000Y1660000D02*
G03*
X1950000Y1660000I-20000J0D01*
G01*
X1795000Y1680000D02*
G03*
X1795000Y1680000I-20000J0D01*
G01*
X1991995Y1590000D02*
G03*
X1991995Y1590000I-20000J0D01*
G01*
X2600000Y1340000D02*
G03*
X2600000Y1340000I-20000J0D01*
G01*
X2542500Y1425000D02*
G03*
X2542500Y1425000I-20000J0D01*
G01*
X2715000Y1340000D02*
G03*
X2715000Y1340000I-20000J0D01*
G01*
X2830000D02*
G03*
X2830000Y1340000I-20000J0D01*
G01*
X2427500Y1425000D02*
G03*
X2427500Y1425000I-20000J0D01*
G01*
X2082500D02*
G03*
X2082500Y1425000I-20000J0D01*
G01*
X1852500D02*
G03*
X1852500Y1425000I-20000J0D01*
G01*
X1795000Y1340000D02*
G03*
X1795000Y1340000I-20000J0D01*
G01*
Y1510000D02*
G03*
X1795000Y1510000I-20000J0D01*
G01*
X2255000D02*
G03*
X2255000Y1510000I-20000J0D01*
G01*
X2370000D02*
G03*
X2370000Y1510000I-20000J0D01*
G01*
X2485000D02*
G03*
X2485000Y1510000I-20000J0D01*
G01*
X2312500Y1595000D02*
G03*
X2312500Y1595000I-20000J0D01*
G01*
X2427500D02*
G03*
X2427500Y1595000I-20000J0D01*
G01*
X2255000Y1680000D02*
G03*
X2255000Y1680000I-20000J0D01*
G01*
X2370000D02*
G03*
X2370000Y1680000I-20000J0D01*
G01*
X2485000D02*
G03*
X2485000Y1680000I-20000J0D01*
G01*
X2657500Y1425000D02*
G03*
X2657500Y1425000I-20000J0D01*
G01*
X2600000Y1510000D02*
G03*
X2600000Y1510000I-20000J0D01*
G01*
X2542500Y1595000D02*
G03*
X2542500Y1595000I-20000J0D01*
G01*
X2735000Y1780000D02*
G03*
X2735000Y1780000I-20000J0D01*
G01*
X2240000Y2085000D02*
G03*
X2240000Y2085000I-20000J0D01*
G01*
X3018189Y1958976D02*
G03*
X3018189Y1958976I-20000J0D01*
G01*
X3060000Y1850000D02*
G03*
X3060000Y1850000I-20000J0D01*
G01*
X3290000D02*
G03*
X3290000Y1850000I-20000J0D01*
G01*
X3117500Y1595000D02*
G03*
X3117500Y1595000I-20000J0D01*
G01*
X2945000Y1000000D02*
G03*
X2945000Y1000000I-20000J0D01*
G01*
X3430245Y804054D02*
G03*
X3430245Y804054I-20000J0D01*
G01*
X3545245D02*
G03*
X3545245Y804054I-20000J0D01*
G01*
X3750000Y1170000D02*
G03*
X3750000Y1170000I-20000J0D01*
G01*
X3635000D02*
G03*
X3635000Y1170000I-20000J0D01*
G01*
X3450000Y1295000D02*
G03*
X3450000Y1295000I-20000J0D01*
G01*
X3232500Y1255000D02*
G03*
X3232500Y1255000I-20000J0D01*
G01*
X3290000Y1185000D02*
G03*
X3290000Y1185000I-20000J0D01*
G01*
X2887500Y1085000D02*
G03*
X2887500Y1085000I-20000J0D01*
G01*
X2945000Y1170000D02*
G03*
X2945000Y1170000I-20000J0D01*
G01*
X3002500Y1085000D02*
G03*
X3002500Y1085000I-20000J0D01*
G01*
X3175000Y1180000D02*
G03*
X3175000Y1180000I-20000J0D01*
G01*
X2140000Y1170000D02*
G03*
X2140000Y1170000I-20000J0D01*
G01*
X2547500Y1095000D02*
G03*
X2547500Y1095000I-20000J0D01*
G01*
X2432500D02*
G03*
X2432500Y1095000I-20000J0D01*
G01*
X2322500D02*
G03*
X2322500Y1095000I-20000J0D01*
G01*
X2207500D02*
G03*
X2207500Y1095000I-20000J0D01*
G01*
X1967500Y1085000D02*
G03*
X1967500Y1085000I-20000J0D01*
G01*
X1910000Y1170000D02*
G03*
X1910000Y1170000I-20000J0D01*
G01*
X1852500Y1255000D02*
G03*
X1852500Y1255000I-20000J0D01*
G01*
X1842745Y1108550D02*
G03*
X1842745Y1108550I-20000J0D01*
G01*
X1795000Y1170000D02*
G03*
X1795000Y1170000I-20000J0D01*
G01*
X2236976Y1151976D02*
G03*
X2236976Y1151976I-20000J0D01*
G01*
X2662500Y1095000D02*
G03*
X2662500Y1095000I-20000J0D01*
G01*
X2777500D02*
G03*
X2777500Y1095000I-20000J0D01*
G01*
X2600000Y1170000D02*
G03*
X2600000Y1170000I-20000J0D01*
G01*
X2715000D02*
G03*
X2715000Y1170000I-20000J0D01*
G01*
X2830000D02*
G03*
X2830000Y1170000I-20000J0D01*
G01*
X2006976Y981976D02*
G03*
X2006976Y981976I-20000J0D01*
G01*
X1795000Y1000000D02*
G03*
X1795000Y1000000I-20000J0D01*
G01*
X1919755Y976451D02*
G03*
X1919755Y976451I-20000J0D01*
G01*
X3000000Y2120394D02*
G03*
X3000000Y2120394I-20000J0D01*
G01*
X3325000Y805000D02*
G03*
X3325000Y805000I-20000J0D01*
G01*
X3210000D02*
G03*
X3210000Y805000I-20000J0D01*
G01*
X3095000D02*
G03*
X3095000Y805000I-20000J0D01*
G01*
X3660245Y804054D02*
G03*
X3660245Y804054I-20000J0D01*
G01*
D98*
X2707000Y2260000D02*
G03*
X2707000Y2260000I-12000J0D01*
G01*
X1942000Y1660000D02*
G03*
X1942000Y1660000I-12000J0D01*
G01*
X1787000Y1680000D02*
G03*
X1787000Y1680000I-12000J0D01*
G01*
X1983995Y1590000D02*
G03*
X1983995Y1590000I-12000J0D01*
G01*
X2592000Y1340000D02*
G03*
X2592000Y1340000I-12000J0D01*
G01*
X2534500Y1425000D02*
G03*
X2534500Y1425000I-12000J0D01*
G01*
X2707000Y1340000D02*
G03*
X2707000Y1340000I-12000J0D01*
G01*
X2822000D02*
G03*
X2822000Y1340000I-12000J0D01*
G01*
X2419500Y1425000D02*
G03*
X2419500Y1425000I-12000J0D01*
G01*
X2074500D02*
G03*
X2074500Y1425000I-12000J0D01*
G01*
X1844500D02*
G03*
X1844500Y1425000I-12000J0D01*
G01*
X1787000Y1340000D02*
G03*
X1787000Y1340000I-12000J0D01*
G01*
Y1510000D02*
G03*
X1787000Y1510000I-12000J0D01*
G01*
X2247000D02*
G03*
X2247000Y1510000I-12000J0D01*
G01*
X2362000D02*
G03*
X2362000Y1510000I-12000J0D01*
G01*
X2477000D02*
G03*
X2477000Y1510000I-12000J0D01*
G01*
X2304500Y1595000D02*
G03*
X2304500Y1595000I-12000J0D01*
G01*
X2419500D02*
G03*
X2419500Y1595000I-12000J0D01*
G01*
X2247000Y1680000D02*
G03*
X2247000Y1680000I-12000J0D01*
G01*
X2362000D02*
G03*
X2362000Y1680000I-12000J0D01*
G01*
X2477000D02*
G03*
X2477000Y1680000I-12000J0D01*
G01*
X2649500Y1425000D02*
G03*
X2649500Y1425000I-12000J0D01*
G01*
X2592000Y1510000D02*
G03*
X2592000Y1510000I-12000J0D01*
G01*
X2534500Y1595000D02*
G03*
X2534500Y1595000I-12000J0D01*
G01*
X2727000Y1780000D02*
G03*
X2727000Y1780000I-12000J0D01*
G01*
X2232000Y2085000D02*
G03*
X2232000Y2085000I-12000J0D01*
G01*
X3010189Y1958976D02*
G03*
X3010189Y1958976I-12000J0D01*
G01*
X3052000Y1850000D02*
G03*
X3052000Y1850000I-12000J0D01*
G01*
X3282000D02*
G03*
X3282000Y1850000I-12000J0D01*
G01*
X3109500Y1595000D02*
G03*
X3109500Y1595000I-12000J0D01*
G01*
X2937000Y1000000D02*
G03*
X2937000Y1000000I-12000J0D01*
G01*
X3422245Y804054D02*
G03*
X3422245Y804054I-12000J0D01*
G01*
X3537245D02*
G03*
X3537245Y804054I-12000J0D01*
G01*
X3742000Y1170000D02*
G03*
X3742000Y1170000I-12000J0D01*
G01*
X3627000D02*
G03*
X3627000Y1170000I-12000J0D01*
G01*
X3442000Y1295000D02*
G03*
X3442000Y1295000I-12000J0D01*
G01*
X3224500Y1255000D02*
G03*
X3224500Y1255000I-12000J0D01*
G01*
X3282000Y1185000D02*
G03*
X3282000Y1185000I-12000J0D01*
G01*
X2879500Y1085000D02*
G03*
X2879500Y1085000I-12000J0D01*
G01*
X2937000Y1170000D02*
G03*
X2937000Y1170000I-12000J0D01*
G01*
X2994500Y1085000D02*
G03*
X2994500Y1085000I-12000J0D01*
G01*
X3167000Y1180000D02*
G03*
X3167000Y1180000I-12000J0D01*
G01*
X2132000Y1170000D02*
G03*
X2132000Y1170000I-12000J0D01*
G01*
X2539500Y1095000D02*
G03*
X2539500Y1095000I-12000J0D01*
G01*
X2424500D02*
G03*
X2424500Y1095000I-12000J0D01*
G01*
X2314500D02*
G03*
X2314500Y1095000I-12000J0D01*
G01*
X2199500D02*
G03*
X2199500Y1095000I-12000J0D01*
G01*
X1959500Y1085000D02*
G03*
X1959500Y1085000I-12000J0D01*
G01*
X1902000Y1170000D02*
G03*
X1902000Y1170000I-12000J0D01*
G01*
X1844500Y1255000D02*
G03*
X1844500Y1255000I-12000J0D01*
G01*
X1834745Y1108550D02*
G03*
X1834745Y1108550I-12000J0D01*
G01*
X1787000Y1170000D02*
G03*
X1787000Y1170000I-12000J0D01*
G01*
X2228976Y1151976D02*
G03*
X2228976Y1151976I-12000J0D01*
G01*
X2654500Y1095000D02*
G03*
X2654500Y1095000I-12000J0D01*
G01*
X2769500D02*
G03*
X2769500Y1095000I-12000J0D01*
G01*
X2592000Y1170000D02*
G03*
X2592000Y1170000I-12000J0D01*
G01*
X2707000D02*
G03*
X2707000Y1170000I-12000J0D01*
G01*
X2822000D02*
G03*
X2822000Y1170000I-12000J0D01*
G01*
X1998976Y981976D02*
G03*
X1998976Y981976I-12000J0D01*
G01*
X1787000Y1000000D02*
G03*
X1787000Y1000000I-12000J0D01*
G01*
X1911755Y976451D02*
G03*
X1911755Y976451I-12000J0D01*
G01*
X2992000Y2120394D02*
G03*
X2992000Y2120394I-12000J0D01*
G01*
X3317000Y805000D02*
G03*
X3317000Y805000I-12000J0D01*
G01*
X3202000D02*
G03*
X3202000Y805000I-12000J0D01*
G01*
X3087000D02*
G03*
X3087000Y805000I-12000J0D01*
G01*
X3652245Y804054D02*
G03*
X3652245Y804054I-12000J0D01*
G01*
%TF.MD5,97bc0c46f3f7461fa5f1f2fe5ce94669*%
M02*
