G04 Layer_Color=255*
%FSLAX26Y26*%
%MOIN*%
%TF.FileFunction,Pads,Bot*%
%TF.Part,Single*%
G01*
G75*
%TA.AperFunction,SMDPad,CuDef*%
%ADD10R,0.059055X0.074803*%
%ADD18R,0.059055X0.055118*%
%TA.AperFunction,WasherPad*%
%ADD29C,0.060000*%
%TA.AperFunction,ComponentPad*%
%ADD30C,0.118110*%
%ADD31R,0.118110X0.118110*%
%ADD32R,0.118110X0.118110*%
%ADD33R,0.059055X0.059055*%
%ADD34C,0.059055*%
%ADD35C,0.060000*%
%ADD36R,0.060000X0.060000*%
%ADD37R,0.060000X0.060000*%
%ADD38C,0.078740*%
%TA.AperFunction,SMDPad,CuDef*%
%ADD42R,0.070866X0.062992*%
%ADD43O,0.051181X0.023622*%
%ADD44O,0.023622X0.059055*%
D10*
X241023Y1815000D02*
D03*
X118976D02*
D03*
X853661Y2665000D02*
D03*
X975709D02*
D03*
D18*
X200000Y280000D02*
D03*
Y201260D02*
D03*
D29*
X0Y0D02*
D03*
X3779526D02*
D03*
Y3779528D02*
D03*
X0D02*
D03*
D30*
X444447Y125000D02*
D03*
X630553Y3715000D02*
D03*
X102665Y3221575D02*
D03*
Y2776575D02*
D03*
D31*
X641297Y125000D02*
D03*
X433703Y3715000D02*
D03*
D32*
X102665Y3418425D02*
D03*
Y2973425D02*
D03*
D33*
X625002Y2590000D02*
D03*
Y1830500D02*
D03*
Y1071000D02*
D03*
X3761001Y2110000D02*
D03*
X3554996Y1715000D02*
D03*
X3325001Y1005000D02*
D03*
X3754999Y1005000D02*
D03*
Y1360413D02*
D03*
D34*
X525002Y2590000D02*
D03*
X425002D02*
D03*
X525002Y1830500D02*
D03*
X425002D02*
D03*
X525002Y1071000D02*
D03*
X425002D02*
D03*
X3661001Y2110000D02*
D03*
X3561001D02*
D03*
X3654996Y1715000D02*
D03*
X3754996D02*
D03*
X3225001Y1005000D02*
D03*
X3125001D02*
D03*
X3654999Y1005000D02*
D03*
X3554999D02*
D03*
X3654999Y1360413D02*
D03*
X3554999D02*
D03*
X1245000Y1635000D02*
D03*
X1845000D02*
D03*
X2045000D02*
D03*
X1145000D02*
D03*
X2045000Y1035000D02*
D03*
X1845000D02*
D03*
X1245000D02*
D03*
X1145000D02*
D03*
X508787Y2790000D02*
D03*
Y2890000D02*
D03*
X723787Y2790000D02*
D03*
Y2890000D02*
D03*
D35*
X2065000Y2550000D02*
D03*
X1965000D02*
D03*
X2565000D02*
D03*
X2465000D02*
D03*
X2365000D02*
D03*
X2265000D02*
D03*
X2165000D02*
D03*
X2065000Y2450000D02*
D03*
X1965000D02*
D03*
X2565000D02*
D03*
X2465000D02*
D03*
X2365000D02*
D03*
X2265000D02*
D03*
X2165000D02*
D03*
X3150000D02*
D03*
X3050000D02*
D03*
X3650000D02*
D03*
X3550000D02*
D03*
X3450000D02*
D03*
X3350000D02*
D03*
X3250000D02*
D03*
X3740000Y3060000D02*
D03*
Y3160000D02*
D03*
Y3260000D02*
D03*
X3150000Y2550000D02*
D03*
X3050000D02*
D03*
X3650000D02*
D03*
X3550000D02*
D03*
X3450000D02*
D03*
X3350000D02*
D03*
X3250000D02*
D03*
X230000Y2285000D02*
D03*
X330000D02*
D03*
X2450000Y1245000D02*
D03*
X2550000D02*
D03*
X239843Y1490000D02*
D03*
X339842D02*
D03*
X1235000Y2070000D02*
D03*
X1335000D02*
D03*
D36*
X1865000Y2550000D02*
D03*
Y2450000D02*
D03*
X2950000D02*
D03*
Y2550000D02*
D03*
X130000Y2285000D02*
D03*
X2350000Y1245000D02*
D03*
X139843Y1490000D02*
D03*
X1135000Y2070000D02*
D03*
D37*
X3740000Y2960000D02*
D03*
D38*
X508787Y3190000D02*
D03*
Y3490000D02*
D03*
X723787Y3190000D02*
D03*
Y3490000D02*
D03*
D42*
X530000Y2199882D02*
D03*
Y2310118D02*
D03*
X200000Y110118D02*
D03*
Y-118D02*
D03*
X535000Y1399882D02*
D03*
Y1510118D02*
D03*
X1535000Y1994882D02*
D03*
Y2105118D02*
D03*
D43*
X3114331Y2095000D02*
D03*
Y2045000D02*
D03*
Y1995000D02*
D03*
Y1945000D02*
D03*
X2905669Y2095000D02*
D03*
Y2045000D02*
D03*
Y1995000D02*
D03*
Y1945000D02*
D03*
X3114331Y1790000D02*
D03*
Y1740000D02*
D03*
Y1690000D02*
D03*
Y1640000D02*
D03*
X2905669Y1790000D02*
D03*
Y1740000D02*
D03*
Y1690000D02*
D03*
Y1640000D02*
D03*
X3114331Y1485000D02*
D03*
Y1435000D02*
D03*
Y1385000D02*
D03*
Y1335000D02*
D03*
X2905669Y1485000D02*
D03*
Y1435000D02*
D03*
Y1385000D02*
D03*
Y1335000D02*
D03*
D44*
X2290000Y2263268D02*
D03*
X2340000D02*
D03*
X2390000D02*
D03*
X2440000D02*
D03*
X2490000D02*
D03*
X2540000D02*
D03*
X2590000D02*
D03*
X2640000D02*
D03*
X2290000Y2046732D02*
D03*
X2340000D02*
D03*
X2390000D02*
D03*
X2440000D02*
D03*
X2490000D02*
D03*
X2540000D02*
D03*
X2590000D02*
D03*
X2640000D02*
D03*
X1775000Y2263268D02*
D03*
X1825000D02*
D03*
X1875000D02*
D03*
X1925000D02*
D03*
X1975000D02*
D03*
X2025000D02*
D03*
X2075000D02*
D03*
X2125000D02*
D03*
X1775000Y2046732D02*
D03*
X1825000D02*
D03*
X1875000D02*
D03*
X1925000D02*
D03*
X1975000D02*
D03*
X2025000D02*
D03*
X2075000D02*
D03*
X2125000D02*
D03*
%TF.MD5,7b12a40f8996b411709ffc6081714016*%
M02*
