G04 Layer_Color=8388736*
%FSLAX26Y26*%
%MOIN*%
%TF.FileFunction,Soldermask,Top*%
%TF.Part,Single*%
G01*
G75*
%TA.AperFunction,SMDPad,CuDef*%
%ADD51R,0.067055X0.082803*%
%ADD52R,0.082803X0.067055*%
%ADD53R,0.115087X0.156425*%
%ADD54R,0.156425X0.115087*%
%ADD55R,0.051307X0.322961*%
%ADD56R,0.056819X0.283591*%
%TA.AperFunction,ConnectorPad*%
%ADD57R,0.051307X0.322961*%
%ADD58R,0.056819X0.283591*%
%TA.AperFunction,SMDPad,CuDef*%
%ADD59R,0.067055X0.063118*%
%ADD60R,0.063118X0.067055*%
%ADD61O,0.031622X0.059181*%
%TA.AperFunction,WasherPad*%
%ADD62C,0.068000*%
%TA.AperFunction,ComponentPad*%
%ADD63C,0.126110*%
%ADD64R,0.126110X0.126110*%
%ADD65R,0.126110X0.126110*%
%ADD66R,0.067055X0.067055*%
%ADD67C,0.067055*%
%ADD68C,0.068000*%
%ADD69R,0.068000X0.068000*%
%ADD70R,0.068000X0.068000*%
%ADD71C,0.086740*%
%TA.AperFunction,ViaPad*%
%ADD72C,0.038000*%
%ADD73C,0.058000*%
%ADD74C,0.048000*%
D51*
X241024Y1815000D02*
D03*
X118976D02*
D03*
X241024Y2135000D02*
D03*
X118976D02*
D03*
X2051024Y1500000D02*
D03*
X1928976D02*
D03*
X2456024Y1365000D02*
D03*
X2333976D02*
D03*
X261024Y1370000D02*
D03*
X138976D02*
D03*
X2948976Y2039685D02*
D03*
X3071024D02*
D03*
X1221024Y2170000D02*
D03*
X1098976D02*
D03*
X2958976Y1740000D02*
D03*
X3081024D02*
D03*
X2948976Y1440000D02*
D03*
X3071024D02*
D03*
D52*
X1190000Y1946024D02*
D03*
Y1823976D02*
D03*
D53*
X154685Y1980000D02*
D03*
X15315D02*
D03*
X2139685Y1305000D02*
D03*
X2000315D02*
D03*
X154685Y1655000D02*
D03*
X15315D02*
D03*
D54*
X1020000Y1959685D02*
D03*
Y1820315D02*
D03*
D55*
X694490Y2590000D02*
D03*
X355514D02*
D03*
X694490Y1830500D02*
D03*
X355514D02*
D03*
X694490Y1071000D02*
D03*
X355514D02*
D03*
X3394490Y1005000D02*
D03*
X3055513D02*
D03*
D56*
X426577Y2590000D02*
D03*
X623427D02*
D03*
X525002D02*
D03*
X426577Y1830500D02*
D03*
X623427D02*
D03*
X525002D02*
D03*
X426577Y1071000D02*
D03*
X623427D02*
D03*
X525002D02*
D03*
X3126576Y1005000D02*
D03*
X3323427D02*
D03*
X3225001D02*
D03*
D57*
X3830489Y2110000D02*
D03*
X3491513D02*
D03*
X3485508Y1715000D02*
D03*
X3824484D02*
D03*
X3824487Y1005000D02*
D03*
X3485510D02*
D03*
X3824487Y1360413D02*
D03*
X3485510D02*
D03*
D58*
X3562576Y2110000D02*
D03*
X3759426D02*
D03*
X3661001D02*
D03*
X3753421Y1715000D02*
D03*
X3556571D02*
D03*
X3654996D02*
D03*
X3556573Y1005000D02*
D03*
X3753424D02*
D03*
X3654999D02*
D03*
X3556573Y1360413D02*
D03*
X3753424D02*
D03*
X3654999D02*
D03*
D59*
X415000Y2279370D02*
D03*
Y2200630D02*
D03*
X420000Y1484370D02*
D03*
Y1405630D02*
D03*
X1420000Y2074370D02*
D03*
Y1995630D02*
D03*
X425000Y2805630D02*
D03*
Y2884370D02*
D03*
X3560000Y2980630D02*
D03*
Y3059370D02*
D03*
X640000Y2805630D02*
D03*
Y2884370D02*
D03*
D60*
X845630Y2930000D02*
D03*
X924370D02*
D03*
X3485630Y2895000D02*
D03*
X3564370D02*
D03*
X3160630Y2360000D02*
D03*
X3239370D02*
D03*
X845630Y2845000D02*
D03*
X924370D02*
D03*
D61*
X1044685Y2769331D02*
D03*
X994685D02*
D03*
X944685D02*
D03*
X894685D02*
D03*
X1044685Y2560669D02*
D03*
X994685D02*
D03*
X944685D02*
D03*
X894685D02*
D03*
D62*
X0Y0D02*
D03*
X3779526D02*
D03*
Y3779528D02*
D03*
X0D02*
D03*
D63*
X444447Y125000D02*
D03*
X630553Y3715000D02*
D03*
X102665Y3221575D02*
D03*
Y2776575D02*
D03*
D64*
X641297Y125000D02*
D03*
X433703Y3715000D02*
D03*
D65*
X102665Y3418425D02*
D03*
Y2973425D02*
D03*
D66*
X625002Y2590000D02*
D03*
Y1830500D02*
D03*
Y1071000D02*
D03*
X3761001Y2110000D02*
D03*
X3554996Y1715000D02*
D03*
X3325001Y1005000D02*
D03*
X3754999Y1005000D02*
D03*
Y1360413D02*
D03*
D67*
X525002Y2590000D02*
D03*
X425002D02*
D03*
X525002Y1830500D02*
D03*
X425002D02*
D03*
X525002Y1071000D02*
D03*
X425002D02*
D03*
X3661001Y2110000D02*
D03*
X3561001D02*
D03*
X3654996Y1715000D02*
D03*
X3754996D02*
D03*
X3225001Y1005000D02*
D03*
X3125001D02*
D03*
X3654999Y1005000D02*
D03*
X3554999D02*
D03*
X3654999Y1360413D02*
D03*
X3554999D02*
D03*
X1245000Y1635000D02*
D03*
X1845000D02*
D03*
X2045000D02*
D03*
X1145000D02*
D03*
X2045000Y1035000D02*
D03*
X1845000D02*
D03*
X1245000D02*
D03*
X1145000D02*
D03*
X508787Y2790000D02*
D03*
Y2890000D02*
D03*
X723787Y2790000D02*
D03*
Y2890000D02*
D03*
D68*
X2065000Y2550000D02*
D03*
X1965000D02*
D03*
X2565000D02*
D03*
X2465000D02*
D03*
X2365000D02*
D03*
X2265000D02*
D03*
X2165000D02*
D03*
X2065000Y2450000D02*
D03*
X1965000D02*
D03*
X2565000D02*
D03*
X2465000D02*
D03*
X2365000D02*
D03*
X2265000D02*
D03*
X2165000D02*
D03*
X3150000D02*
D03*
X3050000D02*
D03*
X3650000D02*
D03*
X3550000D02*
D03*
X3450000D02*
D03*
X3350000D02*
D03*
X3250000D02*
D03*
X3740000Y3060000D02*
D03*
Y3160000D02*
D03*
Y3260000D02*
D03*
X3150000Y2550000D02*
D03*
X3050000D02*
D03*
X3650000D02*
D03*
X3550000D02*
D03*
X3450000D02*
D03*
X3350000D02*
D03*
X3250000D02*
D03*
X230000Y2285000D02*
D03*
X330000D02*
D03*
X2450000Y1245000D02*
D03*
X2550000D02*
D03*
X239843Y1490000D02*
D03*
X339842D02*
D03*
X1235000Y2070000D02*
D03*
X1335000D02*
D03*
D69*
X1865000Y2550000D02*
D03*
Y2450000D02*
D03*
X2950000D02*
D03*
Y2550000D02*
D03*
X130000Y2285000D02*
D03*
X2350000Y1245000D02*
D03*
X139843Y1490000D02*
D03*
X1135000Y2070000D02*
D03*
D70*
X3740000Y2960000D02*
D03*
D71*
X508787Y3190000D02*
D03*
Y3490000D02*
D03*
X723787Y3190000D02*
D03*
Y3490000D02*
D03*
D72*
X1049685Y2495000D02*
D03*
X894685Y2500000D02*
D03*
X50000Y1560000D02*
D03*
X-25000D02*
D03*
X40000Y2095000D02*
D03*
X-10000D02*
D03*
X3245000Y1790000D02*
D03*
X3250000Y1485000D02*
D03*
X2160000Y1945000D02*
D03*
Y1875000D02*
D03*
X2185000Y1910000D02*
D03*
Y1840000D02*
D03*
X2160000Y1803579D02*
D03*
X2185000Y1768224D02*
D03*
X2860000Y1945000D02*
D03*
X2765000Y1899645D02*
D03*
X2780000Y1990000D02*
D03*
X2785000Y2095000D02*
D03*
X2780000Y1790000D02*
D03*
Y1690000D02*
D03*
X2600000Y1695000D02*
D03*
Y1595000D02*
D03*
X2840000Y1435000D02*
D03*
Y1740000D02*
D03*
X2845000Y2045000D02*
D03*
X2165000D02*
D03*
X2685000Y2050000D02*
D03*
X2415000Y1720000D02*
D03*
X2155000D02*
D03*
X2290000Y2325000D02*
D03*
X2165000Y2261535D02*
D03*
X2695000Y2260000D02*
D03*
X1930000Y1660000D02*
D03*
X1775000Y1680000D02*
D03*
X1971995Y1590000D02*
D03*
X2580000Y1340000D02*
D03*
X2522500Y1425000D02*
D03*
X2695000Y1340000D02*
D03*
X2810000D02*
D03*
X2407500Y1425000D02*
D03*
X2062500D02*
D03*
X1832500D02*
D03*
X1775000Y1340000D02*
D03*
Y1510000D02*
D03*
X2235000D02*
D03*
X2350000D02*
D03*
X2465000D02*
D03*
X2292500Y1595000D02*
D03*
X2407500D02*
D03*
X2235000Y1680000D02*
D03*
X2350000D02*
D03*
X2465000D02*
D03*
X2637500Y1425000D02*
D03*
X2580000Y1510000D02*
D03*
X2522500Y1595000D02*
D03*
X2715000Y1780000D02*
D03*
X2220000Y2085000D02*
D03*
X2998189Y1958976D02*
D03*
X3040000Y1850000D02*
D03*
X3270000D02*
D03*
X3097500Y1595000D02*
D03*
X2925000Y1000000D02*
D03*
X3410245Y804054D02*
D03*
X3525245D02*
D03*
X3730000Y1170000D02*
D03*
X3615000D02*
D03*
X3430000Y1295000D02*
D03*
X3212500Y1255000D02*
D03*
X3270000Y1185000D02*
D03*
X2867500Y1085000D02*
D03*
X2925000Y1170000D02*
D03*
X2982500Y1085000D02*
D03*
X3155000Y1180000D02*
D03*
X2120000Y1170000D02*
D03*
X2527500Y1095000D02*
D03*
X2412500D02*
D03*
X2302500D02*
D03*
X2187500D02*
D03*
X1947500Y1085000D02*
D03*
X1890000Y1170000D02*
D03*
X1832500Y1255000D02*
D03*
X1822745Y1108550D02*
D03*
X1775000Y1170000D02*
D03*
X2216976Y1151976D02*
D03*
X2642500Y1095000D02*
D03*
X2757500D02*
D03*
X2580000Y1170000D02*
D03*
X2695000D02*
D03*
X2810000D02*
D03*
X1986976Y981976D02*
D03*
X1775000Y1000000D02*
D03*
X1899755Y976451D02*
D03*
X2980000Y2120394D02*
D03*
X3305000Y805000D02*
D03*
X3190000D02*
D03*
X3075000D02*
D03*
X3640245Y804054D02*
D03*
D73*
X1010000Y2270000D02*
D03*
X1129685Y2665000D02*
D03*
X470000Y2199882D02*
D03*
X475000Y1405000D02*
D03*
X3420000Y1360000D02*
D03*
Y1480000D02*
D03*
X3165000Y2045000D02*
D03*
X3175000Y1740000D02*
D03*
Y1440000D02*
D03*
X2930000Y875000D02*
D03*
X1720000Y2385000D02*
D03*
X1775000Y2325000D02*
D03*
X1015000Y2185000D02*
D03*
X1475000Y1995000D02*
D03*
X3420000Y1420000D02*
D03*
D74*
X3300000Y3585000D02*
D03*
X3400000Y3485000D02*
D03*
X3500000Y3585000D02*
D03*
X3600000Y3485000D02*
D03*
X3400000Y3685000D02*
D03*
X3600000D02*
D03*
X3500000Y3785000D02*
D03*
X3300000D02*
D03*
X3700000Y3585000D02*
D03*
X3300000Y3385000D02*
D03*
X3500000D02*
D03*
X3700000D02*
D03*
X3800000Y3485000D02*
D03*
X3600000Y3285000D02*
D03*
X3400000D02*
D03*
X3300000Y3185000D02*
D03*
X3200000Y3040000D02*
D03*
X3000000Y2840000D02*
D03*
X3100000Y2940000D02*
D03*
X3715000Y2770000D02*
D03*
X3800000Y2835000D02*
D03*
X3620000D02*
D03*
X3625000Y2715000D02*
D03*
X3525000Y2770000D02*
D03*
X3435000Y2835000D02*
D03*
X3805000Y2715000D02*
D03*
X3715000Y2660000D02*
D03*
X3805000Y2605000D02*
D03*
Y2495000D02*
D03*
Y2385000D02*
D03*
X3715000Y2330000D02*
D03*
X3625000Y2305000D02*
D03*
X3380000Y2360000D02*
D03*
X3305000Y2315000D02*
D03*
X3385000Y2265000D02*
D03*
X2975000Y2305000D02*
D03*
X3040000Y2350000D02*
D03*
X3095000Y2300000D02*
D03*
X2660000Y2450000D02*
D03*
Y2560000D02*
D03*
X2750000Y2505000D02*
D03*
X1765000Y2440000D02*
D03*
X1580000D02*
D03*
Y2560000D02*
D03*
X1765000D02*
D03*
X1675000Y2495000D02*
D03*
X1490000Y2385000D02*
D03*
X1500000Y2495000D02*
D03*
X1345000Y2345000D02*
D03*
X1300000Y2755000D02*
D03*
X1245000Y2665000D02*
D03*
X1190000Y2755000D02*
D03*
X1090000Y2765000D02*
D03*
X1495000Y970000D02*
D03*
X1295000D02*
D03*
X1095000D02*
D03*
X1495000Y1170000D02*
D03*
X1095000Y1370000D02*
D03*
X1295000D02*
D03*
X1395000Y1270000D02*
D03*
X1195000D02*
D03*
X1395000Y1070000D02*
D03*
X1295000Y1170000D02*
D03*
X1095000D02*
D03*
X1495000Y1370000D02*
D03*
X1395000Y1470000D02*
D03*
X1495000Y1570000D02*
D03*
X1195000Y1470000D02*
D03*
X1395000Y1670000D02*
D03*
X1495000Y1770000D02*
D03*
X1295000D02*
D03*
X1395000Y1870000D02*
D03*
X1295000Y1970000D02*
D03*
X995000Y1270000D02*
D03*
Y1070000D02*
D03*
Y870000D02*
D03*
X905000Y755000D02*
D03*
X795000Y670000D02*
D03*
X695000Y570000D02*
D03*
X595000Y470000D02*
D03*
X695000Y370000D02*
D03*
X595000Y670000D02*
D03*
Y270000D02*
D03*
X695000Y-30000D02*
D03*
X295000Y570000D02*
D03*
Y370000D02*
D03*
X-5000Y470000D02*
D03*
Y270000D02*
D03*
X95000Y370000D02*
D03*
X295000Y170000D02*
D03*
Y-30000D02*
D03*
X195000Y470000D02*
D03*
Y670000D02*
D03*
X95000Y570000D02*
D03*
Y170000D02*
D03*
X-5000Y670000D02*
D03*
X195000Y895000D02*
D03*
Y1070000D02*
D03*
X280000Y970000D02*
D03*
X195000Y1270000D02*
D03*
X280000Y1170000D02*
D03*
X120000Y975000D02*
D03*
X110000Y1170000D02*
D03*
X425000Y890000D02*
D03*
X600000D02*
D03*
X765353Y1002696D02*
D03*
Y1200527D02*
D03*
Y1400527D02*
D03*
X295000Y1570000D02*
D03*
Y1970000D02*
D03*
X395000Y2070000D02*
D03*
X-5000Y2470000D02*
D03*
X95000Y2370000D02*
D03*
X195000Y2470000D02*
D03*
X-5000Y2270000D02*
D03*
X775000Y2665000D02*
D03*
X770000Y2475000D02*
D03*
X705000Y2355000D02*
D03*
X370000Y1285000D02*
D03*
X545000Y1270000D02*
D03*
X470000Y-30000D02*
D03*
X1095000Y1555000D02*
D03*
X1305000Y1565000D02*
D03*
X770000Y1745000D02*
D03*
Y1945000D02*
D03*
%TF.MD5,3b5f59ac7713b70c5ffe8e881920f8a7*%
M02*
