G04 Layer_Color=16711935*
%FSLAX25Y25*%
%MOIN*%
G70*
G01*
G75*
%ADD44C,0.00787*%
%ADD73C,0.00394*%
D44*
X-7500Y-7500D02*
Y385400D01*
X385700Y-7500D02*
Y385400D01*
D73*
X92441Y262169D02*
G03*
X92441Y262169I-1969J0D01*
G01*
X298638Y134504D02*
G03*
X298638Y134504I-1969J0D01*
G01*
X180630Y219831D02*
G03*
X180630Y219831I-1969J0D01*
G01*
X298638Y165004D02*
G03*
X298638Y165004I-1969J0D01*
G01*
X232130Y219831D02*
G03*
X232130Y219831I-1969J0D01*
G01*
X298638Y195504D02*
G03*
X298638Y195504I-1969J0D01*
G01*
X86929Y258626D02*
X107008D01*
X86929Y274374D02*
X107008D01*
X86929Y258626D02*
Y274374D01*
X107008Y258626D02*
Y274374D01*
X293126Y130961D02*
Y151039D01*
X308874Y130961D02*
Y151039D01*
X293126Y130961D02*
X308874D01*
X293126Y151039D02*
X308874D01*
X214882Y207626D02*
Y223374D01*
X175118Y207626D02*
Y223374D01*
Y207626D02*
X214882D01*
X175118Y223374D02*
X214882D01*
X293126Y161461D02*
Y181539D01*
X308874Y161461D02*
Y181539D01*
X293126Y161461D02*
X308874D01*
X293126Y181539D02*
X308874D01*
X266382Y207626D02*
Y223374D01*
X226618Y207626D02*
Y223374D01*
Y207626D02*
X266382D01*
X226618Y223374D02*
X266382D01*
X293126Y191961D02*
Y212039D01*
X308874Y191961D02*
Y212039D01*
X293126Y191961D02*
X308874D01*
X293126Y212039D02*
X308874D01*
X61244Y288732D02*
X66756D01*
X61244Y280268D02*
X66756D01*
Y288732D01*
X61244Y280268D02*
Y288732D01*
X92732Y281744D02*
Y287256D01*
X84268Y281744D02*
Y287256D01*
Y281744D02*
X92732D01*
X84268Y287256D02*
X92732D01*
X324232Y233244D02*
Y238756D01*
X315768Y233244D02*
Y238756D01*
Y233244D02*
X324232D01*
X315768Y238756D02*
X324232D01*
X356732Y286744D02*
Y292256D01*
X348268Y286744D02*
Y292256D01*
Y286744D02*
X356732D01*
X348268Y292256D02*
X356732D01*
X353244Y306232D02*
X358756D01*
X353244Y297768D02*
X358756D01*
Y306232D01*
X353244Y297768D02*
Y306232D01*
X39744Y288732D02*
X45256D01*
X39744Y280268D02*
X45256D01*
Y288732D01*
X39744Y280268D02*
Y288732D01*
X92732Y290244D02*
Y295756D01*
X84268Y290244D02*
Y295756D01*
Y290244D02*
X92732D01*
X84268Y295756D02*
X92732D01*
X139244Y199268D02*
X144756D01*
X139244Y207732D02*
X144756D01*
X139244Y199268D02*
Y207732D01*
X144756Y199268D02*
Y207732D01*
X39244Y140268D02*
X44756D01*
X39244Y148732D02*
X44756D01*
X39244Y140268D02*
Y148732D01*
X44756Y140268D02*
Y148732D01*
X17244Y19831D02*
X22756D01*
X17244Y28295D02*
X22756D01*
Y19831D02*
Y28295D01*
X17244Y19831D02*
Y28295D01*
X38744Y219768D02*
X44256D01*
X38744Y228232D02*
X44256D01*
X38744Y219768D02*
Y228232D01*
X44256Y219768D02*
Y228232D01*
X94913Y178961D02*
X109087D01*
X94913Y199039D02*
X109087D01*
X94913Y178961D02*
Y199039D01*
X109087Y178961D02*
Y199039D01*
X-1539Y158413D02*
Y172587D01*
X18539Y158413D02*
Y172587D01*
X-1539D02*
X18539D01*
X-1539Y158413D02*
X18539D01*
X196961Y123413D02*
Y137587D01*
X217039Y123413D02*
Y137587D01*
X196961D02*
X217039D01*
X196961Y123413D02*
X217039D01*
X-1539Y190913D02*
Y205087D01*
X18539Y190913D02*
Y205087D01*
X-1539D02*
X18539D01*
X-1539Y190913D02*
X18539D01*
X84776Y270043D02*
X98161D01*
X84776Y262957D02*
X98161D01*
Y270043D01*
X84776Y262957D02*
Y270043D01*
X294307Y140457D02*
X307693D01*
X294307Y147543D02*
X307693D01*
Y140457D02*
Y147543D01*
X294307Y140457D02*
Y147543D01*
X295307Y170457D02*
X308693D01*
X295307Y177543D02*
X308693D01*
Y170457D02*
Y177543D01*
X295307Y170457D02*
Y177543D01*
X109307Y220543D02*
X122693D01*
X109307Y213457D02*
X122693D01*
X109307D02*
Y220543D01*
X122693Y213457D02*
Y220543D01*
X115457Y181807D02*
Y195193D01*
X122543Y181807D02*
Y195193D01*
X115457Y181807D02*
X122543D01*
X115457Y195193D02*
X122543D01*
X294307Y200425D02*
X307693D01*
X294307Y207512D02*
X307693D01*
Y200425D02*
Y207512D01*
X294307Y200425D02*
Y207512D01*
X13307Y140543D02*
X26693D01*
X13307Y133457D02*
X26693D01*
X13307D02*
Y140543D01*
X26693Y133457D02*
Y140543D01*
X11307Y177957D02*
X24693D01*
X11307Y185043D02*
X24693D01*
X11307Y177957D02*
Y185043D01*
X24693Y177957D02*
Y185043D01*
X232807Y140043D02*
X246193D01*
X232807Y132957D02*
X246193D01*
X232807D02*
Y140043D01*
X246193Y132957D02*
Y140043D01*
X192307Y153543D02*
X205693D01*
X192307Y146457D02*
X205693D01*
X192307D02*
Y153543D01*
X205693Y146457D02*
Y153543D01*
X11307Y217043D02*
X24693D01*
X11307Y209957D02*
X24693D01*
X11307D02*
Y217043D01*
X24693Y209957D02*
Y217043D01*
X11307Y185043D02*
X24693D01*
X11307Y177957D02*
X24693D01*
X11307D02*
Y185043D01*
X24693Y177957D02*
Y185043D01*
M02*
