G04 Layer_Color=8421504*
%FSLAX25Y25*%
%MOIN*%
G70*
G01*
G75*
%ADD10O,0.02362X0.05118*%
%ADD11R,0.05905X0.05512*%
%ADD12R,0.05512X0.05905*%
%ADD13R,0.04882X0.27559*%
%ADD14R,0.04331X0.31496*%
%ADD15R,0.14843X0.10709*%
%ADD16R,0.10709X0.14843*%
%ADD17R,0.05905X0.07480*%
%ADD18R,0.07480X0.05905*%
D10*
X89468Y256067D02*
D03*
X94468D02*
D03*
X99468D02*
D03*
X104469D02*
D03*
X89468Y276933D02*
D03*
X94468D02*
D03*
X99468D02*
D03*
X104469D02*
D03*
D11*
X64000Y288437D02*
D03*
Y280563D02*
D03*
X356000Y305937D02*
D03*
Y298063D02*
D03*
X42500Y288437D02*
D03*
Y280563D02*
D03*
X142000Y199563D02*
D03*
Y207437D02*
D03*
X42000Y140563D02*
D03*
Y148437D02*
D03*
X41500Y220063D02*
D03*
Y227937D02*
D03*
D12*
X92437Y284500D02*
D03*
X84563D02*
D03*
X323937Y236000D02*
D03*
X316063D02*
D03*
X356437Y289500D02*
D03*
X348563D02*
D03*
X92437Y293000D02*
D03*
X84563D02*
D03*
D13*
X365500Y136041D02*
D03*
X375342D02*
D03*
X355657D02*
D03*
X365500Y100500D02*
D03*
X375342D02*
D03*
X355657D02*
D03*
X322500Y100500D02*
D03*
X332343D02*
D03*
X312658D02*
D03*
X365500Y171500D02*
D03*
X355657D02*
D03*
X375342D02*
D03*
X366100Y211000D02*
D03*
X375943D02*
D03*
X356258D02*
D03*
X52500Y107100D02*
D03*
X62343D02*
D03*
X42658D02*
D03*
X52500Y183050D02*
D03*
X62343D02*
D03*
X42658D02*
D03*
X52500Y259000D02*
D03*
X62343D02*
D03*
X42658D02*
D03*
D14*
X348551Y136041D02*
D03*
X382449D02*
D03*
X348551Y100500D02*
D03*
X382449D02*
D03*
X305551Y100500D02*
D03*
X339449D02*
D03*
X382448Y171500D02*
D03*
X348551D02*
D03*
X349151Y211000D02*
D03*
X383049D02*
D03*
X35551Y107100D02*
D03*
X69449D02*
D03*
X35551Y183050D02*
D03*
X69449D02*
D03*
X35551Y259000D02*
D03*
X69449D02*
D03*
D15*
X102000Y182032D02*
D03*
Y195968D02*
D03*
D16*
X1531Y165500D02*
D03*
X15469D02*
D03*
X200031Y130500D02*
D03*
X213968D02*
D03*
X1531Y198000D02*
D03*
X15469D02*
D03*
D17*
X307102Y144000D02*
D03*
X294898D02*
D03*
X308102Y174000D02*
D03*
X295898D02*
D03*
X109898Y217000D02*
D03*
X122102D02*
D03*
X307102Y203969D02*
D03*
X294898D02*
D03*
X13898Y137000D02*
D03*
X26102D02*
D03*
X233398Y136500D02*
D03*
X245602D02*
D03*
X192898Y150000D02*
D03*
X205102D02*
D03*
X11898Y213500D02*
D03*
X24102D02*
D03*
X11898Y181500D02*
D03*
X24102D02*
D03*
D18*
X119000Y182398D02*
D03*
Y194602D02*
D03*
M02*
