G04 Layer_Color=16711935*
%FSLAX25Y25*%
%MOIN*%
G70*
G01*
G75*
%ADD44C,0.00787*%
%ADD72C,0.04331*%
D44*
X80500Y340000D02*
G03*
X141500Y281500I59750J1250D01*
G01*
X262500D02*
G03*
X322000Y340750I125J59375D01*
G01*
X323000Y30000D02*
G03*
X261500Y91000I-61250J-250D01*
G01*
X141000D02*
G03*
X79500Y29500I0J-61500D01*
G01*
X-7500Y-7500D02*
Y385300D01*
Y385400D02*
X80500D01*
X-7500Y-7500D02*
X79500D01*
X323000D02*
X385700D01*
X322000Y385400D02*
X385700D01*
Y-7500D02*
Y385400D01*
X80500Y340000D02*
Y385400D01*
X322000Y340750D02*
Y385400D01*
X141500Y281500D02*
X262500D01*
X79500Y-7500D02*
Y29500D01*
X323000Y-7500D02*
Y30000D01*
X141000Y91000D02*
X261500D01*
D72*
X271500Y216000D02*
X278000Y222500D01*
X327000D01*
X175000Y216000D02*
X261500D01*
X165000D02*
X167500D01*
X159500Y100000D02*
Y139000D01*
X348500Y154000D02*
X381000D01*
X159500Y150000D02*
Y210500D01*
X165000Y216000D01*
X341000Y157000D02*
Y208500D01*
X327000Y222500D02*
X341000Y208500D01*
X26000Y286500D02*
X39500Y300000D01*
X7500Y261500D02*
X26000D01*
Y286500D01*
X39500Y300000D02*
X67500D01*
M02*
