G04 Layer_Color=32896*
%FSLAX26Y26*%
%MOIN*%
%TF.FileFunction,Legend,Bot*%
%TF.Part,Single*%
G01*
G75*
%TA.AperFunction,NonConductor*%
%ADD47C,0.009842*%
%ADD48C,0.023622*%
%ADD49C,0.007874*%
%ADD50C,0.005000*%
%ADD51C,0.010000*%
%ADD52C,0.007000*%
D47*
X2910591Y1911535D02*
G03*
X2910591Y1911535I-4921J0D01*
G01*
X2261457Y2263268D02*
G03*
X2261457Y2263268I-4921J0D01*
G01*
X2910591Y1606535D02*
G03*
X2910591Y1606535I-4921J0D01*
G01*
X1746457Y2263268D02*
G03*
X1746457Y2263268I-4921J0D01*
G01*
X2910591Y1301535D02*
G03*
X2910591Y1301535I-4921J0D01*
G01*
D48*
X2998189Y1958976D02*
G03*
X2998189Y1958976I-11811J0D01*
G01*
X2317362Y2178622D02*
G03*
X2317362Y2178622I-11811J0D01*
G01*
X2998189Y1653976D02*
G03*
X2998189Y1653976I-11811J0D01*
G01*
X1802362Y2178622D02*
G03*
X1802362Y2178622I-11811J0D01*
G01*
X2998189Y1348976D02*
G03*
X2998189Y1348976I-11811J0D01*
G01*
D49*
X-101638Y444150D02*
Y837850D01*
X193638Y444150D02*
Y837850D01*
X-101638D02*
X193638D01*
X-101638Y444150D02*
X193638D01*
X164252Y1848464D02*
X195748D01*
X164252Y1781535D02*
X195748D01*
X898937Y2631535D02*
X930433D01*
X898937Y2698465D02*
X930433D01*
X561496Y2243189D02*
Y2266811D01*
X498504Y2243189D02*
Y2266811D01*
X561496D01*
X498504Y2259331D02*
X561496D01*
X145496Y324189D02*
Y347811D01*
X82504Y324189D02*
Y347811D01*
X145496D01*
X82504Y340331D02*
X145496D01*
X566496Y1443189D02*
Y1466811D01*
X503504Y1443189D02*
Y1466811D01*
X566496D01*
X503504Y1459331D02*
X566496D01*
X1566496Y2038189D02*
Y2061811D01*
X1503504Y2038189D02*
Y2061811D01*
X1566496D01*
X1503504Y2054331D02*
X1566496D01*
X335278Y3862638D02*
X728978D01*
X335278Y3567362D02*
X728978D01*
Y3862638D01*
X335278Y3567362D02*
Y3862638D01*
X250303Y3123150D02*
Y3516850D01*
X-44973Y3123150D02*
Y3516850D01*
Y3123150D02*
X250303D01*
X-44973Y3516850D02*
X250303D01*
Y2678150D02*
Y3071850D01*
X-44973Y2678150D02*
Y3071850D01*
Y2678150D02*
X250303D01*
X-44973Y3071850D02*
X250303D01*
X-37591Y322000D02*
X13591D01*
X3203000Y2334409D02*
Y2385591D01*
X941000Y934000D02*
X2192968D01*
X2194000D02*
Y1734000D01*
X941000D02*
X2192968D01*
X942000Y934000D02*
Y1734000D01*
X3622Y2029094D02*
Y2363740D01*
X460315D01*
X3622Y2029094D02*
X460315D01*
Y2363740D01*
X2221220Y1162323D02*
Y1555323D01*
Y1162323D02*
X2686220D01*
X2221220Y1555323D02*
X2686220D01*
Y1162323D02*
Y1555323D01*
X11063Y1344323D02*
Y1737323D01*
Y1344323D02*
X476063D01*
X11063Y1737323D02*
X476063D01*
Y1344323D02*
Y1737323D01*
X2947008Y1919606D02*
Y2120394D01*
X3072992Y1919606D02*
Y2120394D01*
X2947008Y1919606D02*
X3072992D01*
X2947008Y2120394D02*
X3072992D01*
X2266181Y2217992D02*
X2663819D01*
X2266181Y2092008D02*
X2663819D01*
X2266181D02*
Y2217992D01*
X2663819Y2092008D02*
Y2217992D01*
X1005221Y1986323D02*
Y2379323D01*
Y1986323D02*
X1470220D01*
X1005221Y2379323D02*
X1470220D01*
Y1986323D02*
Y2379323D01*
X2947008Y1614606D02*
Y1815394D01*
X3072992Y1614606D02*
Y1815394D01*
X2947008Y1614606D02*
X3072992D01*
X2947008Y1815394D02*
X3072992D01*
X1751181Y2217992D02*
X2148819D01*
X1751181Y2092008D02*
X2148819D01*
X1751181D02*
Y2217992D01*
X2148819Y2092008D02*
Y2217992D01*
X2947008Y1309606D02*
Y1510394D01*
X3072992Y1309606D02*
Y1510394D01*
X2947008Y1309606D02*
X3072992D01*
X2947008Y1510394D02*
X3072992D01*
X567394Y2743000D02*
Y3549000D01*
X367401D02*
X567394D01*
X366378Y2743000D02*
X567394D01*
X366378D02*
X367401Y3549000D01*
X782394Y2743000D02*
Y3549000D01*
X582401D02*
X782394D01*
X581378Y2743000D02*
X782394D01*
X581378D02*
X582401Y3549000D01*
D50*
X79016Y1767165D02*
Y1862834D01*
Y1767165D02*
X280984D01*
Y1862834D01*
X79016D02*
X280984D01*
X1015669Y2617165D02*
Y2712835D01*
X813701D02*
X1015669D01*
X813701Y2617165D02*
Y2712835D01*
Y2617165D02*
X1015669D01*
X-51961Y244638D02*
X27961D01*
X-51961D02*
Y399362D01*
X27961D01*
Y244638D02*
Y399362D01*
X3280362Y2320039D02*
Y2399961D01*
X3125638Y2320039D02*
X3280362D01*
X3125638D02*
Y2399961D01*
X3280362D01*
D51*
X1915000Y2500000D02*
Y2600000D01*
X1815000D02*
X2615000D01*
Y2500000D02*
Y2600000D01*
X1815000Y2500000D02*
X2615000D01*
X1815000D02*
Y2600000D01*
X1915000Y2400000D02*
Y2500000D01*
X1815000D02*
X2615000D01*
Y2400000D02*
Y2500000D01*
X1815000Y2400000D02*
X2615000D01*
X1815000D02*
Y2500000D01*
X3000000Y2400000D02*
Y2500000D01*
X2900000D02*
X3700000D01*
Y2400000D02*
Y2500000D01*
X2900000Y2400000D02*
X3700000D01*
X2900000D02*
Y2500000D01*
X3000000D02*
Y2600000D01*
X2900000D02*
X3700000D01*
Y2500000D02*
Y2600000D01*
X2900000Y2500000D02*
X3700000D01*
X2900000D02*
Y2600000D01*
X3545000Y59981D02*
Y0D01*
X3515010D01*
X3505013Y9997D01*
Y19994D01*
X3515010Y29990D01*
X3545000D01*
X3515010D01*
X3505013Y39987D01*
Y49984D01*
X3515010Y59981D01*
X3545000D01*
X3455029D02*
X3475023D01*
X3485019Y49984D01*
Y9997D01*
X3475023Y0D01*
X3455029D01*
X3445032Y9997D01*
Y49984D01*
X3455029Y59981D01*
X3425039D02*
X3385052D01*
X3405045D01*
Y0D01*
D52*
X1466952Y2445493D02*
Y2416335D01*
X1461121Y2410504D01*
X1449458D01*
X1443626Y2416335D01*
Y2445493D01*
X1431963D02*
X1408638D01*
Y2439661D01*
X1431963Y2416335D01*
Y2410504D01*
X1566952Y2202493D02*
Y2167504D01*
X1549458D01*
X1543626Y2173335D01*
Y2196661D01*
X1549458Y2202493D01*
X1566952D01*
X1514469Y2167504D02*
Y2202493D01*
X1531963Y2184998D01*
X1508638D01*
X2612952Y2531504D02*
Y2566493D01*
X2595458D01*
X2589626Y2560661D01*
Y2548998D01*
X2595458Y2543167D01*
X2612952D01*
X2577963Y2531504D02*
X2566300D01*
X2572132D01*
Y2566493D01*
X2577963Y2560661D01*
X2548806D02*
X2542975Y2566493D01*
X2531312D01*
X2525480Y2560661D01*
Y2537335D01*
X2531312Y2531504D01*
X2542975D01*
X2548806Y2537335D01*
Y2560661D01*
X3142952Y1583493D02*
Y1554335D01*
X3137121Y1548504D01*
X3125458D01*
X3119626Y1554335D01*
Y1583493D01*
X3107963Y1548504D02*
X3096300D01*
X3102132D01*
Y1583493D01*
X3107963Y1577661D01*
X3078806D02*
X3072975Y1583493D01*
X3061312D01*
X3055480Y1577661D01*
Y1554335D01*
X3061312Y1548504D01*
X3072975D01*
X3078806Y1554335D01*
Y1577661D01*
X3142952Y1888493D02*
Y1859335D01*
X3137121Y1853504D01*
X3125458D01*
X3119626Y1859335D01*
Y1888493D01*
X3107963Y1882661D02*
X3102132Y1888493D01*
X3090469D01*
X3084637Y1882661D01*
Y1876830D01*
X3090469Y1870998D01*
X3084637Y1865167D01*
Y1859335D01*
X3090469Y1853504D01*
X3102132D01*
X3107963Y1859335D01*
Y1865167D01*
X3102132Y1870998D01*
X3107963Y1876830D01*
Y1882661D01*
X3102132Y1870998D02*
X3090469D01*
X2152952Y2364493D02*
Y2335335D01*
X2147121Y2329504D01*
X2135458D01*
X2129626Y2335335D01*
Y2364493D01*
X2117963Y2335335D02*
X2112132Y2329504D01*
X2100469D01*
X2094637Y2335335D01*
Y2358661D01*
X2100469Y2364493D01*
X2112132D01*
X2117963Y2358661D01*
Y2352830D01*
X2112132Y2346998D01*
X2094637D01*
X2682952Y1621493D02*
Y1592335D01*
X2677121Y1586504D01*
X2665458D01*
X2659626Y1592335D01*
Y1621493D01*
X2647963Y1615661D02*
X2642132Y1621493D01*
X2630469D01*
X2624637Y1615661D01*
Y1609830D01*
X2630469Y1603998D01*
X2636300D01*
X2630469D01*
X2624637Y1598167D01*
Y1592335D01*
X2630469Y1586504D01*
X2642132D01*
X2647963Y1592335D01*
X2667952Y2364493D02*
Y2335335D01*
X2662121Y2329504D01*
X2650458D01*
X2644626Y2335335D01*
Y2364493D01*
X2609637D02*
X2621300Y2358661D01*
X2632963Y2346998D01*
Y2335335D01*
X2627132Y2329504D01*
X2615469D01*
X2609637Y2335335D01*
Y2341167D01*
X2615469Y2346998D01*
X2632963D01*
X3142952Y2193493D02*
Y2164335D01*
X3137121Y2158504D01*
X3125458D01*
X3119626Y2164335D01*
Y2193493D01*
X3084637D02*
X3107963D01*
Y2175998D01*
X3096300Y2181830D01*
X3090469D01*
X3084637Y2175998D01*
Y2164335D01*
X3090469Y2158504D01*
X3102132D01*
X3107963Y2164335D01*
X690000Y3634989D02*
X678337D01*
X684169D01*
Y3600000D01*
X690000D01*
X678337D01*
X660843D02*
Y3623326D01*
X643348D01*
X637517Y3617494D01*
Y3600000D01*
X625854Y3588337D02*
Y3623326D01*
X608360D01*
X602528Y3617494D01*
Y3605831D01*
X608360Y3600000D01*
X625854D01*
X590865Y3623326D02*
Y3605831D01*
X585034Y3600000D01*
X567540D01*
Y3623326D01*
X550045Y3629157D02*
Y3623326D01*
X555877D01*
X544214D01*
X550045D01*
Y3605831D01*
X544214Y3600000D01*
X491731Y3634989D02*
Y3600000D01*
X468405D01*
X456742Y3617494D02*
X433416D01*
X421753Y3600000D02*
Y3634989D01*
X398428Y3600000D01*
Y3634989D01*
X386765Y3600000D02*
X375102D01*
X380933D01*
Y3634989D01*
X386765Y3629157D01*
X205000Y3530011D02*
Y3565000D01*
Y3553337D01*
X228326Y3530011D01*
X210831Y3547506D01*
X228326Y3565000D01*
X239989D02*
X251652D01*
X245820D01*
Y3530011D01*
X239989Y3535843D01*
X190000Y3080011D02*
Y3115000D01*
Y3103337D01*
X213326Y3080011D01*
X195831Y3097506D01*
X213326Y3115000D01*
X248315D02*
X224989D01*
X248315Y3091674D01*
Y3085843D01*
X242483Y3080011D01*
X230820D01*
X224989Y3085843D01*
X545000Y3429989D02*
Y3400831D01*
X539169Y3395000D01*
X527506D01*
X521674Y3400831D01*
Y3429989D01*
X510011Y3395000D02*
X498348D01*
X504180D01*
Y3429989D01*
X510011Y3424157D01*
X480854Y3395000D02*
X469191D01*
X475023D01*
Y3429989D01*
X480854Y3424157D01*
X765000Y3429989D02*
Y3400831D01*
X759169Y3395000D01*
X747506D01*
X741674Y3400831D01*
Y3429989D01*
X730011Y3395000D02*
X718348D01*
X724180D01*
Y3429989D01*
X730011Y3424157D01*
X700854D02*
X695023Y3429989D01*
X683360D01*
X677528Y3424157D01*
Y3418326D01*
X683360Y3412494D01*
X689191D01*
X683360D01*
X677528Y3406663D01*
Y3400831D01*
X683360Y3395000D01*
X695023D01*
X700854Y3400831D01*
X6000Y933872D02*
X17663D01*
X11831D01*
Y898883D01*
X6000Y904715D01*
X98011Y222000D02*
X133000D01*
Y204506D01*
X127169Y198674D01*
X103843D01*
X98011Y204506D01*
Y222000D01*
X133000Y163685D02*
Y187011D01*
X109674Y163685D01*
X103843D01*
X98011Y169517D01*
Y181180D01*
X103843Y187011D01*
X-30000Y167000D02*
X4989D01*
Y184494D01*
X-843Y190326D01*
X-12506D01*
X-18337Y184494D01*
Y167000D01*
Y178663D02*
X-30000Y190326D01*
Y225315D02*
Y201989D01*
X-6674Y225315D01*
X-843D01*
X4989Y219483D01*
Y207820D01*
X-843Y201989D01*
X2190952Y1799493D02*
Y1770335D01*
X2185121Y1764504D01*
X2173458D01*
X2167626Y1770335D01*
Y1799493D01*
X2155963Y1764504D02*
X2144300D01*
X2150132D01*
Y1799493D01*
X2155963Y1793661D01*
X456952Y2429493D02*
Y2400335D01*
X451121Y2394504D01*
X439458D01*
X433626Y2400335D01*
Y2429493D01*
X398637Y2394504D02*
X421963D01*
X398637Y2417830D01*
Y2423661D01*
X404469Y2429493D01*
X416132D01*
X421963Y2423661D01*
X561952Y2407493D02*
Y2372504D01*
X544458D01*
X538626Y2378335D01*
Y2401661D01*
X544458Y2407493D01*
X561952D01*
X526963Y2372504D02*
X515300D01*
X521132D01*
Y2407493D01*
X526963Y2401661D01*
X253626Y1921661D02*
X259458Y1927493D01*
X271121D01*
X276952Y1921661D01*
Y1898335D01*
X271121Y1892504D01*
X259458D01*
X253626Y1898335D01*
X218637Y1927493D02*
X241963D01*
Y1909998D01*
X230300Y1915830D01*
X224469D01*
X218637Y1909998D01*
Y1898335D01*
X224469Y1892504D01*
X236132D01*
X241963Y1898335D01*
X566952Y1607493D02*
Y1572504D01*
X549458D01*
X543626Y1578335D01*
Y1601661D01*
X549458Y1607493D01*
X566952D01*
X531963Y1601661D02*
X526132Y1607493D01*
X514469D01*
X508637Y1601661D01*
Y1595830D01*
X514469Y1589998D01*
X520300D01*
X514469D01*
X508637Y1584167D01*
Y1578335D01*
X514469Y1572504D01*
X526132D01*
X531963Y1578335D01*
X472795Y1803493D02*
Y1774335D01*
X466963Y1768504D01*
X455300D01*
X449469Y1774335D01*
Y1803493D01*
X420312Y1768504D02*
Y1803493D01*
X437806Y1785998D01*
X414480D01*
X987626Y2771661D02*
X993458Y2777493D01*
X1005121D01*
X1010952Y2771661D01*
Y2748335D01*
X1005121Y2742504D01*
X993458D01*
X987626Y2748335D01*
X975963Y2742504D02*
X964300D01*
X970132D01*
Y2777493D01*
X975963Y2771661D01*
X923480Y2742504D02*
X946806D01*
X923480Y2765830D01*
Y2771661D01*
X929312Y2777493D01*
X940975D01*
X946806Y2771661D01*
X2612952Y2631504D02*
Y2666493D01*
X2595458D01*
X2589626Y2660661D01*
Y2648998D01*
X2595458Y2643167D01*
X2612952D01*
X2577963Y2637335D02*
X2572132Y2631504D01*
X2560469D01*
X2554637Y2637335D01*
Y2660661D01*
X2560469Y2666493D01*
X2572132D01*
X2577963Y2660661D01*
Y2654830D01*
X2572132Y2648998D01*
X2554637D01*
X2865000Y2480000D02*
X2830011D01*
Y2462506D01*
X2835843Y2456674D01*
X2847506D01*
X2853337Y2462506D01*
Y2480000D01*
X2865000Y2445011D02*
Y2433348D01*
Y2439180D01*
X2830011D01*
X2835843Y2445011D01*
X2865000Y2415854D02*
Y2404191D01*
Y2410023D01*
X2830011D01*
X2835843Y2415854D01*
X2860000Y2590000D02*
X2825011D01*
Y2572506D01*
X2830843Y2566674D01*
X2842506D01*
X2848337Y2572506D01*
Y2590000D01*
X2860000Y2555011D02*
Y2543348D01*
Y2549180D01*
X2825011D01*
X2830843Y2555011D01*
Y2525854D02*
X2825011Y2520023D01*
Y2508360D01*
X2830843Y2502528D01*
X2836674D01*
X2842506Y2508360D01*
Y2514191D01*
Y2508360D01*
X2848337Y2502528D01*
X2854169D01*
X2860000Y2508360D01*
Y2520023D01*
X2854169Y2525854D01*
X3163000Y2450000D02*
Y2415011D01*
X3180494D01*
X3186326Y2420843D01*
Y2432506D01*
X3180494Y2438337D01*
X3163000D01*
X3174663D02*
X3186326Y2450000D01*
X3197989Y2444169D02*
X3203820Y2450000D01*
X3215483D01*
X3221314Y2444169D01*
Y2420843D01*
X3215483Y2415011D01*
X3203820D01*
X3197989Y2420843D01*
Y2426674D01*
X3203820Y2432506D01*
X3221314D01*
X39987Y2615000D02*
X0D01*
Y2641658D01*
Y2555000D02*
X39987D01*
X0Y2581658D01*
X39987D01*
X114987Y3600000D02*
X75000D01*
Y3626658D01*
Y3540000D02*
X114987D01*
X75000Y3566658D01*
X114987D01*
X220000Y3740000D02*
Y3700013D01*
X246658Y3740000D01*
Y3700013D01*
X280000D02*
Y3740000D01*
X306658D01*
%TF.MD5,a62721e1c205f9d0831767c5fd731ba4*%
M02*
