G04 Layer_Color=32768*
%FSLAX26Y26*%
%MOIN*%
%TF.FileFunction,Other,Mechanical_15*%
%TF.Part,Single*%
G01*
G75*
%TA.AperFunction,NonConductor*%
%ADD82C,0.003937*%
%ADD83C,0.001968*%
D82*
X160315Y1815000D02*
X199685D01*
X180000Y1795315D02*
Y1834685D01*
X160315Y2135000D02*
X199685D01*
X180000Y2115315D02*
Y2154685D01*
X1970315Y1500000D02*
X2009685D01*
X1990000Y1480315D02*
Y1519685D01*
X2375315Y1365000D02*
X2414685D01*
X2395000Y1345315D02*
Y1384685D01*
X160315Y1815000D02*
X199685D01*
X180000Y1795315D02*
Y1834685D01*
X180315Y1307000D02*
X219685D01*
X200000Y1287315D02*
Y1326685D01*
X2990315Y2039685D02*
X3029685D01*
X3010000Y2020000D02*
Y2059370D01*
X1190000Y1865315D02*
Y1904685D01*
X1170315Y1885000D02*
X1209685D01*
X1140315Y2170000D02*
X1179685D01*
X1160000Y2150315D02*
Y2189685D01*
X3000315Y1740000D02*
X3039685D01*
X3020000Y1720315D02*
Y1759685D01*
X2990315Y1440000D02*
X3029685D01*
X3010000Y1420315D02*
Y1459685D01*
X895000Y2665000D02*
X934370D01*
X914685Y2645315D02*
Y2684685D01*
X85000Y1960315D02*
Y1999685D01*
X65315Y1980000D02*
X104685D01*
X2070000Y1285315D02*
Y1324685D01*
X2050315Y1305000D02*
X2089685D01*
X85000Y1635315D02*
Y1674685D01*
X65315Y1655000D02*
X104685D01*
X1000315Y1890000D02*
X1039685D01*
X1020000Y1870315D02*
Y1909685D01*
X395315Y2240000D02*
X434685D01*
X415000Y2220315D02*
Y2259685D01*
X-31685Y322000D02*
X7685D01*
X-12000Y302315D02*
Y341685D01*
X400315Y1445000D02*
X439685D01*
X420000Y1425315D02*
Y1464685D01*
X1400315Y2035000D02*
X1439685D01*
X1420000Y2015315D02*
Y2054685D01*
X885000Y2910315D02*
Y2949685D01*
X865315Y2930000D02*
X904685D01*
X405315Y2845000D02*
X444685D01*
X425000Y2825315D02*
Y2864685D01*
X3540315Y3020000D02*
X3579685D01*
X3560000Y3000315D02*
Y3039685D01*
X3525000Y2875315D02*
Y2914685D01*
X3505315Y2895000D02*
X3544685D01*
X3203000Y2340315D02*
Y2379685D01*
X3183315Y2360000D02*
X3222685D01*
X885000Y2825315D02*
Y2864685D01*
X865315Y2845000D02*
X904685D01*
X620315Y2845000D02*
X659685D01*
X640000Y2825315D02*
Y2864685D01*
X3530315Y2686000D02*
X3569685D01*
X3550000Y2666315D02*
Y2705685D01*
X3431315Y2686000D02*
X3470685D01*
X3451000Y2666315D02*
Y2705685D01*
X2990315Y2020000D02*
X3029685D01*
X3010000Y2000315D02*
Y2039685D01*
X2465000Y2135315D02*
Y2174685D01*
X2445315Y2155000D02*
X2484685D01*
X2990315Y1715000D02*
X3029685D01*
X3010000Y1695315D02*
Y1734685D01*
X1950000Y2135315D02*
Y2174685D01*
X1930315Y2155000D02*
X1969685D01*
X2990315Y1410000D02*
X3029685D01*
X3010000Y1390315D02*
Y1429685D01*
X969685Y2645315D02*
Y2684685D01*
X950000Y2665000D02*
X989370D01*
D83*
X-58701Y1885512D02*
X228701D01*
X-58701Y2074488D02*
X228701D01*
Y1885512D02*
Y2074488D01*
X-58701Y1885512D02*
Y2074488D01*
X1926299Y1210512D02*
X2213701D01*
X1926299Y1399488D02*
X2213701D01*
Y1210512D02*
Y1399488D01*
X1926299Y1210512D02*
Y1399488D01*
X-58701Y1560512D02*
X228701D01*
X-58701Y1749488D02*
X228701D01*
Y1560512D02*
Y1749488D01*
X-58701Y1560512D02*
Y1749488D01*
X1114488Y1746299D02*
Y2033701D01*
X925512Y1746299D02*
Y2033701D01*
X1114488D01*
X925512Y1746299D02*
X1114488D01*
X2871220Y1909764D02*
Y2130236D01*
X3148780Y1909764D02*
Y2130236D01*
X2871220Y1909764D02*
X3148780D01*
X2871220Y2130236D02*
X3148780D01*
X2256339Y2301653D02*
X2673661D01*
X2256339Y2008346D02*
X2673661D01*
X2256339D02*
Y2301653D01*
X2673661Y2008346D02*
Y2301653D01*
X2871220Y1604764D02*
Y1825236D01*
X3148780Y1604764D02*
Y1825236D01*
X2871220Y1604764D02*
X3148780D01*
X2871220Y1825236D02*
X3148780D01*
X1741339Y2301653D02*
X2158661D01*
X1741339Y2008346D02*
X2158661D01*
X1741339D02*
Y2301653D01*
X2158661Y2008346D02*
Y2301653D01*
X2871220Y1299764D02*
Y1520236D01*
X3148780Y1299764D02*
Y1520236D01*
X2871220Y1299764D02*
X3148780D01*
X2871220Y1520236D02*
X3148780D01*
X859449Y2526220D02*
X1079921D01*
X859449Y2803780D02*
X1079921D01*
X859449Y2526220D02*
Y2803780D01*
X1079921Y2526220D02*
Y2803780D01*
%TF.MD5,eafe59517a4dff880bee163f9b94eb7a*%
M02*
