M48
;Layer_Color=9474304
;FILE_FORMAT=2:5
INCH,LZ
;TYPE=PLATED
T1F00S00C0.01500
T2F00S00C0.01575
T3F00S00C0.02000
T4F00S00C0.02800
T5F00S00C0.03000
T6F00S00C0.03150
T7F00S00C0.03543
T8F00S00C0.03937
T9F00S00C0.04724
;TYPE=NON_PLATED
T10F00S00C0.11811
%
T01
X01775Y01
X0189976Y0097645
X0198698Y0098198
X019475Y01085
X0189Y0117
X01775
X0182274Y0110855
X018325Y01255
X0212Y0117
X0221698Y0115198
X021875Y01095
X023025
X024125
X025275
X026425
X027575
X028675Y01085
X02925Y01
Y0117
X0281
X02695
X0258
X029825Y01085
X03155Y0118
X0327Y01185
X032125Y01255
X0319Y00805
X03305
X0341024Y0080405
X0352524
X0364024
X03615Y0117
X0373
X03075Y00805
X030975Y01595
X0304Y0185
X0299819Y0195898
X0298Y0212039
X0327Y0185
X0343Y01295
X0281Y0134
X02695
X0258
X025225Y01425
X024075
X0235Y0151
X02235
X022925Y01595
X024075
X025225
X02465Y0151
X0258
X026375Y01425
X02465Y0168
X0235
X02235
X0193Y0166
X0197199Y0159
X020625Y01425
X018325
X01775Y0134
Y0151
Y0168
X0222Y02085
X02695Y0226
X02715Y0178
T02
X0293Y00875
X0325Y01485
X03245Y0179
X0284Y0174
X0278Y0179
Y0169
X026Y01695
Y01595
X02415Y0172
X02155
X02185Y0176822
X0216Y0180358
X02185Y0184
X0216Y01875
X02185Y0191
X0216Y01945
X02165Y02045
Y0226153
X0229Y02325
X02685Y0205
X02785Y02095
X0278Y0199
X02765Y0189964
X0286Y01945
X02845Y02045
X0284Y01435
X0104969Y02495
X0089468Y025
X0004Y02095
X-0001
X-00025Y0156
X0005
T03
X-00005Y0027
Y0047
X00095Y0037
X00295
Y0057
X00195Y0047
Y0067
X00095Y0057
X-00005Y0067
X00195Y00895
X0012Y00975
X0028Y0097
X00195Y0107
X0028Y0117
X0011
X00195Y0127
X00545
X0076535Y0120053
Y010027
X006Y0089
X00425
X00595Y0067
X00795
X00905Y00755
X00995Y0087
X01095Y0097
X01295
X01395Y0107
Y0127
X01195
X01295Y0117
X01095
X00995Y0127
Y0107
X00695Y0057
X00595Y0047
X00695Y0037
X00595Y0027
X00695Y-0003
X0047
X00295
Y0017
X00095
X01495Y0097
Y0117
X02975Y02305
X0304Y0235
X03095Y023
X03305Y02315
X0338Y0236
X03385Y02265
X03625Y02305
X03715Y0233
X03805Y02385
Y02495
Y02605
Y02715
X038Y02835
X03715Y0277
Y0266
X03625Y02715
X0362Y02835
X03525Y0277
X03435Y02835
X03Y0284
X0275Y02505
X0266Y0245
Y0256
X01765
Y0244
X01675Y02495
X0158Y0244
Y0256
X015Y02495
X0149Y02385
X01495Y0177
Y0157
Y0137
X01295
X01095
Y01555
X01195Y0147
X01395
X01305Y01565
X01395Y0167
X01295Y0177
X01395Y0187
X01295Y0197
X01345Y02345
X01245Y02665
X013Y02755
X0119
X0109Y02765
X00775Y02665
X0077Y02475
X00705Y02355
X0077Y01945
Y01745
X0076535Y0140053
X0037Y01285
X00295Y0157
Y0197
X00395Y0207
X00095Y0237
X-00005Y0247
X00195
X-00005Y0227
X031Y0294
X032Y0304
X033Y03185
Y03385
Y03585
X034Y03485
X035Y03585
X036Y03485
Y03685
X034
X035Y03785
X033
X037Y03585
Y03385
X035
X036Y03285
X034
X038Y03485
T04
X03175Y0144
X0342Y0142
Y0136
Y0148
X03175Y0174
X03165Y02045
X01775Y02325
X0172Y02385
X01475Y01995
X01015Y02185
X0101Y0227
X0112969Y02665
X0047Y0219988
X00475Y01405
T05
X0235Y01245
X0245
X0255
X0305Y0245
X0315
X0325
X0335
X0345
X0355
X0365
Y0255
X0355
X0345
X0335
X0325
X0315
X0305
X0295
Y0245
X02565
Y0255
X02465
X02365
X02265
X02165
X02065
X01965
X01865
Y0245
X01965
X02065
X02165
X02265
X02365
X02465
X01335Y0207
X01235
X01135
X0033Y02285
X0023
X0013
X0013984Y0149
X0023984
X0033984
X0374Y0296
Y0306
Y0316
Y0326
T06
X01145Y01035
X01245
X01845
X02045
Y01635
X01845
X01245
X01145
X0072379Y0279
X0050879
Y0289
X0072379
T07
X00425Y01071
X00525
X00625
X03125Y01005
X03225
X03325
X03555Y01005
X03655
X03755
Y0136041
X03655
X03555
X03555Y01715
X03655
X03755
X03761Y0211
X03661
X03561
X00625Y018305
X00525
X00425
Y0259
X00525
X00625
T08
X0050879Y0319
X0072379
Y0349
X0050879
T09
X0044445Y00125
X006413
X0010266Y0277658
Y0297342
Y0322158
Y0341843
X004337Y03715
X0063055
T10
X0Y0
X0377953
X0Y0377953
X0377953
M30
