G04 Layer_Color=16711935*
%FSLAX26Y26*%
%MOIN*%
%TF.FileFunction,Other,Mechanical_13*%
%TF.Part,Single*%
G01*
G75*
%TA.AperFunction,NonConductor*%
%ADD78C,0.003937*%
D78*
X2986378Y1955039D02*
G03*
X2986378Y1955039I-19685J0D01*
G01*
X2321299Y2198307D02*
G03*
X2321299Y2198307I-19685J0D01*
G01*
X2986378Y1650039D02*
G03*
X2986378Y1650039I-19685J0D01*
G01*
X1806299Y2198307D02*
G03*
X1806299Y2198307I-19685J0D01*
G01*
X2986378Y1345039D02*
G03*
X2986378Y1345039I-19685J0D01*
G01*
X924409Y2621693D02*
G03*
X924409Y2621693I-19685J0D01*
G01*
X246929Y1779567D02*
Y1850433D01*
X113071Y1779567D02*
Y1850433D01*
Y1779567D02*
X246929D01*
X113071Y1850433D02*
X246929D01*
Y2099567D02*
Y2170433D01*
X113071Y2099567D02*
Y2170433D01*
Y2099567D02*
X246929D01*
X113071Y2170433D02*
X246929D01*
X2056929Y1464567D02*
Y1535433D01*
X1923071Y1464567D02*
Y1535433D01*
Y1464567D02*
X2056929D01*
X1923071Y1535433D02*
X2056929D01*
X2461929Y1329567D02*
Y1400433D01*
X2328071Y1329567D02*
Y1400433D01*
Y1329567D02*
X2461929D01*
X2328071Y1400433D02*
X2461929D01*
X246929Y1779567D02*
Y1850433D01*
X113071Y1779567D02*
Y1850433D01*
X246929D01*
X113071Y1779567D02*
X246929D01*
X266929Y1334567D02*
Y1405433D01*
X133071Y1334567D02*
Y1405433D01*
Y1334567D02*
X266929D01*
X133071Y1405433D02*
X266929D01*
X2943071Y2004252D02*
Y2075118D01*
X3076929Y2004252D02*
Y2075118D01*
X2943071D02*
X3076929D01*
X2943071Y2004252D02*
X3076929D01*
X1154567Y1951929D02*
X1225433D01*
X1154567Y1818071D02*
X1225433D01*
Y1951929D01*
X1154567Y1818071D02*
Y1951929D01*
X1226929Y2134567D02*
Y2205433D01*
X1093071Y2134567D02*
Y2205433D01*
Y2134567D02*
X1226929D01*
X1093071Y2205433D02*
X1226929D01*
X2953071Y1704567D02*
Y1775433D01*
X3086929Y1704567D02*
Y1775433D01*
X2953071D02*
X3086929D01*
X2953071Y1704567D02*
X3086929D01*
X2943071Y1404567D02*
Y1475433D01*
X3076929Y1404567D02*
Y1475433D01*
X2943071D02*
X3076929D01*
X2943071Y1404567D02*
X3076929D01*
X847756Y2629567D02*
Y2700433D01*
X981614Y2629567D02*
Y2700433D01*
X847756Y2629567D02*
X981614D01*
X847756Y2700433D02*
X981614D01*
X-15394Y1909134D02*
X185394D01*
X-15394Y2050866D02*
X185394D01*
Y1909134D02*
Y2050866D01*
X-15394Y1909134D02*
Y2050866D01*
X1969606Y1234134D02*
X2170394D01*
X1969606Y1375866D02*
X2170394D01*
Y1234134D02*
Y1375866D01*
X1969606Y1234134D02*
Y1375866D01*
X-15394Y1584134D02*
X185394D01*
X-15394Y1725866D02*
X185394D01*
Y1584134D02*
Y1725866D01*
X-15394Y1584134D02*
Y1725866D01*
X1090866Y1789606D02*
Y1990394D01*
X949134Y1789606D02*
Y1990394D01*
X1090866D01*
X949134Y1789606D02*
X1090866D01*
X442559Y2197677D02*
Y2282323D01*
X387441Y2197677D02*
Y2282323D01*
X442559D01*
X387441Y2197677D02*
X442559D01*
X172441Y198307D02*
Y282953D01*
X227559Y198307D02*
Y282953D01*
X172441D02*
X227559D01*
X172441Y198307D02*
X227559D01*
X447559Y1402677D02*
Y1487323D01*
X392441Y1402677D02*
Y1487323D01*
X447559D01*
X392441Y1402677D02*
X447559D01*
X1447559Y1992677D02*
Y2077323D01*
X1392441Y1992677D02*
Y2077323D01*
X1447559D01*
X1392441Y1992677D02*
X1447559D01*
X842677Y2957559D02*
X927323D01*
X842677Y2902441D02*
X927323D01*
X842677D02*
Y2957559D01*
X927323Y2902441D02*
Y2957559D01*
X397441Y2802677D02*
Y2887323D01*
X452559Y2802677D02*
Y2887323D01*
X397441Y2802677D02*
X452559D01*
X397441Y2887323D02*
X452559D01*
X3532441Y2977677D02*
Y3062323D01*
X3587559Y2977677D02*
Y3062323D01*
X3532441Y2977677D02*
X3587559D01*
X3532441Y3062323D02*
X3587559D01*
X3482677Y2922559D02*
X3567323D01*
X3482677Y2867441D02*
X3567323D01*
X3482677D02*
Y2922559D01*
X3567323Y2867441D02*
Y2922559D01*
X3157677Y2387559D02*
X3242323D01*
X3157677Y2332441D02*
X3242323D01*
X3157677D02*
Y2387559D01*
X3242323Y2332441D02*
Y2387559D01*
X842677Y2872559D02*
X927323D01*
X842677Y2817441D02*
X927323D01*
X842677D02*
Y2872559D01*
X927323Y2817441D02*
Y2872559D01*
X612441Y2802677D02*
Y2887323D01*
X667559Y2802677D02*
Y2887323D01*
X612441Y2802677D02*
X667559D01*
X612441Y2887323D02*
X667559D01*
X2931260Y2120394D02*
X3088740D01*
X2931260Y1919606D02*
X3088740D01*
Y2120394D01*
X2931260Y1919606D02*
Y2120394D01*
X2266181Y2233740D02*
X2663819D01*
X2266181Y2076260D02*
X2663819D01*
X2266181D02*
Y2233740D01*
X2663819Y2076260D02*
Y2233740D01*
X2931260Y1815394D02*
X3088740D01*
X2931260Y1614606D02*
X3088740D01*
Y1815394D01*
X2931260Y1614606D02*
Y1815394D01*
X1751181Y2233740D02*
X2148819D01*
X1751181Y2076260D02*
X2148819D01*
X1751181D02*
Y2233740D01*
X2148819Y2076260D02*
Y2233740D01*
X2931260Y1510394D02*
X3088740D01*
X2931260Y1309606D02*
X3088740D01*
Y1510394D01*
X2931260Y1309606D02*
Y1510394D01*
X1070079Y2586260D02*
Y2743740D01*
X869291Y2586260D02*
Y2743740D01*
X1070079D01*
X869291Y2586260D02*
X1070079D01*
%TF.MD5,c4e029d6c247fa344997d9264aaecab3*%
M02*
