G04 Layer_Color=32896*
%FSLAX25Y25*%
%MOIN*%
G70*
G01*
G75*
%ADD42C,0.00984*%
%ADD43C,0.02362*%
%ADD44C,0.00787*%
%ADD45C,0.00500*%
%ADD46C,0.01000*%
%ADD47C,0.00700*%
D42*
X291059Y130154D02*
G03*
X291059Y130154I-492J0D01*
G01*
X174646Y226327D02*
G03*
X174646Y226327I-492J0D01*
G01*
X291059Y160653D02*
G03*
X291059Y160653I-492J0D01*
G01*
X226146Y226327D02*
G03*
X226146Y226327I-492J0D01*
G01*
X291059Y191154D02*
G03*
X291059Y191154I-492J0D01*
G01*
D43*
X299819Y134898D02*
G03*
X299819Y134898I-1181J0D01*
G01*
X180236Y217862D02*
G03*
X180236Y217862I-1181J0D01*
G01*
X299819Y165398D02*
G03*
X299819Y165398I-1181J0D01*
G01*
X231736Y217862D02*
G03*
X231736Y217862I-1181J0D01*
G01*
X299819Y195898D02*
G03*
X299819Y195898I-1181J0D01*
G01*
D44*
X78239Y274300D02*
Y354900D01*
X58240D02*
X78239D01*
X58138Y274300D02*
X78239D01*
X58138D02*
X58240Y354900D01*
X56739Y274300D02*
Y354900D01*
X36740D02*
X56739D01*
X36638Y274300D02*
X56739D01*
X36638D02*
X36740Y354900D01*
X294701Y130961D02*
Y151039D01*
X307299Y130961D02*
Y151039D01*
X294701Y130961D02*
X307299D01*
X294701Y151039D02*
X307299D01*
X214882Y209201D02*
Y221799D01*
X175118Y209201D02*
Y221799D01*
Y209201D02*
X214882D01*
X175118Y221799D02*
X214882D01*
X294701Y161461D02*
Y181539D01*
X307299Y161461D02*
Y181539D01*
X294701Y161461D02*
X307299D01*
X294701Y181539D02*
X307299D01*
X146378Y175968D02*
Y215268D01*
X99878D02*
X146378D01*
X99878Y175968D02*
X146378D01*
X99878D02*
Y215268D01*
X266382Y209201D02*
Y221799D01*
X226618Y209201D02*
Y221799D01*
Y209201D02*
X266382D01*
X226618Y221799D02*
X266382D01*
X294701Y191961D02*
Y212039D01*
X307299Y191961D02*
Y212039D01*
X294701Y191961D02*
X307299D01*
X294701Y212039D02*
X307299D01*
X46862Y117968D02*
Y157268D01*
X362D02*
X46862D01*
X362Y117968D02*
X46862D01*
X362D02*
Y157268D01*
X267878Y93468D02*
Y132768D01*
X221378D02*
X267878D01*
X221378Y93468D02*
X267878D01*
X221378D02*
Y132768D01*
X46031Y202909D02*
Y236374D01*
X362Y202909D02*
X46031D01*
X362Y236374D02*
X46031D01*
X362Y202909D02*
Y236374D01*
X94500Y93500D02*
X219697D01*
X219800D02*
Y173500D01*
X94500D02*
X219697D01*
X94600Y93500D02*
Y173500D01*
X17441Y24063D02*
X22559D01*
X25030Y267815D02*
Y307185D01*
X-4497Y267815D02*
Y307185D01*
Y267815D02*
X25030D01*
X-4497Y307185D02*
X25030D01*
Y312315D02*
Y351685D01*
X-4497Y312315D02*
Y351685D01*
Y312315D02*
X25030D01*
X-4497Y351685D02*
X25030D01*
X33528Y386264D02*
X72898D01*
X33528Y356736D02*
X72898D01*
Y386264D01*
X33528Y356736D02*
Y386264D01*
X150350Y205433D02*
X156650D01*
X150350Y206181D02*
X156650D01*
X150350Y203819D02*
Y206181D01*
X156650Y203819D02*
Y206181D01*
X50350Y145933D02*
X56650D01*
X50350Y146681D02*
X56650D01*
X50350Y144319D02*
Y146681D01*
X56650Y144319D02*
Y146681D01*
X16850Y5067D02*
X23150D01*
X16850Y4319D02*
X23150D01*
Y6681D01*
X16850Y4319D02*
Y6681D01*
X49850Y225933D02*
X56150D01*
X49850Y226681D02*
X56150D01*
X49850Y224319D02*
Y226681D01*
X56150Y224319D02*
Y226681D01*
X89894Y269847D02*
X93043D01*
X89894Y263154D02*
X93043D01*
X16425Y178154D02*
X19575D01*
X16425Y184846D02*
X19575D01*
X34602Y-2264D02*
X73972D01*
X34602Y27264D02*
X73972D01*
X34602Y-2264D02*
Y27264D01*
X73972Y-2264D02*
Y27264D01*
D45*
X23996Y16327D02*
Y31799D01*
X16004D02*
X23996D01*
X16004Y16327D02*
Y31799D01*
Y16327D02*
X23996D01*
X81370Y261717D02*
X101567D01*
X81370D02*
Y271284D01*
X101567D01*
Y261717D02*
Y271284D01*
X7902Y186283D02*
X28098D01*
Y176716D02*
Y186283D01*
X7902Y176716D02*
X28098D01*
X7902D02*
Y186283D01*
D46*
X290000Y250000D02*
Y260000D01*
Y250000D02*
X370000D01*
Y260000D01*
X290000D02*
X370000D01*
X300000Y250000D02*
Y260000D01*
X290000Y240000D02*
Y250000D01*
Y240000D02*
X370000D01*
Y250000D01*
X290000D02*
X370000D01*
X300000Y240000D02*
Y250000D01*
X181500Y240000D02*
Y250000D01*
Y240000D02*
X261500D01*
Y250000D01*
X181500D02*
X261500D01*
X191500Y240000D02*
Y250000D01*
X181500D02*
Y260000D01*
Y250000D02*
X261500D01*
Y260000D01*
X181500D02*
X261500D01*
X191500Y250000D02*
Y260000D01*
X354500Y5998D02*
Y0D01*
X351501D01*
X350501Y1000D01*
Y1999D01*
X351501Y2999D01*
X354500D01*
X351501D01*
X350501Y3999D01*
Y4998D01*
X351501Y5998D01*
X354500D01*
X345503D02*
X347502D01*
X348502Y4998D01*
Y1000D01*
X347502Y0D01*
X345503D01*
X344503Y1000D01*
Y4998D01*
X345503Y5998D01*
X342504D02*
X338505D01*
X340505D01*
Y0D01*
D47*
X3999Y261500D02*
X0D01*
Y264166D01*
Y255500D02*
X3999D01*
X0Y258166D01*
X3999D01*
X11499Y360000D02*
X7500D01*
Y362666D01*
Y354000D02*
X11499D01*
X7500Y356666D01*
X11499D01*
X22000Y374000D02*
Y370001D01*
X24666Y374000D01*
Y370001D01*
X28000D02*
Y374000D01*
X30666D01*
X54500Y342999D02*
Y340083D01*
X53917Y339500D01*
X52751D01*
X52167Y340083D01*
Y342999D01*
X51001Y339500D02*
X49835D01*
X50418D01*
Y342999D01*
X51001Y342416D01*
X48085Y339500D02*
X46919D01*
X47502D01*
Y342999D01*
X48085Y342416D01*
X76500Y342999D02*
Y340083D01*
X75917Y339500D01*
X74751D01*
X74167Y340083D01*
Y342999D01*
X73001Y339500D02*
X71835D01*
X72418D01*
Y342999D01*
X73001Y342416D01*
X70085D02*
X69502Y342999D01*
X68336D01*
X67753Y342416D01*
Y341833D01*
X68336Y341249D01*
X68919D01*
X68336D01*
X67753Y340666D01*
Y340083D01*
X68336Y339500D01*
X69502D01*
X70085Y340083D01*
X146095Y221849D02*
Y218934D01*
X145512Y218350D01*
X144346D01*
X143763Y218934D01*
Y221849D01*
X142596D02*
X140264D01*
Y221266D01*
X142596Y218934D01*
Y218350D01*
X156695Y220249D02*
Y216750D01*
X154946D01*
X154363Y217334D01*
Y219666D01*
X154946Y220249D01*
X156695D01*
X151447Y216750D02*
Y220249D01*
X153196Y218500D01*
X150864D01*
X261295Y253150D02*
Y256649D01*
X259546D01*
X258963Y256066D01*
Y254900D01*
X259546Y254317D01*
X261295D01*
X257796Y253150D02*
X256630D01*
X257213D01*
Y256649D01*
X257796Y256066D01*
X254881D02*
X254297Y256649D01*
X253131D01*
X252548Y256066D01*
Y253733D01*
X253131Y253150D01*
X254297D01*
X254881Y253733D01*
Y256066D01*
X314295Y158349D02*
Y155433D01*
X313712Y154850D01*
X312546D01*
X311963Y155433D01*
Y158349D01*
X310796Y154850D02*
X309630D01*
X310213D01*
Y158349D01*
X310796Y157766D01*
X307881D02*
X307297Y158349D01*
X306131D01*
X305548Y157766D01*
Y155433D01*
X306131Y154850D01*
X307297D01*
X307881Y155433D01*
Y157766D01*
X314295Y188849D02*
Y185933D01*
X313712Y185350D01*
X312546D01*
X311963Y185933D01*
Y188849D01*
X310796Y188266D02*
X310213Y188849D01*
X309047D01*
X308464Y188266D01*
Y187683D01*
X309047Y187100D01*
X308464Y186517D01*
Y185933D01*
X309047Y185350D01*
X310213D01*
X310796Y185933D01*
Y186517D01*
X310213Y187100D01*
X310796Y187683D01*
Y188266D01*
X310213Y187100D02*
X309047D01*
X215295Y236449D02*
Y233534D01*
X214712Y232950D01*
X213546D01*
X212963Y233534D01*
Y236449D01*
X211796Y233534D02*
X211213Y232950D01*
X210047D01*
X209464Y233534D01*
Y235866D01*
X210047Y236449D01*
X211213D01*
X211796Y235866D01*
Y235283D01*
X211213Y234700D01*
X209464D01*
X267595Y139349D02*
Y136433D01*
X267012Y135850D01*
X265846D01*
X265263Y136433D01*
Y139349D01*
X264096Y138766D02*
X263513Y139349D01*
X262347D01*
X261764Y138766D01*
Y138183D01*
X262347Y137600D01*
X262930D01*
X262347D01*
X261764Y137017D01*
Y136433D01*
X262347Y135850D01*
X263513D01*
X264096Y136433D01*
X266795Y236449D02*
Y233534D01*
X266212Y232950D01*
X265046D01*
X264463Y233534D01*
Y236449D01*
X260964D02*
X262130Y235866D01*
X263296Y234700D01*
Y233534D01*
X262713Y232950D01*
X261547D01*
X260964Y233534D01*
Y234117D01*
X261547Y234700D01*
X263296D01*
X314295Y219349D02*
Y216434D01*
X313712Y215850D01*
X312546D01*
X311963Y216434D01*
Y219349D01*
X308464D02*
X310796D01*
Y217600D01*
X309630Y218183D01*
X309047D01*
X308464Y217600D01*
Y216434D01*
X309047Y215850D01*
X310213D01*
X310796Y216434D01*
X69000Y363499D02*
X67834D01*
X68417D01*
Y360000D01*
X69000D01*
X67834D01*
X66084D02*
Y362333D01*
X64335D01*
X63752Y361749D01*
Y360000D01*
X62585Y358834D02*
Y362333D01*
X60836D01*
X60253Y361749D01*
Y360583D01*
X60836Y360000D01*
X62585D01*
X59087Y362333D02*
Y360583D01*
X58503Y360000D01*
X56754D01*
Y362333D01*
X55005Y362916D02*
Y362333D01*
X55588D01*
X54421D01*
X55005D01*
Y360583D01*
X54421Y360000D01*
X49173Y363499D02*
Y360000D01*
X46841D01*
X45674Y361749D02*
X43342D01*
X42175Y360000D02*
Y363499D01*
X39843Y360000D01*
Y363499D01*
X38677Y360000D02*
X37510D01*
X38093D01*
Y363499D01*
X38677Y362916D01*
X20500Y353001D02*
Y356500D01*
Y355334D01*
X22833Y353001D01*
X21083Y354751D01*
X22833Y356500D01*
X23999D02*
X25165D01*
X24582D01*
Y353001D01*
X23999Y353584D01*
X19000Y308001D02*
Y311500D01*
Y310334D01*
X21333Y308001D01*
X19583Y309751D01*
X21333Y311500D01*
X24832D02*
X22499D01*
X24832Y309167D01*
Y308584D01*
X24248Y308001D01*
X23082D01*
X22499Y308584D01*
X25000Y8500D02*
Y9666D01*
Y9083D01*
X28499D01*
X27916Y8500D01*
X11499Y9500D02*
X8000D01*
Y11249D01*
X8583Y11833D01*
X10916D01*
X11499Y11249D01*
Y9500D01*
X8000Y15331D02*
Y12999D01*
X10333Y15331D01*
X10916D01*
X11499Y14748D01*
Y13582D01*
X10916Y12999D01*
X8000Y20063D02*
X11499D01*
Y21812D01*
X10916Y22396D01*
X9749D01*
X9166Y21812D01*
Y20063D01*
Y21229D02*
X8000Y22396D01*
Y25894D02*
Y23562D01*
X10333Y25894D01*
X10916D01*
X11499Y25311D01*
Y24145D01*
X10916Y23562D01*
X219495Y180049D02*
Y177134D01*
X218912Y176550D01*
X217746D01*
X217163Y177134D01*
Y180049D01*
X215996Y176550D02*
X214830D01*
X215413D01*
Y180049D01*
X215996Y179466D01*
X45695Y242949D02*
Y240034D01*
X45112Y239450D01*
X43946D01*
X43363Y240034D01*
Y242949D01*
X39864Y239450D02*
X42196D01*
X39864Y241783D01*
Y242366D01*
X40447Y242949D01*
X41613D01*
X42196Y242366D01*
X56195Y240749D02*
Y237250D01*
X54446D01*
X53863Y237833D01*
Y240166D01*
X54446Y240749D01*
X56195D01*
X52696Y237250D02*
X51530D01*
X52113D01*
Y240749D01*
X52696Y240166D01*
X25363Y192166D02*
X25946Y192749D01*
X27112D01*
X27695Y192166D01*
Y189833D01*
X27112Y189250D01*
X25946D01*
X25363Y189833D01*
X21864Y192749D02*
X24196D01*
Y191000D01*
X23030Y191583D01*
X22447D01*
X21864Y191000D01*
Y189833D01*
X22447Y189250D01*
X23613D01*
X24196Y189833D01*
X56695Y160749D02*
Y157250D01*
X54946D01*
X54363Y157834D01*
Y160166D01*
X54946Y160749D01*
X56695D01*
X53196Y160166D02*
X52613Y160749D01*
X51447D01*
X50864Y160166D01*
Y159583D01*
X51447Y159000D01*
X52030D01*
X51447D01*
X50864Y158417D01*
Y157834D01*
X51447Y157250D01*
X52613D01*
X53196Y157834D01*
X46595Y163849D02*
Y160933D01*
X46012Y160350D01*
X44846D01*
X44263Y160933D01*
Y163849D01*
X41347Y160350D02*
Y163849D01*
X43096Y162100D01*
X40764D01*
X98763Y277166D02*
X99346Y277749D01*
X100512D01*
X101095Y277166D01*
Y274833D01*
X100512Y274250D01*
X99346D01*
X98763Y274833D01*
X97596Y274250D02*
X96430D01*
X97013D01*
Y277749D01*
X97596Y277166D01*
X92348Y274250D02*
X94681D01*
X92348Y276583D01*
Y277166D01*
X92931Y277749D01*
X94098D01*
X94681Y277166D01*
X261295Y263150D02*
Y266649D01*
X259546D01*
X258963Y266066D01*
Y264900D01*
X259546Y264317D01*
X261295D01*
X257796Y263734D02*
X257213Y263150D01*
X256047D01*
X255464Y263734D01*
Y266066D01*
X256047Y266649D01*
X257213D01*
X257796Y266066D01*
Y265483D01*
X257213Y264900D01*
X255464D01*
X286500Y248000D02*
X283001D01*
Y246251D01*
X283584Y245667D01*
X284751D01*
X285334Y246251D01*
Y248000D01*
X286500Y244501D02*
Y243335D01*
Y243918D01*
X283001D01*
X283584Y244501D01*
X286500Y241585D02*
Y240419D01*
Y241002D01*
X283001D01*
X283584Y241585D01*
X286000Y259000D02*
X282501D01*
Y257251D01*
X283084Y256667D01*
X284251D01*
X284834Y257251D01*
Y259000D01*
X286000Y255501D02*
Y254335D01*
Y254918D01*
X282501D01*
X283084Y255501D01*
Y252585D02*
X282501Y252002D01*
Y250836D01*
X283084Y250253D01*
X283667D01*
X284251Y250836D01*
Y251419D01*
Y250836D01*
X284834Y250253D01*
X285417D01*
X286000Y250836D01*
Y252002D01*
X285417Y252585D01*
M02*
