M48
;Layer_Color=9474304
;FILE_FORMAT=2:5
INCH,TZ
;TYPE=PLATED
T1F00S00C0.01000
T2F00S00C0.01500
T3F00S00C0.01575
T4F00S00C0.02000
T5F00S00C0.02800
T6F00S00C0.03000
T7F00S00C0.03150
T8F00S00C0.03543
T9F00S00C0.03937
T10F00S00C0.04724
T11F00S00C0.11811
;TYPE=NON_PLATED
T12F00S00C0.11811
%
T01
X-2000Y68400
T02
X177500Y100000
X189976Y97645
X198698Y98198
X194750Y108500
X189000Y117000
X177500
X182274Y110855
X183250Y125500
X212000Y117000
X221698Y115198
X218750Y109500
X230250
X241250
X252750
X264250
X275750
X286750Y108500
X281000Y117000
X269500
X258000
X292500
Y100000
X298250Y108500
X315500Y118000
X327000Y118500
X321250Y125500
X319000Y80500
X307500
X330500
X341024Y80405
X352524
X364024
X361500Y117000
X373000
X343000Y129500
X309750Y159500
X304000Y185000
X299819Y195898
X298000Y212039
X327000Y185000
X271500Y178000
X246500Y168000
X235000
X223500
X229250Y159500
X240750
X252250
X258000Y151000
X246500
X235000
X223500
X206250Y142500
X183250
X177500Y151000
Y134000
Y168000
X193000Y166000
X197199Y159000
X240750Y142500
X252250
X263750
X269500Y134000
X281000
X258000
X269500Y226000
X222000Y208500
T03
X293000Y87500
X325000Y148500
X324500Y179000
X284000Y174000
X278000Y169000
Y179000
X276500Y189964
X278000Y199000
X278500Y209500
X284500Y204500
X286000Y194500
X268500Y205000
X260000Y169500
Y159500
X241500Y172000
X215500
X218500Y176822
X216000Y180358
X218500Y184000
X216000Y187500
X218500Y191000
X216000Y194500
X216500Y204500
Y226153
X229000Y232500
X284000Y143500
X104969Y249500
X94300Y249900
X4000Y209500
X-1000
X-2500Y156000
X5000
T04
X-3800Y16100
X9800
X23400
X37000
X50600
X64200
X71000Y28300
X57400
X43800
X30200
X37000Y40500
X50600
X64200
X71000Y52700
X57400
X43800
X30200
X23400Y40500
X30200Y3900
X43800
X57400
X71000
X16600
X19500Y89500
X12000Y97500
X28000Y97000
X19500Y107000
X11000Y117000
X28000
X54500Y127000
X76535Y120053
X87900Y112400
X101900Y103700
X109700Y95100
X99500Y87000
X89800Y77100
X79500Y67000
X76535Y100270
X60000Y89000
X42500
X130800Y95500
X139500Y107000
X133200Y117900
X118500Y121300
X150100Y118800
X149500Y97000
X297500Y230500
X304000Y235000
X309500Y230000
X330500Y231500
X338500Y226500
X371500Y233000
X380500Y238500
Y249500
Y260500
Y271500
X380000Y283500
X371500Y277000
Y266000
X362500Y271500
X362000Y283500
X352200Y282100
X343500Y283500
X300000Y284000
X275000Y250500
X266000Y256000
Y245000
X176500Y244000
Y256000
X167500Y249500
X158000Y244000
Y256000
X150000Y249500
X149000Y238500
X149500Y177000
X143500Y158200
X148800Y144300
X142500Y131100
X126600Y131600
X134700Y144300
X129500Y154900
Y177000
Y197000
X139500Y187000
Y167000
X115900Y143700
X87900Y146500
X88000Y129300
X76535Y140053
X77000Y174500
Y194500
X70500Y235500
X77000Y247500
X77500Y266500
X109000Y276500
X119000Y275500
X130000
X124500Y266500
X134500Y234500
X39500Y207000
X29500Y197000
Y157000
X36200Y133100
X-500Y227000
X9500Y237000
X19500Y247000
X-500
X310000Y294000
X320000Y304000
X330000Y318500
X340000Y328500
X360000
X370000Y338500
X380000Y348500
X370000Y358500
X360000Y368500
X350000Y378500
X330000
Y358500
Y338500
X350000
X360000Y348500
X350000Y358500
X340000Y348500
T05
X317500Y144000
X342000Y142000
Y148000
Y136000
X317500Y174000
X316500Y204500
X362500Y236400
X177500Y232500
X172000Y238500
X147500Y199500
X101500Y218500
X101000Y227000
X112969Y266500
X47000Y219988
X47500Y140500
T06
X235000Y124500
X245000
X255000
X305000Y245000
X315000
X325000
X335000
X345000
X355000
X365000
Y255000
X355000
X345000
X335000
X325000
X315000
X305000
X295000
Y245000
X256500
Y255000
X246500
X236500
X226500
X216500
X206500
X196500
X186500
Y245000
X196500
X206500
X216500
X226500
X236500
X246500
X133400Y206900
X123400
X113400
X33000Y228500
X23000
X13000
X13984Y142700
X23984
X33984
X374000Y296000
Y306000
Y316000
Y326000
T07
X114100Y103400
X124100
X184100
X204100
Y163400
X184100
X124100
X114100
X72379Y279000
X50879
Y289000
X72379
T08
X42500Y107100
X52500
X62500
X312500Y100500
X322500
X332500
X355500Y100500
X365500
X375500
Y136041
X365500
X355500
X355500Y171500
X365500
X375500
X376100Y211000
X366100
X356100
X62500Y183050
X52500
X42500
Y259000
X52500
X62500
T09
X50879Y319000
X72379
Y349000
X50879
T10
X4600Y54258
Y73943
X10266Y277658
Y297342
Y322158
Y341843
X43370Y371500
X63055
T11
X37100Y8100
X340853Y369853
T12
X0Y0
X377953
X0Y377953
X377953
M30
