G04 Layer_Color=0*
%FSLAX26Y26*%
%MOIN*%
%TF.FileFunction,NonPlated,1,2,NPTH,Drill*%
%TF.Part,Single*%
G01*
G75*
%TA.AperFunction,OtherDrill,Pad Free-4 (0mil,3779.528mil)*%
%ADD85C,0.118110*%
%TA.AperFunction,OtherDrill,Pad Free-4 (3779.526mil,3779.528mil)*%
%ADD86C,0.118110*%
%TA.AperFunction,OtherDrill,Pad Free-4 (3779.526mil,0mil)*%
%ADD87C,0.118110*%
%TA.AperFunction,OtherDrill,Pad Free-4 (0mil,0mil)*%
%ADD88C,0.118110*%
G36*
X2730322Y2144678D02*
X2727274Y2141630D01*
X2719310Y2138331D01*
X2710690Y2138331D01*
X2702726Y2141630D01*
X2696630Y2147726D01*
X2693332Y2155690D01*
X2693331Y2164310D01*
X2696630Y2172274D01*
X2699678Y2175322D01*
Y2175322D01*
X2764678Y2240322D01*
X2766186Y2241833D01*
X2769734Y2244207D01*
X2773678Y2245840D01*
X2777865Y2246671D01*
X2780000Y2246668D01*
X2780000Y2246669D01*
X3270000Y2246668D01*
X3272141Y2246668D01*
X3276339Y2245831D01*
X3280293Y2244188D01*
X3283848Y2241803D01*
X3285358Y2240285D01*
X3285358Y2240285D01*
X3425322Y2100322D01*
X3426833Y2098814D01*
X3429207Y2095266D01*
X3430840Y2091322D01*
X3431671Y2087134D01*
X3431668Y2085000D01*
X3431669Y2085000D01*
Y1610000D01*
Y1605690D01*
X3428370Y1597726D01*
X3422274Y1591630D01*
X3414310Y1588332D01*
X3405690D01*
X3397726Y1591630D01*
X3391630Y1597726D01*
X3388331Y1605690D01*
Y1610000D01*
D01*
Y2076025D01*
X3261025Y2203331D01*
X2788975D01*
X2730322Y2144678D01*
D02*
G37*
G36*
X1750000Y2138331D02*
X1745690D01*
X1737726Y2141630D01*
X1731630Y2147726D01*
X1728332Y2155690D01*
Y2164310D01*
X1731630Y2172274D01*
X1737726Y2178370D01*
X1745690Y2181669D01*
X1750000D01*
D01*
X2615000D01*
X2619310D01*
X2627274Y2178370D01*
X2633370Y2172274D01*
X2636669Y2164310D01*
Y2160000D01*
Y2155690D01*
X2633370Y2147726D01*
X2627274Y2141630D01*
X2619310Y2138331D01*
X2615000D01*
D01*
X1750000D01*
D02*
G37*
G36*
X1573332Y1000000D02*
Y995690D01*
X1576630Y987726D01*
X1582726Y981630D01*
X1590690Y978332D01*
X1599310D01*
X1607274Y981630D01*
X1613370Y987726D01*
X1616668Y995690D01*
Y1000000D01*
D01*
Y1390000D01*
Y1394310D01*
X1613370Y1402274D01*
X1607274Y1408370D01*
X1599310Y1411668D01*
X1590690D01*
X1582726Y1408370D01*
X1576630Y1402274D01*
X1573332Y1394310D01*
Y1390000D01*
D01*
Y1000000D01*
D02*
G37*
G36*
X3422274Y1518332D02*
X3417964D01*
X3410000Y1521630D01*
X3403905Y1527726D01*
X3400606Y1535690D01*
Y1544310D01*
X3403905Y1552274D01*
X3410000Y1558370D01*
X3417964Y1561668D01*
X3422274D01*
D01*
X3843000Y1561668D01*
X3845943Y1560095D01*
X3850777Y1555494D01*
X3854208Y1549769D01*
X3855989Y1543337D01*
X3855988Y1536662D01*
X3854208Y1530230D01*
X3850777Y1524506D01*
X3845943Y1519904D01*
X3843000Y1518331D01*
X3843000Y1518331D01*
X3422274Y1518332D01*
D02*
G37*
G36*
X75000Y2593331D02*
X70690D01*
X62726Y2596630D01*
X56630Y2602726D01*
X53331Y2610690D01*
Y2619310D01*
X56630Y2627274D01*
X62726Y2633370D01*
X70690Y2636669D01*
X75000D01*
D01*
X238332D01*
Y2865000D01*
Y2867141D01*
X239169Y2871339D01*
X240812Y2875293D01*
X243197Y2878848D01*
X244714Y2880358D01*
D01*
X244678Y2880322D01*
X379678Y3015322D01*
X379642Y3015285D01*
X381152Y3016803D01*
X384707Y3019188D01*
X388661Y3020831D01*
X392859Y3021669D01*
X395000D01*
D01*
X675000D01*
X679310D01*
X687274Y3018370D01*
X693370Y3012274D01*
X696668Y3004310D01*
Y3000000D01*
Y2995690D01*
X693370Y2987726D01*
X687274Y2981630D01*
X679310Y2978331D01*
X675000D01*
D01*
X403975D01*
X281668Y2856025D01*
Y2615000D01*
Y2610690D01*
X278370Y2602726D01*
X272274Y2596630D01*
X264310Y2593331D01*
X260000D01*
D01*
X75000D01*
D02*
G37*
G36*
X1573332Y1500000D02*
Y2105000D01*
Y2107141D01*
X1574169Y2111339D01*
X1575812Y2115293D01*
X1578197Y2118848D01*
X1579715Y2120358D01*
D01*
X1579678Y2120322D01*
X1634678Y2175322D01*
X1634642Y2175285D01*
X1636152Y2176803D01*
X1639707Y2179188D01*
X1643661Y2180831D01*
X1647859Y2181669D01*
X1650000D01*
D01*
X1675000D01*
X1679310D01*
X1687274Y2178370D01*
X1693370Y2172274D01*
X1696668Y2164310D01*
Y2160000D01*
Y2155690D01*
X1693370Y2147726D01*
X1687274Y2141630D01*
X1679310Y2138331D01*
X1675000D01*
D01*
X1658975D01*
X1616668Y2096025D01*
Y1500000D01*
Y1495690D01*
X1613370Y1487726D01*
X1607274Y1481630D01*
X1599310Y1478332D01*
X1590690D01*
X1582726Y1481630D01*
X1576630Y1487726D01*
X1573332Y1495690D01*
Y1500000D01*
D01*
D02*
G37*
D85*
X0Y3779528D02*
D03*
D86*
X3779526D02*
D03*
D87*
Y0D02*
D03*
D88*
X0D02*
D03*
%TF.MD5,94ae429a19c334c9c2ffc80670b73129*%
M02*
