G04 Layer_Color=0*
%FSLAX26Y26*%
%MOIN*%
%TF.FileFunction,Plated,1,2,PTH,Drill*%
%TF.Part,Single*%
G01*
G75*
%TA.AperFunction,ComponentDrill*%
%ADD71C,0.047244*%
%TA.AperFunction,OtherDrill,Pad Free-7 (2320mil,2180mil)*%
%ADD72C,0.039370*%
%TA.AperFunction,OtherDrill,Pad Free-7 (2320mil,2380mil)*%
%ADD73C,0.039370*%
%TA.AperFunction,OtherDrill,Pad Free-7 (2320mil,2480mil)*%
%ADD74C,0.039370*%
%TA.AperFunction,ComponentDrill*%
%ADD75C,0.035433*%
%ADD76C,0.030000*%
%ADD77C,0.047244*%
%TA.AperFunction,OtherDrill,Pad Free-5 (1960mil,2775mil)*%
%ADD78C,0.039370*%
%TA.AperFunction,OtherDrill,Pad Free-6 (1960mil,2675mil)*%
%ADD79C,0.039370*%
%TA.AperFunction,OtherDrill,Pad Free-7 (1960mil,2575mil)*%
%ADD80C,0.039370*%
%TA.AperFunction,ViaDrill,NotFilled*%
%ADD81C,0.015000*%
%ADD82C,0.028000*%
%ADD83C,0.020000*%
D71*
X3627665Y783425D02*
D03*
Y586575D02*
D03*
X3627665Y1273425D02*
D03*
Y1076575D02*
D03*
X3627666Y1848425D02*
D03*
Y1651575D02*
D03*
Y2337425D02*
D03*
Y2140575D02*
D03*
Y2958425D02*
D03*
Y2761575D02*
D03*
X3627665Y3448425D02*
D03*
Y3251575D02*
D03*
D72*
X2320000Y2180000D02*
D03*
D73*
Y2380000D02*
D03*
D74*
Y2480000D02*
D03*
D75*
X2185000Y1830000D02*
D03*
Y1930000D02*
D03*
Y2030000D02*
D03*
Y2130000D02*
D03*
Y2230000D02*
D03*
Y2330000D02*
D03*
Y2430000D02*
D03*
Y2530000D02*
D03*
Y2630000D02*
D03*
Y2730000D02*
D03*
Y2830000D02*
D03*
Y2930000D02*
D03*
Y3030000D02*
D03*
Y3130000D02*
D03*
Y3230000D02*
D03*
Y3330000D02*
D03*
Y3430000D02*
D03*
Y3530000D02*
D03*
Y3630000D02*
D03*
Y3730000D02*
D03*
X2085000Y1830000D02*
D03*
Y1930000D02*
D03*
Y2030000D02*
D03*
Y2130000D02*
D03*
Y2230000D02*
D03*
Y2330000D02*
D03*
Y2430000D02*
D03*
Y2530000D02*
D03*
Y2630000D02*
D03*
Y2730000D02*
D03*
Y2830000D02*
D03*
Y2930000D02*
D03*
Y3030000D02*
D03*
Y3130000D02*
D03*
Y3230000D02*
D03*
Y3330000D02*
D03*
Y3430000D02*
D03*
Y3530000D02*
D03*
Y3630000D02*
D03*
Y3730000D02*
D03*
X492087Y1830000D02*
D03*
X392087Y3730000D02*
D03*
Y3630000D02*
D03*
Y3530000D02*
D03*
Y3430000D02*
D03*
Y3330000D02*
D03*
Y3230000D02*
D03*
Y3130000D02*
D03*
Y3030000D02*
D03*
Y2930000D02*
D03*
Y2830000D02*
D03*
Y2730000D02*
D03*
Y2630000D02*
D03*
Y2530000D02*
D03*
Y2430000D02*
D03*
Y2330000D02*
D03*
Y2230000D02*
D03*
Y2130000D02*
D03*
Y2030000D02*
D03*
Y1930000D02*
D03*
Y1830000D02*
D03*
X492087Y3730000D02*
D03*
Y3630000D02*
D03*
Y3530000D02*
D03*
Y3430000D02*
D03*
Y3330000D02*
D03*
Y3230000D02*
D03*
Y3130000D02*
D03*
Y3030000D02*
D03*
Y2930000D02*
D03*
Y2830000D02*
D03*
Y2730000D02*
D03*
Y2630000D02*
D03*
Y2530000D02*
D03*
Y2430000D02*
D03*
Y2330000D02*
D03*
Y2230000D02*
D03*
Y2130000D02*
D03*
Y2030000D02*
D03*
Y1930000D02*
D03*
D76*
X1744370Y715591D02*
D03*
Y940000D02*
D03*
Y1115591D02*
D03*
Y1215591D02*
D03*
X760000Y710591D02*
D03*
Y935000D02*
D03*
Y1110591D02*
D03*
Y1210591D02*
D03*
X2770000Y710591D02*
D03*
Y935000D02*
D03*
Y1110591D02*
D03*
Y1210591D02*
D03*
D77*
X2693425Y60000D02*
D03*
X2496575D02*
D03*
X1672795Y65000D02*
D03*
X1475945D02*
D03*
X688425Y60000D02*
D03*
X491575D02*
D03*
D78*
X1960000Y2775000D02*
D03*
D79*
Y2675000D02*
D03*
D80*
Y2575000D02*
D03*
D81*
X3170000Y1435000D02*
D03*
Y1635000D02*
D03*
X3165000Y1840000D02*
D03*
X3180000Y2425000D02*
D03*
X3175000Y2630000D02*
D03*
X3180000Y2825000D02*
D03*
X3175000Y3030000D02*
D03*
Y3630000D02*
D03*
X3075000Y3530000D02*
D03*
X2970000Y3635000D02*
D03*
X3075000Y3730000D02*
D03*
X2875000D02*
D03*
X2675000D02*
D03*
X2475000D02*
D03*
X2175000Y1630000D02*
D03*
X2275000Y1730000D02*
D03*
X2270000Y1535000D02*
D03*
X2475000Y1530000D02*
D03*
X2370000Y1635000D02*
D03*
X2375000Y1830000D02*
D03*
X2875000Y1330000D02*
D03*
X2775000Y1430000D02*
D03*
X2675000Y1530000D02*
D03*
X2975000Y1430000D02*
D03*
X2875000Y1530000D02*
D03*
X2970000Y1635000D02*
D03*
X2870000Y1735000D02*
D03*
X2970000Y1835000D02*
D03*
X2870000Y1935000D02*
D03*
X2770000Y2035000D02*
D03*
X2885000Y2120000D02*
D03*
X2680000Y2325000D02*
D03*
X2975000Y2630000D02*
D03*
X2980000Y2425000D02*
D03*
X2885000Y2320000D02*
D03*
X2785000Y2220000D02*
D03*
X2385000D02*
D03*
X2485000Y2320000D02*
D03*
X2585000Y2220000D02*
D03*
X2670000Y1735000D02*
D03*
X2770000Y1835000D02*
D03*
X2775000Y1630000D02*
D03*
X2470000Y1735000D02*
D03*
X2570000Y1835000D02*
D03*
X2575000Y1630000D02*
D03*
X2570000Y2035000D02*
D03*
X2670000Y2135000D02*
D03*
X2675000Y1930000D02*
D03*
X2370000Y2035000D02*
D03*
X2470000Y2135000D02*
D03*
X2475000Y1930000D02*
D03*
X2280000Y2525000D02*
D03*
X2275000Y2730000D02*
D03*
X2480000Y2525000D02*
D03*
X2475000Y2730000D02*
D03*
X2375000Y2630000D02*
D03*
X2380000Y2425000D02*
D03*
X2680000Y2525000D02*
D03*
X2675000Y2730000D02*
D03*
X2575000Y2630000D02*
D03*
X2580000Y2425000D02*
D03*
X2880000Y2525000D02*
D03*
X2875000Y2730000D02*
D03*
X2775000Y2630000D02*
D03*
X2780000Y2425000D02*
D03*
X2480000Y2925000D02*
D03*
X2475000Y3130000D02*
D03*
X2375000Y3030000D02*
D03*
X2380000Y2825000D02*
D03*
X2680000Y2925000D02*
D03*
X2675000Y3130000D02*
D03*
X2575000Y3030000D02*
D03*
X2580000Y2825000D02*
D03*
X2880000Y2925000D02*
D03*
X2875000Y3130000D02*
D03*
X2775000Y3030000D02*
D03*
X2780000Y2825000D02*
D03*
X2975000Y3030000D02*
D03*
X2980000Y2825000D02*
D03*
X2480000Y3325000D02*
D03*
X2475000Y3530000D02*
D03*
X2375000Y3430000D02*
D03*
X2380000Y3225000D02*
D03*
X2680000Y3325000D02*
D03*
X2675000Y3530000D02*
D03*
X2575000Y3430000D02*
D03*
X2580000Y3225000D02*
D03*
X2880000Y3325000D02*
D03*
X2875000Y3530000D02*
D03*
X2775000Y3430000D02*
D03*
X2780000Y3225000D02*
D03*
X2975000Y3430000D02*
D03*
X2980000Y3225000D02*
D03*
X1775000Y2830000D02*
D03*
Y3030000D02*
D03*
Y3230000D02*
D03*
X1770000Y3435000D02*
D03*
X1870000Y3535000D02*
D03*
X1875000Y3330000D02*
D03*
Y3130000D02*
D03*
Y2730000D02*
D03*
Y2930000D02*
D03*
X1570000Y1625000D02*
D03*
X1575000Y2030000D02*
D03*
Y2430000D02*
D03*
Y2830000D02*
D03*
Y2630000D02*
D03*
Y3030000D02*
D03*
Y3230000D02*
D03*
X1570000Y3435000D02*
D03*
X1670000Y3535000D02*
D03*
X1675000Y3330000D02*
D03*
Y3130000D02*
D03*
Y2730000D02*
D03*
Y2930000D02*
D03*
Y2530000D02*
D03*
X1575000Y2220000D02*
D03*
Y1820000D02*
D03*
X1675000Y2320000D02*
D03*
Y2120000D02*
D03*
Y1920000D02*
D03*
X1670000Y1715000D02*
D03*
X1370000Y1625000D02*
D03*
X1375000Y2030000D02*
D03*
Y2430000D02*
D03*
Y2830000D02*
D03*
Y2630000D02*
D03*
Y3030000D02*
D03*
Y3230000D02*
D03*
X1370000Y3435000D02*
D03*
X1470000Y3535000D02*
D03*
X1475000Y3330000D02*
D03*
Y3130000D02*
D03*
Y2730000D02*
D03*
Y2930000D02*
D03*
Y2530000D02*
D03*
X1375000Y2220000D02*
D03*
Y1820000D02*
D03*
X1475000Y2320000D02*
D03*
Y2120000D02*
D03*
Y1920000D02*
D03*
X1470000Y1715000D02*
D03*
X1170000Y1625000D02*
D03*
X1175000Y2030000D02*
D03*
Y2430000D02*
D03*
Y2830000D02*
D03*
Y2630000D02*
D03*
Y3030000D02*
D03*
Y3230000D02*
D03*
X1170000Y3435000D02*
D03*
X1270000Y3535000D02*
D03*
X1275000Y3330000D02*
D03*
Y3130000D02*
D03*
Y2730000D02*
D03*
Y2930000D02*
D03*
Y2530000D02*
D03*
X1175000Y2220000D02*
D03*
Y1820000D02*
D03*
X1275000Y2320000D02*
D03*
Y2120000D02*
D03*
Y1920000D02*
D03*
X1270000Y1715000D02*
D03*
X970000Y1625000D02*
D03*
X975000Y2030000D02*
D03*
Y2430000D02*
D03*
Y2830000D02*
D03*
Y2630000D02*
D03*
Y3030000D02*
D03*
Y3230000D02*
D03*
X970000Y3435000D02*
D03*
X1070000Y3535000D02*
D03*
X1075000Y3330000D02*
D03*
Y3130000D02*
D03*
Y2730000D02*
D03*
Y2930000D02*
D03*
Y2530000D02*
D03*
X975000Y2220000D02*
D03*
Y1820000D02*
D03*
X1075000Y2320000D02*
D03*
Y2120000D02*
D03*
Y1920000D02*
D03*
X1070000Y1715000D02*
D03*
X870000D02*
D03*
X875000Y1920000D02*
D03*
Y2120000D02*
D03*
Y2320000D02*
D03*
X775000Y1820000D02*
D03*
Y2220000D02*
D03*
X875000Y2530000D02*
D03*
Y2930000D02*
D03*
Y2730000D02*
D03*
Y3130000D02*
D03*
Y3330000D02*
D03*
X870000Y3535000D02*
D03*
X770000Y3435000D02*
D03*
X775000Y3230000D02*
D03*
Y3030000D02*
D03*
Y2630000D02*
D03*
X575000Y1830000D02*
D03*
Y2230000D02*
D03*
Y3030000D02*
D03*
X670000Y3535000D02*
D03*
X570000Y3435000D02*
D03*
X670000Y3335000D02*
D03*
X575000Y3230000D02*
D03*
X675000Y3130000D02*
D03*
X575000Y2630000D02*
D03*
X270000Y3535000D02*
D03*
Y3335000D02*
D03*
X170000Y3435000D02*
D03*
X175000Y3230000D02*
D03*
Y3030000D02*
D03*
X275000Y3130000D02*
D03*
X575000Y2830000D02*
D03*
X675000Y2930000D02*
D03*
Y2730000D02*
D03*
X775000Y2830000D02*
D03*
X575000Y2430000D02*
D03*
X675000Y2530000D02*
D03*
Y2330000D02*
D03*
X775000Y2430000D02*
D03*
X575000Y2030000D02*
D03*
X675000Y2130000D02*
D03*
Y1930000D02*
D03*
X775000Y2030000D02*
D03*
X770000Y1625000D02*
D03*
X670000Y1525000D02*
D03*
Y1725000D02*
D03*
X570000Y1625000D02*
D03*
X470000Y1525000D02*
D03*
Y1725000D02*
D03*
X370000Y1625000D02*
D03*
X270000Y1725000D02*
D03*
X170000Y1625000D02*
D03*
X270000Y1525000D02*
D03*
X170000Y1425000D02*
D03*
X275000Y2130000D02*
D03*
X175000Y2030000D02*
D03*
X275000Y1930000D02*
D03*
X175000Y1830000D02*
D03*
X275000Y2530000D02*
D03*
X175000Y2430000D02*
D03*
X275000Y2330000D02*
D03*
X175000Y2230000D02*
D03*
X275000Y2930000D02*
D03*
X175000Y2830000D02*
D03*
X275000Y2730000D02*
D03*
X175000Y2630000D02*
D03*
D82*
X3155000Y1195000D02*
D03*
Y2255000D02*
D03*
Y3370000D02*
D03*
X440000Y830000D02*
D03*
X1420000D02*
D03*
X2450000D02*
D03*
X265000Y1190000D02*
D03*
D83*
X3075000Y3170000D02*
D03*
Y2055000D02*
D03*
Y995000D02*
D03*
X297598Y722598D02*
D03*
X1277598D02*
D03*
X2307598D02*
D03*
X2270000Y1190000D02*
D03*
X1245000D02*
D03*
X1659370Y1404370D02*
D03*
X2250000Y1405000D02*
D03*
%TF.MD5,6f62835a02b179b76c77ebb2188ae096*%
M02*
