G04 Layer_Color=255*
%FSLAX26Y26*%
%MOIN*%
%TF.FileFunction,Pads,Top*%
%TF.Part,Single*%
G01*
G75*
%TA.AperFunction,SMDPad,CuDef*%
%ADD10R,0.059055X0.055118*%
%ADD11R,0.059055X0.051181*%
%ADD12R,0.051181X0.023622*%
%ADD13R,0.055118X0.059055*%
%ADD14R,0.059055X0.062992*%
%ADD15O,0.027559X0.098425*%
%ADD16R,0.074803X0.059055*%
%ADD17R,0.137795X0.055118*%
%ADD18R,0.047244X0.055118*%
%ADD19R,0.062992X0.059055*%
%ADD20O,0.118110X0.031496*%
%ADD21R,0.051181X0.059055*%
%ADD22R,0.023622X0.051181*%
%ADD23O,0.023622X0.070866*%
%ADD24R,0.023622X0.070866*%
%ADD25O,0.070866X0.023622*%
%ADD26O,0.070866X0.025591*%
%TA.AperFunction,ComponentPad*%
%ADD41O,0.120000X0.060000*%
%ADD42R,0.120000X0.060000*%
%ADD43O,0.196850X0.098425*%
%ADD44O,0.098425X0.196850*%
%ADD45C,0.098425*%
%ADD46R,0.055118X0.055118*%
%ADD47C,0.055118*%
%ADD48C,0.124016*%
%ADD49C,0.094488*%
%ADD50C,0.060000*%
%ADD51R,0.060000X0.060000*%
%TA.AperFunction,WasherPad*%
%ADD52C,0.060000*%
%TA.AperFunction,ViaPad*%
%ADD53O,0.078740X0.070866*%
%TA.AperFunction,ComponentPad*%
%ADD54R,0.118110X0.118110*%
%ADD55C,0.118110*%
%ADD56C,0.059055*%
%ADD57R,0.059055X0.059055*%
%ADD58R,0.118110X0.118110*%
%ADD59C,0.078740*%
D10*
X248000Y2321630D02*
D03*
Y2400370D02*
D03*
X189000Y1990630D02*
D03*
Y2069370D02*
D03*
X81000Y1990630D02*
D03*
Y2069370D02*
D03*
X86000Y3314630D02*
D03*
Y3393370D02*
D03*
X74000Y2537630D02*
D03*
Y2616370D02*
D03*
X943000Y2006370D02*
D03*
Y1927630D02*
D03*
X3235000Y679370D02*
D03*
Y600630D02*
D03*
X190000Y3581370D02*
D03*
Y3502630D02*
D03*
X763000Y2496630D02*
D03*
Y2575370D02*
D03*
X2509640Y1325630D02*
D03*
Y1404370D02*
D03*
X2409820Y1325630D02*
D03*
Y1404370D02*
D03*
X2310000Y1404370D02*
D03*
Y1325630D02*
D03*
X615000Y1404370D02*
D03*
Y1325630D02*
D03*
X518333Y1325630D02*
D03*
Y1404370D02*
D03*
X949862Y195630D02*
D03*
Y274370D02*
D03*
X257461Y195630D02*
D03*
Y274370D02*
D03*
X1295000Y1325630D02*
D03*
Y1404370D02*
D03*
X1585000Y1404370D02*
D03*
Y1325630D02*
D03*
X1488333Y1325630D02*
D03*
Y1404370D02*
D03*
X325000Y1325630D02*
D03*
Y1404370D02*
D03*
X2255000Y195630D02*
D03*
Y274370D02*
D03*
X2954370Y175630D02*
D03*
Y254370D02*
D03*
X1249370Y200630D02*
D03*
Y279370D02*
D03*
X1921772Y200630D02*
D03*
Y279370D02*
D03*
X2770000Y2670630D02*
D03*
Y2749370D02*
D03*
X2860000Y2670630D02*
D03*
Y2749370D02*
D03*
D11*
X191000Y1894402D02*
D03*
Y1819599D02*
D03*
X80000Y1894402D02*
D03*
Y1819599D02*
D03*
X188000Y3339598D02*
D03*
Y3414401D02*
D03*
X175000Y2614402D02*
D03*
Y2539599D02*
D03*
D12*
X249244Y2177000D02*
D03*
X154756Y2139598D02*
D03*
Y2214402D02*
D03*
X161244Y2317000D02*
D03*
X66756Y2279598D02*
D03*
Y2354402D02*
D03*
X517244Y1627000D02*
D03*
X422756Y1589598D02*
D03*
Y1664402D02*
D03*
X1018244Y2115000D02*
D03*
X923756Y2077598D02*
D03*
Y2152402D02*
D03*
D13*
X74630Y2443000D02*
D03*
X153370D02*
D03*
X585630Y1701000D02*
D03*
X664370D02*
D03*
X634630Y1588000D02*
D03*
X713370D02*
D03*
X646630Y2145000D02*
D03*
X725370D02*
D03*
X3544370Y360000D02*
D03*
X3465630D02*
D03*
X639370Y650000D02*
D03*
X560630D02*
D03*
X849370Y566067D02*
D03*
X770630D02*
D03*
X770630Y448933D02*
D03*
X849370D02*
D03*
X355630Y566067D02*
D03*
X434370D02*
D03*
X434370Y448933D02*
D03*
X355630D02*
D03*
X355630Y305000D02*
D03*
X434370D02*
D03*
X849370D02*
D03*
X770630D02*
D03*
X873091Y60000D02*
D03*
X951831D02*
D03*
X334232D02*
D03*
X255492D02*
D03*
X2350630Y575000D02*
D03*
X2429370D02*
D03*
X2429370Y440000D02*
D03*
X2350630D02*
D03*
X2350630Y305000D02*
D03*
X2429370D02*
D03*
X2331772Y60000D02*
D03*
X2253031D02*
D03*
X2859370Y575000D02*
D03*
X2780630D02*
D03*
X2780630Y440000D02*
D03*
X2859370D02*
D03*
X2859370Y305000D02*
D03*
X2780630D02*
D03*
X2875630Y60000D02*
D03*
X2954370D02*
D03*
X2644370Y660000D02*
D03*
X2565630D02*
D03*
X1328740Y65000D02*
D03*
X1250000D02*
D03*
X1345000Y310000D02*
D03*
X1423740D02*
D03*
X1423740Y445000D02*
D03*
X1345000D02*
D03*
X1345630Y580000D02*
D03*
X1424370D02*
D03*
X1845000Y65000D02*
D03*
X1923740D02*
D03*
X1823740Y580000D02*
D03*
X1745000D02*
D03*
X1745000Y445000D02*
D03*
X1823740D02*
D03*
X1823740Y310000D02*
D03*
X1745000D02*
D03*
X1618740Y675000D02*
D03*
X1540000D02*
D03*
D14*
X992402Y1835000D02*
D03*
X917598D02*
D03*
X175401Y3037000D02*
D03*
X100598D02*
D03*
X175401Y3125000D02*
D03*
X100598D02*
D03*
X175401Y3213000D02*
D03*
X100598D02*
D03*
X3008599Y1488000D02*
D03*
X3083402D02*
D03*
X3007599Y1660000D02*
D03*
X3082402D02*
D03*
X3007599Y1575000D02*
D03*
X3082402D02*
D03*
X3744803Y1340000D02*
D03*
X3670000D02*
D03*
X3742401Y1430000D02*
D03*
X3667598D02*
D03*
X2640989Y575539D02*
D03*
X2566186D02*
D03*
X637402Y565000D02*
D03*
X562598D02*
D03*
X1616772Y585000D02*
D03*
X1541968D02*
D03*
D15*
X826000Y2027457D02*
D03*
X776000D02*
D03*
X726000D02*
D03*
X676000D02*
D03*
X826000Y1834543D02*
D03*
X776000D02*
D03*
X726000D02*
D03*
X676000D02*
D03*
D16*
X335000Y1689024D02*
D03*
Y1566976D02*
D03*
D17*
X125000Y2707992D02*
D03*
D18*
X34016Y2952008D02*
D03*
X125000D02*
D03*
X215984D02*
D03*
D19*
X793000Y3118599D02*
D03*
Y3193402D02*
D03*
X887000Y3118599D02*
D03*
Y3193402D02*
D03*
X979000Y3118599D02*
D03*
Y3193402D02*
D03*
X755000Y2288599D02*
D03*
Y2363402D02*
D03*
X3235000Y837402D02*
D03*
Y762598D02*
D03*
X2610000Y1326186D02*
D03*
Y1400989D02*
D03*
X2195000Y1267401D02*
D03*
Y1192598D02*
D03*
X422206Y1329011D02*
D03*
Y1403814D02*
D03*
X225000Y797402D02*
D03*
Y722598D02*
D03*
X1392206Y1326186D02*
D03*
Y1400989D02*
D03*
X2235000Y797402D02*
D03*
Y722598D02*
D03*
X1205000Y797402D02*
D03*
Y722598D02*
D03*
X200000Y1267401D02*
D03*
Y1192598D02*
D03*
X2860000Y842402D02*
D03*
Y767598D02*
D03*
X845000Y862402D02*
D03*
Y787598D02*
D03*
X1190000Y1267401D02*
D03*
Y1192598D02*
D03*
X1844370Y862402D02*
D03*
Y787598D02*
D03*
D20*
X3473071Y1085000D02*
D03*
Y1185000D02*
D03*
Y1285000D02*
D03*
Y1385000D02*
D03*
X3106929Y1085000D02*
D03*
Y1185000D02*
D03*
Y1285000D02*
D03*
Y1385000D02*
D03*
D21*
X3312402Y505000D02*
D03*
X3237599D02*
D03*
D22*
X3690000Y967244D02*
D03*
X3727402Y872756D02*
D03*
X3652598D02*
D03*
D23*
X2470000Y1194134D02*
D03*
X2420000D02*
D03*
X2370000D02*
D03*
X2320000D02*
D03*
X2470000Y765000D02*
D03*
X2420000D02*
D03*
X2370000D02*
D03*
X1445000Y1194134D02*
D03*
X1395000D02*
D03*
X1345000D02*
D03*
X1295000D02*
D03*
X1445000Y765000D02*
D03*
X1395000D02*
D03*
X1345000D02*
D03*
X455000Y1194134D02*
D03*
X405000D02*
D03*
X355000D02*
D03*
X305000D02*
D03*
X455000Y765000D02*
D03*
X405000D02*
D03*
X355000D02*
D03*
D24*
X2320000D02*
D03*
X1295000D02*
D03*
X305000D02*
D03*
D25*
X2614331Y2540000D02*
D03*
Y2590000D02*
D03*
Y2640000D02*
D03*
Y2690000D02*
D03*
X2405669Y2540000D02*
D03*
Y2590000D02*
D03*
Y2640000D02*
D03*
Y2690000D02*
D03*
D26*
X3179764Y3090000D02*
D03*
Y3040000D02*
D03*
Y2990000D02*
D03*
Y2940000D02*
D03*
X3400236Y3090000D02*
D03*
Y3040000D02*
D03*
Y2990000D02*
D03*
Y2940000D02*
D03*
X3179764Y2480000D02*
D03*
Y2430000D02*
D03*
Y2380000D02*
D03*
Y2330000D02*
D03*
X3400236Y2480000D02*
D03*
Y2430000D02*
D03*
Y2380000D02*
D03*
Y2330000D02*
D03*
X3179764Y1870000D02*
D03*
Y1820000D02*
D03*
Y1770000D02*
D03*
Y1720000D02*
D03*
X3400236Y1870000D02*
D03*
Y1820000D02*
D03*
Y1770000D02*
D03*
Y1720000D02*
D03*
D41*
X121000Y1704000D02*
D03*
Y1604000D02*
D03*
D42*
Y1504000D02*
D03*
D43*
X875000Y3308780D02*
D03*
Y3545000D02*
D03*
D44*
X689961Y3426890D02*
D03*
D45*
X3415000Y245000D02*
D03*
X3595000D02*
D03*
D46*
X3660000Y602874D02*
D03*
D47*
X3310000Y702874D02*
D03*
X3610000D02*
D03*
X3360000Y602874D02*
D03*
X3560000D02*
D03*
X3410000Y702874D02*
D03*
X3510000D02*
D03*
X3460000Y602874D02*
D03*
D48*
X3260000Y352874D02*
D03*
X3710000D02*
D03*
D49*
X3179882Y172953D02*
D03*
X3790118D02*
D03*
D50*
X1636000Y3730000D02*
D03*
X1736000D02*
D03*
X1136000D02*
D03*
X1236000D02*
D03*
X1336000D02*
D03*
X1436000D02*
D03*
X1536000D02*
D03*
X1636000Y3630000D02*
D03*
X1736000D02*
D03*
X1136000D02*
D03*
X1236000D02*
D03*
X1336000D02*
D03*
X1436000D02*
D03*
X1536000D02*
D03*
X2770000Y1210591D02*
D03*
Y1110591D02*
D03*
Y935000D02*
D03*
Y710591D02*
D03*
X760000Y1210591D02*
D03*
Y1110591D02*
D03*
Y935000D02*
D03*
Y710591D02*
D03*
X1744370Y1215591D02*
D03*
Y1115591D02*
D03*
Y940000D02*
D03*
Y715591D02*
D03*
D51*
X1836000Y3730000D02*
D03*
Y3630000D02*
D03*
D52*
X3779526Y1220000D02*
D03*
X1Y-0D02*
D03*
Y3779528D02*
D03*
X3779527Y-0D02*
D03*
Y3779528D02*
D03*
D53*
X1850000Y2580000D02*
D03*
Y2675000D02*
D03*
Y2775000D02*
D03*
X2405000Y2415000D02*
D03*
Y2295000D02*
D03*
Y2180000D02*
D03*
D54*
X491575Y60000D02*
D03*
X1475945Y65000D02*
D03*
X2496575Y60000D02*
D03*
X3323425Y3735000D02*
D03*
X2873425D02*
D03*
D55*
X688425Y60000D02*
D03*
X1672795Y65000D02*
D03*
X2693425Y60000D02*
D03*
X3705000Y1726575D02*
D03*
Y2335000D02*
D03*
X3705000Y2946575D02*
D03*
X3126575Y3735000D02*
D03*
X2676575D02*
D03*
D56*
X481000Y1914000D02*
D03*
Y2014000D02*
D03*
Y2114000D02*
D03*
Y2214000D02*
D03*
Y2314000D02*
D03*
Y2414000D02*
D03*
Y2514000D02*
D03*
Y2614000D02*
D03*
Y2714000D02*
D03*
Y2814000D02*
D03*
Y2914000D02*
D03*
Y3014000D02*
D03*
Y3114000D02*
D03*
Y3214000D02*
D03*
Y3314000D02*
D03*
Y3414000D02*
D03*
Y3514000D02*
D03*
Y3614000D02*
D03*
Y3714000D02*
D03*
X381000Y1814000D02*
D03*
Y1914000D02*
D03*
Y2014000D02*
D03*
Y2114000D02*
D03*
Y2214000D02*
D03*
Y2314000D02*
D03*
Y2414000D02*
D03*
Y2514000D02*
D03*
Y2614000D02*
D03*
Y2714000D02*
D03*
Y2814000D02*
D03*
Y2914000D02*
D03*
Y3014000D02*
D03*
Y3114000D02*
D03*
Y3214000D02*
D03*
Y3314000D02*
D03*
Y3414000D02*
D03*
Y3514000D02*
D03*
Y3614000D02*
D03*
Y3714000D02*
D03*
X481000Y1814000D02*
D03*
X2073913Y3714000D02*
D03*
Y3614000D02*
D03*
Y3514000D02*
D03*
Y3414000D02*
D03*
Y3314000D02*
D03*
Y3214000D02*
D03*
Y3114000D02*
D03*
Y3014000D02*
D03*
Y2914000D02*
D03*
Y2814000D02*
D03*
Y2714000D02*
D03*
Y2614000D02*
D03*
Y2514000D02*
D03*
Y2414000D02*
D03*
Y2314000D02*
D03*
Y2214000D02*
D03*
Y2114000D02*
D03*
Y2014000D02*
D03*
Y1914000D02*
D03*
Y1814000D02*
D03*
X2173913Y3714000D02*
D03*
Y3614000D02*
D03*
Y3514000D02*
D03*
Y3414000D02*
D03*
Y3314000D02*
D03*
Y3214000D02*
D03*
Y3114000D02*
D03*
Y3014000D02*
D03*
Y2914000D02*
D03*
Y2814000D02*
D03*
Y2714000D02*
D03*
Y2614000D02*
D03*
Y2514000D02*
D03*
Y2414000D02*
D03*
Y2314000D02*
D03*
Y2214000D02*
D03*
Y2114000D02*
D03*
Y2014000D02*
D03*
Y1914000D02*
D03*
X2680000Y2740000D02*
D03*
Y2840000D02*
D03*
X2945000Y2740000D02*
D03*
Y2840000D02*
D03*
D57*
X2173913Y1814000D02*
D03*
D58*
X3705000Y1923425D02*
D03*
Y2531850D02*
D03*
X3705000Y3143425D02*
D03*
D59*
X2680000Y3140000D02*
D03*
Y3440000D02*
D03*
X2945000Y3140000D02*
D03*
Y3440000D02*
D03*
%TF.MD5,70bf589c4e3b550fed1323a64fbd4007*%
M02*
