G04 Layer_Color=32768*
%FSLAX26Y26*%
%MOIN*%
%TF.FileFunction,Other,Mechanical_15*%
%TF.Part,Single*%
G01*
G75*
%TA.AperFunction,NonConductor*%
%ADD64C,0.003937*%
%ADD65C,0.001968*%
D64*
X3245315Y1070000D02*
X3284685D01*
X3265000Y1050315D02*
Y1089685D01*
X3245315Y2130000D02*
X3284685D01*
X3265000Y2110315D02*
Y2149685D01*
X3245315Y3245000D02*
X3284685D01*
X3265000Y3225315D02*
Y3264685D01*
X1579370Y655315D02*
Y694685D01*
X1559685Y675000D02*
X1599055D01*
X1784370Y290315D02*
Y329685D01*
X1764685Y310000D02*
X1804055D01*
X1784370Y425315D02*
Y464685D01*
X1764685Y445000D02*
X1804055D01*
X1784370Y560315D02*
Y599685D01*
X1764685Y580000D02*
X1804055D01*
X1902086Y240000D02*
X1941457D01*
X1921772Y220315D02*
Y259685D01*
X1884370Y45315D02*
Y84685D01*
X1864685Y65000D02*
X1904055D01*
X1385000Y560315D02*
Y599685D01*
X1365315Y580000D02*
X1404685D01*
X1384370Y425315D02*
Y464685D01*
X1364685Y445000D02*
X1404055D01*
X1384370Y290315D02*
Y329685D01*
X1364685Y310000D02*
X1404055D01*
X1229685Y240000D02*
X1269055D01*
X1249370Y220315D02*
Y259685D01*
X1289370Y45315D02*
Y84685D01*
X1269685Y65000D02*
X1309055D01*
X1844370Y805315D02*
Y844685D01*
X1824685Y825000D02*
X1864055D01*
X1559685Y585000D02*
X1599055D01*
X1579370Y565315D02*
Y604685D01*
X1190000Y1210315D02*
Y1249685D01*
X1170315Y1230000D02*
X1209685D01*
X580315Y565000D02*
X619685D01*
X600000Y545315D02*
Y584685D01*
X845000Y805315D02*
Y844685D01*
X825315Y825000D02*
X864685D01*
X2860000Y785315D02*
Y824685D01*
X2840315Y805000D02*
X2879685D01*
X2583903Y575539D02*
X2623273D01*
X2603588Y555854D02*
Y595224D01*
X2605000Y640315D02*
Y679685D01*
X2585315Y660000D02*
X2624685D01*
X2915000Y40315D02*
Y79685D01*
X2895315Y60000D02*
X2934685D01*
Y215000D02*
X2974055D01*
X2954370Y195315D02*
Y234685D01*
X2820000Y285315D02*
Y324685D01*
X2800315Y305000D02*
X2839685D01*
X2820000Y420315D02*
Y459685D01*
X2800315Y440000D02*
X2839685D01*
X2820000Y555315D02*
Y594685D01*
X2800315Y575000D02*
X2839685D01*
X2292401Y40315D02*
Y79685D01*
X2272716Y60000D02*
X2312087D01*
X2235315Y235000D02*
X2274685D01*
X2255000Y215315D02*
Y254685D01*
X2390000Y285315D02*
Y324685D01*
X2370315Y305000D02*
X2409685D01*
X2390000Y420315D02*
Y459685D01*
X2370315Y440000D02*
X2409685D01*
X2390000Y555315D02*
Y594685D01*
X2370315Y575000D02*
X2409685D01*
X200000Y1210315D02*
Y1249685D01*
X180315Y1230000D02*
X219685D01*
X1205000Y740315D02*
Y779685D01*
X1185315Y760000D02*
X1224685D01*
X2235000Y740315D02*
Y779685D01*
X2215315Y760000D02*
X2254685D01*
X305315Y1365000D02*
X344685D01*
X325000Y1345315D02*
Y1384685D01*
X1468648Y1365000D02*
X1508018D01*
X1488333Y1345315D02*
Y1384685D01*
X1565315Y1365000D02*
X1604685D01*
X1585000Y1345315D02*
Y1384685D01*
X1392206Y1343903D02*
Y1383273D01*
X1372521Y1363588D02*
X1411891D01*
X1275315Y1365000D02*
X1314685D01*
X1295000Y1345315D02*
Y1384685D01*
X294862Y40315D02*
Y79685D01*
X275177Y60000D02*
X314547D01*
X237775Y235000D02*
X277146D01*
X257461Y215315D02*
Y254685D01*
X912461Y40315D02*
Y79685D01*
X892776Y60000D02*
X932146D01*
X930177Y235000D02*
X969547D01*
X949862Y215315D02*
Y254685D01*
X810000Y285315D02*
Y324685D01*
X790315Y305000D02*
X829685D01*
X395000Y285315D02*
Y324685D01*
X375315Y305000D02*
X414685D01*
X395000Y429248D02*
Y468618D01*
X375315Y448933D02*
X414685D01*
X395000Y546382D02*
Y585752D01*
X375315Y566067D02*
X414685D01*
X810000Y429248D02*
Y468618D01*
X790315Y448933D02*
X829685D01*
X810000Y546382D02*
Y585752D01*
X790315Y566067D02*
X829685D01*
X225000Y740315D02*
Y779685D01*
X205315Y760000D02*
X244685D01*
X600000Y630315D02*
Y669685D01*
X580315Y650000D02*
X619685D01*
X422206Y1346727D02*
Y1386097D01*
X402521Y1366412D02*
X441891D01*
X498648Y1365000D02*
X538018D01*
X518333Y1345315D02*
Y1384685D01*
X595315Y1365000D02*
X634685D01*
X615000Y1345315D02*
Y1384685D01*
X2195000Y1210315D02*
Y1249685D01*
X2175315Y1230000D02*
X2214685D01*
X2290315Y1365000D02*
X2329685D01*
X2310000Y1345315D02*
Y1384685D01*
X2390135Y1365000D02*
X2429505D01*
X2409820Y1345315D02*
Y1384685D01*
X2489955Y1365000D02*
X2529325D01*
X2509640Y1345315D02*
Y1384685D01*
X2610000Y1343903D02*
Y1383273D01*
X2590315Y1363588D02*
X2629685D01*
D65*
X3419528Y961732D02*
Y1178268D01*
X3110472Y961732D02*
Y1178268D01*
Y961732D02*
X3419528D01*
X3110472Y1178268D02*
X3419528D01*
Y2021732D02*
Y2238268D01*
X3110472Y2021732D02*
Y2238268D01*
Y2021732D02*
X3419528D01*
X3110472Y2238268D02*
X3419528D01*
Y3136732D02*
Y3353268D01*
X3110472Y3136732D02*
Y3353268D01*
Y3136732D02*
X3419528D01*
X3110472Y3353268D02*
X3419528D01*
%TF.MD5,492428f238415141a47f4dcf90fcf472*%
M02*
