G04 Layer_Color=65535*
%FSLAX26Y26*%
%MOIN*%
%TF.FileFunction,Legend,Top*%
%TF.Part,Single*%
G01*
G75*
%TA.AperFunction,NonConductor*%
%ADD65C,0.010000*%
%ADD66C,0.007874*%
%ADD67C,0.007000*%
%ADD68C,0.007500*%
%ADD69C,0.006000*%
%ADD111C,0.005905*%
%ADD112C,0.009842*%
%ADD113C,0.015748*%
%ADD114C,0.023622*%
%ADD115C,0.005000*%
%ADD116C,0.008000*%
D65*
X3474055Y245000D02*
G03*
X3474055Y245000I-59055J0D01*
G01*
X3654055D02*
G03*
X3654055Y245000I-59055J0D01*
G01*
X1786000Y3680000D02*
Y3780000D01*
X1086000D02*
X1886000D01*
X1086000Y3680000D02*
Y3780000D01*
Y3680000D02*
X1886000D01*
Y3780000D01*
X1786000Y3580000D02*
Y3680000D01*
X1086000D02*
X1886000D01*
X1086000Y3580000D02*
Y3680000D01*
Y3580000D02*
X1886000D01*
Y3680000D01*
D66*
X2295000Y967067D02*
G03*
X2295000Y992067I0J12500D01*
G01*
X1270000Y967067D02*
G03*
X1270000Y992067I0J12500D01*
G01*
X280000Y967067D02*
G03*
X280000Y992067I0J12500D01*
G01*
X222409Y2361000D02*
X273591D01*
X163409Y2030000D02*
X214591D01*
X151630Y1935740D02*
X230370D01*
X151630Y1778260D02*
X230370D01*
X151630D02*
Y1809756D01*
X230370Y1778260D02*
Y1809756D01*
X151630Y1904244D02*
Y1935740D01*
X230370Y1904244D02*
Y1935740D01*
X40630D02*
X119370D01*
X40630Y1778260D02*
X119370D01*
X40630D02*
Y1809756D01*
X119370Y1778260D02*
Y1809756D01*
X40630Y1904244D02*
Y1935740D01*
X119370Y1904244D02*
Y1935740D01*
X55409Y2030000D02*
X106591D01*
X207906Y2115976D02*
Y2238024D01*
X196095Y2115976D02*
Y2238024D01*
Y2115976D02*
X207906D01*
X196095Y2238024D02*
X207906D01*
X119906Y2255976D02*
Y2378024D01*
X108095Y2255976D02*
Y2378024D01*
Y2255976D02*
X119906D01*
X108095Y2378024D02*
X119906D01*
X114000Y2417409D02*
Y2468591D01*
X60409Y3354000D02*
X111591D01*
X148630Y3298260D02*
X227370D01*
X148630Y3455740D02*
X227370D01*
Y3424244D02*
Y3455740D01*
X148630Y3424244D02*
Y3455740D01*
X227370Y3298260D02*
Y3329756D01*
X148630Y3298260D02*
Y3329756D01*
X652575Y1962496D02*
X849425D01*
X652575Y1899504D02*
X849425D01*
Y1962496D01*
X652575Y1899504D02*
Y1962496D01*
X625000Y1675409D02*
Y1726591D01*
X674000Y1562409D02*
Y1613591D01*
X368464Y1612252D02*
Y1643748D01*
X301535Y1612252D02*
Y1643748D01*
X48409Y2577000D02*
X99591D01*
X135630Y2655740D02*
X214370D01*
X135630Y2498260D02*
X214370D01*
X135630D02*
Y2529756D01*
X214370Y2498260D02*
Y2529756D01*
X135630Y2624244D02*
Y2655740D01*
X214370Y2624244D02*
Y2655740D01*
X475906Y1565976D02*
Y1688024D01*
X464095Y1565976D02*
Y1688024D01*
Y1565976D02*
X475906D01*
X464095Y1688024D02*
X475906D01*
X917409Y1967000D02*
X968591D01*
X976906Y2053976D02*
Y2176024D01*
X965095Y2053976D02*
Y2176024D01*
Y2053976D02*
X976906D01*
X965095Y2176024D02*
X976906D01*
X686000Y2119409D02*
Y2170591D01*
X3181732Y1046024D02*
X3398268D01*
X3181732Y1423976D02*
X3398268D01*
Y1046024D02*
Y1423976D01*
X3181732Y1046024D02*
Y1423976D01*
X3209409Y640000D02*
X3260591D01*
X3353740Y465630D02*
Y544370D01*
X3196260Y465630D02*
Y544370D01*
X3227756D01*
X3196260Y465630D02*
X3227756D01*
X3322244Y544370D02*
X3353740D01*
X3322244Y465630D02*
X3353740D01*
X3628976Y925906D02*
X3751024D01*
X3628976Y914095D02*
X3751024D01*
Y925906D01*
X3628976Y914095D02*
Y925906D01*
X164409Y3542000D02*
X215591D01*
X737409Y2536000D02*
X788591D01*
X3505000Y334409D02*
Y385591D01*
X2484050Y1365000D02*
X2535231D01*
X2384230D02*
X2435411D01*
X2284409Y1365000D02*
X2335591D01*
X2295000Y833307D02*
X2495000D01*
Y1125827D01*
X2295000D02*
X2495000D01*
X2295000Y992067D02*
Y1125827D01*
Y833307D02*
Y967067D01*
X1270000Y833307D02*
X1470000D01*
Y1125827D01*
X1270000D02*
X1470000D01*
X1270000Y992067D02*
Y1125827D01*
Y833307D02*
Y967067D01*
X589409Y1365000D02*
X640590D01*
X492743Y1365000D02*
X543924D01*
X600000Y624409D02*
Y675591D01*
X810000Y540476D02*
Y591658D01*
X810000Y423342D02*
Y474524D01*
X395000Y540476D02*
Y591658D01*
X395000Y423342D02*
Y474524D01*
X395000Y279409D02*
Y330591D01*
X810000Y279409D02*
Y330591D01*
X924272Y235000D02*
X975453D01*
X912461Y34409D02*
Y85591D01*
X231870Y235000D02*
X283051D01*
X294862Y34409D02*
Y85591D01*
X1269409Y1365000D02*
X1320591D01*
X1559409Y1365000D02*
X1610590D01*
X1462743Y1365000D02*
X1513924D01*
X299409D02*
X350591D01*
X280000Y833307D02*
X480000D01*
Y1125827D01*
X280000D02*
X480000D01*
X280000Y992067D02*
Y1125827D01*
Y833307D02*
Y967067D01*
X2390000Y549409D02*
Y600591D01*
X2390000Y414409D02*
Y465591D01*
X2390000Y279409D02*
Y330591D01*
X2229409Y235000D02*
X2280591D01*
X2292401Y34409D02*
Y85591D01*
X2820000Y549409D02*
Y600591D01*
X2820000Y414409D02*
Y465591D01*
X2820000Y279409D02*
Y330591D01*
X2928780Y215000D02*
X2979961D01*
X2915000Y34409D02*
Y85591D01*
X2605000Y634409D02*
Y685591D01*
X1289370Y39409D02*
Y90591D01*
X1223779Y240000D02*
X1274961D01*
X1384370Y284409D02*
Y335591D01*
X1384370Y419409D02*
Y470591D01*
X1385000Y554409D02*
Y605591D01*
X1884370Y39409D02*
Y90591D01*
X1896181Y240000D02*
X1947362D01*
X1784370Y554409D02*
Y605591D01*
X1784370Y419409D02*
Y470591D01*
X1784370Y284409D02*
Y335591D01*
X1579370Y649409D02*
Y700591D01*
X2447008Y2514606D02*
X2572992D01*
X2447008Y2715394D02*
X2572992D01*
Y2514606D02*
Y2715394D01*
X2447008Y2514606D02*
Y2715394D01*
X2744409Y2710000D02*
X2795591D01*
X2834409D02*
X2885591D01*
X3230945Y3113425D02*
X3349055D01*
X3230945Y2916575D02*
X3349055D01*
X3230945D02*
Y3113425D01*
X3349055Y2916575D02*
Y3113425D01*
X3230945Y2503425D02*
X3349055D01*
X3230945Y2306575D02*
X3349055D01*
X3230945D02*
Y2503425D01*
X3349055Y2306575D02*
Y2503425D01*
X3230945Y1893425D02*
X3349055D01*
X3230945Y1696575D02*
X3349055D01*
X3230945D02*
Y1893425D01*
X3349055Y1696575D02*
Y1893425D01*
D67*
X-47708Y1610387D02*
X-22967Y1585646D01*
X-10597Y1598017D01*
X-10596Y1606264D01*
X-14720Y1610387D01*
X-22967D01*
X-35337Y1598017D01*
X-22967Y1610387D01*
Y1618634D01*
X-27090Y1622757D01*
X-35337D01*
X-47708Y1610387D01*
X-22967Y1485646D02*
X-39461Y1502140D01*
Y1518634D01*
X-22967D01*
X-6473Y1502140D01*
X-18843Y1514511D01*
X-35337Y1498017D01*
X-45123Y1704724D02*
X-53370D01*
X-61617Y1696477D01*
Y1688230D01*
X-45123Y1671736D01*
X-36877D01*
X-28630Y1679983D01*
X-28630Y1688230D01*
X-36877Y1696477D01*
X-45123Y1688230D01*
X-16259Y1692354D02*
X-41000Y1717095D01*
X235Y1708848D01*
X-24506Y1733588D01*
X-16259Y1741835D02*
X8482Y1717095D01*
X20852Y1729465D01*
X20852Y1737712D01*
X4358Y1754206D01*
X-3889D01*
X-16259Y1741835D01*
X268000Y2455000D02*
X233011D01*
Y2472494D01*
X238843Y2478326D01*
X250506D01*
X256337Y2472494D01*
Y2455000D01*
Y2466663D02*
X268000Y2478326D01*
X262169Y2489989D02*
X268000Y2495820D01*
Y2507483D01*
X262169Y2513314D01*
X238843D01*
X233011Y2507483D01*
Y2495820D01*
X238843Y2489989D01*
X244674D01*
X250506Y2495820D01*
Y2513314D01*
X282000Y2010000D02*
X247011D01*
Y2027494D01*
X252843Y2033326D01*
X264506D01*
X270337Y2027494D01*
Y2010000D01*
Y2021663D02*
X282000Y2033326D01*
X247011Y2044989D02*
Y2068314D01*
X252843D01*
X276169Y2044989D01*
X282000D01*
X250011Y1816000D02*
Y1839326D01*
Y1827663D01*
X285000D01*
X250011Y1850989D02*
X285000Y1874314D01*
X250011D02*
X285000Y1850989D01*
Y1885977D02*
Y1897640D01*
Y1891809D01*
X250011D01*
X255843Y1885977D01*
X16000Y1816000D02*
X-18989D01*
Y1833494D01*
X-13157Y1839326D01*
X-1494D01*
X4337Y1833494D01*
Y1816000D01*
Y1827663D02*
X16000Y1839326D01*
X-18989Y1850989D02*
X16000Y1874314D01*
X-18989D02*
X16000Y1850989D01*
Y1885977D02*
Y1897640D01*
Y1891809D01*
X-18989D01*
X-13157Y1885977D01*
X19000Y2014000D02*
X-15989D01*
Y2031494D01*
X-10157Y2037326D01*
X1506D01*
X7337Y2031494D01*
Y2014000D01*
Y2025663D02*
X19000Y2037326D01*
Y2048989D02*
Y2060652D01*
Y2054820D01*
X-15989D01*
X-10157Y2048989D01*
Y2078146D02*
X-15989Y2083977D01*
Y2095640D01*
X-10157Y2101472D01*
X13169D01*
X19000Y2095640D01*
Y2083977D01*
X13169Y2078146D01*
X-10157D01*
X72011Y2173000D02*
X101169D01*
X107000Y2178831D01*
Y2190494D01*
X101169Y2196326D01*
X72011D01*
Y2231314D02*
Y2207989D01*
X89506D01*
X83674Y2219652D01*
Y2225483D01*
X89506Y2231314D01*
X101169D01*
X107000Y2225483D01*
Y2213820D01*
X101169Y2207989D01*
X-22989Y2290000D02*
X6169D01*
X12000Y2295831D01*
Y2307494D01*
X6169Y2313326D01*
X-22989D01*
Y2324989D02*
Y2348314D01*
X-17157D01*
X6169Y2324989D01*
X12000D01*
X10000Y2408000D02*
X-24989D01*
Y2425494D01*
X-19157Y2431326D01*
X-7494D01*
X-1663Y2425494D01*
Y2408000D01*
Y2419663D02*
X10000Y2431326D01*
Y2442989D02*
Y2454652D01*
Y2448820D01*
X-24989D01*
X-19157Y2442989D01*
X10000Y2495472D02*
Y2472146D01*
X-13326Y2495472D01*
X-19157D01*
X-24989Y2489640D01*
Y2477977D01*
X-19157Y2472146D01*
X-30000Y3380000D02*
Y3414989D01*
X-12506D01*
X-6674Y3409157D01*
Y3397494D01*
X-12506Y3391663D01*
X-30000D01*
X-18337D02*
X-6674Y3380000D01*
X28314Y3414989D02*
X4989D01*
Y3397494D01*
X16652Y3403326D01*
X22483D01*
X28314Y3397494D01*
Y3385831D01*
X22483Y3380000D01*
X10820D01*
X4989Y3385831D01*
X64000Y3487989D02*
Y3453000D01*
X87326D01*
X98989D02*
X110652D01*
X104820D01*
Y3487989D01*
X98989Y3482157D01*
X943326Y1771157D02*
X937494Y1776989D01*
X925831D01*
X920000Y1771157D01*
Y1747831D01*
X925831Y1742000D01*
X937494D01*
X943326Y1747831D01*
X954989Y1742000D02*
X966652D01*
X960820D01*
Y1776989D01*
X954989Y1771157D01*
X1001640Y1742000D02*
Y1776989D01*
X984146Y1759494D01*
X1007472D01*
X893000Y2010989D02*
Y1981831D01*
X898831Y1976000D01*
X910494D01*
X916326Y1981831D01*
Y2010989D01*
X945483Y1976000D02*
Y2010989D01*
X927989Y1993494D01*
X951314D01*
X719000Y1706000D02*
Y1740989D01*
X736494D01*
X742326Y1735157D01*
Y1723494D01*
X736494Y1717663D01*
X719000D01*
X730663D02*
X742326Y1706000D01*
X753989Y1740989D02*
Y1706000D01*
X771483D01*
X777314Y1711831D01*
Y1717663D01*
X771483Y1723494D01*
X753989D01*
X771483D01*
X777314Y1729326D01*
Y1735157D01*
X771483Y1740989D01*
X753989D01*
X788977Y1706000D02*
X800640D01*
X794809D01*
Y1740989D01*
X788977Y1735157D01*
X769000Y1566000D02*
Y1600989D01*
X786494D01*
X792326Y1595157D01*
Y1583494D01*
X786494Y1577663D01*
X769000D01*
X780663D02*
X792326Y1566000D01*
X803989D02*
Y1589326D01*
X815652Y1600989D01*
X827314Y1589326D01*
Y1566000D01*
Y1583494D01*
X803989D01*
X838977Y1566000D02*
X850640D01*
X844809D01*
Y1600989D01*
X838977Y1595157D01*
X278000Y1568000D02*
X243011D01*
Y1585494D01*
X248843Y1591326D01*
X260506D01*
X266337Y1585494D01*
Y1568000D01*
Y1579663D02*
X278000Y1591326D01*
Y1602989D02*
X254674D01*
X243011Y1614652D01*
X254674Y1626314D01*
X278000D01*
X260506D01*
Y1602989D01*
X243011Y1637977D02*
X278000D01*
Y1655472D01*
X272169Y1661303D01*
X266337D01*
X260506Y1655472D01*
Y1637977D01*
Y1655472D01*
X254674Y1661303D01*
X248843D01*
X243011Y1655472D01*
Y1637977D01*
X278000Y1672966D02*
Y1684629D01*
Y1678797D01*
X243011D01*
X248843Y1672966D01*
X-44000Y2612000D02*
Y2646989D01*
X-26506D01*
X-20674Y2641157D01*
Y2629494D01*
X-26506Y2623663D01*
X-44000D01*
X-32337D02*
X-20674Y2612000D01*
X14315Y2646989D02*
X2652Y2641157D01*
X-9011Y2629494D01*
Y2617831D01*
X-3180Y2612000D01*
X8483D01*
X14315Y2617831D01*
Y2623663D01*
X8483Y2629494D01*
X-9011D01*
X233011Y2562000D02*
X268000D01*
Y2585326D01*
X238843Y2596989D02*
X233011Y2602820D01*
Y2614483D01*
X238843Y2620314D01*
X244674D01*
X250506Y2614483D01*
Y2608652D01*
Y2614483D01*
X256337Y2620314D01*
X262169D01*
X268000Y2614483D01*
Y2602820D01*
X262169Y2596989D01*
X-18674Y3051157D02*
X-24506Y3056989D01*
X-36169D01*
X-42000Y3051157D01*
Y3027831D01*
X-36169Y3022000D01*
X-24506D01*
X-18674Y3027831D01*
X-7011Y3022000D02*
X4652D01*
X-1180D01*
Y3056989D01*
X-7011Y3051157D01*
X22146D02*
X27977Y3056989D01*
X39640D01*
X45472Y3051157D01*
Y3045326D01*
X39640Y3039494D01*
X33809D01*
X39640D01*
X45472Y3033663D01*
Y3027831D01*
X39640Y3022000D01*
X27977D01*
X22146Y3027831D01*
X-42000Y2739989D02*
Y2710831D01*
X-36169Y2705000D01*
X-24506D01*
X-18674Y2710831D01*
Y2739989D01*
X-7011Y2734157D02*
X-1180Y2739989D01*
X10483D01*
X16314Y2734157D01*
Y2728326D01*
X10483Y2722494D01*
X4652D01*
X10483D01*
X16314Y2716663D01*
Y2710831D01*
X10483Y2705000D01*
X-1180D01*
X-7011Y2710831D01*
X-14674Y3137157D02*
X-20506Y3142989D01*
X-32169D01*
X-38000Y3137157D01*
Y3113831D01*
X-32169Y3108000D01*
X-20506D01*
X-14674Y3113831D01*
X-3011Y3108000D02*
X8652D01*
X2820D01*
Y3142989D01*
X-3011Y3137157D01*
X49472Y3108000D02*
X26146D01*
X49472Y3131326D01*
Y3137157D01*
X43640Y3142989D01*
X31977D01*
X26146Y3137157D01*
X-5674Y3226157D02*
X-11506Y3231989D01*
X-23169D01*
X-29000Y3226157D01*
Y3202831D01*
X-23169Y3197000D01*
X-11506D01*
X-5674Y3202831D01*
X5989Y3197000D02*
X17652D01*
X11820D01*
Y3231989D01*
X5989Y3226157D01*
X35146Y3197000D02*
X46809D01*
X40977D01*
Y3231989D01*
X35146Y3226157D01*
X780279Y3290661D02*
X774447Y3296492D01*
X762784D01*
X756953Y3290661D01*
Y3267335D01*
X762784Y3261504D01*
X774447D01*
X780279Y3267335D01*
X791941Y3261504D02*
X803604D01*
X797773D01*
Y3296492D01*
X791941Y3290661D01*
X874279D02*
X868447Y3296492D01*
X856784D01*
X850953Y3290661D01*
Y3267335D01*
X856784Y3261504D01*
X868447D01*
X874279Y3267335D01*
X909267Y3261504D02*
X885941D01*
X909267Y3284830D01*
Y3290661D01*
X903436Y3296492D01*
X891773D01*
X885941Y3290661D01*
X966279D02*
X960447Y3296492D01*
X948784D01*
X942953Y3290661D01*
Y3267335D01*
X948784Y3261504D01*
X960447D01*
X966279Y3267335D01*
X977941Y3290661D02*
X983773Y3296492D01*
X995436D01*
X1001267Y3290661D01*
Y3284830D01*
X995436Y3278998D01*
X989604D01*
X995436D01*
X1001267Y3273167D01*
Y3267335D01*
X995436Y3261504D01*
X983773D01*
X977941Y3267335D01*
X643953Y3924492D02*
Y3889504D01*
X661447D01*
X667279Y3895335D01*
Y3918661D01*
X661447Y3924492D01*
X643953D01*
X702267Y3918661D02*
X696436Y3924492D01*
X684773D01*
X678941Y3918661D01*
Y3895335D01*
X684773Y3889504D01*
X696436D01*
X702267Y3895335D01*
X748919Y3889504D02*
Y3924492D01*
X766413D01*
X772245Y3918661D01*
Y3906998D01*
X766413Y3901167D01*
X748919D01*
X783908Y3889504D02*
X795570D01*
X789739D01*
Y3924492D01*
X783908D01*
X813065Y3912830D02*
Y3895335D01*
X818896Y3889504D01*
X836390D01*
Y3912830D01*
X848053D02*
Y3895335D01*
X853885Y3889504D01*
X871379D01*
Y3883672D01*
X865548Y3877841D01*
X859716D01*
X871379Y3889504D02*
Y3912830D01*
X894705Y3877841D02*
X900536D01*
X906368Y3883672D01*
Y3912830D01*
X888874D01*
X883042Y3906998D01*
Y3895335D01*
X888874Y3889504D01*
X906368D01*
X918031D02*
X929694D01*
X923862D01*
Y3924492D01*
X918031Y3918661D01*
X402000Y1766989D02*
X425326D01*
X413663D01*
Y1732000D01*
X436989Y1766989D02*
Y1743663D01*
X448652Y1732000D01*
X460315Y1743663D01*
Y1766989D01*
X495303Y1761157D02*
X489472Y1766989D01*
X477809D01*
X471977Y1761157D01*
Y1755326D01*
X477809Y1749494D01*
X489472D01*
X495303Y1743663D01*
Y1737831D01*
X489472Y1732000D01*
X477809D01*
X471977Y1737831D01*
X506966Y1732000D02*
X518629D01*
X512798D01*
Y1766989D01*
X506966Y1761157D01*
X907953Y2073504D02*
Y2108492D01*
X925447D01*
X931279Y2102661D01*
Y2090998D01*
X925447Y2085167D01*
X907953D01*
X919616D02*
X931279Y2073504D01*
X942941Y2102661D02*
X948773Y2108492D01*
X960436D01*
X966267Y2102661D01*
Y2096830D01*
X960436Y2090998D01*
X966267Y2085167D01*
Y2079335D01*
X960436Y2073504D01*
X948773D01*
X942941Y2079335D01*
Y2085167D01*
X948773Y2090998D01*
X942941Y2096830D01*
Y2102661D01*
X948773Y2090998D02*
X960436D01*
X902953Y2254492D02*
Y2225335D01*
X908784Y2219504D01*
X920447D01*
X926279Y2225335D01*
Y2254492D01*
X961267D02*
X949604Y2248661D01*
X937941Y2236998D01*
Y2225335D01*
X943773Y2219504D01*
X955436D01*
X961267Y2225335D01*
Y2231167D01*
X955436Y2236998D01*
X937941D01*
X613000Y2214000D02*
Y2248989D01*
X630494D01*
X636326Y2243157D01*
Y2231494D01*
X630494Y2225663D01*
X613000D01*
X624663D02*
X636326Y2214000D01*
X647989D02*
X659652D01*
X653820D01*
Y2248989D01*
X647989Y2243157D01*
X677146Y2214000D02*
X688809D01*
X682977D01*
Y2248989D01*
X677146Y2243157D01*
X3520000Y929989D02*
Y900831D01*
X3525831Y895000D01*
X3537494D01*
X3543326Y900831D01*
Y929989D01*
X3578314Y895000D02*
X3554989D01*
X3578314Y918326D01*
Y924157D01*
X3572483Y929989D01*
X3560820D01*
X3554989Y924157D01*
X3189000Y1483989D02*
Y1454831D01*
X3194831Y1449000D01*
X3206494D01*
X3212326Y1454831D01*
Y1483989D01*
X3223989Y1449000D02*
X3235652D01*
X3229820D01*
Y1483989D01*
X3223989Y1478157D01*
X3431953Y429504D02*
Y464493D01*
X3449447D01*
X3455278Y458661D01*
Y446998D01*
X3449447Y441167D01*
X3431953D01*
X3443616D02*
X3455278Y429504D01*
X3490267D02*
X3466941D01*
X3490267Y452830D01*
Y458661D01*
X3484436Y464493D01*
X3472773D01*
X3466941Y458661D01*
X727953Y2642504D02*
Y2677492D01*
X745447D01*
X751279Y2671661D01*
Y2659998D01*
X745447Y2654167D01*
X727953D01*
X739616D02*
X751279Y2642504D01*
X762941D02*
X774604D01*
X768773D01*
Y2677492D01*
X762941Y2671661D01*
X3125000Y625000D02*
Y659989D01*
X3142494D01*
X3148326Y654157D01*
Y642494D01*
X3142494Y636663D01*
X3125000D01*
X3136663D02*
X3148326Y625000D01*
X3177483D02*
Y659989D01*
X3159989Y642494D01*
X3183314D01*
X154953Y3648504D02*
Y3683492D01*
X172447D01*
X178279Y3677661D01*
Y3665998D01*
X172447Y3660167D01*
X154953D01*
X166616D02*
X178279Y3648504D01*
X189941Y3677661D02*
X195773Y3683492D01*
X207436D01*
X213267Y3677661D01*
Y3671830D01*
X207436Y3665998D01*
X201604D01*
X207436D01*
X213267Y3660167D01*
Y3654335D01*
X207436Y3648504D01*
X195773D01*
X189941Y3654335D01*
X3125000Y519989D02*
Y485000D01*
X3148326D01*
X3183314D02*
X3159989D01*
X3183314Y508326D01*
Y514157D01*
X3177483Y519989D01*
X3165820D01*
X3159989Y514157D01*
X3353326Y149157D02*
X3347494Y154989D01*
X3335831D01*
X3330000Y149157D01*
Y125831D01*
X3335831Y120000D01*
X3347494D01*
X3353326Y125831D01*
X3364989Y120000D02*
Y143326D01*
X3376652Y154989D01*
X3388314Y143326D01*
Y120000D01*
Y137494D01*
X3364989D01*
X3399977Y120000D02*
Y154989D01*
X3423303Y120000D01*
Y154989D01*
X3434966Y114169D02*
X3458292D01*
X3469955Y154989D02*
Y120000D01*
X3493281D01*
X3504943D02*
X3516606D01*
X3510775D01*
Y154989D01*
X3504943Y149157D01*
X3493326Y154157D02*
X3487494Y159989D01*
X3475831D01*
X3470000Y154157D01*
Y130831D01*
X3475831Y125000D01*
X3487494D01*
X3493326Y130831D01*
X3504989Y125000D02*
Y148326D01*
X3516652Y159989D01*
X3528314Y148326D01*
Y125000D01*
Y142494D01*
X3504989D01*
X3539977Y125000D02*
Y159989D01*
X3563303Y125000D01*
Y159989D01*
X3574966Y119169D02*
X3598292D01*
X3609955Y159989D02*
Y125000D01*
Y142494D01*
X3633281D01*
Y159989D01*
Y125000D01*
X3644943D02*
X3656606D01*
X3650775D01*
Y159989D01*
X3644943Y154157D01*
X3148326Y814157D02*
X3142494Y819989D01*
X3130831D01*
X3125000Y814157D01*
Y790831D01*
X3130831Y785000D01*
X3142494D01*
X3148326Y790831D01*
X3159989Y785000D02*
X3171652D01*
X3165820D01*
Y819989D01*
X3159989Y814157D01*
X3189146D02*
X3194977Y819989D01*
X3206640D01*
X3212472Y814157D01*
Y790831D01*
X3206640Y785000D01*
X3194977D01*
X3189146Y790831D01*
Y814157D01*
X3818326Y1449157D02*
X3812494Y1454989D01*
X3800831D01*
X3795000Y1449157D01*
Y1425831D01*
X3800831Y1420000D01*
X3812494D01*
X3818326Y1425831D01*
X3829989D02*
X3835820Y1420000D01*
X3847483D01*
X3853314Y1425831D01*
Y1449157D01*
X3847483Y1454989D01*
X3835820D01*
X3829989Y1449157D01*
Y1443326D01*
X3835820Y1437494D01*
X3853314D01*
X3818326Y1359157D02*
X3812494Y1364989D01*
X3800831D01*
X3795000Y1359157D01*
Y1335831D01*
X3800831Y1330000D01*
X3812494D01*
X3818326Y1335831D01*
X3829989Y1359157D02*
X3835820Y1364989D01*
X3847483D01*
X3853314Y1359157D01*
Y1353326D01*
X3847483Y1347494D01*
X3853314Y1341663D01*
Y1335831D01*
X3847483Y1330000D01*
X3835820D01*
X3829989Y1335831D01*
Y1341663D01*
X3835820Y1347494D01*
X3829989Y1353326D01*
Y1359157D01*
X3835820Y1347494D02*
X3847483D01*
X2924326Y1506157D02*
X2918494Y1511989D01*
X2906831D01*
X2901000Y1506157D01*
Y1482831D01*
X2906831Y1477000D01*
X2918494D01*
X2924326Y1482831D01*
X2935989Y1511989D02*
X2959314D01*
Y1506157D01*
X2935989Y1482831D01*
Y1477000D01*
X2920326Y1676157D02*
X2914494Y1681989D01*
X2902831D01*
X2897000Y1676157D01*
Y1652831D01*
X2902831Y1647000D01*
X2914494D01*
X2920326Y1652831D01*
X2955314Y1681989D02*
X2943652Y1676157D01*
X2931989Y1664494D01*
Y1652831D01*
X2937820Y1647000D01*
X2949483D01*
X2955314Y1652831D01*
Y1658663D01*
X2949483Y1664494D01*
X2931989D01*
X2921326Y1589157D02*
X2915494Y1594989D01*
X2903831D01*
X2898000Y1589157D01*
Y1565831D01*
X2903831Y1560000D01*
X2915494D01*
X2921326Y1565831D01*
X2956314Y1594989D02*
X2932989D01*
Y1577494D01*
X2944652Y1583326D01*
X2950483D01*
X2956314Y1577494D01*
Y1565831D01*
X2950483Y1560000D01*
X2938820D01*
X2932989Y1565831D01*
X667843Y2287326D02*
X662011Y2281494D01*
Y2269831D01*
X667843Y2264000D01*
X691169D01*
X697000Y2269831D01*
Y2281494D01*
X691169Y2287326D01*
X697000Y2316483D02*
X662011D01*
X679506Y2298989D01*
Y2322314D01*
X2372953Y2795492D02*
Y2766335D01*
X2378784Y2760504D01*
X2390447D01*
X2396278Y2766335D01*
Y2795492D01*
X2407941Y2760504D02*
X2419604D01*
X2413773D01*
Y2795492D01*
X2407941Y2789661D01*
X2460424Y2760504D02*
X2437099D01*
X2460424Y2783830D01*
Y2789661D01*
X2454593Y2795492D01*
X2442930D01*
X2437099Y2789661D01*
X2734953Y2816504D02*
Y2851492D01*
X2752447D01*
X2758278Y2845661D01*
Y2833998D01*
X2752447Y2828167D01*
X2734953D01*
X2746616D02*
X2758278Y2816504D01*
X2793267D02*
X2769941D01*
X2793267Y2839830D01*
Y2845661D01*
X2787436Y2851492D01*
X2775773D01*
X2769941Y2845661D01*
X2804930D02*
X2810762Y2851492D01*
X2822424D01*
X2828256Y2845661D01*
Y2822335D01*
X2822424Y2816504D01*
X2810762D01*
X2804930Y2822335D01*
Y2845661D01*
X2824953Y2816504D02*
Y2851492D01*
X2842447D01*
X2848278Y2845661D01*
Y2833998D01*
X2842447Y2828167D01*
X2824953D01*
X2836616D02*
X2848278Y2816504D01*
X2859941D02*
X2871604D01*
X2865773D01*
Y2851492D01*
X2859941Y2845661D01*
X2912424Y2851492D02*
X2900762Y2845661D01*
X2889099Y2833998D01*
Y2822335D01*
X2894930Y2816504D01*
X2906593D01*
X2912424Y2822335D01*
Y2828167D01*
X2906593Y2833998D01*
X2889099D01*
X180000Y1114989D02*
Y1085831D01*
X185831Y1080000D01*
X197494D01*
X203326Y1085831D01*
Y1114989D01*
X238315Y1080000D02*
X214989D01*
X238315Y1103326D01*
Y1109157D01*
X232483Y1114989D01*
X220820D01*
X214989Y1109157D01*
X249977D02*
X255809Y1114989D01*
X267472D01*
X273303Y1109157D01*
Y1085831D01*
X267472Y1080000D01*
X255809D01*
X249977Y1085831D01*
Y1109157D01*
X187279Y1364661D02*
X181447Y1370493D01*
X169784D01*
X163953Y1364661D01*
Y1341335D01*
X169784Y1335504D01*
X181447D01*
X187279Y1341335D01*
X222267Y1335504D02*
X198941D01*
X222267Y1358830D01*
Y1364661D01*
X216436Y1370493D01*
X204773D01*
X198941Y1364661D01*
X257256Y1370493D02*
X245593Y1364661D01*
X233930Y1352998D01*
Y1341335D01*
X239762Y1335504D01*
X251424D01*
X257256Y1341335D01*
Y1347167D01*
X251424Y1352998D01*
X233930D01*
X2200000Y1114989D02*
Y1085831D01*
X2205831Y1080000D01*
X2217494D01*
X2223326Y1085831D01*
Y1114989D01*
X2234989Y1080000D02*
X2246652D01*
X2240820D01*
Y1114989D01*
X2234989Y1109157D01*
X2264146Y1085831D02*
X2269977Y1080000D01*
X2281640D01*
X2287472Y1085831D01*
Y1109157D01*
X2281640Y1114989D01*
X2269977D01*
X2264146Y1109157D01*
Y1103326D01*
X2269977Y1097494D01*
X2287472D01*
X2355000Y635000D02*
Y669989D01*
X2372494D01*
X2378326Y664157D01*
Y652494D01*
X2372494Y646663D01*
X2355000D01*
X2366663D02*
X2378326Y635000D01*
X2407483D02*
Y669989D01*
X2389989Y652494D01*
X2413314D01*
X2448303Y669989D02*
X2436640Y664157D01*
X2424977Y652494D01*
Y640831D01*
X2430809Y635000D01*
X2442472D01*
X2448303Y640831D01*
Y646663D01*
X2442472Y652494D01*
X2424977D01*
X2350000Y490000D02*
Y524989D01*
X2367494D01*
X2373326Y519157D01*
Y507494D01*
X2367494Y501663D01*
X2350000D01*
X2361663D02*
X2373326Y490000D01*
X2402483D02*
Y524989D01*
X2384989Y507494D01*
X2408314D01*
X2443303Y524989D02*
X2419977D01*
Y507494D01*
X2431640Y513326D01*
X2437472D01*
X2443303Y507494D01*
Y495831D01*
X2437472Y490000D01*
X2425809D01*
X2419977Y495831D01*
X2345000Y360000D02*
Y394989D01*
X2362494D01*
X2368326Y389157D01*
Y377494D01*
X2362494Y371663D01*
X2345000D01*
X2356663D02*
X2368326Y360000D01*
X2397483D02*
Y394989D01*
X2379989Y377494D01*
X2403314D01*
X2432472Y360000D02*
Y394989D01*
X2414977Y377494D01*
X2438303D01*
X2210000Y340000D02*
Y374989D01*
X2227494D01*
X2233326Y369157D01*
Y357494D01*
X2227494Y351663D01*
X2210000D01*
X2221663D02*
X2233326Y340000D01*
X2262483D02*
Y374989D01*
X2244989Y357494D01*
X2268314D01*
X2279977Y369157D02*
X2285809Y374989D01*
X2297472D01*
X2303303Y369157D01*
Y363326D01*
X2297472Y357494D01*
X2291640D01*
X2297472D01*
X2303303Y351663D01*
Y345831D01*
X2297472Y340000D01*
X2285809D01*
X2279977Y345831D01*
X2300000Y120000D02*
Y154989D01*
X2317494D01*
X2323326Y149157D01*
Y137494D01*
X2317494Y131663D01*
X2300000D01*
X2311663D02*
X2323326Y120000D01*
X2352483D02*
Y154989D01*
X2334989Y137494D01*
X2358314D01*
X2393303Y120000D02*
X2369977D01*
X2393303Y143326D01*
Y149157D01*
X2387472Y154989D01*
X2375809D01*
X2369977Y149157D01*
X2755000Y635000D02*
Y669989D01*
X2772494D01*
X2778326Y664157D01*
Y652494D01*
X2772494Y646663D01*
X2755000D01*
X2766663D02*
X2778326Y635000D01*
X2789989Y664157D02*
X2795820Y669989D01*
X2807483D01*
X2813314Y664157D01*
Y658326D01*
X2807483Y652494D01*
X2801652D01*
X2807483D01*
X2813314Y646663D01*
Y640831D01*
X2807483Y635000D01*
X2795820D01*
X2789989Y640831D01*
X2824977Y635000D02*
X2836640D01*
X2830809D01*
Y669989D01*
X2824977Y664157D01*
X2785000Y495000D02*
Y529989D01*
X2802494D01*
X2808326Y524157D01*
Y512494D01*
X2802494Y506663D01*
X2785000D01*
X2796663D02*
X2808326Y495000D01*
X2819989Y524157D02*
X2825820Y529989D01*
X2837483D01*
X2843314Y524157D01*
Y518326D01*
X2837483Y512494D01*
X2831652D01*
X2837483D01*
X2843314Y506663D01*
Y500831D01*
X2837483Y495000D01*
X2825820D01*
X2819989Y500831D01*
X2854977Y524157D02*
X2860809Y529989D01*
X2872472D01*
X2878303Y524157D01*
Y500831D01*
X2872472Y495000D01*
X2860809D01*
X2854977Y500831D01*
Y524157D01*
X2780000Y360000D02*
Y394989D01*
X2797494D01*
X2803326Y389157D01*
Y377494D01*
X2797494Y371663D01*
X2780000D01*
X2791663D02*
X2803326Y360000D01*
X2838314D02*
X2814989D01*
X2838314Y383326D01*
Y389157D01*
X2832483Y394989D01*
X2820820D01*
X2814989Y389157D01*
X2849977Y365831D02*
X2855809Y360000D01*
X2867472D01*
X2873303Y365831D01*
Y389157D01*
X2867472Y394989D01*
X2855809D01*
X2849977Y389157D01*
Y383326D01*
X2855809Y377494D01*
X2873303D01*
X2920000Y330000D02*
Y364989D01*
X2937494D01*
X2943326Y359157D01*
Y347494D01*
X2937494Y341663D01*
X2920000D01*
X2931663D02*
X2943326Y330000D01*
X2978314D02*
X2954989D01*
X2978314Y353326D01*
Y359157D01*
X2972483Y364989D01*
X2960820D01*
X2954989Y359157D01*
X2989977D02*
X2995809Y364989D01*
X3007472D01*
X3013303Y359157D01*
Y353326D01*
X3007472Y347494D01*
X3013303Y341663D01*
Y335831D01*
X3007472Y330000D01*
X2995809D01*
X2989977Y335831D01*
Y341663D01*
X2995809Y347494D01*
X2989977Y353326D01*
Y359157D01*
X2995809Y347494D02*
X3007472D01*
X2800000Y135000D02*
Y169989D01*
X2817494D01*
X2823326Y164157D01*
Y152494D01*
X2817494Y146663D01*
X2800000D01*
X2811663D02*
X2823326Y135000D01*
X2858314D02*
X2834989D01*
X2858314Y158326D01*
Y164157D01*
X2852483Y169989D01*
X2840820D01*
X2834989Y164157D01*
X2869977Y169989D02*
X2893303D01*
Y164157D01*
X2869977Y140831D01*
Y135000D01*
X2550000Y715000D02*
Y749989D01*
X2567494D01*
X2573326Y744157D01*
Y732494D01*
X2567494Y726663D01*
X2550000D01*
X2561663D02*
X2573326Y715000D01*
X2608314D02*
X2584989D01*
X2608314Y738326D01*
Y744157D01*
X2602483Y749989D01*
X2590820D01*
X2584989Y744157D01*
X2637472Y715000D02*
Y749989D01*
X2619977Y732494D01*
X2643303D01*
X2460000Y1465000D02*
Y1499989D01*
X2477494D01*
X2483326Y1494157D01*
Y1482494D01*
X2477494Y1476663D01*
X2460000D01*
X2471663D02*
X2483326Y1465000D01*
X2518314D02*
X2494989D01*
X2518314Y1488326D01*
Y1494157D01*
X2512483Y1499989D01*
X2500820D01*
X2494989Y1494157D01*
X2529977Y1465000D02*
X2541640D01*
X2535809D01*
Y1499989D01*
X2529977Y1494157D01*
X2168326Y1359157D02*
X2162494Y1364989D01*
X2150831D01*
X2145000Y1359157D01*
Y1335831D01*
X2150831Y1330000D01*
X2162494D01*
X2168326Y1335831D01*
X2203314Y1330000D02*
X2179989D01*
X2203314Y1353326D01*
Y1359157D01*
X2197483Y1364989D01*
X2185820D01*
X2179989Y1359157D01*
X2214977Y1330000D02*
X2226640D01*
X2220809D01*
Y1364989D01*
X2214977Y1359157D01*
X2598326Y1494157D02*
X2592494Y1499989D01*
X2580831D01*
X2575000Y1494157D01*
Y1470831D01*
X2580831Y1465000D01*
X2592494D01*
X2598326Y1470831D01*
X2633314Y1465000D02*
X2609989D01*
X2633314Y1488326D01*
Y1494157D01*
X2627483Y1499989D01*
X2615820D01*
X2609989Y1494157D01*
X2644977D02*
X2650809Y1499989D01*
X2662472D01*
X2668303Y1494157D01*
Y1488326D01*
X2662472Y1482494D01*
X2656640D01*
X2662472D01*
X2668303Y1476663D01*
Y1470831D01*
X2662472Y1465000D01*
X2650809D01*
X2644977Y1470831D01*
X2583326Y519157D02*
X2577494Y524989D01*
X2565831D01*
X2560000Y519157D01*
Y495831D01*
X2565831Y490000D01*
X2577494D01*
X2583326Y495831D01*
X2618314Y490000D02*
X2594989D01*
X2618314Y513326D01*
Y519157D01*
X2612483Y524989D01*
X2600820D01*
X2594989Y519157D01*
X2653303Y490000D02*
X2629977D01*
X2653303Y513326D01*
Y519157D01*
X2647472Y524989D01*
X2635809D01*
X2629977Y519157D01*
X2222278Y894661D02*
X2216447Y900492D01*
X2204784D01*
X2198953Y894661D01*
Y871335D01*
X2204784Y865504D01*
X2216447D01*
X2222278Y871335D01*
X2233941Y865504D02*
X2245604D01*
X2239773D01*
Y900492D01*
X2233941Y894661D01*
X2286424Y900492D02*
X2274762Y894661D01*
X2263099Y882998D01*
Y871335D01*
X2268930Y865504D01*
X2280593D01*
X2286424Y871335D01*
Y877167D01*
X2280593Y882998D01*
X2263099D01*
X2858326Y929157D02*
X2852494Y934989D01*
X2840831D01*
X2835000Y929157D01*
Y905831D01*
X2840831Y900000D01*
X2852494D01*
X2858326Y905831D01*
X2869989Y900000D02*
X2881652D01*
X2875820D01*
Y934989D01*
X2869989Y929157D01*
X2922472Y934989D02*
X2899146D01*
Y917494D01*
X2910809Y923326D01*
X2916640D01*
X2922472Y917494D01*
Y905831D01*
X2916640Y900000D01*
X2904977D01*
X2899146Y905831D01*
X832279Y959661D02*
X826447Y965492D01*
X814784D01*
X808953Y959661D01*
Y936335D01*
X814784Y930504D01*
X826447D01*
X832279Y936335D01*
X843941Y930504D02*
X855604D01*
X849773D01*
Y965492D01*
X843941Y959661D01*
X873099Y965492D02*
X896424D01*
Y959661D01*
X873099Y936335D01*
Y930504D01*
X198326Y894157D02*
X192494Y899989D01*
X180831D01*
X175000Y894157D01*
Y870831D01*
X180831Y865000D01*
X192494D01*
X198326Y870831D01*
X209989Y865000D02*
X221652D01*
X215820D01*
Y899989D01*
X209989Y894157D01*
X239146D02*
X244977Y899989D01*
X256640D01*
X262472Y894157D01*
Y888326D01*
X256640Y882494D01*
X262472Y876663D01*
Y870831D01*
X256640Y865000D01*
X244977D01*
X239146Y870831D01*
Y876663D01*
X244977Y882494D01*
X239146Y888326D01*
Y894157D01*
X244977Y882494D02*
X256640D01*
X583326Y504157D02*
X577494Y509989D01*
X565831D01*
X560000Y504157D01*
Y480831D01*
X565831Y475000D01*
X577494D01*
X583326Y480831D01*
X618314Y475000D02*
X594989D01*
X618314Y498326D01*
Y504157D01*
X612483Y509989D01*
X600820D01*
X594989Y504157D01*
X647472Y475000D02*
Y509989D01*
X629977Y492494D01*
X653303D01*
X408326Y1489157D02*
X402494Y1494989D01*
X390831D01*
X385000Y1489157D01*
Y1465831D01*
X390831Y1460000D01*
X402494D01*
X408326Y1465831D01*
X443315Y1460000D02*
X419989D01*
X443315Y1483326D01*
Y1489157D01*
X437483Y1494989D01*
X425820D01*
X419989Y1489157D01*
X478303Y1494989D02*
X454977D01*
Y1477494D01*
X466640Y1483326D01*
X472472D01*
X478303Y1477494D01*
Y1465831D01*
X472472Y1460000D01*
X460809D01*
X454977Y1465831D01*
X270000Y1460000D02*
Y1494989D01*
X287494D01*
X293326Y1489157D01*
Y1477494D01*
X287494Y1471663D01*
X270000D01*
X281663D02*
X293326Y1460000D01*
X328315D02*
X304989D01*
X328315Y1483326D01*
Y1489157D01*
X322483Y1494989D01*
X310820D01*
X304989Y1489157D01*
X363303Y1460000D02*
X339977D01*
X363303Y1483326D01*
Y1489157D01*
X357472Y1494989D01*
X345809D01*
X339977Y1489157D01*
X550000Y715000D02*
Y749989D01*
X567494D01*
X573326Y744157D01*
Y732494D01*
X567494Y726663D01*
X550000D01*
X561663D02*
X573326Y715000D01*
X608314D02*
X584989D01*
X608314Y738326D01*
Y744157D01*
X602483Y749989D01*
X590820D01*
X584989Y744157D01*
X643303Y749989D02*
X619977D01*
Y732494D01*
X631640Y738326D01*
X637472D01*
X643303Y732494D01*
Y720831D01*
X637472Y715000D01*
X625809D01*
X619977Y720831D01*
X840000Y115000D02*
Y149989D01*
X857494D01*
X863326Y144157D01*
Y132494D01*
X857494Y126663D01*
X840000D01*
X851663D02*
X863326Y115000D01*
X874989Y144157D02*
X880820Y149989D01*
X892483D01*
X898314Y144157D01*
Y138326D01*
X892483Y132494D01*
X886652D01*
X892483D01*
X898314Y126663D01*
Y120831D01*
X892483Y115000D01*
X880820D01*
X874989Y120831D01*
X933303Y115000D02*
X909977D01*
X933303Y138326D01*
Y144157D01*
X927472Y149989D01*
X915809D01*
X909977Y144157D01*
X915000Y335000D02*
Y369989D01*
X932494D01*
X938326Y364157D01*
Y352494D01*
X932494Y346663D01*
X915000D01*
X926663D02*
X938326Y335000D01*
X949989Y364157D02*
X955820Y369989D01*
X967483D01*
X973314Y364157D01*
Y358326D01*
X967483Y352494D01*
X961652D01*
X967483D01*
X973314Y346663D01*
Y340831D01*
X967483Y335000D01*
X955820D01*
X949989Y340831D01*
X984977Y364157D02*
X990809Y369989D01*
X1002472D01*
X1008303Y364157D01*
Y358326D01*
X1002472Y352494D01*
X996640D01*
X1002472D01*
X1008303Y346663D01*
Y340831D01*
X1002472Y335000D01*
X990809D01*
X984977Y340831D01*
X760000Y360000D02*
Y394989D01*
X777494D01*
X783326Y389157D01*
Y377494D01*
X777494Y371663D01*
X760000D01*
X771663D02*
X783326Y360000D01*
X794989Y389157D02*
X800820Y394989D01*
X812483D01*
X818314Y389157D01*
Y383326D01*
X812483Y377494D01*
X806652D01*
X812483D01*
X818314Y371663D01*
Y365831D01*
X812483Y360000D01*
X800820D01*
X794989Y365831D01*
X847472Y360000D02*
Y394989D01*
X829977Y377494D01*
X853303D01*
X915000Y440000D02*
Y474989D01*
X932494D01*
X938326Y469157D01*
Y457494D01*
X932494Y451663D01*
X915000D01*
X926663D02*
X938326Y440000D01*
X949989Y469157D02*
X955820Y474989D01*
X967483D01*
X973314Y469157D01*
Y463326D01*
X967483Y457494D01*
X961652D01*
X967483D01*
X973314Y451663D01*
Y445831D01*
X967483Y440000D01*
X955820D01*
X949989Y445831D01*
X1008303Y474989D02*
X984977D01*
Y457494D01*
X996640Y463326D01*
X1002472D01*
X1008303Y457494D01*
Y445831D01*
X1002472Y440000D01*
X990809D01*
X984977Y445831D01*
X910000Y545000D02*
Y579989D01*
X927494D01*
X933326Y574157D01*
Y562494D01*
X927494Y556663D01*
X910000D01*
X921663D02*
X933326Y545000D01*
X944989Y574157D02*
X950820Y579989D01*
X962483D01*
X968314Y574157D01*
Y568326D01*
X962483Y562494D01*
X956652D01*
X962483D01*
X968314Y556663D01*
Y550831D01*
X962483Y545000D01*
X950820D01*
X944989Y550831D01*
X1003303Y579989D02*
X991640Y574157D01*
X979977Y562494D01*
Y550831D01*
X985809Y545000D01*
X997472D01*
X1003303Y550831D01*
Y556663D01*
X997472Y562494D01*
X979977D01*
X225000Y110000D02*
Y144989D01*
X242494D01*
X248326Y139157D01*
Y127494D01*
X242494Y121663D01*
X225000D01*
X236663D02*
X248326Y110000D01*
X277483D02*
Y144989D01*
X259989Y127494D01*
X283315D01*
X294977Y144989D02*
X318303D01*
Y139157D01*
X294977Y115831D01*
Y110000D01*
X200000Y340000D02*
Y374989D01*
X217494D01*
X223326Y369157D01*
Y357494D01*
X217494Y351663D01*
X200000D01*
X211663D02*
X223326Y340000D01*
X252483D02*
Y374989D01*
X234989Y357494D01*
X258315D01*
X269977Y369157D02*
X275809Y374989D01*
X287472D01*
X293303Y369157D01*
Y363326D01*
X287472Y357494D01*
X293303Y351663D01*
Y345831D01*
X287472Y340000D01*
X275809D01*
X269977Y345831D01*
Y351663D01*
X275809Y357494D01*
X269977Y363326D01*
Y369157D01*
X275809Y357494D02*
X287472D01*
X355000Y360000D02*
Y394989D01*
X372494D01*
X378326Y389157D01*
Y377494D01*
X372494Y371663D01*
X355000D01*
X366663D02*
X378326Y360000D01*
X407483D02*
Y394989D01*
X389989Y377494D01*
X413315D01*
X424977Y365831D02*
X430809Y360000D01*
X442472D01*
X448303Y365831D01*
Y389157D01*
X442472Y394989D01*
X430809D01*
X424977Y389157D01*
Y383326D01*
X430809Y377494D01*
X448303D01*
X220000Y435000D02*
Y469989D01*
X237494D01*
X243326Y464157D01*
Y452494D01*
X237494Y446663D01*
X220000D01*
X231663D02*
X243326Y435000D01*
X278315Y469989D02*
X254989D01*
Y452494D01*
X266652Y458326D01*
X272483D01*
X278315Y452494D01*
Y440831D01*
X272483Y435000D01*
X260820D01*
X254989Y440831D01*
X289977Y464157D02*
X295809Y469989D01*
X307472D01*
X313303Y464157D01*
Y440831D01*
X307472Y435000D01*
X295809D01*
X289977Y440831D01*
Y464157D01*
X210000Y555000D02*
Y589989D01*
X227494D01*
X233326Y584157D01*
Y572494D01*
X227494Y566663D01*
X210000D01*
X221663D02*
X233326Y555000D01*
X268315Y589989D02*
X244989D01*
Y572494D01*
X256652Y578326D01*
X262483D01*
X268315Y572494D01*
Y560831D01*
X262483Y555000D01*
X250820D01*
X244989Y560831D01*
X279977Y555000D02*
X291640D01*
X285809D01*
Y589989D01*
X279977Y584157D01*
X1378326Y1499157D02*
X1372494Y1504989D01*
X1360831D01*
X1355000Y1499157D01*
Y1475831D01*
X1360831Y1470000D01*
X1372494D01*
X1378326Y1475831D01*
X1413314Y1470000D02*
X1389989D01*
X1413314Y1493326D01*
Y1499157D01*
X1407483Y1504989D01*
X1395820D01*
X1389989Y1499157D01*
X1424977D02*
X1430809Y1504989D01*
X1442472D01*
X1448303Y1499157D01*
Y1493326D01*
X1442472Y1487494D01*
X1448303Y1481663D01*
Y1475831D01*
X1442472Y1470000D01*
X1430809D01*
X1424977Y1475831D01*
Y1481663D01*
X1430809Y1487494D01*
X1424977Y1493326D01*
Y1499157D01*
X1430809Y1487494D02*
X1442472D01*
X1177278Y1364661D02*
X1171447Y1370493D01*
X1159784D01*
X1153953Y1364661D01*
Y1341335D01*
X1159784Y1335504D01*
X1171447D01*
X1177278Y1341335D01*
X1212267Y1335504D02*
X1188941D01*
X1212267Y1358830D01*
Y1364661D01*
X1206436Y1370493D01*
X1194773D01*
X1188941Y1364661D01*
X1223930Y1341335D02*
X1229762Y1335504D01*
X1241424D01*
X1247256Y1341335D01*
Y1364661D01*
X1241424Y1370493D01*
X1229762D01*
X1223930Y1364661D01*
Y1358830D01*
X1229762Y1352998D01*
X1247256D01*
X1587696Y529157D02*
X1581864Y534989D01*
X1570201D01*
X1564370Y529157D01*
Y505831D01*
X1570201Y500000D01*
X1581864D01*
X1587696Y505831D01*
X1622685Y500000D02*
X1599359D01*
X1622685Y523326D01*
Y529157D01*
X1616853Y534989D01*
X1605190D01*
X1599359Y529157D01*
X1634347Y534989D02*
X1657673D01*
Y529157D01*
X1634347Y505831D01*
Y500000D01*
X1831278Y959661D02*
X1825447Y965492D01*
X1813784D01*
X1807953Y959661D01*
Y936335D01*
X1813784Y930504D01*
X1825447D01*
X1831278Y936335D01*
X1866267Y930504D02*
X1842941D01*
X1866267Y953830D01*
Y959661D01*
X1860436Y965492D01*
X1848773D01*
X1842941Y959661D01*
X1877930D02*
X1883762Y965492D01*
X1895424D01*
X1901256Y959661D01*
Y936335D01*
X1895424Y930504D01*
X1883762D01*
X1877930Y936335D01*
Y959661D01*
X1192278Y894661D02*
X1186447Y900492D01*
X1174784D01*
X1168953Y894661D01*
Y871335D01*
X1174784Y865504D01*
X1186447D01*
X1192278Y871335D01*
X1203941Y865504D02*
X1215604D01*
X1209773D01*
Y900492D01*
X1203941Y894661D01*
X1233099Y871335D02*
X1238930Y865504D01*
X1250593D01*
X1256424Y871335D01*
Y894661D01*
X1250593Y900492D01*
X1238930D01*
X1233099Y894661D01*
Y888830D01*
X1238930Y882998D01*
X1256424D01*
X1289370Y130000D02*
Y164989D01*
X1306864D01*
X1312696Y159157D01*
Y147494D01*
X1306864Y141663D01*
X1289370D01*
X1301033D02*
X1312696Y130000D01*
X1347685Y164989D02*
X1324359D01*
Y147494D01*
X1336022Y153326D01*
X1341853D01*
X1347685Y147494D01*
Y135831D01*
X1341853Y130000D01*
X1330190D01*
X1324359Y135831D01*
X1382673Y130000D02*
X1359347D01*
X1382673Y153326D01*
Y159157D01*
X1376842Y164989D01*
X1365179D01*
X1359347Y159157D01*
X1209370Y335000D02*
Y369989D01*
X1226864D01*
X1232696Y364157D01*
Y352494D01*
X1226864Y346663D01*
X1209370D01*
X1221033D02*
X1232696Y335000D01*
X1267685Y369989D02*
X1244359D01*
Y352494D01*
X1256022Y358326D01*
X1261853D01*
X1267685Y352494D01*
Y340831D01*
X1261853Y335000D01*
X1250190D01*
X1244359Y340831D01*
X1279347Y364157D02*
X1285179Y369989D01*
X1296842D01*
X1302673Y364157D01*
Y358326D01*
X1296842Y352494D01*
X1291010D01*
X1296842D01*
X1302673Y346663D01*
Y340831D01*
X1296842Y335000D01*
X1285179D01*
X1279347Y340831D01*
X1344370Y365000D02*
Y399989D01*
X1361864D01*
X1367696Y394157D01*
Y382494D01*
X1361864Y376663D01*
X1344370D01*
X1356033D02*
X1367696Y365000D01*
X1402685Y399989D02*
X1379359D01*
Y382494D01*
X1391022Y388326D01*
X1396853D01*
X1402685Y382494D01*
Y370831D01*
X1396853Y365000D01*
X1385190D01*
X1379359Y370831D01*
X1431842Y365000D02*
Y399989D01*
X1414347Y382494D01*
X1437673D01*
X1339370Y495000D02*
Y529989D01*
X1356864D01*
X1362696Y524157D01*
Y512494D01*
X1356864Y506663D01*
X1339370D01*
X1351033D02*
X1362696Y495000D01*
X1397685Y529989D02*
X1374359D01*
Y512494D01*
X1386022Y518326D01*
X1391853D01*
X1397685Y512494D01*
Y500831D01*
X1391853Y495000D01*
X1380190D01*
X1374359Y500831D01*
X1432673Y529989D02*
X1409347D01*
Y512494D01*
X1421010Y518326D01*
X1426842D01*
X1432673Y512494D01*
Y500831D01*
X1426842Y495000D01*
X1415179D01*
X1409347Y500831D01*
X1344370Y640000D02*
Y674989D01*
X1361864D01*
X1367696Y669157D01*
Y657494D01*
X1361864Y651663D01*
X1344370D01*
X1356033D02*
X1367696Y640000D01*
X1402685Y674989D02*
X1379359D01*
Y657494D01*
X1391022Y663326D01*
X1396853D01*
X1402685Y657494D01*
Y645831D01*
X1396853Y640000D01*
X1385190D01*
X1379359Y645831D01*
X1437673Y674989D02*
X1426010Y669157D01*
X1414347Y657494D01*
Y645831D01*
X1420179Y640000D01*
X1431842D01*
X1437673Y645831D01*
Y651663D01*
X1431842Y657494D01*
X1414347D01*
X1824370Y125000D02*
Y159989D01*
X1841864D01*
X1847696Y154157D01*
Y142494D01*
X1841864Y136663D01*
X1824370D01*
X1836033D02*
X1847696Y125000D01*
X1859359Y154157D02*
X1865190Y159989D01*
X1876853D01*
X1882685Y154157D01*
Y148326D01*
X1876853Y142494D01*
X1871022D01*
X1876853D01*
X1882685Y136663D01*
Y130831D01*
X1876853Y125000D01*
X1865190D01*
X1859359Y130831D01*
X1894347Y159989D02*
X1917673D01*
Y154157D01*
X1894347Y130831D01*
Y125000D01*
X1885953Y346504D02*
Y381493D01*
X1903447D01*
X1909278Y375661D01*
Y363998D01*
X1903447Y358167D01*
X1885953D01*
X1897616D02*
X1909278Y346504D01*
X1920941Y375661D02*
X1926773Y381493D01*
X1938436D01*
X1944267Y375661D01*
Y369830D01*
X1938436Y363998D01*
X1932604D01*
X1938436D01*
X1944267Y358167D01*
Y352335D01*
X1938436Y346504D01*
X1926773D01*
X1920941Y352335D01*
X1955930Y375661D02*
X1961762Y381493D01*
X1973424D01*
X1979256Y375661D01*
Y369830D01*
X1973424Y363998D01*
X1979256Y358167D01*
Y352335D01*
X1973424Y346504D01*
X1961762D01*
X1955930Y352335D01*
Y358167D01*
X1961762Y363998D01*
X1955930Y369830D01*
Y375661D01*
X1961762Y363998D02*
X1973424D01*
X1714370Y635000D02*
Y669989D01*
X1731864D01*
X1737696Y664157D01*
Y652494D01*
X1731864Y646663D01*
X1714370D01*
X1726033D02*
X1737696Y635000D01*
X1766853D02*
Y669989D01*
X1749359Y652494D01*
X1772685D01*
X1784347Y635000D02*
X1796010D01*
X1790179D01*
Y669989D01*
X1784347Y664157D01*
X1714370Y500000D02*
Y534989D01*
X1731864D01*
X1737696Y529157D01*
Y517494D01*
X1731864Y511663D01*
X1714370D01*
X1726033D02*
X1737696Y500000D01*
X1766853D02*
Y534989D01*
X1749359Y517494D01*
X1772685D01*
X1784347Y529157D02*
X1790179Y534989D01*
X1801842D01*
X1807673Y529157D01*
Y505831D01*
X1801842Y500000D01*
X1790179D01*
X1784347Y505831D01*
Y529157D01*
X1714370Y365000D02*
Y399989D01*
X1731864D01*
X1737696Y394157D01*
Y382494D01*
X1731864Y376663D01*
X1714370D01*
X1726033D02*
X1737696Y365000D01*
X1749359Y394157D02*
X1755190Y399989D01*
X1766853D01*
X1772685Y394157D01*
Y388326D01*
X1766853Y382494D01*
X1761022D01*
X1766853D01*
X1772685Y376663D01*
Y370831D01*
X1766853Y365000D01*
X1755190D01*
X1749359Y370831D01*
X1784347D02*
X1790179Y365000D01*
X1801842D01*
X1807673Y370831D01*
Y394157D01*
X1801842Y399989D01*
X1790179D01*
X1784347Y394157D01*
Y388326D01*
X1790179Y382494D01*
X1807673D01*
X1235000Y1470000D02*
Y1504989D01*
X1252494D01*
X1258326Y1499157D01*
Y1487494D01*
X1252494Y1481663D01*
X1235000D01*
X1246663D02*
X1258326Y1470000D01*
X1293314D02*
X1269989D01*
X1293314Y1493326D01*
Y1499157D01*
X1287483Y1504989D01*
X1275820D01*
X1269989Y1499157D01*
X1304977D02*
X1310809Y1504989D01*
X1322472D01*
X1328303Y1499157D01*
Y1493326D01*
X1322472Y1487494D01*
X1316640D01*
X1322472D01*
X1328303Y1481663D01*
Y1475831D01*
X1322472Y1470000D01*
X1310809D01*
X1304977Y1475831D01*
X1534370Y735000D02*
Y769989D01*
X1551864D01*
X1557696Y764157D01*
Y752494D01*
X1551864Y746663D01*
X1534370D01*
X1546033D02*
X1557696Y735000D01*
X1592685D02*
X1569359D01*
X1592685Y758326D01*
Y764157D01*
X1586853Y769989D01*
X1575190D01*
X1569359Y764157D01*
X1627673Y769989D02*
X1616010Y764157D01*
X1604347Y752494D01*
Y740831D01*
X1610179Y735000D01*
X1621842D01*
X1627673Y740831D01*
Y746663D01*
X1621842Y752494D01*
X1604347D01*
X1175000Y1119989D02*
Y1090831D01*
X1180831Y1085000D01*
X1192494D01*
X1198326Y1090831D01*
Y1119989D01*
X1233314Y1085000D02*
X1209989D01*
X1233314Y1108326D01*
Y1114157D01*
X1227483Y1119989D01*
X1215820D01*
X1209989Y1114157D01*
X1244977Y1085000D02*
X1256640D01*
X1250809D01*
Y1119989D01*
X1244977Y1114157D01*
X1450000Y1470000D02*
Y1504989D01*
X1467494D01*
X1473326Y1499157D01*
Y1487494D01*
X1467494Y1481663D01*
X1450000D01*
X1461663D02*
X1473326Y1470000D01*
X1484989D02*
X1496652D01*
X1490820D01*
Y1504989D01*
X1484989Y1499157D01*
X1514146D02*
X1519977Y1504989D01*
X1531640D01*
X1537472Y1499157D01*
Y1493326D01*
X1531640Y1487494D01*
X1525809D01*
X1531640D01*
X1537472Y1481663D01*
Y1475831D01*
X1531640Y1470000D01*
X1519977D01*
X1514146Y1475831D01*
X1570000Y1470000D02*
Y1504989D01*
X1587494D01*
X1593326Y1499157D01*
Y1487494D01*
X1587494Y1481663D01*
X1570000D01*
X1581663D02*
X1593326Y1470000D01*
X1604989D02*
X1616652D01*
X1610820D01*
Y1504989D01*
X1604989Y1499157D01*
X1651640Y1470000D02*
Y1504989D01*
X1634146Y1487494D01*
X1657472D01*
X480000Y1465000D02*
Y1499989D01*
X497494D01*
X503326Y1494157D01*
Y1482494D01*
X497494Y1476663D01*
X480000D01*
X491663D02*
X503326Y1465000D01*
X514989D02*
X526652D01*
X520820D01*
Y1499989D01*
X514989Y1494157D01*
X567472Y1499989D02*
X544146D01*
Y1482494D01*
X555809Y1488326D01*
X561640D01*
X567472Y1482494D01*
Y1470831D01*
X561640Y1465000D01*
X549977D01*
X544146Y1470831D01*
X585000Y1460000D02*
Y1494989D01*
X602494D01*
X608326Y1489157D01*
Y1477494D01*
X602494Y1471663D01*
X585000D01*
X596663D02*
X608326Y1460000D01*
X619989D02*
X631652D01*
X625820D01*
Y1494989D01*
X619989Y1489157D01*
X649146Y1494989D02*
X672472D01*
Y1489157D01*
X649146Y1465831D01*
Y1460000D01*
X2355000Y1465000D02*
Y1499989D01*
X2372494D01*
X2378326Y1494157D01*
Y1482494D01*
X2372494Y1476663D01*
X2355000D01*
X2366663D02*
X2378326Y1465000D01*
X2389989D02*
X2401652D01*
X2395820D01*
Y1499989D01*
X2389989Y1494157D01*
X2419146D02*
X2424977Y1499989D01*
X2436640D01*
X2442472Y1494157D01*
Y1488326D01*
X2436640Y1482494D01*
X2442472Y1476663D01*
Y1470831D01*
X2436640Y1465000D01*
X2424977D01*
X2419146Y1470831D01*
Y1476663D01*
X2424977Y1482494D01*
X2419146Y1488326D01*
Y1494157D01*
X2424977Y1482494D02*
X2436640D01*
X2240000Y1465000D02*
Y1499989D01*
X2257494D01*
X2263326Y1494157D01*
Y1482494D01*
X2257494Y1476663D01*
X2240000D01*
X2251663D02*
X2263326Y1465000D01*
X2274989D02*
X2286652D01*
X2280820D01*
Y1499989D01*
X2274989Y1494157D01*
X2304146Y1470831D02*
X2309977Y1465000D01*
X2321640D01*
X2327472Y1470831D01*
Y1494157D01*
X2321640Y1499989D01*
X2309977D01*
X2304146Y1494157D01*
Y1488326D01*
X2309977Y1482494D01*
X2327472D01*
X3165278Y3180661D02*
X3159447Y3186492D01*
X3147784D01*
X3141953Y3180661D01*
Y3157335D01*
X3147784Y3151504D01*
X3159447D01*
X3165278Y3157335D01*
X3200267Y3180661D02*
X3194436Y3186492D01*
X3182773D01*
X3176941Y3180661D01*
Y3157335D01*
X3182773Y3151504D01*
X3194436D01*
X3200267Y3157335D01*
X3211930Y3151504D02*
X3223593D01*
X3217762D01*
Y3186492D01*
X3211930Y3180661D01*
X3165278Y2570661D02*
X3159447Y2576492D01*
X3147784D01*
X3141953Y2570661D01*
Y2547335D01*
X3147784Y2541504D01*
X3159447D01*
X3165278Y2547335D01*
X3200267Y2570661D02*
X3194436Y2576492D01*
X3182773D01*
X3176941Y2570661D01*
Y2547335D01*
X3182773Y2541504D01*
X3194436D01*
X3200267Y2547335D01*
X3235256Y2541504D02*
X3211930D01*
X3235256Y2564830D01*
Y2570661D01*
X3229424Y2576492D01*
X3217762D01*
X3211930Y2570661D01*
X3165278Y1960661D02*
X3159447Y1966493D01*
X3147784D01*
X3141953Y1960661D01*
Y1937335D01*
X3147784Y1931504D01*
X3159447D01*
X3165278Y1937335D01*
X3200267Y1960661D02*
X3194436Y1966493D01*
X3182773D01*
X3176941Y1960661D01*
Y1937335D01*
X3182773Y1931504D01*
X3194436D01*
X3200267Y1937335D01*
X3211930Y1960661D02*
X3217762Y1966493D01*
X3229424D01*
X3235256Y1960661D01*
Y1954830D01*
X3229424Y1948998D01*
X3223593D01*
X3229424D01*
X3235256Y1943167D01*
Y1937335D01*
X3229424Y1931504D01*
X3217762D01*
X3211930Y1937335D01*
X961000Y3705000D02*
Y3739989D01*
X978494D01*
X984326Y3734157D01*
Y3722494D01*
X978494Y3716663D01*
X961000D01*
X995989Y3734157D02*
X1001820Y3739989D01*
X1013483D01*
X1019314Y3734157D01*
Y3728326D01*
X1013483Y3722494D01*
X1007652D01*
X1013483D01*
X1019314Y3716663D01*
Y3710831D01*
X1013483Y3705000D01*
X1001820D01*
X995989Y3710831D01*
X976000Y3595000D02*
Y3629989D01*
X993494D01*
X999326Y3624157D01*
Y3612494D01*
X993494Y3606663D01*
X976000D01*
X1034314Y3595000D02*
X1010989D01*
X1034314Y3618326D01*
Y3624157D01*
X1028483Y3629989D01*
X1016820D01*
X1010989Y3624157D01*
D68*
X14557Y1387223D02*
Y1432208D01*
X37050D01*
X44548Y1424711D01*
Y1409715D01*
X37050Y1402218D01*
X14557D01*
X29552D02*
X44548Y1387223D01*
X89533Y1424711D02*
X82035Y1432208D01*
X67040D01*
X59543Y1424711D01*
Y1417213D01*
X67040Y1409715D01*
X82035D01*
X89533Y1402218D01*
Y1394720D01*
X82035Y1387223D01*
X67040D01*
X59543Y1394720D01*
X127021Y1387223D02*
Y1432208D01*
X104528Y1409715D01*
X134519D01*
X149514Y1424711D02*
X157011Y1432208D01*
X172006D01*
X179504Y1424711D01*
Y1417213D01*
X172006Y1409715D01*
X179504Y1402218D01*
Y1394720D01*
X172006Y1387223D01*
X157011D01*
X149514Y1394720D01*
Y1402218D01*
X157011Y1409715D01*
X149514Y1417213D01*
Y1424711D01*
X157011Y1409715D02*
X172006D01*
X224490Y1432208D02*
X194499D01*
Y1409715D01*
X209494Y1417213D01*
X216992D01*
X224490Y1409715D01*
Y1394720D01*
X216992Y1387223D01*
X201997D01*
X194499Y1394720D01*
D69*
X3440000Y-10D02*
X3459994D01*
X3449997D01*
Y-30000D01*
X3484985Y-10D02*
X3474989D01*
X3469990Y-5008D01*
Y-25002D01*
X3474989Y-30000D01*
X3484985D01*
X3489984Y-25002D01*
Y-5008D01*
X3484985Y-10D01*
X3499981Y-30000D02*
Y-10D01*
X3514976D01*
X3519974Y-5008D01*
Y-15005D01*
X3514976Y-20003D01*
X3499981D01*
D111*
X141211Y1935740D02*
G03*
X141211Y1935740I-1392J0D01*
G01*
X30211D02*
G03*
X30211Y1935740I-1392J0D01*
G01*
X240573Y3298260D02*
G03*
X240573Y3298260I-1392J0D01*
G01*
X125211Y2655740D02*
G03*
X125211Y2655740I-1392J0D01*
G01*
X3355132Y556181D02*
G03*
X3355132Y556181I-1392J0D01*
G01*
D112*
X184284Y2244913D02*
G03*
X184284Y2244913I-4921J0D01*
G01*
X96284Y2384913D02*
G03*
X96284Y2384913I-4921J0D01*
G01*
X866354Y2027457D02*
G03*
X866354Y2027457I-4921J0D01*
G01*
X452284Y1694913D02*
G03*
X452284Y1694913I-4921J0D01*
G01*
X953284Y2182913D02*
G03*
X953284Y2182913I-4921J0D01*
G01*
X3116772Y1420433D02*
G03*
X3116772Y1420433I-4921J0D01*
G01*
X3627008Y897362D02*
G03*
X3627008Y897362I-4921J0D01*
G01*
X2410591Y2723465D02*
G03*
X2410591Y2723465I-4921J0D01*
G01*
X3405157Y2905551D02*
G03*
X3405157Y2905551I-4921J0D01*
G01*
Y2295551D02*
G03*
X3405157Y2295551I-4921J0D01*
G01*
Y1685551D02*
G03*
X3405157Y1685551I-4921J0D01*
G01*
D113*
X882874Y3230039D02*
G03*
X882874Y3230039I-7874J0D01*
G01*
D114*
X3232913Y1384606D02*
G03*
X3232913Y1384606I-11811J0D01*
G01*
X2498189Y2676024D02*
G03*
X2498189Y2676024I-11811J0D01*
G01*
X3321496Y2955945D02*
G03*
X3321496Y2955945I-11811J0D01*
G01*
Y2345945D02*
G03*
X3321496Y2345945I-11811J0D01*
G01*
Y1735945D02*
G03*
X3321496Y1735945I-11811J0D01*
G01*
D115*
X208039Y2283638D02*
Y2438362D01*
X287961D01*
Y2283638D02*
Y2438362D01*
X208039Y2283638D02*
X287961D01*
X149039Y1952638D02*
Y2107362D01*
X228961D01*
Y1952638D02*
Y2107362D01*
X149039Y1952638D02*
X228961D01*
X41039D02*
Y2107362D01*
X120961D01*
Y1952638D02*
Y2107362D01*
X41039Y1952638D02*
X120961D01*
X36638Y2482961D02*
X191362D01*
Y2403039D02*
Y2482961D01*
X36638Y2403039D02*
X191362D01*
X36638D02*
Y2482961D01*
X46039Y3276638D02*
Y3431362D01*
X125961D01*
Y3276638D02*
Y3431362D01*
X46039Y3276638D02*
X125961D01*
X879050Y1794500D02*
Y1875500D01*
Y1794500D02*
X1030950D01*
X879050Y1875500D02*
X1030950D01*
Y1794500D02*
Y1875500D01*
X547638Y1740961D02*
X702362D01*
Y1661039D02*
Y1740961D01*
X547638Y1661039D02*
X702362D01*
X547638D02*
Y1740961D01*
X596638Y1627961D02*
X751362D01*
Y1548039D02*
Y1627961D01*
X596638Y1548039D02*
X751362D01*
X596638D02*
Y1627961D01*
X34039Y2499638D02*
Y2654362D01*
X113961D01*
Y2499638D02*
Y2654362D01*
X34039Y2499638D02*
X113961D01*
X62050Y2996500D02*
Y3077500D01*
Y2996500D02*
X213950D01*
X62050Y3077500D02*
X213950D01*
Y2996500D02*
Y3077500D01*
X62050Y3084500D02*
Y3165500D01*
Y3084500D02*
X213950D01*
X62050Y3165500D02*
X213950D01*
Y3084500D02*
Y3165500D01*
X62050Y3172500D02*
Y3253500D01*
Y3172500D02*
X213950D01*
X62050Y3253500D02*
X213950D01*
Y3172500D02*
Y3253500D01*
X752500Y3231950D02*
X833500D01*
X752500Y3080050D02*
Y3231950D01*
X833500Y3080050D02*
Y3231950D01*
X752500Y3080050D02*
X833500D01*
X846500Y3231950D02*
X927500D01*
X846500Y3080050D02*
Y3231950D01*
X927500Y3080050D02*
Y3231950D01*
X846500Y3080050D02*
X927500D01*
X938500Y3231950D02*
X1019500D01*
X938500Y3080050D02*
Y3231950D01*
X1019500Y3080050D02*
Y3231950D01*
X938500Y3080050D02*
X1019500D01*
X697835Y3848150D02*
X1052165D01*
Y3281220D02*
Y3848150D01*
X697835Y3281220D02*
Y3326496D01*
X979331Y3281220D02*
X1052165D01*
X697835Y3527283D02*
Y3848150D01*
Y3281220D02*
X774606D01*
X982961Y1889638D02*
Y2044362D01*
X903039Y1889638D02*
X982961D01*
X903039D02*
Y2044362D01*
X982961D01*
X608638Y2184961D02*
X763362D01*
Y2105039D02*
Y2184961D01*
X608638Y2105039D02*
X763362D01*
X608638D02*
Y2184961D01*
X3121950Y1447500D02*
Y1528500D01*
X2970050D02*
X3121950D01*
X2970050Y1447500D02*
X3121950D01*
X2970050D02*
Y1528500D01*
X3120950Y1619500D02*
Y1700500D01*
X2969050D02*
X3120950D01*
X2969050Y1619500D02*
X3120950D01*
X2969050D02*
Y1700500D01*
X3120950Y1534500D02*
Y1615500D01*
X2969050D02*
X3120950D01*
X2969050Y1534500D02*
X3120950D01*
X2969050D02*
Y1615500D01*
X714500Y2401950D02*
X795500D01*
X714500Y2250050D02*
Y2401950D01*
X795500Y2250050D02*
Y2401950D01*
X714500Y2250050D02*
X795500D01*
X3631452Y1299500D02*
Y1380500D01*
Y1299500D02*
X3783352D01*
X3631452Y1380500D02*
X3783352D01*
Y1299500D02*
Y1380500D01*
X3629050Y1389500D02*
Y1470500D01*
Y1389500D02*
X3780950D01*
X3629050Y1470500D02*
X3780950D01*
Y1389500D02*
Y1470500D01*
X3194500Y724050D02*
X3275500D01*
Y875950D01*
X3194500Y724050D02*
Y875950D01*
X3275500D01*
X3274961Y562638D02*
Y717362D01*
X3195039Y562638D02*
X3274961D01*
X3195039D02*
Y717362D01*
X3274961D01*
X229961Y3464638D02*
Y3619362D01*
X150039Y3464638D02*
X229961D01*
X150039D02*
Y3619362D01*
X229961D01*
X723039Y2458638D02*
Y2613362D01*
X802961D01*
Y2458638D02*
Y2613362D01*
X723039Y2458638D02*
X802961D01*
X3427638Y320039D02*
X3582362D01*
X3427638D02*
Y399961D01*
X3582362D01*
Y320039D02*
Y399961D01*
X2569500Y1439538D02*
X2650500D01*
X2569500Y1287638D02*
Y1439538D01*
X2650500Y1287638D02*
Y1439538D01*
X2569500Y1287638D02*
X2650500D01*
X2469680D02*
Y1442362D01*
X2549601D01*
Y1287638D02*
Y1442362D01*
X2469680Y1287638D02*
X2549601D01*
X2369860D02*
Y1442362D01*
X2449781D01*
Y1287638D02*
Y1442362D01*
X2369860Y1287638D02*
X2449781D01*
X2349961D02*
Y1442362D01*
X2270039Y1287638D02*
X2349961D01*
X2270039D02*
Y1442362D01*
X2349961D01*
X2154500Y1154050D02*
X2235500D01*
Y1305950D01*
X2154500Y1154050D02*
Y1305950D01*
X2235500D01*
X654960Y1287638D02*
Y1442362D01*
X575039Y1287638D02*
X654960D01*
X575039D02*
Y1442362D01*
X654960D01*
X478373Y1287638D02*
Y1442362D01*
X558294D01*
Y1287638D02*
Y1442362D01*
X478373Y1287638D02*
X558294D01*
X381706Y1442362D02*
X462706D01*
X381706Y1290462D02*
Y1442362D01*
X462706Y1290462D02*
Y1442362D01*
X381706Y1290462D02*
X462706D01*
X522638Y610039D02*
X677362D01*
X522638D02*
Y689961D01*
X677362D01*
Y610039D02*
Y689961D01*
X184500Y684050D02*
X265500D01*
Y835950D01*
X184500Y684050D02*
Y835950D01*
X265500D01*
X732638Y526106D02*
X887362D01*
X732638D02*
Y606028D01*
X887362D01*
Y526106D02*
Y606028D01*
X732638Y488894D02*
X887362D01*
Y408973D02*
Y488894D01*
X732638Y408973D02*
X887362D01*
X732638D02*
Y488894D01*
X317638Y606028D02*
X472362D01*
Y526106D02*
Y606028D01*
X317638Y526106D02*
X472362D01*
X317638D02*
Y606028D01*
Y408973D02*
X472362D01*
X317638D02*
Y488894D01*
X472362D01*
Y408973D02*
Y488894D01*
X317638Y344961D02*
X472362D01*
Y265039D02*
Y344961D01*
X317638Y265039D02*
X472362D01*
X317638D02*
Y344961D01*
X732638Y265039D02*
X887362D01*
X732638D02*
Y344961D01*
X887362D01*
Y265039D02*
Y344961D01*
X909902Y157638D02*
Y312362D01*
X989823D01*
Y157638D02*
Y312362D01*
X909902Y157638D02*
X989823D01*
X835098Y99961D02*
X989823D01*
Y20039D02*
Y99961D01*
X835098Y20039D02*
X989823D01*
X835098D02*
Y99961D01*
X217500Y157638D02*
Y312362D01*
X297421D01*
Y157638D02*
Y312362D01*
X217500Y157638D02*
X297421D01*
X217500Y20039D02*
X372224D01*
X217500D02*
Y99961D01*
X372224D01*
Y20039D02*
Y99961D01*
X1255039Y1287638D02*
Y1442362D01*
X1334961D01*
Y1287638D02*
Y1442362D01*
X1255039Y1287638D02*
X1334961D01*
X1351706Y1439538D02*
X1432706D01*
X1351706Y1287638D02*
Y1439538D01*
X1432706Y1287638D02*
Y1439538D01*
X1351706Y1287638D02*
X1432706D01*
X1624960D02*
Y1442362D01*
X1545039Y1287638D02*
X1624960D01*
X1545039D02*
Y1442362D01*
X1624960D01*
X1448373Y1287638D02*
Y1442362D01*
X1528294D01*
Y1287638D02*
Y1442362D01*
X1448373Y1287638D02*
X1528294D01*
X285039D02*
Y1442362D01*
X364961D01*
Y1287638D02*
Y1442362D01*
X285039Y1287638D02*
X364961D01*
X2194500Y684050D02*
X2275500D01*
Y835950D01*
X2194500Y684050D02*
Y835950D01*
X2275500D01*
X1164500Y684050D02*
X1245500D01*
Y835950D01*
X1164500Y684050D02*
Y835950D01*
X1245500D01*
X159500Y1154050D02*
X240500D01*
Y1305950D01*
X159500Y1154050D02*
Y1305950D01*
X240500D01*
X2312638Y614961D02*
X2467362D01*
Y535039D02*
Y614961D01*
X2312638Y535039D02*
X2467362D01*
X2312638D02*
Y614961D01*
Y400039D02*
X2467362D01*
X2312638D02*
Y479961D01*
X2467362D01*
Y400039D02*
Y479961D01*
X2312638Y344961D02*
X2467362D01*
Y265039D02*
Y344961D01*
X2312638Y265039D02*
X2467362D01*
X2312638D02*
Y344961D01*
X2215039Y157638D02*
Y312362D01*
X2294961D01*
Y157638D02*
Y312362D01*
X2215039Y157638D02*
X2294961D01*
X2215039Y20039D02*
X2369764D01*
X2215039D02*
Y99961D01*
X2369764D01*
Y20039D02*
Y99961D01*
X2742638Y535039D02*
X2897362D01*
X2742638D02*
Y614961D01*
X2897362D01*
Y535039D02*
Y614961D01*
X2742638Y479961D02*
X2897362D01*
Y400039D02*
Y479961D01*
X2742638Y400039D02*
X2897362D01*
X2742638D02*
Y479961D01*
Y265039D02*
X2897362D01*
X2742638D02*
Y344961D01*
X2897362D01*
Y265039D02*
Y344961D01*
X2914410Y137638D02*
Y292362D01*
X2994331D01*
Y137638D02*
Y292362D01*
X2914410Y137638D02*
X2994331D01*
X2837638Y99961D02*
X2992362D01*
Y20039D02*
Y99961D01*
X2837638Y20039D02*
X2992362D01*
X2837638D02*
Y99961D01*
X2527638Y620039D02*
X2682362D01*
X2527638D02*
Y699961D01*
X2682362D01*
Y620039D02*
Y699961D01*
X2527638Y535039D02*
Y616039D01*
Y535039D02*
X2679538D01*
X2527638Y616039D02*
X2679538D01*
Y535039D02*
Y616039D01*
X2819500Y729050D02*
X2900500D01*
Y880950D01*
X2819500Y729050D02*
Y880950D01*
X2900500D01*
X804500Y749050D02*
X885500D01*
Y900950D01*
X804500Y749050D02*
Y900950D01*
X885500D01*
X524050Y524500D02*
Y605500D01*
Y524500D02*
X675950D01*
X524050Y605500D02*
X675950D01*
Y524500D02*
Y605500D01*
X1149500Y1154050D02*
X1230500D01*
Y1305950D01*
X1149500Y1154050D02*
Y1305950D01*
X1230500D01*
X1503420Y544500D02*
Y625500D01*
Y544500D02*
X1655320D01*
X1503420Y625500D02*
X1655320D01*
Y544500D02*
Y625500D01*
X1803870Y749050D02*
X1884870D01*
Y900950D01*
X1803870Y749050D02*
Y900950D01*
X1884870D01*
X1212008Y25039D02*
X1366732D01*
X1212008D02*
Y104961D01*
X1366732D01*
Y25039D02*
Y104961D01*
X1209409Y162638D02*
Y317362D01*
X1289331D01*
Y162638D02*
Y317362D01*
X1209409Y162638D02*
X1289331D01*
X1307008Y349961D02*
X1461732D01*
Y270039D02*
Y349961D01*
X1307008Y270039D02*
X1461732D01*
X1307008D02*
Y349961D01*
Y405039D02*
X1461732D01*
X1307008D02*
Y484961D01*
X1461732D01*
Y405039D02*
Y484961D01*
X1307638Y619961D02*
X1462362D01*
Y540039D02*
Y619961D01*
X1307638Y540039D02*
X1462362D01*
X1307638D02*
Y619961D01*
X1807008Y104961D02*
X1961732D01*
Y25039D02*
Y104961D01*
X1807008Y25039D02*
X1961732D01*
X1807008D02*
Y104961D01*
X1881811Y162638D02*
Y317362D01*
X1961732D01*
Y162638D02*
Y317362D01*
X1881811Y162638D02*
X1961732D01*
X1707008Y540039D02*
X1861732D01*
X1707008D02*
Y619961D01*
X1861732D01*
Y540039D02*
Y619961D01*
X1707008Y484961D02*
X1861732D01*
Y405039D02*
Y484961D01*
X1707008Y405039D02*
X1861732D01*
X1707008D02*
Y484961D01*
Y270039D02*
X1861732D01*
X1707008D02*
Y349961D01*
X1861732D01*
Y270039D02*
Y349961D01*
X1502008Y635039D02*
X1656732D01*
X1502008D02*
Y714961D01*
X1656732D01*
Y635039D02*
Y714961D01*
X2730039Y2632638D02*
Y2787362D01*
X2809961D01*
Y2632638D02*
Y2787362D01*
X2730039Y2632638D02*
X2809961D01*
X2820039D02*
Y2787362D01*
X2899961D01*
Y2632638D02*
Y2787362D01*
X2820039Y2632638D02*
X2899961D01*
D116*
X-4016Y2760000D02*
X254016D01*
Y2900000D01*
X-4016D02*
X254016D01*
X-4016Y2760000D02*
Y2900000D01*
X66513Y1131000D02*
X93171D01*
Y1124335D01*
X86507Y1117671D01*
X66513D01*
X86507D01*
X93171Y1111006D01*
X86507Y1104342D01*
X66513D01*
Y1071019D02*
Y1084348D01*
X73178Y1091013D01*
X86507D01*
X93171Y1084348D01*
Y1071019D01*
X86507Y1064355D01*
X79843D01*
Y1091013D01*
X93171Y1044361D02*
Y1031032D01*
X86507Y1024368D01*
X66513D01*
Y1044361D01*
X73178Y1051026D01*
X79843Y1044361D01*
Y1024368D01*
X66513Y1011039D02*
Y991045D01*
X73178Y984381D01*
X79843Y991045D01*
Y1004374D01*
X86507Y1011039D01*
X93171Y1004374D01*
Y984381D01*
Y971052D02*
X73178D01*
X66513Y964387D01*
Y944394D01*
X93171D01*
Y931064D02*
X66513D01*
X79843D01*
X86507Y924400D01*
X93171Y917736D01*
Y911071D01*
X66513Y871084D02*
Y884413D01*
X73178Y891077D01*
X86507D01*
X93171Y884413D01*
Y871084D01*
X86507Y864419D01*
X79843D01*
Y891077D01*
X66513Y851090D02*
X93171D01*
Y844426D01*
X86507Y837761D01*
X66513D01*
X86507D01*
X93171Y831097D01*
X86507Y824432D01*
X66513D01*
Y791110D02*
Y804439D01*
X73178Y811103D01*
X86507D01*
X93171Y804439D01*
Y791110D01*
X86507Y784445D01*
X79843D01*
Y811103D01*
X66513Y771116D02*
X93171D01*
Y751123D01*
X86507Y744458D01*
X66513D01*
X99836Y724465D02*
X93171D01*
Y731129D01*
Y717800D01*
Y724465D01*
X73178D01*
X66513Y717800D01*
Y657819D02*
X106501D01*
Y637826D01*
X99836Y631161D01*
X86507D01*
X79843Y637826D01*
Y657819D01*
Y644490D02*
X66513Y631161D01*
X106501Y591174D02*
Y617832D01*
X66513D01*
Y591174D01*
X86507Y617832D02*
Y604503D01*
X106501Y577845D02*
X79843D01*
X66513Y564516D01*
X79843Y551187D01*
X106501D01*
X66513Y537858D02*
Y524529D01*
Y531193D01*
X106501D01*
X99836Y537858D01*
X66513Y504535D02*
X73178D01*
Y497871D01*
X66513D01*
Y504535D01*
X99836Y471213D02*
X106501Y464548D01*
Y451219D01*
X99836Y444555D01*
X73178D01*
X66513Y451219D01*
Y464548D01*
X73178Y471213D01*
X99836D01*
X25987Y1131000D02*
X-671Y1117671D01*
X25987Y1104342D01*
X-671Y1091013D02*
X5994D01*
Y1084348D01*
X-671D01*
Y1091013D01*
Y1057690D02*
X25987D01*
Y1051026D01*
X19323Y1044361D01*
X-671D01*
X19323D01*
X25987Y1037697D01*
X19323Y1031032D01*
X-671D01*
Y1011039D02*
Y997710D01*
X5994Y991045D01*
X19323D01*
X25987Y997710D01*
Y1011039D01*
X19323Y1017703D01*
X5994D01*
X-671Y1011039D01*
X25987Y977716D02*
X-671D01*
X12658D01*
X19323Y971052D01*
X25987Y964387D01*
Y957723D01*
Y931064D02*
Y917736D01*
X19323Y911071D01*
X-671D01*
Y931064D01*
X5994Y937729D01*
X12658Y931064D01*
Y911071D01*
X-671Y897742D02*
Y884413D01*
Y891077D01*
X25987D01*
Y897742D01*
X-671Y864419D02*
Y844426D01*
X5994Y837761D01*
X12658Y844426D01*
Y857755D01*
X19323Y864419D01*
X25987Y857755D01*
Y837761D01*
X12658Y804439D02*
X19323D01*
Y811103D01*
X12658D01*
Y804439D01*
X19323Y797774D01*
X32652D01*
X39316Y804439D01*
Y817768D01*
X32652Y824432D01*
X5994D01*
X-671Y817768D01*
Y797774D01*
Y777781D02*
X32652D01*
X19323D01*
Y784445D01*
Y771116D01*
Y777781D01*
X32652D01*
X39316Y771116D01*
X-671Y731129D02*
Y744458D01*
X5994Y751122D01*
X19323D01*
X25987Y744458D01*
Y731129D01*
X19323Y724465D01*
X12658D01*
Y751122D01*
X-671Y711135D02*
X5994D01*
Y704471D01*
X-671D01*
Y711135D01*
X25987Y677813D02*
X5994D01*
X-671Y671148D01*
Y651155D01*
X25987D01*
X-14000Y637826D02*
X25987D01*
Y617832D01*
X19323Y611168D01*
X5994D01*
X-671Y617832D01*
Y637826D01*
Y597839D02*
X5994D01*
Y591174D01*
X-671D01*
Y597839D01*
X-14000Y564516D02*
X25987D01*
Y544523D01*
X19323Y537858D01*
X5994D01*
X-671Y544523D01*
Y564516D01*
X32652Y517864D02*
X25987D01*
Y524529D01*
Y511200D01*
Y517864D01*
X5994D01*
X-671Y511200D01*
%TF.MD5,c3792c39c9ed29fc824eb12a7ff731ec*%
M02*
