M48
;Layer_Color=9474304
;FILE_FORMAT=2:5
INCH,TZ
;TYPE=PLATED
T1F00S00C0.01500
T2F00S00C0.02000
T3F00S00C0.02800
T4F00S00C0.03000
T5F00S00C0.03150
T6F00S00C0.03543
T7F00S00C0.03937
T8F00S00C0.04724
;TYPE=NON_PLATED
T9F00S00C0.11811
%
T01
X297500Y143000
X317000Y143500
Y163500
X316500Y184000
X316000Y248000
X300500Y252500
X298000Y242500
X312500Y266000
X294500Y267000
X288500Y235500
X267500
X272500Y247000
X252500Y247500
X247500Y235500
X257000Y223603
X277000
X267000Y213500
X277000Y203500
X287000Y193500
Y173500
X297000Y163500
X287500Y153000
Y133000
X277500Y143000
X267500Y153000
X247500
X257500Y163000
X267000Y173500
X277000Y183500
X267500Y193000
X257000Y183500
X247500Y193000
X237500Y183000
X247000Y173500
X227500Y173000
X237000Y163500
X217500Y163000
X227000Y153500
X197000Y162500
X187500Y172000
Y192000
X197500Y183000
Y204000
Y222000
X187500Y232000
Y212000
X167500
Y193000
X157500Y203000
Y222000
X147500Y232000
Y212000
Y192000
X157500Y182000
X167500Y172000
X167000Y153500
X157000Y162500
X147000Y171500
X237000Y203500
X257000
X288000Y214000
X297000Y183500
X277500Y163000
X233500Y259000
Y273500
X137500Y243000
X127500Y253000
X117500Y263000
Y243000
X97500
Y263000
Y283000
X107500Y273000
Y253000
X87500
Y273000
X77500Y263000
X57500
Y283000
X67500Y273000
X77500Y283000
X67500Y253000
X57500Y243000
Y223000
X67500Y233000
X77500Y243000
X87500Y232000
X97500Y222000
Y203000
X107500Y212000
X117500Y203000
Y222000
X137500
Y203000
X127500Y212000
Y232000
X107500
Y192000
X117500Y182000
X137500
X127500Y192000
X127000Y171500
X137000Y162500
X117000
X107000Y171500
X97000Y162500
X87000Y171500
X77000Y162500
X67000Y152500
Y172500
X57000Y162500
X47000Y152500
Y172500
X37000Y162500
X27000Y172500
X17000Y162500
X27000Y152500
X17000Y142500
X17500Y183000
Y203000
X27500Y213000
Y193000
X57500Y183000
Y203000
X67500Y213000
X77500Y222000
Y203000
X87500Y212000
Y192000
X97500Y182000
X77500
X67500Y193000
X27500Y233000
Y253000
X17500Y243000
Y223000
Y263000
Y283000
X27500Y273000
X96500Y142000
X106500Y151000
X116500Y142000
X107500Y293000
X97500Y303000
Y323000
X107500Y333000
Y313000
X87500
Y293000
X77500Y303000
Y323000
X87500Y333000
X67000Y333500
X57000Y343500
X57500Y323000
Y303000
X67500Y313000
Y293000
X27500
X17500Y303000
Y323000
X27000Y333500
Y353500
X17000Y343500
X27500Y313000
X157500Y303000
X177500
Y323000
X187500Y333000
Y313000
Y293000
X167500
Y313000
X157500Y323000
X167500Y333000
X250000Y291000
X277500Y291500
T02
X29760Y72260
X127760
X124500Y119000
X227000
X230760Y72260
X307500Y99500
Y205500
Y280000
X225000Y140500
X165937Y140437
T03
X44000Y83000
X26500Y119000
X142000Y83000
X245000
X315500Y119500
Y225500
X254000Y259000
X310476Y295024
T04
X76000Y71059
Y93500
Y111059
Y121059
X174437Y121559
Y111559
Y94000
Y71559
X277000Y71059
Y93500
Y111059
Y121059
X134500Y363500
X124500
X114500
X104500
X94500
Y373500
X104500
X114500
X124500
X134500
X144500
Y363500
X154500
X164500
Y373500
X154500
T05
X268000Y274000
Y284000
X294500
Y274000
T06
X208500Y183000
X218500
Y193000
Y203000
Y213000
Y223000
Y233000
Y243000
Y253000
Y263000
Y273000
Y283000
X208500
Y273000
Y263000
Y253000
Y243000
Y233000
Y223000
Y213000
Y203000
Y193000
X49209
Y183000
X39209
Y193000
Y203000
Y213000
Y223000
Y233000
Y243000
Y253000
Y263000
Y273000
Y283000
X49209
Y273000
Y263000
Y253000
Y243000
Y233000
Y223000
Y213000
Y203000
Y293000
X39209
Y303000
Y313000
Y323000
Y333000
Y343000
Y353000
Y363000
Y373000
X49209
Y363000
Y353000
Y343000
Y333000
Y323000
Y313000
Y303000
X208500
X218500
Y293000
X208500
Y313000
X218500
Y323000
Y333000
Y343000
Y353000
Y363000
Y373000
X208500
Y363000
Y353000
Y343000
Y333000
Y323000
T07
X185000Y258000
Y267500
Y277500
X240500Y241500
Y229500
Y218000
X268000Y314000
X294500
Y344000
X268000
T08
X49158Y6000
X68843
X147594Y6500
X167280
X249658Y6000
X269342
X362767Y58657
Y78342
X362767Y107658
Y127342
X362767Y165157
Y184843
Y214057
Y233742
Y276157
X287343Y373500
X267657
X312657
X332343
X362767Y344843
Y325157
X362767Y295843
T09
X0Y-0
X377953
X0Y377953
X377953
M30
