G04 Layer_Color=0*
%FSLAX26Y26*%
%MOIN*%
%TF.FileFunction,Plated,1,2,PTH,Drill*%
%TF.Part,Single*%
G01*
G75*
%TA.AperFunction,ComponentDrill*%
%ADD126C,0.040000*%
%ADD127R,0.137795X0.039370*%
%ADD128R,0.039370X0.137795*%
%ADD129C,0.049213*%
%ADD130C,0.035433*%
%ADD131C,0.062992*%
%ADD132C,0.030000*%
%TA.AperFunction,OtherDrill,Pad Free-7 (1850mil,2580mil)*%
%ADD133C,0.039370*%
%TA.AperFunction,OtherDrill,Pad Free-6 (1850mil,2675mil)*%
%ADD134C,0.039370*%
%TA.AperFunction,OtherDrill,Pad Free-5 (1850mil,2775mil)*%
%ADD135C,0.039370*%
%TA.AperFunction,ComponentDrill*%
%ADD136C,0.047244*%
%ADD137C,0.030000*%
%TA.AperFunction,OtherDrill,Pad Free-7 (2405mil,2415mil)*%
%ADD138C,0.039370*%
%TA.AperFunction,OtherDrill,Pad Free-7 (2405mil,2295mil)*%
%ADD139C,0.039370*%
%TA.AperFunction,OtherDrill,Pad Free-7 (2405mil,2180mil)*%
%ADD140C,0.039370*%
%TA.AperFunction,ComponentDrill*%
%ADD141C,0.047244*%
%ADD142C,0.031496*%
%ADD143C,0.039370*%
%TA.AperFunction,ViaDrill,NotFilled*%
%ADD144C,0.015000*%
%ADD145C,0.019685*%
%ADD146C,0.028000*%
%ADD147C,0.020000*%
D126*
X121000Y1704000D02*
D03*
Y1604000D02*
D03*
Y1504000D02*
D03*
D127*
X875000Y3308780D02*
D03*
Y3545000D02*
D03*
D128*
X689961Y3426890D02*
D03*
D129*
X3415000Y245000D02*
D03*
X3595000D02*
D03*
D130*
X3660000Y602874D02*
D03*
X3310000Y702874D02*
D03*
X3610000D02*
D03*
X3360000Y602874D02*
D03*
X3560000D02*
D03*
X3410000Y702874D02*
D03*
X3510000D02*
D03*
X3460000Y602874D02*
D03*
X481000Y1914000D02*
D03*
Y2014000D02*
D03*
Y2114000D02*
D03*
Y2214000D02*
D03*
Y2314000D02*
D03*
Y2414000D02*
D03*
Y2514000D02*
D03*
Y2614000D02*
D03*
Y2714000D02*
D03*
Y2814000D02*
D03*
Y2914000D02*
D03*
Y3014000D02*
D03*
Y3114000D02*
D03*
Y3214000D02*
D03*
Y3314000D02*
D03*
Y3414000D02*
D03*
Y3514000D02*
D03*
Y3614000D02*
D03*
Y3714000D02*
D03*
X381000Y1814000D02*
D03*
Y1914000D02*
D03*
Y2014000D02*
D03*
Y2114000D02*
D03*
Y2214000D02*
D03*
Y2314000D02*
D03*
Y2414000D02*
D03*
Y2514000D02*
D03*
Y2614000D02*
D03*
Y2714000D02*
D03*
Y2814000D02*
D03*
Y2914000D02*
D03*
Y3014000D02*
D03*
Y3114000D02*
D03*
Y3214000D02*
D03*
Y3314000D02*
D03*
Y3414000D02*
D03*
Y3514000D02*
D03*
Y3614000D02*
D03*
Y3714000D02*
D03*
X481000Y1814000D02*
D03*
X2073913Y3714000D02*
D03*
Y3614000D02*
D03*
Y3514000D02*
D03*
Y3414000D02*
D03*
Y3314000D02*
D03*
Y3214000D02*
D03*
Y3114000D02*
D03*
Y3014000D02*
D03*
Y2914000D02*
D03*
Y2814000D02*
D03*
Y2714000D02*
D03*
Y2614000D02*
D03*
Y2514000D02*
D03*
Y2414000D02*
D03*
Y2314000D02*
D03*
Y2214000D02*
D03*
Y2114000D02*
D03*
Y2014000D02*
D03*
Y1914000D02*
D03*
Y1814000D02*
D03*
X2173913Y3714000D02*
D03*
Y3614000D02*
D03*
Y3514000D02*
D03*
Y3414000D02*
D03*
Y3314000D02*
D03*
Y3214000D02*
D03*
Y3114000D02*
D03*
Y3014000D02*
D03*
Y2914000D02*
D03*
Y2814000D02*
D03*
Y2714000D02*
D03*
Y2614000D02*
D03*
Y2514000D02*
D03*
Y2414000D02*
D03*
Y2314000D02*
D03*
Y2214000D02*
D03*
Y2114000D02*
D03*
Y2014000D02*
D03*
Y1914000D02*
D03*
Y1814000D02*
D03*
D131*
X3179882Y172953D02*
D03*
X3790118D02*
D03*
D132*
X1636000Y3730000D02*
D03*
X1736000D02*
D03*
X1136000D02*
D03*
X1236000D02*
D03*
X1336000D02*
D03*
X1436000D02*
D03*
X1536000D02*
D03*
X1836000D02*
D03*
X1636000Y3630000D02*
D03*
X1736000D02*
D03*
X1136000D02*
D03*
X1236000D02*
D03*
X1336000D02*
D03*
X1436000D02*
D03*
X1536000D02*
D03*
X1836000D02*
D03*
D133*
X1850000Y2580000D02*
D03*
D134*
Y2675000D02*
D03*
D135*
Y2775000D02*
D03*
D136*
X491575Y60000D02*
D03*
X688425D02*
D03*
X1475945Y65000D02*
D03*
X1672795D02*
D03*
X2496575Y60000D02*
D03*
X2693425D02*
D03*
X3126575Y3735000D02*
D03*
X3323425D02*
D03*
X2676575D02*
D03*
X2873425D02*
D03*
D137*
X2770000Y1210591D02*
D03*
Y1110591D02*
D03*
Y935000D02*
D03*
Y710591D02*
D03*
X760000Y1210591D02*
D03*
Y1110591D02*
D03*
Y935000D02*
D03*
Y710591D02*
D03*
X1744370Y1215591D02*
D03*
Y1115591D02*
D03*
Y940000D02*
D03*
Y715591D02*
D03*
D138*
X2405000Y2415000D02*
D03*
D139*
Y2295000D02*
D03*
D140*
Y2180000D02*
D03*
D141*
X3705000Y1923425D02*
D03*
Y1726575D02*
D03*
Y2531850D02*
D03*
Y2335000D02*
D03*
X3705000Y3143425D02*
D03*
Y2946575D02*
D03*
D142*
X2680000Y2740000D02*
D03*
Y2840000D02*
D03*
X2945000Y2740000D02*
D03*
Y2840000D02*
D03*
D143*
X2680000Y3140000D02*
D03*
Y3440000D02*
D03*
X2945000Y3140000D02*
D03*
Y3440000D02*
D03*
D144*
X783000Y2145000D02*
D03*
X863000Y2152500D02*
D03*
X589000Y2143500D02*
D03*
X89000Y3515000D02*
D03*
X470000Y1721000D02*
D03*
X861000Y1835000D02*
D03*
X134000Y1819599D02*
D03*
X1575000Y2430000D02*
D03*
X1475000Y2530000D02*
D03*
X1375000Y2630000D02*
D03*
X1175000Y2830000D02*
D03*
X1275000Y2730000D02*
D03*
X247000Y3222000D02*
D03*
Y3030000D02*
D03*
X3155000Y415000D02*
D03*
Y565000D02*
D03*
Y730000D02*
D03*
X3300000Y885000D02*
D03*
X3710000Y530000D02*
D03*
X3490000Y955000D02*
D03*
X3590000Y455000D02*
D03*
X3390000D02*
D03*
X3790000D02*
D03*
Y655000D02*
D03*
Y855000D02*
D03*
X3590000D02*
D03*
Y1055000D02*
D03*
X3790000D02*
D03*
X3820000Y1105000D02*
D03*
X3675000Y1250000D02*
D03*
X3820000Y1350000D02*
D03*
Y1430000D02*
D03*
X3690000Y1025000D02*
D03*
X240000Y2655000D02*
D03*
X275000Y2730000D02*
D03*
Y2930000D02*
D03*
X181000Y2356000D02*
D03*
X275000Y2530000D02*
D03*
Y1930000D02*
D03*
Y2130000D02*
D03*
X107000Y1340000D02*
D03*
X270000Y1525000D02*
D03*
Y1725000D02*
D03*
X575000Y1629000D02*
D03*
X670000Y1525000D02*
D03*
X825000Y1624000D02*
D03*
X675000Y1930000D02*
D03*
X575000Y2030000D02*
D03*
X775000Y2430000D02*
D03*
X575000D02*
D03*
X775000Y2830000D02*
D03*
X675000Y2730000D02*
D03*
Y2930000D02*
D03*
X575000Y2830000D02*
D03*
X270000Y3335000D02*
D03*
Y3535000D02*
D03*
X575000Y2630000D02*
D03*
X675000Y3130000D02*
D03*
X575000Y3230000D02*
D03*
X570000Y3435000D02*
D03*
X575000Y3030000D02*
D03*
Y2230000D02*
D03*
Y1830000D02*
D03*
X779000Y2651000D02*
D03*
X775000Y3030000D02*
D03*
X875000Y2730000D02*
D03*
Y2930000D02*
D03*
Y2530000D02*
D03*
X631000Y2304000D02*
D03*
X875000Y2320000D02*
D03*
X873000Y2106000D02*
D03*
X875000Y1920000D02*
D03*
X893000Y1722000D02*
D03*
X1070000Y1715000D02*
D03*
X1075000Y1920000D02*
D03*
Y2120000D02*
D03*
Y2320000D02*
D03*
X975000Y2220000D02*
D03*
X1075000Y2530000D02*
D03*
Y2930000D02*
D03*
Y2730000D02*
D03*
Y3130000D02*
D03*
Y3330000D02*
D03*
X975000Y3030000D02*
D03*
Y2630000D02*
D03*
Y2830000D02*
D03*
Y2430000D02*
D03*
X1037000Y1992000D02*
D03*
X970000Y1625000D02*
D03*
X1270000Y1715000D02*
D03*
X1275000Y1920000D02*
D03*
Y2120000D02*
D03*
Y2320000D02*
D03*
X1175000Y1820000D02*
D03*
Y2220000D02*
D03*
Y2430000D02*
D03*
Y2030000D02*
D03*
X1170000Y1625000D02*
D03*
X1470000Y1715000D02*
D03*
X1475000Y1920000D02*
D03*
Y2120000D02*
D03*
Y2320000D02*
D03*
X1375000Y1820000D02*
D03*
Y2220000D02*
D03*
Y2030000D02*
D03*
X1370000Y1625000D02*
D03*
X1575000Y1820000D02*
D03*
Y2220000D02*
D03*
X1675000Y2930000D02*
D03*
Y3130000D02*
D03*
Y3330000D02*
D03*
X1575000Y3230000D02*
D03*
Y3030000D02*
D03*
Y2030000D02*
D03*
X1570000Y1625000D02*
D03*
X1875000Y2930000D02*
D03*
Y3130000D02*
D03*
Y3330000D02*
D03*
X1775000Y3230000D02*
D03*
Y3030000D02*
D03*
X2725000Y2470000D02*
D03*
X2775000Y2915000D02*
D03*
X2500000Y2910000D02*
D03*
X2945000Y2670000D02*
D03*
X2525000Y2475000D02*
D03*
X2335000Y2735000D02*
D03*
X2475000Y1930000D02*
D03*
X2370000Y2035000D02*
D03*
X2675000Y1930000D02*
D03*
X2570000Y2035000D02*
D03*
X2575000Y1630000D02*
D03*
X2570000Y1835000D02*
D03*
X2470000Y1735000D02*
D03*
X2775000Y1630000D02*
D03*
X2769000Y1856000D02*
D03*
X2670000Y1735000D02*
D03*
X2570000Y2236028D02*
D03*
X2885000Y2355000D02*
D03*
X2980000Y2425000D02*
D03*
X3005000Y2525000D02*
D03*
X2880000Y2140000D02*
D03*
X2770000Y2035000D02*
D03*
X2870000Y1935000D02*
D03*
X2970000Y1835000D02*
D03*
X2875000Y1530000D02*
D03*
X2675000D02*
D03*
X2775000Y1430000D02*
D03*
X2875000Y1330000D02*
D03*
X2375000Y1830000D02*
D03*
X2370000Y1635000D02*
D03*
X2475000Y1530000D02*
D03*
X2270000Y1535000D02*
D03*
X2175000Y1630000D02*
D03*
X3150000Y2800000D02*
D03*
X2335000Y2590000D02*
D03*
X3185000Y2620000D02*
D03*
X2975000Y1085000D02*
D03*
X2670000Y2135000D02*
D03*
X2770000Y2236028D02*
D03*
X2675000Y2355000D02*
D03*
X2475000D02*
D03*
X1175000Y2630000D02*
D03*
X1275000Y2530000D02*
D03*
X1375000Y2430000D02*
D03*
X1675000Y2120000D02*
D03*
Y1930000D02*
D03*
Y1720000D02*
D03*
X1875000Y1920000D02*
D03*
Y2120000D02*
D03*
X1975000Y2220000D02*
D03*
X1875000Y1720000D02*
D03*
X1970000Y1625000D02*
D03*
X1975000Y1830000D02*
D03*
Y2040000D02*
D03*
X1875000Y2320000D02*
D03*
X1670000Y1535000D02*
D03*
X1065000Y1509999D02*
D03*
X965000Y1419999D02*
D03*
X1165000D02*
D03*
D145*
X841000Y1676000D02*
D03*
X732000Y1673000D02*
D03*
X827000Y2380000D02*
D03*
Y2486000D02*
D03*
D146*
X3119000Y3087000D02*
D03*
X2790000Y1800000D02*
D03*
X2839000Y1754000D02*
D03*
X265000Y1190000D02*
D03*
X2450000Y830000D02*
D03*
X1420000D02*
D03*
X440000D02*
D03*
X3180000Y2530000D02*
D03*
Y1920000D02*
D03*
X2540000Y2590000D02*
D03*
D147*
X3095000Y1439000D02*
D03*
Y2085000D02*
D03*
Y2330000D02*
D03*
Y1720000D02*
D03*
X2250000Y1405000D02*
D03*
X1659370Y1404370D02*
D03*
X1245000Y1190000D02*
D03*
X2270000D02*
D03*
X2307598Y722598D02*
D03*
X1277598D02*
D03*
X297598D02*
D03*
X3095000Y2940000D02*
D03*
%TF.MD5,d26500dd51f0e1c0d8a4d53e35330501*%
M02*
