G04 Layer_Color=0*
%FSLAX26Y26*%
%MOIN*%
%TF.FileFunction,Plated,1,2,PTH,Drill*%
%TF.Part,Single*%
G01*
G75*
%TA.AperFunction,ComponentDrill*%
%ADD78C,0.030000*%
%ADD79C,0.039370*%
%ADD80C,0.031496*%
%ADD81C,0.047244*%
%ADD82C,0.047244*%
%TA.AperFunction,OtherDrill,Pad Free-7 (2405mil,2180mil)*%
%ADD83C,0.039370*%
%TA.AperFunction,OtherDrill,Pad Free-7 (2405mil,2295mil)*%
%ADD84C,0.039370*%
%TA.AperFunction,OtherDrill,Pad Free-7 (2405mil,2415mil)*%
%ADD85C,0.039370*%
%TA.AperFunction,ComponentDrill*%
%ADD86C,0.035433*%
%ADD87C,0.030000*%
%TA.AperFunction,OtherDrill,Pad Free-5 (1850mil,2775mil)*%
%ADD88C,0.039370*%
%TA.AperFunction,OtherDrill,Pad Free-6 (1850mil,2675mil)*%
%ADD89C,0.039370*%
%TA.AperFunction,OtherDrill,Pad Free-7 (1850mil,2580mil)*%
%ADD90C,0.039370*%
%TA.AperFunction,ViaDrill,NotFilled*%
%ADD91C,0.015000*%
%ADD92C,0.028000*%
%ADD93C,0.020000*%
D78*
X1645000Y3635000D02*
D03*
X1345000D02*
D03*
X1245000D02*
D03*
X1145000D02*
D03*
X1045000D02*
D03*
X945000D02*
D03*
X1545000D02*
D03*
X1445000D02*
D03*
X1645000Y3735000D02*
D03*
X1345000D02*
D03*
X1245000D02*
D03*
X1145000D02*
D03*
X1045000D02*
D03*
X945000D02*
D03*
X1545000D02*
D03*
X1445000D02*
D03*
D79*
X2945000Y3440000D02*
D03*
Y3140000D02*
D03*
X2680000Y3440000D02*
D03*
Y3140000D02*
D03*
D80*
X2945000Y2840000D02*
D03*
Y2740000D02*
D03*
X2680000Y2840000D02*
D03*
Y2740000D02*
D03*
D81*
X2873425Y3735000D02*
D03*
X2676575D02*
D03*
X3323425D02*
D03*
X3126575D02*
D03*
X2693425Y60000D02*
D03*
X2496575D02*
D03*
X1672795Y65000D02*
D03*
X1475945D02*
D03*
X688425Y60000D02*
D03*
X491575D02*
D03*
D82*
X3627665Y3448425D02*
D03*
Y3251575D02*
D03*
X3627666Y2958425D02*
D03*
Y2761575D02*
D03*
Y2337425D02*
D03*
Y2140575D02*
D03*
Y1848425D02*
D03*
Y1651575D02*
D03*
X3627665Y1273425D02*
D03*
Y1076575D02*
D03*
X3627665Y783425D02*
D03*
Y586575D02*
D03*
D83*
X2405000Y2180000D02*
D03*
D84*
Y2295000D02*
D03*
D85*
Y2415000D02*
D03*
D86*
X2185000Y1830000D02*
D03*
Y1930000D02*
D03*
Y2030000D02*
D03*
Y2130000D02*
D03*
Y2230000D02*
D03*
Y2330000D02*
D03*
Y2430000D02*
D03*
Y2530000D02*
D03*
Y2630000D02*
D03*
Y2730000D02*
D03*
Y2830000D02*
D03*
Y2930000D02*
D03*
Y3030000D02*
D03*
Y3130000D02*
D03*
Y3230000D02*
D03*
Y3330000D02*
D03*
Y3430000D02*
D03*
Y3530000D02*
D03*
Y3630000D02*
D03*
Y3730000D02*
D03*
X2085000Y1830000D02*
D03*
Y1930000D02*
D03*
Y2030000D02*
D03*
Y2130000D02*
D03*
Y2230000D02*
D03*
Y2330000D02*
D03*
Y2430000D02*
D03*
Y2530000D02*
D03*
Y2630000D02*
D03*
Y2730000D02*
D03*
Y2830000D02*
D03*
Y2930000D02*
D03*
Y3030000D02*
D03*
Y3130000D02*
D03*
Y3230000D02*
D03*
Y3330000D02*
D03*
Y3430000D02*
D03*
Y3530000D02*
D03*
Y3630000D02*
D03*
Y3730000D02*
D03*
X492087Y1830000D02*
D03*
X392087Y3730000D02*
D03*
Y3630000D02*
D03*
Y3530000D02*
D03*
Y3430000D02*
D03*
Y3330000D02*
D03*
Y3230000D02*
D03*
Y3130000D02*
D03*
Y3030000D02*
D03*
Y2930000D02*
D03*
Y2830000D02*
D03*
Y2730000D02*
D03*
Y2630000D02*
D03*
Y2530000D02*
D03*
Y2430000D02*
D03*
Y2330000D02*
D03*
Y2230000D02*
D03*
Y2130000D02*
D03*
Y2030000D02*
D03*
Y1930000D02*
D03*
Y1830000D02*
D03*
X492087Y3730000D02*
D03*
Y3630000D02*
D03*
Y3530000D02*
D03*
Y3430000D02*
D03*
Y3330000D02*
D03*
Y3230000D02*
D03*
Y3130000D02*
D03*
Y3030000D02*
D03*
Y2930000D02*
D03*
Y2830000D02*
D03*
Y2730000D02*
D03*
Y2630000D02*
D03*
Y2530000D02*
D03*
Y2430000D02*
D03*
Y2330000D02*
D03*
Y2230000D02*
D03*
Y2130000D02*
D03*
Y2030000D02*
D03*
Y1930000D02*
D03*
D87*
X1744370Y715591D02*
D03*
Y940000D02*
D03*
Y1115591D02*
D03*
Y1215591D02*
D03*
X760000Y710591D02*
D03*
Y935000D02*
D03*
Y1110591D02*
D03*
Y1210591D02*
D03*
X2770000Y710591D02*
D03*
Y935000D02*
D03*
Y1110591D02*
D03*
Y1210591D02*
D03*
D88*
X1850000Y2775000D02*
D03*
D89*
Y2675000D02*
D03*
D90*
Y2580000D02*
D03*
D91*
X1165000Y1419999D02*
D03*
X965000D02*
D03*
X1065000Y1509999D02*
D03*
X1670000Y1535000D02*
D03*
X1875000Y2320000D02*
D03*
X1975000Y2040000D02*
D03*
Y1830000D02*
D03*
X1970000Y1625000D02*
D03*
X1875000Y1720000D02*
D03*
X1975000Y2220000D02*
D03*
X1875000Y2120000D02*
D03*
Y1920000D02*
D03*
X1675000Y1720000D02*
D03*
Y1930000D02*
D03*
Y2120000D02*
D03*
X1375000Y2430000D02*
D03*
X1275000Y2530000D02*
D03*
X1175000Y2630000D02*
D03*
X2475000Y2355000D02*
D03*
X2675000D02*
D03*
X2770000Y2236028D02*
D03*
X2670000Y2135000D02*
D03*
X3170000Y1435000D02*
D03*
Y1635000D02*
D03*
X3165000Y1840000D02*
D03*
X3160000Y2480000D02*
D03*
X2335000Y2590000D02*
D03*
X3125000Y2660000D02*
D03*
X2175000Y1630000D02*
D03*
X2275000Y1730000D02*
D03*
X2270000Y1535000D02*
D03*
X2475000Y1530000D02*
D03*
X2370000Y1635000D02*
D03*
X2375000Y1830000D02*
D03*
X2875000Y1330000D02*
D03*
X2775000Y1430000D02*
D03*
X2675000Y1530000D02*
D03*
X2975000Y1430000D02*
D03*
X2875000Y1530000D02*
D03*
X2970000Y1635000D02*
D03*
X2870000Y1735000D02*
D03*
X2970000Y1835000D02*
D03*
X2870000Y1935000D02*
D03*
X2770000Y2035000D02*
D03*
X2880000Y2140000D02*
D03*
X3005000Y2525000D02*
D03*
X2980000Y2425000D02*
D03*
X2885000Y2355000D02*
D03*
X2570000Y2236028D02*
D03*
X2670000Y1735000D02*
D03*
X2770000Y1835000D02*
D03*
X2775000Y1630000D02*
D03*
X2470000Y1735000D02*
D03*
X2570000Y1835000D02*
D03*
X2575000Y1630000D02*
D03*
X2570000Y2035000D02*
D03*
X2675000Y1930000D02*
D03*
X2370000Y2035000D02*
D03*
X2475000Y1930000D02*
D03*
X2335000Y2735000D02*
D03*
X2525000Y2475000D02*
D03*
X2945000Y2670000D02*
D03*
X2500000Y2910000D02*
D03*
X2775000Y2915000D02*
D03*
X2725000Y2470000D02*
D03*
X1775000Y3030000D02*
D03*
Y3230000D02*
D03*
X1875000Y3330000D02*
D03*
Y3130000D02*
D03*
Y2930000D02*
D03*
X1570000Y1625000D02*
D03*
X1575000Y2030000D02*
D03*
Y3030000D02*
D03*
Y3230000D02*
D03*
X1675000Y3330000D02*
D03*
Y3130000D02*
D03*
Y2930000D02*
D03*
X1575000Y2220000D02*
D03*
Y1820000D02*
D03*
X1370000Y1625000D02*
D03*
X1375000Y2030000D02*
D03*
Y2220000D02*
D03*
Y1820000D02*
D03*
X1475000Y2320000D02*
D03*
Y2120000D02*
D03*
Y1920000D02*
D03*
X1470000Y1715000D02*
D03*
X1170000Y1625000D02*
D03*
X1175000Y2030000D02*
D03*
Y2430000D02*
D03*
Y2220000D02*
D03*
Y1820000D02*
D03*
X1275000Y2320000D02*
D03*
Y2120000D02*
D03*
Y1920000D02*
D03*
X1270000Y1715000D02*
D03*
X970000Y1625000D02*
D03*
X975000Y2030000D02*
D03*
Y2430000D02*
D03*
Y2830000D02*
D03*
Y2630000D02*
D03*
Y3030000D02*
D03*
Y3230000D02*
D03*
X1075000Y3330000D02*
D03*
Y3130000D02*
D03*
Y2730000D02*
D03*
Y2930000D02*
D03*
Y2530000D02*
D03*
X975000Y2220000D02*
D03*
Y1820000D02*
D03*
X1075000Y2320000D02*
D03*
Y2120000D02*
D03*
Y1920000D02*
D03*
X1070000Y1715000D02*
D03*
X870000D02*
D03*
X875000Y1920000D02*
D03*
Y2120000D02*
D03*
Y2320000D02*
D03*
X775000Y1820000D02*
D03*
Y2220000D02*
D03*
X875000Y2530000D02*
D03*
Y2930000D02*
D03*
Y2730000D02*
D03*
Y3130000D02*
D03*
Y3330000D02*
D03*
X775000Y3230000D02*
D03*
Y3030000D02*
D03*
Y2630000D02*
D03*
X575000Y1830000D02*
D03*
Y2230000D02*
D03*
Y3030000D02*
D03*
X570000Y3435000D02*
D03*
X670000Y3335000D02*
D03*
X575000Y3230000D02*
D03*
X675000Y3130000D02*
D03*
X575000Y2630000D02*
D03*
X270000Y3535000D02*
D03*
Y3335000D02*
D03*
X170000Y3435000D02*
D03*
X175000Y3230000D02*
D03*
Y3030000D02*
D03*
X275000Y3130000D02*
D03*
X575000Y2830000D02*
D03*
X675000Y2930000D02*
D03*
Y2730000D02*
D03*
X775000Y2830000D02*
D03*
X575000Y2430000D02*
D03*
X675000Y2530000D02*
D03*
Y2330000D02*
D03*
X775000Y2430000D02*
D03*
X575000Y2030000D02*
D03*
X675000Y2130000D02*
D03*
Y1930000D02*
D03*
X775000Y2030000D02*
D03*
X770000Y1625000D02*
D03*
X670000Y1525000D02*
D03*
Y1725000D02*
D03*
X570000Y1625000D02*
D03*
X470000Y1525000D02*
D03*
Y1725000D02*
D03*
X370000Y1625000D02*
D03*
X270000Y1725000D02*
D03*
X170000Y1625000D02*
D03*
X270000Y1525000D02*
D03*
X170000Y1425000D02*
D03*
X275000Y2130000D02*
D03*
X175000Y2030000D02*
D03*
X275000Y1930000D02*
D03*
X175000Y1830000D02*
D03*
X275000Y2530000D02*
D03*
X175000Y2430000D02*
D03*
X275000Y2330000D02*
D03*
X175000Y2230000D02*
D03*
X275000Y2930000D02*
D03*
X175000Y2830000D02*
D03*
X275000Y2730000D02*
D03*
X175000Y2630000D02*
D03*
D92*
X2540000Y2590000D02*
D03*
X3104764Y2950236D02*
D03*
X3155000Y1195000D02*
D03*
Y2255000D02*
D03*
X440000Y830000D02*
D03*
X1420000D02*
D03*
X2450000D02*
D03*
X265000Y1190000D02*
D03*
D93*
X3075000Y2800000D02*
D03*
Y2055000D02*
D03*
Y995000D02*
D03*
X297598Y722598D02*
D03*
X1277598D02*
D03*
X2307598D02*
D03*
X2270000Y1190000D02*
D03*
X1245000D02*
D03*
X1659370Y1404370D02*
D03*
X2250000Y1405000D02*
D03*
%TF.MD5,b22a2fe4f704377788fdad37edf1c29e*%
M02*
