G04 Layer_Color=255*
%FSLAX26Y26*%
%MOIN*%
%TF.FileFunction,Pads,Bot*%
%TF.Part,Single*%
G01*
G75*
%TA.AperFunction,ComponentPad*%
%ADD41O,0.120000X0.060000*%
%ADD42R,0.120000X0.060000*%
%ADD43O,0.196850X0.098425*%
%ADD44O,0.098425X0.196850*%
%ADD45C,0.098425*%
%ADD46R,0.055118X0.055118*%
%ADD47C,0.055118*%
%ADD48C,0.124016*%
%ADD49C,0.094488*%
%ADD50C,0.060000*%
%ADD51R,0.060000X0.060000*%
%TA.AperFunction,WasherPad*%
%ADD52C,0.060000*%
%TA.AperFunction,ViaPad*%
%ADD53O,0.078740X0.070866*%
%TA.AperFunction,ComponentPad*%
%ADD54R,0.118110X0.118110*%
%ADD55C,0.118110*%
%ADD56C,0.059055*%
%ADD57R,0.059055X0.059055*%
%ADD58R,0.118110X0.118110*%
%ADD59C,0.078740*%
D41*
X121000Y1704000D02*
D03*
Y1604000D02*
D03*
D42*
Y1504000D02*
D03*
D43*
X875000Y3308780D02*
D03*
Y3545000D02*
D03*
D44*
X689961Y3426890D02*
D03*
D45*
X3415000Y245000D02*
D03*
X3595000D02*
D03*
D46*
X3660000Y602874D02*
D03*
D47*
X3310000Y702874D02*
D03*
X3610000D02*
D03*
X3360000Y602874D02*
D03*
X3560000D02*
D03*
X3410000Y702874D02*
D03*
X3510000D02*
D03*
X3460000Y602874D02*
D03*
D48*
X3260000Y352874D02*
D03*
X3710000D02*
D03*
D49*
X3179882Y172953D02*
D03*
X3790118D02*
D03*
D50*
X1636000Y3730000D02*
D03*
X1736000D02*
D03*
X1136000D02*
D03*
X1236000D02*
D03*
X1336000D02*
D03*
X1436000D02*
D03*
X1536000D02*
D03*
X1636000Y3630000D02*
D03*
X1736000D02*
D03*
X1136000D02*
D03*
X1236000D02*
D03*
X1336000D02*
D03*
X1436000D02*
D03*
X1536000D02*
D03*
X2770000Y1210591D02*
D03*
Y1110591D02*
D03*
Y935000D02*
D03*
Y710591D02*
D03*
X760000Y1210591D02*
D03*
Y1110591D02*
D03*
Y935000D02*
D03*
Y710591D02*
D03*
X1744370Y1215591D02*
D03*
Y1115591D02*
D03*
Y940000D02*
D03*
Y715591D02*
D03*
D51*
X1836000Y3730000D02*
D03*
Y3630000D02*
D03*
D52*
X3779526Y1220000D02*
D03*
X1Y-0D02*
D03*
Y3779528D02*
D03*
X3779527Y-0D02*
D03*
Y3779528D02*
D03*
D53*
X1850000Y2580000D02*
D03*
Y2675000D02*
D03*
Y2775000D02*
D03*
X2405000Y2415000D02*
D03*
Y2295000D02*
D03*
Y2180000D02*
D03*
D54*
X491575Y60000D02*
D03*
X1475945Y65000D02*
D03*
X2496575Y60000D02*
D03*
X3323425Y3735000D02*
D03*
X2873425D02*
D03*
D55*
X688425Y60000D02*
D03*
X1672795Y65000D02*
D03*
X2693425Y60000D02*
D03*
X3705000Y1726575D02*
D03*
Y2335000D02*
D03*
X3705000Y2946575D02*
D03*
X3126575Y3735000D02*
D03*
X2676575D02*
D03*
D56*
X481000Y1914000D02*
D03*
Y2014000D02*
D03*
Y2114000D02*
D03*
Y2214000D02*
D03*
Y2314000D02*
D03*
Y2414000D02*
D03*
Y2514000D02*
D03*
Y2614000D02*
D03*
Y2714000D02*
D03*
Y2814000D02*
D03*
Y2914000D02*
D03*
Y3014000D02*
D03*
Y3114000D02*
D03*
Y3214000D02*
D03*
Y3314000D02*
D03*
Y3414000D02*
D03*
Y3514000D02*
D03*
Y3614000D02*
D03*
Y3714000D02*
D03*
X381000Y1814000D02*
D03*
Y1914000D02*
D03*
Y2014000D02*
D03*
Y2114000D02*
D03*
Y2214000D02*
D03*
Y2314000D02*
D03*
Y2414000D02*
D03*
Y2514000D02*
D03*
Y2614000D02*
D03*
Y2714000D02*
D03*
Y2814000D02*
D03*
Y2914000D02*
D03*
Y3014000D02*
D03*
Y3114000D02*
D03*
Y3214000D02*
D03*
Y3314000D02*
D03*
Y3414000D02*
D03*
Y3514000D02*
D03*
Y3614000D02*
D03*
Y3714000D02*
D03*
X481000Y1814000D02*
D03*
X2073913Y3714000D02*
D03*
Y3614000D02*
D03*
Y3514000D02*
D03*
Y3414000D02*
D03*
Y3314000D02*
D03*
Y3214000D02*
D03*
Y3114000D02*
D03*
Y3014000D02*
D03*
Y2914000D02*
D03*
Y2814000D02*
D03*
Y2714000D02*
D03*
Y2614000D02*
D03*
Y2514000D02*
D03*
Y2414000D02*
D03*
Y2314000D02*
D03*
Y2214000D02*
D03*
Y2114000D02*
D03*
Y2014000D02*
D03*
Y1914000D02*
D03*
Y1814000D02*
D03*
X2173913Y3714000D02*
D03*
Y3614000D02*
D03*
Y3514000D02*
D03*
Y3414000D02*
D03*
Y3314000D02*
D03*
Y3214000D02*
D03*
Y3114000D02*
D03*
Y3014000D02*
D03*
Y2914000D02*
D03*
Y2814000D02*
D03*
Y2714000D02*
D03*
Y2614000D02*
D03*
Y2514000D02*
D03*
Y2414000D02*
D03*
Y2314000D02*
D03*
Y2214000D02*
D03*
Y2114000D02*
D03*
Y2014000D02*
D03*
Y1914000D02*
D03*
X2680000Y2740000D02*
D03*
Y2840000D02*
D03*
X2945000Y2740000D02*
D03*
Y2840000D02*
D03*
D57*
X2173913Y1814000D02*
D03*
D58*
X3705000Y1923425D02*
D03*
Y2531850D02*
D03*
X3705000Y3143425D02*
D03*
D59*
X2680000Y3140000D02*
D03*
Y3440000D02*
D03*
X2945000Y3140000D02*
D03*
Y3440000D02*
D03*
%TF.MD5,c1388f163cc8b13b66ad70071f2ea481*%
M02*
