G04 Layer_Color=255*
%FSLAX26Y26*%
%MOIN*%
%TF.FileFunction,Pads,Top*%
%TF.Part,Single*%
G01*
G75*
%TA.AperFunction,SMDPad,CuDef*%
%ADD10O,0.070866X0.025591*%
%ADD11R,0.059055X0.055118*%
%ADD12O,0.070866X0.023622*%
%ADD13R,0.055118X0.059055*%
%ADD14R,0.062992X0.059055*%
%ADD15R,0.059055X0.062992*%
%ADD16R,0.023622X0.070866*%
%ADD17O,0.023622X0.070866*%
%TA.AperFunction,ComponentPad*%
%ADD27R,0.060000X0.060000*%
%ADD28C,0.060000*%
%ADD29C,0.078740*%
%ADD30C,0.059055*%
%ADD31R,0.118110X0.118110*%
%ADD32C,0.118110*%
%ADD33R,0.118110X0.118110*%
%TA.AperFunction,ViaPad*%
%ADD34O,0.078740X0.070866*%
%TA.AperFunction,WasherPad*%
%ADD35C,0.060000*%
%TA.AperFunction,ComponentPad*%
%ADD36R,0.059055X0.059055*%
D10*
X3375236Y995000D02*
D03*
Y1045000D02*
D03*
Y1095000D02*
D03*
Y1145000D02*
D03*
X3154764Y995000D02*
D03*
Y1045000D02*
D03*
Y1095000D02*
D03*
Y1145000D02*
D03*
X3375236Y2055000D02*
D03*
Y2105000D02*
D03*
Y2155000D02*
D03*
Y2205000D02*
D03*
X3154764Y2055000D02*
D03*
Y2105000D02*
D03*
Y2155000D02*
D03*
Y2205000D02*
D03*
X3375236Y2800000D02*
D03*
Y2850000D02*
D03*
Y2900000D02*
D03*
Y2950000D02*
D03*
X3154764Y2800000D02*
D03*
Y2850000D02*
D03*
Y2900000D02*
D03*
Y2950000D02*
D03*
D11*
X2860000Y2749370D02*
D03*
Y2670630D02*
D03*
X2770000Y2749370D02*
D03*
Y2670630D02*
D03*
X1921772Y279370D02*
D03*
Y200630D02*
D03*
X1249370Y279370D02*
D03*
Y200630D02*
D03*
X2954370Y254370D02*
D03*
Y175630D02*
D03*
X2255000Y274370D02*
D03*
Y195630D02*
D03*
X325000Y1404370D02*
D03*
Y1325630D02*
D03*
X1488333Y1404370D02*
D03*
Y1325630D02*
D03*
X1585000Y1325630D02*
D03*
Y1404370D02*
D03*
X1295000Y1404370D02*
D03*
Y1325630D02*
D03*
X257461Y274370D02*
D03*
Y195630D02*
D03*
X949862Y274370D02*
D03*
Y195630D02*
D03*
X518333Y1404370D02*
D03*
Y1325630D02*
D03*
X615000Y1325630D02*
D03*
Y1404370D02*
D03*
X2310000Y1325630D02*
D03*
Y1404370D02*
D03*
X2409820Y1404370D02*
D03*
Y1325630D02*
D03*
X2509640Y1404370D02*
D03*
Y1325630D02*
D03*
D12*
X2405669Y2690000D02*
D03*
Y2640000D02*
D03*
Y2590000D02*
D03*
Y2540000D02*
D03*
X2614331Y2690000D02*
D03*
Y2640000D02*
D03*
Y2590000D02*
D03*
Y2540000D02*
D03*
D13*
X1540000Y675000D02*
D03*
X1618740D02*
D03*
X1745000Y310000D02*
D03*
X1823740D02*
D03*
X1823740Y445000D02*
D03*
X1745000D02*
D03*
X1745000Y580000D02*
D03*
X1823740D02*
D03*
X1923740Y65000D02*
D03*
X1845000D02*
D03*
X1424370Y580000D02*
D03*
X1345630D02*
D03*
X1345000Y445000D02*
D03*
X1423740D02*
D03*
X1423740Y310000D02*
D03*
X1345000D02*
D03*
X1250000Y65000D02*
D03*
X1328740D02*
D03*
X2565630Y660000D02*
D03*
X2644370D02*
D03*
X2954370Y60000D02*
D03*
X2875630D02*
D03*
X2780630Y305000D02*
D03*
X2859370D02*
D03*
X2859370Y440000D02*
D03*
X2780630D02*
D03*
X2780630Y575000D02*
D03*
X2859370D02*
D03*
X2253031Y60000D02*
D03*
X2331772D02*
D03*
X2429370Y305000D02*
D03*
X2350630D02*
D03*
X2350630Y440000D02*
D03*
X2429370D02*
D03*
X2429370Y575000D02*
D03*
X2350630D02*
D03*
X255492Y60000D02*
D03*
X334232D02*
D03*
X951831D02*
D03*
X873091D02*
D03*
X770630Y305000D02*
D03*
X849370D02*
D03*
X434370D02*
D03*
X355630D02*
D03*
X355630Y448933D02*
D03*
X434370D02*
D03*
X434370Y566067D02*
D03*
X355630D02*
D03*
X849370Y448933D02*
D03*
X770630D02*
D03*
X770630Y566067D02*
D03*
X849370D02*
D03*
X560630Y650000D02*
D03*
X639370D02*
D03*
D14*
X1844370Y787598D02*
D03*
Y862402D02*
D03*
X1190000Y1192598D02*
D03*
Y1267401D02*
D03*
X845000Y787598D02*
D03*
Y862402D02*
D03*
X2860000Y767598D02*
D03*
Y842402D02*
D03*
X200000Y1192598D02*
D03*
Y1267401D02*
D03*
X1205000Y722598D02*
D03*
Y797402D02*
D03*
X2235000Y722598D02*
D03*
Y797402D02*
D03*
X1392206Y1400989D02*
D03*
Y1326186D02*
D03*
X225000Y722598D02*
D03*
Y797402D02*
D03*
X422206Y1403814D02*
D03*
Y1329011D02*
D03*
X2195000Y1192598D02*
D03*
Y1267401D02*
D03*
X2610000Y1400989D02*
D03*
Y1326186D02*
D03*
D15*
X1541968Y585000D02*
D03*
X1616772D02*
D03*
X562598Y565000D02*
D03*
X637402D02*
D03*
X2566186Y575539D02*
D03*
X2640989D02*
D03*
D16*
X305000Y765000D02*
D03*
X1295000D02*
D03*
X2320000D02*
D03*
D17*
X355000D02*
D03*
X405000D02*
D03*
X455000D02*
D03*
X305000Y1194134D02*
D03*
X355000D02*
D03*
X405000D02*
D03*
X455000D02*
D03*
X1345000Y765000D02*
D03*
X1395000D02*
D03*
X1445000D02*
D03*
X1295000Y1194134D02*
D03*
X1345000D02*
D03*
X1395000D02*
D03*
X1445000D02*
D03*
X2370000Y765000D02*
D03*
X2420000D02*
D03*
X2470000D02*
D03*
X2320000Y1194134D02*
D03*
X2370000D02*
D03*
X2420000D02*
D03*
X2470000D02*
D03*
D27*
X1645000Y3635000D02*
D03*
Y3735000D02*
D03*
D28*
X1345000Y3635000D02*
D03*
X1245000D02*
D03*
X1145000D02*
D03*
X1045000D02*
D03*
X945000D02*
D03*
X1545000D02*
D03*
X1445000D02*
D03*
X1345000Y3735000D02*
D03*
X1245000D02*
D03*
X1145000D02*
D03*
X1045000D02*
D03*
X945000D02*
D03*
X1545000D02*
D03*
X1445000D02*
D03*
X1744370Y715591D02*
D03*
Y940000D02*
D03*
Y1115591D02*
D03*
Y1215591D02*
D03*
X760000Y710591D02*
D03*
Y935000D02*
D03*
Y1110591D02*
D03*
Y1210591D02*
D03*
X2770000Y710591D02*
D03*
Y935000D02*
D03*
Y1110591D02*
D03*
Y1210591D02*
D03*
D29*
X2945000Y3440000D02*
D03*
Y3140000D02*
D03*
X2680000Y3440000D02*
D03*
Y3140000D02*
D03*
D30*
X2945000Y2840000D02*
D03*
Y2740000D02*
D03*
X2680000Y2840000D02*
D03*
Y2740000D02*
D03*
X2185000Y1930000D02*
D03*
Y2030000D02*
D03*
Y2130000D02*
D03*
Y2230000D02*
D03*
Y2330000D02*
D03*
Y2430000D02*
D03*
Y2530000D02*
D03*
Y2630000D02*
D03*
Y2730000D02*
D03*
Y2830000D02*
D03*
Y2930000D02*
D03*
Y3030000D02*
D03*
Y3130000D02*
D03*
Y3230000D02*
D03*
Y3330000D02*
D03*
Y3430000D02*
D03*
Y3530000D02*
D03*
Y3630000D02*
D03*
Y3730000D02*
D03*
X2085000Y1830000D02*
D03*
Y1930000D02*
D03*
Y2030000D02*
D03*
Y2130000D02*
D03*
Y2230000D02*
D03*
Y2330000D02*
D03*
Y2430000D02*
D03*
Y2530000D02*
D03*
Y2630000D02*
D03*
Y2730000D02*
D03*
Y2830000D02*
D03*
Y2930000D02*
D03*
Y3030000D02*
D03*
Y3130000D02*
D03*
Y3230000D02*
D03*
Y3330000D02*
D03*
Y3430000D02*
D03*
Y3530000D02*
D03*
Y3630000D02*
D03*
Y3730000D02*
D03*
X492087Y1830000D02*
D03*
X392087Y3730000D02*
D03*
Y3630000D02*
D03*
Y3530000D02*
D03*
Y3430000D02*
D03*
Y3330000D02*
D03*
Y3230000D02*
D03*
Y3130000D02*
D03*
Y3030000D02*
D03*
Y2930000D02*
D03*
Y2830000D02*
D03*
Y2730000D02*
D03*
Y2630000D02*
D03*
Y2530000D02*
D03*
Y2430000D02*
D03*
Y2330000D02*
D03*
Y2230000D02*
D03*
Y2130000D02*
D03*
Y2030000D02*
D03*
Y1930000D02*
D03*
Y1830000D02*
D03*
X492087Y3730000D02*
D03*
Y3630000D02*
D03*
Y3530000D02*
D03*
Y3430000D02*
D03*
Y3330000D02*
D03*
Y3230000D02*
D03*
Y3130000D02*
D03*
Y3030000D02*
D03*
Y2930000D02*
D03*
Y2830000D02*
D03*
Y2730000D02*
D03*
Y2630000D02*
D03*
Y2530000D02*
D03*
Y2430000D02*
D03*
Y2330000D02*
D03*
Y2230000D02*
D03*
Y2130000D02*
D03*
Y2030000D02*
D03*
Y1930000D02*
D03*
D31*
X2873425Y3735000D02*
D03*
X3323425D02*
D03*
X2496575Y60000D02*
D03*
X1475945Y65000D02*
D03*
X491575Y60000D02*
D03*
D32*
X2676575Y3735000D02*
D03*
X3126575D02*
D03*
X3627665Y3448425D02*
D03*
X3627666Y2958425D02*
D03*
Y2337425D02*
D03*
Y1848425D02*
D03*
X3627665Y1273425D02*
D03*
X3627665Y783425D02*
D03*
X2693425Y60000D02*
D03*
X1672795Y65000D02*
D03*
X688425Y60000D02*
D03*
D33*
X3627665Y3251575D02*
D03*
X3627666Y2761575D02*
D03*
Y2140575D02*
D03*
Y1651575D02*
D03*
X3627665Y1076575D02*
D03*
X3627665Y586575D02*
D03*
D34*
X2405000Y2180000D02*
D03*
Y2295000D02*
D03*
Y2415000D02*
D03*
X1850000Y2775000D02*
D03*
Y2675000D02*
D03*
Y2580000D02*
D03*
D35*
X3779527Y3779528D02*
D03*
Y-0D02*
D03*
X1Y3779528D02*
D03*
Y-0D02*
D03*
D36*
X2185000Y1830000D02*
D03*
%TF.MD5,723f728acc5786f336d772c4f6d9f1e9*%
M02*
