G04 Layer_Color=2752767*
%FSLAX26Y26*%
%MOIN*%
%TF.FileFunction,Drawing*%
%TF.Part,Single*%
G01*
G75*
%TA.AperFunction,NonConductor*%
%ADD69C,0.005000*%
%ADD95C,0.006667*%
D69*
X1625000Y3615000D02*
Y3655000D01*
X1665000D01*
Y3615000D01*
X1625000D01*
X1325000D02*
Y3655000D01*
X1365000D01*
Y3615000D01*
X1325000D01*
X1225000D02*
Y3655000D01*
X1265000D01*
Y3615000D01*
X1225000D01*
X1125000D02*
Y3655000D01*
X1165000D01*
Y3615000D01*
X1125000D01*
X1025000D02*
Y3655000D01*
X1065000D01*
Y3615000D01*
X1025000D01*
X925000D02*
Y3655000D01*
X965000D01*
Y3615000D01*
X925000D01*
X1525000D02*
Y3655000D01*
X1565000D01*
Y3615000D01*
X1525000D01*
X1425000D02*
Y3655000D01*
X1465000D01*
Y3615000D01*
X1425000D01*
X1625000Y3715000D02*
Y3755000D01*
X1665000D01*
Y3715000D01*
X1625000D01*
X1325000D02*
Y3755000D01*
X1365000D01*
Y3715000D01*
X1325000D01*
X1225000D02*
Y3755000D01*
X1265000D01*
Y3715000D01*
X1225000D01*
X1125000D02*
Y3755000D01*
X1165000D01*
Y3715000D01*
X1125000D01*
X1025000D02*
Y3755000D01*
X1065000D01*
Y3715000D01*
X1025000D01*
X925000D02*
Y3755000D01*
X965000D01*
Y3715000D01*
X925000D01*
X1525000D02*
Y3755000D01*
X1565000D01*
Y3715000D01*
X1525000D01*
X1425000D02*
Y3755000D01*
X1465000D01*
Y3715000D01*
X1425000D01*
X2945000Y2820000D02*
X2925000Y2860000D01*
X2965000D01*
X2945000Y2820000D01*
Y2720000D02*
X2925000Y2760000D01*
X2965000D01*
X2945000Y2720000D01*
X2680000Y2820000D02*
X2660000Y2860000D01*
X2700000D01*
X2680000Y2820000D01*
Y2720000D02*
X2660000Y2760000D01*
X2700000D01*
X2680000Y2720000D01*
X2873425Y3715000D02*
X2883425Y3725000D01*
X2893425D01*
X2883425Y3735000D01*
X2893425Y3745000D01*
X2883425D01*
X2873425Y3755000D01*
X2863425Y3745000D01*
X2853425D01*
X2863425Y3735000D01*
X2853425Y3725000D01*
X2863425D01*
X2873425Y3715000D01*
X2676575D02*
X2686575Y3725000D01*
X2696575D01*
X2686575Y3735000D01*
X2696575Y3745000D01*
X2686575D01*
X2676575Y3755000D01*
X2666575Y3745000D01*
X2656575D01*
X2666575Y3735000D01*
X2656575Y3725000D01*
X2666575D01*
X2676575Y3715000D01*
X3323425D02*
X3333425Y3725000D01*
X3343425D01*
X3333425Y3735000D01*
X3343425Y3745000D01*
X3333425D01*
X3323425Y3755000D01*
X3313425Y3745000D01*
X3303425D01*
X3313425Y3735000D01*
X3303425Y3725000D01*
X3313425D01*
X3323425Y3715000D01*
X3126575D02*
X3136575Y3725000D01*
X3146575D01*
X3136575Y3735000D01*
X3146575Y3745000D01*
X3136575D01*
X3126575Y3755000D01*
X3116575Y3745000D01*
X3106575D01*
X3116575Y3735000D01*
X3106575Y3725000D01*
X3116575D01*
X3126575Y3715000D01*
X3627665Y3428425D02*
X3637665Y3438425D01*
X3647665D01*
X3637665Y3448425D01*
X3647665Y3458425D01*
X3637665D01*
X3627665Y3468425D01*
X3617665Y3458425D01*
X3607665D01*
X3617665Y3448425D01*
X3607665Y3438425D01*
X3617665D01*
X3627665Y3428425D01*
Y3231575D02*
X3637665Y3241575D01*
X3647665D01*
X3637665Y3251575D01*
X3647665Y3261575D01*
X3637665D01*
X3627665Y3271575D01*
X3617665Y3261575D01*
X3607665D01*
X3617665Y3251575D01*
X3607665Y3241575D01*
X3617665D01*
X3627665Y3231575D01*
X3627666Y2938425D02*
X3637666Y2948425D01*
X3647666D01*
X3637666Y2958425D01*
X3647666Y2968425D01*
X3637666D01*
X3627666Y2978425D01*
X3617666Y2968425D01*
X3607666D01*
X3617666Y2958425D01*
X3607666Y2948425D01*
X3617666D01*
X3627666Y2938425D01*
Y2741575D02*
X3637666Y2751575D01*
X3647666D01*
X3637666Y2761575D01*
X3647666Y2771575D01*
X3637666D01*
X3627666Y2781575D01*
X3617666Y2771575D01*
X3607666D01*
X3617666Y2761575D01*
X3607666Y2751575D01*
X3617666D01*
X3627666Y2741575D01*
Y2317425D02*
X3637666Y2327425D01*
X3647666D01*
X3637666Y2337425D01*
X3647666Y2347425D01*
X3637666D01*
X3627666Y2357425D01*
X3617666Y2347425D01*
X3607666D01*
X3617666Y2337425D01*
X3607666Y2327425D01*
X3617666D01*
X3627666Y2317425D01*
Y2120575D02*
X3637666Y2130575D01*
X3647666D01*
X3637666Y2140575D01*
X3647666Y2150575D01*
X3637666D01*
X3627666Y2160575D01*
X3617666Y2150575D01*
X3607666D01*
X3617666Y2140575D01*
X3607666Y2130575D01*
X3617666D01*
X3627666Y2120575D01*
Y1828425D02*
X3637666Y1838425D01*
X3647666D01*
X3637666Y1848425D01*
X3647666Y1858425D01*
X3637666D01*
X3627666Y1868425D01*
X3617666Y1858425D01*
X3607666D01*
X3617666Y1848425D01*
X3607666Y1838425D01*
X3617666D01*
X3627666Y1828425D01*
Y1631575D02*
X3637666Y1641575D01*
X3647666D01*
X3637666Y1651575D01*
X3647666Y1661575D01*
X3637666D01*
X3627666Y1671575D01*
X3617666Y1661575D01*
X3607666D01*
X3617666Y1651575D01*
X3607666Y1641575D01*
X3617666D01*
X3627666Y1631575D01*
X3627665Y1253425D02*
X3637665Y1263425D01*
X3647665D01*
X3637665Y1273425D01*
X3647665Y1283425D01*
X3637665D01*
X3627665Y1293425D01*
X3617665Y1283425D01*
X3607665D01*
X3617665Y1273425D01*
X3607665Y1263425D01*
X3617665D01*
X3627665Y1253425D01*
Y1056575D02*
X3637665Y1066575D01*
X3647665D01*
X3637665Y1076575D01*
X3647665Y1086575D01*
X3637665D01*
X3627665Y1096575D01*
X3617665Y1086575D01*
X3607665D01*
X3617665Y1076575D01*
X3607665Y1066575D01*
X3617665D01*
X3627665Y1056575D01*
X3627665Y763425D02*
X3637665Y773425D01*
X3647665D01*
X3637665Y783425D01*
X3647665Y793425D01*
X3637665D01*
X3627665Y803425D01*
X3617665Y793425D01*
X3607665D01*
X3617665Y783425D01*
X3607665Y773425D01*
X3617665D01*
X3627665Y763425D01*
Y566575D02*
X3637665Y576575D01*
X3647665D01*
X3637665Y586575D01*
X3647665Y596575D01*
X3637665D01*
X3627665Y606575D01*
X3617665Y596575D01*
X3607665D01*
X3617665Y586575D01*
X3607665Y576575D01*
X3617665D01*
X3627665Y566575D01*
X3759527Y3759528D02*
X3769527Y3779528D01*
X3759527Y3799528D01*
X3779527Y3789528D01*
X3799527Y3799528D01*
X3789527Y3779528D01*
X3799527Y3759528D01*
X3779527Y3769528D01*
X3759527Y3759528D01*
Y-20000D02*
X3769527Y-0D01*
X3759527Y20000D01*
X3779527Y10000D01*
X3799527Y20000D01*
X3789527Y-0D01*
X3799527Y-20000D01*
X3779527Y-10000D01*
X3759527Y-20000D01*
X-19999Y3759528D02*
X-9999Y3779528D01*
X-19999Y3799528D01*
X1Y3789528D01*
X20001Y3799528D01*
X10001Y3779528D01*
X20001Y3759528D01*
X1Y3769528D01*
X-19999Y3759528D01*
Y-20000D02*
X-9999Y-0D01*
X-19999Y20000D01*
X1Y10000D01*
X20001Y20000D01*
X10001Y-0D01*
X20001Y-20000D01*
X1Y-10000D01*
X-19999Y-20000D01*
X2175000Y1820000D02*
Y1810000D01*
X2195000D01*
Y1820000D01*
X2205000D01*
Y1840000D01*
X2195000D01*
Y1850000D01*
X2175000D01*
Y1840000D01*
X2165000D01*
Y1820000D01*
X2175000D01*
Y1920000D02*
Y1910000D01*
X2195000D01*
Y1920000D01*
X2205000D01*
Y1940000D01*
X2195000D01*
Y1950000D01*
X2175000D01*
Y1940000D01*
X2165000D01*
Y1920000D01*
X2175000D01*
Y2020000D02*
Y2010000D01*
X2195000D01*
Y2020000D01*
X2205000D01*
Y2040000D01*
X2195000D01*
Y2050000D01*
X2175000D01*
Y2040000D01*
X2165000D01*
Y2020000D01*
X2175000D01*
Y2120000D02*
Y2110000D01*
X2195000D01*
Y2120000D01*
X2205000D01*
Y2140000D01*
X2195000D01*
Y2150000D01*
X2175000D01*
Y2140000D01*
X2165000D01*
Y2120000D01*
X2175000D01*
Y2220000D02*
Y2210000D01*
X2195000D01*
Y2220000D01*
X2205000D01*
Y2240000D01*
X2195000D01*
Y2250000D01*
X2175000D01*
Y2240000D01*
X2165000D01*
Y2220000D01*
X2175000D01*
Y2320000D02*
Y2310000D01*
X2195000D01*
Y2320000D01*
X2205000D01*
Y2340000D01*
X2195000D01*
Y2350000D01*
X2175000D01*
Y2340000D01*
X2165000D01*
Y2320000D01*
X2175000D01*
Y2420000D02*
Y2410000D01*
X2195000D01*
Y2420000D01*
X2205000D01*
Y2440000D01*
X2195000D01*
Y2450000D01*
X2175000D01*
Y2440000D01*
X2165000D01*
Y2420000D01*
X2175000D01*
Y2520000D02*
Y2510000D01*
X2195000D01*
Y2520000D01*
X2205000D01*
Y2540000D01*
X2195000D01*
Y2550000D01*
X2175000D01*
Y2540000D01*
X2165000D01*
Y2520000D01*
X2175000D01*
Y2620000D02*
Y2610000D01*
X2195000D01*
Y2620000D01*
X2205000D01*
Y2640000D01*
X2195000D01*
Y2650000D01*
X2175000D01*
Y2640000D01*
X2165000D01*
Y2620000D01*
X2175000D01*
Y2720000D02*
Y2710000D01*
X2195000D01*
Y2720000D01*
X2205000D01*
Y2740000D01*
X2195000D01*
Y2750000D01*
X2175000D01*
Y2740000D01*
X2165000D01*
Y2720000D01*
X2175000D01*
Y2820000D02*
Y2810000D01*
X2195000D01*
Y2820000D01*
X2205000D01*
Y2840000D01*
X2195000D01*
Y2850000D01*
X2175000D01*
Y2840000D01*
X2165000D01*
Y2820000D01*
X2175000D01*
Y2920000D02*
Y2910000D01*
X2195000D01*
Y2920000D01*
X2205000D01*
Y2940000D01*
X2195000D01*
Y2950000D01*
X2175000D01*
Y2940000D01*
X2165000D01*
Y2920000D01*
X2175000D01*
Y3020000D02*
Y3010000D01*
X2195000D01*
Y3020000D01*
X2205000D01*
Y3040000D01*
X2195000D01*
Y3050000D01*
X2175000D01*
Y3040000D01*
X2165000D01*
Y3020000D01*
X2175000D01*
Y3120000D02*
Y3110000D01*
X2195000D01*
Y3120000D01*
X2205000D01*
Y3140000D01*
X2195000D01*
Y3150000D01*
X2175000D01*
Y3140000D01*
X2165000D01*
Y3120000D01*
X2175000D01*
Y3220000D02*
Y3210000D01*
X2195000D01*
Y3220000D01*
X2205000D01*
Y3240000D01*
X2195000D01*
Y3250000D01*
X2175000D01*
Y3240000D01*
X2165000D01*
Y3220000D01*
X2175000D01*
Y3320000D02*
Y3310000D01*
X2195000D01*
Y3320000D01*
X2205000D01*
Y3340000D01*
X2195000D01*
Y3350000D01*
X2175000D01*
Y3340000D01*
X2165000D01*
Y3320000D01*
X2175000D01*
Y3420000D02*
Y3410000D01*
X2195000D01*
Y3420000D01*
X2205000D01*
Y3440000D01*
X2195000D01*
Y3450000D01*
X2175000D01*
Y3440000D01*
X2165000D01*
Y3420000D01*
X2175000D01*
Y3520000D02*
Y3510000D01*
X2195000D01*
Y3520000D01*
X2205000D01*
Y3540000D01*
X2195000D01*
Y3550000D01*
X2175000D01*
Y3540000D01*
X2165000D01*
Y3520000D01*
X2175000D01*
Y3620000D02*
Y3610000D01*
X2195000D01*
Y3620000D01*
X2205000D01*
Y3640000D01*
X2195000D01*
Y3650000D01*
X2175000D01*
Y3640000D01*
X2165000D01*
Y3620000D01*
X2175000D01*
Y3720000D02*
Y3710000D01*
X2195000D01*
Y3720000D01*
X2205000D01*
Y3740000D01*
X2195000D01*
Y3750000D01*
X2175000D01*
Y3740000D01*
X2165000D01*
Y3720000D01*
X2175000D01*
X2075000Y1820000D02*
Y1810000D01*
X2095000D01*
Y1820000D01*
X2105000D01*
Y1840000D01*
X2095000D01*
Y1850000D01*
X2075000D01*
Y1840000D01*
X2065000D01*
Y1820000D01*
X2075000D01*
Y1920000D02*
Y1910000D01*
X2095000D01*
Y1920000D01*
X2105000D01*
Y1940000D01*
X2095000D01*
Y1950000D01*
X2075000D01*
Y1940000D01*
X2065000D01*
Y1920000D01*
X2075000D01*
Y2020000D02*
Y2010000D01*
X2095000D01*
Y2020000D01*
X2105000D01*
Y2040000D01*
X2095000D01*
Y2050000D01*
X2075000D01*
Y2040000D01*
X2065000D01*
Y2020000D01*
X2075000D01*
Y2120000D02*
Y2110000D01*
X2095000D01*
Y2120000D01*
X2105000D01*
Y2140000D01*
X2095000D01*
Y2150000D01*
X2075000D01*
Y2140000D01*
X2065000D01*
Y2120000D01*
X2075000D01*
Y2220000D02*
Y2210000D01*
X2095000D01*
Y2220000D01*
X2105000D01*
Y2240000D01*
X2095000D01*
Y2250000D01*
X2075000D01*
Y2240000D01*
X2065000D01*
Y2220000D01*
X2075000D01*
Y2320000D02*
Y2310000D01*
X2095000D01*
Y2320000D01*
X2105000D01*
Y2340000D01*
X2095000D01*
Y2350000D01*
X2075000D01*
Y2340000D01*
X2065000D01*
Y2320000D01*
X2075000D01*
Y2420000D02*
Y2410000D01*
X2095000D01*
Y2420000D01*
X2105000D01*
Y2440000D01*
X2095000D01*
Y2450000D01*
X2075000D01*
Y2440000D01*
X2065000D01*
Y2420000D01*
X2075000D01*
Y2520000D02*
Y2510000D01*
X2095000D01*
Y2520000D01*
X2105000D01*
Y2540000D01*
X2095000D01*
Y2550000D01*
X2075000D01*
Y2540000D01*
X2065000D01*
Y2520000D01*
X2075000D01*
Y2620000D02*
Y2610000D01*
X2095000D01*
Y2620000D01*
X2105000D01*
Y2640000D01*
X2095000D01*
Y2650000D01*
X2075000D01*
Y2640000D01*
X2065000D01*
Y2620000D01*
X2075000D01*
Y2720000D02*
Y2710000D01*
X2095000D01*
Y2720000D01*
X2105000D01*
Y2740000D01*
X2095000D01*
Y2750000D01*
X2075000D01*
Y2740000D01*
X2065000D01*
Y2720000D01*
X2075000D01*
Y2820000D02*
Y2810000D01*
X2095000D01*
Y2820000D01*
X2105000D01*
Y2840000D01*
X2095000D01*
Y2850000D01*
X2075000D01*
Y2840000D01*
X2065000D01*
Y2820000D01*
X2075000D01*
Y2920000D02*
Y2910000D01*
X2095000D01*
Y2920000D01*
X2105000D01*
Y2940000D01*
X2095000D01*
Y2950000D01*
X2075000D01*
Y2940000D01*
X2065000D01*
Y2920000D01*
X2075000D01*
Y3020000D02*
Y3010000D01*
X2095000D01*
Y3020000D01*
X2105000D01*
Y3040000D01*
X2095000D01*
Y3050000D01*
X2075000D01*
Y3040000D01*
X2065000D01*
Y3020000D01*
X2075000D01*
Y3120000D02*
Y3110000D01*
X2095000D01*
Y3120000D01*
X2105000D01*
Y3140000D01*
X2095000D01*
Y3150000D01*
X2075000D01*
Y3140000D01*
X2065000D01*
Y3120000D01*
X2075000D01*
Y3220000D02*
Y3210000D01*
X2095000D01*
Y3220000D01*
X2105000D01*
Y3240000D01*
X2095000D01*
Y3250000D01*
X2075000D01*
Y3240000D01*
X2065000D01*
Y3220000D01*
X2075000D01*
Y3320000D02*
Y3310000D01*
X2095000D01*
Y3320000D01*
X2105000D01*
Y3340000D01*
X2095000D01*
Y3350000D01*
X2075000D01*
Y3340000D01*
X2065000D01*
Y3320000D01*
X2075000D01*
Y3420000D02*
Y3410000D01*
X2095000D01*
Y3420000D01*
X2105000D01*
Y3440000D01*
X2095000D01*
Y3450000D01*
X2075000D01*
Y3440000D01*
X2065000D01*
Y3420000D01*
X2075000D01*
Y3520000D02*
Y3510000D01*
X2095000D01*
Y3520000D01*
X2105000D01*
Y3540000D01*
X2095000D01*
Y3550000D01*
X2075000D01*
Y3540000D01*
X2065000D01*
Y3520000D01*
X2075000D01*
Y3620000D02*
Y3610000D01*
X2095000D01*
Y3620000D01*
X2105000D01*
Y3640000D01*
X2095000D01*
Y3650000D01*
X2075000D01*
Y3640000D01*
X2065000D01*
Y3620000D01*
X2075000D01*
Y3720000D02*
Y3710000D01*
X2095000D01*
Y3720000D01*
X2105000D01*
Y3740000D01*
X2095000D01*
Y3750000D01*
X2075000D01*
Y3740000D01*
X2065000D01*
Y3720000D01*
X2075000D01*
X482087Y1820000D02*
Y1810000D01*
X502087D01*
Y1820000D01*
X512087D01*
Y1840000D01*
X502087D01*
Y1850000D01*
X482087D01*
Y1840000D01*
X472087D01*
Y1820000D01*
X482087D01*
X382087Y3720000D02*
Y3710000D01*
X402087D01*
Y3720000D01*
X412087D01*
Y3740000D01*
X402087D01*
Y3750000D01*
X382087D01*
Y3740000D01*
X372087D01*
Y3720000D01*
X382087D01*
Y3620000D02*
Y3610000D01*
X402087D01*
Y3620000D01*
X412087D01*
Y3640000D01*
X402087D01*
Y3650000D01*
X382087D01*
Y3640000D01*
X372087D01*
Y3620000D01*
X382087D01*
Y3520000D02*
Y3510000D01*
X402087D01*
Y3520000D01*
X412087D01*
Y3540000D01*
X402087D01*
Y3550000D01*
X382087D01*
Y3540000D01*
X372087D01*
Y3520000D01*
X382087D01*
Y3420000D02*
Y3410000D01*
X402087D01*
Y3420000D01*
X412087D01*
Y3440000D01*
X402087D01*
Y3450000D01*
X382087D01*
Y3440000D01*
X372087D01*
Y3420000D01*
X382087D01*
Y3320000D02*
Y3310000D01*
X402087D01*
Y3320000D01*
X412087D01*
Y3340000D01*
X402087D01*
Y3350000D01*
X382087D01*
Y3340000D01*
X372087D01*
Y3320000D01*
X382087D01*
Y3220000D02*
Y3210000D01*
X402087D01*
Y3220000D01*
X412087D01*
Y3240000D01*
X402087D01*
Y3250000D01*
X382087D01*
Y3240000D01*
X372087D01*
Y3220000D01*
X382087D01*
Y3120000D02*
Y3110000D01*
X402087D01*
Y3120000D01*
X412087D01*
Y3140000D01*
X402087D01*
Y3150000D01*
X382087D01*
Y3140000D01*
X372087D01*
Y3120000D01*
X382087D01*
Y3020000D02*
Y3010000D01*
X402087D01*
Y3020000D01*
X412087D01*
Y3040000D01*
X402087D01*
Y3050000D01*
X382087D01*
Y3040000D01*
X372087D01*
Y3020000D01*
X382087D01*
Y2920000D02*
Y2910000D01*
X402087D01*
Y2920000D01*
X412087D01*
Y2940000D01*
X402087D01*
Y2950000D01*
X382087D01*
Y2940000D01*
X372087D01*
Y2920000D01*
X382087D01*
Y2820000D02*
Y2810000D01*
X402087D01*
Y2820000D01*
X412087D01*
Y2840000D01*
X402087D01*
Y2850000D01*
X382087D01*
Y2840000D01*
X372087D01*
Y2820000D01*
X382087D01*
Y2720000D02*
Y2710000D01*
X402087D01*
Y2720000D01*
X412087D01*
Y2740000D01*
X402087D01*
Y2750000D01*
X382087D01*
Y2740000D01*
X372087D01*
Y2720000D01*
X382087D01*
Y2620000D02*
Y2610000D01*
X402087D01*
Y2620000D01*
X412087D01*
Y2640000D01*
X402087D01*
Y2650000D01*
X382087D01*
Y2640000D01*
X372087D01*
Y2620000D01*
X382087D01*
Y2520000D02*
Y2510000D01*
X402087D01*
Y2520000D01*
X412087D01*
Y2540000D01*
X402087D01*
Y2550000D01*
X382087D01*
Y2540000D01*
X372087D01*
Y2520000D01*
X382087D01*
Y2420000D02*
Y2410000D01*
X402087D01*
Y2420000D01*
X412087D01*
Y2440000D01*
X402087D01*
Y2450000D01*
X382087D01*
Y2440000D01*
X372087D01*
Y2420000D01*
X382087D01*
Y2320000D02*
Y2310000D01*
X402087D01*
Y2320000D01*
X412087D01*
Y2340000D01*
X402087D01*
Y2350000D01*
X382087D01*
Y2340000D01*
X372087D01*
Y2320000D01*
X382087D01*
Y2220000D02*
Y2210000D01*
X402087D01*
Y2220000D01*
X412087D01*
Y2240000D01*
X402087D01*
Y2250000D01*
X382087D01*
Y2240000D01*
X372087D01*
Y2220000D01*
X382087D01*
Y2120000D02*
Y2110000D01*
X402087D01*
Y2120000D01*
X412087D01*
Y2140000D01*
X402087D01*
Y2150000D01*
X382087D01*
Y2140000D01*
X372087D01*
Y2120000D01*
X382087D01*
Y2020000D02*
Y2010000D01*
X402087D01*
Y2020000D01*
X412087D01*
Y2040000D01*
X402087D01*
Y2050000D01*
X382087D01*
Y2040000D01*
X372087D01*
Y2020000D01*
X382087D01*
Y1920000D02*
Y1910000D01*
X402087D01*
Y1920000D01*
X412087D01*
Y1940000D01*
X402087D01*
Y1950000D01*
X382087D01*
Y1940000D01*
X372087D01*
Y1920000D01*
X382087D01*
Y1820000D02*
Y1810000D01*
X402087D01*
Y1820000D01*
X412087D01*
Y1840000D01*
X402087D01*
Y1850000D01*
X382087D01*
Y1840000D01*
X372087D01*
Y1820000D01*
X382087D01*
X482087Y3720000D02*
Y3710000D01*
X502087D01*
Y3720000D01*
X512087D01*
Y3740000D01*
X502087D01*
Y3750000D01*
X482087D01*
Y3740000D01*
X472087D01*
Y3720000D01*
X482087D01*
Y3620000D02*
Y3610000D01*
X502087D01*
Y3620000D01*
X512087D01*
Y3640000D01*
X502087D01*
Y3650000D01*
X482087D01*
Y3640000D01*
X472087D01*
Y3620000D01*
X482087D01*
Y3520000D02*
Y3510000D01*
X502087D01*
Y3520000D01*
X512087D01*
Y3540000D01*
X502087D01*
Y3550000D01*
X482087D01*
Y3540000D01*
X472087D01*
Y3520000D01*
X482087D01*
Y3420000D02*
Y3410000D01*
X502087D01*
Y3420000D01*
X512087D01*
Y3440000D01*
X502087D01*
Y3450000D01*
X482087D01*
Y3440000D01*
X472087D01*
Y3420000D01*
X482087D01*
Y3320000D02*
Y3310000D01*
X502087D01*
Y3320000D01*
X512087D01*
Y3340000D01*
X502087D01*
Y3350000D01*
X482087D01*
Y3340000D01*
X472087D01*
Y3320000D01*
X482087D01*
Y3220000D02*
Y3210000D01*
X502087D01*
Y3220000D01*
X512087D01*
Y3240000D01*
X502087D01*
Y3250000D01*
X482087D01*
Y3240000D01*
X472087D01*
Y3220000D01*
X482087D01*
Y3120000D02*
Y3110000D01*
X502087D01*
Y3120000D01*
X512087D01*
Y3140000D01*
X502087D01*
Y3150000D01*
X482087D01*
Y3140000D01*
X472087D01*
Y3120000D01*
X482087D01*
Y3020000D02*
Y3010000D01*
X502087D01*
Y3020000D01*
X512087D01*
Y3040000D01*
X502087D01*
Y3050000D01*
X482087D01*
Y3040000D01*
X472087D01*
Y3020000D01*
X482087D01*
Y2920000D02*
Y2910000D01*
X502087D01*
Y2920000D01*
X512087D01*
Y2940000D01*
X502087D01*
Y2950000D01*
X482087D01*
Y2940000D01*
X472087D01*
Y2920000D01*
X482087D01*
Y2820000D02*
Y2810000D01*
X502087D01*
Y2820000D01*
X512087D01*
Y2840000D01*
X502087D01*
Y2850000D01*
X482087D01*
Y2840000D01*
X472087D01*
Y2820000D01*
X482087D01*
Y2720000D02*
Y2710000D01*
X502087D01*
Y2720000D01*
X512087D01*
Y2740000D01*
X502087D01*
Y2750000D01*
X482087D01*
Y2740000D01*
X472087D01*
Y2720000D01*
X482087D01*
Y2620000D02*
Y2610000D01*
X502087D01*
Y2620000D01*
X512087D01*
Y2640000D01*
X502087D01*
Y2650000D01*
X482087D01*
Y2640000D01*
X472087D01*
Y2620000D01*
X482087D01*
Y2520000D02*
Y2510000D01*
X502087D01*
Y2520000D01*
X512087D01*
Y2540000D01*
X502087D01*
Y2550000D01*
X482087D01*
Y2540000D01*
X472087D01*
Y2520000D01*
X482087D01*
Y2420000D02*
Y2410000D01*
X502087D01*
Y2420000D01*
X512087D01*
Y2440000D01*
X502087D01*
Y2450000D01*
X482087D01*
Y2440000D01*
X472087D01*
Y2420000D01*
X482087D01*
Y2320000D02*
Y2310000D01*
X502087D01*
Y2320000D01*
X512087D01*
Y2340000D01*
X502087D01*
Y2350000D01*
X482087D01*
Y2340000D01*
X472087D01*
Y2320000D01*
X482087D01*
Y2220000D02*
Y2210000D01*
X502087D01*
Y2220000D01*
X512087D01*
Y2240000D01*
X502087D01*
Y2250000D01*
X482087D01*
Y2240000D01*
X472087D01*
Y2220000D01*
X482087D01*
Y2120000D02*
Y2110000D01*
X502087D01*
Y2120000D01*
X512087D01*
Y2140000D01*
X502087D01*
Y2150000D01*
X482087D01*
Y2140000D01*
X472087D01*
Y2120000D01*
X482087D01*
Y2020000D02*
Y2010000D01*
X502087D01*
Y2020000D01*
X512087D01*
Y2040000D01*
X502087D01*
Y2050000D01*
X482087D01*
Y2040000D01*
X472087D01*
Y2020000D01*
X482087D01*
Y1920000D02*
Y1910000D01*
X502087D01*
Y1920000D01*
X512087D01*
Y1940000D01*
X502087D01*
Y1950000D01*
X482087D01*
Y1940000D01*
X472087D01*
Y1920000D01*
X482087D01*
X1724370Y695591D02*
Y735591D01*
X1764370D01*
Y695591D01*
X1724370D01*
Y920000D02*
Y960000D01*
X1764370D01*
Y920000D01*
X1724370D01*
Y1095591D02*
Y1135591D01*
X1764370D01*
Y1095591D01*
X1724370D01*
Y1195591D02*
Y1235591D01*
X1764370D01*
Y1195591D01*
X1724370D01*
X740000Y690591D02*
Y730591D01*
X780000D01*
Y690591D01*
X740000D01*
Y915000D02*
Y955000D01*
X780000D01*
Y915000D01*
X740000D01*
Y1090591D02*
Y1130591D01*
X780000D01*
Y1090591D01*
X740000D01*
Y1190591D02*
Y1230591D01*
X780000D01*
Y1190591D01*
X740000D01*
X2693425Y40000D02*
X2703425Y50000D01*
X2713425D01*
X2703425Y60000D01*
X2713425Y70000D01*
X2703425D01*
X2693425Y80000D01*
X2683425Y70000D01*
X2673425D01*
X2683425Y60000D01*
X2673425Y50000D01*
X2683425D01*
X2693425Y40000D01*
X2496575D02*
X2506575Y50000D01*
X2516575D01*
X2506575Y60000D01*
X2516575Y70000D01*
X2506575D01*
X2496575Y80000D01*
X2486575Y70000D01*
X2476575D01*
X2486575Y60000D01*
X2476575Y50000D01*
X2486575D01*
X2496575Y40000D01*
X2750000Y690591D02*
Y730591D01*
X2790000D01*
Y690591D01*
X2750000D01*
Y915000D02*
Y955000D01*
X2790000D01*
Y915000D01*
X2750000D01*
Y1090591D02*
Y1130591D01*
X2790000D01*
Y1090591D01*
X2750000D01*
Y1190591D02*
Y1230591D01*
X2790000D01*
Y1190591D01*
X2750000D01*
X1672795Y45000D02*
X1682795Y55000D01*
X1692795D01*
X1682795Y65000D01*
X1692795Y75000D01*
X1682795D01*
X1672795Y85000D01*
X1662795Y75000D01*
X1652795D01*
X1662795Y65000D01*
X1652795Y55000D01*
X1662795D01*
X1672795Y45000D01*
X1475945D02*
X1485945Y55000D01*
X1495945D01*
X1485945Y65000D01*
X1495945Y75000D01*
X1485945D01*
X1475945Y85000D01*
X1465945Y75000D01*
X1455945D01*
X1465945Y65000D01*
X1455945Y55000D01*
X1465945D01*
X1475945Y45000D01*
X688425Y40000D02*
X698425Y50000D01*
X708425D01*
X698425Y60000D01*
X708425Y70000D01*
X698425D01*
X688425Y80000D01*
X678425Y70000D01*
X668425D01*
X678425Y60000D01*
X668425Y50000D01*
X678425D01*
X688425Y40000D01*
X491575D02*
X501575Y50000D01*
X511575D01*
X501575Y60000D01*
X511575Y70000D01*
X501575D01*
X491575Y80000D01*
X481575Y70000D01*
X471575D01*
X481575Y60000D01*
X471575Y50000D01*
X481575D01*
X491575Y40000D01*
X1145000Y1399999D02*
X1155000D01*
X1165000Y1409999D01*
X1175000Y1399999D01*
X1185000D01*
Y1409999D01*
X1175000Y1419999D01*
X1185000Y1429999D01*
Y1439999D01*
X1175000D01*
X1165000Y1429999D01*
X1155000Y1439999D01*
X1145000D01*
Y1429999D01*
X1155000Y1419999D01*
X1145000Y1409999D01*
Y1399999D01*
X945000D02*
X955000D01*
X965000Y1409999D01*
X975000Y1399999D01*
X985000D01*
Y1409999D01*
X975000Y1419999D01*
X985000Y1429999D01*
Y1439999D01*
X975000D01*
X965000Y1429999D01*
X955000Y1439999D01*
X945000D01*
Y1429999D01*
X955000Y1419999D01*
X945000Y1409999D01*
Y1399999D01*
X1045000Y1489999D02*
X1055000D01*
X1065000Y1499999D01*
X1075000Y1489999D01*
X1085000D01*
Y1499999D01*
X1075000Y1509999D01*
X1085000Y1519999D01*
Y1529999D01*
X1075000D01*
X1065000Y1519999D01*
X1055000Y1529999D01*
X1045000D01*
Y1519999D01*
X1055000Y1509999D01*
X1045000Y1499999D01*
Y1489999D01*
X1650000Y1515000D02*
X1660000D01*
X1670000Y1525000D01*
X1680000Y1515000D01*
X1690000D01*
Y1525000D01*
X1680000Y1535000D01*
X1690000Y1545000D01*
Y1555000D01*
X1680000D01*
X1670000Y1545000D01*
X1660000Y1555000D01*
X1650000D01*
Y1545000D01*
X1660000Y1535000D01*
X1650000Y1525000D01*
Y1515000D01*
X1855000Y2300000D02*
X1865000D01*
X1875000Y2310000D01*
X1885000Y2300000D01*
X1895000D01*
Y2310000D01*
X1885000Y2320000D01*
X1895000Y2330000D01*
Y2340000D01*
X1885000D01*
X1875000Y2330000D01*
X1865000Y2340000D01*
X1855000D01*
Y2330000D01*
X1865000Y2320000D01*
X1855000Y2310000D01*
Y2300000D01*
X1955000Y2020000D02*
X1965000D01*
X1975000Y2030000D01*
X1985000Y2020000D01*
X1995000D01*
Y2030000D01*
X1985000Y2040000D01*
X1995000Y2050000D01*
Y2060000D01*
X1985000D01*
X1975000Y2050000D01*
X1965000Y2060000D01*
X1955000D01*
Y2050000D01*
X1965000Y2040000D01*
X1955000Y2030000D01*
Y2020000D01*
Y1810000D02*
X1965000D01*
X1975000Y1820000D01*
X1985000Y1810000D01*
X1995000D01*
Y1820000D01*
X1985000Y1830000D01*
X1995000Y1840000D01*
Y1850000D01*
X1985000D01*
X1975000Y1840000D01*
X1965000Y1850000D01*
X1955000D01*
Y1840000D01*
X1965000Y1830000D01*
X1955000Y1820000D01*
Y1810000D01*
X1950000Y1605000D02*
X1960000D01*
X1970000Y1615000D01*
X1980000Y1605000D01*
X1990000D01*
Y1615000D01*
X1980000Y1625000D01*
X1990000Y1635000D01*
Y1645000D01*
X1980000D01*
X1970000Y1635000D01*
X1960000Y1645000D01*
X1950000D01*
Y1635000D01*
X1960000Y1625000D01*
X1950000Y1615000D01*
Y1605000D01*
X1855000Y1700000D02*
X1865000D01*
X1875000Y1710000D01*
X1885000Y1700000D01*
X1895000D01*
Y1710000D01*
X1885000Y1720000D01*
X1895000Y1730000D01*
Y1740000D01*
X1885000D01*
X1875000Y1730000D01*
X1865000Y1740000D01*
X1855000D01*
Y1730000D01*
X1865000Y1720000D01*
X1855000Y1710000D01*
Y1700000D01*
X1955000Y2200000D02*
X1965000D01*
X1975000Y2210000D01*
X1985000Y2200000D01*
X1995000D01*
Y2210000D01*
X1985000Y2220000D01*
X1995000Y2230000D01*
Y2240000D01*
X1985000D01*
X1975000Y2230000D01*
X1965000Y2240000D01*
X1955000D01*
Y2230000D01*
X1965000Y2220000D01*
X1955000Y2210000D01*
Y2200000D01*
X1855000Y2100000D02*
X1865000D01*
X1875000Y2110000D01*
X1885000Y2100000D01*
X1895000D01*
Y2110000D01*
X1885000Y2120000D01*
X1895000Y2130000D01*
Y2140000D01*
X1885000D01*
X1875000Y2130000D01*
X1865000Y2140000D01*
X1855000D01*
Y2130000D01*
X1865000Y2120000D01*
X1855000Y2110000D01*
Y2100000D01*
Y1900000D02*
X1865000D01*
X1875000Y1910000D01*
X1885000Y1900000D01*
X1895000D01*
Y1910000D01*
X1885000Y1920000D01*
X1895000Y1930000D01*
Y1940000D01*
X1885000D01*
X1875000Y1930000D01*
X1865000Y1940000D01*
X1855000D01*
Y1930000D01*
X1865000Y1920000D01*
X1855000Y1910000D01*
Y1900000D01*
X1655000Y1700000D02*
X1665000D01*
X1675000Y1710000D01*
X1685000Y1700000D01*
X1695000D01*
Y1710000D01*
X1685000Y1720000D01*
X1695000Y1730000D01*
Y1740000D01*
X1685000D01*
X1675000Y1730000D01*
X1665000Y1740000D01*
X1655000D01*
Y1730000D01*
X1665000Y1720000D01*
X1655000Y1710000D01*
Y1700000D01*
Y1910000D02*
X1665000D01*
X1675000Y1920000D01*
X1685000Y1910000D01*
X1695000D01*
Y1920000D01*
X1685000Y1930000D01*
X1695000Y1940000D01*
Y1950000D01*
X1685000D01*
X1675000Y1940000D01*
X1665000Y1950000D01*
X1655000D01*
Y1940000D01*
X1665000Y1930000D01*
X1655000Y1920000D01*
Y1910000D01*
Y2100000D02*
X1665000D01*
X1675000Y2110000D01*
X1685000Y2100000D01*
X1695000D01*
Y2110000D01*
X1685000Y2120000D01*
X1695000Y2130000D01*
Y2140000D01*
X1685000D01*
X1675000Y2130000D01*
X1665000Y2140000D01*
X1655000D01*
Y2130000D01*
X1665000Y2120000D01*
X1655000Y2110000D01*
Y2100000D01*
X1355000Y2410000D02*
X1365000D01*
X1375000Y2420000D01*
X1385000Y2410000D01*
X1395000D01*
Y2420000D01*
X1385000Y2430000D01*
X1395000Y2440000D01*
Y2450000D01*
X1385000D01*
X1375000Y2440000D01*
X1365000Y2450000D01*
X1355000D01*
Y2440000D01*
X1365000Y2430000D01*
X1355000Y2420000D01*
Y2410000D01*
X1255000Y2510000D02*
X1265000D01*
X1275000Y2520000D01*
X1285000Y2510000D01*
X1295000D01*
Y2520000D01*
X1285000Y2530000D01*
X1295000Y2540000D01*
Y2550000D01*
X1285000D01*
X1275000Y2540000D01*
X1265000Y2550000D01*
X1255000D01*
Y2540000D01*
X1265000Y2530000D01*
X1255000Y2520000D01*
Y2510000D01*
X1155000Y2610000D02*
X1165000D01*
X1175000Y2620000D01*
X1185000Y2610000D01*
X1195000D01*
Y2620000D01*
X1185000Y2630000D01*
X1195000Y2640000D01*
Y2650000D01*
X1185000D01*
X1175000Y2640000D01*
X1165000Y2650000D01*
X1155000D01*
Y2640000D01*
X1165000Y2630000D01*
X1155000Y2620000D01*
Y2610000D01*
X2455000Y2335000D02*
X2465000D01*
X2475000Y2345000D01*
X2485000Y2335000D01*
X2495000D01*
Y2345000D01*
X2485000Y2355000D01*
X2495000Y2365000D01*
Y2375000D01*
X2485000D01*
X2475000Y2365000D01*
X2465000Y2375000D01*
X2455000D01*
Y2365000D01*
X2465000Y2355000D01*
X2455000Y2345000D01*
Y2335000D01*
X2655000D02*
X2665000D01*
X2675000Y2345000D01*
X2685000Y2335000D01*
X2695000D01*
Y2345000D01*
X2685000Y2355000D01*
X2695000Y2365000D01*
Y2375000D01*
X2685000D01*
X2675000Y2365000D01*
X2665000Y2375000D01*
X2655000D01*
Y2365000D01*
X2665000Y2355000D01*
X2655000Y2345000D01*
Y2335000D01*
X2520000Y2590000D02*
X2540000Y2610000D01*
X2560000Y2590000D01*
X2540000Y2570000D01*
X2520000Y2590000D01*
X2750000Y2216028D02*
X2760000D01*
X2770000Y2226028D01*
X2780000Y2216028D01*
X2790000D01*
Y2226028D01*
X2780000Y2236028D01*
X2790000Y2246028D01*
Y2256028D01*
X2780000D01*
X2770000Y2246028D01*
X2760000Y2256028D01*
X2750000D01*
Y2246028D01*
X2760000Y2236028D01*
X2750000Y2226028D01*
Y2216028D01*
X2650000Y2115000D02*
X2660000D01*
X2670000Y2125000D01*
X2680000Y2115000D01*
X2690000D01*
Y2125000D01*
X2680000Y2135000D01*
X2690000Y2145000D01*
Y2155000D01*
X2680000D01*
X2670000Y2145000D01*
X2660000Y2155000D01*
X2650000D01*
Y2145000D01*
X2660000Y2135000D01*
X2650000Y2125000D01*
Y2115000D01*
X3084764Y2950236D02*
X3104764Y2970236D01*
X3124764Y2950236D01*
X3104764Y2930236D01*
X3084764Y2950236D01*
X3055000Y2780000D02*
Y2820000D01*
X3095000D01*
Y2780000D01*
X3055000D01*
X3063000Y2788000D02*
Y2812000D01*
X3087000D01*
Y2788000D01*
X3063000D01*
X3150000Y1415000D02*
X3160000D01*
X3170000Y1425000D01*
X3180000Y1415000D01*
X3190000D01*
Y1425000D01*
X3180000Y1435000D01*
X3190000Y1445000D01*
Y1455000D01*
X3180000D01*
X3170000Y1445000D01*
X3160000Y1455000D01*
X3150000D01*
Y1445000D01*
X3160000Y1435000D01*
X3150000Y1425000D01*
Y1415000D01*
Y1615000D02*
X3160000D01*
X3170000Y1625000D01*
X3180000Y1615000D01*
X3190000D01*
Y1625000D01*
X3180000Y1635000D01*
X3190000Y1645000D01*
Y1655000D01*
X3180000D01*
X3170000Y1645000D01*
X3160000Y1655000D01*
X3150000D01*
Y1645000D01*
X3160000Y1635000D01*
X3150000Y1625000D01*
Y1615000D01*
X3145000Y1820000D02*
X3155000D01*
X3165000Y1830000D01*
X3175000Y1820000D01*
X3185000D01*
Y1830000D01*
X3175000Y1840000D01*
X3185000Y1850000D01*
Y1860000D01*
X3175000D01*
X3165000Y1850000D01*
X3155000Y1860000D01*
X3145000D01*
Y1850000D01*
X3155000Y1840000D01*
X3145000Y1830000D01*
Y1820000D01*
X3140000Y2460000D02*
X3150000D01*
X3160000Y2470000D01*
X3170000Y2460000D01*
X3180000D01*
Y2470000D01*
X3170000Y2480000D01*
X3180000Y2490000D01*
Y2500000D01*
X3170000D01*
X3160000Y2490000D01*
X3150000Y2500000D01*
X3140000D01*
Y2490000D01*
X3150000Y2480000D01*
X3140000Y2470000D01*
Y2460000D01*
X2315000Y2570000D02*
X2325000D01*
X2335000Y2580000D01*
X2345000Y2570000D01*
X2355000D01*
Y2580000D01*
X2345000Y2590000D01*
X2355000Y2600000D01*
Y2610000D01*
X2345000D01*
X2335000Y2600000D01*
X2325000Y2610000D01*
X2315000D01*
Y2600000D01*
X2325000Y2590000D01*
X2315000Y2580000D01*
Y2570000D01*
X3105000Y2640000D02*
X3115000D01*
X3125000Y2650000D01*
X3135000Y2640000D01*
X3145000D01*
Y2650000D01*
X3135000Y2660000D01*
X3145000Y2670000D01*
Y2680000D01*
X3135000D01*
X3125000Y2670000D01*
X3115000Y2680000D01*
X3105000D01*
Y2670000D01*
X3115000Y2660000D01*
X3105000Y2650000D01*
Y2640000D01*
X2155000Y1610000D02*
X2165000D01*
X2175000Y1620000D01*
X2185000Y1610000D01*
X2195000D01*
Y1620000D01*
X2185000Y1630000D01*
X2195000Y1640000D01*
Y1650000D01*
X2185000D01*
X2175000Y1640000D01*
X2165000Y1650000D01*
X2155000D01*
Y1640000D01*
X2165000Y1630000D01*
X2155000Y1620000D01*
Y1610000D01*
X2255000Y1710000D02*
X2265000D01*
X2275000Y1720000D01*
X2285000Y1710000D01*
X2295000D01*
Y1720000D01*
X2285000Y1730000D01*
X2295000Y1740000D01*
Y1750000D01*
X2285000D01*
X2275000Y1740000D01*
X2265000Y1750000D01*
X2255000D01*
Y1740000D01*
X2265000Y1730000D01*
X2255000Y1720000D01*
Y1710000D01*
X2250000Y1515000D02*
X2260000D01*
X2270000Y1525000D01*
X2280000Y1515000D01*
X2290000D01*
Y1525000D01*
X2280000Y1535000D01*
X2290000Y1545000D01*
Y1555000D01*
X2280000D01*
X2270000Y1545000D01*
X2260000Y1555000D01*
X2250000D01*
Y1545000D01*
X2260000Y1535000D01*
X2250000Y1525000D01*
Y1515000D01*
X2455000Y1510000D02*
X2465000D01*
X2475000Y1520000D01*
X2485000Y1510000D01*
X2495000D01*
Y1520000D01*
X2485000Y1530000D01*
X2495000Y1540000D01*
Y1550000D01*
X2485000D01*
X2475000Y1540000D01*
X2465000Y1550000D01*
X2455000D01*
Y1540000D01*
X2465000Y1530000D01*
X2455000Y1520000D01*
Y1510000D01*
X2350000Y1615000D02*
X2360000D01*
X2370000Y1625000D01*
X2380000Y1615000D01*
X2390000D01*
Y1625000D01*
X2380000Y1635000D01*
X2390000Y1645000D01*
Y1655000D01*
X2380000D01*
X2370000Y1645000D01*
X2360000Y1655000D01*
X2350000D01*
Y1645000D01*
X2360000Y1635000D01*
X2350000Y1625000D01*
Y1615000D01*
X2355000Y1810000D02*
X2365000D01*
X2375000Y1820000D01*
X2385000Y1810000D01*
X2395000D01*
Y1820000D01*
X2385000Y1830000D01*
X2395000Y1840000D01*
Y1850000D01*
X2385000D01*
X2375000Y1840000D01*
X2365000Y1850000D01*
X2355000D01*
Y1840000D01*
X2365000Y1830000D01*
X2355000Y1820000D01*
Y1810000D01*
X2855000Y1310000D02*
X2865000D01*
X2875000Y1320000D01*
X2885000Y1310000D01*
X2895000D01*
Y1320000D01*
X2885000Y1330000D01*
X2895000Y1340000D01*
Y1350000D01*
X2885000D01*
X2875000Y1340000D01*
X2865000Y1350000D01*
X2855000D01*
Y1340000D01*
X2865000Y1330000D01*
X2855000Y1320000D01*
Y1310000D01*
X2755000Y1410000D02*
X2765000D01*
X2775000Y1420000D01*
X2785000Y1410000D01*
X2795000D01*
Y1420000D01*
X2785000Y1430000D01*
X2795000Y1440000D01*
Y1450000D01*
X2785000D01*
X2775000Y1440000D01*
X2765000Y1450000D01*
X2755000D01*
Y1440000D01*
X2765000Y1430000D01*
X2755000Y1420000D01*
Y1410000D01*
X2655000Y1510000D02*
X2665000D01*
X2675000Y1520000D01*
X2685000Y1510000D01*
X2695000D01*
Y1520000D01*
X2685000Y1530000D01*
X2695000Y1540000D01*
Y1550000D01*
X2685000D01*
X2675000Y1540000D01*
X2665000Y1550000D01*
X2655000D01*
Y1540000D01*
X2665000Y1530000D01*
X2655000Y1520000D01*
Y1510000D01*
X2955000Y1410000D02*
X2965000D01*
X2975000Y1420000D01*
X2985000Y1410000D01*
X2995000D01*
Y1420000D01*
X2985000Y1430000D01*
X2995000Y1440000D01*
Y1450000D01*
X2985000D01*
X2975000Y1440000D01*
X2965000Y1450000D01*
X2955000D01*
Y1440000D01*
X2965000Y1430000D01*
X2955000Y1420000D01*
Y1410000D01*
X2855000Y1510000D02*
X2865000D01*
X2875000Y1520000D01*
X2885000Y1510000D01*
X2895000D01*
Y1520000D01*
X2885000Y1530000D01*
X2895000Y1540000D01*
Y1550000D01*
X2885000D01*
X2875000Y1540000D01*
X2865000Y1550000D01*
X2855000D01*
Y1540000D01*
X2865000Y1530000D01*
X2855000Y1520000D01*
Y1510000D01*
X2950000Y1615000D02*
X2960000D01*
X2970000Y1625000D01*
X2980000Y1615000D01*
X2990000D01*
Y1625000D01*
X2980000Y1635000D01*
X2990000Y1645000D01*
Y1655000D01*
X2980000D01*
X2970000Y1645000D01*
X2960000Y1655000D01*
X2950000D01*
Y1645000D01*
X2960000Y1635000D01*
X2950000Y1625000D01*
Y1615000D01*
X2850000Y1715000D02*
X2860000D01*
X2870000Y1725000D01*
X2880000Y1715000D01*
X2890000D01*
Y1725000D01*
X2880000Y1735000D01*
X2890000Y1745000D01*
Y1755000D01*
X2880000D01*
X2870000Y1745000D01*
X2860000Y1755000D01*
X2850000D01*
Y1745000D01*
X2860000Y1735000D01*
X2850000Y1725000D01*
Y1715000D01*
X2950000Y1815000D02*
X2960000D01*
X2970000Y1825000D01*
X2980000Y1815000D01*
X2990000D01*
Y1825000D01*
X2980000Y1835000D01*
X2990000Y1845000D01*
Y1855000D01*
X2980000D01*
X2970000Y1845000D01*
X2960000Y1855000D01*
X2950000D01*
Y1845000D01*
X2960000Y1835000D01*
X2950000Y1825000D01*
Y1815000D01*
X2850000Y1915000D02*
X2860000D01*
X2870000Y1925000D01*
X2880000Y1915000D01*
X2890000D01*
Y1925000D01*
X2880000Y1935000D01*
X2890000Y1945000D01*
Y1955000D01*
X2880000D01*
X2870000Y1945000D01*
X2860000Y1955000D01*
X2850000D01*
Y1945000D01*
X2860000Y1935000D01*
X2850000Y1925000D01*
Y1915000D01*
X2750000Y2015000D02*
X2760000D01*
X2770000Y2025000D01*
X2780000Y2015000D01*
X2790000D01*
Y2025000D01*
X2780000Y2035000D01*
X2790000Y2045000D01*
Y2055000D01*
X2780000D01*
X2770000Y2045000D01*
X2760000Y2055000D01*
X2750000D01*
Y2045000D01*
X2760000Y2035000D01*
X2750000Y2025000D01*
Y2015000D01*
X2860000Y2120000D02*
X2870000D01*
X2880000Y2130000D01*
X2890000Y2120000D01*
X2900000D01*
Y2130000D01*
X2890000Y2140000D01*
X2900000Y2150000D01*
Y2160000D01*
X2890000D01*
X2880000Y2150000D01*
X2870000Y2160000D01*
X2860000D01*
Y2150000D01*
X2870000Y2140000D01*
X2860000Y2130000D01*
Y2120000D01*
X2985000Y2505000D02*
X2995000D01*
X3005000Y2515000D01*
X3015000Y2505000D01*
X3025000D01*
Y2515000D01*
X3015000Y2525000D01*
X3025000Y2535000D01*
Y2545000D01*
X3015000D01*
X3005000Y2535000D01*
X2995000Y2545000D01*
X2985000D01*
Y2535000D01*
X2995000Y2525000D01*
X2985000Y2515000D01*
Y2505000D01*
X2960000Y2405000D02*
X2970000D01*
X2980000Y2415000D01*
X2990000Y2405000D01*
X3000000D01*
Y2415000D01*
X2990000Y2425000D01*
X3000000Y2435000D01*
Y2445000D01*
X2990000D01*
X2980000Y2435000D01*
X2970000Y2445000D01*
X2960000D01*
Y2435000D01*
X2970000Y2425000D01*
X2960000Y2415000D01*
Y2405000D01*
X2865000Y2335000D02*
X2875000D01*
X2885000Y2345000D01*
X2895000Y2335000D01*
X2905000D01*
Y2345000D01*
X2895000Y2355000D01*
X2905000Y2365000D01*
Y2375000D01*
X2895000D01*
X2885000Y2365000D01*
X2875000Y2375000D01*
X2865000D01*
Y2365000D01*
X2875000Y2355000D01*
X2865000Y2345000D01*
Y2335000D01*
X2550000Y2216028D02*
X2560000D01*
X2570000Y2226028D01*
X2580000Y2216028D01*
X2590000D01*
Y2226028D01*
X2580000Y2236028D01*
X2590000Y2246028D01*
Y2256028D01*
X2580000D01*
X2570000Y2246028D01*
X2560000Y2256028D01*
X2550000D01*
Y2246028D01*
X2560000Y2236028D01*
X2550000Y2226028D01*
Y2216028D01*
X2650000Y1715000D02*
X2660000D01*
X2670000Y1725000D01*
X2680000Y1715000D01*
X2690000D01*
Y1725000D01*
X2680000Y1735000D01*
X2690000Y1745000D01*
Y1755000D01*
X2680000D01*
X2670000Y1745000D01*
X2660000Y1755000D01*
X2650000D01*
Y1745000D01*
X2660000Y1735000D01*
X2650000Y1725000D01*
Y1715000D01*
X2750000Y1815000D02*
X2760000D01*
X2770000Y1825000D01*
X2780000Y1815000D01*
X2790000D01*
Y1825000D01*
X2780000Y1835000D01*
X2790000Y1845000D01*
Y1855000D01*
X2780000D01*
X2770000Y1845000D01*
X2760000Y1855000D01*
X2750000D01*
Y1845000D01*
X2760000Y1835000D01*
X2750000Y1825000D01*
Y1815000D01*
X2755000Y1610000D02*
X2765000D01*
X2775000Y1620000D01*
X2785000Y1610000D01*
X2795000D01*
Y1620000D01*
X2785000Y1630000D01*
X2795000Y1640000D01*
Y1650000D01*
X2785000D01*
X2775000Y1640000D01*
X2765000Y1650000D01*
X2755000D01*
Y1640000D01*
X2765000Y1630000D01*
X2755000Y1620000D01*
Y1610000D01*
X2450000Y1715000D02*
X2460000D01*
X2470000Y1725000D01*
X2480000Y1715000D01*
X2490000D01*
Y1725000D01*
X2480000Y1735000D01*
X2490000Y1745000D01*
Y1755000D01*
X2480000D01*
X2470000Y1745000D01*
X2460000Y1755000D01*
X2450000D01*
Y1745000D01*
X2460000Y1735000D01*
X2450000Y1725000D01*
Y1715000D01*
X2550000Y1815000D02*
X2560000D01*
X2570000Y1825000D01*
X2580000Y1815000D01*
X2590000D01*
Y1825000D01*
X2580000Y1835000D01*
X2590000Y1845000D01*
Y1855000D01*
X2580000D01*
X2570000Y1845000D01*
X2560000Y1855000D01*
X2550000D01*
Y1845000D01*
X2560000Y1835000D01*
X2550000Y1825000D01*
Y1815000D01*
X2555000Y1610000D02*
X2565000D01*
X2575000Y1620000D01*
X2585000Y1610000D01*
X2595000D01*
Y1620000D01*
X2585000Y1630000D01*
X2595000Y1640000D01*
Y1650000D01*
X2585000D01*
X2575000Y1640000D01*
X2565000Y1650000D01*
X2555000D01*
Y1640000D01*
X2565000Y1630000D01*
X2555000Y1620000D01*
Y1610000D01*
X2550000Y2015000D02*
X2560000D01*
X2570000Y2025000D01*
X2580000Y2015000D01*
X2590000D01*
Y2025000D01*
X2580000Y2035000D01*
X2590000Y2045000D01*
Y2055000D01*
X2580000D01*
X2570000Y2045000D01*
X2560000Y2055000D01*
X2550000D01*
Y2045000D01*
X2560000Y2035000D01*
X2550000Y2025000D01*
Y2015000D01*
X2655000Y1910000D02*
X2665000D01*
X2675000Y1920000D01*
X2685000Y1910000D01*
X2695000D01*
Y1920000D01*
X2685000Y1930000D01*
X2695000Y1940000D01*
Y1950000D01*
X2685000D01*
X2675000Y1940000D01*
X2665000Y1950000D01*
X2655000D01*
Y1940000D01*
X2665000Y1930000D01*
X2655000Y1920000D01*
Y1910000D01*
X2350000Y2015000D02*
X2360000D01*
X2370000Y2025000D01*
X2380000Y2015000D01*
X2390000D01*
Y2025000D01*
X2380000Y2035000D01*
X2390000Y2045000D01*
Y2055000D01*
X2380000D01*
X2370000Y2045000D01*
X2360000Y2055000D01*
X2350000D01*
Y2045000D01*
X2360000Y2035000D01*
X2350000Y2025000D01*
Y2015000D01*
X2455000Y1910000D02*
X2465000D01*
X2475000Y1920000D01*
X2485000Y1910000D01*
X2495000D01*
Y1920000D01*
X2485000Y1930000D01*
X2495000Y1940000D01*
Y1950000D01*
X2485000D01*
X2475000Y1940000D01*
X2465000Y1950000D01*
X2455000D01*
Y1940000D01*
X2465000Y1930000D01*
X2455000Y1920000D01*
Y1910000D01*
X2315000Y2715000D02*
X2325000D01*
X2335000Y2725000D01*
X2345000Y2715000D01*
X2355000D01*
Y2725000D01*
X2345000Y2735000D01*
X2355000Y2745000D01*
Y2755000D01*
X2345000D01*
X2335000Y2745000D01*
X2325000Y2755000D01*
X2315000D01*
Y2745000D01*
X2325000Y2735000D01*
X2315000Y2725000D01*
Y2715000D01*
X2505000Y2455000D02*
X2515000D01*
X2525000Y2465000D01*
X2535000Y2455000D01*
X2545000D01*
Y2465000D01*
X2535000Y2475000D01*
X2545000Y2485000D01*
Y2495000D01*
X2535000D01*
X2525000Y2485000D01*
X2515000Y2495000D01*
X2505000D01*
Y2485000D01*
X2515000Y2475000D01*
X2505000Y2465000D01*
Y2455000D01*
X2925000Y2650000D02*
X2935000D01*
X2945000Y2660000D01*
X2955000Y2650000D01*
X2965000D01*
Y2660000D01*
X2955000Y2670000D01*
X2965000Y2680000D01*
Y2690000D01*
X2955000D01*
X2945000Y2680000D01*
X2935000Y2690000D01*
X2925000D01*
Y2680000D01*
X2935000Y2670000D01*
X2925000Y2660000D01*
Y2650000D01*
X2480000Y2890000D02*
X2490000D01*
X2500000Y2900000D01*
X2510000Y2890000D01*
X2520000D01*
Y2900000D01*
X2510000Y2910000D01*
X2520000Y2920000D01*
Y2930000D01*
X2510000D01*
X2500000Y2920000D01*
X2490000Y2930000D01*
X2480000D01*
Y2920000D01*
X2490000Y2910000D01*
X2480000Y2900000D01*
Y2890000D01*
X2755000Y2895000D02*
X2765000D01*
X2775000Y2905000D01*
X2785000Y2895000D01*
X2795000D01*
Y2905000D01*
X2785000Y2915000D01*
X2795000Y2925000D01*
Y2935000D01*
X2785000D01*
X2775000Y2925000D01*
X2765000Y2935000D01*
X2755000D01*
Y2925000D01*
X2765000Y2915000D01*
X2755000Y2905000D01*
Y2895000D01*
X2705000Y2450000D02*
X2715000D01*
X2725000Y2460000D01*
X2735000Y2450000D01*
X2745000D01*
Y2460000D01*
X2735000Y2470000D01*
X2745000Y2480000D01*
Y2490000D01*
X2735000D01*
X2725000Y2480000D01*
X2715000Y2490000D01*
X2705000D01*
Y2480000D01*
X2715000Y2470000D01*
X2705000Y2460000D01*
Y2450000D01*
X1755000Y3010000D02*
X1765000D01*
X1775000Y3020000D01*
X1785000Y3010000D01*
X1795000D01*
Y3020000D01*
X1785000Y3030000D01*
X1795000Y3040000D01*
Y3050000D01*
X1785000D01*
X1775000Y3040000D01*
X1765000Y3050000D01*
X1755000D01*
Y3040000D01*
X1765000Y3030000D01*
X1755000Y3020000D01*
Y3010000D01*
Y3210000D02*
X1765000D01*
X1775000Y3220000D01*
X1785000Y3210000D01*
X1795000D01*
Y3220000D01*
X1785000Y3230000D01*
X1795000Y3240000D01*
Y3250000D01*
X1785000D01*
X1775000Y3240000D01*
X1765000Y3250000D01*
X1755000D01*
Y3240000D01*
X1765000Y3230000D01*
X1755000Y3220000D01*
Y3210000D01*
X1855000Y3310000D02*
X1865000D01*
X1875000Y3320000D01*
X1885000Y3310000D01*
X1895000D01*
Y3320000D01*
X1885000Y3330000D01*
X1895000Y3340000D01*
Y3350000D01*
X1885000D01*
X1875000Y3340000D01*
X1865000Y3350000D01*
X1855000D01*
Y3340000D01*
X1865000Y3330000D01*
X1855000Y3320000D01*
Y3310000D01*
Y3110000D02*
X1865000D01*
X1875000Y3120000D01*
X1885000Y3110000D01*
X1895000D01*
Y3120000D01*
X1885000Y3130000D01*
X1895000Y3140000D01*
Y3150000D01*
X1885000D01*
X1875000Y3140000D01*
X1865000Y3150000D01*
X1855000D01*
Y3140000D01*
X1865000Y3130000D01*
X1855000Y3120000D01*
Y3110000D01*
Y2910000D02*
X1865000D01*
X1875000Y2920000D01*
X1885000Y2910000D01*
X1895000D01*
Y2920000D01*
X1885000Y2930000D01*
X1895000Y2940000D01*
Y2950000D01*
X1885000D01*
X1875000Y2940000D01*
X1865000Y2950000D01*
X1855000D01*
Y2940000D01*
X1865000Y2930000D01*
X1855000Y2920000D01*
Y2910000D01*
X1550000Y1605000D02*
X1560000D01*
X1570000Y1615000D01*
X1580000Y1605000D01*
X1590000D01*
Y1615000D01*
X1580000Y1625000D01*
X1590000Y1635000D01*
Y1645000D01*
X1580000D01*
X1570000Y1635000D01*
X1560000Y1645000D01*
X1550000D01*
Y1635000D01*
X1560000Y1625000D01*
X1550000Y1615000D01*
Y1605000D01*
X1555000Y2010000D02*
X1565000D01*
X1575000Y2020000D01*
X1585000Y2010000D01*
X1595000D01*
Y2020000D01*
X1585000Y2030000D01*
X1595000Y2040000D01*
Y2050000D01*
X1585000D01*
X1575000Y2040000D01*
X1565000Y2050000D01*
X1555000D01*
Y2040000D01*
X1565000Y2030000D01*
X1555000Y2020000D01*
Y2010000D01*
Y3010000D02*
X1565000D01*
X1575000Y3020000D01*
X1585000Y3010000D01*
X1595000D01*
Y3020000D01*
X1585000Y3030000D01*
X1595000Y3040000D01*
Y3050000D01*
X1585000D01*
X1575000Y3040000D01*
X1565000Y3050000D01*
X1555000D01*
Y3040000D01*
X1565000Y3030000D01*
X1555000Y3020000D01*
Y3010000D01*
Y3210000D02*
X1565000D01*
X1575000Y3220000D01*
X1585000Y3210000D01*
X1595000D01*
Y3220000D01*
X1585000Y3230000D01*
X1595000Y3240000D01*
Y3250000D01*
X1585000D01*
X1575000Y3240000D01*
X1565000Y3250000D01*
X1555000D01*
Y3240000D01*
X1565000Y3230000D01*
X1555000Y3220000D01*
Y3210000D01*
X1655000Y3310000D02*
X1665000D01*
X1675000Y3320000D01*
X1685000Y3310000D01*
X1695000D01*
Y3320000D01*
X1685000Y3330000D01*
X1695000Y3340000D01*
Y3350000D01*
X1685000D01*
X1675000Y3340000D01*
X1665000Y3350000D01*
X1655000D01*
Y3340000D01*
X1665000Y3330000D01*
X1655000Y3320000D01*
Y3310000D01*
Y3110000D02*
X1665000D01*
X1675000Y3120000D01*
X1685000Y3110000D01*
X1695000D01*
Y3120000D01*
X1685000Y3130000D01*
X1695000Y3140000D01*
Y3150000D01*
X1685000D01*
X1675000Y3140000D01*
X1665000Y3150000D01*
X1655000D01*
Y3140000D01*
X1665000Y3130000D01*
X1655000Y3120000D01*
Y3110000D01*
Y2910000D02*
X1665000D01*
X1675000Y2920000D01*
X1685000Y2910000D01*
X1695000D01*
Y2920000D01*
X1685000Y2930000D01*
X1695000Y2940000D01*
Y2950000D01*
X1685000D01*
X1675000Y2940000D01*
X1665000Y2950000D01*
X1655000D01*
Y2940000D01*
X1665000Y2930000D01*
X1655000Y2920000D01*
Y2910000D01*
X1555000Y2200000D02*
X1565000D01*
X1575000Y2210000D01*
X1585000Y2200000D01*
X1595000D01*
Y2210000D01*
X1585000Y2220000D01*
X1595000Y2230000D01*
Y2240000D01*
X1585000D01*
X1575000Y2230000D01*
X1565000Y2240000D01*
X1555000D01*
Y2230000D01*
X1565000Y2220000D01*
X1555000Y2210000D01*
Y2200000D01*
Y1800000D02*
X1565000D01*
X1575000Y1810000D01*
X1585000Y1800000D01*
X1595000D01*
Y1810000D01*
X1585000Y1820000D01*
X1595000Y1830000D01*
Y1840000D01*
X1585000D01*
X1575000Y1830000D01*
X1565000Y1840000D01*
X1555000D01*
Y1830000D01*
X1565000Y1820000D01*
X1555000Y1810000D01*
Y1800000D01*
X1350000Y1605000D02*
X1360000D01*
X1370000Y1615000D01*
X1380000Y1605000D01*
X1390000D01*
Y1615000D01*
X1380000Y1625000D01*
X1390000Y1635000D01*
Y1645000D01*
X1380000D01*
X1370000Y1635000D01*
X1360000Y1645000D01*
X1350000D01*
Y1635000D01*
X1360000Y1625000D01*
X1350000Y1615000D01*
Y1605000D01*
X1355000Y2010000D02*
X1365000D01*
X1375000Y2020000D01*
X1385000Y2010000D01*
X1395000D01*
Y2020000D01*
X1385000Y2030000D01*
X1395000Y2040000D01*
Y2050000D01*
X1385000D01*
X1375000Y2040000D01*
X1365000Y2050000D01*
X1355000D01*
Y2040000D01*
X1365000Y2030000D01*
X1355000Y2020000D01*
Y2010000D01*
Y2200000D02*
X1365000D01*
X1375000Y2210000D01*
X1385000Y2200000D01*
X1395000D01*
Y2210000D01*
X1385000Y2220000D01*
X1395000Y2230000D01*
Y2240000D01*
X1385000D01*
X1375000Y2230000D01*
X1365000Y2240000D01*
X1355000D01*
Y2230000D01*
X1365000Y2220000D01*
X1355000Y2210000D01*
Y2200000D01*
Y1800000D02*
X1365000D01*
X1375000Y1810000D01*
X1385000Y1800000D01*
X1395000D01*
Y1810000D01*
X1385000Y1820000D01*
X1395000Y1830000D01*
Y1840000D01*
X1385000D01*
X1375000Y1830000D01*
X1365000Y1840000D01*
X1355000D01*
Y1830000D01*
X1365000Y1820000D01*
X1355000Y1810000D01*
Y1800000D01*
X1455000Y2300000D02*
X1465000D01*
X1475000Y2310000D01*
X1485000Y2300000D01*
X1495000D01*
Y2310000D01*
X1485000Y2320000D01*
X1495000Y2330000D01*
Y2340000D01*
X1485000D01*
X1475000Y2330000D01*
X1465000Y2340000D01*
X1455000D01*
Y2330000D01*
X1465000Y2320000D01*
X1455000Y2310000D01*
Y2300000D01*
Y2100000D02*
X1465000D01*
X1475000Y2110000D01*
X1485000Y2100000D01*
X1495000D01*
Y2110000D01*
X1485000Y2120000D01*
X1495000Y2130000D01*
Y2140000D01*
X1485000D01*
X1475000Y2130000D01*
X1465000Y2140000D01*
X1455000D01*
Y2130000D01*
X1465000Y2120000D01*
X1455000Y2110000D01*
Y2100000D01*
Y1900000D02*
X1465000D01*
X1475000Y1910000D01*
X1485000Y1900000D01*
X1495000D01*
Y1910000D01*
X1485000Y1920000D01*
X1495000Y1930000D01*
Y1940000D01*
X1485000D01*
X1475000Y1930000D01*
X1465000Y1940000D01*
X1455000D01*
Y1930000D01*
X1465000Y1920000D01*
X1455000Y1910000D01*
Y1900000D01*
X1450000Y1695000D02*
X1460000D01*
X1470000Y1705000D01*
X1480000Y1695000D01*
X1490000D01*
Y1705000D01*
X1480000Y1715000D01*
X1490000Y1725000D01*
Y1735000D01*
X1480000D01*
X1470000Y1725000D01*
X1460000Y1735000D01*
X1450000D01*
Y1725000D01*
X1460000Y1715000D01*
X1450000Y1705000D01*
Y1695000D01*
X1150000Y1605000D02*
X1160000D01*
X1170000Y1615000D01*
X1180000Y1605000D01*
X1190000D01*
Y1615000D01*
X1180000Y1625000D01*
X1190000Y1635000D01*
Y1645000D01*
X1180000D01*
X1170000Y1635000D01*
X1160000Y1645000D01*
X1150000D01*
Y1635000D01*
X1160000Y1625000D01*
X1150000Y1615000D01*
Y1605000D01*
X1155000Y2010000D02*
X1165000D01*
X1175000Y2020000D01*
X1185000Y2010000D01*
X1195000D01*
Y2020000D01*
X1185000Y2030000D01*
X1195000Y2040000D01*
Y2050000D01*
X1185000D01*
X1175000Y2040000D01*
X1165000Y2050000D01*
X1155000D01*
Y2040000D01*
X1165000Y2030000D01*
X1155000Y2020000D01*
Y2010000D01*
Y2410000D02*
X1165000D01*
X1175000Y2420000D01*
X1185000Y2410000D01*
X1195000D01*
Y2420000D01*
X1185000Y2430000D01*
X1195000Y2440000D01*
Y2450000D01*
X1185000D01*
X1175000Y2440000D01*
X1165000Y2450000D01*
X1155000D01*
Y2440000D01*
X1165000Y2430000D01*
X1155000Y2420000D01*
Y2410000D01*
Y2200000D02*
X1165000D01*
X1175000Y2210000D01*
X1185000Y2200000D01*
X1195000D01*
Y2210000D01*
X1185000Y2220000D01*
X1195000Y2230000D01*
Y2240000D01*
X1185000D01*
X1175000Y2230000D01*
X1165000Y2240000D01*
X1155000D01*
Y2230000D01*
X1165000Y2220000D01*
X1155000Y2210000D01*
Y2200000D01*
Y1800000D02*
X1165000D01*
X1175000Y1810000D01*
X1185000Y1800000D01*
X1195000D01*
Y1810000D01*
X1185000Y1820000D01*
X1195000Y1830000D01*
Y1840000D01*
X1185000D01*
X1175000Y1830000D01*
X1165000Y1840000D01*
X1155000D01*
Y1830000D01*
X1165000Y1820000D01*
X1155000Y1810000D01*
Y1800000D01*
X1255000Y2300000D02*
X1265000D01*
X1275000Y2310000D01*
X1285000Y2300000D01*
X1295000D01*
Y2310000D01*
X1285000Y2320000D01*
X1295000Y2330000D01*
Y2340000D01*
X1285000D01*
X1275000Y2330000D01*
X1265000Y2340000D01*
X1255000D01*
Y2330000D01*
X1265000Y2320000D01*
X1255000Y2310000D01*
Y2300000D01*
Y2100000D02*
X1265000D01*
X1275000Y2110000D01*
X1285000Y2100000D01*
X1295000D01*
Y2110000D01*
X1285000Y2120000D01*
X1295000Y2130000D01*
Y2140000D01*
X1285000D01*
X1275000Y2130000D01*
X1265000Y2140000D01*
X1255000D01*
Y2130000D01*
X1265000Y2120000D01*
X1255000Y2110000D01*
Y2100000D01*
Y1900000D02*
X1265000D01*
X1275000Y1910000D01*
X1285000Y1900000D01*
X1295000D01*
Y1910000D01*
X1285000Y1920000D01*
X1295000Y1930000D01*
Y1940000D01*
X1285000D01*
X1275000Y1930000D01*
X1265000Y1940000D01*
X1255000D01*
Y1930000D01*
X1265000Y1920000D01*
X1255000Y1910000D01*
Y1900000D01*
X1250000Y1695000D02*
X1260000D01*
X1270000Y1705000D01*
X1280000Y1695000D01*
X1290000D01*
Y1705000D01*
X1280000Y1715000D01*
X1290000Y1725000D01*
Y1735000D01*
X1280000D01*
X1270000Y1725000D01*
X1260000Y1735000D01*
X1250000D01*
Y1725000D01*
X1260000Y1715000D01*
X1250000Y1705000D01*
Y1695000D01*
X950000Y1605000D02*
X960000D01*
X970000Y1615000D01*
X980000Y1605000D01*
X990000D01*
Y1615000D01*
X980000Y1625000D01*
X990000Y1635000D01*
Y1645000D01*
X980000D01*
X970000Y1635000D01*
X960000Y1645000D01*
X950000D01*
Y1635000D01*
X960000Y1625000D01*
X950000Y1615000D01*
Y1605000D01*
X955000Y2010000D02*
X965000D01*
X975000Y2020000D01*
X985000Y2010000D01*
X995000D01*
Y2020000D01*
X985000Y2030000D01*
X995000Y2040000D01*
Y2050000D01*
X985000D01*
X975000Y2040000D01*
X965000Y2050000D01*
X955000D01*
Y2040000D01*
X965000Y2030000D01*
X955000Y2020000D01*
Y2010000D01*
Y2410000D02*
X965000D01*
X975000Y2420000D01*
X985000Y2410000D01*
X995000D01*
Y2420000D01*
X985000Y2430000D01*
X995000Y2440000D01*
Y2450000D01*
X985000D01*
X975000Y2440000D01*
X965000Y2450000D01*
X955000D01*
Y2440000D01*
X965000Y2430000D01*
X955000Y2420000D01*
Y2410000D01*
Y2810000D02*
X965000D01*
X975000Y2820000D01*
X985000Y2810000D01*
X995000D01*
Y2820000D01*
X985000Y2830000D01*
X995000Y2840000D01*
Y2850000D01*
X985000D01*
X975000Y2840000D01*
X965000Y2850000D01*
X955000D01*
Y2840000D01*
X965000Y2830000D01*
X955000Y2820000D01*
Y2810000D01*
Y2610000D02*
X965000D01*
X975000Y2620000D01*
X985000Y2610000D01*
X995000D01*
Y2620000D01*
X985000Y2630000D01*
X995000Y2640000D01*
Y2650000D01*
X985000D01*
X975000Y2640000D01*
X965000Y2650000D01*
X955000D01*
Y2640000D01*
X965000Y2630000D01*
X955000Y2620000D01*
Y2610000D01*
Y3010000D02*
X965000D01*
X975000Y3020000D01*
X985000Y3010000D01*
X995000D01*
Y3020000D01*
X985000Y3030000D01*
X995000Y3040000D01*
Y3050000D01*
X985000D01*
X975000Y3040000D01*
X965000Y3050000D01*
X955000D01*
Y3040000D01*
X965000Y3030000D01*
X955000Y3020000D01*
Y3010000D01*
Y3210000D02*
X965000D01*
X975000Y3220000D01*
X985000Y3210000D01*
X995000D01*
Y3220000D01*
X985000Y3230000D01*
X995000Y3240000D01*
Y3250000D01*
X985000D01*
X975000Y3240000D01*
X965000Y3250000D01*
X955000D01*
Y3240000D01*
X965000Y3230000D01*
X955000Y3220000D01*
Y3210000D01*
X1055000Y3310000D02*
X1065000D01*
X1075000Y3320000D01*
X1085000Y3310000D01*
X1095000D01*
Y3320000D01*
X1085000Y3330000D01*
X1095000Y3340000D01*
Y3350000D01*
X1085000D01*
X1075000Y3340000D01*
X1065000Y3350000D01*
X1055000D01*
Y3340000D01*
X1065000Y3330000D01*
X1055000Y3320000D01*
Y3310000D01*
Y3110000D02*
X1065000D01*
X1075000Y3120000D01*
X1085000Y3110000D01*
X1095000D01*
Y3120000D01*
X1085000Y3130000D01*
X1095000Y3140000D01*
Y3150000D01*
X1085000D01*
X1075000Y3140000D01*
X1065000Y3150000D01*
X1055000D01*
Y3140000D01*
X1065000Y3130000D01*
X1055000Y3120000D01*
Y3110000D01*
Y2710000D02*
X1065000D01*
X1075000Y2720000D01*
X1085000Y2710000D01*
X1095000D01*
Y2720000D01*
X1085000Y2730000D01*
X1095000Y2740000D01*
Y2750000D01*
X1085000D01*
X1075000Y2740000D01*
X1065000Y2750000D01*
X1055000D01*
Y2740000D01*
X1065000Y2730000D01*
X1055000Y2720000D01*
Y2710000D01*
Y2910000D02*
X1065000D01*
X1075000Y2920000D01*
X1085000Y2910000D01*
X1095000D01*
Y2920000D01*
X1085000Y2930000D01*
X1095000Y2940000D01*
Y2950000D01*
X1085000D01*
X1075000Y2940000D01*
X1065000Y2950000D01*
X1055000D01*
Y2940000D01*
X1065000Y2930000D01*
X1055000Y2920000D01*
Y2910000D01*
Y2510000D02*
X1065000D01*
X1075000Y2520000D01*
X1085000Y2510000D01*
X1095000D01*
Y2520000D01*
X1085000Y2530000D01*
X1095000Y2540000D01*
Y2550000D01*
X1085000D01*
X1075000Y2540000D01*
X1065000Y2550000D01*
X1055000D01*
Y2540000D01*
X1065000Y2530000D01*
X1055000Y2520000D01*
Y2510000D01*
X955000Y2200000D02*
X965000D01*
X975000Y2210000D01*
X985000Y2200000D01*
X995000D01*
Y2210000D01*
X985000Y2220000D01*
X995000Y2230000D01*
Y2240000D01*
X985000D01*
X975000Y2230000D01*
X965000Y2240000D01*
X955000D01*
Y2230000D01*
X965000Y2220000D01*
X955000Y2210000D01*
Y2200000D01*
Y1800000D02*
X965000D01*
X975000Y1810000D01*
X985000Y1800000D01*
X995000D01*
Y1810000D01*
X985000Y1820000D01*
X995000Y1830000D01*
Y1840000D01*
X985000D01*
X975000Y1830000D01*
X965000Y1840000D01*
X955000D01*
Y1830000D01*
X965000Y1820000D01*
X955000Y1810000D01*
Y1800000D01*
X1055000Y2300000D02*
X1065000D01*
X1075000Y2310000D01*
X1085000Y2300000D01*
X1095000D01*
Y2310000D01*
X1085000Y2320000D01*
X1095000Y2330000D01*
Y2340000D01*
X1085000D01*
X1075000Y2330000D01*
X1065000Y2340000D01*
X1055000D01*
Y2330000D01*
X1065000Y2320000D01*
X1055000Y2310000D01*
Y2300000D01*
Y2100000D02*
X1065000D01*
X1075000Y2110000D01*
X1085000Y2100000D01*
X1095000D01*
Y2110000D01*
X1085000Y2120000D01*
X1095000Y2130000D01*
Y2140000D01*
X1085000D01*
X1075000Y2130000D01*
X1065000Y2140000D01*
X1055000D01*
Y2130000D01*
X1065000Y2120000D01*
X1055000Y2110000D01*
Y2100000D01*
Y1900000D02*
X1065000D01*
X1075000Y1910000D01*
X1085000Y1900000D01*
X1095000D01*
Y1910000D01*
X1085000Y1920000D01*
X1095000Y1930000D01*
Y1940000D01*
X1085000D01*
X1075000Y1930000D01*
X1065000Y1940000D01*
X1055000D01*
Y1930000D01*
X1065000Y1920000D01*
X1055000Y1910000D01*
Y1900000D01*
X1050000Y1695000D02*
X1060000D01*
X1070000Y1705000D01*
X1080000Y1695000D01*
X1090000D01*
Y1705000D01*
X1080000Y1715000D01*
X1090000Y1725000D01*
Y1735000D01*
X1080000D01*
X1070000Y1725000D01*
X1060000Y1735000D01*
X1050000D01*
Y1725000D01*
X1060000Y1715000D01*
X1050000Y1705000D01*
Y1695000D01*
X850000D02*
X860000D01*
X870000Y1705000D01*
X880000Y1695000D01*
X890000D01*
Y1705000D01*
X880000Y1715000D01*
X890000Y1725000D01*
Y1735000D01*
X880000D01*
X870000Y1725000D01*
X860000Y1735000D01*
X850000D01*
Y1725000D01*
X860000Y1715000D01*
X850000Y1705000D01*
Y1695000D01*
X855000Y1900000D02*
X865000D01*
X875000Y1910000D01*
X885000Y1900000D01*
X895000D01*
Y1910000D01*
X885000Y1920000D01*
X895000Y1930000D01*
Y1940000D01*
X885000D01*
X875000Y1930000D01*
X865000Y1940000D01*
X855000D01*
Y1930000D01*
X865000Y1920000D01*
X855000Y1910000D01*
Y1900000D01*
Y2100000D02*
X865000D01*
X875000Y2110000D01*
X885000Y2100000D01*
X895000D01*
Y2110000D01*
X885000Y2120000D01*
X895000Y2130000D01*
Y2140000D01*
X885000D01*
X875000Y2130000D01*
X865000Y2140000D01*
X855000D01*
Y2130000D01*
X865000Y2120000D01*
X855000Y2110000D01*
Y2100000D01*
Y2300000D02*
X865000D01*
X875000Y2310000D01*
X885000Y2300000D01*
X895000D01*
Y2310000D01*
X885000Y2320000D01*
X895000Y2330000D01*
Y2340000D01*
X885000D01*
X875000Y2330000D01*
X865000Y2340000D01*
X855000D01*
Y2330000D01*
X865000Y2320000D01*
X855000Y2310000D01*
Y2300000D01*
X755000Y1800000D02*
X765000D01*
X775000Y1810000D01*
X785000Y1800000D01*
X795000D01*
Y1810000D01*
X785000Y1820000D01*
X795000Y1830000D01*
Y1840000D01*
X785000D01*
X775000Y1830000D01*
X765000Y1840000D01*
X755000D01*
Y1830000D01*
X765000Y1820000D01*
X755000Y1810000D01*
Y1800000D01*
Y2200000D02*
X765000D01*
X775000Y2210000D01*
X785000Y2200000D01*
X795000D01*
Y2210000D01*
X785000Y2220000D01*
X795000Y2230000D01*
Y2240000D01*
X785000D01*
X775000Y2230000D01*
X765000Y2240000D01*
X755000D01*
Y2230000D01*
X765000Y2220000D01*
X755000Y2210000D01*
Y2200000D01*
X855000Y2510000D02*
X865000D01*
X875000Y2520000D01*
X885000Y2510000D01*
X895000D01*
Y2520000D01*
X885000Y2530000D01*
X895000Y2540000D01*
Y2550000D01*
X885000D01*
X875000Y2540000D01*
X865000Y2550000D01*
X855000D01*
Y2540000D01*
X865000Y2530000D01*
X855000Y2520000D01*
Y2510000D01*
Y2910000D02*
X865000D01*
X875000Y2920000D01*
X885000Y2910000D01*
X895000D01*
Y2920000D01*
X885000Y2930000D01*
X895000Y2940000D01*
Y2950000D01*
X885000D01*
X875000Y2940000D01*
X865000Y2950000D01*
X855000D01*
Y2940000D01*
X865000Y2930000D01*
X855000Y2920000D01*
Y2910000D01*
Y2710000D02*
X865000D01*
X875000Y2720000D01*
X885000Y2710000D01*
X895000D01*
Y2720000D01*
X885000Y2730000D01*
X895000Y2740000D01*
Y2750000D01*
X885000D01*
X875000Y2740000D01*
X865000Y2750000D01*
X855000D01*
Y2740000D01*
X865000Y2730000D01*
X855000Y2720000D01*
Y2710000D01*
Y3110000D02*
X865000D01*
X875000Y3120000D01*
X885000Y3110000D01*
X895000D01*
Y3120000D01*
X885000Y3130000D01*
X895000Y3140000D01*
Y3150000D01*
X885000D01*
X875000Y3140000D01*
X865000Y3150000D01*
X855000D01*
Y3140000D01*
X865000Y3130000D01*
X855000Y3120000D01*
Y3110000D01*
Y3310000D02*
X865000D01*
X875000Y3320000D01*
X885000Y3310000D01*
X895000D01*
Y3320000D01*
X885000Y3330000D01*
X895000Y3340000D01*
Y3350000D01*
X885000D01*
X875000Y3340000D01*
X865000Y3350000D01*
X855000D01*
Y3340000D01*
X865000Y3330000D01*
X855000Y3320000D01*
Y3310000D01*
X755000Y3210000D02*
X765000D01*
X775000Y3220000D01*
X785000Y3210000D01*
X795000D01*
Y3220000D01*
X785000Y3230000D01*
X795000Y3240000D01*
Y3250000D01*
X785000D01*
X775000Y3240000D01*
X765000Y3250000D01*
X755000D01*
Y3240000D01*
X765000Y3230000D01*
X755000Y3220000D01*
Y3210000D01*
Y3010000D02*
X765000D01*
X775000Y3020000D01*
X785000Y3010000D01*
X795000D01*
Y3020000D01*
X785000Y3030000D01*
X795000Y3040000D01*
Y3050000D01*
X785000D01*
X775000Y3040000D01*
X765000Y3050000D01*
X755000D01*
Y3040000D01*
X765000Y3030000D01*
X755000Y3020000D01*
Y3010000D01*
Y2610000D02*
X765000D01*
X775000Y2620000D01*
X785000Y2610000D01*
X795000D01*
Y2620000D01*
X785000Y2630000D01*
X795000Y2640000D01*
Y2650000D01*
X785000D01*
X775000Y2640000D01*
X765000Y2650000D01*
X755000D01*
Y2640000D01*
X765000Y2630000D01*
X755000Y2620000D01*
Y2610000D01*
X555000Y1810000D02*
X565000D01*
X575000Y1820000D01*
X585000Y1810000D01*
X595000D01*
Y1820000D01*
X585000Y1830000D01*
X595000Y1840000D01*
Y1850000D01*
X585000D01*
X575000Y1840000D01*
X565000Y1850000D01*
X555000D01*
Y1840000D01*
X565000Y1830000D01*
X555000Y1820000D01*
Y1810000D01*
Y2210000D02*
X565000D01*
X575000Y2220000D01*
X585000Y2210000D01*
X595000D01*
Y2220000D01*
X585000Y2230000D01*
X595000Y2240000D01*
Y2250000D01*
X585000D01*
X575000Y2240000D01*
X565000Y2250000D01*
X555000D01*
Y2240000D01*
X565000Y2230000D01*
X555000Y2220000D01*
Y2210000D01*
Y3010000D02*
X565000D01*
X575000Y3020000D01*
X585000Y3010000D01*
X595000D01*
Y3020000D01*
X585000Y3030000D01*
X595000Y3040000D01*
Y3050000D01*
X585000D01*
X575000Y3040000D01*
X565000Y3050000D01*
X555000D01*
Y3040000D01*
X565000Y3030000D01*
X555000Y3020000D01*
Y3010000D01*
X550000Y3415000D02*
X560000D01*
X570000Y3425000D01*
X580000Y3415000D01*
X590000D01*
Y3425000D01*
X580000Y3435000D01*
X590000Y3445000D01*
Y3455000D01*
X580000D01*
X570000Y3445000D01*
X560000Y3455000D01*
X550000D01*
Y3445000D01*
X560000Y3435000D01*
X550000Y3425000D01*
Y3415000D01*
X650000Y3315000D02*
X660000D01*
X670000Y3325000D01*
X680000Y3315000D01*
X690000D01*
Y3325000D01*
X680000Y3335000D01*
X690000Y3345000D01*
Y3355000D01*
X680000D01*
X670000Y3345000D01*
X660000Y3355000D01*
X650000D01*
Y3345000D01*
X660000Y3335000D01*
X650000Y3325000D01*
Y3315000D01*
X555000Y3210000D02*
X565000D01*
X575000Y3220000D01*
X585000Y3210000D01*
X595000D01*
Y3220000D01*
X585000Y3230000D01*
X595000Y3240000D01*
Y3250000D01*
X585000D01*
X575000Y3240000D01*
X565000Y3250000D01*
X555000D01*
Y3240000D01*
X565000Y3230000D01*
X555000Y3220000D01*
Y3210000D01*
X655000Y3110000D02*
X665000D01*
X675000Y3120000D01*
X685000Y3110000D01*
X695000D01*
Y3120000D01*
X685000Y3130000D01*
X695000Y3140000D01*
Y3150000D01*
X685000D01*
X675000Y3140000D01*
X665000Y3150000D01*
X655000D01*
Y3140000D01*
X665000Y3130000D01*
X655000Y3120000D01*
Y3110000D01*
X555000Y2610000D02*
X565000D01*
X575000Y2620000D01*
X585000Y2610000D01*
X595000D01*
Y2620000D01*
X585000Y2630000D01*
X595000Y2640000D01*
Y2650000D01*
X585000D01*
X575000Y2640000D01*
X565000Y2650000D01*
X555000D01*
Y2640000D01*
X565000Y2630000D01*
X555000Y2620000D01*
Y2610000D01*
X250000Y3515000D02*
X260000D01*
X270000Y3525000D01*
X280000Y3515000D01*
X290000D01*
Y3525000D01*
X280000Y3535000D01*
X290000Y3545000D01*
Y3555000D01*
X280000D01*
X270000Y3545000D01*
X260000Y3555000D01*
X250000D01*
Y3545000D01*
X260000Y3535000D01*
X250000Y3525000D01*
Y3515000D01*
Y3315000D02*
X260000D01*
X270000Y3325000D01*
X280000Y3315000D01*
X290000D01*
Y3325000D01*
X280000Y3335000D01*
X290000Y3345000D01*
Y3355000D01*
X280000D01*
X270000Y3345000D01*
X260000Y3355000D01*
X250000D01*
Y3345000D01*
X260000Y3335000D01*
X250000Y3325000D01*
Y3315000D01*
X150000Y3415000D02*
X160000D01*
X170000Y3425000D01*
X180000Y3415000D01*
X190000D01*
Y3425000D01*
X180000Y3435000D01*
X190000Y3445000D01*
Y3455000D01*
X180000D01*
X170000Y3445000D01*
X160000Y3455000D01*
X150000D01*
Y3445000D01*
X160000Y3435000D01*
X150000Y3425000D01*
Y3415000D01*
X155000Y3210000D02*
X165000D01*
X175000Y3220000D01*
X185000Y3210000D01*
X195000D01*
Y3220000D01*
X185000Y3230000D01*
X195000Y3240000D01*
Y3250000D01*
X185000D01*
X175000Y3240000D01*
X165000Y3250000D01*
X155000D01*
Y3240000D01*
X165000Y3230000D01*
X155000Y3220000D01*
Y3210000D01*
Y3010000D02*
X165000D01*
X175000Y3020000D01*
X185000Y3010000D01*
X195000D01*
Y3020000D01*
X185000Y3030000D01*
X195000Y3040000D01*
Y3050000D01*
X185000D01*
X175000Y3040000D01*
X165000Y3050000D01*
X155000D01*
Y3040000D01*
X165000Y3030000D01*
X155000Y3020000D01*
Y3010000D01*
X255000Y3110000D02*
X265000D01*
X275000Y3120000D01*
X285000Y3110000D01*
X295000D01*
Y3120000D01*
X285000Y3130000D01*
X295000Y3140000D01*
Y3150000D01*
X285000D01*
X275000Y3140000D01*
X265000Y3150000D01*
X255000D01*
Y3140000D01*
X265000Y3130000D01*
X255000Y3120000D01*
Y3110000D01*
X555000Y2810000D02*
X565000D01*
X575000Y2820000D01*
X585000Y2810000D01*
X595000D01*
Y2820000D01*
X585000Y2830000D01*
X595000Y2840000D01*
Y2850000D01*
X585000D01*
X575000Y2840000D01*
X565000Y2850000D01*
X555000D01*
Y2840000D01*
X565000Y2830000D01*
X555000Y2820000D01*
Y2810000D01*
X655000Y2910000D02*
X665000D01*
X675000Y2920000D01*
X685000Y2910000D01*
X695000D01*
Y2920000D01*
X685000Y2930000D01*
X695000Y2940000D01*
Y2950000D01*
X685000D01*
X675000Y2940000D01*
X665000Y2950000D01*
X655000D01*
Y2940000D01*
X665000Y2930000D01*
X655000Y2920000D01*
Y2910000D01*
Y2710000D02*
X665000D01*
X675000Y2720000D01*
X685000Y2710000D01*
X695000D01*
Y2720000D01*
X685000Y2730000D01*
X695000Y2740000D01*
Y2750000D01*
X685000D01*
X675000Y2740000D01*
X665000Y2750000D01*
X655000D01*
Y2740000D01*
X665000Y2730000D01*
X655000Y2720000D01*
Y2710000D01*
X755000Y2810000D02*
X765000D01*
X775000Y2820000D01*
X785000Y2810000D01*
X795000D01*
Y2820000D01*
X785000Y2830000D01*
X795000Y2840000D01*
Y2850000D01*
X785000D01*
X775000Y2840000D01*
X765000Y2850000D01*
X755000D01*
Y2840000D01*
X765000Y2830000D01*
X755000Y2820000D01*
Y2810000D01*
X555000Y2410000D02*
X565000D01*
X575000Y2420000D01*
X585000Y2410000D01*
X595000D01*
Y2420000D01*
X585000Y2430000D01*
X595000Y2440000D01*
Y2450000D01*
X585000D01*
X575000Y2440000D01*
X565000Y2450000D01*
X555000D01*
Y2440000D01*
X565000Y2430000D01*
X555000Y2420000D01*
Y2410000D01*
X655000Y2510000D02*
X665000D01*
X675000Y2520000D01*
X685000Y2510000D01*
X695000D01*
Y2520000D01*
X685000Y2530000D01*
X695000Y2540000D01*
Y2550000D01*
X685000D01*
X675000Y2540000D01*
X665000Y2550000D01*
X655000D01*
Y2540000D01*
X665000Y2530000D01*
X655000Y2520000D01*
Y2510000D01*
Y2310000D02*
X665000D01*
X675000Y2320000D01*
X685000Y2310000D01*
X695000D01*
Y2320000D01*
X685000Y2330000D01*
X695000Y2340000D01*
Y2350000D01*
X685000D01*
X675000Y2340000D01*
X665000Y2350000D01*
X655000D01*
Y2340000D01*
X665000Y2330000D01*
X655000Y2320000D01*
Y2310000D01*
X755000Y2410000D02*
X765000D01*
X775000Y2420000D01*
X785000Y2410000D01*
X795000D01*
Y2420000D01*
X785000Y2430000D01*
X795000Y2440000D01*
Y2450000D01*
X785000D01*
X775000Y2440000D01*
X765000Y2450000D01*
X755000D01*
Y2440000D01*
X765000Y2430000D01*
X755000Y2420000D01*
Y2410000D01*
X555000Y2010000D02*
X565000D01*
X575000Y2020000D01*
X585000Y2010000D01*
X595000D01*
Y2020000D01*
X585000Y2030000D01*
X595000Y2040000D01*
Y2050000D01*
X585000D01*
X575000Y2040000D01*
X565000Y2050000D01*
X555000D01*
Y2040000D01*
X565000Y2030000D01*
X555000Y2020000D01*
Y2010000D01*
X655000Y2110000D02*
X665000D01*
X675000Y2120000D01*
X685000Y2110000D01*
X695000D01*
Y2120000D01*
X685000Y2130000D01*
X695000Y2140000D01*
Y2150000D01*
X685000D01*
X675000Y2140000D01*
X665000Y2150000D01*
X655000D01*
Y2140000D01*
X665000Y2130000D01*
X655000Y2120000D01*
Y2110000D01*
Y1910000D02*
X665000D01*
X675000Y1920000D01*
X685000Y1910000D01*
X695000D01*
Y1920000D01*
X685000Y1930000D01*
X695000Y1940000D01*
Y1950000D01*
X685000D01*
X675000Y1940000D01*
X665000Y1950000D01*
X655000D01*
Y1940000D01*
X665000Y1930000D01*
X655000Y1920000D01*
Y1910000D01*
X755000Y2010000D02*
X765000D01*
X775000Y2020000D01*
X785000Y2010000D01*
X795000D01*
Y2020000D01*
X785000Y2030000D01*
X795000Y2040000D01*
Y2050000D01*
X785000D01*
X775000Y2040000D01*
X765000Y2050000D01*
X755000D01*
Y2040000D01*
X765000Y2030000D01*
X755000Y2020000D01*
Y2010000D01*
X750000Y1605000D02*
X760000D01*
X770000Y1615000D01*
X780000Y1605000D01*
X790000D01*
Y1615000D01*
X780000Y1625000D01*
X790000Y1635000D01*
Y1645000D01*
X780000D01*
X770000Y1635000D01*
X760000Y1645000D01*
X750000D01*
Y1635000D01*
X760000Y1625000D01*
X750000Y1615000D01*
Y1605000D01*
X650000Y1505000D02*
X660000D01*
X670000Y1515000D01*
X680000Y1505000D01*
X690000D01*
Y1515000D01*
X680000Y1525000D01*
X690000Y1535000D01*
Y1545000D01*
X680000D01*
X670000Y1535000D01*
X660000Y1545000D01*
X650000D01*
Y1535000D01*
X660000Y1525000D01*
X650000Y1515000D01*
Y1505000D01*
Y1705000D02*
X660000D01*
X670000Y1715000D01*
X680000Y1705000D01*
X690000D01*
Y1715000D01*
X680000Y1725000D01*
X690000Y1735000D01*
Y1745000D01*
X680000D01*
X670000Y1735000D01*
X660000Y1745000D01*
X650000D01*
Y1735000D01*
X660000Y1725000D01*
X650000Y1715000D01*
Y1705000D01*
X550000Y1605000D02*
X560000D01*
X570000Y1615000D01*
X580000Y1605000D01*
X590000D01*
Y1615000D01*
X580000Y1625000D01*
X590000Y1635000D01*
Y1645000D01*
X580000D01*
X570000Y1635000D01*
X560000Y1645000D01*
X550000D01*
Y1635000D01*
X560000Y1625000D01*
X550000Y1615000D01*
Y1605000D01*
X450000Y1505000D02*
X460000D01*
X470000Y1515000D01*
X480000Y1505000D01*
X490000D01*
Y1515000D01*
X480000Y1525000D01*
X490000Y1535000D01*
Y1545000D01*
X480000D01*
X470000Y1535000D01*
X460000Y1545000D01*
X450000D01*
Y1535000D01*
X460000Y1525000D01*
X450000Y1515000D01*
Y1505000D01*
Y1705000D02*
X460000D01*
X470000Y1715000D01*
X480000Y1705000D01*
X490000D01*
Y1715000D01*
X480000Y1725000D01*
X490000Y1735000D01*
Y1745000D01*
X480000D01*
X470000Y1735000D01*
X460000Y1745000D01*
X450000D01*
Y1735000D01*
X460000Y1725000D01*
X450000Y1715000D01*
Y1705000D01*
X350000Y1605000D02*
X360000D01*
X370000Y1615000D01*
X380000Y1605000D01*
X390000D01*
Y1615000D01*
X380000Y1625000D01*
X390000Y1635000D01*
Y1645000D01*
X380000D01*
X370000Y1635000D01*
X360000Y1645000D01*
X350000D01*
Y1635000D01*
X360000Y1625000D01*
X350000Y1615000D01*
Y1605000D01*
X250000Y1705000D02*
X260000D01*
X270000Y1715000D01*
X280000Y1705000D01*
X290000D01*
Y1715000D01*
X280000Y1725000D01*
X290000Y1735000D01*
Y1745000D01*
X280000D01*
X270000Y1735000D01*
X260000Y1745000D01*
X250000D01*
Y1735000D01*
X260000Y1725000D01*
X250000Y1715000D01*
Y1705000D01*
X150000Y1605000D02*
X160000D01*
X170000Y1615000D01*
X180000Y1605000D01*
X190000D01*
Y1615000D01*
X180000Y1625000D01*
X190000Y1635000D01*
Y1645000D01*
X180000D01*
X170000Y1635000D01*
X160000Y1645000D01*
X150000D01*
Y1635000D01*
X160000Y1625000D01*
X150000Y1615000D01*
Y1605000D01*
X250000Y1505000D02*
X260000D01*
X270000Y1515000D01*
X280000Y1505000D01*
X290000D01*
Y1515000D01*
X280000Y1525000D01*
X290000Y1535000D01*
Y1545000D01*
X280000D01*
X270000Y1535000D01*
X260000Y1545000D01*
X250000D01*
Y1535000D01*
X260000Y1525000D01*
X250000Y1515000D01*
Y1505000D01*
X150000Y1405000D02*
X160000D01*
X170000Y1415000D01*
X180000Y1405000D01*
X190000D01*
Y1415000D01*
X180000Y1425000D01*
X190000Y1435000D01*
Y1445000D01*
X180000D01*
X170000Y1435000D01*
X160000Y1445000D01*
X150000D01*
Y1435000D01*
X160000Y1425000D01*
X150000Y1415000D01*
Y1405000D01*
X255000Y2110000D02*
X265000D01*
X275000Y2120000D01*
X285000Y2110000D01*
X295000D01*
Y2120000D01*
X285000Y2130000D01*
X295000Y2140000D01*
Y2150000D01*
X285000D01*
X275000Y2140000D01*
X265000Y2150000D01*
X255000D01*
Y2140000D01*
X265000Y2130000D01*
X255000Y2120000D01*
Y2110000D01*
X155000Y2010000D02*
X165000D01*
X175000Y2020000D01*
X185000Y2010000D01*
X195000D01*
Y2020000D01*
X185000Y2030000D01*
X195000Y2040000D01*
Y2050000D01*
X185000D01*
X175000Y2040000D01*
X165000Y2050000D01*
X155000D01*
Y2040000D01*
X165000Y2030000D01*
X155000Y2020000D01*
Y2010000D01*
X255000Y1910000D02*
X265000D01*
X275000Y1920000D01*
X285000Y1910000D01*
X295000D01*
Y1920000D01*
X285000Y1930000D01*
X295000Y1940000D01*
Y1950000D01*
X285000D01*
X275000Y1940000D01*
X265000Y1950000D01*
X255000D01*
Y1940000D01*
X265000Y1930000D01*
X255000Y1920000D01*
Y1910000D01*
X155000Y1810000D02*
X165000D01*
X175000Y1820000D01*
X185000Y1810000D01*
X195000D01*
Y1820000D01*
X185000Y1830000D01*
X195000Y1840000D01*
Y1850000D01*
X185000D01*
X175000Y1840000D01*
X165000Y1850000D01*
X155000D01*
Y1840000D01*
X165000Y1830000D01*
X155000Y1820000D01*
Y1810000D01*
X255000Y2510000D02*
X265000D01*
X275000Y2520000D01*
X285000Y2510000D01*
X295000D01*
Y2520000D01*
X285000Y2530000D01*
X295000Y2540000D01*
Y2550000D01*
X285000D01*
X275000Y2540000D01*
X265000Y2550000D01*
X255000D01*
Y2540000D01*
X265000Y2530000D01*
X255000Y2520000D01*
Y2510000D01*
X155000Y2410000D02*
X165000D01*
X175000Y2420000D01*
X185000Y2410000D01*
X195000D01*
Y2420000D01*
X185000Y2430000D01*
X195000Y2440000D01*
Y2450000D01*
X185000D01*
X175000Y2440000D01*
X165000Y2450000D01*
X155000D01*
Y2440000D01*
X165000Y2430000D01*
X155000Y2420000D01*
Y2410000D01*
X255000Y2310000D02*
X265000D01*
X275000Y2320000D01*
X285000Y2310000D01*
X295000D01*
Y2320000D01*
X285000Y2330000D01*
X295000Y2340000D01*
Y2350000D01*
X285000D01*
X275000Y2340000D01*
X265000Y2350000D01*
X255000D01*
Y2340000D01*
X265000Y2330000D01*
X255000Y2320000D01*
Y2310000D01*
X155000Y2210000D02*
X165000D01*
X175000Y2220000D01*
X185000Y2210000D01*
X195000D01*
Y2220000D01*
X185000Y2230000D01*
X195000Y2240000D01*
Y2250000D01*
X185000D01*
X175000Y2240000D01*
X165000Y2250000D01*
X155000D01*
Y2240000D01*
X165000Y2230000D01*
X155000Y2220000D01*
Y2210000D01*
X255000Y2910000D02*
X265000D01*
X275000Y2920000D01*
X285000Y2910000D01*
X295000D01*
Y2920000D01*
X285000Y2930000D01*
X295000Y2940000D01*
Y2950000D01*
X285000D01*
X275000Y2940000D01*
X265000Y2950000D01*
X255000D01*
Y2940000D01*
X265000Y2930000D01*
X255000Y2920000D01*
Y2910000D01*
X155000Y2810000D02*
X165000D01*
X175000Y2820000D01*
X185000Y2810000D01*
X195000D01*
Y2820000D01*
X185000Y2830000D01*
X195000Y2840000D01*
Y2850000D01*
X185000D01*
X175000Y2840000D01*
X165000Y2850000D01*
X155000D01*
Y2840000D01*
X165000Y2830000D01*
X155000Y2820000D01*
Y2810000D01*
X255000Y2710000D02*
X265000D01*
X275000Y2720000D01*
X285000Y2710000D01*
X295000D01*
Y2720000D01*
X285000Y2730000D01*
X295000Y2740000D01*
Y2750000D01*
X285000D01*
X275000Y2740000D01*
X265000Y2750000D01*
X255000D01*
Y2740000D01*
X265000Y2730000D01*
X255000Y2720000D01*
Y2710000D01*
X155000Y2610000D02*
X165000D01*
X175000Y2620000D01*
X185000Y2610000D01*
X195000D01*
Y2620000D01*
X185000Y2630000D01*
X195000Y2640000D01*
Y2650000D01*
X185000D01*
X175000Y2640000D01*
X165000Y2650000D01*
X155000D01*
Y2640000D01*
X165000Y2630000D01*
X155000Y2620000D01*
Y2610000D01*
X3135000Y1195000D02*
X3155000Y1215000D01*
X3175000Y1195000D01*
X3155000Y1175000D01*
X3135000Y1195000D01*
Y2255000D02*
X3155000Y2275000D01*
X3175000Y2255000D01*
X3155000Y2235000D01*
X3135000Y2255000D01*
X3055000Y2035000D02*
Y2075000D01*
X3095000D01*
Y2035000D01*
X3055000D01*
X3063000Y2043000D02*
Y2067000D01*
X3087000D01*
Y2043000D01*
X3063000D01*
X3055000Y975000D02*
Y1015000D01*
X3095000D01*
Y975000D01*
X3055000D01*
X3063000Y983000D02*
Y1007000D01*
X3087000D01*
Y983000D01*
X3063000D01*
X277598Y702598D02*
Y742598D01*
X317598D01*
Y702598D01*
X277598D01*
X285598Y710598D02*
Y734598D01*
X309598D01*
Y710598D01*
X285598D01*
X420000Y830000D02*
X440000Y850000D01*
X460000Y830000D01*
X440000Y810000D01*
X420000Y830000D01*
X1257598Y702598D02*
Y742598D01*
X1297598D01*
Y702598D01*
X1257598D01*
X1265598Y710598D02*
Y734598D01*
X1289598D01*
Y710598D01*
X1265598D01*
X1400000Y830000D02*
X1420000Y850000D01*
X1440000Y830000D01*
X1420000Y810000D01*
X1400000Y830000D01*
X2287598Y702598D02*
Y742598D01*
X2327598D01*
Y702598D01*
X2287598D01*
X2295598Y710598D02*
Y734598D01*
X2319598D01*
Y710598D01*
X2295598D01*
X2430000Y830000D02*
X2450000Y850000D01*
X2470000Y830000D01*
X2450000Y810000D01*
X2430000Y830000D01*
X245000Y1190000D02*
X265000Y1210000D01*
X285000Y1190000D01*
X265000Y1170000D01*
X245000Y1190000D01*
X2250000Y1170000D02*
Y1210000D01*
X2290000D01*
Y1170000D01*
X2250000D01*
X2258000Y1178000D02*
Y1202000D01*
X2282000D01*
Y1178000D01*
X2258000D01*
X1225000Y1170000D02*
Y1210000D01*
X1265000D01*
Y1170000D01*
X1225000D01*
X1233000Y1178000D02*
Y1202000D01*
X1257000D01*
Y1178000D01*
X1233000D01*
X1639370Y1384370D02*
Y1424370D01*
X1679370D01*
Y1384370D01*
X1639370D01*
X1647370Y1392370D02*
Y1416370D01*
X1671370D01*
Y1392370D01*
X1647370D01*
X2230000Y1385000D02*
Y1425000D01*
X2270000D01*
Y1385000D01*
X2230000D01*
X2238000Y1393000D02*
Y1417000D01*
X2262000D01*
Y1393000D01*
X2238000D01*
D95*
X2965000Y3440000D02*
G03*
X2965000Y3440000I-20000J0D01*
G01*
Y3140000D02*
G03*
X2965000Y3140000I-20000J0D01*
G01*
X2700000Y3440000D02*
G03*
X2700000Y3440000I-20000J0D01*
G01*
Y3140000D02*
G03*
X2700000Y3140000I-20000J0D01*
G01*
X2425000Y2180000D02*
G03*
X2425000Y2180000I-20000J0D01*
G01*
Y2295000D02*
G03*
X2425000Y2295000I-20000J0D01*
G01*
Y2415000D02*
G03*
X2425000Y2415000I-20000J0D01*
G01*
X1870000Y2775000D02*
G03*
X1870000Y2775000I-20000J0D01*
G01*
Y2675000D02*
G03*
X1870000Y2675000I-20000J0D01*
G01*
Y2580000D02*
G03*
X1870000Y2580000I-20000J0D01*
G01*
%TF.MD5,661641a879a5e3949de23639c12a0af3*%
M02*
