G04 Layer_Color=255*
%FSLAX26Y26*%
%MOIN*%
%TF.FileFunction,Pads,Bot*%
%TF.Part,Single*%
G01*
G75*
%TA.AperFunction,ComponentPad*%
%ADD27R,0.060000X0.060000*%
%ADD28C,0.060000*%
%ADD29C,0.078740*%
%ADD30C,0.059055*%
%ADD31R,0.118110X0.118110*%
%ADD32C,0.118110*%
%ADD33R,0.118110X0.118110*%
%TA.AperFunction,ViaPad*%
%ADD34O,0.078740X0.070866*%
%TA.AperFunction,WasherPad*%
%ADD35C,0.060000*%
%TA.AperFunction,ComponentPad*%
%ADD36R,0.059055X0.059055*%
D27*
X1645000Y3635000D02*
D03*
Y3735000D02*
D03*
D28*
X1345000Y3635000D02*
D03*
X1245000D02*
D03*
X1145000D02*
D03*
X1045000D02*
D03*
X945000D02*
D03*
X1545000D02*
D03*
X1445000D02*
D03*
X1345000Y3735000D02*
D03*
X1245000D02*
D03*
X1145000D02*
D03*
X1045000D02*
D03*
X945000D02*
D03*
X1545000D02*
D03*
X1445000D02*
D03*
X1744370Y715591D02*
D03*
Y940000D02*
D03*
Y1115591D02*
D03*
Y1215591D02*
D03*
X760000Y710591D02*
D03*
Y935000D02*
D03*
Y1110591D02*
D03*
Y1210591D02*
D03*
X2770000Y710591D02*
D03*
Y935000D02*
D03*
Y1110591D02*
D03*
Y1210591D02*
D03*
D29*
X2945000Y3440000D02*
D03*
Y3140000D02*
D03*
X2680000Y3440000D02*
D03*
Y3140000D02*
D03*
D30*
X2945000Y2840000D02*
D03*
Y2740000D02*
D03*
X2680000Y2840000D02*
D03*
Y2740000D02*
D03*
X2185000Y1930000D02*
D03*
Y2030000D02*
D03*
Y2130000D02*
D03*
Y2230000D02*
D03*
Y2330000D02*
D03*
Y2430000D02*
D03*
Y2530000D02*
D03*
Y2630000D02*
D03*
Y2730000D02*
D03*
Y2830000D02*
D03*
Y2930000D02*
D03*
Y3030000D02*
D03*
Y3130000D02*
D03*
Y3230000D02*
D03*
Y3330000D02*
D03*
Y3430000D02*
D03*
Y3530000D02*
D03*
Y3630000D02*
D03*
Y3730000D02*
D03*
X2085000Y1830000D02*
D03*
Y1930000D02*
D03*
Y2030000D02*
D03*
Y2130000D02*
D03*
Y2230000D02*
D03*
Y2330000D02*
D03*
Y2430000D02*
D03*
Y2530000D02*
D03*
Y2630000D02*
D03*
Y2730000D02*
D03*
Y2830000D02*
D03*
Y2930000D02*
D03*
Y3030000D02*
D03*
Y3130000D02*
D03*
Y3230000D02*
D03*
Y3330000D02*
D03*
Y3430000D02*
D03*
Y3530000D02*
D03*
Y3630000D02*
D03*
Y3730000D02*
D03*
X492087Y1830000D02*
D03*
X392087Y3730000D02*
D03*
Y3630000D02*
D03*
Y3530000D02*
D03*
Y3430000D02*
D03*
Y3330000D02*
D03*
Y3230000D02*
D03*
Y3130000D02*
D03*
Y3030000D02*
D03*
Y2930000D02*
D03*
Y2830000D02*
D03*
Y2730000D02*
D03*
Y2630000D02*
D03*
Y2530000D02*
D03*
Y2430000D02*
D03*
Y2330000D02*
D03*
Y2230000D02*
D03*
Y2130000D02*
D03*
Y2030000D02*
D03*
Y1930000D02*
D03*
Y1830000D02*
D03*
X492087Y3730000D02*
D03*
Y3630000D02*
D03*
Y3530000D02*
D03*
Y3430000D02*
D03*
Y3330000D02*
D03*
Y3230000D02*
D03*
Y3130000D02*
D03*
Y3030000D02*
D03*
Y2930000D02*
D03*
Y2830000D02*
D03*
Y2730000D02*
D03*
Y2630000D02*
D03*
Y2530000D02*
D03*
Y2430000D02*
D03*
Y2330000D02*
D03*
Y2230000D02*
D03*
Y2130000D02*
D03*
Y2030000D02*
D03*
Y1930000D02*
D03*
D31*
X2873425Y3735000D02*
D03*
X3323425D02*
D03*
X2496575Y60000D02*
D03*
X1475945Y65000D02*
D03*
X491575Y60000D02*
D03*
D32*
X2676575Y3735000D02*
D03*
X3126575D02*
D03*
X3627665Y3448425D02*
D03*
X3627666Y2958425D02*
D03*
Y2337425D02*
D03*
Y1848425D02*
D03*
X3627665Y1273425D02*
D03*
X3627665Y783425D02*
D03*
X2693425Y60000D02*
D03*
X1672795Y65000D02*
D03*
X688425Y60000D02*
D03*
D33*
X3627665Y3251575D02*
D03*
X3627666Y2761575D02*
D03*
Y2140575D02*
D03*
Y1651575D02*
D03*
X3627665Y1076575D02*
D03*
X3627665Y586575D02*
D03*
D34*
X2405000Y2180000D02*
D03*
Y2295000D02*
D03*
Y2415000D02*
D03*
X1850000Y2775000D02*
D03*
Y2675000D02*
D03*
Y2580000D02*
D03*
D35*
X3779527Y3779528D02*
D03*
Y-0D02*
D03*
X1Y3779528D02*
D03*
Y-0D02*
D03*
D36*
X2185000Y1830000D02*
D03*
%TF.MD5,1c78be2404d37d0926370be49bb5041e*%
M02*
