G04 Layer_Color=16711935*
%FSLAX26Y26*%
%MOIN*%
%TF.FileFunction,Other,Mechanical_13*%
%TF.Part,Single*%
G01*
G75*
%TA.AperFunction,NonConductor*%
%ADD66C,0.007874*%
%ADD117C,0.003937*%
D66*
X3173189Y-72323D02*
X3796811D01*
X3173189D02*
Y762323D01*
X3796811D01*
Y-72323D02*
Y762323D01*
X2704000Y1269591D02*
X2921000D01*
X2920000Y1268591D02*
X2921000Y1269591D01*
X2920000Y635591D02*
Y1268591D01*
X2692000Y635591D02*
X2920000D01*
X2692000D02*
Y1257591D01*
X2704000Y1269591D01*
X694000D02*
X911000D01*
X910000Y1268591D02*
X911000Y1269591D01*
X910000Y635591D02*
Y1268591D01*
X682000Y635591D02*
X910000D01*
X682000D02*
Y1257591D01*
X694000Y1269591D01*
X1678370Y1274591D02*
X1895370D01*
X1894370Y1273591D02*
X1895370Y1274591D01*
X1894370Y640591D02*
Y1273591D01*
X1666370Y640591D02*
X1894370D01*
X1666370D02*
Y1262591D01*
X1678370Y1274591D01*
D117*
X833677Y1974307D02*
G03*
X833677Y1974307I-19685J0D01*
G01*
X3213819Y1387559D02*
G03*
X3213819Y1387559I-19685J0D01*
G01*
X2486378Y2679961D02*
G03*
X2486378Y2679961I-19685J0D01*
G01*
X3349055Y2952008D02*
G03*
X3349055Y2952008I-19685J0D01*
G01*
Y2342008D02*
G03*
X3349055Y2342008I-19685J0D01*
G01*
Y1732008D02*
G03*
X3349055Y1732008I-19685J0D01*
G01*
X220441Y2318677D02*
X275559D01*
X220441Y2403323D02*
X275559D01*
X220441Y2318677D02*
Y2403323D01*
X275559Y2318677D02*
Y2403323D01*
X161441Y1987677D02*
X216559D01*
X161441Y2072323D02*
X216559D01*
X161441Y1987677D02*
Y2072323D01*
X216559Y1987677D02*
Y2072323D01*
X53441Y1987677D02*
X108559D01*
X53441Y2072323D02*
X108559D01*
X53441Y1987677D02*
Y2072323D01*
X108559Y1987677D02*
Y2072323D01*
X71677Y2415441D02*
Y2470559D01*
X156323Y2415441D02*
Y2470559D01*
X71677D02*
X156323D01*
X71677Y2415441D02*
X156323D01*
X58441Y3311677D02*
X113559D01*
X58441Y3396323D02*
X113559D01*
X58441Y3311677D02*
Y3396323D01*
X113559Y3311677D02*
Y3396323D01*
X998307Y1806457D02*
Y1863543D01*
X911693Y1806457D02*
Y1863543D01*
Y1806457D02*
X998307D01*
X911693Y1863543D02*
X998307D01*
X652575Y2009740D02*
X849425D01*
X652575Y1852260D02*
X849425D01*
Y2009740D01*
X652575Y1852260D02*
Y2009740D01*
X582677Y1673441D02*
Y1728559D01*
X667323Y1673441D02*
Y1728559D01*
X582677D02*
X667323D01*
X582677Y1673441D02*
X667323D01*
X631677Y1560441D02*
Y1615559D01*
X716323Y1560441D02*
Y1615559D01*
X631677D02*
X716323D01*
X631677Y1560441D02*
X716323D01*
X369449Y1562055D02*
Y1693945D01*
X300551Y1562055D02*
Y1693945D01*
X369449D01*
X300551Y1562055D02*
X369449D01*
X46441Y2534677D02*
X101559D01*
X46441Y2619323D02*
X101559D01*
X46441Y2534677D02*
Y2619323D01*
X101559Y2534677D02*
Y2619323D01*
X181307Y3008457D02*
Y3065543D01*
X94693Y3008457D02*
Y3065543D01*
Y3008457D02*
X181307D01*
X94693Y3065543D02*
X181307D01*
Y3096457D02*
Y3153543D01*
X94693Y3096457D02*
Y3153543D01*
Y3096457D02*
X181307D01*
X94693Y3153543D02*
X181307D01*
Y3184457D02*
Y3241543D01*
X94693Y3184457D02*
Y3241543D01*
Y3184457D02*
X181307D01*
X94693Y3241543D02*
X181307D01*
X764457Y3112693D02*
X821543D01*
X764457Y3199307D02*
X821543D01*
X764457Y3112693D02*
Y3199307D01*
X821543Y3112693D02*
Y3199307D01*
X858457Y3112693D02*
X915543D01*
X858457Y3199307D02*
X915543D01*
X858457Y3112693D02*
Y3199307D01*
X915543Y3112693D02*
Y3199307D01*
X950457Y3112693D02*
X1007543D01*
X950457Y3199307D02*
X1007543D01*
X950457Y3112693D02*
Y3199307D01*
X1007543Y3112693D02*
Y3199307D01*
X915441Y2009323D02*
X970559D01*
X915441Y1924677D02*
X970559D01*
Y2009323D01*
X915441Y1924677D02*
Y2009323D01*
X643677Y2117441D02*
Y2172559D01*
X728323Y2117441D02*
Y2172559D01*
X643677D02*
X728323D01*
X643677Y2117441D02*
X728323D01*
X3002693Y1459457D02*
Y1516543D01*
X3089307Y1459457D02*
Y1516543D01*
X3002693D02*
X3089307D01*
X3002693Y1459457D02*
X3089307D01*
X3001693Y1631457D02*
Y1688543D01*
X3088307Y1631457D02*
Y1688543D01*
X3001693D02*
X3088307D01*
X3001693Y1631457D02*
X3088307D01*
X3001693Y1546457D02*
Y1603543D01*
X3088307Y1546457D02*
Y1603543D01*
X3001693D02*
X3088307D01*
X3001693Y1546457D02*
X3088307D01*
X726457Y2282693D02*
X783543D01*
X726457Y2369307D02*
X783543D01*
X726457Y2282693D02*
Y2369307D01*
X783543Y2282693D02*
Y2369307D01*
X3158701Y1047008D02*
X3421299D01*
X3158701Y1422992D02*
X3421299D01*
Y1047008D02*
Y1422992D01*
X3158701Y1047008D02*
Y1422992D01*
X3750709Y1311457D02*
Y1368543D01*
X3664094Y1311457D02*
Y1368543D01*
Y1311457D02*
X3750709D01*
X3664094Y1368543D02*
X3750709D01*
X3748307Y1401457D02*
Y1458543D01*
X3661693Y1401457D02*
Y1458543D01*
Y1401457D02*
X3748307D01*
X3661693Y1458543D02*
X3748307D01*
X3206457Y843307D02*
X3263543D01*
X3206457Y756693D02*
X3263543D01*
Y843307D01*
X3206457Y756693D02*
Y843307D01*
X3207441Y682323D02*
X3262559D01*
X3207441Y597677D02*
X3262559D01*
Y682323D01*
X3207441Y597677D02*
Y682323D01*
X162441Y3584323D02*
X217559D01*
X162441Y3499677D02*
X217559D01*
Y3584323D01*
X162441Y3499677D02*
Y3584323D01*
X735441Y2493677D02*
X790559D01*
X735441Y2578323D02*
X790559D01*
X735441Y2493677D02*
Y2578323D01*
X790559Y2493677D02*
Y2578323D01*
X3547323Y332441D02*
Y387559D01*
X3462677Y332441D02*
Y387559D01*
Y332441D02*
X3547323D01*
X3462677Y387559D02*
X3547323D01*
X2581457Y1320281D02*
X2638543D01*
X2581457Y1406895D02*
X2638543D01*
X2581457Y1320281D02*
Y1406895D01*
X2638543Y1320281D02*
Y1406895D01*
X2482081Y1322677D02*
X2537199D01*
X2482081Y1407323D02*
X2537199D01*
X2482081Y1322677D02*
Y1407323D01*
X2537199Y1322677D02*
Y1407323D01*
X2382261Y1322677D02*
X2437379D01*
X2382261Y1407323D02*
X2437379D01*
X2382261Y1322677D02*
Y1407323D01*
X2437379Y1322677D02*
Y1407323D01*
X2282441Y1407323D02*
X2337559D01*
X2282441Y1322677D02*
X2337559D01*
Y1407323D01*
X2282441Y1322677D02*
Y1407323D01*
X2166457Y1273307D02*
X2223543D01*
X2166457Y1186693D02*
X2223543D01*
Y1273307D01*
X2166457Y1186693D02*
Y1273307D01*
X587441Y1407323D02*
X642559D01*
X587441Y1322677D02*
X642559D01*
Y1407323D01*
X587441Y1322677D02*
Y1407323D01*
X490774Y1322677D02*
X545892D01*
X490774Y1407323D02*
X545892D01*
X490774Y1322677D02*
Y1407323D01*
X545892Y1322677D02*
Y1407323D01*
X393663Y1323105D02*
X450749D01*
X393663Y1409719D02*
X450749D01*
X393663Y1323105D02*
Y1409719D01*
X450749Y1323105D02*
Y1409719D01*
X642323Y622441D02*
Y677559D01*
X557677Y622441D02*
Y677559D01*
Y622441D02*
X642323D01*
X557677Y677559D02*
X642323D01*
X196457Y803307D02*
X253543D01*
X196457Y716693D02*
X253543D01*
Y803307D01*
X196457Y716693D02*
Y803307D01*
X852323Y538508D02*
Y593626D01*
X767677Y538508D02*
Y593626D01*
Y538508D02*
X852323D01*
X767677Y593626D02*
X852323D01*
X767677Y421374D02*
Y476492D01*
X852323Y421374D02*
Y476492D01*
X767677D02*
X852323D01*
X767677Y421374D02*
X852323D01*
X352677Y538508D02*
Y593626D01*
X437323Y538508D02*
Y593626D01*
X352677D02*
X437323D01*
X352677Y538508D02*
X437323D01*
X437323Y421374D02*
Y476492D01*
X352677Y421374D02*
Y476492D01*
Y421374D02*
X437323D01*
X352677Y476492D02*
X437323D01*
X352677Y277441D02*
Y332559D01*
X437323Y277441D02*
Y332559D01*
X352677D02*
X437323D01*
X352677Y277441D02*
X437323D01*
X852323Y277441D02*
Y332559D01*
X767677Y277441D02*
Y332559D01*
Y277441D02*
X852323D01*
X767677Y332559D02*
X852323D01*
X922303Y192677D02*
X977421D01*
X922303Y277323D02*
X977421D01*
X922303Y192677D02*
Y277323D01*
X977421Y192677D02*
Y277323D01*
X870138Y32441D02*
Y87559D01*
X954784Y32441D02*
Y87559D01*
X870138D02*
X954784D01*
X870138Y32441D02*
X954784D01*
X229901Y192677D02*
X285020D01*
X229901Y277323D02*
X285020D01*
X229901Y192677D02*
Y277323D01*
X285020Y192677D02*
Y277323D01*
X337185Y32441D02*
Y87559D01*
X252539Y32441D02*
Y87559D01*
Y32441D02*
X337185D01*
X252539Y87559D02*
X337185D01*
X1267441Y1322677D02*
X1322559D01*
X1267441Y1407323D02*
X1322559D01*
X1267441Y1322677D02*
Y1407323D01*
X1322559Y1322677D02*
Y1407323D01*
X1363663Y1320281D02*
X1420749D01*
X1363663Y1406895D02*
X1420749D01*
X1363663Y1320281D02*
Y1406895D01*
X1420749Y1320281D02*
Y1406895D01*
X1557441Y1407323D02*
X1612559D01*
X1557441Y1322677D02*
X1612559D01*
Y1407323D01*
X1557441Y1322677D02*
Y1407323D01*
X1460774Y1322677D02*
X1515892D01*
X1460774Y1407323D02*
X1515892D01*
X1460774Y1322677D02*
Y1407323D01*
X1515892Y1322677D02*
Y1407323D01*
X297441Y1322677D02*
X352559D01*
X297441Y1407323D02*
X352559D01*
X297441Y1322677D02*
Y1407323D01*
X352559Y1322677D02*
Y1407323D01*
X2206457Y803307D02*
X2263543D01*
X2206457Y716693D02*
X2263543D01*
Y803307D01*
X2206457Y716693D02*
Y803307D01*
X1176457D02*
X1233543D01*
X1176457Y716693D02*
X1233543D01*
Y803307D01*
X1176457Y716693D02*
Y803307D01*
X171457Y1273307D02*
X228543D01*
X171457Y1186693D02*
X228543D01*
Y1273307D01*
X171457Y1186693D02*
Y1273307D01*
X2347677Y547441D02*
Y602559D01*
X2432323Y547441D02*
Y602559D01*
X2347677D02*
X2432323D01*
X2347677Y547441D02*
X2432323D01*
X2432323Y412441D02*
Y467559D01*
X2347677Y412441D02*
Y467559D01*
Y412441D02*
X2432323D01*
X2347677Y467559D02*
X2432323D01*
X2347677Y277441D02*
Y332559D01*
X2432323Y277441D02*
Y332559D01*
X2347677D02*
X2432323D01*
X2347677Y277441D02*
X2432323D01*
X2227441Y192677D02*
X2282559D01*
X2227441Y277323D02*
X2282559D01*
X2227441Y192677D02*
Y277323D01*
X2282559Y192677D02*
Y277323D01*
X2334724Y32441D02*
Y87559D01*
X2250079Y32441D02*
Y87559D01*
Y32441D02*
X2334724D01*
X2250079Y87559D02*
X2334724D01*
X2862323Y547441D02*
Y602559D01*
X2777677Y547441D02*
Y602559D01*
Y547441D02*
X2862323D01*
X2777677Y602559D02*
X2862323D01*
X2777677Y412441D02*
Y467559D01*
X2862323Y412441D02*
Y467559D01*
X2777677D02*
X2862323D01*
X2777677Y412441D02*
X2862323D01*
X2862323Y277441D02*
Y332559D01*
X2777677Y277441D02*
Y332559D01*
Y277441D02*
X2862323D01*
X2777677Y332559D02*
X2862323D01*
X2926811Y172677D02*
X2981929D01*
X2926811Y257323D02*
X2981929D01*
X2926811Y172677D02*
Y257323D01*
X2981929Y172677D02*
Y257323D01*
X2872677Y32441D02*
Y87559D01*
X2957323Y32441D02*
Y87559D01*
X2872677D02*
X2957323D01*
X2872677Y32441D02*
X2957323D01*
X2647323Y632441D02*
Y687559D01*
X2562677Y632441D02*
Y687559D01*
Y632441D02*
X2647323D01*
X2562677Y687559D02*
X2647323D01*
X2646895Y546996D02*
Y604083D01*
X2560281Y546996D02*
Y604083D01*
Y546996D02*
X2646895D01*
X2560281Y604083D02*
X2646895D01*
X2831457Y848307D02*
X2888543D01*
X2831457Y761693D02*
X2888543D01*
Y848307D01*
X2831457Y761693D02*
Y848307D01*
X816457Y868307D02*
X873543D01*
X816457Y781693D02*
X873543D01*
Y868307D01*
X816457Y781693D02*
Y868307D01*
X643307Y536457D02*
Y593543D01*
X556693Y536457D02*
Y593543D01*
Y536457D02*
X643307D01*
X556693Y593543D02*
X643307D01*
X1161457Y1273307D02*
X1218543D01*
X1161457Y1186693D02*
X1218543D01*
Y1273307D01*
X1161457Y1186693D02*
Y1273307D01*
X1622677Y556457D02*
Y613543D01*
X1536063Y556457D02*
Y613543D01*
Y556457D02*
X1622677D01*
X1536063Y613543D02*
X1622677D01*
X1815827Y868307D02*
X1872913D01*
X1815827Y781693D02*
X1872913D01*
Y868307D01*
X1815827Y781693D02*
Y868307D01*
X1331693Y37441D02*
Y92559D01*
X1247047Y37441D02*
Y92559D01*
Y37441D02*
X1331693D01*
X1247047Y92559D02*
X1331693D01*
X1221811Y197677D02*
X1276929D01*
X1221811Y282323D02*
X1276929D01*
X1221811Y197677D02*
Y282323D01*
X1276929Y197677D02*
Y282323D01*
X1342047Y282441D02*
Y337559D01*
X1426693Y282441D02*
Y337559D01*
X1342047D02*
X1426693D01*
X1342047Y282441D02*
X1426693D01*
X1426693Y417441D02*
Y472559D01*
X1342047Y417441D02*
Y472559D01*
Y417441D02*
X1426693D01*
X1342047Y472559D02*
X1426693D01*
X1342677Y552441D02*
Y607559D01*
X1427323Y552441D02*
Y607559D01*
X1342677D02*
X1427323D01*
X1342677Y552441D02*
X1427323D01*
X1842047Y37441D02*
Y92559D01*
X1926693Y37441D02*
Y92559D01*
X1842047D02*
X1926693D01*
X1842047Y37441D02*
X1926693D01*
X1894213Y197677D02*
X1949331D01*
X1894213Y282323D02*
X1949331D01*
X1894213Y197677D02*
Y282323D01*
X1949331Y197677D02*
Y282323D01*
X1826693Y552441D02*
Y607559D01*
X1742047Y552441D02*
Y607559D01*
Y552441D02*
X1826693D01*
X1742047Y607559D02*
X1826693D01*
X1742047Y417441D02*
Y472559D01*
X1826693Y417441D02*
Y472559D01*
X1742047D02*
X1826693D01*
X1742047Y417441D02*
X1826693D01*
X1826693Y282441D02*
Y337559D01*
X1742047Y282441D02*
Y337559D01*
Y282441D02*
X1826693D01*
X1742047Y337559D02*
X1826693D01*
X1621693Y647441D02*
Y702559D01*
X1537047Y647441D02*
Y702559D01*
Y647441D02*
X1621693D01*
X1537047Y702559D02*
X1621693D01*
X2431260Y2514606D02*
X2588740D01*
X2431260Y2715394D02*
X2588740D01*
Y2514606D02*
Y2715394D01*
X2431260Y2514606D02*
Y2715394D01*
X2742441Y2667677D02*
X2797559D01*
X2742441Y2752323D02*
X2797559D01*
X2742441Y2667677D02*
Y2752323D01*
X2797559Y2667677D02*
Y2752323D01*
X2832441Y2667677D02*
X2887559D01*
X2832441Y2752323D02*
X2887559D01*
X2832441Y2667677D02*
Y2752323D01*
X2887559Y2667677D02*
Y2752323D01*
X3215197Y3113425D02*
X3364803D01*
X3215197Y2916575D02*
X3364803D01*
X3215197D02*
Y3113425D01*
X3364803Y2916575D02*
Y3113425D01*
X3215197Y2503425D02*
X3364803D01*
X3215197Y2306575D02*
X3364803D01*
X3215197D02*
Y2503425D01*
X3364803Y2306575D02*
Y2503425D01*
X3215197Y1893425D02*
X3364803D01*
X3215197Y1696575D02*
X3364803D01*
X3215197D02*
Y1893425D01*
X3364803Y1696575D02*
Y1893425D01*
%TF.MD5,49b6e642e433925b9543f4eafea9528d*%
M02*
