G04 Layer_Color=2752767*
%FSLAX26Y26*%
%MOIN*%
%TF.FileFunction,Drawing*%
%TF.Part,Single*%
G01*
G75*
%TA.AperFunction,NonConductor*%
%ADD39C,0.005000*%
%ADD58C,0.006667*%
D39*
X1880000Y-1920000D02*
X1860000Y-1910000D01*
X1840000Y-1920000D01*
X1850000Y-1900000D01*
X1840000Y-1880000D01*
X1860000Y-1890000D01*
X1880000Y-1880000D01*
X1870000Y-1900000D01*
X1880000Y-1920000D01*
X1940000D02*
X1950000Y-1900000D01*
X1940000Y-1880000D01*
X1960000Y-1890000D01*
X1980000Y-1880000D01*
X1970000Y-1900000D01*
X1980000Y-1920000D01*
X1960000Y-1910000D01*
X1940000Y-1920000D01*
X2040000D02*
X2050000Y-1900000D01*
X2040000Y-1880000D01*
X2060000Y-1890000D01*
X2080000Y-1880000D01*
X2070000Y-1900000D01*
X2080000Y-1920000D01*
X2060000Y-1910000D01*
X2040000Y-1920000D01*
X2180000Y-1910000D02*
X2190000Y-1920000D01*
X2180000Y-1930000D01*
Y-1940000D01*
X2190000D01*
X2200000Y-1930000D01*
X2210000Y-1940000D01*
X2220000D01*
Y-1930000D01*
X2210000Y-1920000D01*
X2220000Y-1910000D01*
Y-1900000D01*
X2210000D01*
X2200000Y-1910000D01*
X2190000Y-1900000D01*
X2180000D01*
Y-1910000D01*
Y-1828000D02*
X2190000D01*
X2200000Y-1818000D01*
X2210000Y-1828000D01*
X2220000D01*
Y-1818000D01*
X2210000Y-1808000D01*
X2220000Y-1798000D01*
Y-1788000D01*
X2210000D01*
X2200000Y-1798000D01*
X2190000Y-1788000D01*
X2180000D01*
Y-1798000D01*
X2190000Y-1808000D01*
X2180000Y-1818000D01*
Y-1828000D01*
X2080000Y-1820000D02*
X2060000Y-1810000D01*
X2040000Y-1820000D01*
X2050000Y-1800000D01*
X2040000Y-1780000D01*
X2060000Y-1790000D01*
X2080000Y-1780000D01*
X2070000Y-1800000D01*
X2080000Y-1820000D01*
X1980000D02*
X1960000Y-1810000D01*
X1940000Y-1820000D01*
X1950000Y-1800000D01*
X1940000Y-1780000D01*
X1960000Y-1790000D01*
X1980000Y-1780000D01*
X1970000Y-1800000D01*
X1980000Y-1820000D01*
X1880000D02*
X1860000Y-1810000D01*
X1840000Y-1820000D01*
X1850000Y-1800000D01*
X1840000Y-1780000D01*
X1860000Y-1790000D01*
X1880000Y-1780000D01*
X1870000Y-1800000D01*
X1880000Y-1820000D01*
X2180000Y-1716000D02*
X2190000D01*
X2200000Y-1706000D01*
X2210000Y-1716000D01*
X2220000D01*
Y-1706000D01*
X2210000Y-1696000D01*
X2220000Y-1686000D01*
Y-1676000D01*
X2210000D01*
X2200000Y-1686000D01*
X2190000Y-1676000D01*
X2180000D01*
Y-1686000D01*
X2190000Y-1696000D01*
X2180000Y-1706000D01*
Y-1716000D01*
Y-1604000D02*
X2190000D01*
X2200000Y-1594000D01*
X2210000Y-1604000D01*
X2220000D01*
Y-1594000D01*
X2210000Y-1584000D01*
X2220000Y-1574000D01*
Y-1564000D01*
X2210000D01*
X2200000Y-1574000D01*
X2190000Y-1564000D01*
X2180000D01*
Y-1574000D01*
X2190000Y-1584000D01*
X2180000Y-1594000D01*
Y-1604000D01*
Y-1492000D02*
X2190000D01*
X2200000Y-1482000D01*
X2210000Y-1492000D01*
X2220000D01*
Y-1482000D01*
X2210000Y-1472000D01*
X2220000Y-1462000D01*
Y-1452000D01*
X2210000D01*
X2200000Y-1462000D01*
X2190000Y-1452000D01*
X2180000D01*
Y-1462000D01*
X2190000Y-1472000D01*
X2180000Y-1482000D01*
Y-1492000D01*
Y-1380000D02*
X2190000D01*
X2200000Y-1370000D01*
X2210000Y-1380000D01*
X2220000D01*
Y-1370000D01*
X2210000Y-1360000D01*
X2220000Y-1350000D01*
Y-1340000D01*
X2210000D01*
X2200000Y-1350000D01*
X2190000Y-1340000D01*
X2180000D01*
Y-1350000D01*
X2190000Y-1360000D01*
X2180000Y-1370000D01*
Y-1380000D01*
Y-1268000D02*
X2190000D01*
X2200000Y-1258000D01*
X2210000Y-1268000D01*
X2220000D01*
Y-1258000D01*
X2210000Y-1248000D01*
X2220000Y-1238000D01*
Y-1228000D01*
X2210000D01*
X2200000Y-1238000D01*
X2190000Y-1228000D01*
X2180000D01*
Y-1238000D01*
X2190000Y-1248000D01*
X2180000Y-1258000D01*
Y-1268000D01*
Y-1156000D02*
X2190000D01*
X2200000Y-1146000D01*
X2210000Y-1156000D01*
X2220000D01*
Y-1146000D01*
X2210000Y-1136000D01*
X2220000Y-1126000D01*
Y-1116000D01*
X2210000D01*
X2200000Y-1126000D01*
X2190000Y-1116000D01*
X2180000D01*
Y-1126000D01*
X2190000Y-1136000D01*
X2180000Y-1146000D01*
Y-1156000D01*
Y-1044000D02*
X2190000D01*
X2200000Y-1034000D01*
X2210000Y-1044000D01*
X2220000D01*
Y-1034000D01*
X2210000Y-1024000D01*
X2220000Y-1014000D01*
Y-1004000D01*
X2210000D01*
X2200000Y-1014000D01*
X2190000Y-1004000D01*
X2180000D01*
Y-1014000D01*
X2190000Y-1024000D01*
X2180000Y-1034000D01*
Y-1044000D01*
Y-932000D02*
X2190000D01*
X2200000Y-922000D01*
X2210000Y-932000D01*
X2220000D01*
Y-922000D01*
X2210000Y-912000D01*
X2220000Y-902000D01*
Y-892000D01*
X2210000D01*
X2200000Y-902000D01*
X2190000Y-892000D01*
X2180000D01*
Y-902000D01*
X2190000Y-912000D01*
X2180000Y-922000D01*
Y-932000D01*
Y-820000D02*
X2190000D01*
X2200000Y-810000D01*
X2210000Y-820000D01*
X2220000D01*
Y-810000D01*
X2210000Y-800000D01*
X2220000Y-790000D01*
Y-780000D01*
X2210000D01*
X2200000Y-790000D01*
X2190000Y-780000D01*
X2180000D01*
Y-790000D01*
X2190000Y-800000D01*
X2180000Y-810000D01*
Y-820000D01*
X1945000D02*
X1935000D01*
X1925000Y-830000D01*
X1915000Y-820000D01*
X1905000D01*
Y-830000D01*
X1915000Y-840000D01*
X1905000Y-850000D01*
Y-860000D01*
X1915000D01*
X1925000Y-850000D01*
X1935000Y-860000D01*
X1945000D01*
Y-850000D01*
X1935000Y-840000D01*
X1945000Y-830000D01*
Y-820000D01*
X2180000Y-708000D02*
X2190000D01*
X2200000Y-698000D01*
X2210000Y-708000D01*
X2220000D01*
Y-698000D01*
X2210000Y-688000D01*
X2220000Y-678000D01*
Y-668000D01*
X2210000D01*
X2200000Y-678000D01*
X2190000Y-668000D01*
X2180000D01*
Y-678000D01*
X2190000Y-688000D01*
X2180000Y-698000D01*
Y-708000D01*
Y-596000D02*
X2190000D01*
X2200000Y-586000D01*
X2210000Y-596000D01*
X2220000D01*
Y-586000D01*
X2210000Y-576000D01*
X2220000Y-566000D01*
Y-556000D01*
X2210000D01*
X2200000Y-566000D01*
X2190000Y-556000D01*
X2180000D01*
Y-566000D01*
X2190000Y-576000D01*
X2180000Y-586000D01*
Y-596000D01*
Y-484000D02*
X2190000D01*
X2200000Y-474000D01*
X2210000Y-484000D01*
X2220000D01*
Y-474000D01*
X2210000Y-464000D01*
X2220000Y-454000D01*
Y-444000D01*
X2210000D01*
X2200000Y-454000D01*
X2190000Y-444000D01*
X2180000D01*
Y-454000D01*
X2190000Y-464000D01*
X2180000Y-474000D01*
Y-484000D01*
Y-324000D02*
X2190000D01*
X2200000Y-314000D01*
X2210000Y-324000D01*
X2220000D01*
Y-314000D01*
X2210000Y-304000D01*
X2220000Y-294000D01*
Y-284000D01*
X2210000D01*
X2200000Y-294000D01*
X2190000Y-284000D01*
X2180000D01*
Y-294000D01*
X2190000Y-304000D01*
X2180000Y-314000D01*
Y-324000D01*
X2108000D02*
Y-314000D01*
X2098000Y-304000D01*
X2108000Y-294000D01*
Y-284000D01*
X2098000D01*
X2088000Y-294000D01*
X2078000Y-284000D01*
X2068000D01*
Y-294000D01*
X2078000Y-304000D01*
X2068000Y-314000D01*
Y-324000D01*
X2078000D01*
X2088000Y-314000D01*
X2098000Y-324000D01*
X2108000D01*
X1996000D02*
Y-314000D01*
X1986000Y-304000D01*
X1996000Y-294000D01*
Y-284000D01*
X1986000D01*
X1976000Y-294000D01*
X1966000Y-284000D01*
X1956000D01*
Y-294000D01*
X1966000Y-304000D01*
X1956000Y-314000D01*
Y-324000D01*
X1966000D01*
X1976000Y-314000D01*
X1986000Y-324000D01*
X1996000D01*
X1884000D02*
Y-314000D01*
X1874000Y-304000D01*
X1884000Y-294000D01*
Y-284000D01*
X1874000D01*
X1864000Y-294000D01*
X1854000Y-284000D01*
X1844000D01*
Y-294000D01*
X1854000Y-304000D01*
X1844000Y-314000D01*
Y-324000D01*
X1854000D01*
X1864000Y-314000D01*
X1874000Y-324000D01*
X1884000D01*
X1880000Y-220000D02*
X1860000Y-210000D01*
X1840000Y-220000D01*
X1850000Y-200000D01*
X1840000Y-180000D01*
X1860000Y-190000D01*
X1880000Y-180000D01*
X1870000Y-200000D01*
X1880000Y-220000D01*
X1940000D02*
X1950000Y-200000D01*
X1940000Y-180000D01*
X1960000Y-190000D01*
X1980000Y-180000D01*
X1970000Y-200000D01*
X1980000Y-220000D01*
X1960000Y-210000D01*
X1940000Y-220000D01*
X2040000D02*
X2050000Y-200000D01*
X2040000Y-180000D01*
X2060000Y-190000D01*
X2080000Y-180000D01*
X2070000Y-200000D01*
X2080000Y-220000D01*
X2060000Y-210000D01*
X2040000Y-220000D01*
Y-120000D02*
X2050000Y-100000D01*
X2040000Y-80000D01*
X2060000Y-90000D01*
X2080000Y-80000D01*
X2070000Y-100000D01*
X2080000Y-120000D01*
X2060000Y-110000D01*
X2040000Y-120000D01*
X1980000D02*
X1960000Y-110000D01*
X1940000Y-120000D01*
X1950000Y-100000D01*
X1940000Y-80000D01*
X1960000Y-90000D01*
X1980000Y-80000D01*
X1970000Y-100000D01*
X1980000Y-120000D01*
X1880000D02*
X1860000Y-110000D01*
X1840000Y-120000D01*
X1850000Y-100000D01*
X1840000Y-80000D01*
X1860000Y-90000D01*
X1880000Y-80000D01*
X1870000Y-100000D01*
X1880000Y-120000D01*
X2180000Y-100000D02*
X2190000D01*
X2200000Y-90000D01*
X2210000Y-100000D01*
X2220000D01*
Y-90000D01*
X2210000Y-80000D01*
X2220000Y-70000D01*
Y-60000D01*
X2210000D01*
X2200000Y-70000D01*
X2190000Y-60000D01*
X2180000D01*
Y-70000D01*
X2190000Y-80000D01*
X2180000Y-90000D01*
Y-100000D01*
Y-172000D02*
Y-182000D01*
X2190000Y-192000D01*
X2180000Y-202000D01*
Y-212000D01*
X2190000D01*
X2200000Y-202000D01*
X2210000Y-212000D01*
X2220000D01*
Y-202000D01*
X2210000Y-192000D01*
X2220000Y-182000D01*
Y-172000D01*
X2210000D01*
X2200000Y-182000D01*
X2190000Y-172000D01*
X2180000D01*
X1780000Y-180000D02*
X1770000Y-200000D01*
X1780000Y-220000D01*
X1760000Y-210000D01*
X1740000Y-220000D01*
X1750000Y-200000D01*
X1740000Y-180000D01*
X1760000Y-190000D01*
X1780000Y-180000D01*
Y-120000D02*
X1760000Y-110000D01*
X1740000Y-120000D01*
X1750000Y-100000D01*
X1740000Y-80000D01*
X1760000Y-90000D01*
X1780000Y-80000D01*
X1770000Y-100000D01*
X1780000Y-120000D01*
X1680000D02*
X1660000Y-110000D01*
X1640000Y-120000D01*
X1650000Y-100000D01*
X1640000Y-80000D01*
X1660000Y-90000D01*
X1680000Y-80000D01*
X1670000Y-100000D01*
X1680000Y-120000D01*
Y-180000D02*
X1670000Y-200000D01*
X1680000Y-220000D01*
X1660000Y-210000D01*
X1640000Y-220000D01*
X1650000Y-200000D01*
X1640000Y-180000D01*
X1660000Y-190000D01*
X1680000Y-180000D01*
X1580000D02*
X1570000Y-200000D01*
X1580000Y-220000D01*
X1560000Y-210000D01*
X1540000Y-220000D01*
X1550000Y-200000D01*
X1540000Y-180000D01*
X1560000Y-190000D01*
X1580000Y-180000D01*
Y-120000D02*
X1560000Y-110000D01*
X1540000Y-120000D01*
X1550000Y-100000D01*
X1540000Y-80000D01*
X1560000Y-90000D01*
X1580000Y-80000D01*
X1570000Y-100000D01*
X1580000Y-120000D01*
X1548000Y-284000D02*
X1538000D01*
X1528000Y-294000D01*
X1518000Y-284000D01*
X1508000D01*
Y-294000D01*
X1518000Y-304000D01*
X1508000Y-314000D01*
Y-324000D01*
X1518000D01*
X1528000Y-314000D01*
X1538000Y-324000D01*
X1548000D01*
Y-314000D01*
X1538000Y-304000D01*
X1548000Y-294000D01*
Y-284000D01*
X1620000D02*
Y-294000D01*
X1630000Y-304000D01*
X1620000Y-314000D01*
Y-324000D01*
X1630000D01*
X1640000Y-314000D01*
X1650000Y-324000D01*
X1660000D01*
Y-314000D01*
X1650000Y-304000D01*
X1660000Y-294000D01*
Y-284000D01*
X1650000D01*
X1640000Y-294000D01*
X1630000Y-284000D01*
X1620000D01*
X1732000D02*
Y-294000D01*
X1742000Y-304000D01*
X1732000Y-314000D01*
Y-324000D01*
X1742000D01*
X1752000Y-314000D01*
X1762000Y-324000D01*
X1772000D01*
Y-314000D01*
X1762000Y-304000D01*
X1772000Y-294000D01*
Y-284000D01*
X1762000D01*
X1752000Y-294000D01*
X1742000Y-284000D01*
X1732000D01*
X1713000Y-444000D02*
X1703000D01*
X1693000Y-454000D01*
X1683000Y-444000D01*
X1673000D01*
Y-454000D01*
X1683000Y-464000D01*
X1673000Y-474000D01*
Y-484000D01*
X1683000D01*
X1693000Y-474000D01*
X1703000Y-484000D01*
X1713000D01*
Y-474000D01*
X1703000Y-464000D01*
X1713000Y-454000D01*
Y-444000D01*
Y-556000D02*
X1703000D01*
X1693000Y-566000D01*
X1683000Y-556000D01*
X1673000D01*
Y-566000D01*
X1683000Y-576000D01*
X1673000Y-586000D01*
Y-596000D01*
X1683000D01*
X1693000Y-586000D01*
X1703000Y-596000D01*
X1713000D01*
Y-586000D01*
X1703000Y-576000D01*
X1713000Y-566000D01*
Y-556000D01*
Y-668000D02*
X1703000D01*
X1693000Y-678000D01*
X1683000Y-668000D01*
X1673000D01*
Y-678000D01*
X1683000Y-688000D01*
X1673000Y-698000D01*
Y-708000D01*
X1683000D01*
X1693000Y-698000D01*
X1703000Y-708000D01*
X1713000D01*
Y-698000D01*
X1703000Y-688000D01*
X1713000Y-678000D01*
Y-668000D01*
X1548000Y-523000D02*
Y-513000D01*
X1538000Y-503000D01*
X1548000Y-493000D01*
Y-483000D01*
X1538000D01*
X1528000Y-493000D01*
X1518000Y-483000D01*
X1508000D01*
Y-493000D01*
X1518000Y-503000D01*
X1508000Y-513000D01*
Y-523000D01*
X1518000D01*
X1528000Y-513000D01*
X1538000Y-523000D01*
X1548000D01*
Y-740000D02*
X1538000D01*
X1528000Y-750000D01*
X1518000Y-740000D01*
X1508000D01*
Y-750000D01*
X1518000Y-760000D01*
X1508000Y-770000D01*
Y-780000D01*
X1518000D01*
X1528000Y-770000D01*
X1538000Y-780000D01*
X1548000D01*
Y-770000D01*
X1538000Y-760000D01*
X1548000Y-750000D01*
Y-740000D01*
X1673000Y-780000D02*
Y-790000D01*
X1683000Y-800000D01*
X1673000Y-810000D01*
Y-820000D01*
X1683000D01*
X1693000Y-810000D01*
X1703000Y-820000D01*
X1713000D01*
Y-810000D01*
X1703000Y-800000D01*
X1713000Y-790000D01*
Y-780000D01*
X1703000D01*
X1693000Y-790000D01*
X1683000Y-780000D01*
X1673000D01*
X1548000Y-1308000D02*
X1538000D01*
X1528000Y-1318000D01*
X1518000Y-1308000D01*
X1508000D01*
Y-1318000D01*
X1518000Y-1328000D01*
X1508000Y-1338000D01*
Y-1348000D01*
X1518000D01*
X1528000Y-1338000D01*
X1538000Y-1348000D01*
X1548000D01*
Y-1338000D01*
X1538000Y-1328000D01*
X1548000Y-1318000D01*
Y-1308000D01*
Y-1420000D02*
X1538000D01*
X1528000Y-1430000D01*
X1518000Y-1420000D01*
X1508000D01*
Y-1430000D01*
X1518000Y-1440000D01*
X1508000Y-1450000D01*
Y-1460000D01*
X1518000D01*
X1528000Y-1450000D01*
X1538000Y-1460000D01*
X1548000D01*
Y-1450000D01*
X1538000Y-1440000D01*
X1548000Y-1430000D01*
Y-1420000D01*
X1814000Y-1452000D02*
Y-1462000D01*
X1824000Y-1472000D01*
X1814000Y-1482000D01*
Y-1492000D01*
X1824000D01*
X1834000Y-1482000D01*
X1844000Y-1492000D01*
X1854000D01*
Y-1482000D01*
X1844000Y-1472000D01*
X1854000Y-1462000D01*
Y-1452000D01*
X1844000D01*
X1834000Y-1462000D01*
X1824000Y-1452000D01*
X1814000D01*
X1813000Y-1676000D02*
X1803000D01*
X1793000Y-1686000D01*
X1783000Y-1676000D01*
X1773000D01*
Y-1686000D01*
X1783000Y-1696000D01*
X1773000Y-1706000D01*
Y-1716000D01*
X1783000D01*
X1793000Y-1706000D01*
X1803000Y-1716000D01*
X1813000D01*
Y-1706000D01*
X1803000Y-1696000D01*
X1813000Y-1686000D01*
Y-1676000D01*
X1780000Y-1780000D02*
X1770000Y-1800000D01*
X1780000Y-1820000D01*
X1760000Y-1810000D01*
X1740000Y-1820000D01*
X1750000Y-1800000D01*
X1740000Y-1780000D01*
X1760000Y-1790000D01*
X1780000Y-1780000D01*
X1680000D02*
X1670000Y-1800000D01*
X1680000Y-1820000D01*
X1660000Y-1810000D01*
X1640000Y-1820000D01*
X1650000Y-1800000D01*
X1640000Y-1780000D01*
X1660000Y-1790000D01*
X1680000Y-1780000D01*
X1580000D02*
X1570000Y-1800000D01*
X1580000Y-1820000D01*
X1560000Y-1810000D01*
X1540000Y-1820000D01*
X1550000Y-1800000D01*
X1540000Y-1780000D01*
X1560000Y-1790000D01*
X1580000Y-1780000D01*
Y-1880000D02*
X1570000Y-1900000D01*
X1580000Y-1920000D01*
X1560000Y-1910000D01*
X1540000Y-1920000D01*
X1550000Y-1900000D01*
X1540000Y-1880000D01*
X1560000Y-1890000D01*
X1580000Y-1880000D01*
X1640000D02*
X1660000Y-1890000D01*
X1680000Y-1880000D01*
X1670000Y-1900000D01*
X1680000Y-1920000D01*
X1660000Y-1910000D01*
X1640000Y-1920000D01*
X1650000Y-1900000D01*
X1640000Y-1880000D01*
X1740000D02*
X1760000Y-1890000D01*
X1780000Y-1880000D01*
X1770000Y-1900000D01*
X1780000Y-1920000D01*
X1760000Y-1910000D01*
X1740000Y-1920000D01*
X1750000Y-1900000D01*
X1740000Y-1880000D01*
X1480000Y-1820000D02*
X1460000Y-1810000D01*
X1440000Y-1820000D01*
X1450000Y-1800000D01*
X1440000Y-1780000D01*
X1460000Y-1790000D01*
X1480000Y-1780000D01*
X1470000Y-1800000D01*
X1480000Y-1820000D01*
X1380000D02*
X1360000Y-1810000D01*
X1340000Y-1820000D01*
X1350000Y-1800000D01*
X1340000Y-1780000D01*
X1360000Y-1790000D01*
X1380000Y-1780000D01*
X1370000Y-1800000D01*
X1380000Y-1820000D01*
X1280000D02*
X1260000Y-1810000D01*
X1240000Y-1820000D01*
X1250000Y-1800000D01*
X1240000Y-1780000D01*
X1260000Y-1790000D01*
X1280000Y-1780000D01*
X1270000Y-1800000D01*
X1280000Y-1820000D01*
X1180000D02*
X1160000Y-1810000D01*
X1140000Y-1820000D01*
X1150000Y-1800000D01*
X1140000Y-1780000D01*
X1160000Y-1790000D01*
X1180000Y-1780000D01*
X1170000Y-1800000D01*
X1180000Y-1820000D01*
Y-1880000D02*
X1170000Y-1900000D01*
X1180000Y-1920000D01*
X1160000Y-1910000D01*
X1140000Y-1920000D01*
X1150000Y-1900000D01*
X1140000Y-1880000D01*
X1160000Y-1890000D01*
X1180000Y-1880000D01*
X1240000D02*
X1260000Y-1890000D01*
X1280000Y-1880000D01*
X1270000Y-1900000D01*
X1280000Y-1920000D01*
X1260000Y-1910000D01*
X1240000Y-1920000D01*
X1250000Y-1900000D01*
X1240000Y-1880000D01*
X1340000D02*
X1360000Y-1890000D01*
X1380000Y-1880000D01*
X1370000Y-1900000D01*
X1380000Y-1920000D01*
X1360000Y-1910000D01*
X1340000Y-1920000D01*
X1350000Y-1900000D01*
X1340000Y-1880000D01*
X1440000D02*
X1460000Y-1890000D01*
X1480000Y-1880000D01*
X1470000Y-1900000D01*
X1480000Y-1920000D01*
X1460000Y-1910000D01*
X1440000Y-1920000D01*
X1450000Y-1900000D01*
X1440000Y-1880000D01*
X1080000Y-1820000D02*
X1060000Y-1810000D01*
X1040000Y-1820000D01*
X1050000Y-1800000D01*
X1040000Y-1780000D01*
X1060000Y-1790000D01*
X1080000Y-1780000D01*
X1070000Y-1800000D01*
X1080000Y-1820000D01*
X980000D02*
X960000Y-1810000D01*
X940000Y-1820000D01*
X950000Y-1800000D01*
X940000Y-1780000D01*
X960000Y-1790000D01*
X980000Y-1780000D01*
X970000Y-1800000D01*
X980000Y-1820000D01*
X880000D02*
X860000Y-1810000D01*
X840000Y-1820000D01*
X850000Y-1800000D01*
X840000Y-1780000D01*
X860000Y-1790000D01*
X880000Y-1780000D01*
X870000Y-1800000D01*
X880000Y-1820000D01*
X780000D02*
X760000Y-1810000D01*
X740000Y-1820000D01*
X750000Y-1800000D01*
X740000Y-1780000D01*
X760000Y-1790000D01*
X780000Y-1780000D01*
X770000Y-1800000D01*
X780000Y-1820000D01*
Y-1890000D02*
X770000D01*
Y-1880000D01*
X750000D01*
Y-1890000D01*
X740000D01*
Y-1910000D01*
X750000D01*
Y-1920000D01*
X770000D01*
Y-1910000D01*
X780000D01*
Y-1890000D01*
X840000Y-1880000D02*
X860000Y-1890000D01*
X880000Y-1880000D01*
X870000Y-1900000D01*
X880000Y-1920000D01*
X860000Y-1910000D01*
X840000Y-1920000D01*
X850000Y-1900000D01*
X840000Y-1880000D01*
X940000D02*
X960000Y-1890000D01*
X980000Y-1880000D01*
X970000Y-1900000D01*
X980000Y-1920000D01*
X960000Y-1910000D01*
X940000Y-1920000D01*
X950000Y-1900000D01*
X940000Y-1880000D01*
X1040000D02*
X1060000Y-1890000D01*
X1080000Y-1880000D01*
X1070000Y-1900000D01*
X1080000Y-1920000D01*
X1060000Y-1910000D01*
X1040000Y-1920000D01*
X1050000Y-1900000D01*
X1040000Y-1880000D01*
X680000Y-1820000D02*
X660000Y-1810000D01*
X640000Y-1820000D01*
X650000Y-1800000D01*
X640000Y-1780000D01*
X660000Y-1790000D01*
X680000Y-1780000D01*
X670000Y-1800000D01*
X680000Y-1820000D01*
X580000D02*
X560000Y-1810000D01*
X540000Y-1820000D01*
X550000Y-1800000D01*
X540000Y-1780000D01*
X560000Y-1790000D01*
X580000Y-1780000D01*
X570000Y-1800000D01*
X580000Y-1820000D01*
X480000D02*
X460000Y-1810000D01*
X440000Y-1820000D01*
X450000Y-1800000D01*
X440000Y-1780000D01*
X460000Y-1790000D01*
X480000Y-1780000D01*
X470000Y-1800000D01*
X480000Y-1820000D01*
X500000Y-1716000D02*
X510000D01*
X520000Y-1706000D01*
X530000Y-1716000D01*
X540000D01*
Y-1706000D01*
X530000Y-1696000D01*
X540000Y-1686000D01*
Y-1676000D01*
X530000D01*
X520000Y-1686000D01*
X510000Y-1676000D01*
X500000D01*
Y-1686000D01*
X510000Y-1696000D01*
X500000Y-1706000D01*
Y-1716000D01*
X428000D02*
Y-1706000D01*
X418000Y-1696000D01*
X428000Y-1686000D01*
Y-1676000D01*
X418000D01*
X408000Y-1686000D01*
X398000Y-1676000D01*
X388000D01*
Y-1686000D01*
X398000Y-1696000D01*
X388000Y-1706000D01*
Y-1716000D01*
X398000D01*
X408000Y-1706000D01*
X418000Y-1716000D01*
X428000D01*
Y-1613000D02*
Y-1603000D01*
X418000Y-1593000D01*
X428000Y-1583000D01*
Y-1573000D01*
X418000D01*
X408000Y-1583000D01*
X398000Y-1573000D01*
X388000D01*
Y-1583000D01*
X398000Y-1593000D01*
X388000Y-1603000D01*
Y-1613000D01*
X398000D01*
X408000Y-1603000D01*
X418000Y-1613000D01*
X428000D01*
X500000D02*
X510000D01*
X520000Y-1603000D01*
X530000Y-1613000D01*
X540000D01*
Y-1603000D01*
X530000Y-1593000D01*
X540000Y-1583000D01*
Y-1573000D01*
X530000D01*
X520000Y-1583000D01*
X510000Y-1573000D01*
X500000D01*
Y-1583000D01*
X510000Y-1593000D01*
X500000Y-1603000D01*
Y-1613000D01*
X612000D02*
X622000D01*
X632000Y-1603000D01*
X642000Y-1613000D01*
X652000D01*
Y-1603000D01*
X642000Y-1593000D01*
X652000Y-1583000D01*
Y-1573000D01*
X642000D01*
X632000Y-1583000D01*
X622000Y-1573000D01*
X612000D01*
Y-1583000D01*
X622000Y-1593000D01*
X612000Y-1603000D01*
Y-1613000D01*
Y-1676000D02*
Y-1686000D01*
X622000Y-1696000D01*
X612000Y-1706000D01*
Y-1716000D01*
X622000D01*
X632000Y-1706000D01*
X642000Y-1716000D01*
X652000D01*
Y-1706000D01*
X642000Y-1696000D01*
X652000Y-1686000D01*
Y-1676000D01*
X642000D01*
X632000Y-1686000D01*
X622000Y-1676000D01*
X612000D01*
X640000Y-1880000D02*
X660000Y-1890000D01*
X680000Y-1880000D01*
X670000Y-1900000D01*
X680000Y-1920000D01*
X660000Y-1910000D01*
X640000Y-1920000D01*
X650000Y-1900000D01*
X640000Y-1880000D01*
X580000D02*
X570000Y-1900000D01*
X580000Y-1920000D01*
X560000Y-1910000D01*
X540000Y-1920000D01*
X550000Y-1900000D01*
X540000Y-1880000D01*
X560000Y-1890000D01*
X580000Y-1880000D01*
X480000D02*
X470000Y-1900000D01*
X480000Y-1920000D01*
X460000Y-1910000D01*
X440000Y-1920000D01*
X450000Y-1900000D01*
X440000Y-1880000D01*
X460000Y-1890000D01*
X480000Y-1880000D01*
X380000Y-1820000D02*
X360000Y-1810000D01*
X340000Y-1820000D01*
X350000Y-1800000D01*
X340000Y-1780000D01*
X360000Y-1790000D01*
X380000Y-1780000D01*
X370000Y-1800000D01*
X380000Y-1820000D01*
X280000D02*
X260000Y-1810000D01*
X240000Y-1820000D01*
X250000Y-1800000D01*
X240000Y-1780000D01*
X260000Y-1790000D01*
X280000Y-1780000D01*
X270000Y-1800000D01*
X280000Y-1820000D01*
X180000D02*
X160000Y-1810000D01*
X140000Y-1820000D01*
X150000Y-1800000D01*
X140000Y-1780000D01*
X160000Y-1790000D01*
X180000Y-1780000D01*
X170000Y-1800000D01*
X180000Y-1820000D01*
X92000Y-1818000D02*
X82000Y-1808000D01*
X92000Y-1798000D01*
Y-1788000D01*
X82000D01*
X72000Y-1798000D01*
X62000Y-1788000D01*
X52000D01*
Y-1798000D01*
X62000Y-1808000D01*
X52000Y-1818000D01*
Y-1828000D01*
X62000D01*
X72000Y-1818000D01*
X82000Y-1828000D01*
X92000D01*
Y-1818000D01*
Y-1716000D02*
Y-1706000D01*
X82000Y-1696000D01*
X92000Y-1686000D01*
Y-1676000D01*
X82000D01*
X72000Y-1686000D01*
X62000Y-1676000D01*
X52000D01*
Y-1686000D01*
X62000Y-1696000D01*
X52000Y-1706000D01*
Y-1716000D01*
X62000D01*
X72000Y-1706000D01*
X82000Y-1716000D01*
X92000D01*
X164000D02*
X174000D01*
X184000Y-1706000D01*
X194000Y-1716000D01*
X204000D01*
Y-1706000D01*
X194000Y-1696000D01*
X204000Y-1686000D01*
Y-1676000D01*
X194000D01*
X184000Y-1686000D01*
X174000Y-1676000D01*
X164000D01*
Y-1686000D01*
X174000Y-1696000D01*
X164000Y-1706000D01*
Y-1716000D01*
Y-1613000D02*
X174000D01*
X184000Y-1603000D01*
X194000Y-1613000D01*
X204000D01*
Y-1603000D01*
X194000Y-1593000D01*
X204000Y-1583000D01*
Y-1573000D01*
X194000D01*
X184000Y-1583000D01*
X174000Y-1573000D01*
X164000D01*
Y-1583000D01*
X174000Y-1593000D01*
X164000Y-1603000D01*
Y-1613000D01*
X92000D02*
Y-1603000D01*
X82000Y-1593000D01*
X92000Y-1583000D01*
Y-1573000D01*
X82000D01*
X72000Y-1583000D01*
X62000Y-1573000D01*
X52000D01*
Y-1583000D01*
X62000Y-1593000D01*
X52000Y-1603000D01*
Y-1613000D01*
X62000D01*
X72000Y-1603000D01*
X82000Y-1613000D01*
X92000D01*
X276000D02*
X286000D01*
X296000Y-1603000D01*
X306000Y-1613000D01*
X316000D01*
Y-1603000D01*
X306000Y-1593000D01*
X316000Y-1583000D01*
Y-1573000D01*
X306000D01*
X296000Y-1583000D01*
X286000Y-1573000D01*
X276000D01*
Y-1583000D01*
X286000Y-1593000D01*
X276000Y-1603000D01*
Y-1613000D01*
Y-1676000D02*
Y-1686000D01*
X286000Y-1696000D01*
X276000Y-1706000D01*
Y-1716000D01*
X286000D01*
X296000Y-1706000D01*
X306000Y-1716000D01*
X316000D01*
Y-1706000D01*
X306000Y-1696000D01*
X316000Y-1686000D01*
Y-1676000D01*
X306000D01*
X296000Y-1686000D01*
X286000Y-1676000D01*
X276000D01*
X280000Y-1880000D02*
X270000Y-1900000D01*
X280000Y-1920000D01*
X260000Y-1910000D01*
X240000Y-1920000D01*
X250000Y-1900000D01*
X240000Y-1880000D01*
X260000Y-1890000D01*
X280000Y-1880000D01*
X340000D02*
X360000Y-1890000D01*
X380000Y-1880000D01*
X370000Y-1900000D01*
X380000Y-1920000D01*
X360000Y-1910000D01*
X340000Y-1920000D01*
X350000Y-1900000D01*
X340000Y-1880000D01*
X180000D02*
X170000Y-1900000D01*
X180000Y-1920000D01*
X160000Y-1910000D01*
X140000Y-1920000D01*
X150000Y-1900000D01*
X140000Y-1880000D01*
X160000Y-1890000D01*
X180000Y-1880000D01*
X92000Y-1900000D02*
X82000D01*
X72000Y-1910000D01*
X62000Y-1900000D01*
X52000D01*
Y-1910000D01*
X62000Y-1920000D01*
X52000Y-1930000D01*
Y-1940000D01*
X62000D01*
X72000Y-1930000D01*
X82000Y-1940000D01*
X92000D01*
Y-1930000D01*
X82000Y-1920000D01*
X92000Y-1910000D01*
Y-1900000D01*
X948000Y-1460000D02*
X958000D01*
X968000Y-1450000D01*
X978000Y-1460000D01*
X988000D01*
Y-1450000D01*
X978000Y-1440000D01*
X988000Y-1430000D01*
Y-1420000D01*
X978000D01*
X968000Y-1430000D01*
X958000Y-1420000D01*
X948000D01*
Y-1430000D01*
X958000Y-1440000D01*
X948000Y-1450000D01*
Y-1460000D01*
Y-1348000D02*
X958000D01*
X968000Y-1338000D01*
X978000Y-1348000D01*
X988000D01*
Y-1338000D01*
X978000Y-1328000D01*
X988000Y-1318000D01*
Y-1308000D01*
X978000D01*
X968000Y-1318000D01*
X958000Y-1308000D01*
X948000D01*
Y-1318000D01*
X958000Y-1328000D01*
X948000Y-1338000D01*
Y-1348000D01*
X944000Y-1259000D02*
X954000D01*
X964000Y-1249000D01*
X974000Y-1259000D01*
X984000D01*
Y-1249000D01*
X974000Y-1239000D01*
X984000Y-1229000D01*
Y-1219000D01*
X974000D01*
X964000Y-1229000D01*
X954000Y-1219000D01*
X944000D01*
Y-1229000D01*
X954000Y-1239000D01*
X944000Y-1249000D01*
Y-1259000D01*
X1044252Y-1320000D02*
X1084252D01*
Y-1360000D01*
X1044252D01*
Y-1320000D01*
X1046000Y-1116000D02*
X1056000Y-1106000D01*
X1066000Y-1116000D01*
X1076000D01*
Y-1106000D01*
X1066000Y-1096000D01*
X1076000Y-1086000D01*
Y-1076000D01*
X1066000D01*
X1056000Y-1086000D01*
X1046000Y-1076000D01*
X1036000D01*
Y-1086000D01*
X1046000Y-1096000D01*
X1036000Y-1106000D01*
Y-1116000D01*
X1046000D01*
X1107000D02*
Y-1126000D01*
X1117000D01*
X1127000Y-1116000D01*
X1137000Y-1126000D01*
X1147000D01*
Y-1116000D01*
X1137000Y-1106000D01*
X1147000Y-1096000D01*
Y-1086000D01*
X1137000D01*
X1127000Y-1096000D01*
X1117000Y-1086000D01*
X1107000D01*
Y-1096000D01*
X1117000Y-1106000D01*
X1107000Y-1116000D01*
X797874Y-1125000D02*
X787874D01*
X777874Y-1115000D01*
X767874Y-1125000D01*
X757874D01*
X767874Y-1135000D01*
X757874Y-1145000D01*
X767874D01*
X777874Y-1155000D01*
X787874Y-1145000D01*
X797874D01*
X787874Y-1135000D01*
X797874Y-1125000D01*
X1322000Y-1172000D02*
X1342000Y-1152000D01*
X1362000Y-1172000D01*
X1342000Y-1192000D01*
X1322000Y-1172000D01*
X1396000Y-1420000D02*
Y-1430000D01*
X1406000Y-1440000D01*
X1396000Y-1450000D01*
Y-1460000D01*
X1406000D01*
X1416000Y-1450000D01*
X1426000Y-1460000D01*
X1436000D01*
Y-1450000D01*
X1426000Y-1440000D01*
X1436000Y-1430000D01*
Y-1420000D01*
X1426000D01*
X1416000Y-1430000D01*
X1406000Y-1420000D01*
X1396000D01*
X1212000D02*
X1202000D01*
X1192000Y-1430000D01*
X1182000Y-1420000D01*
X1172000D01*
Y-1430000D01*
X1182000Y-1440000D01*
X1172000Y-1450000D01*
Y-1460000D01*
X1182000D01*
X1192000Y-1450000D01*
X1202000Y-1460000D01*
X1212000D01*
Y-1450000D01*
X1202000Y-1440000D01*
X1212000Y-1430000D01*
Y-1420000D01*
X1148000Y-855000D02*
Y-845000D01*
X1138000Y-835000D01*
X1148000Y-825000D01*
Y-815000D01*
X1138000D01*
X1128000Y-825000D01*
X1118000Y-815000D01*
X1108000D01*
Y-825000D01*
X1118000Y-835000D01*
X1108000Y-845000D01*
Y-855000D01*
X1118000D01*
X1128000Y-845000D01*
X1138000Y-855000D01*
X1148000D01*
X1284000Y-780000D02*
X1294000D01*
X1304000Y-770000D01*
X1314000Y-780000D01*
X1324000D01*
Y-770000D01*
X1314000Y-760000D01*
X1324000Y-750000D01*
Y-740000D01*
X1314000D01*
X1304000Y-750000D01*
X1294000Y-740000D01*
X1284000D01*
Y-750000D01*
X1294000Y-760000D01*
X1284000Y-770000D01*
Y-780000D01*
X1396000D02*
X1406000D01*
X1416000Y-770000D01*
X1426000Y-780000D01*
X1436000D01*
Y-770000D01*
X1426000Y-760000D01*
X1436000Y-750000D01*
Y-740000D01*
X1426000D01*
X1416000Y-750000D01*
X1406000Y-740000D01*
X1396000D01*
Y-750000D01*
X1406000Y-760000D01*
X1396000Y-770000D01*
Y-780000D01*
X1324000Y-668000D02*
Y-658000D01*
X1314000Y-648000D01*
X1324000Y-638000D01*
Y-628000D01*
X1314000D01*
X1304000Y-638000D01*
X1294000Y-628000D01*
X1284000D01*
Y-638000D01*
X1294000Y-648000D01*
X1284000Y-658000D01*
Y-668000D01*
X1294000D01*
X1304000Y-658000D01*
X1314000Y-668000D01*
X1324000D01*
X1212000D02*
Y-658000D01*
X1202000Y-648000D01*
X1212000Y-638000D01*
Y-628000D01*
X1202000D01*
X1192000Y-638000D01*
X1182000Y-628000D01*
X1172000D01*
Y-638000D01*
X1182000Y-648000D01*
X1172000Y-658000D01*
Y-668000D01*
X1182000D01*
X1192000Y-658000D01*
X1202000Y-668000D01*
X1212000D01*
Y-523000D02*
Y-513000D01*
X1202000Y-503000D01*
X1212000Y-493000D01*
Y-483000D01*
X1202000D01*
X1192000Y-493000D01*
X1182000Y-483000D01*
X1172000D01*
Y-493000D01*
X1182000Y-503000D01*
X1172000Y-513000D01*
Y-523000D01*
X1182000D01*
X1192000Y-513000D01*
X1202000Y-523000D01*
X1212000D01*
X1284000D02*
X1294000D01*
X1304000Y-513000D01*
X1314000Y-523000D01*
X1324000D01*
Y-513000D01*
X1314000Y-503000D01*
X1324000Y-493000D01*
Y-483000D01*
X1314000D01*
X1304000Y-493000D01*
X1294000Y-483000D01*
X1284000D01*
Y-493000D01*
X1294000Y-503000D01*
X1284000Y-513000D01*
Y-523000D01*
X1396000D02*
X1406000D01*
X1416000Y-513000D01*
X1426000Y-523000D01*
X1436000D01*
Y-513000D01*
X1426000Y-503000D01*
X1436000Y-493000D01*
Y-483000D01*
X1426000D01*
X1416000Y-493000D01*
X1406000Y-483000D01*
X1396000D01*
Y-493000D01*
X1406000Y-503000D01*
X1396000Y-513000D01*
Y-523000D01*
Y-324000D02*
X1406000D01*
X1416000Y-314000D01*
X1426000Y-324000D01*
X1436000D01*
Y-314000D01*
X1426000Y-304000D01*
X1436000Y-294000D01*
Y-284000D01*
X1426000D01*
X1416000Y-294000D01*
X1406000Y-284000D01*
X1396000D01*
Y-294000D01*
X1406000Y-304000D01*
X1396000Y-314000D01*
Y-324000D01*
X1324000D02*
Y-314000D01*
X1314000Y-304000D01*
X1324000Y-294000D01*
Y-284000D01*
X1314000D01*
X1304000Y-294000D01*
X1294000Y-284000D01*
X1284000D01*
Y-294000D01*
X1294000Y-304000D01*
X1284000Y-314000D01*
Y-324000D01*
X1294000D01*
X1304000Y-314000D01*
X1314000Y-324000D01*
X1324000D01*
X1212000D02*
Y-314000D01*
X1202000Y-304000D01*
X1212000Y-294000D01*
Y-284000D01*
X1202000D01*
X1192000Y-294000D01*
X1182000Y-284000D01*
X1172000D01*
Y-294000D01*
X1182000Y-304000D01*
X1172000Y-314000D01*
Y-324000D01*
X1182000D01*
X1192000Y-314000D01*
X1202000Y-324000D01*
X1212000D01*
X1240000Y-220000D02*
X1250000Y-200000D01*
X1240000Y-180000D01*
X1260000Y-190000D01*
X1280000Y-180000D01*
X1270000Y-200000D01*
X1280000Y-220000D01*
X1260000Y-210000D01*
X1240000Y-220000D01*
X1180000D02*
X1160000Y-210000D01*
X1140000Y-220000D01*
X1150000Y-200000D01*
X1140000Y-180000D01*
X1160000Y-190000D01*
X1180000Y-180000D01*
X1170000Y-200000D01*
X1180000Y-220000D01*
Y-120000D02*
X1160000Y-110000D01*
X1140000Y-120000D01*
X1150000Y-100000D01*
X1140000Y-80000D01*
X1160000Y-90000D01*
X1180000Y-80000D01*
X1170000Y-100000D01*
X1180000Y-120000D01*
X1240000D02*
X1250000Y-100000D01*
X1240000Y-80000D01*
X1260000Y-90000D01*
X1280000Y-80000D01*
X1270000Y-100000D01*
X1280000Y-120000D01*
X1260000Y-110000D01*
X1240000Y-120000D01*
X1340000D02*
X1350000Y-100000D01*
X1340000Y-80000D01*
X1360000Y-90000D01*
X1380000Y-80000D01*
X1370000Y-100000D01*
X1380000Y-120000D01*
X1360000Y-110000D01*
X1340000Y-120000D01*
Y-180000D02*
X1360000Y-190000D01*
X1380000Y-180000D01*
X1370000Y-200000D01*
X1380000Y-220000D01*
X1360000Y-210000D01*
X1340000Y-220000D01*
X1350000Y-200000D01*
X1340000Y-180000D01*
X1440000D02*
X1460000Y-190000D01*
X1480000Y-180000D01*
X1470000Y-200000D01*
X1480000Y-220000D01*
X1460000Y-210000D01*
X1440000Y-220000D01*
X1450000Y-200000D01*
X1440000Y-180000D01*
Y-120000D02*
X1450000Y-100000D01*
X1440000Y-80000D01*
X1460000Y-90000D01*
X1480000Y-80000D01*
X1470000Y-100000D01*
X1480000Y-120000D01*
X1460000Y-110000D01*
X1440000Y-120000D01*
X1080000D02*
X1060000Y-110000D01*
X1040000Y-120000D01*
X1050000Y-100000D01*
X1040000Y-80000D01*
X1060000Y-90000D01*
X1080000Y-80000D01*
X1070000Y-100000D01*
X1080000Y-120000D01*
Y-180000D02*
X1070000Y-200000D01*
X1080000Y-220000D01*
X1060000Y-210000D01*
X1040000Y-220000D01*
X1050000Y-200000D01*
X1040000Y-180000D01*
X1060000Y-190000D01*
X1080000Y-180000D01*
X980000D02*
X970000Y-200000D01*
X980000Y-220000D01*
X960000Y-210000D01*
X940000Y-220000D01*
X950000Y-200000D01*
X940000Y-180000D01*
X960000Y-190000D01*
X980000Y-180000D01*
Y-120000D02*
X960000Y-110000D01*
X940000Y-120000D01*
X950000Y-100000D01*
X940000Y-80000D01*
X960000Y-90000D01*
X980000Y-80000D01*
X970000Y-100000D01*
X980000Y-120000D01*
X880000D02*
X860000Y-110000D01*
X840000Y-120000D01*
X850000Y-100000D01*
X840000Y-80000D01*
X860000Y-90000D01*
X880000Y-80000D01*
X870000Y-100000D01*
X880000Y-120000D01*
Y-180000D02*
X870000Y-200000D01*
X880000Y-220000D01*
X860000Y-210000D01*
X840000Y-220000D01*
X850000Y-200000D01*
X840000Y-180000D01*
X860000Y-190000D01*
X880000Y-180000D01*
X780000D02*
X770000Y-200000D01*
X780000Y-220000D01*
X760000Y-210000D01*
X740000Y-220000D01*
X750000Y-200000D01*
X740000Y-180000D01*
X760000Y-190000D01*
X780000Y-180000D01*
Y-120000D02*
X760000Y-110000D01*
X740000Y-120000D01*
X750000Y-100000D01*
X740000Y-80000D01*
X760000Y-90000D01*
X780000Y-80000D01*
X770000Y-100000D01*
X780000Y-120000D01*
X764000Y-284000D02*
X754000D01*
X744000Y-294000D01*
X734000Y-284000D01*
X724000D01*
Y-294000D01*
X734000Y-304000D01*
X724000Y-314000D01*
Y-324000D01*
X734000D01*
X744000Y-314000D01*
X754000Y-324000D01*
X764000D01*
Y-314000D01*
X754000Y-304000D01*
X764000Y-294000D01*
Y-284000D01*
X836000D02*
Y-294000D01*
X846000Y-304000D01*
X836000Y-314000D01*
Y-324000D01*
X846000D01*
X856000Y-314000D01*
X866000Y-324000D01*
X876000D01*
Y-314000D01*
X866000Y-304000D01*
X876000Y-294000D01*
Y-284000D01*
X866000D01*
X856000Y-294000D01*
X846000Y-284000D01*
X836000D01*
X948000D02*
Y-294000D01*
X958000Y-304000D01*
X948000Y-314000D01*
Y-324000D01*
X958000D01*
X968000Y-314000D01*
X978000Y-324000D01*
X988000D01*
Y-314000D01*
X978000Y-304000D01*
X988000Y-294000D01*
Y-284000D01*
X978000D01*
X968000Y-294000D01*
X958000Y-284000D01*
X948000D01*
X1060000D02*
Y-294000D01*
X1070000Y-304000D01*
X1060000Y-314000D01*
Y-324000D01*
X1070000D01*
X1080000Y-314000D01*
X1090000Y-324000D01*
X1100000D01*
Y-314000D01*
X1090000Y-304000D01*
X1100000Y-294000D01*
Y-284000D01*
X1090000D01*
X1080000Y-294000D01*
X1070000Y-284000D01*
X1060000D01*
Y-483000D02*
Y-493000D01*
X1070000Y-503000D01*
X1060000Y-513000D01*
Y-523000D01*
X1070000D01*
X1080000Y-513000D01*
X1090000Y-523000D01*
X1100000D01*
Y-513000D01*
X1090000Y-503000D01*
X1100000Y-493000D01*
Y-483000D01*
X1090000D01*
X1080000Y-493000D01*
X1070000Y-483000D01*
X1060000D01*
X988000D02*
X978000D01*
X968000Y-493000D01*
X958000Y-483000D01*
X948000D01*
Y-493000D01*
X958000Y-503000D01*
X948000Y-513000D01*
Y-523000D01*
X958000D01*
X968000Y-513000D01*
X978000Y-523000D01*
X988000D01*
Y-513000D01*
X978000Y-503000D01*
X988000Y-493000D01*
Y-483000D01*
X876000D02*
X866000D01*
X856000Y-493000D01*
X846000Y-483000D01*
X836000D01*
Y-493000D01*
X846000Y-503000D01*
X836000Y-513000D01*
Y-523000D01*
X846000D01*
X856000Y-513000D01*
X866000Y-523000D01*
X876000D01*
Y-513000D01*
X866000Y-503000D01*
X876000Y-493000D01*
Y-483000D01*
X764000D02*
X754000D01*
X744000Y-493000D01*
X734000Y-483000D01*
X724000D01*
Y-493000D01*
X734000Y-503000D01*
X724000Y-513000D01*
Y-523000D01*
X734000D01*
X744000Y-513000D01*
X754000Y-523000D01*
X764000D01*
Y-513000D01*
X754000Y-503000D01*
X764000Y-493000D01*
Y-483000D01*
Y-628000D02*
X754000D01*
X744000Y-638000D01*
X734000Y-628000D01*
X724000D01*
Y-638000D01*
X734000Y-648000D01*
X724000Y-658000D01*
Y-668000D01*
X734000D01*
X744000Y-658000D01*
X754000Y-668000D01*
X764000D01*
Y-658000D01*
X754000Y-648000D01*
X764000Y-638000D01*
Y-628000D01*
X836000D02*
Y-638000D01*
X846000Y-648000D01*
X836000Y-658000D01*
Y-668000D01*
X846000D01*
X856000Y-658000D01*
X866000Y-668000D01*
X876000D01*
Y-658000D01*
X866000Y-648000D01*
X876000Y-638000D01*
Y-628000D01*
X866000D01*
X856000Y-638000D01*
X846000Y-628000D01*
X836000D01*
X948000D02*
Y-638000D01*
X958000Y-648000D01*
X948000Y-658000D01*
Y-668000D01*
X958000D01*
X968000Y-658000D01*
X978000Y-668000D01*
X988000D01*
Y-658000D01*
X978000Y-648000D01*
X988000Y-638000D01*
Y-628000D01*
X978000D01*
X968000Y-638000D01*
X958000Y-628000D01*
X948000D01*
X1044252Y-610000D02*
X1084252D01*
Y-650000D01*
X1044252D01*
Y-610000D01*
X1049000Y-878000D02*
X1039000D01*
Y-888000D01*
X1049000Y-898000D01*
X1039000Y-908000D01*
Y-918000D01*
X1049000D01*
X1059000Y-908000D01*
X1069000Y-918000D01*
X1079000D01*
Y-908000D01*
X1069000Y-898000D01*
X1079000Y-888000D01*
Y-878000D01*
X1069000D01*
X1059000Y-888000D01*
X1049000Y-878000D01*
X1055000Y-973000D02*
Y-983000D01*
X1065000Y-993000D01*
X1055000Y-1003000D01*
Y-1013000D01*
X1065000D01*
X1075000Y-1003000D01*
X1085000Y-1013000D01*
X1095000D01*
Y-1003000D01*
X1085000Y-993000D01*
X1095000Y-983000D01*
Y-973000D01*
X1085000D01*
X1075000Y-983000D01*
X1065000Y-973000D01*
X1055000D01*
X947000Y-918000D02*
Y-908000D01*
X937000Y-898000D01*
X947000Y-888000D01*
Y-878000D01*
X937000D01*
X927000Y-888000D01*
X917000Y-878000D01*
X907000D01*
Y-888000D01*
X917000Y-898000D01*
X907000Y-908000D01*
Y-918000D01*
X917000D01*
X927000Y-908000D01*
X937000Y-918000D01*
X947000D01*
X797874Y-925000D02*
X787874D01*
X777874Y-915000D01*
X767874Y-925000D01*
X757874D01*
X767874Y-935000D01*
X757874Y-945000D01*
X767874D01*
X777874Y-955000D01*
X787874Y-945000D01*
X797874D01*
X787874Y-935000D01*
X797874Y-925000D01*
Y-845000D02*
X787874Y-835000D01*
X797874Y-825000D01*
X787874D01*
X777874Y-815000D01*
X767874Y-825000D01*
X757874D01*
X767874Y-835000D01*
X757874Y-845000D01*
X767874D01*
X777874Y-855000D01*
X787874Y-845000D01*
X797874D01*
Y-1025000D02*
X787874D01*
X777874Y-1015000D01*
X767874Y-1025000D01*
X757874D01*
X767874Y-1035000D01*
X757874Y-1045000D01*
X767874D01*
X777874Y-1055000D01*
X787874Y-1045000D01*
X797874D01*
X787874Y-1035000D01*
X797874Y-1025000D01*
X540000Y-728000D02*
Y-718000D01*
X530000D01*
X520000Y-728000D01*
X510000Y-718000D01*
X500000D01*
Y-728000D01*
X510000Y-738000D01*
X500000Y-748000D01*
Y-758000D01*
X510000D01*
X520000Y-748000D01*
X530000Y-758000D01*
X540000D01*
Y-748000D01*
X530000Y-738000D01*
X540000Y-728000D01*
Y-668000D02*
Y-658000D01*
X530000Y-648000D01*
X540000Y-638000D01*
Y-628000D01*
X530000D01*
X520000Y-638000D01*
X510000Y-628000D01*
X500000D01*
Y-638000D01*
X510000Y-648000D01*
X500000Y-658000D01*
Y-668000D01*
X510000D01*
X520000Y-658000D01*
X530000Y-668000D01*
X540000D01*
X447874Y-715000D02*
X427874Y-755000D01*
X407874Y-715000D01*
X447874D01*
X428000Y-523000D02*
Y-513000D01*
X418000Y-503000D01*
X428000Y-493000D01*
Y-483000D01*
X418000D01*
X408000Y-493000D01*
X398000Y-483000D01*
X388000D01*
Y-493000D01*
X398000Y-503000D01*
X388000Y-513000D01*
Y-523000D01*
X398000D01*
X408000Y-513000D01*
X418000Y-523000D01*
X428000D01*
X500000D02*
X510000D01*
X520000Y-513000D01*
X530000Y-523000D01*
X540000D01*
Y-513000D01*
X530000Y-503000D01*
X540000Y-493000D01*
Y-483000D01*
X530000D01*
X520000Y-493000D01*
X510000Y-483000D01*
X500000D01*
Y-493000D01*
X510000Y-503000D01*
X500000Y-513000D01*
Y-523000D01*
X612000D02*
X622000D01*
X632000Y-513000D01*
X642000Y-523000D01*
X652000D01*
Y-513000D01*
X642000Y-503000D01*
X652000Y-493000D01*
Y-483000D01*
X642000D01*
X632000Y-493000D01*
X622000Y-483000D01*
X612000D01*
Y-493000D01*
X622000Y-503000D01*
X612000Y-513000D01*
Y-523000D01*
X657874Y-775000D02*
X667874Y-785000D01*
X657874Y-795000D01*
X667874D01*
X677874Y-805000D01*
X687874Y-795000D01*
X697874D01*
X687874Y-785000D01*
X697874Y-775000D01*
X687874D01*
X677874Y-765000D01*
X667874Y-775000D01*
X657874D01*
Y-875000D02*
X667874Y-885000D01*
X657874Y-895000D01*
X667874D01*
X677874Y-905000D01*
X687874Y-895000D01*
X697874D01*
X687874Y-885000D01*
X697874Y-875000D01*
X687874D01*
X677874Y-865000D01*
X667874Y-875000D01*
X657874D01*
Y-975000D02*
X667874Y-985000D01*
X657874Y-995000D01*
X667874D01*
X677874Y-1005000D01*
X687874Y-995000D01*
X697874D01*
X687874Y-985000D01*
X697874Y-975000D01*
X687874D01*
X677874Y-965000D01*
X667874Y-975000D01*
X657874D01*
Y-1075000D02*
X667874Y-1085000D01*
X657874Y-1095000D01*
X667874D01*
X677874Y-1105000D01*
X687874Y-1095000D01*
X697874D01*
X687874Y-1085000D01*
X697874Y-1075000D01*
X687874D01*
X677874Y-1065000D01*
X667874Y-1075000D01*
X657874D01*
X540000Y-1078000D02*
X530000D01*
X520000Y-1088000D01*
X510000Y-1078000D01*
X500000D01*
Y-1088000D01*
X510000Y-1098000D01*
X500000Y-1108000D01*
Y-1118000D01*
X510000D01*
X520000Y-1108000D01*
X530000Y-1118000D01*
X540000D01*
Y-1108000D01*
X530000Y-1098000D01*
X540000Y-1088000D01*
Y-1078000D01*
Y-1028000D02*
Y-1018000D01*
X530000Y-1008000D01*
X540000Y-998000D01*
Y-988000D01*
X530000D01*
X520000Y-998000D01*
X510000Y-988000D01*
X500000D01*
Y-998000D01*
X510000Y-1008000D01*
X500000Y-1018000D01*
Y-1028000D01*
X510000D01*
X520000Y-1018000D01*
X530000Y-1028000D01*
X540000D01*
Y-938000D02*
Y-928000D01*
X530000Y-918000D01*
X540000Y-908000D01*
Y-898000D01*
X530000D01*
X520000Y-908000D01*
X510000Y-898000D01*
X500000D01*
Y-908000D01*
X510000Y-918000D01*
X500000Y-928000D01*
Y-938000D01*
X510000D01*
X520000Y-928000D01*
X530000Y-938000D01*
X540000D01*
Y-848000D02*
Y-838000D01*
X530000Y-828000D01*
X540000Y-818000D01*
Y-808000D01*
X530000D01*
X520000Y-818000D01*
X510000Y-808000D01*
X500000D01*
Y-818000D01*
X510000Y-828000D01*
X500000Y-838000D01*
Y-848000D01*
X510000D01*
X520000Y-838000D01*
X530000Y-848000D01*
X540000D01*
X428000D02*
Y-838000D01*
X418000Y-828000D01*
X428000Y-818000D01*
Y-808000D01*
X418000D01*
X408000Y-818000D01*
X398000Y-808000D01*
X388000D01*
Y-818000D01*
X398000Y-828000D01*
X388000Y-838000D01*
Y-848000D01*
X398000D01*
X408000Y-838000D01*
X418000Y-848000D01*
X428000D01*
Y-898000D02*
X418000D01*
X408000Y-908000D01*
X398000Y-898000D01*
X388000D01*
Y-908000D01*
X398000Y-918000D01*
X388000Y-928000D01*
Y-938000D01*
X398000D01*
X408000Y-928000D01*
X418000Y-938000D01*
X428000D01*
Y-928000D01*
X418000Y-918000D01*
X428000Y-908000D01*
Y-898000D01*
Y-988000D02*
X418000D01*
X408000Y-998000D01*
X398000Y-988000D01*
X388000D01*
Y-998000D01*
X398000Y-1008000D01*
X388000Y-1018000D01*
Y-1028000D01*
X398000D01*
X408000Y-1018000D01*
X418000Y-1028000D01*
X428000D01*
Y-1018000D01*
X418000Y-1008000D01*
X428000Y-998000D01*
Y-988000D01*
Y-1078000D02*
X418000D01*
X408000Y-1088000D01*
X398000Y-1078000D01*
X388000D01*
Y-1088000D01*
X398000Y-1098000D01*
X388000Y-1108000D01*
Y-1118000D01*
X398000D01*
X408000Y-1108000D01*
X418000Y-1118000D01*
X428000D01*
Y-1108000D01*
X418000Y-1098000D01*
X428000Y-1088000D01*
Y-1078000D01*
X447874Y-1165000D02*
X427874Y-1205000D01*
X407874Y-1165000D01*
X447874D01*
X500000Y-1168000D02*
Y-1178000D01*
X510000Y-1188000D01*
X500000Y-1198000D01*
Y-1208000D01*
X510000D01*
X520000Y-1198000D01*
X530000Y-1208000D01*
X540000D01*
Y-1198000D01*
X530000Y-1188000D01*
X540000Y-1178000D01*
Y-1168000D01*
X530000D01*
X520000Y-1178000D01*
X510000Y-1168000D01*
X500000D01*
X657875Y-1177000D02*
Y-1187000D01*
X667875Y-1197000D01*
X657875Y-1207000D01*
Y-1217000D01*
X667875D01*
X677875Y-1207000D01*
X687875Y-1217000D01*
X697875D01*
Y-1207000D01*
X687875Y-1197000D01*
X697875Y-1187000D01*
Y-1177000D01*
X687875D01*
X677875Y-1187000D01*
X667875Y-1177000D01*
X657875D01*
Y-1289000D02*
Y-1299000D01*
X667875Y-1309000D01*
X657875Y-1319000D01*
Y-1329000D01*
X667875D01*
X677875Y-1319000D01*
X687875Y-1329000D01*
X697875D01*
Y-1319000D01*
X687875Y-1309000D01*
X697875Y-1299000D01*
Y-1289000D01*
X687875D01*
X677875Y-1299000D01*
X667875Y-1289000D01*
X657875D01*
X652000Y-1420000D02*
X642000D01*
X632000Y-1430000D01*
X622000Y-1420000D01*
X612000D01*
Y-1430000D01*
X622000Y-1440000D01*
X612000Y-1450000D01*
Y-1460000D01*
X622000D01*
X632000Y-1450000D01*
X642000Y-1460000D01*
X652000D01*
Y-1450000D01*
X642000Y-1440000D01*
X652000Y-1430000D01*
Y-1420000D01*
X428000D02*
X418000D01*
X408000Y-1430000D01*
X398000Y-1420000D01*
X388000D01*
Y-1430000D01*
X398000Y-1440000D01*
X388000Y-1450000D01*
Y-1460000D01*
X398000D01*
X408000Y-1450000D01*
X418000Y-1460000D01*
X428000D01*
Y-1450000D01*
X418000Y-1440000D01*
X428000Y-1430000D01*
Y-1420000D01*
Y-1351000D02*
Y-1341000D01*
X418000Y-1331000D01*
X428000Y-1321000D01*
Y-1311000D01*
X418000D01*
X408000Y-1321000D01*
X398000Y-1311000D01*
X388000D01*
Y-1321000D01*
X398000Y-1331000D01*
X388000Y-1341000D01*
Y-1351000D01*
X398000D01*
X408000Y-1341000D01*
X418000Y-1351000D01*
X428000D01*
X306000Y-1098000D02*
X316000Y-1088000D01*
Y-1078000D01*
X306000D01*
X296000Y-1088000D01*
X286000Y-1078000D01*
X276000D01*
Y-1088000D01*
X286000Y-1098000D01*
X276000Y-1108000D01*
Y-1118000D01*
X286000D01*
X296000Y-1108000D01*
X306000Y-1118000D01*
X316000D01*
Y-1108000D01*
X306000Y-1098000D01*
Y-1028000D02*
X316000D01*
Y-1018000D01*
X306000Y-1008000D01*
X316000Y-998000D01*
Y-988000D01*
X306000D01*
X296000Y-998000D01*
X286000Y-988000D01*
X276000D01*
Y-998000D01*
X286000Y-1008000D01*
X276000Y-1018000D01*
Y-1028000D01*
X286000D01*
X296000Y-1018000D01*
X306000Y-1028000D01*
Y-938000D02*
X316000D01*
Y-928000D01*
X306000Y-918000D01*
X316000Y-908000D01*
Y-898000D01*
X306000D01*
X296000Y-908000D01*
X286000Y-898000D01*
X276000D01*
Y-908000D01*
X286000Y-918000D01*
X276000Y-928000D01*
Y-938000D01*
X286000D01*
X296000Y-928000D01*
X306000Y-938000D01*
Y-848000D02*
X316000D01*
Y-838000D01*
X306000Y-828000D01*
X316000Y-818000D01*
Y-808000D01*
X306000D01*
X296000Y-818000D01*
X286000Y-808000D01*
X276000D01*
Y-818000D01*
X286000Y-828000D01*
X276000Y-838000D01*
Y-848000D01*
X286000D01*
X296000Y-838000D01*
X306000Y-848000D01*
Y-758000D02*
X316000D01*
Y-748000D01*
X306000Y-738000D01*
X316000Y-728000D01*
Y-718000D01*
X306000D01*
X296000Y-728000D01*
X286000Y-718000D01*
X276000D01*
Y-728000D01*
X286000Y-738000D01*
X276000Y-748000D01*
Y-758000D01*
X286000D01*
X296000Y-748000D01*
X306000Y-758000D01*
X204000D02*
Y-748000D01*
X194000Y-738000D01*
X204000Y-728000D01*
Y-718000D01*
X194000D01*
X184000Y-728000D01*
X174000Y-718000D01*
X164000D01*
Y-728000D01*
X174000Y-738000D01*
X164000Y-748000D01*
Y-758000D01*
X174000D01*
X184000Y-748000D01*
X194000Y-758000D01*
X204000D01*
Y-808000D02*
X194000D01*
X184000Y-818000D01*
X174000Y-808000D01*
X164000D01*
Y-818000D01*
X174000Y-828000D01*
X164000Y-838000D01*
Y-848000D01*
X174000D01*
X184000Y-838000D01*
X194000Y-848000D01*
X204000D01*
Y-838000D01*
X194000Y-828000D01*
X204000Y-818000D01*
Y-808000D01*
Y-898000D02*
X194000D01*
X184000Y-908000D01*
X174000Y-898000D01*
X164000D01*
Y-908000D01*
X174000Y-918000D01*
X164000Y-928000D01*
Y-938000D01*
X174000D01*
X184000Y-928000D01*
X194000Y-938000D01*
X204000D01*
Y-928000D01*
X194000Y-918000D01*
X204000Y-908000D01*
Y-898000D01*
Y-988000D02*
X194000D01*
X184000Y-998000D01*
X174000Y-988000D01*
X164000D01*
Y-998000D01*
X174000Y-1008000D01*
X164000Y-1018000D01*
Y-1028000D01*
X174000D01*
X184000Y-1018000D01*
X194000Y-1028000D01*
X204000D01*
Y-1018000D01*
X194000Y-1008000D01*
X204000Y-998000D01*
Y-988000D01*
Y-1078000D02*
X194000D01*
X184000Y-1088000D01*
X174000Y-1078000D01*
X164000D01*
Y-1088000D01*
X174000Y-1098000D01*
X164000Y-1108000D01*
Y-1118000D01*
X174000D01*
X184000Y-1108000D01*
X194000Y-1118000D01*
X204000D01*
Y-1108000D01*
X194000Y-1098000D01*
X204000Y-1088000D01*
Y-1078000D01*
X92000D02*
X82000D01*
X72000Y-1088000D01*
X62000Y-1078000D01*
X52000D01*
Y-1088000D01*
X62000Y-1098000D01*
X52000Y-1108000D01*
Y-1118000D01*
X62000D01*
X72000Y-1108000D01*
X82000Y-1118000D01*
X92000D01*
Y-1108000D01*
X82000Y-1098000D01*
X92000Y-1088000D01*
Y-1078000D01*
Y-1028000D02*
Y-1018000D01*
X82000Y-1008000D01*
X92000Y-998000D01*
Y-988000D01*
X82000D01*
X72000Y-998000D01*
X62000Y-988000D01*
X52000D01*
Y-998000D01*
X62000Y-1008000D01*
X52000Y-1018000D01*
Y-1028000D01*
X62000D01*
X72000Y-1018000D01*
X82000Y-1028000D01*
X92000D01*
Y-938000D02*
Y-928000D01*
X82000Y-918000D01*
X92000Y-908000D01*
Y-898000D01*
X82000D01*
X72000Y-908000D01*
X62000Y-898000D01*
X52000D01*
Y-908000D01*
X62000Y-918000D01*
X52000Y-928000D01*
Y-938000D01*
X62000D01*
X72000Y-928000D01*
X82000Y-938000D01*
X92000D01*
Y-848000D02*
Y-838000D01*
X82000Y-828000D01*
X92000Y-818000D01*
Y-808000D01*
X82000D01*
X72000Y-818000D01*
X62000Y-808000D01*
X52000D01*
Y-818000D01*
X62000Y-828000D01*
X52000Y-838000D01*
Y-848000D01*
X62000D01*
X72000Y-838000D01*
X82000Y-848000D01*
X92000D01*
Y-758000D02*
Y-748000D01*
X82000Y-738000D01*
X92000Y-728000D01*
Y-718000D01*
X82000D01*
X72000Y-728000D01*
X62000Y-718000D01*
X52000D01*
Y-728000D01*
X62000Y-738000D01*
X52000Y-748000D01*
Y-758000D01*
X62000D01*
X72000Y-748000D01*
X82000Y-758000D01*
X92000D01*
Y-1168000D02*
X82000D01*
X72000Y-1178000D01*
X62000Y-1168000D01*
X52000D01*
Y-1178000D01*
X62000Y-1188000D01*
X52000Y-1198000D01*
Y-1208000D01*
X62000D01*
X72000Y-1198000D01*
X82000Y-1208000D01*
X92000D01*
Y-1198000D01*
X82000Y-1188000D01*
X92000Y-1178000D01*
Y-1168000D01*
X164000D02*
Y-1178000D01*
X174000Y-1188000D01*
X164000Y-1198000D01*
Y-1208000D01*
X174000D01*
X184000Y-1198000D01*
X194000Y-1208000D01*
X204000D01*
Y-1198000D01*
X194000Y-1188000D01*
X204000Y-1178000D01*
Y-1168000D01*
X194000D01*
X184000Y-1178000D01*
X174000Y-1168000D01*
X164000D01*
X276000D02*
Y-1178000D01*
X286000Y-1188000D01*
X276000Y-1198000D01*
Y-1208000D01*
X286000D01*
X296000Y-1198000D01*
X306000Y-1208000D01*
X316000D01*
Y-1198000D01*
X306000Y-1188000D01*
X316000Y-1178000D01*
Y-1168000D01*
X306000D01*
X296000Y-1178000D01*
X286000Y-1168000D01*
X276000D01*
X204000Y-1311000D02*
X194000D01*
X184000Y-1321000D01*
X174000Y-1311000D01*
X164000D01*
Y-1321000D01*
X174000Y-1331000D01*
X164000Y-1341000D01*
Y-1351000D01*
X174000D01*
X184000Y-1341000D01*
X194000Y-1351000D01*
X204000D01*
Y-1341000D01*
X194000Y-1331000D01*
X204000Y-1321000D01*
Y-1311000D01*
Y-1420000D02*
X194000D01*
X184000Y-1430000D01*
X174000Y-1420000D01*
X164000D01*
Y-1430000D01*
X174000Y-1440000D01*
X164000Y-1450000D01*
Y-1460000D01*
X174000D01*
X184000Y-1450000D01*
X194000Y-1460000D01*
X204000D01*
Y-1450000D01*
X194000Y-1440000D01*
X204000Y-1430000D01*
Y-1420000D01*
X276000D02*
Y-1430000D01*
X286000Y-1440000D01*
X276000Y-1450000D01*
Y-1460000D01*
X286000D01*
X296000Y-1450000D01*
X306000Y-1460000D01*
X316000D01*
Y-1450000D01*
X306000Y-1440000D01*
X316000Y-1430000D01*
Y-1420000D01*
X306000D01*
X296000Y-1430000D01*
X286000Y-1420000D01*
X276000D01*
X92000D02*
X82000D01*
X72000Y-1430000D01*
X62000Y-1420000D01*
X52000D01*
Y-1430000D01*
X62000Y-1440000D01*
X52000Y-1450000D01*
Y-1460000D01*
X62000D01*
X72000Y-1450000D01*
X82000Y-1460000D01*
X92000D01*
Y-1450000D01*
X82000Y-1440000D01*
X92000Y-1430000D01*
Y-1420000D01*
Y-1351000D02*
Y-1341000D01*
X82000Y-1331000D01*
X92000Y-1321000D01*
Y-1311000D01*
X82000D01*
X72000Y-1321000D01*
X62000Y-1311000D01*
X52000D01*
Y-1321000D01*
X62000Y-1331000D01*
X52000Y-1341000D01*
Y-1351000D01*
X62000D01*
X72000Y-1341000D01*
X82000Y-1351000D01*
X92000D01*
Y-668000D02*
Y-658000D01*
X82000Y-648000D01*
X92000Y-638000D01*
Y-628000D01*
X82000D01*
X72000Y-638000D01*
X62000Y-628000D01*
X52000D01*
Y-638000D01*
X62000Y-648000D01*
X52000Y-658000D01*
Y-668000D01*
X62000D01*
X72000Y-658000D01*
X82000Y-668000D01*
X92000D01*
Y-523000D02*
Y-513000D01*
X82000Y-503000D01*
X92000Y-493000D01*
Y-483000D01*
X82000D01*
X72000Y-493000D01*
X62000Y-483000D01*
X52000D01*
Y-493000D01*
X62000Y-503000D01*
X52000Y-513000D01*
Y-523000D01*
X62000D01*
X72000Y-513000D01*
X82000Y-523000D01*
X92000D01*
X164000D02*
X174000D01*
X184000Y-513000D01*
X194000Y-523000D01*
X204000D01*
Y-513000D01*
X194000Y-503000D01*
X204000Y-493000D01*
Y-483000D01*
X194000D01*
X184000Y-493000D01*
X174000Y-483000D01*
X164000D01*
Y-493000D01*
X174000Y-503000D01*
X164000Y-513000D01*
Y-523000D01*
X276000D02*
X286000D01*
X296000Y-513000D01*
X306000Y-523000D01*
X316000D01*
Y-513000D01*
X306000Y-503000D01*
X316000Y-493000D01*
Y-483000D01*
X306000D01*
X296000Y-493000D01*
X286000Y-483000D01*
X276000D01*
Y-493000D01*
X286000Y-503000D01*
X276000Y-513000D01*
Y-523000D01*
X398000Y-324000D02*
X408000Y-314000D01*
X418000Y-324000D01*
X428000D01*
Y-314000D01*
X418000Y-304000D01*
X428000Y-294000D01*
Y-284000D01*
X418000D01*
X408000Y-294000D01*
X398000Y-284000D01*
X388000D01*
Y-294000D01*
X398000Y-304000D01*
X388000Y-314000D01*
Y-324000D01*
X398000D01*
X500000D02*
X510000D01*
X520000Y-314000D01*
X530000Y-324000D01*
X540000D01*
Y-314000D01*
X530000Y-304000D01*
X540000Y-294000D01*
Y-284000D01*
X530000D01*
X520000Y-294000D01*
X510000Y-284000D01*
X500000D01*
Y-294000D01*
X510000Y-304000D01*
X500000Y-314000D01*
Y-324000D01*
X612000D02*
X622000D01*
X632000Y-314000D01*
X642000Y-324000D01*
X652000D01*
Y-314000D01*
X642000Y-304000D01*
X652000Y-294000D01*
Y-284000D01*
X642000D01*
X632000Y-294000D01*
X622000Y-284000D01*
X612000D01*
Y-294000D01*
X622000Y-304000D01*
X612000Y-314000D01*
Y-324000D01*
X640000Y-220000D02*
X650000Y-200000D01*
X640000Y-180000D01*
X660000Y-190000D01*
X680000Y-180000D01*
X670000Y-200000D01*
X680000Y-220000D01*
X660000Y-210000D01*
X640000Y-220000D01*
X580000D02*
X560000Y-210000D01*
X540000Y-220000D01*
X550000Y-200000D01*
X540000Y-180000D01*
X560000Y-190000D01*
X580000Y-180000D01*
X570000Y-200000D01*
X580000Y-220000D01*
Y-120000D02*
X560000Y-110000D01*
X540000Y-120000D01*
X550000Y-100000D01*
X540000Y-80000D01*
X560000Y-90000D01*
X580000Y-80000D01*
X570000Y-100000D01*
X580000Y-120000D01*
X640000D02*
X650000Y-100000D01*
X640000Y-80000D01*
X660000Y-90000D01*
X680000Y-80000D01*
X670000Y-100000D01*
X680000Y-120000D01*
X660000Y-110000D01*
X640000Y-120000D01*
X480000D02*
X460000Y-110000D01*
X440000Y-120000D01*
X450000Y-100000D01*
X440000Y-80000D01*
X460000Y-90000D01*
X480000Y-80000D01*
X470000Y-100000D01*
X480000Y-120000D01*
Y-180000D02*
X470000Y-200000D01*
X480000Y-220000D01*
X460000Y-210000D01*
X440000Y-220000D01*
X450000Y-200000D01*
X440000Y-180000D01*
X460000Y-190000D01*
X480000Y-180000D01*
X380000D02*
X370000Y-200000D01*
X380000Y-220000D01*
X360000Y-210000D01*
X340000Y-220000D01*
X350000Y-200000D01*
X340000Y-180000D01*
X360000Y-190000D01*
X380000Y-180000D01*
Y-120000D02*
X360000Y-110000D01*
X340000Y-120000D01*
X350000Y-100000D01*
X340000Y-80000D01*
X360000Y-90000D01*
X380000Y-80000D01*
X370000Y-100000D01*
X380000Y-120000D01*
X280000D02*
X260000Y-110000D01*
X240000Y-120000D01*
X250000Y-100000D01*
X240000Y-80000D01*
X260000Y-90000D01*
X280000Y-80000D01*
X270000Y-100000D01*
X280000Y-120000D01*
Y-180000D02*
X270000Y-200000D01*
X280000Y-220000D01*
X260000Y-210000D01*
X240000Y-220000D01*
X250000Y-200000D01*
X240000Y-180000D01*
X260000Y-190000D01*
X280000Y-180000D01*
X180000D02*
X170000Y-200000D01*
X180000Y-220000D01*
X160000Y-210000D01*
X140000Y-220000D01*
X150000Y-200000D01*
X140000Y-180000D01*
X160000Y-190000D01*
X180000Y-180000D01*
Y-120000D02*
X160000Y-110000D01*
X140000Y-120000D01*
X150000Y-100000D01*
X140000Y-80000D01*
X160000Y-90000D01*
X180000Y-80000D01*
X170000Y-100000D01*
X180000Y-120000D01*
X92000Y-100000D02*
Y-90000D01*
X82000Y-80000D01*
X92000Y-70000D01*
Y-60000D01*
X82000D01*
X72000Y-70000D01*
X62000Y-60000D01*
X52000D01*
Y-70000D01*
X62000Y-80000D01*
X52000Y-90000D01*
Y-100000D01*
X62000D01*
X72000Y-90000D01*
X82000Y-100000D01*
X92000D01*
Y-172000D02*
X82000D01*
X72000Y-182000D01*
X62000Y-172000D01*
X52000D01*
Y-182000D01*
X62000Y-192000D01*
X52000Y-202000D01*
Y-212000D01*
X62000D01*
X72000Y-202000D01*
X82000Y-212000D01*
X92000D01*
Y-202000D01*
X82000Y-192000D01*
X92000Y-182000D01*
Y-172000D01*
Y-284000D02*
X82000D01*
X72000Y-294000D01*
X62000Y-284000D01*
X52000D01*
Y-294000D01*
X62000Y-304000D01*
X52000Y-314000D01*
Y-324000D01*
X62000D01*
X72000Y-314000D01*
X82000Y-324000D01*
X92000D01*
Y-314000D01*
X82000Y-304000D01*
X92000Y-294000D01*
Y-284000D01*
X164000D02*
Y-294000D01*
X174000Y-304000D01*
X164000Y-314000D01*
Y-324000D01*
X174000D01*
X184000Y-314000D01*
X194000Y-324000D01*
X204000D01*
Y-314000D01*
X194000Y-304000D01*
X204000Y-294000D01*
Y-284000D01*
X194000D01*
X184000Y-294000D01*
X174000Y-284000D01*
X164000D01*
X276000D02*
Y-294000D01*
X286000Y-304000D01*
X276000Y-314000D01*
Y-324000D01*
X286000D01*
X296000Y-314000D01*
X306000Y-324000D01*
X316000D01*
Y-314000D01*
X306000Y-304000D01*
X316000Y-294000D01*
Y-284000D01*
X306000D01*
X296000Y-294000D01*
X286000Y-284000D01*
X276000D01*
D58*
X267953Y-1265118D02*
G03*
X267953Y-1265118I-20000J0D01*
G01*
Y-654882D02*
G03*
X267953Y-654882I-20000J0D01*
G01*
%TF.MD5,af5e534d1df3bac1fae39d4c71f549bb*%
M02*
