M48
;Layer_Color=9474304
;FILE_FORMAT=2:5
INCH,TZ
;TYPE=PLATED
T1F00S00C0.01500
T2F00S00C0.02000
T3F00S00C0.03200
T4F00S00C0.03543
T5F00S00C0.04921
T6F00S00C0.06299
;TYPE=NON_PLATED
T7F00S00C0.12795
%
T01
X7200Y-192000
Y-180800
Y-169600
Y-159300
X18400
Y-169600
Y-144000
Y-133100
X7200
Y-144000
X29600
X40800
Y-133100
Y-159300
Y-169600
X29600
Y-159300
X52000
Y-169600
X63200
Y-159300
Y-144000
X67787Y-130900
X96800Y-132800
Y-144000
X119200
X141600
X152800
Y-132800
X179300Y-169600
X183400Y-147200
X220000
Y-158400
Y-169600
Y-180800
Y-192000
Y-136000
Y-124800
Y-113600
Y-102400
Y-91200
Y-80000
Y-68800
Y-57600
Y-46400
Y-30400
X208800
X197600
X186400
X220000Y-19200
Y-8000
X192500Y-84000
X169300Y-80000
Y-68800
Y-57600
Y-46400
X152800Y-50300
X141600
X130400
X119200
X108000
X96800
X85600
X74400
X63200
X52000
X40800
X29600
Y-30400
X40800
X52000
X63200
X74400
X85600
X96800
X108000
X119200
X130400
X141600
X152800
X164000
X175200
X152800Y-76000
X141600
X130400
Y-64800
X119200
X96800
X85600
X74400
X52000
Y-73800
Y-82800
Y-91800
Y-100800
Y-109800
Y-118800
X67787Y-119700
X96400Y-123900
X105600Y-109600
X112700Y-110600
X107500Y-99300
X105900Y-89800
X92700
X112800Y-83500
X40800Y-82800
Y-91800
Y-100800
Y-109800
X29600
Y-100800
Y-91800
Y-82800
Y-73800
Y-118800
X18400
Y-109800
Y-100800
Y-91800
Y-82800
Y-73800
X7200
Y-82800
Y-91800
Y-100800
Y-109800
Y-118800
Y-64800
Y-50300
X18400
Y-30400
X7200
Y-19200
Y-8000
T02
X134200Y-117200
T03
X76000Y-190000
T04
X16000Y-190000
X26000
Y-180000
X16000
X36000
X46000
X56000
X66000
X76000
X86000
X96000
X106000
X116000
X126000
X136000
X146000
X156000
X166000
X176000
Y-190000
X166000
X156000
X146000
X136000
X126000
X116000
X106000
X96000
X86000
X66000
X56000
X46000
X36000
X186000
X196000
X206000
Y-180000
X196000
X186000
Y-20000
X196000
X206000
Y-10000
X196000
X186000
X176000
Y-20000
X166000
Y-10000
X156000
Y-20000
X146000
Y-10000
X136000
Y-20000
X126000
Y-10000
X116000
Y-20000
X106000
Y-10000
X96000
Y-20000
X86000
Y-10000
X76000
Y-20000
X66000
Y-10000
X56000
Y-20000
X46000
Y-10000
X36000
Y-20000
X67787Y-78500
Y-88500
Y-98500
Y-108500
X77787Y-103500
Y-93500
Y-83500
Y-113500
X26000Y-20000
Y-10000
X16000
Y-20000
T05
X106425Y-134000
Y-63000
T06
X24795Y-126512
Y-65488
T07
X42787Y-118500
Y-73500
M30
