G04 Layer_Color=128*
%FSLAX26Y26*%
%MOIN*%
%TF.FileFunction,Drillmap*%
%TF.Part,Single*%
G01*
G75*
%TA.AperFunction,NonConductor*%
%ADD39C,0.005000*%
D39*
X1877715Y-1900000D02*
X1842285D01*
X1860000Y-1917715D02*
Y-1882285D01*
X1777715Y-1900000D02*
X1742285D01*
X1760000Y-1917715D02*
Y-1882285D01*
X1677715Y-1900000D02*
X1642285D01*
X1660000Y-1917715D02*
Y-1882285D01*
X1577715Y-1900000D02*
X1542285D01*
X1560000Y-1917715D02*
Y-1882285D01*
X1942285Y-1900000D02*
X1977715D01*
X1960000Y-1917715D02*
Y-1882285D01*
X2042285Y-1900000D02*
X2077715D01*
X2060000Y-1917715D02*
Y-1882285D01*
X2192500Y-1920000D02*
X2207500D01*
X2200000Y-1927500D02*
Y-1912500D01*
Y-1815500D02*
Y-1800500D01*
X2192500Y-1808000D02*
X2207500D01*
X2200000Y-1703500D02*
Y-1688500D01*
X2192500Y-1696000D02*
X2207500D01*
X2200000Y-1591500D02*
Y-1576500D01*
X2192500Y-1584000D02*
X2207500D01*
X2200000Y-1479500D02*
Y-1464500D01*
Y-1367500D02*
Y-1352500D01*
X2192500Y-1360000D02*
X2207500D01*
X2200000Y-1255500D02*
Y-1240500D01*
X2192500Y-1248000D02*
X2207500D01*
X2200000Y-1143500D02*
Y-1128500D01*
X2192500Y-1136000D02*
X2207500D01*
Y-1472000D02*
X2192500D01*
X2077715Y-1800000D02*
X2042285D01*
X2060000Y-1817715D02*
Y-1782285D01*
X1977715Y-1800000D02*
X1942285D01*
X1960000Y-1817715D02*
Y-1782285D01*
X1877715Y-1800000D02*
X1842285D01*
X1860000Y-1817715D02*
Y-1782285D01*
X1777715Y-1800000D02*
X1742285D01*
X1760000Y-1817715D02*
Y-1782285D01*
X1677715Y-1800000D02*
X1642285D01*
X1660000Y-1817715D02*
Y-1782285D01*
X1577715Y-1800000D02*
X1542285D01*
X1560000Y-1817715D02*
Y-1782285D01*
X1785500Y-1696000D02*
X1800500D01*
X1793000Y-1703500D02*
Y-1688500D01*
X1826500Y-1472000D02*
X1841500D01*
X1834000Y-1479500D02*
Y-1464500D01*
X1528000Y-1447500D02*
Y-1432500D01*
X1520500Y-1440000D02*
X1535500D01*
X1528000Y-1335500D02*
Y-1320500D01*
X1520500Y-1328000D02*
X1535500D01*
X1917500Y-840000D02*
X1932500D01*
X1925000Y-847500D02*
Y-832500D01*
X2192500Y-800000D02*
X2207500D01*
X2200000Y-807500D02*
Y-792500D01*
Y-904500D02*
Y-919500D01*
X2192500Y-912000D02*
X2207500D01*
Y-1024000D02*
X2192500D01*
X2200000Y-1031500D02*
Y-1016500D01*
Y-695500D02*
Y-680500D01*
X2192500Y-688000D02*
X2207500D01*
X2200000Y-583500D02*
Y-568500D01*
X2192500Y-576000D02*
X2207500D01*
X2200000Y-471500D02*
Y-456500D01*
X2192500Y-464000D02*
X2207500D01*
X2200000Y-311500D02*
Y-296500D01*
X2192500Y-304000D02*
X2207500D01*
X2200000Y-199500D02*
Y-184500D01*
X2192500Y-192000D02*
X2207500D01*
X2200000Y-87500D02*
Y-72500D01*
X2192500Y-80000D02*
X2207500D01*
X2077715Y-100000D02*
X2042285D01*
X2060000Y-117715D02*
Y-82285D01*
Y-182285D02*
Y-217715D01*
X2042285Y-200000D02*
X2077715D01*
X1977715D02*
X1942285D01*
X1960000Y-217715D02*
Y-182285D01*
Y-117715D02*
Y-82285D01*
X1942285Y-100000D02*
X1977715D01*
X1877715D02*
X1842285D01*
X1860000Y-117715D02*
Y-82285D01*
Y-182285D02*
Y-217715D01*
X1842285Y-200000D02*
X1877715D01*
X1871500Y-304000D02*
X1856500D01*
X1864000Y-311500D02*
Y-296500D01*
X1759500Y-304000D02*
X1744500D01*
X1752000Y-311500D02*
Y-296500D01*
X1760000Y-217715D02*
Y-182285D01*
X1742285Y-200000D02*
X1777715D01*
X1760000Y-117715D02*
Y-82285D01*
X1742285Y-100000D02*
X1777715D01*
X1677715D02*
X1642285D01*
X1660000Y-117715D02*
Y-82285D01*
Y-182285D02*
Y-217715D01*
X1642285Y-200000D02*
X1677715D01*
X1577715D02*
X1542285D01*
X1560000Y-217715D02*
Y-182285D01*
Y-117715D02*
Y-82285D01*
X1542285Y-100000D02*
X1577715D01*
X1535500Y-304000D02*
X1520500D01*
X1528000Y-311500D02*
Y-296500D01*
X1632500Y-304000D02*
X1647500D01*
X1640000Y-311500D02*
Y-296500D01*
X1685500Y-464000D02*
X1700500D01*
X1693000Y-471500D02*
Y-456500D01*
Y-568500D02*
Y-583500D01*
X1685500Y-576000D02*
X1700500D01*
Y-688000D02*
X1685500D01*
X1693000Y-695500D02*
Y-680500D01*
X1528000Y-510500D02*
Y-495500D01*
X1520500Y-503000D02*
X1535500D01*
Y-760000D02*
X1520500D01*
X1528000Y-767500D02*
Y-752500D01*
X1685500Y-800000D02*
X1700500D01*
X1693000Y-807500D02*
Y-792500D01*
X1304000Y-655500D02*
Y-640500D01*
X1296500Y-648000D02*
X1311500D01*
X1199500D02*
X1184500D01*
X1192000Y-655500D02*
Y-640500D01*
Y-510500D02*
Y-495500D01*
X1184500Y-503000D02*
X1199500D01*
X1296500D02*
X1311500D01*
X1304000Y-510500D02*
Y-495500D01*
X1408500Y-503000D02*
X1423500D01*
X1416000Y-510500D02*
Y-495500D01*
Y-752500D02*
Y-767500D01*
X1408500Y-760000D02*
X1423500D01*
X1311500D02*
X1296500D01*
X1304000Y-767500D02*
Y-752500D01*
X1135500Y-835000D02*
X1120500D01*
X1128000Y-842500D02*
Y-827500D01*
X1066500Y-898000D02*
X1051500D01*
X1059000Y-905500D02*
Y-890500D01*
X1067500Y-993000D02*
X1082500D01*
X1075000Y-1000500D02*
Y-985500D01*
X1063500Y-1096000D02*
X1048500D01*
X1056000Y-1088500D02*
Y-1103500D01*
X1119500Y-1106000D02*
X1134500D01*
X1332000Y-1172000D02*
X1352000D01*
X1342000Y-1182000D02*
Y-1162000D01*
X1408500Y-1440000D02*
X1423500D01*
X1416000Y-1447500D02*
Y-1432500D01*
X1199500Y-1440000D02*
X1184500D01*
X1192000Y-1447500D02*
Y-1432500D01*
X1177715Y-1800000D02*
X1142285D01*
X1160000Y-1817715D02*
Y-1782285D01*
X1242285Y-1800000D02*
X1277715D01*
X1260000Y-1817715D02*
Y-1782285D01*
X1342285Y-1800000D02*
X1377715D01*
X1360000Y-1817715D02*
Y-1782285D01*
X1442285Y-1800000D02*
X1477715D01*
X1460000Y-1817715D02*
Y-1782285D01*
Y-1882285D02*
Y-1917715D01*
X1442285Y-1900000D02*
X1477715D01*
X1377715D02*
X1342285D01*
X1360000Y-1917715D02*
Y-1882285D01*
X1277715Y-1900000D02*
X1242285D01*
X1260000Y-1917715D02*
Y-1882285D01*
X1177715Y-1900000D02*
X1142285D01*
X1160000Y-1917715D02*
Y-1882285D01*
X1060000Y-1817715D02*
Y-1782285D01*
X1042285Y-1800000D02*
X1077715D01*
X977715D02*
X942285D01*
X960000Y-1817715D02*
Y-1782285D01*
X877715Y-1800000D02*
X842285D01*
X860000Y-1817715D02*
Y-1782285D01*
X777715Y-1800000D02*
X742285D01*
X760000Y-1817715D02*
Y-1782285D01*
X677715Y-1800000D02*
X642285D01*
X660000Y-1817715D02*
Y-1782285D01*
X577715Y-1800000D02*
X542285D01*
X560000Y-1817715D02*
Y-1782285D01*
X477715Y-1800000D02*
X442285D01*
X460000Y-1817715D02*
Y-1782285D01*
X408000Y-1703500D02*
Y-1688500D01*
X400500Y-1696000D02*
X415500D01*
X512500D02*
X527500D01*
X520000Y-1703500D02*
Y-1688500D01*
Y-1600500D02*
Y-1585500D01*
X512500Y-1593000D02*
X527500D01*
X624500D02*
X639500D01*
X632000Y-1600500D02*
Y-1585500D01*
Y-1688500D02*
Y-1703500D01*
X624500Y-1696000D02*
X639500D01*
X408000Y-1600500D02*
Y-1585500D01*
X400500Y-1593000D02*
X415500D01*
X442285Y-1900000D02*
X477715D01*
X460000Y-1917715D02*
Y-1882285D01*
X542285Y-1900000D02*
X577715D01*
X560000Y-1917715D02*
Y-1882285D01*
X642285Y-1900000D02*
X677715D01*
X660000Y-1917715D02*
Y-1882285D01*
X744000Y-1900000D02*
X776000D01*
X842285D02*
X877715D01*
X860000Y-1917715D02*
Y-1882285D01*
X942285Y-1900000D02*
X977715D01*
X960000Y-1917715D02*
Y-1882285D01*
X1042285Y-1900000D02*
X1077715D01*
X1060000Y-1917715D02*
Y-1882285D01*
X760000Y-1884000D02*
Y-1916000D01*
X360000Y-1817715D02*
Y-1782285D01*
X342285Y-1800000D02*
X377715D01*
X277715D02*
X242285D01*
X260000Y-1817715D02*
Y-1782285D01*
X177715Y-1800000D02*
X142285D01*
X160000Y-1817715D02*
Y-1782285D01*
X176500Y-1696000D02*
X191500D01*
X184000Y-1703500D02*
Y-1688500D01*
Y-1600500D02*
Y-1585500D01*
X176500Y-1593000D02*
X191500D01*
X288500D02*
X303500D01*
X296000Y-1600500D02*
Y-1585500D01*
Y-1688500D02*
Y-1703500D01*
X288500Y-1696000D02*
X303500D01*
X79500D02*
X64500D01*
X72000Y-1703500D02*
Y-1688500D01*
Y-1600500D02*
Y-1585500D01*
X64500Y-1593000D02*
X79500D01*
Y-1808000D02*
X64500D01*
X72000Y-1815500D02*
Y-1800500D01*
Y-1912500D02*
Y-1927500D01*
X64500Y-1920000D02*
X79500D01*
X142285Y-1900000D02*
X177715D01*
X160000Y-1917715D02*
Y-1882285D01*
X242285Y-1900000D02*
X277715D01*
X260000Y-1917715D02*
Y-1882285D01*
X342285Y-1900000D02*
X377715D01*
X360000Y-1917715D02*
Y-1882285D01*
X960500Y-1440000D02*
X975500D01*
X968000Y-1447500D02*
Y-1432500D01*
Y-1335500D02*
Y-1320500D01*
X960500Y-1328000D02*
X975500D01*
X1039646Y-1340000D02*
X1088858D01*
X1064252Y-1364606D02*
Y-1315394D01*
X964000Y-1246500D02*
Y-1231500D01*
X956500Y-1239000D02*
X971500D01*
X777874Y-1152716D02*
Y-1117284D01*
X795591Y-1135000D02*
X760158D01*
X685375Y-1197000D02*
X670375D01*
X677875Y-1204500D02*
Y-1189500D01*
Y-1301500D02*
Y-1316500D01*
X670375Y-1309000D02*
X685375D01*
X639500Y-1440000D02*
X624500D01*
X632000Y-1447500D02*
Y-1432500D01*
X415500Y-1440000D02*
X400500D01*
X408000Y-1447500D02*
Y-1432500D01*
Y-1338500D02*
Y-1323500D01*
X400500Y-1331000D02*
X415500D01*
X427874Y-1248976D02*
Y-1121024D01*
X408000Y-1105500D02*
Y-1090500D01*
X400500Y-1098000D02*
X415500D01*
X408000Y-1015500D02*
Y-1000500D01*
X400500Y-1008000D02*
X415500D01*
X408000Y-925500D02*
Y-910500D01*
X400500Y-918000D02*
X415500D01*
X408000Y-835500D02*
Y-820500D01*
X400500Y-828000D02*
X415500D01*
X427874Y-798976D02*
Y-671024D01*
X512500Y-648000D02*
X527500D01*
X520000Y-655500D02*
Y-640500D01*
Y-730500D02*
Y-745500D01*
X512500Y-738000D02*
X527500D01*
X491851Y-735000D02*
X363898D01*
X303500Y-738000D02*
X288500D01*
X296000Y-745500D02*
Y-730500D01*
X247953Y-686378D02*
Y-623386D01*
X216457Y-654882D02*
X279449D01*
X288500Y-503000D02*
X303500D01*
X296000Y-510500D02*
Y-495500D01*
X191500Y-503000D02*
X176500D01*
X184000Y-510500D02*
Y-495500D01*
X79500Y-503000D02*
X64500D01*
X72000Y-510500D02*
Y-495500D01*
Y-640500D02*
Y-655500D01*
X64500Y-648000D02*
X79500D01*
X72000Y-730500D02*
Y-745500D01*
X64500Y-738000D02*
X79500D01*
Y-828000D02*
X64500D01*
X72000Y-835500D02*
Y-820500D01*
Y-910500D02*
Y-925500D01*
X64500Y-918000D02*
X79500D01*
Y-1008000D02*
X64500D01*
X72000Y-1015500D02*
Y-1000500D01*
Y-1090500D02*
Y-1105500D01*
Y-1180500D02*
Y-1195500D01*
X64500Y-1188000D02*
X79500D01*
X176500D02*
X191500D01*
X184000Y-1195500D02*
Y-1180500D01*
Y-1105500D02*
Y-1090500D01*
X176500Y-1098000D02*
X191500D01*
X184000Y-1015500D02*
Y-1000500D01*
X176500Y-1008000D02*
X191500D01*
X184000Y-925500D02*
Y-910500D01*
X176500Y-918000D02*
X191500D01*
X184000Y-835500D02*
Y-820500D01*
X176500Y-828000D02*
X191500D01*
X184000Y-745500D02*
Y-730500D01*
X176500Y-738000D02*
X191500D01*
X288500Y-828000D02*
X303500D01*
X296000Y-835500D02*
Y-820500D01*
Y-910500D02*
Y-925500D01*
X288500Y-918000D02*
X303500D01*
Y-1008000D02*
X288500D01*
X296000Y-1015500D02*
Y-1000500D01*
Y-1090500D02*
Y-1105500D01*
Y-1180500D02*
Y-1195500D01*
X288500Y-1188000D02*
X303500D01*
X363898Y-1185000D02*
X491851D01*
X512500Y-1188000D02*
X527500D01*
X520000Y-1195500D02*
Y-1180500D01*
Y-1105500D02*
Y-1090500D01*
X512500Y-1098000D02*
X527500D01*
X520000Y-1015500D02*
Y-1000500D01*
X512500Y-1008000D02*
X527500D01*
X520000Y-925500D02*
Y-910500D01*
X512500Y-918000D02*
X527500D01*
X520000Y-835500D02*
Y-820500D01*
X512500Y-828000D02*
X527500D01*
X660158Y-785000D02*
X695591D01*
X677874Y-802716D02*
Y-767284D01*
Y-867284D02*
Y-902716D01*
X660158Y-885000D02*
X695591D01*
Y-985000D02*
X660158D01*
X677874Y-1002716D02*
Y-967284D01*
Y-1067284D02*
Y-1102716D01*
X660158Y-1085000D02*
X695591D01*
X760158Y-1035000D02*
X795591D01*
X777874Y-1052716D02*
Y-1017284D01*
Y-952716D02*
Y-917284D01*
X795591Y-935000D02*
X760158D01*
Y-835000D02*
X795591D01*
X777874Y-852716D02*
Y-817284D01*
X919500Y-898000D02*
X934500D01*
X927000Y-905500D02*
Y-890500D01*
X1127000Y-1098500D02*
Y-1113500D01*
X1064252Y-654606D02*
Y-605394D01*
X1039646Y-630000D02*
X1088858D01*
X1080000Y-510500D02*
Y-495500D01*
X1072500Y-503000D02*
X1087500D01*
X975500D02*
X960500D01*
X968000Y-510500D02*
Y-495500D01*
X863500Y-503000D02*
X848500D01*
X856000Y-510500D02*
Y-495500D01*
Y-640500D02*
Y-655500D01*
X848500Y-648000D02*
X863500D01*
X960500D02*
X975500D01*
X968000Y-655500D02*
Y-640500D01*
X1184500Y-304000D02*
X1199500D01*
X1192000Y-311500D02*
Y-296500D01*
X1160000Y-217715D02*
Y-182285D01*
X1142285Y-200000D02*
X1177715D01*
X1242285D02*
X1277715D01*
X1260000Y-217715D02*
Y-182285D01*
Y-117715D02*
Y-82285D01*
X1242285Y-100000D02*
X1277715D01*
X1342285D02*
X1377715D01*
X1360000Y-117715D02*
Y-82285D01*
X1442285Y-100000D02*
X1477715D01*
X1460000Y-117715D02*
Y-82285D01*
Y-182285D02*
Y-217715D01*
X1442285Y-200000D02*
X1477715D01*
X1377715D02*
X1342285D01*
X1360000Y-217715D02*
Y-182285D01*
X1408500Y-304000D02*
X1423500D01*
X1416000Y-311500D02*
Y-296500D01*
X1311500Y-304000D02*
X1296500D01*
X1304000Y-311500D02*
Y-296500D01*
X1160000Y-117715D02*
Y-82285D01*
X1142285Y-100000D02*
X1177715D01*
X1077715D02*
X1042285D01*
X1060000Y-117715D02*
Y-82285D01*
Y-182285D02*
Y-217715D01*
X1042285Y-200000D02*
X1077715D01*
X1080000Y-296500D02*
Y-311500D01*
X1072500Y-304000D02*
X1087500D01*
X975500D02*
X960500D01*
X968000Y-311500D02*
Y-296500D01*
X960000Y-217715D02*
Y-182285D01*
X942285Y-200000D02*
X977715D01*
X960000Y-117715D02*
Y-82285D01*
X942285Y-100000D02*
X977715D01*
X877715D02*
X842285D01*
X860000Y-117715D02*
Y-82285D01*
Y-182285D02*
Y-217715D01*
X842285Y-200000D02*
X877715D01*
X777715D02*
X742285D01*
X760000Y-217715D02*
Y-182285D01*
Y-117715D02*
Y-82285D01*
X742285Y-100000D02*
X777715D01*
X848500Y-304000D02*
X863500D01*
X856000Y-311500D02*
Y-296500D01*
X751500Y-304000D02*
X736500D01*
X744000Y-311500D02*
Y-296500D01*
X639500Y-304000D02*
X624500D01*
X632000Y-311500D02*
Y-296500D01*
X642285Y-200000D02*
X677715D01*
X660000Y-217715D02*
Y-182285D01*
Y-117715D02*
Y-82285D01*
X642285Y-100000D02*
X677715D01*
X577715D02*
X542285D01*
X560000Y-117715D02*
Y-82285D01*
Y-182285D02*
Y-217715D01*
X542285Y-200000D02*
X577715D01*
X477715D02*
X442285D01*
X460000Y-217715D02*
Y-182285D01*
Y-117715D02*
Y-82285D01*
X442285Y-100000D02*
X477715D01*
X512500Y-304000D02*
X527500D01*
X520000Y-311500D02*
Y-296500D01*
X415500Y-304000D02*
X400500D01*
X408000Y-311500D02*
Y-296500D01*
Y-495500D02*
Y-510500D01*
X400500Y-503000D02*
X415500D01*
X512500D02*
X527500D01*
X520000Y-510500D02*
Y-495500D01*
X624500Y-503000D02*
X639500D01*
X632000Y-510500D02*
Y-495500D01*
X736500Y-503000D02*
X751500D01*
X744000Y-510500D02*
Y-495500D01*
Y-640500D02*
Y-655500D01*
X736500Y-648000D02*
X751500D01*
X296000Y-311500D02*
Y-296500D01*
X288500Y-304000D02*
X303500D01*
X191500D02*
X176500D01*
X184000Y-311500D02*
Y-296500D01*
X160000Y-217715D02*
Y-182285D01*
X142285Y-200000D02*
X177715D01*
X242285D02*
X277715D01*
X260000Y-217715D02*
Y-182285D01*
Y-117715D02*
Y-82285D01*
X242285Y-100000D02*
X277715D01*
X342285D02*
X377715D01*
X360000Y-117715D02*
Y-82285D01*
Y-182285D02*
Y-217715D01*
X342285Y-200000D02*
X377715D01*
X160000Y-117715D02*
Y-82285D01*
X142285Y-100000D02*
X177715D01*
X72000Y-87500D02*
Y-72500D01*
X64500Y-80000D02*
X79500D01*
Y-192000D02*
X64500D01*
X72000Y-199500D02*
Y-184500D01*
Y-296500D02*
Y-311500D01*
X64500Y-304000D02*
X79500D01*
Y-1098000D02*
X64500D01*
X288500D02*
X303500D01*
X279449Y-1265118D02*
X216457D01*
X247953Y-1296614D02*
Y-1233622D01*
X191500Y-1331000D02*
X176500D01*
X184000Y-1338500D02*
Y-1323500D01*
Y-1432500D02*
Y-1447500D01*
X176500Y-1440000D02*
X191500D01*
X288500D02*
X303500D01*
X296000Y-1447500D02*
Y-1432500D01*
X79500Y-1440000D02*
X64500D01*
X72000Y-1447500D02*
Y-1432500D01*
Y-1338500D02*
Y-1323500D01*
X64500Y-1331000D02*
X79500D01*
X1968500Y-304000D02*
X1983500D01*
X1976000Y-311500D02*
Y-296500D01*
X2080500Y-304000D02*
X2095500D01*
X2088000Y-311500D02*
Y-296500D01*
%TF.MD5,ad34ac1c12f9bfaff2163513d7544a00*%
M02*
