G04 Layer_Physical_Order=1*
G04 Layer_Color=255*
%FSLAX26Y26*%
%MOIN*%
%TF.FileFunction,Copper,L1,Top,Signal*%
%TF.Part,Single*%
G01*
G75*
%TA.AperFunction,SMDPad,CuDef*%
%ADD10R,0.059055X0.062992*%
%ADD11R,0.062992X0.059055*%
%ADD12R,0.059055X0.051181*%
%ADD13R,0.051181X0.059055*%
%ADD14R,0.059055X0.055118*%
%ADD15R,0.055118X0.059055*%
%ADD16O,0.118110X0.031496*%
%ADD17R,0.051181X0.023622*%
%TA.AperFunction,Conductor*%
%ADD18C,0.025000*%
%ADD19C,0.035000*%
%ADD20C,0.030000*%
%ADD21C,0.020000*%
%ADD22R,0.230000X0.157000*%
%ADD23R,0.220000X0.170000*%
%ADD24R,0.164000X0.276000*%
%TA.AperFunction,ComponentPad*%
%ADD25C,0.098425*%
%ADD26C,0.094488*%
%ADD27C,0.124016*%
%ADD28C,0.055118*%
%ADD29R,0.055118X0.055118*%
G04:AMPARAMS|DCode=30|XSize=53.37mil|YSize=53.37mil|CornerRadius=0mil|HoleSize=0mil|Usage=FLASHONLY|Rotation=270.000|XOffset=0mil|YOffset=0mil|HoleType=Round|Shape=Octagon|*
%AMOCTAGOND30*
4,1,8,-0.013342,-0.026685,0.013342,-0.026685,0.026685,-0.013342,0.026685,0.013342,0.013342,0.026685,-0.013342,0.026685,-0.026685,0.013342,-0.026685,-0.013342,-0.013342,-0.026685,0.0*
%
%ADD30OCTAGOND30*%

%TA.AperFunction,ViaPad*%
%ADD31C,0.030000*%
%ADD32C,0.050000*%
G36*
X625000Y-577000D02*
Y-1069000D01*
X625000Y-1337000D01*
X602000Y-1359999D01*
X582556D01*
Y-1314591D01*
X553928Y-1343219D01*
X545000Y-1334291D01*
X536071Y-1343219D01*
X507444Y-1314592D01*
Y-1360000D01*
X32001Y-1360001D01*
X15293Y-1343293D01*
Y-574707D01*
X33000Y-557000D01*
X605000D01*
X625000Y-577000D01*
D02*
G37*
G36*
X1574000Y-1499000D02*
X15293D01*
Y-1371455D01*
X19913Y-1369542D01*
X21186Y-1370815D01*
X26148Y-1374130D01*
X26148Y-1374130D01*
X29353Y-1374768D01*
X32000Y-1375295D01*
X505647Y-1375294D01*
X508063Y-1376908D01*
X509320Y-1380431D01*
X509019Y-1382927D01*
X508055Y-1384369D01*
X507444Y-1387441D01*
Y-1436668D01*
X536071Y-1408041D01*
X545000Y-1416969D01*
X553928Y-1408041D01*
X582556Y-1436669D01*
Y-1387441D01*
X581945Y-1384369D01*
X580981Y-1382927D01*
X580680Y-1380431D01*
X581937Y-1376908D01*
X584354Y-1375293D01*
X602000D01*
X607853Y-1374129D01*
X612815Y-1370814D01*
X635815Y-1347814D01*
X639130Y-1342852D01*
X640294Y-1337000D01*
X640294Y-1099930D01*
X645294Y-1098935D01*
X646678Y-1102277D01*
X670915Y-1078041D01*
X677875Y-1085000D01*
X684834Y-1078041D01*
X709070Y-1102276D01*
X712395Y-1094250D01*
X713613Y-1085000D01*
X712395Y-1075750D01*
X709076Y-1067737D01*
X710875Y-1062973D01*
X710991Y-1062737D01*
X745513D01*
X747521Y-1065353D01*
X756411Y-1072175D01*
X762521Y-1074706D01*
X761527Y-1079706D01*
X741000D01*
X735147Y-1080870D01*
X730186Y-1084186D01*
X726870Y-1089147D01*
X725706Y-1095000D01*
Y-1371000D01*
X726870Y-1376853D01*
X730186Y-1381814D01*
X735147Y-1385130D01*
X740476Y-1386190D01*
Y-1436039D01*
X771072Y-1405443D01*
X780000Y-1414371D01*
X788928Y-1405443D01*
X819524Y-1436039D01*
Y-1386294D01*
X840476D01*
Y-1436039D01*
X871072Y-1405443D01*
X880000Y-1414371D01*
X888928Y-1405443D01*
X919524Y-1436039D01*
Y-1382874D01*
X918985Y-1380162D01*
X922310Y-1377940D01*
X925626Y-1372979D01*
X926790Y-1367126D01*
Y-1308071D01*
X925626Y-1302218D01*
X922310Y-1297256D01*
X920294Y-1295909D01*
Y-1095000D01*
X919130Y-1089147D01*
X915814Y-1084186D01*
X910853Y-1080870D01*
X905000Y-1079706D01*
X794222D01*
X793227Y-1074706D01*
X799337Y-1072175D01*
X808227Y-1065353D01*
X815049Y-1056463D01*
X819338Y-1046110D01*
X820800Y-1035000D01*
X819338Y-1023890D01*
X815049Y-1013537D01*
X808227Y-1004647D01*
X799337Y-997825D01*
X788984Y-993537D01*
X777874Y-992074D01*
X766764Y-993537D01*
X756411Y-997825D01*
X747521Y-1004647D01*
X745513Y-1007263D01*
X720130D01*
X716789Y-1002263D01*
X719338Y-996110D01*
X720800Y-985000D01*
X719338Y-973890D01*
X715049Y-963537D01*
X708227Y-954647D01*
X699337Y-947825D01*
X688984Y-943537D01*
X677874Y-942074D01*
X666764Y-943537D01*
X656411Y-947825D01*
X647521Y-954647D01*
X645294Y-957549D01*
X640294Y-955851D01*
Y-899929D01*
X645294Y-898935D01*
X646678Y-902277D01*
X663955Y-885000D01*
X646678Y-867723D01*
X645294Y-871065D01*
X640294Y-870071D01*
Y-829410D01*
X645294Y-826854D01*
X650315Y-827853D01*
X705433D01*
X711286Y-826689D01*
X716247Y-823373D01*
X719563Y-818412D01*
X720727Y-812559D01*
Y-757441D01*
X719563Y-751588D01*
X716247Y-746627D01*
X711286Y-743311D01*
X705433Y-742147D01*
X650315D01*
X645294Y-743146D01*
X640294Y-740590D01*
Y-577000D01*
X639130Y-571147D01*
X635814Y-566186D01*
X615814Y-546186D01*
X610853Y-542870D01*
X605000Y-541706D01*
X33000D01*
X27147Y-542870D01*
X22186Y-546186D01*
X19913Y-548458D01*
X15293Y-546545D01*
Y-466000D01*
X1574000D01*
Y-1499000D01*
D02*
G37*
G36*
X2242581Y-1984707D02*
X18000D01*
X18001Y-1536638D01*
X1604999Y-1535698D01*
X1605001Y-347000D01*
X15293Y-347000D01*
Y-15293D01*
X2242581D01*
Y-1984707D01*
D02*
G37*
%LPC*%
G36*
X247953Y-1209524D02*
X233564Y-1211419D01*
X220156Y-1216973D01*
X216518Y-1219764D01*
X247953Y-1251200D01*
X279388Y-1219765D01*
X275750Y-1216973D01*
X262341Y-1211419D01*
X247953Y-1209524D01*
D02*
G37*
G36*
X72000Y-1201919D02*
X64157Y-1209762D01*
X72000Y-1211322D01*
X79843Y-1209762D01*
X72000Y-1201919D01*
D02*
G37*
G36*
X202599Y-1233684D02*
X199807Y-1237321D01*
X194253Y-1250729D01*
X192359Y-1265118D01*
X194253Y-1279507D01*
X199807Y-1292915D01*
X202599Y-1296554D01*
X234034Y-1265119D01*
X202599Y-1233684D01*
D02*
G37*
G36*
X293308Y-1233684D02*
X261873Y-1265119D01*
X293307Y-1296553D01*
X296098Y-1292915D01*
X301652Y-1279507D01*
X303546Y-1265118D01*
X301652Y-1250729D01*
X296098Y-1237321D01*
X293308Y-1233684D01*
D02*
G37*
G36*
X72000Y-1164678D02*
X64157Y-1166238D01*
X72000Y-1174081D01*
X79843Y-1166238D01*
X72000Y-1164678D01*
D02*
G37*
G36*
X541762Y-1180157D02*
X533919Y-1188000D01*
X541762Y-1195843D01*
X543322Y-1188000D01*
X541762Y-1180157D01*
D02*
G37*
G36*
X205762D02*
X197919Y-1188000D01*
X205762Y-1195843D01*
X207322Y-1188000D01*
X205762Y-1180157D01*
D02*
G37*
G36*
X317762D02*
X309919Y-1188000D01*
X317762Y-1195843D01*
X319322Y-1188000D01*
X317762Y-1180157D01*
D02*
G37*
G36*
X184000Y-1164678D02*
X176157Y-1166238D01*
X184000Y-1174081D01*
X191843Y-1166238D01*
X184000Y-1164678D01*
D02*
G37*
G36*
X296000D02*
X288157Y-1166238D01*
X296000Y-1174081D01*
X303843Y-1166238D01*
X296000Y-1164678D01*
D02*
G37*
G36*
X386238Y-1090157D02*
X384678Y-1098000D01*
X386453Y-1106925D01*
X388748Y-1110360D01*
X387109Y-1116906D01*
X384949Y-1118060D01*
X383785Y-1119016D01*
X382456Y-1119726D01*
X372715Y-1127721D01*
X371759Y-1128885D01*
X370595Y-1129841D01*
X362600Y-1139582D01*
X361890Y-1140911D01*
X360934Y-1142075D01*
X354994Y-1153189D01*
X354556Y-1154631D01*
X353846Y-1155959D01*
X350188Y-1168019D01*
X350040Y-1169518D01*
X349603Y-1170959D01*
X348368Y-1183501D01*
X348442Y-1184256D01*
X348294Y-1185000D01*
X348442Y-1185744D01*
X348368Y-1186499D01*
X349603Y-1199041D01*
X350040Y-1200482D01*
X350188Y-1201981D01*
X353846Y-1214041D01*
X354556Y-1215370D01*
X354994Y-1216811D01*
X360934Y-1227925D01*
X361890Y-1229090D01*
X362600Y-1230418D01*
X370595Y-1240159D01*
X371759Y-1241115D01*
X372715Y-1242279D01*
X382456Y-1250274D01*
X383785Y-1250985D01*
X384949Y-1251940D01*
X396063Y-1257880D01*
X397505Y-1258318D01*
X398833Y-1259028D01*
X410893Y-1262686D01*
X412392Y-1262834D01*
X413834Y-1263271D01*
X426375Y-1264506D01*
X427874Y-1264359D01*
X429373Y-1264506D01*
X441915Y-1263271D01*
X443356Y-1262834D01*
X444855Y-1262686D01*
X456915Y-1259028D01*
X458244Y-1258318D01*
X459685Y-1257880D01*
X470799Y-1251940D01*
X471964Y-1250984D01*
X473292Y-1250274D01*
X483034Y-1242279D01*
X483989Y-1241115D01*
X485154Y-1240159D01*
X493148Y-1230418D01*
X493859Y-1229089D01*
X494814Y-1227925D01*
X500755Y-1216811D01*
X501192Y-1215369D01*
X501902Y-1214041D01*
X503363Y-1209224D01*
X508071Y-1207540D01*
X511075Y-1209547D01*
X520000Y-1211322D01*
X527843Y-1209762D01*
X513040Y-1194960D01*
X520000Y-1188000D01*
X513040Y-1181040D01*
X527843Y-1166238D01*
X520000Y-1164678D01*
X511075Y-1166453D01*
X510305Y-1166967D01*
X504578Y-1164781D01*
X501902Y-1155959D01*
X501192Y-1154630D01*
X500755Y-1153189D01*
X494814Y-1142075D01*
X493858Y-1140910D01*
X493148Y-1139582D01*
X485154Y-1129841D01*
X483989Y-1128885D01*
X483034Y-1127721D01*
X473292Y-1119726D01*
X471963Y-1119015D01*
X470799Y-1118060D01*
X459685Y-1112120D01*
X458243Y-1111682D01*
X456915Y-1110972D01*
X444855Y-1107314D01*
X443356Y-1107166D01*
X441915Y-1106729D01*
X433527Y-1105903D01*
X430549Y-1101887D01*
X431322Y-1098000D01*
X429762Y-1090157D01*
X414960Y-1104960D01*
X408000Y-1098000D01*
X401040Y-1104960D01*
X386238Y-1090157D01*
D02*
G37*
G36*
X184000Y-1201919D02*
X176157Y-1209762D01*
X184000Y-1211322D01*
X191843Y-1209762D01*
X184000Y-1201919D01*
D02*
G37*
G36*
X296000D02*
X288157Y-1209762D01*
X296000Y-1211322D01*
X303843Y-1209762D01*
X296000Y-1201919D01*
D02*
G37*
G36*
X274238Y-1180157D02*
X272678Y-1188000D01*
X274238Y-1195843D01*
X282081Y-1188000D01*
X274238Y-1180157D01*
D02*
G37*
G36*
X93762D02*
X85919Y-1188000D01*
X93762Y-1195843D01*
X95322Y-1188000D01*
X93762Y-1180157D01*
D02*
G37*
G36*
X162238D02*
X160678Y-1188000D01*
X162238Y-1195843D01*
X170081Y-1188000D01*
X162238Y-1180157D01*
D02*
G37*
G36*
X50238D02*
X48678Y-1188000D01*
X50238Y-1195843D01*
X58081Y-1188000D01*
X50238Y-1180157D01*
D02*
G37*
G36*
X408000Y-1307678D02*
X400157Y-1309238D01*
X408000Y-1317081D01*
X415843Y-1309238D01*
X408000Y-1307678D01*
D02*
G37*
G36*
X72000Y-1344919D02*
X64157Y-1352762D01*
X72000Y-1354322D01*
X79843Y-1352762D01*
X72000Y-1344919D01*
D02*
G37*
G36*
X184000D02*
X176157Y-1352762D01*
X184000Y-1354322D01*
X191843Y-1352762D01*
X184000Y-1344919D01*
D02*
G37*
G36*
X72000Y-1307678D02*
X64157Y-1309238D01*
X72000Y-1317081D01*
X79843Y-1309238D01*
X72000Y-1307678D01*
D02*
G37*
G36*
X184000D02*
X176157Y-1309238D01*
X184000Y-1317081D01*
X191843Y-1309238D01*
X184000Y-1307678D01*
D02*
G37*
G36*
X568636Y-1300672D02*
X521364D01*
X545000Y-1324309D01*
X568636Y-1300672D01*
D02*
G37*
G36*
X247953Y-1279038D02*
X216519Y-1310473D01*
X220156Y-1313264D01*
X233564Y-1318818D01*
X247953Y-1320712D01*
X262341Y-1318818D01*
X275750Y-1313264D01*
X279387Y-1310472D01*
X247953Y-1279038D01*
D02*
G37*
G36*
X429762Y-1323157D02*
X421919Y-1331000D01*
X429762Y-1338843D01*
X431322Y-1331000D01*
X429762Y-1323157D01*
D02*
G37*
G36*
X408000Y-1344919D02*
X400157Y-1352762D01*
X408000Y-1354322D01*
X415843Y-1352762D01*
X408000Y-1344919D01*
D02*
G37*
G36*
X50238Y-1323157D02*
X48678Y-1331000D01*
X50238Y-1338843D01*
X58081Y-1331000D01*
X50238Y-1323157D01*
D02*
G37*
G36*
X93762D02*
X85919Y-1331000D01*
X93762Y-1338843D01*
X95322Y-1331000D01*
X93762Y-1323157D01*
D02*
G37*
G36*
X205762D02*
X197919Y-1331000D01*
X205762Y-1338843D01*
X207322Y-1331000D01*
X205762Y-1323157D01*
D02*
G37*
G36*
X162238D02*
X160678Y-1331000D01*
X162238Y-1338843D01*
X170081Y-1331000D01*
X162238Y-1323157D01*
D02*
G37*
G36*
X386238D02*
X384678Y-1331000D01*
X386238Y-1338843D01*
X394081Y-1331000D01*
X386238Y-1323157D01*
D02*
G37*
G36*
X274238Y-910157D02*
X272678Y-918000D01*
X274238Y-925843D01*
X282081Y-918000D01*
X274238Y-910157D01*
D02*
G37*
G36*
X386238D02*
X384678Y-918000D01*
X386238Y-925843D01*
X394081Y-918000D01*
X386238Y-910157D01*
D02*
G37*
G36*
X50238D02*
X48678Y-918000D01*
X50238Y-925843D01*
X58081Y-918000D01*
X50238Y-910157D01*
D02*
G37*
G36*
X520000Y-931919D02*
X512157Y-939762D01*
X520000Y-941322D01*
X527843Y-939762D01*
X520000Y-931919D01*
D02*
G37*
G36*
X317762Y-910157D02*
X309919Y-918000D01*
X317762Y-925843D01*
X319322Y-918000D01*
X317762Y-910157D01*
D02*
G37*
G36*
X429762D02*
X421919Y-918000D01*
X429762Y-925843D01*
X431322Y-918000D01*
X429762Y-910157D01*
D02*
G37*
G36*
X205762D02*
X197919Y-918000D01*
X205762Y-925843D01*
X207322Y-918000D01*
X205762Y-910157D01*
D02*
G37*
G36*
X498238D02*
X496678Y-918000D01*
X498238Y-925843D01*
X506081Y-918000D01*
X498238Y-910157D01*
D02*
G37*
G36*
X162238D02*
X160678Y-918000D01*
X162238Y-925843D01*
X170081Y-918000D01*
X162238Y-910157D01*
D02*
G37*
G36*
X520000Y-984678D02*
X512157Y-986238D01*
X520000Y-994081D01*
X527843Y-986238D01*
X520000Y-984678D01*
D02*
G37*
G36*
X408000D02*
X400157Y-986238D01*
X408000Y-994081D01*
X415843Y-986238D01*
X408000Y-984678D01*
D02*
G37*
G36*
X184000D02*
X176157Y-986238D01*
X184000Y-994081D01*
X191843Y-986238D01*
X184000Y-984678D01*
D02*
G37*
G36*
X296000D02*
X288157Y-986238D01*
X296000Y-994081D01*
X303843Y-986238D01*
X296000Y-984678D01*
D02*
G37*
G36*
Y-931919D02*
X288157Y-939762D01*
X296000Y-941322D01*
X303843Y-939762D01*
X296000Y-931919D01*
D02*
G37*
G36*
X408000D02*
X400157Y-939762D01*
X408000Y-941322D01*
X415843Y-939762D01*
X408000Y-931919D01*
D02*
G37*
G36*
X184000D02*
X176157Y-939762D01*
X184000Y-941322D01*
X191843Y-939762D01*
X184000Y-931919D01*
D02*
G37*
G36*
X72000D02*
X64157Y-939762D01*
X72000Y-941322D01*
X79843Y-939762D01*
X72000Y-931919D01*
D02*
G37*
G36*
X520000Y-894678D02*
X512157Y-896238D01*
X520000Y-904081D01*
X527843Y-896238D01*
X520000Y-894678D01*
D02*
G37*
G36*
X408000D02*
X400157Y-896238D01*
X408000Y-904081D01*
X415843Y-896238D01*
X408000Y-894678D01*
D02*
G37*
G36*
X184000D02*
X176157Y-896238D01*
X184000Y-904081D01*
X191843Y-896238D01*
X184000Y-894678D01*
D02*
G37*
G36*
X296000D02*
X288157Y-896238D01*
X296000Y-904081D01*
X303843Y-896238D01*
X296000Y-894678D01*
D02*
G37*
G36*
X541762Y-910157D02*
X533919Y-918000D01*
X541762Y-925843D01*
X543322Y-918000D01*
X541762Y-910157D01*
D02*
G37*
G36*
X93762D02*
X85919Y-918000D01*
X93762Y-925843D01*
X95322Y-918000D01*
X93762Y-910157D01*
D02*
G37*
G36*
X72000Y-894678D02*
X64157Y-896238D01*
X72000Y-904081D01*
X79843Y-896238D01*
X72000Y-894678D01*
D02*
G37*
G36*
Y-1074678D02*
X64157Y-1076238D01*
X72000Y-1084081D01*
X79843Y-1076238D01*
X72000Y-1074678D01*
D02*
G37*
G36*
X184000D02*
X176157Y-1076238D01*
X184000Y-1084081D01*
X191843Y-1076238D01*
X184000Y-1074678D01*
D02*
G37*
G36*
X541762Y-1090157D02*
X533919Y-1098000D01*
X541762Y-1105843D01*
X543322Y-1098000D01*
X541762Y-1090157D01*
D02*
G37*
G36*
X205762D02*
X197919Y-1098000D01*
X205762Y-1105843D01*
X207322Y-1098000D01*
X205762Y-1090157D01*
D02*
G37*
G36*
X317762D02*
X309919Y-1098000D01*
X317762Y-1105843D01*
X319322Y-1098000D01*
X317762Y-1090157D01*
D02*
G37*
G36*
X520000Y-1074678D02*
X512157Y-1076238D01*
X520000Y-1084081D01*
X527843Y-1076238D01*
X520000Y-1074678D01*
D02*
G37*
G36*
X296000D02*
X288157Y-1076238D01*
X296000Y-1084081D01*
X303843Y-1076238D01*
X296000Y-1074678D01*
D02*
G37*
G36*
X408000D02*
X400157Y-1076238D01*
X408000Y-1084081D01*
X415843Y-1076238D01*
X408000Y-1074678D01*
D02*
G37*
G36*
X520000Y-1111919D02*
X512157Y-1119762D01*
X520000Y-1121322D01*
X527843Y-1119762D01*
X520000Y-1111919D01*
D02*
G37*
G36*
X296000D02*
X288157Y-1119762D01*
X296000Y-1121322D01*
X303843Y-1119762D01*
X296000Y-1111919D01*
D02*
G37*
G36*
X72000D02*
X64157Y-1119762D01*
X72000Y-1121322D01*
X79843Y-1119762D01*
X72000Y-1111919D01*
D02*
G37*
G36*
X184000D02*
X176157Y-1119762D01*
X184000Y-1121322D01*
X191843Y-1119762D01*
X184000Y-1111919D01*
D02*
G37*
G36*
X498238Y-1090157D02*
X496678Y-1098000D01*
X498238Y-1105843D01*
X506081Y-1098000D01*
X498238Y-1090157D01*
D02*
G37*
G36*
X93762D02*
X85919Y-1098000D01*
X93762Y-1105843D01*
X95322Y-1098000D01*
X93762Y-1090157D01*
D02*
G37*
G36*
X274238D02*
X272678Y-1098000D01*
X274238Y-1105843D01*
X282081Y-1098000D01*
X274238Y-1090157D01*
D02*
G37*
G36*
X50238D02*
X48678Y-1098000D01*
X50238Y-1105843D01*
X58081Y-1098000D01*
X50238Y-1090157D01*
D02*
G37*
G36*
X162238D02*
X160678Y-1098000D01*
X162238Y-1105843D01*
X170081Y-1098000D01*
X162238Y-1090157D01*
D02*
G37*
G36*
X205762Y-1000157D02*
X197919Y-1008000D01*
X205762Y-1015843D01*
X207322Y-1008000D01*
X205762Y-1000157D01*
D02*
G37*
G36*
X317762D02*
X309919Y-1008000D01*
X317762Y-1015843D01*
X319322Y-1008000D01*
X317762Y-1000157D01*
D02*
G37*
G36*
X93762D02*
X85919Y-1008000D01*
X93762Y-1015843D01*
X95322Y-1008000D01*
X93762Y-1000157D01*
D02*
G37*
G36*
X274238D02*
X272678Y-1008000D01*
X274238Y-1015843D01*
X282081Y-1008000D01*
X274238Y-1000157D01*
D02*
G37*
G36*
X386238D02*
X384678Y-1008000D01*
X386238Y-1015843D01*
X394081Y-1008000D01*
X386238Y-1000157D01*
D02*
G37*
G36*
X72000Y-984678D02*
X64157Y-986238D01*
X72000Y-994081D01*
X79843Y-986238D01*
X72000Y-984678D01*
D02*
G37*
G36*
X429762Y-1000157D02*
X421919Y-1008000D01*
X429762Y-1015843D01*
X431322Y-1008000D01*
X429762Y-1000157D01*
D02*
G37*
G36*
X541762D02*
X533919Y-1008000D01*
X541762Y-1015843D01*
X543322Y-1008000D01*
X541762Y-1000157D01*
D02*
G37*
G36*
X184000Y-1021919D02*
X176157Y-1029762D01*
X184000Y-1031322D01*
X191843Y-1029762D01*
X184000Y-1021919D01*
D02*
G37*
G36*
X296000D02*
X288157Y-1029762D01*
X296000Y-1031322D01*
X303843Y-1029762D01*
X296000Y-1021919D01*
D02*
G37*
G36*
X72000D02*
X64157Y-1029762D01*
X72000Y-1031322D01*
X79843Y-1029762D01*
X72000Y-1021919D01*
D02*
G37*
G36*
X50238Y-1000157D02*
X48678Y-1008000D01*
X50238Y-1015843D01*
X58081Y-1008000D01*
X50238Y-1000157D01*
D02*
G37*
G36*
X162238D02*
X160678Y-1008000D01*
X162238Y-1015843D01*
X170081Y-1008000D01*
X162238Y-1000157D01*
D02*
G37*
G36*
X498238D02*
X496678Y-1008000D01*
X498238Y-1015843D01*
X506081Y-1008000D01*
X498238Y-1000157D01*
D02*
G37*
G36*
X408000Y-1021919D02*
X400157Y-1029762D01*
X408000Y-1031322D01*
X415843Y-1029762D01*
X408000Y-1021919D01*
D02*
G37*
G36*
X520000D02*
X512157Y-1029762D01*
X520000Y-1031322D01*
X527843Y-1029762D01*
X520000Y-1021919D01*
D02*
G37*
G36*
X541762Y-730157D02*
X533919Y-738000D01*
X541762Y-745843D01*
X543322Y-738000D01*
X541762Y-730157D01*
D02*
G37*
G36*
X72000Y-714678D02*
X64157Y-716238D01*
X72000Y-724081D01*
X79843Y-716238D01*
X72000Y-714678D01*
D02*
G37*
G36*
X205762Y-730157D02*
X197919Y-738000D01*
X205762Y-745843D01*
X207322Y-738000D01*
X205762Y-730157D01*
D02*
G37*
G36*
X317762D02*
X309919Y-738000D01*
X317762Y-745843D01*
X319322Y-738000D01*
X317762Y-730157D01*
D02*
G37*
G36*
X184000Y-714678D02*
X176157Y-716238D01*
X184000Y-724081D01*
X191843Y-716238D01*
X184000Y-714678D01*
D02*
G37*
G36*
X296000D02*
X288157Y-716238D01*
X296000Y-724081D01*
X303843Y-716238D01*
X296000Y-714678D01*
D02*
G37*
G36*
X93762Y-730157D02*
X85919Y-738000D01*
X93762Y-745843D01*
X95322Y-738000D01*
X93762Y-730157D01*
D02*
G37*
G36*
X296000Y-751919D02*
X288157Y-759762D01*
X296000Y-761322D01*
X303843Y-759762D01*
X296000Y-751919D01*
D02*
G37*
G36*
X72000D02*
X64157Y-759762D01*
X72000Y-761322D01*
X79843Y-759762D01*
X72000Y-751919D01*
D02*
G37*
G36*
X184000D02*
X176157Y-759762D01*
X184000Y-761322D01*
X191843Y-759762D01*
X184000Y-751919D01*
D02*
G37*
G36*
X50238Y-730157D02*
X48678Y-738000D01*
X50238Y-745843D01*
X58081Y-738000D01*
X50238Y-730157D01*
D02*
G37*
G36*
X274238D02*
X272678Y-738000D01*
X274238Y-745843D01*
X282081Y-738000D01*
X274238Y-730157D01*
D02*
G37*
G36*
X162238D02*
X160678Y-738000D01*
X162238Y-745843D01*
X170081Y-738000D01*
X162238Y-730157D01*
D02*
G37*
G36*
X247953Y-668802D02*
X216518Y-700236D01*
X220156Y-703028D01*
X233564Y-708581D01*
X247953Y-710476D01*
X262341Y-708581D01*
X275750Y-703028D01*
X279387Y-700236D01*
X247953Y-668802D01*
D02*
G37*
G36*
X72000Y-661919D02*
X64157Y-669762D01*
X72000Y-671322D01*
X79843Y-669762D01*
X72000Y-661919D01*
D02*
G37*
G36*
X520000D02*
X512157Y-669762D01*
X520000Y-671322D01*
X527843Y-669762D01*
X520000Y-661919D01*
D02*
G37*
G36*
X50238Y-640157D02*
X48678Y-648000D01*
X50238Y-655843D01*
X58081Y-648000D01*
X50238Y-640157D01*
D02*
G37*
G36*
X72000Y-841919D02*
X64157Y-849762D01*
X72000Y-851322D01*
X79843Y-849762D01*
X72000Y-841919D01*
D02*
G37*
G36*
X202599Y-623447D02*
X199807Y-627085D01*
X194253Y-640493D01*
X192359Y-654882D01*
X194253Y-669271D01*
X199807Y-682679D01*
X202599Y-686317D01*
X234033Y-654882D01*
X202599Y-623447D01*
D02*
G37*
G36*
X293307Y-623447D02*
X261872Y-654882D01*
X293307Y-686317D01*
X296098Y-682679D01*
X301652Y-669271D01*
X303546Y-654882D01*
X301652Y-640493D01*
X296098Y-627085D01*
X293307Y-623447D01*
D02*
G37*
G36*
X296000Y-841919D02*
X288157Y-849762D01*
X296000Y-851322D01*
X303843Y-849762D01*
X296000Y-841919D01*
D02*
G37*
G36*
X93762Y-820157D02*
X85919Y-828000D01*
X93762Y-835843D01*
X95322Y-828000D01*
X93762Y-820157D01*
D02*
G37*
G36*
X162238D02*
X160678Y-828000D01*
X162238Y-835843D01*
X170081Y-828000D01*
X162238Y-820157D01*
D02*
G37*
G36*
X274238D02*
X272678Y-828000D01*
X274238Y-835843D01*
X282081Y-828000D01*
X274238Y-820157D01*
D02*
G37*
G36*
X205762D02*
X197919Y-828000D01*
X205762Y-835843D01*
X207322Y-828000D01*
X205762Y-820157D01*
D02*
G37*
G36*
X317762D02*
X309919Y-828000D01*
X317762Y-835843D01*
X319322Y-828000D01*
X317762Y-820157D01*
D02*
G37*
G36*
X541762D02*
X533919Y-828000D01*
X541762Y-835843D01*
X543322Y-828000D01*
X541762Y-820157D01*
D02*
G37*
G36*
X50238D02*
X48678Y-828000D01*
X50238Y-835843D01*
X58081Y-828000D01*
X50238Y-820157D01*
D02*
G37*
G36*
X498238D02*
X496678Y-828000D01*
X498238Y-835843D01*
X506081Y-828000D01*
X498238Y-820157D01*
D02*
G37*
G36*
X520000Y-841919D02*
X512157Y-849762D01*
X520000Y-851322D01*
X527843Y-849762D01*
X520000Y-841919D01*
D02*
G37*
G36*
X408000D02*
X400157Y-849762D01*
X408000Y-851322D01*
X415843Y-849762D01*
X408000Y-841919D01*
D02*
G37*
G36*
X184000D02*
X176157Y-849762D01*
X184000Y-851322D01*
X191843Y-849762D01*
X184000Y-841919D01*
D02*
G37*
G36*
X296000Y-804678D02*
X288157Y-806238D01*
X296000Y-814081D01*
X303843Y-806238D01*
X296000Y-804678D01*
D02*
G37*
G36*
X520000D02*
X512157Y-806238D01*
X520000Y-814081D01*
X527843Y-806238D01*
X520000Y-804678D01*
D02*
G37*
G36*
X72000D02*
X64157Y-806238D01*
X72000Y-814081D01*
X79843Y-806238D01*
X72000Y-804678D01*
D02*
G37*
G36*
X184000D02*
X176157Y-806238D01*
X184000Y-814081D01*
X191843Y-806238D01*
X184000Y-804678D01*
D02*
G37*
G36*
X429373Y-655494D02*
X427874Y-655641D01*
X426375Y-655494D01*
X413834Y-656729D01*
X412392Y-657166D01*
X410893Y-657314D01*
X398833Y-660972D01*
X397505Y-661682D01*
X396063Y-662120D01*
X384949Y-668060D01*
X383785Y-669016D01*
X382456Y-669726D01*
X372715Y-677721D01*
X371759Y-678885D01*
X370595Y-679841D01*
X362600Y-689582D01*
X361890Y-690911D01*
X360934Y-692075D01*
X354994Y-703189D01*
X354556Y-704631D01*
X353846Y-705959D01*
X350188Y-718019D01*
X350040Y-719518D01*
X349603Y-720959D01*
X348368Y-733501D01*
X348442Y-734256D01*
X348294Y-735000D01*
X348442Y-735744D01*
X348368Y-736499D01*
X349603Y-749041D01*
X350040Y-750482D01*
X350188Y-751981D01*
X353846Y-764041D01*
X354556Y-765370D01*
X354994Y-766811D01*
X360934Y-777925D01*
X361890Y-779090D01*
X362600Y-780418D01*
X370595Y-790159D01*
X371759Y-791115D01*
X372715Y-792279D01*
X382456Y-800274D01*
X383785Y-800985D01*
X384949Y-801940D01*
X391550Y-805468D01*
X391836Y-811290D01*
X391509Y-811509D01*
X386453Y-819075D01*
X384678Y-828000D01*
X386238Y-835843D01*
X401040Y-821040D01*
X408000Y-828000D01*
X414960Y-821040D01*
X429762Y-835843D01*
X431322Y-828000D01*
X429613Y-819406D01*
X429649Y-818896D01*
X432314Y-814217D01*
X441915Y-813271D01*
X443356Y-812834D01*
X444855Y-812686D01*
X456915Y-809028D01*
X458244Y-808318D01*
X459685Y-807880D01*
X470799Y-801940D01*
X471964Y-800984D01*
X473292Y-800274D01*
X483034Y-792279D01*
X483989Y-791115D01*
X485154Y-790159D01*
X493148Y-780418D01*
X493859Y-779089D01*
X494814Y-777925D01*
X500755Y-766811D01*
X501192Y-765369D01*
X501902Y-764041D01*
X503363Y-759224D01*
X508071Y-757539D01*
X511075Y-759547D01*
X520000Y-761322D01*
X527843Y-759762D01*
X513040Y-744960D01*
X520000Y-738000D01*
X513040Y-731040D01*
X527843Y-716238D01*
X520000Y-714678D01*
X511075Y-716453D01*
X510305Y-716967D01*
X504578Y-714781D01*
X501902Y-705959D01*
X501192Y-704630D01*
X500755Y-703189D01*
X494814Y-692075D01*
X493858Y-690910D01*
X493148Y-689582D01*
X485154Y-679841D01*
X483989Y-678885D01*
X483034Y-677721D01*
X473292Y-669726D01*
X471963Y-669015D01*
X470799Y-668060D01*
X459685Y-662120D01*
X458243Y-661682D01*
X456915Y-660972D01*
X444855Y-657314D01*
X443356Y-657166D01*
X441915Y-656729D01*
X429373Y-655494D01*
D02*
G37*
G36*
X93762Y-640157D02*
X85919Y-648000D01*
X93762Y-655843D01*
X95322Y-648000D01*
X93762Y-640157D01*
D02*
G37*
G36*
X541762D02*
X533919Y-648000D01*
X541762Y-655843D01*
X543322Y-648000D01*
X541762Y-640157D01*
D02*
G37*
G36*
X247953Y-599288D02*
X233564Y-601183D01*
X220156Y-606736D01*
X216518Y-609528D01*
X247953Y-640963D01*
X279388Y-609528D01*
X275750Y-606736D01*
X262341Y-601183D01*
X247953Y-599288D01*
D02*
G37*
G36*
X72000Y-624678D02*
X64157Y-626238D01*
X72000Y-634081D01*
X79843Y-626238D01*
X72000Y-624678D01*
D02*
G37*
G36*
X520000D02*
X512157Y-626238D01*
X520000Y-634081D01*
X527843Y-626238D01*
X520000Y-624678D01*
D02*
G37*
G36*
X498238Y-640157D02*
X496678Y-648000D01*
X498238Y-655843D01*
X506081Y-648000D01*
X498238Y-640157D01*
D02*
G37*
G36*
X942238Y-1231157D02*
X940678Y-1239000D01*
X942238Y-1246843D01*
X950081Y-1239000D01*
X942238Y-1231157D01*
D02*
G37*
G36*
X985762D02*
X977919Y-1239000D01*
X985762Y-1246843D01*
X987322Y-1239000D01*
X985762Y-1231157D01*
D02*
G37*
G36*
X677875Y-1210920D02*
X670032Y-1218762D01*
X677875Y-1220322D01*
X685717Y-1218762D01*
X677875Y-1210920D01*
D02*
G37*
G36*
X964000Y-1215678D02*
X956157Y-1217238D01*
X964000Y-1225081D01*
X971843Y-1217238D01*
X964000Y-1215678D01*
D02*
G37*
G36*
X1528000Y-1304678D02*
X1520157Y-1306238D01*
X1528000Y-1314081D01*
X1535843Y-1306238D01*
X1528000Y-1304678D01*
D02*
G37*
G36*
X968000D02*
X960157Y-1306238D01*
X968000Y-1314081D01*
X975843Y-1306238D01*
X968000Y-1304678D01*
D02*
G37*
G36*
X656112Y-1301158D02*
X654553Y-1309000D01*
X656112Y-1316843D01*
X663955Y-1309000D01*
X656112Y-1301158D01*
D02*
G37*
G36*
X699637D02*
X691794Y-1309000D01*
X699637Y-1316843D01*
X701197Y-1309000D01*
X699637Y-1301158D01*
D02*
G37*
G36*
X964000Y-1252919D02*
X956157Y-1260762D01*
X964000Y-1262322D01*
X971843Y-1260762D01*
X964000Y-1252919D01*
D02*
G37*
G36*
X677875Y-1285678D02*
X670032Y-1287238D01*
X677875Y-1295081D01*
X685717Y-1287238D01*
X677875Y-1285678D01*
D02*
G37*
G36*
Y-1173678D02*
X670032Y-1175238D01*
X677875Y-1183081D01*
X685717Y-1175238D01*
X677875Y-1173678D01*
D02*
G37*
G36*
X1530000Y-1107706D02*
X1300000D01*
X1294147Y-1108870D01*
X1289186Y-1112186D01*
X1285870Y-1117147D01*
X1284706Y-1123000D01*
Y-1201377D01*
X1279706Y-1205480D01*
X1278189Y-1205179D01*
X1223071D01*
X1217218Y-1206343D01*
X1212256Y-1209658D01*
X1208941Y-1214620D01*
X1207777Y-1220473D01*
Y-1279527D01*
X1208941Y-1285380D01*
X1212256Y-1290342D01*
X1217218Y-1293657D01*
X1217849Y-1293783D01*
Y-1308552D01*
X1216194Y-1309658D01*
X1212878Y-1314620D01*
X1211714Y-1320473D01*
Y-1379527D01*
X1212878Y-1385380D01*
X1216194Y-1390342D01*
X1221155Y-1393657D01*
X1227008Y-1394821D01*
X1278189D01*
X1284042Y-1393657D01*
X1289003Y-1390342D01*
X1291278Y-1386937D01*
X1294801Y-1385680D01*
X1297297Y-1385981D01*
X1298739Y-1386945D01*
X1301811Y-1387556D01*
X1347100D01*
X1320441Y-1360897D01*
X1331338Y-1350000D01*
X1320441Y-1339103D01*
X1347101Y-1312444D01*
X1301811D01*
X1298739Y-1313055D01*
X1297297Y-1314019D01*
X1294801Y-1314320D01*
X1291278Y-1313063D01*
X1289003Y-1309658D01*
X1284042Y-1306343D01*
X1283410Y-1306217D01*
Y-1293783D01*
X1284042Y-1293657D01*
X1288911Y-1290403D01*
X1289186Y-1290814D01*
X1294147Y-1294130D01*
X1300000Y-1295294D01*
X1400476D01*
Y-1343637D01*
X1431071Y-1313041D01*
X1440000Y-1321969D01*
X1448928Y-1313041D01*
X1479524Y-1343638D01*
Y-1295294D01*
X1530000D01*
X1535853Y-1294130D01*
X1540814Y-1290814D01*
X1544130Y-1285853D01*
X1545294Y-1280000D01*
Y-1123000D01*
X1544130Y-1117147D01*
X1540814Y-1112186D01*
X1535853Y-1108870D01*
X1530000Y-1107706D01*
D02*
G37*
G36*
X656112Y-1189158D02*
X654553Y-1197000D01*
X656112Y-1204843D01*
X663955Y-1197000D01*
X656112Y-1189158D01*
D02*
G37*
G36*
X699637D02*
X691794Y-1197000D01*
X699637Y-1204843D01*
X701197Y-1197000D01*
X699637Y-1189158D01*
D02*
G37*
G36*
X1361020Y-1326363D02*
X1337383Y-1350000D01*
X1361020Y-1373637D01*
Y-1326363D01*
D02*
G37*
G36*
X1416000Y-1416678D02*
X1408157Y-1418238D01*
X1416000Y-1426081D01*
X1423843Y-1418238D01*
X1416000Y-1416678D01*
D02*
G37*
G36*
X1528000D02*
X1520157Y-1418238D01*
X1528000Y-1426081D01*
X1535843Y-1418238D01*
X1528000Y-1416678D01*
D02*
G37*
G36*
X1440000Y-1331952D02*
X1414396Y-1357556D01*
X1465604D01*
X1440000Y-1331952D01*
D02*
G37*
G36*
X1192000Y-1416678D02*
X1184157Y-1418238D01*
X1192000Y-1426081D01*
X1199843Y-1418238D01*
X1192000Y-1416678D01*
D02*
G37*
G36*
X1549762Y-1432157D02*
X1541919Y-1440000D01*
X1549762Y-1447843D01*
X1551322Y-1440000D01*
X1549762Y-1432157D01*
D02*
G37*
G36*
X72000Y-1416678D02*
X64157Y-1418238D01*
X72000Y-1426081D01*
X79843Y-1418238D01*
X72000Y-1416678D01*
D02*
G37*
G36*
X1213762Y-1432157D02*
X1205919Y-1440000D01*
X1213762Y-1447843D01*
X1215322Y-1440000D01*
X1213762Y-1432157D01*
D02*
G37*
G36*
X1437762D02*
X1429919Y-1440000D01*
X1437762Y-1447843D01*
X1439322Y-1440000D01*
X1437762Y-1432157D01*
D02*
G37*
G36*
X184000Y-1416678D02*
X176157Y-1418238D01*
X184000Y-1426081D01*
X191843Y-1418238D01*
X184000Y-1416678D01*
D02*
G37*
G36*
X632000D02*
X624157Y-1418238D01*
X632000Y-1426081D01*
X639843Y-1418238D01*
X632000Y-1416678D01*
D02*
G37*
G36*
X968000D02*
X960157Y-1418238D01*
X968000Y-1426081D01*
X975843Y-1418238D01*
X968000Y-1416678D01*
D02*
G37*
G36*
X296000D02*
X288157Y-1418238D01*
X296000Y-1426081D01*
X303843Y-1418238D01*
X296000Y-1416678D01*
D02*
G37*
G36*
X408000D02*
X400157Y-1418238D01*
X408000Y-1426081D01*
X415843Y-1418238D01*
X408000Y-1416678D01*
D02*
G37*
G36*
X989762Y-1320157D02*
X981919Y-1328000D01*
X989762Y-1335843D01*
X991322Y-1328000D01*
X989762Y-1320157D01*
D02*
G37*
G36*
X1549762D02*
X1541919Y-1328000D01*
X1549762Y-1335843D01*
X1551322Y-1328000D01*
X1549762Y-1320157D01*
D02*
G37*
G36*
X946238D02*
X944678Y-1328000D01*
X946238Y-1335843D01*
X954081Y-1328000D01*
X946238Y-1320157D01*
D02*
G37*
G36*
X1506238D02*
X1504678Y-1328000D01*
X1506238Y-1335843D01*
X1514081Y-1328000D01*
X1506238Y-1320157D01*
D02*
G37*
G36*
X677875Y-1322920D02*
X670032Y-1330762D01*
X677875Y-1332322D01*
X685717Y-1330762D01*
X677875Y-1322920D01*
D02*
G37*
G36*
X1528000Y-1341919D02*
X1520157Y-1349762D01*
X1528000Y-1351322D01*
X1535843Y-1349762D01*
X1528000Y-1341919D01*
D02*
G37*
G36*
X968000D02*
X960157Y-1349762D01*
X968000Y-1351322D01*
X975843Y-1349762D01*
X968000Y-1341919D01*
D02*
G37*
G36*
X777874Y-892074D02*
X766764Y-893537D01*
X756411Y-897825D01*
X747521Y-904647D01*
X740699Y-913537D01*
X736411Y-923890D01*
X734948Y-935000D01*
X736411Y-946110D01*
X740699Y-956463D01*
X747521Y-965353D01*
X756411Y-972175D01*
X766764Y-976463D01*
X777874Y-977926D01*
X788984Y-976463D01*
X799337Y-972175D01*
X808227Y-965353D01*
X815049Y-956463D01*
X819338Y-946110D01*
X820800Y-935000D01*
X819338Y-923890D01*
X815049Y-913537D01*
X808227Y-904647D01*
X799337Y-897825D01*
X788984Y-893537D01*
X777874Y-892074D01*
D02*
G37*
G36*
X709070Y-867724D02*
X691794Y-885000D01*
X709070Y-902277D01*
X712395Y-894250D01*
X713613Y-885000D01*
X712395Y-875750D01*
X709070Y-867724D01*
D02*
G37*
G36*
X677874Y-849261D02*
X668624Y-850479D01*
X660597Y-853804D01*
X677875Y-871081D01*
X695151Y-853804D01*
X687124Y-850479D01*
X677874Y-849261D01*
D02*
G37*
G36*
X1490236Y-815915D02*
X1403622D01*
X1395144Y-817602D01*
X1410582Y-833040D01*
X1403623Y-840000D01*
X1410582Y-846960D01*
X1395144Y-862398D01*
X1403622Y-864085D01*
X1490236D01*
X1498716Y-862398D01*
X1483277Y-846960D01*
X1490237Y-840000D01*
X1483277Y-833040D01*
X1498716Y-817602D01*
X1490236Y-815915D01*
D02*
G37*
G36*
X777874Y-792074D02*
X766764Y-793537D01*
X756411Y-797825D01*
X747521Y-804647D01*
X740699Y-813537D01*
X736411Y-823890D01*
X734948Y-835000D01*
X736411Y-846110D01*
X740699Y-856463D01*
X747521Y-865353D01*
X756411Y-872175D01*
X766764Y-876463D01*
X777874Y-877926D01*
X788984Y-876463D01*
X799337Y-872175D01*
X808227Y-865353D01*
X815049Y-856463D01*
X819338Y-846110D01*
X820800Y-835000D01*
X819338Y-823890D01*
X815049Y-813537D01*
X808227Y-804647D01*
X799337Y-797825D01*
X788984Y-793537D01*
X777874Y-792074D01*
D02*
G37*
G36*
X927000Y-874678D02*
X919157Y-876238D01*
X927000Y-884081D01*
X934843Y-876238D01*
X927000Y-874678D01*
D02*
G37*
G36*
X677875Y-898920D02*
X660598Y-916196D01*
X668624Y-919521D01*
X677874Y-920739D01*
X687124Y-919521D01*
X695151Y-916196D01*
X677875Y-898920D01*
D02*
G37*
G36*
X927000Y-911919D02*
X919157Y-919762D01*
X927000Y-921322D01*
X934843Y-919762D01*
X927000Y-911919D01*
D02*
G37*
G36*
X948762Y-890157D02*
X940919Y-898000D01*
X948762Y-905843D01*
X950322Y-898000D01*
X948762Y-890157D01*
D02*
G37*
G36*
X905238D02*
X903678Y-898000D01*
X905238Y-905843D01*
X913081Y-898000D01*
X905238Y-890157D01*
D02*
G37*
G36*
X677875Y-1098920D02*
X660598Y-1116196D01*
X668624Y-1119521D01*
X677874Y-1120739D01*
X687124Y-1119521D01*
X695151Y-1116196D01*
X677875Y-1098920D01*
D02*
G37*
G36*
X885043Y-964396D02*
Y-1015606D01*
X910648Y-990001D01*
X885043Y-964396D01*
D02*
G37*
G36*
X296000Y-1453919D02*
X288157Y-1461762D01*
X296000Y-1463322D01*
X303843Y-1461762D01*
X296000Y-1453919D01*
D02*
G37*
G36*
X408000D02*
X400157Y-1461762D01*
X408000Y-1463322D01*
X415843Y-1461762D01*
X408000Y-1453919D01*
D02*
G37*
G36*
X184000D02*
X176157Y-1461762D01*
X184000Y-1463322D01*
X191843Y-1461762D01*
X184000Y-1453919D01*
D02*
G37*
G36*
X72000D02*
X64157Y-1461762D01*
X72000Y-1463322D01*
X79843Y-1461762D01*
X72000Y-1453919D01*
D02*
G37*
G36*
X1416000D02*
X1408157Y-1461762D01*
X1416000Y-1463322D01*
X1423843Y-1461762D01*
X1416000Y-1453919D01*
D02*
G37*
G36*
X1528000D02*
X1520157Y-1461762D01*
X1528000Y-1463322D01*
X1535843Y-1461762D01*
X1528000Y-1453919D01*
D02*
G37*
G36*
X1192000D02*
X1184157Y-1461762D01*
X1192000Y-1463322D01*
X1199843Y-1461762D01*
X1192000Y-1453919D01*
D02*
G37*
G36*
X632000D02*
X624157Y-1461762D01*
X632000Y-1463322D01*
X639843Y-1461762D01*
X632000Y-1453919D01*
D02*
G37*
G36*
X968000D02*
X960157Y-1461762D01*
X968000Y-1463322D01*
X975843Y-1461762D01*
X968000Y-1453919D01*
D02*
G37*
G36*
X1506238Y-1432157D02*
X1504678Y-1440000D01*
X1506238Y-1447843D01*
X1514081Y-1440000D01*
X1506238Y-1432157D01*
D02*
G37*
G36*
X93762D02*
X85919Y-1440000D01*
X93762Y-1447843D01*
X95322Y-1440000D01*
X93762Y-1432157D01*
D02*
G37*
G36*
X1394238D02*
X1392678Y-1440000D01*
X1394238Y-1447843D01*
X1402081Y-1440000D01*
X1394238Y-1432157D01*
D02*
G37*
G36*
X946238D02*
X944678Y-1440000D01*
X946238Y-1447843D01*
X954081Y-1440000D01*
X946238Y-1432157D01*
D02*
G37*
G36*
X1170238D02*
X1168678Y-1440000D01*
X1170238Y-1447843D01*
X1178081Y-1440000D01*
X1170238Y-1432157D01*
D02*
G37*
G36*
X653762D02*
X645919Y-1440000D01*
X653762Y-1447843D01*
X655322Y-1440000D01*
X653762Y-1432157D01*
D02*
G37*
G36*
X989762D02*
X981919Y-1440000D01*
X989762Y-1447843D01*
X991322Y-1440000D01*
X989762Y-1432157D01*
D02*
G37*
G36*
X429762D02*
X421919Y-1440000D01*
X429762Y-1447843D01*
X431322Y-1440000D01*
X429762Y-1432157D01*
D02*
G37*
G36*
X205762D02*
X197919Y-1440000D01*
X205762Y-1447843D01*
X207322Y-1440000D01*
X205762Y-1432157D01*
D02*
G37*
G36*
X317762D02*
X309919Y-1440000D01*
X317762Y-1447843D01*
X319322Y-1440000D01*
X317762Y-1432157D01*
D02*
G37*
G36*
X780000Y-1424353D02*
X754396Y-1449957D01*
X805604D01*
X780000Y-1424353D01*
D02*
G37*
G36*
X880000D02*
X854396Y-1449957D01*
X905604D01*
X880000Y-1424353D01*
D02*
G37*
G36*
X545000Y-1426952D02*
X521364Y-1450587D01*
X568635D01*
X545000Y-1426952D01*
D02*
G37*
G36*
X386238Y-1432157D02*
X384678Y-1440000D01*
X386238Y-1447843D01*
X394081Y-1440000D01*
X386238Y-1432157D01*
D02*
G37*
G36*
X610238D02*
X608678Y-1440000D01*
X610238Y-1447843D01*
X618081Y-1440000D01*
X610238Y-1432157D01*
D02*
G37*
G36*
X274238D02*
X272678Y-1440000D01*
X274238Y-1447843D01*
X282081Y-1440000D01*
X274238Y-1432157D01*
D02*
G37*
G36*
X50238D02*
X48678Y-1440000D01*
X50238Y-1447843D01*
X58081Y-1440000D01*
X50238Y-1432157D01*
D02*
G37*
G36*
X162238D02*
X160678Y-1440000D01*
X162238Y-1447843D01*
X170081Y-1440000D01*
X162238Y-1432157D01*
D02*
G37*
G36*
X1080000Y-479678D02*
X1072157Y-481238D01*
X1080000Y-489081D01*
X1087843Y-481238D01*
X1080000Y-479678D01*
D02*
G37*
G36*
X1192000D02*
X1184157Y-481238D01*
X1192000Y-489081D01*
X1199843Y-481238D01*
X1192000Y-479678D01*
D02*
G37*
G36*
X968000D02*
X960157Y-481238D01*
X968000Y-489081D01*
X975843Y-481238D01*
X968000Y-479678D01*
D02*
G37*
G36*
X744000D02*
X736157Y-481238D01*
X744000Y-489081D01*
X751843Y-481238D01*
X744000Y-479678D01*
D02*
G37*
G36*
X856000D02*
X848157Y-481238D01*
X856000Y-489081D01*
X863843Y-481238D01*
X856000Y-479678D01*
D02*
G37*
G36*
X1528000D02*
X1520157Y-481238D01*
X1528000Y-489081D01*
X1535843Y-481238D01*
X1528000Y-479678D01*
D02*
G37*
G36*
X1304000D02*
X1296157Y-481238D01*
X1304000Y-489081D01*
X1311843Y-481238D01*
X1304000Y-479678D01*
D02*
G37*
G36*
X1416000D02*
X1408157Y-481238D01*
X1416000Y-489081D01*
X1423843Y-481238D01*
X1416000Y-479678D01*
D02*
G37*
G36*
X1064252Y-565477D02*
X1051664Y-566716D01*
X1039560Y-570388D01*
X1028405Y-576351D01*
X1018627Y-584375D01*
X1010603Y-594153D01*
X1004640Y-605308D01*
X1000968Y-617412D01*
X999729Y-630000D01*
X1000968Y-642588D01*
X1004640Y-654692D01*
X1010603Y-665847D01*
X1018627Y-675625D01*
X1028405Y-683649D01*
X1039560Y-689612D01*
X1051664Y-693284D01*
X1064252Y-694523D01*
X1076840Y-693284D01*
X1088944Y-689612D01*
X1097263Y-685165D01*
X1102263Y-688162D01*
Y-715179D01*
X1099685D01*
X1093832Y-716343D01*
X1091650Y-717801D01*
X1087874Y-719270D01*
X1084098Y-717801D01*
X1081916Y-716343D01*
X1076063Y-715179D01*
X1020945D01*
X1015092Y-716343D01*
X1010131Y-719658D01*
X1006815Y-724620D01*
X1005651Y-730472D01*
Y-763626D01*
X970387Y-798891D01*
X965979Y-804635D01*
X963208Y-811325D01*
X962263Y-818504D01*
Y-944326D01*
X962021Y-944374D01*
X957060Y-947690D01*
X954838Y-951015D01*
X952126Y-950476D01*
X898962D01*
X929558Y-981072D01*
X920630Y-990001D01*
X929558Y-998929D01*
X898963Y-1029524D01*
X952126D01*
X954838Y-1028985D01*
X957060Y-1032311D01*
X962021Y-1035626D01*
X962263Y-1035674D01*
Y-1151496D01*
X963208Y-1158675D01*
X965979Y-1165365D01*
X970387Y-1171109D01*
X1005651Y-1206374D01*
Y-1239527D01*
X1006815Y-1245380D01*
X1010131Y-1250342D01*
X1015092Y-1253657D01*
X1020945Y-1254821D01*
X1076063D01*
X1081916Y-1253657D01*
X1084098Y-1252199D01*
X1087874Y-1250730D01*
X1091650Y-1252199D01*
X1093832Y-1253657D01*
X1099507Y-1254786D01*
Y-1265519D01*
X1085640Y-1279386D01*
X1076840Y-1276716D01*
X1064252Y-1275477D01*
X1051664Y-1276716D01*
X1039560Y-1280388D01*
X1028405Y-1286351D01*
X1018627Y-1294375D01*
X1010603Y-1304153D01*
X1004640Y-1315308D01*
X1000968Y-1327412D01*
X999729Y-1340000D01*
X1000968Y-1352588D01*
X1004640Y-1364692D01*
X1010603Y-1375847D01*
X1018627Y-1385625D01*
X1028405Y-1393649D01*
X1039560Y-1399612D01*
X1051664Y-1403284D01*
X1064252Y-1404523D01*
X1076840Y-1403284D01*
X1088944Y-1399612D01*
X1100099Y-1393649D01*
X1109877Y-1385625D01*
X1117901Y-1375847D01*
X1123864Y-1364692D01*
X1127535Y-1352588D01*
X1128775Y-1340000D01*
X1127535Y-1327412D01*
X1124866Y-1318612D01*
X1146857Y-1296621D01*
X1151265Y-1290877D01*
X1154036Y-1284187D01*
X1154982Y-1277008D01*
Y-1254786D01*
X1160656Y-1253657D01*
X1165618Y-1250342D01*
X1168933Y-1245380D01*
X1170097Y-1239527D01*
Y-1180473D01*
X1168933Y-1174620D01*
X1165618Y-1169658D01*
X1160656Y-1166343D01*
X1154982Y-1165214D01*
Y-1116841D01*
X1156228Y-1113832D01*
X1157259Y-1106000D01*
X1156228Y-1098168D01*
X1154982Y-1095159D01*
Y-1055139D01*
X1285179D01*
Y-1056929D01*
X1286343Y-1062782D01*
X1289658Y-1067743D01*
X1294620Y-1071059D01*
X1300473Y-1072223D01*
X1359527D01*
X1365380Y-1071059D01*
X1370342Y-1067743D01*
X1370346Y-1067737D01*
X1390237D01*
X1395595Y-1069957D01*
X1403622Y-1071013D01*
X1490236D01*
X1498263Y-1069957D01*
X1505743Y-1066858D01*
X1512166Y-1061930D01*
X1517094Y-1055507D01*
X1520193Y-1048027D01*
X1521249Y-1040000D01*
X1520193Y-1031973D01*
X1517094Y-1024493D01*
X1512166Y-1018070D01*
X1505743Y-1013142D01*
X1498263Y-1010043D01*
X1490236Y-1008987D01*
X1403622D01*
X1395595Y-1010043D01*
X1390237Y-1012263D01*
X1374821D01*
Y-1001811D01*
X1373657Y-995958D01*
X1370342Y-990997D01*
Y-989003D01*
X1373657Y-984042D01*
X1374821Y-978189D01*
Y-967737D01*
X1390237D01*
X1395595Y-969957D01*
X1403622Y-971013D01*
X1490236D01*
X1498263Y-969957D01*
X1505743Y-966858D01*
X1512166Y-961930D01*
X1517094Y-955507D01*
X1520193Y-948027D01*
X1521249Y-940000D01*
X1520193Y-931973D01*
X1517094Y-924493D01*
X1512166Y-918070D01*
X1505743Y-913142D01*
X1498263Y-910043D01*
X1490236Y-908987D01*
X1403622D01*
X1395595Y-910043D01*
X1390237Y-912263D01*
X1370346D01*
X1370342Y-912256D01*
X1365380Y-908941D01*
X1359527Y-907777D01*
X1300473D01*
X1294620Y-908941D01*
X1289658Y-912256D01*
X1286343Y-917218D01*
X1285179Y-923071D01*
Y-924861D01*
X1155737D01*
Y-846430D01*
X1157228Y-842832D01*
X1158259Y-835000D01*
X1157228Y-827168D01*
X1154982Y-821745D01*
Y-804786D01*
X1160656Y-803657D01*
X1165618Y-800342D01*
X1168933Y-795380D01*
X1170097Y-789528D01*
Y-730472D01*
X1168933Y-724620D01*
X1165618Y-719658D01*
X1160656Y-716343D01*
X1157737Y-715762D01*
Y-670000D01*
X1156792Y-662821D01*
X1154021Y-656131D01*
X1149613Y-650387D01*
X1128726Y-629500D01*
X1127535Y-617412D01*
X1123864Y-605308D01*
X1117901Y-594153D01*
X1109877Y-584375D01*
X1100099Y-576351D01*
X1088944Y-570388D01*
X1076840Y-566716D01*
X1064252Y-565477D01*
D02*
G37*
G36*
X1304000Y-736678D02*
X1296157Y-738238D01*
X1304000Y-746081D01*
X1311843Y-738238D01*
X1304000Y-736678D01*
D02*
G37*
G36*
X1416000D02*
X1408157Y-738238D01*
X1416000Y-746081D01*
X1423843Y-738238D01*
X1416000Y-736678D01*
D02*
G37*
G36*
X1528000D02*
X1520157Y-738238D01*
X1528000Y-746081D01*
X1535843Y-738238D01*
X1528000Y-736678D01*
D02*
G37*
G36*
X744000Y-661919D02*
X736157Y-669762D01*
X744000Y-671322D01*
X751843Y-669762D01*
X744000Y-661919D01*
D02*
G37*
G36*
X856000D02*
X848157Y-669762D01*
X856000Y-671322D01*
X863843Y-669762D01*
X856000Y-661919D01*
D02*
G37*
G36*
X1304000D02*
X1296157Y-669762D01*
X1304000Y-671322D01*
X1311843Y-669762D01*
X1304000Y-661919D01*
D02*
G37*
G36*
X968000D02*
X960157Y-669762D01*
X968000Y-671322D01*
X975843Y-669762D01*
X968000Y-661919D01*
D02*
G37*
G36*
X1192000D02*
X1184157Y-669762D01*
X1192000Y-671322D01*
X1199843Y-669762D01*
X1192000Y-661919D01*
D02*
G37*
G36*
X1549762Y-752157D02*
X1541919Y-760000D01*
X1549762Y-767843D01*
X1551322Y-760000D01*
X1549762Y-752157D01*
D02*
G37*
G36*
X1512635Y-831522D02*
X1504156Y-840000D01*
X1512635Y-848478D01*
X1514321Y-840000D01*
X1512635Y-831522D01*
D02*
G37*
G36*
X1381224Y-831521D02*
X1379537Y-840000D01*
X1381224Y-848480D01*
X1389703Y-840000D01*
X1381224Y-831521D01*
D02*
G37*
G36*
X1528000Y-773919D02*
X1520157Y-781762D01*
X1528000Y-783322D01*
X1535843Y-781762D01*
X1528000Y-773919D01*
D02*
G37*
G36*
X1282238Y-752157D02*
X1280678Y-760000D01*
X1282238Y-767843D01*
X1290081Y-760000D01*
X1282238Y-752157D01*
D02*
G37*
G36*
X1304000Y-773919D02*
X1296157Y-781762D01*
X1304000Y-783322D01*
X1311843Y-781762D01*
X1304000Y-773919D01*
D02*
G37*
G36*
X1416000D02*
X1408157Y-781762D01*
X1416000Y-783322D01*
X1423843Y-781762D01*
X1416000Y-773919D01*
D02*
G37*
G36*
X1394238Y-752157D02*
X1392678Y-760000D01*
X1394238Y-767843D01*
X1402081Y-760000D01*
X1394238Y-752157D01*
D02*
G37*
G36*
X1437762D02*
X1429919Y-760000D01*
X1437762Y-767843D01*
X1439322Y-760000D01*
X1437762Y-752157D01*
D02*
G37*
G36*
X1506238D02*
X1504678Y-760000D01*
X1506238Y-767843D01*
X1514081Y-760000D01*
X1506238Y-752157D01*
D02*
G37*
G36*
X1325762D02*
X1317919Y-760000D01*
X1325762Y-767843D01*
X1327322Y-760000D01*
X1325762Y-752157D01*
D02*
G37*
G36*
X1170238Y-495157D02*
X1168678Y-503000D01*
X1170238Y-510843D01*
X1178081Y-503000D01*
X1170238Y-495157D01*
D02*
G37*
G36*
X1282238D02*
X1280678Y-503000D01*
X1282238Y-510843D01*
X1290081Y-503000D01*
X1282238Y-495157D01*
D02*
G37*
G36*
X408000Y-479678D02*
X400157Y-481238D01*
X408000Y-489081D01*
X415843Y-481238D01*
X408000Y-479678D01*
D02*
G37*
G36*
X834238Y-495157D02*
X832678Y-503000D01*
X834238Y-510843D01*
X842081Y-503000D01*
X834238Y-495157D01*
D02*
G37*
G36*
X50238D02*
X48678Y-503000D01*
X50238Y-510843D01*
X58081Y-503000D01*
X50238Y-495157D01*
D02*
G37*
G36*
X498238D02*
X496678Y-503000D01*
X498238Y-510843D01*
X506081Y-503000D01*
X498238Y-495157D01*
D02*
G37*
G36*
X946238D02*
X944678Y-503000D01*
X946238Y-510843D01*
X954081Y-503000D01*
X946238Y-495157D01*
D02*
G37*
G36*
X162238D02*
X160678Y-503000D01*
X162238Y-510843D01*
X170081Y-503000D01*
X162238Y-495157D01*
D02*
G37*
G36*
X386238D02*
X384678Y-503000D01*
X386238Y-510843D01*
X394081Y-503000D01*
X386238Y-495157D01*
D02*
G37*
G36*
X722238D02*
X720678Y-503000D01*
X722238Y-510843D01*
X730081Y-503000D01*
X722238Y-495157D01*
D02*
G37*
G36*
X1080000Y-516919D02*
X1072157Y-524762D01*
X1080000Y-526322D01*
X1087843Y-524762D01*
X1080000Y-516919D01*
D02*
G37*
G36*
X1192000D02*
X1184157Y-524762D01*
X1192000Y-526322D01*
X1199843Y-524762D01*
X1192000Y-516919D01*
D02*
G37*
G36*
X968000D02*
X960157Y-524762D01*
X968000Y-526322D01*
X975843Y-524762D01*
X968000Y-516919D01*
D02*
G37*
G36*
X520000Y-479678D02*
X512157Y-481238D01*
X520000Y-489081D01*
X527843Y-481238D01*
X520000Y-479678D01*
D02*
G37*
G36*
X1304000Y-516919D02*
X1296157Y-524762D01*
X1304000Y-526322D01*
X1311843Y-524762D01*
X1304000Y-516919D01*
D02*
G37*
G36*
X274238Y-495157D02*
X272678Y-503000D01*
X274238Y-510843D01*
X282081Y-503000D01*
X274238Y-495157D01*
D02*
G37*
G36*
X610238D02*
X608678Y-503000D01*
X610238Y-510843D01*
X618081Y-503000D01*
X610238Y-495157D01*
D02*
G37*
G36*
X1416000Y-516919D02*
X1408157Y-524762D01*
X1416000Y-526322D01*
X1423843Y-524762D01*
X1416000Y-516919D01*
D02*
G37*
G36*
X1528000D02*
X1520157Y-524762D01*
X1528000Y-526322D01*
X1535843Y-524762D01*
X1528000Y-516919D01*
D02*
G37*
G36*
X1058238Y-495157D02*
X1056678Y-503000D01*
X1058238Y-510843D01*
X1066081Y-503000D01*
X1058238Y-495157D01*
D02*
G37*
G36*
X765762D02*
X757919Y-503000D01*
X765762Y-510843D01*
X767322Y-503000D01*
X765762Y-495157D01*
D02*
G37*
G36*
X877762D02*
X869919Y-503000D01*
X877762Y-510843D01*
X879322Y-503000D01*
X877762Y-495157D01*
D02*
G37*
G36*
X1437762D02*
X1429919Y-503000D01*
X1437762Y-510843D01*
X1439322Y-503000D01*
X1437762Y-495157D01*
D02*
G37*
G36*
X1549762D02*
X1541919Y-503000D01*
X1549762Y-510843D01*
X1551322Y-503000D01*
X1549762Y-495157D01*
D02*
G37*
G36*
X1213762D02*
X1205919Y-503000D01*
X1213762Y-510843D01*
X1215322Y-503000D01*
X1213762Y-495157D01*
D02*
G37*
G36*
X184000Y-479678D02*
X176157Y-481238D01*
X184000Y-489081D01*
X191843Y-481238D01*
X184000Y-479678D01*
D02*
G37*
G36*
X296000D02*
X288157Y-481238D01*
X296000Y-489081D01*
X303843Y-481238D01*
X296000Y-479678D01*
D02*
G37*
G36*
X1325762Y-495157D02*
X1317919Y-503000D01*
X1325762Y-510843D01*
X1327322Y-503000D01*
X1325762Y-495157D01*
D02*
G37*
G36*
X72000Y-479678D02*
X64157Y-481238D01*
X72000Y-489081D01*
X79843Y-481238D01*
X72000Y-479678D01*
D02*
G37*
G36*
X1101762Y-495157D02*
X1093919Y-503000D01*
X1101762Y-510843D01*
X1103322Y-503000D01*
X1101762Y-495157D01*
D02*
G37*
G36*
X93762D02*
X85919Y-503000D01*
X93762Y-510843D01*
X95322Y-503000D01*
X93762Y-495157D01*
D02*
G37*
G36*
X205762D02*
X197919Y-503000D01*
X205762Y-510843D01*
X207322Y-503000D01*
X205762Y-495157D01*
D02*
G37*
G36*
X1394238D02*
X1392678Y-503000D01*
X1394238Y-510843D01*
X1402081Y-503000D01*
X1394238Y-495157D01*
D02*
G37*
G36*
X1506238D02*
X1504678Y-503000D01*
X1506238Y-510843D01*
X1514081Y-503000D01*
X1506238Y-495157D01*
D02*
G37*
G36*
X317762D02*
X309919Y-503000D01*
X317762Y-510843D01*
X319322Y-503000D01*
X317762Y-495157D01*
D02*
G37*
G36*
X653762D02*
X645919Y-503000D01*
X653762Y-510843D01*
X655322Y-503000D01*
X653762Y-495157D01*
D02*
G37*
G36*
X989762D02*
X981919Y-503000D01*
X989762Y-510843D01*
X991322Y-503000D01*
X989762Y-495157D01*
D02*
G37*
G36*
X429762D02*
X421919Y-503000D01*
X429762Y-510843D01*
X431322Y-503000D01*
X429762Y-495157D01*
D02*
G37*
G36*
X541762D02*
X533919Y-503000D01*
X541762Y-510843D01*
X543322Y-503000D01*
X541762Y-495157D01*
D02*
G37*
G36*
X989762Y-640157D02*
X981919Y-648000D01*
X989762Y-655843D01*
X991322Y-648000D01*
X989762Y-640157D01*
D02*
G37*
G36*
X744000Y-624678D02*
X736157Y-626238D01*
X744000Y-634081D01*
X751843Y-626238D01*
X744000Y-624678D01*
D02*
G37*
G36*
X856000D02*
X848157Y-626238D01*
X856000Y-634081D01*
X863843Y-626238D01*
X856000Y-624678D01*
D02*
G37*
G36*
X1325762Y-640157D02*
X1317919Y-648000D01*
X1325762Y-655843D01*
X1327322Y-648000D01*
X1325762Y-640157D01*
D02*
G37*
G36*
X834238D02*
X832678Y-648000D01*
X834238Y-655843D01*
X842081Y-648000D01*
X834238Y-640157D01*
D02*
G37*
G36*
X946238D02*
X944678Y-648000D01*
X946238Y-655843D01*
X954081Y-648000D01*
X946238Y-640157D01*
D02*
G37*
G36*
X722238D02*
X720678Y-648000D01*
X722238Y-655843D01*
X730081Y-648000D01*
X722238Y-640157D01*
D02*
G37*
G36*
X1170238D02*
X1168678Y-648000D01*
X1170238Y-655843D01*
X1178081Y-648000D01*
X1170238Y-640157D01*
D02*
G37*
G36*
X877762D02*
X869919Y-648000D01*
X877762Y-655843D01*
X879322Y-648000D01*
X877762Y-640157D01*
D02*
G37*
G36*
X1213762D02*
X1205919Y-648000D01*
X1213762Y-655843D01*
X1215322Y-648000D01*
X1213762Y-640157D01*
D02*
G37*
G36*
X1282238D02*
X1280678Y-648000D01*
X1282238Y-655843D01*
X1290081Y-648000D01*
X1282238Y-640157D01*
D02*
G37*
G36*
X765762D02*
X757919Y-648000D01*
X765762Y-655843D01*
X767322Y-648000D01*
X765762Y-640157D01*
D02*
G37*
G36*
X968000Y-624678D02*
X960157Y-626238D01*
X968000Y-634081D01*
X975843Y-626238D01*
X968000Y-624678D01*
D02*
G37*
G36*
X184000Y-516919D02*
X176157Y-524762D01*
X184000Y-526322D01*
X191843Y-524762D01*
X184000Y-516919D01*
D02*
G37*
G36*
X296000D02*
X288157Y-524762D01*
X296000Y-526322D01*
X303843Y-524762D01*
X296000Y-516919D01*
D02*
G37*
G36*
X72000D02*
X64157Y-524762D01*
X72000Y-526322D01*
X79843Y-524762D01*
X72000Y-516919D01*
D02*
G37*
G36*
X408000D02*
X400157Y-524762D01*
X408000Y-526322D01*
X415843Y-524762D01*
X408000Y-516919D01*
D02*
G37*
G36*
X744000D02*
X736157Y-524762D01*
X744000Y-526322D01*
X751843Y-524762D01*
X744000Y-516919D01*
D02*
G37*
G36*
X856000D02*
X848157Y-524762D01*
X856000Y-526322D01*
X863843Y-524762D01*
X856000Y-516919D01*
D02*
G37*
G36*
X520000D02*
X512157Y-524762D01*
X520000Y-526322D01*
X527843Y-524762D01*
X520000Y-516919D01*
D02*
G37*
G36*
X632000D02*
X624157Y-524762D01*
X632000Y-526322D01*
X639843Y-524762D01*
X632000Y-516919D01*
D02*
G37*
G36*
X1304000Y-624678D02*
X1296157Y-626238D01*
X1304000Y-634081D01*
X1311843Y-626238D01*
X1304000Y-624678D01*
D02*
G37*
G36*
X632000Y-479678D02*
X624157Y-481238D01*
X632000Y-489081D01*
X639843Y-481238D01*
X632000Y-479678D01*
D02*
G37*
G36*
X1192000Y-624678D02*
X1184157Y-626238D01*
X1192000Y-634081D01*
X1199843Y-626238D01*
X1192000Y-624678D01*
D02*
G37*
%LPD*%
G36*
X1093832Y-803657D02*
X1099507Y-804786D01*
Y-825394D01*
X1098772Y-827168D01*
X1097741Y-835000D01*
X1098772Y-842832D01*
X1100263Y-846430D01*
Y-925770D01*
X1095801Y-926658D01*
X1090839Y-929973D01*
X1087524Y-934935D01*
X1086360Y-940787D01*
Y-964409D01*
X1086969Y-967474D01*
X1085951Y-968804D01*
X1082611Y-971192D01*
X1075000Y-969678D01*
X1067157Y-971238D01*
X1081960Y-986040D01*
X1075000Y-993000D01*
X1081960Y-999960D01*
X1067157Y-1014762D01*
X1075000Y-1016322D01*
X1081537Y-1015022D01*
X1081634Y-1015033D01*
X1086065Y-1018261D01*
X1086360Y-1018772D01*
Y-1039213D01*
X1087524Y-1045065D01*
X1090839Y-1050027D01*
X1095801Y-1053342D01*
X1099507Y-1054080D01*
Y-1093980D01*
X1097772Y-1098168D01*
X1096741Y-1106000D01*
X1097772Y-1113832D01*
X1099507Y-1118020D01*
Y-1165214D01*
X1093832Y-1166343D01*
X1088871Y-1169658D01*
X1086877D01*
X1081916Y-1166343D01*
X1076063Y-1165179D01*
X1042909D01*
X1017737Y-1140007D01*
Y-1036790D01*
X1026929D01*
X1032782Y-1035626D01*
X1037743Y-1032311D01*
X1041059Y-1027349D01*
X1042223Y-1021496D01*
Y-958504D01*
X1041059Y-952651D01*
X1037743Y-947690D01*
X1032782Y-944374D01*
X1026929Y-943210D01*
X1017737D01*
Y-829993D01*
X1042909Y-804821D01*
X1076063D01*
X1081916Y-803657D01*
X1086877Y-800342D01*
X1088871D01*
X1093832Y-803657D01*
D02*
G37*
%LPC*%
G36*
X1059000Y-874678D02*
X1051157Y-876238D01*
X1059000Y-884081D01*
X1066843Y-876238D01*
X1059000Y-874678D01*
D02*
G37*
G36*
X1077762Y-1088157D02*
X1069919Y-1096000D01*
X1077762Y-1103843D01*
X1079322Y-1096000D01*
X1077762Y-1088157D01*
D02*
G37*
G36*
X1056000Y-1072678D02*
X1048157Y-1074238D01*
X1056000Y-1082081D01*
X1063843Y-1074238D01*
X1056000Y-1072678D01*
D02*
G37*
G36*
Y-1109919D02*
X1048157Y-1117762D01*
X1056000Y-1119322D01*
X1063843Y-1117762D01*
X1056000Y-1109919D01*
D02*
G37*
G36*
X1034238Y-1088157D02*
X1032678Y-1096000D01*
X1034238Y-1103843D01*
X1042081Y-1096000D01*
X1034238Y-1088157D01*
D02*
G37*
G36*
X1037238Y-890157D02*
X1035678Y-898000D01*
X1037238Y-905843D01*
X1045081Y-898000D01*
X1037238Y-890157D01*
D02*
G37*
G36*
X1080762D02*
X1072919Y-898000D01*
X1080762Y-905843D01*
X1082322Y-898000D01*
X1080762Y-890157D01*
D02*
G37*
G36*
X1053238Y-985157D02*
X1051678Y-993000D01*
X1053238Y-1000843D01*
X1061081Y-993000D01*
X1053238Y-985157D01*
D02*
G37*
G36*
X1059000Y-911919D02*
X1051157Y-919762D01*
X1059000Y-921322D01*
X1066843Y-919762D01*
X1059000Y-911919D01*
D02*
G37*
G36*
X2221762Y-1240157D02*
X2213919Y-1248000D01*
X2221762Y-1255843D01*
X2223322Y-1248000D01*
X2221762Y-1240157D01*
D02*
G37*
G36*
X2200000Y-1224678D02*
X2192157Y-1226238D01*
X2200000Y-1234081D01*
X2207843Y-1226238D01*
X2200000Y-1224678D01*
D02*
G37*
G36*
X2178238Y-1240157D02*
X2176678Y-1248000D01*
X2178238Y-1255843D01*
X2186081Y-1248000D01*
X2178238Y-1240157D01*
D02*
G37*
G36*
X2110000Y-1237384D02*
X2086364Y-1261020D01*
X2133637D01*
X2110000Y-1237384D01*
D02*
G37*
G36*
X2200000Y-1261919D02*
X2192157Y-1269762D01*
X2200000Y-1271322D01*
X2207843Y-1269762D01*
X2200000Y-1261919D01*
D02*
G37*
G36*
X2178238Y-1128157D02*
X2176678Y-1136000D01*
X2178238Y-1143843D01*
X2186081Y-1136000D01*
X2178238Y-1128157D01*
D02*
G37*
G36*
X2221762D02*
X2213919Y-1136000D01*
X2221762Y-1143843D01*
X2223322Y-1136000D01*
X2221762Y-1128157D01*
D02*
G37*
G36*
X2200000Y-1149919D02*
X2192157Y-1157762D01*
X2200000Y-1159322D01*
X2207843Y-1157762D01*
X2200000Y-1149919D01*
D02*
G37*
G36*
Y-1373919D02*
X2192157Y-1381762D01*
X2200000Y-1383322D01*
X2207843Y-1381762D01*
X2200000Y-1373919D01*
D02*
G37*
G36*
X2178238Y-1352157D02*
X2176678Y-1360000D01*
X2178238Y-1367843D01*
X2186081Y-1360000D01*
X2178238Y-1352157D01*
D02*
G37*
G36*
X2221762D02*
X2213919Y-1360000D01*
X2221762Y-1367843D01*
X2223322Y-1360000D01*
X2221762Y-1352157D01*
D02*
G37*
G36*
X1810000Y-1336755D02*
X1784396Y-1362359D01*
X1835603D01*
X1810000Y-1336755D01*
D02*
G37*
G36*
X2200000Y-1336678D02*
X2192157Y-1338238D01*
X2200000Y-1346081D01*
X2207843Y-1338238D01*
X2200000Y-1336678D01*
D02*
G37*
G36*
Y-1112678D02*
X2192157Y-1114238D01*
X2200000Y-1122081D01*
X2207843Y-1114238D01*
X2200000Y-1112678D01*
D02*
G37*
G36*
Y-925919D02*
X2192157Y-933762D01*
X2200000Y-935322D01*
X2207843Y-933762D01*
X2200000Y-925919D01*
D02*
G37*
G36*
X2064957Y-916364D02*
X2041321Y-940000D01*
X2064957Y-963637D01*
Y-916364D01*
D02*
G37*
G36*
X2200000Y-888678D02*
X2192157Y-890238D01*
X2200000Y-898081D01*
X2207843Y-890238D01*
X2200000Y-888678D01*
D02*
G37*
G36*
X2178238Y-904157D02*
X2176678Y-912000D01*
X2178238Y-919843D01*
X2186081Y-912000D01*
X2178238Y-904157D01*
D02*
G37*
G36*
X2221762D02*
X2213919Y-912000D01*
X2221762Y-919843D01*
X2223322Y-912000D01*
X2221762Y-904157D01*
D02*
G37*
G36*
X1978189Y-895179D02*
X1923071D01*
X1917218Y-896343D01*
X1912257Y-899658D01*
X1908941Y-904620D01*
X1907777Y-910472D01*
Y-912263D01*
X1869763D01*
X1864405Y-910043D01*
X1856378Y-908987D01*
X1769764D01*
X1761737Y-910043D01*
X1756379Y-912263D01*
X1659000D01*
X1651821Y-913208D01*
X1645131Y-915979D01*
X1639387Y-920387D01*
X1622387Y-937387D01*
X1617979Y-943131D01*
X1615208Y-949821D01*
X1614263Y-957000D01*
Y-1552511D01*
X1608511Y-1558263D01*
X814000D01*
X806821Y-1559208D01*
X800131Y-1561979D01*
X794387Y-1566387D01*
X740387Y-1620387D01*
X735979Y-1626131D01*
X733208Y-1632821D01*
X732263Y-1640000D01*
Y-1766081D01*
X722501Y-1775843D01*
X719186Y-1780805D01*
X718021Y-1786658D01*
Y-1813342D01*
X719186Y-1819195D01*
X720064Y-1820510D01*
X717392Y-1825510D01*
X702608D01*
X699936Y-1820510D01*
X700814Y-1819195D01*
X701979Y-1813342D01*
Y-1786658D01*
X700814Y-1780805D01*
X697499Y-1775843D01*
X684157Y-1762501D01*
X679195Y-1759186D01*
X673342Y-1758021D01*
X646658D01*
X640805Y-1759186D01*
X635843Y-1762501D01*
X622501Y-1775843D01*
X619186Y-1780805D01*
X618021Y-1786658D01*
Y-1813342D01*
X619186Y-1819195D01*
X622501Y-1824157D01*
X635843Y-1837499D01*
X640805Y-1840814D01*
X646658Y-1841979D01*
X658440D01*
X660354Y-1846598D01*
X648931Y-1858021D01*
X646658D01*
X640805Y-1859186D01*
X635843Y-1862501D01*
X622501Y-1875843D01*
X619186Y-1880805D01*
X618021Y-1886658D01*
Y-1913342D01*
X619186Y-1919195D01*
X622501Y-1924157D01*
X635843Y-1937499D01*
X640805Y-1940814D01*
X646658Y-1941979D01*
X673342D01*
X679195Y-1940814D01*
X684157Y-1937499D01*
X697499Y-1924157D01*
X700814Y-1919195D01*
X701979Y-1913342D01*
Y-1886658D01*
X700814Y-1880805D01*
X700780Y-1880753D01*
X703945Y-1876490D01*
X716879D01*
X717922Y-1878442D01*
X719049Y-1881490D01*
X718021Y-1886658D01*
Y-1913342D01*
X719186Y-1919195D01*
X722501Y-1924157D01*
X735843Y-1937499D01*
X740805Y-1940814D01*
X746658Y-1941979D01*
X773342D01*
X779195Y-1940814D01*
X784157Y-1937499D01*
X797499Y-1924157D01*
X800814Y-1919195D01*
X801979Y-1913342D01*
Y-1886658D01*
X800814Y-1880805D01*
X800205Y-1879892D01*
X802118Y-1875273D01*
X805755Y-1874550D01*
X814024Y-1869024D01*
X829024Y-1854024D01*
X834549Y-1845755D01*
X835273Y-1842118D01*
X839892Y-1840205D01*
X840805Y-1840814D01*
X846658Y-1841979D01*
X873342D01*
X879195Y-1840814D01*
X884157Y-1837499D01*
X897499Y-1824157D01*
X900814Y-1819195D01*
X901979Y-1813342D01*
Y-1786658D01*
X900814Y-1780805D01*
X897499Y-1775843D01*
X884157Y-1762501D01*
X879195Y-1759186D01*
X873342Y-1758021D01*
X846658D01*
X841490Y-1759049D01*
X838442Y-1757922D01*
X836490Y-1756879D01*
Y-1722737D01*
X864489Y-1694737D01*
X1689000D01*
X1696179Y-1693792D01*
X1702869Y-1691021D01*
X1708613Y-1686613D01*
X1741613Y-1653613D01*
X1746021Y-1647869D01*
X1748792Y-1641179D01*
X1749737Y-1634000D01*
Y-1295509D01*
X1750000Y-1295294D01*
X1770476D01*
Y-1348440D01*
X1801071Y-1317844D01*
X1810000Y-1326773D01*
X1818928Y-1317844D01*
X1849524Y-1348441D01*
Y-1295294D01*
X1919220D01*
Y-1539476D01*
X1916867Y-1542997D01*
X1913870Y-1550232D01*
X1912706Y-1556085D01*
X1912706Y-1556085D01*
X1907903Y-1560476D01*
X1858961D01*
X1889557Y-1591072D01*
X1880629Y-1600000D01*
X1889557Y-1608928D01*
X1858961Y-1639524D01*
X1912126D01*
X1912706Y-1640000D01*
Y-1659999D01*
X1912126Y-1660476D01*
X1858961D01*
X1889557Y-1691072D01*
X1880629Y-1700000D01*
X1889557Y-1708928D01*
X1858961Y-1739524D01*
X1912126D01*
X1912706Y-1740000D01*
Y-1960719D01*
X1913870Y-1966572D01*
X1917186Y-1971534D01*
X1922147Y-1974849D01*
X1928000Y-1976013D01*
X2008008D01*
X2008014Y-1976012D01*
X2008021Y-1976013D01*
X2010896Y-1975439D01*
X2013861Y-1974849D01*
X2013866Y-1974845D01*
X2013872Y-1974844D01*
X2016279Y-1973233D01*
X2018823Y-1971534D01*
X2018826Y-1971528D01*
X2018831Y-1971525D01*
X2020459Y-1969085D01*
X2022138Y-1966572D01*
X2022139Y-1966566D01*
X2022143Y-1966561D01*
X2022718Y-1963654D01*
X2023302Y-1960719D01*
X2023301Y-1960713D01*
X2023302Y-1960707D01*
X2023279Y-1931469D01*
X2027897Y-1929553D01*
X2035843Y-1937499D01*
X2040805Y-1940814D01*
X2046658Y-1941979D01*
X2073342D01*
X2079195Y-1940814D01*
X2084157Y-1937499D01*
X2097499Y-1924157D01*
X2100814Y-1919195D01*
X2101979Y-1913342D01*
Y-1886658D01*
X2100814Y-1880805D01*
X2097499Y-1875843D01*
X2084157Y-1862501D01*
X2079195Y-1859186D01*
X2073342Y-1858021D01*
X2046658D01*
X2040805Y-1859186D01*
X2035843Y-1862501D01*
X2027848Y-1870496D01*
X2023228Y-1868584D01*
X2023198Y-1831388D01*
X2027817Y-1829473D01*
X2035843Y-1837499D01*
X2040805Y-1840814D01*
X2046658Y-1841979D01*
X2073342D01*
X2079195Y-1840814D01*
X2084157Y-1837499D01*
X2097499Y-1824157D01*
X2100814Y-1819195D01*
X2101979Y-1813342D01*
Y-1786658D01*
X2100814Y-1780805D01*
X2097499Y-1775843D01*
X2084157Y-1762501D01*
X2079195Y-1759186D01*
X2073342Y-1758021D01*
X2046658D01*
X2040805Y-1759186D01*
X2035843Y-1762501D01*
X2027768Y-1770576D01*
X2023147Y-1768665D01*
X2022979Y-1559673D01*
X2022977Y-1559666D01*
X2022978Y-1555772D01*
X2022978Y-1555772D01*
X2022978Y-1555772D01*
X2022242Y-1552068D01*
X2021814Y-1549919D01*
X2021814Y-1549919D01*
X2021814Y-1549919D01*
X2018818Y-1542683D01*
X2015503Y-1537721D01*
X2009966Y-1532183D01*
X2009965Y-1532183D01*
X2009965Y-1532183D01*
X2007498Y-1530534D01*
X2005004Y-1528868D01*
X2005004Y-1528868D01*
X2005004Y-1528868D01*
X1997768Y-1525870D01*
X1997768Y-1525870D01*
X1997768Y-1525870D01*
X1991916Y-1524706D01*
X1991915Y-1524706D01*
X1991915Y-1524706D01*
X1989781Y-1524706D01*
X1984780Y-1521040D01*
Y-1282582D01*
X1985294Y-1280000D01*
Y-1198623D01*
X1990294Y-1194520D01*
X1991811Y-1194821D01*
X2046929D01*
X2052782Y-1193657D01*
X2057744Y-1190342D01*
X2061059Y-1185380D01*
X2061285Y-1184244D01*
X2065964Y-1184057D01*
X2066405Y-1184134D01*
X2069658Y-1189003D01*
X2073063Y-1191278D01*
X2074320Y-1194801D01*
X2074019Y-1197297D01*
X2073055Y-1198739D01*
X2072444Y-1201811D01*
Y-1247101D01*
X2099103Y-1220442D01*
X2110000Y-1231339D01*
X2120897Y-1220442D01*
X2147556Y-1247101D01*
Y-1201811D01*
X2146945Y-1198739D01*
X2145981Y-1197297D01*
X2145680Y-1194801D01*
X2146937Y-1191278D01*
X2150342Y-1189003D01*
X2153657Y-1184042D01*
X2154821Y-1178189D01*
Y-1127008D01*
X2153657Y-1121155D01*
X2150342Y-1116194D01*
X2145380Y-1112878D01*
X2139528Y-1111714D01*
X2080472D01*
X2074620Y-1112878D01*
X2069658Y-1116194D01*
X2067288Y-1119741D01*
X2062078D01*
X2061059Y-1114620D01*
X2057744Y-1109658D01*
X2052782Y-1106343D01*
X2046929Y-1105179D01*
X1991811D01*
X1989523Y-1105634D01*
X1984335Y-1104204D01*
X1982930Y-1102352D01*
X1980814Y-1099186D01*
X1975853Y-1095870D01*
X1970000Y-1094706D01*
X1750000D01*
X1749737Y-1094491D01*
Y-1068240D01*
X1750240Y-1067737D01*
X1756379D01*
X1761737Y-1069957D01*
X1769764Y-1071013D01*
X1856378D01*
X1864405Y-1069957D01*
X1869762Y-1067737D01*
X1907777D01*
Y-1071496D01*
X1908941Y-1077349D01*
X1912256Y-1082311D01*
X1917218Y-1085626D01*
X1923071Y-1086790D01*
X1982126D01*
X1987979Y-1085626D01*
X1992940Y-1082311D01*
X1995162Y-1078985D01*
X1997874Y-1079524D01*
X2051038D01*
X2020442Y-1048929D01*
X2029370Y-1040001D01*
X2020442Y-1031072D01*
X2051039Y-1000476D01*
X1997874D01*
X1995162Y-1001015D01*
X1992940Y-997690D01*
X1987979Y-994374D01*
X1982126Y-993210D01*
X1923071D01*
X1917218Y-994374D01*
X1912256Y-997690D01*
X1908941Y-1002651D01*
X1907777Y-1008504D01*
Y-1012263D01*
X1869763D01*
X1864405Y-1010043D01*
X1856378Y-1008987D01*
X1769764D01*
X1761737Y-1010043D01*
X1756379Y-1012263D01*
X1738751D01*
X1731572Y-1013208D01*
X1724882Y-1015979D01*
X1719137Y-1020387D01*
X1702387Y-1037137D01*
X1697979Y-1042882D01*
X1695208Y-1049572D01*
X1694263Y-1056751D01*
Y-1622511D01*
X1677511Y-1639263D01*
X853000D01*
X845821Y-1640208D01*
X839131Y-1642979D01*
X833387Y-1647387D01*
X792737Y-1688036D01*
X787737Y-1686126D01*
Y-1651489D01*
X825489Y-1613737D01*
X1620000D01*
X1627179Y-1612792D01*
X1633869Y-1610021D01*
X1639613Y-1605613D01*
X1661613Y-1583613D01*
X1666021Y-1577869D01*
X1668792Y-1571179D01*
X1669737Y-1564000D01*
Y-968489D01*
X1670489Y-967737D01*
X1756379D01*
X1761737Y-969957D01*
X1769764Y-971013D01*
X1856378D01*
X1864405Y-969957D01*
X1869763Y-967737D01*
X1907777D01*
Y-969528D01*
X1908941Y-975380D01*
X1912257Y-980342D01*
X1917218Y-983657D01*
X1923071Y-984821D01*
X1978189D01*
X1984042Y-983657D01*
X1989003Y-980342D01*
X1991278Y-976937D01*
X1994801Y-975680D01*
X1997297Y-975981D01*
X1998739Y-976945D01*
X2001811Y-977556D01*
X2051037D01*
X2022410Y-948929D01*
X2031338Y-940000D01*
X2022410Y-931072D01*
X2051038Y-902444D01*
X2001811D01*
X1998739Y-903055D01*
X1997297Y-904019D01*
X1994801Y-904320D01*
X1991278Y-903063D01*
X1989003Y-899658D01*
X1984042Y-896343D01*
X1978189Y-895179D01*
D02*
G37*
G36*
X2064957Y-1014396D02*
X2039353Y-1040001D01*
X2064957Y-1065605D01*
Y-1014396D01*
D02*
G37*
G36*
X2200000Y-1037919D02*
X2192157Y-1045762D01*
X2200000Y-1047322D01*
X2207843Y-1045762D01*
X2200000Y-1037919D01*
D02*
G37*
G36*
Y-1000678D02*
X2192157Y-1002238D01*
X2200000Y-1010081D01*
X2207843Y-1002238D01*
X2200000Y-1000678D01*
D02*
G37*
G36*
X2178238Y-1016157D02*
X2176678Y-1024000D01*
X2178238Y-1031843D01*
X2186081Y-1024000D01*
X2178238Y-1016157D01*
D02*
G37*
G36*
X2221762D02*
X2213919Y-1024000D01*
X2221762Y-1031843D01*
X2223322Y-1024000D01*
X2221762Y-1016157D01*
D02*
G37*
G36*
X1892593Y-1781327D02*
X1873920Y-1800001D01*
X1892593Y-1818674D01*
X1894102Y-1816415D01*
X1894713Y-1813342D01*
Y-1786658D01*
X1894102Y-1783585D01*
X1892593Y-1781327D01*
D02*
G37*
G36*
X292593D02*
X273920Y-1800001D01*
X292593Y-1818674D01*
X294102Y-1816415D01*
X294713Y-1813342D01*
Y-1786658D01*
X294102Y-1783585D01*
X292593Y-1781327D01*
D02*
G37*
G36*
X192593D02*
X173920Y-1800001D01*
X192593Y-1818674D01*
X194102Y-1816415D01*
X194713Y-1813342D01*
Y-1786658D01*
X194102Y-1783585D01*
X192593Y-1781327D01*
D02*
G37*
G36*
X127407Y-1781327D02*
X125898Y-1783585D01*
X125287Y-1786658D01*
Y-1813342D01*
X125898Y-1816415D01*
X127407Y-1818674D01*
X146081Y-1800001D01*
X127407Y-1781327D01*
D02*
G37*
G36*
X1827407D02*
X1825898Y-1783585D01*
X1825287Y-1786658D01*
Y-1813342D01*
X1825898Y-1816415D01*
X1827408Y-1818674D01*
X1846081Y-1800001D01*
X1827407Y-1781327D01*
D02*
G37*
G36*
X2221762Y-1800157D02*
X2213919Y-1808000D01*
X2221762Y-1815843D01*
X2223322Y-1808000D01*
X2221762Y-1800157D01*
D02*
G37*
G36*
X72000Y-1784678D02*
X64157Y-1786238D01*
X72000Y-1794081D01*
X79843Y-1786238D01*
X72000Y-1784678D01*
D02*
G37*
G36*
X93762Y-1800157D02*
X85919Y-1808000D01*
X93762Y-1815843D01*
X95322Y-1808000D01*
X93762Y-1800157D01*
D02*
G37*
G36*
X50238D02*
X48678Y-1808000D01*
X50238Y-1815843D01*
X58081Y-1808000D01*
X50238Y-1800157D01*
D02*
G37*
G36*
X2178238D02*
X2176678Y-1808000D01*
X2178238Y-1815843D01*
X2186081Y-1808000D01*
X2178238Y-1800157D01*
D02*
G37*
G36*
X1773342Y-1758021D02*
X1746658D01*
X1740805Y-1759186D01*
X1735843Y-1762501D01*
X1722501Y-1775843D01*
X1719186Y-1780805D01*
X1718021Y-1786658D01*
Y-1813342D01*
X1719186Y-1819195D01*
X1722501Y-1824157D01*
X1735843Y-1837499D01*
X1740805Y-1840814D01*
X1746658Y-1841979D01*
X1773342D01*
X1779195Y-1840814D01*
X1784157Y-1837499D01*
X1797499Y-1824157D01*
X1800814Y-1819195D01*
X1801979Y-1813342D01*
Y-1786658D01*
X1800814Y-1780805D01*
X1797499Y-1775843D01*
X1784157Y-1762501D01*
X1779195Y-1759186D01*
X1773342Y-1758021D01*
D02*
G37*
G36*
X160000Y-1813920D02*
X141327Y-1832593D01*
X143585Y-1834102D01*
X146658Y-1834713D01*
X173342D01*
X176415Y-1834102D01*
X178673Y-1832593D01*
X160000Y-1813920D01*
D02*
G37*
G36*
X1673342Y-1758021D02*
X1646658D01*
X1640805Y-1759186D01*
X1635843Y-1762501D01*
X1622501Y-1775843D01*
X1619186Y-1780805D01*
X1618021Y-1786658D01*
Y-1813342D01*
X1619186Y-1819195D01*
X1622501Y-1824157D01*
X1635843Y-1837499D01*
X1640805Y-1840814D01*
X1646658Y-1841979D01*
X1673342D01*
X1679195Y-1840814D01*
X1684157Y-1837499D01*
X1697499Y-1824157D01*
X1700814Y-1819195D01*
X1701979Y-1813342D01*
Y-1786658D01*
X1700814Y-1780805D01*
X1697499Y-1775843D01*
X1684157Y-1762501D01*
X1679195Y-1759186D01*
X1673342Y-1758021D01*
D02*
G37*
G36*
X1473342D02*
X1446658D01*
X1440805Y-1759186D01*
X1435843Y-1762501D01*
X1422501Y-1775843D01*
X1419186Y-1780805D01*
X1418021Y-1786658D01*
Y-1813342D01*
X1419186Y-1819195D01*
X1422501Y-1824157D01*
X1435843Y-1837499D01*
X1440805Y-1840814D01*
X1446658Y-1841979D01*
X1473342D01*
X1479195Y-1840814D01*
X1484157Y-1837499D01*
X1497499Y-1824157D01*
X1500814Y-1819195D01*
X1501979Y-1813342D01*
Y-1786658D01*
X1500814Y-1780805D01*
X1497499Y-1775843D01*
X1484157Y-1762501D01*
X1479195Y-1759186D01*
X1473342Y-1758021D01*
D02*
G37*
G36*
X1573342D02*
X1546658D01*
X1540805Y-1759186D01*
X1535843Y-1762501D01*
X1522501Y-1775843D01*
X1519186Y-1780805D01*
X1518021Y-1786658D01*
Y-1813342D01*
X1519186Y-1819195D01*
X1522501Y-1824157D01*
X1535843Y-1837499D01*
X1540805Y-1840814D01*
X1546658Y-1841979D01*
X1573342D01*
X1579195Y-1840814D01*
X1584157Y-1837499D01*
X1597499Y-1824157D01*
X1600814Y-1819195D01*
X1601979Y-1813342D01*
Y-1786658D01*
X1600814Y-1780805D01*
X1597499Y-1775843D01*
X1584157Y-1762501D01*
X1579195Y-1759186D01*
X1573342Y-1758021D01*
D02*
G37*
G36*
X2200000Y-1821919D02*
X2192157Y-1829762D01*
X2200000Y-1831322D01*
X2207843Y-1829762D01*
X2200000Y-1821919D01*
D02*
G37*
G36*
X227407Y-1781327D02*
X225898Y-1783585D01*
X225287Y-1786658D01*
Y-1813342D01*
X225898Y-1816415D01*
X227407Y-1818674D01*
X246081Y-1800001D01*
X227407Y-1781327D01*
D02*
G37*
G36*
X72000Y-1821919D02*
X64157Y-1829762D01*
X72000Y-1831322D01*
X79843Y-1829762D01*
X72000Y-1821919D01*
D02*
G37*
G36*
X260000Y-1813920D02*
X241327Y-1832593D01*
X243585Y-1834102D01*
X246658Y-1834713D01*
X273342D01*
X276415Y-1834102D01*
X278673Y-1832593D01*
X260000Y-1813920D01*
D02*
G37*
G36*
X1860000D02*
X1841327Y-1832593D01*
X1843585Y-1834102D01*
X1846658Y-1834713D01*
X1873342D01*
X1876415Y-1834102D01*
X1878673Y-1832593D01*
X1860000Y-1813920D01*
D02*
G37*
G36*
X50238Y-1688157D02*
X48678Y-1696000D01*
X50238Y-1703843D01*
X58081Y-1696000D01*
X50238Y-1688157D01*
D02*
G37*
G36*
X162238D02*
X160678Y-1696000D01*
X162238Y-1703843D01*
X170081Y-1696000D01*
X162238Y-1688157D01*
D02*
G37*
G36*
X2200000Y-1709919D02*
X2192157Y-1717762D01*
X2200000Y-1719322D01*
X2207843Y-1717762D01*
X2200000Y-1709919D01*
D02*
G37*
G36*
X632000D02*
X624157Y-1717762D01*
X632000Y-1719322D01*
X639843Y-1717762D01*
X632000Y-1709919D01*
D02*
G37*
G36*
X1793000D02*
X1785157Y-1717762D01*
X1793000Y-1719322D01*
X1800843Y-1717762D01*
X1793000Y-1709919D01*
D02*
G37*
G36*
X610238Y-1688157D02*
X608678Y-1696000D01*
X610238Y-1703843D01*
X618081Y-1696000D01*
X610238Y-1688157D01*
D02*
G37*
G36*
X1771238D02*
X1769678Y-1696000D01*
X1771238Y-1703843D01*
X1779081Y-1696000D01*
X1771238Y-1688157D01*
D02*
G37*
G36*
X498238D02*
X496678Y-1696000D01*
X498238Y-1703843D01*
X506081Y-1696000D01*
X498238Y-1688157D01*
D02*
G37*
G36*
X274238D02*
X272678Y-1696000D01*
X274238Y-1703843D01*
X282081Y-1696000D01*
X274238Y-1688157D01*
D02*
G37*
G36*
X386238D02*
X384678Y-1696000D01*
X386238Y-1703843D01*
X394081Y-1696000D01*
X386238Y-1688157D01*
D02*
G37*
G36*
X1873342Y-1765287D02*
X1846658D01*
X1843585Y-1765898D01*
X1841326Y-1767407D01*
X1860000Y-1786081D01*
X1878674Y-1767408D01*
X1876415Y-1765898D01*
X1873342Y-1765287D01*
D02*
G37*
G36*
X1845043Y-1674396D02*
Y-1725604D01*
X1870647Y-1700000D01*
X1845043Y-1674396D01*
D02*
G37*
G36*
X273342Y-1765287D02*
X246658D01*
X243585Y-1765898D01*
X241326Y-1767407D01*
X260000Y-1786081D01*
X278674Y-1767408D01*
X276415Y-1765898D01*
X273342Y-1765287D01*
D02*
G37*
G36*
X2200000Y-1784678D02*
X2192157Y-1786238D01*
X2200000Y-1794081D01*
X2207843Y-1786238D01*
X2200000Y-1784678D01*
D02*
G37*
G36*
X173342Y-1765287D02*
X146658D01*
X143585Y-1765898D01*
X141326Y-1767407D01*
X160000Y-1786081D01*
X178674Y-1767408D01*
X176415Y-1765898D01*
X173342Y-1765287D01*
D02*
G37*
G36*
X408000Y-1709919D02*
X400157Y-1717762D01*
X408000Y-1719322D01*
X415843Y-1717762D01*
X408000Y-1709919D01*
D02*
G37*
G36*
X520000D02*
X512157Y-1717762D01*
X520000Y-1719322D01*
X527843Y-1717762D01*
X520000Y-1709919D01*
D02*
G37*
G36*
X296000D02*
X288157Y-1717762D01*
X296000Y-1719322D01*
X303843Y-1717762D01*
X296000Y-1709919D01*
D02*
G37*
G36*
X72000D02*
X64157Y-1717762D01*
X72000Y-1719322D01*
X79843Y-1717762D01*
X72000Y-1709919D01*
D02*
G37*
G36*
X184000D02*
X176157Y-1717762D01*
X184000Y-1719322D01*
X191843Y-1717762D01*
X184000Y-1709919D01*
D02*
G37*
G36*
X1373342Y-1758021D02*
X1346658D01*
X1340805Y-1759186D01*
X1335843Y-1762501D01*
X1322501Y-1775843D01*
X1319186Y-1780805D01*
X1318021Y-1786658D01*
Y-1813342D01*
X1319186Y-1819195D01*
X1322501Y-1824157D01*
X1335843Y-1837499D01*
X1340805Y-1840814D01*
X1346658Y-1841979D01*
X1373342D01*
X1379195Y-1840814D01*
X1384157Y-1837499D01*
X1397499Y-1824157D01*
X1400814Y-1819195D01*
X1401979Y-1813342D01*
Y-1786658D01*
X1400814Y-1780805D01*
X1397499Y-1775843D01*
X1384157Y-1762501D01*
X1379195Y-1759186D01*
X1373342Y-1758021D01*
D02*
G37*
G36*
X1673342Y-1858021D02*
X1646658D01*
X1640805Y-1859186D01*
X1635843Y-1862501D01*
X1622501Y-1875843D01*
X1619186Y-1880805D01*
X1618021Y-1886658D01*
Y-1913342D01*
X1619186Y-1919195D01*
X1622501Y-1924157D01*
X1635843Y-1937499D01*
X1640805Y-1940814D01*
X1646658Y-1941979D01*
X1673342D01*
X1679195Y-1940814D01*
X1684157Y-1937499D01*
X1697499Y-1924157D01*
X1700814Y-1919195D01*
X1701979Y-1913342D01*
Y-1886658D01*
X1700814Y-1880805D01*
X1697499Y-1875843D01*
X1684157Y-1862501D01*
X1679195Y-1859186D01*
X1673342Y-1858021D01*
D02*
G37*
G36*
X1773342D02*
X1746658D01*
X1740805Y-1859186D01*
X1735843Y-1862501D01*
X1722501Y-1875843D01*
X1719186Y-1880805D01*
X1718021Y-1886658D01*
Y-1913342D01*
X1719186Y-1919195D01*
X1722501Y-1924157D01*
X1735843Y-1937499D01*
X1740805Y-1940814D01*
X1746658Y-1941979D01*
X1773342D01*
X1779195Y-1940814D01*
X1784157Y-1937499D01*
X1797499Y-1924157D01*
X1800814Y-1919195D01*
X1801979Y-1913342D01*
Y-1886658D01*
X1800814Y-1880805D01*
X1797499Y-1875843D01*
X1784157Y-1862501D01*
X1779195Y-1859186D01*
X1773342Y-1858021D01*
D02*
G37*
G36*
X1573342D02*
X1546658D01*
X1540805Y-1859186D01*
X1535843Y-1862501D01*
X1522501Y-1875843D01*
X1519186Y-1880805D01*
X1518021Y-1886658D01*
Y-1913342D01*
X1519186Y-1919195D01*
X1522501Y-1924157D01*
X1535843Y-1937499D01*
X1540805Y-1940814D01*
X1546658Y-1941979D01*
X1573342D01*
X1579195Y-1940814D01*
X1584157Y-1937499D01*
X1597499Y-1924157D01*
X1600814Y-1919195D01*
X1601979Y-1913342D01*
Y-1886658D01*
X1600814Y-1880805D01*
X1597499Y-1875843D01*
X1584157Y-1862501D01*
X1579195Y-1859186D01*
X1573342Y-1858021D01*
D02*
G37*
G36*
X1373342D02*
X1346658D01*
X1340805Y-1859186D01*
X1335843Y-1862501D01*
X1322501Y-1875843D01*
X1319186Y-1880805D01*
X1318021Y-1886658D01*
Y-1913342D01*
X1319186Y-1919195D01*
X1322501Y-1924157D01*
X1335843Y-1937499D01*
X1340805Y-1940814D01*
X1346658Y-1941979D01*
X1373342D01*
X1379195Y-1940814D01*
X1384157Y-1937499D01*
X1397499Y-1924157D01*
X1400814Y-1919195D01*
X1401979Y-1913342D01*
Y-1886658D01*
X1400814Y-1880805D01*
X1397499Y-1875843D01*
X1384157Y-1862501D01*
X1379195Y-1859186D01*
X1373342Y-1858021D01*
D02*
G37*
G36*
X1473342D02*
X1446658D01*
X1440805Y-1859186D01*
X1435843Y-1862501D01*
X1422501Y-1875843D01*
X1419186Y-1880805D01*
X1418021Y-1886658D01*
Y-1913342D01*
X1419186Y-1919195D01*
X1422501Y-1924157D01*
X1435843Y-1937499D01*
X1440805Y-1940814D01*
X1446658Y-1941979D01*
X1473342D01*
X1479195Y-1940814D01*
X1484157Y-1937499D01*
X1497499Y-1924157D01*
X1500814Y-1919195D01*
X1501979Y-1913342D01*
Y-1886658D01*
X1500814Y-1880805D01*
X1497499Y-1875843D01*
X1484157Y-1862501D01*
X1479195Y-1859186D01*
X1473342Y-1858021D01*
D02*
G37*
G36*
X50238Y-1912157D02*
X48678Y-1920000D01*
X50238Y-1927843D01*
X58081Y-1920000D01*
X50238Y-1912157D01*
D02*
G37*
G36*
X2178238D02*
X2176678Y-1920000D01*
X2178238Y-1927843D01*
X2186081Y-1920000D01*
X2178238Y-1912157D01*
D02*
G37*
G36*
X1860000Y-1913920D02*
X1841327Y-1932593D01*
X1843585Y-1934102D01*
X1846658Y-1934713D01*
X1873342D01*
X1876415Y-1934102D01*
X1878673Y-1932593D01*
X1860000Y-1913920D01*
D02*
G37*
G36*
X160000D02*
X141327Y-1932593D01*
X143585Y-1934102D01*
X146658Y-1934713D01*
X173342D01*
X176415Y-1934102D01*
X178673Y-1932593D01*
X160000Y-1913920D01*
D02*
G37*
G36*
X260000D02*
X241327Y-1932593D01*
X243585Y-1934102D01*
X246658Y-1934713D01*
X273342D01*
X276415Y-1934102D01*
X278673Y-1932593D01*
X260000Y-1913920D01*
D02*
G37*
G36*
X473342Y-1858021D02*
X446658D01*
X440805Y-1859186D01*
X435843Y-1862501D01*
X422501Y-1875843D01*
X419185Y-1880805D01*
X418021Y-1886658D01*
Y-1913342D01*
X419185Y-1919195D01*
X422501Y-1924157D01*
X435843Y-1937499D01*
X440805Y-1940814D01*
X446658Y-1941979D01*
X473342D01*
X479195Y-1940814D01*
X484157Y-1937499D01*
X497499Y-1924157D01*
X500815Y-1919195D01*
X501979Y-1913342D01*
Y-1886658D01*
X500815Y-1880805D01*
X497499Y-1875843D01*
X484157Y-1862501D01*
X479195Y-1859186D01*
X473342Y-1858021D01*
D02*
G37*
G36*
X573342D02*
X546658D01*
X540805Y-1859186D01*
X535843Y-1862501D01*
X522501Y-1875843D01*
X519186Y-1880805D01*
X518021Y-1886658D01*
Y-1913342D01*
X519186Y-1919195D01*
X522501Y-1924157D01*
X535843Y-1937499D01*
X540805Y-1940814D01*
X546658Y-1941979D01*
X573342D01*
X579195Y-1940814D01*
X584157Y-1937499D01*
X597499Y-1924157D01*
X600814Y-1919195D01*
X601979Y-1913342D01*
Y-1886658D01*
X600814Y-1880805D01*
X597499Y-1875843D01*
X584157Y-1862501D01*
X579195Y-1859186D01*
X573342Y-1858021D01*
D02*
G37*
G36*
X373342D02*
X346658D01*
X340805Y-1859186D01*
X335843Y-1862501D01*
X322501Y-1875843D01*
X319185Y-1880805D01*
X318021Y-1886658D01*
Y-1913342D01*
X319185Y-1919195D01*
X322501Y-1924157D01*
X335843Y-1937499D01*
X340805Y-1940814D01*
X346658Y-1941979D01*
X373342D01*
X379195Y-1940814D01*
X384157Y-1937499D01*
X397499Y-1924157D01*
X400815Y-1919195D01*
X401979Y-1913342D01*
Y-1886658D01*
X400815Y-1880805D01*
X397499Y-1875843D01*
X384157Y-1862501D01*
X379195Y-1859186D01*
X373342Y-1858021D01*
D02*
G37*
G36*
X72000Y-1933919D02*
X64157Y-1941762D01*
X72000Y-1943322D01*
X79843Y-1941762D01*
X72000Y-1933919D01*
D02*
G37*
G36*
X2200000D02*
X2192157Y-1941762D01*
X2200000Y-1943322D01*
X2207843Y-1941762D01*
X2200000Y-1933919D01*
D02*
G37*
G36*
X1173342Y-1858021D02*
X1146658D01*
X1140805Y-1859186D01*
X1135843Y-1862501D01*
X1122501Y-1875843D01*
X1119186Y-1880805D01*
X1118021Y-1886658D01*
Y-1913342D01*
X1119186Y-1919195D01*
X1122501Y-1924157D01*
X1135843Y-1937499D01*
X1140805Y-1940814D01*
X1146658Y-1941979D01*
X1173342D01*
X1179195Y-1940814D01*
X1184157Y-1937499D01*
X1197499Y-1924157D01*
X1200814Y-1919195D01*
X1201979Y-1913342D01*
Y-1886658D01*
X1200814Y-1880805D01*
X1197499Y-1875843D01*
X1184157Y-1862501D01*
X1179195Y-1859186D01*
X1173342Y-1858021D01*
D02*
G37*
G36*
X1273342D02*
X1246658D01*
X1240805Y-1859186D01*
X1235843Y-1862501D01*
X1222501Y-1875843D01*
X1219186Y-1880805D01*
X1218021Y-1886658D01*
Y-1913342D01*
X1219186Y-1919195D01*
X1222501Y-1924157D01*
X1235843Y-1937499D01*
X1240805Y-1940814D01*
X1246658Y-1941979D01*
X1273342D01*
X1279195Y-1940814D01*
X1284157Y-1937499D01*
X1297499Y-1924157D01*
X1300814Y-1919195D01*
X1301979Y-1913342D01*
Y-1886658D01*
X1300814Y-1880805D01*
X1297499Y-1875843D01*
X1284157Y-1862501D01*
X1279195Y-1859186D01*
X1273342Y-1858021D01*
D02*
G37*
G36*
X1073342D02*
X1046658D01*
X1040805Y-1859186D01*
X1035843Y-1862501D01*
X1022501Y-1875843D01*
X1019186Y-1880805D01*
X1018021Y-1886658D01*
Y-1913342D01*
X1019186Y-1919195D01*
X1022501Y-1924157D01*
X1035843Y-1937499D01*
X1040805Y-1940814D01*
X1046658Y-1941979D01*
X1073342D01*
X1079195Y-1940814D01*
X1084157Y-1937499D01*
X1097499Y-1924157D01*
X1100814Y-1919195D01*
X1101979Y-1913342D01*
Y-1886658D01*
X1100814Y-1880805D01*
X1097499Y-1875843D01*
X1084157Y-1862501D01*
X1079195Y-1859186D01*
X1073342Y-1858021D01*
D02*
G37*
G36*
X873342D02*
X846658D01*
X840805Y-1859186D01*
X835843Y-1862501D01*
X822501Y-1875843D01*
X819186Y-1880805D01*
X818021Y-1886658D01*
Y-1913342D01*
X819186Y-1919195D01*
X822501Y-1924157D01*
X835843Y-1937499D01*
X840805Y-1940814D01*
X846658Y-1941979D01*
X873342D01*
X879195Y-1940814D01*
X884157Y-1937499D01*
X897499Y-1924157D01*
X900814Y-1919195D01*
X901979Y-1913342D01*
Y-1886658D01*
X900814Y-1880805D01*
X897499Y-1875843D01*
X884157Y-1862501D01*
X879195Y-1859186D01*
X873342Y-1858021D01*
D02*
G37*
G36*
X973342D02*
X946658D01*
X940805Y-1859186D01*
X935843Y-1862501D01*
X922501Y-1875843D01*
X919186Y-1880805D01*
X918021Y-1886658D01*
Y-1913342D01*
X919186Y-1919195D01*
X922501Y-1924157D01*
X935843Y-1937499D01*
X940805Y-1940814D01*
X946658Y-1941979D01*
X973342D01*
X979195Y-1940814D01*
X984157Y-1937499D01*
X997499Y-1924157D01*
X1000814Y-1919195D01*
X1001979Y-1913342D01*
Y-1886658D01*
X1000814Y-1880805D01*
X997499Y-1875843D01*
X984157Y-1862501D01*
X979195Y-1859186D01*
X973342Y-1858021D01*
D02*
G37*
G36*
X373342Y-1758021D02*
X346658D01*
X340805Y-1759186D01*
X335843Y-1762501D01*
X322501Y-1775843D01*
X319185Y-1780805D01*
X318021Y-1786658D01*
Y-1813342D01*
X319185Y-1819195D01*
X322501Y-1824157D01*
X335843Y-1837499D01*
X340805Y-1840814D01*
X346658Y-1841979D01*
X373342D01*
X379195Y-1840814D01*
X384157Y-1837499D01*
X397499Y-1824157D01*
X400815Y-1819195D01*
X401979Y-1813342D01*
Y-1786658D01*
X400815Y-1780805D01*
X397499Y-1775843D01*
X384157Y-1762501D01*
X379195Y-1759186D01*
X373342Y-1758021D01*
D02*
G37*
G36*
X473342D02*
X446658D01*
X440805Y-1759186D01*
X435843Y-1762501D01*
X422501Y-1775843D01*
X419185Y-1780805D01*
X418021Y-1786658D01*
Y-1813342D01*
X419185Y-1819195D01*
X422501Y-1824157D01*
X435843Y-1837499D01*
X440805Y-1840814D01*
X446658Y-1841979D01*
X473342D01*
X479195Y-1840814D01*
X484157Y-1837499D01*
X497499Y-1824157D01*
X500815Y-1819195D01*
X501979Y-1813342D01*
Y-1786658D01*
X500815Y-1780805D01*
X497499Y-1775843D01*
X484157Y-1762501D01*
X479195Y-1759186D01*
X473342Y-1758021D01*
D02*
G37*
G36*
X1873342Y-1865287D02*
X1846658D01*
X1843585Y-1865898D01*
X1841326Y-1867407D01*
X1860000Y-1886081D01*
X1878674Y-1867408D01*
X1876415Y-1865898D01*
X1873342Y-1865287D01*
D02*
G37*
G36*
X173342D02*
X146658D01*
X143585Y-1865898D01*
X141326Y-1867407D01*
X160000Y-1886081D01*
X178674Y-1867408D01*
X176415Y-1865898D01*
X173342Y-1865287D01*
D02*
G37*
G36*
X273342D02*
X246658D01*
X243585Y-1865898D01*
X241326Y-1867407D01*
X260000Y-1886081D01*
X278674Y-1867408D01*
X276415Y-1865898D01*
X273342Y-1865287D01*
D02*
G37*
G36*
X1173342Y-1758021D02*
X1146658D01*
X1140805Y-1759186D01*
X1135843Y-1762501D01*
X1122501Y-1775843D01*
X1119186Y-1780805D01*
X1118021Y-1786658D01*
Y-1813342D01*
X1119186Y-1819195D01*
X1122501Y-1824157D01*
X1135843Y-1837499D01*
X1140805Y-1840814D01*
X1146658Y-1841979D01*
X1173342D01*
X1179195Y-1840814D01*
X1184157Y-1837499D01*
X1197499Y-1824157D01*
X1200814Y-1819195D01*
X1201979Y-1813342D01*
Y-1786658D01*
X1200814Y-1780805D01*
X1197499Y-1775843D01*
X1184157Y-1762501D01*
X1179195Y-1759186D01*
X1173342Y-1758021D01*
D02*
G37*
G36*
X1273342D02*
X1246658D01*
X1240805Y-1759186D01*
X1235843Y-1762501D01*
X1222501Y-1775843D01*
X1219186Y-1780805D01*
X1218021Y-1786658D01*
Y-1813342D01*
X1219186Y-1819195D01*
X1222501Y-1824157D01*
X1235843Y-1837499D01*
X1240805Y-1840814D01*
X1246658Y-1841979D01*
X1273342D01*
X1279195Y-1840814D01*
X1284157Y-1837499D01*
X1297499Y-1824157D01*
X1300814Y-1819195D01*
X1301979Y-1813342D01*
Y-1786658D01*
X1300814Y-1780805D01*
X1297499Y-1775843D01*
X1284157Y-1762501D01*
X1279195Y-1759186D01*
X1273342Y-1758021D01*
D02*
G37*
G36*
X1073342D02*
X1046658D01*
X1040805Y-1759186D01*
X1035843Y-1762501D01*
X1022501Y-1775843D01*
X1019186Y-1780805D01*
X1018021Y-1786658D01*
Y-1813342D01*
X1019186Y-1819195D01*
X1022501Y-1824157D01*
X1035843Y-1837499D01*
X1040805Y-1840814D01*
X1046658Y-1841979D01*
X1073342D01*
X1079195Y-1840814D01*
X1084157Y-1837499D01*
X1097499Y-1824157D01*
X1100814Y-1819195D01*
X1101979Y-1813342D01*
Y-1786658D01*
X1100814Y-1780805D01*
X1097499Y-1775843D01*
X1084157Y-1762501D01*
X1079195Y-1759186D01*
X1073342Y-1758021D01*
D02*
G37*
G36*
X573342D02*
X546658D01*
X540805Y-1759186D01*
X535843Y-1762501D01*
X522501Y-1775843D01*
X519186Y-1780805D01*
X518021Y-1786658D01*
Y-1813342D01*
X519186Y-1819195D01*
X522501Y-1824157D01*
X535843Y-1837499D01*
X540805Y-1840814D01*
X546658Y-1841979D01*
X573342D01*
X579195Y-1840814D01*
X584157Y-1837499D01*
X597499Y-1824157D01*
X600814Y-1819195D01*
X601979Y-1813342D01*
Y-1786658D01*
X600814Y-1780805D01*
X597499Y-1775843D01*
X584157Y-1762501D01*
X579195Y-1759186D01*
X573342Y-1758021D01*
D02*
G37*
G36*
X973342D02*
X946658D01*
X940805Y-1759186D01*
X935843Y-1762501D01*
X922501Y-1775843D01*
X919186Y-1780805D01*
X918021Y-1786658D01*
Y-1813342D01*
X919186Y-1819195D01*
X922501Y-1824157D01*
X935843Y-1837499D01*
X940805Y-1840814D01*
X946658Y-1841979D01*
X973342D01*
X979195Y-1840814D01*
X984157Y-1837499D01*
X997499Y-1824157D01*
X1000814Y-1819195D01*
X1001979Y-1813342D01*
Y-1786658D01*
X1000814Y-1780805D01*
X997499Y-1775843D01*
X984157Y-1762501D01*
X979195Y-1759186D01*
X973342Y-1758021D01*
D02*
G37*
G36*
X227407Y-1881327D02*
X225898Y-1883585D01*
X225287Y-1886658D01*
Y-1913342D01*
X225898Y-1916415D01*
X227407Y-1918674D01*
X246081Y-1900001D01*
X227407Y-1881327D01*
D02*
G37*
G36*
X1827407D02*
X1825898Y-1883585D01*
X1825287Y-1886658D01*
Y-1913342D01*
X1825898Y-1916415D01*
X1827408Y-1918674D01*
X1846081Y-1900001D01*
X1827407Y-1881327D01*
D02*
G37*
G36*
X127407D02*
X125898Y-1883585D01*
X125287Y-1886658D01*
Y-1913342D01*
X125898Y-1916415D01*
X127407Y-1918674D01*
X146081Y-1900001D01*
X127407Y-1881327D01*
D02*
G37*
G36*
X93762Y-1912157D02*
X85919Y-1920000D01*
X93762Y-1927843D01*
X95322Y-1920000D01*
X93762Y-1912157D01*
D02*
G37*
G36*
X2221762D02*
X2213919Y-1920000D01*
X2221762Y-1927843D01*
X2223322Y-1920000D01*
X2221762Y-1912157D01*
D02*
G37*
G36*
X72000Y-1896678D02*
X64157Y-1898238D01*
X72000Y-1906081D01*
X79843Y-1898238D01*
X72000Y-1896678D01*
D02*
G37*
G36*
X2200000D02*
X2192157Y-1898238D01*
X2200000Y-1906081D01*
X2207843Y-1898238D01*
X2200000Y-1896678D01*
D02*
G37*
G36*
X1892593Y-1881327D02*
X1873920Y-1900001D01*
X1892593Y-1918674D01*
X1894102Y-1916415D01*
X1894713Y-1913342D01*
Y-1886658D01*
X1894102Y-1883585D01*
X1892593Y-1881327D01*
D02*
G37*
G36*
X192593D02*
X173920Y-1900001D01*
X192593Y-1918674D01*
X194102Y-1916415D01*
X194713Y-1913342D01*
Y-1886658D01*
X194102Y-1883585D01*
X192593Y-1881327D01*
D02*
G37*
G36*
X292593D02*
X273920Y-1900001D01*
X292593Y-1918674D01*
X294102Y-1916415D01*
X294713Y-1913342D01*
Y-1886658D01*
X294102Y-1883585D01*
X292593Y-1881327D01*
D02*
G37*
G36*
X2221762Y-1464157D02*
X2213919Y-1472000D01*
X2221762Y-1479843D01*
X2223322Y-1472000D01*
X2221762Y-1464157D01*
D02*
G37*
G36*
X632000Y-1569678D02*
X624157Y-1571238D01*
X632000Y-1579081D01*
X639843Y-1571238D01*
X632000Y-1569678D01*
D02*
G37*
G36*
X2200000Y-1560678D02*
X2192157Y-1562238D01*
X2200000Y-1570081D01*
X2207843Y-1562238D01*
X2200000Y-1560678D01*
D02*
G37*
G36*
X520000Y-1569678D02*
X512157Y-1571238D01*
X520000Y-1579081D01*
X527843Y-1571238D01*
X520000Y-1569678D01*
D02*
G37*
G36*
X296000D02*
X288157Y-1571238D01*
X296000Y-1579081D01*
X303843Y-1571238D01*
X296000Y-1569678D01*
D02*
G37*
G36*
X408000D02*
X400157Y-1571238D01*
X408000Y-1579081D01*
X415843Y-1571238D01*
X408000Y-1569678D01*
D02*
G37*
G36*
X1812238Y-1464157D02*
X1810678Y-1472000D01*
X1812238Y-1479843D01*
X1820081Y-1472000D01*
X1812238Y-1464157D01*
D02*
G37*
G36*
X1855762D02*
X1847919Y-1472000D01*
X1855762Y-1479843D01*
X1857322Y-1472000D01*
X1855762Y-1464157D01*
D02*
G37*
G36*
X2178238D02*
X2176678Y-1472000D01*
X2178238Y-1479843D01*
X2186081Y-1472000D01*
X2178238Y-1464157D01*
D02*
G37*
G36*
X1834000Y-1485919D02*
X1826157Y-1493762D01*
X1834000Y-1495322D01*
X1841843Y-1493762D01*
X1834000Y-1485919D01*
D02*
G37*
G36*
X2200000D02*
X2192157Y-1493762D01*
X2200000Y-1495322D01*
X2207843Y-1493762D01*
X2200000Y-1485919D01*
D02*
G37*
G36*
X1834000Y-1448678D02*
X1826157Y-1450238D01*
X1834000Y-1458081D01*
X1841843Y-1450238D01*
X1834000Y-1448678D01*
D02*
G37*
G36*
X2200000D02*
X2192157Y-1450238D01*
X2200000Y-1458081D01*
X2207843Y-1450238D01*
X2200000Y-1448678D01*
D02*
G37*
G36*
X184000Y-1569678D02*
X176157Y-1571238D01*
X184000Y-1579081D01*
X191843Y-1571238D01*
X184000Y-1569678D01*
D02*
G37*
G36*
X520000Y-1672678D02*
X512157Y-1674238D01*
X520000Y-1682081D01*
X527843Y-1674238D01*
X520000Y-1672678D01*
D02*
G37*
G36*
X632000D02*
X624157Y-1674238D01*
X632000Y-1682081D01*
X639843Y-1674238D01*
X632000Y-1672678D01*
D02*
G37*
G36*
X408000D02*
X400157Y-1674238D01*
X408000Y-1682081D01*
X415843Y-1674238D01*
X408000Y-1672678D01*
D02*
G37*
G36*
X184000D02*
X176157Y-1674238D01*
X184000Y-1682081D01*
X191843Y-1674238D01*
X184000Y-1672678D01*
D02*
G37*
G36*
X296000D02*
X288157Y-1674238D01*
X296000Y-1682081D01*
X303843Y-1674238D01*
X296000Y-1672678D01*
D02*
G37*
G36*
X72000Y-1606919D02*
X64157Y-1614762D01*
X72000Y-1616322D01*
X79843Y-1614762D01*
X72000Y-1606919D01*
D02*
G37*
G36*
X184000D02*
X176157Y-1614762D01*
X184000Y-1616322D01*
X191843Y-1614762D01*
X184000Y-1606919D01*
D02*
G37*
G36*
X1845043Y-1574396D02*
Y-1625604D01*
X1870647Y-1600000D01*
X1845043Y-1574396D01*
D02*
G37*
G36*
X1793000Y-1672678D02*
X1785157Y-1674238D01*
X1793000Y-1682081D01*
X1800843Y-1674238D01*
X1793000Y-1672678D01*
D02*
G37*
G36*
X2200000D02*
X2192157Y-1674238D01*
X2200000Y-1682081D01*
X2207843Y-1674238D01*
X2200000Y-1672678D01*
D02*
G37*
G36*
X317762Y-1688157D02*
X309919Y-1696000D01*
X317762Y-1703843D01*
X319322Y-1696000D01*
X317762Y-1688157D01*
D02*
G37*
G36*
X429762D02*
X421919Y-1696000D01*
X429762Y-1703843D01*
X431322Y-1696000D01*
X429762Y-1688157D01*
D02*
G37*
G36*
X205762D02*
X197919Y-1696000D01*
X205762Y-1703843D01*
X207322Y-1696000D01*
X205762Y-1688157D01*
D02*
G37*
G36*
X2178238D02*
X2176678Y-1696000D01*
X2178238Y-1703843D01*
X2186081Y-1696000D01*
X2178238Y-1688157D01*
D02*
G37*
G36*
X93762D02*
X85919Y-1696000D01*
X93762Y-1703843D01*
X95322Y-1696000D01*
X93762Y-1688157D01*
D02*
G37*
G36*
X2221762D02*
X2213919Y-1696000D01*
X2221762Y-1703843D01*
X2223322Y-1696000D01*
X2221762Y-1688157D01*
D02*
G37*
G36*
X72000Y-1672678D02*
X64157Y-1674238D01*
X72000Y-1682081D01*
X79843Y-1674238D01*
X72000Y-1672678D01*
D02*
G37*
G36*
X1814762Y-1688157D02*
X1806919Y-1696000D01*
X1814762Y-1703843D01*
X1816322Y-1696000D01*
X1814762Y-1688157D01*
D02*
G37*
G36*
X541762D02*
X533919Y-1696000D01*
X541762Y-1703843D01*
X543322Y-1696000D01*
X541762Y-1688157D01*
D02*
G37*
G36*
X653762D02*
X645919Y-1696000D01*
X653762Y-1703843D01*
X655322Y-1696000D01*
X653762Y-1688157D01*
D02*
G37*
G36*
X317762Y-1585157D02*
X309919Y-1593000D01*
X317762Y-1600843D01*
X319322Y-1593000D01*
X317762Y-1585157D01*
D02*
G37*
G36*
X429762D02*
X421919Y-1593000D01*
X429762Y-1600843D01*
X431322Y-1593000D01*
X429762Y-1585157D01*
D02*
G37*
G36*
X205762D02*
X197919Y-1593000D01*
X205762Y-1600843D01*
X207322Y-1593000D01*
X205762Y-1585157D01*
D02*
G37*
G36*
X610238D02*
X608678Y-1593000D01*
X610238Y-1600843D01*
X618081Y-1593000D01*
X610238Y-1585157D01*
D02*
G37*
G36*
X93762D02*
X85919Y-1593000D01*
X93762Y-1600843D01*
X95322Y-1593000D01*
X93762Y-1585157D01*
D02*
G37*
G36*
X2221762Y-1576157D02*
X2213919Y-1584000D01*
X2221762Y-1591843D01*
X2223322Y-1584000D01*
X2221762Y-1576157D01*
D02*
G37*
G36*
X72000Y-1569678D02*
X64157Y-1571238D01*
X72000Y-1579081D01*
X79843Y-1571238D01*
X72000Y-1569678D01*
D02*
G37*
G36*
X2178238Y-1576157D02*
X2176678Y-1584000D01*
X2178238Y-1591843D01*
X2186081Y-1584000D01*
X2178238Y-1576157D01*
D02*
G37*
G36*
X541762Y-1585157D02*
X533919Y-1593000D01*
X541762Y-1600843D01*
X543322Y-1593000D01*
X541762Y-1585157D01*
D02*
G37*
G36*
X653762D02*
X645919Y-1593000D01*
X653762Y-1600843D01*
X655322Y-1593000D01*
X653762Y-1585157D01*
D02*
G37*
G36*
X632000Y-1606919D02*
X624157Y-1614762D01*
X632000Y-1616322D01*
X639843Y-1614762D01*
X632000Y-1606919D01*
D02*
G37*
G36*
X2200000Y-1597919D02*
X2192157Y-1605762D01*
X2200000Y-1607322D01*
X2207843Y-1605762D01*
X2200000Y-1597919D01*
D02*
G37*
G36*
X520000Y-1606919D02*
X512157Y-1614762D01*
X520000Y-1616322D01*
X527843Y-1614762D01*
X520000Y-1606919D01*
D02*
G37*
G36*
X296000D02*
X288157Y-1614762D01*
X296000Y-1616322D01*
X303843Y-1614762D01*
X296000Y-1606919D01*
D02*
G37*
G36*
X408000D02*
X400157Y-1614762D01*
X408000Y-1616322D01*
X415843Y-1614762D01*
X408000Y-1606919D01*
D02*
G37*
G36*
X386238Y-1585157D02*
X384678Y-1593000D01*
X386238Y-1600843D01*
X394081Y-1593000D01*
X386238Y-1585157D01*
D02*
G37*
G36*
X498238D02*
X496678Y-1593000D01*
X498238Y-1600843D01*
X506081Y-1593000D01*
X498238Y-1585157D01*
D02*
G37*
G36*
X274238D02*
X272678Y-1593000D01*
X274238Y-1600843D01*
X282081Y-1593000D01*
X274238Y-1585157D01*
D02*
G37*
G36*
X50238D02*
X48678Y-1593000D01*
X50238Y-1600843D01*
X58081Y-1593000D01*
X50238Y-1585157D01*
D02*
G37*
G36*
X162238D02*
X160678Y-1593000D01*
X162238Y-1600843D01*
X170081Y-1593000D01*
X162238Y-1585157D01*
D02*
G37*
G36*
X1954238Y-296157D02*
X1952678Y-304000D01*
X1954238Y-311843D01*
X1962081Y-304000D01*
X1954238Y-296157D01*
D02*
G37*
G36*
X93762D02*
X85919Y-304000D01*
X93762Y-311843D01*
X95322Y-304000D01*
X93762Y-296157D01*
D02*
G37*
G36*
X1394238D02*
X1392678Y-304000D01*
X1394238Y-311843D01*
X1402081Y-304000D01*
X1394238Y-296157D01*
D02*
G37*
G36*
X1170238D02*
X1168678Y-304000D01*
X1170238Y-311843D01*
X1178081Y-304000D01*
X1170238Y-296157D01*
D02*
G37*
G36*
X1282238D02*
X1280678Y-304000D01*
X1282238Y-311843D01*
X1290081Y-304000D01*
X1282238Y-296157D01*
D02*
G37*
G36*
X541762D02*
X533919Y-304000D01*
X541762Y-311843D01*
X543322Y-304000D01*
X541762Y-296157D01*
D02*
G37*
G36*
X653762D02*
X645919Y-304000D01*
X653762Y-311843D01*
X655322Y-304000D01*
X653762Y-296157D01*
D02*
G37*
G36*
X429762D02*
X421919Y-304000D01*
X429762Y-311843D01*
X431322Y-304000D01*
X429762Y-296157D01*
D02*
G37*
G36*
X205762D02*
X197919Y-304000D01*
X205762Y-311843D01*
X207322Y-304000D01*
X205762Y-296157D01*
D02*
G37*
G36*
X317762D02*
X309919Y-304000D01*
X317762Y-311843D01*
X319322Y-304000D01*
X317762Y-296157D01*
D02*
G37*
G36*
X1842238D02*
X1840678Y-304000D01*
X1842238Y-311843D01*
X1850081Y-304000D01*
X1842238Y-296157D01*
D02*
G37*
G36*
X2066238D02*
X2064678Y-304000D01*
X2066238Y-311843D01*
X2074081Y-304000D01*
X2066238Y-296157D01*
D02*
G37*
G36*
X1730238D02*
X1728678Y-304000D01*
X1730238Y-311843D01*
X1738081Y-304000D01*
X1730238Y-296157D01*
D02*
G37*
G36*
X1506238D02*
X1504678Y-304000D01*
X1506238Y-311843D01*
X1514081Y-304000D01*
X1506238Y-296157D01*
D02*
G37*
G36*
X1618238D02*
X1616678Y-304000D01*
X1618238Y-311843D01*
X1626081Y-304000D01*
X1618238Y-296157D01*
D02*
G37*
G36*
X386238D02*
X384678Y-304000D01*
X386238Y-311843D01*
X394081Y-304000D01*
X386238Y-296157D01*
D02*
G37*
G36*
X834238D02*
X832678Y-304000D01*
X834238Y-311843D01*
X842081Y-304000D01*
X834238Y-296157D01*
D02*
G37*
G36*
X274238D02*
X272678Y-304000D01*
X274238Y-311843D01*
X282081Y-304000D01*
X274238Y-296157D01*
D02*
G37*
G36*
X2178238D02*
X2176678Y-304000D01*
X2178238Y-311843D01*
X2186081Y-304000D01*
X2178238Y-296157D01*
D02*
G37*
G36*
X50238D02*
X48678Y-304000D01*
X50238Y-311843D01*
X58081Y-304000D01*
X50238Y-296157D01*
D02*
G37*
G36*
X765762D02*
X757919Y-304000D01*
X765762Y-311843D01*
X767322Y-304000D01*
X765762Y-296157D01*
D02*
G37*
G36*
X72000Y-280678D02*
X64157Y-282238D01*
X72000Y-290081D01*
X79843Y-282238D01*
X72000Y-280678D01*
D02*
G37*
G36*
X184000D02*
X176157Y-282238D01*
X184000Y-290081D01*
X191843Y-282238D01*
X184000Y-280678D01*
D02*
G37*
G36*
X2221762Y-296157D02*
X2213919Y-304000D01*
X2221762Y-311843D01*
X2223322Y-304000D01*
X2221762Y-296157D01*
D02*
G37*
G36*
X1997762D02*
X1989919Y-304000D01*
X1997762Y-311843D01*
X1999322Y-304000D01*
X1997762Y-296157D01*
D02*
G37*
G36*
X2109762D02*
X2101919Y-304000D01*
X2109762Y-311843D01*
X2111322Y-304000D01*
X2109762Y-296157D01*
D02*
G37*
G36*
X632000Y-280678D02*
X624157Y-282238D01*
X632000Y-290081D01*
X639843Y-282238D01*
X632000Y-280678D01*
D02*
G37*
G36*
X744000D02*
X736157Y-282238D01*
X744000Y-290081D01*
X751843Y-282238D01*
X744000Y-280678D01*
D02*
G37*
G36*
X520000D02*
X512157Y-282238D01*
X520000Y-290081D01*
X527843Y-282238D01*
X520000Y-280678D01*
D02*
G37*
G36*
X296000D02*
X288157Y-282238D01*
X296000Y-290081D01*
X303843Y-282238D01*
X296000Y-280678D01*
D02*
G37*
G36*
X408000D02*
X400157Y-282238D01*
X408000Y-290081D01*
X415843Y-282238D01*
X408000Y-280678D01*
D02*
G37*
G36*
X1213762Y-296157D02*
X1205919Y-304000D01*
X1213762Y-311843D01*
X1215322Y-304000D01*
X1213762Y-296157D01*
D02*
G37*
G36*
X1325762D02*
X1317919Y-304000D01*
X1325762Y-311843D01*
X1327322Y-304000D01*
X1325762Y-296157D01*
D02*
G37*
G36*
X1101762D02*
X1093919Y-304000D01*
X1101762Y-311843D01*
X1103322Y-304000D01*
X1101762Y-296157D01*
D02*
G37*
G36*
X877762D02*
X869919Y-304000D01*
X877762Y-311843D01*
X879322Y-304000D01*
X877762Y-296157D01*
D02*
G37*
G36*
X989762D02*
X981919Y-304000D01*
X989762Y-311843D01*
X991322Y-304000D01*
X989762Y-296157D01*
D02*
G37*
G36*
X1773762D02*
X1765919Y-304000D01*
X1773762Y-311843D01*
X1775322Y-304000D01*
X1773762Y-296157D01*
D02*
G37*
G36*
X1885762D02*
X1877919Y-304000D01*
X1885762Y-311843D01*
X1887322Y-304000D01*
X1885762Y-296157D01*
D02*
G37*
G36*
X1661762D02*
X1653919Y-304000D01*
X1661762Y-311843D01*
X1663322Y-304000D01*
X1661762Y-296157D01*
D02*
G37*
G36*
X1437762D02*
X1429919Y-304000D01*
X1437762Y-311843D01*
X1439322Y-304000D01*
X1437762Y-296157D01*
D02*
G37*
G36*
X1549762D02*
X1541919Y-304000D01*
X1549762Y-311843D01*
X1551322Y-304000D01*
X1549762Y-296157D01*
D02*
G37*
G36*
X1058238D02*
X1056678Y-304000D01*
X1058238Y-311843D01*
X1066081Y-304000D01*
X1058238Y-296157D01*
D02*
G37*
G36*
X2221762Y-456157D02*
X2213919Y-464000D01*
X2221762Y-471843D01*
X2223322Y-464000D01*
X2221762Y-456157D01*
D02*
G37*
G36*
X1693000Y-440678D02*
X1685157Y-442238D01*
X1693000Y-450081D01*
X1700843Y-442238D01*
X1693000Y-440678D01*
D02*
G37*
G36*
X1714762Y-456157D02*
X1706919Y-464000D01*
X1714762Y-471843D01*
X1716322Y-464000D01*
X1714762Y-456157D01*
D02*
G37*
G36*
X1671238D02*
X1669678Y-464000D01*
X1671238Y-471843D01*
X1679081Y-464000D01*
X1671238Y-456157D01*
D02*
G37*
G36*
X2178238D02*
X2176678Y-464000D01*
X2178238Y-471843D01*
X2186081Y-464000D01*
X2178238Y-456157D01*
D02*
G37*
G36*
X296000Y-317919D02*
X288157Y-325762D01*
X296000Y-327322D01*
X303843Y-325762D01*
X296000Y-317919D01*
D02*
G37*
G36*
X408000D02*
X400157Y-325762D01*
X408000Y-327322D01*
X415843Y-325762D01*
X408000Y-317919D01*
D02*
G37*
G36*
X184000D02*
X176157Y-325762D01*
X184000Y-327322D01*
X191843Y-325762D01*
X184000Y-317919D01*
D02*
G37*
G36*
X2200000Y-440678D02*
X2192157Y-442238D01*
X2200000Y-450081D01*
X2207843Y-442238D01*
X2200000Y-440678D01*
D02*
G37*
G36*
X72000Y-317919D02*
X64157Y-325762D01*
X72000Y-327322D01*
X79843Y-325762D01*
X72000Y-317919D01*
D02*
G37*
G36*
X1693000Y-477919D02*
X1685157Y-485762D01*
X1693000Y-487322D01*
X1700843Y-485762D01*
X1693000Y-477919D01*
D02*
G37*
G36*
X2200000D02*
X2192157Y-485762D01*
X2200000Y-487322D01*
X2207843Y-485762D01*
X2200000Y-477919D01*
D02*
G37*
G36*
X520000Y-317919D02*
X512157Y-325762D01*
X520000Y-327322D01*
X527843Y-325762D01*
X520000Y-317919D01*
D02*
G37*
G36*
X2088000D02*
X2080157Y-325762D01*
X2088000Y-327322D01*
X2095843Y-325762D01*
X2088000Y-317919D01*
D02*
G37*
G36*
X2200000D02*
X2192157Y-325762D01*
X2200000Y-327322D01*
X2207843Y-325762D01*
X2200000Y-317919D01*
D02*
G37*
G36*
X1976000D02*
X1968157Y-325762D01*
X1976000Y-327322D01*
X1983843Y-325762D01*
X1976000Y-317919D01*
D02*
G37*
G36*
X1752000D02*
X1744157Y-325762D01*
X1752000Y-327322D01*
X1759843Y-325762D01*
X1752000Y-317919D01*
D02*
G37*
G36*
X1864000D02*
X1856157Y-325762D01*
X1864000Y-327322D01*
X1871843Y-325762D01*
X1864000Y-317919D01*
D02*
G37*
G36*
X722238Y-296157D02*
X720678Y-304000D01*
X722238Y-311843D01*
X730081Y-304000D01*
X722238Y-296157D01*
D02*
G37*
G36*
X946238D02*
X944678Y-304000D01*
X946238Y-311843D01*
X954081Y-304000D01*
X946238Y-296157D01*
D02*
G37*
G36*
X610238D02*
X608678Y-304000D01*
X610238Y-311843D01*
X618081Y-304000D01*
X610238Y-296157D01*
D02*
G37*
G36*
X162238D02*
X160678Y-304000D01*
X162238Y-311843D01*
X170081Y-304000D01*
X162238Y-296157D01*
D02*
G37*
G36*
X498238D02*
X496678Y-304000D01*
X498238Y-311843D01*
X506081Y-304000D01*
X498238Y-296157D01*
D02*
G37*
G36*
X968000Y-317919D02*
X960157Y-325762D01*
X968000Y-327322D01*
X975843Y-325762D01*
X968000Y-317919D01*
D02*
G37*
G36*
X1080000D02*
X1072157Y-325762D01*
X1080000Y-327322D01*
X1087843Y-325762D01*
X1080000Y-317919D01*
D02*
G37*
G36*
X856000D02*
X848157Y-325762D01*
X856000Y-327322D01*
X863843Y-325762D01*
X856000Y-317919D01*
D02*
G37*
G36*
X632000D02*
X624157Y-325762D01*
X632000Y-327322D01*
X639843Y-325762D01*
X632000Y-317919D01*
D02*
G37*
G36*
X744000D02*
X736157Y-325762D01*
X744000Y-327322D01*
X751843Y-325762D01*
X744000Y-317919D01*
D02*
G37*
G36*
X1528000D02*
X1520157Y-325762D01*
X1528000Y-327322D01*
X1535843Y-325762D01*
X1528000Y-317919D01*
D02*
G37*
G36*
X1640000D02*
X1632157Y-325762D01*
X1640000Y-327322D01*
X1647843Y-325762D01*
X1640000Y-317919D01*
D02*
G37*
G36*
X1416000D02*
X1408157Y-325762D01*
X1416000Y-327322D01*
X1423843Y-325762D01*
X1416000Y-317919D01*
D02*
G37*
G36*
X1192000D02*
X1184157Y-325762D01*
X1192000Y-327322D01*
X1199843Y-325762D01*
X1192000Y-317919D01*
D02*
G37*
G36*
X1304000D02*
X1296157Y-325762D01*
X1304000Y-327322D01*
X1311843Y-325762D01*
X1304000Y-317919D01*
D02*
G37*
G36*
X856000Y-280678D02*
X848157Y-282238D01*
X856000Y-290081D01*
X863843Y-282238D01*
X856000Y-280678D01*
D02*
G37*
G36*
X1373342Y-58021D02*
X1346658D01*
X1340805Y-59185D01*
X1335843Y-62501D01*
X1322501Y-75843D01*
X1319186Y-80805D01*
X1318021Y-86658D01*
Y-113342D01*
X1319186Y-119195D01*
X1322501Y-124157D01*
X1335843Y-137499D01*
X1340805Y-140815D01*
X1346658Y-141979D01*
X1373342D01*
X1379195Y-140815D01*
X1384157Y-137499D01*
X1397499Y-124157D01*
X1400814Y-119195D01*
X1401979Y-113342D01*
Y-86658D01*
X1400814Y-80805D01*
X1397499Y-75843D01*
X1384157Y-62501D01*
X1379195Y-59185D01*
X1373342Y-58021D01*
D02*
G37*
G36*
X1473342D02*
X1446658D01*
X1440805Y-59185D01*
X1435843Y-62501D01*
X1422501Y-75843D01*
X1419186Y-80805D01*
X1418021Y-86658D01*
Y-113342D01*
X1419186Y-119195D01*
X1422501Y-124157D01*
X1435843Y-137499D01*
X1440805Y-140815D01*
X1446658Y-141979D01*
X1473342D01*
X1479195Y-140815D01*
X1484157Y-137499D01*
X1497499Y-124157D01*
X1500814Y-119195D01*
X1501979Y-113342D01*
Y-86658D01*
X1500814Y-80805D01*
X1497499Y-75843D01*
X1484157Y-62501D01*
X1479195Y-59185D01*
X1473342Y-58021D01*
D02*
G37*
G36*
X1273342D02*
X1246658D01*
X1240805Y-59185D01*
X1235843Y-62501D01*
X1222501Y-75843D01*
X1219186Y-80805D01*
X1218021Y-86658D01*
Y-113342D01*
X1219186Y-119195D01*
X1222501Y-124157D01*
X1235843Y-137499D01*
X1240805Y-140815D01*
X1246658Y-141979D01*
X1273342D01*
X1279195Y-140815D01*
X1284157Y-137499D01*
X1297499Y-124157D01*
X1300814Y-119195D01*
X1301979Y-113342D01*
Y-86658D01*
X1300814Y-80805D01*
X1297499Y-75843D01*
X1284157Y-62501D01*
X1279195Y-59185D01*
X1273342Y-58021D01*
D02*
G37*
G36*
X1073342D02*
X1046658D01*
X1040805Y-59185D01*
X1035843Y-62501D01*
X1022501Y-75843D01*
X1019186Y-80805D01*
X1018021Y-86658D01*
Y-113342D01*
X1019186Y-119195D01*
X1022501Y-124157D01*
X1035843Y-137499D01*
X1040805Y-140815D01*
X1046658Y-141979D01*
X1073342D01*
X1079195Y-140815D01*
X1084157Y-137499D01*
X1097499Y-124157D01*
X1100814Y-119195D01*
X1101979Y-113342D01*
Y-86658D01*
X1100814Y-80805D01*
X1097499Y-75843D01*
X1084157Y-62501D01*
X1079195Y-59185D01*
X1073342Y-58021D01*
D02*
G37*
G36*
X1173342D02*
X1146658D01*
X1140805Y-59185D01*
X1135843Y-62501D01*
X1122501Y-75843D01*
X1119186Y-80805D01*
X1118021Y-86658D01*
Y-113342D01*
X1119186Y-119195D01*
X1122501Y-124157D01*
X1135843Y-137499D01*
X1140805Y-140815D01*
X1146658Y-141979D01*
X1173342D01*
X1179195Y-140815D01*
X1184157Y-137499D01*
X1197499Y-124157D01*
X1200814Y-119195D01*
X1201979Y-113342D01*
Y-86658D01*
X1200814Y-80805D01*
X1197499Y-75843D01*
X1184157Y-62501D01*
X1179195Y-59185D01*
X1173342Y-58021D01*
D02*
G37*
G36*
X1873342D02*
X1846658D01*
X1840805Y-59185D01*
X1835843Y-62501D01*
X1822501Y-75843D01*
X1819186Y-80805D01*
X1818021Y-86658D01*
Y-113342D01*
X1819186Y-119195D01*
X1822501Y-124157D01*
X1835843Y-137499D01*
X1840805Y-140815D01*
X1846658Y-141979D01*
X1873342D01*
X1879195Y-140815D01*
X1884157Y-137499D01*
X1897499Y-124157D01*
X1900814Y-119195D01*
X1901979Y-113342D01*
Y-86658D01*
X1900814Y-80805D01*
X1897499Y-75843D01*
X1884157Y-62501D01*
X1879195Y-59185D01*
X1873342Y-58021D01*
D02*
G37*
G36*
X1973342D02*
X1946658D01*
X1940805Y-59185D01*
X1935843Y-62501D01*
X1922501Y-75843D01*
X1919186Y-80805D01*
X1918021Y-86658D01*
Y-113342D01*
X1919186Y-119195D01*
X1922501Y-124157D01*
X1935843Y-137499D01*
X1940805Y-140815D01*
X1946658Y-141979D01*
X1973342D01*
X1979195Y-140815D01*
X1984157Y-137499D01*
X1997499Y-124157D01*
X2000814Y-119195D01*
X2001979Y-113342D01*
Y-86658D01*
X2000814Y-80805D01*
X1997499Y-75843D01*
X1984157Y-62501D01*
X1979195Y-59185D01*
X1973342Y-58021D01*
D02*
G37*
G36*
X1773342D02*
X1746658D01*
X1740805Y-59185D01*
X1735843Y-62501D01*
X1722501Y-75843D01*
X1719186Y-80805D01*
X1718021Y-86658D01*
Y-113342D01*
X1719186Y-119195D01*
X1722501Y-124157D01*
X1735843Y-137499D01*
X1740805Y-140815D01*
X1746658Y-141979D01*
X1773342D01*
X1779195Y-140815D01*
X1784157Y-137499D01*
X1797499Y-124157D01*
X1800814Y-119195D01*
X1801979Y-113342D01*
Y-86658D01*
X1800814Y-80805D01*
X1797499Y-75843D01*
X1784157Y-62501D01*
X1779195Y-59185D01*
X1773342Y-58021D01*
D02*
G37*
G36*
X1573342D02*
X1546658D01*
X1540805Y-59185D01*
X1535843Y-62501D01*
X1522501Y-75843D01*
X1519186Y-80805D01*
X1518021Y-86658D01*
Y-113342D01*
X1519186Y-119195D01*
X1522501Y-124157D01*
X1535843Y-137499D01*
X1540805Y-140815D01*
X1546658Y-141979D01*
X1573342D01*
X1579195Y-140815D01*
X1584157Y-137499D01*
X1597499Y-124157D01*
X1600814Y-119195D01*
X1601979Y-113342D01*
Y-86658D01*
X1600814Y-80805D01*
X1597499Y-75843D01*
X1584157Y-62501D01*
X1579195Y-59185D01*
X1573342Y-58021D01*
D02*
G37*
G36*
X1673342D02*
X1646658D01*
X1640805Y-59185D01*
X1635843Y-62501D01*
X1622501Y-75843D01*
X1619186Y-80805D01*
X1618021Y-86658D01*
Y-113342D01*
X1619186Y-119195D01*
X1622501Y-124157D01*
X1635843Y-137499D01*
X1640805Y-140815D01*
X1646658Y-141979D01*
X1673342D01*
X1679195Y-140815D01*
X1684157Y-137499D01*
X1697499Y-124157D01*
X1700814Y-119195D01*
X1701979Y-113342D01*
Y-86658D01*
X1700814Y-80805D01*
X1697499Y-75843D01*
X1684157Y-62501D01*
X1679195Y-59185D01*
X1673342Y-58021D01*
D02*
G37*
G36*
X2200000Y-168678D02*
X2192157Y-170238D01*
X2200000Y-178081D01*
X2207843Y-170238D01*
X2200000Y-168678D01*
D02*
G37*
G36*
X473342Y-58021D02*
X446658D01*
X440805Y-59185D01*
X435843Y-62501D01*
X422501Y-75843D01*
X419185Y-80805D01*
X418021Y-86658D01*
Y-113342D01*
X419185Y-119195D01*
X422501Y-124157D01*
X435843Y-137499D01*
X440805Y-140815D01*
X446658Y-141979D01*
X473342D01*
X479195Y-140815D01*
X484157Y-137499D01*
X497499Y-124157D01*
X500815Y-119195D01*
X501979Y-113342D01*
Y-86658D01*
X500815Y-80805D01*
X497499Y-75843D01*
X484157Y-62501D01*
X479195Y-59185D01*
X473342Y-58021D01*
D02*
G37*
G36*
X72000Y-168678D02*
X64157Y-170238D01*
X72000Y-178081D01*
X79843Y-170238D01*
X72000Y-168678D01*
D02*
G37*
G36*
X173342Y-165287D02*
X146658D01*
X143585Y-165898D01*
X141326Y-167407D01*
X160000Y-186081D01*
X178674Y-167407D01*
X176415Y-165898D01*
X173342Y-165287D01*
D02*
G37*
G36*
X273342D02*
X246658D01*
X243585Y-165898D01*
X241326Y-167407D01*
X260000Y-186081D01*
X278674Y-167407D01*
X276415Y-165898D01*
X273342Y-165287D01*
D02*
G37*
G36*
X873342Y-58021D02*
X846658D01*
X840805Y-59185D01*
X835843Y-62501D01*
X822501Y-75843D01*
X819186Y-80805D01*
X818021Y-86658D01*
Y-113342D01*
X819186Y-119195D01*
X822501Y-124157D01*
X835843Y-137499D01*
X840805Y-140815D01*
X846658Y-141979D01*
X873342D01*
X879195Y-140815D01*
X884157Y-137499D01*
X897499Y-124157D01*
X900814Y-119195D01*
X901979Y-113342D01*
Y-86658D01*
X900814Y-80805D01*
X897499Y-75843D01*
X884157Y-62501D01*
X879195Y-59185D01*
X873342Y-58021D01*
D02*
G37*
G36*
X973342D02*
X946658D01*
X940805Y-59185D01*
X935843Y-62501D01*
X922501Y-75843D01*
X919186Y-80805D01*
X918021Y-86658D01*
Y-113342D01*
X919186Y-119195D01*
X922501Y-124157D01*
X935843Y-137499D01*
X940805Y-140815D01*
X946658Y-141979D01*
X973342D01*
X979195Y-140815D01*
X984157Y-137499D01*
X997499Y-124157D01*
X1000814Y-119195D01*
X1001979Y-113342D01*
Y-86658D01*
X1000814Y-80805D01*
X997499Y-75843D01*
X984157Y-62501D01*
X979195Y-59185D01*
X973342Y-58021D01*
D02*
G37*
G36*
X773342D02*
X746658D01*
X740805Y-59185D01*
X735843Y-62501D01*
X722501Y-75843D01*
X719186Y-80805D01*
X718021Y-86658D01*
Y-113342D01*
X719186Y-119195D01*
X722501Y-124157D01*
X735843Y-137499D01*
X740805Y-140815D01*
X746658Y-141979D01*
X773342D01*
X779195Y-140815D01*
X784157Y-137499D01*
X797499Y-124157D01*
X800814Y-119195D01*
X801979Y-113342D01*
Y-86658D01*
X800814Y-80805D01*
X797499Y-75843D01*
X784157Y-62501D01*
X779195Y-59185D01*
X773342Y-58021D01*
D02*
G37*
G36*
X573342D02*
X546658D01*
X540805Y-59185D01*
X535843Y-62501D01*
X522501Y-75843D01*
X519186Y-80805D01*
X518021Y-86658D01*
Y-113342D01*
X519186Y-119195D01*
X522501Y-124157D01*
X535843Y-137499D01*
X540805Y-140815D01*
X546658Y-141979D01*
X573342D01*
X579195Y-140815D01*
X584157Y-137499D01*
X597499Y-124157D01*
X600814Y-119195D01*
X601979Y-113342D01*
Y-86658D01*
X600814Y-80805D01*
X597499Y-75843D01*
X584157Y-62501D01*
X579195Y-59185D01*
X573342Y-58021D01*
D02*
G37*
G36*
X673342D02*
X646658D01*
X640805Y-59185D01*
X635843Y-62501D01*
X622501Y-75843D01*
X619186Y-80805D01*
X618021Y-86658D01*
Y-113342D01*
X619186Y-119195D01*
X622501Y-124157D01*
X635843Y-137499D01*
X640805Y-140815D01*
X646658Y-141979D01*
X673342D01*
X679195Y-140815D01*
X684157Y-137499D01*
X697499Y-124157D01*
X700814Y-119195D01*
X701979Y-113342D01*
Y-86658D01*
X700814Y-80805D01*
X697499Y-75843D01*
X684157Y-62501D01*
X679195Y-59185D01*
X673342Y-58021D01*
D02*
G37*
G36*
X2073342D02*
X2046658D01*
X2040805Y-59185D01*
X2035843Y-62501D01*
X2022501Y-75843D01*
X2019186Y-80805D01*
X2018021Y-86658D01*
Y-113342D01*
X2019186Y-119195D01*
X2022501Y-124157D01*
X2035843Y-137499D01*
X2040805Y-140815D01*
X2046658Y-141979D01*
X2073342D01*
X2079195Y-140815D01*
X2084157Y-137499D01*
X2097499Y-124157D01*
X2100814Y-119195D01*
X2101979Y-113342D01*
Y-86658D01*
X2100814Y-80805D01*
X2097499Y-75843D01*
X2084157Y-62501D01*
X2079195Y-59185D01*
X2073342Y-58021D01*
D02*
G37*
G36*
X93762Y-72157D02*
X85919Y-80000D01*
X93762Y-87843D01*
X95322Y-80000D01*
X93762Y-72157D01*
D02*
G37*
G36*
X2221762D02*
X2213919Y-80000D01*
X2221762Y-87843D01*
X2223322Y-80000D01*
X2221762Y-72157D01*
D02*
G37*
G36*
X50238D02*
X48678Y-80000D01*
X50238Y-87843D01*
X58081Y-80000D01*
X50238Y-72157D01*
D02*
G37*
G36*
X2200000Y-93919D02*
X2192157Y-101762D01*
X2200000Y-103322D01*
X2207843Y-101762D01*
X2200000Y-93919D01*
D02*
G37*
G36*
X2178238Y-72157D02*
X2176678Y-80000D01*
X2178238Y-87843D01*
X2186081Y-80000D01*
X2178238Y-72157D01*
D02*
G37*
G36*
X72000Y-56678D02*
X64157Y-58238D01*
X72000Y-66081D01*
X79843Y-58238D01*
X72000Y-56678D01*
D02*
G37*
G36*
X2200000D02*
X2192157Y-58238D01*
X2200000Y-66081D01*
X2207843Y-58238D01*
X2200000Y-56678D01*
D02*
G37*
G36*
X373342Y-65287D02*
X346658D01*
X343585Y-65898D01*
X341326Y-67407D01*
X360000Y-86081D01*
X378674Y-67407D01*
X376415Y-65898D01*
X373342Y-65287D01*
D02*
G37*
G36*
X173342D02*
X146658D01*
X143585Y-65898D01*
X141326Y-67407D01*
X160000Y-86081D01*
X178674Y-67407D01*
X176415Y-65898D01*
X173342Y-65287D01*
D02*
G37*
G36*
X273342D02*
X246658D01*
X243585Y-65898D01*
X241326Y-67407D01*
X260000Y-86081D01*
X278674Y-67407D01*
X276415Y-65898D01*
X273342Y-65287D01*
D02*
G37*
G36*
X227407Y-81327D02*
X225898Y-83585D01*
X225287Y-86658D01*
Y-113342D01*
X225898Y-116415D01*
X227407Y-118674D01*
X246081Y-100001D01*
X227407Y-81327D01*
D02*
G37*
G36*
X127407D02*
X125898Y-83585D01*
X125287Y-86658D01*
Y-113342D01*
X125898Y-116415D01*
X127407Y-118674D01*
X146081Y-100001D01*
X127407Y-81327D01*
D02*
G37*
G36*
X360000Y-113920D02*
X341327Y-132593D01*
X343585Y-134102D01*
X346658Y-134713D01*
X373342D01*
X376415Y-134102D01*
X378673Y-132593D01*
X360000Y-113920D01*
D02*
G37*
G36*
X160000D02*
X141327Y-132593D01*
X143585Y-134102D01*
X146658Y-134713D01*
X173342D01*
X176415Y-134102D01*
X178673Y-132593D01*
X160000Y-113920D01*
D02*
G37*
G36*
X260000D02*
X241327Y-132593D01*
X243585Y-134102D01*
X246658Y-134713D01*
X273342D01*
X276415Y-134102D01*
X278673Y-132593D01*
X260000Y-113920D01*
D02*
G37*
G36*
X292593Y-81327D02*
X273920Y-100001D01*
X292593Y-118674D01*
X294102Y-116415D01*
X294713Y-113342D01*
Y-86658D01*
X294102Y-83585D01*
X292593Y-81327D01*
D02*
G37*
G36*
X72000Y-93919D02*
X64157Y-101762D01*
X72000Y-103322D01*
X79843Y-101762D01*
X72000Y-93919D01*
D02*
G37*
G36*
X392593Y-81327D02*
X373920Y-100001D01*
X392593Y-118674D01*
X394102Y-116415D01*
X394713Y-113342D01*
Y-86658D01*
X394102Y-83585D01*
X392593Y-81327D01*
D02*
G37*
G36*
X327407Y-81327D02*
X325898Y-83585D01*
X325287Y-86658D01*
Y-113342D01*
X325898Y-116415D01*
X327408Y-118674D01*
X346081Y-100001D01*
X327407Y-81327D01*
D02*
G37*
G36*
X192593Y-81327D02*
X173920Y-100001D01*
X192593Y-118674D01*
X194102Y-116415D01*
X194713Y-113342D01*
Y-86658D01*
X194102Y-83585D01*
X192593Y-81327D01*
D02*
G37*
G36*
X93762Y-184157D02*
X85919Y-192000D01*
X93762Y-199843D01*
X95322Y-192000D01*
X93762Y-184157D01*
D02*
G37*
G36*
X473342Y-158021D02*
X446658D01*
X440805Y-159185D01*
X435843Y-162501D01*
X422501Y-175843D01*
X419185Y-180805D01*
X418021Y-186658D01*
Y-213342D01*
X419185Y-219195D01*
X422501Y-224157D01*
X435843Y-237499D01*
X440805Y-240815D01*
X446658Y-241979D01*
X473342D01*
X479195Y-240815D01*
X484157Y-237499D01*
X497499Y-224157D01*
X500815Y-219195D01*
X501979Y-213342D01*
Y-186658D01*
X500815Y-180805D01*
X497499Y-175843D01*
X484157Y-162501D01*
X479195Y-159185D01*
X473342Y-158021D01*
D02*
G37*
G36*
X573342D02*
X546658D01*
X540805Y-159185D01*
X535843Y-162501D01*
X522501Y-175843D01*
X519186Y-180805D01*
X518021Y-186658D01*
Y-213342D01*
X519186Y-219195D01*
X522501Y-224157D01*
X535843Y-237499D01*
X540805Y-240815D01*
X546658Y-241979D01*
X573342D01*
X579195Y-240815D01*
X584157Y-237499D01*
X597499Y-224157D01*
X600814Y-219195D01*
X601979Y-213342D01*
Y-186658D01*
X600814Y-180805D01*
X597499Y-175843D01*
X584157Y-162501D01*
X579195Y-159185D01*
X573342Y-158021D01*
D02*
G37*
G36*
X373342D02*
X346658D01*
X340805Y-159185D01*
X335843Y-162501D01*
X322501Y-175843D01*
X319185Y-180805D01*
X318021Y-186658D01*
Y-213342D01*
X319185Y-219195D01*
X322501Y-224157D01*
X335843Y-237499D01*
X340805Y-240815D01*
X346658Y-241979D01*
X373342D01*
X379195Y-240815D01*
X384157Y-237499D01*
X397499Y-224157D01*
X400815Y-219195D01*
X401979Y-213342D01*
Y-186658D01*
X400815Y-180805D01*
X397499Y-175843D01*
X384157Y-162501D01*
X379195Y-159185D01*
X373342Y-158021D01*
D02*
G37*
G36*
X2088000Y-280678D02*
X2080157Y-282238D01*
X2088000Y-290081D01*
X2095843Y-282238D01*
X2088000Y-280678D01*
D02*
G37*
G36*
X2200000D02*
X2192157Y-282238D01*
X2200000Y-290081D01*
X2207843Y-282238D01*
X2200000Y-280678D01*
D02*
G37*
G36*
X973342Y-158021D02*
X946658D01*
X940805Y-159185D01*
X935843Y-162501D01*
X922501Y-175843D01*
X919186Y-180805D01*
X918021Y-186658D01*
Y-213342D01*
X919186Y-219195D01*
X922501Y-224157D01*
X935843Y-237499D01*
X940805Y-240815D01*
X946658Y-241979D01*
X973342D01*
X979195Y-240815D01*
X984157Y-237499D01*
X997499Y-224157D01*
X1000814Y-219195D01*
X1001979Y-213342D01*
Y-186658D01*
X1000814Y-180805D01*
X997499Y-175843D01*
X984157Y-162501D01*
X979195Y-159185D01*
X973342Y-158021D01*
D02*
G37*
G36*
X1073342D02*
X1046658D01*
X1040805Y-159185D01*
X1035843Y-162501D01*
X1022501Y-175843D01*
X1019186Y-180805D01*
X1018021Y-186658D01*
Y-213342D01*
X1019186Y-219195D01*
X1022501Y-224157D01*
X1035843Y-237499D01*
X1040805Y-240815D01*
X1046658Y-241979D01*
X1073342D01*
X1079195Y-240815D01*
X1084157Y-237499D01*
X1097499Y-224157D01*
X1100814Y-219195D01*
X1101979Y-213342D01*
Y-186658D01*
X1100814Y-180805D01*
X1097499Y-175843D01*
X1084157Y-162501D01*
X1079195Y-159185D01*
X1073342Y-158021D01*
D02*
G37*
G36*
X873342D02*
X846658D01*
X840805Y-159185D01*
X835843Y-162501D01*
X822501Y-175843D01*
X819186Y-180805D01*
X818021Y-186658D01*
Y-213342D01*
X819186Y-219195D01*
X822501Y-224157D01*
X835843Y-237499D01*
X840805Y-240815D01*
X846658Y-241979D01*
X873342D01*
X879195Y-240815D01*
X884157Y-237499D01*
X897499Y-224157D01*
X900814Y-219195D01*
X901979Y-213342D01*
Y-186658D01*
X900814Y-180805D01*
X897499Y-175843D01*
X884157Y-162501D01*
X879195Y-159185D01*
X873342Y-158021D01*
D02*
G37*
G36*
X673342D02*
X646658D01*
X640805Y-159185D01*
X635843Y-162501D01*
X622501Y-175843D01*
X619186Y-180805D01*
X618021Y-186658D01*
Y-213342D01*
X619186Y-219195D01*
X622501Y-224157D01*
X635843Y-237499D01*
X640805Y-240815D01*
X646658Y-241979D01*
X673342D01*
X679195Y-240815D01*
X684157Y-237499D01*
X697499Y-224157D01*
X700814Y-219195D01*
X701979Y-213342D01*
Y-186658D01*
X700814Y-180805D01*
X697499Y-175843D01*
X684157Y-162501D01*
X679195Y-159185D01*
X673342Y-158021D01*
D02*
G37*
G36*
X773342D02*
X746658D01*
X740805Y-159185D01*
X735843Y-162501D01*
X722501Y-175843D01*
X719186Y-180805D01*
X718021Y-186658D01*
Y-213342D01*
X719186Y-219195D01*
X722501Y-224157D01*
X735843Y-237499D01*
X740805Y-240815D01*
X746658Y-241979D01*
X773342D01*
X779195Y-240815D01*
X784157Y-237499D01*
X797499Y-224157D01*
X800814Y-219195D01*
X801979Y-213342D01*
Y-186658D01*
X800814Y-180805D01*
X797499Y-175843D01*
X784157Y-162501D01*
X779195Y-159185D01*
X773342Y-158021D01*
D02*
G37*
G36*
X1304000Y-280678D02*
X1296157Y-282238D01*
X1304000Y-290081D01*
X1311843Y-282238D01*
X1304000Y-280678D01*
D02*
G37*
G36*
X1416000D02*
X1408157Y-282238D01*
X1416000Y-290081D01*
X1423843Y-282238D01*
X1416000Y-280678D01*
D02*
G37*
G36*
X1192000D02*
X1184157Y-282238D01*
X1192000Y-290081D01*
X1199843Y-282238D01*
X1192000Y-280678D01*
D02*
G37*
G36*
X968000D02*
X960157Y-282238D01*
X968000Y-290081D01*
X975843Y-282238D01*
X968000Y-280678D01*
D02*
G37*
G36*
X1080000D02*
X1072157Y-282238D01*
X1080000Y-290081D01*
X1087843Y-282238D01*
X1080000Y-280678D01*
D02*
G37*
G36*
X1864000D02*
X1856157Y-282238D01*
X1864000Y-290081D01*
X1871843Y-282238D01*
X1864000Y-280678D01*
D02*
G37*
G36*
X1976000D02*
X1968157Y-282238D01*
X1976000Y-290081D01*
X1983843Y-282238D01*
X1976000Y-280678D01*
D02*
G37*
G36*
X1752000D02*
X1744157Y-282238D01*
X1752000Y-290081D01*
X1759843Y-282238D01*
X1752000Y-280678D01*
D02*
G37*
G36*
X1528000D02*
X1520157Y-282238D01*
X1528000Y-290081D01*
X1535843Y-282238D01*
X1528000Y-280678D01*
D02*
G37*
G36*
X1640000D02*
X1632157Y-282238D01*
X1640000Y-290081D01*
X1647843Y-282238D01*
X1640000Y-280678D01*
D02*
G37*
G36*
X1173342Y-158021D02*
X1146658D01*
X1140805Y-159185D01*
X1135843Y-162501D01*
X1122501Y-175843D01*
X1119186Y-180805D01*
X1118021Y-186658D01*
Y-213342D01*
X1119186Y-219195D01*
X1122501Y-224157D01*
X1135843Y-237499D01*
X1140805Y-240815D01*
X1146658Y-241979D01*
X1173342D01*
X1179195Y-240815D01*
X1184157Y-237499D01*
X1197499Y-224157D01*
X1200814Y-219195D01*
X1201979Y-213342D01*
Y-186658D01*
X1200814Y-180805D01*
X1197499Y-175843D01*
X1184157Y-162501D01*
X1179195Y-159185D01*
X1173342Y-158021D01*
D02*
G37*
G36*
X192593Y-181327D02*
X173920Y-200001D01*
X192593Y-218674D01*
X194102Y-216415D01*
X194713Y-213342D01*
Y-186658D01*
X194102Y-183585D01*
X192593Y-181327D01*
D02*
G37*
G36*
X292593D02*
X273920Y-200001D01*
X292593Y-218674D01*
X294102Y-216415D01*
X294713Y-213342D01*
Y-186658D01*
X294102Y-183585D01*
X292593Y-181327D01*
D02*
G37*
G36*
X227407Y-181327D02*
X225898Y-183585D01*
X225287Y-186658D01*
Y-213342D01*
X225898Y-216415D01*
X227407Y-218674D01*
X246081Y-200001D01*
X227407Y-181327D01*
D02*
G37*
G36*
X260000Y-213920D02*
X241327Y-232593D01*
X243585Y-234102D01*
X246658Y-234713D01*
X273342D01*
X276415Y-234102D01*
X278673Y-232593D01*
X260000Y-213920D01*
D02*
G37*
G36*
X127407Y-181327D02*
X125898Y-183585D01*
X125287Y-186658D01*
Y-213342D01*
X125898Y-216415D01*
X127407Y-218674D01*
X146081Y-200001D01*
X127407Y-181327D01*
D02*
G37*
G36*
X2178238Y-184157D02*
X2176678Y-192000D01*
X2178238Y-199843D01*
X2186081Y-192000D01*
X2178238Y-184157D01*
D02*
G37*
G36*
X2221762D02*
X2213919Y-192000D01*
X2221762Y-199843D01*
X2223322Y-192000D01*
X2221762Y-184157D01*
D02*
G37*
G36*
X50238D02*
X48678Y-192000D01*
X50238Y-199843D01*
X58081Y-192000D01*
X50238Y-184157D01*
D02*
G37*
G36*
X72000Y-205919D02*
X64157Y-213762D01*
X72000Y-215322D01*
X79843Y-213762D01*
X72000Y-205919D01*
D02*
G37*
G36*
X2200000D02*
X2192157Y-213762D01*
X2200000Y-215322D01*
X2207843Y-213762D01*
X2200000Y-205919D01*
D02*
G37*
G36*
X1573342Y-158021D02*
X1546658D01*
X1540805Y-159185D01*
X1535843Y-162501D01*
X1522501Y-175843D01*
X1519186Y-180805D01*
X1518021Y-186658D01*
Y-213342D01*
X1519186Y-219195D01*
X1522501Y-224157D01*
X1535843Y-237499D01*
X1540805Y-240815D01*
X1546658Y-241979D01*
X1573342D01*
X1579195Y-240815D01*
X1584157Y-237499D01*
X1597499Y-224157D01*
X1600814Y-219195D01*
X1601979Y-213342D01*
Y-186658D01*
X1600814Y-180805D01*
X1597499Y-175843D01*
X1584157Y-162501D01*
X1579195Y-159185D01*
X1573342Y-158021D01*
D02*
G37*
G36*
X1673342D02*
X1646658D01*
X1640805Y-159185D01*
X1635843Y-162501D01*
X1622501Y-175843D01*
X1619186Y-180805D01*
X1618021Y-186658D01*
Y-213342D01*
X1619186Y-219195D01*
X1622501Y-224157D01*
X1635843Y-237499D01*
X1640805Y-240815D01*
X1646658Y-241979D01*
X1673342D01*
X1679195Y-240815D01*
X1684157Y-237499D01*
X1697499Y-224157D01*
X1700814Y-219195D01*
X1701979Y-213342D01*
Y-186658D01*
X1700814Y-180805D01*
X1697499Y-175843D01*
X1684157Y-162501D01*
X1679195Y-159185D01*
X1673342Y-158021D01*
D02*
G37*
G36*
X1473342D02*
X1446658D01*
X1440805Y-159185D01*
X1435843Y-162501D01*
X1422501Y-175843D01*
X1419186Y-180805D01*
X1418021Y-186658D01*
Y-213342D01*
X1419186Y-219195D01*
X1422501Y-224157D01*
X1435843Y-237499D01*
X1440805Y-240815D01*
X1446658Y-241979D01*
X1473342D01*
X1479195Y-240815D01*
X1484157Y-237499D01*
X1497499Y-224157D01*
X1500814Y-219195D01*
X1501979Y-213342D01*
Y-186658D01*
X1500814Y-180805D01*
X1497499Y-175843D01*
X1484157Y-162501D01*
X1479195Y-159185D01*
X1473342Y-158021D01*
D02*
G37*
G36*
X1273342D02*
X1246658D01*
X1240805Y-159185D01*
X1235843Y-162501D01*
X1222501Y-175843D01*
X1219186Y-180805D01*
X1218021Y-186658D01*
Y-213342D01*
X1219186Y-219195D01*
X1222501Y-224157D01*
X1235843Y-237499D01*
X1240805Y-240815D01*
X1246658Y-241979D01*
X1273342D01*
X1279195Y-240815D01*
X1284157Y-237499D01*
X1297499Y-224157D01*
X1300814Y-219195D01*
X1301979Y-213342D01*
Y-186658D01*
X1300814Y-180805D01*
X1297499Y-175843D01*
X1284157Y-162501D01*
X1279195Y-159185D01*
X1273342Y-158021D01*
D02*
G37*
G36*
X1373342D02*
X1346658D01*
X1340805Y-159185D01*
X1335843Y-162501D01*
X1322501Y-175843D01*
X1319186Y-180805D01*
X1318021Y-186658D01*
Y-213342D01*
X1319186Y-219195D01*
X1322501Y-224157D01*
X1335843Y-237499D01*
X1340805Y-240815D01*
X1346658Y-241979D01*
X1373342D01*
X1379195Y-240815D01*
X1384157Y-237499D01*
X1397499Y-224157D01*
X1400814Y-219195D01*
X1401979Y-213342D01*
Y-186658D01*
X1400814Y-180805D01*
X1397499Y-175843D01*
X1384157Y-162501D01*
X1379195Y-159185D01*
X1373342Y-158021D01*
D02*
G37*
G36*
X2073342D02*
X2046658D01*
X2040805Y-159185D01*
X2035843Y-162501D01*
X2022501Y-175843D01*
X2019186Y-180805D01*
X2018021Y-186658D01*
Y-213342D01*
X2019186Y-219195D01*
X2022501Y-224157D01*
X2035843Y-237499D01*
X2040805Y-240815D01*
X2046658Y-241979D01*
X2073342D01*
X2079195Y-240815D01*
X2084157Y-237499D01*
X2097499Y-224157D01*
X2100814Y-219195D01*
X2101979Y-213342D01*
Y-186658D01*
X2100814Y-180805D01*
X2097499Y-175843D01*
X2084157Y-162501D01*
X2079195Y-159185D01*
X2073342Y-158021D01*
D02*
G37*
G36*
X160000Y-213920D02*
X141327Y-232593D01*
X143585Y-234102D01*
X146658Y-234713D01*
X173342D01*
X176415Y-234102D01*
X178673Y-232593D01*
X160000Y-213920D01*
D02*
G37*
G36*
X1973342Y-158021D02*
X1946658D01*
X1940805Y-159185D01*
X1935843Y-162501D01*
X1922501Y-175843D01*
X1919186Y-180805D01*
X1918021Y-186658D01*
Y-213342D01*
X1919186Y-219195D01*
X1922501Y-224157D01*
X1935843Y-237499D01*
X1940805Y-240815D01*
X1946658Y-241979D01*
X1973342D01*
X1979195Y-240815D01*
X1984157Y-237499D01*
X1997499Y-224157D01*
X2000814Y-219195D01*
X2001979Y-213342D01*
Y-186658D01*
X2000814Y-180805D01*
X1997499Y-175843D01*
X1984157Y-162501D01*
X1979195Y-159185D01*
X1973342Y-158021D01*
D02*
G37*
G36*
X1773342D02*
X1746658D01*
X1740805Y-159185D01*
X1735843Y-162501D01*
X1722501Y-175843D01*
X1719186Y-180805D01*
X1718021Y-186658D01*
Y-213342D01*
X1719186Y-219195D01*
X1722501Y-224157D01*
X1735843Y-237499D01*
X1740805Y-240815D01*
X1746658Y-241979D01*
X1773342D01*
X1779195Y-240815D01*
X1784157Y-237499D01*
X1797499Y-224157D01*
X1800814Y-219195D01*
X1801979Y-213342D01*
Y-186658D01*
X1800814Y-180805D01*
X1797499Y-175843D01*
X1784157Y-162501D01*
X1779195Y-159185D01*
X1773342Y-158021D01*
D02*
G37*
G36*
X1873342D02*
X1846658D01*
X1840805Y-159185D01*
X1835843Y-162501D01*
X1822501Y-175843D01*
X1819186Y-180805D01*
X1818021Y-186658D01*
Y-213342D01*
X1819186Y-219195D01*
X1822501Y-224157D01*
X1835843Y-237499D01*
X1840805Y-240815D01*
X1846658Y-241979D01*
X1873342D01*
X1879195Y-240815D01*
X1884157Y-237499D01*
X1897499Y-224157D01*
X1900814Y-219195D01*
X1901979Y-213342D01*
Y-186658D01*
X1900814Y-180805D01*
X1897499Y-175843D01*
X1884157Y-162501D01*
X1879195Y-159185D01*
X1873342Y-158021D01*
D02*
G37*
G36*
X1693000Y-701919D02*
X1685157Y-709762D01*
X1693000Y-711322D01*
X1700843Y-709762D01*
X1693000Y-701919D01*
D02*
G37*
G36*
X2200000D02*
X2192157Y-709762D01*
X2200000Y-711322D01*
X2207843Y-709762D01*
X2200000Y-701919D01*
D02*
G37*
G36*
X1856378Y-815915D02*
X1769764D01*
X1761285Y-817602D01*
X1776724Y-833041D01*
X1769764Y-840000D01*
X1776724Y-846960D01*
X1761286Y-862398D01*
X1769764Y-864085D01*
X1856378D01*
X1864857Y-862398D01*
X1849419Y-846960D01*
X1856379Y-840000D01*
X1849419Y-833041D01*
X1864858Y-817602D01*
X1856378Y-815915D01*
D02*
G37*
G36*
X2200000Y-664678D02*
X2192157Y-666238D01*
X2200000Y-674081D01*
X2207843Y-666238D01*
X2200000Y-664678D01*
D02*
G37*
G36*
X1714762Y-680157D02*
X1706919Y-688000D01*
X1714762Y-695843D01*
X1716322Y-688000D01*
X1714762Y-680157D01*
D02*
G37*
G36*
X2221762D02*
X2213919Y-688000D01*
X2221762Y-695843D01*
X2223322Y-688000D01*
X2221762Y-680157D01*
D02*
G37*
G36*
X2178238D02*
X2176678Y-688000D01*
X2178238Y-695843D01*
X2186081Y-688000D01*
X2178238Y-680157D01*
D02*
G37*
G36*
X1671238D02*
X1669678Y-688000D01*
X1671238Y-695843D01*
X1679081Y-688000D01*
X1671238Y-680157D01*
D02*
G37*
G36*
X1693000Y-664678D02*
X1685157Y-666238D01*
X1693000Y-674081D01*
X1700843Y-666238D01*
X1693000Y-664678D01*
D02*
G37*
G36*
X1925000Y-853919D02*
X1917157Y-861762D01*
X1925000Y-863322D01*
X1932843Y-861762D01*
X1925000Y-853919D01*
D02*
G37*
G36*
Y-816678D02*
X1917157Y-818238D01*
X1925000Y-826081D01*
X1932843Y-818238D01*
X1925000Y-816678D01*
D02*
G37*
G36*
X1693000Y-813919D02*
X1685157Y-821762D01*
X1693000Y-823322D01*
X1700843Y-821762D01*
X1693000Y-813919D01*
D02*
G37*
G36*
X1878776Y-831522D02*
X1870298Y-840000D01*
X1878776Y-848479D01*
X1880463Y-840000D01*
X1878776Y-831522D01*
D02*
G37*
G36*
X1747366Y-831521D02*
X1745679Y-840000D01*
X1747366Y-848480D01*
X1755845Y-840000D01*
X1747366Y-831521D01*
D02*
G37*
G36*
X1903238Y-832157D02*
X1901678Y-840000D01*
X1903238Y-847843D01*
X1911081Y-840000D01*
X1903238Y-832157D01*
D02*
G37*
G36*
X1946762D02*
X1938919Y-840000D01*
X1946762Y-847843D01*
X1948322Y-840000D01*
X1946762Y-832157D01*
D02*
G37*
G36*
X2200000Y-813919D02*
X2192157Y-821762D01*
X2200000Y-823322D01*
X2207843Y-821762D01*
X2200000Y-813919D01*
D02*
G37*
G36*
Y-776678D02*
X2192157Y-778238D01*
X2200000Y-786081D01*
X2207843Y-778238D01*
X2200000Y-776678D01*
D02*
G37*
G36*
X2178238Y-792157D02*
X2176678Y-800000D01*
X2178238Y-807843D01*
X2186081Y-800000D01*
X2178238Y-792157D01*
D02*
G37*
G36*
X2221762D02*
X2213919Y-800000D01*
X2221762Y-807843D01*
X2223322Y-800000D01*
X2221762Y-792157D01*
D02*
G37*
G36*
X1693000Y-776678D02*
X1685157Y-778238D01*
X1693000Y-786081D01*
X1700843Y-778238D01*
X1693000Y-776678D01*
D02*
G37*
G36*
X1671238Y-792157D02*
X1669678Y-800000D01*
X1671238Y-807843D01*
X1679081Y-800000D01*
X1671238Y-792157D01*
D02*
G37*
G36*
X1714762D02*
X1706919Y-800000D01*
X1714762Y-807843D01*
X1716322Y-800000D01*
X1714762Y-792157D01*
D02*
G37*
G36*
X2200000Y-552678D02*
X2192157Y-554238D01*
X2200000Y-562081D01*
X2207843Y-554238D01*
X2200000Y-552678D01*
D02*
G37*
G36*
X1693000D02*
X1685157Y-554238D01*
X1693000Y-562081D01*
X1700843Y-554238D01*
X1693000Y-552678D01*
D02*
G37*
G36*
Y-589919D02*
X1685157Y-597762D01*
X1693000Y-599322D01*
X1700843Y-597762D01*
X1693000Y-589919D01*
D02*
G37*
G36*
X2200000D02*
X2192157Y-597762D01*
X2200000Y-599322D01*
X2207843Y-597762D01*
X2200000Y-589919D01*
D02*
G37*
G36*
X1714762Y-568157D02*
X1706919Y-576000D01*
X1714762Y-583843D01*
X1716322Y-576000D01*
X1714762Y-568157D01*
D02*
G37*
G36*
X2221762D02*
X2213919Y-576000D01*
X2221762Y-583843D01*
X2223322Y-576000D01*
X2221762Y-568157D01*
D02*
G37*
G36*
X1671238D02*
X1669678Y-576000D01*
X1671238Y-583843D01*
X1679081Y-576000D01*
X1671238Y-568157D01*
D02*
G37*
G36*
X2178238D02*
X2176678Y-576000D01*
X2178238Y-583843D01*
X2186081Y-576000D01*
X2178238Y-568157D01*
D02*
G37*
%LPD*%
G36*
X1999151Y-1542997D02*
X2004688Y-1548535D01*
X2007684Y-1555770D01*
X2007684Y-1559686D01*
X2007685Y-1559685D01*
X2008008Y-1960719D01*
X1928000D01*
Y-1560000D01*
X1928000Y-1556085D01*
X1930997Y-1548850D01*
X1936534Y-1543313D01*
X1943768Y-1540316D01*
X1947684Y-1540316D01*
X1947685Y-1540315D01*
X1988000Y-1540000D01*
X1991916Y-1540000D01*
X1999151Y-1542997D01*
D02*
G37*
D10*
X1882599Y-1700000D02*
D03*
X1957402D02*
D03*
Y-1600000D02*
D03*
X1882599D02*
D03*
X1952598Y-1040000D02*
D03*
X2027401D02*
D03*
X997402Y-990000D02*
D03*
X922598D02*
D03*
D11*
X1810000Y-1324803D02*
D03*
Y-1250000D02*
D03*
X1440000Y-1245197D02*
D03*
Y-1320000D02*
D03*
X880000Y-1337598D02*
D03*
Y-1412401D02*
D03*
X780000D02*
D03*
Y-1337598D02*
D03*
D12*
X2110000Y-1227402D02*
D03*
Y-1152599D02*
D03*
D13*
X1252599Y-1350000D02*
D03*
X1327402D02*
D03*
D14*
X545000Y-1415000D02*
D03*
Y-1336260D02*
D03*
X1330000Y-1029370D02*
D03*
Y-950630D02*
D03*
D15*
X1940630Y-1150000D02*
D03*
X2019370D02*
D03*
X2029370Y-940000D02*
D03*
X1950630D02*
D03*
X1329370Y-1250000D02*
D03*
X1250630D02*
D03*
X1127244Y-760000D02*
D03*
X1048504D02*
D03*
Y-1210000D02*
D03*
X1127244D02*
D03*
D16*
X1813071Y-1140000D02*
D03*
Y-1040000D02*
D03*
Y-940000D02*
D03*
Y-840000D02*
D03*
X1446929D02*
D03*
Y-940000D02*
D03*
Y-1040000D02*
D03*
Y-1140000D02*
D03*
D17*
X1221732Y-990000D02*
D03*
X1127244Y-952598D02*
D03*
Y-1027402D02*
D03*
D18*
X1689000Y-1667000D02*
X1722000Y-1634000D01*
Y-1056751D01*
X1738751Y-1040000D01*
X1813071D01*
X1813071Y-1040000D01*
X1952598D01*
X1950630Y-940000D02*
X1813071D01*
X1659000D01*
X1642000Y-957000D01*
Y-1564000D01*
X1620000Y-1586000D01*
X814000D01*
X760000Y-1640000D01*
Y-1800000D01*
X811000Y-1709000D02*
X853000Y-1667000D01*
X1689000D01*
X1446929Y-1040000D02*
X1340630D01*
X1330000Y-1029370D01*
X1328032Y-1027402D01*
X1127244D01*
Y-1210000D01*
Y-1277008D01*
X1064252Y-1340000D01*
X1048504Y-1210000D02*
X990000Y-1151496D01*
Y-818504D01*
X1048504Y-760000D01*
X1127244D02*
X1130000Y-757244D01*
Y-670000D01*
X1090000Y-630000D01*
X1064252D01*
X1127244Y-760000D02*
Y-834244D01*
X1128000Y-835000D01*
Y-951843D01*
X1127244Y-952598D01*
X1328031D01*
X1330000Y-950630D01*
X1340630Y-940000D01*
X1446929D01*
X777874Y-1035000D02*
X547000D01*
X520000Y-1008000D01*
D19*
X1957402Y-1600000D02*
X1960000Y-1597401D01*
X1957402Y-1600000D02*
X1952000Y-1594598D01*
Y-1273000D01*
X1940630Y-1261630D01*
Y-1150000D01*
X1250630Y-1250000D02*
Y-1348031D01*
X1252599Y-1350000D01*
D20*
X2017401Y-1151969D02*
X2019370Y-1150000D01*
X2107401D01*
X2110000Y-1152599D01*
D21*
X796000Y-1851000D02*
X811000Y-1836000D01*
Y-1709000D01*
X796000Y-1851000D02*
X692000D01*
X660000Y-1883000D01*
Y-1900000D01*
X1221732Y-990000D02*
X1078000D01*
X1075000Y-993000D01*
D22*
X1415000Y-1201500D02*
D03*
D23*
X1860000Y-1195000D02*
D03*
D24*
X823000Y-1233000D02*
D03*
D25*
X1064252Y-1340000D02*
D03*
Y-630000D02*
D03*
D26*
X247953Y-1265118D02*
D03*
Y-654882D02*
D03*
D27*
X427874Y-1185000D02*
D03*
Y-735000D02*
D03*
D28*
X777874Y-1135000D02*
D03*
Y-1035000D02*
D03*
Y-935000D02*
D03*
Y-835000D02*
D03*
X677874Y-885000D02*
D03*
Y-985000D02*
D03*
Y-1085000D02*
D03*
D29*
X677874Y-785000D02*
D03*
D30*
X1960000Y-1900000D02*
D03*
X2060000D02*
D03*
Y-1800000D02*
D03*
X1960000D02*
D03*
X1860000D02*
D03*
X1760000D02*
D03*
X1660000D02*
D03*
X1560000D02*
D03*
Y-1900000D02*
D03*
X1660000D02*
D03*
X1760000D02*
D03*
X1860000D02*
D03*
X1460000Y-1800000D02*
D03*
X1360000D02*
D03*
X1260000D02*
D03*
X1160000D02*
D03*
Y-1900000D02*
D03*
X1260000D02*
D03*
X1360000D02*
D03*
X1460000D02*
D03*
X1060000Y-1800000D02*
D03*
X960000D02*
D03*
X860000D02*
D03*
Y-1900000D02*
D03*
X960000D02*
D03*
X1060000D02*
D03*
X760000Y-1800000D02*
D03*
X660000D02*
D03*
X560000D02*
D03*
X460000D02*
D03*
Y-1900000D02*
D03*
X560000D02*
D03*
X660000D02*
D03*
X760000D02*
D03*
X360000Y-1800000D02*
D03*
X260000D02*
D03*
X160000D02*
D03*
Y-1900000D02*
D03*
X260000D02*
D03*
X360000D02*
D03*
X1960000Y-200000D02*
D03*
X2060000D02*
D03*
Y-100000D02*
D03*
X1960000D02*
D03*
X1860000D02*
D03*
Y-200000D02*
D03*
X1760000D02*
D03*
Y-100000D02*
D03*
X1660000D02*
D03*
Y-200000D02*
D03*
X1560000D02*
D03*
Y-100000D02*
D03*
X1460000D02*
D03*
Y-200000D02*
D03*
X1360000D02*
D03*
Y-100000D02*
D03*
X1260000D02*
D03*
Y-200000D02*
D03*
X1160000D02*
D03*
Y-100000D02*
D03*
X1060000D02*
D03*
Y-200000D02*
D03*
X960000D02*
D03*
Y-100000D02*
D03*
X860000D02*
D03*
Y-200000D02*
D03*
X760000D02*
D03*
Y-100000D02*
D03*
X660000D02*
D03*
Y-200000D02*
D03*
X560000D02*
D03*
Y-100000D02*
D03*
X460000D02*
D03*
Y-200000D02*
D03*
X360000D02*
D03*
Y-100000D02*
D03*
X260000D02*
D03*
Y-200000D02*
D03*
X160000D02*
D03*
Y-100000D02*
D03*
D31*
X2200000Y-1920000D02*
D03*
Y-1808000D02*
D03*
Y-1696000D02*
D03*
Y-1584000D02*
D03*
Y-1472000D02*
D03*
Y-1360000D02*
D03*
Y-1248000D02*
D03*
Y-1136000D02*
D03*
Y-1024000D02*
D03*
Y-912000D02*
D03*
Y-800000D02*
D03*
X1925000Y-840000D02*
D03*
X2200000Y-688000D02*
D03*
Y-576000D02*
D03*
Y-464000D02*
D03*
Y-304000D02*
D03*
X2088000D02*
D03*
X1976000D02*
D03*
X2200000Y-192000D02*
D03*
Y-80000D02*
D03*
X1864000Y-304000D02*
D03*
X1752000D02*
D03*
X1640000D02*
D03*
X1528000D02*
D03*
Y-503000D02*
D03*
X1693000Y-464000D02*
D03*
Y-576000D02*
D03*
Y-688000D02*
D03*
Y-800000D02*
D03*
X1528000Y-760000D02*
D03*
Y-1328000D02*
D03*
Y-1440000D02*
D03*
X1834000Y-1472000D02*
D03*
X1793000Y-1696000D02*
D03*
X1416000Y-1440000D02*
D03*
X1192000D02*
D03*
X1304000Y-760000D02*
D03*
X1416000D02*
D03*
X1304000Y-648000D02*
D03*
X1192000D02*
D03*
Y-503000D02*
D03*
X1304000D02*
D03*
X1416000D02*
D03*
Y-304000D02*
D03*
X1304000D02*
D03*
X1192000D02*
D03*
X1080000D02*
D03*
X968000D02*
D03*
X856000D02*
D03*
Y-503000D02*
D03*
X968000D02*
D03*
X1080000D02*
D03*
X968000Y-648000D02*
D03*
X856000D02*
D03*
X927000Y-898000D02*
D03*
X1059000D02*
D03*
X1075000Y-993000D02*
D03*
X1056000Y-1096000D02*
D03*
X1128000Y-835000D02*
D03*
X1127000Y-1106000D02*
D03*
X964000Y-1239000D02*
D03*
X968000Y-1328000D02*
D03*
Y-1440000D02*
D03*
X520000Y-1098000D02*
D03*
Y-1008000D02*
D03*
Y-918000D02*
D03*
Y-828000D02*
D03*
Y-738000D02*
D03*
X408000Y-828000D02*
D03*
Y-918000D02*
D03*
Y-1008000D02*
D03*
Y-1098000D02*
D03*
X520000Y-1188000D02*
D03*
X677875Y-1197000D02*
D03*
Y-1309000D02*
D03*
X632000Y-1440000D02*
D03*
X408000D02*
D03*
Y-1331000D02*
D03*
Y-1593000D02*
D03*
Y-1696000D02*
D03*
X520000D02*
D03*
Y-1593000D02*
D03*
X632000D02*
D03*
Y-1696000D02*
D03*
X296000Y-1440000D02*
D03*
X184000D02*
D03*
Y-1331000D02*
D03*
X72000D02*
D03*
Y-1440000D02*
D03*
Y-1188000D02*
D03*
X184000D02*
D03*
X296000D02*
D03*
Y-1593000D02*
D03*
Y-1696000D02*
D03*
X184000D02*
D03*
Y-1593000D02*
D03*
X72000D02*
D03*
Y-1696000D02*
D03*
Y-1808000D02*
D03*
Y-1920000D02*
D03*
Y-1098000D02*
D03*
Y-1008000D02*
D03*
Y-918000D02*
D03*
Y-828000D02*
D03*
Y-738000D02*
D03*
X184000D02*
D03*
Y-828000D02*
D03*
Y-918000D02*
D03*
Y-1008000D02*
D03*
Y-1098000D02*
D03*
X296000D02*
D03*
Y-1008000D02*
D03*
Y-918000D02*
D03*
Y-828000D02*
D03*
Y-738000D02*
D03*
X520000Y-648000D02*
D03*
Y-503000D02*
D03*
X408000D02*
D03*
X632000D02*
D03*
X744000D02*
D03*
Y-648000D02*
D03*
Y-304000D02*
D03*
X632000D02*
D03*
X520000D02*
D03*
X408000D02*
D03*
X296000D02*
D03*
X184000D02*
D03*
X72000D02*
D03*
Y-192000D02*
D03*
Y-80000D02*
D03*
Y-503000D02*
D03*
X184000D02*
D03*
X296000D02*
D03*
X72000Y-648000D02*
D03*
D32*
X1342000Y-1172000D02*
D03*
%TF.MD5,6c1f8aac2e736a73882e84ee81246c42*%
M02*
