G04 Layer_Color=8388736*
%FSLAX26Y26*%
%MOIN*%
%TF.FileFunction,Soldermask,Top*%
%TF.Part,Single*%
G01*
G75*
%TA.AperFunction,SMDPad,CuDef*%
%ADD10R,0.059055X0.062992*%
%ADD11R,0.062992X0.059055*%
%ADD12R,0.059055X0.051181*%
%ADD13R,0.051181X0.059055*%
%ADD14R,0.059055X0.055118*%
%ADD15R,0.055118X0.059055*%
%ADD16O,0.118110X0.031496*%
%TA.AperFunction,ComponentPad*%
%ADD25C,0.098425*%
%ADD26C,0.094488*%
%ADD27C,0.124016*%
%ADD28C,0.055118*%
%ADD29R,0.055118X0.055118*%
G04:AMPARAMS|DCode=30|XSize=53.37mil|YSize=53.37mil|CornerRadius=0mil|HoleSize=0mil|Usage=FLASHONLY|Rotation=270.000|XOffset=0mil|YOffset=0mil|HoleType=Round|Shape=Octagon|*
%AMOCTAGOND30*
4,1,8,-0.013342,-0.026685,0.013342,-0.026685,0.026685,-0.013342,0.026685,0.013342,0.013342,0.026685,-0.013342,0.026685,-0.026685,0.013342,-0.026685,-0.013342,-0.013342,-0.026685,0.0*
%
%ADD30OCTAGOND30*%

%TA.AperFunction,ViaPad*%
%ADD31C,0.030000*%
%ADD32C,0.050000*%
%TA.AperFunction,SMDPad,CuDef*%
%ADD34R,0.055118X0.027559*%
D10*
X1882599Y-1700000D02*
D03*
X1957402D02*
D03*
Y-1600000D02*
D03*
X1882599D02*
D03*
X1952598Y-1040000D02*
D03*
X2027401D02*
D03*
X997402Y-990000D02*
D03*
X922598D02*
D03*
D11*
X1810000Y-1324803D02*
D03*
Y-1250000D02*
D03*
X1440000Y-1245197D02*
D03*
Y-1320000D02*
D03*
X880000Y-1337598D02*
D03*
Y-1412401D02*
D03*
X780000D02*
D03*
Y-1337598D02*
D03*
D12*
X2110000Y-1227402D02*
D03*
Y-1152599D02*
D03*
D13*
X1252599Y-1350000D02*
D03*
X1327402D02*
D03*
D14*
X545000Y-1415000D02*
D03*
Y-1336260D02*
D03*
X1330000Y-1029370D02*
D03*
Y-950630D02*
D03*
D15*
X1940630Y-1150000D02*
D03*
X2019370D02*
D03*
X2029370Y-940000D02*
D03*
X1950630D02*
D03*
X1329370Y-1250000D02*
D03*
X1250630D02*
D03*
X1127244Y-760000D02*
D03*
X1048504D02*
D03*
Y-1210000D02*
D03*
X1127244D02*
D03*
D16*
X1813071Y-1140000D02*
D03*
Y-1040000D02*
D03*
Y-940000D02*
D03*
Y-840000D02*
D03*
X1446929D02*
D03*
Y-940000D02*
D03*
Y-1040000D02*
D03*
Y-1140000D02*
D03*
D25*
X1064252Y-1340000D02*
D03*
Y-630000D02*
D03*
D26*
X247953Y-1265118D02*
D03*
Y-654882D02*
D03*
D27*
X427874Y-1185000D02*
D03*
Y-735000D02*
D03*
D28*
X777874Y-1135000D02*
D03*
Y-1035000D02*
D03*
Y-935000D02*
D03*
Y-835000D02*
D03*
X677874Y-885000D02*
D03*
Y-985000D02*
D03*
Y-1085000D02*
D03*
D29*
X677874Y-785000D02*
D03*
D30*
X1960000Y-1900000D02*
D03*
X2060000D02*
D03*
Y-1800000D02*
D03*
X1960000D02*
D03*
X1860000D02*
D03*
X1760000D02*
D03*
X1660000D02*
D03*
X1560000D02*
D03*
Y-1900000D02*
D03*
X1660000D02*
D03*
X1760000D02*
D03*
X1860000D02*
D03*
X1460000Y-1800000D02*
D03*
X1360000D02*
D03*
X1260000D02*
D03*
X1160000D02*
D03*
Y-1900000D02*
D03*
X1260000D02*
D03*
X1360000D02*
D03*
X1460000D02*
D03*
X1060000Y-1800000D02*
D03*
X960000D02*
D03*
X860000D02*
D03*
Y-1900000D02*
D03*
X960000D02*
D03*
X1060000D02*
D03*
X760000Y-1800000D02*
D03*
X660000D02*
D03*
X560000D02*
D03*
X460000D02*
D03*
Y-1900000D02*
D03*
X560000D02*
D03*
X660000D02*
D03*
X760000D02*
D03*
X360000Y-1800000D02*
D03*
X260000D02*
D03*
X160000D02*
D03*
Y-1900000D02*
D03*
X260000D02*
D03*
X360000D02*
D03*
X1960000Y-200000D02*
D03*
X2060000D02*
D03*
Y-100000D02*
D03*
X1960000D02*
D03*
X1860000D02*
D03*
Y-200000D02*
D03*
X1760000D02*
D03*
Y-100000D02*
D03*
X1660000D02*
D03*
Y-200000D02*
D03*
X1560000D02*
D03*
Y-100000D02*
D03*
X1460000D02*
D03*
Y-200000D02*
D03*
X1360000D02*
D03*
Y-100000D02*
D03*
X1260000D02*
D03*
Y-200000D02*
D03*
X1160000D02*
D03*
Y-100000D02*
D03*
X1060000D02*
D03*
Y-200000D02*
D03*
X960000D02*
D03*
Y-100000D02*
D03*
X860000D02*
D03*
Y-200000D02*
D03*
X760000D02*
D03*
Y-100000D02*
D03*
X660000D02*
D03*
Y-200000D02*
D03*
X560000D02*
D03*
Y-100000D02*
D03*
X460000D02*
D03*
Y-200000D02*
D03*
X360000D02*
D03*
Y-100000D02*
D03*
X260000D02*
D03*
Y-200000D02*
D03*
X160000D02*
D03*
Y-100000D02*
D03*
D31*
X2200000Y-1920000D02*
D03*
Y-1808000D02*
D03*
Y-1696000D02*
D03*
Y-1584000D02*
D03*
Y-1472000D02*
D03*
Y-1360000D02*
D03*
Y-1248000D02*
D03*
Y-1136000D02*
D03*
Y-1024000D02*
D03*
Y-912000D02*
D03*
Y-800000D02*
D03*
X1925000Y-840000D02*
D03*
X2200000Y-688000D02*
D03*
Y-576000D02*
D03*
Y-464000D02*
D03*
Y-304000D02*
D03*
X2088000D02*
D03*
X1976000D02*
D03*
X2200000Y-192000D02*
D03*
Y-80000D02*
D03*
X1864000Y-304000D02*
D03*
X1752000D02*
D03*
X1640000D02*
D03*
X1528000D02*
D03*
Y-503000D02*
D03*
X1693000Y-464000D02*
D03*
Y-576000D02*
D03*
Y-688000D02*
D03*
Y-800000D02*
D03*
X1528000Y-760000D02*
D03*
Y-1328000D02*
D03*
Y-1440000D02*
D03*
X1834000Y-1472000D02*
D03*
X1793000Y-1696000D02*
D03*
X1416000Y-1440000D02*
D03*
X1192000D02*
D03*
X1304000Y-760000D02*
D03*
X1416000D02*
D03*
X1304000Y-648000D02*
D03*
X1192000D02*
D03*
Y-503000D02*
D03*
X1304000D02*
D03*
X1416000D02*
D03*
Y-304000D02*
D03*
X1304000D02*
D03*
X1192000D02*
D03*
X1080000D02*
D03*
X968000D02*
D03*
X856000D02*
D03*
Y-503000D02*
D03*
X968000D02*
D03*
X1080000D02*
D03*
X968000Y-648000D02*
D03*
X856000D02*
D03*
X927000Y-898000D02*
D03*
X1059000D02*
D03*
X1075000Y-993000D02*
D03*
X1056000Y-1096000D02*
D03*
X1128000Y-835000D02*
D03*
X1127000Y-1106000D02*
D03*
X964000Y-1239000D02*
D03*
X968000Y-1328000D02*
D03*
Y-1440000D02*
D03*
X520000Y-1098000D02*
D03*
Y-1008000D02*
D03*
Y-918000D02*
D03*
Y-828000D02*
D03*
Y-738000D02*
D03*
X408000Y-828000D02*
D03*
Y-918000D02*
D03*
Y-1008000D02*
D03*
Y-1098000D02*
D03*
X520000Y-1188000D02*
D03*
X677875Y-1197000D02*
D03*
Y-1309000D02*
D03*
X632000Y-1440000D02*
D03*
X408000D02*
D03*
Y-1331000D02*
D03*
Y-1593000D02*
D03*
Y-1696000D02*
D03*
X520000D02*
D03*
Y-1593000D02*
D03*
X632000D02*
D03*
Y-1696000D02*
D03*
X296000Y-1440000D02*
D03*
X184000D02*
D03*
Y-1331000D02*
D03*
X72000D02*
D03*
Y-1440000D02*
D03*
Y-1188000D02*
D03*
X184000D02*
D03*
X296000D02*
D03*
Y-1593000D02*
D03*
Y-1696000D02*
D03*
X184000D02*
D03*
Y-1593000D02*
D03*
X72000D02*
D03*
Y-1696000D02*
D03*
Y-1808000D02*
D03*
Y-1920000D02*
D03*
Y-1098000D02*
D03*
Y-1008000D02*
D03*
Y-918000D02*
D03*
Y-828000D02*
D03*
Y-738000D02*
D03*
X184000D02*
D03*
Y-828000D02*
D03*
Y-918000D02*
D03*
Y-1008000D02*
D03*
Y-1098000D02*
D03*
X296000D02*
D03*
Y-1008000D02*
D03*
Y-918000D02*
D03*
Y-828000D02*
D03*
Y-738000D02*
D03*
X520000Y-648000D02*
D03*
Y-503000D02*
D03*
X408000D02*
D03*
X632000D02*
D03*
X744000D02*
D03*
Y-648000D02*
D03*
Y-304000D02*
D03*
X632000D02*
D03*
X520000D02*
D03*
X408000D02*
D03*
X296000D02*
D03*
X184000D02*
D03*
X72000D02*
D03*
Y-192000D02*
D03*
Y-80000D02*
D03*
Y-503000D02*
D03*
X184000D02*
D03*
X296000D02*
D03*
X72000Y-648000D02*
D03*
D32*
X1342000Y-1172000D02*
D03*
D34*
X1221732Y-990000D02*
D03*
X1127244Y-952598D02*
D03*
Y-1027402D02*
D03*
%TF.MD5,41598f2f341664f092fb0fa30fca0a2c*%
M02*
