G04 Layer_Color=16711935*
%FSLAX26Y26*%
%MOIN*%
%TF.FileFunction,Soldermask,Bot*%
%TF.Part,Single*%
G01*
G75*
%TA.AperFunction,SMDPad,CuDef*%
%ADD56R,0.070992X0.067055*%
%ADD57R,0.067055X0.070992*%
%ADD59R,0.088709X0.179260*%
%ADD61R,0.063118X0.067055*%
%ADD62R,0.086740X0.147764*%
%TA.AperFunction,ComponentPad*%
%ADD67R,0.067055X0.067055*%
%ADD68C,0.067055*%
%TA.AperFunction,WasherPad*%
%ADD69C,0.068000*%
%TA.AperFunction,ViaPad*%
%ADD70C,0.086740*%
%TA.AperFunction,ComponentPad*%
%ADD71C,0.126110*%
%ADD72R,0.126110X0.126110*%
%ADD73C,0.165480*%
%ADD74C,0.055244*%
%ADD75R,0.126110X0.126110*%
%ADD76R,0.106425X0.059181*%
%ADD77O,0.106425X0.059181*%
%ADD78O,0.204850X0.126110*%
%ADD79C,0.068000*%
%TA.AperFunction,ViaPad*%
%ADD80C,0.058000*%
%ADD81C,0.038000*%
%ADD82C,0.031622*%
%TA.AperFunction,ConnectorPad*%
%ADD86R,0.051307X0.322961*%
%ADD87R,0.056819X0.283591*%
%TA.AperFunction,SMDPad,CuDef*%
%ADD88R,0.179260X0.088709*%
%ADD89R,0.051307X0.322961*%
%ADD90R,0.056819X0.283591*%
G36*
X1481811Y-2257528D02*
X1513811Y-2289527D01*
X1513811Y-2361527D01*
X1477811Y-2397528D01*
X1197811Y-2397528D01*
Y-2257528D01*
X1481811Y-2257528D01*
D02*
G37*
D56*
X2635000Y-2392126D02*
D03*
Y-2466929D02*
D03*
D57*
X2952598Y-2309527D02*
D03*
X3027401D02*
D03*
X2952598Y-2069527D02*
D03*
X3027401D02*
D03*
X2952598Y-2229527D02*
D03*
X3027401D02*
D03*
X2952598Y-1989527D02*
D03*
X3027401D02*
D03*
X2952598Y-2149527D02*
D03*
X3027401D02*
D03*
X2952598Y-1909527D02*
D03*
X3027401D02*
D03*
X1592598Y-2559527D02*
D03*
X1667401D02*
D03*
X1592598Y-2369527D02*
D03*
X1667401D02*
D03*
X1592598Y-2179527D02*
D03*
X1667401D02*
D03*
D59*
X2951063Y-1189527D02*
D03*
X2708937D02*
D03*
X2961063Y-1459527D02*
D03*
X2718937D02*
D03*
X2818937Y-1724527D02*
D03*
X3061063D02*
D03*
D61*
X1629370Y-2069528D02*
D03*
X1550630D02*
D03*
X2404370Y-2379528D02*
D03*
X2325630D02*
D03*
X1629370Y-2259528D02*
D03*
X1550630D02*
D03*
X1619370Y-2449528D02*
D03*
X1540630D02*
D03*
X2325630Y-2589528D02*
D03*
X2404370D02*
D03*
X3703630Y-127528D02*
D03*
X3782370D02*
D03*
X3703630Y-304527D02*
D03*
X3782370D02*
D03*
X3334370Y-944528D02*
D03*
X3255630D02*
D03*
X3175630Y-1049527D02*
D03*
X3254370D02*
D03*
X3329370Y-1124527D02*
D03*
X3250630D02*
D03*
D62*
X1010811Y-2327528D02*
D03*
X1237189D02*
D03*
D67*
X3761000Y-1669527D02*
D03*
X3555000Y-2064528D02*
D03*
X3754998Y-2419115D02*
D03*
Y-2774528D02*
D03*
X3325000Y-2774528D02*
D03*
X625000Y-2708528D02*
D03*
Y-1949027D02*
D03*
Y-1189527D02*
D03*
D68*
X3661000Y-1669527D02*
D03*
X3561000D02*
D03*
X1095000Y-1261701D02*
D03*
Y-2147528D02*
D03*
X3655000Y-2064528D02*
D03*
X3755000D02*
D03*
X3654998Y-2419115D02*
D03*
X3554998D02*
D03*
X3654998Y-2774528D02*
D03*
X3554998D02*
D03*
X3225000Y-2774528D02*
D03*
X3125000D02*
D03*
X425000Y-2708528D02*
D03*
X525000D02*
D03*
X425000Y-1949027D02*
D03*
X525000D02*
D03*
X425000Y-1189527D02*
D03*
X525000D02*
D03*
D69*
X0Y-3779528D02*
D03*
Y0D02*
D03*
X3779528Y-3779528D02*
D03*
X3779527Y0D02*
D03*
D70*
X590354Y-3304528D02*
D03*
X3425000D02*
D03*
Y-469882D02*
D03*
X590354D02*
D03*
D71*
X711425Y-47528D02*
D03*
X150000Y-882677D02*
D03*
Y-1631890D02*
D03*
Y-2381102D02*
D03*
X483575Y-3734528D02*
D03*
X150000Y-3261102D02*
D03*
Y-321575D02*
D03*
D72*
X514575Y-47528D02*
D03*
X680425Y-3734528D02*
D03*
D73*
X1406000Y-153827D02*
D03*
Y-547528D02*
D03*
X2616000Y-155827D02*
D03*
Y-549528D02*
D03*
Y-3273827D02*
D03*
Y-3667528D02*
D03*
X1406000Y-3273827D02*
D03*
Y-3667528D02*
D03*
D74*
X1611339Y-2129528D02*
D03*
X2320000D02*
D03*
X1610000Y-2309528D02*
D03*
X2318661D02*
D03*
X1607874Y-2499747D02*
D03*
X2316535D02*
D03*
D75*
X150000Y-1079527D02*
D03*
Y-1828740D02*
D03*
Y-2577953D02*
D03*
Y-3457953D02*
D03*
Y-518425D02*
D03*
D76*
X2535992Y-1261086D02*
D03*
D77*
Y-2245338D02*
D03*
X2418000Y-1339827D02*
D03*
X2535992Y-1473685D02*
D03*
X2418000Y-1536677D02*
D03*
X2535992Y-1670535D02*
D03*
X2418000Y-1733527D02*
D03*
X2535992Y-1867386D02*
D03*
X2418000Y-1930378D02*
D03*
X2535992Y-1993370D02*
D03*
X2418000Y-2056362D02*
D03*
X2535992Y-2119354D02*
D03*
X2418000Y-2182347D02*
D03*
Y-2308331D02*
D03*
Y-2450063D02*
D03*
X2535992Y-2371323D02*
D03*
D78*
X1409575Y-1203803D02*
D03*
Y-1390024D02*
D03*
Y-1576244D02*
D03*
Y-1762465D02*
D03*
Y-1948685D02*
D03*
Y-2134905D02*
D03*
Y-2321126D02*
D03*
Y-2507347D02*
D03*
D79*
X3516000Y-950118D02*
D03*
Y-1174527D02*
D03*
Y-1350118D02*
D03*
Y-1450118D02*
D03*
D80*
X3014844Y-69371D02*
D03*
D81*
X3310000Y-1009528D02*
D03*
X3816000Y-1394527D02*
D03*
X3825000Y-925528D02*
D03*
X3827000Y-304527D02*
D03*
X3828063Y-125528D02*
D03*
X860000Y-2940528D02*
D03*
Y-2766528D02*
D03*
X907000Y-2853528D02*
D03*
X860000Y-2592528D02*
D03*
X907000Y-2679528D02*
D03*
X954000Y-2766528D02*
D03*
X1001000Y-2679528D02*
D03*
X954000Y-2592528D02*
D03*
X907000Y-2505528D02*
D03*
X954000Y-2418528D02*
D03*
X860000D02*
D03*
X907000Y-2331528D02*
D03*
X954000Y-2244528D02*
D03*
X1095000Y-2679528D02*
D03*
X1048000Y-2766528D02*
D03*
X1001000Y-2853528D02*
D03*
X954000Y-2940528D02*
D03*
X1095000Y-2853528D02*
D03*
X1048000Y-2940528D02*
D03*
Y-3288528D02*
D03*
X1095000Y-3201528D02*
D03*
X954000Y-3288528D02*
D03*
X1001000Y-3201528D02*
D03*
X1048000Y-3114528D02*
D03*
X1095000Y-3027528D02*
D03*
X1001000D02*
D03*
X954000Y-3114528D02*
D03*
X907000Y-3027528D02*
D03*
Y-3201528D02*
D03*
X860000Y-3114528D02*
D03*
X1048000Y-3636528D02*
D03*
X1095000Y-3549528D02*
D03*
X954000Y-3636528D02*
D03*
X1001000Y-3549528D02*
D03*
X1048000Y-3462528D02*
D03*
X1095000Y-3375528D02*
D03*
X1001000D02*
D03*
X954000Y-3462528D02*
D03*
X907000Y-3375528D02*
D03*
Y-3549528D02*
D03*
X860000Y-3462528D02*
D03*
Y-3636528D02*
D03*
X1095000Y-3723528D02*
D03*
X1001000D02*
D03*
X907000D02*
D03*
X790000Y-3574528D02*
D03*
X813000Y-3723528D02*
D03*
X720000Y-3654528D02*
D03*
X655000Y-3579528D02*
D03*
X575000Y-3659528D02*
D03*
X535000Y-3584528D02*
D03*
X441000D02*
D03*
X425000Y-3659528D02*
D03*
X346000Y-3542528D02*
D03*
Y-3716528D02*
D03*
X299000Y-3629528D02*
D03*
X210000Y-3625000D02*
D03*
X252000Y-3716528D02*
D03*
X1377000Y-3027528D02*
D03*
X1236000Y-2766528D02*
D03*
X1377000Y-2679528D02*
D03*
X1236000Y-2940528D02*
D03*
X1377000Y-2853528D02*
D03*
X1659000Y-3027528D02*
D03*
X1518000Y-2766528D02*
D03*
X1659000Y-2679528D02*
D03*
X1518000Y-2940528D02*
D03*
X1659000Y-2853528D02*
D03*
X1825000Y-2954528D02*
D03*
Y-2606528D02*
D03*
X1750000Y-1989527D02*
D03*
X1745505Y-1464527D02*
D03*
X1755000Y-1634527D02*
D03*
X1825000Y-1562527D02*
D03*
Y-1736527D02*
D03*
Y-1388527D02*
D03*
X1755000Y-1814527D02*
D03*
X1825000Y-1910527D02*
D03*
X1700000Y-764528D02*
D03*
X1825000Y-866528D02*
D03*
Y-1040527D02*
D03*
Y-692528D02*
D03*
X1740000Y-1109527D02*
D03*
X1825000Y-1214527D02*
D03*
X1740000Y-1289527D02*
D03*
X1700000Y-577528D02*
D03*
X1575000Y-662528D02*
D03*
X1950000Y-620528D02*
D03*
X2075000Y-548528D02*
D03*
X2175000Y-629528D02*
D03*
X2279000Y-533528D02*
D03*
X2400000Y-629528D02*
D03*
X2504000Y-533528D02*
D03*
X1199000Y-3653528D02*
D03*
X1303000Y-3583528D02*
D03*
Y-3757528D02*
D03*
X1699000Y-3791528D02*
D03*
X1595000Y-3687528D02*
D03*
X1491000Y-3583528D02*
D03*
X1887000Y-3791528D02*
D03*
X1783000Y-3687528D02*
D03*
X2075000Y-3791528D02*
D03*
X1971000Y-3687528D02*
D03*
X2263000Y-3791528D02*
D03*
X2159000Y-3687528D02*
D03*
X2451000Y-3791528D02*
D03*
X2347000Y-3687528D02*
D03*
X1511000Y-3791528D02*
D03*
Y-3397827D02*
D03*
X2431000Y-3189827D02*
D03*
X2243000D02*
D03*
X2347000Y-3293827D02*
D03*
X2055000Y-3189827D02*
D03*
X2159000Y-3293827D02*
D03*
X1867000Y-3189827D02*
D03*
X1971000Y-3293827D02*
D03*
X1679000Y-3189827D02*
D03*
X1783000Y-3293827D02*
D03*
X1516490Y-3189827D02*
D03*
X1595000Y-3293827D02*
D03*
X2031450Y-1962072D02*
D03*
X2156450Y-1890072D02*
D03*
X2031450Y-1788072D02*
D03*
X2156450Y-2586072D02*
D03*
X2031450Y-3006072D02*
D03*
X2156450Y-2934072D02*
D03*
Y-3108072D02*
D03*
Y-2760072D02*
D03*
X2031450Y-2658072D02*
D03*
X2156450Y-1194072D02*
D03*
X2031450Y-1092072D02*
D03*
X2156450Y-1020072D02*
D03*
X2031450Y-918072D02*
D03*
Y-1440072D02*
D03*
Y-1614072D02*
D03*
X2156450Y-1542072D02*
D03*
Y-1716072D02*
D03*
Y-1368072D02*
D03*
X2031450Y-1266072D02*
D03*
X2392000Y-958528D02*
D03*
X2288000Y-854528D02*
D03*
X2580000Y-958528D02*
D03*
X2476000Y-854528D02*
D03*
X2664000D02*
D03*
X2150000D02*
D03*
X2852000D02*
D03*
X3054000Y-725528D02*
D03*
Y-537528D02*
D03*
X2950000Y-641528D02*
D03*
X3054000Y-349527D02*
D03*
X2950000Y-453527D02*
D03*
X1654000Y-124528D02*
D03*
X1575490Y-20527D02*
D03*
X1842000Y-124528D02*
D03*
X1738000Y-20527D02*
D03*
X2030000Y-124528D02*
D03*
X1926000Y-20527D02*
D03*
X2218000Y-124528D02*
D03*
X2114000Y-20527D02*
D03*
X2510000Y-228528D02*
D03*
X2406000Y-124528D02*
D03*
X2302000Y-20527D02*
D03*
X2490000D02*
D03*
X2884000Y-25527D02*
D03*
X2988000Y-129528D02*
D03*
X3092000Y-233528D02*
D03*
X2696000Y-25527D02*
D03*
X2800000Y-129528D02*
D03*
X2904000Y-233528D02*
D03*
X2716000D02*
D03*
X928000D02*
D03*
X1116000D02*
D03*
X1012000Y-129528D02*
D03*
X908000Y-25527D02*
D03*
X1304000Y-233528D02*
D03*
X1200000Y-129528D02*
D03*
X1096000Y-25527D02*
D03*
X1284000D02*
D03*
X862000Y-495527D02*
D03*
X949000Y-542528D02*
D03*
X862000Y-401527D02*
D03*
X949000Y-448527D02*
D03*
X1036000Y-495527D02*
D03*
X1123000Y-542528D02*
D03*
Y-448527D02*
D03*
X1036000Y-401527D02*
D03*
X1123000Y-354527D02*
D03*
X949000D02*
D03*
X1036000Y-307527D02*
D03*
X862000D02*
D03*
X949000Y-817528D02*
D03*
X862000Y-676528D02*
D03*
X949000Y-723528D02*
D03*
X1036000Y-770528D02*
D03*
X1123000Y-817528D02*
D03*
Y-723528D02*
D03*
X1036000Y-676528D02*
D03*
X1123000Y-629528D02*
D03*
X949000D02*
D03*
X1036000Y-582528D02*
D03*
X862000D02*
D03*
X1124000Y-1117527D02*
D03*
Y-1023528D02*
D03*
X1211000Y-1070527D02*
D03*
X1298000Y-1117527D02*
D03*
Y-1023528D02*
D03*
X1211000Y-976528D02*
D03*
X1298000Y-929528D02*
D03*
X1124000D02*
D03*
X1211000Y-882528D02*
D03*
X1037000D02*
D03*
X1210000Y-770528D02*
D03*
X1297000Y-817528D02*
D03*
X1471000D02*
D03*
X1387000Y-1070527D02*
D03*
X1474000Y-1117527D02*
D03*
X1387000Y-976528D02*
D03*
Y-882528D02*
D03*
X1175000Y-1179527D02*
D03*
X1262000Y-1226527D02*
D03*
Y-1320527D02*
D03*
X1175000Y-1273527D02*
D03*
X725000Y-199528D02*
D03*
X772000Y-142528D02*
D03*
X866000D02*
D03*
X819000Y-229528D02*
D03*
X550000Y-199528D02*
D03*
X597000Y-142528D02*
D03*
X691000D02*
D03*
X644000Y-199528D02*
D03*
X375000Y-229528D02*
D03*
X422000Y-142528D02*
D03*
X516000D02*
D03*
X470000Y-199528D02*
D03*
X388000Y-55528D02*
D03*
X294000D02*
D03*
X328000Y-142528D02*
D03*
X215000Y-55000D02*
D03*
X2768000Y-958528D02*
D03*
X2428000Y-2939528D02*
D03*
X2616000D02*
D03*
X2512000Y-2835528D02*
D03*
X2408000Y-2731528D02*
D03*
X2804000Y-2939528D02*
D03*
X2700000Y-2835528D02*
D03*
X2596000Y-2731528D02*
D03*
X2784000D02*
D03*
X2908000Y-3043528D02*
D03*
X2888000Y-2835528D02*
D03*
X2596000Y-2543528D02*
D03*
X2492000Y-2647528D02*
D03*
Y-2459528D02*
D03*
X2790000Y-3669528D02*
D03*
X3340000Y-2049528D02*
D03*
Y-1971194D02*
D03*
Y-1892861D02*
D03*
Y-1814528D02*
D03*
X3225000Y-1784527D02*
D03*
Y-1869527D02*
D03*
Y-1954527D02*
D03*
D82*
X291000Y-866378D02*
D03*
X252000D02*
D03*
X330000D02*
D03*
X369000D02*
D03*
Y-1615591D02*
D03*
X330000D02*
D03*
X252000D02*
D03*
X291000D02*
D03*
X369000Y-2364803D02*
D03*
X330000D02*
D03*
X252000D02*
D03*
X291000D02*
D03*
D86*
X3830488Y-1669527D02*
D03*
X3491512D02*
D03*
X3485512Y-2064528D02*
D03*
X3824488D02*
D03*
X3824486Y-2419115D02*
D03*
X3485510D02*
D03*
X3824486Y-2774528D02*
D03*
X3485510D02*
D03*
D87*
X3562575Y-1669527D02*
D03*
X3759425D02*
D03*
X3661000D02*
D03*
X3753425Y-2064528D02*
D03*
X3556575D02*
D03*
X3655000D02*
D03*
X3556573Y-2419115D02*
D03*
X3753423D02*
D03*
X3654998D02*
D03*
X3556573Y-2774528D02*
D03*
X3753423D02*
D03*
X3654998D02*
D03*
D88*
X2930000Y-2660590D02*
D03*
Y-2418465D02*
D03*
D89*
X3394488Y-2774528D02*
D03*
X3055512D02*
D03*
X355512Y-2708528D02*
D03*
X694488D02*
D03*
X355512Y-1949027D02*
D03*
X694488D02*
D03*
X355512Y-1189527D02*
D03*
X694488D02*
D03*
D90*
X3126575Y-2774528D02*
D03*
X3323425D02*
D03*
X3225000D02*
D03*
X525000Y-2708528D02*
D03*
X623425D02*
D03*
X426575D02*
D03*
X525000Y-1949027D02*
D03*
X623425D02*
D03*
X426575D02*
D03*
X525000Y-1189527D02*
D03*
X623425D02*
D03*
X426575D02*
D03*
%TF.MD5,74b60e1adc30bc1e83b8fa0e89e14a1a*%
M02*
