G04 Layer_Color=255*
%FSLAX25Y25*%
%MOIN*%
%TF.FileFunction,Pads,Bot*%
%TF.Part,Single*%
G01*
G75*
%TA.AperFunction,SMDPad,CuDef*%
%ADD10R,0.05905X0.06299*%
%ADD11R,0.08071X0.17126*%
%ADD14R,0.06299X0.05905*%
%ADD16R,0.05512X0.05905*%
%ADD17R,0.15748X0.19095*%
%TA.AperFunction,ViaPad*%
%ADD28C,0.07874*%
%TA.AperFunction,WasherPad*%
%ADD29C,0.06000*%
%TA.AperFunction,ComponentPad*%
%ADD30R,0.11811X0.11811*%
%ADD31C,0.11811*%
%ADD32R,0.11811X0.11811*%
%ADD33C,0.15748*%
%ADD34C,0.04724*%
%ADD35C,0.05905*%
%ADD36R,0.05905X0.05905*%
%ADD37R,0.09842X0.05118*%
%ADD38O,0.09842X0.05118*%
%ADD39O,0.19685X0.11811*%
%ADD40C,0.06000*%
%TA.AperFunction,SMDPad,CuDef*%
%ADD44R,0.17126X0.08071*%
%ADD45R,0.04882X0.27559*%
%ADD46R,0.04331X0.31496*%
%TA.AperFunction,ConnectorPad*%
%ADD47R,0.04882X0.27559*%
%ADD48R,0.04331X0.31496*%
D10*
X263360Y110000D02*
D03*
X270840D02*
D03*
X263360Y134000D02*
D03*
X270840D02*
D03*
X263360Y118000D02*
D03*
X270840D02*
D03*
X263360Y142000D02*
D03*
X270840D02*
D03*
X263360Y126000D02*
D03*
X270840D02*
D03*
X263360Y150000D02*
D03*
X270840D02*
D03*
X127360Y85000D02*
D03*
X134840D02*
D03*
X127360Y104000D02*
D03*
X134840D02*
D03*
X127360Y123000D02*
D03*
X134840D02*
D03*
D11*
X263206Y222000D02*
D03*
X238994D02*
D03*
X264206Y195000D02*
D03*
X239994D02*
D03*
X249994Y168500D02*
D03*
X274206D02*
D03*
D14*
X231600Y101740D02*
D03*
Y94260D02*
D03*
D16*
X131037Y134000D02*
D03*
X123163D02*
D03*
X208537Y103000D02*
D03*
X200663D02*
D03*
X131037Y115000D02*
D03*
X123163D02*
D03*
X130037Y96000D02*
D03*
X122163D02*
D03*
X200663Y82000D02*
D03*
X208537D02*
D03*
X293663Y246500D02*
D03*
X301537D02*
D03*
X293537Y236000D02*
D03*
X285663D02*
D03*
X293163Y228500D02*
D03*
X301037D02*
D03*
X346337Y310500D02*
D03*
X338463D02*
D03*
X346337Y328200D02*
D03*
X338463D02*
D03*
D17*
X90200Y108200D02*
D03*
X73200D02*
D03*
D28*
X27135Y293965D02*
D03*
X310600D02*
D03*
Y10500D02*
D03*
X27135D02*
D03*
D29*
X346053Y340953D02*
D03*
X346053Y-37000D02*
D03*
X-31900Y340953D02*
D03*
Y-37000D02*
D03*
D30*
X19557Y336200D02*
D03*
X36143Y-32500D02*
D03*
D31*
X39243Y336200D02*
D03*
X-16900Y308795D02*
D03*
X16457Y-32500D02*
D03*
X-16900Y14842D02*
D03*
Y252685D02*
D03*
Y177764D02*
D03*
Y102842D02*
D03*
D32*
Y289110D02*
D03*
Y-4843D02*
D03*
Y233000D02*
D03*
Y158079D02*
D03*
Y83157D02*
D03*
D33*
X108700Y325570D02*
D03*
Y286200D02*
D03*
X229700Y325370D02*
D03*
Y286000D02*
D03*
Y13570D02*
D03*
Y-25800D02*
D03*
X108700Y13570D02*
D03*
Y-25800D02*
D03*
D34*
X129234Y128000D02*
D03*
X200100D02*
D03*
X129100Y110000D02*
D03*
X199966D02*
D03*
X128887Y90978D02*
D03*
X199753D02*
D03*
D35*
X280600Y63500D02*
D03*
X290600D02*
D03*
X323600Y63500D02*
D03*
X333600D02*
D03*
X323600Y99041D02*
D03*
X333600D02*
D03*
X10600Y222000D02*
D03*
X20600D02*
D03*
X10600Y146050D02*
D03*
X20600D02*
D03*
X10600Y70100D02*
D03*
X20600D02*
D03*
X324200Y174000D02*
D03*
X334200D02*
D03*
X343600Y134500D02*
D03*
X333600D02*
D03*
D36*
X300600Y63500D02*
D03*
X343600Y63500D02*
D03*
Y99041D02*
D03*
X30600Y222000D02*
D03*
Y146050D02*
D03*
Y70100D02*
D03*
X344200Y174000D02*
D03*
X323600Y134500D02*
D03*
D37*
X221699Y214844D02*
D03*
D38*
Y116419D02*
D03*
X209900Y206970D02*
D03*
X221699Y193584D02*
D03*
X209900Y187285D02*
D03*
X221699Y173899D02*
D03*
X209900Y167600D02*
D03*
X221699Y154214D02*
D03*
X209900Y147915D02*
D03*
X221699Y141616D02*
D03*
X209900Y135317D02*
D03*
X221699Y129017D02*
D03*
X209900Y122718D02*
D03*
Y110120D02*
D03*
Y95947D02*
D03*
X221699Y103821D02*
D03*
D39*
X109057Y220572D02*
D03*
Y201950D02*
D03*
Y183328D02*
D03*
Y164706D02*
D03*
Y146084D02*
D03*
Y127462D02*
D03*
Y108840D02*
D03*
Y90218D02*
D03*
D40*
X319700Y195941D02*
D03*
Y205941D02*
D03*
Y223500D02*
D03*
Y245941D02*
D03*
D44*
X261100Y74894D02*
D03*
Y99106D02*
D03*
D45*
X290600Y63500D02*
D03*
X300443D02*
D03*
X280757D02*
D03*
X20600Y222000D02*
D03*
X30443D02*
D03*
X10757D02*
D03*
X20600Y146050D02*
D03*
X30443D02*
D03*
X10757D02*
D03*
X20600Y70100D02*
D03*
X30443D02*
D03*
X10757D02*
D03*
D46*
X273651Y63500D02*
D03*
X307549D02*
D03*
X3651Y222000D02*
D03*
X37549D02*
D03*
X3651Y146050D02*
D03*
X37549D02*
D03*
X3651Y70100D02*
D03*
X37549D02*
D03*
D47*
X333600Y63500D02*
D03*
X343442D02*
D03*
X323757D02*
D03*
X333600Y99041D02*
D03*
X343442D02*
D03*
X323757D02*
D03*
X334200Y174000D02*
D03*
X344042D02*
D03*
X324358D02*
D03*
X333600Y134500D02*
D03*
X323758D02*
D03*
X343443D02*
D03*
D48*
X316651Y63500D02*
D03*
X350549D02*
D03*
X316651Y99041D02*
D03*
X350549D02*
D03*
X317251Y174000D02*
D03*
X351149D02*
D03*
X350549Y134500D02*
D03*
X316651D02*
D03*
%TF.MD5,60eae5f681a237fca93dae0d895a7156*%
M02*
