M48
;Layer_Color=9474304
;FILE_FORMAT=2:5
INCH,TZ
;TYPE=PLATED
T1F00S00C0.01500
T2F00S00C0.01575
T3F00S00C0.02756
T4F00S00C0.02800
T5F00S00C0.03000
T6F00S00C0.03543
T7F00S00C0.03937
T8F00S00C0.04724
T9F00S00C0.05906
T10F00S00C0.07874
T11F00S00C0.19685
;TYPE=NON_PLATED
T12F00S00C0.11811
%
T01
X-6700Y-30700
X2700
X-2000Y-22000
X-10900Y-21547
X2700Y-13300
X12200Y-17500
X10600Y-25000
X25600
X21600Y-17500
X33600Y-17000
X47100Y-16500
X54100Y-22700
X63500
X72900
X77600Y-14000
X68200
X58800
X63500Y-5300
X72900
X77600Y3400
X68200
X58800
X63500Y12100
X72900
X77600Y20800
X68200
X58800
X63500Y29500
X72900
X77600Y38200
X68200
X58800
X54100Y46900
X63500
X72900
X68200Y55600
X58800
X54100Y64300
X63500
X72900
X68200Y73000
X58800
X54100Y81700
X63500
X58800Y90400
X77600Y73000
Y55600
X91700Y64300
Y46900
X105800Y38200
Y55600
Y73000
X54100Y29500
Y-5300
X58800Y-31400
X68200
X77600
X88000Y-24400
X98400Y-17400
Y-34800
X49400Y-31400
X40100Y-24500
X117200Y-17400
X119200Y1170
X127600Y11570
X119749Y21970
X136000
X134000Y38200
Y55600
Y73000
X119900Y64300
Y46900
X150600Y45500
X171245Y40345
X183745Y47545
Y30145
X192400Y21970
X211200
X202800Y11570
X184000
X165200
X173600Y21970
X154800
X146400Y11570
Y-27800
X138000Y-38200
X156800
X175600
X194400
X213200
X202800Y-27800
X184000
X165200
X127600
X119200Y-38200
X247100Y-26000
X248500Y47000
X229700
X210900
X219300Y57400
X238100
X246500Y67800
X227700
X208900
X217300Y76200
X227700Y86600
X183745Y82345
Y64946
X171245Y75146
X150600Y80300
X256900Y57400
X258900Y36600
X217300Y95000
X183745Y151945
Y169345
Y186746
Y204146
Y221546
Y238946
X171245Y231746
Y214346
Y196946
Y179545
Y162145
Y144746
X150600Y149900
X143100Y142000
X143600Y159500
X150600Y167300
X143600Y177500
X150600Y184700
Y202100
X142650Y194500
X142100Y212000
X150600Y219500
Y236900
X142100Y230000
X115500Y229200
X207300Y245100
X226100
X244900
X106800Y243300
Y233900
X97900Y229200
Y238600
X89200Y233900
Y243300
X80500Y238600
Y229200
X85600Y223000
Y213600
X94300Y218300
Y208900
X61050Y116000
X58800Y107800
X63500Y99100
X54100
X63000Y259200
Y268600
Y278000
Y286700
Y296100
Y305500
X54300Y300800
Y291400
Y282700
Y273300
X71700
Y263900
X71800Y252700
X80500Y248000
X80400Y259200
Y268600
Y278000
Y286700
Y296100
Y305500
X79700Y317600
X71700Y310200
Y300800
Y291400
Y282700
X89100Y263900
X89200Y252700
X97900Y248000
X97800Y259200
X106800Y252700
X98500Y317600
X88100Y328000
X69300
X54700Y326700
X45300
X37200
X40600Y321000
X32500
X23100
X15100
X19700Y326700
X27800
X10300
X900
X-2500Y335400
X-10400Y335453
X6900Y335400
X5600Y318000
X50000
X60900Y317600
X54300Y310200
X58900Y338400
X77700
X96500
X125649Y338900
X141900
X133500Y328500
X152300
X171100
X189900
X208700
X217100Y338900
X198300
X179500
X160700
X163100Y278900
X150600Y271700
Y254300
X138100Y264500
Y283200
X125600Y274700
X115200Y259200
X171245Y249146
X183100Y255500
X196900
X215700
X234500
X253300
X263100Y276800
Y295600
X258500Y317600
X239700
X248100Y328000
X256500Y338400
X237700
X219100Y318100
X218500Y287600
X208100Y278000
X196000Y287600
X185600Y278000
X175600Y286100
X273500Y287200
Y268400
Y306000
X277300Y317600
X266900Y328000
T02
X290600Y145500
Y154000
Y162500
X302100Y159500
Y151667
Y143833
Y136000
X299100Y240000
X349700Y201500
X5000Y179394
X1100
X-2800
X-6700
Y104472
X-2800
X1100
X5000
Y254315
X1100
X-2800
X-6700
X350600Y248400
X350800Y310500
X350906Y328400
T03
X128887Y90978
X199753
X199966Y110000
X200100Y128000
X129234
X129100Y110000
T04
X269584Y334016
T05
X319700Y195941
Y205941
Y223500
Y245941
T06
X10600Y70100
X20600
X30600
X280600Y63500
X290600
X300600
X323600Y63500
X333600
X343600
Y99041
X333600
X323600
X323600Y134500
X333600
X343600
X344200Y174000
X334200
X324200
X221699Y214844
X30600Y222000
X20600
X10600
Y146050
X20600
X30600
T07
X209900Y95947
Y110120
Y122718
Y135317
Y147915
X221699Y141616
Y129017
Y116419
Y103821
Y154214
Y173899
X209900Y167600
Y187285
X221699Y193584
X209900Y206970
T08
X-16900Y-4843
Y14842
Y83157
X16457Y-32500
X36143
X-16900Y102842
Y158079
Y177764
Y233000
Y252685
Y289110
Y308795
X19557Y336200
X39243
T09
X109057Y90218
Y108840
Y127462
Y146084
Y164706
Y183328
Y201950
Y220572
T10
X108700Y-25800
Y13570
X229700
Y-25800
X108700Y286200
Y325570
X229700Y325370
Y286000
T11
X27135Y10500
X310600
X27135Y293965
X310600
T12
X-31900Y-37000
X346053
X-31900Y340953
X346053
M30
