G04 Layer_Color=255*
%FSLAX25Y25*%
%MOIN*%
%TF.FileFunction,Pads,Top*%
%TF.Part,Single*%
G01*
G75*
%TA.AperFunction,SMDPad,CuDef*%
%ADD10R,0.02362X0.07087*%
%ADD11O,0.02362X0.07087*%
%ADD12R,0.05512X0.05905*%
%ADD13R,0.05905X0.05512*%
%ADD14R,0.15748X0.19095*%
%ADD15O,0.02559X0.07087*%
%ADD16R,0.06299X0.05905*%
%ADD17R,0.05905X0.06299*%
%ADD18R,0.08071X0.17126*%
%ADD19R,0.07087X0.14173*%
%ADD20R,0.14173X0.07087*%
%TA.AperFunction,ComponentPad*%
%ADD28C,0.11811*%
%ADD29R,0.11811X0.11811*%
%ADD30C,0.06000*%
%ADD31O,0.19685X0.11811*%
%ADD32O,0.09842X0.05118*%
%ADD33R,0.09842X0.05118*%
%ADD34R,0.05905X0.05905*%
%ADD35C,0.05905*%
%ADD36C,0.04724*%
%ADD37C,0.15748*%
%ADD38R,0.11811X0.11811*%
%TA.AperFunction,WasherPad*%
%ADD39C,0.06000*%
%TA.AperFunction,ViaPad*%
%ADD40C,0.07874*%
D10*
X346600Y244500D02*
D03*
X304100Y236000D02*
D03*
D11*
X341600Y244500D02*
D03*
X336600D02*
D03*
X331600D02*
D03*
X346600Y201587D02*
D03*
X341600D02*
D03*
X336600D02*
D03*
X331600D02*
D03*
X299100Y236000D02*
D03*
X294100D02*
D03*
X289100D02*
D03*
X304100Y193087D02*
D03*
X299100D02*
D03*
X294100D02*
D03*
X289100D02*
D03*
D12*
X295763Y319500D02*
D03*
X303637D02*
D03*
X303937Y330350D02*
D03*
X296063D02*
D03*
X295763Y341200D02*
D03*
X303637D02*
D03*
X277663Y341100D02*
D03*
X285537D02*
D03*
X321737Y319600D02*
D03*
X313863D02*
D03*
X346137Y328400D02*
D03*
X338263D02*
D03*
X338363Y296800D02*
D03*
X346237D02*
D03*
X346437Y310600D02*
D03*
X338563D02*
D03*
X325163Y145000D02*
D03*
X333037D02*
D03*
X263163Y150000D02*
D03*
X271037D02*
D03*
X263163Y142000D02*
D03*
X271037D02*
D03*
X263163Y134000D02*
D03*
X271037D02*
D03*
X263163Y126000D02*
D03*
X271037D02*
D03*
X263163Y118000D02*
D03*
X271037D02*
D03*
X263163Y110000D02*
D03*
X271037D02*
D03*
D13*
X321540Y337627D02*
D03*
Y329753D02*
D03*
X339700Y277263D02*
D03*
Y285137D02*
D03*
X341800Y192837D02*
D03*
Y184963D02*
D03*
X348000Y285137D02*
D03*
Y277263D02*
D03*
X279100Y23937D02*
D03*
Y16063D02*
D03*
D14*
X73200Y92900D02*
D03*
X90200D02*
D03*
X73200Y123900D02*
D03*
X90200D02*
D03*
D15*
X27600Y102824D02*
D03*
X22600D02*
D03*
X17600D02*
D03*
X12600D02*
D03*
X27600Y80776D02*
D03*
X22600D02*
D03*
X17600D02*
D03*
X12600D02*
D03*
X27600Y177924D02*
D03*
X22600D02*
D03*
X17600D02*
D03*
X12600D02*
D03*
X27600Y155876D02*
D03*
X22600D02*
D03*
X17600D02*
D03*
X12600D02*
D03*
X27600Y253024D02*
D03*
X22600D02*
D03*
X17600D02*
D03*
X12600D02*
D03*
X27600Y230976D02*
D03*
X22600D02*
D03*
X17600D02*
D03*
X12600D02*
D03*
D16*
X344000Y158060D02*
D03*
Y165540D02*
D03*
X331300Y274660D02*
D03*
Y282140D02*
D03*
X312100Y202240D02*
D03*
Y194760D02*
D03*
X313000Y231260D02*
D03*
Y238740D02*
D03*
X251600Y92260D02*
D03*
Y99740D02*
D03*
D17*
X325260Y165600D02*
D03*
X332740D02*
D03*
X342340Y126500D02*
D03*
X334860D02*
D03*
X15960Y59500D02*
D03*
X23440D02*
D03*
X15960Y136300D02*
D03*
X23440D02*
D03*
X15960Y213100D02*
D03*
X23440D02*
D03*
D18*
X348906Y259400D02*
D03*
X324694D02*
D03*
X299206Y79500D02*
D03*
X274994D02*
D03*
X274706Y168000D02*
D03*
X250494D02*
D03*
X238887Y195000D02*
D03*
X263100D02*
D03*
X239994Y222000D02*
D03*
X264206D02*
D03*
D19*
X122029Y242453D02*
D03*
X138171D02*
D03*
X169371Y61053D02*
D03*
X153229D02*
D03*
D20*
X201100Y-476D02*
D03*
Y-16618D02*
D03*
X180433Y-476D02*
D03*
Y-16618D02*
D03*
X159767Y-476D02*
D03*
Y-16618D02*
D03*
X139100Y-476D02*
D03*
Y-16618D02*
D03*
X198600Y315024D02*
D03*
Y298882D02*
D03*
X157267Y315024D02*
D03*
Y298882D02*
D03*
X177933Y315024D02*
D03*
Y298882D02*
D03*
X136600Y315024D02*
D03*
Y298882D02*
D03*
D28*
X-16900Y102842D02*
D03*
Y177764D02*
D03*
Y252685D02*
D03*
Y14842D02*
D03*
X16457Y-32500D02*
D03*
X-16900Y308795D02*
D03*
X39243Y336200D02*
D03*
D29*
X-16900Y83157D02*
D03*
Y158079D02*
D03*
Y233000D02*
D03*
Y-4843D02*
D03*
Y289110D02*
D03*
D30*
X319700Y245941D02*
D03*
Y223500D02*
D03*
Y205941D02*
D03*
Y195941D02*
D03*
D31*
X109057Y90218D02*
D03*
Y108840D02*
D03*
Y127462D02*
D03*
Y146084D02*
D03*
Y164706D02*
D03*
Y183328D02*
D03*
Y201950D02*
D03*
Y220572D02*
D03*
D32*
X221699Y103821D02*
D03*
X209900Y95947D02*
D03*
Y110120D02*
D03*
Y122718D02*
D03*
X221699Y129017D02*
D03*
X209900Y135317D02*
D03*
X221699Y141616D02*
D03*
X209900Y147915D02*
D03*
X221699Y154214D02*
D03*
X209900Y167600D02*
D03*
X221699Y173899D02*
D03*
X209900Y187285D02*
D03*
X221699Y193584D02*
D03*
X209900Y206970D02*
D03*
X221699Y116419D02*
D03*
D33*
Y214844D02*
D03*
D34*
X323600Y134500D02*
D03*
X344200Y174000D02*
D03*
X30600Y70100D02*
D03*
Y146050D02*
D03*
Y222000D02*
D03*
X343600Y99041D02*
D03*
Y63500D02*
D03*
X300600Y63500D02*
D03*
D35*
X333600Y134500D02*
D03*
X343600D02*
D03*
X334200Y174000D02*
D03*
X324200D02*
D03*
X20600Y70100D02*
D03*
X10600D02*
D03*
X20600Y146050D02*
D03*
X10600D02*
D03*
X20600Y222000D02*
D03*
X10600D02*
D03*
X333600Y99041D02*
D03*
X323600D02*
D03*
X333600Y63500D02*
D03*
X323600D02*
D03*
X290600Y63500D02*
D03*
X280600D02*
D03*
D36*
X199753Y90978D02*
D03*
X128887D02*
D03*
X199966Y110000D02*
D03*
X129100D02*
D03*
X200100Y128000D02*
D03*
X129234D02*
D03*
D37*
X108700Y-25800D02*
D03*
Y13570D02*
D03*
X229700Y-25800D02*
D03*
Y13570D02*
D03*
Y286000D02*
D03*
Y325370D02*
D03*
X108700Y286200D02*
D03*
Y325570D02*
D03*
D38*
X36143Y-32500D02*
D03*
X19557Y336200D02*
D03*
D39*
X-31900Y-37000D02*
D03*
Y340953D02*
D03*
X346053Y-37000D02*
D03*
X346053Y340953D02*
D03*
D40*
X27135Y10500D02*
D03*
X310600D02*
D03*
Y293965D02*
D03*
X27135D02*
D03*
%TF.MD5,376ff82e970f01f207319816d9bd1552*%
M02*
