G04 Layer_Color=16711935*
%FSLAX25Y25*%
%MOIN*%
%TF.FileFunction,Soldermask,Bot*%
%TF.Part,Single*%
G01*
G75*
%TA.AperFunction,SMDPad,CuDef*%
%ADD58R,0.06312X0.06706*%
%ADD60R,0.16548X0.19894*%
%ADD62R,0.07099X0.06706*%
%ADD63R,0.06706X0.07099*%
%ADD64R,0.08871X0.17926*%
%TA.AperFunction,ComponentPad*%
%ADD67C,0.12611*%
%ADD68R,0.12611X0.12611*%
%ADD69C,0.06800*%
%ADD70O,0.20485X0.12611*%
%ADD71O,0.10642X0.05918*%
%ADD72R,0.10642X0.05918*%
%ADD73R,0.06706X0.06706*%
%ADD74C,0.06706*%
%ADD75C,0.05524*%
%ADD76C,0.16548*%
%ADD77R,0.12611X0.12611*%
%TA.AperFunction,WasherPad*%
%ADD78C,0.06800*%
%TA.AperFunction,ViaPad*%
%ADD79C,0.08674*%
%ADD80C,0.03800*%
%ADD81C,0.05800*%
%ADD82C,0.03162*%
%TA.AperFunction,ConnectorPad*%
%ADD87R,0.05131X0.32296*%
%ADD88R,0.05682X0.28359*%
%TA.AperFunction,SMDPad,CuDef*%
%ADD89R,0.05131X0.32296*%
%ADD90R,0.05682X0.28359*%
%ADD91R,0.17926X0.08871*%
G36*
X116281Y115200D02*
X119481Y112000D01*
X119481Y104800D01*
X115881Y101200D01*
X87881Y101200D01*
Y115200D01*
X116281Y115200D01*
D02*
G37*
D58*
X338463Y328200D02*
D03*
X346337D02*
D03*
X338463Y310500D02*
D03*
X346337D02*
D03*
X301037Y228500D02*
D03*
X293163D02*
D03*
X285663Y236000D02*
D03*
X293537D02*
D03*
X301537Y246500D02*
D03*
X293663D02*
D03*
X208537Y82000D02*
D03*
X200663D02*
D03*
X122163Y96000D02*
D03*
X130037D02*
D03*
X123163Y115000D02*
D03*
X131037D02*
D03*
X200663Y103000D02*
D03*
X208537D02*
D03*
X123163Y134000D02*
D03*
X131037D02*
D03*
D60*
X73200Y108200D02*
D03*
X90200D02*
D03*
D62*
X231600Y94260D02*
D03*
Y101740D02*
D03*
D63*
X134840Y123000D02*
D03*
X127360D02*
D03*
X134840Y104000D02*
D03*
X127360D02*
D03*
X134840Y85000D02*
D03*
X127360D02*
D03*
X270840Y150000D02*
D03*
X263360D02*
D03*
X270840Y126000D02*
D03*
X263360D02*
D03*
X270840Y142000D02*
D03*
X263360D02*
D03*
X270840Y118000D02*
D03*
X263360D02*
D03*
X270840Y134000D02*
D03*
X263360D02*
D03*
X270840Y110000D02*
D03*
X263360D02*
D03*
D64*
X274206Y168500D02*
D03*
X249994D02*
D03*
X239994Y195000D02*
D03*
X264206D02*
D03*
X238994Y222000D02*
D03*
X263206D02*
D03*
D67*
X-16900Y102842D02*
D03*
Y177764D02*
D03*
Y252685D02*
D03*
Y14842D02*
D03*
X16457Y-32500D02*
D03*
X-16900Y308795D02*
D03*
X39243Y336200D02*
D03*
D68*
X-16900Y83157D02*
D03*
Y158079D02*
D03*
Y233000D02*
D03*
Y-4843D02*
D03*
Y289110D02*
D03*
D69*
X319700Y245941D02*
D03*
Y223500D02*
D03*
Y205941D02*
D03*
Y195941D02*
D03*
D70*
X109057Y90218D02*
D03*
Y108840D02*
D03*
Y127462D02*
D03*
Y146084D02*
D03*
Y164706D02*
D03*
Y183328D02*
D03*
Y201950D02*
D03*
Y220572D02*
D03*
D71*
X221699Y103821D02*
D03*
X209900Y95947D02*
D03*
Y110120D02*
D03*
Y122718D02*
D03*
X221699Y129017D02*
D03*
X209900Y135317D02*
D03*
X221699Y141616D02*
D03*
X209900Y147915D02*
D03*
X221699Y154214D02*
D03*
X209900Y167600D02*
D03*
X221699Y173899D02*
D03*
X209900Y187285D02*
D03*
X221699Y193584D02*
D03*
X209900Y206970D02*
D03*
X221699Y116419D02*
D03*
D72*
Y214844D02*
D03*
D73*
X323600Y134500D02*
D03*
X344200Y174000D02*
D03*
X30600Y70100D02*
D03*
Y146050D02*
D03*
Y222000D02*
D03*
X343600Y99041D02*
D03*
Y63500D02*
D03*
X300600Y63500D02*
D03*
D74*
X333600Y134500D02*
D03*
X343600D02*
D03*
X334200Y174000D02*
D03*
X324200D02*
D03*
X20600Y70100D02*
D03*
X10600D02*
D03*
X20600Y146050D02*
D03*
X10600D02*
D03*
X20600Y222000D02*
D03*
X10600D02*
D03*
X333600Y99041D02*
D03*
X323600D02*
D03*
X333600Y63500D02*
D03*
X323600D02*
D03*
X290600Y63500D02*
D03*
X280600D02*
D03*
D75*
X199753Y90978D02*
D03*
X128887D02*
D03*
X199966Y110000D02*
D03*
X129100D02*
D03*
X200100Y128000D02*
D03*
X129234D02*
D03*
D76*
X108700Y-25800D02*
D03*
Y13570D02*
D03*
X229700Y-25800D02*
D03*
Y13570D02*
D03*
Y286000D02*
D03*
Y325370D02*
D03*
X108700Y286200D02*
D03*
Y325570D02*
D03*
D77*
X36143Y-32500D02*
D03*
X19557Y336200D02*
D03*
D78*
X-31900Y-37000D02*
D03*
Y340953D02*
D03*
X346053Y-37000D02*
D03*
X346053Y340953D02*
D03*
D79*
X27135Y10500D02*
D03*
X310600D02*
D03*
Y293965D02*
D03*
X27135D02*
D03*
D80*
X63500Y99100D02*
D03*
X299100Y240000D02*
D03*
X349700Y201500D02*
D03*
X350600Y248400D02*
D03*
X350800Y310500D02*
D03*
X350906Y328400D02*
D03*
X54100Y46900D02*
D03*
Y64300D02*
D03*
X58800Y55600D02*
D03*
X54100Y81700D02*
D03*
X58800Y73000D02*
D03*
X63500Y64300D02*
D03*
X68200Y73000D02*
D03*
X63500Y81700D02*
D03*
X58800Y90400D02*
D03*
X54100Y99100D02*
D03*
X58800Y107800D02*
D03*
X61050Y116000D02*
D03*
X77600Y73000D02*
D03*
X72900Y64300D02*
D03*
X68200Y55600D02*
D03*
X63500Y46900D02*
D03*
X77600Y55600D02*
D03*
X72900Y46900D02*
D03*
Y12100D02*
D03*
X77600Y20800D02*
D03*
X63500Y12100D02*
D03*
X68200Y20800D02*
D03*
X72900Y29500D02*
D03*
X77600Y38200D02*
D03*
X68200D02*
D03*
X63500Y29500D02*
D03*
X58800Y38200D02*
D03*
Y20800D02*
D03*
X54100Y29500D02*
D03*
X72900Y-22700D02*
D03*
X77600Y-14000D02*
D03*
X63500Y-22700D02*
D03*
X68200Y-14000D02*
D03*
X72900Y-5300D02*
D03*
X77600Y3400D02*
D03*
X68200D02*
D03*
X63500Y-5300D02*
D03*
X58800Y3400D02*
D03*
Y-14000D02*
D03*
X54100Y-5300D02*
D03*
Y-22700D02*
D03*
X77600Y-31400D02*
D03*
X68200D02*
D03*
X58800D02*
D03*
X47100Y-16500D02*
D03*
X49400Y-31400D02*
D03*
X40100Y-24500D02*
D03*
X33600Y-17000D02*
D03*
X25600Y-25000D02*
D03*
X21600Y-17500D02*
D03*
X12200D02*
D03*
X10600Y-25000D02*
D03*
X2700Y-13300D02*
D03*
Y-30700D02*
D03*
X-2000Y-22000D02*
D03*
X-10900Y-21547D02*
D03*
X-6700Y-30700D02*
D03*
X105800Y38200D02*
D03*
X91700Y64300D02*
D03*
X105800Y73000D02*
D03*
X91700Y46900D02*
D03*
X105800Y55600D02*
D03*
X134000Y38200D02*
D03*
X119900Y64300D02*
D03*
X134000Y73000D02*
D03*
X119900Y46900D02*
D03*
X134000Y55600D02*
D03*
X150600Y45500D02*
D03*
Y80300D02*
D03*
X143100Y142000D02*
D03*
X142650Y194500D02*
D03*
X143600Y177500D02*
D03*
X150600Y184700D02*
D03*
Y167300D02*
D03*
Y202100D02*
D03*
X143600Y159500D02*
D03*
X150600Y149900D02*
D03*
X138100Y264500D02*
D03*
X150600Y254300D02*
D03*
Y236900D02*
D03*
Y271700D02*
D03*
X142100Y230000D02*
D03*
X150600Y219500D02*
D03*
X142100Y212000D02*
D03*
X138100Y283200D02*
D03*
X125600Y274700D02*
D03*
X163100Y278900D02*
D03*
X175600Y286100D02*
D03*
X185600Y278000D02*
D03*
X196000Y287600D02*
D03*
X208100Y278000D02*
D03*
X218500Y287600D02*
D03*
X88000Y-24400D02*
D03*
X98400Y-17400D02*
D03*
Y-34800D02*
D03*
X138000Y-38200D02*
D03*
X127600Y-27800D02*
D03*
X117200Y-17400D02*
D03*
X156800Y-38200D02*
D03*
X146400Y-27800D02*
D03*
X175600Y-38200D02*
D03*
X165200Y-27800D02*
D03*
X194400Y-38200D02*
D03*
X184000Y-27800D02*
D03*
X213200Y-38200D02*
D03*
X202800Y-27800D02*
D03*
X119200Y-38200D02*
D03*
Y1170D02*
D03*
X211200Y21970D02*
D03*
X192400D02*
D03*
X202800Y11570D02*
D03*
X173600Y21970D02*
D03*
X184000Y11570D02*
D03*
X154800Y21970D02*
D03*
X165200Y11570D02*
D03*
X136000Y21970D02*
D03*
X146400Y11570D02*
D03*
X119749Y21970D02*
D03*
X127600Y11570D02*
D03*
X171245Y144746D02*
D03*
X183745Y151945D02*
D03*
X171245Y162145D02*
D03*
X183745Y82345D02*
D03*
X171245Y40345D02*
D03*
X183745Y47545D02*
D03*
Y30145D02*
D03*
Y64946D02*
D03*
X171245Y75146D02*
D03*
X183745Y221546D02*
D03*
X171245Y231746D02*
D03*
X183745Y238946D02*
D03*
X171245Y249146D02*
D03*
Y196946D02*
D03*
Y179545D02*
D03*
X183745Y186746D02*
D03*
Y169345D02*
D03*
Y204146D02*
D03*
X171245Y214346D02*
D03*
X207300Y245100D02*
D03*
X196900Y255500D02*
D03*
X226100Y245100D02*
D03*
X215700Y255500D02*
D03*
X234500D02*
D03*
X183100D02*
D03*
X253300D02*
D03*
X273500Y268400D02*
D03*
Y287200D02*
D03*
X263100Y276800D02*
D03*
X273500Y306000D02*
D03*
X263100Y295600D02*
D03*
X133500Y328500D02*
D03*
X125649Y338900D02*
D03*
X152300Y328500D02*
D03*
X141900Y338900D02*
D03*
X171100Y328500D02*
D03*
X160700Y338900D02*
D03*
X189900Y328500D02*
D03*
X179500Y338900D02*
D03*
X219100Y318100D02*
D03*
X208700Y328500D02*
D03*
X198300Y338900D02*
D03*
X217100D02*
D03*
X256500Y338400D02*
D03*
X266900Y328000D02*
D03*
X277300Y317600D02*
D03*
X237700Y338400D02*
D03*
X248100Y328000D02*
D03*
X258500Y317600D02*
D03*
X239700D02*
D03*
X60900D02*
D03*
X79700D02*
D03*
X69300Y328000D02*
D03*
X58900Y338400D02*
D03*
X98500Y317600D02*
D03*
X88100Y328000D02*
D03*
X77700Y338400D02*
D03*
X96500D02*
D03*
X54300Y291400D02*
D03*
X63000Y286700D02*
D03*
X54300Y300800D02*
D03*
X63000Y296100D02*
D03*
X71700Y291400D02*
D03*
X80400Y286700D02*
D03*
Y296100D02*
D03*
X71700Y300800D02*
D03*
X80400Y305500D02*
D03*
X63000D02*
D03*
X71700Y310200D02*
D03*
X54300D02*
D03*
X63000Y259200D02*
D03*
X54300Y273300D02*
D03*
X63000Y268600D02*
D03*
X71700Y263900D02*
D03*
X80400Y259200D02*
D03*
Y268600D02*
D03*
X71700Y273300D02*
D03*
X80400Y278000D02*
D03*
X63000D02*
D03*
X71700Y282700D02*
D03*
X54300D02*
D03*
X80500Y229200D02*
D03*
Y238600D02*
D03*
X89200Y233900D02*
D03*
X97900Y229200D02*
D03*
Y238600D02*
D03*
X89200Y243300D02*
D03*
X97900Y248000D02*
D03*
X80500D02*
D03*
X89200Y252700D02*
D03*
X71800D02*
D03*
X89100Y263900D02*
D03*
X97800Y259200D02*
D03*
X115200D02*
D03*
X106800Y233900D02*
D03*
X115500Y229200D02*
D03*
X106800Y243300D02*
D03*
Y252700D02*
D03*
X85600Y223000D02*
D03*
X94300Y218300D02*
D03*
Y208900D02*
D03*
X85600Y213600D02*
D03*
X40600Y321000D02*
D03*
X45300Y326700D02*
D03*
X54700D02*
D03*
X50000Y318000D02*
D03*
X23100Y321000D02*
D03*
X27800Y326700D02*
D03*
X37200D02*
D03*
X32500Y321000D02*
D03*
X5600Y318000D02*
D03*
X10300Y326700D02*
D03*
X19700D02*
D03*
X15100Y321000D02*
D03*
X6900Y335400D02*
D03*
X-2500D02*
D03*
X900Y326700D02*
D03*
X-10400Y335453D02*
D03*
X244900Y245100D02*
D03*
X210900Y47000D02*
D03*
X229700D02*
D03*
X219300Y57400D02*
D03*
X208900Y67800D02*
D03*
X248500Y47000D02*
D03*
X238100Y57400D02*
D03*
X227700Y67800D02*
D03*
X246500D02*
D03*
X258900Y36600D02*
D03*
X256900Y57400D02*
D03*
X227700Y86600D02*
D03*
X217300Y76200D02*
D03*
Y95000D02*
D03*
X247100Y-26000D02*
D03*
X302100Y136000D02*
D03*
Y143833D02*
D03*
Y151667D02*
D03*
Y159500D02*
D03*
X290600Y162500D02*
D03*
Y154000D02*
D03*
Y145500D02*
D03*
D81*
X269584Y334016D02*
D03*
D82*
X-2800Y254315D02*
D03*
X-6700D02*
D03*
X1100D02*
D03*
X5000D02*
D03*
Y179394D02*
D03*
X1100D02*
D03*
X-6700D02*
D03*
X-2800D02*
D03*
X5000Y104472D02*
D03*
X1100D02*
D03*
X-6700D02*
D03*
X-2800D02*
D03*
D87*
X316651Y134500D02*
D03*
X350549D02*
D03*
X351149Y174000D02*
D03*
X317251D02*
D03*
X350549Y99041D02*
D03*
X316651D02*
D03*
X350549Y63500D02*
D03*
X316651D02*
D03*
D88*
X343443Y134500D02*
D03*
X323758D02*
D03*
X333600D02*
D03*
X324358Y174000D02*
D03*
X344042D02*
D03*
X334200D02*
D03*
X323757Y99041D02*
D03*
X343442D02*
D03*
X333600D02*
D03*
X323757Y63500D02*
D03*
X343442D02*
D03*
X333600D02*
D03*
D89*
X37549Y70100D02*
D03*
X3651D02*
D03*
X37549Y146050D02*
D03*
X3651D02*
D03*
X37549Y222000D02*
D03*
X3651D02*
D03*
X307549Y63500D02*
D03*
X273651D02*
D03*
D90*
X10757Y70100D02*
D03*
X30443D02*
D03*
X20600D02*
D03*
X10757Y146050D02*
D03*
X30443D02*
D03*
X20600D02*
D03*
X10757Y222000D02*
D03*
X30443D02*
D03*
X20600D02*
D03*
X280757Y63500D02*
D03*
X300443D02*
D03*
X290600D02*
D03*
D91*
X261100Y99106D02*
D03*
Y74894D02*
D03*
%TF.MD5,08f5d63ed87c016ad838ef4cbd914d8c*%
M02*
