G04 Layer_Physical_Order=1*
G04 Layer_Color=255*
%FSLAX25Y25*%
%MOIN*%
%TF.FileFunction,Copper,L1,Top,Signal*%
%TF.Part,Single*%
G01*
G75*
%TA.AperFunction,SMDPad,CuDef*%
%ADD10R,0.05905X0.06299*%
%ADD11R,0.08071X0.17126*%
%ADD12R,0.14173X0.07087*%
%ADD13R,0.07087X0.14173*%
%ADD14R,0.06299X0.05905*%
%ADD15O,0.02559X0.07087*%
%ADD16R,0.05512X0.05905*%
%ADD17R,0.15748X0.19095*%
%ADD18R,0.05905X0.05512*%
%ADD19O,0.02362X0.07087*%
%ADD20R,0.02362X0.07087*%
%TA.AperFunction,Conductor*%
%ADD21C,0.13000*%
%ADD22C,0.10000*%
%ADD23C,0.02000*%
%ADD24C,0.03000*%
%ADD25C,0.06000*%
%ADD26R,0.05900X0.07100*%
%ADD27R,0.06900X0.08400*%
%TA.AperFunction,ViaPad*%
%ADD28C,0.07874*%
%TA.AperFunction,WasherPad*%
%ADD29C,0.06000*%
%TA.AperFunction,ComponentPad*%
%ADD30R,0.11811X0.11811*%
%ADD31C,0.11811*%
%ADD32R,0.11811X0.11811*%
%ADD33C,0.15748*%
%ADD34C,0.04724*%
%ADD35C,0.05905*%
%ADD36R,0.05905X0.05905*%
%ADD37R,0.09842X0.05118*%
%ADD38O,0.09842X0.05118*%
%ADD39O,0.19685X0.11811*%
%ADD40C,0.06000*%
%TA.AperFunction,ViaPad*%
%ADD41C,0.03000*%
%ADD42C,0.02362*%
%ADD43C,0.05000*%
G36*
X236837Y157263D02*
X236630Y156763D01*
X226639D01*
X226627Y156780D01*
X225450Y157567D01*
X224061Y157843D01*
X219337D01*
X217948Y157567D01*
X216771Y156780D01*
X215985Y155603D01*
X215708Y154214D01*
X215985Y152825D01*
X216771Y151648D01*
X217795Y150964D01*
X217643Y150464D01*
X214840D01*
X214828Y150481D01*
X213651Y151268D01*
X212262Y151544D01*
X207538D01*
X206149Y151268D01*
X204972Y150481D01*
X204185Y149304D01*
X203909Y147915D01*
X204185Y146526D01*
X204972Y145349D01*
X206149Y144562D01*
X207538Y144286D01*
X212262D01*
X213651Y144562D01*
X214828Y145349D01*
X214840Y145366D01*
X217643D01*
X217795Y144866D01*
X216771Y144182D01*
X215985Y143004D01*
X215708Y141616D01*
X215985Y140227D01*
X216771Y139050D01*
X217795Y138365D01*
X217643Y137865D01*
X214840D01*
X214828Y137882D01*
X213651Y138669D01*
X212262Y138945D01*
X207538D01*
X206149Y138669D01*
X204972Y137882D01*
X204185Y136705D01*
X203909Y135317D01*
X204185Y133928D01*
X204972Y132751D01*
X206149Y131964D01*
X207538Y131688D01*
X212262D01*
X213651Y131964D01*
X214828Y132751D01*
X214840Y132768D01*
X217643D01*
X217795Y132268D01*
X216771Y131583D01*
X215985Y130406D01*
X215708Y129017D01*
X215985Y127629D01*
X216771Y126451D01*
X217795Y125767D01*
X217643Y125267D01*
X214840D01*
X214828Y125284D01*
X213651Y126071D01*
X212262Y126347D01*
X207538D01*
X206149Y126071D01*
X204972Y125284D01*
X204185Y124107D01*
X203909Y122718D01*
X204185Y121329D01*
X204972Y120152D01*
X206149Y119366D01*
X207538Y119089D01*
X212262D01*
X213651Y119366D01*
X214828Y120152D01*
X214840Y120169D01*
X217643D01*
X217795Y119669D01*
X216771Y118985D01*
X215985Y117808D01*
X215708Y116419D01*
X215985Y115030D01*
X216771Y113853D01*
X217948Y113066D01*
X219337Y112790D01*
X219930D01*
X220139Y112651D01*
X221699Y112341D01*
X227992D01*
X243216Y97116D01*
X244539Y96232D01*
X246100Y95922D01*
X247212D01*
X247490Y95506D01*
X247368Y95213D01*
Y92760D01*
X251600D01*
X255832D01*
Y95213D01*
X255711Y95506D01*
X255988Y95922D01*
X285911D01*
X294089Y87744D01*
Y70937D01*
X294406Y70172D01*
X295171Y69855D01*
X296522D01*
Y63500D01*
X296565Y63283D01*
Y60547D01*
X296882Y59782D01*
X297647Y59465D01*
X300383D01*
X300600Y59422D01*
X300817Y59465D01*
X303553D01*
X304318Y59782D01*
X304635Y60547D01*
Y63283D01*
X304678Y63500D01*
Y87000D01*
X304678Y87000D01*
X304368Y88561D01*
X303484Y89884D01*
X303484Y89884D01*
X290484Y102884D01*
X289161Y103768D01*
X287600Y104078D01*
X287600Y104078D01*
X247789D01*
X232565Y119303D01*
X231984Y119691D01*
X232130Y120169D01*
X237326D01*
X248798Y108698D01*
X249624Y108145D01*
X250600Y107951D01*
X259325D01*
Y107047D01*
X259642Y106282D01*
X260407Y105965D01*
X265919D01*
X266684Y106282D01*
X266829Y106632D01*
X267371D01*
X267516Y106282D01*
X268281Y105965D01*
X273793D01*
X274558Y106282D01*
X274875Y107047D01*
Y107451D01*
X286887D01*
X310600Y83738D01*
X310600Y32438D01*
X296100Y27000D01*
X292100Y21000D01*
X283256D01*
X283135Y21181D01*
Y23437D01*
X275065D01*
Y21181D01*
X274944Y21000D01*
X264100D01*
X246100Y39000D01*
X211100Y39000D01*
X200100Y50000D01*
Y87619D01*
X201065Y87811D01*
X202178Y88554D01*
X202921Y89666D01*
X203182Y90978D01*
X202921Y92290D01*
X202178Y93402D01*
X201065Y94145D01*
X200100Y94337D01*
Y106599D01*
X201278Y106833D01*
X202390Y107576D01*
X203133Y108688D01*
X203394Y110000D01*
X203133Y111312D01*
X202390Y112424D01*
X201278Y113167D01*
X200100Y113401D01*
Y124572D01*
X201412Y124833D01*
X202524Y125576D01*
X203267Y126688D01*
X203528Y128000D01*
X203267Y129312D01*
X202524Y130424D01*
X201412Y131167D01*
X200100Y131428D01*
Y153000D01*
X206154Y159054D01*
X235046D01*
X236837Y157263D01*
D02*
G37*
G36*
X116300Y97300D02*
X119500Y94100D01*
X119500Y86900D01*
X115900Y83300D01*
X87900Y83300D01*
Y97300D01*
X116300Y97300D01*
D02*
G37*
G36*
X13100Y263000D02*
X19600Y256500D01*
X19600Y250000D01*
X18600Y249000D01*
X-8400Y249000D01*
X-9400Y248000D01*
X-9400Y234000D01*
X-10400Y233000D01*
X-23400Y233000D01*
X-24400Y234000D01*
X-24400Y259000D01*
X-20400Y263000D01*
X13100Y263000D01*
D02*
G37*
G36*
X34700Y263000D02*
X37300Y260400D01*
Y249000D01*
X30400Y249000D01*
X21600Y249000D01*
X20600Y250000D01*
Y256500D01*
X27100Y263000D01*
X34700Y263000D01*
D02*
G37*
G36*
X116300Y133500D02*
X119500Y130300D01*
X119500Y123100D01*
X115900Y119500D01*
X87900Y119500D01*
Y133500D01*
X116300Y133500D01*
D02*
G37*
G36*
X267061Y336539D02*
X266287Y335381D01*
X266115Y334516D01*
X269584D01*
Y334016D01*
X270084D01*
Y330547D01*
X270950Y330719D01*
X272108Y331492D01*
X280600Y323000D01*
X280600Y265500D01*
X256546Y241446D01*
X219630D01*
X219431Y241364D01*
X219216Y241364D01*
X218347Y241004D01*
X218195Y240852D01*
X217996Y240769D01*
X217726Y240500D01*
X198100Y240500D01*
X187100Y229500D01*
Y111757D01*
X187096Y111753D01*
X186736Y110884D01*
Y110669D01*
X186654Y110470D01*
Y110000D01*
Y93500D01*
Y93030D01*
X186736Y92831D01*
Y92616D01*
X187096Y91747D01*
X187100Y91743D01*
Y39751D01*
X198100Y28000D01*
X236150D01*
X243100Y20500D01*
Y3000D01*
X236150Y-4500D01*
X209520Y-4500D01*
X209283Y-4145D01*
X209269Y-4000D01*
Y-976D01*
X201100D01*
X192931D01*
Y-4020D01*
X192958Y-4084D01*
X192680Y-4500D01*
X188853D01*
X188616Y-4145D01*
X188602Y-4000D01*
Y-976D01*
X180433D01*
X172264D01*
Y-4020D01*
X172291Y-4084D01*
X172013Y-4500D01*
X168187D01*
X167949Y-4145D01*
X167936Y-4000D01*
Y-976D01*
X159767D01*
X151598D01*
Y-4020D01*
X151624Y-4084D01*
X151347Y-4500D01*
X147520D01*
X147283Y-4145D01*
X147269Y-4000D01*
Y-976D01*
X139100D01*
X130931D01*
Y-4020D01*
X130958Y-4084D01*
X130680Y-4500D01*
X103100Y-4500D01*
X95100Y3500D01*
X95100Y19816D01*
X102284Y27000D01*
X155200Y27000D01*
X164900Y36700D01*
Y52727D01*
X165400Y53061D01*
X165828Y52884D01*
X168871D01*
Y61053D01*
Y69222D01*
X165828D01*
X165400Y69045D01*
X164900Y69379D01*
Y82300D01*
Y252300D01*
X173100Y260500D01*
X243100Y260500D01*
X255600Y273000D01*
X255600Y300500D01*
X244900Y311200D01*
X216300Y311200D01*
X207153D01*
X206769Y311700D01*
Y314524D01*
X198600D01*
X190431D01*
Y311480D01*
X190244Y311200D01*
X186486D01*
X186102Y311700D01*
Y314524D01*
X177933D01*
X169764D01*
Y311480D01*
X169577Y311200D01*
X165820D01*
X165436Y311700D01*
Y314524D01*
X157267D01*
X149098D01*
Y311480D01*
X148910Y311200D01*
X145153D01*
X144769Y311700D01*
Y314524D01*
X136600D01*
X128431D01*
Y311480D01*
X128244Y311200D01*
X97422D01*
X85400Y299178D01*
Y275601D01*
X98165Y263000D01*
X114700Y263000D01*
X115690Y262161D01*
X115465Y261696D01*
X115200Y261749D01*
X114225Y261555D01*
X113398Y261002D01*
X112845Y260175D01*
X112750Y259700D01*
X117649D01*
X117615Y259874D01*
X118071Y260143D01*
X124900Y254356D01*
Y250622D01*
X122529D01*
Y242453D01*
Y234284D01*
X124900D01*
X124900Y199800D01*
X120999Y195899D01*
X117273D01*
X117103Y196399D01*
X117920Y197025D01*
X119026Y198468D01*
X119722Y200148D01*
X119894Y201450D01*
X109057D01*
X98221D01*
X98393Y200148D01*
X99089Y198468D01*
X100195Y197025D01*
X101012Y196399D01*
X100842Y195899D01*
X92766D01*
X75665Y213000D01*
Y240500D01*
X49600Y267500D01*
Y305500D01*
X40100Y315000D01*
X12147Y315000D01*
X3100Y305953D01*
Y280953D01*
X600Y278453D01*
X-34400D01*
X-36900Y280953D01*
Y317453D01*
X-31352Y323001D01*
X-23851Y323001D01*
X-14895Y331958D01*
X-14906Y339447D01*
X-8853Y345500D01*
X258100Y345500D01*
X267061Y336539D01*
D02*
G37*
G36*
X352600Y267000D02*
X352600Y241000D01*
X351600Y240000D01*
X346100Y240000D01*
X345100Y241000D01*
X345100Y267000D01*
X345600Y267500D01*
X352100D01*
X352600Y267000D01*
D02*
G37*
G36*
X342600Y274500D02*
X337300Y269200D01*
Y225700D01*
X331600Y220000D01*
X314600D01*
X309600Y225000D01*
Y234400D01*
X320500D01*
X325100Y239000D01*
Y248000D01*
X321116Y251984D01*
X321100Y251000D01*
X303100D01*
X295100Y243000D01*
Y232000D01*
X291600Y228500D01*
X283100D01*
Y208000D01*
X283130Y186970D01*
X307100Y163000D01*
X307100Y131000D01*
X310600Y127500D01*
Y119886D01*
X310138Y119694D01*
X278030Y151802D01*
X277203Y152355D01*
X276474Y152500D01*
X276523Y153000D01*
X283600D01*
Y153000D01*
X284600D01*
X286600Y155000D01*
Y175500D01*
X277100Y185000D01*
Y237500D01*
X298350Y258750D01*
X313350Y258750D01*
X321100Y266500D01*
Y270500D01*
X328100Y277500D01*
X334600D01*
X337100Y280000D01*
X342600D01*
Y274500D01*
D02*
G37*
G36*
X245600Y295860D02*
Y278000D01*
X238100Y270500D01*
X168100Y270500D01*
X157700Y260100D01*
X157700Y87600D01*
Y70582D01*
X157654Y70470D01*
Y69398D01*
X157154Y69064D01*
X156772Y69222D01*
X153729D01*
Y61053D01*
Y52884D01*
X156772D01*
X157154Y53042D01*
X157334Y53038D01*
X157700Y52727D01*
Y42600D01*
X150600Y35500D01*
X135359D01*
X135207Y36000D01*
X135802Y36398D01*
X136355Y37225D01*
X136450Y37700D01*
X131551D01*
X131645Y37225D01*
X132198Y36398D01*
X132793Y36000D01*
X132641Y35500D01*
X107159D01*
X107007Y36000D01*
X107602Y36398D01*
X108155Y37225D01*
X108249Y37700D01*
X103350D01*
X103445Y37225D01*
X103998Y36398D01*
X104593Y36000D01*
X104441Y35500D01*
X95600D01*
X85600Y25500D01*
Y-4727D01*
X93600Y-12000D01*
X130904D01*
X131169Y-12500D01*
X130931Y-13075D01*
Y-16118D01*
X139100D01*
X147269D01*
Y-13075D01*
X147031Y-12500D01*
X147296Y-12000D01*
X151571D01*
X151836Y-12500D01*
X151598Y-13075D01*
Y-16118D01*
X159767D01*
X167936D01*
Y-13075D01*
X167698Y-12500D01*
X167963Y-12000D01*
X172238D01*
X172502Y-12500D01*
X172264Y-13075D01*
Y-16118D01*
X180433D01*
X188602D01*
Y-13075D01*
X188364Y-12500D01*
X188629Y-12000D01*
X192904D01*
X193169Y-12500D01*
X192931Y-13075D01*
Y-16118D01*
X201100D01*
X209269D01*
Y-13075D01*
X209031Y-12500D01*
X209296Y-12000D01*
X243100D01*
X248100Y-17000D01*
Y-23140D01*
X247600Y-23550D01*
Y-26000D01*
Y-28449D01*
D01*
X248100Y-28860D01*
Y-37000D01*
X243100Y-42000D01*
X-7947D01*
X-12900Y-37047D01*
X-12900Y-27547D01*
X-21400Y-19047D01*
X-30900Y-19047D01*
X-36900Y-13047D01*
Y23000D01*
X-34400Y25500D01*
X600Y25500D01*
X3100Y23000D01*
X3100Y3000D01*
X15600Y-9500D01*
X38100Y-9500D01*
X48900Y1300D01*
X48900Y116200D01*
X63782Y131082D01*
X64244Y130890D01*
Y124400D01*
X73200D01*
Y123900D01*
X73700D01*
Y113270D01*
X77100D01*
Y103530D01*
X73700D01*
Y92900D01*
Y82270D01*
X77530D01*
X81500Y78300D01*
X125900Y78300D01*
X135600Y87000D01*
Y234284D01*
X137671D01*
Y242453D01*
Y250622D01*
X135600D01*
Y255500D01*
X120600Y270500D01*
X101400Y270500D01*
X93900Y278000D01*
X93900Y293000D01*
X103900Y303000D01*
X128219D01*
X128497Y302584D01*
X128431Y302425D01*
Y299382D01*
X136600D01*
X144769D01*
Y302425D01*
X144703Y302584D01*
X144981Y303000D01*
X148886D01*
X149164Y302584D01*
X149098Y302425D01*
Y299382D01*
X157267D01*
X165436D01*
Y302425D01*
X165370Y302584D01*
X165648Y303000D01*
X169552D01*
X169830Y302584D01*
X169764Y302425D01*
Y299382D01*
X177933D01*
X186102D01*
Y302425D01*
X186036Y302584D01*
X186314Y303000D01*
X190219D01*
X190497Y302584D01*
X190431Y302425D01*
Y299382D01*
X198600D01*
X206769D01*
Y302425D01*
X206703Y302584D01*
X206981Y303000D01*
X237259D01*
X245600Y295860D01*
D02*
G37*
G36*
X34800Y112800D02*
X34800Y103200D01*
X30400Y98800D01*
X21600Y98800D01*
X20600Y99800D01*
Y106300D01*
X27100Y112800D01*
X34800Y112800D01*
D02*
G37*
G36*
X13100Y113157D02*
X19600Y106658D01*
X19600Y100157D01*
X18600Y99157D01*
X-8400Y99158D01*
X-9400Y98158D01*
X-9400Y84157D01*
X-10400Y83157D01*
X-23400Y83157D01*
X-24400Y84157D01*
X-24400Y109158D01*
X-20400Y113157D01*
X13100Y113157D01*
D02*
G37*
G36*
Y188079D02*
X19600Y181579D01*
X19600Y175079D01*
X18600Y174079D01*
X-8400Y174079D01*
X-9400Y173079D01*
X-9400Y159079D01*
X-10400Y158079D01*
X-23400Y158079D01*
X-24400Y159079D01*
X-24400Y184079D01*
X-20400Y188079D01*
X13100Y188079D01*
D02*
G37*
G36*
X34700Y187900D02*
X37300Y185300D01*
Y173900D01*
X30400Y173900D01*
X21600Y173900D01*
X20600Y174900D01*
Y181400D01*
X27100Y187900D01*
X34700Y187900D01*
D02*
G37*
%LPC*%
G36*
X221749Y56900D02*
X219800D01*
Y54950D01*
X220275Y55045D01*
X221102Y55598D01*
X221655Y56425D01*
X221749Y56900D01*
D02*
G37*
G36*
X218800D02*
X216850D01*
X216945Y56425D01*
X217498Y55598D01*
X218325Y55045D01*
X218800Y54950D01*
Y56900D01*
D02*
G37*
G36*
X210400Y49450D02*
X209925Y49355D01*
X209098Y48802D01*
X208545Y47976D01*
X208451Y47500D01*
X210400D01*
Y49450D01*
D02*
G37*
G36*
X249000D02*
Y47500D01*
X250950D01*
X250855Y47976D01*
X250302Y48802D01*
X249476Y49355D01*
X249000Y49450D01*
D02*
G37*
G36*
X229200D02*
X228725Y49355D01*
X227898Y48802D01*
X227345Y47976D01*
X227251Y47500D01*
X229200D01*
Y49450D01*
D02*
G37*
G36*
X211400D02*
Y47500D01*
X213350D01*
X213255Y47976D01*
X212702Y48802D01*
X211876Y49355D01*
X211400Y49450D01*
D02*
G37*
G36*
X248000D02*
X247525Y49355D01*
X246698Y48802D01*
X246145Y47976D01*
X246051Y47500D01*
X248000D01*
Y49450D01*
D02*
G37*
G36*
X230200D02*
Y47500D01*
X232150D01*
X232055Y47976D01*
X231502Y48802D01*
X230676Y49355D01*
X230200Y49450D01*
D02*
G37*
G36*
X237600Y56900D02*
X235650D01*
X235745Y56425D01*
X236298Y55598D01*
X237125Y55045D01*
X237600Y54950D01*
Y56900D01*
D02*
G37*
G36*
X290100Y63000D02*
X286669D01*
X286877Y61958D01*
X287750Y60650D01*
X289058Y59777D01*
X290100Y59569D01*
Y63000D01*
D02*
G37*
G36*
X280100D02*
X276669D01*
X276877Y61958D01*
X277750Y60650D01*
X279058Y59777D01*
X280100Y59569D01*
Y63000D01*
D02*
G37*
G36*
X257400Y59850D02*
Y57900D01*
X259349D01*
X259255Y58376D01*
X258702Y59202D01*
X257875Y59755D01*
X257400Y59850D01*
D02*
G37*
G36*
X256400D02*
X255925Y59755D01*
X255098Y59202D01*
X254545Y58376D01*
X254450Y57900D01*
X256400D01*
Y59850D01*
D02*
G37*
G36*
X294531Y63000D02*
X291100D01*
Y59569D01*
X292142Y59777D01*
X293450Y60650D01*
X294323Y61958D01*
X294531Y63000D01*
D02*
G37*
G36*
X284531D02*
X281100D01*
Y59569D01*
X282142Y59777D01*
X283450Y60650D01*
X284323Y61958D01*
X284531Y63000D01*
D02*
G37*
G36*
X256400Y56900D02*
X254450D01*
X254545Y56425D01*
X255098Y55598D01*
X255925Y55045D01*
X256400Y54950D01*
Y56900D01*
D02*
G37*
G36*
X240549D02*
X238600D01*
Y54950D01*
X239075Y55045D01*
X239902Y55598D01*
X240455Y56425D01*
X240549Y56900D01*
D02*
G37*
G36*
X259349D02*
X257400D01*
Y54950D01*
X257875Y55045D01*
X258702Y55598D01*
X259255Y56425D01*
X259349Y56900D01*
D02*
G37*
G36*
X219800Y59850D02*
Y57900D01*
X221749D01*
X221655Y58376D01*
X221102Y59202D01*
X220275Y59755D01*
X219800Y59850D01*
D02*
G37*
G36*
X218800D02*
X218325Y59755D01*
X217498Y59202D01*
X216945Y58376D01*
X216850Y57900D01*
X218800D01*
Y59850D01*
D02*
G37*
G36*
X238600D02*
Y57900D01*
X240549D01*
X240455Y58376D01*
X239902Y59202D01*
X239075Y59755D01*
X238600Y59850D01*
D02*
G37*
G36*
X237600D02*
X237125Y59755D01*
X236298Y59202D01*
X235745Y58376D01*
X235650Y57900D01*
X237600D01*
Y59850D01*
D02*
G37*
G36*
X261350Y36100D02*
X259400D01*
Y34150D01*
X259875Y34245D01*
X260702Y34798D01*
X261255Y35625D01*
X261350Y36100D01*
D02*
G37*
G36*
X258400D02*
X256451D01*
X256545Y35625D01*
X257098Y34798D01*
X257925Y34245D01*
X258400Y34150D01*
Y36100D01*
D02*
G37*
G36*
X259400Y39050D02*
Y37100D01*
X261350D01*
X261255Y37576D01*
X260702Y38402D01*
X259875Y38955D01*
X259400Y39050D01*
D02*
G37*
G36*
X258400D02*
X257925Y38955D01*
X257098Y38402D01*
X256545Y37576D01*
X256451Y37100D01*
X258400D01*
Y39050D01*
D02*
G37*
G36*
X282053Y27775D02*
X279600D01*
Y24437D01*
X283135D01*
Y26693D01*
X282818Y27458D01*
X282053Y27775D01*
D02*
G37*
G36*
X278600D02*
X276147D01*
X275382Y27458D01*
X275065Y26693D01*
Y24437D01*
X278600D01*
Y27775D01*
D02*
G37*
G36*
X210400Y46500D02*
X208451D01*
X208545Y46025D01*
X209098Y45198D01*
X209925Y44645D01*
X210400Y44550D01*
Y46500D01*
D02*
G37*
G36*
X229200D02*
X227251D01*
X227345Y46025D01*
X227898Y45198D01*
X228725Y44645D01*
X229200Y44550D01*
Y46500D01*
D02*
G37*
G36*
X213350D02*
X211400D01*
Y44550D01*
X211876Y44645D01*
X212702Y45198D01*
X213255Y46025D01*
X213350Y46500D01*
D02*
G37*
G36*
X232150D02*
X230200D01*
Y44550D01*
X230676Y44645D01*
X231502Y45198D01*
X232055Y46025D01*
X232150Y46500D01*
D02*
G37*
G36*
X250950D02*
X249000D01*
Y44550D01*
X249476Y44645D01*
X250302Y45198D01*
X250855Y46025D01*
X250950Y46500D01*
D02*
G37*
G36*
X248000D02*
X246051D01*
X246145Y46025D01*
X246698Y45198D01*
X247525Y44645D01*
X248000Y44550D01*
Y46500D01*
D02*
G37*
G36*
X219749Y94500D02*
X217800D01*
Y92550D01*
X218275Y92645D01*
X219102Y93198D01*
X219655Y94025D01*
X219749Y94500D01*
D02*
G37*
G36*
X212262Y99575D02*
X210400D01*
Y95947D01*
Y92318D01*
X212262D01*
X213651Y92594D01*
X214791Y93356D01*
X214944Y93416D01*
X215352D01*
X215498Y93198D01*
X216325Y92645D01*
X216800Y92550D01*
Y95000D01*
Y97449D01*
X216325Y97355D01*
X216035Y97161D01*
X215615Y97335D01*
X214828Y98512D01*
X213651Y99299D01*
X212262Y99575D01*
D02*
G37*
G36*
X217800Y97449D02*
Y95500D01*
X219749D01*
X219655Y95976D01*
X219102Y96802D01*
X218275Y97355D01*
X217800Y97449D01*
D02*
G37*
G36*
X255832Y91760D02*
X252100D01*
Y88225D01*
X254750D01*
X255515Y88542D01*
X255832Y89307D01*
Y91760D01*
D02*
G37*
G36*
X209400Y95446D02*
X204009D01*
X204185Y94558D01*
X204972Y93380D01*
X206149Y92594D01*
X207538Y92318D01*
X209400D01*
Y95446D01*
D02*
G37*
G36*
Y99575D02*
X207538D01*
X206149Y99299D01*
X204972Y98512D01*
X204185Y97335D01*
X204009Y96447D01*
X209400D01*
Y99575D01*
D02*
G37*
G36*
X224061Y107449D02*
X219337D01*
X217948Y107173D01*
X216771Y106386D01*
X215985Y105209D01*
X215708Y103821D01*
X215985Y102432D01*
X216771Y101255D01*
X217948Y100468D01*
X219337Y100192D01*
X224061D01*
X225450Y100468D01*
X226627Y101255D01*
X227414Y102432D01*
X227690Y103821D01*
X227414Y105209D01*
X226627Y106386D01*
X225450Y107173D01*
X224061Y107449D01*
D02*
G37*
G36*
X279029Y89145D02*
X275494D01*
Y80000D01*
X280112D01*
Y88063D01*
X279795Y88828D01*
X279029Y89145D01*
D02*
G37*
G36*
X274494D02*
X270958D01*
X270193Y88828D01*
X269876Y88063D01*
Y80000D01*
X274494D01*
Y89145D01*
D02*
G37*
G36*
X228200Y89050D02*
Y87100D01*
X230150D01*
X230055Y87576D01*
X229502Y88402D01*
X228676Y88955D01*
X228200Y89050D01*
D02*
G37*
G36*
X251100Y91760D02*
X247368D01*
Y89307D01*
X247685Y88542D01*
X248450Y88225D01*
X251100D01*
Y91760D01*
D02*
G37*
G36*
X227200Y86100D02*
X225251D01*
X225345Y85625D01*
X225898Y84798D01*
X226725Y84245D01*
X227200Y84150D01*
Y86100D01*
D02*
G37*
G36*
Y89050D02*
X226725Y88955D01*
X225898Y88402D01*
X225345Y87576D01*
X225251Y87100D01*
X227200D01*
Y89050D01*
D02*
G37*
G36*
X230150Y86100D02*
X228200D01*
Y84150D01*
X228676Y84245D01*
X229502Y84798D01*
X230055Y85625D01*
X230150Y86100D01*
D02*
G37*
G36*
X212262Y113749D02*
X207538D01*
X206149Y113472D01*
X204972Y112686D01*
X204185Y111508D01*
X203909Y110120D01*
X204185Y108731D01*
X204972Y107554D01*
X206149Y106767D01*
X207538Y106491D01*
X212262D01*
X213651Y106767D01*
X214828Y107554D01*
X215615Y108731D01*
X215891Y110120D01*
X215615Y111508D01*
X214828Y112686D01*
X213651Y113472D01*
X212262Y113749D01*
D02*
G37*
G36*
X248950Y67300D02*
X247000D01*
Y65351D01*
X247476Y65445D01*
X248302Y65998D01*
X248855Y66825D01*
X248950Y67300D01*
D02*
G37*
G36*
X246000D02*
X244051D01*
X244145Y66825D01*
X244698Y65998D01*
X245525Y65445D01*
X246000Y65351D01*
Y67300D01*
D02*
G37*
G36*
X211350D02*
X209400D01*
Y65351D01*
X209875Y65445D01*
X210702Y65998D01*
X211255Y66825D01*
X211350Y67300D01*
D02*
G37*
G36*
X208400D02*
X206451D01*
X206545Y66825D01*
X207098Y65998D01*
X207925Y65445D01*
X208400Y65351D01*
Y67300D01*
D02*
G37*
G36*
X230150D02*
X228200D01*
Y65351D01*
X228676Y65445D01*
X229502Y65998D01*
X230055Y66825D01*
X230150Y67300D01*
D02*
G37*
G36*
X227200D02*
X225251D01*
X225345Y66825D01*
X225898Y65998D01*
X226725Y65445D01*
X227200Y65351D01*
Y67300D01*
D02*
G37*
G36*
X208400Y70249D02*
X207925Y70155D01*
X207098Y69602D01*
X206545Y68775D01*
X206451Y68300D01*
X208400D01*
Y70249D01*
D02*
G37*
G36*
X274494Y79000D02*
X269876D01*
Y70937D01*
X270193Y70172D01*
X270958Y69855D01*
X274494D01*
Y79000D01*
D02*
G37*
G36*
X247000Y70249D02*
Y68300D01*
X248950D01*
X248855Y68775D01*
X248302Y69602D01*
X247476Y70155D01*
X247000Y70249D01*
D02*
G37*
G36*
X280112Y79000D02*
X275494D01*
Y69855D01*
X279029D01*
X279795Y70172D01*
X280112Y70937D01*
Y79000D01*
D02*
G37*
G36*
X227200Y70249D02*
X226725Y70155D01*
X225898Y69602D01*
X225345Y68775D01*
X225251Y68300D01*
X227200D01*
Y70249D01*
D02*
G37*
G36*
X209400D02*
Y68300D01*
X211350D01*
X211255Y68775D01*
X210702Y69602D01*
X209875Y70155D01*
X209400Y70249D01*
D02*
G37*
G36*
X246000D02*
X245525Y70155D01*
X244698Y69602D01*
X244145Y68775D01*
X244051Y68300D01*
X246000D01*
Y70249D01*
D02*
G37*
G36*
X228200D02*
Y68300D01*
X230150D01*
X230055Y68775D01*
X229502Y69602D01*
X228676Y70155D01*
X228200Y70249D01*
D02*
G37*
G36*
X281100Y67431D02*
Y64000D01*
X284531D01*
X284323Y65042D01*
X283450Y66350D01*
X282142Y67223D01*
X281100Y67431D01*
D02*
G37*
G36*
X290100Y67431D02*
X289058Y67223D01*
X287750Y66350D01*
X286877Y65042D01*
X286669Y64000D01*
X290100D01*
Y67431D01*
D02*
G37*
G36*
X291100Y67431D02*
Y64000D01*
X294531D01*
X294323Y65042D01*
X293450Y66350D01*
X292142Y67223D01*
X291100Y67431D01*
D02*
G37*
G36*
X280100Y67431D02*
X279058Y67223D01*
X277750Y66350D01*
X276877Y65042D01*
X276669Y64000D01*
X280100D01*
Y67431D01*
D02*
G37*
G36*
X219749Y75700D02*
X217800D01*
Y73751D01*
X218275Y73845D01*
X219102Y74398D01*
X219655Y75225D01*
X219749Y75700D01*
D02*
G37*
G36*
X216800Y78649D02*
X216325Y78555D01*
X215498Y78002D01*
X214945Y77175D01*
X214850Y76700D01*
X216800D01*
Y78649D01*
D02*
G37*
G36*
Y75700D02*
X214850D01*
X214945Y75225D01*
X215498Y74398D01*
X216325Y73845D01*
X216800Y73751D01*
Y75700D01*
D02*
G37*
G36*
X217800Y78649D02*
Y76700D01*
X219749D01*
X219655Y77175D01*
X219102Y78002D01*
X218275Y78555D01*
X217800Y78649D01*
D02*
G37*
G36*
X173997Y60553D02*
X169871D01*
Y52884D01*
X172914D01*
X173679Y53201D01*
X173997Y53966D01*
Y60553D01*
D02*
G37*
G36*
X183245Y49995D02*
X182770Y49900D01*
X181943Y49348D01*
X181390Y48521D01*
X181296Y48046D01*
X183245D01*
Y49995D01*
D02*
G37*
G36*
X184245D02*
Y48046D01*
X186195D01*
X186100Y48521D01*
X185547Y49348D01*
X184721Y49900D01*
X184245Y49995D01*
D02*
G37*
G36*
X172914Y69222D02*
X169871D01*
Y61553D01*
X173997D01*
Y68139D01*
X173679Y68905D01*
X172914Y69222D01*
D02*
G37*
G36*
X184245Y32595D02*
Y30645D01*
X186195D01*
X186100Y31121D01*
X185547Y31948D01*
X184721Y32500D01*
X184245Y32595D01*
D02*
G37*
G36*
X183245D02*
X182770Y32500D01*
X181943Y31948D01*
X181390Y31121D01*
X181296Y30645D01*
X183245D01*
Y32595D01*
D02*
G37*
G36*
X170745Y39845D02*
X168796D01*
X168890Y39370D01*
X169443Y38543D01*
X170270Y37991D01*
X170745Y37896D01*
Y39845D01*
D02*
G37*
G36*
X173695D02*
X171745D01*
Y37896D01*
X172221Y37991D01*
X173047Y38543D01*
X173600Y39370D01*
X173695Y39845D01*
D02*
G37*
G36*
X210700Y24420D02*
X210225Y24325D01*
X209398Y23773D01*
X208845Y22945D01*
X208751Y22470D01*
X210700D01*
Y24420D01*
D02*
G37*
G36*
X192900D02*
Y22470D01*
X194850D01*
X194755Y22945D01*
X194202Y23773D01*
X193376Y24325D01*
X192900Y24420D01*
D02*
G37*
G36*
X211700D02*
Y22470D01*
X213650D01*
X213555Y22945D01*
X213002Y23773D01*
X212175Y24325D01*
X211700Y24420D01*
D02*
G37*
G36*
X186195Y29645D02*
X184245D01*
Y27696D01*
X184721Y27791D01*
X185547Y28343D01*
X186100Y29170D01*
X186195Y29645D01*
D02*
G37*
G36*
X183245D02*
X181296D01*
X181390Y29170D01*
X181943Y28343D01*
X182770Y27791D01*
X183245Y27696D01*
Y29645D01*
D02*
G37*
G36*
X186195Y47045D02*
X184245D01*
Y45096D01*
X184721Y45191D01*
X185547Y45743D01*
X186100Y46570D01*
X186195Y47045D01*
D02*
G37*
G36*
X183245D02*
X181296D01*
X181390Y46570D01*
X181943Y45743D01*
X182770Y45191D01*
X183245Y45096D01*
Y47045D01*
D02*
G37*
G36*
X170745Y42795D02*
X170270Y42700D01*
X169443Y42148D01*
X168890Y41321D01*
X168796Y40846D01*
X170745D01*
Y42795D01*
D02*
G37*
G36*
X171745D02*
Y40846D01*
X173695D01*
X173600Y41321D01*
X173047Y42148D01*
X172221Y42700D01*
X171745Y42795D01*
D02*
G37*
G36*
X183245Y84795D02*
X182770Y84701D01*
X181943Y84148D01*
X181390Y83321D01*
X181296Y82845D01*
X183245D01*
Y84795D01*
D02*
G37*
G36*
X184245D02*
Y82845D01*
X186195D01*
X186100Y83321D01*
X185547Y84148D01*
X184721Y84701D01*
X184245Y84795D01*
D02*
G37*
G36*
X183245Y154395D02*
X182770Y154300D01*
X181943Y153748D01*
X181390Y152921D01*
X181296Y152445D01*
X183245D01*
Y154395D01*
D02*
G37*
G36*
X184245D02*
Y152445D01*
X186195D01*
X186100Y152921D01*
X185547Y153748D01*
X184721Y154300D01*
X184245Y154395D01*
D02*
G37*
G36*
X183245Y151445D02*
X181296D01*
X181390Y150970D01*
X181943Y150143D01*
X182770Y149591D01*
X183245Y149496D01*
Y151445D01*
D02*
G37*
G36*
X186195D02*
X184245D01*
Y149496D01*
X184721Y149591D01*
X185547Y150143D01*
X186100Y150970D01*
X186195Y151445D01*
D02*
G37*
G36*
X171745Y164595D02*
Y162645D01*
X173695D01*
X173600Y163121D01*
X173047Y163948D01*
X172221Y164500D01*
X171745Y164595D01*
D02*
G37*
G36*
X170745D02*
X170270Y164500D01*
X169443Y163948D01*
X168890Y163121D01*
X168796Y162645D01*
X170745D01*
Y164595D01*
D02*
G37*
G36*
X173695Y161645D02*
X171745D01*
Y159696D01*
X172221Y159791D01*
X173047Y160343D01*
X173600Y161170D01*
X173695Y161645D01*
D02*
G37*
G36*
X170745D02*
X168796D01*
X168890Y161170D01*
X169443Y160343D01*
X170270Y159791D01*
X170745Y159696D01*
Y161645D01*
D02*
G37*
G36*
Y147195D02*
X170270Y147100D01*
X169443Y146548D01*
X168890Y145721D01*
X168796Y145246D01*
X170745D01*
Y147195D01*
D02*
G37*
G36*
X171745D02*
Y145246D01*
X173695D01*
X173600Y145721D01*
X173047Y146548D01*
X172221Y147100D01*
X171745Y147195D01*
D02*
G37*
G36*
X170745Y144246D02*
X168796D01*
X168890Y143770D01*
X169443Y142943D01*
X170270Y142391D01*
X170745Y142296D01*
Y144246D01*
D02*
G37*
G36*
X173695D02*
X171745D01*
Y142296D01*
X172221Y142391D01*
X173047Y142943D01*
X173600Y143770D01*
X173695Y144246D01*
D02*
G37*
G36*
X184245Y67395D02*
Y65446D01*
X186195D01*
X186100Y65921D01*
X185547Y66748D01*
X184721Y67300D01*
X184245Y67395D01*
D02*
G37*
G36*
X183245D02*
X182770Y67300D01*
X181943Y66748D01*
X181390Y65921D01*
X181296Y65446D01*
X183245D01*
Y67395D01*
D02*
G37*
G36*
Y64446D02*
X181296D01*
X181390Y63970D01*
X181943Y63143D01*
X182770Y62591D01*
X183245Y62496D01*
Y64446D01*
D02*
G37*
G36*
X186195D02*
X184245D01*
Y62496D01*
X184721Y62591D01*
X185547Y63143D01*
X186100Y63970D01*
X186195Y64446D01*
D02*
G37*
G36*
X170745Y77595D02*
X170270Y77500D01*
X169443Y76948D01*
X168890Y76121D01*
X168796Y75646D01*
X170745D01*
Y77595D01*
D02*
G37*
G36*
X171745D02*
Y75646D01*
X173695D01*
X173600Y76121D01*
X173047Y76948D01*
X172221Y77500D01*
X171745Y77595D01*
D02*
G37*
G36*
X186195Y81845D02*
X184245D01*
Y79896D01*
X184721Y79991D01*
X185547Y80543D01*
X186100Y81370D01*
X186195Y81845D01*
D02*
G37*
G36*
X183245D02*
X181296D01*
X181390Y81370D01*
X181943Y80543D01*
X182770Y79991D01*
X183245Y79896D01*
Y81845D01*
D02*
G37*
G36*
X170745Y74646D02*
X168796D01*
X168890Y74170D01*
X169443Y73343D01*
X170270Y72791D01*
X170745Y72696D01*
Y74646D01*
D02*
G37*
G36*
X173695D02*
X171745D01*
Y72696D01*
X172221Y72791D01*
X173047Y73343D01*
X173600Y74170D01*
X173695Y74646D01*
D02*
G37*
G36*
X183500Y14020D02*
X183025Y13925D01*
X182198Y13373D01*
X181645Y12546D01*
X181551Y12070D01*
X183500D01*
Y14020D01*
D02*
G37*
G36*
X165700D02*
Y12070D01*
X167649D01*
X167555Y12546D01*
X167002Y13373D01*
X166175Y13925D01*
X165700Y14020D01*
D02*
G37*
G36*
X202300D02*
X201825Y13925D01*
X200998Y13373D01*
X200445Y12546D01*
X200350Y12070D01*
X202300D01*
Y14020D01*
D02*
G37*
G36*
X184500D02*
Y12070D01*
X186450D01*
X186355Y12546D01*
X185802Y13373D01*
X184976Y13925D01*
X184500Y14020D01*
D02*
G37*
G36*
X145900D02*
X145425Y13925D01*
X144598Y13373D01*
X144045Y12546D01*
X143950Y12070D01*
X145900D01*
Y14020D01*
D02*
G37*
G36*
X128100D02*
Y12070D01*
X130050D01*
X129955Y12546D01*
X129402Y13373D01*
X128576Y13925D01*
X128100Y14020D01*
D02*
G37*
G36*
X164700D02*
X164225Y13925D01*
X163398Y13373D01*
X162845Y12546D01*
X162750Y12070D01*
X164700D01*
Y14020D01*
D02*
G37*
G36*
X146900D02*
Y12070D01*
X148849D01*
X148755Y12546D01*
X148202Y13373D01*
X147376Y13925D01*
X146900Y14020D01*
D02*
G37*
G36*
X203300D02*
Y12070D01*
X205250D01*
X205155Y12546D01*
X204602Y13373D01*
X203776Y13925D01*
X203300Y14020D01*
D02*
G37*
G36*
X229200Y22455D02*
X227383Y22216D01*
X225225Y21321D01*
X223371Y19899D01*
X221949Y18045D01*
X221054Y15887D01*
X220815Y14070D01*
X229200D01*
Y22455D01*
D02*
G37*
G36*
X108200D02*
X106383Y22216D01*
X104225Y21321D01*
X102371Y19899D01*
X100949Y18045D01*
X100054Y15887D01*
X99815Y14070D01*
X108200D01*
Y22455D01*
D02*
G37*
G36*
X230200Y22455D02*
Y14070D01*
X238585D01*
X238346Y15887D01*
X237451Y18045D01*
X236029Y19899D01*
X234175Y21321D01*
X232017Y22216D01*
X230200Y22455D01*
D02*
G37*
G36*
X109200D02*
Y14070D01*
X117585D01*
X117346Y15887D01*
X116451Y18045D01*
X115029Y19899D01*
X113175Y21321D01*
X111017Y22216D01*
X109200Y22455D01*
D02*
G37*
G36*
X127100Y14020D02*
X126625Y13925D01*
X125798Y13373D01*
X125245Y12546D01*
X125151Y12070D01*
X127100D01*
Y14020D01*
D02*
G37*
G36*
X145900Y11070D02*
X143950D01*
X144045Y10595D01*
X144598Y9768D01*
X145425Y9215D01*
X145900Y9121D01*
Y11070D01*
D02*
G37*
G36*
X130050D02*
X128100D01*
Y9121D01*
X128576Y9215D01*
X129402Y9768D01*
X129955Y10595D01*
X130050Y11070D01*
D02*
G37*
G36*
X164700D02*
X162750D01*
X162845Y10595D01*
X163398Y9768D01*
X164225Y9215D01*
X164700Y9121D01*
Y11070D01*
D02*
G37*
G36*
X148849D02*
X146900D01*
Y9121D01*
X147376Y9215D01*
X148202Y9768D01*
X148755Y10595D01*
X148849Y11070D01*
D02*
G37*
G36*
X229200Y13070D02*
X220815D01*
X221054Y11253D01*
X221949Y9095D01*
X223371Y7241D01*
X225225Y5819D01*
X227383Y4924D01*
X229200Y4685D01*
Y13070D01*
D02*
G37*
G36*
X127100Y11070D02*
X125151D01*
X125245Y10595D01*
X125798Y9768D01*
X126625Y9215D01*
X127100Y9121D01*
Y11070D01*
D02*
G37*
G36*
X167649D02*
X165700D01*
Y9121D01*
X166175Y9215D01*
X167002Y9768D01*
X167555Y10595D01*
X167649Y11070D01*
D02*
G37*
G36*
X186450D02*
X184500D01*
Y9121D01*
X184976Y9215D01*
X185802Y9768D01*
X186355Y10595D01*
X186450Y11070D01*
D02*
G37*
G36*
X183500D02*
X181551D01*
X181645Y10595D01*
X182198Y9768D01*
X183025Y9215D01*
X183500Y9121D01*
Y11070D01*
D02*
G37*
G36*
X205250D02*
X203300D01*
Y9121D01*
X203776Y9215D01*
X204602Y9768D01*
X205155Y10595D01*
X205250Y11070D01*
D02*
G37*
G36*
X202300D02*
X200350D01*
X200445Y10595D01*
X200998Y9768D01*
X201825Y9215D01*
X202300Y9121D01*
Y11070D01*
D02*
G37*
G36*
X213650Y21470D02*
X211700D01*
Y19521D01*
X212175Y19615D01*
X213002Y20168D01*
X213555Y20995D01*
X213650Y21470D01*
D02*
G37*
G36*
X210700D02*
X208751D01*
X208845Y20995D01*
X209398Y20168D01*
X210225Y19615D01*
X210700Y19521D01*
Y21470D01*
D02*
G37*
G36*
X119249Y24420D02*
X118773Y24325D01*
X117947Y23773D01*
X117394Y22945D01*
X117299Y22470D01*
X119249D01*
Y24420D01*
D02*
G37*
G36*
X173100D02*
X172625Y24325D01*
X171798Y23773D01*
X171245Y22945D01*
X171151Y22470D01*
X173100D01*
Y24420D01*
D02*
G37*
G36*
X155300D02*
Y22470D01*
X157249D01*
X157155Y22945D01*
X156602Y23773D01*
X155775Y24325D01*
X155300Y24420D01*
D02*
G37*
G36*
X191900D02*
X191425Y24325D01*
X190598Y23773D01*
X190045Y22945D01*
X189951Y22470D01*
X191900D01*
Y24420D01*
D02*
G37*
G36*
X174100D02*
Y22470D01*
X176049D01*
X175955Y22945D01*
X175402Y23773D01*
X174575Y24325D01*
X174100Y24420D01*
D02*
G37*
G36*
X135500D02*
X135025Y24325D01*
X134198Y23773D01*
X133645Y22945D01*
X133551Y22470D01*
X135500D01*
Y24420D01*
D02*
G37*
G36*
X120249D02*
Y22470D01*
X122198D01*
X122104Y22945D01*
X121551Y23773D01*
X120724Y24325D01*
X120249Y24420D01*
D02*
G37*
G36*
X154300D02*
X153825Y24325D01*
X152998Y23773D01*
X152445Y22945D01*
X152350Y22470D01*
X154300D01*
Y24420D01*
D02*
G37*
G36*
X136500D02*
Y22470D01*
X138450D01*
X138355Y22945D01*
X137802Y23773D01*
X136976Y24325D01*
X136500Y24420D01*
D02*
G37*
G36*
X194850Y21470D02*
X192900D01*
Y19521D01*
X193376Y19615D01*
X194202Y20168D01*
X194755Y20995D01*
X194850Y21470D01*
D02*
G37*
G36*
X119249D02*
X117299D01*
X117394Y20995D01*
X117947Y20168D01*
X118773Y19615D01*
X119249Y19521D01*
Y21470D01*
D02*
G37*
G36*
X173100D02*
X171151D01*
X171245Y20995D01*
X171798Y20168D01*
X172625Y19615D01*
X173100Y19521D01*
Y21470D01*
D02*
G37*
G36*
X157249D02*
X155300D01*
Y19521D01*
X155775Y19615D01*
X156602Y20168D01*
X157155Y20995D01*
X157249Y21470D01*
D02*
G37*
G36*
X191900D02*
X189951D01*
X190045Y20995D01*
X190598Y20168D01*
X191425Y19615D01*
X191900Y19521D01*
Y21470D01*
D02*
G37*
G36*
X176049D02*
X174100D01*
Y19521D01*
X174575Y19615D01*
X175402Y20168D01*
X175955Y20995D01*
X176049Y21470D01*
D02*
G37*
G36*
X135500D02*
X133551D01*
X133645Y20995D01*
X134198Y20168D01*
X135025Y19615D01*
X135500Y19521D01*
Y21470D01*
D02*
G37*
G36*
X122198D02*
X120249D01*
Y19521D01*
X120724Y19615D01*
X121551Y20168D01*
X122104Y20995D01*
X122198Y21470D01*
D02*
G37*
G36*
X154300D02*
X152350D01*
X152445Y20995D01*
X152998Y20168D01*
X153825Y19615D01*
X154300Y19521D01*
Y21470D01*
D02*
G37*
G36*
X138450D02*
X136500D01*
Y19521D01*
X136976Y19615D01*
X137802Y20168D01*
X138355Y20995D01*
X138450Y21470D01*
D02*
G37*
G36*
X108200Y13070D02*
X99815D01*
X100054Y11253D01*
X100949Y9095D01*
X102371Y7241D01*
X104225Y5819D01*
X106383Y4924D01*
X108200Y4685D01*
Y13070D01*
D02*
G37*
G36*
X118700Y3620D02*
X118225Y3525D01*
X117398Y2973D01*
X116845Y2145D01*
X116751Y1670D01*
X118700D01*
Y3620D01*
D02*
G37*
G36*
X166853Y4149D02*
X160267D01*
Y24D01*
X167936D01*
Y3067D01*
X167619Y3832D01*
X166853Y4149D01*
D02*
G37*
G36*
X119700Y3620D02*
Y1670D01*
X121650D01*
X121555Y2145D01*
X121002Y2973D01*
X120176Y3525D01*
X119700Y3620D01*
D02*
G37*
G36*
X238585Y13070D02*
X230200D01*
Y4685D01*
X232017Y4924D01*
X234175Y5819D01*
X236029Y7241D01*
X237451Y9095D01*
X238346Y11253D01*
X238585Y13070D01*
D02*
G37*
G36*
X117585D02*
X109200D01*
Y4685D01*
X111017Y4924D01*
X113175Y5819D01*
X115029Y7241D01*
X116451Y9095D01*
X117346Y11253D01*
X117585Y13070D01*
D02*
G37*
G36*
X208187Y4149D02*
X201600D01*
Y24D01*
X209269D01*
Y3067D01*
X208952Y3832D01*
X208187Y4149D01*
D02*
G37*
G36*
X179933D02*
X173347D01*
X172581Y3832D01*
X172264Y3067D01*
Y24D01*
X179933D01*
Y4149D01*
D02*
G37*
G36*
X138600D02*
X132013D01*
X131248Y3832D01*
X130931Y3067D01*
Y24D01*
X138600D01*
Y4149D01*
D02*
G37*
G36*
X187520D02*
X180933D01*
Y24D01*
X188602D01*
Y3067D01*
X188285Y3832D01*
X187520Y4149D01*
D02*
G37*
G36*
X146187D02*
X139600D01*
Y24D01*
X147269D01*
Y3067D01*
X146952Y3832D01*
X146187Y4149D01*
D02*
G37*
G36*
X121650Y670D02*
X119700D01*
Y-1279D01*
X120176Y-1185D01*
X121002Y-632D01*
X121555Y195D01*
X121650Y670D01*
D02*
G37*
G36*
X118700D02*
X116751D01*
X116845Y195D01*
X117398Y-632D01*
X118225Y-1185D01*
X118700Y-1279D01*
Y670D01*
D02*
G37*
G36*
X159267Y4149D02*
X152680D01*
X151915Y3832D01*
X151598Y3067D01*
Y24D01*
X159267D01*
Y4149D01*
D02*
G37*
G36*
X200600D02*
X194013D01*
X193248Y3832D01*
X192931Y3067D01*
Y24D01*
X200600D01*
Y4149D01*
D02*
G37*
G36*
X82149Y317100D02*
X80200D01*
Y315150D01*
X80676Y315245D01*
X81502Y315798D01*
X82055Y316625D01*
X82149Y317100D01*
D02*
G37*
G36*
X79200D02*
X77250D01*
X77345Y316625D01*
X77898Y315798D01*
X78725Y315245D01*
X79200Y315150D01*
Y317100D01*
D02*
G37*
G36*
X100950D02*
X99000D01*
Y315150D01*
X99476Y315245D01*
X100302Y315798D01*
X100855Y316625D01*
X100950Y317100D01*
D02*
G37*
G36*
X98000D02*
X96051D01*
X96145Y316625D01*
X96698Y315798D01*
X97525Y315245D01*
X98000Y315150D01*
Y317100D01*
D02*
G37*
G36*
X72200Y312649D02*
Y310700D01*
X74150D01*
X74055Y311175D01*
X73502Y312002D01*
X72676Y312555D01*
X72200Y312649D01*
D02*
G37*
G36*
X71200D02*
X70725Y312555D01*
X69898Y312002D01*
X69345Y311175D01*
X69251Y310700D01*
X71200D01*
Y312649D01*
D02*
G37*
G36*
X63349Y317100D02*
X61400D01*
Y315150D01*
X61875Y315245D01*
X62702Y315798D01*
X63255Y316625D01*
X63349Y317100D01*
D02*
G37*
G36*
X60400D02*
X58451D01*
X58545Y316625D01*
X59098Y315798D01*
X59925Y315245D01*
X60400Y315150D01*
Y317100D01*
D02*
G37*
G36*
X239200D02*
X237250D01*
X237345Y316625D01*
X237898Y315798D01*
X238725Y315245D01*
X239200Y315150D01*
Y317100D01*
D02*
G37*
G36*
X156767Y319649D02*
X150180D01*
X149415Y319332D01*
X149098Y318567D01*
Y315524D01*
X156767D01*
Y319649D01*
D02*
G37*
G36*
X279749Y317100D02*
X277800D01*
Y315150D01*
X278275Y315245D01*
X279102Y315798D01*
X279655Y316625D01*
X279749Y317100D01*
D02*
G37*
G36*
X177433Y319649D02*
X170847D01*
X170081Y319332D01*
X169764Y318567D01*
Y315524D01*
X177433D01*
Y319649D01*
D02*
G37*
G36*
X198100D02*
X191513D01*
X190748Y319332D01*
X190431Y318567D01*
Y315524D01*
X198100D01*
Y319649D01*
D02*
G37*
G36*
X258000Y317100D02*
X256050D01*
X256145Y316625D01*
X256698Y315798D01*
X257525Y315245D01*
X258000Y315150D01*
Y317100D01*
D02*
G37*
G36*
X242149D02*
X240200D01*
Y315150D01*
X240675Y315245D01*
X241502Y315798D01*
X242055Y316625D01*
X242149Y317100D01*
D02*
G37*
G36*
X276800D02*
X274851D01*
X274945Y316625D01*
X275498Y315798D01*
X276325Y315245D01*
X276800Y315150D01*
Y317100D01*
D02*
G37*
G36*
X260949D02*
X259000D01*
Y315150D01*
X259475Y315245D01*
X260302Y315798D01*
X260855Y316625D01*
X260949Y317100D01*
D02*
G37*
G36*
X54800Y312649D02*
Y310700D01*
X56749D01*
X56655Y311175D01*
X56102Y312002D01*
X55275Y312555D01*
X54800Y312649D01*
D02*
G37*
G36*
X63500Y307949D02*
Y306000D01*
X65450D01*
X65355Y306475D01*
X64802Y307302D01*
X63976Y307855D01*
X63500Y307949D01*
D02*
G37*
G36*
X62500D02*
X62025Y307855D01*
X61198Y307302D01*
X60645Y306475D01*
X60550Y306000D01*
X62500D01*
Y307949D01*
D02*
G37*
G36*
X80900D02*
Y306000D01*
X82850D01*
X82755Y306475D01*
X82202Y307302D01*
X81375Y307855D01*
X80900Y307949D01*
D02*
G37*
G36*
X79900D02*
X79425Y307855D01*
X78598Y307302D01*
X78045Y306475D01*
X77951Y306000D01*
X79900D01*
Y307949D01*
D02*
G37*
G36*
X82850Y305000D02*
X80900D01*
Y303050D01*
X81375Y303145D01*
X82202Y303698D01*
X82755Y304525D01*
X82850Y305000D01*
D02*
G37*
G36*
X79900D02*
X77951D01*
X78045Y304525D01*
X78598Y303698D01*
X79425Y303145D01*
X79900Y303050D01*
Y305000D01*
D02*
G37*
G36*
X275950Y305500D02*
X274000D01*
Y303551D01*
X274476Y303645D01*
X275302Y304198D01*
X275855Y305025D01*
X275950Y305500D01*
D02*
G37*
G36*
X273000D02*
X271051D01*
X271145Y305025D01*
X271698Y304198D01*
X272525Y303645D01*
X273000Y303551D01*
Y305500D01*
D02*
G37*
G36*
Y308450D02*
X272525Y308355D01*
X271698Y307802D01*
X271145Y306976D01*
X271051Y306500D01*
X273000D01*
Y308450D01*
D02*
G37*
G36*
X-17400Y315694D02*
X-18703Y315523D01*
X-20382Y314827D01*
X-21825Y313720D01*
X-22932Y312278D01*
X-23628Y310598D01*
X-23799Y309295D01*
X-17400D01*
Y315694D01*
D02*
G37*
G36*
X74150Y309700D02*
X72200D01*
Y307751D01*
X72676Y307845D01*
X73502Y308398D01*
X74055Y309225D01*
X74150Y309700D01*
D02*
G37*
G36*
X53800Y312649D02*
X53325Y312555D01*
X52498Y312002D01*
X51945Y311175D01*
X51850Y310700D01*
X53800D01*
Y312649D01*
D02*
G37*
G36*
X-16400Y315695D02*
Y309295D01*
X-10001D01*
X-10172Y310598D01*
X-10868Y312278D01*
X-11975Y313720D01*
X-13417Y314827D01*
X-15097Y315523D01*
X-16400Y315695D01*
D02*
G37*
G36*
X53800Y309700D02*
X51850D01*
X51945Y309225D01*
X52498Y308398D01*
X53325Y307845D01*
X53800Y307751D01*
Y309700D01*
D02*
G37*
G36*
X274000Y308450D02*
Y306500D01*
X275950D01*
X275855Y306976D01*
X275302Y307802D01*
X274476Y308355D01*
X274000Y308450D01*
D02*
G37*
G36*
X71200Y309700D02*
X69251D01*
X69345Y309225D01*
X69898Y308398D01*
X70725Y307845D01*
X71200Y307751D01*
Y309700D01*
D02*
G37*
G36*
X56749D02*
X54800D01*
Y307751D01*
X55275Y307845D01*
X56102Y308398D01*
X56655Y309225D01*
X56749Y309700D01*
D02*
G37*
G36*
X258000Y320050D02*
X257525Y319955D01*
X256698Y319402D01*
X256145Y318576D01*
X256050Y318100D01*
X258000D01*
Y320050D01*
D02*
G37*
G36*
X240200D02*
Y318100D01*
X242149D01*
X242055Y318576D01*
X241502Y319402D01*
X240675Y319955D01*
X240200Y320050D01*
D02*
G37*
G36*
X276800D02*
X276325Y319955D01*
X275498Y319402D01*
X274945Y318576D01*
X274851Y318100D01*
X276800D01*
Y320050D01*
D02*
G37*
G36*
X259000D02*
Y318100D01*
X260949D01*
X260855Y318576D01*
X260302Y319402D01*
X259475Y319955D01*
X259000Y320050D01*
D02*
G37*
G36*
X98000D02*
X97525Y319955D01*
X96698Y319402D01*
X96145Y318576D01*
X96051Y318100D01*
X98000D01*
Y320050D01*
D02*
G37*
G36*
X80200D02*
Y318100D01*
X82149D01*
X82055Y318576D01*
X81502Y319402D01*
X80676Y319955D01*
X80200Y320050D01*
D02*
G37*
G36*
X239200D02*
X238725Y319955D01*
X237898Y319402D01*
X237345Y318576D01*
X237250Y318100D01*
X239200D01*
Y320050D01*
D02*
G37*
G36*
X99000D02*
Y318100D01*
X100950D01*
X100855Y318576D01*
X100302Y319402D01*
X99476Y319955D01*
X99000Y320050D01*
D02*
G37*
G36*
X277800D02*
Y318100D01*
X279749D01*
X279655Y318576D01*
X279102Y319402D01*
X278275Y319955D01*
X277800Y320050D01*
D02*
G37*
G36*
X17549Y320500D02*
X15600D01*
Y318550D01*
X16075Y318645D01*
X16902Y319198D01*
X17455Y320025D01*
X17549Y320500D01*
D02*
G37*
G36*
X14600D02*
X12651D01*
X12745Y320025D01*
X13298Y319198D01*
X14125Y318645D01*
X14600Y318550D01*
Y320500D01*
D02*
G37*
G36*
X25550D02*
X23600D01*
Y318550D01*
X24076Y318645D01*
X24902Y319198D01*
X25455Y320025D01*
X25550Y320500D01*
D02*
G37*
G36*
X22600D02*
X20651D01*
X20745Y320025D01*
X21298Y319198D01*
X22125Y318645D01*
X22600Y318550D01*
Y320500D01*
D02*
G37*
G36*
X6100Y320449D02*
Y318500D01*
X8049D01*
X7955Y318975D01*
X7402Y319802D01*
X6576Y320355D01*
X6100Y320449D01*
D02*
G37*
G36*
X5100D02*
X4625Y320355D01*
X3798Y319802D01*
X3245Y318975D01*
X3150Y318500D01*
X5100D01*
Y320449D01*
D02*
G37*
G36*
X50500D02*
Y318500D01*
X52450D01*
X52355Y318975D01*
X51802Y319802D01*
X50976Y320355D01*
X50500Y320449D01*
D02*
G37*
G36*
X49500D02*
X49025Y320355D01*
X48198Y319802D01*
X47645Y318975D01*
X47550Y318500D01*
X49500D01*
Y320449D01*
D02*
G37*
G36*
X79200Y320050D02*
X78725Y319955D01*
X77898Y319402D01*
X77345Y318576D01*
X77250Y318100D01*
X79200D01*
Y320050D01*
D02*
G37*
G36*
X5100Y317500D02*
X3150D01*
X3245Y317025D01*
X3798Y316198D01*
X4625Y315645D01*
X5100Y315550D01*
Y317500D01*
D02*
G37*
G36*
X205687Y319649D02*
X199100D01*
Y315524D01*
X206769D01*
Y318567D01*
X206452Y319332D01*
X205687Y319649D01*
D02*
G37*
G36*
X49500Y317500D02*
X47550D01*
X47645Y317025D01*
X48198Y316198D01*
X49025Y315645D01*
X49500Y315550D01*
Y317500D01*
D02*
G37*
G36*
X8049D02*
X6100D01*
Y315550D01*
X6576Y315645D01*
X7402Y316198D01*
X7955Y317025D01*
X8049Y317500D01*
D02*
G37*
G36*
X185020Y319649D02*
X178433D01*
Y315524D01*
X186102D01*
Y318567D01*
X185785Y319332D01*
X185020Y319649D01*
D02*
G37*
G36*
X136100D02*
X129513D01*
X128748Y319332D01*
X128431Y318567D01*
Y315524D01*
X136100D01*
Y319649D01*
D02*
G37*
G36*
X164353D02*
X157767D01*
Y315524D01*
X165436D01*
Y318567D01*
X165119Y319332D01*
X164353Y319649D01*
D02*
G37*
G36*
X143687D02*
X137100D01*
Y315524D01*
X144769D01*
Y318567D01*
X144452Y319332D01*
X143687Y319649D01*
D02*
G37*
G36*
X52450Y317500D02*
X50500D01*
Y315550D01*
X50976Y315645D01*
X51802Y316198D01*
X52355Y317025D01*
X52450Y317500D01*
D02*
G37*
G36*
X108200Y325070D02*
X99815D01*
X100054Y323253D01*
X100949Y321095D01*
X102371Y319241D01*
X104225Y317819D01*
X106383Y316925D01*
X108200Y316685D01*
Y325070D01*
D02*
G37*
G36*
X117585D02*
X109200D01*
Y316685D01*
X111017Y316925D01*
X113175Y317819D01*
X115029Y319241D01*
X116451Y321095D01*
X117346Y323253D01*
X117585Y325070D01*
D02*
G37*
G36*
X61400Y320050D02*
Y318100D01*
X63349D01*
X63255Y318576D01*
X62702Y319402D01*
X61875Y319955D01*
X61400Y320050D01*
D02*
G37*
G36*
X60400D02*
X59925Y319955D01*
X59098Y319402D01*
X58545Y318576D01*
X58451Y318100D01*
X60400D01*
Y320050D01*
D02*
G37*
G36*
X221550Y317600D02*
X219600D01*
Y315651D01*
X220075Y315745D01*
X220902Y316298D01*
X221455Y317125D01*
X221550Y317600D01*
D02*
G37*
G36*
X218600D02*
X216651D01*
X216745Y317125D01*
X217298Y316298D01*
X218125Y315745D01*
X218600Y315651D01*
Y317600D01*
D02*
G37*
G36*
X229200Y324870D02*
X220815D01*
X221054Y323054D01*
X221949Y320895D01*
X223371Y319041D01*
X225225Y317619D01*
X227383Y316724D01*
X229200Y316485D01*
Y324870D01*
D02*
G37*
G36*
X238585D02*
X230200D01*
Y316485D01*
X232017Y316724D01*
X234175Y317619D01*
X236029Y319041D01*
X237451Y320895D01*
X238346Y323054D01*
X238585Y324870D01*
D02*
G37*
G36*
X274000Y289650D02*
Y287700D01*
X275950D01*
X275855Y288176D01*
X275302Y289002D01*
X274476Y289555D01*
X274000Y289650D01*
D02*
G37*
G36*
X273000D02*
X272525Y289555D01*
X271698Y289002D01*
X271145Y288176D01*
X271051Y287700D01*
X273000D01*
Y289650D01*
D02*
G37*
G36*
X63500Y289149D02*
Y287200D01*
X65450D01*
X65355Y287675D01*
X64802Y288502D01*
X63976Y289055D01*
X63500Y289149D01*
D02*
G37*
G36*
X62500D02*
X62025Y289055D01*
X61198Y288502D01*
X60645Y287675D01*
X60550Y287200D01*
X62500D01*
Y289149D01*
D02*
G37*
G36*
X80900D02*
Y287200D01*
X82850D01*
X82755Y287675D01*
X82202Y288502D01*
X81375Y289055D01*
X80900Y289149D01*
D02*
G37*
G36*
X79900D02*
X79425Y289055D01*
X78598Y288502D01*
X78045Y287675D01*
X77951Y287200D01*
X79900D01*
Y289149D01*
D02*
G37*
G36*
X-17400Y296098D02*
X-22806D01*
X-23571Y295781D01*
X-23888Y295016D01*
Y289610D01*
X-17400D01*
Y296098D01*
D02*
G37*
G36*
X74150Y290900D02*
X72200D01*
Y288950D01*
X72676Y289045D01*
X73502Y289598D01*
X74055Y290425D01*
X74150Y290900D01*
D02*
G37*
G36*
X53800Y293849D02*
X53325Y293755D01*
X52498Y293202D01*
X51945Y292375D01*
X51850Y291900D01*
X53800D01*
Y293849D01*
D02*
G37*
G36*
X-10994Y296098D02*
X-16400D01*
Y289610D01*
X-9912D01*
Y295016D01*
X-10229Y295781D01*
X-10994Y296098D01*
D02*
G37*
G36*
X53800Y290900D02*
X51850D01*
X51945Y290425D01*
X52498Y289598D01*
X53325Y289045D01*
X53800Y288950D01*
Y290900D01*
D02*
G37*
G36*
X71200D02*
X69251D01*
X69345Y290425D01*
X69898Y289598D01*
X70725Y289045D01*
X71200Y288950D01*
Y290900D01*
D02*
G37*
G36*
X56749D02*
X54800D01*
Y288950D01*
X55275Y289045D01*
X56102Y289598D01*
X56655Y290425D01*
X56749Y290900D01*
D02*
G37*
G36*
X65450Y286200D02*
X63500D01*
Y284250D01*
X63976Y284345D01*
X64802Y284898D01*
X65355Y285725D01*
X65450Y286200D01*
D02*
G37*
G36*
X62500D02*
X60550D01*
X60645Y285725D01*
X61198Y284898D01*
X62025Y284345D01*
X62500Y284250D01*
Y286200D01*
D02*
G37*
G36*
X82850D02*
X80900D01*
Y284250D01*
X81375Y284345D01*
X82202Y284898D01*
X82755Y285725D01*
X82850Y286200D01*
D02*
G37*
G36*
X79900D02*
X77951D01*
X78045Y285725D01*
X78598Y284898D01*
X79425Y284345D01*
X79900Y284250D01*
Y286200D01*
D02*
G37*
G36*
X273000Y286700D02*
X271051D01*
X271145Y286225D01*
X271698Y285398D01*
X272525Y284845D01*
X273000Y284751D01*
Y286700D01*
D02*
G37*
G36*
X275950D02*
X274000D01*
Y284751D01*
X274476Y284845D01*
X275302Y285398D01*
X275855Y286225D01*
X275950Y286700D01*
D02*
G37*
G36*
X53800Y300300D02*
X51850D01*
X51945Y299825D01*
X52498Y298998D01*
X53325Y298445D01*
X53800Y298351D01*
Y300300D01*
D02*
G37*
G36*
X80900Y298550D02*
Y296600D01*
X82850D01*
X82755Y297076D01*
X82202Y297902D01*
X81375Y298455D01*
X80900Y298550D01*
D02*
G37*
G36*
X71200Y300300D02*
X69251D01*
X69345Y299825D01*
X69898Y298998D01*
X70725Y298445D01*
X71200Y298351D01*
Y300300D01*
D02*
G37*
G36*
X56749D02*
X54800D01*
Y298351D01*
X55275Y298445D01*
X56102Y298998D01*
X56655Y299825D01*
X56749Y300300D01*
D02*
G37*
G36*
X62500Y298550D02*
X62025Y298455D01*
X61198Y297902D01*
X60645Y297076D01*
X60550Y296600D01*
X62500D01*
Y298550D01*
D02*
G37*
G36*
X263600Y298049D02*
Y296100D01*
X265549D01*
X265455Y296575D01*
X264902Y297402D01*
X264075Y297955D01*
X263600Y298049D01*
D02*
G37*
G36*
X79900Y298550D02*
X79425Y298455D01*
X78598Y297902D01*
X78045Y297076D01*
X77951Y296600D01*
X79900D01*
Y298550D01*
D02*
G37*
G36*
X63500D02*
Y296600D01*
X65450D01*
X65355Y297076D01*
X64802Y297902D01*
X63976Y298455D01*
X63500Y298550D01*
D02*
G37*
G36*
X74150Y300300D02*
X72200D01*
Y298351D01*
X72676Y298445D01*
X73502Y298998D01*
X74055Y299825D01*
X74150Y300300D01*
D02*
G37*
G36*
X-17400Y308295D02*
X-23799D01*
X-23628Y306993D01*
X-22932Y305313D01*
X-21825Y303870D01*
X-20382Y302763D01*
X-18703Y302067D01*
X-17400Y301896D01*
Y308295D01*
D02*
G37*
G36*
X-10001D02*
X-16400D01*
Y301896D01*
X-15097Y302067D01*
X-13417Y302763D01*
X-11975Y303870D01*
X-10868Y305313D01*
X-10172Y306993D01*
X-10001Y308295D01*
D02*
G37*
G36*
X65450Y305000D02*
X63500D01*
Y303050D01*
X63976Y303145D01*
X64802Y303698D01*
X65355Y304525D01*
X65450Y305000D01*
D02*
G37*
G36*
X62500D02*
X60550D01*
X60645Y304525D01*
X61198Y303698D01*
X62025Y303145D01*
X62500Y303050D01*
Y305000D01*
D02*
G37*
G36*
X54800Y303250D02*
Y301300D01*
X56749D01*
X56655Y301776D01*
X56102Y302602D01*
X55275Y303155D01*
X54800Y303250D01*
D02*
G37*
G36*
X53800D02*
X53325Y303155D01*
X52498Y302602D01*
X51945Y301776D01*
X51850Y301300D01*
X53800D01*
Y303250D01*
D02*
G37*
G36*
X72200D02*
Y301300D01*
X74150D01*
X74055Y301776D01*
X73502Y302602D01*
X72676Y303155D01*
X72200Y303250D01*
D02*
G37*
G36*
X71200D02*
X70725Y303155D01*
X69898Y302602D01*
X69345Y301776D01*
X69251Y301300D01*
X71200D01*
Y303250D01*
D02*
G37*
G36*
X262600Y298049D02*
X262125Y297955D01*
X261298Y297402D01*
X260745Y296575D01*
X260650Y296100D01*
X262600D01*
Y298049D01*
D02*
G37*
G36*
X62500Y295600D02*
X60550D01*
X60645Y295125D01*
X61198Y294298D01*
X62025Y293745D01*
X62500Y293651D01*
Y295600D01*
D02*
G37*
G36*
X265549Y295100D02*
X263600D01*
Y293150D01*
X264075Y293245D01*
X264902Y293798D01*
X265455Y294625D01*
X265549Y295100D01*
D02*
G37*
G36*
X79900Y295600D02*
X77951D01*
X78045Y295125D01*
X78598Y294298D01*
X79425Y293745D01*
X79900Y293651D01*
Y295600D01*
D02*
G37*
G36*
X65450D02*
X63500D01*
Y293651D01*
X63976Y293745D01*
X64802Y294298D01*
X65355Y295125D01*
X65450Y295600D01*
D02*
G37*
G36*
X71200Y293849D02*
X70725Y293755D01*
X69898Y293202D01*
X69345Y292375D01*
X69251Y291900D01*
X71200D01*
Y293849D01*
D02*
G37*
G36*
X54800D02*
Y291900D01*
X56749D01*
X56655Y292375D01*
X56102Y293202D01*
X55275Y293755D01*
X54800Y293849D01*
D02*
G37*
G36*
X262600Y295100D02*
X260650D01*
X260745Y294625D01*
X261298Y293798D01*
X262125Y293245D01*
X262600Y293150D01*
Y295100D01*
D02*
G37*
G36*
X72200Y293849D02*
Y291900D01*
X74150D01*
X74055Y292375D01*
X73502Y293202D01*
X72676Y293755D01*
X72200Y293849D01*
D02*
G37*
G36*
X82850Y295600D02*
X80900D01*
Y293651D01*
X81375Y293745D01*
X82202Y294298D01*
X82755Y295125D01*
X82850Y295600D01*
D02*
G37*
G36*
X80150Y337900D02*
X78200D01*
Y335950D01*
X78676Y336045D01*
X79502Y336598D01*
X80055Y337425D01*
X80150Y337900D01*
D02*
G37*
G36*
X77200D02*
X75251D01*
X75345Y337425D01*
X75898Y336598D01*
X76725Y336045D01*
X77200Y335950D01*
Y337900D01*
D02*
G37*
G36*
X98949D02*
X97000D01*
Y335950D01*
X97475Y336045D01*
X98302Y336598D01*
X98855Y337425D01*
X98949Y337900D01*
D02*
G37*
G36*
X96000D02*
X94051D01*
X94145Y337425D01*
X94698Y336598D01*
X95525Y336045D01*
X96000Y335950D01*
Y337900D01*
D02*
G37*
G36*
X7400Y337849D02*
Y335900D01*
X9349D01*
X9255Y336375D01*
X8702Y337202D01*
X7875Y337755D01*
X7400Y337849D01*
D02*
G37*
G36*
X6400D02*
X5925Y337755D01*
X5098Y337202D01*
X4545Y336375D01*
X4451Y335900D01*
X6400D01*
Y337849D01*
D02*
G37*
G36*
X61349Y337900D02*
X59400D01*
Y335950D01*
X59876Y336045D01*
X60702Y336598D01*
X61255Y337425D01*
X61349Y337900D01*
D02*
G37*
G36*
X58400D02*
X56450D01*
X56545Y337425D01*
X57098Y336598D01*
X57925Y336045D01*
X58400Y335950D01*
Y337900D01*
D02*
G37*
G36*
X237200D02*
X235250D01*
X235345Y337425D01*
X235898Y336598D01*
X236725Y336045D01*
X237200Y335950D01*
Y337900D01*
D02*
G37*
G36*
X125149Y338400D02*
X123199D01*
X123294Y337925D01*
X123847Y337098D01*
X124673Y336545D01*
X125149Y336451D01*
Y338400D01*
D02*
G37*
G36*
X-9900Y337902D02*
Y335953D01*
X-7950D01*
X-8045Y336428D01*
X-8598Y337255D01*
X-9425Y337808D01*
X-9900Y337902D01*
D02*
G37*
G36*
X141400Y338400D02*
X139451D01*
X139545Y337925D01*
X140098Y337098D01*
X140925Y336545D01*
X141400Y336451D01*
Y338400D01*
D02*
G37*
G36*
X128098D02*
X126149D01*
Y336451D01*
X126624Y336545D01*
X127451Y337098D01*
X128004Y337925D01*
X128098Y338400D01*
D02*
G37*
G36*
X256000Y337900D02*
X254050D01*
X254145Y337425D01*
X254698Y336598D01*
X255525Y336045D01*
X256000Y335950D01*
Y337900D01*
D02*
G37*
G36*
X240149D02*
X238200D01*
Y335950D01*
X238675Y336045D01*
X239502Y336598D01*
X240055Y337425D01*
X240149Y337900D01*
D02*
G37*
G36*
X-10900Y337902D02*
X-11375Y337808D01*
X-12202Y337255D01*
X-12755Y336428D01*
X-12849Y335953D01*
X-10900D01*
Y337902D01*
D02*
G37*
G36*
X258949Y337900D02*
X257000D01*
Y335950D01*
X257475Y336045D01*
X258302Y336598D01*
X258855Y337425D01*
X258949Y337900D01*
D02*
G37*
G36*
X-2000Y337849D02*
Y335900D01*
X-51D01*
X-145Y336375D01*
X-698Y337202D01*
X-1524Y337755D01*
X-2000Y337849D01*
D02*
G37*
G36*
X208200Y330949D02*
X207725Y330855D01*
X206898Y330302D01*
X206345Y329475D01*
X206251Y329000D01*
X208200D01*
Y330949D01*
D02*
G37*
G36*
X190400D02*
Y329000D01*
X192350D01*
X192255Y329475D01*
X191702Y330302D01*
X190875Y330855D01*
X190400Y330949D01*
D02*
G37*
G36*
X38743Y335700D02*
X32343D01*
X32515Y334397D01*
X33211Y332717D01*
X34317Y331275D01*
X35760Y330168D01*
X36895Y329698D01*
X36843Y329178D01*
X36225Y329055D01*
X35398Y328502D01*
X34845Y327676D01*
X34751Y327200D01*
X39650D01*
X39555Y327676D01*
X39002Y328502D01*
X38518Y328826D01*
X38699Y329307D01*
X38743Y329301D01*
Y335700D01*
D02*
G37*
G36*
X209200Y330949D02*
Y329000D01*
X211150D01*
X211055Y329475D01*
X210502Y330302D01*
X209676Y330855D01*
X209200Y330949D01*
D02*
G37*
G36*
X170600D02*
X170125Y330855D01*
X169298Y330302D01*
X168745Y329475D01*
X168650Y329000D01*
X170600D01*
Y330949D01*
D02*
G37*
G36*
X152800D02*
Y329000D01*
X154750D01*
X154655Y329475D01*
X154102Y330302D01*
X153276Y330855D01*
X152800Y330949D01*
D02*
G37*
G36*
X189400D02*
X188925Y330855D01*
X188098Y330302D01*
X187545Y329475D01*
X187451Y329000D01*
X189400D01*
Y330949D01*
D02*
G37*
G36*
X171600D02*
Y329000D01*
X173549D01*
X173455Y329475D01*
X172902Y330302D01*
X172075Y330855D01*
X171600Y330949D01*
D02*
G37*
G36*
X46142Y335700D02*
X39742D01*
Y329301D01*
X41045Y329472D01*
X42725Y330168D01*
X44168Y331275D01*
X45274Y332717D01*
X45970Y334397D01*
X46142Y335700D01*
D02*
G37*
G36*
X-10900Y334953D02*
X-12849D01*
X-12755Y334477D01*
X-12202Y333650D01*
X-11375Y333098D01*
X-10900Y333003D01*
Y334953D01*
D02*
G37*
G36*
X9349Y334900D02*
X7400D01*
Y332950D01*
X7875Y333045D01*
X8702Y333598D01*
X9255Y334425D01*
X9349Y334900D01*
D02*
G37*
G36*
X-3000Y337849D02*
X-3475Y337755D01*
X-4302Y337202D01*
X-4855Y336375D01*
X-4950Y335900D01*
X-3000D01*
Y337849D01*
D02*
G37*
G36*
X-7950Y334953D02*
X-9900D01*
Y333003D01*
X-9425Y333098D01*
X-8598Y333650D01*
X-8045Y334477D01*
X-7950Y334953D01*
D02*
G37*
G36*
X-3000Y334900D02*
X-4950D01*
X-4855Y334425D01*
X-4302Y333598D01*
X-3475Y333045D01*
X-3000Y332950D01*
Y334900D01*
D02*
G37*
G36*
X269084Y333516D02*
X266115D01*
X266287Y332650D01*
X266634Y332131D01*
X266716Y331720D01*
X267158Y331058D01*
X267266Y330986D01*
X267071Y330515D01*
X266900Y330549D01*
X265925Y330355D01*
X265098Y329802D01*
X264545Y328976D01*
X264451Y328500D01*
X269350D01*
X269255Y328976D01*
X268702Y329802D01*
X268429Y329985D01*
X268600Y330461D01*
X269063D01*
X269084Y330465D01*
Y333516D01*
D02*
G37*
G36*
X6400Y334900D02*
X4451D01*
X4545Y334425D01*
X5098Y333598D01*
X5925Y333045D01*
X6400Y332950D01*
Y334900D01*
D02*
G37*
G36*
X-51D02*
X-2000D01*
Y332950D01*
X-1524Y333045D01*
X-698Y333598D01*
X-145Y334425D01*
X-51Y334900D01*
D02*
G37*
G36*
X125149Y341350D02*
X124673Y341255D01*
X123847Y340702D01*
X123294Y339876D01*
X123199Y339400D01*
X125149D01*
Y341350D01*
D02*
G37*
G36*
X257000Y340849D02*
Y338900D01*
X258949D01*
X258855Y339375D01*
X258302Y340202D01*
X257475Y340755D01*
X257000Y340849D01*
D02*
G37*
G36*
X141400Y341350D02*
X140925Y341255D01*
X140098Y340702D01*
X139545Y339876D01*
X139451Y339400D01*
X141400D01*
Y341350D01*
D02*
G37*
G36*
X126149D02*
Y339400D01*
X128098D01*
X128004Y339876D01*
X127451Y340702D01*
X126624Y341255D01*
X126149Y341350D01*
D02*
G37*
G36*
X237200Y340849D02*
X236725Y340755D01*
X235898Y340202D01*
X235345Y339375D01*
X235250Y338900D01*
X237200D01*
Y340849D01*
D02*
G37*
G36*
X97000D02*
Y338900D01*
X98949D01*
X98855Y339375D01*
X98302Y340202D01*
X97475Y340755D01*
X97000Y340849D01*
D02*
G37*
G36*
X256000D02*
X255525Y340755D01*
X254698Y340202D01*
X254145Y339375D01*
X254050Y338900D01*
X256000D01*
Y340849D01*
D02*
G37*
G36*
X238200D02*
Y338900D01*
X240149D01*
X240055Y339375D01*
X239502Y340202D01*
X238675Y340755D01*
X238200Y340849D01*
D02*
G37*
G36*
X142400Y341350D02*
Y339400D01*
X144350D01*
X144255Y339876D01*
X143702Y340702D01*
X142876Y341255D01*
X142400Y341350D01*
D02*
G37*
G36*
X198800D02*
Y339400D01*
X200749D01*
X200655Y339876D01*
X200102Y340702D01*
X199276Y341255D01*
X198800Y341350D01*
D02*
G37*
G36*
X197800D02*
X197325Y341255D01*
X196498Y340702D01*
X195945Y339876D01*
X195851Y339400D01*
X197800D01*
Y341350D01*
D02*
G37*
G36*
X217600D02*
Y339400D01*
X219549D01*
X219455Y339876D01*
X218902Y340702D01*
X218075Y341255D01*
X217600Y341350D01*
D02*
G37*
G36*
X216600D02*
X216125Y341255D01*
X215298Y340702D01*
X214745Y339876D01*
X214651Y339400D01*
X216600D01*
Y341350D01*
D02*
G37*
G36*
X161200D02*
Y339400D01*
X163149D01*
X163055Y339876D01*
X162502Y340702D01*
X161676Y341255D01*
X161200Y341350D01*
D02*
G37*
G36*
X160200D02*
X159725Y341255D01*
X158898Y340702D01*
X158345Y339876D01*
X158250Y339400D01*
X160200D01*
Y341350D01*
D02*
G37*
G36*
X180000D02*
Y339400D01*
X181949D01*
X181855Y339876D01*
X181302Y340702D01*
X180475Y341255D01*
X180000Y341350D01*
D02*
G37*
G36*
X179000D02*
X178525Y341255D01*
X177698Y340702D01*
X177145Y339876D01*
X177050Y339400D01*
X179000D01*
Y341350D01*
D02*
G37*
G36*
X96000Y340849D02*
X95525Y340755D01*
X94698Y340202D01*
X94145Y339375D01*
X94051Y338900D01*
X96000D01*
Y340849D01*
D02*
G37*
G36*
X197800Y338400D02*
X195851D01*
X195945Y337925D01*
X196498Y337098D01*
X197325Y336545D01*
X197800Y336451D01*
Y338400D01*
D02*
G37*
G36*
X181949D02*
X180000D01*
Y336451D01*
X180475Y336545D01*
X181302Y337098D01*
X181855Y337925D01*
X181949Y338400D01*
D02*
G37*
G36*
X216600D02*
X214651D01*
X214745Y337925D01*
X215298Y337098D01*
X216125Y336545D01*
X216600Y336451D01*
Y338400D01*
D02*
G37*
G36*
X200749D02*
X198800D01*
Y336451D01*
X199276Y336545D01*
X200102Y337098D01*
X200655Y337925D01*
X200749Y338400D01*
D02*
G37*
G36*
X160200D02*
X158250D01*
X158345Y337925D01*
X158898Y337098D01*
X159725Y336545D01*
X160200Y336451D01*
Y338400D01*
D02*
G37*
G36*
X144350D02*
X142400D01*
Y336451D01*
X142876Y336545D01*
X143702Y337098D01*
X144255Y337925D01*
X144350Y338400D01*
D02*
G37*
G36*
X179000D02*
X177050D01*
X177145Y337925D01*
X177698Y337098D01*
X178525Y336545D01*
X179000Y336451D01*
Y338400D01*
D02*
G37*
G36*
X163149D02*
X161200D01*
Y336451D01*
X161676Y336545D01*
X162502Y337098D01*
X163055Y337925D01*
X163149Y338400D01*
D02*
G37*
G36*
X219549D02*
X217600D01*
Y336451D01*
X218075Y336545D01*
X218902Y337098D01*
X219455Y337925D01*
X219549Y338400D01*
D02*
G37*
G36*
X59400Y340849D02*
Y338900D01*
X61349D01*
X61255Y339375D01*
X60702Y340202D01*
X59876Y340755D01*
X59400Y340849D01*
D02*
G37*
G36*
X58400D02*
X57925Y340755D01*
X57098Y340202D01*
X56545Y339375D01*
X56450Y338900D01*
X58400D01*
Y340849D01*
D02*
G37*
G36*
X78200D02*
Y338900D01*
X80150D01*
X80055Y339375D01*
X79502Y340202D01*
X78676Y340755D01*
X78200Y340849D01*
D02*
G37*
G36*
X77200D02*
X76725Y340755D01*
X75898Y340202D01*
X75345Y339375D01*
X75251Y338900D01*
X77200D01*
Y340849D01*
D02*
G37*
G36*
X25463Y343188D02*
X20057D01*
Y336700D01*
X26545D01*
Y342106D01*
X26228Y342871D01*
X25463Y343188D01*
D02*
G37*
G36*
X19058D02*
X13652D01*
X12887Y342871D01*
X12570Y342106D01*
Y336700D01*
X19058D01*
Y343188D01*
D02*
G37*
G36*
X39742Y343099D02*
Y336700D01*
X46142D01*
X45970Y338003D01*
X45274Y339683D01*
X44168Y341125D01*
X42725Y342232D01*
X41045Y342928D01*
X39742Y343099D01*
D02*
G37*
G36*
X38743D02*
X37440Y342928D01*
X35760Y342232D01*
X34317Y341125D01*
X33211Y339683D01*
X32515Y338003D01*
X32343Y336700D01*
X38743D01*
Y343099D01*
D02*
G37*
G36*
X39650Y326200D02*
X37700D01*
Y324251D01*
X38175Y324345D01*
X39002Y324898D01*
X39555Y325725D01*
X39650Y326200D01*
D02*
G37*
G36*
X36700D02*
X34751D01*
X34845Y325725D01*
X35398Y324898D01*
X36225Y324345D01*
X36700Y324251D01*
Y326200D01*
D02*
G37*
G36*
X47750D02*
X45800D01*
Y324251D01*
X46275Y324345D01*
X47102Y324898D01*
X47655Y325725D01*
X47750Y326200D01*
D02*
G37*
G36*
X44800D02*
X42851D01*
X42945Y325725D01*
X43498Y324898D01*
X44325Y324345D01*
X44800Y324251D01*
Y326200D01*
D02*
G37*
G36*
X22150D02*
X20200D01*
Y324251D01*
X20675Y324345D01*
X21502Y324898D01*
X22055Y325725D01*
X22150Y326200D01*
D02*
G37*
G36*
X19200D02*
X17251D01*
X17345Y325725D01*
X17898Y324898D01*
X18725Y324345D01*
X19200Y324251D01*
Y326200D01*
D02*
G37*
G36*
X30250D02*
X28300D01*
Y324251D01*
X28776Y324345D01*
X29602Y324898D01*
X30155Y325725D01*
X30250Y326200D01*
D02*
G37*
G36*
X27300D02*
X25350D01*
X25445Y325725D01*
X25998Y324898D01*
X26825Y324345D01*
X27300Y324251D01*
Y326200D01*
D02*
G37*
G36*
X54200D02*
X52250D01*
X52345Y325725D01*
X52898Y324898D01*
X53725Y324345D01*
X54200Y324251D01*
Y326200D01*
D02*
G37*
G36*
X247600Y327500D02*
X245651D01*
X245745Y327025D01*
X246298Y326198D01*
X247125Y325645D01*
X247600Y325551D01*
Y327500D01*
D02*
G37*
G36*
X90549D02*
X88600D01*
Y325551D01*
X89075Y325645D01*
X89902Y326198D01*
X90455Y327025D01*
X90549Y327500D01*
D02*
G37*
G36*
X266400D02*
X264451D01*
X264545Y327025D01*
X265098Y326198D01*
X265925Y325645D01*
X266400Y325551D01*
Y327500D01*
D02*
G37*
G36*
X250550D02*
X248600D01*
Y325551D01*
X249076Y325645D01*
X249902Y326198D01*
X250455Y327025D01*
X250550Y327500D01*
D02*
G37*
G36*
X68800D02*
X66851D01*
X66945Y327025D01*
X67498Y326198D01*
X68325Y325645D01*
X68800Y325551D01*
Y327500D01*
D02*
G37*
G36*
X57149Y326200D02*
X55200D01*
Y324251D01*
X55676Y324345D01*
X56502Y324898D01*
X57055Y325725D01*
X57149Y326200D01*
D02*
G37*
G36*
X87600Y327500D02*
X85650D01*
X85745Y327025D01*
X86298Y326198D01*
X87125Y325645D01*
X87600Y325551D01*
Y327500D01*
D02*
G37*
G36*
X71750D02*
X69800D01*
Y325551D01*
X70275Y325645D01*
X71102Y326198D01*
X71655Y327025D01*
X71750Y327500D01*
D02*
G37*
G36*
X12750Y326200D02*
X10800D01*
Y324251D01*
X11276Y324345D01*
X12102Y324898D01*
X12655Y325725D01*
X12750Y326200D01*
D02*
G37*
G36*
X219600Y320550D02*
Y318600D01*
X221550D01*
X221455Y319075D01*
X220902Y319902D01*
X220075Y320455D01*
X219600Y320550D01*
D02*
G37*
G36*
X218600D02*
X218125Y320455D01*
X217298Y319902D01*
X216745Y319075D01*
X216651Y318600D01*
X218600D01*
Y320550D01*
D02*
G37*
G36*
X15600Y323449D02*
Y321500D01*
X17549D01*
X17455Y321975D01*
X16902Y322802D01*
X16075Y323355D01*
X15600Y323449D01*
D02*
G37*
G36*
X14600D02*
X14125Y323355D01*
X13298Y322802D01*
X12745Y321975D01*
X12651Y321500D01*
X14600D01*
Y323449D01*
D02*
G37*
G36*
X34949Y320500D02*
X33000D01*
Y318550D01*
X33476Y318645D01*
X34302Y319198D01*
X34855Y320025D01*
X34949Y320500D01*
D02*
G37*
G36*
X32000D02*
X30051D01*
X30145Y320025D01*
X30698Y319198D01*
X31525Y318645D01*
X32000Y318550D01*
Y320500D01*
D02*
G37*
G36*
X43049D02*
X41100D01*
Y318550D01*
X41576Y318645D01*
X42402Y319198D01*
X42955Y320025D01*
X43049Y320500D01*
D02*
G37*
G36*
X40100D02*
X38151D01*
X38245Y320025D01*
X38798Y319198D01*
X39625Y318645D01*
X40100Y318550D01*
Y320500D01*
D02*
G37*
G36*
X22600Y323449D02*
X22125Y323355D01*
X21298Y322802D01*
X20745Y321975D01*
X20651Y321500D01*
X22600D01*
Y323449D01*
D02*
G37*
G36*
X400Y326200D02*
X-1550D01*
X-1455Y325725D01*
X-902Y324898D01*
X-75Y324345D01*
X400Y324251D01*
Y326200D01*
D02*
G37*
G36*
X41100Y323449D02*
Y321500D01*
X43049D01*
X42955Y321975D01*
X42402Y322802D01*
X41576Y323355D01*
X41100Y323449D01*
D02*
G37*
G36*
X9800Y326200D02*
X7851D01*
X7945Y325725D01*
X8498Y324898D01*
X9325Y324345D01*
X9800Y324251D01*
Y326200D01*
D02*
G37*
G36*
X3350D02*
X1400D01*
Y324251D01*
X1876Y324345D01*
X2702Y324898D01*
X3255Y325725D01*
X3350Y326200D01*
D02*
G37*
G36*
X32000Y323449D02*
X31525Y323355D01*
X30698Y322802D01*
X30145Y321975D01*
X30051Y321500D01*
X32000D01*
Y323449D01*
D02*
G37*
G36*
X23600D02*
Y321500D01*
X25550D01*
X25455Y321975D01*
X24902Y322802D01*
X24076Y323355D01*
X23600Y323449D01*
D02*
G37*
G36*
X40100D02*
X39625Y323355D01*
X38798Y322802D01*
X38245Y321975D01*
X38151Y321500D01*
X40100D01*
Y323449D01*
D02*
G37*
G36*
X33000D02*
Y321500D01*
X34949D01*
X34855Y321975D01*
X34302Y322802D01*
X33476Y323355D01*
X33000Y323449D01*
D02*
G37*
G36*
X45800Y329150D02*
Y327200D01*
X47750D01*
X47655Y327676D01*
X47102Y328502D01*
X46275Y329055D01*
X45800Y329150D01*
D02*
G37*
G36*
X44800D02*
X44325Y329055D01*
X43498Y328502D01*
X42945Y327676D01*
X42851Y327200D01*
X44800D01*
Y329150D01*
D02*
G37*
G36*
X55200D02*
Y327200D01*
X57149D01*
X57055Y327676D01*
X56502Y328502D01*
X55676Y329055D01*
X55200Y329150D01*
D02*
G37*
G36*
X54200D02*
X53725Y329055D01*
X52898Y328502D01*
X52345Y327676D01*
X52250Y327200D01*
X54200D01*
Y329150D01*
D02*
G37*
G36*
X26545Y335700D02*
X12570D01*
Y330294D01*
X12887Y329529D01*
X13652Y329212D01*
X18060D01*
X18211Y328712D01*
X17898Y328502D01*
X17345Y327676D01*
X17251Y327200D01*
X22150D01*
X22055Y327676D01*
X21502Y328502D01*
X21189Y328712D01*
X21340Y329212D01*
X25463D01*
X26228Y329529D01*
X26545Y330294D01*
Y335700D01*
D02*
G37*
G36*
X10800Y329150D02*
Y327200D01*
X12750D01*
X12655Y327676D01*
X12102Y328502D01*
X11276Y329055D01*
X10800Y329150D01*
D02*
G37*
G36*
X28300D02*
Y327200D01*
X30250D01*
X30155Y327676D01*
X29602Y328502D01*
X28776Y329055D01*
X28300Y329150D01*
D02*
G37*
G36*
X27300D02*
X26825Y329055D01*
X25998Y328502D01*
X25445Y327676D01*
X25350Y327200D01*
X27300D01*
Y329150D01*
D02*
G37*
G36*
X68800Y330450D02*
X68325Y330355D01*
X67498Y329802D01*
X66945Y328976D01*
X66851Y328500D01*
X68800D01*
Y330450D01*
D02*
G37*
G36*
X133000Y330949D02*
X132525Y330855D01*
X131698Y330302D01*
X131145Y329475D01*
X131051Y329000D01*
X133000D01*
Y330949D01*
D02*
G37*
G36*
X248600Y330450D02*
Y328500D01*
X250550D01*
X250455Y328976D01*
X249902Y329802D01*
X249076Y330355D01*
X248600Y330450D01*
D02*
G37*
G36*
X151800Y330949D02*
X151325Y330855D01*
X150498Y330302D01*
X149945Y329475D01*
X149850Y329000D01*
X151800D01*
Y330949D01*
D02*
G37*
G36*
X134000D02*
Y329000D01*
X135950D01*
X135855Y329475D01*
X135302Y330302D01*
X134476Y330855D01*
X134000Y330949D01*
D02*
G37*
G36*
X87600Y330450D02*
X87125Y330355D01*
X86298Y329802D01*
X85745Y328976D01*
X85650Y328500D01*
X87600D01*
Y330450D01*
D02*
G37*
G36*
X69800D02*
Y328500D01*
X71750D01*
X71655Y328976D01*
X71102Y329802D01*
X70275Y330355D01*
X69800Y330450D01*
D02*
G37*
G36*
X247600D02*
X247125Y330355D01*
X246298Y329802D01*
X245745Y328976D01*
X245651Y328500D01*
X247600D01*
Y330450D01*
D02*
G37*
G36*
X88600D02*
Y328500D01*
X90549D01*
X90455Y328976D01*
X89902Y329802D01*
X89075Y330355D01*
X88600Y330450D01*
D02*
G37*
G36*
X9800Y329150D02*
X9325Y329055D01*
X8498Y328502D01*
X7945Y327676D01*
X7851Y327200D01*
X9800D01*
Y329150D01*
D02*
G37*
G36*
X151800Y328000D02*
X149850D01*
X149945Y327525D01*
X150498Y326698D01*
X151325Y326145D01*
X151800Y326050D01*
Y328000D01*
D02*
G37*
G36*
X135950D02*
X134000D01*
Y326050D01*
X134476Y326145D01*
X135302Y326698D01*
X135855Y327525D01*
X135950Y328000D01*
D02*
G37*
G36*
X170600D02*
X168650D01*
X168745Y327525D01*
X169298Y326698D01*
X170125Y326145D01*
X170600Y326050D01*
Y328000D01*
D02*
G37*
G36*
X154750D02*
X152800D01*
Y326050D01*
X153276Y326145D01*
X154102Y326698D01*
X154655Y327525D01*
X154750Y328000D01*
D02*
G37*
G36*
X229200Y334255D02*
X227383Y334016D01*
X225225Y333121D01*
X223371Y331699D01*
X221949Y329845D01*
X221054Y327687D01*
X220815Y325870D01*
X229200D01*
Y334255D01*
D02*
G37*
G36*
X269350Y327500D02*
X267400D01*
Y325551D01*
X267876Y325645D01*
X268702Y326198D01*
X269255Y327025D01*
X269350Y327500D01*
D02*
G37*
G36*
X133000Y328000D02*
X131051D01*
X131145Y327525D01*
X131698Y326698D01*
X132525Y326145D01*
X133000Y326050D01*
Y328000D01*
D02*
G37*
G36*
X230200Y334255D02*
Y325870D01*
X238585D01*
X238346Y327687D01*
X237451Y329845D01*
X236029Y331699D01*
X234175Y333121D01*
X232017Y334016D01*
X230200Y334255D01*
D02*
G37*
G36*
X173549Y328000D02*
X171600D01*
Y326050D01*
X172075Y326145D01*
X172902Y326698D01*
X173455Y327525D01*
X173549Y328000D01*
D02*
G37*
G36*
X109200Y334455D02*
Y326070D01*
X117585D01*
X117346Y327887D01*
X116451Y330045D01*
X115029Y331899D01*
X113175Y333321D01*
X111017Y334216D01*
X109200Y334455D01*
D02*
G37*
G36*
X108200Y334455D02*
X106383Y334216D01*
X104225Y333321D01*
X102371Y331899D01*
X100949Y330045D01*
X100054Y327887D01*
X99815Y326070D01*
X108200D01*
Y334455D01*
D02*
G37*
G36*
X1400Y329150D02*
Y327200D01*
X3350D01*
X3255Y327676D01*
X2702Y328502D01*
X1876Y329055D01*
X1400Y329150D01*
D02*
G37*
G36*
X400D02*
X-75Y329055D01*
X-902Y328502D01*
X-1455Y327676D01*
X-1550Y327200D01*
X400D01*
Y329150D01*
D02*
G37*
G36*
X192350Y328000D02*
X190400D01*
Y326050D01*
X190875Y326145D01*
X191702Y326698D01*
X192255Y327525D01*
X192350Y328000D01*
D02*
G37*
G36*
X189400D02*
X187451D01*
X187545Y327525D01*
X188098Y326698D01*
X188925Y326145D01*
X189400Y326050D01*
Y328000D01*
D02*
G37*
G36*
X211150D02*
X209200D01*
Y326050D01*
X209676Y326145D01*
X210502Y326698D01*
X211055Y327525D01*
X211150Y328000D01*
D02*
G37*
G36*
X208200D02*
X206251D01*
X206345Y327525D01*
X206898Y326698D01*
X207725Y326145D01*
X208200Y326050D01*
Y328000D01*
D02*
G37*
G36*
X170745Y234195D02*
X170270Y234101D01*
X169443Y233548D01*
X168890Y232721D01*
X168796Y232245D01*
X170745D01*
Y234195D01*
D02*
G37*
G36*
X109249Y233400D02*
X107300D01*
Y231451D01*
X107775Y231545D01*
X108602Y232098D01*
X109155Y232925D01*
X109249Y233400D01*
D02*
G37*
G36*
X121529Y241953D02*
X117403D01*
Y235366D01*
X117720Y234601D01*
X118486Y234284D01*
X121529D01*
Y241953D01*
D02*
G37*
G36*
X171745Y234195D02*
Y232245D01*
X173695D01*
X173600Y232721D01*
X173047Y233548D01*
X172221Y234101D01*
X171745Y234195D01*
D02*
G37*
G36*
X88700Y233400D02*
X86751D01*
X86845Y232925D01*
X87398Y232098D01*
X88225Y231545D01*
X88700Y231451D01*
Y233400D01*
D02*
G37*
G36*
X106300D02*
X104350D01*
X104445Y232925D01*
X104998Y232098D01*
X105825Y231545D01*
X106300Y231451D01*
Y233400D01*
D02*
G37*
G36*
X91650D02*
X89700D01*
Y231451D01*
X90175Y231545D01*
X91002Y232098D01*
X91555Y232925D01*
X91650Y233400D01*
D02*
G37*
G36*
X82950Y238100D02*
X81000D01*
Y236151D01*
X81476Y236245D01*
X82302Y236798D01*
X82855Y237625D01*
X82950Y238100D01*
D02*
G37*
G36*
X80000D02*
X78051D01*
X78145Y237625D01*
X78698Y236798D01*
X79525Y236245D01*
X80000Y236151D01*
Y238100D01*
D02*
G37*
G36*
X89700Y236350D02*
Y234400D01*
X91650D01*
X91555Y234875D01*
X91002Y235702D01*
X90175Y236255D01*
X89700Y236350D01*
D02*
G37*
G36*
X88700D02*
X88225Y236255D01*
X87398Y235702D01*
X86845Y234875D01*
X86751Y234400D01*
X88700D01*
Y236350D01*
D02*
G37*
G36*
X107300D02*
Y234400D01*
X109249D01*
X109155Y234875D01*
X108602Y235702D01*
X107775Y236255D01*
X107300Y236350D01*
D02*
G37*
G36*
X106300D02*
X105825Y236255D01*
X104998Y235702D01*
X104445Y234875D01*
X104350Y234400D01*
X106300D01*
Y236350D01*
D02*
G37*
G36*
X100349Y228700D02*
X98400D01*
Y226750D01*
X98875Y226845D01*
X99702Y227398D01*
X100255Y228225D01*
X100349Y228700D01*
D02*
G37*
G36*
X97400D02*
X95451D01*
X95545Y228225D01*
X96098Y227398D01*
X96925Y226845D01*
X97400Y226750D01*
Y228700D01*
D02*
G37*
G36*
X117949D02*
X113050D01*
X113145Y228225D01*
X113326Y227953D01*
X113062Y227529D01*
X112995Y227538D01*
X105121D01*
X103318Y227300D01*
X101638Y226604D01*
X100195Y225498D01*
X99089Y224055D01*
X98393Y222375D01*
X98155Y220572D01*
X98393Y218770D01*
X99089Y217090D01*
X100195Y215647D01*
X101638Y214541D01*
X103318Y213845D01*
X105121Y213607D01*
X112995D01*
X114797Y213845D01*
X116477Y214541D01*
X117920Y215647D01*
X119026Y217090D01*
X119722Y218770D01*
X119960Y220572D01*
X119722Y222375D01*
X119026Y224055D01*
X117920Y225498D01*
X116715Y226422D01*
X116730Y227015D01*
X117302Y227398D01*
X117855Y228225D01*
X117949Y228700D01*
D02*
G37*
G36*
X86100Y225449D02*
Y223500D01*
X88050D01*
X87955Y223975D01*
X87402Y224802D01*
X86576Y225355D01*
X86100Y225449D01*
D02*
G37*
G36*
X85100D02*
X84625Y225355D01*
X83798Y224802D01*
X83245Y223975D01*
X83151Y223500D01*
X85100D01*
Y225449D01*
D02*
G37*
G36*
X82950Y228700D02*
X81000D01*
Y226750D01*
X81476Y226845D01*
X82302Y227398D01*
X82855Y228225D01*
X82950Y228700D01*
D02*
G37*
G36*
X80000D02*
X78051D01*
X78145Y228225D01*
X78698Y227398D01*
X79525Y226845D01*
X80000Y226750D01*
Y228700D01*
D02*
G37*
G36*
X98400Y231649D02*
Y229700D01*
X100349D01*
X100255Y230175D01*
X99702Y231002D01*
X98875Y231555D01*
X98400Y231649D01*
D02*
G37*
G36*
X97400D02*
X96925Y231555D01*
X96098Y231002D01*
X95545Y230175D01*
X95451Y229700D01*
X97400D01*
Y231649D01*
D02*
G37*
G36*
X116000D02*
Y229700D01*
X117949D01*
X117855Y230175D01*
X117302Y231002D01*
X116475Y231555D01*
X116000Y231649D01*
D02*
G37*
G36*
X115000D02*
X114525Y231555D01*
X113698Y231002D01*
X113145Y230175D01*
X113050Y229700D01*
X115000D01*
Y231649D01*
D02*
G37*
G36*
X173695Y231245D02*
X171745D01*
Y229296D01*
X172221Y229391D01*
X173047Y229943D01*
X173600Y230770D01*
X173695Y231245D01*
D02*
G37*
G36*
X170745D02*
X168796D01*
X168890Y230770D01*
X169443Y229943D01*
X170270Y229391D01*
X170745Y229296D01*
Y231245D01*
D02*
G37*
G36*
X81000Y231649D02*
Y229700D01*
X82950D01*
X82855Y230175D01*
X82302Y231002D01*
X81476Y231555D01*
X81000Y231649D01*
D02*
G37*
G36*
X80000D02*
X79525Y231555D01*
X78698Y231002D01*
X78145Y230175D01*
X78051Y229700D01*
X80000D01*
Y231649D01*
D02*
G37*
G36*
X121529Y250622D02*
X118486D01*
X117720Y250305D01*
X117403Y249539D01*
Y242953D01*
X121529D01*
Y250622D01*
D02*
G37*
G36*
X89700Y245749D02*
Y243800D01*
X91650D01*
X91555Y244275D01*
X91002Y245102D01*
X90175Y245655D01*
X89700Y245749D01*
D02*
G37*
G36*
X88700D02*
X88225Y245655D01*
X87398Y245102D01*
X86845Y244275D01*
X86751Y243800D01*
X88700D01*
Y245749D01*
D02*
G37*
G36*
X228550Y244600D02*
X226600D01*
Y242651D01*
X227076Y242745D01*
X227902Y243298D01*
X228455Y244125D01*
X228550Y244600D01*
D02*
G37*
G36*
X225600D02*
X223651D01*
X223745Y244125D01*
X224298Y243298D01*
X225125Y242745D01*
X225600Y242651D01*
Y244600D01*
D02*
G37*
G36*
X247350D02*
X245400D01*
Y242651D01*
X245876Y242745D01*
X246702Y243298D01*
X247255Y244125D01*
X247350Y244600D01*
D02*
G37*
G36*
X244400D02*
X242450D01*
X242545Y244125D01*
X243098Y243298D01*
X243925Y242745D01*
X244400Y242651D01*
Y244600D01*
D02*
G37*
G36*
X106300Y245749D02*
X105825Y245655D01*
X104998Y245102D01*
X104445Y244275D01*
X104350Y243800D01*
X106300D01*
Y245749D01*
D02*
G37*
G36*
X206800Y247550D02*
X206325Y247455D01*
X205498Y246902D01*
X204945Y246076D01*
X204851Y245600D01*
X206800D01*
Y247550D01*
D02*
G37*
G36*
X100349Y247500D02*
X98400D01*
Y245550D01*
X98875Y245645D01*
X99702Y246198D01*
X100255Y247025D01*
X100349Y247500D01*
D02*
G37*
G36*
X225600Y247550D02*
X225125Y247455D01*
X224298Y246902D01*
X223745Y246076D01*
X223651Y245600D01*
X225600D01*
Y247550D01*
D02*
G37*
G36*
X207800D02*
Y245600D01*
X209750D01*
X209655Y246076D01*
X209102Y246902D01*
X208276Y247455D01*
X207800Y247550D01*
D02*
G37*
G36*
X80000Y247500D02*
X78051D01*
X78145Y247025D01*
X78698Y246198D01*
X79525Y245645D01*
X80000Y245550D01*
Y247500D01*
D02*
G37*
G36*
X107300Y245749D02*
Y243800D01*
X109249D01*
X109155Y244275D01*
X108602Y245102D01*
X107775Y245655D01*
X107300Y245749D01*
D02*
G37*
G36*
X97400Y247500D02*
X95451D01*
X95545Y247025D01*
X96098Y246198D01*
X96925Y245645D01*
X97400Y245550D01*
Y247500D01*
D02*
G37*
G36*
X82950D02*
X81000D01*
Y245550D01*
X81476Y245645D01*
X82302Y246198D01*
X82855Y247025D01*
X82950Y247500D01*
D02*
G37*
G36*
X209750Y244600D02*
X207800D01*
Y242651D01*
X208276Y242745D01*
X209102Y243298D01*
X209655Y244125D01*
X209750Y244600D01*
D02*
G37*
G36*
X81000Y241050D02*
Y239100D01*
X82950D01*
X82855Y239576D01*
X82302Y240402D01*
X81476Y240955D01*
X81000Y241050D01*
D02*
G37*
G36*
X80000D02*
X79525Y240955D01*
X78698Y240402D01*
X78145Y239576D01*
X78051Y239100D01*
X80000D01*
Y241050D01*
D02*
G37*
G36*
X100349Y238100D02*
X98400D01*
Y236151D01*
X98875Y236245D01*
X99702Y236798D01*
X100255Y237625D01*
X100349Y238100D01*
D02*
G37*
G36*
X97400D02*
X95451D01*
X95545Y237625D01*
X96098Y236798D01*
X96925Y236245D01*
X97400Y236151D01*
Y238100D01*
D02*
G37*
G36*
X186195Y238445D02*
X184245D01*
Y236496D01*
X184721Y236591D01*
X185547Y237143D01*
X186100Y237970D01*
X186195Y238445D01*
D02*
G37*
G36*
X183245D02*
X181296D01*
X181390Y237970D01*
X181943Y237143D01*
X182770Y236591D01*
X183245Y236496D01*
Y238445D01*
D02*
G37*
G36*
X97400Y241050D02*
X96925Y240955D01*
X96098Y240402D01*
X95545Y239576D01*
X95451Y239100D01*
X97400D01*
Y241050D01*
D02*
G37*
G36*
X106300Y242800D02*
X104350D01*
X104445Y242325D01*
X104998Y241498D01*
X105825Y240945D01*
X106300Y240850D01*
Y242800D01*
D02*
G37*
G36*
X91650D02*
X89700D01*
Y240850D01*
X90175Y240945D01*
X91002Y241498D01*
X91555Y242325D01*
X91650Y242800D01*
D02*
G37*
G36*
X206800Y244600D02*
X204851D01*
X204945Y244125D01*
X205498Y243298D01*
X206325Y242745D01*
X206800Y242651D01*
Y244600D01*
D02*
G37*
G36*
X109249Y242800D02*
X107300D01*
Y240850D01*
X107775Y240945D01*
X108602Y241498D01*
X109155Y242325D01*
X109249Y242800D01*
D02*
G37*
G36*
X183245Y241395D02*
X182770Y241301D01*
X181943Y240748D01*
X181390Y239921D01*
X181296Y239445D01*
X183245D01*
Y241395D01*
D02*
G37*
G36*
X98400Y241050D02*
Y239100D01*
X100349D01*
X100255Y239576D01*
X99702Y240402D01*
X98875Y240955D01*
X98400Y241050D01*
D02*
G37*
G36*
X88700Y242800D02*
X86751D01*
X86845Y242325D01*
X87398Y241498D01*
X88225Y240945D01*
X88700Y240850D01*
Y242800D01*
D02*
G37*
G36*
X184245Y241395D02*
Y239445D01*
X186195D01*
X186100Y239921D01*
X185547Y240748D01*
X184721Y241301D01*
X184245Y241395D01*
D02*
G37*
G36*
X173695Y196446D02*
X171745D01*
Y194496D01*
X172221Y194591D01*
X173047Y195143D01*
X173600Y195970D01*
X173695Y196446D01*
D02*
G37*
G36*
X170745D02*
X168796D01*
X168890Y195970D01*
X169443Y195143D01*
X170270Y194591D01*
X170745Y194496D01*
Y196446D01*
D02*
G37*
G36*
X184245Y189195D02*
Y187246D01*
X186195D01*
X186100Y187721D01*
X185547Y188548D01*
X184721Y189101D01*
X184245Y189195D01*
D02*
G37*
G36*
X183245D02*
X182770Y189101D01*
X181943Y188548D01*
X181390Y187721D01*
X181296Y187246D01*
X183245D01*
Y189195D01*
D02*
G37*
G36*
Y203645D02*
X181296D01*
X181390Y203170D01*
X181943Y202343D01*
X182770Y201791D01*
X183245Y201696D01*
Y203645D01*
D02*
G37*
G36*
X108557Y208915D02*
X105121D01*
X103318Y208678D01*
X101638Y207982D01*
X100195Y206875D01*
X99089Y205433D01*
X98393Y203753D01*
X98221Y202450D01*
X108557D01*
Y208915D01*
D02*
G37*
G36*
X186195Y203645D02*
X184245D01*
Y201696D01*
X184721Y201791D01*
X185547Y202343D01*
X186100Y203170D01*
X186195Y203645D01*
D02*
G37*
G36*
X170745Y199395D02*
X170270Y199301D01*
X169443Y198748D01*
X168890Y197921D01*
X168796Y197445D01*
X170745D01*
Y199395D01*
D02*
G37*
G36*
X171745D02*
Y197445D01*
X173695D01*
X173600Y197921D01*
X173047Y198748D01*
X172221Y199301D01*
X171745Y199395D01*
D02*
G37*
G36*
X186195Y186246D02*
X184245D01*
Y184296D01*
X184721Y184391D01*
X185547Y184943D01*
X186100Y185770D01*
X186195Y186246D01*
D02*
G37*
G36*
X184245Y171795D02*
Y169845D01*
X186195D01*
X186100Y170321D01*
X185547Y171148D01*
X184721Y171701D01*
X184245Y171795D01*
D02*
G37*
G36*
X183245D02*
X182770Y171701D01*
X181943Y171148D01*
X181390Y170321D01*
X181296Y169845D01*
X183245D01*
Y171795D01*
D02*
G37*
G36*
X186195Y168845D02*
X184245D01*
Y166896D01*
X184721Y166991D01*
X185547Y167543D01*
X186100Y168370D01*
X186195Y168845D01*
D02*
G37*
G36*
X183245D02*
X181296D01*
X181390Y168370D01*
X181943Y167543D01*
X182770Y166991D01*
X183245Y166896D01*
Y168845D01*
D02*
G37*
G36*
X170745Y179045D02*
X168796D01*
X168890Y178570D01*
X169443Y177743D01*
X170270Y177191D01*
X170745Y177096D01*
Y179045D01*
D02*
G37*
G36*
X171745Y181995D02*
Y180045D01*
X173695D01*
X173600Y180521D01*
X173047Y181348D01*
X172221Y181901D01*
X171745Y181995D01*
D02*
G37*
G36*
X183245Y186246D02*
X181296D01*
X181390Y185770D01*
X181943Y184943D01*
X182770Y184391D01*
X183245Y184296D01*
Y186246D01*
D02*
G37*
G36*
X173695Y179045D02*
X171745D01*
Y177096D01*
X172221Y177191D01*
X173047Y177743D01*
X173600Y178570D01*
X173695Y179045D01*
D02*
G37*
G36*
X170745Y181995D02*
X170270Y181901D01*
X169443Y181348D01*
X168890Y180521D01*
X168796Y180045D01*
X170745D01*
Y181995D01*
D02*
G37*
G36*
X96750Y217800D02*
X94800D01*
Y215850D01*
X95275Y215945D01*
X96102Y216498D01*
X96655Y217325D01*
X96750Y217800D01*
D02*
G37*
G36*
X93800Y220749D02*
X93325Y220655D01*
X92498Y220102D01*
X91945Y219275D01*
X91851Y218800D01*
X93800D01*
Y220749D01*
D02*
G37*
G36*
X170745Y216795D02*
X170270Y216701D01*
X169443Y216148D01*
X168890Y215321D01*
X168796Y214845D01*
X170745D01*
Y216795D01*
D02*
G37*
G36*
X86100Y216050D02*
Y214100D01*
X88050D01*
X87955Y214576D01*
X87402Y215402D01*
X86576Y215955D01*
X86100Y216050D01*
D02*
G37*
G36*
X93800Y217800D02*
X91851D01*
X91945Y217325D01*
X92498Y216498D01*
X93325Y215945D01*
X93800Y215850D01*
Y217800D01*
D02*
G37*
G36*
X171745Y216795D02*
Y214845D01*
X173695D01*
X173600Y215321D01*
X173047Y216148D01*
X172221Y216701D01*
X171745Y216795D01*
D02*
G37*
G36*
X94800Y220749D02*
Y218800D01*
X96750D01*
X96655Y219275D01*
X96102Y220102D01*
X95275Y220655D01*
X94800Y220749D01*
D02*
G37*
G36*
X88050Y222500D02*
X86100D01*
Y220550D01*
X86576Y220645D01*
X87402Y221198D01*
X87955Y222025D01*
X88050Y222500D01*
D02*
G37*
G36*
X85100D02*
X83151D01*
X83245Y222025D01*
X83798Y221198D01*
X84625Y220645D01*
X85100Y220550D01*
Y222500D01*
D02*
G37*
G36*
X184245Y223995D02*
Y222045D01*
X186195D01*
X186100Y222521D01*
X185547Y223348D01*
X184721Y223901D01*
X184245Y223995D01*
D02*
G37*
G36*
X183245D02*
X182770Y223901D01*
X181943Y223348D01*
X181390Y222521D01*
X181296Y222045D01*
X183245D01*
Y223995D01*
D02*
G37*
G36*
X186195Y221045D02*
X184245D01*
Y219096D01*
X184721Y219191D01*
X185547Y219743D01*
X186100Y220570D01*
X186195Y221045D01*
D02*
G37*
G36*
X183245D02*
X181296D01*
X181390Y220570D01*
X181943Y219743D01*
X182770Y219191D01*
X183245Y219096D01*
Y221045D01*
D02*
G37*
G36*
X85100Y216050D02*
X84625Y215955D01*
X83798Y215402D01*
X83245Y214576D01*
X83151Y214100D01*
X85100D01*
Y216050D01*
D02*
G37*
G36*
X93800Y208400D02*
X91851D01*
X91945Y207925D01*
X92498Y207098D01*
X93325Y206545D01*
X93800Y206451D01*
Y208400D01*
D02*
G37*
G36*
X184245Y206595D02*
Y204645D01*
X186195D01*
X186100Y205121D01*
X185547Y205948D01*
X184721Y206501D01*
X184245Y206595D01*
D02*
G37*
G36*
X93800Y211350D02*
X93325Y211255D01*
X92498Y210702D01*
X91945Y209875D01*
X91851Y209400D01*
X93800D01*
Y211350D01*
D02*
G37*
G36*
X96750Y208400D02*
X94800D01*
Y206451D01*
X95275Y206545D01*
X96102Y207098D01*
X96655Y207925D01*
X96750Y208400D01*
D02*
G37*
G36*
X112995Y208915D02*
X109557D01*
Y202450D01*
X119894D01*
X119722Y203753D01*
X119026Y205433D01*
X117920Y206875D01*
X116477Y207982D01*
X114797Y208678D01*
X112995Y208915D01*
D02*
G37*
G36*
X183245Y206595D02*
X182770Y206501D01*
X181943Y205948D01*
X181390Y205121D01*
X181296Y204645D01*
X183245D01*
Y206595D01*
D02*
G37*
G36*
X94800Y211350D02*
Y209400D01*
X96750D01*
X96655Y209875D01*
X96102Y210702D01*
X95275Y211255D01*
X94800Y211350D01*
D02*
G37*
G36*
X173695Y213845D02*
X171745D01*
Y211896D01*
X172221Y211991D01*
X173047Y212543D01*
X173600Y213370D01*
X173695Y213845D01*
D02*
G37*
G36*
X170745D02*
X168796D01*
X168890Y213370D01*
X169443Y212543D01*
X170270Y211991D01*
X170745Y211896D01*
Y213845D01*
D02*
G37*
G36*
X88050Y213100D02*
X86100D01*
Y211151D01*
X86576Y211245D01*
X87402Y211798D01*
X87955Y212625D01*
X88050Y213100D01*
D02*
G37*
G36*
X85100D02*
X83151D01*
X83245Y212625D01*
X83798Y211798D01*
X84625Y211245D01*
X85100Y211151D01*
Y213100D01*
D02*
G37*
G36*
X53800Y275749D02*
X53325Y275655D01*
X52498Y275102D01*
X51945Y274275D01*
X51850Y273800D01*
X53800D01*
Y275749D01*
D02*
G37*
G36*
X71200Y272800D02*
X69251D01*
X69345Y272325D01*
X69898Y271498D01*
X70725Y270945D01*
X71200Y270850D01*
Y272800D01*
D02*
G37*
G36*
X56749D02*
X54800D01*
Y270850D01*
X55275Y270945D01*
X56102Y271498D01*
X56655Y272325D01*
X56749Y272800D01*
D02*
G37*
G36*
X74150D02*
X72200D01*
Y270850D01*
X72676Y270945D01*
X73502Y271498D01*
X74055Y272325D01*
X74150Y272800D01*
D02*
G37*
G36*
X54800Y275749D02*
Y273800D01*
X56749D01*
X56655Y274275D01*
X56102Y275102D01*
X55275Y275655D01*
X54800Y275749D01*
D02*
G37*
G36*
X65450Y277500D02*
X63500D01*
Y275551D01*
X63976Y275645D01*
X64802Y276198D01*
X65355Y277025D01*
X65450Y277500D01*
D02*
G37*
G36*
X62500D02*
X60550D01*
X60645Y277025D01*
X61198Y276198D01*
X62025Y275645D01*
X62500Y275551D01*
Y277500D01*
D02*
G37*
G36*
X72200Y275749D02*
Y273800D01*
X74150D01*
X74055Y274275D01*
X73502Y275102D01*
X72676Y275655D01*
X72200Y275749D01*
D02*
G37*
G36*
X71200D02*
X70725Y275655D01*
X69898Y275102D01*
X69345Y274275D01*
X69251Y273800D01*
X71200D01*
Y275749D01*
D02*
G37*
G36*
X265549Y276300D02*
X263600D01*
Y274351D01*
X264075Y274445D01*
X264902Y274998D01*
X265455Y275825D01*
X265549Y276300D01*
D02*
G37*
G36*
X262600D02*
X260650D01*
X260745Y275825D01*
X261298Y274998D01*
X262125Y274445D01*
X262600Y274351D01*
Y276300D01*
D02*
G37*
G36*
X53800Y272800D02*
X51850D01*
X51945Y272325D01*
X52498Y271498D01*
X53325Y270945D01*
X53800Y270850D01*
Y272800D01*
D02*
G37*
G36*
X62500Y268100D02*
X60550D01*
X60645Y267625D01*
X61198Y266798D01*
X62025Y266245D01*
X62500Y266150D01*
Y268100D01*
D02*
G37*
G36*
X275950Y267900D02*
X274000D01*
Y265950D01*
X274476Y266045D01*
X275302Y266598D01*
X275855Y267425D01*
X275950Y267900D01*
D02*
G37*
G36*
X79900Y268100D02*
X77951D01*
X78045Y267625D01*
X78598Y266798D01*
X79425Y266245D01*
X79900Y266150D01*
Y268100D01*
D02*
G37*
G36*
X65450D02*
X63500D01*
Y266150D01*
X63976Y266245D01*
X64802Y266798D01*
X65355Y267625D01*
X65450Y268100D01*
D02*
G37*
G36*
X89600Y266350D02*
Y264400D01*
X91549D01*
X91455Y264876D01*
X90902Y265702D01*
X90075Y266255D01*
X89600Y266350D01*
D02*
G37*
G36*
X273000Y267900D02*
X271051D01*
X271145Y267425D01*
X271698Y266598D01*
X272525Y266045D01*
X273000Y265950D01*
Y267900D01*
D02*
G37*
G36*
X82850Y268100D02*
X80900D01*
Y266150D01*
X81375Y266245D01*
X82202Y266798D01*
X82755Y267625D01*
X82850Y268100D01*
D02*
G37*
G36*
X80900Y271049D02*
Y269100D01*
X82850D01*
X82755Y269576D01*
X82202Y270402D01*
X81375Y270955D01*
X80900Y271049D01*
D02*
G37*
G36*
X79900D02*
X79425Y270955D01*
X78598Y270402D01*
X78045Y269576D01*
X77951Y269100D01*
X79900D01*
Y271049D01*
D02*
G37*
G36*
X274000Y270849D02*
Y268900D01*
X275950D01*
X275855Y269375D01*
X275302Y270202D01*
X274476Y270755D01*
X274000Y270849D01*
D02*
G37*
G36*
X273000D02*
X272525Y270755D01*
X271698Y270202D01*
X271145Y269375D01*
X271051Y268900D01*
X273000D01*
Y270849D01*
D02*
G37*
G36*
X63500Y271049D02*
Y269100D01*
X65450D01*
X65355Y269576D01*
X64802Y270402D01*
X63976Y270955D01*
X63500Y271049D01*
D02*
G37*
G36*
X62500D02*
X62025Y270955D01*
X61198Y270402D01*
X60645Y269576D01*
X60550Y269100D01*
X62500D01*
Y271049D01*
D02*
G37*
G36*
X53800Y282200D02*
X51850D01*
X51945Y281725D01*
X52498Y280898D01*
X53325Y280345D01*
X53800Y280251D01*
Y282200D01*
D02*
G37*
G36*
X71200D02*
X69251D01*
X69345Y281725D01*
X69898Y280898D01*
X70725Y280345D01*
X71200Y280251D01*
Y282200D01*
D02*
G37*
G36*
X56749D02*
X54800D01*
Y280251D01*
X55275Y280345D01*
X56102Y280898D01*
X56655Y281725D01*
X56749Y282200D01*
D02*
G37*
G36*
X74150D02*
X72200D01*
Y280251D01*
X72676Y280345D01*
X73502Y280898D01*
X74055Y281725D01*
X74150Y282200D01*
D02*
G37*
G36*
X54800Y285150D02*
Y283200D01*
X56749D01*
X56655Y283676D01*
X56102Y284502D01*
X55275Y285055D01*
X54800Y285150D01*
D02*
G37*
G36*
X53800D02*
X53325Y285055D01*
X52498Y284502D01*
X51945Y283676D01*
X51850Y283200D01*
X53800D01*
Y285150D01*
D02*
G37*
G36*
X72200D02*
Y283200D01*
X74150D01*
X74055Y283676D01*
X73502Y284502D01*
X72676Y285055D01*
X72200Y285150D01*
D02*
G37*
G36*
X71200D02*
X70725Y285055D01*
X69898Y284502D01*
X69345Y283676D01*
X69251Y283200D01*
X71200D01*
Y285150D01*
D02*
G37*
G36*
X-9912Y288610D02*
X-16400D01*
Y282122D01*
X-10994D01*
X-10229Y282439D01*
X-9912Y283205D01*
Y288610D01*
D02*
G37*
G36*
X-17400D02*
X-23888D01*
Y283205D01*
X-23571Y282439D01*
X-22806Y282122D01*
X-17400D01*
Y288610D01*
D02*
G37*
G36*
X82850Y277500D02*
X80900D01*
Y275551D01*
X81375Y275645D01*
X82202Y276198D01*
X82755Y277025D01*
X82850Y277500D01*
D02*
G37*
G36*
X79900D02*
X77951D01*
X78045Y277025D01*
X78598Y276198D01*
X79425Y275645D01*
X79900Y275551D01*
Y277500D01*
D02*
G37*
G36*
X63500Y280450D02*
Y278500D01*
X65450D01*
X65355Y278976D01*
X64802Y279802D01*
X63976Y280355D01*
X63500Y280450D01*
D02*
G37*
G36*
X62500D02*
X62025Y280355D01*
X61198Y279802D01*
X60645Y278976D01*
X60550Y278500D01*
X62500D01*
Y280450D01*
D02*
G37*
G36*
X80900D02*
Y278500D01*
X82850D01*
X82755Y278976D01*
X82202Y279802D01*
X81375Y280355D01*
X80900Y280450D01*
D02*
G37*
G36*
X79900D02*
X79425Y280355D01*
X78598Y279802D01*
X78045Y278976D01*
X77951Y278500D01*
X79900D01*
Y280450D01*
D02*
G37*
G36*
X263600Y279250D02*
Y277300D01*
X265549D01*
X265455Y277776D01*
X264902Y278602D01*
X264075Y279155D01*
X263600Y279250D01*
D02*
G37*
G36*
X262600D02*
X262125Y279155D01*
X261298Y278602D01*
X260745Y277776D01*
X260650Y277300D01*
X262600D01*
Y279250D01*
D02*
G37*
G36*
X215200Y255000D02*
X213250D01*
X213345Y254525D01*
X213898Y253698D01*
X214725Y253145D01*
X215200Y253050D01*
Y255000D01*
D02*
G37*
G36*
X199349D02*
X197400D01*
Y253050D01*
X197875Y253145D01*
X198702Y253698D01*
X199255Y254525D01*
X199349Y255000D01*
D02*
G37*
G36*
X234000D02*
X232050D01*
X232145Y254525D01*
X232698Y253698D01*
X233525Y253145D01*
X234000Y253050D01*
Y255000D01*
D02*
G37*
G36*
X218149D02*
X216200D01*
Y253050D01*
X216675Y253145D01*
X217502Y253698D01*
X218055Y254525D01*
X218149Y255000D01*
D02*
G37*
G36*
X182600D02*
X180650D01*
X180745Y254525D01*
X181298Y253698D01*
X182125Y253145D01*
X182600Y253050D01*
Y255000D01*
D02*
G37*
G36*
X196400D02*
X194450D01*
X194545Y254525D01*
X195098Y253698D01*
X195925Y253145D01*
X196400Y253050D01*
Y255000D01*
D02*
G37*
G36*
X185549D02*
X183600D01*
Y253050D01*
X184075Y253145D01*
X184902Y253698D01*
X185455Y254525D01*
X185549Y255000D01*
D02*
G37*
G36*
X236949D02*
X235000D01*
Y253050D01*
X235475Y253145D01*
X236302Y253698D01*
X236855Y254525D01*
X236949Y255000D01*
D02*
G37*
G36*
X89700Y255150D02*
Y253200D01*
X91650D01*
X91555Y253676D01*
X91002Y254502D01*
X90175Y255055D01*
X89700Y255150D01*
D02*
G37*
G36*
X88700D02*
X88225Y255055D01*
X87398Y254502D01*
X86845Y253676D01*
X86751Y253200D01*
X88700D01*
Y255150D01*
D02*
G37*
G36*
X107300D02*
Y253200D01*
X109249D01*
X109155Y253676D01*
X108602Y254502D01*
X107775Y255055D01*
X107300Y255150D01*
D02*
G37*
G36*
X106300D02*
X105825Y255055D01*
X104998Y254502D01*
X104445Y253676D01*
X104350Y253200D01*
X106300D01*
Y255150D01*
D02*
G37*
G36*
X255750Y255000D02*
X253800D01*
Y253050D01*
X254275Y253145D01*
X255102Y253698D01*
X255655Y254525D01*
X255750Y255000D01*
D02*
G37*
G36*
X252800D02*
X250851D01*
X250945Y254525D01*
X251498Y253698D01*
X252325Y253145D01*
X252800Y253050D01*
Y255000D01*
D02*
G37*
G36*
X72300Y255150D02*
Y253200D01*
X74250D01*
X74155Y253676D01*
X73602Y254502D01*
X72776Y255055D01*
X72300Y255150D01*
D02*
G37*
G36*
X71300D02*
X70825Y255055D01*
X69998Y254502D01*
X69445Y253676D01*
X69350Y253200D01*
X71300D01*
Y255150D01*
D02*
G37*
G36*
X80000Y250449D02*
X79525Y250355D01*
X78698Y249802D01*
X78145Y248975D01*
X78051Y248500D01*
X80000D01*
Y250449D01*
D02*
G37*
G36*
X173695Y248645D02*
X171745D01*
Y246696D01*
X172221Y246791D01*
X173047Y247343D01*
X173600Y248170D01*
X173695Y248645D01*
D02*
G37*
G36*
X97400Y250449D02*
X96925Y250355D01*
X96098Y249802D01*
X95545Y248975D01*
X95451Y248500D01*
X97400D01*
Y250449D01*
D02*
G37*
G36*
X81000D02*
Y248500D01*
X82950D01*
X82855Y248975D01*
X82302Y249802D01*
X81476Y250355D01*
X81000Y250449D01*
D02*
G37*
G36*
X244400Y247550D02*
X243925Y247455D01*
X243098Y246902D01*
X242545Y246076D01*
X242450Y245600D01*
X244400D01*
Y247550D01*
D02*
G37*
G36*
X226600D02*
Y245600D01*
X228550D01*
X228455Y246076D01*
X227902Y246902D01*
X227076Y247455D01*
X226600Y247550D01*
D02*
G37*
G36*
X170745Y248645D02*
X168796D01*
X168890Y248170D01*
X169443Y247343D01*
X170270Y246791D01*
X170745Y246696D01*
Y248645D01*
D02*
G37*
G36*
X245400Y247550D02*
Y245600D01*
X247350D01*
X247255Y246076D01*
X246702Y246902D01*
X245876Y247455D01*
X245400Y247550D01*
D02*
G37*
G36*
X98400Y250449D02*
Y248500D01*
X100349D01*
X100255Y248975D01*
X99702Y249802D01*
X98875Y250355D01*
X98400Y250449D01*
D02*
G37*
G36*
X91650Y252200D02*
X89700D01*
Y250251D01*
X90175Y250345D01*
X91002Y250898D01*
X91555Y251725D01*
X91650Y252200D01*
D02*
G37*
G36*
X88700D02*
X86751D01*
X86845Y251725D01*
X87398Y250898D01*
X88225Y250345D01*
X88700Y250251D01*
Y252200D01*
D02*
G37*
G36*
X109249D02*
X107300D01*
Y250251D01*
X107775Y250345D01*
X108602Y250898D01*
X109155Y251725D01*
X109249Y252200D01*
D02*
G37*
G36*
X106300D02*
X104350D01*
X104445Y251725D01*
X104998Y250898D01*
X105825Y250345D01*
X106300Y250251D01*
Y252200D01*
D02*
G37*
G36*
X171745Y251595D02*
Y249645D01*
X173695D01*
X173600Y250121D01*
X173047Y250948D01*
X172221Y251501D01*
X171745Y251595D01*
D02*
G37*
G36*
X170745D02*
X170270Y251501D01*
X169443Y250948D01*
X168890Y250121D01*
X168796Y249645D01*
X170745D01*
Y251595D01*
D02*
G37*
G36*
X74250Y252200D02*
X72300D01*
Y250251D01*
X72776Y250345D01*
X73602Y250898D01*
X74155Y251725D01*
X74250Y252200D01*
D02*
G37*
G36*
X71300D02*
X69350D01*
X69445Y251725D01*
X69998Y250898D01*
X70825Y250345D01*
X71300Y250251D01*
Y252200D01*
D02*
G37*
G36*
X80900Y261649D02*
Y259700D01*
X82850D01*
X82755Y260175D01*
X82202Y261002D01*
X81375Y261555D01*
X80900Y261649D01*
D02*
G37*
G36*
X79900D02*
X79425Y261555D01*
X78598Y261002D01*
X78045Y260175D01*
X77951Y259700D01*
X79900D01*
Y261649D01*
D02*
G37*
G36*
X98300D02*
Y259700D01*
X100250D01*
X100155Y260175D01*
X99602Y261002D01*
X98776Y261555D01*
X98300Y261649D01*
D02*
G37*
G36*
X97300D02*
X96825Y261555D01*
X95998Y261002D01*
X95445Y260175D01*
X95350Y259700D01*
X97300D01*
Y261649D01*
D02*
G37*
G36*
X117649Y258700D02*
X115700D01*
Y256750D01*
X116175Y256845D01*
X117002Y257398D01*
X117555Y258225D01*
X117649Y258700D01*
D02*
G37*
G36*
X114700D02*
X112750D01*
X112845Y258225D01*
X113398Y257398D01*
X114225Y256845D01*
X114700Y256750D01*
Y258700D01*
D02*
G37*
G36*
X63500Y261649D02*
Y259700D01*
X65450D01*
X65355Y260175D01*
X64802Y261002D01*
X63976Y261555D01*
X63500Y261649D01*
D02*
G37*
G36*
X62500D02*
X62025Y261555D01*
X61198Y261002D01*
X60645Y260175D01*
X60550Y259700D01*
X62500D01*
Y261649D01*
D02*
G37*
G36*
X71200Y263400D02*
X69251D01*
X69345Y262925D01*
X69898Y262098D01*
X70725Y261545D01*
X71200Y261451D01*
Y263400D01*
D02*
G37*
G36*
Y266350D02*
X70725Y266255D01*
X69898Y265702D01*
X69345Y264876D01*
X69251Y264400D01*
X71200D01*
Y266350D01*
D02*
G37*
G36*
X88600D02*
X88125Y266255D01*
X87298Y265702D01*
X86745Y264876D01*
X86651Y264400D01*
X88600D01*
Y266350D01*
D02*
G37*
G36*
X72200D02*
Y264400D01*
X74150D01*
X74055Y264876D01*
X73502Y265702D01*
X72676Y266255D01*
X72200Y266350D01*
D02*
G37*
G36*
X88600Y263400D02*
X86651D01*
X86745Y262925D01*
X87298Y262098D01*
X88125Y261545D01*
X88600Y261451D01*
Y263400D01*
D02*
G37*
G36*
X74150D02*
X72200D01*
Y261451D01*
X72676Y261545D01*
X73502Y262098D01*
X74055Y262925D01*
X74150Y263400D01*
D02*
G37*
G36*
X91549D02*
X89600D01*
Y261451D01*
X90075Y261545D01*
X90902Y262098D01*
X91455Y262925D01*
X91549Y263400D01*
D02*
G37*
G36*
X100250Y258700D02*
X98300D01*
Y256750D01*
X98776Y256845D01*
X99602Y257398D01*
X100155Y258225D01*
X100250Y258700D01*
D02*
G37*
G36*
X197400Y257949D02*
Y256000D01*
X199349D01*
X199255Y256475D01*
X198702Y257302D01*
X197875Y257855D01*
X197400Y257949D01*
D02*
G37*
G36*
X196400D02*
X195925Y257855D01*
X195098Y257302D01*
X194545Y256475D01*
X194450Y256000D01*
X196400D01*
Y257949D01*
D02*
G37*
G36*
X216200D02*
Y256000D01*
X218149D01*
X218055Y256475D01*
X217502Y257302D01*
X216675Y257855D01*
X216200Y257949D01*
D02*
G37*
G36*
X215200D02*
X214725Y257855D01*
X213898Y257302D01*
X213345Y256475D01*
X213250Y256000D01*
X215200D01*
Y257949D01*
D02*
G37*
G36*
X183600D02*
Y256000D01*
X185549D01*
X185455Y256475D01*
X184902Y257302D01*
X184075Y257855D01*
X183600Y257949D01*
D02*
G37*
G36*
X182600D02*
X182125Y257855D01*
X181298Y257302D01*
X180745Y256475D01*
X180650Y256000D01*
X182600D01*
Y257949D01*
D02*
G37*
G36*
X234000D02*
X233525Y257855D01*
X232698Y257302D01*
X232145Y256475D01*
X232050Y256000D01*
X234000D01*
Y257949D01*
D02*
G37*
G36*
X79900Y258700D02*
X77951D01*
X78045Y258225D01*
X78598Y257398D01*
X79425Y256845D01*
X79900Y256750D01*
Y258700D01*
D02*
G37*
G36*
X65450D02*
X63500D01*
Y256750D01*
X63976Y256845D01*
X64802Y257398D01*
X65355Y258225D01*
X65450Y258700D01*
D02*
G37*
G36*
X97300D02*
X95350D01*
X95445Y258225D01*
X95998Y257398D01*
X96825Y256845D01*
X97300Y256750D01*
Y258700D01*
D02*
G37*
G36*
X82850D02*
X80900D01*
Y256750D01*
X81375Y256845D01*
X82202Y257398D01*
X82755Y258225D01*
X82850Y258700D01*
D02*
G37*
G36*
X252800Y257949D02*
X252325Y257855D01*
X251498Y257302D01*
X250945Y256475D01*
X250851Y256000D01*
X252800D01*
Y257949D01*
D02*
G37*
G36*
X235000D02*
Y256000D01*
X236949D01*
X236855Y256475D01*
X236302Y257302D01*
X235475Y257855D01*
X235000Y257949D01*
D02*
G37*
G36*
X62500Y258700D02*
X60550D01*
X60645Y258225D01*
X61198Y257398D01*
X62025Y256845D01*
X62500Y256750D01*
Y258700D01*
D02*
G37*
G36*
X253800Y257949D02*
Y256000D01*
X255750D01*
X255655Y256475D01*
X255102Y257302D01*
X254275Y257855D01*
X253800Y257949D01*
D02*
G37*
G36*
X70649Y55100D02*
X68700D01*
Y53150D01*
X69175Y53245D01*
X70002Y53798D01*
X70555Y54625D01*
X70649Y55100D01*
D02*
G37*
G36*
X67700D02*
X65750D01*
X65845Y54625D01*
X66398Y53798D01*
X67225Y53245D01*
X67700Y53150D01*
Y55100D01*
D02*
G37*
G36*
X58300D02*
X56350D01*
X56445Y54625D01*
X56998Y53798D01*
X57825Y53245D01*
X58300Y53150D01*
Y55100D01*
D02*
G37*
G36*
X61250D02*
X59300D01*
Y53150D01*
X59776Y53245D01*
X60602Y53798D01*
X61155Y54625D01*
X61250Y55100D01*
D02*
G37*
G36*
X105300D02*
X103350D01*
X103445Y54625D01*
X103998Y53798D01*
X104825Y53245D01*
X105300Y53150D01*
Y55100D01*
D02*
G37*
G36*
X136450D02*
X134500D01*
Y53150D01*
X134976Y53245D01*
X135802Y53798D01*
X136355Y54625D01*
X136450Y55100D01*
D02*
G37*
G36*
X108249D02*
X106300D01*
Y53150D01*
X106775Y53245D01*
X107602Y53798D01*
X108155Y54625D01*
X108249Y55100D01*
D02*
G37*
G36*
X80050D02*
X78100D01*
Y53150D01*
X78575Y53245D01*
X79402Y53798D01*
X79955Y54625D01*
X80050Y55100D01*
D02*
G37*
G36*
X133500D02*
X131551D01*
X131645Y54625D01*
X132198Y53798D01*
X133025Y53245D01*
X133500Y53150D01*
Y55100D01*
D02*
G37*
G36*
X77100D02*
X75151D01*
X75245Y54625D01*
X75798Y53798D01*
X76625Y53245D01*
X77100Y53150D01*
Y55100D01*
D02*
G37*
G36*
X119400Y49349D02*
X118925Y49255D01*
X118098Y48702D01*
X117545Y47875D01*
X117450Y47400D01*
X119400D01*
Y49349D01*
D02*
G37*
G36*
X92200D02*
Y47400D01*
X94150D01*
X94055Y47875D01*
X93502Y48702D01*
X92676Y49255D01*
X92200Y49349D01*
D02*
G37*
G36*
X120400D02*
Y47400D01*
X122350D01*
X122255Y47875D01*
X121702Y48702D01*
X120876Y49255D01*
X120400Y49349D01*
D02*
G37*
G36*
X72400D02*
X71925Y49255D01*
X71098Y48702D01*
X70545Y47875D01*
X70451Y47400D01*
X72400D01*
Y49349D01*
D02*
G37*
G36*
X64000D02*
Y47400D01*
X65949D01*
X65855Y47875D01*
X65302Y48702D01*
X64476Y49255D01*
X64000Y49349D01*
D02*
G37*
G36*
X91200D02*
X90725Y49255D01*
X89898Y48702D01*
X89345Y47875D01*
X89250Y47400D01*
X91200D01*
Y49349D01*
D02*
G37*
G36*
X73400D02*
Y47400D01*
X75349D01*
X75255Y47875D01*
X74702Y48702D01*
X73875Y49255D01*
X73400Y49349D01*
D02*
G37*
G36*
X152729Y60553D02*
X148603D01*
Y53966D01*
X148921Y53201D01*
X149686Y52884D01*
X152729D01*
Y60553D01*
D02*
G37*
G36*
Y69222D02*
X149686D01*
X148921Y68905D01*
X148603Y68139D01*
Y61553D01*
X152729D01*
Y69222D01*
D02*
G37*
G36*
X53600Y63800D02*
X51651D01*
X51745Y63325D01*
X52298Y62498D01*
X53125Y61945D01*
X53600Y61851D01*
Y63800D01*
D02*
G37*
G36*
X91200D02*
X89250D01*
X89345Y63325D01*
X89898Y62498D01*
X90725Y61945D01*
X91200Y61851D01*
Y63800D01*
D02*
G37*
G36*
X75349D02*
X73400D01*
Y61851D01*
X73875Y61945D01*
X74702Y62498D01*
X75255Y63325D01*
X75349Y63800D01*
D02*
G37*
G36*
X119400D02*
X117450D01*
X117545Y63325D01*
X118098Y62498D01*
X118925Y61945D01*
X119400Y61851D01*
Y63800D01*
D02*
G37*
G36*
X94150D02*
X92200D01*
Y61851D01*
X92676Y61945D01*
X93502Y62498D01*
X94055Y63325D01*
X94150Y63800D01*
D02*
G37*
G36*
X63000D02*
X61050D01*
X61145Y63325D01*
X61698Y62498D01*
X62525Y61945D01*
X63000Y61851D01*
Y63800D01*
D02*
G37*
G36*
X56550D02*
X54600D01*
Y61851D01*
X55076Y61945D01*
X55902Y62498D01*
X56455Y63325D01*
X56550Y63800D01*
D02*
G37*
G36*
X72400D02*
X70451D01*
X70545Y63325D01*
X71098Y62498D01*
X71925Y61945D01*
X72400Y61851D01*
Y63800D01*
D02*
G37*
G36*
X65949D02*
X64000D01*
Y61851D01*
X64476Y61945D01*
X65302Y62498D01*
X65855Y63325D01*
X65949Y63800D01*
D02*
G37*
G36*
X67700Y58049D02*
X67225Y57955D01*
X66398Y57402D01*
X65845Y56576D01*
X65750Y56100D01*
X67700D01*
Y58049D01*
D02*
G37*
G36*
X59300D02*
Y56100D01*
X61250D01*
X61155Y56576D01*
X60602Y57402D01*
X59776Y57955D01*
X59300Y58049D01*
D02*
G37*
G36*
X77100D02*
X76625Y57955D01*
X75798Y57402D01*
X75245Y56576D01*
X75151Y56100D01*
X77100D01*
Y58049D01*
D02*
G37*
G36*
X68700D02*
Y56100D01*
X70649D01*
X70555Y56576D01*
X70002Y57402D01*
X69175Y57955D01*
X68700Y58049D01*
D02*
G37*
G36*
X58300D02*
X57825Y57955D01*
X56998Y57402D01*
X56445Y56576D01*
X56350Y56100D01*
X58300D01*
Y58049D01*
D02*
G37*
G36*
X78100D02*
Y56100D01*
X80050D01*
X79955Y56576D01*
X79402Y57402D01*
X78575Y57955D01*
X78100Y58049D01*
D02*
G37*
G36*
X106300D02*
Y56100D01*
X108249D01*
X108155Y56576D01*
X107602Y57402D01*
X106775Y57955D01*
X106300Y58049D01*
D02*
G37*
G36*
X105300D02*
X104825Y57955D01*
X103998Y57402D01*
X103445Y56576D01*
X103350Y56100D01*
X105300D01*
Y58049D01*
D02*
G37*
G36*
X134500D02*
Y56100D01*
X136450D01*
X136355Y56576D01*
X135802Y57402D01*
X134976Y57955D01*
X134500Y58049D01*
D02*
G37*
G36*
X133500D02*
X133025Y57955D01*
X132198Y57402D01*
X131645Y56576D01*
X131551Y56100D01*
X133500D01*
Y58049D01*
D02*
G37*
G36*
X63000Y49349D02*
X62525Y49255D01*
X61698Y48702D01*
X61145Y47875D01*
X61050Y47400D01*
X63000D01*
Y49349D01*
D02*
G37*
G36*
X61250Y37700D02*
X59300D01*
Y35750D01*
X59776Y35845D01*
X60602Y36398D01*
X61155Y37225D01*
X61250Y37700D01*
D02*
G37*
G36*
X58300D02*
X56350D01*
X56445Y37225D01*
X56998Y36398D01*
X57825Y35845D01*
X58300Y35750D01*
Y37700D01*
D02*
G37*
G36*
X73400Y31949D02*
Y30000D01*
X75349D01*
X75255Y30476D01*
X74702Y31302D01*
X73875Y31855D01*
X73400Y31949D01*
D02*
G37*
G36*
X72400D02*
X71925Y31855D01*
X71098Y31302D01*
X70545Y30476D01*
X70451Y30000D01*
X72400D01*
Y31949D01*
D02*
G37*
G36*
X67700Y37700D02*
X65750D01*
X65845Y37225D01*
X66398Y36398D01*
X67225Y35845D01*
X67700Y35750D01*
Y37700D01*
D02*
G37*
G36*
X58300Y40650D02*
X57825Y40555D01*
X56998Y40002D01*
X56445Y39176D01*
X56350Y38700D01*
X58300D01*
Y40650D01*
D02*
G37*
G36*
X77100Y37700D02*
X75151D01*
X75245Y37225D01*
X75798Y36398D01*
X76625Y35845D01*
X77100Y35750D01*
Y37700D01*
D02*
G37*
G36*
X70649D02*
X68700D01*
Y35750D01*
X69175Y35845D01*
X70002Y36398D01*
X70555Y37225D01*
X70649Y37700D01*
D02*
G37*
G36*
X80050D02*
X78100D01*
Y35750D01*
X78575Y35845D01*
X79402Y36398D01*
X79955Y37225D01*
X80050Y37700D01*
D02*
G37*
G36*
X53600Y29000D02*
X51651D01*
X51745Y28525D01*
X52298Y27698D01*
X53125Y27145D01*
X53600Y27051D01*
Y29000D01*
D02*
G37*
G36*
X63000D02*
X61050D01*
X61145Y28525D01*
X61698Y27698D01*
X62525Y27145D01*
X63000Y27051D01*
Y29000D01*
D02*
G37*
G36*
X56550D02*
X54600D01*
Y27051D01*
X55076Y27145D01*
X55902Y27698D01*
X56455Y28525D01*
X56550Y29000D01*
D02*
G37*
G36*
X65949D02*
X64000D01*
Y27051D01*
X64476Y27145D01*
X65302Y27698D01*
X65855Y28525D01*
X65949Y29000D01*
D02*
G37*
G36*
X54600Y31949D02*
Y30000D01*
X56550D01*
X56455Y30476D01*
X55902Y31302D01*
X55076Y31855D01*
X54600Y31949D01*
D02*
G37*
G36*
X53600D02*
X53125Y31855D01*
X52298Y31302D01*
X51745Y30476D01*
X51651Y30000D01*
X53600D01*
Y31949D01*
D02*
G37*
G36*
X64000D02*
Y30000D01*
X65949D01*
X65855Y30476D01*
X65302Y31302D01*
X64476Y31855D01*
X64000Y31949D01*
D02*
G37*
G36*
X63000D02*
X62525Y31855D01*
X61698Y31302D01*
X61145Y30476D01*
X61050Y30000D01*
X63000D01*
Y31949D01*
D02*
G37*
G36*
X75349Y29000D02*
X73400D01*
Y27051D01*
X73875Y27145D01*
X74702Y27698D01*
X75255Y28525D01*
X75349Y29000D01*
D02*
G37*
G36*
X72400D02*
X70451D01*
X70545Y28525D01*
X71098Y27698D01*
X71925Y27145D01*
X72400Y27051D01*
Y29000D01*
D02*
G37*
G36*
X59300Y40650D02*
Y38700D01*
X61250D01*
X61155Y39176D01*
X60602Y40002D01*
X59776Y40555D01*
X59300Y40650D01*
D02*
G37*
G36*
X122350Y46400D02*
X120400D01*
Y44451D01*
X120876Y44545D01*
X121702Y45098D01*
X122255Y45925D01*
X122350Y46400D01*
D02*
G37*
G36*
X91200D02*
X89250D01*
X89345Y45925D01*
X89898Y45098D01*
X90725Y44545D01*
X91200Y44451D01*
Y46400D01*
D02*
G37*
G36*
X75349D02*
X73400D01*
Y44451D01*
X73875Y44545D01*
X74702Y45098D01*
X75255Y45925D01*
X75349Y46400D01*
D02*
G37*
G36*
X119400D02*
X117450D01*
X117545Y45925D01*
X118098Y45098D01*
X118925Y44545D01*
X119400Y44451D01*
Y46400D01*
D02*
G37*
G36*
X94150D02*
X92200D01*
Y44451D01*
X92676Y44545D01*
X93502Y45098D01*
X94055Y45925D01*
X94150Y46400D01*
D02*
G37*
G36*
X151100Y47949D02*
Y46000D01*
X153050D01*
X152955Y46475D01*
X152402Y47302D01*
X151576Y47855D01*
X151100Y47949D01*
D02*
G37*
G36*
X150100D02*
X149625Y47855D01*
X148798Y47302D01*
X148245Y46475D01*
X148151Y46000D01*
X150100D01*
Y47949D01*
D02*
G37*
G36*
X54600Y49349D02*
Y47400D01*
X56550D01*
X56455Y47875D01*
X55902Y48702D01*
X55076Y49255D01*
X54600Y49349D01*
D02*
G37*
G36*
X53600D02*
X53125Y49255D01*
X52298Y48702D01*
X51745Y47875D01*
X51651Y47400D01*
X53600D01*
Y49349D01*
D02*
G37*
G36*
X106300Y40650D02*
Y38700D01*
X108249D01*
X108155Y39176D01*
X107602Y40002D01*
X106775Y40555D01*
X106300Y40650D01*
D02*
G37*
G36*
X105300D02*
X104825Y40555D01*
X103998Y40002D01*
X103445Y39176D01*
X103350Y38700D01*
X105300D01*
Y40650D01*
D02*
G37*
G36*
X134500D02*
Y38700D01*
X136450D01*
X136355Y39176D01*
X135802Y40002D01*
X134976Y40555D01*
X134500Y40650D01*
D02*
G37*
G36*
X133500D02*
X133025Y40555D01*
X132198Y40002D01*
X131645Y39176D01*
X131551Y38700D01*
X133500D01*
Y40650D01*
D02*
G37*
G36*
X68700D02*
Y38700D01*
X70649D01*
X70555Y39176D01*
X70002Y40002D01*
X69175Y40555D01*
X68700Y40650D01*
D02*
G37*
G36*
X67700D02*
X67225Y40555D01*
X66398Y40002D01*
X65845Y39176D01*
X65750Y38700D01*
X67700D01*
Y40650D01*
D02*
G37*
G36*
X78100D02*
Y38700D01*
X80050D01*
X79955Y39176D01*
X79402Y40002D01*
X78575Y40555D01*
X78100Y40650D01*
D02*
G37*
G36*
X77100D02*
X76625Y40555D01*
X75798Y40002D01*
X75245Y39176D01*
X75151Y38700D01*
X77100D01*
Y40650D01*
D02*
G37*
G36*
X63000Y46400D02*
X61050D01*
X61145Y45925D01*
X61698Y45098D01*
X62525Y44545D01*
X63000Y44451D01*
Y46400D01*
D02*
G37*
G36*
X56550D02*
X54600D01*
Y44451D01*
X55076Y44545D01*
X55902Y45098D01*
X56455Y45925D01*
X56550Y46400D01*
D02*
G37*
G36*
X72400D02*
X70451D01*
X70545Y45925D01*
X71098Y45098D01*
X71925Y44545D01*
X72400Y44451D01*
Y46400D01*
D02*
G37*
G36*
X65949D02*
X64000D01*
Y44451D01*
X64476Y44545D01*
X65302Y45098D01*
X65855Y45925D01*
X65949Y46400D01*
D02*
G37*
G36*
X150100Y45000D02*
X148151D01*
X148245Y44525D01*
X148798Y43698D01*
X149625Y43145D01*
X150100Y43051D01*
Y45000D01*
D02*
G37*
G36*
X53600Y46400D02*
X51651D01*
X51745Y45925D01*
X52298Y45098D01*
X53125Y44545D01*
X53600Y44451D01*
Y46400D01*
D02*
G37*
G36*
X153050Y45000D02*
X151100D01*
Y43051D01*
X151576Y43145D01*
X152402Y43698D01*
X152955Y44525D01*
X153050Y45000D01*
D02*
G37*
G36*
X72700Y103530D02*
X65326D01*
X64561Y103213D01*
X64244Y102447D01*
Y101895D01*
X64000Y101695D01*
Y99100D01*
Y96505D01*
X64244Y96305D01*
Y93400D01*
X72700D01*
Y103530D01*
D02*
G37*
G36*
X58300Y92849D02*
X57825Y92755D01*
X56998Y92202D01*
X56445Y91375D01*
X56350Y90900D01*
X58300D01*
Y92849D01*
D02*
G37*
G36*
X59300D02*
Y90900D01*
X61250D01*
X61155Y91375D01*
X60602Y92202D01*
X59776Y92755D01*
X59300Y92849D01*
D02*
G37*
G36*
X63000Y101549D02*
X62525Y101455D01*
X61698Y100902D01*
X61145Y100075D01*
X61050Y99600D01*
X63000D01*
Y101549D01*
D02*
G37*
G36*
X54600D02*
Y99600D01*
X56550D01*
X56455Y100075D01*
X55902Y100902D01*
X55076Y101455D01*
X54600Y101549D01*
D02*
G37*
G36*
X58300Y107300D02*
X56350D01*
X56445Y106825D01*
X56998Y105998D01*
X57825Y105445D01*
X58300Y105350D01*
Y107300D01*
D02*
G37*
G36*
X56550Y98600D02*
X54600D01*
Y96650D01*
X55076Y96745D01*
X55902Y97298D01*
X56455Y98125D01*
X56550Y98600D01*
D02*
G37*
G36*
X53600D02*
X51651D01*
X51745Y98125D01*
X52298Y97298D01*
X53125Y96745D01*
X53600Y96650D01*
Y98600D01*
D02*
G37*
G36*
Y101549D02*
X53125Y101455D01*
X52298Y100902D01*
X51745Y100075D01*
X51651Y99600D01*
X53600D01*
Y101549D01*
D02*
G37*
G36*
X63000Y98600D02*
X61050D01*
X61145Y98125D01*
X61698Y97298D01*
X62525Y96745D01*
X63000Y96650D01*
Y98600D01*
D02*
G37*
G36*
X54600Y84149D02*
Y82200D01*
X56550D01*
X56455Y82675D01*
X55902Y83502D01*
X55076Y84055D01*
X54600Y84149D01*
D02*
G37*
G36*
X53600D02*
X53125Y84055D01*
X52298Y83502D01*
X51745Y82675D01*
X51651Y82200D01*
X53600D01*
Y84149D01*
D02*
G37*
G36*
X72700Y92400D02*
X64244D01*
Y84495D01*
X64000Y84295D01*
Y82200D01*
X66272D01*
X66330Y82270D01*
X72700D01*
Y92400D01*
D02*
G37*
G36*
X63000Y84149D02*
X62525Y84055D01*
X61698Y83502D01*
X61145Y82675D01*
X61050Y82200D01*
X63000D01*
Y84149D01*
D02*
G37*
G36*
X151100Y82749D02*
Y80800D01*
X153050D01*
X152955Y81275D01*
X152402Y82102D01*
X151576Y82655D01*
X151100Y82749D01*
D02*
G37*
G36*
X150100D02*
X149625Y82655D01*
X148798Y82102D01*
X148245Y81275D01*
X148151Y80800D01*
X150100D01*
Y82749D01*
D02*
G37*
G36*
X58300Y89900D02*
X56350D01*
X56445Y89425D01*
X56998Y88598D01*
X57825Y88045D01*
X58300Y87950D01*
Y89900D01*
D02*
G37*
G36*
X61250D02*
X59300D01*
Y87950D01*
X59776Y88045D01*
X60602Y88598D01*
X61155Y89425D01*
X61250Y89900D01*
D02*
G37*
G36*
Y107300D02*
X59300D01*
Y105350D01*
X59776Y105445D01*
X60602Y105998D01*
X61155Y106825D01*
X61250Y107300D01*
D02*
G37*
G36*
X151100Y152349D02*
Y150400D01*
X153050D01*
X152955Y150875D01*
X152402Y151702D01*
X151576Y152255D01*
X151100Y152349D01*
D02*
G37*
G36*
X143100Y159000D02*
X141150D01*
X141245Y158525D01*
X141798Y157698D01*
X142625Y157145D01*
X143100Y157051D01*
Y159000D01*
D02*
G37*
G36*
X153050Y149400D02*
X151100D01*
Y147450D01*
X151576Y147545D01*
X152402Y148098D01*
X152955Y148925D01*
X153050Y149400D01*
D02*
G37*
G36*
X150100Y152349D02*
X149625Y152255D01*
X148798Y151702D01*
X148245Y150875D01*
X148151Y150400D01*
X150100D01*
Y152349D01*
D02*
G37*
G36*
X146049Y159000D02*
X144100D01*
Y157051D01*
X144576Y157145D01*
X145402Y157698D01*
X145955Y158525D01*
X146049Y159000D01*
D02*
G37*
G36*
X153050Y166800D02*
X151100D01*
Y164850D01*
X151576Y164945D01*
X152402Y165498D01*
X152955Y166325D01*
X153050Y166800D01*
D02*
G37*
G36*
X150100D02*
X148151D01*
X148245Y166325D01*
X148798Y165498D01*
X149625Y164945D01*
X150100Y164850D01*
Y166800D01*
D02*
G37*
G36*
X144100Y161950D02*
Y160000D01*
X146049D01*
X145955Y160476D01*
X145402Y161302D01*
X144576Y161855D01*
X144100Y161950D01*
D02*
G37*
G36*
X143100D02*
X142625Y161855D01*
X141798Y161302D01*
X141245Y160476D01*
X141150Y160000D01*
X143100D01*
Y161950D01*
D02*
G37*
G36*
X63500Y115500D02*
X61550D01*
Y113550D01*
X62026Y113645D01*
X62853Y114198D01*
X63405Y115025D01*
X63500Y115500D01*
D02*
G37*
G36*
X60550D02*
X58601D01*
X58696Y115025D01*
X59248Y114198D01*
X60075Y113645D01*
X60550Y113550D01*
Y115500D01*
D02*
G37*
G36*
X61550Y118449D02*
Y116500D01*
X63500D01*
X63405Y116975D01*
X62853Y117802D01*
X62026Y118355D01*
X61550Y118449D01*
D02*
G37*
G36*
X60550D02*
X60075Y118355D01*
X59248Y117802D01*
X58696Y116975D01*
X58601Y116500D01*
X60550D01*
Y118449D01*
D02*
G37*
G36*
X58300Y110249D02*
X57825Y110155D01*
X56998Y109602D01*
X56445Y108775D01*
X56350Y108300D01*
X58300D01*
Y110249D01*
D02*
G37*
G36*
X72700Y123400D02*
X64244D01*
Y114353D01*
X64561Y113587D01*
X65326Y113270D01*
X72700D01*
Y123400D01*
D02*
G37*
G36*
X59300Y110249D02*
Y108300D01*
X61250D01*
X61155Y108775D01*
X60602Y109602D01*
X59776Y110155D01*
X59300Y110249D01*
D02*
G37*
G36*
X142600Y141500D02*
X140650D01*
X140745Y141025D01*
X141298Y140198D01*
X142125Y139645D01*
X142600Y139550D01*
Y141500D01*
D02*
G37*
G36*
X143600Y144449D02*
Y142500D01*
X145549D01*
X145455Y142975D01*
X144902Y143802D01*
X144076Y144355D01*
X143600Y144449D01*
D02*
G37*
G36*
X150100Y149400D02*
X148151D01*
X148245Y148925D01*
X148798Y148098D01*
X149625Y147545D01*
X150100Y147450D01*
Y149400D01*
D02*
G37*
G36*
X145549Y141500D02*
X143600D01*
Y139550D01*
X144076Y139645D01*
X144902Y140198D01*
X145455Y141025D01*
X145549Y141500D01*
D02*
G37*
G36*
X142600Y144449D02*
X142125Y144355D01*
X141298Y143802D01*
X140745Y142975D01*
X140650Y142500D01*
X142600D01*
Y144449D01*
D02*
G37*
G36*
X58300Y72500D02*
X56350D01*
X56445Y72025D01*
X56998Y71198D01*
X57825Y70645D01*
X58300Y70551D01*
Y72500D01*
D02*
G37*
G36*
X53600Y66750D02*
X53125Y66655D01*
X52298Y66102D01*
X51745Y65276D01*
X51651Y64800D01*
X53600D01*
Y66750D01*
D02*
G37*
G36*
X122350Y63800D02*
X120400D01*
Y61851D01*
X120876Y61945D01*
X121702Y62498D01*
X122255Y63325D01*
X122350Y63800D01*
D02*
G37*
G36*
X54600Y66750D02*
Y64800D01*
X56550D01*
X56455Y65276D01*
X55902Y66102D01*
X55076Y66655D01*
X54600Y66750D01*
D02*
G37*
G36*
X92200D02*
Y64800D01*
X94150D01*
X94055Y65276D01*
X93502Y66102D01*
X92676Y66655D01*
X92200Y66750D01*
D02*
G37*
G36*
X91200D02*
X90725Y66655D01*
X89898Y66102D01*
X89345Y65276D01*
X89250Y64800D01*
X91200D01*
Y66750D01*
D02*
G37*
G36*
X120400D02*
Y64800D01*
X122350D01*
X122255Y65276D01*
X121702Y66102D01*
X120876Y66655D01*
X120400Y66750D01*
D02*
G37*
G36*
X119400D02*
X118925Y66655D01*
X118098Y66102D01*
X117545Y65276D01*
X117450Y64800D01*
X119400D01*
Y66750D01*
D02*
G37*
G36*
X64000D02*
Y64800D01*
X65949D01*
X65855Y65276D01*
X65302Y66102D01*
X64476Y66655D01*
X64000Y66750D01*
D02*
G37*
G36*
X63000D02*
X62525Y66655D01*
X61698Y66102D01*
X61145Y65276D01*
X61050Y64800D01*
X63000D01*
Y66750D01*
D02*
G37*
G36*
X73400D02*
Y64800D01*
X75349D01*
X75255Y65276D01*
X74702Y66102D01*
X73875Y66655D01*
X73400Y66750D01*
D02*
G37*
G36*
X72400D02*
X71925Y66655D01*
X71098Y66102D01*
X70545Y65276D01*
X70451Y64800D01*
X72400D01*
Y66750D01*
D02*
G37*
G36*
X61250Y72500D02*
X59300D01*
Y70551D01*
X59776Y70645D01*
X60602Y71198D01*
X61155Y72025D01*
X61250Y72500D01*
D02*
G37*
G36*
X133500Y75450D02*
X133025Y75355D01*
X132198Y74802D01*
X131645Y73975D01*
X131551Y73500D01*
X133500D01*
Y75450D01*
D02*
G37*
G36*
X106300D02*
Y73500D01*
X108249D01*
X108155Y73975D01*
X107602Y74802D01*
X106775Y75355D01*
X106300Y75450D01*
D02*
G37*
G36*
X134500D02*
Y73500D01*
X136450D01*
X136355Y73975D01*
X135802Y74802D01*
X134976Y75355D01*
X134500Y75450D01*
D02*
G37*
G36*
X65949Y81200D02*
X64000D01*
Y79251D01*
X64476Y79345D01*
X65302Y79898D01*
X65855Y80725D01*
X65949Y81200D01*
D02*
G37*
G36*
X63000D02*
X61050D01*
X61145Y80725D01*
X61698Y79898D01*
X62525Y79345D01*
X63000Y79251D01*
Y81200D01*
D02*
G37*
G36*
X153050Y79800D02*
X151100D01*
Y77851D01*
X151576Y77945D01*
X152402Y78498D01*
X152955Y79325D01*
X153050Y79800D01*
D02*
G37*
G36*
X150100D02*
X148151D01*
X148245Y79325D01*
X148798Y78498D01*
X149625Y77945D01*
X150100Y77851D01*
Y79800D01*
D02*
G37*
G36*
X56550Y81200D02*
X54600D01*
Y79251D01*
X55076Y79345D01*
X55902Y79898D01*
X56455Y80725D01*
X56550Y81200D01*
D02*
G37*
G36*
X53600D02*
X51651D01*
X51745Y80725D01*
X52298Y79898D01*
X53125Y79345D01*
X53600Y79251D01*
Y81200D01*
D02*
G37*
G36*
X108249Y72500D02*
X106300D01*
Y70551D01*
X106775Y70645D01*
X107602Y71198D01*
X108155Y72025D01*
X108249Y72500D01*
D02*
G37*
G36*
X105300D02*
X103350D01*
X103445Y72025D01*
X103998Y71198D01*
X104825Y70645D01*
X105300Y70551D01*
Y72500D01*
D02*
G37*
G36*
X136450D02*
X134500D01*
Y70551D01*
X134976Y70645D01*
X135802Y71198D01*
X136355Y72025D01*
X136450Y72500D01*
D02*
G37*
G36*
X133500D02*
X131551D01*
X131645Y72025D01*
X132198Y71198D01*
X133025Y70645D01*
X133500Y70551D01*
Y72500D01*
D02*
G37*
G36*
X70649D02*
X68700D01*
Y70551D01*
X69175Y70645D01*
X70002Y71198D01*
X70555Y72025D01*
X70649Y72500D01*
D02*
G37*
G36*
X67700D02*
X65750D01*
X65845Y72025D01*
X66398Y71198D01*
X67225Y70645D01*
X67700Y70551D01*
Y72500D01*
D02*
G37*
G36*
X80050D02*
X78100D01*
Y70551D01*
X78575Y70645D01*
X79402Y71198D01*
X79955Y72025D01*
X80050Y72500D01*
D02*
G37*
G36*
X77100D02*
X75151D01*
X75245Y72025D01*
X75798Y71198D01*
X76625Y70645D01*
X77100Y70551D01*
Y72500D01*
D02*
G37*
G36*
Y75450D02*
X76625Y75355D01*
X75798Y74802D01*
X75245Y73975D01*
X75151Y73500D01*
X77100D01*
Y75450D01*
D02*
G37*
G36*
X68700D02*
Y73500D01*
X70649D01*
X70555Y73975D01*
X70002Y74802D01*
X69175Y75355D01*
X68700Y75450D01*
D02*
G37*
G36*
X105300D02*
X104825Y75355D01*
X103998Y74802D01*
X103445Y73975D01*
X103350Y73500D01*
X105300D01*
Y75450D01*
D02*
G37*
G36*
X78100D02*
Y73500D01*
X80050D01*
X79955Y73975D01*
X79402Y74802D01*
X78575Y75355D01*
X78100Y75450D01*
D02*
G37*
G36*
X58300D02*
X57825Y75355D01*
X56998Y74802D01*
X56445Y73975D01*
X56350Y73500D01*
X58300D01*
Y75450D01*
D02*
G37*
G36*
X67700D02*
X67225Y75355D01*
X66398Y74802D01*
X65845Y73975D01*
X65750Y73500D01*
X67700D01*
Y75450D01*
D02*
G37*
G36*
X59300D02*
Y73500D01*
X61250D01*
X61155Y73975D01*
X60602Y74802D01*
X59776Y75355D01*
X59300Y75450D01*
D02*
G37*
G36*
X53600Y-23200D02*
X51651D01*
X51745Y-23675D01*
X52298Y-24502D01*
X53125Y-25055D01*
X53600Y-25150D01*
Y-23200D01*
D02*
G37*
G36*
X230200Y-16915D02*
Y-25300D01*
X238585D01*
X238346Y-23483D01*
X237451Y-21325D01*
X236029Y-19471D01*
X234175Y-18049D01*
X232017Y-17154D01*
X230200Y-16915D01*
D02*
G37*
G36*
X63000Y-23200D02*
X61050D01*
X61145Y-23675D01*
X61698Y-24502D01*
X62525Y-25055D01*
X63000Y-25150D01*
Y-23200D01*
D02*
G37*
G36*
X56550D02*
X54600D01*
Y-25150D01*
X55076Y-25055D01*
X55902Y-24502D01*
X56455Y-23675D01*
X56550Y-23200D01*
D02*
G37*
G36*
X246600Y-23550D02*
X246125Y-23645D01*
X245298Y-24198D01*
X244745Y-25025D01*
X244651Y-25500D01*
X246600D01*
Y-23550D01*
D02*
G37*
G36*
X90450Y-24900D02*
X88500D01*
Y-26849D01*
X88976Y-26755D01*
X89802Y-26202D01*
X90355Y-25375D01*
X90450Y-24900D01*
D02*
G37*
G36*
X229200Y-16915D02*
X227383Y-17154D01*
X225225Y-18049D01*
X223371Y-19471D01*
X221949Y-21325D01*
X221054Y-23483D01*
X220815Y-25300D01*
X229200D01*
Y-16915D01*
D02*
G37*
G36*
X108200D02*
X106383Y-17154D01*
X104225Y-18049D01*
X102371Y-19471D01*
X100949Y-21325D01*
X100054Y-23483D01*
X99815Y-25300D01*
X108200D01*
Y-16915D01*
D02*
G37*
G36*
X65949Y-23200D02*
X64000D01*
Y-25150D01*
X64476Y-25055D01*
X65302Y-24502D01*
X65855Y-23675D01*
X65949Y-23200D01*
D02*
G37*
G36*
X26100Y-22550D02*
Y-24500D01*
X28049D01*
X27955Y-24024D01*
X27402Y-23198D01*
X26575Y-22645D01*
X26100Y-22550D01*
D02*
G37*
G36*
X25100D02*
X24625Y-22645D01*
X23798Y-23198D01*
X23245Y-24024D01*
X23151Y-24500D01*
X25100D01*
Y-22550D01*
D02*
G37*
G36*
X450Y-22500D02*
X-1500D01*
Y-24450D01*
X-1025Y-24355D01*
X-198Y-23802D01*
X355Y-22975D01*
X450Y-22500D01*
D02*
G37*
G36*
X-2500D02*
X-4450D01*
X-4355Y-22975D01*
X-3802Y-23802D01*
X-2975Y-24355D01*
X-2500Y-24450D01*
Y-22500D01*
D02*
G37*
G36*
X75349Y-23200D02*
X73400D01*
Y-25150D01*
X73875Y-25055D01*
X74702Y-24502D01*
X75255Y-23675D01*
X75349Y-23200D01*
D02*
G37*
G36*
X72400D02*
X70451D01*
X70545Y-23675D01*
X71098Y-24502D01*
X71925Y-25055D01*
X72400Y-25150D01*
Y-23200D01*
D02*
G37*
G36*
X11100Y-22550D02*
Y-24500D01*
X13049D01*
X12955Y-24024D01*
X12402Y-23198D01*
X11575Y-22645D01*
X11100Y-22550D01*
D02*
G37*
G36*
X10100D02*
X9625Y-22645D01*
X8798Y-23198D01*
X8245Y-24024D01*
X8151Y-24500D01*
X10100D01*
Y-22550D01*
D02*
G37*
G36*
X87500Y-24900D02*
X85550D01*
X85645Y-25375D01*
X86198Y-26202D01*
X87025Y-26755D01*
X87500Y-26849D01*
Y-24900D01*
D02*
G37*
G36*
X25100Y-25500D02*
X23151D01*
X23245Y-25975D01*
X23798Y-26802D01*
X24625Y-27355D01*
X25100Y-27450D01*
Y-25500D01*
D02*
G37*
G36*
X10100D02*
X8151D01*
X8245Y-25975D01*
X8798Y-26802D01*
X9625Y-27355D01*
X10100Y-27450D01*
Y-25500D01*
D02*
G37*
G36*
X127100Y-25350D02*
X126625Y-25445D01*
X125798Y-25998D01*
X125245Y-26825D01*
X125151Y-27300D01*
X127100D01*
Y-25350D01*
D02*
G37*
G36*
X28049Y-25500D02*
X26100D01*
Y-27450D01*
X26575Y-27355D01*
X27402Y-26802D01*
X27955Y-25975D01*
X28049Y-25500D01*
D02*
G37*
G36*
X2200Y-28251D02*
X1725Y-28345D01*
X898Y-28898D01*
X345Y-29724D01*
X250Y-30200D01*
X2200D01*
Y-28251D01*
D02*
G37*
G36*
X-6200D02*
Y-30200D01*
X-4250D01*
X-4345Y-29724D01*
X-4898Y-28898D01*
X-5725Y-28345D01*
X-6200Y-28251D01*
D02*
G37*
G36*
X246600Y-26500D02*
X244651D01*
X244745Y-26975D01*
X245298Y-27802D01*
X246125Y-28355D01*
X246600Y-28449D01*
Y-26500D01*
D02*
G37*
G36*
X3200Y-28251D02*
Y-30200D01*
X5150D01*
X5055Y-29724D01*
X4502Y-28898D01*
X3675Y-28345D01*
X3200Y-28251D01*
D02*
G37*
G36*
X128100Y-25350D02*
Y-27300D01*
X130050D01*
X129955Y-26825D01*
X129402Y-25998D01*
X128576Y-25445D01*
X128100Y-25350D01*
D02*
G37*
G36*
X184500D02*
Y-27300D01*
X186450D01*
X186355Y-26825D01*
X185802Y-25998D01*
X184976Y-25445D01*
X184500Y-25350D01*
D02*
G37*
G36*
X183500D02*
X183025Y-25445D01*
X182198Y-25998D01*
X181645Y-26825D01*
X181551Y-27300D01*
X183500D01*
Y-25350D01*
D02*
G37*
G36*
X203300D02*
Y-27300D01*
X205250D01*
X205155Y-26825D01*
X204602Y-25998D01*
X203776Y-25445D01*
X203300Y-25350D01*
D02*
G37*
G36*
X202300D02*
X201825Y-25445D01*
X200998Y-25998D01*
X200445Y-26825D01*
X200350Y-27300D01*
X202300D01*
Y-25350D01*
D02*
G37*
G36*
X146900D02*
Y-27300D01*
X148849D01*
X148755Y-26825D01*
X148202Y-25998D01*
X147376Y-25445D01*
X146900Y-25350D01*
D02*
G37*
G36*
X145900D02*
X145425Y-25445D01*
X144598Y-25998D01*
X144045Y-26825D01*
X143950Y-27300D01*
X145900D01*
Y-25350D01*
D02*
G37*
G36*
X165700D02*
Y-27300D01*
X167649D01*
X167555Y-26825D01*
X167002Y-25998D01*
X166175Y-25445D01*
X165700Y-25350D01*
D02*
G37*
G36*
X164700D02*
X164225Y-25445D01*
X163398Y-25998D01*
X162845Y-26825D01*
X162750Y-27300D01*
X164700D01*
Y-25350D01*
D02*
G37*
G36*
X-10400Y-19098D02*
Y-21047D01*
X-8450D01*
X-8545Y-20572D01*
X-9098Y-19745D01*
X-9924Y-19192D01*
X-10400Y-19098D01*
D02*
G37*
G36*
X-11400D02*
X-11875Y-19192D01*
X-12702Y-19745D01*
X-13255Y-20572D01*
X-13350Y-21047D01*
X-11400D01*
Y-19098D01*
D02*
G37*
G36*
X14649Y-18000D02*
X12700D01*
Y-19950D01*
X13175Y-19855D01*
X14002Y-19302D01*
X14555Y-18475D01*
X14649Y-18000D01*
D02*
G37*
G36*
X11700D02*
X9751D01*
X9845Y-18475D01*
X10398Y-19302D01*
X11225Y-19855D01*
X11700Y-19950D01*
Y-18000D01*
D02*
G37*
G36*
X188602Y-17118D02*
X180933D01*
Y-21244D01*
X187520D01*
X188285Y-20927D01*
X188602Y-20161D01*
Y-17118D01*
D02*
G37*
G36*
X179933D02*
X172264D01*
Y-20161D01*
X172581Y-20927D01*
X173347Y-21244D01*
X179933D01*
Y-17118D01*
D02*
G37*
G36*
X209269D02*
X201600D01*
Y-21244D01*
X208187D01*
X208952Y-20927D01*
X209269Y-20161D01*
Y-17118D01*
D02*
G37*
G36*
X200600D02*
X192931D01*
Y-20161D01*
X193248Y-20927D01*
X194013Y-21244D01*
X200600D01*
Y-17118D01*
D02*
G37*
G36*
X21100Y-18000D02*
X19150D01*
X19245Y-18475D01*
X19798Y-19302D01*
X20625Y-19855D01*
X21100Y-19950D01*
Y-18000D01*
D02*
G37*
G36*
X33100Y-17500D02*
X31150D01*
X31245Y-17975D01*
X31798Y-18802D01*
X32625Y-19355D01*
X33100Y-19450D01*
Y-17500D01*
D02*
G37*
G36*
X119650Y-17900D02*
X117700D01*
Y-19850D01*
X118175Y-19755D01*
X119002Y-19202D01*
X119555Y-18375D01*
X119650Y-17900D01*
D02*
G37*
G36*
X46600Y-17000D02*
X44651D01*
X44745Y-17475D01*
X45298Y-18302D01*
X46125Y-18855D01*
X46600Y-18949D01*
Y-17000D01*
D02*
G37*
G36*
X36050Y-17500D02*
X34100D01*
Y-19450D01*
X34576Y-19355D01*
X35402Y-18802D01*
X35955Y-17975D01*
X36050Y-17500D01*
D02*
G37*
G36*
X97900Y-17900D02*
X95951D01*
X96045Y-18375D01*
X96598Y-19202D01*
X97425Y-19755D01*
X97900Y-19850D01*
Y-17900D01*
D02*
G37*
G36*
X24049Y-18000D02*
X22100D01*
Y-19950D01*
X22576Y-19855D01*
X23402Y-19302D01*
X23955Y-18475D01*
X24049Y-18000D01*
D02*
G37*
G36*
X109200Y-16915D02*
Y-25300D01*
X117585D01*
X117346Y-23483D01*
X116451Y-21325D01*
X115248Y-19757D01*
X115165Y-19648D01*
X115512Y-19279D01*
X115648Y-19369D01*
X116225Y-19755D01*
X116700Y-19850D01*
Y-17900D01*
X114751D01*
X114845Y-18375D01*
X115203Y-18911D01*
X115289Y-19041D01*
X114920Y-19387D01*
X114806Y-19300D01*
X113175Y-18049D01*
X111017Y-17154D01*
X109200Y-16915D01*
D02*
G37*
G36*
X100849Y-17900D02*
X98900D01*
Y-19850D01*
X99375Y-19755D01*
X100202Y-19202D01*
X100755Y-18375D01*
X100849Y-17900D01*
D02*
G37*
G36*
X167936Y-17118D02*
X160267D01*
Y-21244D01*
X166853D01*
X167619Y-20927D01*
X167936Y-20161D01*
Y-17118D01*
D02*
G37*
G36*
X88500Y-21950D02*
Y-23900D01*
X90450D01*
X90355Y-23425D01*
X89802Y-22598D01*
X88976Y-22045D01*
X88500Y-21950D01*
D02*
G37*
G36*
X87500D02*
X87025Y-22045D01*
X86198Y-22598D01*
X85645Y-23425D01*
X85550Y-23900D01*
X87500D01*
Y-21950D01*
D02*
G37*
G36*
X54600Y-20251D02*
Y-22200D01*
X56550D01*
X56455Y-21724D01*
X55902Y-20898D01*
X55076Y-20345D01*
X54600Y-20251D01*
D02*
G37*
G36*
X53600D02*
X53125Y-20345D01*
X52298Y-20898D01*
X51745Y-21724D01*
X51651Y-22200D01*
X53600D01*
Y-20251D01*
D02*
G37*
G36*
X40600Y-22050D02*
Y-24000D01*
X42549D01*
X42455Y-23525D01*
X41902Y-22698D01*
X41076Y-22145D01*
X40600Y-22050D01*
D02*
G37*
G36*
X39600D02*
X39125Y-22145D01*
X38298Y-22698D01*
X37745Y-23525D01*
X37650Y-24000D01*
X39600D01*
Y-22050D01*
D02*
G37*
G36*
X-8450Y-22047D02*
X-10400D01*
Y-23997D01*
X-9924Y-23902D01*
X-9098Y-23350D01*
X-8545Y-22523D01*
X-8450Y-22047D01*
D02*
G37*
G36*
X-11400D02*
X-13350D01*
X-13255Y-22523D01*
X-12702Y-23350D01*
X-11875Y-23902D01*
X-11400Y-23997D01*
Y-22047D01*
D02*
G37*
G36*
X63000Y-20251D02*
X62525Y-20345D01*
X61698Y-20898D01*
X61145Y-21724D01*
X61050Y-22200D01*
X63000D01*
Y-20251D01*
D02*
G37*
G36*
X138600Y-17118D02*
X130931D01*
Y-20161D01*
X131248Y-20927D01*
X132013Y-21244D01*
X138600D01*
Y-17118D01*
D02*
G37*
G36*
X-1500Y-19550D02*
Y-21500D01*
X450D01*
X355Y-21024D01*
X-198Y-20198D01*
X-1025Y-19645D01*
X-1500Y-19550D01*
D02*
G37*
G36*
X159267Y-17118D02*
X151598D01*
Y-20161D01*
X151915Y-20927D01*
X152680Y-21244D01*
X159267D01*
Y-17118D01*
D02*
G37*
G36*
X147269D02*
X139600D01*
Y-21244D01*
X146187D01*
X146952Y-20927D01*
X147269Y-20161D01*
Y-17118D01*
D02*
G37*
G36*
X72400Y-20251D02*
X71925Y-20345D01*
X71098Y-20898D01*
X70545Y-21724D01*
X70451Y-22200D01*
X72400D01*
Y-20251D01*
D02*
G37*
G36*
X64000D02*
Y-22200D01*
X65949D01*
X65855Y-21724D01*
X65302Y-20898D01*
X64476Y-20345D01*
X64000Y-20251D01*
D02*
G37*
G36*
X-2500Y-19550D02*
X-2975Y-19645D01*
X-3802Y-20198D01*
X-4355Y-21024D01*
X-4450Y-21500D01*
X-2500D01*
Y-19550D01*
D02*
G37*
G36*
X73400Y-20251D02*
Y-22200D01*
X75349D01*
X75255Y-21724D01*
X74702Y-20898D01*
X73875Y-20345D01*
X73400Y-20251D01*
D02*
G37*
G36*
X-7200Y-28251D02*
X-7675Y-28345D01*
X-8502Y-28898D01*
X-9055Y-29724D01*
X-9149Y-30200D01*
X-7200D01*
Y-28251D01*
D02*
G37*
G36*
X176100Y-35750D02*
Y-37700D01*
X178050D01*
X177955Y-37225D01*
X177402Y-36398D01*
X176576Y-35845D01*
X176100Y-35750D01*
D02*
G37*
G36*
X175100D02*
X174625Y-35845D01*
X173798Y-36398D01*
X173245Y-37225D01*
X173151Y-37700D01*
X175100D01*
Y-35750D01*
D02*
G37*
G36*
X194900D02*
Y-37700D01*
X196850D01*
X196755Y-37225D01*
X196202Y-36398D01*
X195376Y-35845D01*
X194900Y-35750D01*
D02*
G37*
G36*
X193900D02*
X193425Y-35845D01*
X192598Y-36398D01*
X192045Y-37225D01*
X191951Y-37700D01*
X193900D01*
Y-35750D01*
D02*
G37*
G36*
X138500D02*
Y-37700D01*
X140450D01*
X140355Y-37225D01*
X139802Y-36398D01*
X138976Y-35845D01*
X138500Y-35750D01*
D02*
G37*
G36*
X137500D02*
X137025Y-35845D01*
X136198Y-36398D01*
X135645Y-37225D01*
X135550Y-37700D01*
X137500D01*
Y-35750D01*
D02*
G37*
G36*
X157300D02*
Y-37700D01*
X159249D01*
X159155Y-37225D01*
X158602Y-36398D01*
X157775Y-35845D01*
X157300Y-35750D01*
D02*
G37*
G36*
X156300D02*
X155825Y-35845D01*
X154998Y-36398D01*
X154445Y-37225D01*
X154350Y-37700D01*
X156300D01*
Y-35750D01*
D02*
G37*
G36*
X212700D02*
X212225Y-35845D01*
X211398Y-36398D01*
X210845Y-37225D01*
X210751Y-37700D01*
X212700D01*
Y-35750D01*
D02*
G37*
G36*
X108200Y-26300D02*
X99815D01*
X100054Y-28117D01*
X100949Y-30275D01*
X102371Y-32129D01*
X104225Y-33551D01*
X106383Y-34446D01*
X108200Y-34685D01*
Y-26300D01*
D02*
G37*
G36*
X238585D02*
X230200D01*
Y-34685D01*
X232017Y-34446D01*
X234175Y-33551D01*
X236029Y-32129D01*
X237451Y-30275D01*
X238346Y-28117D01*
X238585Y-26300D01*
D02*
G37*
G36*
X97900Y-32351D02*
X97425Y-32445D01*
X96598Y-32998D01*
X96045Y-33825D01*
X95951Y-34300D01*
X97900D01*
Y-32351D01*
D02*
G37*
G36*
X229200Y-26300D02*
X220815D01*
X221054Y-28117D01*
X221949Y-30275D01*
X223371Y-32129D01*
X225225Y-33551D01*
X227383Y-34446D01*
X229200Y-34685D01*
Y-26300D01*
D02*
G37*
G36*
X97900Y-35300D02*
X95951D01*
X96045Y-35775D01*
X96598Y-36602D01*
X97425Y-37155D01*
X97900Y-37249D01*
Y-35300D01*
D02*
G37*
G36*
X213700Y-35750D02*
Y-37700D01*
X215650D01*
X215555Y-37225D01*
X215002Y-36398D01*
X214176Y-35845D01*
X213700Y-35750D01*
D02*
G37*
G36*
X117585Y-26300D02*
X109200D01*
Y-34685D01*
X111017Y-34446D01*
X113175Y-33551D01*
X115029Y-32129D01*
X116451Y-30275D01*
X117346Y-28117D01*
X117585Y-26300D01*
D02*
G37*
G36*
X100849Y-35300D02*
X98900D01*
Y-37249D01*
X99375Y-37155D01*
X100202Y-36602D01*
X100755Y-35775D01*
X100849Y-35300D01*
D02*
G37*
G36*
X119700Y-35750D02*
Y-37700D01*
X121650D01*
X121555Y-37225D01*
X121002Y-36398D01*
X120176Y-35845D01*
X119700Y-35750D01*
D02*
G37*
G36*
X159249Y-38700D02*
X157300D01*
Y-40650D01*
X157775Y-40555D01*
X158602Y-40002D01*
X159155Y-39175D01*
X159249Y-38700D01*
D02*
G37*
G36*
X156300D02*
X154350D01*
X154445Y-39175D01*
X154998Y-40002D01*
X155825Y-40555D01*
X156300Y-40650D01*
Y-38700D01*
D02*
G37*
G36*
X178050D02*
X176100D01*
Y-40650D01*
X176576Y-40555D01*
X177402Y-40002D01*
X177955Y-39175D01*
X178050Y-38700D01*
D02*
G37*
G36*
X175100D02*
X173151D01*
X173245Y-39175D01*
X173798Y-40002D01*
X174625Y-40555D01*
X175100Y-40650D01*
Y-38700D01*
D02*
G37*
G36*
X121650D02*
X119700D01*
Y-40650D01*
X120176Y-40555D01*
X121002Y-40002D01*
X121555Y-39175D01*
X121650Y-38700D01*
D02*
G37*
G36*
X118700D02*
X116751D01*
X116845Y-39175D01*
X117398Y-40002D01*
X118225Y-40555D01*
X118700Y-40650D01*
Y-38700D01*
D02*
G37*
G36*
X140450D02*
X138500D01*
Y-40650D01*
X138976Y-40555D01*
X139802Y-40002D01*
X140355Y-39175D01*
X140450Y-38700D01*
D02*
G37*
G36*
X137500D02*
X135550D01*
X135645Y-39175D01*
X136198Y-40002D01*
X137025Y-40555D01*
X137500Y-40650D01*
Y-38700D01*
D02*
G37*
G36*
X193900D02*
X191951D01*
X192045Y-39175D01*
X192598Y-40002D01*
X193425Y-40555D01*
X193900Y-40650D01*
Y-38700D01*
D02*
G37*
G36*
X23357Y-33000D02*
X16958D01*
Y-39399D01*
X18260Y-39228D01*
X19940Y-38532D01*
X21383Y-37425D01*
X22489Y-35982D01*
X23185Y-34303D01*
X23357Y-33000D01*
D02*
G37*
G36*
X43130D02*
X36643D01*
Y-39488D01*
X42048D01*
X42813Y-39171D01*
X43130Y-38405D01*
Y-33000D01*
D02*
G37*
G36*
X118700Y-35750D02*
X118225Y-35845D01*
X117398Y-36398D01*
X116845Y-37225D01*
X116751Y-37700D01*
X118700D01*
Y-35750D01*
D02*
G37*
G36*
X15958Y-33000D02*
X9558D01*
X9730Y-34303D01*
X10425Y-35982D01*
X11532Y-37425D01*
X12975Y-38532D01*
X14655Y-39228D01*
X15958Y-39399D01*
Y-33000D01*
D02*
G37*
G36*
X212700Y-38700D02*
X210751D01*
X210845Y-39175D01*
X211398Y-40002D01*
X212225Y-40555D01*
X212700Y-40650D01*
Y-38700D01*
D02*
G37*
G36*
X196850D02*
X194900D01*
Y-40650D01*
X195376Y-40555D01*
X196202Y-40002D01*
X196755Y-39175D01*
X196850Y-38700D01*
D02*
G37*
G36*
X35642Y-33000D02*
X29155D01*
Y-38405D01*
X29472Y-39171D01*
X30237Y-39488D01*
X35642D01*
Y-33000D01*
D02*
G37*
G36*
X215650Y-38700D02*
X213700D01*
Y-40650D01*
X214176Y-40555D01*
X215002Y-40002D01*
X215555Y-39175D01*
X215650Y-38700D01*
D02*
G37*
G36*
X77100Y-28951D02*
X76625Y-29045D01*
X75798Y-29598D01*
X75245Y-30424D01*
X75151Y-30900D01*
X77100D01*
Y-28951D01*
D02*
G37*
G36*
X68700D02*
Y-30900D01*
X70649D01*
X70555Y-30424D01*
X70002Y-29598D01*
X69175Y-29045D01*
X68700Y-28951D01*
D02*
G37*
G36*
X127100Y-28300D02*
X125151D01*
X125245Y-28775D01*
X125798Y-29602D01*
X126625Y-30155D01*
X127100Y-30250D01*
Y-28300D01*
D02*
G37*
G36*
X78100Y-28951D02*
Y-30900D01*
X80050D01*
X79955Y-30424D01*
X79402Y-29598D01*
X78575Y-29045D01*
X78100Y-28951D01*
D02*
G37*
G36*
X58300D02*
X57825Y-29045D01*
X56998Y-29598D01*
X56445Y-30424D01*
X56350Y-30900D01*
X58300D01*
Y-28951D01*
D02*
G37*
G36*
X49900D02*
Y-30900D01*
X51850D01*
X51755Y-30424D01*
X51202Y-29598D01*
X50375Y-29045D01*
X49900Y-28951D01*
D02*
G37*
G36*
X67700D02*
X67225Y-29045D01*
X66398Y-29598D01*
X65845Y-30424D01*
X65750Y-30900D01*
X67700D01*
Y-28951D01*
D02*
G37*
G36*
X59300D02*
Y-30900D01*
X61250D01*
X61155Y-30424D01*
X60602Y-29598D01*
X59776Y-29045D01*
X59300Y-28951D01*
D02*
G37*
G36*
X130050Y-28300D02*
X128100D01*
Y-30250D01*
X128576Y-30155D01*
X129402Y-29602D01*
X129955Y-28775D01*
X130050Y-28300D01*
D02*
G37*
G36*
X186450D02*
X184500D01*
Y-30250D01*
X184976Y-30155D01*
X185802Y-29602D01*
X186355Y-28775D01*
X186450Y-28300D01*
D02*
G37*
G36*
X183500D02*
X181551D01*
X181645Y-28775D01*
X182198Y-29602D01*
X183025Y-30155D01*
X183500Y-30250D01*
Y-28300D01*
D02*
G37*
G36*
X205250D02*
X203300D01*
Y-30250D01*
X203776Y-30155D01*
X204602Y-29602D01*
X205155Y-28775D01*
X205250Y-28300D01*
D02*
G37*
G36*
X202300D02*
X200350D01*
X200445Y-28775D01*
X200998Y-29602D01*
X201825Y-30155D01*
X202300Y-30250D01*
Y-28300D01*
D02*
G37*
G36*
X148849D02*
X146900D01*
Y-30250D01*
X147376Y-30155D01*
X148202Y-29602D01*
X148755Y-28775D01*
X148849Y-28300D01*
D02*
G37*
G36*
X145900D02*
X143950D01*
X144045Y-28775D01*
X144598Y-29602D01*
X145425Y-30155D01*
X145900Y-30250D01*
Y-28300D01*
D02*
G37*
G36*
X167649D02*
X165700D01*
Y-30250D01*
X166175Y-30155D01*
X167002Y-29602D01*
X167555Y-28775D01*
X167649Y-28300D01*
D02*
G37*
G36*
X164700D02*
X162750D01*
X162845Y-28775D01*
X163398Y-29602D01*
X164225Y-30155D01*
X164700Y-30250D01*
Y-28300D01*
D02*
G37*
G36*
X48900Y-28951D02*
X48425Y-29045D01*
X47598Y-29598D01*
X47045Y-30424D01*
X46951Y-30900D01*
X48900D01*
Y-28951D01*
D02*
G37*
G36*
X67700Y-31900D02*
X65750D01*
X65845Y-32375D01*
X66398Y-33202D01*
X67225Y-33755D01*
X67700Y-33849D01*
Y-31900D01*
D02*
G37*
G36*
X61250D02*
X59300D01*
Y-33849D01*
X59776Y-33755D01*
X60602Y-33202D01*
X61155Y-32375D01*
X61250Y-31900D01*
D02*
G37*
G36*
X77100D02*
X75151D01*
X75245Y-32375D01*
X75798Y-33202D01*
X76625Y-33755D01*
X77100Y-33849D01*
Y-31900D01*
D02*
G37*
G36*
X70649D02*
X68700D01*
Y-33849D01*
X69175Y-33755D01*
X70002Y-33202D01*
X70555Y-32375D01*
X70649Y-31900D01*
D02*
G37*
G36*
X48900D02*
X46951D01*
X47045Y-32375D01*
X47598Y-33202D01*
X48425Y-33755D01*
X48900Y-33849D01*
Y-31900D01*
D02*
G37*
G36*
X98900Y-32351D02*
Y-34300D01*
X100849D01*
X100755Y-33825D01*
X100202Y-32998D01*
X99375Y-32445D01*
X98900Y-32351D01*
D02*
G37*
G36*
X58300Y-31900D02*
X56350D01*
X56445Y-32375D01*
X56998Y-33202D01*
X57825Y-33755D01*
X58300Y-33849D01*
Y-31900D01*
D02*
G37*
G36*
X51850D02*
X49900D01*
Y-33849D01*
X50375Y-33755D01*
X51202Y-33202D01*
X51755Y-32375D01*
X51850Y-31900D01*
D02*
G37*
G36*
X80050D02*
X78100D01*
Y-33849D01*
X78575Y-33755D01*
X79402Y-33202D01*
X79955Y-32375D01*
X80050Y-31900D01*
D02*
G37*
G36*
X13049Y-25500D02*
X11100D01*
Y-27666D01*
X11262Y-27927D01*
X10425Y-29017D01*
X9730Y-30697D01*
X9558Y-32000D01*
X15958D01*
Y-25601D01*
X14655Y-25772D01*
X13324Y-26324D01*
X13076Y-26090D01*
X12964Y-25932D01*
X13049Y-25500D01*
D02*
G37*
G36*
X35642Y-25512D02*
X30237D01*
X29472Y-25829D01*
X29155Y-26594D01*
Y-32000D01*
X35642D01*
Y-25512D01*
D02*
G37*
G36*
X42549Y-25000D02*
X37650D01*
X37653Y-25012D01*
X37242Y-25512D01*
X36643D01*
Y-32000D01*
X43130D01*
Y-26594D01*
X42813Y-25829D01*
X42526Y-25710D01*
X42455Y-25475D01*
X42549Y-25000D01*
D02*
G37*
G36*
X16958Y-25601D02*
Y-32000D01*
X23357D01*
X23185Y-30697D01*
X22489Y-29017D01*
X21383Y-27575D01*
X19940Y-26468D01*
X18260Y-25772D01*
X16958Y-25601D01*
D02*
G37*
G36*
X-4250Y-31200D02*
X-6200D01*
Y-33149D01*
X-5725Y-33055D01*
X-4898Y-32502D01*
X-4345Y-31675D01*
X-4250Y-31200D01*
D02*
G37*
G36*
X-7200D02*
X-9149D01*
X-9055Y-31675D01*
X-8502Y-32502D01*
X-7675Y-33055D01*
X-7200Y-33149D01*
Y-31200D01*
D02*
G37*
G36*
X5150D02*
X3200D01*
Y-33149D01*
X3675Y-33055D01*
X4502Y-32502D01*
X5055Y-31675D01*
X5150Y-31200D01*
D02*
G37*
G36*
X2200D02*
X250D01*
X345Y-31675D01*
X898Y-32502D01*
X1725Y-33055D01*
X2200Y-33149D01*
Y-31200D01*
D02*
G37*
G36*
X49549Y-17000D02*
X47600D01*
Y-18949D01*
X48076Y-18855D01*
X48902Y-18302D01*
X49455Y-17475D01*
X49549Y-17000D01*
D02*
G37*
G36*
X64000Y14549D02*
Y12600D01*
X65949D01*
X65855Y13076D01*
X65302Y13902D01*
X64476Y14455D01*
X64000Y14549D01*
D02*
G37*
G36*
X63000D02*
X62525Y14455D01*
X61698Y13902D01*
X61145Y13076D01*
X61050Y12600D01*
X63000D01*
Y14549D01*
D02*
G37*
G36*
X73400D02*
Y12600D01*
X75349D01*
X75255Y13076D01*
X74702Y13902D01*
X73875Y14455D01*
X73400Y14549D01*
D02*
G37*
G36*
X72400D02*
X71925Y14455D01*
X71098Y13902D01*
X70545Y13076D01*
X70451Y12600D01*
X72400D01*
Y14549D01*
D02*
G37*
G36*
X-17400Y14343D02*
X-23799D01*
X-23628Y13040D01*
X-22932Y11360D01*
X-21825Y9917D01*
X-20382Y8811D01*
X-18703Y8115D01*
X-17400Y7943D01*
Y14343D01*
D02*
G37*
G36*
X-10001D02*
X-16400D01*
Y7943D01*
X-15097Y8115D01*
X-13417Y8811D01*
X-11975Y9917D01*
X-10868Y11360D01*
X-10172Y13040D01*
X-10001Y14343D01*
D02*
G37*
G36*
X65949Y11600D02*
X64000D01*
Y9651D01*
X64476Y9745D01*
X65302Y10298D01*
X65855Y11125D01*
X65949Y11600D01*
D02*
G37*
G36*
X63000D02*
X61050D01*
X61145Y11125D01*
X61698Y10298D01*
X62525Y9745D01*
X63000Y9651D01*
Y11600D01*
D02*
G37*
G36*
X75349D02*
X73400D01*
Y9651D01*
X73875Y9745D01*
X74702Y10298D01*
X75255Y11125D01*
X75349Y11600D01*
D02*
G37*
G36*
X72400D02*
X70451D01*
X70545Y11125D01*
X71098Y10298D01*
X71925Y9745D01*
X72400Y9651D01*
Y11600D01*
D02*
G37*
G36*
X68700Y23249D02*
Y21300D01*
X70649D01*
X70555Y21776D01*
X70002Y22602D01*
X69175Y23155D01*
X68700Y23249D01*
D02*
G37*
G36*
X67700D02*
X67225Y23155D01*
X66398Y22602D01*
X65845Y21776D01*
X65750Y21300D01*
X67700D01*
Y23249D01*
D02*
G37*
G36*
X78100D02*
Y21300D01*
X80050D01*
X79955Y21776D01*
X79402Y22602D01*
X78575Y23155D01*
X78100Y23249D01*
D02*
G37*
G36*
X77100D02*
X76625Y23155D01*
X75798Y22602D01*
X75245Y21776D01*
X75151Y21300D01*
X77100D01*
Y23249D01*
D02*
G37*
G36*
X59300D02*
Y21300D01*
X61250D01*
X61155Y21776D01*
X60602Y22602D01*
X59776Y23155D01*
X59300Y23249D01*
D02*
G37*
G36*
X58300D02*
X57825Y23155D01*
X56998Y22602D01*
X56445Y21776D01*
X56350Y21300D01*
X58300D01*
Y23249D01*
D02*
G37*
G36*
X70649Y20300D02*
X68700D01*
Y18350D01*
X69175Y18445D01*
X70002Y18998D01*
X70555Y19825D01*
X70649Y20300D01*
D02*
G37*
G36*
X67700D02*
X65750D01*
X65845Y19825D01*
X66398Y18998D01*
X67225Y18445D01*
X67700Y18350D01*
Y20300D01*
D02*
G37*
G36*
X80050D02*
X78100D01*
Y18350D01*
X78575Y18445D01*
X79402Y18998D01*
X79955Y19825D01*
X80050Y20300D01*
D02*
G37*
G36*
X77100D02*
X75151D01*
X75245Y19825D01*
X75798Y18998D01*
X76625Y18445D01*
X77100Y18350D01*
Y20300D01*
D02*
G37*
G36*
X-16400Y21742D02*
Y15343D01*
X-10001D01*
X-10172Y16645D01*
X-10868Y18325D01*
X-11975Y19768D01*
X-13417Y20875D01*
X-15097Y21570D01*
X-16400Y21742D01*
D02*
G37*
G36*
X-17400Y21742D02*
X-18703Y21570D01*
X-20382Y20875D01*
X-21825Y19768D01*
X-22932Y18325D01*
X-23628Y16645D01*
X-23799Y15343D01*
X-17400D01*
Y21742D01*
D02*
G37*
G36*
X61250Y20300D02*
X59300D01*
Y18350D01*
X59776Y18445D01*
X60602Y18998D01*
X61155Y19825D01*
X61250Y20300D01*
D02*
G37*
G36*
X58300D02*
X56350D01*
X56445Y19825D01*
X56998Y18998D01*
X57825Y18445D01*
X58300Y18350D01*
Y20300D01*
D02*
G37*
G36*
X68700Y-11551D02*
Y-13500D01*
X70649D01*
X70555Y-13025D01*
X70002Y-12198D01*
X69175Y-11645D01*
X68700Y-11551D01*
D02*
G37*
G36*
X67700D02*
X67225Y-11645D01*
X66398Y-12198D01*
X65845Y-13025D01*
X65750Y-13500D01*
X67700D01*
Y-11551D01*
D02*
G37*
G36*
X78100D02*
Y-13500D01*
X80050D01*
X79955Y-13025D01*
X79402Y-12198D01*
X78575Y-11645D01*
X78100Y-11551D01*
D02*
G37*
G36*
X77100D02*
X76625Y-11645D01*
X75798Y-12198D01*
X75245Y-13025D01*
X75151Y-13500D01*
X77100D01*
Y-11551D01*
D02*
G37*
G36*
X5150Y-13800D02*
X3200D01*
Y-15750D01*
X3675Y-15655D01*
X4502Y-15102D01*
X5055Y-14275D01*
X5150Y-13800D01*
D02*
G37*
G36*
X2200D02*
X250D01*
X345Y-14275D01*
X898Y-15102D01*
X1725Y-15655D01*
X2200Y-15750D01*
Y-13800D01*
D02*
G37*
G36*
X59300Y-11551D02*
Y-13500D01*
X61250D01*
X61155Y-13025D01*
X60602Y-12198D01*
X59776Y-11645D01*
X59300Y-11551D01*
D02*
G37*
G36*
X58300D02*
X57825Y-11645D01*
X56998Y-12198D01*
X56445Y-13025D01*
X56350Y-13500D01*
X58300D01*
Y-11551D01*
D02*
G37*
G36*
X2200Y-10851D02*
X1725Y-10945D01*
X898Y-11498D01*
X345Y-12325D01*
X250Y-12800D01*
X2200D01*
Y-10851D01*
D02*
G37*
G36*
X63000Y-5800D02*
X61050D01*
X61145Y-6275D01*
X61698Y-7102D01*
X62525Y-7655D01*
X63000Y-7750D01*
Y-5800D01*
D02*
G37*
G36*
X56550D02*
X54600D01*
Y-7750D01*
X55076Y-7655D01*
X55902Y-7102D01*
X56455Y-6275D01*
X56550Y-5800D01*
D02*
G37*
G36*
X72400D02*
X70451D01*
X70545Y-6275D01*
X71098Y-7102D01*
X71925Y-7655D01*
X72400Y-7750D01*
Y-5800D01*
D02*
G37*
G36*
X65949D02*
X64000D01*
Y-7750D01*
X64476Y-7655D01*
X65302Y-7102D01*
X65855Y-6275D01*
X65949Y-5800D01*
D02*
G37*
G36*
X-17400Y-5342D02*
X-23888D01*
Y-10748D01*
X-23571Y-11513D01*
X-22806Y-11830D01*
X-17400D01*
Y-5342D01*
D02*
G37*
G36*
X3200Y-10851D02*
Y-12800D01*
X5150D01*
X5055Y-12325D01*
X4502Y-11498D01*
X3675Y-10945D01*
X3200Y-10851D01*
D02*
G37*
G36*
X53600Y-5800D02*
X51651D01*
X51745Y-6275D01*
X52298Y-7102D01*
X53125Y-7655D01*
X53600Y-7750D01*
Y-5800D01*
D02*
G37*
G36*
X-9912Y-5342D02*
X-16400D01*
Y-11830D01*
X-10994D01*
X-10229Y-11513D01*
X-9912Y-10748D01*
Y-5342D01*
D02*
G37*
G36*
X47600Y-14051D02*
Y-16000D01*
X49549D01*
X49455Y-15525D01*
X48902Y-14698D01*
X48076Y-14145D01*
X47600Y-14051D01*
D02*
G37*
G36*
X98900Y-14951D02*
Y-16900D01*
X100849D01*
X100755Y-16424D01*
X100202Y-15598D01*
X99375Y-15045D01*
X98900Y-14951D01*
D02*
G37*
G36*
X97900D02*
X97425Y-15045D01*
X96598Y-15598D01*
X96045Y-16424D01*
X95951Y-16900D01*
X97900D01*
Y-14951D01*
D02*
G37*
G36*
X117700D02*
Y-16900D01*
X119650D01*
X119555Y-16424D01*
X119002Y-15598D01*
X118175Y-15045D01*
X117700Y-14951D01*
D02*
G37*
G36*
X116700D02*
X116225Y-15045D01*
X115398Y-15598D01*
X114845Y-16424D01*
X114751Y-16900D01*
X116700D01*
Y-14951D01*
D02*
G37*
G36*
X12700Y-15051D02*
Y-17000D01*
X14649D01*
X14555Y-16524D01*
X14002Y-15698D01*
X13175Y-15145D01*
X12700Y-15051D01*
D02*
G37*
G36*
X11700D02*
X11225Y-15145D01*
X10398Y-15698D01*
X9845Y-16524D01*
X9751Y-17000D01*
X11700D01*
Y-15051D01*
D02*
G37*
G36*
X22100D02*
Y-17000D01*
X24049D01*
X23955Y-16524D01*
X23402Y-15698D01*
X22576Y-15145D01*
X22100Y-15051D01*
D02*
G37*
G36*
X21100D02*
X20625Y-15145D01*
X19798Y-15698D01*
X19245Y-16524D01*
X19150Y-17000D01*
X21100D01*
Y-15051D01*
D02*
G37*
G36*
X33100Y-14550D02*
X32625Y-14645D01*
X31798Y-15198D01*
X31245Y-16025D01*
X31150Y-16500D01*
X33100D01*
Y-14550D01*
D02*
G37*
G36*
X77100Y-14500D02*
X75151D01*
X75245Y-14975D01*
X75798Y-15802D01*
X76625Y-16355D01*
X77100Y-16450D01*
Y-14500D01*
D02*
G37*
G36*
X70649D02*
X68700D01*
Y-16450D01*
X69175Y-16355D01*
X70002Y-15802D01*
X70555Y-14975D01*
X70649Y-14500D01*
D02*
G37*
G36*
X46600Y-14051D02*
X46125Y-14145D01*
X45298Y-14698D01*
X44745Y-15525D01*
X44651Y-16000D01*
X46600D01*
Y-14051D01*
D02*
G37*
G36*
X80050Y-14500D02*
X78100D01*
Y-16450D01*
X78575Y-16355D01*
X79402Y-15802D01*
X79955Y-14975D01*
X80050Y-14500D01*
D02*
G37*
G36*
X58300D02*
X56350D01*
X56445Y-14975D01*
X56998Y-15802D01*
X57825Y-16355D01*
X58300Y-16450D01*
Y-14500D01*
D02*
G37*
G36*
X34100Y-14550D02*
Y-16500D01*
X36050D01*
X35955Y-16025D01*
X35402Y-15198D01*
X34576Y-14645D01*
X34100Y-14550D01*
D02*
G37*
G36*
X67700Y-14500D02*
X65750D01*
X65845Y-14975D01*
X66398Y-15802D01*
X67225Y-16355D01*
X67700Y-16450D01*
Y-14500D01*
D02*
G37*
G36*
X61250D02*
X59300D01*
Y-16450D01*
X59776Y-16355D01*
X60602Y-15802D01*
X61155Y-14975D01*
X61250Y-14500D01*
D02*
G37*
G36*
X77100Y2900D02*
X75151D01*
X75245Y2425D01*
X75798Y1598D01*
X76625Y1045D01*
X77100Y950D01*
Y2900D01*
D02*
G37*
G36*
X70649D02*
X68700D01*
Y950D01*
X69175Y1045D01*
X70002Y1598D01*
X70555Y2425D01*
X70649Y2900D01*
D02*
G37*
G36*
X80050D02*
X78100D01*
Y950D01*
X78575Y1045D01*
X79402Y1598D01*
X79955Y2425D01*
X80050Y2900D01*
D02*
G37*
G36*
X58300D02*
X56350D01*
X56445Y2425D01*
X56998Y1598D01*
X57825Y1045D01*
X58300Y950D01*
Y2900D01*
D02*
G37*
G36*
X67700D02*
X65750D01*
X65845Y2425D01*
X66398Y1598D01*
X67225Y1045D01*
X67700Y950D01*
Y2900D01*
D02*
G37*
G36*
X61250D02*
X59300D01*
Y950D01*
X59776Y1045D01*
X60602Y1598D01*
X61155Y2425D01*
X61250Y2900D01*
D02*
G37*
G36*
X78100Y5850D02*
Y3900D01*
X80050D01*
X79955Y4375D01*
X79402Y5202D01*
X78575Y5755D01*
X78100Y5850D01*
D02*
G37*
G36*
X77100D02*
X76625Y5755D01*
X75798Y5202D01*
X75245Y4375D01*
X75151Y3900D01*
X77100D01*
Y5850D01*
D02*
G37*
G36*
X59300D02*
Y3900D01*
X61250D01*
X61155Y4375D01*
X60602Y5202D01*
X59776Y5755D01*
X59300Y5850D01*
D02*
G37*
G36*
X58300D02*
X57825Y5755D01*
X56998Y5202D01*
X56445Y4375D01*
X56350Y3900D01*
X58300D01*
Y5850D01*
D02*
G37*
G36*
X68700D02*
Y3900D01*
X70649D01*
X70555Y4375D01*
X70002Y5202D01*
X69175Y5755D01*
X68700Y5850D01*
D02*
G37*
G36*
X67700D02*
X67225Y5755D01*
X66398Y5202D01*
X65845Y4375D01*
X65750Y3900D01*
X67700D01*
Y5850D01*
D02*
G37*
G36*
X72400Y-2850D02*
X71925Y-2945D01*
X71098Y-3498D01*
X70545Y-4324D01*
X70451Y-4800D01*
X72400D01*
Y-2850D01*
D02*
G37*
G36*
X64000D02*
Y-4800D01*
X65949D01*
X65855Y-4324D01*
X65302Y-3498D01*
X64476Y-2945D01*
X64000Y-2850D01*
D02*
G37*
G36*
X-17400Y2145D02*
X-22806D01*
X-23571Y1828D01*
X-23888Y1063D01*
Y-4343D01*
X-17400D01*
Y2145D01*
D02*
G37*
G36*
X73400Y-2850D02*
Y-4800D01*
X75349D01*
X75255Y-4324D01*
X74702Y-3498D01*
X73875Y-2945D01*
X73400Y-2850D01*
D02*
G37*
G36*
X53600D02*
X53125Y-2945D01*
X52298Y-3498D01*
X51745Y-4324D01*
X51651Y-4800D01*
X53600D01*
Y-2850D01*
D02*
G37*
G36*
X75349Y-5800D02*
X73400D01*
Y-7750D01*
X73875Y-7655D01*
X74702Y-7102D01*
X75255Y-6275D01*
X75349Y-5800D01*
D02*
G37*
G36*
X63000Y-2850D02*
X62525Y-2945D01*
X61698Y-3498D01*
X61145Y-4324D01*
X61050Y-4800D01*
X63000D01*
Y-2850D01*
D02*
G37*
G36*
X54600D02*
Y-4800D01*
X56550D01*
X56455Y-4324D01*
X55902Y-3498D01*
X55076Y-2945D01*
X54600Y-2850D01*
D02*
G37*
G36*
X-10994Y2145D02*
X-16400D01*
Y-4343D01*
X-9912D01*
Y1063D01*
X-10229Y1828D01*
X-10994Y2145D01*
D02*
G37*
G36*
X196500Y290050D02*
Y288100D01*
X198450D01*
X198355Y288576D01*
X197802Y289402D01*
X196976Y289955D01*
X196500Y290050D01*
D02*
G37*
G36*
X195500D02*
X195025Y289955D01*
X194198Y289402D01*
X193645Y288576D01*
X193551Y288100D01*
X195500D01*
Y290050D01*
D02*
G37*
G36*
X218000D02*
X217525Y289955D01*
X216698Y289402D01*
X216145Y288576D01*
X216051Y288100D01*
X218000D01*
Y290050D01*
D02*
G37*
G36*
X229200Y294885D02*
X227383Y294646D01*
X225225Y293751D01*
X223371Y292329D01*
X221949Y290475D01*
X221273Y288843D01*
X220710Y288792D01*
X220302Y289402D01*
X219476Y289955D01*
X219000Y290050D01*
Y287600D01*
Y285151D01*
X219476Y285245D01*
X220274Y285779D01*
X220448Y285751D01*
X220797Y285638D01*
X221054Y283683D01*
X221949Y281525D01*
X223371Y279671D01*
X225225Y278249D01*
X227383Y277354D01*
X229200Y277115D01*
Y286000D01*
Y294885D01*
D02*
G37*
G36*
X109200Y295085D02*
Y286700D01*
X117585D01*
X117346Y288517D01*
X116451Y290675D01*
X115029Y292529D01*
X113175Y293951D01*
X111017Y294846D01*
X109200Y295085D01*
D02*
G37*
G36*
X178050Y285600D02*
X176100D01*
Y283650D01*
X176576Y283745D01*
X177402Y284298D01*
X177955Y285125D01*
X178050Y285600D01*
D02*
G37*
G36*
X175100D02*
X173151D01*
X173245Y285125D01*
X173798Y284298D01*
X174625Y283745D01*
X175100Y283650D01*
Y285600D01*
D02*
G37*
G36*
X138600Y285649D02*
Y283700D01*
X140550D01*
X140455Y284175D01*
X139902Y285002D01*
X139076Y285555D01*
X138600Y285649D01*
D02*
G37*
G36*
X137600D02*
X137125Y285555D01*
X136298Y285002D01*
X135745Y284175D01*
X135651Y283700D01*
X137600D01*
Y285649D01*
D02*
G37*
G36*
X175100Y288549D02*
X174625Y288455D01*
X173798Y287902D01*
X173245Y287075D01*
X173151Y286600D01*
X175100D01*
Y288549D01*
D02*
G37*
G36*
X230200Y294885D02*
Y286500D01*
X238585D01*
X238346Y288317D01*
X237451Y290475D01*
X236029Y292329D01*
X234175Y293751D01*
X232017Y294646D01*
X230200Y294885D01*
D02*
G37*
G36*
X108200Y295085D02*
X106383Y294846D01*
X104225Y293951D01*
X102371Y292529D01*
X100949Y290675D01*
X100054Y288517D01*
X99815Y286700D01*
X108200D01*
Y295085D01*
D02*
G37*
G36*
X176100Y288549D02*
Y286600D01*
X178050D01*
X177955Y287075D01*
X177402Y287902D01*
X176576Y288455D01*
X176100Y288549D01*
D02*
G37*
G36*
X195500Y287100D02*
X193551D01*
X193645Y286625D01*
X194198Y285798D01*
X195025Y285245D01*
X195500Y285151D01*
Y287100D01*
D02*
G37*
G36*
X218000D02*
X216051D01*
X216145Y286625D01*
X216698Y285798D01*
X217525Y285245D01*
X218000Y285151D01*
Y287100D01*
D02*
G37*
G36*
X198450D02*
X196500D01*
Y285151D01*
X196976Y285245D01*
X197802Y285798D01*
X198355Y286625D01*
X198450Y287100D01*
D02*
G37*
G36*
X186102Y298382D02*
X178433D01*
Y294256D01*
X185020D01*
X185785Y294573D01*
X186102Y295339D01*
Y298382D01*
D02*
G37*
G36*
X177433D02*
X169764D01*
Y295339D01*
X170081Y294573D01*
X170847Y294256D01*
X177433D01*
Y298382D01*
D02*
G37*
G36*
X206769D02*
X199100D01*
Y294256D01*
X205687D01*
X206452Y294573D01*
X206769Y295339D01*
Y298382D01*
D02*
G37*
G36*
X198100D02*
X190431D01*
Y295339D01*
X190748Y294573D01*
X191513Y294256D01*
X198100D01*
Y298382D01*
D02*
G37*
G36*
X144769D02*
X137100D01*
Y294256D01*
X143687D01*
X144452Y294573D01*
X144769Y295339D01*
Y298382D01*
D02*
G37*
G36*
X136100D02*
X128431D01*
Y295339D01*
X128748Y294573D01*
X129513Y294256D01*
X136100D01*
Y298382D01*
D02*
G37*
G36*
X165436D02*
X157767D01*
Y294256D01*
X164353D01*
X165119Y294573D01*
X165436Y295339D01*
Y298382D01*
D02*
G37*
G36*
X156767D02*
X149098D01*
Y295339D01*
X149415Y294573D01*
X150180Y294256D01*
X156767D01*
Y298382D01*
D02*
G37*
G36*
X142600Y232450D02*
Y230500D01*
X144550D01*
X144455Y230976D01*
X143902Y231802D01*
X143076Y232355D01*
X142600Y232450D01*
D02*
G37*
G36*
X142797Y241953D02*
X138671D01*
Y234284D01*
X141714D01*
X142480Y234601D01*
X142797Y235366D01*
Y241953D01*
D02*
G37*
G36*
X153050Y236400D02*
X151100D01*
Y234451D01*
X151576Y234545D01*
X152402Y235098D01*
X152955Y235925D01*
X153050Y236400D01*
D02*
G37*
G36*
X150100D02*
X148151D01*
X148245Y235925D01*
X148798Y235098D01*
X149625Y234545D01*
X150100Y234451D01*
Y236400D01*
D02*
G37*
G36*
X141600Y232450D02*
X141125Y232355D01*
X140298Y231802D01*
X139745Y230976D01*
X139650Y230500D01*
X141600D01*
Y232450D01*
D02*
G37*
G36*
Y229500D02*
X139650D01*
X139745Y229025D01*
X140298Y228198D01*
X141125Y227645D01*
X141600Y227551D01*
Y229500D01*
D02*
G37*
G36*
X144550D02*
X142600D01*
Y227551D01*
X143076Y227645D01*
X143902Y228198D01*
X144455Y229025D01*
X144550Y229500D01*
D02*
G37*
G36*
X141714Y250622D02*
X138671D01*
Y242953D01*
X142797D01*
Y249539D01*
X142480Y250305D01*
X141714Y250622D01*
D02*
G37*
G36*
X151100Y239350D02*
Y237400D01*
X153050D01*
X152955Y237876D01*
X152402Y238702D01*
X151576Y239255D01*
X151100Y239350D01*
D02*
G37*
G36*
X150100D02*
X149625Y239255D01*
X148798Y238702D01*
X148245Y237876D01*
X148151Y237400D01*
X150100D01*
Y239350D01*
D02*
G37*
G36*
X145100Y194000D02*
X143150D01*
Y192051D01*
X143626Y192145D01*
X144453Y192698D01*
X145005Y193525D01*
X145100Y194000D01*
D02*
G37*
G36*
X142150D02*
X140201D01*
X140296Y193525D01*
X140848Y192698D01*
X141675Y192145D01*
X142150Y192051D01*
Y194000D01*
D02*
G37*
G36*
X151100Y187150D02*
Y185200D01*
X153050D01*
X152955Y185676D01*
X152402Y186502D01*
X151576Y187055D01*
X151100Y187150D01*
D02*
G37*
G36*
X150100D02*
X149625Y187055D01*
X148798Y186502D01*
X148245Y185676D01*
X148151Y185200D01*
X150100D01*
Y187150D01*
D02*
G37*
G36*
X142150Y196950D02*
X141675Y196855D01*
X140848Y196302D01*
X140296Y195475D01*
X140201Y195000D01*
X142150D01*
Y196950D01*
D02*
G37*
G36*
X153050Y201600D02*
X151100D01*
Y199651D01*
X151576Y199745D01*
X152402Y200298D01*
X152955Y201125D01*
X153050Y201600D01*
D02*
G37*
G36*
X143150Y196950D02*
Y195000D01*
X145100D01*
X145005Y195475D01*
X144453Y196302D01*
X143626Y196855D01*
X143150Y196950D01*
D02*
G37*
G36*
X150100Y201600D02*
X148151D01*
X148245Y201125D01*
X148798Y200298D01*
X149625Y199745D01*
X150100Y199651D01*
Y201600D01*
D02*
G37*
G36*
X146049Y177000D02*
X144100D01*
Y175050D01*
X144576Y175145D01*
X145402Y175698D01*
X145955Y176525D01*
X146049Y177000D01*
D02*
G37*
G36*
X143100D02*
X141150D01*
X141245Y176525D01*
X141798Y175698D01*
X142625Y175145D01*
X143100Y175050D01*
Y177000D01*
D02*
G37*
G36*
X151100Y169749D02*
Y167800D01*
X153050D01*
X152955Y168275D01*
X152402Y169102D01*
X151576Y169655D01*
X151100Y169749D01*
D02*
G37*
G36*
X150100D02*
X149625Y169655D01*
X148798Y169102D01*
X148245Y168275D01*
X148151Y167800D01*
X150100D01*
Y169749D01*
D02*
G37*
G36*
Y184200D02*
X148151D01*
X148245Y183725D01*
X148798Y182898D01*
X149625Y182345D01*
X150100Y182250D01*
Y184200D01*
D02*
G37*
G36*
X153050D02*
X151100D01*
Y182250D01*
X151576Y182345D01*
X152402Y182898D01*
X152955Y183725D01*
X153050Y184200D01*
D02*
G37*
G36*
X143100Y179949D02*
X142625Y179855D01*
X141798Y179302D01*
X141245Y178475D01*
X141150Y178000D01*
X143100D01*
Y179949D01*
D02*
G37*
G36*
X144100D02*
Y178000D01*
X146049D01*
X145955Y178475D01*
X145402Y179302D01*
X144576Y179855D01*
X144100Y179949D01*
D02*
G37*
G36*
X150100Y219000D02*
X148151D01*
X148245Y218525D01*
X148798Y217698D01*
X149625Y217145D01*
X150100Y217051D01*
Y219000D01*
D02*
G37*
G36*
X153050D02*
X151100D01*
Y217051D01*
X151576Y217145D01*
X152402Y217698D01*
X152955Y218525D01*
X153050Y219000D01*
D02*
G37*
G36*
X151100Y221950D02*
Y220000D01*
X153050D01*
X152955Y220476D01*
X152402Y221302D01*
X151576Y221855D01*
X151100Y221950D01*
D02*
G37*
G36*
X150100D02*
X149625Y221855D01*
X148798Y221302D01*
X148245Y220476D01*
X148151Y220000D01*
X150100D01*
Y221950D01*
D02*
G37*
G36*
Y204550D02*
X149625Y204455D01*
X148798Y203902D01*
X148245Y203076D01*
X148151Y202600D01*
X150100D01*
Y204550D01*
D02*
G37*
G36*
X151100D02*
Y202600D01*
X153050D01*
X152955Y203076D01*
X152402Y203902D01*
X151576Y204455D01*
X151100Y204550D01*
D02*
G37*
G36*
X142600Y214450D02*
Y212500D01*
X144550D01*
X144455Y212976D01*
X143902Y213802D01*
X143076Y214355D01*
X142600Y214450D01*
D02*
G37*
G36*
X141600D02*
X141125Y214355D01*
X140298Y213802D01*
X139745Y212976D01*
X139650Y212500D01*
X141600D01*
Y214450D01*
D02*
G37*
G36*
X144550Y211500D02*
X142600D01*
Y209550D01*
X143076Y209645D01*
X143902Y210198D01*
X144455Y211025D01*
X144550Y211500D01*
D02*
G37*
G36*
X141600D02*
X139650D01*
X139745Y211025D01*
X140298Y210198D01*
X141125Y209645D01*
X141600Y209550D01*
Y211500D01*
D02*
G37*
G36*
X125100Y274200D02*
X123151D01*
X123245Y273725D01*
X123798Y272898D01*
X124625Y272345D01*
X125100Y272251D01*
Y274200D01*
D02*
G37*
G36*
X151100Y274149D02*
Y272200D01*
X153050D01*
X152955Y272675D01*
X152402Y273502D01*
X151576Y274055D01*
X151100Y274149D01*
D02*
G37*
G36*
X128050Y274200D02*
X126100D01*
Y272251D01*
X126576Y272345D01*
X127402Y272898D01*
X127955Y273725D01*
X128050Y274200D01*
D02*
G37*
G36*
X150100Y274149D02*
X149625Y274055D01*
X148798Y273502D01*
X148245Y272675D01*
X148151Y272200D01*
X150100D01*
Y274149D01*
D02*
G37*
G36*
X126100Y277150D02*
Y275200D01*
X128050D01*
X127955Y275676D01*
X127402Y276502D01*
X126576Y277055D01*
X126100Y277150D01*
D02*
G37*
G36*
X125100D02*
X124625Y277055D01*
X123798Y276502D01*
X123245Y275676D01*
X123151Y275200D01*
X125100D01*
Y277150D01*
D02*
G37*
G36*
X137600Y266950D02*
X137125Y266855D01*
X136298Y266302D01*
X135745Y265476D01*
X135651Y265000D01*
X137600D01*
Y266950D01*
D02*
G37*
G36*
X138600D02*
Y265000D01*
X140550D01*
X140455Y265476D01*
X139902Y266302D01*
X139076Y266855D01*
X138600Y266950D01*
D02*
G37*
G36*
X153050Y271200D02*
X151100D01*
Y269250D01*
X151576Y269345D01*
X152402Y269898D01*
X152955Y270725D01*
X153050Y271200D01*
D02*
G37*
G36*
X150100D02*
X148151D01*
X148245Y270725D01*
X148798Y269898D01*
X149625Y269345D01*
X150100Y269250D01*
Y271200D01*
D02*
G37*
G36*
X163600Y281349D02*
Y279400D01*
X165550D01*
X165455Y279875D01*
X164902Y280702D01*
X164076Y281255D01*
X163600Y281349D01*
D02*
G37*
G36*
X207600Y280450D02*
X207125Y280355D01*
X206298Y279802D01*
X205745Y278976D01*
X205650Y278500D01*
X207600D01*
Y280450D01*
D02*
G37*
G36*
X186100D02*
Y278500D01*
X188049D01*
X187955Y278976D01*
X187402Y279802D01*
X186575Y280355D01*
X186100Y280450D01*
D02*
G37*
G36*
X162600Y281349D02*
X162125Y281255D01*
X161298Y280702D01*
X160745Y279875D01*
X160651Y279400D01*
X162600D01*
Y281349D01*
D02*
G37*
G36*
X208600Y280450D02*
Y278500D01*
X210549D01*
X210455Y278976D01*
X209902Y279802D01*
X209075Y280355D01*
X208600Y280450D01*
D02*
G37*
G36*
X140550Y282700D02*
X138600D01*
Y280750D01*
X139076Y280845D01*
X139902Y281398D01*
X140455Y282225D01*
X140550Y282700D01*
D02*
G37*
G36*
X137600D02*
X135651D01*
X135745Y282225D01*
X136298Y281398D01*
X137125Y280845D01*
X137600Y280750D01*
Y282700D01*
D02*
G37*
G36*
X185100Y280450D02*
X184625Y280355D01*
X183798Y279802D01*
X183245Y278976D01*
X183150Y278500D01*
X185100D01*
Y280450D01*
D02*
G37*
G36*
X210549Y277500D02*
X208600D01*
Y275551D01*
X209075Y275645D01*
X209902Y276198D01*
X210455Y277025D01*
X210549Y277500D01*
D02*
G37*
G36*
X207600D02*
X205650D01*
X205745Y277025D01*
X206298Y276198D01*
X207125Y275645D01*
X207600Y275551D01*
Y277500D01*
D02*
G37*
G36*
X165550Y278400D02*
X163600D01*
Y276450D01*
X164076Y276545D01*
X164902Y277098D01*
X165455Y277925D01*
X165550Y278400D01*
D02*
G37*
G36*
X162600D02*
X160651D01*
X160745Y277925D01*
X161298Y277098D01*
X162125Y276545D01*
X162600Y276450D01*
Y278400D01*
D02*
G37*
G36*
X188049Y277500D02*
X186100D01*
Y275551D01*
X186575Y275645D01*
X187402Y276198D01*
X187955Y277025D01*
X188049Y277500D01*
D02*
G37*
G36*
X185100D02*
X183150D01*
X183245Y277025D01*
X183798Y276198D01*
X184625Y275645D01*
X185100Y275551D01*
Y277500D01*
D02*
G37*
G36*
X238585Y285500D02*
X230200D01*
Y277115D01*
X232017Y277354D01*
X234175Y278249D01*
X236029Y279671D01*
X237451Y281525D01*
X238346Y283683D01*
X238585Y285500D01*
D02*
G37*
G36*
X108200Y285700D02*
X99815D01*
X100054Y283883D01*
X100949Y281725D01*
X102371Y279871D01*
X104225Y278449D01*
X106383Y277554D01*
X108200Y277315D01*
Y285700D01*
D02*
G37*
G36*
X117585D02*
X109200D01*
Y277315D01*
X111017Y277554D01*
X113175Y278449D01*
X115029Y279871D01*
X116451Y281725D01*
X117346Y283883D01*
X117585Y285700D01*
D02*
G37*
G36*
X153050Y253800D02*
X151100D01*
Y251851D01*
X151576Y251945D01*
X152402Y252498D01*
X152955Y253325D01*
X153050Y253800D01*
D02*
G37*
G36*
X150100D02*
X148151D01*
X148245Y253325D01*
X148798Y252498D01*
X149625Y251945D01*
X150100Y251851D01*
Y253800D01*
D02*
G37*
G36*
X140550Y264000D02*
X138600D01*
Y262051D01*
X139076Y262145D01*
X139902Y262698D01*
X140455Y263525D01*
X140550Y264000D01*
D02*
G37*
G36*
X137600D02*
X135651D01*
X135745Y263525D01*
X136298Y262698D01*
X137125Y262145D01*
X137600Y262051D01*
Y264000D01*
D02*
G37*
G36*
X151100Y256750D02*
Y254800D01*
X153050D01*
X152955Y255276D01*
X152402Y256102D01*
X151576Y256655D01*
X151100Y256750D01*
D02*
G37*
G36*
X150100D02*
X149625Y256655D01*
X148798Y256102D01*
X148245Y255276D01*
X148151Y254800D01*
X150100D01*
Y256750D01*
D02*
G37*
%LPD*%
D10*
X23440Y213100D02*
D03*
X15960D02*
D03*
X23440Y136300D02*
D03*
X15960D02*
D03*
X23440Y59500D02*
D03*
X15960D02*
D03*
X334860Y126500D02*
D03*
X342340D02*
D03*
X332740Y165600D02*
D03*
X325260D02*
D03*
D11*
X264206Y222000D02*
D03*
X239994D02*
D03*
X263100Y195000D02*
D03*
X238887D02*
D03*
X250494Y168000D02*
D03*
X274706D02*
D03*
X274994Y79500D02*
D03*
X299206D02*
D03*
X324694Y259400D02*
D03*
X348906D02*
D03*
D12*
X136600Y298882D02*
D03*
Y315024D02*
D03*
X177933Y298882D02*
D03*
Y315024D02*
D03*
X157267Y298882D02*
D03*
Y315024D02*
D03*
X198600Y298882D02*
D03*
Y315024D02*
D03*
X139100Y-16618D02*
D03*
Y-476D02*
D03*
X159767Y-16618D02*
D03*
Y-476D02*
D03*
X180433Y-16618D02*
D03*
Y-476D02*
D03*
X201100Y-16618D02*
D03*
Y-476D02*
D03*
D13*
X153229Y61053D02*
D03*
X169371D02*
D03*
X138171Y242453D02*
D03*
X122029D02*
D03*
D14*
X251600Y99740D02*
D03*
Y92260D02*
D03*
X313000Y238740D02*
D03*
Y231260D02*
D03*
X312100Y194760D02*
D03*
Y202240D02*
D03*
X331300Y282140D02*
D03*
Y274660D02*
D03*
X344000Y165540D02*
D03*
Y158060D02*
D03*
D15*
X12600Y230976D02*
D03*
X17600D02*
D03*
X22600D02*
D03*
X27600D02*
D03*
X12600Y253024D02*
D03*
X17600D02*
D03*
X22600D02*
D03*
X27600D02*
D03*
X12600Y155876D02*
D03*
X17600D02*
D03*
X22600D02*
D03*
X27600D02*
D03*
X12600Y177924D02*
D03*
X17600D02*
D03*
X22600D02*
D03*
X27600D02*
D03*
X12600Y80776D02*
D03*
X17600D02*
D03*
X22600D02*
D03*
X27600D02*
D03*
X12600Y102824D02*
D03*
X17600D02*
D03*
X22600D02*
D03*
X27600D02*
D03*
D16*
X271037Y110000D02*
D03*
X263163D02*
D03*
X271037Y118000D02*
D03*
X263163D02*
D03*
X271037Y126000D02*
D03*
X263163D02*
D03*
X271037Y134000D02*
D03*
X263163D02*
D03*
X271037Y142000D02*
D03*
X263163D02*
D03*
X271037Y150000D02*
D03*
X263163D02*
D03*
X333037Y145000D02*
D03*
X325163D02*
D03*
X338563Y310600D02*
D03*
X346437D02*
D03*
X346237Y296800D02*
D03*
X338363D02*
D03*
X338263Y328400D02*
D03*
X346137D02*
D03*
X313863Y319600D02*
D03*
X321737D02*
D03*
X285537Y341100D02*
D03*
X277663D02*
D03*
X303637Y341200D02*
D03*
X295763D02*
D03*
X296063Y330350D02*
D03*
X303937D02*
D03*
X303637Y319500D02*
D03*
X295763D02*
D03*
D17*
X90200Y123900D02*
D03*
X73200D02*
D03*
X90200Y92900D02*
D03*
X73200D02*
D03*
D18*
X279100Y16063D02*
D03*
Y23937D02*
D03*
X348000Y277263D02*
D03*
Y285137D02*
D03*
X341800Y184963D02*
D03*
Y192837D02*
D03*
X339700Y285137D02*
D03*
Y277263D02*
D03*
X321540Y329753D02*
D03*
Y337627D02*
D03*
D19*
X289100Y193087D02*
D03*
X294100D02*
D03*
X299100D02*
D03*
X304100D02*
D03*
X289100Y236000D02*
D03*
X294100D02*
D03*
X299100D02*
D03*
X331600Y201587D02*
D03*
X336600D02*
D03*
X341600D02*
D03*
X346600D02*
D03*
X331600Y244500D02*
D03*
X336600D02*
D03*
X341600D02*
D03*
D20*
X304100Y236000D02*
D03*
X346600Y244500D02*
D03*
D21*
X61400Y180400D02*
X77094Y164706D01*
X32200Y180400D02*
X61400D01*
X58100Y212100D02*
X86872Y183328D01*
X58100Y212100D02*
Y230500D01*
X33250Y255350D02*
X58100Y230500D01*
X77094Y164706D02*
X109057D01*
X112800D01*
X86872Y183328D02*
X109057D01*
X112900D01*
D22*
X30700Y115400D02*
X61384Y146084D01*
X30700Y105900D02*
Y115400D01*
X61384Y146084D02*
X109057D01*
D23*
X22300Y80476D02*
X22600Y80776D01*
X22300Y74000D02*
Y80476D01*
X20600Y72300D02*
X22300Y74000D01*
X20600Y70100D02*
Y72300D01*
X22600Y149900D02*
Y155876D01*
X20600Y147900D02*
X22600Y149900D01*
X20600Y146050D02*
Y147900D01*
X247100Y-26000D02*
X259100D01*
X279100Y-6000D01*
Y16063D01*
X341800Y192837D02*
Y201387D01*
X268600Y332500D02*
X269063D01*
X268600D02*
Y333031D01*
X269584Y334016D01*
X269063Y332500D02*
X277663Y341100D01*
D24*
X25802Y59500D02*
X30600Y64298D01*
Y70100D01*
X27600Y80776D02*
X30600Y77776D01*
Y70100D02*
Y77776D01*
X10600Y62498D02*
X13598Y59500D01*
X10600Y62498D02*
Y70100D01*
X25802Y136300D02*
X30600Y141098D01*
Y146050D01*
X27600Y155876D02*
X30600Y152876D01*
Y146050D02*
Y152876D01*
X10600Y139298D02*
X13598Y136300D01*
X10600Y139298D02*
Y146050D01*
Y153876D02*
X12600Y155876D01*
X10600Y146050D02*
Y153876D01*
X25802Y213100D02*
X30600Y217898D01*
Y222000D01*
X10600Y218200D02*
X13598Y215202D01*
X10600Y218200D02*
Y222000D01*
X22600Y224000D02*
Y230976D01*
X20600Y222000D02*
X22600Y224000D01*
X27600Y230976D02*
X30600Y227976D01*
Y222000D02*
Y227976D01*
X10600Y228976D02*
X12600Y230976D01*
X10600Y222000D02*
Y228976D01*
X271510Y179590D02*
X276313Y174787D01*
X271510Y179590D02*
X271510D01*
X271451Y179532D02*
X271510Y179590D01*
X233631Y179532D02*
X271451D01*
X227999Y173899D02*
X233631Y179532D01*
X209900Y187285D02*
Y191302D01*
X223243Y198643D02*
X231132Y206532D01*
X217242Y198643D02*
X223243D01*
X209900Y191302D02*
X217242Y198643D01*
X231132Y206532D02*
X259100D01*
X263100Y195000D02*
Y202532D01*
X259100Y206532D02*
X263100Y202532D01*
X264206Y222000D02*
Y229894D01*
X260568Y233531D02*
X264206Y229894D01*
X223632Y233531D02*
X260568D01*
X209900Y219800D02*
X223632Y233531D01*
X209900Y206970D02*
Y219800D01*
X264206Y215606D02*
Y222000D01*
X236886Y154214D02*
X241100Y150000D01*
X221699Y154214D02*
X236886D01*
X241100Y150000D02*
X263163D01*
X239112Y129017D02*
X250130Y118000D01*
X221699Y129017D02*
X239112D01*
X250130Y118000D02*
X263163D01*
X238470Y135317D02*
X247786Y126000D01*
X209900Y135317D02*
X238470D01*
X247786Y126000D02*
X263163D01*
X245443Y134000D02*
X263163D01*
X237827Y141616D02*
X245443Y134000D01*
X243100Y142000D02*
X263100D01*
X237185Y147915D02*
X243100Y142000D01*
X221699Y141616D02*
X237827D01*
X209900Y147915D02*
X237185D01*
X221699Y173899D02*
X227999D01*
X251500Y167600D02*
X252100Y167000D01*
X237472Y193584D02*
X238887Y195000D01*
X221699Y193584D02*
X237472D01*
X223100Y222000D02*
X239994D01*
X221699Y220599D02*
X223100Y222000D01*
X221699Y214844D02*
Y220599D01*
X321540Y337627D02*
X332673D01*
X338363Y331937D01*
Y330253D02*
Y331937D01*
X346137Y328400D02*
X350906D01*
X346537Y310500D02*
X350800D01*
X346437Y310600D02*
X346537Y310500D01*
X338563Y297000D02*
Y310600D01*
X338363Y296800D02*
X338563Y297000D01*
X313000Y238740D02*
Y239241D01*
X319700Y245941D01*
X341800Y269100D02*
X348000Y275300D01*
Y277263D01*
X332959Y205941D02*
X334200Y204700D01*
X334100Y201100D02*
X334200Y201200D01*
X337563Y184963D02*
X341800D01*
X334200Y181600D02*
X337563Y184963D01*
X334200Y174000D02*
Y181600D01*
X332740Y172540D02*
X334200Y174000D01*
X332740Y165600D02*
Y172540D01*
X325260Y160040D02*
Y165600D01*
Y160040D02*
X326400Y158900D01*
X343160D01*
X344000Y165540D02*
Y173800D01*
X344200Y174000D01*
X325260Y165600D02*
Y172940D01*
X324200Y174000D02*
X325260Y172940D01*
X324200Y174000D02*
Y181800D01*
X334100Y191700D01*
Y201100D01*
X209900Y122718D02*
X238382D01*
X250600Y110500D01*
X262663D01*
X263163Y110000D01*
X306840Y238740D02*
X313000D01*
X304100Y236000D02*
X306840Y238740D01*
X289100Y236000D02*
X294100D01*
Y249000D01*
X289100Y193087D02*
X294100D01*
Y199500D01*
X296600Y202000D01*
X314100D02*
X318041Y205941D01*
X319700D01*
X304100Y193087D02*
X309687D01*
X312541Y195941D02*
X319700D01*
X299100Y236000D02*
Y240000D01*
X343160Y158900D02*
X343600Y158460D01*
X299100Y188500D02*
Y193087D01*
Y188500D02*
X300600Y187000D01*
X307600D01*
X315600Y179000D01*
Y158500D02*
Y179000D01*
Y158500D02*
X325163Y148937D01*
Y145000D02*
Y148937D01*
X333037Y128323D02*
X334860Y126500D01*
X342340D02*
X343600Y127760D01*
Y134500D01*
X323600Y63500D02*
X323600Y63500D01*
X271037Y118000D02*
X285600D01*
X333600Y70000D01*
Y63500D02*
Y70000D01*
X271037Y110000D02*
X287943D01*
X323600Y74343D01*
Y63500D02*
Y74343D01*
X283257Y126000D02*
X337600Y71657D01*
Y69500D02*
Y71657D01*
Y69500D02*
X343600Y63500D01*
X315085Y105485D02*
X327615D01*
X333251Y99849D01*
X316227Y110000D02*
X331600D01*
X341850Y99750D01*
X271037Y150000D02*
X276227D01*
X316227Y110000D01*
X271037Y142000D02*
X278571D01*
X315085Y105485D01*
X271037Y134000D02*
X280914D01*
X316414Y98500D01*
X271037Y126000D02*
X283257D01*
X285537Y341100D02*
X295663D01*
X295763Y341200D01*
X303637Y330650D02*
Y341200D01*
Y330650D02*
X303937Y330350D01*
X296063Y319800D02*
Y330350D01*
X295763Y319500D02*
X296063Y319800D01*
X303637Y319500D02*
X313763D01*
X313863Y319600D01*
X321737D02*
Y329556D01*
X321540Y329753D02*
X321737Y329556D01*
X346237Y286900D02*
Y296800D01*
Y286900D02*
X348000Y285137D01*
X331300Y282140D02*
X333100Y283940D01*
Y284500D01*
X333737Y285137D01*
X291600Y249000D02*
X294100D01*
X10600Y70100D02*
Y78776D01*
X12600Y80776D01*
X263100Y142000D02*
X264100Y141000D01*
X341850Y99750D02*
X344850D01*
X341800Y244300D02*
Y269100D01*
X333037Y128323D02*
Y145000D01*
X333737Y285137D02*
X348000D01*
X333251Y98692D02*
Y99849D01*
X309687Y193087D02*
X312541Y195941D01*
X316414Y98500D02*
X323600D01*
X209900Y167600D02*
X251500D01*
X252100D01*
X296600Y202000D02*
X314100D01*
X319700Y205941D02*
X332959D01*
X343600Y134500D02*
Y158460D01*
X334200Y201200D02*
Y204700D01*
X13598Y213100D02*
Y215202D01*
X276313Y167000D02*
Y174787D01*
D25*
X221699Y116419D02*
X229681D01*
X246100Y100000D01*
X287600D02*
X300600Y87000D01*
X246100Y100000D02*
X287600D01*
X300600Y63500D02*
Y87000D01*
D26*
X348550Y201350D02*
D03*
D27*
X334450Y201300D02*
D03*
D28*
X27135Y293965D02*
D03*
X310600D02*
D03*
Y10500D02*
D03*
X27135D02*
D03*
D29*
X346053Y340953D02*
D03*
X346053Y-37000D02*
D03*
X-31900Y340953D02*
D03*
Y-37000D02*
D03*
D30*
X19557Y336200D02*
D03*
X36143Y-32500D02*
D03*
D31*
X39243Y336200D02*
D03*
X-16900Y308795D02*
D03*
X16457Y-32500D02*
D03*
X-16900Y14842D02*
D03*
Y252685D02*
D03*
Y177764D02*
D03*
Y102842D02*
D03*
D32*
Y289110D02*
D03*
Y-4843D02*
D03*
Y233000D02*
D03*
Y158079D02*
D03*
Y83157D02*
D03*
D33*
X108700Y325570D02*
D03*
Y286200D02*
D03*
X229700Y325370D02*
D03*
Y286000D02*
D03*
Y13570D02*
D03*
Y-25800D02*
D03*
X108700Y13570D02*
D03*
Y-25800D02*
D03*
D34*
X129234Y128000D02*
D03*
X200100D02*
D03*
X129100Y110000D02*
D03*
X199966D02*
D03*
X128887Y90978D02*
D03*
X199753D02*
D03*
D35*
X280600Y63500D02*
D03*
X290600D02*
D03*
X323600Y63500D02*
D03*
X333600D02*
D03*
X323600Y99041D02*
D03*
X333600D02*
D03*
X10600Y222000D02*
D03*
X20600D02*
D03*
X10600Y146050D02*
D03*
X20600D02*
D03*
X10600Y70100D02*
D03*
X20600D02*
D03*
X324200Y174000D02*
D03*
X334200D02*
D03*
X343600Y134500D02*
D03*
X333600D02*
D03*
D36*
X300600Y63500D02*
D03*
X343600Y63500D02*
D03*
Y99041D02*
D03*
X30600Y222000D02*
D03*
Y146050D02*
D03*
Y70100D02*
D03*
X344200Y174000D02*
D03*
X323600Y134500D02*
D03*
D37*
X221699Y214844D02*
D03*
D38*
Y116419D02*
D03*
X209900Y206970D02*
D03*
X221699Y193584D02*
D03*
X209900Y187285D02*
D03*
X221699Y173899D02*
D03*
X209900Y167600D02*
D03*
X221699Y154214D02*
D03*
X209900Y147915D02*
D03*
X221699Y141616D02*
D03*
X209900Y135317D02*
D03*
X221699Y129017D02*
D03*
X209900Y122718D02*
D03*
Y110120D02*
D03*
Y95947D02*
D03*
X221699Y103821D02*
D03*
D39*
X109057Y220572D02*
D03*
Y201950D02*
D03*
Y183328D02*
D03*
Y164706D02*
D03*
Y146084D02*
D03*
Y127462D02*
D03*
Y108840D02*
D03*
Y90218D02*
D03*
D40*
X319700Y195941D02*
D03*
Y205941D02*
D03*
Y223500D02*
D03*
Y245941D02*
D03*
D41*
X290600Y145500D02*
D03*
Y154000D02*
D03*
Y162500D02*
D03*
X302100Y159500D02*
D03*
Y151667D02*
D03*
Y143833D02*
D03*
Y136000D02*
D03*
X247100Y-26000D02*
D03*
X217300Y95000D02*
D03*
Y76200D02*
D03*
X227700Y86600D02*
D03*
X256900Y57400D02*
D03*
X258900Y36600D02*
D03*
X246500Y67800D02*
D03*
X227700D02*
D03*
X238100Y57400D02*
D03*
X248500Y47000D02*
D03*
X208900Y67800D02*
D03*
X219300Y57400D02*
D03*
X229700Y47000D02*
D03*
X210900D02*
D03*
X244900Y245100D02*
D03*
X-10400Y335453D02*
D03*
X900Y326700D02*
D03*
X-2500Y335400D02*
D03*
X6900D02*
D03*
X15100Y321000D02*
D03*
X19700Y326700D02*
D03*
X10300D02*
D03*
X5600Y318000D02*
D03*
X32500Y321000D02*
D03*
X37200Y326700D02*
D03*
X27800D02*
D03*
X23100Y321000D02*
D03*
X50000Y318000D02*
D03*
X54700Y326700D02*
D03*
X45300D02*
D03*
X40600Y321000D02*
D03*
X85600Y213600D02*
D03*
X94300Y208900D02*
D03*
Y218300D02*
D03*
X85600Y223000D02*
D03*
X106800Y252700D02*
D03*
Y243300D02*
D03*
X115500Y229200D02*
D03*
X106800Y233900D02*
D03*
X115200Y259200D02*
D03*
X97800D02*
D03*
X89100Y263900D02*
D03*
X71800Y252700D02*
D03*
X89200D02*
D03*
X80500Y248000D02*
D03*
X97900D02*
D03*
X89200Y243300D02*
D03*
X97900Y238600D02*
D03*
Y229200D02*
D03*
X89200Y233900D02*
D03*
X80500Y238600D02*
D03*
Y229200D02*
D03*
X54300Y282700D02*
D03*
X71700D02*
D03*
X63000Y278000D02*
D03*
X80400D02*
D03*
X71700Y273300D02*
D03*
X80400Y268600D02*
D03*
Y259200D02*
D03*
X71700Y263900D02*
D03*
X63000Y268600D02*
D03*
X54300Y273300D02*
D03*
X63000Y259200D02*
D03*
X54300Y310200D02*
D03*
X71700D02*
D03*
X63000Y305500D02*
D03*
X80400D02*
D03*
X71700Y300800D02*
D03*
X80400Y296100D02*
D03*
Y286700D02*
D03*
X71700Y291400D02*
D03*
X63000Y296100D02*
D03*
X54300Y300800D02*
D03*
X63000Y286700D02*
D03*
X54300Y291400D02*
D03*
X96500Y338400D02*
D03*
X77700D02*
D03*
X88100Y328000D02*
D03*
X98500Y317600D02*
D03*
X58900Y338400D02*
D03*
X69300Y328000D02*
D03*
X79700Y317600D02*
D03*
X60900D02*
D03*
X239700D02*
D03*
X258500D02*
D03*
X248100Y328000D02*
D03*
X237700Y338400D02*
D03*
X277300Y317600D02*
D03*
X266900Y328000D02*
D03*
X256500Y338400D02*
D03*
X217100Y338900D02*
D03*
X198300D02*
D03*
X208700Y328500D02*
D03*
X219100Y318100D02*
D03*
X179500Y338900D02*
D03*
X189900Y328500D02*
D03*
X160700Y338900D02*
D03*
X171100Y328500D02*
D03*
X141900Y338900D02*
D03*
X152300Y328500D02*
D03*
X125649Y338900D02*
D03*
X133500Y328500D02*
D03*
X263100Y295600D02*
D03*
X273500Y306000D02*
D03*
X263100Y276800D02*
D03*
X273500Y287200D02*
D03*
Y268400D02*
D03*
X253300Y255500D02*
D03*
X183100D02*
D03*
X234500D02*
D03*
X215700D02*
D03*
X226100Y245100D02*
D03*
X196900Y255500D02*
D03*
X207300Y245100D02*
D03*
X171245Y214346D02*
D03*
X183745Y204146D02*
D03*
Y169345D02*
D03*
Y186746D02*
D03*
X171245Y179545D02*
D03*
Y196946D02*
D03*
Y249146D02*
D03*
X183745Y238946D02*
D03*
X171245Y231746D02*
D03*
X183745Y221546D02*
D03*
X171245Y75146D02*
D03*
X183745Y64946D02*
D03*
Y30145D02*
D03*
Y47545D02*
D03*
X171245Y40345D02*
D03*
X183745Y82345D02*
D03*
X171245Y162145D02*
D03*
X183745Y151945D02*
D03*
X171245Y144746D02*
D03*
X127600Y11570D02*
D03*
X119749Y21970D02*
D03*
X146400Y11570D02*
D03*
X136000Y21970D02*
D03*
X165200Y11570D02*
D03*
X154800Y21970D02*
D03*
X184000Y11570D02*
D03*
X173600Y21970D02*
D03*
X202800Y11570D02*
D03*
X192400Y21970D02*
D03*
X211200D02*
D03*
X119200Y1170D02*
D03*
Y-38200D02*
D03*
X202800Y-27800D02*
D03*
X213200Y-38200D02*
D03*
X184000Y-27800D02*
D03*
X194400Y-38200D02*
D03*
X165200Y-27800D02*
D03*
X175600Y-38200D02*
D03*
X146400Y-27800D02*
D03*
X156800Y-38200D02*
D03*
X117200Y-17400D02*
D03*
X127600Y-27800D02*
D03*
X138000Y-38200D02*
D03*
X98400Y-34800D02*
D03*
Y-17400D02*
D03*
X88000Y-24400D02*
D03*
X218500Y287600D02*
D03*
X208100Y278000D02*
D03*
X196000Y287600D02*
D03*
X185600Y278000D02*
D03*
X175600Y286100D02*
D03*
X163100Y278900D02*
D03*
X125600Y274700D02*
D03*
X138100Y283200D02*
D03*
X142100Y212000D02*
D03*
X150600Y219500D02*
D03*
X142100Y230000D02*
D03*
X150600Y271700D02*
D03*
Y236900D02*
D03*
Y254300D02*
D03*
X138100Y264500D02*
D03*
X150600Y149900D02*
D03*
X143600Y159500D02*
D03*
X150600Y202100D02*
D03*
Y167300D02*
D03*
Y184700D02*
D03*
X143600Y177500D02*
D03*
X142650Y194500D02*
D03*
X143100Y142000D02*
D03*
X150600Y80300D02*
D03*
Y45500D02*
D03*
X134000Y55600D02*
D03*
X119900Y46900D02*
D03*
X134000Y73000D02*
D03*
X119900Y64300D02*
D03*
X134000Y38200D02*
D03*
X105800Y55600D02*
D03*
X91700Y46900D02*
D03*
X105800Y73000D02*
D03*
X91700Y64300D02*
D03*
X105800Y38200D02*
D03*
X-6700Y-30700D02*
D03*
X-10900Y-21547D02*
D03*
X-2000Y-22000D02*
D03*
X2700Y-30700D02*
D03*
Y-13300D02*
D03*
X10600Y-25000D02*
D03*
X12200Y-17500D02*
D03*
X21600D02*
D03*
X25600Y-25000D02*
D03*
X33600Y-17000D02*
D03*
X40100Y-24500D02*
D03*
X49400Y-31400D02*
D03*
X47100Y-16500D02*
D03*
X58800Y-31400D02*
D03*
X68200D02*
D03*
X77600D02*
D03*
X54100Y-22700D02*
D03*
Y-5300D02*
D03*
X58800Y-14000D02*
D03*
Y3400D02*
D03*
X63500Y-5300D02*
D03*
X68200Y3400D02*
D03*
X77600D02*
D03*
X72900Y-5300D02*
D03*
X68200Y-14000D02*
D03*
X63500Y-22700D02*
D03*
X77600Y-14000D02*
D03*
X72900Y-22700D02*
D03*
X54100Y29500D02*
D03*
X58800Y20800D02*
D03*
Y38200D02*
D03*
X63500Y29500D02*
D03*
X68200Y38200D02*
D03*
X77600D02*
D03*
X72900Y29500D02*
D03*
X68200Y20800D02*
D03*
X63500Y12100D02*
D03*
X77600Y20800D02*
D03*
X72900Y12100D02*
D03*
Y46900D02*
D03*
X77600Y55600D02*
D03*
X63500Y46900D02*
D03*
X68200Y55600D02*
D03*
X72900Y64300D02*
D03*
X77600Y73000D02*
D03*
X61050Y116000D02*
D03*
X58800Y107800D02*
D03*
X54100Y99100D02*
D03*
X58800Y90400D02*
D03*
X63500Y81700D02*
D03*
X68200Y73000D02*
D03*
X63500Y64300D02*
D03*
X58800Y73000D02*
D03*
X54100Y81700D02*
D03*
X58800Y55600D02*
D03*
X54100Y64300D02*
D03*
Y46900D02*
D03*
X350906Y328400D02*
D03*
X350800Y310500D02*
D03*
X350600Y248400D02*
D03*
X349700Y201500D02*
D03*
X299100Y240000D02*
D03*
X63500Y99100D02*
D03*
D42*
X-2800Y104472D02*
D03*
X-6700D02*
D03*
X1100D02*
D03*
X5000D02*
D03*
X-2800Y179394D02*
D03*
X-6700D02*
D03*
X1100D02*
D03*
X5000D02*
D03*
Y254315D02*
D03*
X1100D02*
D03*
X-6700D02*
D03*
X-2800D02*
D03*
D43*
X269584Y334016D02*
D03*
%TF.MD5,756b5e5cde5f0fd7e405b04642696d70*%
M02*
