G04 Layer_Color=2752767*
%FSLAX26Y26*%
%MOIN*%
%TF.FileFunction,Drawing*%
%TF.Part,Single*%
G01*
G75*
%TA.AperFunction,NonConductor*%
%ADD53C,0.005000*%
%ADD114C,0.006667*%
%ADD115C,0.004000*%
D53*
X3741000Y-1689527D02*
Y-1649527D01*
X3781000D01*
Y-1689527D01*
X3741000D01*
X3641000D02*
Y-1649527D01*
X3681000D01*
Y-1689527D01*
X3641000D01*
X3541000D02*
Y-1649527D01*
X3581000D01*
Y-1689527D01*
X3541000D01*
X590354Y-3324528D02*
X570354Y-3284528D01*
X610354D01*
X590354Y-3324528D01*
X3425000D02*
X3405000Y-3284528D01*
X3445000D01*
X3425000Y-3324528D01*
Y-489882D02*
X3405000Y-449882D01*
X3445000D01*
X3425000Y-489882D01*
X590354D02*
X570354Y-449882D01*
X610354D01*
X590354Y-489882D01*
X711425Y-67528D02*
X721425Y-57528D01*
X731425D01*
X721425Y-47528D01*
X731425Y-37528D01*
X721425D01*
X711425Y-27527D01*
X701425Y-37528D01*
X691425D01*
X701425Y-47528D01*
X691425Y-57528D01*
X701425D01*
X711425Y-67528D01*
X514575D02*
X524575Y-57528D01*
X534575D01*
X524575Y-47528D01*
X534575Y-37528D01*
X524575D01*
X514575Y-27527D01*
X504575Y-37528D01*
X494575D01*
X504575Y-47528D01*
X494575Y-57528D01*
X504575D01*
X514575Y-67528D01*
X1386000Y-173827D02*
X1396000Y-153827D01*
X1386000Y-133827D01*
X1406000Y-143827D01*
X1426000Y-133827D01*
X1416000Y-153827D01*
X1426000Y-173827D01*
X1406000Y-163827D01*
X1386000Y-173827D01*
Y-567528D02*
X1396000Y-547528D01*
X1386000Y-527528D01*
X1406000Y-537528D01*
X1426000Y-527528D01*
X1416000Y-547528D01*
X1426000Y-567528D01*
X1406000Y-557528D01*
X1386000Y-567528D01*
X2596000Y-175827D02*
X2606000Y-155827D01*
X2596000Y-135827D01*
X2616000Y-145827D01*
X2636000Y-135827D01*
X2626000Y-155827D01*
X2636000Y-175827D01*
X2616000Y-165827D01*
X2596000Y-175827D01*
Y-569528D02*
X2606000Y-549528D01*
X2596000Y-529528D01*
X2616000Y-539528D01*
X2636000Y-529528D01*
X2626000Y-549528D01*
X2636000Y-569528D01*
X2616000Y-559528D01*
X2596000Y-569528D01*
Y-3293827D02*
X2606000Y-3273827D01*
X2596000Y-3253827D01*
X2616000Y-3263827D01*
X2636000Y-3253827D01*
X2626000Y-3273827D01*
X2636000Y-3293827D01*
X2616000Y-3283827D01*
X2596000Y-3293827D01*
Y-3687528D02*
X2606000Y-3667528D01*
X2596000Y-3647528D01*
X2616000Y-3657528D01*
X2636000Y-3647528D01*
X2626000Y-3667528D01*
X2636000Y-3687528D01*
X2616000Y-3677528D01*
X2596000Y-3687528D01*
X1386000Y-3293827D02*
X1396000Y-3273827D01*
X1386000Y-3253827D01*
X1406000Y-3263827D01*
X1426000Y-3253827D01*
X1416000Y-3273827D01*
X1426000Y-3293827D01*
X1406000Y-3283827D01*
X1386000Y-3293827D01*
Y-3687528D02*
X1396000Y-3667528D01*
X1386000Y-3647528D01*
X1406000Y-3657528D01*
X1426000Y-3647528D01*
X1416000Y-3667528D01*
X1426000Y-3687528D01*
X1406000Y-3677528D01*
X1386000Y-3687528D01*
X1601339Y-2139528D02*
Y-2149528D01*
X1621339D01*
Y-2139528D01*
X1631339D01*
Y-2119528D01*
X1621339D01*
Y-2109528D01*
X1601339D01*
Y-2119528D01*
X1591339D01*
Y-2139528D01*
X1601339D01*
X2310000D02*
Y-2149528D01*
X2330000D01*
Y-2139528D01*
X2340000D01*
Y-2119528D01*
X2330000D01*
Y-2109528D01*
X2310000D01*
Y-2119528D01*
X2300000D01*
Y-2139528D01*
X2310000D01*
X1600000Y-2319528D02*
Y-2329528D01*
X1620000D01*
Y-2319528D01*
X1630000D01*
Y-2299528D01*
X1620000D01*
Y-2289528D01*
X1600000D01*
Y-2299528D01*
X1590000D01*
Y-2319528D01*
X1600000D01*
X2308661D02*
Y-2329528D01*
X2328661D01*
Y-2319528D01*
X2338661D01*
Y-2299528D01*
X2328661D01*
Y-2289528D01*
X2308661D01*
Y-2299528D01*
X2298661D01*
Y-2319528D01*
X2308661D01*
X1597874Y-2509747D02*
Y-2519747D01*
X1617874D01*
Y-2509747D01*
X1627874D01*
Y-2489747D01*
X1617874D01*
Y-2479747D01*
X1597874D01*
Y-2489747D01*
X1587874D01*
Y-2509747D01*
X1597874D01*
X2306535D02*
Y-2519747D01*
X2326535D01*
Y-2509747D01*
X2336535D01*
Y-2489747D01*
X2326535D01*
Y-2479747D01*
X2306535D01*
Y-2489747D01*
X2296535D01*
Y-2509747D01*
X2306535D01*
X150000Y-902677D02*
X160000Y-892677D01*
X170000D01*
X160000Y-882677D01*
X170000Y-872677D01*
X160000D01*
X150000Y-862677D01*
X140000Y-872677D01*
X130000D01*
X140000Y-882677D01*
X130000Y-892677D01*
X140000D01*
X150000Y-902677D01*
Y-1099527D02*
X160000Y-1089527D01*
X170000D01*
X160000Y-1079527D01*
X170000Y-1069527D01*
X160000D01*
X150000Y-1059527D01*
X140000Y-1069527D01*
X130000D01*
X140000Y-1079527D01*
X130000Y-1089527D01*
X140000D01*
X150000Y-1099527D01*
X2515992Y-1281086D02*
Y-1241086D01*
X2555992D01*
Y-1281086D01*
X2515992D01*
Y-2265338D02*
X2525992D01*
X2535992Y-2255338D01*
X2545992Y-2265338D01*
X2555992D01*
Y-2255338D01*
X2545992Y-2245338D01*
X2555992Y-2235338D01*
Y-2225338D01*
X2545992D01*
X2535992Y-2235338D01*
X2525992Y-2225338D01*
X2515992D01*
Y-2235338D01*
X2525992Y-2245338D01*
X2515992Y-2255338D01*
Y-2265338D01*
X2398000Y-1359827D02*
X2408000D01*
X2418000Y-1349827D01*
X2428000Y-1359827D01*
X2438000D01*
Y-1349827D01*
X2428000Y-1339827D01*
X2438000Y-1329827D01*
Y-1319827D01*
X2428000D01*
X2418000Y-1329827D01*
X2408000Y-1319827D01*
X2398000D01*
Y-1329827D01*
X2408000Y-1339827D01*
X2398000Y-1349827D01*
Y-1359827D01*
X2515992Y-1493685D02*
X2525992D01*
X2535992Y-1483685D01*
X2545992Y-1493685D01*
X2555992D01*
Y-1483685D01*
X2545992Y-1473685D01*
X2555992Y-1463685D01*
Y-1453685D01*
X2545992D01*
X2535992Y-1463685D01*
X2525992Y-1453685D01*
X2515992D01*
Y-1463685D01*
X2525992Y-1473685D01*
X2515992Y-1483685D01*
Y-1493685D01*
X2398000Y-1556677D02*
X2408000D01*
X2418000Y-1546677D01*
X2428000Y-1556677D01*
X2438000D01*
Y-1546677D01*
X2428000Y-1536677D01*
X2438000Y-1526677D01*
Y-1516677D01*
X2428000D01*
X2418000Y-1526677D01*
X2408000Y-1516677D01*
X2398000D01*
Y-1526677D01*
X2408000Y-1536677D01*
X2398000Y-1546677D01*
Y-1556677D01*
X2515992Y-1690535D02*
X2525992D01*
X2535992Y-1680535D01*
X2545992Y-1690535D01*
X2555992D01*
Y-1680535D01*
X2545992Y-1670535D01*
X2555992Y-1660535D01*
Y-1650535D01*
X2545992D01*
X2535992Y-1660535D01*
X2525992Y-1650535D01*
X2515992D01*
Y-1660535D01*
X2525992Y-1670535D01*
X2515992Y-1680535D01*
Y-1690535D01*
X2398000Y-1753527D02*
X2408000D01*
X2418000Y-1743527D01*
X2428000Y-1753527D01*
X2438000D01*
Y-1743527D01*
X2428000Y-1733527D01*
X2438000Y-1723527D01*
Y-1713527D01*
X2428000D01*
X2418000Y-1723527D01*
X2408000Y-1713527D01*
X2398000D01*
Y-1723527D01*
X2408000Y-1733527D01*
X2398000Y-1743527D01*
Y-1753527D01*
X2515992Y-1887386D02*
X2525992D01*
X2535992Y-1877386D01*
X2545992Y-1887386D01*
X2555992D01*
Y-1877386D01*
X2545992Y-1867386D01*
X2555992Y-1857386D01*
Y-1847386D01*
X2545992D01*
X2535992Y-1857386D01*
X2525992Y-1847386D01*
X2515992D01*
Y-1857386D01*
X2525992Y-1867386D01*
X2515992Y-1877386D01*
Y-1887386D01*
X2398000Y-1950378D02*
X2408000D01*
X2418000Y-1940378D01*
X2428000Y-1950378D01*
X2438000D01*
Y-1940378D01*
X2428000Y-1930378D01*
X2438000Y-1920378D01*
Y-1910378D01*
X2428000D01*
X2418000Y-1920378D01*
X2408000Y-1910378D01*
X2398000D01*
Y-1920378D01*
X2408000Y-1930378D01*
X2398000Y-1940378D01*
Y-1950378D01*
X2515992Y-2013370D02*
X2525992D01*
X2535992Y-2003370D01*
X2545992Y-2013370D01*
X2555992D01*
Y-2003370D01*
X2545992Y-1993370D01*
X2555992Y-1983370D01*
Y-1973370D01*
X2545992D01*
X2535992Y-1983370D01*
X2525992Y-1973370D01*
X2515992D01*
Y-1983370D01*
X2525992Y-1993370D01*
X2515992Y-2003370D01*
Y-2013370D01*
X2398000Y-2076362D02*
X2408000D01*
X2418000Y-2066362D01*
X2428000Y-2076362D01*
X2438000D01*
Y-2066362D01*
X2428000Y-2056362D01*
X2438000Y-2046362D01*
Y-2036362D01*
X2428000D01*
X2418000Y-2046362D01*
X2408000Y-2036362D01*
X2398000D01*
Y-2046362D01*
X2408000Y-2056362D01*
X2398000Y-2066362D01*
Y-2076362D01*
X2515992Y-2139354D02*
X2525992D01*
X2535992Y-2129354D01*
X2545992Y-2139354D01*
X2555992D01*
Y-2129354D01*
X2545992Y-2119354D01*
X2555992Y-2109354D01*
Y-2099354D01*
X2545992D01*
X2535992Y-2109354D01*
X2525992Y-2099354D01*
X2515992D01*
Y-2109354D01*
X2525992Y-2119354D01*
X2515992Y-2129354D01*
Y-2139354D01*
X2398000Y-2202347D02*
X2408000D01*
X2418000Y-2192347D01*
X2428000Y-2202347D01*
X2438000D01*
Y-2192347D01*
X2428000Y-2182347D01*
X2438000Y-2172347D01*
Y-2162347D01*
X2428000D01*
X2418000Y-2172347D01*
X2408000Y-2162347D01*
X2398000D01*
Y-2172347D01*
X2408000Y-2182347D01*
X2398000Y-2192347D01*
Y-2202347D01*
Y-2328331D02*
X2408000D01*
X2418000Y-2318331D01*
X2428000Y-2328331D01*
X2438000D01*
Y-2318331D01*
X2428000Y-2308331D01*
X2438000Y-2298331D01*
Y-2288331D01*
X2428000D01*
X2418000Y-2298331D01*
X2408000Y-2288331D01*
X2398000D01*
Y-2298331D01*
X2408000Y-2308331D01*
X2398000Y-2318331D01*
Y-2328331D01*
Y-2470063D02*
X2408000D01*
X2418000Y-2460063D01*
X2428000Y-2470063D01*
X2438000D01*
Y-2460063D01*
X2428000Y-2450063D01*
X2438000Y-2440063D01*
Y-2430063D01*
X2428000D01*
X2418000Y-2440063D01*
X2408000Y-2430063D01*
X2398000D01*
Y-2440063D01*
X2408000Y-2450063D01*
X2398000Y-2460063D01*
Y-2470063D01*
X2515992Y-2391323D02*
X2525992D01*
X2535992Y-2381323D01*
X2545992Y-2391323D01*
X2555992D01*
Y-2381323D01*
X2545992Y-2371323D01*
X2555992Y-2361323D01*
Y-2351323D01*
X2545992D01*
X2535992Y-2361323D01*
X2525992Y-2351323D01*
X2515992D01*
Y-2361323D01*
X2525992Y-2371323D01*
X2515992Y-2381323D01*
Y-2391323D01*
X1389575Y-1203803D02*
X1409575Y-1183803D01*
X1429575Y-1203803D01*
X1409575Y-1223803D01*
X1389575Y-1203803D01*
Y-1390024D02*
X1409575Y-1370024D01*
X1429575Y-1390024D01*
X1409575Y-1410024D01*
X1389575Y-1390024D01*
Y-1576244D02*
X1409575Y-1556244D01*
X1429575Y-1576244D01*
X1409575Y-1596244D01*
X1389575Y-1576244D01*
Y-1762465D02*
X1409575Y-1742465D01*
X1429575Y-1762465D01*
X1409575Y-1782465D01*
X1389575Y-1762465D01*
Y-1948685D02*
X1409575Y-1928685D01*
X1429575Y-1948685D01*
X1409575Y-1968685D01*
X1389575Y-1948685D01*
Y-2134905D02*
X1409575Y-2114905D01*
X1429575Y-2134905D01*
X1409575Y-2154905D01*
X1389575Y-2134905D01*
Y-2321126D02*
X1409575Y-2301126D01*
X1429575Y-2321126D01*
X1409575Y-2341126D01*
X1389575Y-2321126D01*
Y-2507347D02*
X1409575Y-2487347D01*
X1429575Y-2507347D01*
X1409575Y-2527347D01*
X1389575Y-2507347D01*
X3496000Y-970118D02*
Y-930118D01*
X3536000D01*
Y-970118D01*
X3496000D01*
X3504000Y-962118D02*
Y-938118D01*
X3528000D01*
Y-962118D01*
X3504000D01*
X3496000Y-1194527D02*
Y-1154527D01*
X3536000D01*
Y-1194527D01*
X3496000D01*
X3504000Y-1186527D02*
Y-1162527D01*
X3528000D01*
Y-1186527D01*
X3504000D01*
X3496000Y-1370118D02*
Y-1330118D01*
X3536000D01*
Y-1370118D01*
X3496000D01*
X3504000Y-1362118D02*
Y-1338118D01*
X3528000D01*
Y-1362118D01*
X3504000D01*
X3496000Y-1470118D02*
Y-1430118D01*
X3536000D01*
Y-1470118D01*
X3496000D01*
X3504000Y-1462118D02*
Y-1438118D01*
X3528000D01*
Y-1462118D01*
X3504000D01*
X150000Y-1651890D02*
X160000Y-1641890D01*
X170000D01*
X160000Y-1631890D01*
X170000Y-1621890D01*
X160000D01*
X150000Y-1611890D01*
X140000Y-1621890D01*
X130000D01*
X140000Y-1631890D01*
X130000Y-1641890D01*
X140000D01*
X150000Y-1651890D01*
Y-1848740D02*
X160000Y-1838740D01*
X170000D01*
X160000Y-1828740D01*
X170000Y-1818740D01*
X160000D01*
X150000Y-1808740D01*
X140000Y-1818740D01*
X130000D01*
X140000Y-1828740D01*
X130000Y-1838740D01*
X140000D01*
X150000Y-1848740D01*
Y-2401102D02*
X160000Y-2391102D01*
X170000D01*
X160000Y-2381102D01*
X170000Y-2371102D01*
X160000D01*
X150000Y-2361102D01*
X140000Y-2371102D01*
X130000D01*
X140000Y-2381102D01*
X130000Y-2391102D01*
X140000D01*
X150000Y-2401102D01*
Y-2597953D02*
X160000Y-2587953D01*
X170000D01*
X160000Y-2577953D01*
X170000Y-2567953D01*
X160000D01*
X150000Y-2557953D01*
X140000Y-2567953D01*
X130000D01*
X140000Y-2577953D01*
X130000Y-2587953D01*
X140000D01*
X150000Y-2597953D01*
X483575Y-3754528D02*
X493575Y-3744528D01*
X503575D01*
X493575Y-3734528D01*
X503575Y-3724528D01*
X493575D01*
X483575Y-3714528D01*
X473575Y-3724528D01*
X463575D01*
X473575Y-3734528D01*
X463575Y-3744528D01*
X473575D01*
X483575Y-3754528D01*
X680425D02*
X690425Y-3744528D01*
X700425D01*
X690425Y-3734528D01*
X700425Y-3724528D01*
X690425D01*
X680425Y-3714528D01*
X670425Y-3724528D01*
X660425D01*
X670425Y-3734528D01*
X660425Y-3744528D01*
X670425D01*
X680425Y-3754528D01*
X1075000Y-1281701D02*
Y-1241701D01*
X1115000D01*
Y-1281701D01*
X1075000D01*
Y-2167528D02*
Y-2127528D01*
X1115000D01*
Y-2167528D01*
X1075000D01*
X3535000Y-2084528D02*
Y-2044527D01*
X3575000D01*
Y-2084528D01*
X3535000D01*
X3635000D02*
Y-2044527D01*
X3675000D01*
Y-2084528D01*
X3635000D01*
X3735000D02*
Y-2044527D01*
X3775000D01*
Y-2084528D01*
X3735000D01*
X3734998Y-2439115D02*
Y-2399115D01*
X3774998D01*
Y-2439115D01*
X3734998D01*
X3634998D02*
Y-2399115D01*
X3674998D01*
Y-2439115D01*
X3634998D01*
X3534998D02*
Y-2399115D01*
X3574998D01*
Y-2439115D01*
X3534998D01*
X3734998Y-2794528D02*
Y-2754528D01*
X3774998D01*
Y-2794528D01*
X3734998D01*
X3634998D02*
Y-2754528D01*
X3674998D01*
Y-2794528D01*
X3634998D01*
X3534998D02*
Y-2754528D01*
X3574998D01*
Y-2794528D01*
X3534998D01*
X3305000Y-2794528D02*
Y-2754528D01*
X3345000D01*
Y-2794528D01*
X3305000D01*
X3205000D02*
Y-2754528D01*
X3245000D01*
Y-2794528D01*
X3205000D01*
X3105000D02*
Y-2754528D01*
X3145000D01*
Y-2794528D01*
X3105000D01*
X405000Y-2728528D02*
Y-2688528D01*
X445000D01*
Y-2728528D01*
X405000D01*
X505000D02*
Y-2688528D01*
X545000D01*
Y-2728528D01*
X505000D01*
X605000D02*
Y-2688528D01*
X645000D01*
Y-2728528D01*
X605000D01*
X405000Y-1969027D02*
Y-1929027D01*
X445000D01*
Y-1969027D01*
X405000D01*
X505000D02*
Y-1929027D01*
X545000D01*
Y-1969027D01*
X505000D01*
X605000D02*
Y-1929027D01*
X645000D01*
Y-1969027D01*
X605000D01*
X405000Y-1209527D02*
Y-1169527D01*
X445000D01*
Y-1209527D01*
X405000D01*
X505000D02*
Y-1169527D01*
X545000D01*
Y-1209527D01*
X505000D01*
X605000D02*
Y-1169527D01*
X645000D01*
Y-1209527D01*
X605000D01*
X150000Y-3281102D02*
X160000Y-3271102D01*
X170000D01*
X160000Y-3261102D01*
X170000Y-3251102D01*
X160000D01*
X150000Y-3241102D01*
X140000Y-3251102D01*
X130000D01*
X140000Y-3261102D01*
X130000Y-3271102D01*
X140000D01*
X150000Y-3281102D01*
Y-3477953D02*
X160000Y-3467953D01*
X170000D01*
X160000Y-3457953D01*
X170000Y-3447953D01*
X160000D01*
X150000Y-3437953D01*
X140000Y-3447953D01*
X130000D01*
X140000Y-3457953D01*
X130000Y-3467953D01*
X140000D01*
X150000Y-3477953D01*
Y-341575D02*
X160000Y-331575D01*
X170000D01*
X160000Y-321575D01*
X170000Y-311575D01*
X160000D01*
X150000Y-301575D01*
X140000Y-311575D01*
X130000D01*
X140000Y-321575D01*
X130000Y-331575D01*
X140000D01*
X150000Y-341575D01*
Y-538425D02*
X160000Y-528425D01*
X170000D01*
X160000Y-518425D01*
X170000Y-508425D01*
X160000D01*
X150000Y-498425D01*
X140000Y-508425D01*
X130000D01*
X140000Y-518425D01*
X130000Y-528425D01*
X140000D01*
X150000Y-538425D01*
X3310000Y-1029527D02*
X3290000Y-989528D01*
X3330000D01*
X3310000Y-1029527D01*
Y-1021528D02*
X3298000Y-997528D01*
X3322000D01*
X3310000Y-1021528D01*
X3816000Y-1414527D02*
X3796000Y-1374527D01*
X3836000D01*
X3816000Y-1414527D01*
Y-1406527D02*
X3804000Y-1382527D01*
X3828000D01*
X3816000Y-1406527D01*
X3825000Y-945528D02*
X3805000Y-905528D01*
X3845000D01*
X3825000Y-945528D01*
Y-937528D02*
X3813000Y-913528D01*
X3837000D01*
X3825000Y-937528D01*
X3827000Y-324527D02*
X3807000Y-284527D01*
X3847000D01*
X3827000Y-324527D01*
Y-316527D02*
X3815000Y-292527D01*
X3839000D01*
X3827000Y-316527D01*
X3828063Y-145528D02*
X3808063Y-105528D01*
X3848063D01*
X3828063Y-145528D01*
Y-137528D02*
X3816063Y-113528D01*
X3840063D01*
X3828063Y-137528D01*
X860000Y-2960528D02*
X870000Y-2950528D01*
X880000D01*
X870000Y-2940528D01*
X880000Y-2930528D01*
X870000D01*
X860000Y-2920528D01*
X850000Y-2930528D01*
X840000D01*
X850000Y-2940528D01*
X840000Y-2950528D01*
X850000D01*
X860000Y-2960528D01*
Y-2952528D02*
X866000Y-2946528D01*
X872000D01*
X866000Y-2940528D01*
X872000Y-2934528D01*
X866000D01*
X860000Y-2928528D01*
X854000Y-2934528D01*
X848000D01*
X854000Y-2940528D01*
X848000Y-2946528D01*
X854000D01*
X860000Y-2952528D01*
Y-2786528D02*
X870000Y-2776528D01*
X880000D01*
X870000Y-2766528D01*
X880000Y-2756528D01*
X870000D01*
X860000Y-2746528D01*
X850000Y-2756528D01*
X840000D01*
X850000Y-2766528D01*
X840000Y-2776528D01*
X850000D01*
X860000Y-2786528D01*
Y-2778528D02*
X866000Y-2772528D01*
X872000D01*
X866000Y-2766528D01*
X872000Y-2760528D01*
X866000D01*
X860000Y-2754528D01*
X854000Y-2760528D01*
X848000D01*
X854000Y-2766528D01*
X848000Y-2772528D01*
X854000D01*
X860000Y-2778528D01*
X907000Y-2873528D02*
X917000Y-2863528D01*
X927000D01*
X917000Y-2853528D01*
X927000Y-2843528D01*
X917000D01*
X907000Y-2833528D01*
X897000Y-2843528D01*
X887000D01*
X897000Y-2853528D01*
X887000Y-2863528D01*
X897000D01*
X907000Y-2873528D01*
Y-2865528D02*
X913000Y-2859528D01*
X919000D01*
X913000Y-2853528D01*
X919000Y-2847528D01*
X913000D01*
X907000Y-2841528D01*
X901000Y-2847528D01*
X895000D01*
X901000Y-2853528D01*
X895000Y-2859528D01*
X901000D01*
X907000Y-2865528D01*
X860000Y-2612528D02*
X870000Y-2602528D01*
X880000D01*
X870000Y-2592528D01*
X880000Y-2582528D01*
X870000D01*
X860000Y-2572528D01*
X850000Y-2582528D01*
X840000D01*
X850000Y-2592528D01*
X840000Y-2602528D01*
X850000D01*
X860000Y-2612528D01*
Y-2604528D02*
X866000Y-2598528D01*
X872000D01*
X866000Y-2592528D01*
X872000Y-2586528D01*
X866000D01*
X860000Y-2580528D01*
X854000Y-2586528D01*
X848000D01*
X854000Y-2592528D01*
X848000Y-2598528D01*
X854000D01*
X860000Y-2604528D01*
X907000Y-2699528D02*
X917000Y-2689528D01*
X927000D01*
X917000Y-2679528D01*
X927000Y-2669528D01*
X917000D01*
X907000Y-2659528D01*
X897000Y-2669528D01*
X887000D01*
X897000Y-2679528D01*
X887000Y-2689528D01*
X897000D01*
X907000Y-2699528D01*
Y-2691528D02*
X913000Y-2685528D01*
X919000D01*
X913000Y-2679528D01*
X919000Y-2673528D01*
X913000D01*
X907000Y-2667528D01*
X901000Y-2673528D01*
X895000D01*
X901000Y-2679528D01*
X895000Y-2685528D01*
X901000D01*
X907000Y-2691528D01*
X954000Y-2786528D02*
X964000Y-2776528D01*
X974000D01*
X964000Y-2766528D01*
X974000Y-2756528D01*
X964000D01*
X954000Y-2746528D01*
X944000Y-2756528D01*
X934000D01*
X944000Y-2766528D01*
X934000Y-2776528D01*
X944000D01*
X954000Y-2786528D01*
Y-2778528D02*
X960000Y-2772528D01*
X966000D01*
X960000Y-2766528D01*
X966000Y-2760528D01*
X960000D01*
X954000Y-2754528D01*
X948000Y-2760528D01*
X942000D01*
X948000Y-2766528D01*
X942000Y-2772528D01*
X948000D01*
X954000Y-2778528D01*
X1001000Y-2699528D02*
X1011000Y-2689528D01*
X1021000D01*
X1011000Y-2679528D01*
X1021000Y-2669528D01*
X1011000D01*
X1001000Y-2659528D01*
X991000Y-2669528D01*
X981000D01*
X991000Y-2679528D01*
X981000Y-2689528D01*
X991000D01*
X1001000Y-2699528D01*
Y-2691528D02*
X1007000Y-2685528D01*
X1013000D01*
X1007000Y-2679528D01*
X1013000Y-2673528D01*
X1007000D01*
X1001000Y-2667528D01*
X995000Y-2673528D01*
X989000D01*
X995000Y-2679528D01*
X989000Y-2685528D01*
X995000D01*
X1001000Y-2691528D01*
X954000Y-2612528D02*
X964000Y-2602528D01*
X974000D01*
X964000Y-2592528D01*
X974000Y-2582528D01*
X964000D01*
X954000Y-2572528D01*
X944000Y-2582528D01*
X934000D01*
X944000Y-2592528D01*
X934000Y-2602528D01*
X944000D01*
X954000Y-2612528D01*
Y-2604528D02*
X960000Y-2598528D01*
X966000D01*
X960000Y-2592528D01*
X966000Y-2586528D01*
X960000D01*
X954000Y-2580528D01*
X948000Y-2586528D01*
X942000D01*
X948000Y-2592528D01*
X942000Y-2598528D01*
X948000D01*
X954000Y-2604528D01*
X907000Y-2525528D02*
X917000Y-2515528D01*
X927000D01*
X917000Y-2505528D01*
X927000Y-2495528D01*
X917000D01*
X907000Y-2485528D01*
X897000Y-2495528D01*
X887000D01*
X897000Y-2505528D01*
X887000Y-2515528D01*
X897000D01*
X907000Y-2525528D01*
Y-2517528D02*
X913000Y-2511528D01*
X919000D01*
X913000Y-2505528D01*
X919000Y-2499528D01*
X913000D01*
X907000Y-2493528D01*
X901000Y-2499528D01*
X895000D01*
X901000Y-2505528D01*
X895000Y-2511528D01*
X901000D01*
X907000Y-2517528D01*
X954000Y-2438528D02*
X964000Y-2428528D01*
X974000D01*
X964000Y-2418528D01*
X974000Y-2408528D01*
X964000D01*
X954000Y-2398528D01*
X944000Y-2408528D01*
X934000D01*
X944000Y-2418528D01*
X934000Y-2428528D01*
X944000D01*
X954000Y-2438528D01*
Y-2430528D02*
X960000Y-2424528D01*
X966000D01*
X960000Y-2418528D01*
X966000Y-2412528D01*
X960000D01*
X954000Y-2406528D01*
X948000Y-2412528D01*
X942000D01*
X948000Y-2418528D01*
X942000Y-2424528D01*
X948000D01*
X954000Y-2430528D01*
X860000Y-2438528D02*
X870000Y-2428528D01*
X880000D01*
X870000Y-2418528D01*
X880000Y-2408528D01*
X870000D01*
X860000Y-2398528D01*
X850000Y-2408528D01*
X840000D01*
X850000Y-2418528D01*
X840000Y-2428528D01*
X850000D01*
X860000Y-2438528D01*
Y-2430528D02*
X866000Y-2424528D01*
X872000D01*
X866000Y-2418528D01*
X872000Y-2412528D01*
X866000D01*
X860000Y-2406528D01*
X854000Y-2412528D01*
X848000D01*
X854000Y-2418528D01*
X848000Y-2424528D01*
X854000D01*
X860000Y-2430528D01*
X907000Y-2351528D02*
X917000Y-2341528D01*
X927000D01*
X917000Y-2331528D01*
X927000Y-2321528D01*
X917000D01*
X907000Y-2311528D01*
X897000Y-2321528D01*
X887000D01*
X897000Y-2331528D01*
X887000Y-2341528D01*
X897000D01*
X907000Y-2351528D01*
Y-2343528D02*
X913000Y-2337528D01*
X919000D01*
X913000Y-2331528D01*
X919000Y-2325528D01*
X913000D01*
X907000Y-2319528D01*
X901000Y-2325528D01*
X895000D01*
X901000Y-2331528D01*
X895000Y-2337528D01*
X901000D01*
X907000Y-2343528D01*
X954000Y-2264528D02*
X964000Y-2254528D01*
X974000D01*
X964000Y-2244528D01*
X974000Y-2234528D01*
X964000D01*
X954000Y-2224528D01*
X944000Y-2234528D01*
X934000D01*
X944000Y-2244528D01*
X934000Y-2254528D01*
X944000D01*
X954000Y-2264528D01*
Y-2256528D02*
X960000Y-2250528D01*
X966000D01*
X960000Y-2244528D01*
X966000Y-2238528D01*
X960000D01*
X954000Y-2232528D01*
X948000Y-2238528D01*
X942000D01*
X948000Y-2244528D01*
X942000Y-2250528D01*
X948000D01*
X954000Y-2256528D01*
X291000Y-886378D02*
X271000Y-846378D01*
X311000D01*
X291000Y-886378D01*
Y-878378D02*
X279000Y-854378D01*
X303000D01*
X291000Y-878378D01*
X252000Y-886378D02*
X232000Y-846378D01*
X272000D01*
X252000Y-886378D01*
Y-878378D02*
X240000Y-854378D01*
X264000D01*
X252000Y-878378D01*
X330000Y-886378D02*
X310000Y-846378D01*
X350000D01*
X330000Y-886378D01*
Y-878378D02*
X318000Y-854378D01*
X342000D01*
X330000Y-878378D01*
X369000Y-886378D02*
X349000Y-846378D01*
X389000D01*
X369000Y-886378D01*
Y-878378D02*
X357000Y-854378D01*
X381000D01*
X369000Y-878378D01*
X1095000Y-2699528D02*
X1105000Y-2689528D01*
X1115000D01*
X1105000Y-2679528D01*
X1115000Y-2669528D01*
X1105000D01*
X1095000Y-2659528D01*
X1085000Y-2669528D01*
X1075000D01*
X1085000Y-2679528D01*
X1075000Y-2689528D01*
X1085000D01*
X1095000Y-2699528D01*
Y-2691528D02*
X1101000Y-2685528D01*
X1107000D01*
X1101000Y-2679528D01*
X1107000Y-2673528D01*
X1101000D01*
X1095000Y-2667528D01*
X1089000Y-2673528D01*
X1083000D01*
X1089000Y-2679528D01*
X1083000Y-2685528D01*
X1089000D01*
X1095000Y-2691528D01*
X1048000Y-2786528D02*
X1058000Y-2776528D01*
X1068000D01*
X1058000Y-2766528D01*
X1068000Y-2756528D01*
X1058000D01*
X1048000Y-2746528D01*
X1038000Y-2756528D01*
X1028000D01*
X1038000Y-2766528D01*
X1028000Y-2776528D01*
X1038000D01*
X1048000Y-2786528D01*
Y-2778528D02*
X1054000Y-2772528D01*
X1060000D01*
X1054000Y-2766528D01*
X1060000Y-2760528D01*
X1054000D01*
X1048000Y-2754528D01*
X1042000Y-2760528D01*
X1036000D01*
X1042000Y-2766528D01*
X1036000Y-2772528D01*
X1042000D01*
X1048000Y-2778528D01*
X1001000Y-2873528D02*
X1011000Y-2863528D01*
X1021000D01*
X1011000Y-2853528D01*
X1021000Y-2843528D01*
X1011000D01*
X1001000Y-2833528D01*
X991000Y-2843528D01*
X981000D01*
X991000Y-2853528D01*
X981000Y-2863528D01*
X991000D01*
X1001000Y-2873528D01*
Y-2865528D02*
X1007000Y-2859528D01*
X1013000D01*
X1007000Y-2853528D01*
X1013000Y-2847528D01*
X1007000D01*
X1001000Y-2841528D01*
X995000Y-2847528D01*
X989000D01*
X995000Y-2853528D01*
X989000Y-2859528D01*
X995000D01*
X1001000Y-2865528D01*
X954000Y-2960528D02*
X964000Y-2950528D01*
X974000D01*
X964000Y-2940528D01*
X974000Y-2930528D01*
X964000D01*
X954000Y-2920528D01*
X944000Y-2930528D01*
X934000D01*
X944000Y-2940528D01*
X934000Y-2950528D01*
X944000D01*
X954000Y-2960528D01*
Y-2952528D02*
X960000Y-2946528D01*
X966000D01*
X960000Y-2940528D01*
X966000Y-2934528D01*
X960000D01*
X954000Y-2928528D01*
X948000Y-2934528D01*
X942000D01*
X948000Y-2940528D01*
X942000Y-2946528D01*
X948000D01*
X954000Y-2952528D01*
X1095000Y-2873528D02*
X1105000Y-2863528D01*
X1115000D01*
X1105000Y-2853528D01*
X1115000Y-2843528D01*
X1105000D01*
X1095000Y-2833528D01*
X1085000Y-2843528D01*
X1075000D01*
X1085000Y-2853528D01*
X1075000Y-2863528D01*
X1085000D01*
X1095000Y-2873528D01*
Y-2865528D02*
X1101000Y-2859528D01*
X1107000D01*
X1101000Y-2853528D01*
X1107000Y-2847528D01*
X1101000D01*
X1095000Y-2841528D01*
X1089000Y-2847528D01*
X1083000D01*
X1089000Y-2853528D01*
X1083000Y-2859528D01*
X1089000D01*
X1095000Y-2865528D01*
X1048000Y-2960528D02*
X1058000Y-2950528D01*
X1068000D01*
X1058000Y-2940528D01*
X1068000Y-2930528D01*
X1058000D01*
X1048000Y-2920528D01*
X1038000Y-2930528D01*
X1028000D01*
X1038000Y-2940528D01*
X1028000Y-2950528D01*
X1038000D01*
X1048000Y-2960528D01*
Y-2952528D02*
X1054000Y-2946528D01*
X1060000D01*
X1054000Y-2940528D01*
X1060000Y-2934528D01*
X1054000D01*
X1048000Y-2928528D01*
X1042000Y-2934528D01*
X1036000D01*
X1042000Y-2940528D01*
X1036000Y-2946528D01*
X1042000D01*
X1048000Y-2952528D01*
Y-3308528D02*
X1058000Y-3298528D01*
X1068000D01*
X1058000Y-3288528D01*
X1068000Y-3278528D01*
X1058000D01*
X1048000Y-3268528D01*
X1038000Y-3278528D01*
X1028000D01*
X1038000Y-3288528D01*
X1028000Y-3298528D01*
X1038000D01*
X1048000Y-3308528D01*
Y-3300528D02*
X1054000Y-3294528D01*
X1060000D01*
X1054000Y-3288528D01*
X1060000Y-3282528D01*
X1054000D01*
X1048000Y-3276528D01*
X1042000Y-3282528D01*
X1036000D01*
X1042000Y-3288528D01*
X1036000Y-3294528D01*
X1042000D01*
X1048000Y-3300528D01*
X1095000Y-3221528D02*
X1105000Y-3211528D01*
X1115000D01*
X1105000Y-3201528D01*
X1115000Y-3191528D01*
X1105000D01*
X1095000Y-3181528D01*
X1085000Y-3191528D01*
X1075000D01*
X1085000Y-3201528D01*
X1075000Y-3211528D01*
X1085000D01*
X1095000Y-3221528D01*
Y-3213528D02*
X1101000Y-3207528D01*
X1107000D01*
X1101000Y-3201528D01*
X1107000Y-3195528D01*
X1101000D01*
X1095000Y-3189528D01*
X1089000Y-3195528D01*
X1083000D01*
X1089000Y-3201528D01*
X1083000Y-3207528D01*
X1089000D01*
X1095000Y-3213528D01*
X954000Y-3308528D02*
X964000Y-3298528D01*
X974000D01*
X964000Y-3288528D01*
X974000Y-3278528D01*
X964000D01*
X954000Y-3268528D01*
X944000Y-3278528D01*
X934000D01*
X944000Y-3288528D01*
X934000Y-3298528D01*
X944000D01*
X954000Y-3308528D01*
Y-3300528D02*
X960000Y-3294528D01*
X966000D01*
X960000Y-3288528D01*
X966000Y-3282528D01*
X960000D01*
X954000Y-3276528D01*
X948000Y-3282528D01*
X942000D01*
X948000Y-3288528D01*
X942000Y-3294528D01*
X948000D01*
X954000Y-3300528D01*
X1001000Y-3221528D02*
X1011000Y-3211528D01*
X1021000D01*
X1011000Y-3201528D01*
X1021000Y-3191528D01*
X1011000D01*
X1001000Y-3181528D01*
X991000Y-3191528D01*
X981000D01*
X991000Y-3201528D01*
X981000Y-3211528D01*
X991000D01*
X1001000Y-3221528D01*
Y-3213528D02*
X1007000Y-3207528D01*
X1013000D01*
X1007000Y-3201528D01*
X1013000Y-3195528D01*
X1007000D01*
X1001000Y-3189528D01*
X995000Y-3195528D01*
X989000D01*
X995000Y-3201528D01*
X989000Y-3207528D01*
X995000D01*
X1001000Y-3213528D01*
X1048000Y-3134528D02*
X1058000Y-3124528D01*
X1068000D01*
X1058000Y-3114528D01*
X1068000Y-3104528D01*
X1058000D01*
X1048000Y-3094528D01*
X1038000Y-3104528D01*
X1028000D01*
X1038000Y-3114528D01*
X1028000Y-3124528D01*
X1038000D01*
X1048000Y-3134528D01*
Y-3126528D02*
X1054000Y-3120528D01*
X1060000D01*
X1054000Y-3114528D01*
X1060000Y-3108528D01*
X1054000D01*
X1048000Y-3102528D01*
X1042000Y-3108528D01*
X1036000D01*
X1042000Y-3114528D01*
X1036000Y-3120528D01*
X1042000D01*
X1048000Y-3126528D01*
X1095000Y-3047528D02*
X1105000Y-3037528D01*
X1115000D01*
X1105000Y-3027528D01*
X1115000Y-3017528D01*
X1105000D01*
X1095000Y-3007528D01*
X1085000Y-3017528D01*
X1075000D01*
X1085000Y-3027528D01*
X1075000Y-3037528D01*
X1085000D01*
X1095000Y-3047528D01*
Y-3039528D02*
X1101000Y-3033528D01*
X1107000D01*
X1101000Y-3027528D01*
X1107000Y-3021528D01*
X1101000D01*
X1095000Y-3015528D01*
X1089000Y-3021528D01*
X1083000D01*
X1089000Y-3027528D01*
X1083000Y-3033528D01*
X1089000D01*
X1095000Y-3039528D01*
X1001000Y-3047528D02*
X1011000Y-3037528D01*
X1021000D01*
X1011000Y-3027528D01*
X1021000Y-3017528D01*
X1011000D01*
X1001000Y-3007528D01*
X991000Y-3017528D01*
X981000D01*
X991000Y-3027528D01*
X981000Y-3037528D01*
X991000D01*
X1001000Y-3047528D01*
Y-3039528D02*
X1007000Y-3033528D01*
X1013000D01*
X1007000Y-3027528D01*
X1013000Y-3021528D01*
X1007000D01*
X1001000Y-3015528D01*
X995000Y-3021528D01*
X989000D01*
X995000Y-3027528D01*
X989000Y-3033528D01*
X995000D01*
X1001000Y-3039528D01*
X954000Y-3134528D02*
X964000Y-3124528D01*
X974000D01*
X964000Y-3114528D01*
X974000Y-3104528D01*
X964000D01*
X954000Y-3094528D01*
X944000Y-3104528D01*
X934000D01*
X944000Y-3114528D01*
X934000Y-3124528D01*
X944000D01*
X954000Y-3134528D01*
Y-3126528D02*
X960000Y-3120528D01*
X966000D01*
X960000Y-3114528D01*
X966000Y-3108528D01*
X960000D01*
X954000Y-3102528D01*
X948000Y-3108528D01*
X942000D01*
X948000Y-3114528D01*
X942000Y-3120528D01*
X948000D01*
X954000Y-3126528D01*
X907000Y-3047528D02*
X917000Y-3037528D01*
X927000D01*
X917000Y-3027528D01*
X927000Y-3017528D01*
X917000D01*
X907000Y-3007528D01*
X897000Y-3017528D01*
X887000D01*
X897000Y-3027528D01*
X887000Y-3037528D01*
X897000D01*
X907000Y-3047528D01*
Y-3039528D02*
X913000Y-3033528D01*
X919000D01*
X913000Y-3027528D01*
X919000Y-3021528D01*
X913000D01*
X907000Y-3015528D01*
X901000Y-3021528D01*
X895000D01*
X901000Y-3027528D01*
X895000Y-3033528D01*
X901000D01*
X907000Y-3039528D01*
Y-3221528D02*
X917000Y-3211528D01*
X927000D01*
X917000Y-3201528D01*
X927000Y-3191528D01*
X917000D01*
X907000Y-3181528D01*
X897000Y-3191528D01*
X887000D01*
X897000Y-3201528D01*
X887000Y-3211528D01*
X897000D01*
X907000Y-3221528D01*
Y-3213528D02*
X913000Y-3207528D01*
X919000D01*
X913000Y-3201528D01*
X919000Y-3195528D01*
X913000D01*
X907000Y-3189528D01*
X901000Y-3195528D01*
X895000D01*
X901000Y-3201528D01*
X895000Y-3207528D01*
X901000D01*
X907000Y-3213528D01*
X860000Y-3134528D02*
X870000Y-3124528D01*
X880000D01*
X870000Y-3114528D01*
X880000Y-3104528D01*
X870000D01*
X860000Y-3094528D01*
X850000Y-3104528D01*
X840000D01*
X850000Y-3114528D01*
X840000Y-3124528D01*
X850000D01*
X860000Y-3134528D01*
Y-3126528D02*
X866000Y-3120528D01*
X872000D01*
X866000Y-3114528D01*
X872000Y-3108528D01*
X866000D01*
X860000Y-3102528D01*
X854000Y-3108528D01*
X848000D01*
X854000Y-3114528D01*
X848000Y-3120528D01*
X854000D01*
X860000Y-3126528D01*
X1048000Y-3656528D02*
X1058000Y-3646528D01*
X1068000D01*
X1058000Y-3636528D01*
X1068000Y-3626528D01*
X1058000D01*
X1048000Y-3616528D01*
X1038000Y-3626528D01*
X1028000D01*
X1038000Y-3636528D01*
X1028000Y-3646528D01*
X1038000D01*
X1048000Y-3656528D01*
Y-3648528D02*
X1054000Y-3642528D01*
X1060000D01*
X1054000Y-3636528D01*
X1060000Y-3630528D01*
X1054000D01*
X1048000Y-3624528D01*
X1042000Y-3630528D01*
X1036000D01*
X1042000Y-3636528D01*
X1036000Y-3642528D01*
X1042000D01*
X1048000Y-3648528D01*
X1095000Y-3569528D02*
X1105000Y-3559528D01*
X1115000D01*
X1105000Y-3549528D01*
X1115000Y-3539528D01*
X1105000D01*
X1095000Y-3529528D01*
X1085000Y-3539528D01*
X1075000D01*
X1085000Y-3549528D01*
X1075000Y-3559528D01*
X1085000D01*
X1095000Y-3569528D01*
Y-3561528D02*
X1101000Y-3555528D01*
X1107000D01*
X1101000Y-3549528D01*
X1107000Y-3543528D01*
X1101000D01*
X1095000Y-3537528D01*
X1089000Y-3543528D01*
X1083000D01*
X1089000Y-3549528D01*
X1083000Y-3555528D01*
X1089000D01*
X1095000Y-3561528D01*
X954000Y-3656528D02*
X964000Y-3646528D01*
X974000D01*
X964000Y-3636528D01*
X974000Y-3626528D01*
X964000D01*
X954000Y-3616528D01*
X944000Y-3626528D01*
X934000D01*
X944000Y-3636528D01*
X934000Y-3646528D01*
X944000D01*
X954000Y-3656528D01*
Y-3648528D02*
X960000Y-3642528D01*
X966000D01*
X960000Y-3636528D01*
X966000Y-3630528D01*
X960000D01*
X954000Y-3624528D01*
X948000Y-3630528D01*
X942000D01*
X948000Y-3636528D01*
X942000Y-3642528D01*
X948000D01*
X954000Y-3648528D01*
X1001000Y-3569528D02*
X1011000Y-3559528D01*
X1021000D01*
X1011000Y-3549528D01*
X1021000Y-3539528D01*
X1011000D01*
X1001000Y-3529528D01*
X991000Y-3539528D01*
X981000D01*
X991000Y-3549528D01*
X981000Y-3559528D01*
X991000D01*
X1001000Y-3569528D01*
Y-3561528D02*
X1007000Y-3555528D01*
X1013000D01*
X1007000Y-3549528D01*
X1013000Y-3543528D01*
X1007000D01*
X1001000Y-3537528D01*
X995000Y-3543528D01*
X989000D01*
X995000Y-3549528D01*
X989000Y-3555528D01*
X995000D01*
X1001000Y-3561528D01*
X1048000Y-3482528D02*
X1058000Y-3472528D01*
X1068000D01*
X1058000Y-3462528D01*
X1068000Y-3452528D01*
X1058000D01*
X1048000Y-3442528D01*
X1038000Y-3452528D01*
X1028000D01*
X1038000Y-3462528D01*
X1028000Y-3472528D01*
X1038000D01*
X1048000Y-3482528D01*
Y-3474528D02*
X1054000Y-3468528D01*
X1060000D01*
X1054000Y-3462528D01*
X1060000Y-3456528D01*
X1054000D01*
X1048000Y-3450528D01*
X1042000Y-3456528D01*
X1036000D01*
X1042000Y-3462528D01*
X1036000Y-3468528D01*
X1042000D01*
X1048000Y-3474528D01*
X1095000Y-3395528D02*
X1105000Y-3385528D01*
X1115000D01*
X1105000Y-3375528D01*
X1115000Y-3365528D01*
X1105000D01*
X1095000Y-3355528D01*
X1085000Y-3365528D01*
X1075000D01*
X1085000Y-3375528D01*
X1075000Y-3385528D01*
X1085000D01*
X1095000Y-3395528D01*
Y-3387528D02*
X1101000Y-3381528D01*
X1107000D01*
X1101000Y-3375528D01*
X1107000Y-3369528D01*
X1101000D01*
X1095000Y-3363528D01*
X1089000Y-3369528D01*
X1083000D01*
X1089000Y-3375528D01*
X1083000Y-3381528D01*
X1089000D01*
X1095000Y-3387528D01*
X1001000Y-3395528D02*
X1011000Y-3385528D01*
X1021000D01*
X1011000Y-3375528D01*
X1021000Y-3365528D01*
X1011000D01*
X1001000Y-3355528D01*
X991000Y-3365528D01*
X981000D01*
X991000Y-3375528D01*
X981000Y-3385528D01*
X991000D01*
X1001000Y-3395528D01*
Y-3387528D02*
X1007000Y-3381528D01*
X1013000D01*
X1007000Y-3375528D01*
X1013000Y-3369528D01*
X1007000D01*
X1001000Y-3363528D01*
X995000Y-3369528D01*
X989000D01*
X995000Y-3375528D01*
X989000Y-3381528D01*
X995000D01*
X1001000Y-3387528D01*
X954000Y-3482528D02*
X964000Y-3472528D01*
X974000D01*
X964000Y-3462528D01*
X974000Y-3452528D01*
X964000D01*
X954000Y-3442528D01*
X944000Y-3452528D01*
X934000D01*
X944000Y-3462528D01*
X934000Y-3472528D01*
X944000D01*
X954000Y-3482528D01*
Y-3474528D02*
X960000Y-3468528D01*
X966000D01*
X960000Y-3462528D01*
X966000Y-3456528D01*
X960000D01*
X954000Y-3450528D01*
X948000Y-3456528D01*
X942000D01*
X948000Y-3462528D01*
X942000Y-3468528D01*
X948000D01*
X954000Y-3474528D01*
X907000Y-3395528D02*
X917000Y-3385528D01*
X927000D01*
X917000Y-3375528D01*
X927000Y-3365528D01*
X917000D01*
X907000Y-3355528D01*
X897000Y-3365528D01*
X887000D01*
X897000Y-3375528D01*
X887000Y-3385528D01*
X897000D01*
X907000Y-3395528D01*
Y-3387528D02*
X913000Y-3381528D01*
X919000D01*
X913000Y-3375528D01*
X919000Y-3369528D01*
X913000D01*
X907000Y-3363528D01*
X901000Y-3369528D01*
X895000D01*
X901000Y-3375528D01*
X895000Y-3381528D01*
X901000D01*
X907000Y-3387528D01*
Y-3569528D02*
X917000Y-3559528D01*
X927000D01*
X917000Y-3549528D01*
X927000Y-3539528D01*
X917000D01*
X907000Y-3529528D01*
X897000Y-3539528D01*
X887000D01*
X897000Y-3549528D01*
X887000Y-3559528D01*
X897000D01*
X907000Y-3569528D01*
Y-3561528D02*
X913000Y-3555528D01*
X919000D01*
X913000Y-3549528D01*
X919000Y-3543528D01*
X913000D01*
X907000Y-3537528D01*
X901000Y-3543528D01*
X895000D01*
X901000Y-3549528D01*
X895000Y-3555528D01*
X901000D01*
X907000Y-3561528D01*
X860000Y-3482528D02*
X870000Y-3472528D01*
X880000D01*
X870000Y-3462528D01*
X880000Y-3452528D01*
X870000D01*
X860000Y-3442528D01*
X850000Y-3452528D01*
X840000D01*
X850000Y-3462528D01*
X840000Y-3472528D01*
X850000D01*
X860000Y-3482528D01*
Y-3474528D02*
X866000Y-3468528D01*
X872000D01*
X866000Y-3462528D01*
X872000Y-3456528D01*
X866000D01*
X860000Y-3450528D01*
X854000Y-3456528D01*
X848000D01*
X854000Y-3462528D01*
X848000Y-3468528D01*
X854000D01*
X860000Y-3474528D01*
Y-3656528D02*
X870000Y-3646528D01*
X880000D01*
X870000Y-3636528D01*
X880000Y-3626528D01*
X870000D01*
X860000Y-3616528D01*
X850000Y-3626528D01*
X840000D01*
X850000Y-3636528D01*
X840000Y-3646528D01*
X850000D01*
X860000Y-3656528D01*
Y-3648528D02*
X866000Y-3642528D01*
X872000D01*
X866000Y-3636528D01*
X872000Y-3630528D01*
X866000D01*
X860000Y-3624528D01*
X854000Y-3630528D01*
X848000D01*
X854000Y-3636528D01*
X848000Y-3642528D01*
X854000D01*
X860000Y-3648528D01*
X1095000Y-3743528D02*
X1105000Y-3733528D01*
X1115000D01*
X1105000Y-3723528D01*
X1115000Y-3713528D01*
X1105000D01*
X1095000Y-3703528D01*
X1085000Y-3713528D01*
X1075000D01*
X1085000Y-3723528D01*
X1075000Y-3733528D01*
X1085000D01*
X1095000Y-3743528D01*
Y-3735528D02*
X1101000Y-3729528D01*
X1107000D01*
X1101000Y-3723528D01*
X1107000Y-3717528D01*
X1101000D01*
X1095000Y-3711528D01*
X1089000Y-3717528D01*
X1083000D01*
X1089000Y-3723528D01*
X1083000Y-3729528D01*
X1089000D01*
X1095000Y-3735528D01*
X1001000Y-3743528D02*
X1011000Y-3733528D01*
X1021000D01*
X1011000Y-3723528D01*
X1021000Y-3713528D01*
X1011000D01*
X1001000Y-3703528D01*
X991000Y-3713528D01*
X981000D01*
X991000Y-3723528D01*
X981000Y-3733528D01*
X991000D01*
X1001000Y-3743528D01*
Y-3735528D02*
X1007000Y-3729528D01*
X1013000D01*
X1007000Y-3723528D01*
X1013000Y-3717528D01*
X1007000D01*
X1001000Y-3711528D01*
X995000Y-3717528D01*
X989000D01*
X995000Y-3723528D01*
X989000Y-3729528D01*
X995000D01*
X1001000Y-3735528D01*
X907000Y-3743528D02*
X917000Y-3733528D01*
X927000D01*
X917000Y-3723528D01*
X927000Y-3713528D01*
X917000D01*
X907000Y-3703528D01*
X897000Y-3713528D01*
X887000D01*
X897000Y-3723528D01*
X887000Y-3733528D01*
X897000D01*
X907000Y-3743528D01*
Y-3735528D02*
X913000Y-3729528D01*
X919000D01*
X913000Y-3723528D01*
X919000Y-3717528D01*
X913000D01*
X907000Y-3711528D01*
X901000Y-3717528D01*
X895000D01*
X901000Y-3723528D01*
X895000Y-3729528D01*
X901000D01*
X907000Y-3735528D01*
X790000Y-3594528D02*
X800000Y-3584528D01*
X810000D01*
X800000Y-3574528D01*
X810000Y-3564528D01*
X800000D01*
X790000Y-3554528D01*
X780000Y-3564528D01*
X770000D01*
X780000Y-3574528D01*
X770000Y-3584528D01*
X780000D01*
X790000Y-3594528D01*
Y-3586528D02*
X796000Y-3580528D01*
X802000D01*
X796000Y-3574528D01*
X802000Y-3568528D01*
X796000D01*
X790000Y-3562528D01*
X784000Y-3568528D01*
X778000D01*
X784000Y-3574528D01*
X778000Y-3580528D01*
X784000D01*
X790000Y-3586528D01*
X813000Y-3743528D02*
X823000Y-3733528D01*
X833000D01*
X823000Y-3723528D01*
X833000Y-3713528D01*
X823000D01*
X813000Y-3703528D01*
X803000Y-3713528D01*
X793000D01*
X803000Y-3723528D01*
X793000Y-3733528D01*
X803000D01*
X813000Y-3743528D01*
Y-3735528D02*
X819000Y-3729528D01*
X825000D01*
X819000Y-3723528D01*
X825000Y-3717528D01*
X819000D01*
X813000Y-3711528D01*
X807000Y-3717528D01*
X801000D01*
X807000Y-3723528D01*
X801000Y-3729528D01*
X807000D01*
X813000Y-3735528D01*
X720000Y-3674528D02*
X730000Y-3664528D01*
X740000D01*
X730000Y-3654528D01*
X740000Y-3644528D01*
X730000D01*
X720000Y-3634528D01*
X710000Y-3644528D01*
X700000D01*
X710000Y-3654528D01*
X700000Y-3664528D01*
X710000D01*
X720000Y-3674528D01*
Y-3666528D02*
X726000Y-3660528D01*
X732000D01*
X726000Y-3654528D01*
X732000Y-3648528D01*
X726000D01*
X720000Y-3642528D01*
X714000Y-3648528D01*
X708000D01*
X714000Y-3654528D01*
X708000Y-3660528D01*
X714000D01*
X720000Y-3666528D01*
X655000Y-3599528D02*
X665000Y-3589528D01*
X675000D01*
X665000Y-3579528D01*
X675000Y-3569528D01*
X665000D01*
X655000Y-3559528D01*
X645000Y-3569528D01*
X635000D01*
X645000Y-3579528D01*
X635000Y-3589528D01*
X645000D01*
X655000Y-3599528D01*
Y-3591528D02*
X661000Y-3585528D01*
X667000D01*
X661000Y-3579528D01*
X667000Y-3573528D01*
X661000D01*
X655000Y-3567528D01*
X649000Y-3573528D01*
X643000D01*
X649000Y-3579528D01*
X643000Y-3585528D01*
X649000D01*
X655000Y-3591528D01*
X575000Y-3679528D02*
X585000Y-3669528D01*
X595000D01*
X585000Y-3659528D01*
X595000Y-3649528D01*
X585000D01*
X575000Y-3639528D01*
X565000Y-3649528D01*
X555000D01*
X565000Y-3659528D01*
X555000Y-3669528D01*
X565000D01*
X575000Y-3679528D01*
Y-3671528D02*
X581000Y-3665528D01*
X587000D01*
X581000Y-3659528D01*
X587000Y-3653528D01*
X581000D01*
X575000Y-3647528D01*
X569000Y-3653528D01*
X563000D01*
X569000Y-3659528D01*
X563000Y-3665528D01*
X569000D01*
X575000Y-3671528D01*
X535000Y-3604528D02*
X545000Y-3594528D01*
X555000D01*
X545000Y-3584528D01*
X555000Y-3574528D01*
X545000D01*
X535000Y-3564528D01*
X525000Y-3574528D01*
X515000D01*
X525000Y-3584528D01*
X515000Y-3594528D01*
X525000D01*
X535000Y-3604528D01*
Y-3596528D02*
X541000Y-3590528D01*
X547000D01*
X541000Y-3584528D01*
X547000Y-3578528D01*
X541000D01*
X535000Y-3572528D01*
X529000Y-3578528D01*
X523000D01*
X529000Y-3584528D01*
X523000Y-3590528D01*
X529000D01*
X535000Y-3596528D01*
X441000Y-3604528D02*
X451000Y-3594528D01*
X461000D01*
X451000Y-3584528D01*
X461000Y-3574528D01*
X451000D01*
X441000Y-3564528D01*
X431000Y-3574528D01*
X421000D01*
X431000Y-3584528D01*
X421000Y-3594528D01*
X431000D01*
X441000Y-3604528D01*
Y-3596528D02*
X447000Y-3590528D01*
X453000D01*
X447000Y-3584528D01*
X453000Y-3578528D01*
X447000D01*
X441000Y-3572528D01*
X435000Y-3578528D01*
X429000D01*
X435000Y-3584528D01*
X429000Y-3590528D01*
X435000D01*
X441000Y-3596528D01*
X425000Y-3679528D02*
X435000Y-3669528D01*
X445000D01*
X435000Y-3659528D01*
X445000Y-3649528D01*
X435000D01*
X425000Y-3639528D01*
X415000Y-3649528D01*
X405000D01*
X415000Y-3659528D01*
X405000Y-3669528D01*
X415000D01*
X425000Y-3679528D01*
Y-3671528D02*
X431000Y-3665528D01*
X437000D01*
X431000Y-3659528D01*
X437000Y-3653528D01*
X431000D01*
X425000Y-3647528D01*
X419000Y-3653528D01*
X413000D01*
X419000Y-3659528D01*
X413000Y-3665528D01*
X419000D01*
X425000Y-3671528D01*
X346000Y-3562528D02*
X356000Y-3552528D01*
X366000D01*
X356000Y-3542528D01*
X366000Y-3532528D01*
X356000D01*
X346000Y-3522528D01*
X336000Y-3532528D01*
X326000D01*
X336000Y-3542528D01*
X326000Y-3552528D01*
X336000D01*
X346000Y-3562528D01*
Y-3554528D02*
X352000Y-3548528D01*
X358000D01*
X352000Y-3542528D01*
X358000Y-3536528D01*
X352000D01*
X346000Y-3530528D01*
X340000Y-3536528D01*
X334000D01*
X340000Y-3542528D01*
X334000Y-3548528D01*
X340000D01*
X346000Y-3554528D01*
Y-3736528D02*
X356000Y-3726528D01*
X366000D01*
X356000Y-3716528D01*
X366000Y-3706528D01*
X356000D01*
X346000Y-3696528D01*
X336000Y-3706528D01*
X326000D01*
X336000Y-3716528D01*
X326000Y-3726528D01*
X336000D01*
X346000Y-3736528D01*
Y-3728528D02*
X352000Y-3722528D01*
X358000D01*
X352000Y-3716528D01*
X358000Y-3710528D01*
X352000D01*
X346000Y-3704528D01*
X340000Y-3710528D01*
X334000D01*
X340000Y-3716528D01*
X334000Y-3722528D01*
X340000D01*
X346000Y-3728528D01*
X299000Y-3649528D02*
X309000Y-3639528D01*
X319000D01*
X309000Y-3629528D01*
X319000Y-3619528D01*
X309000D01*
X299000Y-3609528D01*
X289000Y-3619528D01*
X279000D01*
X289000Y-3629528D01*
X279000Y-3639528D01*
X289000D01*
X299000Y-3649528D01*
Y-3641528D02*
X305000Y-3635528D01*
X311000D01*
X305000Y-3629528D01*
X311000Y-3623528D01*
X305000D01*
X299000Y-3617528D01*
X293000Y-3623528D01*
X287000D01*
X293000Y-3629528D01*
X287000Y-3635528D01*
X293000D01*
X299000Y-3641528D01*
X210000Y-3645000D02*
X220000Y-3635000D01*
X230000D01*
X220000Y-3625000D01*
X230000Y-3615000D01*
X220000D01*
X210000Y-3605000D01*
X200000Y-3615000D01*
X190000D01*
X200000Y-3625000D01*
X190000Y-3635000D01*
X200000D01*
X210000Y-3645000D01*
Y-3637000D02*
X216000Y-3631000D01*
X222000D01*
X216000Y-3625000D01*
X222000Y-3619000D01*
X216000D01*
X210000Y-3613000D01*
X204000Y-3619000D01*
X198000D01*
X204000Y-3625000D01*
X198000Y-3631000D01*
X204000D01*
X210000Y-3637000D01*
X252000Y-3736528D02*
X262000Y-3726528D01*
X272000D01*
X262000Y-3716528D01*
X272000Y-3706528D01*
X262000D01*
X252000Y-3696528D01*
X242000Y-3706528D01*
X232000D01*
X242000Y-3716528D01*
X232000Y-3726528D01*
X242000D01*
X252000Y-3736528D01*
Y-3728528D02*
X258000Y-3722528D01*
X264000D01*
X258000Y-3716528D01*
X264000Y-3710528D01*
X258000D01*
X252000Y-3704528D01*
X246000Y-3710528D01*
X240000D01*
X246000Y-3716528D01*
X240000Y-3722528D01*
X246000D01*
X252000Y-3728528D01*
X1377000Y-3047528D02*
X1387000Y-3037528D01*
X1397000D01*
X1387000Y-3027528D01*
X1397000Y-3017528D01*
X1387000D01*
X1377000Y-3007528D01*
X1367000Y-3017528D01*
X1357000D01*
X1367000Y-3027528D01*
X1357000Y-3037528D01*
X1367000D01*
X1377000Y-3047528D01*
Y-3039528D02*
X1383000Y-3033528D01*
X1389000D01*
X1383000Y-3027528D01*
X1389000Y-3021528D01*
X1383000D01*
X1377000Y-3015528D01*
X1371000Y-3021528D01*
X1365000D01*
X1371000Y-3027528D01*
X1365000Y-3033528D01*
X1371000D01*
X1377000Y-3039528D01*
X1236000Y-2786528D02*
X1246000Y-2776528D01*
X1256000D01*
X1246000Y-2766528D01*
X1256000Y-2756528D01*
X1246000D01*
X1236000Y-2746528D01*
X1226000Y-2756528D01*
X1216000D01*
X1226000Y-2766528D01*
X1216000Y-2776528D01*
X1226000D01*
X1236000Y-2786528D01*
Y-2778528D02*
X1242000Y-2772528D01*
X1248000D01*
X1242000Y-2766528D01*
X1248000Y-2760528D01*
X1242000D01*
X1236000Y-2754528D01*
X1230000Y-2760528D01*
X1224000D01*
X1230000Y-2766528D01*
X1224000Y-2772528D01*
X1230000D01*
X1236000Y-2778528D01*
X1377000Y-2699528D02*
X1387000Y-2689528D01*
X1397000D01*
X1387000Y-2679528D01*
X1397000Y-2669528D01*
X1387000D01*
X1377000Y-2659528D01*
X1367000Y-2669528D01*
X1357000D01*
X1367000Y-2679528D01*
X1357000Y-2689528D01*
X1367000D01*
X1377000Y-2699528D01*
Y-2691528D02*
X1383000Y-2685528D01*
X1389000D01*
X1383000Y-2679528D01*
X1389000Y-2673528D01*
X1383000D01*
X1377000Y-2667528D01*
X1371000Y-2673528D01*
X1365000D01*
X1371000Y-2679528D01*
X1365000Y-2685528D01*
X1371000D01*
X1377000Y-2691528D01*
X1236000Y-2960528D02*
X1246000Y-2950528D01*
X1256000D01*
X1246000Y-2940528D01*
X1256000Y-2930528D01*
X1246000D01*
X1236000Y-2920528D01*
X1226000Y-2930528D01*
X1216000D01*
X1226000Y-2940528D01*
X1216000Y-2950528D01*
X1226000D01*
X1236000Y-2960528D01*
Y-2952528D02*
X1242000Y-2946528D01*
X1248000D01*
X1242000Y-2940528D01*
X1248000Y-2934528D01*
X1242000D01*
X1236000Y-2928528D01*
X1230000Y-2934528D01*
X1224000D01*
X1230000Y-2940528D01*
X1224000Y-2946528D01*
X1230000D01*
X1236000Y-2952528D01*
X1377000Y-2873528D02*
X1387000Y-2863528D01*
X1397000D01*
X1387000Y-2853528D01*
X1397000Y-2843528D01*
X1387000D01*
X1377000Y-2833528D01*
X1367000Y-2843528D01*
X1357000D01*
X1367000Y-2853528D01*
X1357000Y-2863528D01*
X1367000D01*
X1377000Y-2873528D01*
Y-2865528D02*
X1383000Y-2859528D01*
X1389000D01*
X1383000Y-2853528D01*
X1389000Y-2847528D01*
X1383000D01*
X1377000Y-2841528D01*
X1371000Y-2847528D01*
X1365000D01*
X1371000Y-2853528D01*
X1365000Y-2859528D01*
X1371000D01*
X1377000Y-2865528D01*
X1659000Y-3047528D02*
X1669000Y-3037528D01*
X1679000D01*
X1669000Y-3027528D01*
X1679000Y-3017528D01*
X1669000D01*
X1659000Y-3007528D01*
X1649000Y-3017528D01*
X1639000D01*
X1649000Y-3027528D01*
X1639000Y-3037528D01*
X1649000D01*
X1659000Y-3047528D01*
Y-3039528D02*
X1665000Y-3033528D01*
X1671000D01*
X1665000Y-3027528D01*
X1671000Y-3021528D01*
X1665000D01*
X1659000Y-3015528D01*
X1653000Y-3021528D01*
X1647000D01*
X1653000Y-3027528D01*
X1647000Y-3033528D01*
X1653000D01*
X1659000Y-3039528D01*
X1518000Y-2786528D02*
X1528000Y-2776528D01*
X1538000D01*
X1528000Y-2766528D01*
X1538000Y-2756528D01*
X1528000D01*
X1518000Y-2746528D01*
X1508000Y-2756528D01*
X1498000D01*
X1508000Y-2766528D01*
X1498000Y-2776528D01*
X1508000D01*
X1518000Y-2786528D01*
Y-2778528D02*
X1524000Y-2772528D01*
X1530000D01*
X1524000Y-2766528D01*
X1530000Y-2760528D01*
X1524000D01*
X1518000Y-2754528D01*
X1512000Y-2760528D01*
X1506000D01*
X1512000Y-2766528D01*
X1506000Y-2772528D01*
X1512000D01*
X1518000Y-2778528D01*
X1659000Y-2699528D02*
X1669000Y-2689528D01*
X1679000D01*
X1669000Y-2679528D01*
X1679000Y-2669528D01*
X1669000D01*
X1659000Y-2659528D01*
X1649000Y-2669528D01*
X1639000D01*
X1649000Y-2679528D01*
X1639000Y-2689528D01*
X1649000D01*
X1659000Y-2699528D01*
Y-2691528D02*
X1665000Y-2685528D01*
X1671000D01*
X1665000Y-2679528D01*
X1671000Y-2673528D01*
X1665000D01*
X1659000Y-2667528D01*
X1653000Y-2673528D01*
X1647000D01*
X1653000Y-2679528D01*
X1647000Y-2685528D01*
X1653000D01*
X1659000Y-2691528D01*
X1518000Y-2960528D02*
X1528000Y-2950528D01*
X1538000D01*
X1528000Y-2940528D01*
X1538000Y-2930528D01*
X1528000D01*
X1518000Y-2920528D01*
X1508000Y-2930528D01*
X1498000D01*
X1508000Y-2940528D01*
X1498000Y-2950528D01*
X1508000D01*
X1518000Y-2960528D01*
Y-2952528D02*
X1524000Y-2946528D01*
X1530000D01*
X1524000Y-2940528D01*
X1530000Y-2934528D01*
X1524000D01*
X1518000Y-2928528D01*
X1512000Y-2934528D01*
X1506000D01*
X1512000Y-2940528D01*
X1506000Y-2946528D01*
X1512000D01*
X1518000Y-2952528D01*
X1659000Y-2873528D02*
X1669000Y-2863528D01*
X1679000D01*
X1669000Y-2853528D01*
X1679000Y-2843528D01*
X1669000D01*
X1659000Y-2833528D01*
X1649000Y-2843528D01*
X1639000D01*
X1649000Y-2853528D01*
X1639000Y-2863528D01*
X1649000D01*
X1659000Y-2873528D01*
Y-2865528D02*
X1665000Y-2859528D01*
X1671000D01*
X1665000Y-2853528D01*
X1671000Y-2847528D01*
X1665000D01*
X1659000Y-2841528D01*
X1653000Y-2847528D01*
X1647000D01*
X1653000Y-2853528D01*
X1647000Y-2859528D01*
X1653000D01*
X1659000Y-2865528D01*
X1825000Y-2974528D02*
X1835000Y-2964528D01*
X1845000D01*
X1835000Y-2954528D01*
X1845000Y-2944528D01*
X1835000D01*
X1825000Y-2934528D01*
X1815000Y-2944528D01*
X1805000D01*
X1815000Y-2954528D01*
X1805000Y-2964528D01*
X1815000D01*
X1825000Y-2974528D01*
Y-2966528D02*
X1831000Y-2960528D01*
X1837000D01*
X1831000Y-2954528D01*
X1837000Y-2948528D01*
X1831000D01*
X1825000Y-2942528D01*
X1819000Y-2948528D01*
X1813000D01*
X1819000Y-2954528D01*
X1813000Y-2960528D01*
X1819000D01*
X1825000Y-2966528D01*
Y-2626528D02*
X1835000Y-2616528D01*
X1845000D01*
X1835000Y-2606528D01*
X1845000Y-2596528D01*
X1835000D01*
X1825000Y-2586528D01*
X1815000Y-2596528D01*
X1805000D01*
X1815000Y-2606528D01*
X1805000Y-2616528D01*
X1815000D01*
X1825000Y-2626528D01*
Y-2618528D02*
X1831000Y-2612528D01*
X1837000D01*
X1831000Y-2606528D01*
X1837000Y-2600528D01*
X1831000D01*
X1825000Y-2594528D01*
X1819000Y-2600528D01*
X1813000D01*
X1819000Y-2606528D01*
X1813000Y-2612528D01*
X1819000D01*
X1825000Y-2618528D01*
X1750000Y-2009527D02*
X1760000Y-1999527D01*
X1770000D01*
X1760000Y-1989527D01*
X1770000Y-1979527D01*
X1760000D01*
X1750000Y-1969527D01*
X1740000Y-1979527D01*
X1730000D01*
X1740000Y-1989527D01*
X1730000Y-1999527D01*
X1740000D01*
X1750000Y-2009527D01*
Y-2001527D02*
X1756000Y-1995527D01*
X1762000D01*
X1756000Y-1989527D01*
X1762000Y-1983527D01*
X1756000D01*
X1750000Y-1977527D01*
X1744000Y-1983527D01*
X1738000D01*
X1744000Y-1989527D01*
X1738000Y-1995527D01*
X1744000D01*
X1750000Y-2001527D01*
X1745505Y-1484527D02*
X1755505Y-1474527D01*
X1765505D01*
X1755505Y-1464527D01*
X1765505Y-1454527D01*
X1755505D01*
X1745505Y-1444527D01*
X1735505Y-1454527D01*
X1725505D01*
X1735505Y-1464527D01*
X1725505Y-1474527D01*
X1735505D01*
X1745505Y-1484527D01*
Y-1476527D02*
X1751505Y-1470527D01*
X1757505D01*
X1751505Y-1464527D01*
X1757505Y-1458527D01*
X1751505D01*
X1745505Y-1452527D01*
X1739505Y-1458527D01*
X1733505D01*
X1739505Y-1464527D01*
X1733505Y-1470527D01*
X1739505D01*
X1745505Y-1476527D01*
X1755000Y-1654527D02*
X1765000Y-1644527D01*
X1775000D01*
X1765000Y-1634527D01*
X1775000Y-1624527D01*
X1765000D01*
X1755000Y-1614527D01*
X1745000Y-1624527D01*
X1735000D01*
X1745000Y-1634527D01*
X1735000Y-1644527D01*
X1745000D01*
X1755000Y-1654527D01*
Y-1646527D02*
X1761000Y-1640527D01*
X1767000D01*
X1761000Y-1634527D01*
X1767000Y-1628527D01*
X1761000D01*
X1755000Y-1622527D01*
X1749000Y-1628527D01*
X1743000D01*
X1749000Y-1634527D01*
X1743000Y-1640527D01*
X1749000D01*
X1755000Y-1646527D01*
X1825000Y-1582527D02*
X1835000Y-1572527D01*
X1845000D01*
X1835000Y-1562527D01*
X1845000Y-1552527D01*
X1835000D01*
X1825000Y-1542527D01*
X1815000Y-1552527D01*
X1805000D01*
X1815000Y-1562527D01*
X1805000Y-1572527D01*
X1815000D01*
X1825000Y-1582527D01*
Y-1574527D02*
X1831000Y-1568527D01*
X1837000D01*
X1831000Y-1562527D01*
X1837000Y-1556527D01*
X1831000D01*
X1825000Y-1550527D01*
X1819000Y-1556527D01*
X1813000D01*
X1819000Y-1562527D01*
X1813000Y-1568527D01*
X1819000D01*
X1825000Y-1574527D01*
Y-1756527D02*
X1835000Y-1746527D01*
X1845000D01*
X1835000Y-1736527D01*
X1845000Y-1726527D01*
X1835000D01*
X1825000Y-1716527D01*
X1815000Y-1726527D01*
X1805000D01*
X1815000Y-1736527D01*
X1805000Y-1746527D01*
X1815000D01*
X1825000Y-1756527D01*
Y-1748527D02*
X1831000Y-1742527D01*
X1837000D01*
X1831000Y-1736527D01*
X1837000Y-1730527D01*
X1831000D01*
X1825000Y-1724527D01*
X1819000Y-1730527D01*
X1813000D01*
X1819000Y-1736527D01*
X1813000Y-1742527D01*
X1819000D01*
X1825000Y-1748527D01*
Y-1408527D02*
X1835000Y-1398527D01*
X1845000D01*
X1835000Y-1388527D01*
X1845000Y-1378527D01*
X1835000D01*
X1825000Y-1368527D01*
X1815000Y-1378527D01*
X1805000D01*
X1815000Y-1388527D01*
X1805000Y-1398527D01*
X1815000D01*
X1825000Y-1408527D01*
Y-1400527D02*
X1831000Y-1394527D01*
X1837000D01*
X1831000Y-1388527D01*
X1837000Y-1382527D01*
X1831000D01*
X1825000Y-1376527D01*
X1819000Y-1382527D01*
X1813000D01*
X1819000Y-1388527D01*
X1813000Y-1394527D01*
X1819000D01*
X1825000Y-1400527D01*
X1755000Y-1834527D02*
X1765000Y-1824527D01*
X1775000D01*
X1765000Y-1814527D01*
X1775000Y-1804527D01*
X1765000D01*
X1755000Y-1794527D01*
X1745000Y-1804527D01*
X1735000D01*
X1745000Y-1814527D01*
X1735000Y-1824527D01*
X1745000D01*
X1755000Y-1834527D01*
Y-1826527D02*
X1761000Y-1820527D01*
X1767000D01*
X1761000Y-1814527D01*
X1767000Y-1808527D01*
X1761000D01*
X1755000Y-1802527D01*
X1749000Y-1808527D01*
X1743000D01*
X1749000Y-1814527D01*
X1743000Y-1820527D01*
X1749000D01*
X1755000Y-1826527D01*
X1825000Y-1930527D02*
X1835000Y-1920527D01*
X1845000D01*
X1835000Y-1910527D01*
X1845000Y-1900527D01*
X1835000D01*
X1825000Y-1890527D01*
X1815000Y-1900527D01*
X1805000D01*
X1815000Y-1910527D01*
X1805000Y-1920527D01*
X1815000D01*
X1825000Y-1930527D01*
Y-1922527D02*
X1831000Y-1916527D01*
X1837000D01*
X1831000Y-1910527D01*
X1837000Y-1904527D01*
X1831000D01*
X1825000Y-1898527D01*
X1819000Y-1904527D01*
X1813000D01*
X1819000Y-1910527D01*
X1813000Y-1916527D01*
X1819000D01*
X1825000Y-1922527D01*
X1700000Y-784528D02*
X1710000Y-774528D01*
X1720000D01*
X1710000Y-764528D01*
X1720000Y-754528D01*
X1710000D01*
X1700000Y-744528D01*
X1690000Y-754528D01*
X1680000D01*
X1690000Y-764528D01*
X1680000Y-774528D01*
X1690000D01*
X1700000Y-784528D01*
Y-776528D02*
X1706000Y-770528D01*
X1712000D01*
X1706000Y-764528D01*
X1712000Y-758528D01*
X1706000D01*
X1700000Y-752528D01*
X1694000Y-758528D01*
X1688000D01*
X1694000Y-764528D01*
X1688000Y-770528D01*
X1694000D01*
X1700000Y-776528D01*
X1825000Y-886528D02*
X1835000Y-876528D01*
X1845000D01*
X1835000Y-866528D01*
X1845000Y-856528D01*
X1835000D01*
X1825000Y-846528D01*
X1815000Y-856528D01*
X1805000D01*
X1815000Y-866528D01*
X1805000Y-876528D01*
X1815000D01*
X1825000Y-886528D01*
Y-878528D02*
X1831000Y-872528D01*
X1837000D01*
X1831000Y-866528D01*
X1837000Y-860528D01*
X1831000D01*
X1825000Y-854528D01*
X1819000Y-860528D01*
X1813000D01*
X1819000Y-866528D01*
X1813000Y-872528D01*
X1819000D01*
X1825000Y-878528D01*
Y-1060527D02*
X1835000Y-1050527D01*
X1845000D01*
X1835000Y-1040527D01*
X1845000Y-1030527D01*
X1835000D01*
X1825000Y-1020528D01*
X1815000Y-1030527D01*
X1805000D01*
X1815000Y-1040527D01*
X1805000Y-1050527D01*
X1815000D01*
X1825000Y-1060527D01*
Y-1052527D02*
X1831000Y-1046527D01*
X1837000D01*
X1831000Y-1040527D01*
X1837000Y-1034527D01*
X1831000D01*
X1825000Y-1028527D01*
X1819000Y-1034527D01*
X1813000D01*
X1819000Y-1040527D01*
X1813000Y-1046527D01*
X1819000D01*
X1825000Y-1052527D01*
Y-712528D02*
X1835000Y-702528D01*
X1845000D01*
X1835000Y-692528D01*
X1845000Y-682528D01*
X1835000D01*
X1825000Y-672528D01*
X1815000Y-682528D01*
X1805000D01*
X1815000Y-692528D01*
X1805000Y-702528D01*
X1815000D01*
X1825000Y-712528D01*
Y-704528D02*
X1831000Y-698528D01*
X1837000D01*
X1831000Y-692528D01*
X1837000Y-686528D01*
X1831000D01*
X1825000Y-680528D01*
X1819000Y-686528D01*
X1813000D01*
X1819000Y-692528D01*
X1813000Y-698528D01*
X1819000D01*
X1825000Y-704528D01*
X1740000Y-1129527D02*
X1750000Y-1119527D01*
X1760000D01*
X1750000Y-1109527D01*
X1760000Y-1099527D01*
X1750000D01*
X1740000Y-1089527D01*
X1730000Y-1099527D01*
X1720000D01*
X1730000Y-1109527D01*
X1720000Y-1119527D01*
X1730000D01*
X1740000Y-1129527D01*
Y-1121527D02*
X1746000Y-1115527D01*
X1752000D01*
X1746000Y-1109527D01*
X1752000Y-1103527D01*
X1746000D01*
X1740000Y-1097527D01*
X1734000Y-1103527D01*
X1728000D01*
X1734000Y-1109527D01*
X1728000Y-1115527D01*
X1734000D01*
X1740000Y-1121527D01*
X1825000Y-1234527D02*
X1835000Y-1224527D01*
X1845000D01*
X1835000Y-1214527D01*
X1845000Y-1204527D01*
X1835000D01*
X1825000Y-1194527D01*
X1815000Y-1204527D01*
X1805000D01*
X1815000Y-1214527D01*
X1805000Y-1224527D01*
X1815000D01*
X1825000Y-1234527D01*
Y-1226527D02*
X1831000Y-1220527D01*
X1837000D01*
X1831000Y-1214527D01*
X1837000Y-1208527D01*
X1831000D01*
X1825000Y-1202527D01*
X1819000Y-1208527D01*
X1813000D01*
X1819000Y-1214527D01*
X1813000Y-1220527D01*
X1819000D01*
X1825000Y-1226527D01*
X1740000Y-1309527D02*
X1750000Y-1299527D01*
X1760000D01*
X1750000Y-1289527D01*
X1760000Y-1279527D01*
X1750000D01*
X1740000Y-1269527D01*
X1730000Y-1279527D01*
X1720000D01*
X1730000Y-1289527D01*
X1720000Y-1299527D01*
X1730000D01*
X1740000Y-1309527D01*
Y-1301527D02*
X1746000Y-1295527D01*
X1752000D01*
X1746000Y-1289527D01*
X1752000Y-1283527D01*
X1746000D01*
X1740000Y-1277527D01*
X1734000Y-1283527D01*
X1728000D01*
X1734000Y-1289527D01*
X1728000Y-1295527D01*
X1734000D01*
X1740000Y-1301527D01*
X1700000Y-597528D02*
X1710000Y-587528D01*
X1720000D01*
X1710000Y-577528D01*
X1720000Y-567528D01*
X1710000D01*
X1700000Y-557528D01*
X1690000Y-567528D01*
X1680000D01*
X1690000Y-577528D01*
X1680000Y-587528D01*
X1690000D01*
X1700000Y-597528D01*
Y-589528D02*
X1706000Y-583528D01*
X1712000D01*
X1706000Y-577528D01*
X1712000Y-571528D01*
X1706000D01*
X1700000Y-565528D01*
X1694000Y-571528D01*
X1688000D01*
X1694000Y-577528D01*
X1688000Y-583528D01*
X1694000D01*
X1700000Y-589528D01*
X1575000Y-682528D02*
X1585000Y-672528D01*
X1595000D01*
X1585000Y-662528D01*
X1595000Y-652528D01*
X1585000D01*
X1575000Y-642528D01*
X1565000Y-652528D01*
X1555000D01*
X1565000Y-662528D01*
X1555000Y-672528D01*
X1565000D01*
X1575000Y-682528D01*
Y-674528D02*
X1581000Y-668528D01*
X1587000D01*
X1581000Y-662528D01*
X1587000Y-656528D01*
X1581000D01*
X1575000Y-650528D01*
X1569000Y-656528D01*
X1563000D01*
X1569000Y-662528D01*
X1563000Y-668528D01*
X1569000D01*
X1575000Y-674528D01*
X1950000Y-640528D02*
X1960000Y-630528D01*
X1970000D01*
X1960000Y-620528D01*
X1970000Y-610528D01*
X1960000D01*
X1950000Y-600528D01*
X1940000Y-610528D01*
X1930000D01*
X1940000Y-620528D01*
X1930000Y-630528D01*
X1940000D01*
X1950000Y-640528D01*
Y-632528D02*
X1956000Y-626528D01*
X1962000D01*
X1956000Y-620528D01*
X1962000Y-614528D01*
X1956000D01*
X1950000Y-608528D01*
X1944000Y-614528D01*
X1938000D01*
X1944000Y-620528D01*
X1938000Y-626528D01*
X1944000D01*
X1950000Y-632528D01*
X2075000Y-568528D02*
X2085000Y-558528D01*
X2095000D01*
X2085000Y-548528D01*
X2095000Y-538528D01*
X2085000D01*
X2075000Y-528528D01*
X2065000Y-538528D01*
X2055000D01*
X2065000Y-548528D01*
X2055000Y-558528D01*
X2065000D01*
X2075000Y-568528D01*
Y-560528D02*
X2081000Y-554528D01*
X2087000D01*
X2081000Y-548528D01*
X2087000Y-542528D01*
X2081000D01*
X2075000Y-536528D01*
X2069000Y-542528D01*
X2063000D01*
X2069000Y-548528D01*
X2063000Y-554528D01*
X2069000D01*
X2075000Y-560528D01*
X2175000Y-649528D02*
X2185000Y-639528D01*
X2195000D01*
X2185000Y-629528D01*
X2195000Y-619528D01*
X2185000D01*
X2175000Y-609528D01*
X2165000Y-619528D01*
X2155000D01*
X2165000Y-629528D01*
X2155000Y-639528D01*
X2165000D01*
X2175000Y-649528D01*
Y-641528D02*
X2181000Y-635528D01*
X2187000D01*
X2181000Y-629528D01*
X2187000Y-623528D01*
X2181000D01*
X2175000Y-617528D01*
X2169000Y-623528D01*
X2163000D01*
X2169000Y-629528D01*
X2163000Y-635528D01*
X2169000D01*
X2175000Y-641528D01*
X2279000Y-553528D02*
X2289000Y-543528D01*
X2299000D01*
X2289000Y-533528D01*
X2299000Y-523528D01*
X2289000D01*
X2279000Y-513528D01*
X2269000Y-523528D01*
X2259000D01*
X2269000Y-533528D01*
X2259000Y-543528D01*
X2269000D01*
X2279000Y-553528D01*
Y-545528D02*
X2285000Y-539528D01*
X2291000D01*
X2285000Y-533528D01*
X2291000Y-527528D01*
X2285000D01*
X2279000Y-521528D01*
X2273000Y-527528D01*
X2267000D01*
X2273000Y-533528D01*
X2267000Y-539528D01*
X2273000D01*
X2279000Y-545528D01*
X2400000Y-649528D02*
X2410000Y-639528D01*
X2420000D01*
X2410000Y-629528D01*
X2420000Y-619528D01*
X2410000D01*
X2400000Y-609528D01*
X2390000Y-619528D01*
X2380000D01*
X2390000Y-629528D01*
X2380000Y-639528D01*
X2390000D01*
X2400000Y-649528D01*
Y-641528D02*
X2406000Y-635528D01*
X2412000D01*
X2406000Y-629528D01*
X2412000Y-623528D01*
X2406000D01*
X2400000Y-617528D01*
X2394000Y-623528D01*
X2388000D01*
X2394000Y-629528D01*
X2388000Y-635528D01*
X2394000D01*
X2400000Y-641528D01*
X2504000Y-553528D02*
X2514000Y-543528D01*
X2524000D01*
X2514000Y-533528D01*
X2524000Y-523528D01*
X2514000D01*
X2504000Y-513528D01*
X2494000Y-523528D01*
X2484000D01*
X2494000Y-533528D01*
X2484000Y-543528D01*
X2494000D01*
X2504000Y-553528D01*
Y-545528D02*
X2510000Y-539528D01*
X2516000D01*
X2510000Y-533528D01*
X2516000Y-527528D01*
X2510000D01*
X2504000Y-521528D01*
X2498000Y-527528D01*
X2492000D01*
X2498000Y-533528D01*
X2492000Y-539528D01*
X2498000D01*
X2504000Y-545528D01*
X1199000Y-3673528D02*
X1209000Y-3663528D01*
X1219000D01*
X1209000Y-3653528D01*
X1219000Y-3643528D01*
X1209000D01*
X1199000Y-3633528D01*
X1189000Y-3643528D01*
X1179000D01*
X1189000Y-3653528D01*
X1179000Y-3663528D01*
X1189000D01*
X1199000Y-3673528D01*
Y-3665528D02*
X1205000Y-3659528D01*
X1211000D01*
X1205000Y-3653528D01*
X1211000Y-3647528D01*
X1205000D01*
X1199000Y-3641528D01*
X1193000Y-3647528D01*
X1187000D01*
X1193000Y-3653528D01*
X1187000Y-3659528D01*
X1193000D01*
X1199000Y-3665528D01*
X1303000Y-3603528D02*
X1313000Y-3593528D01*
X1323000D01*
X1313000Y-3583528D01*
X1323000Y-3573528D01*
X1313000D01*
X1303000Y-3563528D01*
X1293000Y-3573528D01*
X1283000D01*
X1293000Y-3583528D01*
X1283000Y-3593528D01*
X1293000D01*
X1303000Y-3603528D01*
Y-3595528D02*
X1309000Y-3589528D01*
X1315000D01*
X1309000Y-3583528D01*
X1315000Y-3577528D01*
X1309000D01*
X1303000Y-3571528D01*
X1297000Y-3577528D01*
X1291000D01*
X1297000Y-3583528D01*
X1291000Y-3589528D01*
X1297000D01*
X1303000Y-3595528D01*
Y-3777528D02*
X1313000Y-3767528D01*
X1323000D01*
X1313000Y-3757528D01*
X1323000Y-3747528D01*
X1313000D01*
X1303000Y-3737528D01*
X1293000Y-3747528D01*
X1283000D01*
X1293000Y-3757528D01*
X1283000Y-3767528D01*
X1293000D01*
X1303000Y-3777528D01*
Y-3769528D02*
X1309000Y-3763528D01*
X1315000D01*
X1309000Y-3757528D01*
X1315000Y-3751528D01*
X1309000D01*
X1303000Y-3745528D01*
X1297000Y-3751528D01*
X1291000D01*
X1297000Y-3757528D01*
X1291000Y-3763528D01*
X1297000D01*
X1303000Y-3769528D01*
X1699000Y-3811528D02*
X1709000Y-3801528D01*
X1719000D01*
X1709000Y-3791528D01*
X1719000Y-3781528D01*
X1709000D01*
X1699000Y-3771528D01*
X1689000Y-3781528D01*
X1679000D01*
X1689000Y-3791528D01*
X1679000Y-3801528D01*
X1689000D01*
X1699000Y-3811528D01*
Y-3803528D02*
X1705000Y-3797528D01*
X1711000D01*
X1705000Y-3791528D01*
X1711000Y-3785528D01*
X1705000D01*
X1699000Y-3779528D01*
X1693000Y-3785528D01*
X1687000D01*
X1693000Y-3791528D01*
X1687000Y-3797528D01*
X1693000D01*
X1699000Y-3803528D01*
X1595000Y-3707528D02*
X1605000Y-3697528D01*
X1615000D01*
X1605000Y-3687528D01*
X1615000Y-3677528D01*
X1605000D01*
X1595000Y-3667528D01*
X1585000Y-3677528D01*
X1575000D01*
X1585000Y-3687528D01*
X1575000Y-3697528D01*
X1585000D01*
X1595000Y-3707528D01*
Y-3699528D02*
X1601000Y-3693528D01*
X1607000D01*
X1601000Y-3687528D01*
X1607000Y-3681528D01*
X1601000D01*
X1595000Y-3675528D01*
X1589000Y-3681528D01*
X1583000D01*
X1589000Y-3687528D01*
X1583000Y-3693528D01*
X1589000D01*
X1595000Y-3699528D01*
X1491000Y-3603528D02*
X1501000Y-3593528D01*
X1511000D01*
X1501000Y-3583528D01*
X1511000Y-3573528D01*
X1501000D01*
X1491000Y-3563528D01*
X1481000Y-3573528D01*
X1471000D01*
X1481000Y-3583528D01*
X1471000Y-3593528D01*
X1481000D01*
X1491000Y-3603528D01*
Y-3595528D02*
X1497000Y-3589528D01*
X1503000D01*
X1497000Y-3583528D01*
X1503000Y-3577528D01*
X1497000D01*
X1491000Y-3571528D01*
X1485000Y-3577528D01*
X1479000D01*
X1485000Y-3583528D01*
X1479000Y-3589528D01*
X1485000D01*
X1491000Y-3595528D01*
X1887000Y-3811528D02*
X1897000Y-3801528D01*
X1907000D01*
X1897000Y-3791528D01*
X1907000Y-3781528D01*
X1897000D01*
X1887000Y-3771528D01*
X1877000Y-3781528D01*
X1867000D01*
X1877000Y-3791528D01*
X1867000Y-3801528D01*
X1877000D01*
X1887000Y-3811528D01*
Y-3803528D02*
X1893000Y-3797528D01*
X1899000D01*
X1893000Y-3791528D01*
X1899000Y-3785528D01*
X1893000D01*
X1887000Y-3779528D01*
X1881000Y-3785528D01*
X1875000D01*
X1881000Y-3791528D01*
X1875000Y-3797528D01*
X1881000D01*
X1887000Y-3803528D01*
X1783000Y-3707528D02*
X1793000Y-3697528D01*
X1803000D01*
X1793000Y-3687528D01*
X1803000Y-3677528D01*
X1793000D01*
X1783000Y-3667528D01*
X1773000Y-3677528D01*
X1763000D01*
X1773000Y-3687528D01*
X1763000Y-3697528D01*
X1773000D01*
X1783000Y-3707528D01*
Y-3699528D02*
X1789000Y-3693528D01*
X1795000D01*
X1789000Y-3687528D01*
X1795000Y-3681528D01*
X1789000D01*
X1783000Y-3675528D01*
X1777000Y-3681528D01*
X1771000D01*
X1777000Y-3687528D01*
X1771000Y-3693528D01*
X1777000D01*
X1783000Y-3699528D01*
X2075000Y-3811528D02*
X2085000Y-3801528D01*
X2095000D01*
X2085000Y-3791528D01*
X2095000Y-3781528D01*
X2085000D01*
X2075000Y-3771528D01*
X2065000Y-3781528D01*
X2055000D01*
X2065000Y-3791528D01*
X2055000Y-3801528D01*
X2065000D01*
X2075000Y-3811528D01*
Y-3803528D02*
X2081000Y-3797528D01*
X2087000D01*
X2081000Y-3791528D01*
X2087000Y-3785528D01*
X2081000D01*
X2075000Y-3779528D01*
X2069000Y-3785528D01*
X2063000D01*
X2069000Y-3791528D01*
X2063000Y-3797528D01*
X2069000D01*
X2075000Y-3803528D01*
X1971000Y-3707528D02*
X1981000Y-3697528D01*
X1991000D01*
X1981000Y-3687528D01*
X1991000Y-3677528D01*
X1981000D01*
X1971000Y-3667528D01*
X1961000Y-3677528D01*
X1951000D01*
X1961000Y-3687528D01*
X1951000Y-3697528D01*
X1961000D01*
X1971000Y-3707528D01*
Y-3699528D02*
X1977000Y-3693528D01*
X1983000D01*
X1977000Y-3687528D01*
X1983000Y-3681528D01*
X1977000D01*
X1971000Y-3675528D01*
X1965000Y-3681528D01*
X1959000D01*
X1965000Y-3687528D01*
X1959000Y-3693528D01*
X1965000D01*
X1971000Y-3699528D01*
X2263000Y-3811528D02*
X2273000Y-3801528D01*
X2283000D01*
X2273000Y-3791528D01*
X2283000Y-3781528D01*
X2273000D01*
X2263000Y-3771528D01*
X2253000Y-3781528D01*
X2243000D01*
X2253000Y-3791528D01*
X2243000Y-3801528D01*
X2253000D01*
X2263000Y-3811528D01*
Y-3803528D02*
X2269000Y-3797528D01*
X2275000D01*
X2269000Y-3791528D01*
X2275000Y-3785528D01*
X2269000D01*
X2263000Y-3779528D01*
X2257000Y-3785528D01*
X2251000D01*
X2257000Y-3791528D01*
X2251000Y-3797528D01*
X2257000D01*
X2263000Y-3803528D01*
X2159000Y-3707528D02*
X2169000Y-3697528D01*
X2179000D01*
X2169000Y-3687528D01*
X2179000Y-3677528D01*
X2169000D01*
X2159000Y-3667528D01*
X2149000Y-3677528D01*
X2139000D01*
X2149000Y-3687528D01*
X2139000Y-3697528D01*
X2149000D01*
X2159000Y-3707528D01*
Y-3699528D02*
X2165000Y-3693528D01*
X2171000D01*
X2165000Y-3687528D01*
X2171000Y-3681528D01*
X2165000D01*
X2159000Y-3675528D01*
X2153000Y-3681528D01*
X2147000D01*
X2153000Y-3687528D01*
X2147000Y-3693528D01*
X2153000D01*
X2159000Y-3699528D01*
X2451000Y-3811528D02*
X2461000Y-3801528D01*
X2471000D01*
X2461000Y-3791528D01*
X2471000Y-3781528D01*
X2461000D01*
X2451000Y-3771528D01*
X2441000Y-3781528D01*
X2431000D01*
X2441000Y-3791528D01*
X2431000Y-3801528D01*
X2441000D01*
X2451000Y-3811528D01*
Y-3803528D02*
X2457000Y-3797528D01*
X2463000D01*
X2457000Y-3791528D01*
X2463000Y-3785528D01*
X2457000D01*
X2451000Y-3779528D01*
X2445000Y-3785528D01*
X2439000D01*
X2445000Y-3791528D01*
X2439000Y-3797528D01*
X2445000D01*
X2451000Y-3803528D01*
X2347000Y-3707528D02*
X2357000Y-3697528D01*
X2367000D01*
X2357000Y-3687528D01*
X2367000Y-3677528D01*
X2357000D01*
X2347000Y-3667528D01*
X2337000Y-3677528D01*
X2327000D01*
X2337000Y-3687528D01*
X2327000Y-3697528D01*
X2337000D01*
X2347000Y-3707528D01*
Y-3699528D02*
X2353000Y-3693528D01*
X2359000D01*
X2353000Y-3687528D01*
X2359000Y-3681528D01*
X2353000D01*
X2347000Y-3675528D01*
X2341000Y-3681528D01*
X2335000D01*
X2341000Y-3687528D01*
X2335000Y-3693528D01*
X2341000D01*
X2347000Y-3699528D01*
X1511000Y-3811528D02*
X1521000Y-3801528D01*
X1531000D01*
X1521000Y-3791528D01*
X1531000Y-3781528D01*
X1521000D01*
X1511000Y-3771528D01*
X1501000Y-3781528D01*
X1491000D01*
X1501000Y-3791528D01*
X1491000Y-3801528D01*
X1501000D01*
X1511000Y-3811528D01*
Y-3803528D02*
X1517000Y-3797528D01*
X1523000D01*
X1517000Y-3791528D01*
X1523000Y-3785528D01*
X1517000D01*
X1511000Y-3779528D01*
X1505000Y-3785528D01*
X1499000D01*
X1505000Y-3791528D01*
X1499000Y-3797528D01*
X1505000D01*
X1511000Y-3803528D01*
Y-3417827D02*
X1521000Y-3407827D01*
X1531000D01*
X1521000Y-3397827D01*
X1531000Y-3387827D01*
X1521000D01*
X1511000Y-3377827D01*
X1501000Y-3387827D01*
X1491000D01*
X1501000Y-3397827D01*
X1491000Y-3407827D01*
X1501000D01*
X1511000Y-3417827D01*
Y-3409827D02*
X1517000Y-3403827D01*
X1523000D01*
X1517000Y-3397827D01*
X1523000Y-3391827D01*
X1517000D01*
X1511000Y-3385827D01*
X1505000Y-3391827D01*
X1499000D01*
X1505000Y-3397827D01*
X1499000Y-3403827D01*
X1505000D01*
X1511000Y-3409827D01*
X2431000Y-3209827D02*
X2441000Y-3199827D01*
X2451000D01*
X2441000Y-3189827D01*
X2451000Y-3179827D01*
X2441000D01*
X2431000Y-3169827D01*
X2421000Y-3179827D01*
X2411000D01*
X2421000Y-3189827D01*
X2411000Y-3199827D01*
X2421000D01*
X2431000Y-3209827D01*
Y-3201827D02*
X2437000Y-3195827D01*
X2443000D01*
X2437000Y-3189827D01*
X2443000Y-3183827D01*
X2437000D01*
X2431000Y-3177827D01*
X2425000Y-3183827D01*
X2419000D01*
X2425000Y-3189827D01*
X2419000Y-3195827D01*
X2425000D01*
X2431000Y-3201827D01*
X2243000Y-3209827D02*
X2253000Y-3199827D01*
X2263000D01*
X2253000Y-3189827D01*
X2263000Y-3179827D01*
X2253000D01*
X2243000Y-3169827D01*
X2233000Y-3179827D01*
X2223000D01*
X2233000Y-3189827D01*
X2223000Y-3199827D01*
X2233000D01*
X2243000Y-3209827D01*
Y-3201827D02*
X2249000Y-3195827D01*
X2255000D01*
X2249000Y-3189827D01*
X2255000Y-3183827D01*
X2249000D01*
X2243000Y-3177827D01*
X2237000Y-3183827D01*
X2231000D01*
X2237000Y-3189827D01*
X2231000Y-3195827D01*
X2237000D01*
X2243000Y-3201827D01*
X2347000Y-3313827D02*
X2357000Y-3303827D01*
X2367000D01*
X2357000Y-3293827D01*
X2367000Y-3283827D01*
X2357000D01*
X2347000Y-3273827D01*
X2337000Y-3283827D01*
X2327000D01*
X2337000Y-3293827D01*
X2327000Y-3303827D01*
X2337000D01*
X2347000Y-3313827D01*
Y-3305827D02*
X2353000Y-3299827D01*
X2359000D01*
X2353000Y-3293827D01*
X2359000Y-3287827D01*
X2353000D01*
X2347000Y-3281827D01*
X2341000Y-3287827D01*
X2335000D01*
X2341000Y-3293827D01*
X2335000Y-3299827D01*
X2341000D01*
X2347000Y-3305827D01*
X2055000Y-3209827D02*
X2065000Y-3199827D01*
X2075000D01*
X2065000Y-3189827D01*
X2075000Y-3179827D01*
X2065000D01*
X2055000Y-3169827D01*
X2045000Y-3179827D01*
X2035000D01*
X2045000Y-3189827D01*
X2035000Y-3199827D01*
X2045000D01*
X2055000Y-3209827D01*
Y-3201827D02*
X2061000Y-3195827D01*
X2067000D01*
X2061000Y-3189827D01*
X2067000Y-3183827D01*
X2061000D01*
X2055000Y-3177827D01*
X2049000Y-3183827D01*
X2043000D01*
X2049000Y-3189827D01*
X2043000Y-3195827D01*
X2049000D01*
X2055000Y-3201827D01*
X2159000Y-3313827D02*
X2169000Y-3303827D01*
X2179000D01*
X2169000Y-3293827D01*
X2179000Y-3283827D01*
X2169000D01*
X2159000Y-3273827D01*
X2149000Y-3283827D01*
X2139000D01*
X2149000Y-3293827D01*
X2139000Y-3303827D01*
X2149000D01*
X2159000Y-3313827D01*
Y-3305827D02*
X2165000Y-3299827D01*
X2171000D01*
X2165000Y-3293827D01*
X2171000Y-3287827D01*
X2165000D01*
X2159000Y-3281827D01*
X2153000Y-3287827D01*
X2147000D01*
X2153000Y-3293827D01*
X2147000Y-3299827D01*
X2153000D01*
X2159000Y-3305827D01*
X1867000Y-3209827D02*
X1877000Y-3199827D01*
X1887000D01*
X1877000Y-3189827D01*
X1887000Y-3179827D01*
X1877000D01*
X1867000Y-3169827D01*
X1857000Y-3179827D01*
X1847000D01*
X1857000Y-3189827D01*
X1847000Y-3199827D01*
X1857000D01*
X1867000Y-3209827D01*
Y-3201827D02*
X1873000Y-3195827D01*
X1879000D01*
X1873000Y-3189827D01*
X1879000Y-3183827D01*
X1873000D01*
X1867000Y-3177827D01*
X1861000Y-3183827D01*
X1855000D01*
X1861000Y-3189827D01*
X1855000Y-3195827D01*
X1861000D01*
X1867000Y-3201827D01*
X1971000Y-3313827D02*
X1981000Y-3303827D01*
X1991000D01*
X1981000Y-3293827D01*
X1991000Y-3283827D01*
X1981000D01*
X1971000Y-3273827D01*
X1961000Y-3283827D01*
X1951000D01*
X1961000Y-3293827D01*
X1951000Y-3303827D01*
X1961000D01*
X1971000Y-3313827D01*
Y-3305827D02*
X1977000Y-3299827D01*
X1983000D01*
X1977000Y-3293827D01*
X1983000Y-3287827D01*
X1977000D01*
X1971000Y-3281827D01*
X1965000Y-3287827D01*
X1959000D01*
X1965000Y-3293827D01*
X1959000Y-3299827D01*
X1965000D01*
X1971000Y-3305827D01*
X1679000Y-3209827D02*
X1689000Y-3199827D01*
X1699000D01*
X1689000Y-3189827D01*
X1699000Y-3179827D01*
X1689000D01*
X1679000Y-3169827D01*
X1669000Y-3179827D01*
X1659000D01*
X1669000Y-3189827D01*
X1659000Y-3199827D01*
X1669000D01*
X1679000Y-3209827D01*
Y-3201827D02*
X1685000Y-3195827D01*
X1691000D01*
X1685000Y-3189827D01*
X1691000Y-3183827D01*
X1685000D01*
X1679000Y-3177827D01*
X1673000Y-3183827D01*
X1667000D01*
X1673000Y-3189827D01*
X1667000Y-3195827D01*
X1673000D01*
X1679000Y-3201827D01*
X1783000Y-3313827D02*
X1793000Y-3303827D01*
X1803000D01*
X1793000Y-3293827D01*
X1803000Y-3283827D01*
X1793000D01*
X1783000Y-3273827D01*
X1773000Y-3283827D01*
X1763000D01*
X1773000Y-3293827D01*
X1763000Y-3303827D01*
X1773000D01*
X1783000Y-3313827D01*
Y-3305827D02*
X1789000Y-3299827D01*
X1795000D01*
X1789000Y-3293827D01*
X1795000Y-3287827D01*
X1789000D01*
X1783000Y-3281827D01*
X1777000Y-3287827D01*
X1771000D01*
X1777000Y-3293827D01*
X1771000Y-3299827D01*
X1777000D01*
X1783000Y-3305827D01*
X1516490Y-3209827D02*
X1526490Y-3199827D01*
X1536490D01*
X1526490Y-3189827D01*
X1536490Y-3179827D01*
X1526490D01*
X1516490Y-3169827D01*
X1506490Y-3179827D01*
X1496490D01*
X1506490Y-3189827D01*
X1496490Y-3199827D01*
X1506490D01*
X1516490Y-3209827D01*
Y-3201827D02*
X1522490Y-3195827D01*
X1528490D01*
X1522490Y-3189827D01*
X1528490Y-3183827D01*
X1522490D01*
X1516490Y-3177827D01*
X1510490Y-3183827D01*
X1504490D01*
X1510490Y-3189827D01*
X1504490Y-3195827D01*
X1510490D01*
X1516490Y-3201827D01*
X1595000Y-3313827D02*
X1605000Y-3303827D01*
X1615000D01*
X1605000Y-3293827D01*
X1615000Y-3283827D01*
X1605000D01*
X1595000Y-3273827D01*
X1585000Y-3283827D01*
X1575000D01*
X1585000Y-3293827D01*
X1575000Y-3303827D01*
X1585000D01*
X1595000Y-3313827D01*
Y-3305827D02*
X1601000Y-3299827D01*
X1607000D01*
X1601000Y-3293827D01*
X1607000Y-3287827D01*
X1601000D01*
X1595000Y-3281827D01*
X1589000Y-3287827D01*
X1583000D01*
X1589000Y-3293827D01*
X1583000Y-3299827D01*
X1589000D01*
X1595000Y-3305827D01*
X2031450Y-1982072D02*
X2041450Y-1972072D01*
X2051450D01*
X2041450Y-1962072D01*
X2051450Y-1952072D01*
X2041450D01*
X2031450Y-1942072D01*
X2021450Y-1952072D01*
X2011450D01*
X2021450Y-1962072D01*
X2011450Y-1972072D01*
X2021450D01*
X2031450Y-1982072D01*
Y-1974072D02*
X2037450Y-1968072D01*
X2043450D01*
X2037450Y-1962072D01*
X2043450Y-1956072D01*
X2037450D01*
X2031450Y-1950072D01*
X2025450Y-1956072D01*
X2019450D01*
X2025450Y-1962072D01*
X2019450Y-1968072D01*
X2025450D01*
X2031450Y-1974072D01*
X2156450Y-1910072D02*
X2166450Y-1900072D01*
X2176450D01*
X2166450Y-1890072D01*
X2176450Y-1880072D01*
X2166450D01*
X2156450Y-1870072D01*
X2146450Y-1880072D01*
X2136450D01*
X2146450Y-1890072D01*
X2136450Y-1900072D01*
X2146450D01*
X2156450Y-1910072D01*
Y-1902072D02*
X2162450Y-1896072D01*
X2168450D01*
X2162450Y-1890072D01*
X2168450Y-1884072D01*
X2162450D01*
X2156450Y-1878072D01*
X2150450Y-1884072D01*
X2144450D01*
X2150450Y-1890072D01*
X2144450Y-1896072D01*
X2150450D01*
X2156450Y-1902072D01*
X2031450Y-1808072D02*
X2041450Y-1798072D01*
X2051450D01*
X2041450Y-1788072D01*
X2051450Y-1778072D01*
X2041450D01*
X2031450Y-1768072D01*
X2021450Y-1778072D01*
X2011450D01*
X2021450Y-1788072D01*
X2011450Y-1798072D01*
X2021450D01*
X2031450Y-1808072D01*
Y-1800072D02*
X2037450Y-1794072D01*
X2043450D01*
X2037450Y-1788072D01*
X2043450Y-1782072D01*
X2037450D01*
X2031450Y-1776072D01*
X2025450Y-1782072D01*
X2019450D01*
X2025450Y-1788072D01*
X2019450Y-1794072D01*
X2025450D01*
X2031450Y-1800072D01*
X2156450Y-2606072D02*
X2166450Y-2596072D01*
X2176450D01*
X2166450Y-2586072D01*
X2176450Y-2576072D01*
X2166450D01*
X2156450Y-2566072D01*
X2146450Y-2576072D01*
X2136450D01*
X2146450Y-2586072D01*
X2136450Y-2596072D01*
X2146450D01*
X2156450Y-2606072D01*
Y-2598072D02*
X2162450Y-2592072D01*
X2168450D01*
X2162450Y-2586072D01*
X2168450Y-2580072D01*
X2162450D01*
X2156450Y-2574072D01*
X2150450Y-2580072D01*
X2144450D01*
X2150450Y-2586072D01*
X2144450Y-2592072D01*
X2150450D01*
X2156450Y-2598072D01*
X2031450Y-3026072D02*
X2041450Y-3016072D01*
X2051450D01*
X2041450Y-3006072D01*
X2051450Y-2996072D01*
X2041450D01*
X2031450Y-2986072D01*
X2021450Y-2996072D01*
X2011450D01*
X2021450Y-3006072D01*
X2011450Y-3016072D01*
X2021450D01*
X2031450Y-3026072D01*
Y-3018072D02*
X2037450Y-3012072D01*
X2043450D01*
X2037450Y-3006072D01*
X2043450Y-3000072D01*
X2037450D01*
X2031450Y-2994072D01*
X2025450Y-3000072D01*
X2019450D01*
X2025450Y-3006072D01*
X2019450Y-3012072D01*
X2025450D01*
X2031450Y-3018072D01*
X2156450Y-2954072D02*
X2166450Y-2944072D01*
X2176450D01*
X2166450Y-2934072D01*
X2176450Y-2924072D01*
X2166450D01*
X2156450Y-2914072D01*
X2146450Y-2924072D01*
X2136450D01*
X2146450Y-2934072D01*
X2136450Y-2944072D01*
X2146450D01*
X2156450Y-2954072D01*
Y-2946072D02*
X2162450Y-2940072D01*
X2168450D01*
X2162450Y-2934072D01*
X2168450Y-2928072D01*
X2162450D01*
X2156450Y-2922072D01*
X2150450Y-2928072D01*
X2144450D01*
X2150450Y-2934072D01*
X2144450Y-2940072D01*
X2150450D01*
X2156450Y-2946072D01*
Y-3128072D02*
X2166450Y-3118072D01*
X2176450D01*
X2166450Y-3108072D01*
X2176450Y-3098072D01*
X2166450D01*
X2156450Y-3088072D01*
X2146450Y-3098072D01*
X2136450D01*
X2146450Y-3108072D01*
X2136450Y-3118072D01*
X2146450D01*
X2156450Y-3128072D01*
Y-3120072D02*
X2162450Y-3114072D01*
X2168450D01*
X2162450Y-3108072D01*
X2168450Y-3102072D01*
X2162450D01*
X2156450Y-3096072D01*
X2150450Y-3102072D01*
X2144450D01*
X2150450Y-3108072D01*
X2144450Y-3114072D01*
X2150450D01*
X2156450Y-3120072D01*
Y-2780072D02*
X2166450Y-2770072D01*
X2176450D01*
X2166450Y-2760072D01*
X2176450Y-2750072D01*
X2166450D01*
X2156450Y-2740072D01*
X2146450Y-2750072D01*
X2136450D01*
X2146450Y-2760072D01*
X2136450Y-2770072D01*
X2146450D01*
X2156450Y-2780072D01*
Y-2772072D02*
X2162450Y-2766072D01*
X2168450D01*
X2162450Y-2760072D01*
X2168450Y-2754072D01*
X2162450D01*
X2156450Y-2748072D01*
X2150450Y-2754072D01*
X2144450D01*
X2150450Y-2760072D01*
X2144450Y-2766072D01*
X2150450D01*
X2156450Y-2772072D01*
X2031450Y-2678072D02*
X2041450Y-2668072D01*
X2051450D01*
X2041450Y-2658072D01*
X2051450Y-2648072D01*
X2041450D01*
X2031450Y-2638072D01*
X2021450Y-2648072D01*
X2011450D01*
X2021450Y-2658072D01*
X2011450Y-2668072D01*
X2021450D01*
X2031450Y-2678072D01*
Y-2670072D02*
X2037450Y-2664072D01*
X2043450D01*
X2037450Y-2658072D01*
X2043450Y-2652072D01*
X2037450D01*
X2031450Y-2646072D01*
X2025450Y-2652072D01*
X2019450D01*
X2025450Y-2658072D01*
X2019450Y-2664072D01*
X2025450D01*
X2031450Y-2670072D01*
X2156450Y-1214072D02*
X2166450Y-1204072D01*
X2176450D01*
X2166450Y-1194072D01*
X2176450Y-1184072D01*
X2166450D01*
X2156450Y-1174072D01*
X2146450Y-1184072D01*
X2136450D01*
X2146450Y-1194072D01*
X2136450Y-1204072D01*
X2146450D01*
X2156450Y-1214072D01*
Y-1206072D02*
X2162450Y-1200072D01*
X2168450D01*
X2162450Y-1194072D01*
X2168450Y-1188072D01*
X2162450D01*
X2156450Y-1182072D01*
X2150450Y-1188072D01*
X2144450D01*
X2150450Y-1194072D01*
X2144450Y-1200072D01*
X2150450D01*
X2156450Y-1206072D01*
X2031450Y-1112072D02*
X2041450Y-1102072D01*
X2051450D01*
X2041450Y-1092072D01*
X2051450Y-1082072D01*
X2041450D01*
X2031450Y-1072072D01*
X2021450Y-1082072D01*
X2011450D01*
X2021450Y-1092072D01*
X2011450Y-1102072D01*
X2021450D01*
X2031450Y-1112072D01*
Y-1104072D02*
X2037450Y-1098072D01*
X2043450D01*
X2037450Y-1092072D01*
X2043450Y-1086072D01*
X2037450D01*
X2031450Y-1080072D01*
X2025450Y-1086072D01*
X2019450D01*
X2025450Y-1092072D01*
X2019450Y-1098072D01*
X2025450D01*
X2031450Y-1104072D01*
X2156450Y-1040072D02*
X2166450Y-1030072D01*
X2176450D01*
X2166450Y-1020072D01*
X2176450Y-1010072D01*
X2166450D01*
X2156450Y-1000072D01*
X2146450Y-1010072D01*
X2136450D01*
X2146450Y-1020072D01*
X2136450Y-1030072D01*
X2146450D01*
X2156450Y-1040072D01*
Y-1032072D02*
X2162450Y-1026072D01*
X2168450D01*
X2162450Y-1020072D01*
X2168450Y-1014072D01*
X2162450D01*
X2156450Y-1008072D01*
X2150450Y-1014072D01*
X2144450D01*
X2150450Y-1020072D01*
X2144450Y-1026072D01*
X2150450D01*
X2156450Y-1032072D01*
X2031450Y-938072D02*
X2041450Y-928072D01*
X2051450D01*
X2041450Y-918072D01*
X2051450Y-908072D01*
X2041450D01*
X2031450Y-898072D01*
X2021450Y-908072D01*
X2011450D01*
X2021450Y-918072D01*
X2011450Y-928072D01*
X2021450D01*
X2031450Y-938072D01*
Y-930072D02*
X2037450Y-924072D01*
X2043450D01*
X2037450Y-918072D01*
X2043450Y-912072D01*
X2037450D01*
X2031450Y-906072D01*
X2025450Y-912072D01*
X2019450D01*
X2025450Y-918072D01*
X2019450Y-924072D01*
X2025450D01*
X2031450Y-930072D01*
Y-1460072D02*
X2041450Y-1450072D01*
X2051450D01*
X2041450Y-1440072D01*
X2051450Y-1430072D01*
X2041450D01*
X2031450Y-1420072D01*
X2021450Y-1430072D01*
X2011450D01*
X2021450Y-1440072D01*
X2011450Y-1450072D01*
X2021450D01*
X2031450Y-1460072D01*
Y-1452072D02*
X2037450Y-1446072D01*
X2043450D01*
X2037450Y-1440072D01*
X2043450Y-1434072D01*
X2037450D01*
X2031450Y-1428072D01*
X2025450Y-1434072D01*
X2019450D01*
X2025450Y-1440072D01*
X2019450Y-1446072D01*
X2025450D01*
X2031450Y-1452072D01*
Y-1634072D02*
X2041450Y-1624072D01*
X2051450D01*
X2041450Y-1614072D01*
X2051450Y-1604072D01*
X2041450D01*
X2031450Y-1594072D01*
X2021450Y-1604072D01*
X2011450D01*
X2021450Y-1614072D01*
X2011450Y-1624072D01*
X2021450D01*
X2031450Y-1634072D01*
Y-1626072D02*
X2037450Y-1620072D01*
X2043450D01*
X2037450Y-1614072D01*
X2043450Y-1608072D01*
X2037450D01*
X2031450Y-1602072D01*
X2025450Y-1608072D01*
X2019450D01*
X2025450Y-1614072D01*
X2019450Y-1620072D01*
X2025450D01*
X2031450Y-1626072D01*
X2156450Y-1562072D02*
X2166450Y-1552072D01*
X2176450D01*
X2166450Y-1542072D01*
X2176450Y-1532072D01*
X2166450D01*
X2156450Y-1522072D01*
X2146450Y-1532072D01*
X2136450D01*
X2146450Y-1542072D01*
X2136450Y-1552072D01*
X2146450D01*
X2156450Y-1562072D01*
Y-1554072D02*
X2162450Y-1548072D01*
X2168450D01*
X2162450Y-1542072D01*
X2168450Y-1536072D01*
X2162450D01*
X2156450Y-1530072D01*
X2150450Y-1536072D01*
X2144450D01*
X2150450Y-1542072D01*
X2144450Y-1548072D01*
X2150450D01*
X2156450Y-1554072D01*
Y-1736072D02*
X2166450Y-1726072D01*
X2176450D01*
X2166450Y-1716072D01*
X2176450Y-1706072D01*
X2166450D01*
X2156450Y-1696072D01*
X2146450Y-1706072D01*
X2136450D01*
X2146450Y-1716072D01*
X2136450Y-1726072D01*
X2146450D01*
X2156450Y-1736072D01*
Y-1728072D02*
X2162450Y-1722072D01*
X2168450D01*
X2162450Y-1716072D01*
X2168450Y-1710072D01*
X2162450D01*
X2156450Y-1704072D01*
X2150450Y-1710072D01*
X2144450D01*
X2150450Y-1716072D01*
X2144450Y-1722072D01*
X2150450D01*
X2156450Y-1728072D01*
Y-1388072D02*
X2166450Y-1378072D01*
X2176450D01*
X2166450Y-1368072D01*
X2176450Y-1358072D01*
X2166450D01*
X2156450Y-1348072D01*
X2146450Y-1358072D01*
X2136450D01*
X2146450Y-1368072D01*
X2136450Y-1378072D01*
X2146450D01*
X2156450Y-1388072D01*
Y-1380072D02*
X2162450Y-1374072D01*
X2168450D01*
X2162450Y-1368072D01*
X2168450Y-1362072D01*
X2162450D01*
X2156450Y-1356072D01*
X2150450Y-1362072D01*
X2144450D01*
X2150450Y-1368072D01*
X2144450Y-1374072D01*
X2150450D01*
X2156450Y-1380072D01*
X2031450Y-1286072D02*
X2041450Y-1276072D01*
X2051450D01*
X2041450Y-1266072D01*
X2051450Y-1256072D01*
X2041450D01*
X2031450Y-1246072D01*
X2021450Y-1256072D01*
X2011450D01*
X2021450Y-1266072D01*
X2011450Y-1276072D01*
X2021450D01*
X2031450Y-1286072D01*
Y-1278072D02*
X2037450Y-1272072D01*
X2043450D01*
X2037450Y-1266072D01*
X2043450Y-1260072D01*
X2037450D01*
X2031450Y-1254072D01*
X2025450Y-1260072D01*
X2019450D01*
X2025450Y-1266072D01*
X2019450Y-1272072D01*
X2025450D01*
X2031450Y-1278072D01*
X2392000Y-978528D02*
X2402000Y-968528D01*
X2412000D01*
X2402000Y-958528D01*
X2412000Y-948528D01*
X2402000D01*
X2392000Y-938528D01*
X2382000Y-948528D01*
X2372000D01*
X2382000Y-958528D01*
X2372000Y-968528D01*
X2382000D01*
X2392000Y-978528D01*
Y-970528D02*
X2398000Y-964528D01*
X2404000D01*
X2398000Y-958528D01*
X2404000Y-952528D01*
X2398000D01*
X2392000Y-946528D01*
X2386000Y-952528D01*
X2380000D01*
X2386000Y-958528D01*
X2380000Y-964528D01*
X2386000D01*
X2392000Y-970528D01*
X2288000Y-874528D02*
X2298000Y-864528D01*
X2308000D01*
X2298000Y-854528D01*
X2308000Y-844528D01*
X2298000D01*
X2288000Y-834528D01*
X2278000Y-844528D01*
X2268000D01*
X2278000Y-854528D01*
X2268000Y-864528D01*
X2278000D01*
X2288000Y-874528D01*
Y-866528D02*
X2294000Y-860528D01*
X2300000D01*
X2294000Y-854528D01*
X2300000Y-848528D01*
X2294000D01*
X2288000Y-842528D01*
X2282000Y-848528D01*
X2276000D01*
X2282000Y-854528D01*
X2276000Y-860528D01*
X2282000D01*
X2288000Y-866528D01*
X2580000Y-978528D02*
X2590000Y-968528D01*
X2600000D01*
X2590000Y-958528D01*
X2600000Y-948528D01*
X2590000D01*
X2580000Y-938528D01*
X2570000Y-948528D01*
X2560000D01*
X2570000Y-958528D01*
X2560000Y-968528D01*
X2570000D01*
X2580000Y-978528D01*
Y-970528D02*
X2586000Y-964528D01*
X2592000D01*
X2586000Y-958528D01*
X2592000Y-952528D01*
X2586000D01*
X2580000Y-946528D01*
X2574000Y-952528D01*
X2568000D01*
X2574000Y-958528D01*
X2568000Y-964528D01*
X2574000D01*
X2580000Y-970528D01*
X2476000Y-874528D02*
X2486000Y-864528D01*
X2496000D01*
X2486000Y-854528D01*
X2496000Y-844528D01*
X2486000D01*
X2476000Y-834528D01*
X2466000Y-844528D01*
X2456000D01*
X2466000Y-854528D01*
X2456000Y-864528D01*
X2466000D01*
X2476000Y-874528D01*
Y-866528D02*
X2482000Y-860528D01*
X2488000D01*
X2482000Y-854528D01*
X2488000Y-848528D01*
X2482000D01*
X2476000Y-842528D01*
X2470000Y-848528D01*
X2464000D01*
X2470000Y-854528D01*
X2464000Y-860528D01*
X2470000D01*
X2476000Y-866528D01*
X2664000Y-874528D02*
X2674000Y-864528D01*
X2684000D01*
X2674000Y-854528D01*
X2684000Y-844528D01*
X2674000D01*
X2664000Y-834528D01*
X2654000Y-844528D01*
X2644000D01*
X2654000Y-854528D01*
X2644000Y-864528D01*
X2654000D01*
X2664000Y-874528D01*
Y-866528D02*
X2670000Y-860528D01*
X2676000D01*
X2670000Y-854528D01*
X2676000Y-848528D01*
X2670000D01*
X2664000Y-842528D01*
X2658000Y-848528D01*
X2652000D01*
X2658000Y-854528D01*
X2652000Y-860528D01*
X2658000D01*
X2664000Y-866528D01*
X2150000Y-874528D02*
X2160000Y-864528D01*
X2170000D01*
X2160000Y-854528D01*
X2170000Y-844528D01*
X2160000D01*
X2150000Y-834528D01*
X2140000Y-844528D01*
X2130000D01*
X2140000Y-854528D01*
X2130000Y-864528D01*
X2140000D01*
X2150000Y-874528D01*
Y-866528D02*
X2156000Y-860528D01*
X2162000D01*
X2156000Y-854528D01*
X2162000Y-848528D01*
X2156000D01*
X2150000Y-842528D01*
X2144000Y-848528D01*
X2138000D01*
X2144000Y-854528D01*
X2138000Y-860528D01*
X2144000D01*
X2150000Y-866528D01*
X2852000Y-874528D02*
X2862000Y-864528D01*
X2872000D01*
X2862000Y-854528D01*
X2872000Y-844528D01*
X2862000D01*
X2852000Y-834528D01*
X2842000Y-844528D01*
X2832000D01*
X2842000Y-854528D01*
X2832000Y-864528D01*
X2842000D01*
X2852000Y-874528D01*
Y-866528D02*
X2858000Y-860528D01*
X2864000D01*
X2858000Y-854528D01*
X2864000Y-848528D01*
X2858000D01*
X2852000Y-842528D01*
X2846000Y-848528D01*
X2840000D01*
X2846000Y-854528D01*
X2840000Y-860528D01*
X2846000D01*
X2852000Y-866528D01*
X3054000Y-745528D02*
X3064000Y-735528D01*
X3074000D01*
X3064000Y-725528D01*
X3074000Y-715528D01*
X3064000D01*
X3054000Y-705528D01*
X3044000Y-715528D01*
X3034000D01*
X3044000Y-725528D01*
X3034000Y-735528D01*
X3044000D01*
X3054000Y-745528D01*
Y-737528D02*
X3060000Y-731528D01*
X3066000D01*
X3060000Y-725528D01*
X3066000Y-719528D01*
X3060000D01*
X3054000Y-713528D01*
X3048000Y-719528D01*
X3042000D01*
X3048000Y-725528D01*
X3042000Y-731528D01*
X3048000D01*
X3054000Y-737528D01*
Y-557528D02*
X3064000Y-547528D01*
X3074000D01*
X3064000Y-537528D01*
X3074000Y-527528D01*
X3064000D01*
X3054000Y-517528D01*
X3044000Y-527528D01*
X3034000D01*
X3044000Y-537528D01*
X3034000Y-547528D01*
X3044000D01*
X3054000Y-557528D01*
Y-549528D02*
X3060000Y-543528D01*
X3066000D01*
X3060000Y-537528D01*
X3066000Y-531528D01*
X3060000D01*
X3054000Y-525528D01*
X3048000Y-531528D01*
X3042000D01*
X3048000Y-537528D01*
X3042000Y-543528D01*
X3048000D01*
X3054000Y-549528D01*
X2950000Y-661528D02*
X2960000Y-651528D01*
X2970000D01*
X2960000Y-641528D01*
X2970000Y-631528D01*
X2960000D01*
X2950000Y-621528D01*
X2940000Y-631528D01*
X2930000D01*
X2940000Y-641528D01*
X2930000Y-651528D01*
X2940000D01*
X2950000Y-661528D01*
Y-653528D02*
X2956000Y-647528D01*
X2962000D01*
X2956000Y-641528D01*
X2962000Y-635528D01*
X2956000D01*
X2950000Y-629528D01*
X2944000Y-635528D01*
X2938000D01*
X2944000Y-641528D01*
X2938000Y-647528D01*
X2944000D01*
X2950000Y-653528D01*
X3054000Y-369527D02*
X3064000Y-359527D01*
X3074000D01*
X3064000Y-349527D01*
X3074000Y-339527D01*
X3064000D01*
X3054000Y-329527D01*
X3044000Y-339527D01*
X3034000D01*
X3044000Y-349527D01*
X3034000Y-359527D01*
X3044000D01*
X3054000Y-369527D01*
Y-361527D02*
X3060000Y-355527D01*
X3066000D01*
X3060000Y-349527D01*
X3066000Y-343527D01*
X3060000D01*
X3054000Y-337527D01*
X3048000Y-343527D01*
X3042000D01*
X3048000Y-349527D01*
X3042000Y-355527D01*
X3048000D01*
X3054000Y-361527D01*
X2950000Y-473527D02*
X2960000Y-463527D01*
X2970000D01*
X2960000Y-453527D01*
X2970000Y-443527D01*
X2960000D01*
X2950000Y-433527D01*
X2940000Y-443527D01*
X2930000D01*
X2940000Y-453527D01*
X2930000Y-463527D01*
X2940000D01*
X2950000Y-473527D01*
Y-465527D02*
X2956000Y-459527D01*
X2962000D01*
X2956000Y-453527D01*
X2962000Y-447527D01*
X2956000D01*
X2950000Y-441527D01*
X2944000Y-447527D01*
X2938000D01*
X2944000Y-453527D01*
X2938000Y-459527D01*
X2944000D01*
X2950000Y-465527D01*
X1654000Y-144528D02*
X1664000Y-134528D01*
X1674000D01*
X1664000Y-124528D01*
X1674000Y-114528D01*
X1664000D01*
X1654000Y-104528D01*
X1644000Y-114528D01*
X1634000D01*
X1644000Y-124528D01*
X1634000Y-134528D01*
X1644000D01*
X1654000Y-144528D01*
Y-136528D02*
X1660000Y-130528D01*
X1666000D01*
X1660000Y-124528D01*
X1666000Y-118528D01*
X1660000D01*
X1654000Y-112528D01*
X1648000Y-118528D01*
X1642000D01*
X1648000Y-124528D01*
X1642000Y-130528D01*
X1648000D01*
X1654000Y-136528D01*
X1575490Y-40528D02*
X1585490Y-30527D01*
X1595490D01*
X1585490Y-20527D01*
X1595490Y-10527D01*
X1585490D01*
X1575490Y-527D01*
X1565490Y-10527D01*
X1555490D01*
X1565490Y-20527D01*
X1555490Y-30527D01*
X1565490D01*
X1575490Y-40528D01*
Y-32528D02*
X1581490Y-26527D01*
X1587490D01*
X1581490Y-20527D01*
X1587490Y-14527D01*
X1581490D01*
X1575490Y-8527D01*
X1569490Y-14527D01*
X1563490D01*
X1569490Y-20527D01*
X1563490Y-26527D01*
X1569490D01*
X1575490Y-32528D01*
X1842000Y-144528D02*
X1852000Y-134528D01*
X1862000D01*
X1852000Y-124528D01*
X1862000Y-114528D01*
X1852000D01*
X1842000Y-104528D01*
X1832000Y-114528D01*
X1822000D01*
X1832000Y-124528D01*
X1822000Y-134528D01*
X1832000D01*
X1842000Y-144528D01*
Y-136528D02*
X1848000Y-130528D01*
X1854000D01*
X1848000Y-124528D01*
X1854000Y-118528D01*
X1848000D01*
X1842000Y-112528D01*
X1836000Y-118528D01*
X1830000D01*
X1836000Y-124528D01*
X1830000Y-130528D01*
X1836000D01*
X1842000Y-136528D01*
X1738000Y-40528D02*
X1748000Y-30527D01*
X1758000D01*
X1748000Y-20527D01*
X1758000Y-10527D01*
X1748000D01*
X1738000Y-527D01*
X1728000Y-10527D01*
X1718000D01*
X1728000Y-20527D01*
X1718000Y-30527D01*
X1728000D01*
X1738000Y-40528D01*
Y-32528D02*
X1744000Y-26527D01*
X1750000D01*
X1744000Y-20527D01*
X1750000Y-14527D01*
X1744000D01*
X1738000Y-8527D01*
X1732000Y-14527D01*
X1726000D01*
X1732000Y-20527D01*
X1726000Y-26527D01*
X1732000D01*
X1738000Y-32528D01*
X2030000Y-144528D02*
X2040000Y-134528D01*
X2050000D01*
X2040000Y-124528D01*
X2050000Y-114528D01*
X2040000D01*
X2030000Y-104528D01*
X2020000Y-114528D01*
X2010000D01*
X2020000Y-124528D01*
X2010000Y-134528D01*
X2020000D01*
X2030000Y-144528D01*
Y-136528D02*
X2036000Y-130528D01*
X2042000D01*
X2036000Y-124528D01*
X2042000Y-118528D01*
X2036000D01*
X2030000Y-112528D01*
X2024000Y-118528D01*
X2018000D01*
X2024000Y-124528D01*
X2018000Y-130528D01*
X2024000D01*
X2030000Y-136528D01*
X1926000Y-40528D02*
X1936000Y-30527D01*
X1946000D01*
X1936000Y-20527D01*
X1946000Y-10527D01*
X1936000D01*
X1926000Y-527D01*
X1916000Y-10527D01*
X1906000D01*
X1916000Y-20527D01*
X1906000Y-30527D01*
X1916000D01*
X1926000Y-40528D01*
Y-32528D02*
X1932000Y-26527D01*
X1938000D01*
X1932000Y-20527D01*
X1938000Y-14527D01*
X1932000D01*
X1926000Y-8527D01*
X1920000Y-14527D01*
X1914000D01*
X1920000Y-20527D01*
X1914000Y-26527D01*
X1920000D01*
X1926000Y-32528D01*
X2218000Y-144528D02*
X2228000Y-134528D01*
X2238000D01*
X2228000Y-124528D01*
X2238000Y-114528D01*
X2228000D01*
X2218000Y-104528D01*
X2208000Y-114528D01*
X2198000D01*
X2208000Y-124528D01*
X2198000Y-134528D01*
X2208000D01*
X2218000Y-144528D01*
Y-136528D02*
X2224000Y-130528D01*
X2230000D01*
X2224000Y-124528D01*
X2230000Y-118528D01*
X2224000D01*
X2218000Y-112528D01*
X2212000Y-118528D01*
X2206000D01*
X2212000Y-124528D01*
X2206000Y-130528D01*
X2212000D01*
X2218000Y-136528D01*
X2114000Y-40528D02*
X2124000Y-30527D01*
X2134000D01*
X2124000Y-20527D01*
X2134000Y-10527D01*
X2124000D01*
X2114000Y-527D01*
X2104000Y-10527D01*
X2094000D01*
X2104000Y-20527D01*
X2094000Y-30527D01*
X2104000D01*
X2114000Y-40528D01*
Y-32528D02*
X2120000Y-26527D01*
X2126000D01*
X2120000Y-20527D01*
X2126000Y-14527D01*
X2120000D01*
X2114000Y-8527D01*
X2108000Y-14527D01*
X2102000D01*
X2108000Y-20527D01*
X2102000Y-26527D01*
X2108000D01*
X2114000Y-32528D01*
X2510000Y-248528D02*
X2520000Y-238528D01*
X2530000D01*
X2520000Y-228528D01*
X2530000Y-218528D01*
X2520000D01*
X2510000Y-208528D01*
X2500000Y-218528D01*
X2490000D01*
X2500000Y-228528D01*
X2490000Y-238528D01*
X2500000D01*
X2510000Y-248528D01*
Y-240528D02*
X2516000Y-234528D01*
X2522000D01*
X2516000Y-228528D01*
X2522000Y-222528D01*
X2516000D01*
X2510000Y-216528D01*
X2504000Y-222528D01*
X2498000D01*
X2504000Y-228528D01*
X2498000Y-234528D01*
X2504000D01*
X2510000Y-240528D01*
X2406000Y-144528D02*
X2416000Y-134528D01*
X2426000D01*
X2416000Y-124528D01*
X2426000Y-114528D01*
X2416000D01*
X2406000Y-104528D01*
X2396000Y-114528D01*
X2386000D01*
X2396000Y-124528D01*
X2386000Y-134528D01*
X2396000D01*
X2406000Y-144528D01*
Y-136528D02*
X2412000Y-130528D01*
X2418000D01*
X2412000Y-124528D01*
X2418000Y-118528D01*
X2412000D01*
X2406000Y-112528D01*
X2400000Y-118528D01*
X2394000D01*
X2400000Y-124528D01*
X2394000Y-130528D01*
X2400000D01*
X2406000Y-136528D01*
X2302000Y-40528D02*
X2312000Y-30527D01*
X2322000D01*
X2312000Y-20527D01*
X2322000Y-10527D01*
X2312000D01*
X2302000Y-527D01*
X2292000Y-10527D01*
X2282000D01*
X2292000Y-20527D01*
X2282000Y-30527D01*
X2292000D01*
X2302000Y-40528D01*
Y-32528D02*
X2308000Y-26527D01*
X2314000D01*
X2308000Y-20527D01*
X2314000Y-14527D01*
X2308000D01*
X2302000Y-8527D01*
X2296000Y-14527D01*
X2290000D01*
X2296000Y-20527D01*
X2290000Y-26527D01*
X2296000D01*
X2302000Y-32528D01*
X2490000Y-40528D02*
X2500000Y-30527D01*
X2510000D01*
X2500000Y-20527D01*
X2510000Y-10527D01*
X2500000D01*
X2490000Y-527D01*
X2480000Y-10527D01*
X2470000D01*
X2480000Y-20527D01*
X2470000Y-30527D01*
X2480000D01*
X2490000Y-40528D01*
Y-32528D02*
X2496000Y-26527D01*
X2502000D01*
X2496000Y-20527D01*
X2502000Y-14527D01*
X2496000D01*
X2490000Y-8527D01*
X2484000Y-14527D01*
X2478000D01*
X2484000Y-20527D01*
X2478000Y-26527D01*
X2484000D01*
X2490000Y-32528D01*
X2884000Y-45528D02*
X2894000Y-35528D01*
X2904000D01*
X2894000Y-25527D01*
X2904000Y-15527D01*
X2894000D01*
X2884000Y-5527D01*
X2874000Y-15527D01*
X2864000D01*
X2874000Y-25527D01*
X2864000Y-35528D01*
X2874000D01*
X2884000Y-45528D01*
Y-37528D02*
X2890000Y-31527D01*
X2896000D01*
X2890000Y-25527D01*
X2896000Y-19527D01*
X2890000D01*
X2884000Y-13527D01*
X2878000Y-19527D01*
X2872000D01*
X2878000Y-25527D01*
X2872000Y-31527D01*
X2878000D01*
X2884000Y-37528D01*
X2988000Y-149528D02*
X2998000Y-139528D01*
X3008000D01*
X2998000Y-129528D01*
X3008000Y-119528D01*
X2998000D01*
X2988000Y-109528D01*
X2978000Y-119528D01*
X2968000D01*
X2978000Y-129528D01*
X2968000Y-139528D01*
X2978000D01*
X2988000Y-149528D01*
Y-141528D02*
X2994000Y-135528D01*
X3000000D01*
X2994000Y-129528D01*
X3000000Y-123528D01*
X2994000D01*
X2988000Y-117528D01*
X2982000Y-123528D01*
X2976000D01*
X2982000Y-129528D01*
X2976000Y-135528D01*
X2982000D01*
X2988000Y-141528D01*
X3092000Y-253528D02*
X3102000Y-243528D01*
X3112000D01*
X3102000Y-233528D01*
X3112000Y-223528D01*
X3102000D01*
X3092000Y-213528D01*
X3082000Y-223528D01*
X3072000D01*
X3082000Y-233528D01*
X3072000Y-243528D01*
X3082000D01*
X3092000Y-253528D01*
Y-245528D02*
X3098000Y-239528D01*
X3104000D01*
X3098000Y-233528D01*
X3104000Y-227528D01*
X3098000D01*
X3092000Y-221528D01*
X3086000Y-227528D01*
X3080000D01*
X3086000Y-233528D01*
X3080000Y-239528D01*
X3086000D01*
X3092000Y-245528D01*
X2696000Y-45528D02*
X2706000Y-35528D01*
X2716000D01*
X2706000Y-25527D01*
X2716000Y-15527D01*
X2706000D01*
X2696000Y-5527D01*
X2686000Y-15527D01*
X2676000D01*
X2686000Y-25527D01*
X2676000Y-35528D01*
X2686000D01*
X2696000Y-45528D01*
Y-37528D02*
X2702000Y-31527D01*
X2708000D01*
X2702000Y-25527D01*
X2708000Y-19527D01*
X2702000D01*
X2696000Y-13527D01*
X2690000Y-19527D01*
X2684000D01*
X2690000Y-25527D01*
X2684000Y-31527D01*
X2690000D01*
X2696000Y-37528D01*
X2800000Y-149528D02*
X2810000Y-139528D01*
X2820000D01*
X2810000Y-129528D01*
X2820000Y-119528D01*
X2810000D01*
X2800000Y-109528D01*
X2790000Y-119528D01*
X2780000D01*
X2790000Y-129528D01*
X2780000Y-139528D01*
X2790000D01*
X2800000Y-149528D01*
Y-141528D02*
X2806000Y-135528D01*
X2812000D01*
X2806000Y-129528D01*
X2812000Y-123528D01*
X2806000D01*
X2800000Y-117528D01*
X2794000Y-123528D01*
X2788000D01*
X2794000Y-129528D01*
X2788000Y-135528D01*
X2794000D01*
X2800000Y-141528D01*
X2904000Y-253528D02*
X2914000Y-243528D01*
X2924000D01*
X2914000Y-233528D01*
X2924000Y-223528D01*
X2914000D01*
X2904000Y-213528D01*
X2894000Y-223528D01*
X2884000D01*
X2894000Y-233528D01*
X2884000Y-243528D01*
X2894000D01*
X2904000Y-253528D01*
Y-245528D02*
X2910000Y-239528D01*
X2916000D01*
X2910000Y-233528D01*
X2916000Y-227528D01*
X2910000D01*
X2904000Y-221528D01*
X2898000Y-227528D01*
X2892000D01*
X2898000Y-233528D01*
X2892000Y-239528D01*
X2898000D01*
X2904000Y-245528D01*
X2716000Y-253528D02*
X2726000Y-243528D01*
X2736000D01*
X2726000Y-233528D01*
X2736000Y-223528D01*
X2726000D01*
X2716000Y-213528D01*
X2706000Y-223528D01*
X2696000D01*
X2706000Y-233528D01*
X2696000Y-243528D01*
X2706000D01*
X2716000Y-253528D01*
Y-245528D02*
X2722000Y-239528D01*
X2728000D01*
X2722000Y-233528D01*
X2728000Y-227528D01*
X2722000D01*
X2716000Y-221528D01*
X2710000Y-227528D01*
X2704000D01*
X2710000Y-233528D01*
X2704000Y-239528D01*
X2710000D01*
X2716000Y-245528D01*
X928000Y-253528D02*
X938000Y-243528D01*
X948000D01*
X938000Y-233528D01*
X948000Y-223528D01*
X938000D01*
X928000Y-213528D01*
X918000Y-223528D01*
X908000D01*
X918000Y-233528D01*
X908000Y-243528D01*
X918000D01*
X928000Y-253528D01*
Y-245528D02*
X934000Y-239528D01*
X940000D01*
X934000Y-233528D01*
X940000Y-227528D01*
X934000D01*
X928000Y-221528D01*
X922000Y-227528D01*
X916000D01*
X922000Y-233528D01*
X916000Y-239528D01*
X922000D01*
X928000Y-245528D01*
X1116000Y-253528D02*
X1126000Y-243528D01*
X1136000D01*
X1126000Y-233528D01*
X1136000Y-223528D01*
X1126000D01*
X1116000Y-213528D01*
X1106000Y-223528D01*
X1096000D01*
X1106000Y-233528D01*
X1096000Y-243528D01*
X1106000D01*
X1116000Y-253528D01*
Y-245528D02*
X1122000Y-239528D01*
X1128000D01*
X1122000Y-233528D01*
X1128000Y-227528D01*
X1122000D01*
X1116000Y-221528D01*
X1110000Y-227528D01*
X1104000D01*
X1110000Y-233528D01*
X1104000Y-239528D01*
X1110000D01*
X1116000Y-245528D01*
X1012000Y-149528D02*
X1022000Y-139528D01*
X1032000D01*
X1022000Y-129528D01*
X1032000Y-119528D01*
X1022000D01*
X1012000Y-109528D01*
X1002000Y-119528D01*
X992000D01*
X1002000Y-129528D01*
X992000Y-139528D01*
X1002000D01*
X1012000Y-149528D01*
Y-141528D02*
X1018000Y-135528D01*
X1024000D01*
X1018000Y-129528D01*
X1024000Y-123528D01*
X1018000D01*
X1012000Y-117528D01*
X1006000Y-123528D01*
X1000000D01*
X1006000Y-129528D01*
X1000000Y-135528D01*
X1006000D01*
X1012000Y-141528D01*
X908000Y-45528D02*
X918000Y-35528D01*
X928000D01*
X918000Y-25527D01*
X928000Y-15527D01*
X918000D01*
X908000Y-5527D01*
X898000Y-15527D01*
X888000D01*
X898000Y-25527D01*
X888000Y-35528D01*
X898000D01*
X908000Y-45528D01*
Y-37528D02*
X914000Y-31527D01*
X920000D01*
X914000Y-25527D01*
X920000Y-19527D01*
X914000D01*
X908000Y-13527D01*
X902000Y-19527D01*
X896000D01*
X902000Y-25527D01*
X896000Y-31527D01*
X902000D01*
X908000Y-37528D01*
X1304000Y-253528D02*
X1314000Y-243528D01*
X1324000D01*
X1314000Y-233528D01*
X1324000Y-223528D01*
X1314000D01*
X1304000Y-213528D01*
X1294000Y-223528D01*
X1284000D01*
X1294000Y-233528D01*
X1284000Y-243528D01*
X1294000D01*
X1304000Y-253528D01*
Y-245528D02*
X1310000Y-239528D01*
X1316000D01*
X1310000Y-233528D01*
X1316000Y-227528D01*
X1310000D01*
X1304000Y-221528D01*
X1298000Y-227528D01*
X1292000D01*
X1298000Y-233528D01*
X1292000Y-239528D01*
X1298000D01*
X1304000Y-245528D01*
X1200000Y-149528D02*
X1210000Y-139528D01*
X1220000D01*
X1210000Y-129528D01*
X1220000Y-119528D01*
X1210000D01*
X1200000Y-109528D01*
X1190000Y-119528D01*
X1180000D01*
X1190000Y-129528D01*
X1180000Y-139528D01*
X1190000D01*
X1200000Y-149528D01*
Y-141528D02*
X1206000Y-135528D01*
X1212000D01*
X1206000Y-129528D01*
X1212000Y-123528D01*
X1206000D01*
X1200000Y-117528D01*
X1194000Y-123528D01*
X1188000D01*
X1194000Y-129528D01*
X1188000Y-135528D01*
X1194000D01*
X1200000Y-141528D01*
X1096000Y-45528D02*
X1106000Y-35528D01*
X1116000D01*
X1106000Y-25527D01*
X1116000Y-15527D01*
X1106000D01*
X1096000Y-5527D01*
X1086000Y-15527D01*
X1076000D01*
X1086000Y-25527D01*
X1076000Y-35528D01*
X1086000D01*
X1096000Y-45528D01*
Y-37528D02*
X1102000Y-31527D01*
X1108000D01*
X1102000Y-25527D01*
X1108000Y-19527D01*
X1102000D01*
X1096000Y-13527D01*
X1090000Y-19527D01*
X1084000D01*
X1090000Y-25527D01*
X1084000Y-31527D01*
X1090000D01*
X1096000Y-37528D01*
X1284000Y-45528D02*
X1294000Y-35528D01*
X1304000D01*
X1294000Y-25527D01*
X1304000Y-15527D01*
X1294000D01*
X1284000Y-5527D01*
X1274000Y-15527D01*
X1264000D01*
X1274000Y-25527D01*
X1264000Y-35528D01*
X1274000D01*
X1284000Y-45528D01*
Y-37528D02*
X1290000Y-31527D01*
X1296000D01*
X1290000Y-25527D01*
X1296000Y-19527D01*
X1290000D01*
X1284000Y-13527D01*
X1278000Y-19527D01*
X1272000D01*
X1278000Y-25527D01*
X1272000Y-31527D01*
X1278000D01*
X1284000Y-37528D01*
X862000Y-515528D02*
X872000Y-505527D01*
X882000D01*
X872000Y-495527D01*
X882000Y-485527D01*
X872000D01*
X862000Y-475527D01*
X852000Y-485527D01*
X842000D01*
X852000Y-495527D01*
X842000Y-505527D01*
X852000D01*
X862000Y-515528D01*
Y-507527D02*
X868000Y-501527D01*
X874000D01*
X868000Y-495527D01*
X874000Y-489527D01*
X868000D01*
X862000Y-483527D01*
X856000Y-489527D01*
X850000D01*
X856000Y-495527D01*
X850000Y-501527D01*
X856000D01*
X862000Y-507527D01*
X949000Y-562528D02*
X959000Y-552528D01*
X969000D01*
X959000Y-542528D01*
X969000Y-532528D01*
X959000D01*
X949000Y-522528D01*
X939000Y-532528D01*
X929000D01*
X939000Y-542528D01*
X929000Y-552528D01*
X939000D01*
X949000Y-562528D01*
Y-554528D02*
X955000Y-548528D01*
X961000D01*
X955000Y-542528D01*
X961000Y-536528D01*
X955000D01*
X949000Y-530528D01*
X943000Y-536528D01*
X937000D01*
X943000Y-542528D01*
X937000Y-548528D01*
X943000D01*
X949000Y-554528D01*
X862000Y-421527D02*
X872000Y-411527D01*
X882000D01*
X872000Y-401527D01*
X882000Y-391527D01*
X872000D01*
X862000Y-381527D01*
X852000Y-391527D01*
X842000D01*
X852000Y-401527D01*
X842000Y-411527D01*
X852000D01*
X862000Y-421527D01*
Y-413527D02*
X868000Y-407527D01*
X874000D01*
X868000Y-401527D01*
X874000Y-395527D01*
X868000D01*
X862000Y-389527D01*
X856000Y-395527D01*
X850000D01*
X856000Y-401527D01*
X850000Y-407527D01*
X856000D01*
X862000Y-413527D01*
X949000Y-468527D02*
X959000Y-458527D01*
X969000D01*
X959000Y-448527D01*
X969000Y-438527D01*
X959000D01*
X949000Y-428527D01*
X939000Y-438527D01*
X929000D01*
X939000Y-448527D01*
X929000Y-458527D01*
X939000D01*
X949000Y-468527D01*
Y-460527D02*
X955000Y-454527D01*
X961000D01*
X955000Y-448527D01*
X961000Y-442527D01*
X955000D01*
X949000Y-436527D01*
X943000Y-442527D01*
X937000D01*
X943000Y-448527D01*
X937000Y-454527D01*
X943000D01*
X949000Y-460527D01*
X1036000Y-515528D02*
X1046000Y-505527D01*
X1056000D01*
X1046000Y-495527D01*
X1056000Y-485527D01*
X1046000D01*
X1036000Y-475527D01*
X1026000Y-485527D01*
X1016000D01*
X1026000Y-495527D01*
X1016000Y-505527D01*
X1026000D01*
X1036000Y-515528D01*
Y-507527D02*
X1042000Y-501527D01*
X1048000D01*
X1042000Y-495527D01*
X1048000Y-489527D01*
X1042000D01*
X1036000Y-483527D01*
X1030000Y-489527D01*
X1024000D01*
X1030000Y-495527D01*
X1024000Y-501527D01*
X1030000D01*
X1036000Y-507527D01*
X1123000Y-562528D02*
X1133000Y-552528D01*
X1143000D01*
X1133000Y-542528D01*
X1143000Y-532528D01*
X1133000D01*
X1123000Y-522528D01*
X1113000Y-532528D01*
X1103000D01*
X1113000Y-542528D01*
X1103000Y-552528D01*
X1113000D01*
X1123000Y-562528D01*
Y-554528D02*
X1129000Y-548528D01*
X1135000D01*
X1129000Y-542528D01*
X1135000Y-536528D01*
X1129000D01*
X1123000Y-530528D01*
X1117000Y-536528D01*
X1111000D01*
X1117000Y-542528D01*
X1111000Y-548528D01*
X1117000D01*
X1123000Y-554528D01*
Y-468527D02*
X1133000Y-458527D01*
X1143000D01*
X1133000Y-448527D01*
X1143000Y-438527D01*
X1133000D01*
X1123000Y-428527D01*
X1113000Y-438527D01*
X1103000D01*
X1113000Y-448527D01*
X1103000Y-458527D01*
X1113000D01*
X1123000Y-468527D01*
Y-460527D02*
X1129000Y-454527D01*
X1135000D01*
X1129000Y-448527D01*
X1135000Y-442527D01*
X1129000D01*
X1123000Y-436527D01*
X1117000Y-442527D01*
X1111000D01*
X1117000Y-448527D01*
X1111000Y-454527D01*
X1117000D01*
X1123000Y-460527D01*
X1036000Y-421527D02*
X1046000Y-411527D01*
X1056000D01*
X1046000Y-401527D01*
X1056000Y-391527D01*
X1046000D01*
X1036000Y-381527D01*
X1026000Y-391527D01*
X1016000D01*
X1026000Y-401527D01*
X1016000Y-411527D01*
X1026000D01*
X1036000Y-421527D01*
Y-413527D02*
X1042000Y-407527D01*
X1048000D01*
X1042000Y-401527D01*
X1048000Y-395527D01*
X1042000D01*
X1036000Y-389527D01*
X1030000Y-395527D01*
X1024000D01*
X1030000Y-401527D01*
X1024000Y-407527D01*
X1030000D01*
X1036000Y-413527D01*
X1123000Y-374527D02*
X1133000Y-364527D01*
X1143000D01*
X1133000Y-354527D01*
X1143000Y-344527D01*
X1133000D01*
X1123000Y-334527D01*
X1113000Y-344527D01*
X1103000D01*
X1113000Y-354527D01*
X1103000Y-364527D01*
X1113000D01*
X1123000Y-374527D01*
Y-366527D02*
X1129000Y-360527D01*
X1135000D01*
X1129000Y-354527D01*
X1135000Y-348527D01*
X1129000D01*
X1123000Y-342527D01*
X1117000Y-348527D01*
X1111000D01*
X1117000Y-354527D01*
X1111000Y-360527D01*
X1117000D01*
X1123000Y-366527D01*
X949000Y-374527D02*
X959000Y-364527D01*
X969000D01*
X959000Y-354527D01*
X969000Y-344527D01*
X959000D01*
X949000Y-334527D01*
X939000Y-344527D01*
X929000D01*
X939000Y-354527D01*
X929000Y-364527D01*
X939000D01*
X949000Y-374527D01*
Y-366527D02*
X955000Y-360527D01*
X961000D01*
X955000Y-354527D01*
X961000Y-348527D01*
X955000D01*
X949000Y-342527D01*
X943000Y-348527D01*
X937000D01*
X943000Y-354527D01*
X937000Y-360527D01*
X943000D01*
X949000Y-366527D01*
X1036000Y-327527D02*
X1046000Y-317527D01*
X1056000D01*
X1046000Y-307527D01*
X1056000Y-297527D01*
X1046000D01*
X1036000Y-287527D01*
X1026000Y-297527D01*
X1016000D01*
X1026000Y-307527D01*
X1016000Y-317527D01*
X1026000D01*
X1036000Y-327527D01*
Y-319527D02*
X1042000Y-313527D01*
X1048000D01*
X1042000Y-307527D01*
X1048000Y-301527D01*
X1042000D01*
X1036000Y-295527D01*
X1030000Y-301527D01*
X1024000D01*
X1030000Y-307527D01*
X1024000Y-313527D01*
X1030000D01*
X1036000Y-319527D01*
X862000Y-327527D02*
X872000Y-317527D01*
X882000D01*
X872000Y-307527D01*
X882000Y-297527D01*
X872000D01*
X862000Y-287527D01*
X852000Y-297527D01*
X842000D01*
X852000Y-307527D01*
X842000Y-317527D01*
X852000D01*
X862000Y-327527D01*
Y-319527D02*
X868000Y-313527D01*
X874000D01*
X868000Y-307527D01*
X874000Y-301527D01*
X868000D01*
X862000Y-295527D01*
X856000Y-301527D01*
X850000D01*
X856000Y-307527D01*
X850000Y-313527D01*
X856000D01*
X862000Y-319527D01*
X949000Y-837528D02*
X959000Y-827528D01*
X969000D01*
X959000Y-817528D01*
X969000Y-807528D01*
X959000D01*
X949000Y-797528D01*
X939000Y-807528D01*
X929000D01*
X939000Y-817528D01*
X929000Y-827528D01*
X939000D01*
X949000Y-837528D01*
Y-829528D02*
X955000Y-823528D01*
X961000D01*
X955000Y-817528D01*
X961000Y-811528D01*
X955000D01*
X949000Y-805528D01*
X943000Y-811528D01*
X937000D01*
X943000Y-817528D01*
X937000Y-823528D01*
X943000D01*
X949000Y-829528D01*
X862000Y-696528D02*
X872000Y-686528D01*
X882000D01*
X872000Y-676528D01*
X882000Y-666528D01*
X872000D01*
X862000Y-656528D01*
X852000Y-666528D01*
X842000D01*
X852000Y-676528D01*
X842000Y-686528D01*
X852000D01*
X862000Y-696528D01*
Y-688528D02*
X868000Y-682528D01*
X874000D01*
X868000Y-676528D01*
X874000Y-670528D01*
X868000D01*
X862000Y-664528D01*
X856000Y-670528D01*
X850000D01*
X856000Y-676528D01*
X850000Y-682528D01*
X856000D01*
X862000Y-688528D01*
X949000Y-743528D02*
X959000Y-733528D01*
X969000D01*
X959000Y-723528D01*
X969000Y-713528D01*
X959000D01*
X949000Y-703528D01*
X939000Y-713528D01*
X929000D01*
X939000Y-723528D01*
X929000Y-733528D01*
X939000D01*
X949000Y-743528D01*
Y-735528D02*
X955000Y-729528D01*
X961000D01*
X955000Y-723528D01*
X961000Y-717528D01*
X955000D01*
X949000Y-711528D01*
X943000Y-717528D01*
X937000D01*
X943000Y-723528D01*
X937000Y-729528D01*
X943000D01*
X949000Y-735528D01*
X1036000Y-790528D02*
X1046000Y-780528D01*
X1056000D01*
X1046000Y-770528D01*
X1056000Y-760528D01*
X1046000D01*
X1036000Y-750528D01*
X1026000Y-760528D01*
X1016000D01*
X1026000Y-770528D01*
X1016000Y-780528D01*
X1026000D01*
X1036000Y-790528D01*
Y-782528D02*
X1042000Y-776528D01*
X1048000D01*
X1042000Y-770528D01*
X1048000Y-764528D01*
X1042000D01*
X1036000Y-758528D01*
X1030000Y-764528D01*
X1024000D01*
X1030000Y-770528D01*
X1024000Y-776528D01*
X1030000D01*
X1036000Y-782528D01*
X1123000Y-837528D02*
X1133000Y-827528D01*
X1143000D01*
X1133000Y-817528D01*
X1143000Y-807528D01*
X1133000D01*
X1123000Y-797528D01*
X1113000Y-807528D01*
X1103000D01*
X1113000Y-817528D01*
X1103000Y-827528D01*
X1113000D01*
X1123000Y-837528D01*
Y-829528D02*
X1129000Y-823528D01*
X1135000D01*
X1129000Y-817528D01*
X1135000Y-811528D01*
X1129000D01*
X1123000Y-805528D01*
X1117000Y-811528D01*
X1111000D01*
X1117000Y-817528D01*
X1111000Y-823528D01*
X1117000D01*
X1123000Y-829528D01*
Y-743528D02*
X1133000Y-733528D01*
X1143000D01*
X1133000Y-723528D01*
X1143000Y-713528D01*
X1133000D01*
X1123000Y-703528D01*
X1113000Y-713528D01*
X1103000D01*
X1113000Y-723528D01*
X1103000Y-733528D01*
X1113000D01*
X1123000Y-743528D01*
Y-735528D02*
X1129000Y-729528D01*
X1135000D01*
X1129000Y-723528D01*
X1135000Y-717528D01*
X1129000D01*
X1123000Y-711528D01*
X1117000Y-717528D01*
X1111000D01*
X1117000Y-723528D01*
X1111000Y-729528D01*
X1117000D01*
X1123000Y-735528D01*
X1036000Y-696528D02*
X1046000Y-686528D01*
X1056000D01*
X1046000Y-676528D01*
X1056000Y-666528D01*
X1046000D01*
X1036000Y-656528D01*
X1026000Y-666528D01*
X1016000D01*
X1026000Y-676528D01*
X1016000Y-686528D01*
X1026000D01*
X1036000Y-696528D01*
Y-688528D02*
X1042000Y-682528D01*
X1048000D01*
X1042000Y-676528D01*
X1048000Y-670528D01*
X1042000D01*
X1036000Y-664528D01*
X1030000Y-670528D01*
X1024000D01*
X1030000Y-676528D01*
X1024000Y-682528D01*
X1030000D01*
X1036000Y-688528D01*
X1123000Y-649528D02*
X1133000Y-639528D01*
X1143000D01*
X1133000Y-629528D01*
X1143000Y-619528D01*
X1133000D01*
X1123000Y-609528D01*
X1113000Y-619528D01*
X1103000D01*
X1113000Y-629528D01*
X1103000Y-639528D01*
X1113000D01*
X1123000Y-649528D01*
Y-641528D02*
X1129000Y-635528D01*
X1135000D01*
X1129000Y-629528D01*
X1135000Y-623528D01*
X1129000D01*
X1123000Y-617528D01*
X1117000Y-623528D01*
X1111000D01*
X1117000Y-629528D01*
X1111000Y-635528D01*
X1117000D01*
X1123000Y-641528D01*
X949000Y-649528D02*
X959000Y-639528D01*
X969000D01*
X959000Y-629528D01*
X969000Y-619528D01*
X959000D01*
X949000Y-609528D01*
X939000Y-619528D01*
X929000D01*
X939000Y-629528D01*
X929000Y-639528D01*
X939000D01*
X949000Y-649528D01*
Y-641528D02*
X955000Y-635528D01*
X961000D01*
X955000Y-629528D01*
X961000Y-623528D01*
X955000D01*
X949000Y-617528D01*
X943000Y-623528D01*
X937000D01*
X943000Y-629528D01*
X937000Y-635528D01*
X943000D01*
X949000Y-641528D01*
X1036000Y-602528D02*
X1046000Y-592528D01*
X1056000D01*
X1046000Y-582528D01*
X1056000Y-572528D01*
X1046000D01*
X1036000Y-562528D01*
X1026000Y-572528D01*
X1016000D01*
X1026000Y-582528D01*
X1016000Y-592528D01*
X1026000D01*
X1036000Y-602528D01*
Y-594528D02*
X1042000Y-588528D01*
X1048000D01*
X1042000Y-582528D01*
X1048000Y-576528D01*
X1042000D01*
X1036000Y-570528D01*
X1030000Y-576528D01*
X1024000D01*
X1030000Y-582528D01*
X1024000Y-588528D01*
X1030000D01*
X1036000Y-594528D01*
X862000Y-602528D02*
X872000Y-592528D01*
X882000D01*
X872000Y-582528D01*
X882000Y-572528D01*
X872000D01*
X862000Y-562528D01*
X852000Y-572528D01*
X842000D01*
X852000Y-582528D01*
X842000Y-592528D01*
X852000D01*
X862000Y-602528D01*
Y-594528D02*
X868000Y-588528D01*
X874000D01*
X868000Y-582528D01*
X874000Y-576528D01*
X868000D01*
X862000Y-570528D01*
X856000Y-576528D01*
X850000D01*
X856000Y-582528D01*
X850000Y-588528D01*
X856000D01*
X862000Y-594528D01*
X1124000Y-1137527D02*
X1134000Y-1127527D01*
X1144000D01*
X1134000Y-1117527D01*
X1144000Y-1107527D01*
X1134000D01*
X1124000Y-1097527D01*
X1114000Y-1107527D01*
X1104000D01*
X1114000Y-1117527D01*
X1104000Y-1127527D01*
X1114000D01*
X1124000Y-1137527D01*
Y-1129527D02*
X1130000Y-1123527D01*
X1136000D01*
X1130000Y-1117527D01*
X1136000Y-1111527D01*
X1130000D01*
X1124000Y-1105527D01*
X1118000Y-1111527D01*
X1112000D01*
X1118000Y-1117527D01*
X1112000Y-1123527D01*
X1118000D01*
X1124000Y-1129527D01*
Y-1043527D02*
X1134000Y-1033527D01*
X1144000D01*
X1134000Y-1023528D01*
X1144000Y-1013528D01*
X1134000D01*
X1124000Y-1003528D01*
X1114000Y-1013528D01*
X1104000D01*
X1114000Y-1023528D01*
X1104000Y-1033527D01*
X1114000D01*
X1124000Y-1043527D01*
Y-1035527D02*
X1130000Y-1029527D01*
X1136000D01*
X1130000Y-1023528D01*
X1136000Y-1017528D01*
X1130000D01*
X1124000Y-1011528D01*
X1118000Y-1017528D01*
X1112000D01*
X1118000Y-1023528D01*
X1112000Y-1029527D01*
X1118000D01*
X1124000Y-1035527D01*
X1211000Y-1090527D02*
X1221000Y-1080527D01*
X1231000D01*
X1221000Y-1070527D01*
X1231000Y-1060527D01*
X1221000D01*
X1211000Y-1050527D01*
X1201000Y-1060527D01*
X1191000D01*
X1201000Y-1070527D01*
X1191000Y-1080527D01*
X1201000D01*
X1211000Y-1090527D01*
Y-1082527D02*
X1217000Y-1076527D01*
X1223000D01*
X1217000Y-1070527D01*
X1223000Y-1064527D01*
X1217000D01*
X1211000Y-1058527D01*
X1205000Y-1064527D01*
X1199000D01*
X1205000Y-1070527D01*
X1199000Y-1076527D01*
X1205000D01*
X1211000Y-1082527D01*
X1298000Y-1137527D02*
X1308000Y-1127527D01*
X1318000D01*
X1308000Y-1117527D01*
X1318000Y-1107527D01*
X1308000D01*
X1298000Y-1097527D01*
X1288000Y-1107527D01*
X1278000D01*
X1288000Y-1117527D01*
X1278000Y-1127527D01*
X1288000D01*
X1298000Y-1137527D01*
Y-1129527D02*
X1304000Y-1123527D01*
X1310000D01*
X1304000Y-1117527D01*
X1310000Y-1111527D01*
X1304000D01*
X1298000Y-1105527D01*
X1292000Y-1111527D01*
X1286000D01*
X1292000Y-1117527D01*
X1286000Y-1123527D01*
X1292000D01*
X1298000Y-1129527D01*
Y-1043527D02*
X1308000Y-1033527D01*
X1318000D01*
X1308000Y-1023528D01*
X1318000Y-1013528D01*
X1308000D01*
X1298000Y-1003528D01*
X1288000Y-1013528D01*
X1278000D01*
X1288000Y-1023528D01*
X1278000Y-1033527D01*
X1288000D01*
X1298000Y-1043527D01*
Y-1035527D02*
X1304000Y-1029527D01*
X1310000D01*
X1304000Y-1023528D01*
X1310000Y-1017528D01*
X1304000D01*
X1298000Y-1011528D01*
X1292000Y-1017528D01*
X1286000D01*
X1292000Y-1023528D01*
X1286000Y-1029527D01*
X1292000D01*
X1298000Y-1035527D01*
X1211000Y-996528D02*
X1221000Y-986528D01*
X1231000D01*
X1221000Y-976528D01*
X1231000Y-966528D01*
X1221000D01*
X1211000Y-956528D01*
X1201000Y-966528D01*
X1191000D01*
X1201000Y-976528D01*
X1191000Y-986528D01*
X1201000D01*
X1211000Y-996528D01*
Y-988528D02*
X1217000Y-982528D01*
X1223000D01*
X1217000Y-976528D01*
X1223000Y-970528D01*
X1217000D01*
X1211000Y-964528D01*
X1205000Y-970528D01*
X1199000D01*
X1205000Y-976528D01*
X1199000Y-982528D01*
X1205000D01*
X1211000Y-988528D01*
X1298000Y-949528D02*
X1308000Y-939528D01*
X1318000D01*
X1308000Y-929528D01*
X1318000Y-919528D01*
X1308000D01*
X1298000Y-909528D01*
X1288000Y-919528D01*
X1278000D01*
X1288000Y-929528D01*
X1278000Y-939528D01*
X1288000D01*
X1298000Y-949528D01*
Y-941528D02*
X1304000Y-935528D01*
X1310000D01*
X1304000Y-929528D01*
X1310000Y-923528D01*
X1304000D01*
X1298000Y-917528D01*
X1292000Y-923528D01*
X1286000D01*
X1292000Y-929528D01*
X1286000Y-935528D01*
X1292000D01*
X1298000Y-941528D01*
X1124000Y-949528D02*
X1134000Y-939528D01*
X1144000D01*
X1134000Y-929528D01*
X1144000Y-919528D01*
X1134000D01*
X1124000Y-909528D01*
X1114000Y-919528D01*
X1104000D01*
X1114000Y-929528D01*
X1104000Y-939528D01*
X1114000D01*
X1124000Y-949528D01*
Y-941528D02*
X1130000Y-935528D01*
X1136000D01*
X1130000Y-929528D01*
X1136000Y-923528D01*
X1130000D01*
X1124000Y-917528D01*
X1118000Y-923528D01*
X1112000D01*
X1118000Y-929528D01*
X1112000Y-935528D01*
X1118000D01*
X1124000Y-941528D01*
X1211000Y-902528D02*
X1221000Y-892528D01*
X1231000D01*
X1221000Y-882528D01*
X1231000Y-872528D01*
X1221000D01*
X1211000Y-862528D01*
X1201000Y-872528D01*
X1191000D01*
X1201000Y-882528D01*
X1191000Y-892528D01*
X1201000D01*
X1211000Y-902528D01*
Y-894528D02*
X1217000Y-888528D01*
X1223000D01*
X1217000Y-882528D01*
X1223000Y-876528D01*
X1217000D01*
X1211000Y-870528D01*
X1205000Y-876528D01*
X1199000D01*
X1205000Y-882528D01*
X1199000Y-888528D01*
X1205000D01*
X1211000Y-894528D01*
X1037000Y-902528D02*
X1047000Y-892528D01*
X1057000D01*
X1047000Y-882528D01*
X1057000Y-872528D01*
X1047000D01*
X1037000Y-862528D01*
X1027000Y-872528D01*
X1017000D01*
X1027000Y-882528D01*
X1017000Y-892528D01*
X1027000D01*
X1037000Y-902528D01*
Y-894528D02*
X1043000Y-888528D01*
X1049000D01*
X1043000Y-882528D01*
X1049000Y-876528D01*
X1043000D01*
X1037000Y-870528D01*
X1031000Y-876528D01*
X1025000D01*
X1031000Y-882528D01*
X1025000Y-888528D01*
X1031000D01*
X1037000Y-894528D01*
X1210000Y-790528D02*
X1220000Y-780528D01*
X1230000D01*
X1220000Y-770528D01*
X1230000Y-760528D01*
X1220000D01*
X1210000Y-750528D01*
X1200000Y-760528D01*
X1190000D01*
X1200000Y-770528D01*
X1190000Y-780528D01*
X1200000D01*
X1210000Y-790528D01*
Y-782528D02*
X1216000Y-776528D01*
X1222000D01*
X1216000Y-770528D01*
X1222000Y-764528D01*
X1216000D01*
X1210000Y-758528D01*
X1204000Y-764528D01*
X1198000D01*
X1204000Y-770528D01*
X1198000Y-776528D01*
X1204000D01*
X1210000Y-782528D01*
X1297000Y-837528D02*
X1307000Y-827528D01*
X1317000D01*
X1307000Y-817528D01*
X1317000Y-807528D01*
X1307000D01*
X1297000Y-797528D01*
X1287000Y-807528D01*
X1277000D01*
X1287000Y-817528D01*
X1277000Y-827528D01*
X1287000D01*
X1297000Y-837528D01*
Y-829528D02*
X1303000Y-823528D01*
X1309000D01*
X1303000Y-817528D01*
X1309000Y-811528D01*
X1303000D01*
X1297000Y-805528D01*
X1291000Y-811528D01*
X1285000D01*
X1291000Y-817528D01*
X1285000Y-823528D01*
X1291000D01*
X1297000Y-829528D01*
X1471000Y-837528D02*
X1481000Y-827528D01*
X1491000D01*
X1481000Y-817528D01*
X1491000Y-807528D01*
X1481000D01*
X1471000Y-797528D01*
X1461000Y-807528D01*
X1451000D01*
X1461000Y-817528D01*
X1451000Y-827528D01*
X1461000D01*
X1471000Y-837528D01*
Y-829528D02*
X1477000Y-823528D01*
X1483000D01*
X1477000Y-817528D01*
X1483000Y-811528D01*
X1477000D01*
X1471000Y-805528D01*
X1465000Y-811528D01*
X1459000D01*
X1465000Y-817528D01*
X1459000Y-823528D01*
X1465000D01*
X1471000Y-829528D01*
X1387000Y-1090527D02*
X1397000Y-1080527D01*
X1407000D01*
X1397000Y-1070527D01*
X1407000Y-1060527D01*
X1397000D01*
X1387000Y-1050527D01*
X1377000Y-1060527D01*
X1367000D01*
X1377000Y-1070527D01*
X1367000Y-1080527D01*
X1377000D01*
X1387000Y-1090527D01*
Y-1082527D02*
X1393000Y-1076527D01*
X1399000D01*
X1393000Y-1070527D01*
X1399000Y-1064527D01*
X1393000D01*
X1387000Y-1058527D01*
X1381000Y-1064527D01*
X1375000D01*
X1381000Y-1070527D01*
X1375000Y-1076527D01*
X1381000D01*
X1387000Y-1082527D01*
X1474000Y-1137527D02*
X1484000Y-1127527D01*
X1494000D01*
X1484000Y-1117527D01*
X1494000Y-1107527D01*
X1484000D01*
X1474000Y-1097527D01*
X1464000Y-1107527D01*
X1454000D01*
X1464000Y-1117527D01*
X1454000Y-1127527D01*
X1464000D01*
X1474000Y-1137527D01*
Y-1129527D02*
X1480000Y-1123527D01*
X1486000D01*
X1480000Y-1117527D01*
X1486000Y-1111527D01*
X1480000D01*
X1474000Y-1105527D01*
X1468000Y-1111527D01*
X1462000D01*
X1468000Y-1117527D01*
X1462000Y-1123527D01*
X1468000D01*
X1474000Y-1129527D01*
X1387000Y-996528D02*
X1397000Y-986528D01*
X1407000D01*
X1397000Y-976528D01*
X1407000Y-966528D01*
X1397000D01*
X1387000Y-956528D01*
X1377000Y-966528D01*
X1367000D01*
X1377000Y-976528D01*
X1367000Y-986528D01*
X1377000D01*
X1387000Y-996528D01*
Y-988528D02*
X1393000Y-982528D01*
X1399000D01*
X1393000Y-976528D01*
X1399000Y-970528D01*
X1393000D01*
X1387000Y-964528D01*
X1381000Y-970528D01*
X1375000D01*
X1381000Y-976528D01*
X1375000Y-982528D01*
X1381000D01*
X1387000Y-988528D01*
Y-902528D02*
X1397000Y-892528D01*
X1407000D01*
X1397000Y-882528D01*
X1407000Y-872528D01*
X1397000D01*
X1387000Y-862528D01*
X1377000Y-872528D01*
X1367000D01*
X1377000Y-882528D01*
X1367000Y-892528D01*
X1377000D01*
X1387000Y-902528D01*
Y-894528D02*
X1393000Y-888528D01*
X1399000D01*
X1393000Y-882528D01*
X1399000Y-876528D01*
X1393000D01*
X1387000Y-870528D01*
X1381000Y-876528D01*
X1375000D01*
X1381000Y-882528D01*
X1375000Y-888528D01*
X1381000D01*
X1387000Y-894528D01*
X1175000Y-1199527D02*
X1185000Y-1189527D01*
X1195000D01*
X1185000Y-1179527D01*
X1195000Y-1169527D01*
X1185000D01*
X1175000Y-1159527D01*
X1165000Y-1169527D01*
X1155000D01*
X1165000Y-1179527D01*
X1155000Y-1189527D01*
X1165000D01*
X1175000Y-1199527D01*
Y-1191527D02*
X1181000Y-1185527D01*
X1187000D01*
X1181000Y-1179527D01*
X1187000Y-1173527D01*
X1181000D01*
X1175000Y-1167527D01*
X1169000Y-1173527D01*
X1163000D01*
X1169000Y-1179527D01*
X1163000Y-1185527D01*
X1169000D01*
X1175000Y-1191527D01*
X1262000Y-1246527D02*
X1272000Y-1236527D01*
X1282000D01*
X1272000Y-1226527D01*
X1282000Y-1216527D01*
X1272000D01*
X1262000Y-1206527D01*
X1252000Y-1216527D01*
X1242000D01*
X1252000Y-1226527D01*
X1242000Y-1236527D01*
X1252000D01*
X1262000Y-1246527D01*
Y-1238527D02*
X1268000Y-1232527D01*
X1274000D01*
X1268000Y-1226527D01*
X1274000Y-1220527D01*
X1268000D01*
X1262000Y-1214527D01*
X1256000Y-1220527D01*
X1250000D01*
X1256000Y-1226527D01*
X1250000Y-1232527D01*
X1256000D01*
X1262000Y-1238527D01*
Y-1340527D02*
X1272000Y-1330527D01*
X1282000D01*
X1272000Y-1320527D01*
X1282000Y-1310527D01*
X1272000D01*
X1262000Y-1300527D01*
X1252000Y-1310527D01*
X1242000D01*
X1252000Y-1320527D01*
X1242000Y-1330527D01*
X1252000D01*
X1262000Y-1340527D01*
Y-1332527D02*
X1268000Y-1326527D01*
X1274000D01*
X1268000Y-1320527D01*
X1274000Y-1314527D01*
X1268000D01*
X1262000Y-1308527D01*
X1256000Y-1314527D01*
X1250000D01*
X1256000Y-1320527D01*
X1250000Y-1326527D01*
X1256000D01*
X1262000Y-1332527D01*
X1175000Y-1293527D02*
X1185000Y-1283527D01*
X1195000D01*
X1185000Y-1273527D01*
X1195000Y-1263527D01*
X1185000D01*
X1175000Y-1253527D01*
X1165000Y-1263527D01*
X1155000D01*
X1165000Y-1273527D01*
X1155000Y-1283527D01*
X1165000D01*
X1175000Y-1293527D01*
Y-1285527D02*
X1181000Y-1279527D01*
X1187000D01*
X1181000Y-1273527D01*
X1187000Y-1267527D01*
X1181000D01*
X1175000Y-1261527D01*
X1169000Y-1267527D01*
X1163000D01*
X1169000Y-1273527D01*
X1163000Y-1279527D01*
X1169000D01*
X1175000Y-1285527D01*
X725000Y-219528D02*
X735000Y-209528D01*
X745000D01*
X735000Y-199528D01*
X745000Y-189528D01*
X735000D01*
X725000Y-179528D01*
X715000Y-189528D01*
X705000D01*
X715000Y-199528D01*
X705000Y-209528D01*
X715000D01*
X725000Y-219528D01*
Y-211528D02*
X731000Y-205528D01*
X737000D01*
X731000Y-199528D01*
X737000Y-193528D01*
X731000D01*
X725000Y-187528D01*
X719000Y-193528D01*
X713000D01*
X719000Y-199528D01*
X713000Y-205528D01*
X719000D01*
X725000Y-211528D01*
X772000Y-162528D02*
X782000Y-152528D01*
X792000D01*
X782000Y-142528D01*
X792000Y-132528D01*
X782000D01*
X772000Y-122528D01*
X762000Y-132528D01*
X752000D01*
X762000Y-142528D01*
X752000Y-152528D01*
X762000D01*
X772000Y-162528D01*
Y-154528D02*
X778000Y-148528D01*
X784000D01*
X778000Y-142528D01*
X784000Y-136528D01*
X778000D01*
X772000Y-130528D01*
X766000Y-136528D01*
X760000D01*
X766000Y-142528D01*
X760000Y-148528D01*
X766000D01*
X772000Y-154528D01*
X866000Y-162528D02*
X876000Y-152528D01*
X886000D01*
X876000Y-142528D01*
X886000Y-132528D01*
X876000D01*
X866000Y-122528D01*
X856000Y-132528D01*
X846000D01*
X856000Y-142528D01*
X846000Y-152528D01*
X856000D01*
X866000Y-162528D01*
Y-154528D02*
X872000Y-148528D01*
X878000D01*
X872000Y-142528D01*
X878000Y-136528D01*
X872000D01*
X866000Y-130528D01*
X860000Y-136528D01*
X854000D01*
X860000Y-142528D01*
X854000Y-148528D01*
X860000D01*
X866000Y-154528D01*
X819000Y-249528D02*
X829000Y-239528D01*
X839000D01*
X829000Y-229528D01*
X839000Y-219528D01*
X829000D01*
X819000Y-209528D01*
X809000Y-219528D01*
X799000D01*
X809000Y-229528D01*
X799000Y-239528D01*
X809000D01*
X819000Y-249528D01*
Y-241528D02*
X825000Y-235528D01*
X831000D01*
X825000Y-229528D01*
X831000Y-223528D01*
X825000D01*
X819000Y-217528D01*
X813000Y-223528D01*
X807000D01*
X813000Y-229528D01*
X807000Y-235528D01*
X813000D01*
X819000Y-241528D01*
X550000Y-219528D02*
X560000Y-209528D01*
X570000D01*
X560000Y-199528D01*
X570000Y-189528D01*
X560000D01*
X550000Y-179528D01*
X540000Y-189528D01*
X530000D01*
X540000Y-199528D01*
X530000Y-209528D01*
X540000D01*
X550000Y-219528D01*
Y-211528D02*
X556000Y-205528D01*
X562000D01*
X556000Y-199528D01*
X562000Y-193528D01*
X556000D01*
X550000Y-187528D01*
X544000Y-193528D01*
X538000D01*
X544000Y-199528D01*
X538000Y-205528D01*
X544000D01*
X550000Y-211528D01*
X597000Y-162528D02*
X607000Y-152528D01*
X617000D01*
X607000Y-142528D01*
X617000Y-132528D01*
X607000D01*
X597000Y-122528D01*
X587000Y-132528D01*
X577000D01*
X587000Y-142528D01*
X577000Y-152528D01*
X587000D01*
X597000Y-162528D01*
Y-154528D02*
X603000Y-148528D01*
X609000D01*
X603000Y-142528D01*
X609000Y-136528D01*
X603000D01*
X597000Y-130528D01*
X591000Y-136528D01*
X585000D01*
X591000Y-142528D01*
X585000Y-148528D01*
X591000D01*
X597000Y-154528D01*
X691000Y-162528D02*
X701000Y-152528D01*
X711000D01*
X701000Y-142528D01*
X711000Y-132528D01*
X701000D01*
X691000Y-122528D01*
X681000Y-132528D01*
X671000D01*
X681000Y-142528D01*
X671000Y-152528D01*
X681000D01*
X691000Y-162528D01*
Y-154528D02*
X697000Y-148528D01*
X703000D01*
X697000Y-142528D01*
X703000Y-136528D01*
X697000D01*
X691000Y-130528D01*
X685000Y-136528D01*
X679000D01*
X685000Y-142528D01*
X679000Y-148528D01*
X685000D01*
X691000Y-154528D01*
X644000Y-219528D02*
X654000Y-209528D01*
X664000D01*
X654000Y-199528D01*
X664000Y-189528D01*
X654000D01*
X644000Y-179528D01*
X634000Y-189528D01*
X624000D01*
X634000Y-199528D01*
X624000Y-209528D01*
X634000D01*
X644000Y-219528D01*
Y-211528D02*
X650000Y-205528D01*
X656000D01*
X650000Y-199528D01*
X656000Y-193528D01*
X650000D01*
X644000Y-187528D01*
X638000Y-193528D01*
X632000D01*
X638000Y-199528D01*
X632000Y-205528D01*
X638000D01*
X644000Y-211528D01*
X375000Y-249528D02*
X385000Y-239528D01*
X395000D01*
X385000Y-229528D01*
X395000Y-219528D01*
X385000D01*
X375000Y-209528D01*
X365000Y-219528D01*
X355000D01*
X365000Y-229528D01*
X355000Y-239528D01*
X365000D01*
X375000Y-249528D01*
Y-241528D02*
X381000Y-235528D01*
X387000D01*
X381000Y-229528D01*
X387000Y-223528D01*
X381000D01*
X375000Y-217528D01*
X369000Y-223528D01*
X363000D01*
X369000Y-229528D01*
X363000Y-235528D01*
X369000D01*
X375000Y-241528D01*
X422000Y-162528D02*
X432000Y-152528D01*
X442000D01*
X432000Y-142528D01*
X442000Y-132528D01*
X432000D01*
X422000Y-122528D01*
X412000Y-132528D01*
X402000D01*
X412000Y-142528D01*
X402000Y-152528D01*
X412000D01*
X422000Y-162528D01*
Y-154528D02*
X428000Y-148528D01*
X434000D01*
X428000Y-142528D01*
X434000Y-136528D01*
X428000D01*
X422000Y-130528D01*
X416000Y-136528D01*
X410000D01*
X416000Y-142528D01*
X410000Y-148528D01*
X416000D01*
X422000Y-154528D01*
X516000Y-162528D02*
X526000Y-152528D01*
X536000D01*
X526000Y-142528D01*
X536000Y-132528D01*
X526000D01*
X516000Y-122528D01*
X506000Y-132528D01*
X496000D01*
X506000Y-142528D01*
X496000Y-152528D01*
X506000D01*
X516000Y-162528D01*
Y-154528D02*
X522000Y-148528D01*
X528000D01*
X522000Y-142528D01*
X528000Y-136528D01*
X522000D01*
X516000Y-130528D01*
X510000Y-136528D01*
X504000D01*
X510000Y-142528D01*
X504000Y-148528D01*
X510000D01*
X516000Y-154528D01*
X470000Y-219528D02*
X480000Y-209528D01*
X490000D01*
X480000Y-199528D01*
X490000Y-189528D01*
X480000D01*
X470000Y-179528D01*
X460000Y-189528D01*
X450000D01*
X460000Y-199528D01*
X450000Y-209528D01*
X460000D01*
X470000Y-219528D01*
Y-211528D02*
X476000Y-205528D01*
X482000D01*
X476000Y-199528D01*
X482000Y-193528D01*
X476000D01*
X470000Y-187528D01*
X464000Y-193528D01*
X458000D01*
X464000Y-199528D01*
X458000Y-205528D01*
X464000D01*
X470000Y-211528D01*
X388000Y-75528D02*
X398000Y-65528D01*
X408000D01*
X398000Y-55528D01*
X408000Y-45528D01*
X398000D01*
X388000Y-35528D01*
X378000Y-45528D01*
X368000D01*
X378000Y-55528D01*
X368000Y-65528D01*
X378000D01*
X388000Y-75528D01*
Y-67528D02*
X394000Y-61528D01*
X400000D01*
X394000Y-55528D01*
X400000Y-49528D01*
X394000D01*
X388000Y-43528D01*
X382000Y-49528D01*
X376000D01*
X382000Y-55528D01*
X376000Y-61528D01*
X382000D01*
X388000Y-67528D01*
X294000Y-75528D02*
X304000Y-65528D01*
X314000D01*
X304000Y-55528D01*
X314000Y-45528D01*
X304000D01*
X294000Y-35528D01*
X284000Y-45528D01*
X274000D01*
X284000Y-55528D01*
X274000Y-65528D01*
X284000D01*
X294000Y-75528D01*
Y-67528D02*
X300000Y-61528D01*
X306000D01*
X300000Y-55528D01*
X306000Y-49528D01*
X300000D01*
X294000Y-43528D01*
X288000Y-49528D01*
X282000D01*
X288000Y-55528D01*
X282000Y-61528D01*
X288000D01*
X294000Y-67528D01*
X328000Y-162528D02*
X338000Y-152528D01*
X348000D01*
X338000Y-142528D01*
X348000Y-132528D01*
X338000D01*
X328000Y-122528D01*
X318000Y-132528D01*
X308000D01*
X318000Y-142528D01*
X308000Y-152528D01*
X318000D01*
X328000Y-162528D01*
Y-154528D02*
X334000Y-148528D01*
X340000D01*
X334000Y-142528D01*
X340000Y-136528D01*
X334000D01*
X328000Y-130528D01*
X322000Y-136528D01*
X316000D01*
X322000Y-142528D01*
X316000Y-148528D01*
X322000D01*
X328000Y-154528D01*
X215000Y-75000D02*
X225000Y-65000D01*
X235000D01*
X225000Y-55000D01*
X235000Y-45000D01*
X225000D01*
X215000Y-35000D01*
X205000Y-45000D01*
X195000D01*
X205000Y-55000D01*
X195000Y-65000D01*
X205000D01*
X215000Y-75000D01*
Y-67000D02*
X221000Y-61000D01*
X227000D01*
X221000Y-55000D01*
X227000Y-49000D01*
X221000D01*
X215000Y-43000D01*
X209000Y-49000D01*
X203000D01*
X209000Y-55000D01*
X203000Y-61000D01*
X209000D01*
X215000Y-67000D01*
X2768000Y-978528D02*
X2778000Y-968528D01*
X2788000D01*
X2778000Y-958528D01*
X2788000Y-948528D01*
X2778000D01*
X2768000Y-938528D01*
X2758000Y-948528D01*
X2748000D01*
X2758000Y-958528D01*
X2748000Y-968528D01*
X2758000D01*
X2768000Y-978528D01*
Y-970528D02*
X2774000Y-964528D01*
X2780000D01*
X2774000Y-958528D01*
X2780000Y-952528D01*
X2774000D01*
X2768000Y-946528D01*
X2762000Y-952528D01*
X2756000D01*
X2762000Y-958528D01*
X2756000Y-964528D01*
X2762000D01*
X2768000Y-970528D01*
X2428000Y-2959528D02*
X2438000Y-2949528D01*
X2448000D01*
X2438000Y-2939528D01*
X2448000Y-2929528D01*
X2438000D01*
X2428000Y-2919528D01*
X2418000Y-2929528D01*
X2408000D01*
X2418000Y-2939528D01*
X2408000Y-2949528D01*
X2418000D01*
X2428000Y-2959528D01*
Y-2951528D02*
X2434000Y-2945528D01*
X2440000D01*
X2434000Y-2939528D01*
X2440000Y-2933528D01*
X2434000D01*
X2428000Y-2927528D01*
X2422000Y-2933528D01*
X2416000D01*
X2422000Y-2939528D01*
X2416000Y-2945528D01*
X2422000D01*
X2428000Y-2951528D01*
X2616000Y-2959528D02*
X2626000Y-2949528D01*
X2636000D01*
X2626000Y-2939528D01*
X2636000Y-2929528D01*
X2626000D01*
X2616000Y-2919528D01*
X2606000Y-2929528D01*
X2596000D01*
X2606000Y-2939528D01*
X2596000Y-2949528D01*
X2606000D01*
X2616000Y-2959528D01*
Y-2951528D02*
X2622000Y-2945528D01*
X2628000D01*
X2622000Y-2939528D01*
X2628000Y-2933528D01*
X2622000D01*
X2616000Y-2927528D01*
X2610000Y-2933528D01*
X2604000D01*
X2610000Y-2939528D01*
X2604000Y-2945528D01*
X2610000D01*
X2616000Y-2951528D01*
X2512000Y-2855528D02*
X2522000Y-2845528D01*
X2532000D01*
X2522000Y-2835528D01*
X2532000Y-2825528D01*
X2522000D01*
X2512000Y-2815528D01*
X2502000Y-2825528D01*
X2492000D01*
X2502000Y-2835528D01*
X2492000Y-2845528D01*
X2502000D01*
X2512000Y-2855528D01*
Y-2847528D02*
X2518000Y-2841528D01*
X2524000D01*
X2518000Y-2835528D01*
X2524000Y-2829528D01*
X2518000D01*
X2512000Y-2823528D01*
X2506000Y-2829528D01*
X2500000D01*
X2506000Y-2835528D01*
X2500000Y-2841528D01*
X2506000D01*
X2512000Y-2847528D01*
X2408000Y-2751528D02*
X2418000Y-2741528D01*
X2428000D01*
X2418000Y-2731528D01*
X2428000Y-2721528D01*
X2418000D01*
X2408000Y-2711528D01*
X2398000Y-2721528D01*
X2388000D01*
X2398000Y-2731528D01*
X2388000Y-2741528D01*
X2398000D01*
X2408000Y-2751528D01*
Y-2743528D02*
X2414000Y-2737528D01*
X2420000D01*
X2414000Y-2731528D01*
X2420000Y-2725528D01*
X2414000D01*
X2408000Y-2719528D01*
X2402000Y-2725528D01*
X2396000D01*
X2402000Y-2731528D01*
X2396000Y-2737528D01*
X2402000D01*
X2408000Y-2743528D01*
X2804000Y-2959528D02*
X2814000Y-2949528D01*
X2824000D01*
X2814000Y-2939528D01*
X2824000Y-2929528D01*
X2814000D01*
X2804000Y-2919528D01*
X2794000Y-2929528D01*
X2784000D01*
X2794000Y-2939528D01*
X2784000Y-2949528D01*
X2794000D01*
X2804000Y-2959528D01*
Y-2951528D02*
X2810000Y-2945528D01*
X2816000D01*
X2810000Y-2939528D01*
X2816000Y-2933528D01*
X2810000D01*
X2804000Y-2927528D01*
X2798000Y-2933528D01*
X2792000D01*
X2798000Y-2939528D01*
X2792000Y-2945528D01*
X2798000D01*
X2804000Y-2951528D01*
X2700000Y-2855528D02*
X2710000Y-2845528D01*
X2720000D01*
X2710000Y-2835528D01*
X2720000Y-2825528D01*
X2710000D01*
X2700000Y-2815528D01*
X2690000Y-2825528D01*
X2680000D01*
X2690000Y-2835528D01*
X2680000Y-2845528D01*
X2690000D01*
X2700000Y-2855528D01*
Y-2847528D02*
X2706000Y-2841528D01*
X2712000D01*
X2706000Y-2835528D01*
X2712000Y-2829528D01*
X2706000D01*
X2700000Y-2823528D01*
X2694000Y-2829528D01*
X2688000D01*
X2694000Y-2835528D01*
X2688000Y-2841528D01*
X2694000D01*
X2700000Y-2847528D01*
X2596000Y-2751528D02*
X2606000Y-2741528D01*
X2616000D01*
X2606000Y-2731528D01*
X2616000Y-2721528D01*
X2606000D01*
X2596000Y-2711528D01*
X2586000Y-2721528D01*
X2576000D01*
X2586000Y-2731528D01*
X2576000Y-2741528D01*
X2586000D01*
X2596000Y-2751528D01*
Y-2743528D02*
X2602000Y-2737528D01*
X2608000D01*
X2602000Y-2731528D01*
X2608000Y-2725528D01*
X2602000D01*
X2596000Y-2719528D01*
X2590000Y-2725528D01*
X2584000D01*
X2590000Y-2731528D01*
X2584000Y-2737528D01*
X2590000D01*
X2596000Y-2743528D01*
X2784000Y-2751528D02*
X2794000Y-2741528D01*
X2804000D01*
X2794000Y-2731528D01*
X2804000Y-2721528D01*
X2794000D01*
X2784000Y-2711528D01*
X2774000Y-2721528D01*
X2764000D01*
X2774000Y-2731528D01*
X2764000Y-2741528D01*
X2774000D01*
X2784000Y-2751528D01*
Y-2743528D02*
X2790000Y-2737528D01*
X2796000D01*
X2790000Y-2731528D01*
X2796000Y-2725528D01*
X2790000D01*
X2784000Y-2719528D01*
X2778000Y-2725528D01*
X2772000D01*
X2778000Y-2731528D01*
X2772000Y-2737528D01*
X2778000D01*
X2784000Y-2743528D01*
X2908000Y-3063528D02*
X2918000Y-3053528D01*
X2928000D01*
X2918000Y-3043528D01*
X2928000Y-3033528D01*
X2918000D01*
X2908000Y-3023528D01*
X2898000Y-3033528D01*
X2888000D01*
X2898000Y-3043528D01*
X2888000Y-3053528D01*
X2898000D01*
X2908000Y-3063528D01*
Y-3055528D02*
X2914000Y-3049528D01*
X2920000D01*
X2914000Y-3043528D01*
X2920000Y-3037528D01*
X2914000D01*
X2908000Y-3031528D01*
X2902000Y-3037528D01*
X2896000D01*
X2902000Y-3043528D01*
X2896000Y-3049528D01*
X2902000D01*
X2908000Y-3055528D01*
X2888000Y-2855528D02*
X2898000Y-2845528D01*
X2908000D01*
X2898000Y-2835528D01*
X2908000Y-2825528D01*
X2898000D01*
X2888000Y-2815528D01*
X2878000Y-2825528D01*
X2868000D01*
X2878000Y-2835528D01*
X2868000Y-2845528D01*
X2878000D01*
X2888000Y-2855528D01*
Y-2847528D02*
X2894000Y-2841528D01*
X2900000D01*
X2894000Y-2835528D01*
X2900000Y-2829528D01*
X2894000D01*
X2888000Y-2823528D01*
X2882000Y-2829528D01*
X2876000D01*
X2882000Y-2835528D01*
X2876000Y-2841528D01*
X2882000D01*
X2888000Y-2847528D01*
X2596000Y-2563528D02*
X2606000Y-2553528D01*
X2616000D01*
X2606000Y-2543528D01*
X2616000Y-2533528D01*
X2606000D01*
X2596000Y-2523528D01*
X2586000Y-2533528D01*
X2576000D01*
X2586000Y-2543528D01*
X2576000Y-2553528D01*
X2586000D01*
X2596000Y-2563528D01*
Y-2555528D02*
X2602000Y-2549528D01*
X2608000D01*
X2602000Y-2543528D01*
X2608000Y-2537528D01*
X2602000D01*
X2596000Y-2531528D01*
X2590000Y-2537528D01*
X2584000D01*
X2590000Y-2543528D01*
X2584000Y-2549528D01*
X2590000D01*
X2596000Y-2555528D01*
X2492000Y-2667528D02*
X2502000Y-2657528D01*
X2512000D01*
X2502000Y-2647528D01*
X2512000Y-2637528D01*
X2502000D01*
X2492000Y-2627528D01*
X2482000Y-2637528D01*
X2472000D01*
X2482000Y-2647528D01*
X2472000Y-2657528D01*
X2482000D01*
X2492000Y-2667528D01*
Y-2659528D02*
X2498000Y-2653528D01*
X2504000D01*
X2498000Y-2647528D01*
X2504000Y-2641528D01*
X2498000D01*
X2492000Y-2635528D01*
X2486000Y-2641528D01*
X2480000D01*
X2486000Y-2647528D01*
X2480000Y-2653528D01*
X2486000D01*
X2492000Y-2659528D01*
Y-2479528D02*
X2502000Y-2469528D01*
X2512000D01*
X2502000Y-2459528D01*
X2512000Y-2449528D01*
X2502000D01*
X2492000Y-2439528D01*
X2482000Y-2449528D01*
X2472000D01*
X2482000Y-2459528D01*
X2472000Y-2469528D01*
X2482000D01*
X2492000Y-2479528D01*
Y-2471528D02*
X2498000Y-2465528D01*
X2504000D01*
X2498000Y-2459528D01*
X2504000Y-2453528D01*
X2498000D01*
X2492000Y-2447528D01*
X2486000Y-2453528D01*
X2480000D01*
X2486000Y-2459528D01*
X2480000Y-2465528D01*
X2486000D01*
X2492000Y-2471528D01*
X2790000Y-3689528D02*
X2800000Y-3679528D01*
X2810000D01*
X2800000Y-3669528D01*
X2810000Y-3659528D01*
X2800000D01*
X2790000Y-3649528D01*
X2780000Y-3659528D01*
X2770000D01*
X2780000Y-3669528D01*
X2770000Y-3679528D01*
X2780000D01*
X2790000Y-3689528D01*
Y-3681528D02*
X2796000Y-3675528D01*
X2802000D01*
X2796000Y-3669528D01*
X2802000Y-3663528D01*
X2796000D01*
X2790000Y-3657528D01*
X2784000Y-3663528D01*
X2778000D01*
X2784000Y-3669528D01*
X2778000Y-3675528D01*
X2784000D01*
X2790000Y-3681528D01*
X369000Y-1635591D02*
X349000Y-1595591D01*
X389000D01*
X369000Y-1635591D01*
Y-1627591D02*
X357000Y-1603591D01*
X381000D01*
X369000Y-1627591D01*
X330000Y-1635591D02*
X310000Y-1595591D01*
X350000D01*
X330000Y-1635591D01*
Y-1627591D02*
X318000Y-1603591D01*
X342000D01*
X330000Y-1627591D01*
X252000Y-1635591D02*
X232000Y-1595591D01*
X272000D01*
X252000Y-1635591D01*
Y-1627591D02*
X240000Y-1603591D01*
X264000D01*
X252000Y-1627591D01*
X291000Y-1635591D02*
X271000Y-1595591D01*
X311000D01*
X291000Y-1635591D01*
Y-1627591D02*
X279000Y-1603591D01*
X303000D01*
X291000Y-1627591D01*
X369000Y-2384803D02*
X349000Y-2344803D01*
X389000D01*
X369000Y-2384803D01*
Y-2376803D02*
X357000Y-2352803D01*
X381000D01*
X369000Y-2376803D01*
X330000Y-2384803D02*
X310000Y-2344803D01*
X350000D01*
X330000Y-2384803D01*
Y-2376803D02*
X318000Y-2352803D01*
X342000D01*
X330000Y-2376803D01*
X252000Y-2384803D02*
X232000Y-2344803D01*
X272000D01*
X252000Y-2384803D01*
Y-2376803D02*
X240000Y-2352803D01*
X264000D01*
X252000Y-2376803D01*
X291000Y-2384803D02*
X271000Y-2344803D01*
X311000D01*
X291000Y-2384803D01*
Y-2376803D02*
X279000Y-2352803D01*
X303000D01*
X291000Y-2376803D01*
X3340000Y-2069528D02*
X3320000Y-2029527D01*
X3360000D01*
X3340000Y-2069528D01*
Y-2061528D02*
X3328000Y-2037527D01*
X3352000D01*
X3340000Y-2061528D01*
Y-1991194D02*
X3320000Y-1951194D01*
X3360000D01*
X3340000Y-1991194D01*
Y-1983194D02*
X3328000Y-1959194D01*
X3352000D01*
X3340000Y-1983194D01*
Y-1912861D02*
X3320000Y-1872861D01*
X3360000D01*
X3340000Y-1912861D01*
Y-1904861D02*
X3328000Y-1880861D01*
X3352000D01*
X3340000Y-1904861D01*
Y-1834528D02*
X3320000Y-1794528D01*
X3360000D01*
X3340000Y-1834528D01*
Y-1826528D02*
X3328000Y-1802528D01*
X3352000D01*
X3340000Y-1826528D01*
X3225000Y-1804527D02*
X3205000Y-1764527D01*
X3245000D01*
X3225000Y-1804527D01*
Y-1796527D02*
X3213000Y-1772527D01*
X3237000D01*
X3225000Y-1796527D01*
Y-1889527D02*
X3205000Y-1849527D01*
X3245000D01*
X3225000Y-1889527D01*
Y-1881527D02*
X3213000Y-1857527D01*
X3237000D01*
X3225000Y-1881527D01*
Y-1974527D02*
X3205000Y-1934527D01*
X3245000D01*
X3225000Y-1974527D01*
Y-1966527D02*
X3213000Y-1942527D01*
X3237000D01*
X3225000Y-1966527D01*
D114*
X20000Y-3779528D02*
G03*
X20000Y-3779528I-20000J0D01*
G01*
Y0D02*
G03*
X20000Y0I-20000J0D01*
G01*
X3799528Y-3779528D02*
G03*
X3799528Y-3779528I-20000J0D01*
G01*
X3799527Y0D02*
G03*
X3799527Y0I-20000J0D01*
G01*
X3034844Y-69371D02*
G03*
X3034844Y-69371I-20000J0D01*
G01*
D115*
X3026844D02*
G03*
X3026844Y-69371I-12000J0D01*
G01*
%TF.MD5,7b9738d89be84dbade5d3190ac68cdea*%
M02*
