G04 Layer_Color=65535*
%FSLAX25Y25*%
%MOIN*%
%TF.FileFunction,Legend,Top*%
%TF.Part,Single*%
G01*
G75*
%TA.AperFunction,NonConductor*%
%ADD49C,0.07874*%
%ADD50C,0.00394*%
%ADD51C,0.00787*%
%ADD52C,0.01000*%
%ADD53C,0.00500*%
%ADD54C,0.00600*%
%ADD83C,0.02362*%
%ADD84C,0.00984*%
%ADD85C,0.00700*%
D49*
X39186Y10500D02*
G03*
X39186Y10500I-12051J0D01*
G01*
X323100D02*
G03*
X323100Y10500I-12500J0D01*
G01*
X324077Y293965D02*
G03*
X324077Y293965I-13477J0D01*
G01*
X39617D02*
G03*
X39617Y293965I-12482J0D01*
G01*
D50*
X269274Y212602D02*
G03*
X269274Y212602I-197J0D01*
G01*
X268167Y185602D02*
G03*
X268167Y185602I-197J0D01*
G01*
X245820Y177398D02*
G03*
X245820Y177398I-197J0D01*
G01*
X270320Y88898D02*
G03*
X270320Y88898I-197J0D01*
G01*
X320020Y268798D02*
G03*
X320020Y268798I-197J0D01*
G01*
D51*
X306600Y215793D02*
G03*
X306600Y213293I0J-1250D01*
G01*
X349100Y224293D02*
G03*
X349100Y221793I0J-1250D01*
G01*
X9715Y321436D02*
X49085D01*
X9715Y350964D02*
X49085D01*
Y321436D02*
Y350964D01*
X9715Y321436D02*
Y350964D01*
X-2136Y279268D02*
Y318638D01*
X-31664Y279268D02*
Y318638D01*
X-2136D01*
X-31664Y279268D02*
X-2136D01*
X6615Y-17736D02*
X45985D01*
X6615Y-47264D02*
X45985D01*
X6615D02*
Y-17736D01*
X45985Y-47264D02*
Y-17736D01*
X-2136Y-14685D02*
Y24685D01*
X-31664Y-14685D02*
Y24685D01*
X-2136D01*
X-31664Y-14685D02*
X-2136D01*
X245604Y213831D02*
X258596D01*
X245604Y230169D02*
X258596D01*
X244498Y186831D02*
X257490D01*
X244498Y203169D02*
X257490D01*
X256104Y176169D02*
X269096D01*
X256104Y159831D02*
X269096D01*
X129907Y304000D02*
Y309906D01*
X143293Y304000D02*
Y309906D01*
X171240Y304000D02*
Y309906D01*
X184626Y304000D02*
Y309906D01*
X150574Y304000D02*
Y309906D01*
X163960Y304000D02*
Y309906D01*
X191907Y304000D02*
Y309906D01*
X205293Y304000D02*
Y309906D01*
X132407Y-11500D02*
Y-5595D01*
X145793Y-11500D02*
Y-5595D01*
X153074Y-11500D02*
Y-5595D01*
X166460Y-11500D02*
Y-5595D01*
X173740Y-11500D02*
Y-5595D01*
X187126Y-11500D02*
Y-5595D01*
X194407Y-11500D02*
Y-5595D01*
X207793Y-11500D02*
Y-5595D01*
X158347Y67746D02*
X164253D01*
X158347Y54360D02*
X164253D01*
X127147Y235760D02*
X133053D01*
X127147Y249146D02*
X133053D01*
X280604Y87669D02*
X293596D01*
X280604Y71331D02*
X293596D01*
X330304Y267569D02*
X343296D01*
X330304Y251231D02*
X343296D01*
X10257Y236094D02*
Y247905D01*
X29943Y236094D02*
Y247905D01*
X10257Y236094D02*
X29943D01*
X10257Y247905D02*
X29943D01*
X10257Y160995D02*
Y172806D01*
X29943Y160995D02*
Y172806D01*
X10257Y160995D02*
X29943D01*
X10257Y172806D02*
X29943D01*
X10257Y85895D02*
Y97706D01*
X29943Y85895D02*
Y97706D01*
X10257Y85895D02*
X29943D01*
X10257Y97706D02*
X29943D01*
X267100Y107441D02*
Y112559D01*
Y115441D02*
Y120559D01*
Y123441D02*
Y128559D01*
Y131441D02*
Y136559D01*
Y139441D02*
Y144559D01*
Y147441D02*
Y152559D01*
X276541Y20000D02*
X281659D01*
X329100Y142441D02*
Y147559D01*
X342500Y308041D02*
Y313159D01*
X342300Y294241D02*
Y299359D01*
X345441Y281200D02*
X350559D01*
X339241Y188900D02*
X344359D01*
X337141Y281200D02*
X342259D01*
X342200Y325841D02*
Y330959D01*
X318981Y333690D02*
X324099D01*
X317800Y317041D02*
Y322159D01*
X281600Y338541D02*
Y343659D01*
X299700Y338641D02*
Y343759D01*
X300000Y327791D02*
Y332909D01*
X299700Y316941D02*
Y322059D01*
X-2136Y223158D02*
Y262528D01*
X-31664Y223158D02*
Y262528D01*
X-2136D01*
X-31664Y223158D02*
X-2136D01*
X286600Y229169D02*
X306600D01*
X286600Y199917D02*
Y229169D01*
Y199917D02*
X306600D01*
Y213293D01*
Y215793D02*
Y229169D01*
X329100Y237669D02*
X349100D01*
X329100Y208417D02*
Y237669D01*
Y208417D02*
X349100D01*
Y221793D01*
Y224293D02*
Y237669D01*
X-2136Y148236D02*
Y187606D01*
X-31664Y148236D02*
Y187606D01*
X-2136D01*
X-31664Y148236D02*
X-2136D01*
Y73315D02*
Y112685D01*
X-31664Y73315D02*
Y112685D01*
X-2136D01*
X-31664Y73315D02*
X-2136D01*
D52*
X-33505Y327349D02*
X-29506D01*
X-31505Y329349D02*
Y325350D01*
X-27507Y330348D02*
Y326350D01*
X-25507Y324350D01*
X-23508Y326350D01*
Y330348D01*
X-21509D02*
Y324350D01*
X-18510D01*
X-17510Y325350D01*
Y329349D01*
X-18510Y330348D01*
X-21509D01*
X-11512Y329349D02*
X-12512Y330348D01*
X-14511D01*
X-15510Y329349D01*
Y325350D01*
X-14511Y324350D01*
X-12512D01*
X-11512Y325350D01*
X-5514Y324350D02*
X-9512D01*
X-5514Y328349D01*
Y329349D01*
X-6514Y330348D01*
X-8513D01*
X-9512Y329349D01*
X-28900Y33999D02*
X-24901D01*
X-22902Y36998D02*
Y32999D01*
X-20903Y31000D01*
X-18903Y32999D01*
Y36998D01*
X-16904D02*
Y31000D01*
X-13905D01*
X-12905Y32000D01*
Y35998D01*
X-13905Y36998D01*
X-16904D01*
X-6907Y35998D02*
X-7907Y36998D01*
X-9906D01*
X-10906Y35998D01*
Y32000D01*
X-9906Y31000D01*
X-7907D01*
X-6907Y32000D01*
X-909Y31000D02*
X-4908D01*
X-909Y34999D01*
Y35998D01*
X-1909Y36998D01*
X-3908D01*
X-4908Y35998D01*
X305100Y-30002D02*
X309099D01*
X307099D01*
Y-36000D01*
X314097Y-30002D02*
X312098D01*
X311098Y-31002D01*
Y-35000D01*
X312098Y-36000D01*
X314097D01*
X315097Y-35000D01*
Y-31002D01*
X314097Y-30002D01*
X317096Y-36000D02*
Y-30002D01*
X320095D01*
X321095Y-31002D01*
Y-33001D01*
X320095Y-34001D01*
X317096D01*
D53*
X12105Y209050D02*
Y217150D01*
Y209050D02*
X27295D01*
X12105Y217150D02*
X27295D01*
Y209050D02*
Y217150D01*
X12105Y132250D02*
Y140350D01*
Y132250D02*
X27295D01*
X12105Y140350D02*
X27295D01*
Y132250D02*
Y140350D01*
X12105Y55450D02*
Y63550D01*
Y55450D02*
X27295D01*
X12105Y63550D02*
X27295D01*
Y55450D02*
Y63550D01*
X247550Y88405D02*
X255650D01*
Y103595D01*
X247550Y88405D02*
Y103595D01*
X255650D01*
X308950Y227405D02*
X317050D01*
Y242595D01*
X308950Y227405D02*
Y242595D01*
X317050D01*
X346195Y122450D02*
Y130550D01*
X331005D02*
X346195D01*
X331005Y122450D02*
X346195D01*
X331005D02*
Y130550D01*
X308050Y206095D02*
X316150D01*
X308050Y190905D02*
Y206095D01*
X316150Y190905D02*
Y206095D01*
X308050Y190905D02*
X316150D01*
X327250Y270805D02*
X335350D01*
Y285995D01*
X327250Y270805D02*
Y285995D01*
X335350D01*
X321405Y161550D02*
Y169650D01*
Y161550D02*
X336595D01*
X321405Y169650D02*
X336595D01*
Y161550D02*
Y169650D01*
X339950Y154205D02*
X348050D01*
Y169395D01*
X339950Y154205D02*
Y169395D01*
X348050D01*
X259364Y106004D02*
Y113996D01*
Y106004D02*
X274836D01*
Y113996D01*
X259364D02*
X274836D01*
X259364Y114004D02*
Y121996D01*
Y114004D02*
X274836D01*
Y121996D01*
X259364D02*
X274836D01*
X259364Y122004D02*
Y129996D01*
Y122004D02*
X274836D01*
Y129996D01*
X259364D02*
X274836D01*
X259364Y130004D02*
Y137996D01*
Y130004D02*
X274836D01*
Y137996D01*
X259364D02*
X274836D01*
X259364Y138004D02*
Y145996D01*
Y138004D02*
X274836D01*
Y145996D01*
X259364D02*
X274836D01*
X259364Y146004D02*
Y153996D01*
Y146004D02*
X274836D01*
Y153996D01*
X259364D02*
X274836D01*
X275104Y27736D02*
X283096D01*
X275104Y12264D02*
Y27736D01*
Y12264D02*
X283096D01*
Y27736D01*
X321364Y141004D02*
Y148996D01*
Y141004D02*
X336836D01*
Y148996D01*
X321364D02*
X336836D01*
X350236Y306604D02*
Y314596D01*
X334764D02*
X350236D01*
X334764Y306604D02*
Y314596D01*
Y306604D02*
X350236D01*
X334564Y292804D02*
Y300796D01*
Y292804D02*
X350036D01*
Y300796D01*
X334564D02*
X350036D01*
X344004Y288936D02*
X351996D01*
X344004Y273464D02*
Y288936D01*
Y273464D02*
X351996D01*
Y288936D01*
X337804Y196636D02*
X345796D01*
X337804Y181164D02*
Y196636D01*
Y181164D02*
X345796D01*
Y196636D01*
X335704Y273464D02*
X343696D01*
Y288936D01*
X335704D02*
X343696D01*
X335704Y273464D02*
Y288936D01*
X349936Y324404D02*
Y332396D01*
X334464D02*
X349936D01*
X334464Y324404D02*
Y332396D01*
Y324404D02*
X349936D01*
X317544Y341426D02*
X325536D01*
X317544Y325954D02*
Y341426D01*
Y325954D02*
X325536D01*
Y341426D01*
Y315604D02*
Y323596D01*
X310064D02*
X325536D01*
X310064Y315604D02*
Y323596D01*
Y315604D02*
X325536D01*
X273864Y337104D02*
Y345096D01*
Y337104D02*
X289336D01*
Y345096D01*
X273864D02*
X289336D01*
X291964Y337204D02*
Y345196D01*
Y337204D02*
X307436D01*
Y345196D01*
X291964D02*
X307436D01*
X307736Y326354D02*
Y334346D01*
X292264D02*
X307736D01*
X292264Y326354D02*
Y334346D01*
Y326354D02*
X307736D01*
X291964Y315504D02*
Y323496D01*
Y315504D02*
X307436D01*
Y323496D01*
X291964D02*
X307436D01*
D54*
X332962Y-9900D02*
Y-8900D01*
Y-9400D01*
X335962D01*
Y-9900D01*
Y-8900D01*
Y-7401D02*
X333962D01*
Y-5901D01*
X334462Y-5401D01*
X335962D01*
X333962Y-4402D02*
X335962Y-3402D01*
X333962Y-2402D01*
X335962Y97D02*
Y-903D01*
X335462Y-1403D01*
X334462D01*
X333962Y-903D01*
Y97D01*
X334462Y597D01*
X334962D01*
Y-1403D01*
X333962Y1596D02*
X335962D01*
X334962D01*
X334462Y2096D01*
X333962Y2596D01*
Y3096D01*
X333462Y5095D02*
X333962D01*
Y4595D01*
Y5595D01*
Y5095D01*
X335462D01*
X335962Y5595D01*
Y8594D02*
Y7594D01*
X335462Y7095D01*
X334462D01*
X333962Y7594D01*
Y8594D01*
X334462Y9094D01*
X334962D01*
Y7095D01*
X333962Y10093D02*
X335962D01*
X334962D01*
X334462Y10593D01*
X333962Y11093D01*
Y11593D01*
X335962Y16092D02*
X332962D01*
Y17591D01*
X333462Y18091D01*
X334462D01*
X334962Y17591D01*
Y16092D01*
Y17091D02*
X335962Y18091D01*
X332962Y21090D02*
Y19091D01*
X335962D01*
Y21090D01*
X334462Y19091D02*
Y20090D01*
X332962Y22090D02*
X334962D01*
X335962Y23089D01*
X334962Y24089D01*
X332962D01*
X333462Y25089D02*
X332962Y25589D01*
Y26588D01*
X333462Y27088D01*
X333962D01*
X334462Y26588D01*
Y26088D01*
Y26588D01*
X334962Y27088D01*
X335462D01*
X335962Y26588D01*
Y25589D01*
X335462Y25089D01*
X335962Y28088D02*
X335462D01*
Y28588D01*
X335962D01*
Y28088D01*
X333462Y30587D02*
X332962Y31087D01*
Y32086D01*
X333462Y32586D01*
X335462D01*
X335962Y32086D01*
Y31087D01*
X335462Y30587D01*
X333462D01*
X339001Y-9900D02*
X341000Y-8900D01*
X339001Y-7901D01*
X341000Y-6901D02*
X340500D01*
Y-6401D01*
X341000D01*
Y-6901D01*
Y-4402D02*
X339001D01*
Y-3902D01*
X339501Y-3402D01*
X341000D01*
X339501D01*
X339001Y-2902D01*
X339501Y-2402D01*
X341000D01*
Y-903D02*
Y97D01*
X340500Y597D01*
X339501D01*
X339001Y97D01*
Y-903D01*
X339501Y-1403D01*
X340500D01*
X341000Y-903D01*
X339001Y1596D02*
X341000D01*
X340001D01*
X339501Y2096D01*
X339001Y2596D01*
Y3096D01*
Y5095D02*
Y6095D01*
X339501Y6595D01*
X341000D01*
Y5095D01*
X340500Y4595D01*
X340001Y5095D01*
Y6595D01*
X341000Y7594D02*
Y8594D01*
Y8094D01*
X339001D01*
Y7594D01*
X341000Y10093D02*
Y11593D01*
X340500Y12093D01*
X340001Y11593D01*
Y10593D01*
X339501Y10093D01*
X339001Y10593D01*
Y12093D01*
X340001Y14592D02*
X339501D01*
Y14092D01*
X340001D01*
Y14592D01*
X339501Y15092D01*
X338501D01*
X338001Y14592D01*
Y13592D01*
X338501Y13093D01*
X340500D01*
X341000Y13592D01*
Y15092D01*
Y16591D02*
X338501D01*
X339501D01*
Y16092D01*
Y17091D01*
Y16591D01*
X338501D01*
X338001Y17091D01*
X341000Y20090D02*
Y19091D01*
X340500Y18591D01*
X339501D01*
X339001Y19091D01*
Y20090D01*
X339501Y20590D01*
X340001D01*
Y18591D01*
X341000Y21590D02*
X340500D01*
Y22090D01*
X341000D01*
Y21590D01*
X339001Y24089D02*
X340500D01*
X341000Y24589D01*
Y26088D01*
X339001D01*
X342000Y27088D02*
X339001D01*
Y28588D01*
X339501Y29087D01*
X340500D01*
X341000Y28588D01*
Y27088D01*
Y30087D02*
X340500D01*
Y30587D01*
X341000D01*
Y30087D01*
X342000Y32586D02*
X339001D01*
Y34086D01*
X339501Y34586D01*
X340500D01*
X341000Y34086D01*
Y32586D01*
X338501Y36085D02*
X339001D01*
Y35585D01*
Y36585D01*
Y36085D01*
X340500D01*
X341000Y36585D01*
X15099Y245499D02*
X14600Y245999D01*
X13600D01*
X13100Y245499D01*
Y243500D01*
X13600Y243000D01*
X14600D01*
X15099Y243500D01*
X18098Y245499D02*
X17599Y245999D01*
X16599D01*
X16099Y245499D01*
Y243500D01*
X16599Y243000D01*
X17599D01*
X18098Y243500D01*
X19098Y243000D02*
X20098D01*
X19598D01*
Y245999D01*
X19098Y245499D01*
X285599Y80999D02*
X285100Y81499D01*
X284100D01*
X283600Y80999D01*
Y79000D01*
X284100Y78500D01*
X285100D01*
X285599Y79000D01*
X288598Y78500D02*
X286599D01*
X288598Y80499D01*
Y80999D01*
X288099Y81499D01*
X287099D01*
X286599Y80999D01*
X289598Y81499D02*
X291597D01*
Y80999D01*
X289598Y79000D01*
Y78500D01*
X275100Y30000D02*
Y32999D01*
X276600D01*
X277099Y32499D01*
Y31499D01*
X276600Y31000D01*
X275100D01*
X276100D02*
X277099Y30000D01*
X278099D02*
X279099D01*
X278599D01*
Y32999D01*
X278099Y32499D01*
X282598Y32999D02*
X280598D01*
Y31499D01*
X281598Y31999D01*
X282098D01*
X282598Y31499D01*
Y30500D01*
X282098Y30000D01*
X281098D01*
X280598Y30500D01*
X277805Y106650D02*
Y109649D01*
X279304D01*
X279804Y109149D01*
Y108149D01*
X279304Y107649D01*
X277805D01*
X278804D02*
X279804Y106650D01*
X280804D02*
X281803D01*
X281304D01*
Y109649D01*
X280804Y109149D01*
X277805Y114650D02*
Y117649D01*
X279304D01*
X279804Y117149D01*
Y116149D01*
X279304Y115649D01*
X277805D01*
X278804D02*
X279804Y114650D01*
X282803D02*
X280804D01*
X282803Y116649D01*
Y117149D01*
X282303Y117649D01*
X281304D01*
X280804Y117149D01*
X277037Y123000D02*
Y125999D01*
X278537D01*
X279036Y125499D01*
Y124499D01*
X278537Y124000D01*
X277037D01*
X278037D02*
X279036Y123000D01*
X280036Y125499D02*
X280536Y125999D01*
X281536D01*
X282035Y125499D01*
Y124999D01*
X281536Y124499D01*
X281036D01*
X281536D01*
X282035Y124000D01*
Y123500D01*
X281536Y123000D01*
X280536D01*
X280036Y123500D01*
X277100Y131000D02*
Y133999D01*
X278600D01*
X279099Y133499D01*
Y132500D01*
X278600Y132000D01*
X277100D01*
X278100D02*
X279099Y131000D01*
X281599D02*
Y133999D01*
X280099Y132500D01*
X282098D01*
X277100Y139000D02*
Y141999D01*
X278600D01*
X279099Y141499D01*
Y140499D01*
X278600Y140000D01*
X277100D01*
X278100D02*
X279099Y139000D01*
X282098Y141999D02*
X280099D01*
Y140499D01*
X281099Y140999D01*
X281599D01*
X282098Y140499D01*
Y139500D01*
X281599Y139000D01*
X280599D01*
X280099Y139500D01*
X277100Y147000D02*
Y149999D01*
X278600D01*
X279099Y149499D01*
Y148500D01*
X278600Y148000D01*
X277100D01*
X278100D02*
X279099Y147000D01*
X282098Y149999D02*
X281099Y149499D01*
X280099Y148500D01*
Y147500D01*
X280599Y147000D01*
X281599D01*
X282098Y147500D01*
Y148000D01*
X281599Y148500D01*
X280099D01*
X261599Y168999D02*
X261100Y169499D01*
X260100D01*
X259600Y168999D01*
Y167000D01*
X260100Y166500D01*
X261100D01*
X261599Y167000D01*
X262599Y168999D02*
X263099Y169499D01*
X264099D01*
X264598Y168999D01*
Y168499D01*
X264099Y167999D01*
X264598Y167500D01*
Y167000D01*
X264099Y166500D01*
X263099D01*
X262599Y167000D01*
Y167500D01*
X263099Y167999D01*
X262599Y168499D01*
Y168999D01*
X263099Y167999D02*
X264099D01*
X251599Y195499D02*
X251099Y195999D01*
X250100D01*
X249600Y195499D01*
Y193500D01*
X250100Y193000D01*
X251099D01*
X251599Y193500D01*
X254598Y195999D02*
X253599Y195499D01*
X252599Y194500D01*
Y193500D01*
X253099Y193000D01*
X254099D01*
X254598Y193500D01*
Y194000D01*
X254099Y194500D01*
X252599D01*
X251099Y222999D02*
X250600Y223499D01*
X249600D01*
X249100Y222999D01*
Y221000D01*
X249600Y220500D01*
X250600D01*
X251099Y221000D01*
X253599Y220500D02*
Y223499D01*
X252099Y222000D01*
X254098D01*
X-1400Y-26000D02*
Y-27999D01*
X99Y-28999D02*
X-1900D01*
X-2900Y-29999D01*
X-1900Y-30998D01*
X99D01*
Y-31998D02*
X-2900D01*
Y-33498D01*
X-2400Y-33997D01*
X-401D01*
X99Y-33498D01*
Y-31998D01*
X-401Y-36996D02*
X99Y-36497D01*
Y-35497D01*
X-401Y-34997D01*
X-2400D01*
X-2900Y-35497D01*
Y-36497D01*
X-2400Y-36996D01*
X-2900Y-37996D02*
Y-38996D01*
Y-38496D01*
X99D01*
X-401Y-37996D01*
X2599Y342500D02*
Y340501D01*
X3599Y341500D02*
X1600D01*
X4099Y339501D02*
X2100D01*
X1100Y338501D01*
X2100Y337502D01*
X4099D01*
Y336502D02*
X1100D01*
Y335002D01*
X1600Y334503D01*
X3599D01*
X4099Y335002D01*
Y336502D01*
X3599Y331504D02*
X4099Y332003D01*
Y333003D01*
X3599Y333503D01*
X1600D01*
X1100Y333003D01*
Y332003D01*
X1600Y331504D01*
X1100Y330504D02*
Y329504D01*
Y330004D01*
X4099D01*
X3599Y330504D01*
X-18600Y120599D02*
Y117600D01*
X-17600Y118600D01*
X-16601Y117600D01*
Y120599D01*
X-15601Y117600D02*
X-14601D01*
X-15101D01*
Y120599D01*
X-15601Y120099D01*
X-18600Y194699D02*
Y192700D01*
X-17600Y191700D01*
X-16601Y192700D01*
Y194699D01*
X-15601Y191700D02*
X-14601D01*
X-15101D01*
Y194699D01*
X-15601Y194199D01*
X-18600Y268499D02*
Y266000D01*
X-18100Y265500D01*
X-17100D01*
X-16601Y266000D01*
Y268499D01*
X-15601Y265500D02*
X-14601D01*
X-15101D01*
Y268499D01*
X-15601Y267999D01*
X33599Y59999D02*
X33099Y60499D01*
X32100D01*
X31600Y59999D01*
Y58000D01*
X32100Y57500D01*
X33099D01*
X33599Y58000D01*
X34599Y59999D02*
X35099Y60499D01*
X36099D01*
X36598Y59999D01*
Y59499D01*
X36099Y59000D01*
X35599D01*
X36099D01*
X36598Y58500D01*
Y58000D01*
X36099Y57500D01*
X35099D01*
X34599Y58000D01*
X34099Y136999D02*
X33599Y137499D01*
X32600D01*
X32100Y136999D01*
Y135000D01*
X32600Y134500D01*
X33599D01*
X34099Y135000D01*
X37098Y134500D02*
X35099D01*
X37098Y136499D01*
Y136999D01*
X36599Y137499D01*
X35599D01*
X35099Y136999D01*
X34599Y213499D02*
X34100Y213999D01*
X33100D01*
X32600Y213499D01*
Y211500D01*
X33100Y211000D01*
X34100D01*
X34599Y211500D01*
X35599Y211000D02*
X36599D01*
X36099D01*
Y213999D01*
X35599Y213499D01*
X14599Y170499D02*
X14099Y170999D01*
X13100D01*
X12600Y170499D01*
Y168500D01*
X13100Y168000D01*
X14099D01*
X14599Y168500D01*
X17598Y170499D02*
X17099Y170999D01*
X16099D01*
X15599Y170499D01*
Y168500D01*
X16099Y168000D01*
X17099D01*
X17598Y168500D01*
X20597Y168000D02*
X18598D01*
X20597Y169999D01*
Y170499D01*
X20098Y170999D01*
X19098D01*
X18598Y170499D01*
X14599Y94999D02*
X14099Y95499D01*
X13100D01*
X12600Y94999D01*
Y93000D01*
X13100Y92500D01*
X14099D01*
X14599Y93000D01*
X17598Y94999D02*
X17099Y95499D01*
X16099D01*
X15599Y94999D01*
Y93000D01*
X16099Y92500D01*
X17099D01*
X17598Y93000D01*
X18598Y94999D02*
X19098Y95499D01*
X20098D01*
X20597Y94999D01*
Y94499D01*
X20098Y93999D01*
X19598D01*
X20098D01*
X20597Y93500D01*
Y93000D01*
X20098Y92500D01*
X19098D01*
X18598Y93000D01*
X320599Y235499D02*
X320099Y235999D01*
X319100D01*
X318600Y235499D01*
Y233500D01*
X319100Y233000D01*
X320099D01*
X320599Y233500D01*
X321599Y235499D02*
X322099Y235999D01*
X323099D01*
X323598Y235499D01*
Y234999D01*
X323099Y234500D01*
X322599D01*
X323099D01*
X323598Y234000D01*
Y233500D01*
X323099Y233000D01*
X322099D01*
X321599Y233500D01*
X324598Y235499D02*
X325098Y235999D01*
X326098D01*
X326597Y235499D01*
Y234999D01*
X326098Y234500D01*
X325598D01*
X326098D01*
X326597Y234000D01*
Y233500D01*
X326098Y233000D01*
X325098D01*
X324598Y233500D01*
X334599Y259999D02*
X334100Y260499D01*
X333100D01*
X332600Y259999D01*
Y258000D01*
X333100Y257500D01*
X334100D01*
X334599Y258000D01*
X335599Y259999D02*
X336099Y260499D01*
X337099D01*
X337598Y259999D01*
Y259499D01*
X337099Y258999D01*
X336599D01*
X337099D01*
X337598Y258500D01*
Y258000D01*
X337099Y257500D01*
X336099D01*
X335599Y258000D01*
X340098Y257500D02*
Y260499D01*
X338598Y258999D01*
X340597D01*
X320099Y275499D02*
X319600Y275999D01*
X318600D01*
X318100Y275499D01*
Y273500D01*
X318600Y273000D01*
X319600D01*
X320099Y273500D01*
X321099Y275499D02*
X321599Y275999D01*
X322599D01*
X323098Y275499D01*
Y274999D01*
X322599Y274500D01*
X322099D01*
X322599D01*
X323098Y274000D01*
Y273500D01*
X322599Y273000D01*
X321599D01*
X321099Y273500D01*
X324098Y275999D02*
X326097D01*
Y275499D01*
X324098Y273500D01*
Y273000D01*
X327099Y159999D02*
X326600Y160499D01*
X325600D01*
X325100Y159999D01*
Y158000D01*
X325600Y157500D01*
X326600D01*
X327099Y158000D01*
X328099Y159999D02*
X328599Y160499D01*
X329599D01*
X330098Y159999D01*
Y159499D01*
X329599Y159000D01*
X329099D01*
X329599D01*
X330098Y158500D01*
Y158000D01*
X329599Y157500D01*
X328599D01*
X328099Y158000D01*
X331098Y159999D02*
X331598Y160499D01*
X332598D01*
X333097Y159999D01*
Y159499D01*
X332598Y159000D01*
X333097Y158500D01*
Y158000D01*
X332598Y157500D01*
X331598D01*
X331098Y158000D01*
Y158500D01*
X331598Y159000D01*
X331098Y159499D01*
Y159999D01*
X331598Y159000D02*
X332598D01*
X341599Y152999D02*
X341100Y153499D01*
X340100D01*
X339600Y152999D01*
Y151000D01*
X340100Y150500D01*
X341100D01*
X341599Y151000D01*
X342599Y152999D02*
X343099Y153499D01*
X344099D01*
X344598Y152999D01*
Y152499D01*
X344099Y151999D01*
X343599D01*
X344099D01*
X344598Y151500D01*
Y151000D01*
X344099Y150500D01*
X343099D01*
X342599Y151000D01*
X345598D02*
X346098Y150500D01*
X347098D01*
X347597Y151000D01*
Y152999D01*
X347098Y153499D01*
X346098D01*
X345598Y152999D01*
Y152499D01*
X346098Y151999D01*
X347597D01*
X78300Y112400D02*
Y115399D01*
X79799D01*
X80299Y114899D01*
Y113900D01*
X79799Y113400D01*
X78300D01*
X79300D02*
X80299Y112400D01*
X81299Y115399D02*
X83298D01*
Y114899D01*
X81299Y112900D01*
Y112400D01*
X78800Y81600D02*
Y84599D01*
X80300D01*
X80799Y84099D01*
Y83100D01*
X80300Y82600D01*
X78800D01*
X79800D02*
X80799Y81600D01*
X81799Y82100D02*
X82299Y81600D01*
X83299D01*
X83798Y82100D01*
Y84099D01*
X83299Y84599D01*
X82299D01*
X81799Y84099D01*
Y83599D01*
X82299Y83100D01*
X83798D01*
X328100Y192000D02*
Y194999D01*
X329599D01*
X330099Y194499D01*
Y193500D01*
X329599Y193000D01*
X328100D01*
X329100D02*
X330099Y192000D01*
X333098D02*
X331099D01*
X333098Y193999D01*
Y194499D01*
X332599Y194999D01*
X331599D01*
X331099Y194499D01*
X335598Y192000D02*
Y194999D01*
X334098Y193500D01*
X336097D01*
X335100Y269500D02*
Y272499D01*
X336599D01*
X337099Y271999D01*
Y271000D01*
X336599Y270500D01*
X335100D01*
X336100D02*
X337099Y269500D01*
X340098D02*
X338099D01*
X340098Y271499D01*
Y271999D01*
X339599Y272499D01*
X338599D01*
X338099Y271999D01*
X343097Y272499D02*
X341098D01*
Y271000D01*
X342098Y271499D01*
X342598D01*
X343097Y271000D01*
Y270000D01*
X342598Y269500D01*
X341598D01*
X341098Y270000D01*
X342100Y235499D02*
Y233000D01*
X342600Y232500D01*
X343600D01*
X344099Y233000D01*
Y235499D01*
X347098D02*
X345099D01*
Y233999D01*
X346099Y234499D01*
X346599D01*
X347098Y233999D01*
Y233000D01*
X346599Y232500D01*
X345599D01*
X345099Y233000D01*
X338600Y302500D02*
Y305499D01*
X340100D01*
X340599Y304999D01*
Y303999D01*
X340100Y303500D01*
X338600D01*
X339600D02*
X340599Y302500D01*
X343598D02*
X341599D01*
X343598Y304499D01*
Y304999D01*
X343099Y305499D01*
X342099D01*
X341599Y304999D01*
X344598Y302500D02*
X345598D01*
X345098D01*
Y305499D01*
X344598Y304999D01*
X333100Y297000D02*
X330101D01*
Y298499D01*
X330601Y298999D01*
X331600D01*
X332100Y298499D01*
Y297000D01*
Y298000D02*
X333100Y298999D01*
Y301998D02*
Y299999D01*
X331101Y301998D01*
X330601D01*
X330101Y301499D01*
Y300499D01*
X330601Y299999D01*
X333100Y304997D02*
Y302998D01*
X331101Y304997D01*
X330601D01*
X330101Y304498D01*
Y303498D01*
X330601Y302998D01*
X344100Y269500D02*
Y272499D01*
X345600D01*
X346099Y271999D01*
Y271000D01*
X345600Y270500D01*
X344100D01*
X345100D02*
X346099Y269500D01*
X349098D02*
X347099D01*
X349098Y271499D01*
Y271999D01*
X348599Y272499D01*
X347599D01*
X347099Y271999D01*
X350098D02*
X350598Y272499D01*
X351598D01*
X352097Y271999D01*
Y271499D01*
X351598Y271000D01*
X351098D01*
X351598D01*
X352097Y270500D01*
Y270000D01*
X351598Y269500D01*
X350598D01*
X350098Y270000D01*
X337600Y320500D02*
Y323499D01*
X339100D01*
X339599Y322999D01*
Y322000D01*
X339100Y321500D01*
X337600D01*
X338600D02*
X339599Y320500D01*
X342598D02*
X340599D01*
X342598Y322499D01*
Y322999D01*
X342099Y323499D01*
X341099D01*
X340599Y322999D01*
X343598Y323499D02*
X345597D01*
Y322999D01*
X343598Y321000D01*
Y320500D01*
X326600Y336500D02*
Y339499D01*
X328099D01*
X328599Y338999D01*
Y338000D01*
X328099Y337500D01*
X326600D01*
X327600D02*
X328599Y336500D01*
X331598D02*
X329599D01*
X331598Y338499D01*
Y338999D01*
X331099Y339499D01*
X330099D01*
X329599Y338999D01*
X332598D02*
X333098Y339499D01*
X334098D01*
X334597Y338999D01*
Y338499D01*
X334098Y338000D01*
X334597Y337500D01*
Y337000D01*
X334098Y336500D01*
X333098D01*
X332598Y337000D01*
Y337500D01*
X333098Y338000D01*
X332598Y338499D01*
Y338999D01*
X333098Y338000D02*
X334098D01*
X313600Y312000D02*
Y314999D01*
X315100D01*
X315599Y314499D01*
Y313499D01*
X315100Y313000D01*
X313600D01*
X314600D02*
X315599Y312000D01*
X318598D02*
X316599D01*
X318598Y313999D01*
Y314499D01*
X318099Y314999D01*
X317099D01*
X316599Y314499D01*
X319598Y312500D02*
X320098Y312000D01*
X321098D01*
X321597Y312500D01*
Y314499D01*
X321098Y314999D01*
X320098D01*
X319598Y314499D01*
Y313999D01*
X320098Y313499D01*
X321597D01*
X275600Y332000D02*
Y334999D01*
X277099D01*
X277599Y334499D01*
Y333500D01*
X277099Y333000D01*
X275600D01*
X276600D02*
X277599Y332000D01*
X278599Y334499D02*
X279099Y334999D01*
X280099D01*
X280598Y334499D01*
Y333999D01*
X280099Y333500D01*
X279599D01*
X280099D01*
X280598Y333000D01*
Y332500D01*
X280099Y332000D01*
X279099D01*
X278599Y332500D01*
X281598Y334499D02*
X282098Y334999D01*
X283098D01*
X283597Y334499D01*
Y332500D01*
X283098Y332000D01*
X282098D01*
X281598Y332500D01*
Y334499D01*
X295100Y334346D02*
Y337345D01*
X296600D01*
X297099Y336845D01*
Y335846D01*
X296600Y335346D01*
X295100D01*
X296100D02*
X297099Y334346D01*
X298099Y336845D02*
X298599Y337345D01*
X299599D01*
X300098Y336845D01*
Y336345D01*
X299599Y335846D01*
X299099D01*
X299599D01*
X300098Y335346D01*
Y334846D01*
X299599Y334346D01*
X298599D01*
X298099Y334846D01*
X301098Y334346D02*
X302098D01*
X301598D01*
Y337345D01*
X301098Y336845D01*
X295100Y323496D02*
Y326495D01*
X296600D01*
X297099Y325995D01*
Y324996D01*
X296600Y324496D01*
X295100D01*
X296100D02*
X297099Y323496D01*
X298099Y325995D02*
X298599Y326495D01*
X299599D01*
X300098Y325995D01*
Y325495D01*
X299599Y324996D01*
X299099D01*
X299599D01*
X300098Y324496D01*
Y323996D01*
X299599Y323496D01*
X298599D01*
X298099Y323996D01*
X303097Y323496D02*
X301098D01*
X303097Y325495D01*
Y325995D01*
X302598Y326495D01*
X301598D01*
X301098Y325995D01*
X294600Y311000D02*
Y313999D01*
X296099D01*
X296599Y313499D01*
Y312499D01*
X296099Y312000D01*
X294600D01*
X295600D02*
X296599Y311000D01*
X297599Y313499D02*
X298099Y313999D01*
X299099D01*
X299598Y313499D01*
Y312999D01*
X299099Y312499D01*
X298599D01*
X299099D01*
X299598Y312000D01*
Y311500D01*
X299099Y311000D01*
X298099D01*
X297599Y311500D01*
X300598Y313499D02*
X301098Y313999D01*
X302098D01*
X302597Y313499D01*
Y312999D01*
X302098Y312499D01*
X301598D01*
X302098D01*
X302597Y312000D01*
Y311500D01*
X302098Y311000D01*
X301098D01*
X300598Y311500D01*
X249599Y83499D02*
X249099Y83999D01*
X248100D01*
X247600Y83499D01*
Y81500D01*
X248100Y81000D01*
X249099D01*
X249599Y81500D01*
X252598Y81000D02*
X250599D01*
X252598Y82999D01*
Y83499D01*
X252099Y83999D01*
X251099D01*
X250599Y83499D01*
X253598D02*
X254098Y83999D01*
X255098D01*
X255597Y83499D01*
Y82999D01*
X255098Y82499D01*
X255597Y82000D01*
Y81500D01*
X255098Y81000D01*
X254098D01*
X253598Y81500D01*
Y82000D01*
X254098Y82499D01*
X253598Y82999D01*
Y83499D01*
X254098Y82499D02*
X255098D01*
X337099Y120499D02*
X336599Y120999D01*
X335600D01*
X335100Y120499D01*
Y118500D01*
X335600Y118000D01*
X336599D01*
X337099Y118500D01*
X338099Y120499D02*
X338599Y120999D01*
X339599D01*
X340098Y120499D01*
Y119999D01*
X339599Y119500D01*
X339099D01*
X339599D01*
X340098Y119000D01*
Y118500D01*
X339599Y118000D01*
X338599D01*
X338099Y118500D01*
X343097Y120999D02*
X341098D01*
Y119500D01*
X342098Y119999D01*
X342598D01*
X343097Y119500D01*
Y118500D01*
X342598Y118000D01*
X341598D01*
X341098Y118500D01*
X310099Y188999D02*
X309599Y189499D01*
X308600D01*
X308100Y188999D01*
Y187000D01*
X308600Y186500D01*
X309599D01*
X310099Y187000D01*
X311099Y188999D02*
X311599Y189499D01*
X312599D01*
X313098Y188999D01*
Y188499D01*
X312599Y187999D01*
X312099D01*
X312599D01*
X313098Y187500D01*
Y187000D01*
X312599Y186500D01*
X311599D01*
X311099Y187000D01*
X316097Y189499D02*
X315098Y188999D01*
X314098Y187999D01*
Y187000D01*
X314598Y186500D01*
X315598D01*
X316097Y187000D01*
Y187500D01*
X315598Y187999D01*
X314098D01*
X325600Y150500D02*
Y153499D01*
X327099D01*
X327599Y152999D01*
Y151999D01*
X327099Y151500D01*
X325600D01*
X326600D02*
X327599Y150500D01*
X328599D02*
X329599D01*
X329099D01*
Y153499D01*
X328599Y152999D01*
X331098Y151000D02*
X331598Y150500D01*
X332598D01*
X333098Y151000D01*
Y152999D01*
X332598Y153499D01*
X331598D01*
X331098Y152999D01*
Y152499D01*
X331598Y151999D01*
X333098D01*
X299600Y226999D02*
Y224500D01*
X300100Y224000D01*
X301099D01*
X301599Y224500D01*
Y226999D01*
X304099Y224000D02*
Y226999D01*
X302599Y225500D01*
X304598D01*
D83*
X27187Y243969D02*
G03*
X27187Y243969I-1181J0D01*
G01*
Y168869D02*
G03*
X27187Y168869I-1181J0D01*
G01*
Y93769D02*
G03*
X27187Y93769I-1181J0D01*
G01*
D84*
X31537Y253024D02*
G03*
X31537Y253024I-492J0D01*
G01*
Y177924D02*
G03*
X31537Y177924I-492J0D01*
G01*
Y102824D02*
G03*
X31537Y102824I-492J0D01*
G01*
D85*
X119428Y257266D02*
X118845Y257849D01*
X117678D01*
X117095Y257266D01*
Y254934D01*
X117678Y254350D01*
X118845D01*
X119428Y254934D01*
X122927Y254350D02*
X120594D01*
X122927Y256683D01*
Y257266D01*
X122344Y257849D01*
X121177D01*
X120594Y257266D01*
X126426Y257849D02*
X124093D01*
Y256100D01*
X125259Y256683D01*
X125842D01*
X126426Y256100D01*
Y254934D01*
X125842Y254350D01*
X124676D01*
X124093Y254934D01*
X150633Y75868D02*
X150049Y76452D01*
X148883D01*
X148300Y75868D01*
Y73536D01*
X148883Y72953D01*
X150049D01*
X150633Y73536D01*
X154131Y72953D02*
X151799D01*
X154131Y75285D01*
Y75868D01*
X153548Y76452D01*
X152382D01*
X151799Y75868D01*
X157047Y72953D02*
Y76452D01*
X155298Y74702D01*
X157630D01*
X195028Y10766D02*
X194445Y11349D01*
X193278D01*
X192695Y10766D01*
Y8433D01*
X193278Y7850D01*
X194445D01*
X195028Y8433D01*
X198527Y7850D02*
X196194D01*
X198527Y10183D01*
Y10766D01*
X197944Y11349D01*
X196777D01*
X196194Y10766D01*
X199693D02*
X200276Y11349D01*
X201442D01*
X202026Y10766D01*
Y10183D01*
X201442Y9600D01*
X200859D01*
X201442D01*
X202026Y9017D01*
Y8433D01*
X201442Y7850D01*
X200276D01*
X199693Y8433D01*
X174361Y10766D02*
X173778Y11349D01*
X172612D01*
X172029Y10766D01*
Y8433D01*
X172612Y7850D01*
X173778D01*
X174361Y8433D01*
X177860Y7850D02*
X175528D01*
X177860Y10183D01*
Y10766D01*
X177277Y11349D01*
X176111D01*
X175528Y10766D01*
X181359Y7850D02*
X179026D01*
X181359Y10183D01*
Y10766D01*
X180776Y11349D01*
X179610D01*
X179026Y10766D01*
X153694D02*
X153111Y11349D01*
X151945D01*
X151362Y10766D01*
Y8433D01*
X151945Y7850D01*
X153111D01*
X153694Y8433D01*
X157193Y7850D02*
X154861D01*
X157193Y10183D01*
Y10766D01*
X156610Y11349D01*
X155444D01*
X154861Y10766D01*
X158360Y7850D02*
X159526D01*
X158943D01*
Y11349D01*
X158360Y10766D01*
X133028D02*
X132445Y11349D01*
X131278D01*
X130695Y10766D01*
Y8433D01*
X131278Y7850D01*
X132445D01*
X133028Y8433D01*
X136527Y7850D02*
X134194D01*
X136527Y10183D01*
Y10766D01*
X135944Y11349D01*
X134777D01*
X134194Y10766D01*
X137693D02*
X138276Y11349D01*
X139443D01*
X140026Y10766D01*
Y8433D01*
X139443Y7850D01*
X138276D01*
X137693Y8433D01*
Y10766D01*
X151128Y326266D02*
X150545Y326849D01*
X149378D01*
X148795Y326266D01*
Y323934D01*
X149378Y323350D01*
X150545D01*
X151128Y323934D01*
X152294Y323350D02*
X153460D01*
X152877D01*
Y326849D01*
X152294Y326266D01*
X155210D02*
X155793Y326849D01*
X156959D01*
X157543Y326266D01*
Y325683D01*
X156959Y325100D01*
X157543Y324517D01*
Y323934D01*
X156959Y323350D01*
X155793D01*
X155210Y323934D01*
Y324517D01*
X155793Y325100D01*
X155210Y325683D01*
Y326266D01*
X155793Y325100D02*
X156959D01*
X192528Y326266D02*
X191945Y326849D01*
X190778D01*
X190195Y326266D01*
Y323934D01*
X190778Y323350D01*
X191945D01*
X192528Y323934D01*
X193694Y323350D02*
X194860D01*
X194277D01*
Y326849D01*
X193694Y326266D01*
X196610Y323934D02*
X197193Y323350D01*
X198359D01*
X198942Y323934D01*
Y326266D01*
X198359Y326849D01*
X197193D01*
X196610Y326266D01*
Y325683D01*
X197193Y325100D01*
X198942D01*
X171828Y326266D02*
X171245Y326849D01*
X170078D01*
X169495Y326266D01*
Y323934D01*
X170078Y323350D01*
X171245D01*
X171828Y323934D01*
X172994Y323350D02*
X174160D01*
X173577D01*
Y326849D01*
X172994Y326266D01*
X175910Y326849D02*
X178243D01*
Y326266D01*
X175910Y323934D01*
Y323350D01*
X130528Y326266D02*
X129945Y326849D01*
X128778D01*
X128195Y326266D01*
Y323934D01*
X128778Y323350D01*
X129945D01*
X130528Y323934D01*
X131694Y323350D02*
X132860D01*
X132277D01*
Y326849D01*
X131694Y326266D01*
X136943Y326849D02*
X135776Y326266D01*
X134610Y325100D01*
Y323934D01*
X135193Y323350D01*
X136359D01*
X136943Y323934D01*
Y324517D01*
X136359Y325100D01*
X134610D01*
%TF.MD5,91f9c4406d2e386731c0950bdd177fdf*%
M02*
