G04 Layer_Color=2752767*
%FSLAX25Y25*%
%MOIN*%
%TF.FileFunction,Drawing*%
%TF.Part,Single*%
G01*
G75*
%TA.AperFunction,NonConductor*%
%ADD53C,0.00500*%
%ADD113C,0.00667*%
%ADD114C,0.00400*%
D53*
X25135Y291965D02*
Y295965D01*
X29135D01*
Y291965D01*
X25135D01*
X308600D02*
Y295965D01*
X312600D01*
Y291965D01*
X308600D01*
Y8500D02*
Y12500D01*
X312600D01*
Y8500D01*
X308600D01*
X25135D02*
Y12500D01*
X29135D01*
Y8500D01*
X25135D01*
X19557Y334200D02*
X17558Y338200D01*
X21557D01*
X19557Y334200D01*
X39243D02*
X37242Y338200D01*
X41243D01*
X39243Y334200D01*
X-16900Y287110D02*
X-18900Y291110D01*
X-14900D01*
X-16900Y287110D01*
Y306795D02*
X-18900Y310795D01*
X-14900D01*
X-16900Y306795D01*
X36143Y-34500D02*
X34143Y-30500D01*
X38142D01*
X36143Y-34500D01*
X16457D02*
X14457Y-30500D01*
X18458D01*
X16457Y-34500D01*
X-16900Y-6842D02*
X-18900Y-2843D01*
X-14900D01*
X-16900Y-6842D01*
Y12843D02*
X-18900Y16842D01*
X-14900D01*
X-16900Y12843D01*
X108700Y323570D02*
X109700Y324570D01*
X110700D01*
X109700Y325570D01*
X110700Y326570D01*
X109700D01*
X108700Y327570D01*
X107700Y326570D01*
X106700D01*
X107700Y325570D01*
X106700Y324570D01*
X107700D01*
X108700Y323570D01*
Y284200D02*
X109700Y285200D01*
X110700D01*
X109700Y286200D01*
X110700Y287200D01*
X109700D01*
X108700Y288200D01*
X107700Y287200D01*
X106700D01*
X107700Y286200D01*
X106700Y285200D01*
X107700D01*
X108700Y284200D01*
X229700Y323370D02*
X230700Y324370D01*
X231700D01*
X230700Y325370D01*
X231700Y326370D01*
X230700D01*
X229700Y327370D01*
X228700Y326370D01*
X227700D01*
X228700Y325370D01*
X227700Y324370D01*
X228700D01*
X229700Y323370D01*
Y284000D02*
X230700Y285000D01*
X231700D01*
X230700Y286000D01*
X231700Y287000D01*
X230700D01*
X229700Y288000D01*
X228700Y287000D01*
X227700D01*
X228700Y286000D01*
X227700Y285000D01*
X228700D01*
X229700Y284000D01*
Y11570D02*
X230700Y12570D01*
X231700D01*
X230700Y13570D01*
X231700Y14570D01*
X230700D01*
X229700Y15570D01*
X228700Y14570D01*
X227700D01*
X228700Y13570D01*
X227700Y12570D01*
X228700D01*
X229700Y11570D01*
Y-27800D02*
X230700Y-26800D01*
X231700D01*
X230700Y-25800D01*
X231700Y-24800D01*
X230700D01*
X229700Y-23800D01*
X228700Y-24800D01*
X227700D01*
X228700Y-25800D01*
X227700Y-26800D01*
X228700D01*
X229700Y-27800D01*
X108700Y11570D02*
X109700Y12570D01*
X110700D01*
X109700Y13570D01*
X110700Y14570D01*
X109700D01*
X108700Y15570D01*
X107700Y14570D01*
X106700D01*
X107700Y13570D01*
X106700Y12570D01*
X107700D01*
X108700Y11570D01*
Y-27800D02*
X109700Y-26800D01*
X110700D01*
X109700Y-25800D01*
X110700Y-24800D01*
X109700D01*
X108700Y-23800D01*
X107700Y-24800D01*
X106700D01*
X107700Y-25800D01*
X106700Y-26800D01*
X107700D01*
X108700Y-27800D01*
X127234Y126000D02*
X128234Y128000D01*
X127234Y130000D01*
X129234Y129000D01*
X131234Y130000D01*
X130234Y128000D01*
X131234Y126000D01*
X129234Y127000D01*
X127234Y126000D01*
X198100D02*
X199100Y128000D01*
X198100Y130000D01*
X200100Y129000D01*
X202100Y130000D01*
X201100Y128000D01*
X202100Y126000D01*
X200100Y127000D01*
X198100Y126000D01*
X127100Y108000D02*
X128100Y110000D01*
X127100Y112000D01*
X129100Y111000D01*
X131100Y112000D01*
X130100Y110000D01*
X131100Y108000D01*
X129100Y109000D01*
X127100Y108000D01*
X197966D02*
X198966Y110000D01*
X197966Y112000D01*
X199966Y111000D01*
X201966Y112000D01*
X200966Y110000D01*
X201966Y108000D01*
X199966Y109000D01*
X197966Y108000D01*
X126887Y88978D02*
X127887Y90978D01*
X126887Y92978D01*
X128887Y91978D01*
X130887Y92978D01*
X129887Y90978D01*
X130887Y88978D01*
X128887Y89978D01*
X126887Y88978D01*
X197754D02*
X198753Y90978D01*
X197754Y92978D01*
X199753Y91978D01*
X201753Y92978D01*
X200753Y90978D01*
X201753Y88978D01*
X199753Y89978D01*
X197754Y88978D01*
X279600Y62500D02*
Y61500D01*
X281600D01*
Y62500D01*
X282600D01*
Y64500D01*
X281600D01*
Y65500D01*
X279600D01*
Y64500D01*
X278600D01*
Y62500D01*
X279600D01*
X289600D02*
Y61500D01*
X291600D01*
Y62500D01*
X292600D01*
Y64500D01*
X291600D01*
Y65500D01*
X289600D01*
Y64500D01*
X288600D01*
Y62500D01*
X289600D01*
X299600D02*
Y61500D01*
X301600D01*
Y62500D01*
X302600D01*
Y64500D01*
X301600D01*
Y65500D01*
X299600D01*
Y64500D01*
X298600D01*
Y62500D01*
X299600D01*
X322600Y62500D02*
Y61500D01*
X324600D01*
Y62500D01*
X325600D01*
Y64500D01*
X324600D01*
Y65500D01*
X322600D01*
Y64500D01*
X321600D01*
Y62500D01*
X322600D01*
X332600D02*
Y61500D01*
X334600D01*
Y62500D01*
X335600D01*
Y64500D01*
X334600D01*
Y65500D01*
X332600D01*
Y64500D01*
X331600D01*
Y62500D01*
X332600D01*
X342600D02*
Y61500D01*
X344600D01*
Y62500D01*
X345600D01*
Y64500D01*
X344600D01*
Y65500D01*
X342600D01*
Y64500D01*
X341600D01*
Y62500D01*
X342600D01*
X322600Y98041D02*
Y97041D01*
X324600D01*
Y98041D01*
X325600D01*
Y100041D01*
X324600D01*
Y101041D01*
X322600D01*
Y100041D01*
X321600D01*
Y98041D01*
X322600D01*
X332600D02*
Y97041D01*
X334600D01*
Y98041D01*
X335600D01*
Y100041D01*
X334600D01*
Y101041D01*
X332600D01*
Y100041D01*
X331600D01*
Y98041D01*
X332600D01*
X342600D02*
Y97041D01*
X344600D01*
Y98041D01*
X345600D01*
Y100041D01*
X344600D01*
Y101041D01*
X342600D01*
Y100041D01*
X341600D01*
Y98041D01*
X342600D01*
X9600Y221000D02*
Y220000D01*
X11600D01*
Y221000D01*
X12600D01*
Y223000D01*
X11600D01*
Y224000D01*
X9600D01*
Y223000D01*
X8600D01*
Y221000D01*
X9600D01*
X19600D02*
Y220000D01*
X21600D01*
Y221000D01*
X22600D01*
Y223000D01*
X21600D01*
Y224000D01*
X19600D01*
Y223000D01*
X18600D01*
Y221000D01*
X19600D01*
X29600D02*
Y220000D01*
X31600D01*
Y221000D01*
X32600D01*
Y223000D01*
X31600D01*
Y224000D01*
X29600D01*
Y223000D01*
X28600D01*
Y221000D01*
X29600D01*
X9600Y145050D02*
Y144050D01*
X11600D01*
Y145050D01*
X12600D01*
Y147050D01*
X11600D01*
Y148050D01*
X9600D01*
Y147050D01*
X8600D01*
Y145050D01*
X9600D01*
X19600D02*
Y144050D01*
X21600D01*
Y145050D01*
X22600D01*
Y147050D01*
X21600D01*
Y148050D01*
X19600D01*
Y147050D01*
X18600D01*
Y145050D01*
X19600D01*
X29600D02*
Y144050D01*
X31600D01*
Y145050D01*
X32600D01*
Y147050D01*
X31600D01*
Y148050D01*
X29600D01*
Y147050D01*
X28600D01*
Y145050D01*
X29600D01*
X9600Y69100D02*
Y68100D01*
X11600D01*
Y69100D01*
X12600D01*
Y71100D01*
X11600D01*
Y72100D01*
X9600D01*
Y71100D01*
X8600D01*
Y69100D01*
X9600D01*
X19600D02*
Y68100D01*
X21600D01*
Y69100D01*
X22600D01*
Y71100D01*
X21600D01*
Y72100D01*
X19600D01*
Y71100D01*
X18600D01*
Y69100D01*
X19600D01*
X29600D02*
Y68100D01*
X31600D01*
Y69100D01*
X32600D01*
Y71100D01*
X31600D01*
Y72100D01*
X29600D01*
Y71100D01*
X28600D01*
Y69100D01*
X29600D01*
X323200Y173000D02*
Y172000D01*
X325200D01*
Y173000D01*
X326200D01*
Y175000D01*
X325200D01*
Y176000D01*
X323200D01*
Y175000D01*
X322200D01*
Y173000D01*
X323200D01*
X333200D02*
Y172000D01*
X335200D01*
Y173000D01*
X336200D01*
Y175000D01*
X335200D01*
Y176000D01*
X333200D01*
Y175000D01*
X332200D01*
Y173000D01*
X333200D01*
X343200D02*
Y172000D01*
X345200D01*
Y173000D01*
X346200D01*
Y175000D01*
X345200D01*
Y176000D01*
X343200D01*
Y175000D01*
X342200D01*
Y173000D01*
X343200D01*
X342600Y133500D02*
Y132500D01*
X344600D01*
Y133500D01*
X345600D01*
Y135500D01*
X344600D01*
Y136500D01*
X342600D01*
Y135500D01*
X341600D01*
Y133500D01*
X342600D01*
X332600D02*
Y132500D01*
X334600D01*
Y133500D01*
X335600D01*
Y135500D01*
X334600D01*
Y136500D01*
X332600D01*
Y135500D01*
X331600D01*
Y133500D01*
X332600D01*
X322600D02*
Y132500D01*
X324600D01*
Y133500D01*
X325600D01*
Y135500D01*
X324600D01*
Y136500D01*
X322600D01*
Y135500D01*
X321600D01*
Y133500D01*
X322600D01*
X-16900Y231000D02*
X-18900Y235000D01*
X-14900D01*
X-16900Y231000D01*
Y250685D02*
X-18900Y254685D01*
X-14900D01*
X-16900Y250685D01*
X220699Y213844D02*
Y212844D01*
X222699D01*
Y213844D01*
X223699D01*
Y215844D01*
X222699D01*
Y216844D01*
X220699D01*
Y215844D01*
X219699D01*
Y213844D01*
X220699D01*
X219699Y114419D02*
X220699D01*
X221699Y115419D01*
X222699Y114419D01*
X223699D01*
Y115419D01*
X222699Y116419D01*
X223699Y117419D01*
Y118419D01*
X222699D01*
X221699Y117419D01*
X220699Y118419D01*
X219699D01*
Y117419D01*
X220699Y116419D01*
X219699Y115419D01*
Y114419D01*
X207900Y204970D02*
X208900D01*
X209900Y205970D01*
X210900Y204970D01*
X211900D01*
Y205970D01*
X210900Y206970D01*
X211900Y207970D01*
Y208970D01*
X210900D01*
X209900Y207970D01*
X208900Y208970D01*
X207900D01*
Y207970D01*
X208900Y206970D01*
X207900Y205970D01*
Y204970D01*
X219699Y191584D02*
X220699D01*
X221699Y192584D01*
X222699Y191584D01*
X223699D01*
Y192584D01*
X222699Y193584D01*
X223699Y194584D01*
Y195584D01*
X222699D01*
X221699Y194584D01*
X220699Y195584D01*
X219699D01*
Y194584D01*
X220699Y193584D01*
X219699Y192584D01*
Y191584D01*
X207900Y185285D02*
X208900D01*
X209900Y186285D01*
X210900Y185285D01*
X211900D01*
Y186285D01*
X210900Y187285D01*
X211900Y188285D01*
Y189285D01*
X210900D01*
X209900Y188285D01*
X208900Y189285D01*
X207900D01*
Y188285D01*
X208900Y187285D01*
X207900Y186285D01*
Y185285D01*
X219699Y171899D02*
X220699D01*
X221699Y172899D01*
X222699Y171899D01*
X223699D01*
Y172899D01*
X222699Y173899D01*
X223699Y174899D01*
Y175899D01*
X222699D01*
X221699Y174899D01*
X220699Y175899D01*
X219699D01*
Y174899D01*
X220699Y173899D01*
X219699Y172899D01*
Y171899D01*
X207900Y165600D02*
X208900D01*
X209900Y166600D01*
X210900Y165600D01*
X211900D01*
Y166600D01*
X210900Y167600D01*
X211900Y168600D01*
Y169600D01*
X210900D01*
X209900Y168600D01*
X208900Y169600D01*
X207900D01*
Y168600D01*
X208900Y167600D01*
X207900Y166600D01*
Y165600D01*
X219699Y152214D02*
X220699D01*
X221699Y153214D01*
X222699Y152214D01*
X223699D01*
Y153214D01*
X222699Y154214D01*
X223699Y155214D01*
Y156214D01*
X222699D01*
X221699Y155214D01*
X220699Y156214D01*
X219699D01*
Y155214D01*
X220699Y154214D01*
X219699Y153214D01*
Y152214D01*
X207900Y145915D02*
X208900D01*
X209900Y146915D01*
X210900Y145915D01*
X211900D01*
Y146915D01*
X210900Y147915D01*
X211900Y148915D01*
Y149915D01*
X210900D01*
X209900Y148915D01*
X208900Y149915D01*
X207900D01*
Y148915D01*
X208900Y147915D01*
X207900Y146915D01*
Y145915D01*
X219699Y139616D02*
X220699D01*
X221699Y140616D01*
X222699Y139616D01*
X223699D01*
Y140616D01*
X222699Y141616D01*
X223699Y142616D01*
Y143616D01*
X222699D01*
X221699Y142616D01*
X220699Y143616D01*
X219699D01*
Y142616D01*
X220699Y141616D01*
X219699Y140616D01*
Y139616D01*
X207900Y133317D02*
X208900D01*
X209900Y134317D01*
X210900Y133317D01*
X211900D01*
Y134317D01*
X210900Y135317D01*
X211900Y136317D01*
Y137317D01*
X210900D01*
X209900Y136317D01*
X208900Y137317D01*
X207900D01*
Y136317D01*
X208900Y135317D01*
X207900Y134317D01*
Y133317D01*
X219699Y127017D02*
X220699D01*
X221699Y128017D01*
X222699Y127017D01*
X223699D01*
Y128017D01*
X222699Y129017D01*
X223699Y130017D01*
Y131017D01*
X222699D01*
X221699Y130017D01*
X220699Y131017D01*
X219699D01*
Y130017D01*
X220699Y129017D01*
X219699Y128017D01*
Y127017D01*
X207900Y120718D02*
X208900D01*
X209900Y121718D01*
X210900Y120718D01*
X211900D01*
Y121718D01*
X210900Y122718D01*
X211900Y123718D01*
Y124718D01*
X210900D01*
X209900Y123718D01*
X208900Y124718D01*
X207900D01*
Y123718D01*
X208900Y122718D01*
X207900Y121718D01*
Y120718D01*
Y108120D02*
X208900D01*
X209900Y109120D01*
X210900Y108120D01*
X211900D01*
Y109120D01*
X210900Y110120D01*
X211900Y111120D01*
Y112120D01*
X210900D01*
X209900Y111120D01*
X208900Y112120D01*
X207900D01*
Y111120D01*
X208900Y110120D01*
X207900Y109120D01*
Y108120D01*
Y93946D02*
X208900D01*
X209900Y94946D01*
X210900Y93946D01*
X211900D01*
Y94946D01*
X210900Y95947D01*
X211900Y96947D01*
Y97947D01*
X210900D01*
X209900Y96947D01*
X208900Y97947D01*
X207900D01*
Y96947D01*
X208900Y95947D01*
X207900Y94946D01*
Y93946D01*
X219699Y101821D02*
X220699D01*
X221699Y102821D01*
X222699Y101821D01*
X223699D01*
Y102821D01*
X222699Y103821D01*
X223699Y104821D01*
Y105821D01*
X222699D01*
X221699Y104821D01*
X220699Y105821D01*
X219699D01*
Y104821D01*
X220699Y103821D01*
X219699Y102821D01*
Y101821D01*
X107057Y220572D02*
X109057Y222572D01*
X111057Y220572D01*
X109057Y218572D01*
X107057Y220572D01*
Y201950D02*
X109057Y203950D01*
X111057Y201950D01*
X109057Y199950D01*
X107057Y201950D01*
Y183328D02*
X109057Y185328D01*
X111057Y183328D01*
X109057Y181328D01*
X107057Y183328D01*
Y164706D02*
X109057Y166706D01*
X111057Y164706D01*
X109057Y162706D01*
X107057Y164706D01*
Y146084D02*
X109057Y148084D01*
X111057Y146084D01*
X109057Y144084D01*
X107057Y146084D01*
Y127462D02*
X109057Y129462D01*
X111057Y127462D01*
X109057Y125462D01*
X107057Y127462D01*
Y108840D02*
X109057Y110840D01*
X111057Y108840D01*
X109057Y106840D01*
X107057Y108840D01*
Y90218D02*
X109057Y92218D01*
X111057Y90218D01*
X109057Y88218D01*
X107057Y90218D01*
X317700Y193941D02*
Y197941D01*
X321700D01*
Y193941D01*
X317700D01*
X318500Y194741D02*
Y197141D01*
X320900D01*
Y194741D01*
X318500D01*
X317700Y203941D02*
Y207941D01*
X321700D01*
Y203941D01*
X317700D01*
X318500Y204741D02*
Y207141D01*
X320900D01*
Y204741D01*
X318500D01*
X317700Y221500D02*
Y225500D01*
X321700D01*
Y221500D01*
X317700D01*
X318500Y222300D02*
Y224700D01*
X320900D01*
Y222300D01*
X318500D01*
X317700Y243941D02*
Y247941D01*
X321700D01*
Y243941D01*
X317700D01*
X318500Y244741D02*
Y247141D01*
X320900D01*
Y244741D01*
X318500D01*
X-16900Y156079D02*
X-18900Y160079D01*
X-14900D01*
X-16900Y156079D01*
Y175764D02*
X-18900Y179764D01*
X-14900D01*
X-16900Y175764D01*
Y81157D02*
X-18900Y85158D01*
X-14900D01*
X-16900Y81157D01*
Y100842D02*
X-18900Y104842D01*
X-14900D01*
X-16900Y100842D01*
X247100Y-28000D02*
X245100Y-24000D01*
X249100D01*
X247100Y-28000D01*
Y-27200D02*
X245900Y-24800D01*
X248300D01*
X247100Y-27200D01*
X217300Y93000D02*
X215300Y97000D01*
X219300D01*
X217300Y93000D01*
Y93800D02*
X216100Y96200D01*
X218500D01*
X217300Y93800D01*
Y74200D02*
X215300Y78200D01*
X219300D01*
X217300Y74200D01*
Y75000D02*
X216100Y77400D01*
X218500D01*
X217300Y75000D01*
X227700Y84600D02*
X225700Y88600D01*
X229700D01*
X227700Y84600D01*
Y85400D02*
X226500Y87800D01*
X228900D01*
X227700Y85400D01*
X256900Y55400D02*
X254900Y59400D01*
X258900D01*
X256900Y55400D01*
Y56200D02*
X255700Y58600D01*
X258100D01*
X256900Y56200D01*
X258900Y34600D02*
X256900Y38600D01*
X260900D01*
X258900Y34600D01*
Y35400D02*
X257700Y37800D01*
X260100D01*
X258900Y35400D01*
X246500Y65800D02*
X244500Y69800D01*
X248500D01*
X246500Y65800D01*
Y66600D02*
X245300Y69000D01*
X247700D01*
X246500Y66600D01*
X227700Y65800D02*
X225700Y69800D01*
X229700D01*
X227700Y65800D01*
Y66600D02*
X226500Y69000D01*
X228900D01*
X227700Y66600D01*
X238100Y55400D02*
X236100Y59400D01*
X240100D01*
X238100Y55400D01*
Y56200D02*
X236900Y58600D01*
X239300D01*
X238100Y56200D01*
X248500Y45000D02*
X246500Y49000D01*
X250500D01*
X248500Y45000D01*
Y45800D02*
X247300Y48200D01*
X249700D01*
X248500Y45800D01*
X208900Y65800D02*
X206900Y69800D01*
X210900D01*
X208900Y65800D01*
Y66600D02*
X207700Y69000D01*
X210100D01*
X208900Y66600D01*
X219300Y55400D02*
X217300Y59400D01*
X221300D01*
X219300Y55400D01*
Y56200D02*
X218100Y58600D01*
X220500D01*
X219300Y56200D01*
X229700Y45000D02*
X227700Y49000D01*
X231700D01*
X229700Y45000D01*
Y45800D02*
X228500Y48200D01*
X230900D01*
X229700Y45800D01*
X210900Y45000D02*
X208900Y49000D01*
X212900D01*
X210900Y45000D01*
Y45800D02*
X209700Y48200D01*
X212100D01*
X210900Y45800D01*
X244900Y243100D02*
X242900Y247100D01*
X246900D01*
X244900Y243100D01*
Y243900D02*
X243700Y246300D01*
X246100D01*
X244900Y243900D01*
X-10400Y333453D02*
X-12400Y337453D01*
X-8400D01*
X-10400Y333453D01*
Y334253D02*
X-11600Y336653D01*
X-9200D01*
X-10400Y334253D01*
X900Y324700D02*
X-1100Y328700D01*
X2900D01*
X900Y324700D01*
Y325500D02*
X-300Y327900D01*
X2100D01*
X900Y325500D01*
X-2500Y333400D02*
X-4500Y337400D01*
X-500D01*
X-2500Y333400D01*
Y334200D02*
X-3700Y336600D01*
X-1300D01*
X-2500Y334200D01*
X6900Y333400D02*
X4900Y337400D01*
X8900D01*
X6900Y333400D01*
Y334200D02*
X5700Y336600D01*
X8100D01*
X6900Y334200D01*
X15100Y319000D02*
X13100Y323000D01*
X17100D01*
X15100Y319000D01*
Y319800D02*
X13900Y322200D01*
X16300D01*
X15100Y319800D01*
X19700Y324700D02*
X17700Y328700D01*
X21700D01*
X19700Y324700D01*
Y325500D02*
X18500Y327900D01*
X20900D01*
X19700Y325500D01*
X10300Y324700D02*
X8300Y328700D01*
X12300D01*
X10300Y324700D01*
Y325500D02*
X9100Y327900D01*
X11500D01*
X10300Y325500D01*
X5600Y316000D02*
X3600Y320000D01*
X7600D01*
X5600Y316000D01*
Y316800D02*
X4400Y319200D01*
X6800D01*
X5600Y316800D01*
X32500Y319000D02*
X30500Y323000D01*
X34500D01*
X32500Y319000D01*
Y319800D02*
X31300Y322200D01*
X33700D01*
X32500Y319800D01*
X37200Y324700D02*
X35200Y328700D01*
X39200D01*
X37200Y324700D01*
Y325500D02*
X36000Y327900D01*
X38400D01*
X37200Y325500D01*
X27800Y324700D02*
X25800Y328700D01*
X29800D01*
X27800Y324700D01*
Y325500D02*
X26600Y327900D01*
X29000D01*
X27800Y325500D01*
X23100Y319000D02*
X21100Y323000D01*
X25100D01*
X23100Y319000D01*
Y319800D02*
X21900Y322200D01*
X24300D01*
X23100Y319800D01*
X50000Y316000D02*
X48000Y320000D01*
X52000D01*
X50000Y316000D01*
Y316800D02*
X48800Y319200D01*
X51200D01*
X50000Y316800D01*
X54700Y324700D02*
X52700Y328700D01*
X56700D01*
X54700Y324700D01*
Y325500D02*
X53500Y327900D01*
X55900D01*
X54700Y325500D01*
X45300Y324700D02*
X43300Y328700D01*
X47300D01*
X45300Y324700D01*
Y325500D02*
X44100Y327900D01*
X46500D01*
X45300Y325500D01*
X40600Y319000D02*
X38600Y323000D01*
X42600D01*
X40600Y319000D01*
Y319800D02*
X39400Y322200D01*
X41800D01*
X40600Y319800D01*
X85600Y211600D02*
X83600Y215600D01*
X87600D01*
X85600Y211600D01*
Y212400D02*
X84400Y214800D01*
X86800D01*
X85600Y212400D01*
X94300Y206900D02*
X92300Y210900D01*
X96300D01*
X94300Y206900D01*
Y207700D02*
X93100Y210100D01*
X95500D01*
X94300Y207700D01*
Y216300D02*
X92300Y220300D01*
X96300D01*
X94300Y216300D01*
Y217100D02*
X93100Y219500D01*
X95500D01*
X94300Y217100D01*
X85600Y221000D02*
X83600Y225000D01*
X87600D01*
X85600Y221000D01*
Y221800D02*
X84400Y224200D01*
X86800D01*
X85600Y221800D01*
X106800Y250700D02*
X104800Y254700D01*
X108800D01*
X106800Y250700D01*
Y251500D02*
X105600Y253900D01*
X108000D01*
X106800Y251500D01*
Y241300D02*
X104800Y245300D01*
X108800D01*
X106800Y241300D01*
Y242100D02*
X105600Y244500D01*
X108000D01*
X106800Y242100D01*
X115500Y227200D02*
X113500Y231200D01*
X117500D01*
X115500Y227200D01*
Y228000D02*
X114300Y230400D01*
X116700D01*
X115500Y228000D01*
X106800Y231900D02*
X104800Y235900D01*
X108800D01*
X106800Y231900D01*
Y232700D02*
X105600Y235100D01*
X108000D01*
X106800Y232700D01*
X115200Y257200D02*
X113200Y261200D01*
X117200D01*
X115200Y257200D01*
Y258000D02*
X114000Y260400D01*
X116400D01*
X115200Y258000D01*
X97800Y257200D02*
X95800Y261200D01*
X99800D01*
X97800Y257200D01*
Y258000D02*
X96600Y260400D01*
X99000D01*
X97800Y258000D01*
X89100Y261900D02*
X87100Y265900D01*
X91100D01*
X89100Y261900D01*
Y262700D02*
X87900Y265100D01*
X90300D01*
X89100Y262700D01*
X71800Y250700D02*
X69800Y254700D01*
X73800D01*
X71800Y250700D01*
Y251500D02*
X70600Y253900D01*
X73000D01*
X71800Y251500D01*
X89200Y250700D02*
X87200Y254700D01*
X91200D01*
X89200Y250700D01*
Y251500D02*
X88000Y253900D01*
X90400D01*
X89200Y251500D01*
X80500Y246000D02*
X78500Y250000D01*
X82500D01*
X80500Y246000D01*
Y246800D02*
X79300Y249200D01*
X81700D01*
X80500Y246800D01*
X97900Y246000D02*
X95900Y250000D01*
X99900D01*
X97900Y246000D01*
Y246800D02*
X96700Y249200D01*
X99100D01*
X97900Y246800D01*
X89200Y241300D02*
X87200Y245300D01*
X91200D01*
X89200Y241300D01*
Y242100D02*
X88000Y244500D01*
X90400D01*
X89200Y242100D01*
X97900Y236600D02*
X95900Y240600D01*
X99900D01*
X97900Y236600D01*
Y237400D02*
X96700Y239800D01*
X99100D01*
X97900Y237400D01*
Y227200D02*
X95900Y231200D01*
X99900D01*
X97900Y227200D01*
Y228000D02*
X96700Y230400D01*
X99100D01*
X97900Y228000D01*
X89200Y231900D02*
X87200Y235900D01*
X91200D01*
X89200Y231900D01*
Y232700D02*
X88000Y235100D01*
X90400D01*
X89200Y232700D01*
X80500Y236600D02*
X78500Y240600D01*
X82500D01*
X80500Y236600D01*
Y237400D02*
X79300Y239800D01*
X81700D01*
X80500Y237400D01*
Y227200D02*
X78500Y231200D01*
X82500D01*
X80500Y227200D01*
Y228000D02*
X79300Y230400D01*
X81700D01*
X80500Y228000D01*
X54300Y280700D02*
X52300Y284700D01*
X56300D01*
X54300Y280700D01*
Y281500D02*
X53100Y283900D01*
X55500D01*
X54300Y281500D01*
X71700Y280700D02*
X69700Y284700D01*
X73700D01*
X71700Y280700D01*
Y281500D02*
X70500Y283900D01*
X72900D01*
X71700Y281500D01*
X63000Y276000D02*
X61000Y280000D01*
X65000D01*
X63000Y276000D01*
Y276800D02*
X61800Y279200D01*
X64200D01*
X63000Y276800D01*
X80400Y276000D02*
X78400Y280000D01*
X82400D01*
X80400Y276000D01*
Y276800D02*
X79200Y279200D01*
X81600D01*
X80400Y276800D01*
X71700Y271300D02*
X69700Y275300D01*
X73700D01*
X71700Y271300D01*
Y272100D02*
X70500Y274500D01*
X72900D01*
X71700Y272100D01*
X80400Y266600D02*
X78400Y270600D01*
X82400D01*
X80400Y266600D01*
Y267400D02*
X79200Y269800D01*
X81600D01*
X80400Y267400D01*
Y257200D02*
X78400Y261200D01*
X82400D01*
X80400Y257200D01*
Y258000D02*
X79200Y260400D01*
X81600D01*
X80400Y258000D01*
X71700Y261900D02*
X69700Y265900D01*
X73700D01*
X71700Y261900D01*
Y262700D02*
X70500Y265100D01*
X72900D01*
X71700Y262700D01*
X63000Y266600D02*
X61000Y270600D01*
X65000D01*
X63000Y266600D01*
Y267400D02*
X61800Y269800D01*
X64200D01*
X63000Y267400D01*
X54300Y271300D02*
X52300Y275300D01*
X56300D01*
X54300Y271300D01*
Y272100D02*
X53100Y274500D01*
X55500D01*
X54300Y272100D01*
X63000Y257200D02*
X61000Y261200D01*
X65000D01*
X63000Y257200D01*
Y258000D02*
X61800Y260400D01*
X64200D01*
X63000Y258000D01*
X54300Y308200D02*
X52300Y312200D01*
X56300D01*
X54300Y308200D01*
Y309000D02*
X53100Y311400D01*
X55500D01*
X54300Y309000D01*
X71700Y308200D02*
X69700Y312200D01*
X73700D01*
X71700Y308200D01*
Y309000D02*
X70500Y311400D01*
X72900D01*
X71700Y309000D01*
X63000Y303500D02*
X61000Y307500D01*
X65000D01*
X63000Y303500D01*
Y304300D02*
X61800Y306700D01*
X64200D01*
X63000Y304300D01*
X80400Y303500D02*
X78400Y307500D01*
X82400D01*
X80400Y303500D01*
Y304300D02*
X79200Y306700D01*
X81600D01*
X80400Y304300D01*
X71700Y298800D02*
X69700Y302800D01*
X73700D01*
X71700Y298800D01*
Y299600D02*
X70500Y302000D01*
X72900D01*
X71700Y299600D01*
X80400Y294100D02*
X78400Y298100D01*
X82400D01*
X80400Y294100D01*
Y294900D02*
X79200Y297300D01*
X81600D01*
X80400Y294900D01*
Y284700D02*
X78400Y288700D01*
X82400D01*
X80400Y284700D01*
Y285500D02*
X79200Y287900D01*
X81600D01*
X80400Y285500D01*
X71700Y289400D02*
X69700Y293400D01*
X73700D01*
X71700Y289400D01*
Y290200D02*
X70500Y292600D01*
X72900D01*
X71700Y290200D01*
X63000Y294100D02*
X61000Y298100D01*
X65000D01*
X63000Y294100D01*
Y294900D02*
X61800Y297300D01*
X64200D01*
X63000Y294900D01*
X54300Y298800D02*
X52300Y302800D01*
X56300D01*
X54300Y298800D01*
Y299600D02*
X53100Y302000D01*
X55500D01*
X54300Y299600D01*
X63000Y284700D02*
X61000Y288700D01*
X65000D01*
X63000Y284700D01*
Y285500D02*
X61800Y287900D01*
X64200D01*
X63000Y285500D01*
X54300Y289400D02*
X52300Y293400D01*
X56300D01*
X54300Y289400D01*
Y290200D02*
X53100Y292600D01*
X55500D01*
X54300Y290200D01*
X96500Y336400D02*
X94500Y340400D01*
X98500D01*
X96500Y336400D01*
Y337200D02*
X95300Y339600D01*
X97700D01*
X96500Y337200D01*
X77700Y336400D02*
X75700Y340400D01*
X79700D01*
X77700Y336400D01*
Y337200D02*
X76500Y339600D01*
X78900D01*
X77700Y337200D01*
X88100Y326000D02*
X86100Y330000D01*
X90100D01*
X88100Y326000D01*
Y326800D02*
X86900Y329200D01*
X89300D01*
X88100Y326800D01*
X98500Y315600D02*
X96500Y319600D01*
X100500D01*
X98500Y315600D01*
Y316400D02*
X97300Y318800D01*
X99700D01*
X98500Y316400D01*
X58900Y336400D02*
X56900Y340400D01*
X60900D01*
X58900Y336400D01*
Y337200D02*
X57700Y339600D01*
X60100D01*
X58900Y337200D01*
X69300Y326000D02*
X67300Y330000D01*
X71300D01*
X69300Y326000D01*
Y326800D02*
X68100Y329200D01*
X70500D01*
X69300Y326800D01*
X79700Y315600D02*
X77700Y319600D01*
X81700D01*
X79700Y315600D01*
Y316400D02*
X78500Y318800D01*
X80900D01*
X79700Y316400D01*
X60900Y315600D02*
X58900Y319600D01*
X62900D01*
X60900Y315600D01*
Y316400D02*
X59700Y318800D01*
X62100D01*
X60900Y316400D01*
X239700Y315600D02*
X237700Y319600D01*
X241700D01*
X239700Y315600D01*
Y316400D02*
X238500Y318800D01*
X240900D01*
X239700Y316400D01*
X258500Y315600D02*
X256500Y319600D01*
X260500D01*
X258500Y315600D01*
Y316400D02*
X257300Y318800D01*
X259700D01*
X258500Y316400D01*
X248100Y326000D02*
X246100Y330000D01*
X250100D01*
X248100Y326000D01*
Y326800D02*
X246900Y329200D01*
X249300D01*
X248100Y326800D01*
X237700Y336400D02*
X235700Y340400D01*
X239700D01*
X237700Y336400D01*
Y337200D02*
X236500Y339600D01*
X238900D01*
X237700Y337200D01*
X277300Y315600D02*
X275300Y319600D01*
X279300D01*
X277300Y315600D01*
Y316400D02*
X276100Y318800D01*
X278500D01*
X277300Y316400D01*
X266900Y326000D02*
X264900Y330000D01*
X268900D01*
X266900Y326000D01*
Y326800D02*
X265700Y329200D01*
X268100D01*
X266900Y326800D01*
X256500Y336400D02*
X254500Y340400D01*
X258500D01*
X256500Y336400D01*
Y337200D02*
X255300Y339600D01*
X257700D01*
X256500Y337200D01*
X217100Y336900D02*
X215100Y340900D01*
X219100D01*
X217100Y336900D01*
Y337700D02*
X215900Y340100D01*
X218300D01*
X217100Y337700D01*
X198300Y336900D02*
X196300Y340900D01*
X200300D01*
X198300Y336900D01*
Y337700D02*
X197100Y340100D01*
X199500D01*
X198300Y337700D01*
X208700Y326500D02*
X206700Y330500D01*
X210700D01*
X208700Y326500D01*
Y327300D02*
X207500Y329700D01*
X209900D01*
X208700Y327300D01*
X219100Y316100D02*
X217100Y320100D01*
X221100D01*
X219100Y316100D01*
Y316900D02*
X217900Y319300D01*
X220300D01*
X219100Y316900D01*
X179500Y336900D02*
X177500Y340900D01*
X181500D01*
X179500Y336900D01*
Y337700D02*
X178300Y340100D01*
X180700D01*
X179500Y337700D01*
X189900Y326500D02*
X187900Y330500D01*
X191900D01*
X189900Y326500D01*
Y327300D02*
X188700Y329700D01*
X191100D01*
X189900Y327300D01*
X160700Y336900D02*
X158700Y340900D01*
X162700D01*
X160700Y336900D01*
Y337700D02*
X159500Y340100D01*
X161900D01*
X160700Y337700D01*
X171100Y326500D02*
X169100Y330500D01*
X173100D01*
X171100Y326500D01*
Y327300D02*
X169900Y329700D01*
X172300D01*
X171100Y327300D01*
X141900Y336900D02*
X139900Y340900D01*
X143900D01*
X141900Y336900D01*
Y337700D02*
X140700Y340100D01*
X143100D01*
X141900Y337700D01*
X152300Y326500D02*
X150300Y330500D01*
X154300D01*
X152300Y326500D01*
Y327300D02*
X151100Y329700D01*
X153500D01*
X152300Y327300D01*
X125649Y336900D02*
X123649Y340900D01*
X127649D01*
X125649Y336900D01*
Y337700D02*
X124449Y340100D01*
X126849D01*
X125649Y337700D01*
X133500Y326500D02*
X131500Y330500D01*
X135500D01*
X133500Y326500D01*
Y327300D02*
X132300Y329700D01*
X134700D01*
X133500Y327300D01*
X263100Y293600D02*
X261100Y297600D01*
X265100D01*
X263100Y293600D01*
Y294400D02*
X261900Y296800D01*
X264300D01*
X263100Y294400D01*
X273500Y304000D02*
X271500Y308000D01*
X275500D01*
X273500Y304000D01*
Y304800D02*
X272300Y307200D01*
X274700D01*
X273500Y304800D01*
X263100Y274800D02*
X261100Y278800D01*
X265100D01*
X263100Y274800D01*
Y275600D02*
X261900Y278000D01*
X264300D01*
X263100Y275600D01*
X273500Y285200D02*
X271500Y289200D01*
X275500D01*
X273500Y285200D01*
Y286000D02*
X272300Y288400D01*
X274700D01*
X273500Y286000D01*
Y266400D02*
X271500Y270400D01*
X275500D01*
X273500Y266400D01*
Y267200D02*
X272300Y269600D01*
X274700D01*
X273500Y267200D01*
X253300Y253500D02*
X251300Y257500D01*
X255300D01*
X253300Y253500D01*
Y254300D02*
X252100Y256700D01*
X254500D01*
X253300Y254300D01*
X183100Y253500D02*
X181100Y257500D01*
X185100D01*
X183100Y253500D01*
Y254300D02*
X181900Y256700D01*
X184300D01*
X183100Y254300D01*
X234500Y253500D02*
X232500Y257500D01*
X236500D01*
X234500Y253500D01*
Y254300D02*
X233300Y256700D01*
X235700D01*
X234500Y254300D01*
X215700Y253500D02*
X213700Y257500D01*
X217700D01*
X215700Y253500D01*
Y254300D02*
X214500Y256700D01*
X216900D01*
X215700Y254300D01*
X226100Y243100D02*
X224100Y247100D01*
X228100D01*
X226100Y243100D01*
Y243900D02*
X224900Y246300D01*
X227300D01*
X226100Y243900D01*
X196900Y253500D02*
X194900Y257500D01*
X198900D01*
X196900Y253500D01*
Y254300D02*
X195700Y256700D01*
X198100D01*
X196900Y254300D01*
X207300Y243100D02*
X205300Y247100D01*
X209300D01*
X207300Y243100D01*
Y243900D02*
X206100Y246300D01*
X208500D01*
X207300Y243900D01*
X171245Y212346D02*
X169245Y216346D01*
X173245D01*
X171245Y212346D01*
Y213145D02*
X170045Y215546D01*
X172445D01*
X171245Y213145D01*
X183745Y202146D02*
X181745Y206146D01*
X185745D01*
X183745Y202146D01*
Y202945D02*
X182545Y205346D01*
X184945D01*
X183745Y202945D01*
Y167345D02*
X181745Y171345D01*
X185745D01*
X183745Y167345D01*
Y168146D02*
X182545Y170545D01*
X184945D01*
X183745Y168146D01*
Y184746D02*
X181745Y188745D01*
X185745D01*
X183745Y184746D01*
Y185546D02*
X182545Y187945D01*
X184945D01*
X183745Y185546D01*
X171245Y177545D02*
X169245Y181545D01*
X173245D01*
X171245Y177545D01*
Y178346D02*
X170045Y180745D01*
X172445D01*
X171245Y178346D01*
Y194946D02*
X169245Y198945D01*
X173245D01*
X171245Y194946D01*
Y195746D02*
X170045Y198145D01*
X172445D01*
X171245Y195746D01*
Y247146D02*
X169245Y251146D01*
X173245D01*
X171245Y247146D01*
Y247945D02*
X170045Y250345D01*
X172445D01*
X171245Y247945D01*
X183745Y236946D02*
X181745Y240946D01*
X185745D01*
X183745Y236946D01*
Y237745D02*
X182545Y240145D01*
X184945D01*
X183745Y237745D01*
X171245Y229746D02*
X169245Y233746D01*
X173245D01*
X171245Y229746D01*
Y230545D02*
X170045Y232945D01*
X172445D01*
X171245Y230545D01*
X183745Y219546D02*
X181745Y223546D01*
X185745D01*
X183745Y219546D01*
Y220345D02*
X182545Y222745D01*
X184945D01*
X183745Y220345D01*
X171245Y73146D02*
X169245Y77145D01*
X173245D01*
X171245Y73146D01*
Y73945D02*
X170045Y76345D01*
X172445D01*
X171245Y73945D01*
X183745Y62945D02*
X181745Y66945D01*
X185745D01*
X183745Y62945D01*
Y63745D02*
X182545Y66145D01*
X184945D01*
X183745Y63745D01*
Y28146D02*
X181745Y32146D01*
X185745D01*
X183745Y28146D01*
Y28945D02*
X182545Y31345D01*
X184945D01*
X183745Y28945D01*
Y45546D02*
X181745Y49545D01*
X185745D01*
X183745Y45546D01*
Y46345D02*
X182545Y48746D01*
X184945D01*
X183745Y46345D01*
X171245Y38346D02*
X169245Y42345D01*
X173245D01*
X171245Y38346D01*
Y39145D02*
X170045Y41546D01*
X172445D01*
X171245Y39145D01*
X183745Y80345D02*
X181745Y84346D01*
X185745D01*
X183745Y80345D01*
Y81146D02*
X182545Y83546D01*
X184945D01*
X183745Y81146D01*
X171245Y160145D02*
X169245Y164146D01*
X173245D01*
X171245Y160145D01*
Y160945D02*
X170045Y163346D01*
X172445D01*
X171245Y160945D01*
X183745Y149945D02*
X181745Y153946D01*
X185745D01*
X183745Y149945D01*
Y150745D02*
X182545Y153146D01*
X184945D01*
X183745Y150745D01*
X171245Y142745D02*
X169245Y146746D01*
X173245D01*
X171245Y142745D01*
Y143545D02*
X170045Y145946D01*
X172445D01*
X171245Y143545D01*
X127600Y9570D02*
X125600Y13570D01*
X129600D01*
X127600Y9570D01*
Y10370D02*
X126400Y12770D01*
X128800D01*
X127600Y10370D01*
X119749Y19970D02*
X117749Y23970D01*
X121749D01*
X119749Y19970D01*
Y20770D02*
X118549Y23170D01*
X120949D01*
X119749Y20770D01*
X146400Y9570D02*
X144400Y13570D01*
X148400D01*
X146400Y9570D01*
Y10370D02*
X145200Y12770D01*
X147600D01*
X146400Y10370D01*
X136000Y19970D02*
X134000Y23970D01*
X138000D01*
X136000Y19970D01*
Y20770D02*
X134800Y23170D01*
X137200D01*
X136000Y20770D01*
X165200Y9570D02*
X163200Y13570D01*
X167200D01*
X165200Y9570D01*
Y10370D02*
X164000Y12770D01*
X166400D01*
X165200Y10370D01*
X154800Y19970D02*
X152800Y23970D01*
X156800D01*
X154800Y19970D01*
Y20770D02*
X153600Y23170D01*
X156000D01*
X154800Y20770D01*
X184000Y9570D02*
X182000Y13570D01*
X186000D01*
X184000Y9570D01*
Y10370D02*
X182800Y12770D01*
X185200D01*
X184000Y10370D01*
X173600Y19970D02*
X171600Y23970D01*
X175600D01*
X173600Y19970D01*
Y20770D02*
X172400Y23170D01*
X174800D01*
X173600Y20770D01*
X202800Y9570D02*
X200800Y13570D01*
X204800D01*
X202800Y9570D01*
Y10370D02*
X201600Y12770D01*
X204000D01*
X202800Y10370D01*
X192400Y19970D02*
X190400Y23970D01*
X194400D01*
X192400Y19970D01*
Y20770D02*
X191200Y23170D01*
X193600D01*
X192400Y20770D01*
X211200Y19970D02*
X209200Y23970D01*
X213200D01*
X211200Y19970D01*
Y20770D02*
X210000Y23170D01*
X212400D01*
X211200Y20770D01*
X119200Y-830D02*
X117200Y3170D01*
X121200D01*
X119200Y-830D01*
Y-30D02*
X118000Y2370D01*
X120400D01*
X119200Y-30D01*
Y-40200D02*
X117200Y-36200D01*
X121200D01*
X119200Y-40200D01*
Y-39400D02*
X118000Y-37000D01*
X120400D01*
X119200Y-39400D01*
X202800Y-29800D02*
X200800Y-25800D01*
X204800D01*
X202800Y-29800D01*
Y-29000D02*
X201600Y-26600D01*
X204000D01*
X202800Y-29000D01*
X213200Y-40200D02*
X211200Y-36200D01*
X215200D01*
X213200Y-40200D01*
Y-39400D02*
X212000Y-37000D01*
X214400D01*
X213200Y-39400D01*
X184000Y-29800D02*
X182000Y-25800D01*
X186000D01*
X184000Y-29800D01*
Y-29000D02*
X182800Y-26600D01*
X185200D01*
X184000Y-29000D01*
X194400Y-40200D02*
X192400Y-36200D01*
X196400D01*
X194400Y-40200D01*
Y-39400D02*
X193200Y-37000D01*
X195600D01*
X194400Y-39400D01*
X165200Y-29800D02*
X163200Y-25800D01*
X167200D01*
X165200Y-29800D01*
Y-29000D02*
X164000Y-26600D01*
X166400D01*
X165200Y-29000D01*
X175600Y-40200D02*
X173600Y-36200D01*
X177600D01*
X175600Y-40200D01*
Y-39400D02*
X174400Y-37000D01*
X176800D01*
X175600Y-39400D01*
X146400Y-29800D02*
X144400Y-25800D01*
X148400D01*
X146400Y-29800D01*
Y-29000D02*
X145200Y-26600D01*
X147600D01*
X146400Y-29000D01*
X156800Y-40200D02*
X154800Y-36200D01*
X158800D01*
X156800Y-40200D01*
Y-39400D02*
X155600Y-37000D01*
X158000D01*
X156800Y-39400D01*
X117200Y-19400D02*
X115200Y-15400D01*
X119200D01*
X117200Y-19400D01*
Y-18600D02*
X116000Y-16200D01*
X118400D01*
X117200Y-18600D01*
X127600Y-29800D02*
X125600Y-25800D01*
X129600D01*
X127600Y-29800D01*
Y-29000D02*
X126400Y-26600D01*
X128800D01*
X127600Y-29000D01*
X138000Y-40200D02*
X136000Y-36200D01*
X140000D01*
X138000Y-40200D01*
Y-39400D02*
X136800Y-37000D01*
X139200D01*
X138000Y-39400D01*
X98400Y-36800D02*
X96400Y-32800D01*
X100400D01*
X98400Y-36800D01*
Y-36000D02*
X97200Y-33600D01*
X99600D01*
X98400Y-36000D01*
Y-19400D02*
X96400Y-15400D01*
X100400D01*
X98400Y-19400D01*
Y-18600D02*
X97200Y-16200D01*
X99600D01*
X98400Y-18600D01*
X88000Y-26400D02*
X86000Y-22400D01*
X90000D01*
X88000Y-26400D01*
Y-25600D02*
X86800Y-23200D01*
X89200D01*
X88000Y-25600D01*
X218500Y285600D02*
X216500Y289600D01*
X220500D01*
X218500Y285600D01*
Y286400D02*
X217300Y288800D01*
X219700D01*
X218500Y286400D01*
X208100Y276000D02*
X206100Y280000D01*
X210100D01*
X208100Y276000D01*
Y276800D02*
X206900Y279200D01*
X209300D01*
X208100Y276800D01*
X196000Y285600D02*
X194000Y289600D01*
X198000D01*
X196000Y285600D01*
Y286400D02*
X194800Y288800D01*
X197200D01*
X196000Y286400D01*
X185600Y276000D02*
X183600Y280000D01*
X187600D01*
X185600Y276000D01*
Y276800D02*
X184400Y279200D01*
X186800D01*
X185600Y276800D01*
X175600Y284100D02*
X173600Y288100D01*
X177600D01*
X175600Y284100D01*
Y284900D02*
X174400Y287300D01*
X176800D01*
X175600Y284900D01*
X163100Y276900D02*
X161100Y280900D01*
X165100D01*
X163100Y276900D01*
Y277700D02*
X161900Y280100D01*
X164300D01*
X163100Y277700D01*
X125600Y272700D02*
X123600Y276700D01*
X127600D01*
X125600Y272700D01*
Y273500D02*
X124400Y275900D01*
X126800D01*
X125600Y273500D01*
X138100Y281200D02*
X136100Y285200D01*
X140100D01*
X138100Y281200D01*
Y282000D02*
X136900Y284400D01*
X139300D01*
X138100Y282000D01*
X142100Y210000D02*
X140100Y214000D01*
X144100D01*
X142100Y210000D01*
Y210800D02*
X140900Y213200D01*
X143300D01*
X142100Y210800D01*
X150600Y217500D02*
X148600Y221500D01*
X152600D01*
X150600Y217500D01*
Y218300D02*
X149400Y220700D01*
X151800D01*
X150600Y218300D01*
X142100Y228000D02*
X140100Y232000D01*
X144100D01*
X142100Y228000D01*
Y228800D02*
X140900Y231200D01*
X143300D01*
X142100Y228800D01*
X150600Y269700D02*
X148600Y273700D01*
X152600D01*
X150600Y269700D01*
Y270500D02*
X149400Y272900D01*
X151800D01*
X150600Y270500D01*
Y234900D02*
X148600Y238900D01*
X152600D01*
X150600Y234900D01*
Y235700D02*
X149400Y238100D01*
X151800D01*
X150600Y235700D01*
Y252300D02*
X148600Y256300D01*
X152600D01*
X150600Y252300D01*
Y253100D02*
X149400Y255500D01*
X151800D01*
X150600Y253100D01*
X138100Y262500D02*
X136100Y266500D01*
X140100D01*
X138100Y262500D01*
Y263300D02*
X136900Y265700D01*
X139300D01*
X138100Y263300D01*
X150600Y147900D02*
X148600Y151900D01*
X152600D01*
X150600Y147900D01*
Y148700D02*
X149400Y151100D01*
X151800D01*
X150600Y148700D01*
X143600Y157500D02*
X141600Y161500D01*
X145600D01*
X143600Y157500D01*
Y158300D02*
X142400Y160700D01*
X144800D01*
X143600Y158300D01*
X150600Y200100D02*
X148600Y204100D01*
X152600D01*
X150600Y200100D01*
Y200900D02*
X149400Y203300D01*
X151800D01*
X150600Y200900D01*
Y165300D02*
X148600Y169300D01*
X152600D01*
X150600Y165300D01*
Y166100D02*
X149400Y168500D01*
X151800D01*
X150600Y166100D01*
Y182700D02*
X148600Y186700D01*
X152600D01*
X150600Y182700D01*
Y183500D02*
X149400Y185900D01*
X151800D01*
X150600Y183500D01*
X143600Y175500D02*
X141600Y179500D01*
X145600D01*
X143600Y175500D01*
Y176300D02*
X142400Y178700D01*
X144800D01*
X143600Y176300D01*
X142650Y192500D02*
X140650Y196500D01*
X144650D01*
X142650Y192500D01*
Y193300D02*
X141451Y195700D01*
X143851D01*
X142650Y193300D01*
X143100Y140000D02*
X141100Y144000D01*
X145100D01*
X143100Y140000D01*
Y140800D02*
X141900Y143200D01*
X144300D01*
X143100Y140800D01*
X150600Y78300D02*
X148600Y82300D01*
X152600D01*
X150600Y78300D01*
Y79100D02*
X149400Y81500D01*
X151800D01*
X150600Y79100D01*
Y43500D02*
X148600Y47500D01*
X152600D01*
X150600Y43500D01*
Y44300D02*
X149400Y46700D01*
X151800D01*
X150600Y44300D01*
X134000Y53600D02*
X132000Y57600D01*
X136000D01*
X134000Y53600D01*
Y54400D02*
X132800Y56800D01*
X135200D01*
X134000Y54400D01*
X119900Y44900D02*
X117900Y48900D01*
X121900D01*
X119900Y44900D01*
Y45700D02*
X118700Y48100D01*
X121100D01*
X119900Y45700D01*
X134000Y71000D02*
X132000Y75000D01*
X136000D01*
X134000Y71000D01*
Y71800D02*
X132800Y74200D01*
X135200D01*
X134000Y71800D01*
X119900Y62300D02*
X117900Y66300D01*
X121900D01*
X119900Y62300D01*
Y63100D02*
X118700Y65500D01*
X121100D01*
X119900Y63100D01*
X134000Y36200D02*
X132000Y40200D01*
X136000D01*
X134000Y36200D01*
Y37000D02*
X132800Y39400D01*
X135200D01*
X134000Y37000D01*
X105800Y53600D02*
X103800Y57600D01*
X107800D01*
X105800Y53600D01*
Y54400D02*
X104600Y56800D01*
X107000D01*
X105800Y54400D01*
X91700Y44900D02*
X89700Y48900D01*
X93700D01*
X91700Y44900D01*
Y45700D02*
X90500Y48100D01*
X92900D01*
X91700Y45700D01*
X105800Y71000D02*
X103800Y75000D01*
X107800D01*
X105800Y71000D01*
Y71800D02*
X104600Y74200D01*
X107000D01*
X105800Y71800D01*
X91700Y62300D02*
X89700Y66300D01*
X93700D01*
X91700Y62300D01*
Y63100D02*
X90500Y65500D01*
X92900D01*
X91700Y63100D01*
X105800Y36200D02*
X103800Y40200D01*
X107800D01*
X105800Y36200D01*
Y37000D02*
X104600Y39400D01*
X107000D01*
X105800Y37000D01*
X-6700Y-32700D02*
X-8700Y-28700D01*
X-4700D01*
X-6700Y-32700D01*
Y-31900D02*
X-7900Y-29500D01*
X-5500D01*
X-6700Y-31900D01*
X-10900Y-23547D02*
X-12900Y-19547D01*
X-8900D01*
X-10900Y-23547D01*
Y-22747D02*
X-12100Y-20347D01*
X-9700D01*
X-10900Y-22747D01*
X-2000Y-24000D02*
X-4000Y-20000D01*
X0D01*
X-2000Y-24000D01*
Y-23200D02*
X-3200Y-20800D01*
X-800D01*
X-2000Y-23200D01*
X2700Y-32700D02*
X700Y-28700D01*
X4700D01*
X2700Y-32700D01*
Y-31900D02*
X1500Y-29500D01*
X3900D01*
X2700Y-31900D01*
Y-15300D02*
X700Y-11300D01*
X4700D01*
X2700Y-15300D01*
Y-14500D02*
X1500Y-12100D01*
X3900D01*
X2700Y-14500D01*
X10600Y-27000D02*
X8600Y-23000D01*
X12600D01*
X10600Y-27000D01*
Y-26200D02*
X9400Y-23800D01*
X11800D01*
X10600Y-26200D01*
X12200Y-19500D02*
X10200Y-15500D01*
X14200D01*
X12200Y-19500D01*
Y-18700D02*
X11000Y-16300D01*
X13400D01*
X12200Y-18700D01*
X21600Y-19500D02*
X19600Y-15500D01*
X23600D01*
X21600Y-19500D01*
Y-18700D02*
X20400Y-16300D01*
X22800D01*
X21600Y-18700D01*
X25600Y-27000D02*
X23600Y-23000D01*
X27600D01*
X25600Y-27000D01*
Y-26200D02*
X24400Y-23800D01*
X26800D01*
X25600Y-26200D01*
X33600Y-19000D02*
X31600Y-15000D01*
X35600D01*
X33600Y-19000D01*
Y-18200D02*
X32400Y-15800D01*
X34800D01*
X33600Y-18200D01*
X40100Y-26500D02*
X38100Y-22500D01*
X42100D01*
X40100Y-26500D01*
Y-25700D02*
X38900Y-23300D01*
X41300D01*
X40100Y-25700D01*
X49400Y-33400D02*
X47400Y-29400D01*
X51400D01*
X49400Y-33400D01*
Y-32600D02*
X48200Y-30200D01*
X50600D01*
X49400Y-32600D01*
X47100Y-18500D02*
X45100Y-14500D01*
X49100D01*
X47100Y-18500D01*
Y-17700D02*
X45900Y-15300D01*
X48300D01*
X47100Y-17700D01*
X58800Y-33400D02*
X56800Y-29400D01*
X60800D01*
X58800Y-33400D01*
Y-32600D02*
X57600Y-30200D01*
X60000D01*
X58800Y-32600D01*
X68200Y-33400D02*
X66200Y-29400D01*
X70200D01*
X68200Y-33400D01*
Y-32600D02*
X67000Y-30200D01*
X69400D01*
X68200Y-32600D01*
X77600Y-33400D02*
X75600Y-29400D01*
X79600D01*
X77600Y-33400D01*
Y-32600D02*
X76400Y-30200D01*
X78800D01*
X77600Y-32600D01*
X54100Y-24700D02*
X52100Y-20700D01*
X56100D01*
X54100Y-24700D01*
Y-23900D02*
X52900Y-21500D01*
X55300D01*
X54100Y-23900D01*
Y-7300D02*
X52100Y-3300D01*
X56100D01*
X54100Y-7300D01*
Y-6500D02*
X52900Y-4100D01*
X55300D01*
X54100Y-6500D01*
X58800Y-16000D02*
X56800Y-12000D01*
X60800D01*
X58800Y-16000D01*
Y-15200D02*
X57600Y-12800D01*
X60000D01*
X58800Y-15200D01*
Y1400D02*
X56800Y5400D01*
X60800D01*
X58800Y1400D01*
Y2200D02*
X57600Y4600D01*
X60000D01*
X58800Y2200D01*
X63500Y-7300D02*
X61500Y-3300D01*
X65500D01*
X63500Y-7300D01*
Y-6500D02*
X62300Y-4100D01*
X64700D01*
X63500Y-6500D01*
X68200Y1400D02*
X66200Y5400D01*
X70200D01*
X68200Y1400D01*
Y2200D02*
X67000Y4600D01*
X69400D01*
X68200Y2200D01*
X77600Y1400D02*
X75600Y5400D01*
X79600D01*
X77600Y1400D01*
Y2200D02*
X76400Y4600D01*
X78800D01*
X77600Y2200D01*
X72900Y-7300D02*
X70900Y-3300D01*
X74900D01*
X72900Y-7300D01*
Y-6500D02*
X71700Y-4100D01*
X74100D01*
X72900Y-6500D01*
X68200Y-16000D02*
X66200Y-12000D01*
X70200D01*
X68200Y-16000D01*
Y-15200D02*
X67000Y-12800D01*
X69400D01*
X68200Y-15200D01*
X63500Y-24700D02*
X61500Y-20700D01*
X65500D01*
X63500Y-24700D01*
Y-23900D02*
X62300Y-21500D01*
X64700D01*
X63500Y-23900D01*
X77600Y-16000D02*
X75600Y-12000D01*
X79600D01*
X77600Y-16000D01*
Y-15200D02*
X76400Y-12800D01*
X78800D01*
X77600Y-15200D01*
X72900Y-24700D02*
X70900Y-20700D01*
X74900D01*
X72900Y-24700D01*
Y-23900D02*
X71700Y-21500D01*
X74100D01*
X72900Y-23900D01*
X54100Y27500D02*
X52100Y31500D01*
X56100D01*
X54100Y27500D01*
Y28300D02*
X52900Y30700D01*
X55300D01*
X54100Y28300D01*
X58800Y18800D02*
X56800Y22800D01*
X60800D01*
X58800Y18800D01*
Y19600D02*
X57600Y22000D01*
X60000D01*
X58800Y19600D01*
Y36200D02*
X56800Y40200D01*
X60800D01*
X58800Y36200D01*
Y37000D02*
X57600Y39400D01*
X60000D01*
X58800Y37000D01*
X63500Y27500D02*
X61500Y31500D01*
X65500D01*
X63500Y27500D01*
Y28300D02*
X62300Y30700D01*
X64700D01*
X63500Y28300D01*
X68200Y36200D02*
X66200Y40200D01*
X70200D01*
X68200Y36200D01*
Y37000D02*
X67000Y39400D01*
X69400D01*
X68200Y37000D01*
X77600Y36200D02*
X75600Y40200D01*
X79600D01*
X77600Y36200D01*
Y37000D02*
X76400Y39400D01*
X78800D01*
X77600Y37000D01*
X72900Y27500D02*
X70900Y31500D01*
X74900D01*
X72900Y27500D01*
Y28300D02*
X71700Y30700D01*
X74100D01*
X72900Y28300D01*
X68200Y18800D02*
X66200Y22800D01*
X70200D01*
X68200Y18800D01*
Y19600D02*
X67000Y22000D01*
X69400D01*
X68200Y19600D01*
X63500Y10100D02*
X61500Y14100D01*
X65500D01*
X63500Y10100D01*
Y10900D02*
X62300Y13300D01*
X64700D01*
X63500Y10900D01*
X77600Y18800D02*
X75600Y22800D01*
X79600D01*
X77600Y18800D01*
Y19600D02*
X76400Y22000D01*
X78800D01*
X77600Y19600D01*
X72900Y10100D02*
X70900Y14100D01*
X74900D01*
X72900Y10100D01*
Y10900D02*
X71700Y13300D01*
X74100D01*
X72900Y10900D01*
Y44900D02*
X70900Y48900D01*
X74900D01*
X72900Y44900D01*
Y45700D02*
X71700Y48100D01*
X74100D01*
X72900Y45700D01*
X77600Y53600D02*
X75600Y57600D01*
X79600D01*
X77600Y53600D01*
Y54400D02*
X76400Y56800D01*
X78800D01*
X77600Y54400D01*
X63500Y44900D02*
X61500Y48900D01*
X65500D01*
X63500Y44900D01*
Y45700D02*
X62300Y48100D01*
X64700D01*
X63500Y45700D01*
X68200Y53600D02*
X66200Y57600D01*
X70200D01*
X68200Y53600D01*
Y54400D02*
X67000Y56800D01*
X69400D01*
X68200Y54400D01*
X72900Y62300D02*
X70900Y66300D01*
X74900D01*
X72900Y62300D01*
Y63100D02*
X71700Y65500D01*
X74100D01*
X72900Y63100D01*
X77600Y71000D02*
X75600Y75000D01*
X79600D01*
X77600Y71000D01*
Y71800D02*
X76400Y74200D01*
X78800D01*
X77600Y71800D01*
X61050Y114000D02*
X59051Y118000D01*
X63051D01*
X61050Y114000D01*
Y114800D02*
X59851Y117200D01*
X62251D01*
X61050Y114800D01*
X58800Y105800D02*
X56800Y109800D01*
X60800D01*
X58800Y105800D01*
Y106600D02*
X57600Y109000D01*
X60000D01*
X58800Y106600D01*
X54100Y97100D02*
X52100Y101100D01*
X56100D01*
X54100Y97100D01*
Y97900D02*
X52900Y100300D01*
X55300D01*
X54100Y97900D01*
X58800Y88400D02*
X56800Y92400D01*
X60800D01*
X58800Y88400D01*
Y89200D02*
X57600Y91600D01*
X60000D01*
X58800Y89200D01*
X63500Y79700D02*
X61500Y83700D01*
X65500D01*
X63500Y79700D01*
Y80500D02*
X62300Y82900D01*
X64700D01*
X63500Y80500D01*
X68200Y71000D02*
X66200Y75000D01*
X70200D01*
X68200Y71000D01*
Y71800D02*
X67000Y74200D01*
X69400D01*
X68200Y71800D01*
X63500Y62300D02*
X61500Y66300D01*
X65500D01*
X63500Y62300D01*
Y63100D02*
X62300Y65500D01*
X64700D01*
X63500Y63100D01*
X58800Y71000D02*
X56800Y75000D01*
X60800D01*
X58800Y71000D01*
Y71800D02*
X57600Y74200D01*
X60000D01*
X58800Y71800D01*
X54100Y79700D02*
X52100Y83700D01*
X56100D01*
X54100Y79700D01*
Y80500D02*
X52900Y82900D01*
X55300D01*
X54100Y80500D01*
X58800Y53600D02*
X56800Y57600D01*
X60800D01*
X58800Y53600D01*
Y54400D02*
X57600Y56800D01*
X60000D01*
X58800Y54400D01*
X54100Y62300D02*
X52100Y66300D01*
X56100D01*
X54100Y62300D01*
Y63100D02*
X52900Y65500D01*
X55300D01*
X54100Y63100D01*
Y44900D02*
X52100Y48900D01*
X56100D01*
X54100Y44900D01*
Y45700D02*
X52900Y48100D01*
X55300D01*
X54100Y45700D01*
X269584Y332016D02*
X270584Y333016D01*
X271584D01*
X270584Y334016D01*
X271584Y335016D01*
X270584D01*
X269584Y336016D01*
X268584Y335016D01*
X267584D01*
X268584Y334016D01*
X267584Y333016D01*
X268584D01*
X269584Y332016D01*
Y332816D02*
X270184Y333416D01*
X270784D01*
X270184Y334016D01*
X270784Y334616D01*
X270184D01*
X269584Y335216D01*
X268984Y334616D01*
X268384D01*
X268984Y334016D01*
X268384Y333416D01*
X268984D01*
X269584Y332816D01*
X63500Y97100D02*
X61500Y101100D01*
X65500D01*
X63500Y97100D01*
Y97900D02*
X62300Y100300D01*
X64700D01*
X63500Y97900D01*
D113*
X348053Y340953D02*
G03*
X348053Y340953I-2000J0D01*
G01*
X348053Y-37000D02*
G03*
X348053Y-37000I-2000J0D01*
G01*
X-29900Y340953D02*
G03*
X-29900Y340953I-2000J0D01*
G01*
Y-37000D02*
G03*
X-29900Y-37000I-2000J0D01*
G01*
X292600Y145500D02*
G03*
X292600Y145500I-2000J0D01*
G01*
Y154000D02*
G03*
X292600Y154000I-2000J0D01*
G01*
Y162500D02*
G03*
X292600Y162500I-2000J0D01*
G01*
X304100Y159500D02*
G03*
X304100Y159500I-2000J0D01*
G01*
Y151667D02*
G03*
X304100Y151667I-2000J0D01*
G01*
Y143833D02*
G03*
X304100Y143833I-2000J0D01*
G01*
Y136000D02*
G03*
X304100Y136000I-2000J0D01*
G01*
X-800Y104472D02*
G03*
X-800Y104472I-2000J0D01*
G01*
X-4700D02*
G03*
X-4700Y104472I-2000J0D01*
G01*
X3100D02*
G03*
X3100Y104472I-2000J0D01*
G01*
X7000D02*
G03*
X7000Y104472I-2000J0D01*
G01*
X-800Y179394D02*
G03*
X-800Y179394I-2000J0D01*
G01*
X-4700D02*
G03*
X-4700Y179394I-2000J0D01*
G01*
X3100D02*
G03*
X3100Y179394I-2000J0D01*
G01*
X7000D02*
G03*
X7000Y179394I-2000J0D01*
G01*
Y254315D02*
G03*
X7000Y254315I-2000J0D01*
G01*
X3100D02*
G03*
X3100Y254315I-2000J0D01*
G01*
X-4700D02*
G03*
X-4700Y254315I-2000J0D01*
G01*
X-800D02*
G03*
X-800Y254315I-2000J0D01*
G01*
X352906Y328400D02*
G03*
X352906Y328400I-2000J0D01*
G01*
X352800Y310500D02*
G03*
X352800Y310500I-2000J0D01*
G01*
X352600Y248400D02*
G03*
X352600Y248400I-2000J0D01*
G01*
X351700Y201500D02*
G03*
X351700Y201500I-2000J0D01*
G01*
X301100Y240000D02*
G03*
X301100Y240000I-2000J0D01*
G01*
D114*
X291800Y145500D02*
G03*
X291800Y145500I-1200J0D01*
G01*
Y154000D02*
G03*
X291800Y154000I-1200J0D01*
G01*
Y162500D02*
G03*
X291800Y162500I-1200J0D01*
G01*
X303300Y159500D02*
G03*
X303300Y159500I-1200J0D01*
G01*
Y151667D02*
G03*
X303300Y151667I-1200J0D01*
G01*
Y143833D02*
G03*
X303300Y143833I-1200J0D01*
G01*
Y136000D02*
G03*
X303300Y136000I-1200J0D01*
G01*
X-1600Y104472D02*
G03*
X-1600Y104472I-1200J0D01*
G01*
X-5500D02*
G03*
X-5500Y104472I-1200J0D01*
G01*
X2300D02*
G03*
X2300Y104472I-1200J0D01*
G01*
X6200D02*
G03*
X6200Y104472I-1200J0D01*
G01*
X-1600Y179394D02*
G03*
X-1600Y179394I-1200J0D01*
G01*
X-5500D02*
G03*
X-5500Y179394I-1200J0D01*
G01*
X2300D02*
G03*
X2300Y179394I-1200J0D01*
G01*
X6200D02*
G03*
X6200Y179394I-1200J0D01*
G01*
Y254315D02*
G03*
X6200Y254315I-1200J0D01*
G01*
X2300D02*
G03*
X2300Y254315I-1200J0D01*
G01*
X-5500D02*
G03*
X-5500Y254315I-1200J0D01*
G01*
X-1600D02*
G03*
X-1600Y254315I-1200J0D01*
G01*
X352106Y328400D02*
G03*
X352106Y328400I-1200J0D01*
G01*
X352000Y310500D02*
G03*
X352000Y310500I-1200J0D01*
G01*
X351800Y248400D02*
G03*
X351800Y248400I-1200J0D01*
G01*
X350900Y201500D02*
G03*
X350900Y201500I-1200J0D01*
G01*
X300300Y240000D02*
G03*
X300300Y240000I-1200J0D01*
G01*
%TF.MD5,da724e52712f4cae672efc38af1bff5e*%
M02*
