G04 Layer_Color=16711935*
%FSLAX25Y25*%
%MOIN*%
%TF.FileFunction,Other,Mechanical_13*%
%TF.Part,Single*%
G01*
G75*
%TA.AperFunction,NonConductor*%
%ADD50C,0.00787*%
%ADD51C,0.00394*%
D50*
X326300Y190041D02*
X327500Y191241D01*
Y253441D01*
X304700D02*
X327500D01*
X304700Y190141D02*
Y253441D01*
X304600Y190041D02*
X304700Y190141D01*
X304600Y190041D02*
X326300D01*
D51*
X28368Y95737D02*
G03*
X28368Y95737I-1969J0D01*
G01*
Y170837D02*
G03*
X28368Y170837I-1969J0D01*
G01*
Y245937D02*
G03*
X28368Y245937I-1969J0D01*
G01*
X295468Y316744D02*
Y322256D01*
X303932Y316744D02*
Y322256D01*
X295468D02*
X303932D01*
X295468Y316744D02*
X303932D01*
X304232Y327594D02*
Y333106D01*
X295768Y327594D02*
Y333106D01*
Y327594D02*
X304232D01*
X295768Y333106D02*
X304232D01*
X295468Y338444D02*
Y343956D01*
X303932Y338444D02*
Y343956D01*
X295468D02*
X303932D01*
X295468Y338444D02*
X303932D01*
X277368Y338344D02*
Y343856D01*
X285832Y338344D02*
Y343856D01*
X277368D02*
X285832D01*
X277368Y338344D02*
X285832D01*
X322032Y316844D02*
Y322356D01*
X313568Y316844D02*
Y322356D01*
Y316844D02*
X322032D01*
X313568Y322356D02*
X322032D01*
X318784Y337922D02*
X324296D01*
X318784Y329458D02*
X324296D01*
Y337922D01*
X318784Y329458D02*
Y337922D01*
X346432Y325644D02*
Y331156D01*
X337968Y325644D02*
Y331156D01*
Y325644D02*
X346432D01*
X337968Y331156D02*
X346432D01*
X338168Y325444D02*
Y330956D01*
X346632Y325444D02*
Y330956D01*
X338168Y325444D02*
X346632D01*
X338168Y330956D02*
X346632D01*
X336944Y276968D02*
X342456D01*
X336944Y285432D02*
X342456D01*
X336944Y276968D02*
Y285432D01*
X342456Y276968D02*
Y285432D01*
X339044Y193132D02*
X344556D01*
X339044Y184668D02*
X344556D01*
Y193132D01*
X339044Y184668D02*
Y193132D01*
X345244Y285432D02*
X350756D01*
X345244Y276968D02*
X350756D01*
Y285432D01*
X345244Y276968D02*
Y285432D01*
X338068Y294044D02*
Y299556D01*
X346532Y294044D02*
Y299556D01*
X338068D02*
X346532D01*
X338068Y294044D02*
X346532D01*
X346732Y307844D02*
Y313356D01*
X338268Y307844D02*
Y313356D01*
Y307844D02*
X346732D01*
X338268Y313356D02*
X346732D01*
X338168Y307744D02*
Y313256D01*
X346632Y307744D02*
Y313256D01*
X338168Y307744D02*
X346632D01*
X338168Y313256D02*
X346632D01*
X324868Y142244D02*
Y147756D01*
X333332Y142244D02*
Y147756D01*
X324868D02*
X333332D01*
X324868Y142244D02*
X333332D01*
X301332Y225744D02*
Y231256D01*
X292868Y225744D02*
Y231256D01*
X301332D01*
X292868Y225744D02*
X301332D01*
X285368Y233244D02*
Y238756D01*
X293832Y233244D02*
Y238756D01*
X285368Y233244D02*
X293832D01*
X285368Y238756D02*
X293832D01*
X301832Y243744D02*
Y249256D01*
X293368Y243744D02*
Y249256D01*
X301832D01*
X293368Y243744D02*
X301832D01*
X276344Y24232D02*
X281856D01*
X276344Y15768D02*
X281856D01*
Y24232D01*
X276344Y15768D02*
Y24232D01*
X208832Y79244D02*
Y84756D01*
X200368Y79244D02*
Y84756D01*
X208832D01*
X200368Y79244D02*
X208832D01*
X121868Y93244D02*
Y98756D01*
X130332Y93244D02*
Y98756D01*
X121868Y93244D02*
X130332D01*
X121868Y98756D02*
X130332D01*
X122868Y112244D02*
Y117756D01*
X131332Y112244D02*
Y117756D01*
X122868Y112244D02*
X131332D01*
X122868Y117756D02*
X131332D01*
X200368Y100244D02*
Y105756D01*
X208832Y100244D02*
Y105756D01*
X200368Y100244D02*
X208832D01*
X200368Y105756D02*
X208832D01*
X122868Y131244D02*
Y136756D01*
X131332Y131244D02*
Y136756D01*
X122868Y131244D02*
X131332D01*
X122868Y136756D02*
X131332D01*
X67232Y102447D02*
X96169D01*
X67232Y83353D02*
X96169D01*
X67232D02*
Y102447D01*
X96169Y83353D02*
Y102447D01*
X67232Y98653D02*
X96169D01*
X67232Y117747D02*
X96169D01*
X67232Y98653D02*
Y117747D01*
X96169Y98653D02*
Y117747D01*
X67232Y133447D02*
X96169D01*
X67232Y114353D02*
X96169D01*
X67232D02*
Y133447D01*
X96169Y114353D02*
Y133447D01*
X262868Y147244D02*
Y152756D01*
X271332Y147244D02*
Y152756D01*
X262868D02*
X271332D01*
X262868Y147244D02*
X271332D01*
X262868Y139244D02*
Y144756D01*
X271332Y139244D02*
Y144756D01*
X262868D02*
X271332D01*
X262868Y139244D02*
X271332D01*
X262868Y131244D02*
Y136756D01*
X271332Y131244D02*
Y136756D01*
X262868D02*
X271332D01*
X262868Y131244D02*
X271332D01*
X262868Y123244D02*
Y128756D01*
X271332Y123244D02*
Y128756D01*
X262868D02*
X271332D01*
X262868Y123244D02*
X271332D01*
X262868Y115244D02*
Y120756D01*
X271332Y115244D02*
Y120756D01*
X262868D02*
X271332D01*
X262868Y115244D02*
X271332D01*
X262868Y107244D02*
Y112756D01*
X271332Y107244D02*
Y112756D01*
X262868D02*
X271332D01*
X262868Y107244D02*
X271332D01*
X10257Y99280D02*
X29943D01*
X10257Y84320D02*
X29943D01*
Y99280D01*
X10257Y84320D02*
Y99280D01*
Y174380D02*
X29943D01*
X10257Y159420D02*
X29943D01*
Y174380D01*
X10257Y159420D02*
Y174380D01*
Y249480D02*
X29943D01*
X10257Y234520D02*
X29943D01*
Y249480D01*
X10257Y234520D02*
Y249480D01*
X341146Y157469D02*
X346854D01*
X341146Y166131D02*
X346854D01*
X341146Y157469D02*
Y166131D01*
X346854Y157469D02*
Y166131D01*
X324669Y162746D02*
Y168454D01*
X333331Y162746D02*
Y168454D01*
X324669D02*
X333331D01*
X324669Y162746D02*
X333331D01*
X328446Y274069D02*
X334154D01*
X328446Y282731D02*
X334154D01*
X328446Y274069D02*
Y282731D01*
X334154Y274069D02*
Y282731D01*
X309246Y202831D02*
X314954D01*
X309246Y194169D02*
X314954D01*
Y202831D01*
X309246Y194169D02*
Y202831D01*
X342931Y123646D02*
Y129354D01*
X334269Y123646D02*
Y129354D01*
Y123646D02*
X342931D01*
X334269Y129354D02*
X342931D01*
X322036Y250935D02*
X351564D01*
X322036Y267865D02*
X351564D01*
Y250935D02*
Y267865D01*
X322036Y250935D02*
Y267865D01*
X310146Y230669D02*
X315854D01*
X310146Y239331D02*
X315854D01*
X310146Y230669D02*
Y239331D01*
X315854Y230669D02*
Y239331D01*
X135431Y120146D02*
Y125854D01*
X126769Y120146D02*
Y125854D01*
X135431D01*
X126769Y120146D02*
X135431D01*
Y101146D02*
Y106854D01*
X126769Y101146D02*
Y106854D01*
X135431D01*
X126769Y101146D02*
X135431D01*
Y82146D02*
Y87854D01*
X126769Y82146D02*
Y87854D01*
X135431D01*
X126769Y82146D02*
X135431D01*
X228746Y93669D02*
X234454D01*
X228746Y102331D02*
X234454D01*
Y93669D02*
Y102331D01*
X228746Y93669D02*
Y102331D01*
X248746Y91669D02*
X254454D01*
X248746Y100331D02*
X254454D01*
X248746Y91669D02*
Y100331D01*
X254454Y91669D02*
Y100331D01*
X272336Y71035D02*
X301864D01*
X272336Y87965D02*
X301864D01*
Y71035D02*
Y87965D01*
X272336Y71035D02*
Y87965D01*
X252635Y72236D02*
Y101764D01*
X269565Y72236D02*
Y101764D01*
X252635D02*
X269565D01*
X252635Y72236D02*
X269565D01*
X120651Y249342D02*
X139549D01*
X120651Y235563D02*
X139549D01*
X120651D02*
Y249342D01*
X139549Y235563D02*
Y249342D01*
X151851Y54163D02*
X170749D01*
X151851Y67943D02*
X170749D01*
Y54163D02*
Y67943D01*
X151851Y54163D02*
Y67943D01*
X207990Y-17996D02*
Y902D01*
X194210Y-17996D02*
Y902D01*
X207990D01*
X194210Y-17996D02*
X207990D01*
X187323D02*
Y902D01*
X173544Y-17996D02*
Y902D01*
X187323D01*
X173544Y-17996D02*
X187323D01*
X166656D02*
Y902D01*
X152877Y-17996D02*
Y902D01*
X166656D01*
X152877Y-17996D02*
X166656D01*
X145990D02*
Y902D01*
X132210Y-17996D02*
Y902D01*
X145990D01*
X132210Y-17996D02*
X145990D01*
X205490Y297504D02*
Y316402D01*
X191710Y297504D02*
Y316402D01*
X205490D01*
X191710Y297504D02*
X205490D01*
X164156D02*
Y316402D01*
X150377Y297504D02*
Y316402D01*
X164156D01*
X150377Y297504D02*
X164156D01*
X184823D02*
Y316402D01*
X171044Y297504D02*
Y316402D01*
X184823D01*
X171044Y297504D02*
X184823D01*
X143490D02*
Y316402D01*
X129710Y297504D02*
Y316402D01*
X143490D01*
X129710Y297504D02*
X143490D01*
X271431Y147146D02*
Y152854D01*
X262769Y147146D02*
Y152854D01*
X271431D01*
X262769Y147146D02*
X271431D01*
Y123146D02*
Y128854D01*
X262769Y123146D02*
Y128854D01*
X271431D01*
X262769Y123146D02*
X271431D01*
Y139146D02*
Y144854D01*
X262769Y139146D02*
Y144854D01*
X271431D01*
X262769Y139146D02*
X271431D01*
Y115146D02*
Y120854D01*
X262769Y115146D02*
Y120854D01*
X271431D01*
X262769Y115146D02*
X271431D01*
Y131146D02*
Y136854D01*
X262769Y131146D02*
Y136854D01*
X271431D01*
X262769Y131146D02*
X271431D01*
Y107146D02*
Y112854D01*
X262769Y107146D02*
Y112854D01*
X271431D01*
X262769Y107146D02*
X271431D01*
X247336Y176965D02*
X276864D01*
X247336Y160035D02*
X276864D01*
Y176965D01*
X247336Y160035D02*
Y176965D01*
X247836Y159535D02*
X277364D01*
X247836Y176465D02*
X277364D01*
Y159535D02*
Y176465D01*
X247836Y159535D02*
Y176465D01*
X237336Y186535D02*
X266864D01*
X237336Y203465D02*
X266864D01*
X237336Y186535D02*
Y203465D01*
X266864Y186535D02*
Y203465D01*
X236230Y203465D02*
X265757D01*
X236230Y186535D02*
X265757D01*
X236230D02*
Y203465D01*
X265757Y186535D02*
Y203465D01*
X236336Y213535D02*
X265864D01*
X236336Y230465D02*
X265864D01*
X236336Y213535D02*
Y230465D01*
X265864Y213535D02*
Y230465D01*
X237336Y230465D02*
X266864D01*
X237336Y213535D02*
X266864D01*
X237336D02*
Y230465D01*
X266864Y213535D02*
Y230465D01*
X15369Y56646D02*
Y62354D01*
X24031Y56646D02*
Y62354D01*
X15369D02*
X24031D01*
X15369Y56646D02*
X24031D01*
X15369Y133446D02*
Y139154D01*
X24031Y133446D02*
Y139154D01*
X15369D02*
X24031D01*
X15369Y133446D02*
X24031D01*
X15369Y210246D02*
Y215954D01*
X24031Y210246D02*
Y215954D01*
X15369D02*
X24031D01*
X15369Y210246D02*
X24031D01*
%TF.MD5,885ad233df65e3ef0b13da0d9898e8e8*%
M02*
