G04 Layer_Color=128*
%FSLAX25Y25*%
%MOIN*%
%TF.FileFunction,Drillmap*%
%TF.Part,Single*%
G01*
G75*
%TA.AperFunction,NonConductor*%
%ADD53C,0.00500*%
D53*
X-19262Y102842D02*
X-14538D01*
X-16900Y100480D02*
Y105205D01*
X-19262Y83157D02*
X-14538D01*
X-16900Y80795D02*
Y85520D01*
X-19262Y177764D02*
X-14538D01*
X-16900Y175402D02*
Y180126D01*
X-19262Y158079D02*
X-14538D01*
X-16900Y155717D02*
Y160441D01*
X318200Y245941D02*
X321200D01*
X319700Y244441D02*
Y247441D01*
X318200Y223500D02*
X321200D01*
X319700Y222000D02*
Y225000D01*
X318200Y205941D02*
X321200D01*
X319700Y204441D02*
Y207441D01*
X318200Y195941D02*
X321200D01*
X319700Y194441D02*
Y197441D01*
X106105Y90218D02*
X112010D01*
X109057Y87265D02*
Y93171D01*
X106105Y108840D02*
X112010D01*
X109057Y105887D02*
Y111793D01*
X106105Y127462D02*
X112010D01*
X109057Y124510D02*
Y130415D01*
X106105Y146084D02*
X112010D01*
X109057Y143131D02*
Y149037D01*
X106105Y164706D02*
X112010D01*
X109057Y161754D02*
Y167659D01*
X106105Y183328D02*
X112010D01*
X109057Y180376D02*
Y186281D01*
X106105Y201950D02*
X112010D01*
X109057Y198998D02*
Y204903D01*
X106105Y220572D02*
X112010D01*
X109057Y217620D02*
Y223525D01*
X219731Y103821D02*
X223668D01*
X221699Y101852D02*
Y105789D01*
X207931Y95947D02*
X211869D01*
X209900Y93978D02*
Y97915D01*
X207931Y110120D02*
X211869D01*
X209900Y108151D02*
Y112088D01*
X207931Y122718D02*
X211869D01*
X209900Y120750D02*
Y124687D01*
X219731Y129017D02*
X223668D01*
X221699Y127049D02*
Y130986D01*
X207931Y135317D02*
X211869D01*
X209900Y133348D02*
Y137285D01*
X219731Y141616D02*
X223668D01*
X221699Y139647D02*
Y143584D01*
X207931Y147915D02*
X211869D01*
X209900Y145947D02*
Y149883D01*
X219731Y154214D02*
X223668D01*
X221699Y152246D02*
Y156183D01*
X207931Y167600D02*
X211869D01*
X209900Y165631D02*
Y169569D01*
X219731Y173899D02*
X223668D01*
X221699Y171931D02*
Y175868D01*
X207931Y187285D02*
X211869D01*
X209900Y185317D02*
Y189253D01*
X219731Y193584D02*
X223668D01*
X221699Y191616D02*
Y195553D01*
X207931Y206970D02*
X211869D01*
X209900Y205002D02*
Y208939D01*
X219731Y116419D02*
X223668D01*
X221699Y114450D02*
Y118387D01*
X219928Y214844D02*
X223471D01*
X221699Y213072D02*
Y216616D01*
X-19262Y252685D02*
X-14538D01*
X-16900Y250323D02*
Y255047D01*
X-19262Y233000D02*
X-14538D01*
X-16900Y230638D02*
Y235362D01*
X321828Y134500D02*
X325372D01*
X323600Y132728D02*
Y136272D01*
X331828Y134500D02*
X335372D01*
X333600Y132728D02*
Y136272D01*
X341828Y134500D02*
X345372D01*
X343600Y132728D02*
Y136272D01*
X342428Y174000D02*
X345972D01*
X344200Y172228D02*
Y175772D01*
X332428Y174000D02*
X335972D01*
X334200Y172228D02*
Y175772D01*
X322428Y174000D02*
X325972D01*
X324200Y172228D02*
Y175772D01*
X28828Y70100D02*
X32372D01*
X30600Y68328D02*
Y71872D01*
X18828Y70100D02*
X22372D01*
X20600Y68328D02*
Y71872D01*
X8828Y70100D02*
X12372D01*
X10600Y68328D02*
Y71872D01*
X28828Y146050D02*
X32372D01*
X30600Y144278D02*
Y147822D01*
X18828Y146050D02*
X22372D01*
X20600Y144278D02*
Y147822D01*
X8828Y146050D02*
X12372D01*
X10600Y144278D02*
Y147822D01*
X28828Y222000D02*
X32372D01*
X30600Y220228D02*
Y223772D01*
X18828Y222000D02*
X22372D01*
X20600Y220228D02*
Y223772D01*
X8828Y222000D02*
X12372D01*
X10600Y220228D02*
Y223772D01*
X341828Y99041D02*
X345371D01*
X343600Y97270D02*
Y100813D01*
X331828Y99041D02*
X335371D01*
X333600Y97270D02*
Y100813D01*
X321828Y99041D02*
X325371D01*
X323600Y97270D02*
Y100813D01*
X341828Y63500D02*
X345371D01*
X343600Y61728D02*
Y65272D01*
X331828Y63500D02*
X335371D01*
X333600Y61728D02*
Y65272D01*
X321828Y63500D02*
X325371D01*
X323600Y61728D02*
Y65272D01*
X298828Y63500D02*
X302372D01*
X300600Y61728D02*
Y65272D01*
X288828Y63500D02*
X292372D01*
X290600Y61728D02*
Y65272D01*
X278828Y63500D02*
X282372D01*
X280600Y61728D02*
Y65272D01*
X198376Y90978D02*
X201132D01*
X199753Y89600D02*
Y92356D01*
X127509Y90978D02*
X130265D01*
X128887Y89600D02*
Y92356D01*
X198588Y110000D02*
X201344D01*
X199966Y108622D02*
Y111378D01*
X127722Y110000D02*
X130478D01*
X129100Y108622D02*
Y111378D01*
X198722Y128000D02*
X201478D01*
X200100Y126622D02*
Y129378D01*
X127856Y128000D02*
X130612D01*
X129234Y126622D02*
Y129378D01*
X104763Y-25800D02*
X112637D01*
X108700Y-29737D02*
Y-21863D01*
X104763Y13570D02*
X112637D01*
X108700Y9633D02*
Y17507D01*
X225763Y-25800D02*
X233637D01*
X229700Y-29737D02*
Y-21863D01*
X225763Y13570D02*
X233637D01*
X229700Y9633D02*
Y17507D01*
X225763Y286000D02*
X233637D01*
X229700Y282063D02*
Y289937D01*
X225763Y325370D02*
X233637D01*
X229700Y321433D02*
Y329307D01*
X104763Y286200D02*
X112637D01*
X108700Y282263D02*
Y290137D01*
X104763Y325570D02*
X112637D01*
X108700Y321633D02*
Y329507D01*
X-19262Y14842D02*
X-14538D01*
X-16900Y12480D02*
Y17205D01*
X-19262Y-4843D02*
X-14538D01*
X-16900Y-7205D02*
Y-2480D01*
X14095Y-32500D02*
X18820D01*
X16457Y-34862D02*
Y-30138D01*
X33780Y-32500D02*
X38505D01*
X36143Y-34862D02*
Y-30138D01*
X-19262Y308795D02*
X-14538D01*
X-16900Y306433D02*
Y311157D01*
X-19262Y289110D02*
X-14538D01*
X-16900Y286748D02*
Y291472D01*
X36880Y336200D02*
X41605D01*
X39243Y333838D02*
Y338562D01*
X17195Y336200D02*
X21920D01*
X19557Y333838D02*
Y338562D01*
X-37806Y-37000D02*
X-25995D01*
X-31900Y-42906D02*
Y-31095D01*
X-37806Y340953D02*
X-25995D01*
X-31900Y335047D02*
Y346858D01*
X340147Y-37000D02*
X351958D01*
X346053Y-42906D02*
Y-31095D01*
X340147Y340953D02*
X351958D01*
X346053Y335047D02*
Y346858D01*
X17293Y10500D02*
X36978D01*
X27135Y658D02*
Y20343D01*
X300758Y10500D02*
X320443D01*
X310600Y658D02*
Y20343D01*
X300758Y293965D02*
X320443D01*
X310600Y284122D02*
Y303807D01*
X17293Y293965D02*
X36978D01*
X27135Y284122D02*
Y303807D01*
X62750Y99100D02*
X64250D01*
X63500Y98350D02*
Y99850D01*
X268184Y334016D02*
X270984D01*
X269584Y332616D02*
Y335416D01*
X298313Y240000D02*
X299887D01*
X299100Y239213D02*
Y240787D01*
X348913Y201500D02*
X350487D01*
X349700Y200713D02*
Y202287D01*
X349813Y248400D02*
X351387D01*
X350600Y247613D02*
Y249187D01*
X350013Y310500D02*
X351587D01*
X350800Y309713D02*
Y311287D01*
X350119Y328400D02*
X351694D01*
X350906Y327613D02*
Y329187D01*
X53350Y46900D02*
X54850D01*
X54100Y46150D02*
Y47650D01*
X53350Y64300D02*
X54850D01*
X54100Y63550D02*
Y65050D01*
X58050Y55600D02*
X59550D01*
X58800Y54850D02*
Y56350D01*
X53350Y81700D02*
X54850D01*
X54100Y80950D02*
Y82450D01*
X58050Y73000D02*
X59550D01*
X58800Y72250D02*
Y73750D01*
X62750Y64300D02*
X64250D01*
X63500Y63550D02*
Y65050D01*
X67450Y73000D02*
X68950D01*
X68200Y72250D02*
Y73750D01*
X62750Y81700D02*
X64250D01*
X63500Y80950D02*
Y82450D01*
X58050Y90400D02*
X59550D01*
X58800Y89650D02*
Y91150D01*
X53350Y99100D02*
X54850D01*
X54100Y98350D02*
Y99850D01*
X58050Y107800D02*
X59550D01*
X58800Y107050D02*
Y108550D01*
X60300Y116000D02*
X61800D01*
X61050Y115250D02*
Y116750D01*
X-3587Y254315D02*
X-2013D01*
X-2800Y253528D02*
Y255102D01*
X-7487Y254315D02*
X-5913D01*
X-6700Y253528D02*
Y255102D01*
X313Y254315D02*
X1887D01*
X1100Y253528D02*
Y255102D01*
X4213Y254315D02*
X5787D01*
X5000Y253528D02*
Y255102D01*
X76850Y73000D02*
X78350D01*
X77600Y72250D02*
Y73750D01*
X72150Y64300D02*
X73650D01*
X72900Y63550D02*
Y65050D01*
X67450Y55600D02*
X68950D01*
X68200Y54850D02*
Y56350D01*
X62750Y46900D02*
X64250D01*
X63500Y46150D02*
Y47650D01*
X76850Y55600D02*
X78350D01*
X77600Y54850D02*
Y56350D01*
X72150Y46900D02*
X73650D01*
X72900Y46150D02*
Y47650D01*
X72150Y12100D02*
X73650D01*
X72900Y11350D02*
Y12850D01*
X76850Y20800D02*
X78350D01*
X77600Y20050D02*
Y21550D01*
X62750Y12100D02*
X64250D01*
X63500Y11350D02*
Y12850D01*
X67450Y20800D02*
X68950D01*
X68200Y20050D02*
Y21550D01*
X72150Y29500D02*
X73650D01*
X72900Y28750D02*
Y30250D01*
X76850Y38200D02*
X78350D01*
X77600Y37450D02*
Y38950D01*
X67450Y38200D02*
X68950D01*
X68200Y37450D02*
Y38950D01*
X62750Y29500D02*
X64250D01*
X63500Y28750D02*
Y30250D01*
X58050Y38200D02*
X59550D01*
X58800Y37450D02*
Y38950D01*
X58050Y20800D02*
X59550D01*
X58800Y20050D02*
Y21550D01*
X53350Y29500D02*
X54850D01*
X54100Y28750D02*
Y30250D01*
X72150Y-22700D02*
X73650D01*
X72900Y-23450D02*
Y-21950D01*
X76850Y-14000D02*
X78350D01*
X77600Y-14750D02*
Y-13250D01*
X62750Y-22700D02*
X64250D01*
X63500Y-23450D02*
Y-21950D01*
X67450Y-14000D02*
X68950D01*
X68200Y-14750D02*
Y-13250D01*
X72150Y-5300D02*
X73650D01*
X72900Y-6050D02*
Y-4550D01*
X76850Y3400D02*
X78350D01*
X77600Y2650D02*
Y4150D01*
X67450Y3400D02*
X68950D01*
X68200Y2650D02*
Y4150D01*
X62750Y-5300D02*
X64250D01*
X63500Y-6050D02*
Y-4550D01*
X58050Y3400D02*
X59550D01*
X58800Y2650D02*
Y4150D01*
X58050Y-14000D02*
X59550D01*
X58800Y-14750D02*
Y-13250D01*
X53350Y-5300D02*
X54850D01*
X54100Y-6050D02*
Y-4550D01*
X53350Y-22700D02*
X54850D01*
X54100Y-23450D02*
Y-21950D01*
X76850Y-31400D02*
X78350D01*
X77600Y-32150D02*
Y-30650D01*
X67450Y-31400D02*
X68950D01*
X68200Y-32150D02*
Y-30650D01*
X58050Y-31400D02*
X59550D01*
X58800Y-32150D02*
Y-30650D01*
X46350Y-16500D02*
X47850D01*
X47100Y-17250D02*
Y-15750D01*
X48650Y-31400D02*
X50150D01*
X49400Y-32150D02*
Y-30650D01*
X39350Y-24500D02*
X40850D01*
X40100Y-25250D02*
Y-23750D01*
X32850Y-17000D02*
X34350D01*
X33600Y-17750D02*
Y-16250D01*
X24850Y-25000D02*
X26350D01*
X25600Y-25750D02*
Y-24250D01*
X20850Y-17500D02*
X22350D01*
X21600Y-18250D02*
Y-16750D01*
X11450Y-17500D02*
X12950D01*
X12200Y-18250D02*
Y-16750D01*
X9850Y-25000D02*
X11350D01*
X10600Y-25750D02*
Y-24250D01*
X1950Y-13300D02*
X3450D01*
X2700Y-14050D02*
Y-12550D01*
X1950Y-30700D02*
X3450D01*
X2700Y-31450D02*
Y-29950D01*
X-2750Y-22000D02*
X-1250D01*
X-2000Y-22750D02*
Y-21250D01*
X-11650Y-21547D02*
X-10150D01*
X-10900Y-22297D02*
Y-20797D01*
X-7450Y-30700D02*
X-5950D01*
X-6700Y-31450D02*
Y-29950D01*
X105050Y38200D02*
X106550D01*
X105800Y37450D02*
Y38950D01*
X90950Y64300D02*
X92450D01*
X91700Y63550D02*
Y65050D01*
X105050Y73000D02*
X106550D01*
X105800Y72250D02*
Y73750D01*
X90950Y46900D02*
X92450D01*
X91700Y46150D02*
Y47650D01*
X105050Y55600D02*
X106550D01*
X105800Y54850D02*
Y56350D01*
X133250Y38200D02*
X134750D01*
X134000Y37450D02*
Y38950D01*
X119150Y64300D02*
X120650D01*
X119900Y63550D02*
Y65050D01*
X133250Y73000D02*
X134750D01*
X134000Y72250D02*
Y73750D01*
X119150Y46900D02*
X120650D01*
X119900Y46150D02*
Y47650D01*
X133250Y55600D02*
X134750D01*
X134000Y54850D02*
Y56350D01*
X149850Y45500D02*
X151350D01*
X150600Y44750D02*
Y46250D01*
X149850Y80300D02*
X151350D01*
X150600Y79550D02*
Y81050D01*
X142350Y142000D02*
X143850D01*
X143100Y141250D02*
Y142750D01*
X141901Y194500D02*
X143401D01*
X142650Y193750D02*
Y195250D01*
X142850Y177500D02*
X144350D01*
X143600Y176750D02*
Y178250D01*
X149850Y184700D02*
X151350D01*
X150600Y183950D02*
Y185450D01*
X149850Y167300D02*
X151350D01*
X150600Y166550D02*
Y168050D01*
X149850Y202100D02*
X151350D01*
X150600Y201350D02*
Y202850D01*
X142850Y159500D02*
X144350D01*
X143600Y158750D02*
Y160250D01*
X149850Y149900D02*
X151350D01*
X150600Y149150D02*
Y150650D01*
X137350Y264500D02*
X138850D01*
X138100Y263750D02*
Y265250D01*
X149850Y254300D02*
X151350D01*
X150600Y253550D02*
Y255050D01*
X149850Y236900D02*
X151350D01*
X150600Y236150D02*
Y237650D01*
X149850Y271700D02*
X151350D01*
X150600Y270950D02*
Y272450D01*
X141350Y230000D02*
X142850D01*
X142100Y229250D02*
Y230750D01*
X149850Y219500D02*
X151350D01*
X150600Y218750D02*
Y220250D01*
X141350Y212000D02*
X142850D01*
X142100Y211250D02*
Y212750D01*
X137350Y283200D02*
X138850D01*
X138100Y282450D02*
Y283950D01*
X124850Y274700D02*
X126350D01*
X125600Y273950D02*
Y275450D01*
X162350Y278900D02*
X163850D01*
X163100Y278150D02*
Y279650D01*
X174850Y286100D02*
X176350D01*
X175600Y285350D02*
Y286850D01*
X184850Y278000D02*
X186350D01*
X185600Y277250D02*
Y278750D01*
X195250Y287600D02*
X196750D01*
X196000Y286850D02*
Y288350D01*
X207350Y278000D02*
X208850D01*
X208100Y277250D02*
Y278750D01*
X217750Y287600D02*
X219250D01*
X218500Y286850D02*
Y288350D01*
X87250Y-24400D02*
X88750D01*
X88000Y-25150D02*
Y-23650D01*
X97650Y-17400D02*
X99150D01*
X98400Y-18150D02*
Y-16650D01*
X97650Y-34800D02*
X99150D01*
X98400Y-35550D02*
Y-34050D01*
X137250Y-38200D02*
X138750D01*
X138000Y-38950D02*
Y-37450D01*
X126850Y-27800D02*
X128350D01*
X127600Y-28550D02*
Y-27050D01*
X116450Y-17400D02*
X117950D01*
X117200Y-18150D02*
Y-16650D01*
X156050Y-38200D02*
X157550D01*
X156800Y-38950D02*
Y-37450D01*
X145650Y-27800D02*
X147150D01*
X146400Y-28550D02*
Y-27050D01*
X174850Y-38200D02*
X176350D01*
X175600Y-38950D02*
Y-37450D01*
X164450Y-27800D02*
X165950D01*
X165200Y-28550D02*
Y-27050D01*
X193650Y-38200D02*
X195150D01*
X194400Y-38950D02*
Y-37450D01*
X183250Y-27800D02*
X184750D01*
X184000Y-28550D02*
Y-27050D01*
X212450Y-38200D02*
X213950D01*
X213200Y-38950D02*
Y-37450D01*
X202050Y-27800D02*
X203550D01*
X202800Y-28550D02*
Y-27050D01*
X118450Y-38200D02*
X119950D01*
X119200Y-38950D02*
Y-37450D01*
X118450Y1170D02*
X119950D01*
X119200Y420D02*
Y1920D01*
X210450Y21970D02*
X211950D01*
X211200Y21220D02*
Y22720D01*
X191650Y21970D02*
X193150D01*
X192400Y21220D02*
Y22720D01*
X202050Y11570D02*
X203550D01*
X202800Y10820D02*
Y12320D01*
X172850Y21970D02*
X174350D01*
X173600Y21220D02*
Y22720D01*
X183250Y11570D02*
X184750D01*
X184000Y10820D02*
Y12320D01*
X154050Y21970D02*
X155550D01*
X154800Y21220D02*
Y22720D01*
X164450Y11570D02*
X165950D01*
X165200Y10820D02*
Y12320D01*
X135250Y21970D02*
X136750D01*
X136000Y21220D02*
Y22720D01*
X145650Y11570D02*
X147150D01*
X146400Y10820D02*
Y12320D01*
X118999Y21970D02*
X120499D01*
X119749Y21220D02*
Y22720D01*
X126850Y11570D02*
X128350D01*
X127600Y10820D02*
Y12320D01*
X170495Y144746D02*
X171995D01*
X171245Y143995D02*
Y145495D01*
X182995Y151945D02*
X184495D01*
X183745Y151196D02*
Y152696D01*
X170495Y162145D02*
X171995D01*
X171245Y161396D02*
Y162896D01*
X182995Y82345D02*
X184495D01*
X183745Y81595D02*
Y83096D01*
X170495Y40345D02*
X171995D01*
X171245Y39595D02*
Y41096D01*
X182995Y47545D02*
X184495D01*
X183745Y46795D02*
Y48296D01*
X182995Y30145D02*
X184495D01*
X183745Y29395D02*
Y30896D01*
X182995Y64946D02*
X184495D01*
X183745Y64196D02*
Y65696D01*
X170495Y75146D02*
X171995D01*
X171245Y74396D02*
Y75896D01*
X182995Y221546D02*
X184495D01*
X183745Y220795D02*
Y222295D01*
X170495Y231746D02*
X171995D01*
X171245Y230995D02*
Y232495D01*
X182995Y238946D02*
X184495D01*
X183745Y238195D02*
Y239696D01*
X170495Y249146D02*
X171995D01*
X171245Y248395D02*
Y249896D01*
X170495Y196946D02*
X171995D01*
X171245Y196195D02*
Y197696D01*
X170495Y179545D02*
X171995D01*
X171245Y178796D02*
Y180296D01*
X182995Y186746D02*
X184495D01*
X183745Y185995D02*
Y187496D01*
X182995Y169345D02*
X184495D01*
X183745Y168596D02*
Y170096D01*
X182995Y204146D02*
X184495D01*
X183745Y203396D02*
Y204895D01*
X170495Y214346D02*
X171995D01*
X171245Y213596D02*
Y215095D01*
X206550Y245100D02*
X208050D01*
X207300Y244350D02*
Y245850D01*
X196150Y255500D02*
X197650D01*
X196900Y254750D02*
Y256250D01*
X225350Y245100D02*
X226850D01*
X226100Y244350D02*
Y245850D01*
X214950Y255500D02*
X216450D01*
X215700Y254750D02*
Y256250D01*
X233750Y255500D02*
X235250D01*
X234500Y254750D02*
Y256250D01*
X182350Y255500D02*
X183850D01*
X183100Y254750D02*
Y256250D01*
X252550Y255500D02*
X254050D01*
X253300Y254750D02*
Y256250D01*
X272750Y268400D02*
X274250D01*
X273500Y267650D02*
Y269150D01*
X272750Y287200D02*
X274250D01*
X273500Y286450D02*
Y287950D01*
X262350Y276800D02*
X263850D01*
X263100Y276050D02*
Y277550D01*
X272750Y306000D02*
X274250D01*
X273500Y305250D02*
Y306750D01*
X262350Y295600D02*
X263850D01*
X263100Y294850D02*
Y296350D01*
X132750Y328500D02*
X134250D01*
X133500Y327750D02*
Y329250D01*
X124899Y338900D02*
X126399D01*
X125649Y338150D02*
Y339650D01*
X151550Y328500D02*
X153050D01*
X152300Y327750D02*
Y329250D01*
X141150Y338900D02*
X142650D01*
X141900Y338150D02*
Y339650D01*
X170350Y328500D02*
X171850D01*
X171100Y327750D02*
Y329250D01*
X159950Y338900D02*
X161450D01*
X160700Y338150D02*
Y339650D01*
X189150Y328500D02*
X190650D01*
X189900Y327750D02*
Y329250D01*
X178750Y338900D02*
X180250D01*
X179500Y338150D02*
Y339650D01*
X218350Y318100D02*
X219850D01*
X219100Y317350D02*
Y318850D01*
X207950Y328500D02*
X209450D01*
X208700Y327750D02*
Y329250D01*
X197550Y338900D02*
X199050D01*
X198300Y338150D02*
Y339650D01*
X216350Y338900D02*
X217850D01*
X217100Y338150D02*
Y339650D01*
X255750Y338400D02*
X257250D01*
X256500Y337650D02*
Y339150D01*
X266150Y328000D02*
X267650D01*
X266900Y327250D02*
Y328750D01*
X276550Y317600D02*
X278050D01*
X277300Y316850D02*
Y318350D01*
X236950Y338400D02*
X238450D01*
X237700Y337650D02*
Y339150D01*
X247350Y328000D02*
X248850D01*
X248100Y327250D02*
Y328750D01*
X257750Y317600D02*
X259250D01*
X258500Y316850D02*
Y318350D01*
X238950Y317600D02*
X240450D01*
X239700Y316850D02*
Y318350D01*
X60150Y317600D02*
X61650D01*
X60900Y316850D02*
Y318350D01*
X78950Y317600D02*
X80450D01*
X79700Y316850D02*
Y318350D01*
X68550Y328000D02*
X70050D01*
X69300Y327250D02*
Y328750D01*
X58150Y338400D02*
X59650D01*
X58900Y337650D02*
Y339150D01*
X97750Y317600D02*
X99250D01*
X98500Y316850D02*
Y318350D01*
X87350Y328000D02*
X88850D01*
X88100Y327250D02*
Y328750D01*
X76950Y338400D02*
X78450D01*
X77700Y337650D02*
Y339150D01*
X95750Y338400D02*
X97250D01*
X96500Y337650D02*
Y339150D01*
X53550Y291400D02*
X55050D01*
X54300Y290650D02*
Y292150D01*
X62250Y286700D02*
X63750D01*
X63000Y285950D02*
Y287450D01*
X53550Y300800D02*
X55050D01*
X54300Y300050D02*
Y301550D01*
X62250Y296100D02*
X63750D01*
X63000Y295350D02*
Y296850D01*
X70950Y291400D02*
X72450D01*
X71700Y290650D02*
Y292150D01*
X79650Y286700D02*
X81150D01*
X80400Y285950D02*
Y287450D01*
X79650Y296100D02*
X81150D01*
X80400Y295350D02*
Y296850D01*
X70950Y300800D02*
X72450D01*
X71700Y300050D02*
Y301550D01*
X79650Y305500D02*
X81150D01*
X80400Y304750D02*
Y306250D01*
X62250Y305500D02*
X63750D01*
X63000Y304750D02*
Y306250D01*
X70950Y310200D02*
X72450D01*
X71700Y309450D02*
Y310950D01*
X53550Y310200D02*
X55050D01*
X54300Y309450D02*
Y310950D01*
X62250Y259200D02*
X63750D01*
X63000Y258450D02*
Y259950D01*
X53550Y273300D02*
X55050D01*
X54300Y272550D02*
Y274050D01*
X62250Y268600D02*
X63750D01*
X63000Y267850D02*
Y269350D01*
X70950Y263900D02*
X72450D01*
X71700Y263150D02*
Y264650D01*
X79650Y259200D02*
X81150D01*
X80400Y258450D02*
Y259950D01*
X79650Y268600D02*
X81150D01*
X80400Y267850D02*
Y269350D01*
X70950Y273300D02*
X72450D01*
X71700Y272550D02*
Y274050D01*
X79650Y278000D02*
X81150D01*
X80400Y277250D02*
Y278750D01*
X62250Y278000D02*
X63750D01*
X63000Y277250D02*
Y278750D01*
X70950Y282700D02*
X72450D01*
X71700Y281950D02*
Y283450D01*
X53550Y282700D02*
X55050D01*
X54300Y281950D02*
Y283450D01*
X79750Y229200D02*
X81250D01*
X80500Y228450D02*
Y229950D01*
X79750Y238600D02*
X81250D01*
X80500Y237850D02*
Y239350D01*
X88450Y233900D02*
X89950D01*
X89200Y233150D02*
Y234650D01*
X97150Y229200D02*
X98650D01*
X97900Y228450D02*
Y229950D01*
X97150Y238600D02*
X98650D01*
X97900Y237850D02*
Y239350D01*
X88450Y243300D02*
X89950D01*
X89200Y242550D02*
Y244050D01*
X97150Y248000D02*
X98650D01*
X97900Y247250D02*
Y248750D01*
X79750Y248000D02*
X81250D01*
X80500Y247250D02*
Y248750D01*
X88450Y252700D02*
X89950D01*
X89200Y251950D02*
Y253450D01*
X71050Y252700D02*
X72550D01*
X71800Y251950D02*
Y253450D01*
X88350Y263900D02*
X89850D01*
X89100Y263150D02*
Y264650D01*
X97050Y259200D02*
X98550D01*
X97800Y258450D02*
Y259950D01*
X114450Y259200D02*
X115950D01*
X115200Y258450D02*
Y259950D01*
X106050Y233900D02*
X107550D01*
X106800Y233150D02*
Y234650D01*
X114750Y229200D02*
X116250D01*
X115500Y228450D02*
Y229950D01*
X106050Y243300D02*
X107550D01*
X106800Y242550D02*
Y244050D01*
X106050Y252700D02*
X107550D01*
X106800Y251950D02*
Y253450D01*
X84850Y223000D02*
X86350D01*
X85600Y222250D02*
Y223750D01*
X93550Y218300D02*
X95050D01*
X94300Y217550D02*
Y219050D01*
X93550Y208900D02*
X95050D01*
X94300Y208150D02*
Y209650D01*
X84850Y213600D02*
X86350D01*
X85600Y212850D02*
Y214350D01*
X39850Y321000D02*
X41350D01*
X40600Y320250D02*
Y321750D01*
X44550Y326700D02*
X46050D01*
X45300Y325950D02*
Y327450D01*
X53950Y326700D02*
X55450D01*
X54700Y325950D02*
Y327450D01*
X49250Y318000D02*
X50750D01*
X50000Y317250D02*
Y318750D01*
X22350Y321000D02*
X23850D01*
X23100Y320250D02*
Y321750D01*
X27050Y326700D02*
X28550D01*
X27800Y325950D02*
Y327450D01*
X36450Y326700D02*
X37950D01*
X37200Y325950D02*
Y327450D01*
X31750Y321000D02*
X33250D01*
X32500Y320250D02*
Y321750D01*
X4850Y318000D02*
X6350D01*
X5600Y317250D02*
Y318750D01*
X9550Y326700D02*
X11050D01*
X10300Y325950D02*
Y327450D01*
X18950Y326700D02*
X20450D01*
X19700Y325950D02*
Y327450D01*
X14350Y321000D02*
X15850D01*
X15100Y320250D02*
Y321750D01*
X6150Y335400D02*
X7650D01*
X6900Y334650D02*
Y336150D01*
X-3250Y335400D02*
X-1750D01*
X-2500Y334650D02*
Y336150D01*
X150Y326700D02*
X1650D01*
X900Y325950D02*
Y327450D01*
X-11150Y335453D02*
X-9650D01*
X-10400Y334703D02*
Y336203D01*
X244150Y245100D02*
X245650D01*
X244900Y244350D02*
Y245850D01*
X210150Y47000D02*
X211650D01*
X210900Y46250D02*
Y47750D01*
X228950Y47000D02*
X230450D01*
X229700Y46250D02*
Y47750D01*
X218550Y57400D02*
X220050D01*
X219300Y56650D02*
Y58150D01*
X208150Y67800D02*
X209650D01*
X208900Y67050D02*
Y68550D01*
X247750Y47000D02*
X249250D01*
X248500Y46250D02*
Y47750D01*
X237350Y57400D02*
X238850D01*
X238100Y56650D02*
Y58150D01*
X226950Y67800D02*
X228450D01*
X227700Y67050D02*
Y68550D01*
X245750Y67800D02*
X247250D01*
X246500Y67050D02*
Y68550D01*
X258150Y36600D02*
X259650D01*
X258900Y35850D02*
Y37350D01*
X256150Y57400D02*
X257650D01*
X256900Y56650D02*
Y58150D01*
X226950Y86600D02*
X228450D01*
X227700Y85850D02*
Y87350D01*
X216550Y76200D02*
X218050D01*
X217300Y75450D02*
Y76950D01*
X216550Y95000D02*
X218050D01*
X217300Y94250D02*
Y95750D01*
X246350Y-26000D02*
X247850D01*
X247100Y-26750D02*
Y-25250D01*
X4213Y179394D02*
X5787D01*
X5000Y178606D02*
Y180181D01*
X313Y179394D02*
X1887D01*
X1100Y178606D02*
Y180181D01*
X-7487Y179394D02*
X-5913D01*
X-6700Y178606D02*
Y180181D01*
X-3587Y179394D02*
X-2013D01*
X-2800Y178606D02*
Y180181D01*
X4213Y104472D02*
X5787D01*
X5000Y103685D02*
Y105260D01*
X313Y104472D02*
X1887D01*
X1100Y103685D02*
Y105260D01*
X-7487Y104472D02*
X-5913D01*
X-6700Y103685D02*
Y105260D01*
X-3587Y104472D02*
X-2013D01*
X-2800Y103685D02*
Y105260D01*
X301313Y136000D02*
X302887D01*
X302100Y135213D02*
Y136787D01*
X301313Y143833D02*
X302887D01*
X302100Y143046D02*
Y144621D01*
X301313Y151667D02*
X302887D01*
X302100Y150879D02*
Y152454D01*
X301313Y159500D02*
X302887D01*
X302100Y158713D02*
Y160287D01*
X289813Y162500D02*
X291387D01*
X290600Y161713D02*
Y163287D01*
X289813Y154000D02*
X291387D01*
X290600Y153213D02*
Y154787D01*
X289813Y145500D02*
X291387D01*
X290600Y144713D02*
Y146287D01*
%TF.MD5,f537c73b257913859540cf2a59c605d6*%
M02*
