G04 Layer_Color=32896*
%FSLAX26Y26*%
%MOIN*%
%TF.FileFunction,Legend,Bot*%
%TF.Part,Single*%
G01*
G75*
%TA.AperFunction,NonConductor*%
%ADD49C,0.078740*%
%ADD50C,0.003937*%
%ADD51C,0.007874*%
%ADD52C,0.010000*%
%ADD53C,0.005000*%
%ADD54C,0.006000*%
D49*
X718000Y-469882D02*
G03*
X718000Y-469882I-127645J0D01*
G01*
X3559773D02*
G03*
X3559773Y-469882I-134774J0D01*
G01*
X3550000Y-3304528D02*
G03*
X3550000Y-3304528I-125000J0D01*
G01*
X721369D02*
G03*
X721369Y-3304528I-131015J0D01*
G01*
D50*
X3001738Y-1095546D02*
G03*
X3001738Y-1095546I-1968J0D01*
G01*
X3011738Y-1365546D02*
G03*
X3011738Y-1365546I-1968J0D01*
G01*
X2772200Y-1818509D02*
G03*
X2772200Y-1818509I-1968J0D01*
G01*
X3025950Y-2709296D02*
G03*
X3025950Y-2709296I-1968J0D01*
G01*
D51*
X2000551Y-359527D02*
G03*
X2000551Y-359527I-590551J0D01*
G01*
X3210551Y-361527D02*
G03*
X3210551Y-361527I-590551J0D01*
G01*
Y-3479528D02*
G03*
X3210551Y-3479528I-590551J0D01*
G01*
X2000551D02*
G03*
X2000551Y-3479528I-590551J0D01*
G01*
X3511000Y-1719527D02*
X3811000D01*
X3511000D02*
Y-1619527D01*
X3811000D01*
Y-1719527D02*
Y-1619527D01*
X2765039Y-1107835D02*
X2894961D01*
X2765039Y-1271220D02*
X2894961D01*
X2775039Y-1377835D02*
X2904961D01*
X2775039Y-1541220D02*
X2904961D01*
X2875039Y-1806220D02*
X3004961D01*
X2875039Y-1642835D02*
X3004961D01*
X1200000Y-284252D02*
Y-244252D01*
X1180000Y-264252D02*
X1220000D01*
X2410000Y-286252D02*
Y-246252D01*
X2390000Y-266252D02*
X2430000D01*
X2410000Y-3404252D02*
Y-3364252D01*
X2390000Y-3384252D02*
X2430000D01*
X1200000Y-3404252D02*
Y-3364252D01*
X1180000Y-3384252D02*
X1220000D01*
X1904339Y-2100528D02*
X1911339Y-2107528D01*
X1643339Y-2129528D02*
X2290339D01*
X1928339Y-2133528D02*
Y-2124528D01*
X1904339Y-2157528D02*
X1928339Y-2133528D01*
X1904339Y-2100528D02*
X1928339Y-2124528D01*
X1904339Y-2157528D02*
Y-2100528D01*
X1932339Y-2159528D02*
Y-2098528D01*
X1911339Y-2148528D02*
Y-2107528D01*
X1918339Y-2141528D02*
Y-2118528D01*
X1923339Y-2138528D02*
Y-2123528D01*
X1903000Y-2280528D02*
X1910000Y-2287528D01*
X1642000Y-2309528D02*
X2289000D01*
X1927000Y-2313528D02*
Y-2304528D01*
X1903000Y-2337528D02*
X1927000Y-2313528D01*
X1903000Y-2280528D02*
X1927000Y-2304528D01*
X1903000Y-2337528D02*
Y-2280528D01*
X1931000Y-2339528D02*
Y-2278528D01*
X1910000Y-2328528D02*
Y-2287528D01*
X1917000Y-2321528D02*
Y-2298528D01*
X1922000Y-2318528D02*
Y-2303528D01*
X1900874Y-2470747D02*
X1907874Y-2477747D01*
X1639874Y-2499747D02*
X2286874D01*
X1924874Y-2503747D02*
Y-2494747D01*
X1900874Y-2527747D02*
X1924874Y-2503747D01*
X1900874Y-2470747D02*
X1924874Y-2494747D01*
X1900874Y-2527747D02*
Y-2470747D01*
X1928874Y-2529747D02*
Y-2468747D01*
X1907874Y-2518747D02*
Y-2477747D01*
X1914874Y-2511747D02*
Y-2488747D01*
X1919874Y-2508747D02*
Y-2493747D01*
X1590000Y-2095118D02*
Y-2043937D01*
X2365000Y-2405118D02*
Y-2353937D01*
X1590000Y-2285118D02*
Y-2233937D01*
X1580000Y-2475118D02*
Y-2423937D01*
X2365000Y-2615118D02*
Y-2563937D01*
X2350992Y-2521086D02*
Y-1191086D01*
X1524220Y-2521086D02*
Y-1191086D01*
X1775992D01*
X1885992D02*
X2350992D01*
X1884143Y-2521086D02*
X2350992D01*
X1524220D02*
X1777841D01*
X1064945Y-2393472D02*
X1183055D01*
X1064945Y-2261583D02*
X1183055D01*
X1095000Y-2088472D02*
Y-1993000D01*
Y-1416228D02*
Y-1320756D01*
X1055630Y-1993000D02*
X1095000D01*
X1055630D02*
Y-1416228D01*
X1134370D01*
Y-1993000D02*
Y-1416228D01*
X1095000Y-1993000D02*
X1134370D01*
X3011693Y-2604488D02*
Y-2474567D01*
X2848307Y-2604488D02*
Y-2474567D01*
X3743000Y-153118D02*
Y-101937D01*
Y-330118D02*
Y-278937D01*
X3295000Y-970118D02*
Y-918937D01*
X3215000Y-1075118D02*
Y-1023937D01*
X3290000Y-1150118D02*
Y-1098937D01*
X3505000Y-2014527D02*
X3805000D01*
Y-2114528D02*
Y-2014527D01*
X3505000Y-2114528D02*
X3805000D01*
X3505000D02*
Y-2014527D01*
X3504998Y-2469115D02*
X3804998D01*
X3504998D02*
Y-2369115D01*
X3804998D01*
Y-2469115D02*
Y-2369115D01*
X3504998Y-2824528D02*
X3804998D01*
X3504998D02*
Y-2724528D01*
X3804998D01*
Y-2824528D02*
Y-2724528D01*
X3075000Y-2824528D02*
X3375000D01*
X3075000D02*
Y-2724528D01*
X3375000D01*
Y-2824528D02*
Y-2724528D01*
X675000Y-2758528D02*
Y-2658528D01*
X375000D02*
X675000D01*
X375000Y-2758528D02*
Y-2658528D01*
Y-2758528D02*
X675000D01*
Y-1999027D02*
Y-1899027D01*
X375000D02*
X675000D01*
X375000Y-1999027D02*
Y-1899027D01*
Y-1999027D02*
X675000D01*
Y-1239527D02*
Y-1139527D01*
X375000D02*
X675000D01*
X375000Y-1239527D02*
Y-1139527D01*
Y-1239527D02*
X675000D01*
D52*
X1775992Y-1191086D02*
G03*
X1885992Y-1191086I55000J0D01*
G01*
X1884143Y-2521086D02*
G03*
X1777841Y-2521086I-53151J0D01*
G01*
X2310992Y-1261086D02*
G03*
X2310992Y-1261086I-25000J0D01*
G01*
X3510000Y-3709547D02*
Y-3769528D01*
X3480010D01*
X3470013Y-3759531D01*
Y-3749534D01*
X3480010Y-3739537D01*
X3510000D01*
X3480010D01*
X3470013Y-3729540D01*
Y-3719544D01*
X3480010Y-3709547D01*
X3510000D01*
X3420029D02*
X3440023D01*
X3450019Y-3719544D01*
Y-3759531D01*
X3440023Y-3769528D01*
X3420029D01*
X3410032Y-3759531D01*
Y-3719544D01*
X3420029Y-3709547D01*
X3390039D02*
X3350052D01*
X3370045D01*
Y-3769528D01*
D53*
X3065950Y-2350028D02*
Y-2269028D01*
X2914050Y-2350028D02*
X3065950D01*
X2914050Y-2269028D02*
X3065950D01*
X2914050Y-2350028D02*
Y-2269028D01*
X3065950Y-2110028D02*
Y-2029027D01*
X2914050Y-2110028D02*
X3065950D01*
X2914050Y-2029027D02*
X3065950D01*
X2914050Y-2110028D02*
Y-2029027D01*
X3065950Y-2270028D02*
Y-2189028D01*
X2914050Y-2270028D02*
X3065950D01*
X2914050Y-2189028D02*
X3065950D01*
X2914050Y-2270028D02*
Y-2189028D01*
X3065950Y-2030027D02*
Y-1949027D01*
X2914050Y-2030027D02*
X3065950D01*
X2914050Y-1949027D02*
X3065950D01*
X2914050Y-2030027D02*
Y-1949027D01*
X3065950Y-2190028D02*
Y-2109028D01*
X2914050Y-2190028D02*
X3065950D01*
X2914050Y-2109028D02*
X3065950D01*
X2914050Y-2190028D02*
Y-2109028D01*
X3065950Y-1950027D02*
Y-1869027D01*
X2914050Y-1950027D02*
X3065950D01*
X2914050Y-1869027D02*
X3065950D01*
X2914050Y-1950027D02*
Y-1869027D01*
X2594500Y-2505477D02*
X2675500D01*
X2594500D02*
Y-2353577D01*
X2675500Y-2505477D02*
Y-2353577D01*
X2594500D02*
X2675500D01*
X1705950Y-2600028D02*
Y-2519028D01*
X1554050Y-2600028D02*
X1705950D01*
X1554050Y-2519028D02*
X1705950D01*
X1554050Y-2600028D02*
Y-2519028D01*
X1705950Y-2410028D02*
Y-2329028D01*
X1554050Y-2410028D02*
X1705950D01*
X1554050Y-2329028D02*
X1705950D01*
X1554050Y-2410028D02*
Y-2329028D01*
X1705950Y-2220028D02*
Y-2139028D01*
X1554050Y-2220028D02*
X1705950D01*
X1554050Y-2139028D02*
X1705950D01*
X1554050Y-2220028D02*
Y-2139028D01*
X1512638Y-2109488D02*
Y-2029567D01*
X1667362D01*
Y-2109488D02*
Y-2029567D01*
X1512638Y-2109488D02*
X1667362D01*
X2287638Y-2419488D02*
Y-2339567D01*
X2442362D01*
Y-2419488D02*
Y-2339567D01*
X2287638Y-2419488D02*
X2442362D01*
X1512638Y-2299488D02*
Y-2219567D01*
X1667362D01*
Y-2299488D02*
Y-2219567D01*
X1512638Y-2299488D02*
X1667362D01*
X1502638Y-2489488D02*
Y-2409567D01*
X1657362D01*
Y-2489488D02*
Y-2409567D01*
X1502638Y-2489488D02*
X1657362D01*
X2442362Y-2629488D02*
Y-2549567D01*
X2287638Y-2629488D02*
X2442362D01*
X2287638D02*
Y-2549567D01*
X2442362D01*
X3665638Y-167488D02*
X3820362D01*
Y-87567D01*
X3665638D02*
X3820362D01*
X3665638Y-167488D02*
Y-87567D01*
Y-344488D02*
X3820362D01*
Y-264567D01*
X3665638D02*
X3820362D01*
X3665638Y-344488D02*
Y-264567D01*
X3217638Y-904567D02*
X3372362D01*
X3217638Y-984488D02*
Y-904567D01*
Y-984488D02*
X3372362D01*
Y-904567D01*
X3137638Y-1089488D02*
X3292362D01*
Y-1009567D01*
X3137638D02*
X3292362D01*
X3137638Y-1089488D02*
Y-1009567D01*
X3212638Y-1084567D02*
X3367362D01*
X3212638Y-1164488D02*
Y-1084567D01*
Y-1164488D02*
X3367362D01*
Y-1084567D01*
D54*
X3390000Y-2604528D02*
Y-2574537D01*
X3375005D01*
X3370006Y-2579536D01*
Y-2589532D01*
X3375005Y-2594531D01*
X3390000D01*
X3360010Y-2604528D02*
X3350013D01*
X3355011D01*
Y-2574537D01*
X3360010Y-2579536D01*
X3825000Y-2244528D02*
Y-2214537D01*
X3810005D01*
X3805006Y-2219536D01*
Y-2229532D01*
X3810005Y-2234531D01*
X3825000D01*
X3795010Y-2219536D02*
X3790011Y-2214537D01*
X3780015D01*
X3775016Y-2219536D01*
Y-2224534D01*
X3780015Y-2229532D01*
X3785013D01*
X3780015D01*
X3775016Y-2234531D01*
Y-2239529D01*
X3780015Y-2244528D01*
X3790011D01*
X3795010Y-2239529D01*
X3825000Y-2604528D02*
Y-2574537D01*
X3810005D01*
X3805006Y-2579536D01*
Y-2589532D01*
X3810005Y-2594531D01*
X3825000D01*
X3775016Y-2604528D02*
X3795010D01*
X3775016Y-2584534D01*
Y-2579536D01*
X3780015Y-2574537D01*
X3790011D01*
X3795010Y-2579536D01*
X3330000Y-1204527D02*
Y-1174537D01*
X3315005D01*
X3310006Y-1179536D01*
Y-1189532D01*
X3315005Y-1194531D01*
X3330000D01*
X3320003D02*
X3310006Y-1204527D01*
X3300010D02*
X3290013D01*
X3295011D01*
Y-1174537D01*
X3300010Y-1179536D01*
X3275018D02*
X3270019Y-1174537D01*
X3260023D01*
X3255024Y-1179536D01*
Y-1184534D01*
X3260023Y-1189532D01*
X3255024Y-1194531D01*
Y-1199529D01*
X3260023Y-1204527D01*
X3270019D01*
X3275018Y-1199529D01*
Y-1194531D01*
X3270019Y-1189532D01*
X3275018Y-1184534D01*
Y-1179536D01*
X3270019Y-1189532D02*
X3260023D01*
X3200000Y-999528D02*
Y-969537D01*
X3185005D01*
X3180006Y-974536D01*
Y-984532D01*
X3185005Y-989531D01*
X3200000D01*
X3190003D02*
X3180006Y-999528D01*
X3170010D02*
X3160013D01*
X3165011D01*
Y-969537D01*
X3170010Y-974536D01*
X3145018Y-969537D02*
X3125024D01*
Y-974536D01*
X3145018Y-994529D01*
Y-999528D01*
X3330000Y-889528D02*
Y-859537D01*
X3315005D01*
X3310006Y-864536D01*
Y-874532D01*
X3315005Y-879531D01*
X3330000D01*
X3320003D02*
X3310006Y-889528D01*
X3300010D02*
X3290013D01*
X3295011D01*
Y-859537D01*
X3300010Y-864536D01*
X3255024Y-859537D02*
X3265021Y-864536D01*
X3275018Y-874532D01*
Y-884529D01*
X3270019Y-889528D01*
X3260023D01*
X3255024Y-884529D01*
Y-879531D01*
X3260023Y-874532D01*
X3275018D01*
X3825000Y-1884527D02*
Y-1854537D01*
X3810005D01*
X3805006Y-1859536D01*
Y-1869532D01*
X3810005Y-1874531D01*
X3825000D01*
X3795010Y-1859536D02*
X3790011Y-1854537D01*
X3780015D01*
X3775016Y-1859536D01*
Y-1864534D01*
X3780015Y-1869532D01*
X3775016Y-1874531D01*
Y-1879529D01*
X3780015Y-1884527D01*
X3790011D01*
X3795010Y-1879529D01*
Y-1874531D01*
X3790011Y-1869532D01*
X3795010Y-1864534D01*
Y-1859536D01*
X3790011Y-1869532D02*
X3780015D01*
X3775000Y-204528D02*
Y-174537D01*
X3760005D01*
X3755006Y-179536D01*
Y-189532D01*
X3760005Y-194531D01*
X3775000D01*
X3765003D02*
X3755006Y-204528D01*
X3725016D02*
X3745010D01*
X3725016Y-184534D01*
Y-179536D01*
X3730015Y-174537D01*
X3740011D01*
X3745010Y-179536D01*
X3695026Y-174537D02*
X3705023Y-179536D01*
X3715019Y-189532D01*
Y-199529D01*
X3710021Y-204528D01*
X3700024D01*
X3695026Y-199529D01*
Y-194531D01*
X3700024Y-189532D01*
X3715019D01*
X3780000Y-384527D02*
Y-354537D01*
X3765005D01*
X3760006Y-359536D01*
Y-369532D01*
X3765005Y-374531D01*
X3780000D01*
X3770003D02*
X3760006Y-384527D01*
X3730016D02*
X3750010D01*
X3730016Y-364534D01*
Y-359536D01*
X3735015Y-354537D01*
X3745011D01*
X3750010Y-359536D01*
X3720019D02*
X3715021Y-354537D01*
X3705024D01*
X3700026Y-359536D01*
Y-379529D01*
X3705024Y-384527D01*
X3715021D01*
X3720019Y-379529D01*
Y-359536D01*
X2565006Y-2419536D02*
X2570005Y-2414537D01*
X2580002D01*
X2585000Y-2419536D01*
Y-2439529D01*
X2580002Y-2444528D01*
X2570005D01*
X2565006Y-2439529D01*
X2535016Y-2444528D02*
X2555010D01*
X2535016Y-2424534D01*
Y-2419536D01*
X2540015Y-2414537D01*
X2550011D01*
X2555010Y-2419536D01*
X2525019Y-2439529D02*
X2520021Y-2444528D01*
X2510024D01*
X2505026Y-2439529D01*
Y-2419536D01*
X2510024Y-2414537D01*
X2520021D01*
X2525019Y-2419536D01*
Y-2424534D01*
X2520021Y-2429532D01*
X2505026D01*
X2400000Y-2674528D02*
Y-2644537D01*
X2385005D01*
X2380006Y-2649536D01*
Y-2659532D01*
X2385005Y-2664531D01*
X2400000D01*
X2390003D02*
X2380006Y-2674528D01*
X2370010D02*
X2360013D01*
X2365011D01*
Y-2644537D01*
X2370010Y-2649536D01*
X2330023Y-2674528D02*
Y-2644537D01*
X2345018Y-2659532D01*
X2325024D01*
X3325990Y-1504527D02*
X3300998D01*
X3296000Y-1499529D01*
Y-1489532D01*
X3300998Y-1484534D01*
X3325990D01*
X3320992Y-1474537D02*
X3325990Y-1469539D01*
Y-1459542D01*
X3320992Y-1454544D01*
X3315994D01*
X3310995Y-1459542D01*
Y-1464540D01*
Y-1459542D01*
X3305997Y-1454544D01*
X3300998D01*
X3296000Y-1459542D01*
Y-1469539D01*
X3300998Y-1474537D01*
X1145000Y-2429528D02*
Y-2399537D01*
X1130005D01*
X1125006Y-2404536D01*
Y-2414532D01*
X1130005Y-2419531D01*
X1145000D01*
X1135003D02*
X1125006Y-2429528D01*
X1115010Y-2404536D02*
X1110011Y-2399537D01*
X1100014D01*
X1095016Y-2404536D01*
Y-2409534D01*
X1100014Y-2414532D01*
X1095016Y-2419531D01*
Y-2424529D01*
X1100014Y-2429528D01*
X1110011D01*
X1115010Y-2424529D01*
Y-2419531D01*
X1110011Y-2414532D01*
X1115010Y-2409534D01*
Y-2404536D01*
X1110011Y-2414532D02*
X1100014D01*
X2746747Y-3492795D02*
X2751745Y-3487797D01*
X2761742D01*
X2766740Y-3492795D01*
Y-3512789D01*
X2761742Y-3517787D01*
X2751745D01*
X2746747Y-3512789D01*
X2736750Y-3522786D02*
X2716756D01*
X2706760Y-3487797D02*
Y-3517787D01*
X2691764D01*
X2686766Y-3512789D01*
Y-3507791D01*
Y-3502792D01*
X2691764Y-3497794D01*
X2706760D01*
X2676769D02*
Y-3512789D01*
X2671771Y-3517787D01*
X2656776D01*
Y-3497794D01*
X2646779Y-3517787D02*
X2631784D01*
X2626785Y-3512789D01*
X2631784Y-3507791D01*
X2641781D01*
X2646779Y-3502792D01*
X2641781Y-3497794D01*
X2626785D01*
X2616789Y-3492795D02*
X2611790Y-3487797D01*
X2601794D01*
X2596795Y-3492795D01*
Y-3497794D01*
X2601794Y-3502792D01*
X2606792D01*
X2601794D01*
X2596795Y-3507791D01*
Y-3512789D01*
X2601794Y-3517787D01*
X2611790D01*
X2616789Y-3512789D01*
X1309994Y-3499519D02*
X1304995Y-3504518D01*
X1294998D01*
X1290000Y-3499519D01*
Y-3479526D01*
X1294998Y-3474528D01*
X1304995D01*
X1309994Y-3479526D01*
X1319990Y-3469529D02*
X1339984D01*
X1349981Y-3504518D02*
Y-3474528D01*
X1364976D01*
X1369974Y-3479526D01*
Y-3484524D01*
Y-3489523D01*
X1364976Y-3494521D01*
X1349981D01*
X1379971D02*
Y-3479526D01*
X1384969Y-3474528D01*
X1399964D01*
Y-3494521D01*
X1409961Y-3474528D02*
X1424956D01*
X1429955Y-3479526D01*
X1424956Y-3484524D01*
X1414960D01*
X1409961Y-3489523D01*
X1414960Y-3494521D01*
X1429955D01*
X1454947Y-3474528D02*
Y-3504518D01*
X1439951Y-3489523D01*
X1459945D01*
X1390006Y-264536D02*
X1395005Y-259537D01*
X1405002D01*
X1410000Y-264536D01*
Y-284529D01*
X1405002Y-289527D01*
X1395005D01*
X1390006Y-284529D01*
X1380010Y-294526D02*
X1360016D01*
X1350019Y-259537D02*
Y-289527D01*
X1335024D01*
X1330026Y-284529D01*
Y-279531D01*
Y-274532D01*
X1335024Y-269534D01*
X1350019D01*
X1320029D02*
Y-284529D01*
X1315031Y-289527D01*
X1300036D01*
Y-269534D01*
X1290039Y-289527D02*
X1275044D01*
X1270045Y-284529D01*
X1275044Y-279531D01*
X1285040D01*
X1290039Y-274532D01*
X1285040Y-269534D01*
X1270045D01*
X1260049Y-289527D02*
X1250052D01*
X1255050D01*
Y-259537D01*
X1260049Y-264536D01*
X2690006Y-324536D02*
X2695005Y-319537D01*
X2705002D01*
X2710000Y-324536D01*
Y-344529D01*
X2705002Y-349527D01*
X2695005D01*
X2690006Y-344529D01*
X2680010Y-354526D02*
X2660016D01*
X2650019Y-319537D02*
Y-349527D01*
X2635024D01*
X2630026Y-344529D01*
Y-339531D01*
Y-334532D01*
X2635024Y-329534D01*
X2650019D01*
X2620029D02*
Y-344529D01*
X2615031Y-349527D01*
X2600036D01*
Y-329534D01*
X2590039Y-349527D02*
X2575044D01*
X2570045Y-344529D01*
X2575044Y-339531D01*
X2585040D01*
X2590039Y-334532D01*
X2585040Y-329534D01*
X2570045D01*
X2540055Y-349527D02*
X2560048D01*
X2540055Y-329534D01*
Y-324536D01*
X2545053Y-319537D01*
X2555050D01*
X2560048Y-324536D01*
X2945006Y-1719536D02*
X2950005Y-1714537D01*
X2960002D01*
X2965000Y-1719536D01*
Y-1739529D01*
X2960002Y-1744527D01*
X2950005D01*
X2945006Y-1739529D01*
X2935010D02*
X2930011Y-1744527D01*
X2920015D01*
X2915016Y-1739529D01*
Y-1719536D01*
X2920015Y-1714537D01*
X2930011D01*
X2935010Y-1719536D01*
Y-1724534D01*
X2930011Y-1729532D01*
X2915016D01*
X2840006Y-1179536D02*
X2845005Y-1174537D01*
X2855002D01*
X2860000Y-1179536D01*
Y-1199529D01*
X2855002Y-1204527D01*
X2845005D01*
X2840006Y-1199529D01*
X2810016Y-1174537D02*
X2830010D01*
Y-1189532D01*
X2820013Y-1184534D01*
X2815015D01*
X2810016Y-1189532D01*
Y-1199529D01*
X2815015Y-1204527D01*
X2825011D01*
X2830010Y-1199529D01*
X2840006Y-1454536D02*
X2845005Y-1449537D01*
X2855002D01*
X2860000Y-1454536D01*
Y-1474529D01*
X2855002Y-1479527D01*
X2845005D01*
X2840006Y-1474529D01*
X2830010Y-1449537D02*
X2810016D01*
Y-1454536D01*
X2830010Y-1474529D01*
Y-1479527D01*
X2171732Y-1567817D02*
Y-1542825D01*
X2176731Y-1537827D01*
X2186727D01*
X2191726Y-1542825D01*
Y-1567817D01*
X2221716Y-1537827D02*
X2201723D01*
X2221716Y-1557820D01*
Y-1562819D01*
X2216718Y-1567817D01*
X2206721D01*
X2201723Y-1562819D01*
X720000Y-1014528D02*
Y-984537D01*
X705005D01*
X700006Y-989536D01*
Y-999532D01*
X705005Y-1004531D01*
X720000D01*
X675014Y-1014528D02*
Y-984537D01*
X690010Y-999532D01*
X670016D01*
X720000Y-1774527D02*
Y-1744537D01*
X705005D01*
X700006Y-1749536D01*
Y-1759532D01*
X705005Y-1764531D01*
X720000D01*
X670016Y-1744537D02*
X690010D01*
Y-1759532D01*
X680013Y-1754534D01*
X675014D01*
X670016Y-1759532D01*
Y-1769529D01*
X675014Y-1774527D01*
X685011D01*
X690010Y-1769529D01*
X720000Y-2529528D02*
Y-2499537D01*
X705005D01*
X700006Y-2504536D01*
Y-2514532D01*
X705005Y-2519531D01*
X720000D01*
X670016Y-2499537D02*
X680013Y-2504536D01*
X690010Y-2514532D01*
Y-2524529D01*
X685011Y-2529528D01*
X675014D01*
X670016Y-2524529D01*
Y-2519531D01*
X675014Y-2514532D01*
X690010D01*
X3811000Y-1799527D02*
Y-1769537D01*
X3796005D01*
X3791006Y-1774536D01*
Y-1784532D01*
X3796005Y-1789531D01*
X3811000D01*
X3781010Y-1769537D02*
X3761016D01*
Y-1774536D01*
X3781010Y-1794529D01*
Y-1799527D01*
X3140006Y-2294536D02*
X3145005Y-2289537D01*
X3155002D01*
X3160000Y-2294536D01*
Y-2314529D01*
X3155002Y-2319528D01*
X3145005D01*
X3140006Y-2314529D01*
X3130010Y-2319528D02*
X3120013D01*
X3125011D01*
Y-2289537D01*
X3130010Y-2294536D01*
X3105018D02*
X3100019Y-2289537D01*
X3090023D01*
X3085024Y-2294536D01*
Y-2314529D01*
X3090023Y-2319528D01*
X3100019D01*
X3105018Y-2314529D01*
Y-2294536D01*
X3130006Y-2059536D02*
X3135005Y-2054537D01*
X3145002D01*
X3150000Y-2059536D01*
Y-2079529D01*
X3145002Y-2084528D01*
X3135005D01*
X3130006Y-2079529D01*
X3120010Y-2084528D02*
X3110013D01*
X3115011D01*
Y-2054537D01*
X3120010Y-2059536D01*
X3095018Y-2084528D02*
X3085021D01*
X3090019D01*
Y-2054537D01*
X3095018Y-2059536D01*
X3135006Y-2219536D02*
X3140005Y-2214537D01*
X3150002D01*
X3155000Y-2219536D01*
Y-2239529D01*
X3150002Y-2244528D01*
X3140005D01*
X3135006Y-2239529D01*
X3125010Y-2244528D02*
X3115013D01*
X3120011D01*
Y-2214537D01*
X3125010Y-2219536D01*
X3080024Y-2244528D02*
X3100018D01*
X3080024Y-2224534D01*
Y-2219536D01*
X3085023Y-2214537D01*
X3095019D01*
X3100018Y-2219536D01*
X3140006Y-1979536D02*
X3145005Y-1974537D01*
X3155002D01*
X3160000Y-1979536D01*
Y-1999529D01*
X3155002Y-2004527D01*
X3145005D01*
X3140006Y-1999529D01*
X3130010Y-2004527D02*
X3120013D01*
X3125011D01*
Y-1974537D01*
X3130010Y-1979536D01*
X3105018D02*
X3100019Y-1974537D01*
X3090023D01*
X3085024Y-1979536D01*
Y-1984534D01*
X3090023Y-1989532D01*
X3095021D01*
X3090023D01*
X3085024Y-1994531D01*
Y-1999529D01*
X3090023Y-2004527D01*
X3100019D01*
X3105018Y-1999529D01*
X3135006Y-2139536D02*
X3140005Y-2134537D01*
X3150002D01*
X3155000Y-2139536D01*
Y-2159529D01*
X3150002Y-2164528D01*
X3140005D01*
X3135006Y-2159529D01*
X3125010Y-2164528D02*
X3115013D01*
X3120011D01*
Y-2134537D01*
X3125010Y-2139536D01*
X3085023Y-2164528D02*
Y-2134537D01*
X3100018Y-2149532D01*
X3080024D01*
X3145006Y-1899536D02*
X3150005Y-1894537D01*
X3160002D01*
X3165000Y-1899536D01*
Y-1919529D01*
X3160002Y-1924527D01*
X3150005D01*
X3145006Y-1919529D01*
X3135010Y-1924527D02*
X3125013D01*
X3130011D01*
Y-1894537D01*
X3135010Y-1899536D01*
X3090024Y-1894537D02*
X3110018D01*
Y-1909532D01*
X3100021Y-1904534D01*
X3095023D01*
X3090024Y-1909532D01*
Y-1919529D01*
X3095023Y-1924527D01*
X3105019D01*
X3110018Y-1919529D01*
X1785006Y-2549536D02*
X1790005Y-2544537D01*
X1800002D01*
X1805000Y-2549536D01*
Y-2569529D01*
X1800002Y-2574528D01*
X1790005D01*
X1785006Y-2569529D01*
X1775010Y-2549536D02*
X1770011Y-2544537D01*
X1760014D01*
X1755016Y-2549536D01*
Y-2554534D01*
X1760014Y-2559532D01*
X1765013D01*
X1760014D01*
X1755016Y-2564531D01*
Y-2569529D01*
X1760014Y-2574528D01*
X1770011D01*
X1775010Y-2569529D01*
X1745019Y-2549536D02*
X1740021Y-2544537D01*
X1730024D01*
X1725026Y-2549536D01*
Y-2569529D01*
X1730024Y-2574528D01*
X1740021D01*
X1745019Y-2569529D01*
Y-2549536D01*
X1780006Y-2359536D02*
X1785005Y-2354537D01*
X1795002D01*
X1800000Y-2359536D01*
Y-2379529D01*
X1795002Y-2384528D01*
X1785005D01*
X1780006Y-2379529D01*
X1770010Y-2359536D02*
X1765011Y-2354537D01*
X1755014D01*
X1750016Y-2359536D01*
Y-2364534D01*
X1755014Y-2369532D01*
X1760013D01*
X1755014D01*
X1750016Y-2374531D01*
Y-2379529D01*
X1755014Y-2384528D01*
X1765011D01*
X1770010Y-2379529D01*
X1740019Y-2384528D02*
X1730023D01*
X1735021D01*
Y-2354537D01*
X1740019Y-2359536D01*
X1795006Y-2179536D02*
X1800005Y-2174537D01*
X1810002D01*
X1815000Y-2179536D01*
Y-2199529D01*
X1810002Y-2204528D01*
X1800005D01*
X1795006Y-2199529D01*
X1785010Y-2179536D02*
X1780011Y-2174537D01*
X1770014D01*
X1765016Y-2179536D01*
Y-2184534D01*
X1770014Y-2189532D01*
X1775013D01*
X1770014D01*
X1765016Y-2194531D01*
Y-2199529D01*
X1770014Y-2204528D01*
X1780011D01*
X1785010Y-2199529D01*
X1735026Y-2204528D02*
X1755019D01*
X1735026Y-2184534D01*
Y-2179536D01*
X1740024Y-2174537D01*
X1750021D01*
X1755019Y-2179536D01*
X1775000Y-2089528D02*
Y-2059537D01*
X1760005D01*
X1755006Y-2064536D01*
Y-2074532D01*
X1760005Y-2079531D01*
X1775000D01*
X1765003D02*
X1755006Y-2089528D01*
X1745010D02*
X1735013D01*
X1740011D01*
Y-2059537D01*
X1745010Y-2064536D01*
X1720018D02*
X1715019Y-2059537D01*
X1705023D01*
X1700024Y-2064536D01*
Y-2084529D01*
X1705023Y-2089528D01*
X1715019D01*
X1720018Y-2084529D01*
Y-2064536D01*
X1780000Y-2274528D02*
Y-2244537D01*
X1765005D01*
X1760006Y-2249536D01*
Y-2259532D01*
X1765005Y-2264531D01*
X1780000D01*
X1770003D02*
X1760006Y-2274528D01*
X1750010D02*
X1740013D01*
X1745011D01*
Y-2244537D01*
X1750010Y-2249536D01*
X1705024Y-2274528D02*
X1725018D01*
X1705024Y-2254534D01*
Y-2249536D01*
X1710023Y-2244537D01*
X1720019D01*
X1725018Y-2249536D01*
X1760000Y-2464528D02*
Y-2434537D01*
X1745005D01*
X1740006Y-2439536D01*
Y-2449532D01*
X1745005Y-2454531D01*
X1760000D01*
X1750003D02*
X1740006Y-2464528D01*
X1730010D02*
X1720013D01*
X1725011D01*
Y-2434537D01*
X1730010Y-2439536D01*
X1705018D02*
X1700019Y-2434537D01*
X1690023D01*
X1685024Y-2439536D01*
Y-2444534D01*
X1690023Y-2449532D01*
X1695021D01*
X1690023D01*
X1685024Y-2454531D01*
Y-2459529D01*
X1690023Y-2464528D01*
X1700019D01*
X1705018Y-2459529D01*
X2345000Y-2459528D02*
Y-2429537D01*
X2330005D01*
X2325006Y-2434536D01*
Y-2444532D01*
X2330005Y-2449531D01*
X2345000D01*
X2335003D02*
X2325006Y-2459528D01*
X2315010D02*
X2305013D01*
X2310011D01*
Y-2429537D01*
X2315010Y-2434536D01*
X2290018Y-2459528D02*
X2280021D01*
X2285019D01*
Y-2429537D01*
X2290018Y-2434536D01*
X1895000Y-2069518D02*
Y-2039527D01*
X1909995D01*
X1914994Y-2044526D01*
Y-2064519D01*
X1909995Y-2069518D01*
X1895000D01*
X1924990Y-2039527D02*
X1934987D01*
X1929989D01*
Y-2069518D01*
X1924990Y-2064519D01*
X1890000Y-2259518D02*
Y-2229528D01*
X1904995D01*
X1909994Y-2234526D01*
Y-2254519D01*
X1904995Y-2259518D01*
X1890000D01*
X1939984Y-2229528D02*
X1919990D01*
X1939984Y-2249521D01*
Y-2254519D01*
X1934986Y-2259518D01*
X1924989D01*
X1919990Y-2254519D01*
X1895000Y-2454518D02*
Y-2424528D01*
X1909995D01*
X1914994Y-2429526D01*
Y-2449519D01*
X1909995Y-2454518D01*
X1895000D01*
X1924990Y-2449519D02*
X1929989Y-2454518D01*
X1939986D01*
X1944984Y-2449519D01*
Y-2444521D01*
X1939986Y-2439523D01*
X1934987D01*
X1939986D01*
X1944984Y-2434524D01*
Y-2429526D01*
X1939986Y-2424528D01*
X1929989D01*
X1924990Y-2429526D01*
X2950006Y-2499536D02*
X2955005Y-2494537D01*
X2965002D01*
X2970000Y-2499536D01*
Y-2519529D01*
X2965002Y-2524528D01*
X2955005D01*
X2950006Y-2519529D01*
X2920016Y-2524528D02*
X2940010D01*
X2920016Y-2504534D01*
Y-2499536D01*
X2925015Y-2494537D01*
X2935011D01*
X2940010Y-2499536D01*
X2890026Y-2494537D02*
X2900023Y-2499536D01*
X2910019Y-2509532D01*
Y-2519529D01*
X2905021Y-2524528D01*
X2895024D01*
X2890026Y-2519529D01*
Y-2514531D01*
X2895024Y-2509532D01*
X2910019D01*
%TF.MD5,eb1dc36d8bec76bec991d02f861a82e4*%
M02*
