 PTC IGES file: do35_d1-5_l3.igs                                        S      1
1H,,1H;,12HDO35_D1-5_L3,16Hdo35_d1-5_l3.igs,                            G      1
49HPro/ENGINEER by Parametric Technology Corporation,7H2004440,32,38,7, G      2
38,15,12HDO35_D1-5_L3,1.,2,2HMM,32768,0.5,13H190211.200216,0.00201146,  G      3
20.1154,6HDragos,7HUnknown,10,0,13H190211.200216;                       G      4
     314       1       1       1       0       0       0       001000200D      1
     314       0       4       1       0                   COLOR       1D      2
     314       2       1       1       0       0       0       001000200D      3
     314       0       1       1       0                   COLOR       2D      4
     314       3       1       1       0       0       0       001000200D      5
     314       0       1       1       0                   COLOR       3D      6
     314       4       1       1       0       0       0       001000200D      7
     314       0       4       1       0                   COLOR       4D      8
     314       5       1       1       0       0       0       001000200D      9
     314       0       1       1       0                   COLOR       5D     10
     314       6       1       1       0       0       0       001000200D     11
     314       0       4       1       0                   COLOR       6D     12
     314       7       1       1       0       0       0       001000200D     13
     314       0       4       1       0                   COLOR       7D     14
     314       8       1       1       0       0       0       001000200D     15
     314       0       3       1       0                   COLOR       8D     16
     314       9       1       1       0       0       0       001000200D     17
     314       0       1       1       0                   COLOR       9D     18
     314      10       1       1       0       0       0       001000200D     19
     314       0       1       1       0                   COLOR      10D     20
     314      11       1       1       0       0       0       001000200D     21
     314       0       7       1       0                   COLOR      11D     22
     314      12       1       1       0       0       0       001000200D     23
     314       0       1       1       0                   COLOR      12D     24
     314      13       1       1       0       0       0       001000200D     25
     314       0       1       1       0                   COLOR      13D     26
     314      14       1       1       0       0       0       001000200D     27
     314       0       7       1       0                   COLOR      14D     28
     314      15       1       1       0       0       0       001000200D     29
     314       0       1       1       0                   COLOR      15D     30
     314      16       1       1       0       0       0       001000200D     31
     314       0       4       1       0                   COLOR      16D     32
     314      17       1       1       0       0       0       001000200D     33
     314       0       1       1       0                   COLOR      17D     34
     314      18       1       1       0       0       0       001000200D     35
     314       0       1       1       0                   COLOR      18D     36
     314      19       1       1       0       0       0       001000200D     37
     314       0       1       1       0                   COLOR      19D     38
     314      20       1       1       0       0       0       001000200D     39
     314       0       7       1       0                   COLOR      20D     40
     314      21       1       1       0       0       0       001000200D     41
     314       0       1       1       0                   COLOR      21D     42
     314      22       1       1       0       0       0       001000200D     43
     314       0       4       1       0                   COLOR      22D     44
     314      23       1       1       0       0       0       001000200D     45
     314       0       2       1       0                   COLOR      23D     46
     314      24       1       1       0       0       0       001000200D     47
     314       0       2       1       0                   COLOR      24D     48
     314      25       1       1       0       0       0       001000200D     49
     314       0       2       1       0                   COLOR      25D     50
     314      26       1       1       0       0       0       001000200D     51
     314       0       2       1       0                   COLOR      26D     52
     314      27       1       1       0       0       0       001000200D     53
     314       0       8       1       0                   COLOR      27D     54
     314      28       1       1       0       0       0       001000200D     55
     314       0       5       1       0                   COLOR      28D     56
     314      29       1       1       0       0       0       001000200D     57
     314       0       8       1       0                   COLOR      29D     58
     314      30       1       1       0       0       0       001000200D     59
     314       0       5       1       0                   COLOR      30D     60
     314      31       1       1       0       0       0       001000200D     61
     314       0       5       1       0                   COLOR      31D     62
     314      32       1       1       0       0       0       001000200D     63
     314       0       8       1       0                   COLOR      32D     64
     314      33       1       1       0       0       0       001000200D     65
     314       0       8       1       0                   COLOR      33D     66
     314      34       1       1       0       0       0       001000200D     67
     314       0       5       1       0                   COLOR      34D     68
     314      35       1       1       0       0       0       001000200D     69
     314       0       8       1       0                   COLOR      35D     70
     314      36       1       1       0       0       0       001000200D     71
     314       0       5       1       0                   COLOR      36D     72
     314      37       1       1       0       0       0       001000200D     73
     314       0       2       1       0                   COLOR      37D     74
     314      38       1       1       0       0       0       001000200D     75
     314       0       2       1       0                   COLOR      38D     76
     314      39       1       1       0       0       0       001000200D     77
     314       0       5       1       0                   COLOR      39D     78
     314      40       1       1       0       0       0       001000200D     79
     314       0       5       1       0                   COLOR      40D     80
     314      41       1       1       0       0       0       001000200D     81
     314       0       8       1       0                   COLOR      41D     82
     314      42       1       1       0       0       0       001000200D     83
     314       0       8       1       0                   COLOR      42D     84
     314      43       1       1       0       0       0       001000200D     85
     314       0       5       1       0                   COLOR      43D     86
     314      44       1       1       0       0       0       001000200D     87
     314       0       8       1       0                   COLOR      44D     88
     124      45       1       1       0       0       0       001000000D     89
     124       0       0       1       0                   XFORM       1D     90
     100      46       1       1       0       0      89       001010000D     91
     100       0     -75       1       0                     ARC       1D     92
     124      47       1       1       0       0       0       001000000D     93
     124       0       0       1       0                   XFORM       2D     94
     100      48       1       1       0       0      93       001010000D     95
     100       0     -75       1       0                     ARC       2D     96
     124      49       1       1       0       0       0       001000000D     97
     124       0       0       1       0                   XFORM       3D     98
     100      50       1       1       0       0      97       001010000D     99
     100       0     -75       1       0                     ARC       3D    100
     124      51       1       1       0       0       0       001000000D    101
     124       0       0       1       0                   XFORM       4D    102
     100      52       1       1       0       0     101       001010000D    103
     100       0     -75       1       0                     ARC       4D    104
     124      53       1       1       0       0       0       001000000D    105
     124       0       0       1       0                   XFORM       5D    106
     100      54       1       1       0       0     105       001010000D    107
     100       0     -75       1       0                     ARC       5D    108
     124      55       1       1       0       0       0       001000000D    109
     124       0       0       1       0                   XFORM       6D    110
     100      56       1       1       0       0     109       001010000D    111
     100       0     -75       1       0                     ARC       6D    112
     124      57       1       1       0       0       0       001000000D    113
     124       0       0       1       0                   XFORM       7D    114
     100      58       1       1       0       0     113       001010000D    115
     100       0     -75       1       0                     ARC       7D    116
     110      59       1       1       0       0       0       001010000D    117
     110       0     -75       1       0                    LINE       1D    118
     124      60       1       1       0       0       0       001000000D    119
     124       0       0       1       0                   XFORM       8D    120
     100      61       1       1       0       0     119       001010000D    121
     100       0     -75       1       0                     ARC       8D    122
     110      62       1       1       0       0       0       001010000D    123
     110       0     -75       1       0                    LINE       2D    124
     124      63       1       1       0       0       0       001000000D    125
     124       0       0       1       0                   XFORM       9D    126
     100      64       1       1       0       0     125       001010000D    127
     100       0     -75       1       0                     ARC       9D    128
     124      65       1       1       0       0       0       001000000D    129
     124       0       0       1       0                   XFORM      10D    130
     100      66       1       1       0       0     129       001010000D    131
     100       0     -75       1       0                     ARC      10D    132
     124      67       1       1       0       0       0       001000000D    133
     124       0       0       1       0                   XFORM      11D    134
     100      68       1       1       0       0     133       001010000D    135
     100       0     -75       1       0                     ARC      11D    136
     110      69       1       1       0       0       0       001010000D    137
     110       0     -75       1       0                    LINE       3D    138
     110      70       1       1       0       0       0       001010000D    139
     110       0     -75       1       0                    LINE       4D    140
     124      71       1       1       0       0       0       001000000D    141
     124       0       0       1       0                   XFORM      12D    142
     100      72       1       1       0       0     141       001010000D    143
     100       0     -75       1       0                     ARC      12D    144
     124      73       1       1       0       0       0       001000000D    145
     124       0       0       1       0                   XFORM      13D    146
     100      74       1       1       0       0     145       001010000D    147
     100       0     -75       1       0                     ARC      13D    148
     124      75       1       1       0       0       0       001000000D    149
     124       0       0       1       0                   XFORM      14D    150
     100      76       1       1       0       0     149       001010000D    151
     100       0     -75       1       0                     ARC      14D    152
     124      77       1       1       0       0       0       001000000D    153
     124       0       0       1       0                   XFORM      15D    154
     100      78       1       1       0       0     153       001010000D    155
     100       0     -75       1       0                     ARC      15D    156
     110      79       1       1       0       0       0       001010000D    157
     110       0     -75       1       0                    LINE       5D    158
     124      80       1       1       0       0       0       001000000D    159
     124       0       0       1       0                   XFORM      16D    160
     100      81       1       1       0       0     159       001010000D    161
     100       0     -75       1       0                     ARC      16D    162
     110      82       1       1       0       0       0       001010000D    163
     110       0     -75       1       0                    LINE       6D    164
     124      83       1       1       0       0       0       001000000D    165
     124       0       0       1       0                   XFORM      17D    166
     100      84       1       1       0       0     165       001010000D    167
     100       0     -75       1       0                     ARC      17D    168
     124      85       1       1       0       0       0       001000000D    169
     124       0       0       1       0                   XFORM      18D    170
     100      86       1       1       0       0     169       001010000D    171
     100       0     -75       1       0                     ARC      18D    172
     124      87       1       1       0       0       0       001000000D    173
     124       0       0       1       0                   XFORM      19D    174
     100      88       1       1       0       0     173       001010000D    175
     100       0     -75       1       0                     ARC      19D    176
     124      89       1       1       0       0       0       001000000D    177
     124       0       0       1       0                   XFORM      20D    178
     100      90       1       1       0       0     177       001010000D    179
     100       0     -75       1       0                     ARC      20D    180
     124      91       1       1       0       0       0       001000000D    181
     124       0       0       1       0                   XFORM      21D    182
     100      92       1       1       0       0     181       001010000D    183
     100       0     -75       1       0                     ARC      21D    184
     124      93       1       1       0       0       0       001000000D    185
     124       0       0       1       0                   XFORM      22D    186
     100      94       1       1       0       0     185       001010000D    187
     100       0     -75       1       0                     ARC      22D    188
     110      95       1       1       0       0       0       001010000D    189
     110       0     -75       1       0                    LINE       7D    190
     124      96       1       1       0       0       0       001000000D    191
     124       0       0       1       0                   XFORM      23D    192
     100      97       1       1       0       0     191       001010000D    193
     100       0     -75       1       0                     ARC      23D    194
     110      98       1       1       0       0       0       001010000D    195
     110       0     -75       1       0                    LINE       8D    196
     124      99       1       1       0       0       0       001000000D    197
     124       0       0       1       0                   XFORM      24D    198
     100     100       1       1       0       0     197       001010000D    199
     100       0     -75       1       0                     ARC      24D    200
     124     101       1       1       0       0       0       001000000D    201
     124       0       0       1       0                   XFORM      25D    202
     100     102       1       1       0       0     201       001010000D    203
     100       0     -75       1       0                     ARC      25D    204
     110     103       1       1       0       0       0       001010000D    205
     110       0     -75       1       0                    LINE       9D    206
     110     104       1       1       0       0       0       001010000D    207
     110       0     -75       1       0                    LINE      10D    208
     124     105       1       1       0       0       0       001000000D    209
     124       0       0       1       0                   XFORM      26D    210
     100     106       1       1       0       0     209       001010000D    211
     100       0     -75       1       0                     ARC      26D    212
     124     107       1       1       0       0       0       001000000D    213
     124       0       0       1       0                   XFORM      27D    214
     100     108       1       1       0       0     213       001010000D    215
     100       0     -75       1       0                     ARC      27D    216
     124     109       1       1       0       0       0       001000000D    217
     124       0       0       1       0                   XFORM      28D    218
     100     110       1       1       0       0     217       001010000D    219
     100       0     -75       1       0                     ARC      28D    220
     502     111       1       1       0       0       0       001010000D    221
     502       0     -75       8       1                  VERTEX       1D    222
     504     119       1       1       0       0       0       000010001D    223
     504       0     -75      11       1                    EDGE       1D    224
     128     130       1       1       0       0       0       001010000D    225
     128       0     -75       8       0                  SPLSRF       1D    226
     508     138       1       1       0       0       0       001010000D    227
     508       0       0       1       1                EDGELOOP       1D    228
     508     139       1       1       0       0       0       001010000D    229
     508       0       0       1       1                EDGELOOP       2D    230
     510     140       1       1       0       0       0       000010000D    231
     510       0     -75       1       1                    FACE       1D    232
     110     141       1       1       0       0       0       001010000D    233
     110       0     -75       1       0                    LINE      11D    234
     124     142       1       1       0       0       0       001000000D    235
     124       0       0       4       0                   XFORM      29D    236
     100     146       1       1       0       0     235       001010000D    237
     100       0     -75       1       0                     ARC      29D    238
     120     147       1       1       0       0       0       001010000D    239
     120       0     -75       1       0                    SREV       1D    240
     508     148       1       1       0       0       0       001010000D    241
     508       0       0       1       1                EDGELOOP       3D    242
     510     149       1       1       0       0       0       000010000D    243
     510       0     -75       1       1                    FACE       2D    244
     110     150       1       1       0       0       0       001010000D    245
     110       0     -75       1       0                    LINE      12D    246
     124     151       1       1       0       0       0       001000000D    247
     124       0       0       4       0                   XFORM      30D    248
     100     155       1       1       0       0     247       001010000D    249
     100       0     -75       1       0                     ARC      30D    250
     120     156       1       1       0       0       0       001010000D    251
     120       0     -75       1       0                    SREV       2D    252
     508     157       1       1       0       0       0       001010000D    253
     508       0       0       1       1                EDGELOOP       4D    254
     510     158       1       1       0       0       0       000010000D    255
     510       0     -75       1       1                    FACE       3D    256
     110     159       1       1       0       0       0       001010000D    257
     110       0     -75       1       0                    LINE      13D    258
     110     160       1       1       0       0       0       001010000D    259
     110       0     -75       1       0                    LINE      14D    260
     120     161       1       1       0       0       0       001010000D    261
     120       0     -75       1       0                    SREV       3D    262
     508     162       1       1       0       0       0       001010000D    263
     508       0       0       1       1                EDGELOOP       5D    264
     510     163       1       1       0       0       0       000010000D    265
     510       0     -75       1       1                    FACE       4D    266
     110     164       1       1       0       0       0       001010000D    267
     110       0     -75       1       0                    LINE      15D    268
     110     165       1       1       0       0       0       001010000D    269
     110       0     -75       1       0                    LINE      16D    270
     120     166       1       1       0       0       0       001010000D    271
     120       0     -75       1       0                    SREV       4D    272
     508     167       1       1       0       0       0       001010000D    273
     508       0       0       1       1                EDGELOOP       6D    274
     510     168       1       1       0       0       0       000010000D    275
     510       0     -75       1       1                    FACE       5D    276
     128     169       1       1       0       0       0       001010000D    277
     128       0     -75       6       0                  SPLSRF       2D    278
     508     175       1       1       0       0       0       001010000D    279
     508       0       0       1       1                EDGELOOP       7D    280
     508     176       1       1       0       0       0       001010000D    281
     508       0       0       1       1                EDGELOOP       8D    282
     510     177       1       1       0       0       0       000010000D    283
     510       0     -75       1       1                    FACE       6D    284
     110     178       1       1       0       0       0       001010000D    285
     110       0     -25       1       0                    LINE      17D    286
     110     179       1       1       0       0       0       001010000D    287
     110       0     -25       1       0                    LINE      18D    288
     120     180       1       1       0       0       0       001010000D    289
     120       0     -25       1       0                    SREV       5D    290
     508     181       1       1       0       0       0       001010000D    291
     508       0       0       1       1                EDGELOOP       9D    292
     510     182       1       1       0       0       0       000010000D    293
     510       0     -25       1       1                    FACE       7D    294
     110     183       1       1       0       0       0       001010000D    295
     110       0     -25       1       0                    LINE      19D    296
     110     184       1       1       0       0       0       001010000D    297
     110       0     -25       1       0                    LINE      20D    298
     120     185       1       1       0       0       0       001010000D    299
     120       0     -25       1       0                    SREV       6D    300
     508     186       1       1       0       0       0       001010000D    301
     508       0       0       1       1                EDGELOOP      10D    302
     510     187       1       1       0       0       0       000010000D    303
     510       0     -25       1       1                    FACE       8D    304
     128     188       1       1       0       0       0       001010000D    305
     128       0     -75       6       0                  SPLSRF       3D    306
     508     194       1       1       0       0       0       001010000D    307
     508       0       0       1       1                EDGELOOP      11D    308
     508     195       1       1       0       0       0       001010000D    309
     508       0       0       1       1                EDGELOOP      12D    310
     510     196       1       1       0       0       0       000010000D    311
     510       0     -75       1       1                    FACE       9D    312
     110     197       1       1       0       0       0       001010000D    313
     110       0     -75       1       0                    LINE      21D    314
     110     198       1       1       0       0       0       001010000D    315
     110       0     -75       1       0                    LINE      22D    316
     120     199       1       1       0       0       0       001010000D    317
     120       0     -75       1       0                    SREV       7D    318
     508     200       1       1       0       0       0       001010000D    319
     508       0       0       1       1                EDGELOOP      13D    320
     510     201       1       1       0       0       0       000010000D    321
     510       0     -75       1       1                    FACE      10D    322
     110     202       1       1       0       0       0       001010000D    323
     110       0     -75       1       0                    LINE      23D    324
     110     203       1       1       0       0       0       001010000D    325
     110       0     -75       1       0                    LINE      24D    326
     120     204       1       1       0       0       0       001010000D    327
     120       0     -75       1       0                    SREV       8D    328
     508     205       1       1       0       0       0       001010000D    329
     508       0       0       1       1                EDGELOOP      14D    330
     510     206       1       1       0       0       0       000010000D    331
     510       0     -75       1       1                    FACE      11D    332
     110     207       1       1       0       0       0       001010000D    333
     110       0     -75       1       0                    LINE      25D    334
     124     208       1       1       0       0       0       001000000D    335
     124       0       0       4       0                   XFORM      31D    336
     100     212       1       1       0       0     335       001010000D    337
     100       0     -75       1       0                     ARC      31D    338
     120     213       1       1       0       0       0       001010000D    339
     120       0     -75       1       0                    SREV       9D    340
     508     214       1       1       0       0       0       001010000D    341
     508       0       0       1       1                EDGELOOP      15D    342
     510     215       1       1       0       0       0       000010000D    343
     510       0     -75       1       1                    FACE      12D    344
     128     216       1       1       0       0       0       001010000D    345
     128       0     -75       8       0                  SPLSRF       4D    346
     508     224       1       1       0       0       0       001010000D    347
     508       0       0       1       1                EDGELOOP      16D    348
     508     225       1       1       0       0       0       001010000D    349
     508       0       0       1       1                EDGELOOP      17D    350
     510     226       1       1       0       0       0       000010000D    351
     510       0     -75       1       1                    FACE      13D    352
     110     227       1       1       0       0       0       001010000D    353
     110       0     -75       1       0                    LINE      26D    354
     124     228       1       1       0       0       0       001000000D    355
     124       0       0       4       0                   XFORM      32D    356
     100     232       1       1       0       0     355       001010000D    357
     100       0     -75       1       0                     ARC      32D    358
     120     233       1       1       0       0       0       001010000D    359
     120       0     -75       1       0                    SREV      10D    360
     508     234       1       1       0       0       0       001010000D    361
     508       0       0       1       1                EDGELOOP      18D    362
     510     235       1       1       0       0       0       000010000D    363
     510       0     -75       1       1                    FACE      14D    364
     110     236       1       1       0       0       0       001010000D    365
     110       0       8       1       0                    LINE      27D    366
     110     237       1       1       0       0       0       001010000D    367
     110       0       8       1       0                    LINE      28D    368
     120     238       1       1       0       0       0       001010000D    369
     120       0       8       1       0                    SREV      11D    370
     508     239       1       1       0       0       0       001010000D    371
     508       0       0       1       1                EDGELOOP      19D    372
     510     240       1       1       0       0       0       000010000D    373
     510       0       8       1       1                    FACE      15D    374
     110     241       1       1       0       0       0       001010000D    375
     110       0       8       1       0                    LINE      29D    376
     110     242       1       1       0       0       0       001010000D    377
     110       0       8       1       0                    LINE      30D    378
     120     243       1       1       0       0       0       001010000D    379
     120       0       8       1       0                    SREV      12D    380
     508     244       1       1       0       0       0       001010000D    381
     508       0       0       1       1                EDGELOOP      20D    382
     510     245       1       1       0       0       0       000010000D    383
     510       0       8       1       1                    FACE      16D    384
     128     246       1       1       0       0       0       001010000D    385
     128       0     -53       8       0                  SPLSRF       5D    386
     508     254       1       1       0       0       0       001010000D    387
     508       0       0       1       1                EDGELOOP      21D    388
     510     255       1       1       0       0       0       000010000D    389
     510       0     -53       1       1                    FACE      17D    390
     110     256       1       1       0       0       0       001010000D    391
     110       0       8       1       0                    LINE      31D    392
     110     257       1       1       0       0       0       001010000D    393
     110       0       8       1       0                    LINE      32D    394
     120     258       1       1       0       0       0       001010000D    395
     120       0       8       1       0                    SREV      13D    396
     508     259       1       1       0       0       0       001010000D    397
     508       0       0       1       1                EDGELOOP      22D    398
     510     260       1       1       0       0       0       000010000D    399
     510       0       8       1       1                    FACE      18D    400
     110     261       1       1       0       0       0       001010000D    401
     110       0       8       1       0                    LINE      33D    402
     110     262       1       1       0       0       0       001010000D    403
     110       0       8       1       0                    LINE      34D    404
     120     263       1       1       0       0       0       001010000D    405
     120       0       8       1       0                    SREV      14D    406
     508     264       1       1       0       0       0       001010000D    407
     508       0       0       1       1                EDGELOOP      23D    408
     510     265       1       1       0       0       0       000010000D    409
     510       0       8       1       1                    FACE      19D    410
     128     266       1       1       0       0       0       001010000D    411
     128       0     -53       8       0                  SPLSRF       6D    412
     508     274       1       1       0       0       0       001010000D    413
     508       0       0       1       1                EDGELOOP      24D    414
     510     275       1       1       0       0       0       000010000D    415
     510       0     -53       1       1                    FACE      20D    416
     514     276       1       1       0       0       0       000000000D    417
     514       0     -75       3       1                   SHELL       1D    418
     186     279       1       1       0       0       0       000000000D    419
     186       0     -75       1       0                    MSBR       1D    420
     406     280       1       1       0       0       0       001000000D    421
     406       0       0       1      15                    PROP       1D    422
     110     281       1       4       0       0       0       000000000D    423
     110       0       5       1       0                    LINE      35D    424
     406     282       1       1       0       0       0       001000000D    425
     406       0       0       1      15                    PROP       2D    426
     110     283       1       4       0       0       0       000000000D    427
     110       0       5       1       0                    LINE      36D    428
     406     284       1       1       0       0       0       001000000D    429
     406       0       0       1      15                    PROP       3D    430
     402     285       1       1       0       0       0       000000300D    431
     402       0       0       1       7                   LAYER       1D    432
314,1.1D0,1.2D0,1D2;                                                   1P      1
314,1.1765D0,2.35294D1,5.8824D0;                                       3P      2
314,1.1765D0,3.92157D1,5.8824D0;                                       5P      3
314,5.8824D0,2.7451D1,5.4902D1;                                        7P      4
314,7.8431D0,7.8431D0,7.8431D0;                                        9P      5
314,7.8431D0,3.13725D1,1D2;                                           11P      6
314,7.7302D0,3.38762D1,8.63636D1;                                     13P      7
314,9.4118D0,5.68627D1,4.31373D1;                                     15P      8
314,1.1D1,1.1D1,1.1D1;                                                17P      9
314,1.56863D1,1.56863D1,1.56863D1;                                    19P     10
314,1.60784D1,6.70588D1,5.29412D1;                                    21P     11
314,1.76471D1,0D0,3.92157D1;                                          23P     12
314,1.960784313725D1,1.960784313725D1,1.960784313725D1;               25P     13
314,1.96078D1,7.05882D1,1D2;                                          27P     14
314,2.35294D1,1.4902D1,4.3137D0;                                      29P     15
314,2.47059D1,0D0,1D2;                                                31P     16
314,2.7451D1,2.7451D1,2.7451D1;                                       33P     17
314,3.52941D1,2.27451D1,3.4902D1;                                     35P     18
314,3.92D1,1.2D0,1.2D0;                                               37P     19
314,3.92157D1,7.05882D1,1D2;                                          39P     20
314,4.1D1,0D0,2.2D1;                                                  41P     21
314,4.98039D1,0D0,1D2;                                                43P     22
314,5.4902D1,3.4898D1,0D0;                                            45P     23
314,5.88235D1,2.7451D1,0D0;                                           47P     24
314,6.43137D1,3.52941D1,3.21569D1;                                    49P     25
314,6.47059D1,1.64706D1,1.64706D1;                                    51P     26
314,7.52941D1,7.52941D1,7.52941D1;                                    53P     27
314,7.68627D1,6.47059D1,4.66667D1;                                    55P     28
314,7.84314D1,7.84314D1,7.84314D1;                                    57P     29
314,8.54902D1,5.41176D1,4.03922D1;                                    59P     30
314,8.62745D1,8.62745D1,0D0;                                          61P     31
314,8.784D1,9.49D1,1D2;                                               63P     32
314,8.82353D1,5.68627D1,8.47059D1;                                    65P     33
314,9.215686274510D1,6.431372549020D1,3.529411764706D1;               67P     34
314,9.6D1,9.6D1,9.6D1;                                                69P     35
314,9.8D1,6.27D1,0D0;                                                 71P     36
314,1D2,1.17647D1,1.17647D1;                                          73P     37
314,1D2,3.137254901961D1,3.137254901961D1;                            75P     38
314,1D2,5.09804D1,0D0;                                                77P     39
314,1D2,5.09804D1,1.17647D1;                                          79P     40
314,1D2,8.62745D1,1D2;                                                81P     41
314,1D2,9.09804D1,7.09804D1;                                          83P     42
314,1D2,1D2,1.17647D1;                                                85P     43
314,1D2,1D2,9.49D1;                                                   87P     44
124,0D0,0D0,-1D0,-1.5D0,1D0,0D0,0D0,7.5D-1,0D0,-1D0,0D0,0D0;          89P     45
100,0D0,0D0,0D0,3.999999982839D-1,0D0,-3.999999982839D-1,0D0;         91P     46
124,0D0,0D0,-1D0,-1.5D0,-1D0,0D0,0D0,7.5D-1,0D0,1D0,0D0,0D0;          93P     47
100,0D0,0D0,0D0,3.999999982839D-1,0D0,-3.999999982839D-1,0D0;         95P     48
124,0D0,0D0,-1D0,-1.5D0,0D0,1D0,0D0,7.5D-1,1D0,0D0,0D0,0D0;           97P     49
100,0D0,0D0,0D0,2.25D-1,0D0,0D0,-2.25D-1;                             99P     50
124,-1D0,0D0,0D0,-1.15D0,0D0,1D0,0D0,1.15D0,0D0,0D0,-1D0,0D0;        101P     51
100,0D0,0D0,0D0,3.5D-1,0D0,0D0,3.5D-1;                               103P     52
124,-1D0,0D0,0D0,-1.15D0,0D0,-1D0,0D0,3.5D-1,0D0,0D0,1D0,0D0;        105P     53
100,0D0,0D0,0D0,3.5D-1,0D0,0D0,3.5D-1;                               107P     54
124,0D0,0D0,1D0,5D-1,1D0,0D0,0D0,7.5D-1,0D0,1D0,0D0,0D0;             109P     55
100,0D0,0D0,0D0,7.5D-1,0D0,-7.5D-1,0D0;                              111P     56
124,0D0,0D0,-1D0,-1.15D0,-1D0,0D0,0D0,7.5D-1,0D0,1D0,0D0,0D0;        113P     57
100,0D0,0D0,0D0,7.5D-1,0D0,-7.5D-1,0D0;                              115P     58
110,-1.15D0,1.5D0,4.576747448636D-12,5D-1,1.5D0,0D0;                 117P     59
124,0D0,0D0,1D0,1D0,1D0,0D0,0D0,7.5D-1,0D0,1D0,0D0,0D0;              119P     60
100,0D0,0D0,0D0,7.5D-1,0D0,-7.5D-1,0D0;                              121P     61
110,1D0,1.5D0,0D0,1.15D0,1.5D0,-1.052417871004D-12;                  123P     62
124,0D0,0D0,1D0,1.15D0,1D0,0D0,0D0,7.5D-1,0D0,1D0,0D0,0D0;           125P     63
100,0D0,0D0,0D0,7.5D-1,0D0,-7.5D-1,0D0;                              127P     64
124,0D0,0D0,-1D0,5D-1,1D0,0D0,0D0,7.5D-1,0D0,-1D0,0D0,0D0;           129P     65
100,0D0,0D0,0D0,7.6D-1,0D0,-7.6D-1,0D0;                              131P     66
124,0D0,0D0,1D0,5D-1,1D0,0D0,0D0,7.5D-1,0D0,1D0,0D0,0D0;             133P     67
100,0D0,0D0,0D0,7.6D-1,0D0,-7.6D-1,0D0;                              135P     68
110,1D0,1.51D0,0D0,5D-1,1.51D0,0D0;                                  137P     69
110,1D0,-1D-2,0D0,5D-1,-1D-2,0D0;                                    139P     70
124,0D0,0D0,-1D0,1D0,1D0,0D0,0D0,7.5D-1,0D0,-1D0,0D0,0D0;            141P     71
100,0D0,0D0,0D0,7.6D-1,0D0,-7.6D-1,0D0;                              143P     72
124,0D0,0D0,1D0,1D0,1D0,0D0,0D0,7.5D-1,0D0,1D0,0D0,0D0;              145P     73
100,0D0,0D0,0D0,7.6D-1,0D0,-7.6D-1,0D0;                              147P     74
124,0D0,0D0,1D0,5D-1,-1D0,0D0,0D0,7.5D-1,0D0,-1D0,0D0,0D0;           149P     75
100,0D0,0D0,0D0,7.5D-1,0D0,-7.5D-1,0D0;                              151P     76
124,0D0,0D0,-1D0,-1.15D0,1D0,0D0,0D0,7.5D-1,0D0,-1D0,0D0,0D0;        153P     77
100,0D0,0D0,0D0,7.5D-1,0D0,-7.5D-1,0D0;                              155P     78
110,-1.15D0,0D0,-4.576794309887D-12,5D-1,0D0,0D0;                    157P     79
124,0D0,0D0,1D0,1D0,-1D0,0D0,0D0,7.5D-1,0D0,-1D0,0D0,0D0;            159P     80
100,0D0,0D0,0D0,7.5D-1,0D0,-7.5D-1,0D0;                              161P     81
110,1D0,0D0,0D0,1.15D0,0D0,1.052402451616D-12;                       163P     82
124,0D0,0D0,1D0,1.15D0,-1D0,0D0,0D0,7.5D-1,0D0,-1D0,0D0,0D0;         165P     83
100,0D0,0D0,0D0,7.5D-1,0D0,-7.5D-1,0D0;                              167P     84
124,1D0,0D0,0D0,1.15D0,0D0,-1D0,0D0,3.5D-1,0D0,0D0,-1D0,0D0;         169P     85
100,0D0,0D0,0D0,3.5D-1,0D0,0D0,3.5D-1;                               171P     86
124,0D0,0D0,1D0,1.5D0,-1D0,0D0,0D0,7.5D-1,0D0,-1D0,0D0,0D0;          173P     87
100,0D0,0D0,0D0,3.999999982839D-1,0D0,-3.999999982839D-1,0D0;        175P     88
124,0D0,0D0,1D0,1.5D0,1D0,0D0,0D0,7.5D-1,0D0,1D0,0D0,0D0;            177P     89
100,0D0,0D0,0D0,3.999999982839D-1,0D0,-3.999999982839D-1,0D0;        179P     90
124,0D0,0D0,1D0,1.5D0,-1D0,0D0,0D0,7.5D-1,0D0,-1D0,0D0,0D0;          181P     91
100,0D0,0D0,0D0,2.25D-1,0D0,0D0,-2.25D-1;                            183P     92
124,1D0,0D0,0D0,1.15D0,0D0,1D0,0D0,1.15D0,0D0,0D0,1D0,0D0;           185P     93
100,0D0,0D0,0D0,3.5D-1,0D0,0D0,3.5D-1;                               187P     94
110,1D1,5.25D-1,0D0,1.5D0,5.25D-1,0D0;                               189P     95
124,0D0,0D0,-1D0,1.5D0,-1D0,0D0,0D0,7.5D-1,0D0,1D0,0D0,0D0;          191P     96
100,0D0,0D0,0D0,2.25D-1,0D0,0D0,2.25D-1;                             193P     97
110,1D1,7.5D-1,2.25D-1,1.5D0,7.5D-1,2.25D-1;                         195P     98
124,0D0,0D0,1D0,1D1,0D0,-1D0,0D0,7.5D-1,1D0,0D0,0D0,0D0;             197P     99
100,0D0,0D0,0D0,2.25D-1,0D0,0D0,2.25D-1;                             199P    100
124,0D0,0D0,-1D0,1D1,0D0,1D0,0D0,7.5D-1,1D0,0D0,0D0,0D0;             201P    101
100,0D0,0D0,0D0,2.25D-1,0D0,0D0,-2.25D-1;                            203P    102
110,-1.5D0,5.25D-1,0D0,-1D1,5.25D-1,0D0;                             205P    103
110,-1.5D0,7.5D-1,2.25D-1,-1D1,7.5D-1,2.25D-1;                       207P    104
124,0D0,0D0,1D0,-1.5D0,0D0,-1D0,0D0,7.5D-1,1D0,0D0,0D0,0D0;          209P    105
100,0D0,0D0,0D0,2.25D-1,0D0,0D0,2.25D-1;                             211P    106
124,0D0,0D0,-1D0,-1D1,-1D0,0D0,0D0,7.5D-1,0D0,1D0,0D0,0D0;           213P    107
100,0D0,0D0,0D0,2.25D-1,0D0,0D0,2.25D-1;                             215P    108
124,0D0,0D0,1D0,-1D1,-1D0,0D0,0D0,7.5D-1,0D0,-1D0,0D0,0D0;           217P    109
100,0D0,0D0,0D0,2.25D-1,0D0,0D0,-2.25D-1;                            219P    110
502,24,-1.5D0,5.25D-1,0D0,-1D1,5.25D-1,0D0,-1.5D0,7.5D-1,            221P    111
2.25D-1,-1D1,7.5D-1,2.25D-1,1D1,5.25D-1,0D0,1.5D0,5.25D-1,0D0,       221P    112
1D1,7.5D-1,2.25D-1,1.5D0,7.5D-1,2.25D-1,1D0,1.51D0,0D0,5D-1,         221P    113
1.51D0,0D0,1D0,-1D-2,0D0,5D-1,-1D-2,0D0,5D-1,0D0,0D0,5D-1,1.5D0,     221P    114
0D0,1D0,0D0,0D0,1D0,1.5D0,0D0,1.5D0,3.500000017161D-1,0D0,1.5D0,     221P    115
1.149999998284D0,0D0,1.15D0,0D0,0D0,1.15D0,1.5D0,0D0,-1.5D0,         221P    116
1.149999998284D0,0D0,-1.5D0,3.500000017161D-1,0D0,-1.15D0,1.5D0,     221P    117
0D0,-1.15D0,0D0,0D0;                                                 221P    118
504,38,205,221,1,221,2,207,221,3,221,4,211,221,3,221,1,189,221,      223P    119
5,221,6,195,221,7,221,8,193,221,6,221,8,99,221,3,221,1,183,221,      223P    120
6,221,8,137,221,9,221,10,139,221,11,221,12,135,221,10,221,12,        223P    121
147,221,9,221,11,131,221,10,221,12,143,221,9,221,11,151,221,13,      223P    122
221,14,161,221,15,221,16,111,221,14,221,13,121,221,16,221,15,        223P    123
175,221,17,221,18,167,221,19,221,20,179,221,18,221,17,127,221,       223P    124
20,221,19,91,221,21,221,22,155,221,23,221,24,95,221,22,221,21,       223P    125
115,221,24,221,23,187,221,18,221,20,171,221,17,221,19,107,221,       223P    126
22,221,24,103,221,21,221,23,157,221,24,221,13,163,221,15,221,19,     223P    127
117,221,23,221,14,123,221,16,221,20,215,221,2,221,4,219,221,2,       223P    128
221,4,199,221,7,221,5,203,221,7,221,5;                               223P    129
128,1,1,1,1,0,0,1,0,0,-1.174138513475D0,-1.174138513475D0,           225P    130
-3.258614865247D-1,-3.258614865247D-1,-4.241385124589D-1,            225P    131
-4.241385124589D-1,4.241385124589D-1,4.241385124589D-1,1D0,1D0,      225P    132
1D0,1D0,-1.5D0,1.174138513475D0,4.241385124589D-1,-1.5D0,            225P    133
3.258614865247D-1,4.241385124589D-1,-1.5D0,1.174138513475D0,         225P    134
-4.241385124589D-1,-1.5D0,3.258614865247D-1,-4.241385124589D-1,      225P    135
-1.174138513475D0,-3.258614865247D-1,-4.241385124589D-1,             225P    136
4.241385124589D-1;                                                   225P    137
508,2,0,223,23,0,0,0,223,25,0,0;                                     227P    138
508,2,0,223,3,0,0,0,223,7,1,0;                                       229P    139
510,225,2,0,227,229;                                                 231P    140
110,-1.15D0,7.5D-1,0D0,-1.5D-1,7.5D-1,0D0;                           233P    141
124,-9.976226828397D-1,-6.891286297771D-2,0D0,-1.15D0,               235P    142
-6.890891757734D-2,9.975655669293D-1,1.070050257057D-2,              235P    143
1.149977099193D0,-7.374022674385D-4,1.067506408219D-2,               235P    144
-9.999427479835D-1,4.280201028229D-3;                                235P    145
100,0D0,0D0,0D0,3.5D-1,0D0,-4.812420581580D-2,3.466757286206D-1;     237P    146
120,233,237,-3.215125215802D0,5.213114634497D-2;                     239P    147
508,4,0,223,23,1,0,0,223,29,1,0,0,223,24,0,0,0,223,30,0,0;           241P    148
510,239,1,0,241;                                                     243P    149
110,-1.15D0,7.5D-1,0D0,-1.5D-1,7.5D-1,0D0;                           245P    150
124,-9.976226828397D-1,-6.891286297771D-2,0D0,-1.15D0,               247P    151
6.890891757734D-2,-9.975655669293D-1,-1.070050257057D-2,             247P    152
3.500229008066D-1,7.374022674384D-4,-1.067506408219D-2,              247P    153
9.999427479835D-1,-4.280201028229D-3;                                247P    154
100,0D0,0D0,0D0,3.5D-1,0D0,-4.812420581580D-2,3.466757286206D-1;     249P    155
120,245,249,-3.215125215802D0,5.213114634497D-2;                     251P    156
508,4,0,223,25,1,0,0,223,30,1,0,0,223,26,0,0,0,223,29,0,0;           253P    157
510,251,1,0,253;                                                     255P    158
110,-1.5D0,7.5D-1,0D0,-5D-1,7.5D-1,0D0;                              257P    159
110,-1.196D0,0D0,0D0,1.196D0,0D0,0D0;                                259P    160
120,257,259,3.078760800518D0,6.346017160251D0;                       261P    161
508,4,0,223,17,1,0,0,223,31,0,0,0,223,26,1,0,0,223,33,1,0;           263P    162
510,261,1,0,263;                                                     265P    163
110,-1.5D0,7.5D-1,0D0,-5D-1,7.5D-1,0D0;                              267P    164
110,-1.196D0,0D0,0D0,1.196D0,0D0,0D0;                                269P    165
120,267,269,3.078760800518D0,6.346017160251D0;                       271P    166
508,4,0,223,18,0,0,0,223,34,1,0,0,223,22,1,0,0,223,32,0,0;           273P    167
510,271,1,0,273;                                                     275P    168
128,1,1,1,1,0,0,1,0,0,-7.904D-1,-7.904D-1,7.904D-1,7.904D-1,         277P    169
-7.920471356657D-1,-7.920471356657D-1,7.920471356657D-1,             277P    170
7.920471356657D-1,1D0,1D0,1D0,1D0,5D-1,1.5404D0,                     277P    171
7.920471356657D-1,5D-1,-4.04D-2,7.920471356657D-1,5D-1,1.5404D0,     277P    172
-7.920471356657D-1,5D-1,-4.04D-2,-7.920471356657D-1,-7.904D-1,       277P    173
7.904D-1,-7.920471356657D-1,7.920471356657D-1;                       277P    174
508,2,0,223,13,0,0,0,223,11,1,0;                                     279P    175
508,2,0,223,15,0,0,0,223,17,0,0;                                     281P    176
510,277,2,0,279,281;                                                 283P    177
110,-2.126218536112D1,7.5D-1,0D0,-2.026218536112D1,7.5D-1,0D0;       285P    178
110,4.758614865247D-1,-1D-2,0D0,1.024138513475D0,-1D-2,0D0;          287P    179
120,285,287,-6.346017160251D0,-3.078760800518D0;                     289P    180
508,4,0,223,9,1,0,0,223,13,1,0,0,223,10,0,0,0,223,14,0,0;            291P    181
510,289,1,0,291;                                                     293P    182
110,-2.126218536112D1,7.5D-1,0D0,-2.026218536112D1,7.5D-1,0D0;       295P    183
110,4.758614865247D-1,-1D-2,0D0,1.024138513475D0,-1D-2,0D0;          297P    184
120,295,297,-3.204424506662D0,6.283185307180D-2;                     299P    185
508,4,0,223,9,0,0,0,223,12,1,0,0,223,10,1,0,0,223,11,0,0;            301P    186
510,299,1,0,301;                                                     303P    187
128,1,1,1,1,0,0,1,0,0,-7.904D-1,-7.904D-1,7.904D-1,7.904D-1,         305P    188
-7.920471356657D-1,-7.920471356657D-1,7.920471356657D-1,             305P    189
7.920471356657D-1,1D0,1D0,1D0,1D0,1D0,1.5404D0,                      305P    190
7.920471356657D-1,1D0,-4.04D-2,7.920471356657D-1,1D0,1.5404D0,       305P    191
-7.920471356657D-1,1D0,-4.04D-2,-7.920471356657D-1,-7.904D-1,        305P    192
7.904D-1,-7.920471356657D-1,7.920471356657D-1;                       305P    193
508,2,0,223,12,0,0,0,223,14,1,0;                                     307P    194
508,2,0,223,16,1,0,0,223,18,1,0;                                     309P    195
510,305,2,0,307,309;                                                 311P    196
110,-1.5D0,7.5D-1,0D0,-5D-1,7.5D-1,0D0;                              313P    197
110,-1.196D0,0D0,0D0,1.196D0,0D0,0D0;                                315P    198
120,313,315,-6.283185307180D-2,3.204424506662D0;                     317P    199
508,4,0,223,15,1,0,0,223,33,0,0,0,223,24,1,0,0,223,31,1,0;           319P    200
510,317,1,0,319;                                                     321P    201
110,-1.5D0,7.5D-1,0D0,-5D-1,7.5D-1,0D0;                              323P    202
110,-1.196D0,0D0,0D0,1.196D0,0D0,0D0;                                325P    203
120,323,325,-6.283185307180D-2,3.204424506662D0;                     327P    204
508,4,0,223,16,0,0,0,223,32,1,0,0,223,20,1,0,0,223,34,0,0;           329P    205
510,327,1,0,329;                                                     331P    206
110,1.15D0,7.5D-1,0D0,2.15D0,7.5D-1,0D0;                             333P    207
124,-6.891252094673D-2,9.976227064661D-1,0D0,1.15D0,                 335P    208
-9.975944027992D-1,-6.891056582179D-2,7.532690215110D-3,             335P    209
3.500113484454D-1,7.514782799369D-3,5.190966722340D-4,               335P    210
9.999716288866D-1,3.013076086044D-3;                                 335P    211
100,0D0,0D0,0D0,3.5D-1,0D0,-4.812420581966D-2,3.466757286200D-1;     337P    212
120,333,337,-5.529909166007D-2,3.211957269954D0;                     339P    213
508,4,0,223,19,1,0,0,223,27,1,0,0,223,20,0,0,0,223,28,0,0;           341P    214
510,339,1,0,341;                                                     343P    215
128,1,1,1,1,0,0,1,0,0,-1.174138513475D0,-1.174138513475D0,           345P    216
-3.258614865247D-1,-3.258614865247D-1,-4.241385124589D-1,            345P    217
-4.241385124589D-1,4.241385124589D-1,4.241385124589D-1,1D0,1D0,      345P    218
1D0,1D0,1.5D0,1.174138513475D0,4.241385124589D-1,1.5D0,              345P    219
3.258614865247D-1,4.241385124589D-1,1.5D0,1.174138513475D0,          345P    220
-4.241385124589D-1,1.5D0,3.258614865247D-1,-4.241385124589D-1,       345P    221
-1.174138513475D0,-3.258614865247D-1,-4.241385124589D-1,             345P    222
4.241385124589D-1;                                                   345P    223
508,2,0,223,19,0,0,0,223,21,0,0;                                     347P    224
508,2,0,223,8,1,0,0,223,6,0,0;                                       349P    225
510,345,2,0,347,349;                                                 351P    226
110,1.15D0,7.5D-1,0D0,2.15D0,7.5D-1,0D0;                             353P    227
124,-6.891252094673D-2,9.976227064661D-1,0D0,1.15D0,                 355P    228
9.975944027992D-1,6.891056582179D-2,-7.532690215110D-3,              355P    229
1.149988651555D0,-7.514782799369D-3,-5.190966722341D-4,              355P    230
-9.999716288866D-1,-3.013076086044D-3;                               355P    231
100,0D0,0D0,0D0,3.5D-1,0D0,-4.812420581966D-2,3.466757286200D-1;     357P    232
120,353,357,-5.529909166007D-2,3.211957269954D0;                     359P    233
508,4,0,223,21,1,0,0,223,28,1,0,0,223,22,0,0,0,223,27,0,0;           361P    234
510,359,1,0,361;                                                     363P    235
110,1.002973507885D1,7.5D-1,0D0,9.029735078849D0,7.5D-1,0D0;         365P    236
110,1.017D1,7.5D-1,2.25D-1,1.33D0,7.5D-1,2.25D-1;                    367P    237
120,365,367,-1.072822821124D-1,4.819671262497D0;                     369P    238
508,4,0,223,8,0,0,0,223,4,0,0,0,223,38,0,0,0,223,5,1,0;              371P    239
510,369,1,0,371;                                                     373P    240
110,1.469075131858D0,7.5D-1,0D0,2.469075131858D0,7.5D-1,0D0;         375P    241
110,1.33D0,7.5D-1,2.25D-1,1.017D1,7.5D-1,2.25D-1;                    377P    242
120,375,377,-1.072822821124D-1,1.678078608907D0;                     379P    243
508,4,0,223,4,1,0,0,223,6,1,0,0,223,5,0,0,0,223,37,1,0;              381P    244
510,379,1,0,381;                                                     383P    245
128,1,1,1,1,0,0,1,0,0,-2.413851347528D-2,-2.413851347528D-2,         385P    246
4.741385134753D-1,4.741385134753D-1,-2.413851347528D-2,              385P    247
-2.413851347528D-2,4.741385134753D-1,4.741385134753D-1,1D0,1D0,      385P    248
1D0,1D0,1D1,5.008614865247D-1,-2.491385134753D-1,1D1,                385P    249
9.991385134753D-1,-2.491385134753D-1,1D1,5.008614865247D-1,          385P    250
2.491385134753D-1,1D1,9.991385134753D-1,2.491385134753D-1,           385P    251
-2.413851347528D-2,4.741385134753D-1,-2.413851347528D-2,             385P    252
4.741385134753D-1;                                                   385P    253
508,2,0,223,37,0,0,0,223,38,1,0;                                     387P    254
510,385,1,0,387;                                                     389P    255
110,-1.003092486814D1,7.5D-1,0D0,-9.030924868142D0,7.5D-1,0D0;       391P    256
110,-1.017D1,7.5D-1,2.25D-1,-1.33D0,7.5D-1,2.25D-1;                  393P    257
120,391,393,-1.072822821124D-1,1.678078608907D0;                     395P    258
508,4,0,223,1,1,0,0,223,35,1,0,0,223,2,0,0,0,223,3,1,0;              397P    259
510,395,1,0,397;                                                     399P    260
110,-1.469075131858D0,7.5D-1,0D0,-2.469075131858D0,7.5D-1,0D0;       401P    261
110,-1.33D0,7.5D-1,2.25D-1,-1.017D1,7.5D-1,2.25D-1;                  403P    262
120,401,403,-1.072822821124D-1,4.819671262497D0;                     405P    263
508,4,0,223,7,0,0,0,223,2,1,0,0,223,36,0,0,0,223,1,0,0;              407P    264
510,405,1,0,407;                                                     409P    265
128,1,1,1,1,0,0,1,0,0,-2.413851347528D-2,-2.413851347528D-2,         411P    266
4.741385134753D-1,4.741385134753D-1,-2.413851347528D-2,              411P    267
-2.413851347528D-2,4.741385134753D-1,4.741385134753D-1,1D0,1D0,      411P    268
1D0,1D0,-1D1,9.991385134753D-1,-2.491385134753D-1,-1D1,              411P    269
5.008614865247D-1,-2.491385134753D-1,-1D1,9.991385134753D-1,         411P    270
2.491385134753D-1,-1D1,5.008614865247D-1,2.491385134753D-1,          411P    271
-2.413851347528D-2,4.741385134753D-1,-2.413851347528D-2,             411P    272
4.741385134753D-1;                                                   411P    273
508,2,0,223,35,0,0,0,223,36,1,0;                                     413P    274
510,411,1,0,413;                                                     415P    275
514,20,231,0,243,1,255,1,265,1,275,1,283,0,293,1,303,1,311,1,        417P    276
321,1,331,1,343,1,351,1,363,1,373,1,383,1,389,1,399,1,409,1,415,     417P    277
1;                                                                   417P    278
186,417,1,0;                                                         419P    279
406,1,3HA_2;                                                         421P    280
110,-1.15D0,7.5D-1,0D0,1.15D0,7.5D-1,0D0,0,1,421;                    423P    281
406,1,3HA_4;                                                         425P    282
110,5D-1,7.5D-1,0D0,1D0,7.5D-1,0D0,0,1,425;                          427P    283
406,1,17H02___PRT_ALL_AXES;                                          429P    284
402,1,423,0,1,429;                                                   431P    285
S      1G      4D    432P    285                                        T      1
