G04 Layer_Color=2752767*
%FSLAX26Y26*%
%MOIN*%
%TF.FileFunction,Drawing*%
%TF.Part,Single*%
G01*
G75*
%TA.AperFunction,NonConductor*%
%ADD39C,0.005000*%
%ADD58C,0.006667*%
D39*
X1843661Y-2965000D02*
Y-2925000D01*
X1883661D01*
Y-2965000D01*
X1843661D01*
X2926339D02*
Y-2925000D01*
X2966339D01*
Y-2965000D01*
X2926339D01*
X1843661Y-1687500D02*
Y-1647500D01*
X1883661D01*
Y-1687500D01*
X1843661D01*
X2926339D02*
Y-1647500D01*
X2966339D01*
Y-1687500D01*
X2926339D01*
X1843661Y-410000D02*
Y-370000D01*
X1883661D01*
Y-410000D01*
X1843661D01*
X2926339D02*
Y-370000D01*
X2966339D01*
Y-410000D01*
X2926339D01*
X1545000Y-2771299D02*
Y-2731299D01*
X1585000D01*
Y-2771299D01*
X1545000D01*
Y-3558701D02*
Y-3518701D01*
X1585000D01*
Y-3558701D01*
X1545000D01*
Y-1486299D02*
Y-1446299D01*
X1585000D01*
Y-1486299D01*
X1545000D01*
Y-2273701D02*
Y-2233701D01*
X1585000D01*
Y-2273701D01*
X1545000D01*
Y-161299D02*
Y-121299D01*
X1585000D01*
Y-161299D01*
X1545000D01*
Y-948701D02*
Y-908701D01*
X1585000D01*
Y-948701D01*
X1545000D01*
X0Y-3799528D02*
X-20000Y-3759528D01*
X20000D01*
X0Y-3799528D01*
Y-20000D02*
X-20000Y20000D01*
X20000D01*
X0Y-20000D01*
X3779528Y-3799528D02*
X3759528Y-3759528D01*
X3799528D01*
X3779528Y-3799528D01*
X3779527Y-20000D02*
X3759527Y20000D01*
X3799527D01*
X3779527Y-20000D01*
X790000Y-160000D02*
X800000Y-150000D01*
X810000D01*
X800000Y-140000D01*
X810000Y-130000D01*
X800000D01*
X790000Y-120000D01*
X780000Y-130000D01*
X770000D01*
X780000Y-140000D01*
X770000Y-150000D01*
X780000D01*
X790000Y-160000D01*
X890000D02*
X900000Y-150000D01*
X910000D01*
X900000Y-140000D01*
X910000Y-130000D01*
X900000D01*
X890000Y-120000D01*
X880000Y-130000D01*
X870000D01*
X880000Y-140000D01*
X870000Y-150000D01*
X880000D01*
X890000Y-160000D01*
X290000D02*
X300000Y-150000D01*
X310000D01*
X300000Y-140000D01*
X310000Y-130000D01*
X300000D01*
X290000Y-120000D01*
X280000Y-130000D01*
X270000D01*
X280000Y-140000D01*
X270000Y-150000D01*
X280000D01*
X290000Y-160000D01*
X390000D02*
X400000Y-150000D01*
X410000D01*
X400000Y-140000D01*
X410000Y-130000D01*
X400000D01*
X390000Y-120000D01*
X380000Y-130000D01*
X370000D01*
X380000Y-140000D01*
X370000Y-150000D01*
X380000D01*
X390000Y-160000D01*
X490000D02*
X500000Y-150000D01*
X510000D01*
X500000Y-140000D01*
X510000Y-130000D01*
X500000D01*
X490000Y-120000D01*
X480000Y-130000D01*
X470000D01*
X480000Y-140000D01*
X470000Y-150000D01*
X480000D01*
X490000Y-160000D01*
X590000D02*
X600000Y-150000D01*
X610000D01*
X600000Y-140000D01*
X610000Y-130000D01*
X600000D01*
X590000Y-120000D01*
X580000Y-130000D01*
X570000D01*
X580000Y-140000D01*
X570000Y-150000D01*
X580000D01*
X590000Y-160000D01*
X690000D02*
X700000Y-150000D01*
X710000D01*
X700000Y-140000D01*
X710000Y-130000D01*
X700000D01*
X690000Y-120000D01*
X680000Y-130000D01*
X670000D01*
X680000Y-140000D01*
X670000Y-150000D01*
X680000D01*
X690000Y-160000D01*
X990000D02*
X1000000Y-150000D01*
X1010000D01*
X1000000Y-140000D01*
X1010000Y-130000D01*
X1000000D01*
X990000Y-120000D01*
X980000Y-130000D01*
X970000D01*
X980000Y-140000D01*
X970000Y-150000D01*
X980000D01*
X990000Y-160000D01*
X790000Y-60000D02*
X800000Y-50000D01*
X810000D01*
X800000Y-40000D01*
X810000Y-30000D01*
X800000D01*
X790000Y-20000D01*
X780000Y-30000D01*
X770000D01*
X780000Y-40000D01*
X770000Y-50000D01*
X780000D01*
X790000Y-60000D01*
X890000D02*
X900000Y-50000D01*
X910000D01*
X900000Y-40000D01*
X910000Y-30000D01*
X900000D01*
X890000Y-20000D01*
X880000Y-30000D01*
X870000D01*
X880000Y-40000D01*
X870000Y-50000D01*
X880000D01*
X890000Y-60000D01*
X290000D02*
X300000Y-50000D01*
X310000D01*
X300000Y-40000D01*
X310000Y-30000D01*
X300000D01*
X290000Y-20000D01*
X280000Y-30000D01*
X270000D01*
X280000Y-40000D01*
X270000Y-50000D01*
X280000D01*
X290000Y-60000D01*
X390000D02*
X400000Y-50000D01*
X410000D01*
X400000Y-40000D01*
X410000Y-30000D01*
X400000D01*
X390000Y-20000D01*
X380000Y-30000D01*
X370000D01*
X380000Y-40000D01*
X370000Y-50000D01*
X380000D01*
X390000Y-60000D01*
X490000D02*
X500000Y-50000D01*
X510000D01*
X500000Y-40000D01*
X510000Y-30000D01*
X500000D01*
X490000Y-20000D01*
X480000Y-30000D01*
X470000D01*
X480000Y-40000D01*
X470000Y-50000D01*
X480000D01*
X490000Y-60000D01*
X590000D02*
X600000Y-50000D01*
X610000D01*
X600000Y-40000D01*
X610000Y-30000D01*
X600000D01*
X590000Y-20000D01*
X580000Y-30000D01*
X570000D01*
X580000Y-40000D01*
X570000Y-50000D01*
X580000D01*
X590000Y-60000D01*
X690000D02*
X700000Y-50000D01*
X710000D01*
X700000Y-40000D01*
X710000Y-30000D01*
X700000D01*
X690000Y-20000D01*
X680000Y-30000D01*
X670000D01*
X680000Y-40000D01*
X670000Y-50000D01*
X680000D01*
X690000Y-60000D01*
X990000D02*
X1000000Y-50000D01*
X1010000D01*
X1000000Y-40000D01*
X1010000Y-30000D01*
X1000000D01*
X990000Y-20000D01*
X980000Y-30000D01*
X970000D01*
X980000Y-40000D01*
X970000Y-50000D01*
X980000D01*
X990000Y-60000D01*
X673334Y-3327127D02*
X683334Y-3307127D01*
X673334Y-3287127D01*
X693334Y-3297127D01*
X713334Y-3287127D01*
X703334Y-3307127D01*
X713334Y-3327127D01*
X693334Y-3317127D01*
X673334Y-3327127D01*
X720000Y-3392127D02*
X730000Y-3372127D01*
X720000Y-3352127D01*
X740000Y-3362127D01*
X760000Y-3352127D01*
X750000Y-3372127D01*
X760000Y-3392127D01*
X740000Y-3382127D01*
X720000Y-3392127D01*
X673334Y-3457127D02*
X683334Y-3437127D01*
X673334Y-3417127D01*
X693334Y-3427127D01*
X713334Y-3417127D01*
X703334Y-3437127D01*
X713334Y-3457127D01*
X693334Y-3447127D01*
X673334Y-3457127D01*
X626667Y-3392127D02*
X636667Y-3372127D01*
X626667Y-3352127D01*
X646667Y-3362127D01*
X666667Y-3352127D01*
X656667Y-3372127D01*
X666667Y-3392127D01*
X646667Y-3382127D01*
X626667Y-3392127D01*
X580001Y-3327127D02*
X590001Y-3307127D01*
X580001Y-3287127D01*
X600001Y-3297127D01*
X620001Y-3287127D01*
X610001Y-3307127D01*
X620001Y-3327127D01*
X600001Y-3317127D01*
X580001Y-3327127D01*
Y-3457127D02*
X590001Y-3437127D01*
X580001Y-3417127D01*
X600001Y-3427127D01*
X620001Y-3417127D01*
X610001Y-3437127D01*
X620001Y-3457127D01*
X600001Y-3447127D01*
X580001Y-3457127D01*
X688334Y-2132127D02*
X698334Y-2112127D01*
X688334Y-2092127D01*
X708334Y-2102127D01*
X728334Y-2092127D01*
X718334Y-2112127D01*
X728334Y-2132127D01*
X708334Y-2122127D01*
X688334Y-2132127D01*
X735000Y-2197127D02*
X745000Y-2177127D01*
X735000Y-2157127D01*
X755000Y-2167127D01*
X775000Y-2157127D01*
X765000Y-2177127D01*
X775000Y-2197127D01*
X755000Y-2187127D01*
X735000Y-2197127D01*
X688334Y-2262127D02*
X698334Y-2242127D01*
X688334Y-2222127D01*
X708334Y-2232127D01*
X728334Y-2222127D01*
X718334Y-2242127D01*
X728334Y-2262127D01*
X708334Y-2252127D01*
X688334Y-2262127D01*
X641667Y-2197127D02*
X651667Y-2177127D01*
X641667Y-2157127D01*
X661667Y-2167127D01*
X681667Y-2157127D01*
X671667Y-2177127D01*
X681667Y-2197127D01*
X661667Y-2187127D01*
X641667Y-2197127D01*
X595001Y-2132127D02*
X605001Y-2112127D01*
X595001Y-2092127D01*
X615001Y-2102127D01*
X635001Y-2092127D01*
X625001Y-2112127D01*
X635001Y-2132127D01*
X615001Y-2122127D01*
X595001Y-2132127D01*
Y-2262127D02*
X605001Y-2242127D01*
X595001Y-2222127D01*
X615001Y-2232127D01*
X635001Y-2222127D01*
X625001Y-2242127D01*
X635001Y-2262127D01*
X615001Y-2252127D01*
X595001Y-2262127D01*
X615001Y-950000D02*
X625001Y-930000D01*
X615001Y-910000D01*
X635001Y-920000D01*
X655001Y-910000D01*
X645001Y-930000D01*
X655001Y-950000D01*
X635001Y-940000D01*
X615001Y-950000D01*
Y-820000D02*
X625001Y-800000D01*
X615001Y-780000D01*
X635001Y-790000D01*
X655001Y-780000D01*
X645001Y-800000D01*
X655001Y-820000D01*
X635001Y-810000D01*
X615001Y-820000D01*
X661667Y-885000D02*
X671667Y-865000D01*
X661667Y-845000D01*
X681667Y-855000D01*
X701667Y-845000D01*
X691667Y-865000D01*
X701667Y-885000D01*
X681667Y-875000D01*
X661667Y-885000D01*
X708334Y-950000D02*
X718334Y-930000D01*
X708334Y-910000D01*
X728334Y-920000D01*
X748334Y-910000D01*
X738334Y-930000D01*
X748334Y-950000D01*
X728334Y-940000D01*
X708334Y-950000D01*
X755000Y-885000D02*
X765000Y-865000D01*
X755000Y-845000D01*
X775000Y-855000D01*
X795000Y-845000D01*
X785000Y-865000D01*
X795000Y-885000D01*
X775000Y-875000D01*
X755000Y-885000D01*
X708334Y-820000D02*
X718334Y-800000D01*
X708334Y-780000D01*
X728334Y-790000D01*
X748334Y-780000D01*
X738334Y-800000D01*
X748334Y-820000D01*
X728334Y-810000D01*
X708334Y-820000D01*
X2905000Y-241667D02*
X2915000Y-221667D01*
X2905000Y-201667D01*
X2925000Y-211667D01*
X2945000Y-201667D01*
X2935000Y-221667D01*
X2945000Y-241667D01*
X2925000Y-231667D01*
X2905000Y-241667D01*
X2970000Y-195000D02*
X2980000Y-175000D01*
X2970000Y-155000D01*
X2990000Y-165000D01*
X3010000Y-155000D01*
X3000000Y-175000D01*
X3010000Y-195000D01*
X2990000Y-185000D01*
X2970000Y-195000D01*
X3035000Y-148334D02*
X3045000Y-128334D01*
X3035000Y-108334D01*
X3055000Y-118334D01*
X3075000Y-108334D01*
X3065000Y-128334D01*
X3075000Y-148334D01*
X3055000Y-138334D01*
X3035000Y-148334D01*
X3100000Y-195000D02*
X3110000Y-175000D01*
X3100000Y-155000D01*
X3120000Y-165000D01*
X3140000Y-155000D01*
X3130000Y-175000D01*
X3140000Y-195000D01*
X3120000Y-185000D01*
X3100000Y-195000D01*
X3035000Y-241667D02*
X3045000Y-221667D01*
X3035000Y-201667D01*
X3055000Y-211667D01*
X3075000Y-201667D01*
X3065000Y-221667D01*
X3075000Y-241667D01*
X3055000Y-231667D01*
X3035000Y-241667D01*
X3165000D02*
X3175000Y-221667D01*
X3165000Y-201667D01*
X3185000Y-211667D01*
X3205000Y-201667D01*
X3195000Y-221667D01*
X3205000Y-241667D01*
X3185000Y-231667D01*
X3165000Y-241667D01*
X3035000Y-335000D02*
X3045000Y-315000D01*
X3035000Y-295000D01*
X3055000Y-305000D01*
X3075000Y-295000D01*
X3065000Y-315000D01*
X3075000Y-335000D01*
X3055000Y-325000D01*
X3035000Y-335000D01*
X2970000Y-288334D02*
X2980000Y-268334D01*
X2970000Y-248334D01*
X2990000Y-258334D01*
X3010000Y-248334D01*
X3000000Y-268334D01*
X3010000Y-288334D01*
X2990000Y-278334D01*
X2970000Y-288334D01*
X3165000Y-335000D02*
X3175000Y-315000D01*
X3165000Y-295000D01*
X3185000Y-305000D01*
X3205000Y-295000D01*
X3195000Y-315000D01*
X3205000Y-335000D01*
X3185000Y-325000D01*
X3165000Y-335000D01*
X3100000Y-288334D02*
X3110000Y-268334D01*
X3100000Y-248334D01*
X3120000Y-258334D01*
X3140000Y-248334D01*
X3130000Y-268334D01*
X3140000Y-288334D01*
X3120000Y-278334D01*
X3100000Y-288334D01*
X3295000Y-335000D02*
X3305000Y-315000D01*
X3295000Y-295000D01*
X3315000Y-305000D01*
X3335000Y-295000D01*
X3325000Y-315000D01*
X3335000Y-335000D01*
X3315000Y-325000D01*
X3295000Y-335000D01*
X3230000Y-288334D02*
X3240000Y-268334D01*
X3230000Y-248334D01*
X3250000Y-258334D01*
X3270000Y-248334D01*
X3260000Y-268334D01*
X3270000Y-288334D01*
X3250000Y-278334D01*
X3230000Y-288334D01*
X3295000Y-148334D02*
X3305000Y-128334D01*
X3295000Y-108334D01*
X3315000Y-118334D01*
X3335000Y-108334D01*
X3325000Y-128334D01*
X3335000Y-148334D01*
X3315000Y-138334D01*
X3295000Y-148334D01*
X3490000Y-195000D02*
X3500000Y-175000D01*
X3490000Y-155000D01*
X3510000Y-165000D01*
X3530000Y-155000D01*
X3520000Y-175000D01*
X3530000Y-195000D01*
X3510000Y-185000D01*
X3490000Y-195000D01*
X3555000Y-241667D02*
X3565000Y-221667D01*
X3555000Y-201667D01*
X3575000Y-211667D01*
X3595000Y-201667D01*
X3585000Y-221667D01*
X3595000Y-241667D01*
X3575000Y-231667D01*
X3555000Y-241667D01*
X3620000Y-288334D02*
X3630000Y-268334D01*
X3620000Y-248334D01*
X3640000Y-258334D01*
X3660000Y-248334D01*
X3650000Y-268334D01*
X3660000Y-288334D01*
X3640000Y-278334D01*
X3620000Y-288334D01*
X3685000Y-335000D02*
X3695000Y-315000D01*
X3685000Y-295000D01*
X3705000Y-305000D01*
X3725000Y-295000D01*
X3715000Y-315000D01*
X3725000Y-335000D01*
X3705000Y-325000D01*
X3685000Y-335000D01*
X3750000Y-381667D02*
X3760000Y-361667D01*
X3750000Y-341667D01*
X3770000Y-351667D01*
X3790000Y-341667D01*
X3780000Y-361667D01*
X3790000Y-381667D01*
X3770000Y-371667D01*
X3750000Y-381667D01*
X3295000Y-241667D02*
X3305000Y-221667D01*
X3295000Y-201667D01*
X3315000Y-211667D01*
X3335000Y-201667D01*
X3325000Y-221667D01*
X3335000Y-241667D01*
X3315000Y-231667D01*
X3295000Y-241667D01*
X3360000Y-288334D02*
X3370000Y-268334D01*
X3360000Y-248334D01*
X3380000Y-258334D01*
X3400000Y-248334D01*
X3390000Y-268334D01*
X3400000Y-288334D01*
X3380000Y-278334D01*
X3360000Y-288334D01*
X3425000Y-335000D02*
X3435000Y-315000D01*
X3425000Y-295000D01*
X3445000Y-305000D01*
X3465000Y-295000D01*
X3455000Y-315000D01*
X3465000Y-335000D01*
X3445000Y-325000D01*
X3425000Y-335000D01*
X3620000Y-475000D02*
X3630000Y-455000D01*
X3620000Y-435000D01*
X3640000Y-445000D01*
X3660000Y-435000D01*
X3650000Y-455000D01*
X3660000Y-475000D01*
X3640000Y-465000D01*
X3620000Y-475000D01*
X3425000Y-241667D02*
X3435000Y-221667D01*
X3425000Y-201667D01*
X3445000Y-211667D01*
X3465000Y-201667D01*
X3455000Y-221667D01*
X3465000Y-241667D01*
X3445000Y-231667D01*
X3425000Y-241667D01*
X3490000Y-288334D02*
X3500000Y-268334D01*
X3490000Y-248334D01*
X3510000Y-258334D01*
X3530000Y-248334D01*
X3520000Y-268334D01*
X3530000Y-288334D01*
X3510000Y-278334D01*
X3490000Y-288334D01*
X3555000Y-335000D02*
X3565000Y-315000D01*
X3555000Y-295000D01*
X3575000Y-305000D01*
X3595000Y-295000D01*
X3585000Y-315000D01*
X3595000Y-335000D01*
X3575000Y-325000D01*
X3555000Y-335000D01*
X3620000Y-381667D02*
X3630000Y-361667D01*
X3620000Y-341667D01*
X3640000Y-351667D01*
X3660000Y-341667D01*
X3650000Y-361667D01*
X3660000Y-381667D01*
X3640000Y-371667D01*
X3620000Y-381667D01*
X3685000Y-428333D02*
X3695000Y-408333D01*
X3685000Y-388333D01*
X3705000Y-398333D01*
X3725000Y-388333D01*
X3715000Y-408333D01*
X3725000Y-428333D01*
X3705000Y-418333D01*
X3685000Y-428333D01*
Y-521667D02*
X3695000Y-501667D01*
X3685000Y-481667D01*
X3705000Y-491667D01*
X3725000Y-481667D01*
X3715000Y-501667D01*
X3725000Y-521667D01*
X3705000Y-511667D01*
X3685000Y-521667D01*
Y-2668330D02*
X3695000Y-2648330D01*
X3685000Y-2628330D01*
X3705000Y-2638330D01*
X3725000Y-2628330D01*
X3715000Y-2648330D01*
X3725000Y-2668330D01*
X3705000Y-2658330D01*
X3685000Y-2668330D01*
X3620000Y-2714997D02*
X3630000Y-2694997D01*
X3620000Y-2674997D01*
X3640000Y-2684997D01*
X3660000Y-2674997D01*
X3650000Y-2694997D01*
X3660000Y-2714997D01*
X3640000Y-2704997D01*
X3620000Y-2714997D01*
X3555000Y-2761663D02*
X3565000Y-2741663D01*
X3555000Y-2721663D01*
X3575000Y-2731663D01*
X3595000Y-2721663D01*
X3585000Y-2741663D01*
X3595000Y-2761663D01*
X3575000Y-2751663D01*
X3555000Y-2761663D01*
X3490000Y-2808330D02*
X3500000Y-2788330D01*
X3490000Y-2768330D01*
X3510000Y-2778330D01*
X3530000Y-2768330D01*
X3520000Y-2788330D01*
X3530000Y-2808330D01*
X3510000Y-2798330D01*
X3490000Y-2808330D01*
X3425000Y-2854997D02*
X3435000Y-2834997D01*
X3425000Y-2814997D01*
X3445000Y-2824997D01*
X3465000Y-2814997D01*
X3455000Y-2834997D01*
X3465000Y-2854997D01*
X3445000Y-2844997D01*
X3425000Y-2854997D01*
X3295000D02*
X3305000Y-2834997D01*
X3295000Y-2814997D01*
X3315000Y-2824997D01*
X3335000Y-2814997D01*
X3325000Y-2834997D01*
X3335000Y-2854997D01*
X3315000Y-2844997D01*
X3295000Y-2854997D01*
X3165000D02*
X3175000Y-2834997D01*
X3165000Y-2814997D01*
X3185000Y-2824997D01*
X3205000Y-2814997D01*
X3195000Y-2834997D01*
X3205000Y-2854997D01*
X3185000Y-2844997D01*
X3165000Y-2854997D01*
X3035000D02*
X3045000Y-2834997D01*
X3035000Y-2814997D01*
X3055000Y-2824997D01*
X3075000Y-2814997D01*
X3065000Y-2834997D01*
X3075000Y-2854997D01*
X3055000Y-2844997D01*
X3035000Y-2854997D01*
X2905000D02*
X2915000Y-2834997D01*
X2905000Y-2814997D01*
X2925000Y-2824997D01*
X2945000Y-2814997D01*
X2935000Y-2834997D01*
X2945000Y-2854997D01*
X2925000Y-2844997D01*
X2905000Y-2854997D01*
X3360000Y-2808330D02*
X3370000Y-2788330D01*
X3360000Y-2768330D01*
X3380000Y-2778330D01*
X3400000Y-2768330D01*
X3390000Y-2788330D01*
X3400000Y-2808330D01*
X3380000Y-2798330D01*
X3360000Y-2808330D01*
X3230000D02*
X3240000Y-2788330D01*
X3230000Y-2768330D01*
X3250000Y-2778330D01*
X3270000Y-2768330D01*
X3260000Y-2788330D01*
X3270000Y-2808330D01*
X3250000Y-2798330D01*
X3230000Y-2808330D01*
X3100000D02*
X3110000Y-2788330D01*
X3100000Y-2768330D01*
X3120000Y-2778330D01*
X3140000Y-2768330D01*
X3130000Y-2788330D01*
X3140000Y-2808330D01*
X3120000Y-2798330D01*
X3100000Y-2808330D01*
X2970000D02*
X2980000Y-2788330D01*
X2970000Y-2768330D01*
X2990000Y-2778330D01*
X3010000Y-2768330D01*
X3000000Y-2788330D01*
X3010000Y-2808330D01*
X2990000Y-2798330D01*
X2970000Y-2808330D01*
X3035000Y-2761663D02*
X3045000Y-2741663D01*
X3035000Y-2721663D01*
X3055000Y-2731663D01*
X3075000Y-2721663D01*
X3065000Y-2741663D01*
X3075000Y-2761663D01*
X3055000Y-2751663D01*
X3035000Y-2761663D01*
X3165000D02*
X3175000Y-2741663D01*
X3165000Y-2721663D01*
X3185000Y-2731663D01*
X3205000Y-2721663D01*
X3195000Y-2741663D01*
X3205000Y-2761663D01*
X3185000Y-2751663D01*
X3165000Y-2761663D01*
X3295000D02*
X3305000Y-2741663D01*
X3295000Y-2721663D01*
X3315000Y-2731663D01*
X3335000Y-2721663D01*
X3325000Y-2741663D01*
X3335000Y-2761663D01*
X3315000Y-2751663D01*
X3295000Y-2761663D01*
X3100000Y-2714997D02*
X3110000Y-2694997D01*
X3100000Y-2674997D01*
X3120000Y-2684997D01*
X3140000Y-2674997D01*
X3130000Y-2694997D01*
X3140000Y-2714997D01*
X3120000Y-2704997D01*
X3100000Y-2714997D01*
X3230000D02*
X3240000Y-2694997D01*
X3230000Y-2674997D01*
X3250000Y-2684997D01*
X3270000Y-2674997D01*
X3260000Y-2694997D01*
X3270000Y-2714997D01*
X3250000Y-2704997D01*
X3230000Y-2714997D01*
X2970000Y-1594998D02*
X2980000Y-1574998D01*
X2970000Y-1554998D01*
X2990000Y-1564998D01*
X3010000Y-1554998D01*
X3000000Y-1574998D01*
X3010000Y-1594998D01*
X2990000Y-1584998D01*
X2970000Y-1594998D01*
X3100000D02*
X3110000Y-1574998D01*
X3100000Y-1554998D01*
X3120000Y-1564998D01*
X3140000Y-1554998D01*
X3130000Y-1574998D01*
X3140000Y-1594998D01*
X3120000Y-1584998D01*
X3100000Y-1594998D01*
X3035000Y-1641665D02*
X3045000Y-1621665D01*
X3035000Y-1601665D01*
X3055000Y-1611665D01*
X3075000Y-1601665D01*
X3065000Y-1621665D01*
X3075000Y-1641665D01*
X3055000Y-1631665D01*
X3035000Y-1641665D01*
Y-1548332D02*
X3045000Y-1528332D01*
X3035000Y-1508332D01*
X3055000Y-1518332D01*
X3075000Y-1508332D01*
X3065000Y-1528332D01*
X3075000Y-1548332D01*
X3055000Y-1538332D01*
X3035000Y-1548332D01*
X3230000Y-1594998D02*
X3240000Y-1574998D01*
X3230000Y-1554998D01*
X3250000Y-1564998D01*
X3270000Y-1554998D01*
X3260000Y-1574998D01*
X3270000Y-1594998D01*
X3250000Y-1584998D01*
X3230000Y-1594998D01*
X3165000Y-1641665D02*
X3175000Y-1621665D01*
X3165000Y-1601665D01*
X3185000Y-1611665D01*
X3205000Y-1601665D01*
X3195000Y-1621665D01*
X3205000Y-1641665D01*
X3185000Y-1631665D01*
X3165000Y-1641665D01*
Y-1548332D02*
X3175000Y-1528332D01*
X3165000Y-1508332D01*
X3185000Y-1518332D01*
X3205000Y-1508332D01*
X3195000Y-1528332D01*
X3205000Y-1548332D01*
X3185000Y-1538332D01*
X3165000Y-1548332D01*
X3295000D02*
X3305000Y-1528332D01*
X3295000Y-1508332D01*
X3315000Y-1518332D01*
X3335000Y-1508332D01*
X3325000Y-1528332D01*
X3335000Y-1548332D01*
X3315000Y-1538332D01*
X3295000Y-1548332D01*
Y-1641665D02*
X3305000Y-1621665D01*
X3295000Y-1601665D01*
X3315000Y-1611665D01*
X3335000Y-1601665D01*
X3325000Y-1621665D01*
X3335000Y-1641665D01*
X3315000Y-1631665D01*
X3295000Y-1641665D01*
X3425000D02*
X3435000Y-1621665D01*
X3425000Y-1601665D01*
X3445000Y-1611665D01*
X3465000Y-1601665D01*
X3455000Y-1621665D01*
X3465000Y-1641665D01*
X3445000Y-1631665D01*
X3425000Y-1641665D01*
X3360000Y-1594998D02*
X3370000Y-1574998D01*
X3360000Y-1554998D01*
X3380000Y-1564998D01*
X3400000Y-1554998D01*
X3390000Y-1574998D01*
X3400000Y-1594998D01*
X3380000Y-1584998D01*
X3360000Y-1594998D01*
Y-2714997D02*
X3370000Y-2694997D01*
X3360000Y-2674997D01*
X3380000Y-2684997D01*
X3400000Y-2674997D01*
X3390000Y-2694997D01*
X3400000Y-2714997D01*
X3380000Y-2704997D01*
X3360000Y-2714997D01*
X3425000Y-2761663D02*
X3435000Y-2741663D01*
X3425000Y-2721663D01*
X3445000Y-2731663D01*
X3465000Y-2721663D01*
X3455000Y-2741663D01*
X3465000Y-2761663D01*
X3445000Y-2751663D01*
X3425000Y-2761663D01*
X3490000Y-2714997D02*
X3500000Y-2694997D01*
X3490000Y-2674997D01*
X3510000Y-2684997D01*
X3530000Y-2674997D01*
X3520000Y-2694997D01*
X3530000Y-2714997D01*
X3510000Y-2704997D01*
X3490000Y-2714997D01*
X3555000Y-2668330D02*
X3565000Y-2648330D01*
X3555000Y-2628330D01*
X3575000Y-2638330D01*
X3595000Y-2628330D01*
X3585000Y-2648330D01*
X3595000Y-2668330D01*
X3575000Y-2658330D01*
X3555000Y-2668330D01*
X3620000Y-2621664D02*
X3630000Y-2601664D01*
X3620000Y-2581664D01*
X3640000Y-2591664D01*
X3660000Y-2581664D01*
X3650000Y-2601664D01*
X3660000Y-2621664D01*
X3640000Y-2611664D01*
X3620000Y-2621664D01*
X3685000Y-2574997D02*
X3695000Y-2554997D01*
X3685000Y-2534997D01*
X3705000Y-2544997D01*
X3725000Y-2534997D01*
X3715000Y-2554997D01*
X3725000Y-2574997D01*
X3705000Y-2564997D01*
X3685000Y-2574997D01*
X3620000Y-2528330D02*
X3630000Y-2508330D01*
X3620000Y-2488330D01*
X3640000Y-2498330D01*
X3660000Y-2488330D01*
X3650000Y-2508330D01*
X3660000Y-2528330D01*
X3640000Y-2518330D01*
X3620000Y-2528330D01*
X3685000Y-2481664D02*
X3695000Y-2461664D01*
X3685000Y-2441664D01*
X3705000Y-2451664D01*
X3725000Y-2441664D01*
X3715000Y-2461664D01*
X3725000Y-2481664D01*
X3705000Y-2471664D01*
X3685000Y-2481664D01*
X3425000Y-1548332D02*
X3435000Y-1528332D01*
X3425000Y-1508332D01*
X3445000Y-1518332D01*
X3465000Y-1508332D01*
X3455000Y-1528332D01*
X3465000Y-1548332D01*
X3445000Y-1538332D01*
X3425000Y-1548332D01*
X3490000Y-1594998D02*
X3500000Y-1574998D01*
X3490000Y-1554998D01*
X3510000Y-1564998D01*
X3530000Y-1554998D01*
X3520000Y-1574998D01*
X3530000Y-1594998D01*
X3510000Y-1584998D01*
X3490000Y-1594998D01*
X3555000Y-1548332D02*
X3565000Y-1528332D01*
X3555000Y-1508332D01*
X3575000Y-1518332D01*
X3595000Y-1508332D01*
X3585000Y-1528332D01*
X3595000Y-1548332D01*
X3575000Y-1538332D01*
X3555000Y-1548332D01*
Y-1641665D02*
X3565000Y-1621665D01*
X3555000Y-1601665D01*
X3575000Y-1611665D01*
X3595000Y-1601665D01*
X3585000Y-1621665D01*
X3595000Y-1641665D01*
X3575000Y-1631665D01*
X3555000Y-1641665D01*
X3620000Y-1501665D02*
X3630000Y-1481665D01*
X3620000Y-1461665D01*
X3640000Y-1471665D01*
X3660000Y-1461665D01*
X3650000Y-1481665D01*
X3660000Y-1501665D01*
X3640000Y-1491665D01*
X3620000Y-1501665D01*
Y-1594998D02*
X3630000Y-1574998D01*
X3620000Y-1554998D01*
X3640000Y-1564998D01*
X3660000Y-1554998D01*
X3650000Y-1574998D01*
X3660000Y-1594998D01*
X3640000Y-1584998D01*
X3620000Y-1594998D01*
Y-1688332D02*
X3630000Y-1668332D01*
X3620000Y-1648332D01*
X3640000Y-1658332D01*
X3660000Y-1648332D01*
X3650000Y-1668332D01*
X3660000Y-1688332D01*
X3640000Y-1678332D01*
X3620000Y-1688332D01*
X3685000Y-1734998D02*
X3695000Y-1714998D01*
X3685000Y-1694998D01*
X3705000Y-1704998D01*
X3725000Y-1694998D01*
X3715000Y-1714998D01*
X3725000Y-1734998D01*
X3705000Y-1724998D01*
X3685000Y-1734998D01*
Y-1641665D02*
X3695000Y-1621665D01*
X3685000Y-1601665D01*
X3705000Y-1611665D01*
X3725000Y-1601665D01*
X3715000Y-1621665D01*
X3725000Y-1641665D01*
X3705000Y-1631665D01*
X3685000Y-1641665D01*
Y-1548332D02*
X3695000Y-1528332D01*
X3685000Y-1508332D01*
X3705000Y-1518332D01*
X3725000Y-1508332D01*
X3715000Y-1528332D01*
X3725000Y-1548332D01*
X3705000Y-1538332D01*
X3685000Y-1548332D01*
Y-1454999D02*
X3695000Y-1434999D01*
X3685000Y-1414999D01*
X3705000Y-1424999D01*
X3725000Y-1414999D01*
X3715000Y-1434999D01*
X3725000Y-1454999D01*
X3705000Y-1444999D01*
X3685000Y-1454999D01*
X3750000Y-2341664D02*
X3760000Y-2321664D01*
X3750000Y-2301664D01*
X3770000Y-2311664D01*
X3790000Y-2301664D01*
X3780000Y-2321664D01*
X3790000Y-2341664D01*
X3770000Y-2331664D01*
X3750000Y-2341664D01*
Y-2434997D02*
X3760000Y-2414997D01*
X3750000Y-2394997D01*
X3770000Y-2404997D01*
X3790000Y-2394997D01*
X3780000Y-2414997D01*
X3790000Y-2434997D01*
X3770000Y-2424997D01*
X3750000Y-2434997D01*
Y-2528330D02*
X3760000Y-2508330D01*
X3750000Y-2488330D01*
X3770000Y-2498330D01*
X3790000Y-2488330D01*
X3780000Y-2508330D01*
X3790000Y-2528330D01*
X3770000Y-2518330D01*
X3750000Y-2528330D01*
Y-1314999D02*
X3760000Y-1294999D01*
X3750000Y-1274999D01*
X3770000Y-1284999D01*
X3790000Y-1274999D01*
X3780000Y-1294999D01*
X3790000Y-1314999D01*
X3770000Y-1304999D01*
X3750000Y-1314999D01*
Y-1408332D02*
X3760000Y-1388332D01*
X3750000Y-1368332D01*
X3770000Y-1378332D01*
X3790000Y-1368332D01*
X3780000Y-1388332D01*
X3790000Y-1408332D01*
X3770000Y-1398332D01*
X3750000Y-1408332D01*
Y-1501665D02*
X3760000Y-1481665D01*
X3750000Y-1461665D01*
X3770000Y-1471665D01*
X3790000Y-1461665D01*
X3780000Y-1481665D01*
X3790000Y-1501665D01*
X3770000Y-1491665D01*
X3750000Y-1501665D01*
Y-1594998D02*
X3760000Y-1574998D01*
X3750000Y-1554998D01*
X3770000Y-1564998D01*
X3790000Y-1554998D01*
X3780000Y-1574998D01*
X3790000Y-1594998D01*
X3770000Y-1584998D01*
X3750000Y-1594998D01*
Y-1688332D02*
X3760000Y-1668332D01*
X3750000Y-1648332D01*
X3770000Y-1658332D01*
X3790000Y-1648332D01*
X3780000Y-1668332D01*
X3790000Y-1688332D01*
X3770000Y-1678332D01*
X3750000Y-1688332D01*
Y-1781665D02*
X3760000Y-1761665D01*
X3750000Y-1741665D01*
X3770000Y-1751665D01*
X3790000Y-1741665D01*
X3780000Y-1761665D01*
X3790000Y-1781665D01*
X3770000Y-1771665D01*
X3750000Y-1781665D01*
Y-1874998D02*
X3760000Y-1854998D01*
X3750000Y-1834998D01*
X3770000Y-1844998D01*
X3790000Y-1834998D01*
X3780000Y-1854998D01*
X3790000Y-1874998D01*
X3770000Y-1864998D01*
X3750000Y-1874998D01*
Y-475000D02*
X3760000Y-455000D01*
X3750000Y-435000D01*
X3770000Y-445000D01*
X3790000Y-435000D01*
X3780000Y-455000D01*
X3790000Y-475000D01*
X3770000Y-465000D01*
X3750000Y-475000D01*
Y-568333D02*
X3760000Y-548333D01*
X3750000Y-528333D01*
X3770000Y-538333D01*
X3790000Y-528333D01*
X3780000Y-548333D01*
X3790000Y-568333D01*
X3770000Y-558333D01*
X3750000Y-568333D01*
Y-1034999D02*
X3760000Y-1014999D01*
X3750000Y-994999D01*
X3770000Y-1004999D01*
X3790000Y-994999D01*
X3780000Y-1014999D01*
X3790000Y-1034999D01*
X3770000Y-1024999D01*
X3750000Y-1034999D01*
Y-1128332D02*
X3760000Y-1108332D01*
X3750000Y-1088332D01*
X3770000Y-1098332D01*
X3790000Y-1088332D01*
X3780000Y-1108332D01*
X3790000Y-1128332D01*
X3770000Y-1118332D01*
X3750000Y-1128332D01*
Y-1221666D02*
X3760000Y-1201666D01*
X3750000Y-1181666D01*
X3770000Y-1191666D01*
X3790000Y-1181666D01*
X3780000Y-1201666D01*
X3790000Y-1221666D01*
X3770000Y-1211666D01*
X3750000Y-1221666D01*
X3368330Y-885000D02*
X3378330Y-865000D01*
X3368330Y-845000D01*
X3388330Y-855000D01*
X3408330Y-845000D01*
X3398330Y-865000D01*
X3408330Y-885000D01*
X3388330Y-875000D01*
X3368330Y-885000D01*
X3321663Y-950000D02*
X3331663Y-930000D01*
X3321663Y-910000D01*
X3341663Y-920000D01*
X3361663Y-910000D01*
X3351663Y-930000D01*
X3361663Y-950000D01*
X3341663Y-940000D01*
X3321663Y-950000D01*
X3368330Y-755000D02*
X3378330Y-735000D01*
X3368330Y-715000D01*
X3388330Y-725000D01*
X3408330Y-715000D01*
X3398330Y-735000D01*
X3408330Y-755000D01*
X3388330Y-745000D01*
X3368330Y-755000D01*
X3208330Y-2000000D02*
X3218330Y-1980000D01*
X3208330Y-1960000D01*
X3228330Y-1970000D01*
X3248330Y-1960000D01*
X3238330Y-1980000D01*
X3248330Y-2000000D01*
X3228330Y-1990000D01*
X3208330Y-2000000D01*
X3254997Y-2065000D02*
X3264997Y-2045000D01*
X3254997Y-2025000D01*
X3274997Y-2035000D01*
X3294997Y-2025000D01*
X3284997Y-2045000D01*
X3294997Y-2065000D01*
X3274997Y-2055000D01*
X3254997Y-2065000D01*
X3348330D02*
X3358330Y-2045000D01*
X3348330Y-2025000D01*
X3368330Y-2035000D01*
X3388330Y-2025000D01*
X3378330Y-2045000D01*
X3388330Y-2065000D01*
X3368330Y-2055000D01*
X3348330Y-2065000D01*
X3301663Y-2130000D02*
X3311663Y-2110000D01*
X3301663Y-2090000D01*
X3321663Y-2100000D01*
X3341663Y-2090000D01*
X3331663Y-2110000D01*
X3341663Y-2130000D01*
X3321663Y-2120000D01*
X3301663Y-2130000D01*
X3208330D02*
X3218330Y-2110000D01*
X3208330Y-2090000D01*
X3228330Y-2100000D01*
X3248330Y-2090000D01*
X3238330Y-2110000D01*
X3248330Y-2130000D01*
X3228330Y-2120000D01*
X3208330Y-2130000D01*
X3161664Y-2065000D02*
X3171664Y-2045000D01*
X3161664Y-2025000D01*
X3181664Y-2035000D01*
X3201664Y-2025000D01*
X3191664Y-2045000D01*
X3201664Y-2065000D01*
X3181664Y-2055000D01*
X3161664Y-2065000D01*
X3254997Y-2325000D02*
X3264997Y-2305000D01*
X3254997Y-2285000D01*
X3274997Y-2295000D01*
X3294997Y-2285000D01*
X3284997Y-2305000D01*
X3294997Y-2325000D01*
X3274997Y-2315000D01*
X3254997Y-2325000D01*
X3208330Y-2260000D02*
X3218330Y-2240000D01*
X3208330Y-2220000D01*
X3228330Y-2230000D01*
X3248330Y-2220000D01*
X3238330Y-2240000D01*
X3248330Y-2260000D01*
X3228330Y-2250000D01*
X3208330Y-2260000D01*
Y-2390000D02*
X3218330Y-2370000D01*
X3208330Y-2350000D01*
X3228330Y-2360000D01*
X3248330Y-2350000D01*
X3238330Y-2370000D01*
X3248330Y-2390000D01*
X3228330Y-2380000D01*
X3208330Y-2390000D01*
X3161664Y-2325000D02*
X3171664Y-2305000D01*
X3161664Y-2285000D01*
X3181664Y-2295000D01*
X3201664Y-2285000D01*
X3191664Y-2305000D01*
X3201664Y-2325000D01*
X3181664Y-2315000D01*
X3161664Y-2325000D01*
X3114997Y-2390000D02*
X3124997Y-2370000D01*
X3114997Y-2350000D01*
X3134997Y-2360000D01*
X3154997Y-2350000D01*
X3144997Y-2370000D01*
X3154997Y-2390000D01*
X3134997Y-2380000D01*
X3114997Y-2390000D01*
X3068330Y-2325000D02*
X3078330Y-2305000D01*
X3068330Y-2285000D01*
X3088330Y-2295000D01*
X3108330Y-2285000D01*
X3098330Y-2305000D01*
X3108330Y-2325000D01*
X3088330Y-2315000D01*
X3068330Y-2325000D01*
X3161664Y-2195000D02*
X3171664Y-2175000D01*
X3161664Y-2155000D01*
X3181664Y-2165000D01*
X3201664Y-2155000D01*
X3191664Y-2175000D01*
X3201664Y-2195000D01*
X3181664Y-2185000D01*
X3161664Y-2195000D01*
X3114997Y-2260000D02*
X3124997Y-2240000D01*
X3114997Y-2220000D01*
X3134997Y-2230000D01*
X3154997Y-2220000D01*
X3144997Y-2240000D01*
X3154997Y-2260000D01*
X3134997Y-2250000D01*
X3114997Y-2260000D01*
Y-2130000D02*
X3124997Y-2110000D01*
X3114997Y-2090000D01*
X3134997Y-2100000D01*
X3154997Y-2090000D01*
X3144997Y-2110000D01*
X3154997Y-2130000D01*
X3134997Y-2120000D01*
X3114997Y-2130000D01*
X3068330Y-2195000D02*
X3078330Y-2175000D01*
X3068330Y-2155000D01*
X3088330Y-2165000D01*
X3108330Y-2155000D01*
X3098330Y-2175000D01*
X3108330Y-2195000D01*
X3088330Y-2185000D01*
X3068330Y-2195000D01*
X3021664Y-2260000D02*
X3031664Y-2240000D01*
X3021664Y-2220000D01*
X3041664Y-2230000D01*
X3061664Y-2220000D01*
X3051664Y-2240000D01*
X3061664Y-2260000D01*
X3041664Y-2250000D01*
X3021664Y-2260000D01*
X2974997Y-2195000D02*
X2984997Y-2175000D01*
X2974997Y-2155000D01*
X2994997Y-2165000D01*
X3014997Y-2155000D01*
X3004997Y-2175000D01*
X3014997Y-2195000D01*
X2994997Y-2185000D01*
X2974997Y-2195000D01*
X3021664Y-2130000D02*
X3031664Y-2110000D01*
X3021664Y-2090000D01*
X3041664Y-2100000D01*
X3061664Y-2090000D01*
X3051664Y-2110000D01*
X3061664Y-2130000D01*
X3041664Y-2120000D01*
X3021664Y-2130000D01*
X2928331D02*
X2938331Y-2110000D01*
X2928331Y-2090000D01*
X2948331Y-2100000D01*
X2968331Y-2090000D01*
X2958331Y-2110000D01*
X2968331Y-2130000D01*
X2948331Y-2120000D01*
X2928331Y-2130000D01*
X3021664Y-2390000D02*
X3031664Y-2370000D01*
X3021664Y-2350000D01*
X3041664Y-2360000D01*
X3061664Y-2350000D01*
X3051664Y-2370000D01*
X3061664Y-2390000D01*
X3041664Y-2380000D01*
X3021664Y-2390000D01*
X2974997Y-2325000D02*
X2984997Y-2305000D01*
X2974997Y-2285000D01*
X2994997Y-2295000D01*
X3014997Y-2285000D01*
X3004997Y-2305000D01*
X3014997Y-2325000D01*
X2994997Y-2315000D01*
X2974997Y-2325000D01*
X2928331Y-2260000D02*
X2938331Y-2240000D01*
X2928331Y-2220000D01*
X2948331Y-2230000D01*
X2968331Y-2220000D01*
X2958331Y-2240000D01*
X2968331Y-2260000D01*
X2948331Y-2250000D01*
X2928331Y-2260000D01*
Y-2390000D02*
X2938331Y-2370000D01*
X2928331Y-2350000D01*
X2948331Y-2360000D01*
X2968331Y-2350000D01*
X2958331Y-2370000D01*
X2968331Y-2390000D01*
X2948331Y-2380000D01*
X2928331Y-2390000D01*
X2881664Y-2325000D02*
X2891664Y-2305000D01*
X2881664Y-2285000D01*
X2901664Y-2295000D01*
X2921664Y-2285000D01*
X2911664Y-2305000D01*
X2921664Y-2325000D01*
X2901664Y-2315000D01*
X2881664Y-2325000D01*
X2834997Y-2390000D02*
X2844997Y-2370000D01*
X2834997Y-2350000D01*
X2854997Y-2360000D01*
X2874997Y-2350000D01*
X2864997Y-2370000D01*
X2874997Y-2390000D01*
X2854997Y-2380000D01*
X2834997Y-2390000D01*
X2881664Y-2195000D02*
X2891664Y-2175000D01*
X2881664Y-2155000D01*
X2901664Y-2165000D01*
X2921664Y-2155000D01*
X2911664Y-2175000D01*
X2921664Y-2195000D01*
X2901664Y-2185000D01*
X2881664Y-2195000D01*
X2834997Y-2260000D02*
X2844997Y-2240000D01*
X2834997Y-2220000D01*
X2854997Y-2230000D01*
X2874997Y-2220000D01*
X2864997Y-2240000D01*
X2874997Y-2260000D01*
X2854997Y-2250000D01*
X2834997Y-2260000D01*
Y-2130000D02*
X2844997Y-2110000D01*
X2834997Y-2090000D01*
X2854997Y-2100000D01*
X2874997Y-2090000D01*
X2864997Y-2110000D01*
X2874997Y-2130000D01*
X2854997Y-2120000D01*
X2834997Y-2130000D01*
X2788331Y-2195000D02*
X2798331Y-2175000D01*
X2788331Y-2155000D01*
X2808331Y-2165000D01*
X2828331Y-2155000D01*
X2818331Y-2175000D01*
X2828331Y-2195000D01*
X2808331Y-2185000D01*
X2788331Y-2195000D01*
X2741664Y-2130000D02*
X2751664Y-2110000D01*
X2741664Y-2090000D01*
X2761664Y-2100000D01*
X2781664Y-2090000D01*
X2771664Y-2110000D01*
X2781664Y-2130000D01*
X2761664Y-2120000D01*
X2741664Y-2130000D01*
X2648331D02*
X2658331Y-2110000D01*
X2648331Y-2090000D01*
X2668331Y-2100000D01*
X2688331Y-2090000D01*
X2678331Y-2110000D01*
X2688331Y-2130000D01*
X2668331Y-2120000D01*
X2648331Y-2130000D01*
X2788331Y-2325000D02*
X2798331Y-2305000D01*
X2788331Y-2285000D01*
X2808331Y-2295000D01*
X2828331Y-2285000D01*
X2818331Y-2305000D01*
X2828331Y-2325000D01*
X2808331Y-2315000D01*
X2788331Y-2325000D01*
X2741664Y-2260000D02*
X2751664Y-2240000D01*
X2741664Y-2220000D01*
X2761664Y-2230000D01*
X2781664Y-2220000D01*
X2771664Y-2240000D01*
X2781664Y-2260000D01*
X2761664Y-2250000D01*
X2741664Y-2260000D01*
Y-2390000D02*
X2751664Y-2370000D01*
X2741664Y-2350000D01*
X2761664Y-2360000D01*
X2781664Y-2350000D01*
X2771664Y-2370000D01*
X2781664Y-2390000D01*
X2761664Y-2380000D01*
X2741664Y-2390000D01*
X2694998Y-2325000D02*
X2704998Y-2305000D01*
X2694998Y-2285000D01*
X2714998Y-2295000D01*
X2734998Y-2285000D01*
X2724998Y-2305000D01*
X2734998Y-2325000D01*
X2714998Y-2315000D01*
X2694998Y-2325000D01*
X2648331Y-2390000D02*
X2658331Y-2370000D01*
X2648331Y-2350000D01*
X2668331Y-2360000D01*
X2688331Y-2350000D01*
X2678331Y-2370000D01*
X2688331Y-2390000D01*
X2668331Y-2380000D01*
X2648331Y-2390000D01*
X2601664Y-2325000D02*
X2611664Y-2305000D01*
X2601664Y-2285000D01*
X2621664Y-2295000D01*
X2641664Y-2285000D01*
X2631664Y-2305000D01*
X2641664Y-2325000D01*
X2621664Y-2315000D01*
X2601664Y-2325000D01*
X2694998Y-2195000D02*
X2704998Y-2175000D01*
X2694998Y-2155000D01*
X2714998Y-2165000D01*
X2734998Y-2155000D01*
X2724998Y-2175000D01*
X2734998Y-2195000D01*
X2714998Y-2185000D01*
X2694998Y-2195000D01*
X2648331Y-2260000D02*
X2658331Y-2240000D01*
X2648331Y-2220000D01*
X2668331Y-2230000D01*
X2688331Y-2220000D01*
X2678331Y-2240000D01*
X2688331Y-2260000D01*
X2668331Y-2250000D01*
X2648331Y-2260000D01*
X2601664Y-2195000D02*
X2611664Y-2175000D01*
X2601664Y-2155000D01*
X2621664Y-2165000D01*
X2641664Y-2155000D01*
X2631664Y-2175000D01*
X2641664Y-2195000D01*
X2621664Y-2185000D01*
X2601664Y-2195000D01*
X2554998Y-2260000D02*
X2564998Y-2240000D01*
X2554998Y-2220000D01*
X2574998Y-2230000D01*
X2594998Y-2220000D01*
X2584998Y-2240000D01*
X2594998Y-2260000D01*
X2574998Y-2250000D01*
X2554998Y-2260000D01*
X2508331Y-2195000D02*
X2518331Y-2175000D01*
X2508331Y-2155000D01*
X2528331Y-2165000D01*
X2548331Y-2155000D01*
X2538331Y-2175000D01*
X2548331Y-2195000D01*
X2528331Y-2185000D01*
X2508331Y-2195000D01*
X2554998Y-2130000D02*
X2564998Y-2110000D01*
X2554998Y-2090000D01*
X2574998Y-2100000D01*
X2594998Y-2090000D01*
X2584998Y-2110000D01*
X2594998Y-2130000D01*
X2574998Y-2120000D01*
X2554998Y-2130000D01*
X2461665D02*
X2471665Y-2110000D01*
X2461665Y-2090000D01*
X2481665Y-2100000D01*
X2501665Y-2090000D01*
X2491665Y-2110000D01*
X2501665Y-2130000D01*
X2481665Y-2120000D01*
X2461665Y-2130000D01*
X2554998Y-2390000D02*
X2564998Y-2370000D01*
X2554998Y-2350000D01*
X2574998Y-2360000D01*
X2594998Y-2350000D01*
X2584998Y-2370000D01*
X2594998Y-2390000D01*
X2574998Y-2380000D01*
X2554998Y-2390000D01*
X2508331Y-2325000D02*
X2518331Y-2305000D01*
X2508331Y-2285000D01*
X2528331Y-2295000D01*
X2548331Y-2285000D01*
X2538331Y-2305000D01*
X2548331Y-2325000D01*
X2528331Y-2315000D01*
X2508331Y-2325000D01*
X2461665Y-2260000D02*
X2471665Y-2240000D01*
X2461665Y-2220000D01*
X2481665Y-2230000D01*
X2501665Y-2220000D01*
X2491665Y-2240000D01*
X2501665Y-2260000D01*
X2481665Y-2250000D01*
X2461665Y-2260000D01*
Y-2390000D02*
X2471665Y-2370000D01*
X2461665Y-2350000D01*
X2481665Y-2360000D01*
X2501665Y-2350000D01*
X2491665Y-2370000D01*
X2501665Y-2390000D01*
X2481665Y-2380000D01*
X2461665Y-2390000D01*
X2414998Y-2325000D02*
X2424998Y-2305000D01*
X2414998Y-2285000D01*
X2434998Y-2295000D01*
X2454998Y-2285000D01*
X2444998Y-2305000D01*
X2454998Y-2325000D01*
X2434998Y-2315000D01*
X2414998Y-2325000D01*
X2368331Y-2390000D02*
X2378331Y-2370000D01*
X2368331Y-2350000D01*
X2388331Y-2360000D01*
X2408331Y-2350000D01*
X2398331Y-2370000D01*
X2408331Y-2390000D01*
X2388331Y-2380000D01*
X2368331Y-2390000D01*
X2321665Y-2325000D02*
X2331665Y-2305000D01*
X2321665Y-2285000D01*
X2341665Y-2295000D01*
X2361665Y-2285000D01*
X2351665Y-2305000D01*
X2361665Y-2325000D01*
X2341665Y-2315000D01*
X2321665Y-2325000D01*
X2414998Y-2195000D02*
X2424998Y-2175000D01*
X2414998Y-2155000D01*
X2434998Y-2165000D01*
X2454998Y-2155000D01*
X2444998Y-2175000D01*
X2454998Y-2195000D01*
X2434998Y-2185000D01*
X2414998Y-2195000D01*
X2368331Y-2260000D02*
X2378331Y-2240000D01*
X2368331Y-2220000D01*
X2388331Y-2230000D01*
X2408331Y-2220000D01*
X2398331Y-2240000D01*
X2408331Y-2260000D01*
X2388331Y-2250000D01*
X2368331Y-2260000D01*
Y-2130000D02*
X2378331Y-2110000D01*
X2368331Y-2090000D01*
X2388331Y-2100000D01*
X2408331Y-2090000D01*
X2398331Y-2110000D01*
X2408331Y-2130000D01*
X2388331Y-2120000D01*
X2368331Y-2130000D01*
X2321665Y-2195000D02*
X2331665Y-2175000D01*
X2321665Y-2155000D01*
X2341665Y-2165000D01*
X2361665Y-2155000D01*
X2351665Y-2175000D01*
X2361665Y-2195000D01*
X2341665Y-2185000D01*
X2321665Y-2195000D01*
X2274998Y-2260000D02*
X2284998Y-2240000D01*
X2274998Y-2220000D01*
X2294998Y-2230000D01*
X2314998Y-2220000D01*
X2304998Y-2240000D01*
X2314998Y-2260000D01*
X2294998Y-2250000D01*
X2274998Y-2260000D01*
X2228332Y-2195000D02*
X2238332Y-2175000D01*
X2228332Y-2155000D01*
X2248332Y-2165000D01*
X2268332Y-2155000D01*
X2258332Y-2175000D01*
X2268332Y-2195000D01*
X2248332Y-2185000D01*
X2228332Y-2195000D01*
X2274998Y-2130000D02*
X2284998Y-2110000D01*
X2274998Y-2090000D01*
X2294998Y-2100000D01*
X2314998Y-2090000D01*
X2304998Y-2110000D01*
X2314998Y-2130000D01*
X2294998Y-2120000D01*
X2274998Y-2130000D01*
X2181665D02*
X2191665Y-2110000D01*
X2181665Y-2090000D01*
X2201665Y-2100000D01*
X2221665Y-2090000D01*
X2211665Y-2110000D01*
X2221665Y-2130000D01*
X2201665Y-2120000D01*
X2181665Y-2130000D01*
X2274998Y-2390000D02*
X2284998Y-2370000D01*
X2274998Y-2350000D01*
X2294998Y-2360000D01*
X2314998Y-2350000D01*
X2304998Y-2370000D01*
X2314998Y-2390000D01*
X2294998Y-2380000D01*
X2274998Y-2390000D01*
X2228332Y-2325000D02*
X2238332Y-2305000D01*
X2228332Y-2285000D01*
X2248332Y-2295000D01*
X2268332Y-2285000D01*
X2258332Y-2305000D01*
X2268332Y-2325000D01*
X2248332Y-2315000D01*
X2228332Y-2325000D01*
X2181665Y-2260000D02*
X2191665Y-2240000D01*
X2181665Y-2220000D01*
X2201665Y-2230000D01*
X2221665Y-2220000D01*
X2211665Y-2240000D01*
X2221665Y-2260000D01*
X2201665Y-2250000D01*
X2181665Y-2260000D01*
Y-2390000D02*
X2191665Y-2370000D01*
X2181665Y-2350000D01*
X2201665Y-2360000D01*
X2221665Y-2350000D01*
X2211665Y-2370000D01*
X2221665Y-2390000D01*
X2201665Y-2380000D01*
X2181665Y-2390000D01*
X2134998Y-2325000D02*
X2144998Y-2305000D01*
X2134998Y-2285000D01*
X2154998Y-2295000D01*
X2174998Y-2285000D01*
X2164998Y-2305000D01*
X2174998Y-2325000D01*
X2154998Y-2315000D01*
X2134998Y-2325000D01*
X2088332Y-2390000D02*
X2098332Y-2370000D01*
X2088332Y-2350000D01*
X2108332Y-2360000D01*
X2128332Y-2350000D01*
X2118332Y-2370000D01*
X2128332Y-2390000D01*
X2108332Y-2380000D01*
X2088332Y-2390000D01*
X2041665Y-2325000D02*
X2051665Y-2305000D01*
X2041665Y-2285000D01*
X2061665Y-2295000D01*
X2081665Y-2285000D01*
X2071665Y-2305000D01*
X2081665Y-2325000D01*
X2061665Y-2315000D01*
X2041665Y-2325000D01*
X2134998Y-2195000D02*
X2144998Y-2175000D01*
X2134998Y-2155000D01*
X2154998Y-2165000D01*
X2174998Y-2155000D01*
X2164998Y-2175000D01*
X2174998Y-2195000D01*
X2154998Y-2185000D01*
X2134998Y-2195000D01*
X2088332Y-2260000D02*
X2098332Y-2240000D01*
X2088332Y-2220000D01*
X2108332Y-2230000D01*
X2128332Y-2220000D01*
X2118332Y-2240000D01*
X2128332Y-2260000D01*
X2108332Y-2250000D01*
X2088332Y-2260000D01*
Y-2130000D02*
X2098332Y-2110000D01*
X2088332Y-2090000D01*
X2108332Y-2100000D01*
X2128332Y-2090000D01*
X2118332Y-2110000D01*
X2128332Y-2130000D01*
X2108332Y-2120000D01*
X2088332Y-2130000D01*
X2041665Y-2195000D02*
X2051665Y-2175000D01*
X2041665Y-2155000D01*
X2061665Y-2165000D01*
X2081665Y-2155000D01*
X2071665Y-2175000D01*
X2081665Y-2195000D01*
X2061665Y-2185000D01*
X2041665Y-2195000D01*
X1994999Y-2260000D02*
X2004999Y-2240000D01*
X1994999Y-2220000D01*
X2014999Y-2230000D01*
X2034999Y-2220000D01*
X2024999Y-2240000D01*
X2034999Y-2260000D01*
X2014999Y-2250000D01*
X1994999Y-2260000D01*
X1948332Y-2195000D02*
X1958332Y-2175000D01*
X1948332Y-2155000D01*
X1968332Y-2165000D01*
X1988332Y-2155000D01*
X1978332Y-2175000D01*
X1988332Y-2195000D01*
X1968332Y-2185000D01*
X1948332Y-2195000D01*
X1994999Y-2130000D02*
X2004999Y-2110000D01*
X1994999Y-2090000D01*
X2014999Y-2100000D01*
X2034999Y-2090000D01*
X2024999Y-2110000D01*
X2034999Y-2130000D01*
X2014999Y-2120000D01*
X1994999Y-2130000D01*
X1901665D02*
X1911665Y-2110000D01*
X1901665Y-2090000D01*
X1921665Y-2100000D01*
X1941665Y-2090000D01*
X1931665Y-2110000D01*
X1941665Y-2130000D01*
X1921665Y-2120000D01*
X1901665Y-2130000D01*
X1994999Y-2390000D02*
X2004999Y-2370000D01*
X1994999Y-2350000D01*
X2014999Y-2360000D01*
X2034999Y-2350000D01*
X2024999Y-2370000D01*
X2034999Y-2390000D01*
X2014999Y-2380000D01*
X1994999Y-2390000D01*
X1948332Y-2325000D02*
X1958332Y-2305000D01*
X1948332Y-2285000D01*
X1968332Y-2295000D01*
X1988332Y-2285000D01*
X1978332Y-2305000D01*
X1988332Y-2325000D01*
X1968332Y-2315000D01*
X1948332Y-2325000D01*
X1901665Y-2260000D02*
X1911665Y-2240000D01*
X1901665Y-2220000D01*
X1921665Y-2230000D01*
X1941665Y-2220000D01*
X1931665Y-2240000D01*
X1941665Y-2260000D01*
X1921665Y-2250000D01*
X1901665Y-2260000D01*
Y-2390000D02*
X1911665Y-2370000D01*
X1901665Y-2350000D01*
X1921665Y-2360000D01*
X1941665Y-2350000D01*
X1931665Y-2370000D01*
X1941665Y-2390000D01*
X1921665Y-2380000D01*
X1901665Y-2390000D01*
X1854999Y-2325000D02*
X1864999Y-2305000D01*
X1854999Y-2285000D01*
X1874999Y-2295000D01*
X1894999Y-2285000D01*
X1884999Y-2305000D01*
X1894999Y-2325000D01*
X1874999Y-2315000D01*
X1854999Y-2325000D01*
X1808332Y-2390000D02*
X1818332Y-2370000D01*
X1808332Y-2350000D01*
X1828332Y-2360000D01*
X1848332Y-2350000D01*
X1838332Y-2370000D01*
X1848332Y-2390000D01*
X1828332Y-2380000D01*
X1808332Y-2390000D01*
X1761666Y-2325000D02*
X1771666Y-2305000D01*
X1761666Y-2285000D01*
X1781666Y-2295000D01*
X1801666Y-2285000D01*
X1791666Y-2305000D01*
X1801666Y-2325000D01*
X1781666Y-2315000D01*
X1761666Y-2325000D01*
X1854999Y-2195000D02*
X1864999Y-2175000D01*
X1854999Y-2155000D01*
X1874999Y-2165000D01*
X1894999Y-2155000D01*
X1884999Y-2175000D01*
X1894999Y-2195000D01*
X1874999Y-2185000D01*
X1854999Y-2195000D01*
X1808332Y-2260000D02*
X1818332Y-2240000D01*
X1808332Y-2220000D01*
X1828332Y-2230000D01*
X1848332Y-2220000D01*
X1838332Y-2240000D01*
X1848332Y-2260000D01*
X1828332Y-2250000D01*
X1808332Y-2260000D01*
Y-2130000D02*
X1818332Y-2110000D01*
X1808332Y-2090000D01*
X1828332Y-2100000D01*
X1848332Y-2090000D01*
X1838332Y-2110000D01*
X1848332Y-2130000D01*
X1828332Y-2120000D01*
X1808332Y-2130000D01*
X1761666Y-2195000D02*
X1771666Y-2175000D01*
X1761666Y-2155000D01*
X1781666Y-2165000D01*
X1801666Y-2155000D01*
X1791666Y-2175000D01*
X1801666Y-2195000D01*
X1781666Y-2185000D01*
X1761666Y-2195000D01*
X1714999Y-2260000D02*
X1724999Y-2240000D01*
X1714999Y-2220000D01*
X1734999Y-2230000D01*
X1754999Y-2220000D01*
X1744999Y-2240000D01*
X1754999Y-2260000D01*
X1734999Y-2250000D01*
X1714999Y-2260000D01*
X1668332Y-2195000D02*
X1678332Y-2175000D01*
X1668332Y-2155000D01*
X1688332Y-2165000D01*
X1708332Y-2155000D01*
X1698332Y-2175000D01*
X1708332Y-2195000D01*
X1688332Y-2185000D01*
X1668332Y-2195000D01*
X1714999Y-2130000D02*
X1724999Y-2110000D01*
X1714999Y-2090000D01*
X1734999Y-2100000D01*
X1754999Y-2090000D01*
X1744999Y-2110000D01*
X1754999Y-2130000D01*
X1734999Y-2120000D01*
X1714999Y-2130000D01*
X1621666D02*
X1631666Y-2110000D01*
X1621666Y-2090000D01*
X1641666Y-2100000D01*
X1661666Y-2090000D01*
X1651666Y-2110000D01*
X1661666Y-2130000D01*
X1641666Y-2120000D01*
X1621666Y-2130000D01*
X1714999Y-2390000D02*
X1724999Y-2370000D01*
X1714999Y-2350000D01*
X1734999Y-2360000D01*
X1754999Y-2350000D01*
X1744999Y-2370000D01*
X1754999Y-2390000D01*
X1734999Y-2380000D01*
X1714999Y-2390000D01*
X1668332Y-2325000D02*
X1678332Y-2305000D01*
X1668332Y-2285000D01*
X1688332Y-2295000D01*
X1708332Y-2285000D01*
X1698332Y-2305000D01*
X1708332Y-2325000D01*
X1688332Y-2315000D01*
X1668332Y-2325000D01*
X1621666Y-2260000D02*
X1631666Y-2240000D01*
X1621666Y-2220000D01*
X1641666Y-2230000D01*
X1661666Y-2220000D01*
X1651666Y-2240000D01*
X1661666Y-2260000D01*
X1641666Y-2250000D01*
X1621666Y-2260000D01*
Y-2390000D02*
X1631666Y-2370000D01*
X1621666Y-2350000D01*
X1641666Y-2360000D01*
X1661666Y-2350000D01*
X1651666Y-2370000D01*
X1661666Y-2390000D01*
X1641666Y-2380000D01*
X1621666Y-2390000D01*
X1574999Y-2325000D02*
X1584999Y-2305000D01*
X1574999Y-2285000D01*
X1594999Y-2295000D01*
X1614999Y-2285000D01*
X1604999Y-2305000D01*
X1614999Y-2325000D01*
X1594999Y-2315000D01*
X1574999Y-2325000D01*
X1528333Y-2390000D02*
X1538333Y-2370000D01*
X1528333Y-2350000D01*
X1548333Y-2360000D01*
X1568333Y-2350000D01*
X1558333Y-2370000D01*
X1568333Y-2390000D01*
X1548333Y-2380000D01*
X1528333Y-2390000D01*
X1481666Y-2325000D02*
X1491666Y-2305000D01*
X1481666Y-2285000D01*
X1501666Y-2295000D01*
X1521666Y-2285000D01*
X1511666Y-2305000D01*
X1521666Y-2325000D01*
X1501666Y-2315000D01*
X1481666Y-2325000D01*
X1574999Y-2195000D02*
X1584999Y-2175000D01*
X1574999Y-2155000D01*
X1594999Y-2165000D01*
X1614999Y-2155000D01*
X1604999Y-2175000D01*
X1614999Y-2195000D01*
X1594999Y-2185000D01*
X1574999Y-2195000D01*
X1528333Y-2130000D02*
X1538333Y-2110000D01*
X1528333Y-2090000D01*
X1548333Y-2100000D01*
X1568333Y-2090000D01*
X1558333Y-2110000D01*
X1568333Y-2130000D01*
X1548333Y-2120000D01*
X1528333Y-2130000D01*
X1481666Y-2195000D02*
X1491666Y-2175000D01*
X1481666Y-2155000D01*
X1501666Y-2165000D01*
X1521666Y-2155000D01*
X1511666Y-2175000D01*
X1521666Y-2195000D01*
X1501666Y-2185000D01*
X1481666Y-2195000D01*
X1434999Y-2260000D02*
X1444999Y-2240000D01*
X1434999Y-2220000D01*
X1454999Y-2230000D01*
X1474999Y-2220000D01*
X1464999Y-2240000D01*
X1474999Y-2260000D01*
X1454999Y-2250000D01*
X1434999Y-2260000D01*
X1388333Y-2195000D02*
X1398333Y-2175000D01*
X1388333Y-2155000D01*
X1408333Y-2165000D01*
X1428333Y-2155000D01*
X1418333Y-2175000D01*
X1428333Y-2195000D01*
X1408333Y-2185000D01*
X1388333Y-2195000D01*
X1434999Y-2130000D02*
X1444999Y-2110000D01*
X1434999Y-2090000D01*
X1454999Y-2100000D01*
X1474999Y-2090000D01*
X1464999Y-2110000D01*
X1474999Y-2130000D01*
X1454999Y-2120000D01*
X1434999Y-2130000D01*
X1341666D02*
X1351666Y-2110000D01*
X1341666Y-2090000D01*
X1361666Y-2100000D01*
X1381666Y-2090000D01*
X1371666Y-2110000D01*
X1381666Y-2130000D01*
X1361666Y-2120000D01*
X1341666Y-2130000D01*
X3379997Y-3195000D02*
X3389997Y-3175000D01*
X3379997Y-3155000D01*
X3399997Y-3165000D01*
X3419997Y-3155000D01*
X3409997Y-3175000D01*
X3419997Y-3195000D01*
X3399997Y-3185000D01*
X3379997Y-3195000D01*
X3333330Y-3260000D02*
X3343330Y-3240000D01*
X3333330Y-3220000D01*
X3353330Y-3230000D01*
X3373330Y-3220000D01*
X3363330Y-3240000D01*
X3373330Y-3260000D01*
X3353330Y-3250000D01*
X3333330Y-3260000D01*
X3426663D02*
X3436663Y-3240000D01*
X3426663Y-3220000D01*
X3446663Y-3230000D01*
X3466663Y-3220000D01*
X3456663Y-3240000D01*
X3466663Y-3260000D01*
X3446663Y-3250000D01*
X3426663Y-3260000D01*
X3379997Y-3325000D02*
X3389997Y-3305000D01*
X3379997Y-3285000D01*
X3399997Y-3295000D01*
X3419997Y-3285000D01*
X3409997Y-3305000D01*
X3419997Y-3325000D01*
X3399997Y-3315000D01*
X3379997Y-3325000D01*
X3426663Y-3390000D02*
X3436663Y-3370000D01*
X3426663Y-3350000D01*
X3446663Y-3360000D01*
X3466663Y-3350000D01*
X3456663Y-3370000D01*
X3466663Y-3390000D01*
X3446663Y-3380000D01*
X3426663Y-3390000D01*
X3379997Y-3455000D02*
X3389997Y-3435000D01*
X3379997Y-3415000D01*
X3399997Y-3425000D01*
X3419997Y-3415000D01*
X3409997Y-3435000D01*
X3419997Y-3455000D01*
X3399997Y-3445000D01*
X3379997Y-3455000D01*
X3286663Y-3325000D02*
X3296663Y-3305000D01*
X3286663Y-3285000D01*
X3306663Y-3295000D01*
X3326663Y-3285000D01*
X3316663Y-3305000D01*
X3326663Y-3325000D01*
X3306663Y-3315000D01*
X3286663Y-3325000D01*
X3239997Y-3260000D02*
X3249997Y-3240000D01*
X3239997Y-3220000D01*
X3259997Y-3230000D01*
X3279997Y-3220000D01*
X3269997Y-3240000D01*
X3279997Y-3260000D01*
X3259997Y-3250000D01*
X3239997Y-3260000D01*
X3193330Y-3195000D02*
X3203330Y-3175000D01*
X3193330Y-3155000D01*
X3213330Y-3165000D01*
X3233330Y-3155000D01*
X3223330Y-3175000D01*
X3233330Y-3195000D01*
X3213330Y-3185000D01*
X3193330Y-3195000D01*
X3146664Y-3260000D02*
X3156664Y-3240000D01*
X3146664Y-3220000D01*
X3166664Y-3230000D01*
X3186664Y-3220000D01*
X3176664Y-3240000D01*
X3186664Y-3260000D01*
X3166664Y-3250000D01*
X3146664Y-3260000D01*
X3333330Y-3520000D02*
X3343330Y-3500000D01*
X3333330Y-3480000D01*
X3353330Y-3490000D01*
X3373330Y-3480000D01*
X3363330Y-3500000D01*
X3373330Y-3520000D01*
X3353330Y-3510000D01*
X3333330Y-3520000D01*
X3286663Y-3455000D02*
X3296663Y-3435000D01*
X3286663Y-3415000D01*
X3306663Y-3425000D01*
X3326663Y-3415000D01*
X3316663Y-3435000D01*
X3326663Y-3455000D01*
X3306663Y-3445000D01*
X3286663Y-3455000D01*
X3239997Y-3390000D02*
X3249997Y-3370000D01*
X3239997Y-3350000D01*
X3259997Y-3360000D01*
X3279997Y-3350000D01*
X3269997Y-3370000D01*
X3279997Y-3390000D01*
X3259997Y-3380000D01*
X3239997Y-3390000D01*
X3193330Y-3325000D02*
X3203330Y-3305000D01*
X3193330Y-3285000D01*
X3213330Y-3295000D01*
X3233330Y-3285000D01*
X3223330Y-3305000D01*
X3233330Y-3325000D01*
X3213330Y-3315000D01*
X3193330Y-3325000D01*
X3286663Y-3585000D02*
X3296663Y-3565000D01*
X3286663Y-3545000D01*
X3306663Y-3555000D01*
X3326663Y-3545000D01*
X3316663Y-3565000D01*
X3326663Y-3585000D01*
X3306663Y-3575000D01*
X3286663Y-3585000D01*
X3239997Y-3520000D02*
X3249997Y-3500000D01*
X3239997Y-3480000D01*
X3259997Y-3490000D01*
X3279997Y-3480000D01*
X3269997Y-3500000D01*
X3279997Y-3520000D01*
X3259997Y-3510000D01*
X3239997Y-3520000D01*
X3193330Y-3455000D02*
X3203330Y-3435000D01*
X3193330Y-3415000D01*
X3213330Y-3425000D01*
X3233330Y-3415000D01*
X3223330Y-3435000D01*
X3233330Y-3455000D01*
X3213330Y-3445000D01*
X3193330Y-3455000D01*
X3146664Y-3390000D02*
X3156664Y-3370000D01*
X3146664Y-3350000D01*
X3166664Y-3360000D01*
X3186664Y-3350000D01*
X3176664Y-3370000D01*
X3186664Y-3390000D01*
X3166664Y-3380000D01*
X3146664Y-3390000D01*
X3099997Y-3325000D02*
X3109997Y-3305000D01*
X3099997Y-3285000D01*
X3119997Y-3295000D01*
X3139997Y-3285000D01*
X3129997Y-3305000D01*
X3139997Y-3325000D01*
X3119997Y-3315000D01*
X3099997Y-3325000D01*
X3193330Y-3585000D02*
X3203330Y-3565000D01*
X3193330Y-3545000D01*
X3213330Y-3555000D01*
X3233330Y-3545000D01*
X3223330Y-3565000D01*
X3233330Y-3585000D01*
X3213330Y-3575000D01*
X3193330Y-3585000D01*
X3146664Y-3520000D02*
X3156664Y-3500000D01*
X3146664Y-3480000D01*
X3166664Y-3490000D01*
X3186664Y-3480000D01*
X3176664Y-3500000D01*
X3186664Y-3520000D01*
X3166664Y-3510000D01*
X3146664Y-3520000D01*
X3099997Y-3455000D02*
X3109997Y-3435000D01*
X3099997Y-3415000D01*
X3119997Y-3425000D01*
X3139997Y-3415000D01*
X3129997Y-3435000D01*
X3139997Y-3455000D01*
X3119997Y-3445000D01*
X3099997Y-3455000D01*
X3053330Y-3390000D02*
X3063330Y-3370000D01*
X3053330Y-3350000D01*
X3073330Y-3360000D01*
X3093330Y-3350000D01*
X3083330Y-3370000D01*
X3093330Y-3390000D01*
X3073330Y-3380000D01*
X3053330Y-3390000D01*
X3006664Y-3325000D02*
X3016664Y-3305000D01*
X3006664Y-3285000D01*
X3026664Y-3295000D01*
X3046664Y-3285000D01*
X3036664Y-3305000D01*
X3046664Y-3325000D01*
X3026664Y-3315000D01*
X3006664Y-3325000D01*
X3099997Y-3585000D02*
X3109997Y-3565000D01*
X3099997Y-3545000D01*
X3119997Y-3555000D01*
X3139997Y-3545000D01*
X3129997Y-3565000D01*
X3139997Y-3585000D01*
X3119997Y-3575000D01*
X3099997Y-3585000D01*
X3053330Y-3520000D02*
X3063330Y-3500000D01*
X3053330Y-3480000D01*
X3073330Y-3490000D01*
X3093330Y-3480000D01*
X3083330Y-3500000D01*
X3093330Y-3520000D01*
X3073330Y-3510000D01*
X3053330Y-3520000D01*
X3006664Y-3455000D02*
X3016664Y-3435000D01*
X3006664Y-3415000D01*
X3026664Y-3425000D01*
X3046664Y-3415000D01*
X3036664Y-3435000D01*
X3046664Y-3455000D01*
X3026664Y-3445000D01*
X3006664Y-3455000D01*
X2959997Y-3390000D02*
X2969997Y-3370000D01*
X2959997Y-3350000D01*
X2979997Y-3360000D01*
X2999997Y-3350000D01*
X2989997Y-3370000D01*
X2999997Y-3390000D01*
X2979997Y-3380000D01*
X2959997Y-3390000D01*
X2913331Y-3325000D02*
X2923331Y-3305000D01*
X2913331Y-3285000D01*
X2933331Y-3295000D01*
X2953331Y-3285000D01*
X2943331Y-3305000D01*
X2953331Y-3325000D01*
X2933331Y-3315000D01*
X2913331Y-3325000D01*
X3006664Y-3585000D02*
X3016664Y-3565000D01*
X3006664Y-3545000D01*
X3026664Y-3555000D01*
X3046664Y-3545000D01*
X3036664Y-3565000D01*
X3046664Y-3585000D01*
X3026664Y-3575000D01*
X3006664Y-3585000D01*
X2959997Y-3520000D02*
X2969997Y-3500000D01*
X2959997Y-3480000D01*
X2979997Y-3490000D01*
X2999997Y-3480000D01*
X2989997Y-3500000D01*
X2999997Y-3520000D01*
X2979997Y-3510000D01*
X2959997Y-3520000D01*
X2913331Y-3455000D02*
X2923331Y-3435000D01*
X2913331Y-3415000D01*
X2933331Y-3425000D01*
X2953331Y-3415000D01*
X2943331Y-3435000D01*
X2953331Y-3455000D01*
X2933331Y-3445000D01*
X2913331Y-3455000D01*
X2866664Y-3390000D02*
X2876664Y-3370000D01*
X2866664Y-3350000D01*
X2886664Y-3360000D01*
X2906664Y-3350000D01*
X2896664Y-3370000D01*
X2906664Y-3390000D01*
X2886664Y-3380000D01*
X2866664Y-3390000D01*
X2819997Y-3325000D02*
X2829997Y-3305000D01*
X2819997Y-3285000D01*
X2839997Y-3295000D01*
X2859997Y-3285000D01*
X2849997Y-3305000D01*
X2859997Y-3325000D01*
X2839997Y-3315000D01*
X2819997Y-3325000D01*
X2913331Y-3585000D02*
X2923331Y-3565000D01*
X2913331Y-3545000D01*
X2933331Y-3555000D01*
X2953331Y-3545000D01*
X2943331Y-3565000D01*
X2953331Y-3585000D01*
X2933331Y-3575000D01*
X2913331Y-3585000D01*
X2866664Y-3520000D02*
X2876664Y-3500000D01*
X2866664Y-3480000D01*
X2886664Y-3490000D01*
X2906664Y-3480000D01*
X2896664Y-3500000D01*
X2906664Y-3520000D01*
X2886664Y-3510000D01*
X2866664Y-3520000D01*
X2819997Y-3455000D02*
X2829997Y-3435000D01*
X2819997Y-3415000D01*
X2839997Y-3425000D01*
X2859997Y-3415000D01*
X2849997Y-3435000D01*
X2859997Y-3455000D01*
X2839997Y-3445000D01*
X2819997Y-3455000D01*
X2773331Y-3390000D02*
X2783331Y-3370000D01*
X2773331Y-3350000D01*
X2793331Y-3360000D01*
X2813331Y-3350000D01*
X2803331Y-3370000D01*
X2813331Y-3390000D01*
X2793331Y-3380000D01*
X2773331Y-3390000D01*
X2726664Y-3325000D02*
X2736664Y-3305000D01*
X2726664Y-3285000D01*
X2746664Y-3295000D01*
X2766664Y-3285000D01*
X2756664Y-3305000D01*
X2766664Y-3325000D01*
X2746664Y-3315000D01*
X2726664Y-3325000D01*
X2819997Y-3585000D02*
X2829997Y-3565000D01*
X2819997Y-3545000D01*
X2839997Y-3555000D01*
X2859997Y-3545000D01*
X2849997Y-3565000D01*
X2859997Y-3585000D01*
X2839997Y-3575000D01*
X2819997Y-3585000D01*
X2773331Y-3520000D02*
X2783331Y-3500000D01*
X2773331Y-3480000D01*
X2793331Y-3490000D01*
X2813331Y-3480000D01*
X2803331Y-3500000D01*
X2813331Y-3520000D01*
X2793331Y-3510000D01*
X2773331Y-3520000D01*
X2726664Y-3455000D02*
X2736664Y-3435000D01*
X2726664Y-3415000D01*
X2746664Y-3425000D01*
X2766664Y-3415000D01*
X2756664Y-3435000D01*
X2766664Y-3455000D01*
X2746664Y-3445000D01*
X2726664Y-3455000D01*
X2679998Y-3390000D02*
X2689998Y-3370000D01*
X2679998Y-3350000D01*
X2699998Y-3360000D01*
X2719998Y-3350000D01*
X2709998Y-3370000D01*
X2719998Y-3390000D01*
X2699998Y-3380000D01*
X2679998Y-3390000D01*
X2633331Y-3325000D02*
X2643331Y-3305000D01*
X2633331Y-3285000D01*
X2653331Y-3295000D01*
X2673331Y-3285000D01*
X2663331Y-3305000D01*
X2673331Y-3325000D01*
X2653331Y-3315000D01*
X2633331Y-3325000D01*
X2726664Y-3585000D02*
X2736664Y-3565000D01*
X2726664Y-3545000D01*
X2746664Y-3555000D01*
X2766664Y-3545000D01*
X2756664Y-3565000D01*
X2766664Y-3585000D01*
X2746664Y-3575000D01*
X2726664Y-3585000D01*
X2679998Y-3520000D02*
X2689998Y-3500000D01*
X2679998Y-3480000D01*
X2699998Y-3490000D01*
X2719998Y-3480000D01*
X2709998Y-3500000D01*
X2719998Y-3520000D01*
X2699998Y-3510000D01*
X2679998Y-3520000D01*
X2633331Y-3455000D02*
X2643331Y-3435000D01*
X2633331Y-3415000D01*
X2653331Y-3425000D01*
X2673331Y-3415000D01*
X2663331Y-3435000D01*
X2673331Y-3455000D01*
X2653331Y-3445000D01*
X2633331Y-3455000D01*
X2586664Y-3390000D02*
X2596664Y-3370000D01*
X2586664Y-3350000D01*
X2606664Y-3360000D01*
X2626664Y-3350000D01*
X2616664Y-3370000D01*
X2626664Y-3390000D01*
X2606664Y-3380000D01*
X2586664Y-3390000D01*
X2539998Y-3325000D02*
X2549998Y-3305000D01*
X2539998Y-3285000D01*
X2559998Y-3295000D01*
X2579998Y-3285000D01*
X2569998Y-3305000D01*
X2579998Y-3325000D01*
X2559998Y-3315000D01*
X2539998Y-3325000D01*
X2633331Y-3585000D02*
X2643331Y-3565000D01*
X2633331Y-3545000D01*
X2653331Y-3555000D01*
X2673331Y-3545000D01*
X2663331Y-3565000D01*
X2673331Y-3585000D01*
X2653331Y-3575000D01*
X2633331Y-3585000D01*
X2586664Y-3520000D02*
X2596664Y-3500000D01*
X2586664Y-3480000D01*
X2606664Y-3490000D01*
X2626664Y-3480000D01*
X2616664Y-3500000D01*
X2626664Y-3520000D01*
X2606664Y-3510000D01*
X2586664Y-3520000D01*
X2539998Y-3455000D02*
X2549998Y-3435000D01*
X2539998Y-3415000D01*
X2559998Y-3425000D01*
X2579998Y-3415000D01*
X2569998Y-3435000D01*
X2579998Y-3455000D01*
X2559998Y-3445000D01*
X2539998Y-3455000D01*
X2493331Y-3390000D02*
X2503331Y-3370000D01*
X2493331Y-3350000D01*
X2513331Y-3360000D01*
X2533331Y-3350000D01*
X2523331Y-3370000D01*
X2533331Y-3390000D01*
X2513331Y-3380000D01*
X2493331Y-3390000D01*
X2446665Y-3325000D02*
X2456665Y-3305000D01*
X2446665Y-3285000D01*
X2466665Y-3295000D01*
X2486665Y-3285000D01*
X2476665Y-3305000D01*
X2486665Y-3325000D01*
X2466665Y-3315000D01*
X2446665Y-3325000D01*
X2539998Y-3585000D02*
X2549998Y-3565000D01*
X2539998Y-3545000D01*
X2559998Y-3555000D01*
X2579998Y-3545000D01*
X2569998Y-3565000D01*
X2579998Y-3585000D01*
X2559998Y-3575000D01*
X2539998Y-3585000D01*
X2493331Y-3520000D02*
X2503331Y-3500000D01*
X2493331Y-3480000D01*
X2513331Y-3490000D01*
X2533331Y-3480000D01*
X2523331Y-3500000D01*
X2533331Y-3520000D01*
X2513331Y-3510000D01*
X2493331Y-3520000D01*
X2446665Y-3455000D02*
X2456665Y-3435000D01*
X2446665Y-3415000D01*
X2466665Y-3425000D01*
X2486665Y-3415000D01*
X2476665Y-3435000D01*
X2486665Y-3455000D01*
X2466665Y-3445000D01*
X2446665Y-3455000D01*
X2399998Y-3390000D02*
X2409998Y-3370000D01*
X2399998Y-3350000D01*
X2419998Y-3360000D01*
X2439998Y-3350000D01*
X2429998Y-3370000D01*
X2439998Y-3390000D01*
X2419998Y-3380000D01*
X2399998Y-3390000D01*
X2353331Y-3325000D02*
X2363331Y-3305000D01*
X2353331Y-3285000D01*
X2373331Y-3295000D01*
X2393331Y-3285000D01*
X2383331Y-3305000D01*
X2393331Y-3325000D01*
X2373331Y-3315000D01*
X2353331Y-3325000D01*
X2446665Y-3585000D02*
X2456665Y-3565000D01*
X2446665Y-3545000D01*
X2466665Y-3555000D01*
X2486665Y-3545000D01*
X2476665Y-3565000D01*
X2486665Y-3585000D01*
X2466665Y-3575000D01*
X2446665Y-3585000D01*
X2399998Y-3520000D02*
X2409998Y-3500000D01*
X2399998Y-3480000D01*
X2419998Y-3490000D01*
X2439998Y-3480000D01*
X2429998Y-3500000D01*
X2439998Y-3520000D01*
X2419998Y-3510000D01*
X2399998Y-3520000D01*
X2353331Y-3455000D02*
X2363331Y-3435000D01*
X2353331Y-3415000D01*
X2373331Y-3425000D01*
X2393331Y-3415000D01*
X2383331Y-3435000D01*
X2393331Y-3455000D01*
X2373331Y-3445000D01*
X2353331Y-3455000D01*
X2306665Y-3390000D02*
X2316665Y-3370000D01*
X2306665Y-3350000D01*
X2326665Y-3360000D01*
X2346665Y-3350000D01*
X2336665Y-3370000D01*
X2346665Y-3390000D01*
X2326665Y-3380000D01*
X2306665Y-3390000D01*
X2259998Y-3325000D02*
X2269998Y-3305000D01*
X2259998Y-3285000D01*
X2279998Y-3295000D01*
X2299998Y-3285000D01*
X2289998Y-3305000D01*
X2299998Y-3325000D01*
X2279998Y-3315000D01*
X2259998Y-3325000D01*
X2353331Y-3585000D02*
X2363331Y-3565000D01*
X2353331Y-3545000D01*
X2373331Y-3555000D01*
X2393331Y-3545000D01*
X2383331Y-3565000D01*
X2393331Y-3585000D01*
X2373331Y-3575000D01*
X2353331Y-3585000D01*
X2306665Y-3520000D02*
X2316665Y-3500000D01*
X2306665Y-3480000D01*
X2326665Y-3490000D01*
X2346665Y-3480000D01*
X2336665Y-3500000D01*
X2346665Y-3520000D01*
X2326665Y-3510000D01*
X2306665Y-3520000D01*
X2259998Y-3455000D02*
X2269998Y-3435000D01*
X2259998Y-3415000D01*
X2279998Y-3425000D01*
X2299998Y-3415000D01*
X2289998Y-3435000D01*
X2299998Y-3455000D01*
X2279998Y-3445000D01*
X2259998Y-3455000D01*
X2213332Y-3390000D02*
X2223332Y-3370000D01*
X2213332Y-3350000D01*
X2233332Y-3360000D01*
X2253332Y-3350000D01*
X2243332Y-3370000D01*
X2253332Y-3390000D01*
X2233332Y-3380000D01*
X2213332Y-3390000D01*
X2166665Y-3325000D02*
X2176665Y-3305000D01*
X2166665Y-3285000D01*
X2186665Y-3295000D01*
X2206665Y-3285000D01*
X2196665Y-3305000D01*
X2206665Y-3325000D01*
X2186665Y-3315000D01*
X2166665Y-3325000D01*
X2259998Y-3585000D02*
X2269998Y-3565000D01*
X2259998Y-3545000D01*
X2279998Y-3555000D01*
X2299998Y-3545000D01*
X2289998Y-3565000D01*
X2299998Y-3585000D01*
X2279998Y-3575000D01*
X2259998Y-3585000D01*
X2213332Y-3520000D02*
X2223332Y-3500000D01*
X2213332Y-3480000D01*
X2233332Y-3490000D01*
X2253332Y-3480000D01*
X2243332Y-3500000D01*
X2253332Y-3520000D01*
X2233332Y-3510000D01*
X2213332Y-3520000D01*
X2166665Y-3455000D02*
X2176665Y-3435000D01*
X2166665Y-3415000D01*
X2186665Y-3425000D01*
X2206665Y-3415000D01*
X2196665Y-3435000D01*
X2206665Y-3455000D01*
X2186665Y-3445000D01*
X2166665Y-3455000D01*
X2119998Y-3390000D02*
X2129998Y-3370000D01*
X2119998Y-3350000D01*
X2139998Y-3360000D01*
X2159998Y-3350000D01*
X2149998Y-3370000D01*
X2159998Y-3390000D01*
X2139998Y-3380000D01*
X2119998Y-3390000D01*
X2073332Y-3325000D02*
X2083332Y-3305000D01*
X2073332Y-3285000D01*
X2093332Y-3295000D01*
X2113332Y-3285000D01*
X2103332Y-3305000D01*
X2113332Y-3325000D01*
X2093332Y-3315000D01*
X2073332Y-3325000D01*
X2166665Y-3585000D02*
X2176665Y-3565000D01*
X2166665Y-3545000D01*
X2186665Y-3555000D01*
X2206665Y-3545000D01*
X2196665Y-3565000D01*
X2206665Y-3585000D01*
X2186665Y-3575000D01*
X2166665Y-3585000D01*
X2119998Y-3520000D02*
X2129998Y-3500000D01*
X2119998Y-3480000D01*
X2139998Y-3490000D01*
X2159998Y-3480000D01*
X2149998Y-3500000D01*
X2159998Y-3520000D01*
X2139998Y-3510000D01*
X2119998Y-3520000D01*
X2073332Y-3455000D02*
X2083332Y-3435000D01*
X2073332Y-3415000D01*
X2093332Y-3425000D01*
X2113332Y-3415000D01*
X2103332Y-3435000D01*
X2113332Y-3455000D01*
X2093332Y-3445000D01*
X2073332Y-3455000D01*
X2026665Y-3390000D02*
X2036665Y-3370000D01*
X2026665Y-3350000D01*
X2046665Y-3360000D01*
X2066665Y-3350000D01*
X2056665Y-3370000D01*
X2066665Y-3390000D01*
X2046665Y-3380000D01*
X2026665Y-3390000D01*
X1979999Y-3325000D02*
X1989999Y-3305000D01*
X1979999Y-3285000D01*
X1999999Y-3295000D01*
X2019999Y-3285000D01*
X2009999Y-3305000D01*
X2019999Y-3325000D01*
X1999999Y-3315000D01*
X1979999Y-3325000D01*
X2073332Y-3585000D02*
X2083332Y-3565000D01*
X2073332Y-3545000D01*
X2093332Y-3555000D01*
X2113332Y-3545000D01*
X2103332Y-3565000D01*
X2113332Y-3585000D01*
X2093332Y-3575000D01*
X2073332Y-3585000D01*
X2026665Y-3520000D02*
X2036665Y-3500000D01*
X2026665Y-3480000D01*
X2046665Y-3490000D01*
X2066665Y-3480000D01*
X2056665Y-3500000D01*
X2066665Y-3520000D01*
X2046665Y-3510000D01*
X2026665Y-3520000D01*
X1979999Y-3455000D02*
X1989999Y-3435000D01*
X1979999Y-3415000D01*
X1999999Y-3425000D01*
X2019999Y-3415000D01*
X2009999Y-3435000D01*
X2019999Y-3455000D01*
X1999999Y-3445000D01*
X1979999Y-3455000D01*
X1933332Y-3390000D02*
X1943332Y-3370000D01*
X1933332Y-3350000D01*
X1953332Y-3360000D01*
X1973332Y-3350000D01*
X1963332Y-3370000D01*
X1973332Y-3390000D01*
X1953332Y-3380000D01*
X1933332Y-3390000D01*
X1886665Y-3325000D02*
X1896665Y-3305000D01*
X1886665Y-3285000D01*
X1906665Y-3295000D01*
X1926665Y-3285000D01*
X1916665Y-3305000D01*
X1926665Y-3325000D01*
X1906665Y-3315000D01*
X1886665Y-3325000D01*
X1979999Y-3585000D02*
X1989999Y-3565000D01*
X1979999Y-3545000D01*
X1999999Y-3555000D01*
X2019999Y-3545000D01*
X2009999Y-3565000D01*
X2019999Y-3585000D01*
X1999999Y-3575000D01*
X1979999Y-3585000D01*
X1933332Y-3520000D02*
X1943332Y-3500000D01*
X1933332Y-3480000D01*
X1953332Y-3490000D01*
X1973332Y-3480000D01*
X1963332Y-3500000D01*
X1973332Y-3520000D01*
X1953332Y-3510000D01*
X1933332Y-3520000D01*
X1886665Y-3455000D02*
X1896665Y-3435000D01*
X1886665Y-3415000D01*
X1906665Y-3425000D01*
X1926665Y-3415000D01*
X1916665Y-3435000D01*
X1926665Y-3455000D01*
X1906665Y-3445000D01*
X1886665Y-3455000D01*
X1839999Y-3390000D02*
X1849999Y-3370000D01*
X1839999Y-3350000D01*
X1859999Y-3360000D01*
X1879999Y-3350000D01*
X1869999Y-3370000D01*
X1879999Y-3390000D01*
X1859999Y-3380000D01*
X1839999Y-3390000D01*
X1793332Y-3325000D02*
X1803332Y-3305000D01*
X1793332Y-3285000D01*
X1813332Y-3295000D01*
X1833332Y-3285000D01*
X1823332Y-3305000D01*
X1833332Y-3325000D01*
X1813332Y-3315000D01*
X1793332Y-3325000D01*
X1886665Y-3585000D02*
X1896665Y-3565000D01*
X1886665Y-3545000D01*
X1906665Y-3555000D01*
X1926665Y-3545000D01*
X1916665Y-3565000D01*
X1926665Y-3585000D01*
X1906665Y-3575000D01*
X1886665Y-3585000D01*
X1839999Y-3520000D02*
X1849999Y-3500000D01*
X1839999Y-3480000D01*
X1859999Y-3490000D01*
X1879999Y-3480000D01*
X1869999Y-3500000D01*
X1879999Y-3520000D01*
X1859999Y-3510000D01*
X1839999Y-3520000D01*
X1793332Y-3455000D02*
X1803332Y-3435000D01*
X1793332Y-3415000D01*
X1813332Y-3425000D01*
X1833332Y-3415000D01*
X1823332Y-3435000D01*
X1833332Y-3455000D01*
X1813332Y-3445000D01*
X1793332Y-3455000D01*
X1746666Y-3390000D02*
X1756666Y-3370000D01*
X1746666Y-3350000D01*
X1766666Y-3360000D01*
X1786666Y-3350000D01*
X1776666Y-3370000D01*
X1786666Y-3390000D01*
X1766666Y-3380000D01*
X1746666Y-3390000D01*
X1699999Y-3325000D02*
X1709999Y-3305000D01*
X1699999Y-3285000D01*
X1719999Y-3295000D01*
X1739999Y-3285000D01*
X1729999Y-3305000D01*
X1739999Y-3325000D01*
X1719999Y-3315000D01*
X1699999Y-3325000D01*
X1793332Y-3585000D02*
X1803332Y-3565000D01*
X1793332Y-3545000D01*
X1813332Y-3555000D01*
X1833332Y-3545000D01*
X1823332Y-3565000D01*
X1833332Y-3585000D01*
X1813332Y-3575000D01*
X1793332Y-3585000D01*
X1746666Y-3520000D02*
X1756666Y-3500000D01*
X1746666Y-3480000D01*
X1766666Y-3490000D01*
X1786666Y-3480000D01*
X1776666Y-3500000D01*
X1786666Y-3520000D01*
X1766666Y-3510000D01*
X1746666Y-3520000D01*
X1699999Y-3455000D02*
X1709999Y-3435000D01*
X1699999Y-3415000D01*
X1719999Y-3425000D01*
X1739999Y-3415000D01*
X1729999Y-3435000D01*
X1739999Y-3455000D01*
X1719999Y-3445000D01*
X1699999Y-3455000D01*
X1653332Y-3390000D02*
X1663332Y-3370000D01*
X1653332Y-3350000D01*
X1673332Y-3360000D01*
X1693332Y-3350000D01*
X1683332Y-3370000D01*
X1693332Y-3390000D01*
X1673332Y-3380000D01*
X1653332Y-3390000D01*
X1606666Y-3325000D02*
X1616666Y-3305000D01*
X1606666Y-3285000D01*
X1626666Y-3295000D01*
X1646666Y-3285000D01*
X1636666Y-3305000D01*
X1646666Y-3325000D01*
X1626666Y-3315000D01*
X1606666Y-3325000D01*
X1699999Y-3585000D02*
X1709999Y-3565000D01*
X1699999Y-3545000D01*
X1719999Y-3555000D01*
X1739999Y-3545000D01*
X1729999Y-3565000D01*
X1739999Y-3585000D01*
X1719999Y-3575000D01*
X1699999Y-3585000D01*
X1653332Y-3520000D02*
X1663332Y-3500000D01*
X1653332Y-3480000D01*
X1673332Y-3490000D01*
X1693332Y-3480000D01*
X1683332Y-3500000D01*
X1693332Y-3520000D01*
X1673332Y-3510000D01*
X1653332Y-3520000D01*
X1606666Y-3455000D02*
X1616666Y-3435000D01*
X1606666Y-3415000D01*
X1626666Y-3425000D01*
X1646666Y-3415000D01*
X1636666Y-3435000D01*
X1646666Y-3455000D01*
X1626666Y-3445000D01*
X1606666Y-3455000D01*
X1559999Y-3390000D02*
X1569999Y-3370000D01*
X1559999Y-3350000D01*
X1579999Y-3360000D01*
X1599999Y-3350000D01*
X1589999Y-3370000D01*
X1599999Y-3390000D01*
X1579999Y-3380000D01*
X1559999Y-3390000D01*
X1513333Y-3325000D02*
X1523333Y-3305000D01*
X1513333Y-3285000D01*
X1533333Y-3295000D01*
X1553333Y-3285000D01*
X1543333Y-3305000D01*
X1553333Y-3325000D01*
X1533333Y-3315000D01*
X1513333Y-3325000D01*
Y-3455000D02*
X1523333Y-3435000D01*
X1513333Y-3415000D01*
X1533333Y-3425000D01*
X1553333Y-3415000D01*
X1543333Y-3435000D01*
X1553333Y-3455000D01*
X1533333Y-3445000D01*
X1513333Y-3455000D01*
X1466666Y-3390000D02*
X1476666Y-3370000D01*
X1466666Y-3350000D01*
X1486666Y-3360000D01*
X1506666Y-3350000D01*
X1496666Y-3370000D01*
X1506666Y-3390000D01*
X1486666Y-3380000D01*
X1466666Y-3390000D01*
X1419999Y-3325000D02*
X1429999Y-3305000D01*
X1419999Y-3285000D01*
X1439999Y-3295000D01*
X1459999Y-3285000D01*
X1449999Y-3305000D01*
X1459999Y-3325000D01*
X1439999Y-3315000D01*
X1419999Y-3325000D01*
X1466666Y-3520000D02*
X1476666Y-3500000D01*
X1466666Y-3480000D01*
X1486666Y-3490000D01*
X1506666Y-3480000D01*
X1496666Y-3500000D01*
X1506666Y-3520000D01*
X1486666Y-3510000D01*
X1466666Y-3520000D01*
X1419999Y-3455000D02*
X1429999Y-3435000D01*
X1419999Y-3415000D01*
X1439999Y-3425000D01*
X1459999Y-3415000D01*
X1449999Y-3435000D01*
X1459999Y-3455000D01*
X1439999Y-3445000D01*
X1419999Y-3455000D01*
X1373333Y-3390000D02*
X1383333Y-3370000D01*
X1373333Y-3350000D01*
X1393333Y-3360000D01*
X1413333Y-3350000D01*
X1403333Y-3370000D01*
X1413333Y-3390000D01*
X1393333Y-3380000D01*
X1373333Y-3390000D01*
X1326666Y-3325000D02*
X1336666Y-3305000D01*
X1326666Y-3285000D01*
X1346666Y-3295000D01*
X1366666Y-3285000D01*
X1356666Y-3305000D01*
X1366666Y-3325000D01*
X1346666Y-3315000D01*
X1326666Y-3325000D01*
X1046667D02*
X1056667Y-3305000D01*
X1046667Y-3285000D01*
X1066667Y-3295000D01*
X1086667Y-3285000D01*
X1076667Y-3305000D01*
X1086667Y-3325000D01*
X1066667Y-3315000D01*
X1046667Y-3325000D01*
X1000000Y-3390000D02*
X1010000Y-3370000D01*
X1000000Y-3350000D01*
X1020000Y-3360000D01*
X1040000Y-3350000D01*
X1030000Y-3370000D01*
X1040000Y-3390000D01*
X1020000Y-3380000D01*
X1000000Y-3390000D01*
X1140000Y-3325000D02*
X1150000Y-3305000D01*
X1140000Y-3285000D01*
X1160000Y-3295000D01*
X1180000Y-3285000D01*
X1170000Y-3305000D01*
X1180000Y-3325000D01*
X1160000Y-3315000D01*
X1140000Y-3325000D01*
X1093333Y-3390000D02*
X1103333Y-3370000D01*
X1093333Y-3350000D01*
X1113333Y-3360000D01*
X1133333Y-3350000D01*
X1123333Y-3370000D01*
X1133333Y-3390000D01*
X1113333Y-3380000D01*
X1093333Y-3390000D01*
X1046667Y-3455000D02*
X1056667Y-3435000D01*
X1046667Y-3415000D01*
X1066667Y-3425000D01*
X1086667Y-3415000D01*
X1076667Y-3435000D01*
X1086667Y-3455000D01*
X1066667Y-3445000D01*
X1046667Y-3455000D01*
X1140000D02*
X1150000Y-3435000D01*
X1140000Y-3415000D01*
X1160000Y-3425000D01*
X1180000Y-3415000D01*
X1170000Y-3435000D01*
X1180000Y-3455000D01*
X1160000Y-3445000D01*
X1140000Y-3455000D01*
X1186666Y-3390000D02*
X1196666Y-3370000D01*
X1186666Y-3350000D01*
X1206666Y-3360000D01*
X1226666Y-3350000D01*
X1216666Y-3370000D01*
X1226666Y-3390000D01*
X1206666Y-3380000D01*
X1186666Y-3390000D01*
X1233333Y-3325000D02*
X1243333Y-3305000D01*
X1233333Y-3285000D01*
X1253333Y-3295000D01*
X1273333Y-3285000D01*
X1263333Y-3305000D01*
X1273333Y-3325000D01*
X1253333Y-3315000D01*
X1233333Y-3325000D01*
Y-3455000D02*
X1243333Y-3435000D01*
X1233333Y-3415000D01*
X1253333Y-3425000D01*
X1273333Y-3415000D01*
X1263333Y-3435000D01*
X1273333Y-3455000D01*
X1253333Y-3445000D01*
X1233333Y-3455000D01*
X1280000Y-3390000D02*
X1290000Y-3370000D01*
X1280000Y-3350000D01*
X1300000Y-3360000D01*
X1320000Y-3350000D01*
X1310000Y-3370000D01*
X1320000Y-3390000D01*
X1300000Y-3380000D01*
X1280000Y-3390000D01*
X1093333Y-3520000D02*
X1103333Y-3500000D01*
X1093333Y-3480000D01*
X1113333Y-3490000D01*
X1133333Y-3480000D01*
X1123333Y-3500000D01*
X1133333Y-3520000D01*
X1113333Y-3510000D01*
X1093333Y-3520000D01*
X1186666D02*
X1196666Y-3500000D01*
X1186666Y-3480000D01*
X1206666Y-3490000D01*
X1226666Y-3480000D01*
X1216666Y-3500000D01*
X1226666Y-3520000D01*
X1206666Y-3510000D01*
X1186666Y-3520000D01*
X1233333Y-3585000D02*
X1243333Y-3565000D01*
X1233333Y-3545000D01*
X1253333Y-3555000D01*
X1273333Y-3545000D01*
X1263333Y-3565000D01*
X1273333Y-3585000D01*
X1253333Y-3575000D01*
X1233333Y-3585000D01*
X1280000Y-3520000D02*
X1290000Y-3500000D01*
X1280000Y-3480000D01*
X1300000Y-3490000D01*
X1320000Y-3480000D01*
X1310000Y-3500000D01*
X1320000Y-3520000D01*
X1300000Y-3510000D01*
X1280000Y-3520000D01*
X1326666Y-3585000D02*
X1336666Y-3565000D01*
X1326666Y-3545000D01*
X1346666Y-3555000D01*
X1366666Y-3545000D01*
X1356666Y-3565000D01*
X1366666Y-3585000D01*
X1346666Y-3575000D01*
X1326666Y-3585000D01*
Y-3455000D02*
X1336666Y-3435000D01*
X1326666Y-3415000D01*
X1346666Y-3425000D01*
X1366666Y-3415000D01*
X1356666Y-3435000D01*
X1366666Y-3455000D01*
X1346666Y-3445000D01*
X1326666Y-3455000D01*
X1373333Y-3520000D02*
X1383333Y-3500000D01*
X1373333Y-3480000D01*
X1393333Y-3490000D01*
X1413333Y-3480000D01*
X1403333Y-3500000D01*
X1413333Y-3520000D01*
X1393333Y-3510000D01*
X1373333Y-3520000D01*
X1419999Y-3585000D02*
X1429999Y-3565000D01*
X1419999Y-3545000D01*
X1439999Y-3555000D01*
X1459999Y-3545000D01*
X1449999Y-3565000D01*
X1459999Y-3585000D01*
X1439999Y-3575000D01*
X1419999Y-3585000D01*
X1061667Y-2130000D02*
X1071667Y-2110000D01*
X1061667Y-2090000D01*
X1081667Y-2100000D01*
X1101667Y-2090000D01*
X1091667Y-2110000D01*
X1101667Y-2130000D01*
X1081667Y-2120000D01*
X1061667Y-2130000D01*
X1015000Y-2195000D02*
X1025000Y-2175000D01*
X1015000Y-2155000D01*
X1035000Y-2165000D01*
X1055000Y-2155000D01*
X1045000Y-2175000D01*
X1055000Y-2195000D01*
X1035000Y-2185000D01*
X1015000Y-2195000D01*
X1155000Y-2130000D02*
X1165000Y-2110000D01*
X1155000Y-2090000D01*
X1175000Y-2100000D01*
X1195000Y-2090000D01*
X1185000Y-2110000D01*
X1195000Y-2130000D01*
X1175000Y-2120000D01*
X1155000Y-2130000D01*
X1108333Y-2195000D02*
X1118333Y-2175000D01*
X1108333Y-2155000D01*
X1128333Y-2165000D01*
X1148333Y-2155000D01*
X1138333Y-2175000D01*
X1148333Y-2195000D01*
X1128333Y-2185000D01*
X1108333Y-2195000D01*
X1061667Y-2260000D02*
X1071667Y-2240000D01*
X1061667Y-2220000D01*
X1081667Y-2230000D01*
X1101667Y-2220000D01*
X1091667Y-2240000D01*
X1101667Y-2260000D01*
X1081667Y-2250000D01*
X1061667Y-2260000D01*
X1155000D02*
X1165000Y-2240000D01*
X1155000Y-2220000D01*
X1175000Y-2230000D01*
X1195000Y-2220000D01*
X1185000Y-2240000D01*
X1195000Y-2260000D01*
X1175000Y-2250000D01*
X1155000Y-2260000D01*
X1201666Y-2195000D02*
X1211666Y-2175000D01*
X1201666Y-2155000D01*
X1221666Y-2165000D01*
X1241666Y-2155000D01*
X1231666Y-2175000D01*
X1241666Y-2195000D01*
X1221666Y-2185000D01*
X1201666Y-2195000D01*
X1248333Y-2130000D02*
X1258333Y-2110000D01*
X1248333Y-2090000D01*
X1268333Y-2100000D01*
X1288333Y-2090000D01*
X1278333Y-2110000D01*
X1288333Y-2130000D01*
X1268333Y-2120000D01*
X1248333Y-2130000D01*
Y-2260000D02*
X1258333Y-2240000D01*
X1248333Y-2220000D01*
X1268333Y-2230000D01*
X1288333Y-2220000D01*
X1278333Y-2240000D01*
X1288333Y-2260000D01*
X1268333Y-2250000D01*
X1248333Y-2260000D01*
X1295000Y-2195000D02*
X1305000Y-2175000D01*
X1295000Y-2155000D01*
X1315000Y-2165000D01*
X1335000Y-2155000D01*
X1325000Y-2175000D01*
X1335000Y-2195000D01*
X1315000Y-2185000D01*
X1295000Y-2195000D01*
X1108333Y-2325000D02*
X1118333Y-2305000D01*
X1108333Y-2285000D01*
X1128333Y-2295000D01*
X1148333Y-2285000D01*
X1138333Y-2305000D01*
X1148333Y-2325000D01*
X1128333Y-2315000D01*
X1108333Y-2325000D01*
X1201666D02*
X1211666Y-2305000D01*
X1201666Y-2285000D01*
X1221666Y-2295000D01*
X1241666Y-2285000D01*
X1231666Y-2305000D01*
X1241666Y-2325000D01*
X1221666Y-2315000D01*
X1201666Y-2325000D01*
X1248333Y-2390000D02*
X1258333Y-2370000D01*
X1248333Y-2350000D01*
X1268333Y-2360000D01*
X1288333Y-2350000D01*
X1278333Y-2370000D01*
X1288333Y-2390000D01*
X1268333Y-2380000D01*
X1248333Y-2390000D01*
X1295000Y-2325000D02*
X1305000Y-2305000D01*
X1295000Y-2285000D01*
X1315000Y-2295000D01*
X1335000Y-2285000D01*
X1325000Y-2305000D01*
X1335000Y-2325000D01*
X1315000Y-2315000D01*
X1295000Y-2325000D01*
X1341666Y-2390000D02*
X1351666Y-2370000D01*
X1341666Y-2350000D01*
X1361666Y-2360000D01*
X1381666Y-2350000D01*
X1371666Y-2370000D01*
X1381666Y-2390000D01*
X1361666Y-2380000D01*
X1341666Y-2390000D01*
Y-2260000D02*
X1351666Y-2240000D01*
X1341666Y-2220000D01*
X1361666Y-2230000D01*
X1381666Y-2220000D01*
X1371666Y-2240000D01*
X1381666Y-2260000D01*
X1361666Y-2250000D01*
X1341666Y-2260000D01*
X1388333Y-2325000D02*
X1398333Y-2305000D01*
X1388333Y-2285000D01*
X1408333Y-2295000D01*
X1428333Y-2285000D01*
X1418333Y-2305000D01*
X1428333Y-2325000D01*
X1408333Y-2315000D01*
X1388333Y-2325000D01*
X1434999Y-2390000D02*
X1444999Y-2370000D01*
X1434999Y-2350000D01*
X1454999Y-2360000D01*
X1474999Y-2350000D01*
X1464999Y-2370000D01*
X1474999Y-2390000D01*
X1454999Y-2380000D01*
X1434999Y-2390000D01*
X3321663Y-820000D02*
X3331663Y-800000D01*
X3321663Y-780000D01*
X3341663Y-790000D01*
X3361663Y-780000D01*
X3351663Y-800000D01*
X3361663Y-820000D01*
X3341663Y-810000D01*
X3321663Y-820000D01*
X3274997Y-755000D02*
X3284997Y-735000D01*
X3274997Y-715000D01*
X3294997Y-725000D01*
X3314997Y-715000D01*
X3304997Y-735000D01*
X3314997Y-755000D01*
X3294997Y-745000D01*
X3274997Y-755000D01*
X3228330Y-820000D02*
X3238330Y-800000D01*
X3228330Y-780000D01*
X3248330Y-790000D01*
X3268330Y-780000D01*
X3258330Y-800000D01*
X3268330Y-820000D01*
X3248330Y-810000D01*
X3228330Y-820000D01*
Y-690000D02*
X3238330Y-670000D01*
X3228330Y-650000D01*
X3248330Y-660000D01*
X3268330Y-650000D01*
X3258330Y-670000D01*
X3268330Y-690000D01*
X3248330Y-680000D01*
X3228330Y-690000D01*
X3181664Y-755000D02*
X3191664Y-735000D01*
X3181664Y-715000D01*
X3201664Y-725000D01*
X3221664Y-715000D01*
X3211664Y-735000D01*
X3221664Y-755000D01*
X3201664Y-745000D01*
X3181664Y-755000D01*
X3134997Y-820000D02*
X3144997Y-800000D01*
X3134997Y-780000D01*
X3154997Y-790000D01*
X3174997Y-780000D01*
X3164997Y-800000D01*
X3174997Y-820000D01*
X3154997Y-810000D01*
X3134997Y-820000D01*
X3181664Y-885000D02*
X3191664Y-865000D01*
X3181664Y-845000D01*
X3201664Y-855000D01*
X3221664Y-845000D01*
X3211664Y-865000D01*
X3221664Y-885000D01*
X3201664Y-875000D01*
X3181664Y-885000D01*
X3228330Y-950000D02*
X3238330Y-930000D01*
X3228330Y-910000D01*
X3248330Y-920000D01*
X3268330Y-910000D01*
X3258330Y-930000D01*
X3268330Y-950000D01*
X3248330Y-940000D01*
X3228330Y-950000D01*
X3274997Y-1015000D02*
X3284997Y-995000D01*
X3274997Y-975000D01*
X3294997Y-985000D01*
X3314997Y-975000D01*
X3304997Y-995000D01*
X3314997Y-1015000D01*
X3294997Y-1005000D01*
X3274997Y-1015000D01*
X3041664Y-820000D02*
X3051664Y-800000D01*
X3041664Y-780000D01*
X3061664Y-790000D01*
X3081664Y-780000D01*
X3071664Y-800000D01*
X3081664Y-820000D01*
X3061664Y-810000D01*
X3041664Y-820000D01*
X3088330Y-885000D02*
X3098330Y-865000D01*
X3088330Y-845000D01*
X3108330Y-855000D01*
X3128330Y-845000D01*
X3118330Y-865000D01*
X3128330Y-885000D01*
X3108330Y-875000D01*
X3088330Y-885000D01*
X3134997Y-950000D02*
X3144997Y-930000D01*
X3134997Y-910000D01*
X3154997Y-920000D01*
X3174997Y-910000D01*
X3164997Y-930000D01*
X3174997Y-950000D01*
X3154997Y-940000D01*
X3134997Y-950000D01*
X3181664Y-1015000D02*
X3191664Y-995000D01*
X3181664Y-975000D01*
X3201664Y-985000D01*
X3221664Y-975000D01*
X3211664Y-995000D01*
X3221664Y-1015000D01*
X3201664Y-1005000D01*
X3181664Y-1015000D01*
X3228330Y-1080000D02*
X3238330Y-1060000D01*
X3228330Y-1040000D01*
X3248330Y-1050000D01*
X3268330Y-1040000D01*
X3258330Y-1060000D01*
X3268330Y-1080000D01*
X3248330Y-1070000D01*
X3228330Y-1080000D01*
X2948331Y-820000D02*
X2958331Y-800000D01*
X2948331Y-780000D01*
X2968331Y-790000D01*
X2988331Y-780000D01*
X2978331Y-800000D01*
X2988331Y-820000D01*
X2968331Y-810000D01*
X2948331Y-820000D01*
X2994997Y-885000D02*
X3004997Y-865000D01*
X2994997Y-845000D01*
X3014997Y-855000D01*
X3034997Y-845000D01*
X3024997Y-865000D01*
X3034997Y-885000D01*
X3014997Y-875000D01*
X2994997Y-885000D01*
X3041664Y-950000D02*
X3051664Y-930000D01*
X3041664Y-910000D01*
X3061664Y-920000D01*
X3081664Y-910000D01*
X3071664Y-930000D01*
X3081664Y-950000D01*
X3061664Y-940000D01*
X3041664Y-950000D01*
X3088330Y-1015000D02*
X3098330Y-995000D01*
X3088330Y-975000D01*
X3108330Y-985000D01*
X3128330Y-975000D01*
X3118330Y-995000D01*
X3128330Y-1015000D01*
X3108330Y-1005000D01*
X3088330Y-1015000D01*
X3134997Y-1080000D02*
X3144997Y-1060000D01*
X3134997Y-1040000D01*
X3154997Y-1050000D01*
X3174997Y-1040000D01*
X3164997Y-1060000D01*
X3174997Y-1080000D01*
X3154997Y-1070000D01*
X3134997Y-1080000D01*
X2854997Y-820000D02*
X2864997Y-800000D01*
X2854997Y-780000D01*
X2874997Y-790000D01*
X2894997Y-780000D01*
X2884997Y-800000D01*
X2894997Y-820000D01*
X2874997Y-810000D01*
X2854997Y-820000D01*
X2901664Y-885000D02*
X2911664Y-865000D01*
X2901664Y-845000D01*
X2921664Y-855000D01*
X2941664Y-845000D01*
X2931664Y-865000D01*
X2941664Y-885000D01*
X2921664Y-875000D01*
X2901664Y-885000D01*
X2948331Y-950000D02*
X2958331Y-930000D01*
X2948331Y-910000D01*
X2968331Y-920000D01*
X2988331Y-910000D01*
X2978331Y-930000D01*
X2988331Y-950000D01*
X2968331Y-940000D01*
X2948331Y-950000D01*
X2994997Y-1015000D02*
X3004997Y-995000D01*
X2994997Y-975000D01*
X3014997Y-985000D01*
X3034997Y-975000D01*
X3024997Y-995000D01*
X3034997Y-1015000D01*
X3014997Y-1005000D01*
X2994997Y-1015000D01*
X3041664Y-1080000D02*
X3051664Y-1060000D01*
X3041664Y-1040000D01*
X3061664Y-1050000D01*
X3081664Y-1040000D01*
X3071664Y-1060000D01*
X3081664Y-1080000D01*
X3061664Y-1070000D01*
X3041664Y-1080000D01*
X2761664Y-820000D02*
X2771664Y-800000D01*
X2761664Y-780000D01*
X2781664Y-790000D01*
X2801664Y-780000D01*
X2791664Y-800000D01*
X2801664Y-820000D01*
X2781664Y-810000D01*
X2761664Y-820000D01*
X2808331Y-885000D02*
X2818331Y-865000D01*
X2808331Y-845000D01*
X2828331Y-855000D01*
X2848331Y-845000D01*
X2838331Y-865000D01*
X2848331Y-885000D01*
X2828331Y-875000D01*
X2808331Y-885000D01*
X2854997Y-950000D02*
X2864997Y-930000D01*
X2854997Y-910000D01*
X2874997Y-920000D01*
X2894997Y-910000D01*
X2884997Y-930000D01*
X2894997Y-950000D01*
X2874997Y-940000D01*
X2854997Y-950000D01*
X2901664Y-1015000D02*
X2911664Y-995000D01*
X2901664Y-975000D01*
X2921664Y-985000D01*
X2941664Y-975000D01*
X2931664Y-995000D01*
X2941664Y-1015000D01*
X2921664Y-1005000D01*
X2901664Y-1015000D01*
X2948331Y-1080000D02*
X2958331Y-1060000D01*
X2948331Y-1040000D01*
X2968331Y-1050000D01*
X2988331Y-1040000D01*
X2978331Y-1060000D01*
X2988331Y-1080000D01*
X2968331Y-1070000D01*
X2948331Y-1080000D01*
X2668331Y-820000D02*
X2678331Y-800000D01*
X2668331Y-780000D01*
X2688331Y-790000D01*
X2708331Y-780000D01*
X2698331Y-800000D01*
X2708331Y-820000D01*
X2688331Y-810000D01*
X2668331Y-820000D01*
X2714998Y-885000D02*
X2724998Y-865000D01*
X2714998Y-845000D01*
X2734998Y-855000D01*
X2754998Y-845000D01*
X2744998Y-865000D01*
X2754998Y-885000D01*
X2734998Y-875000D01*
X2714998Y-885000D01*
X2761664Y-950000D02*
X2771664Y-930000D01*
X2761664Y-910000D01*
X2781664Y-920000D01*
X2801664Y-910000D01*
X2791664Y-930000D01*
X2801664Y-950000D01*
X2781664Y-940000D01*
X2761664Y-950000D01*
X2808331Y-1015000D02*
X2818331Y-995000D01*
X2808331Y-975000D01*
X2828331Y-985000D01*
X2848331Y-975000D01*
X2838331Y-995000D01*
X2848331Y-1015000D01*
X2828331Y-1005000D01*
X2808331Y-1015000D01*
X2854997Y-1080000D02*
X2864997Y-1060000D01*
X2854997Y-1040000D01*
X2874997Y-1050000D01*
X2894997Y-1040000D01*
X2884997Y-1060000D01*
X2894997Y-1080000D01*
X2874997Y-1070000D01*
X2854997Y-1080000D01*
X2574998Y-820000D02*
X2584998Y-800000D01*
X2574998Y-780000D01*
X2594998Y-790000D01*
X2614998Y-780000D01*
X2604998Y-800000D01*
X2614998Y-820000D01*
X2594998Y-810000D01*
X2574998Y-820000D01*
X2621664Y-885000D02*
X2631664Y-865000D01*
X2621664Y-845000D01*
X2641664Y-855000D01*
X2661664Y-845000D01*
X2651664Y-865000D01*
X2661664Y-885000D01*
X2641664Y-875000D01*
X2621664Y-885000D01*
X2668331Y-950000D02*
X2678331Y-930000D01*
X2668331Y-910000D01*
X2688331Y-920000D01*
X2708331Y-910000D01*
X2698331Y-930000D01*
X2708331Y-950000D01*
X2688331Y-940000D01*
X2668331Y-950000D01*
X2714998Y-1015000D02*
X2724998Y-995000D01*
X2714998Y-975000D01*
X2734998Y-985000D01*
X2754998Y-975000D01*
X2744998Y-995000D01*
X2754998Y-1015000D01*
X2734998Y-1005000D01*
X2714998Y-1015000D01*
X2761664Y-1080000D02*
X2771664Y-1060000D01*
X2761664Y-1040000D01*
X2781664Y-1050000D01*
X2801664Y-1040000D01*
X2791664Y-1060000D01*
X2801664Y-1080000D01*
X2781664Y-1070000D01*
X2761664Y-1080000D01*
X2481665Y-820000D02*
X2491665Y-800000D01*
X2481665Y-780000D01*
X2501665Y-790000D01*
X2521665Y-780000D01*
X2511665Y-800000D01*
X2521665Y-820000D01*
X2501665Y-810000D01*
X2481665Y-820000D01*
X2528331Y-885000D02*
X2538331Y-865000D01*
X2528331Y-845000D01*
X2548331Y-855000D01*
X2568331Y-845000D01*
X2558331Y-865000D01*
X2568331Y-885000D01*
X2548331Y-875000D01*
X2528331Y-885000D01*
X2574998Y-950000D02*
X2584998Y-930000D01*
X2574998Y-910000D01*
X2594998Y-920000D01*
X2614998Y-910000D01*
X2604998Y-930000D01*
X2614998Y-950000D01*
X2594998Y-940000D01*
X2574998Y-950000D01*
X2621664Y-1015000D02*
X2631664Y-995000D01*
X2621664Y-975000D01*
X2641664Y-985000D01*
X2661664Y-975000D01*
X2651664Y-995000D01*
X2661664Y-1015000D01*
X2641664Y-1005000D01*
X2621664Y-1015000D01*
X2668331Y-1080000D02*
X2678331Y-1060000D01*
X2668331Y-1040000D01*
X2688331Y-1050000D01*
X2708331Y-1040000D01*
X2698331Y-1060000D01*
X2708331Y-1080000D01*
X2688331Y-1070000D01*
X2668331Y-1080000D01*
X2388331Y-820000D02*
X2398331Y-800000D01*
X2388331Y-780000D01*
X2408331Y-790000D01*
X2428331Y-780000D01*
X2418331Y-800000D01*
X2428331Y-820000D01*
X2408331Y-810000D01*
X2388331Y-820000D01*
X2434998Y-885000D02*
X2444998Y-865000D01*
X2434998Y-845000D01*
X2454998Y-855000D01*
X2474998Y-845000D01*
X2464998Y-865000D01*
X2474998Y-885000D01*
X2454998Y-875000D01*
X2434998Y-885000D01*
X2481665Y-950000D02*
X2491665Y-930000D01*
X2481665Y-910000D01*
X2501665Y-920000D01*
X2521665Y-910000D01*
X2511665Y-930000D01*
X2521665Y-950000D01*
X2501665Y-940000D01*
X2481665Y-950000D01*
X2528331Y-1015000D02*
X2538331Y-995000D01*
X2528331Y-975000D01*
X2548331Y-985000D01*
X2568331Y-975000D01*
X2558331Y-995000D01*
X2568331Y-1015000D01*
X2548331Y-1005000D01*
X2528331Y-1015000D01*
X2574998Y-1080000D02*
X2584998Y-1060000D01*
X2574998Y-1040000D01*
X2594998Y-1050000D01*
X2614998Y-1040000D01*
X2604998Y-1060000D01*
X2614998Y-1080000D01*
X2594998Y-1070000D01*
X2574998Y-1080000D01*
X2294998Y-820000D02*
X2304998Y-800000D01*
X2294998Y-780000D01*
X2314998Y-790000D01*
X2334998Y-780000D01*
X2324998Y-800000D01*
X2334998Y-820000D01*
X2314998Y-810000D01*
X2294998Y-820000D01*
X2341665Y-885000D02*
X2351665Y-865000D01*
X2341665Y-845000D01*
X2361665Y-855000D01*
X2381665Y-845000D01*
X2371665Y-865000D01*
X2381665Y-885000D01*
X2361665Y-875000D01*
X2341665Y-885000D01*
X2388331Y-950000D02*
X2398331Y-930000D01*
X2388331Y-910000D01*
X2408331Y-920000D01*
X2428331Y-910000D01*
X2418331Y-930000D01*
X2428331Y-950000D01*
X2408331Y-940000D01*
X2388331Y-950000D01*
X2434998Y-1015000D02*
X2444998Y-995000D01*
X2434998Y-975000D01*
X2454998Y-985000D01*
X2474998Y-975000D01*
X2464998Y-995000D01*
X2474998Y-1015000D01*
X2454998Y-1005000D01*
X2434998Y-1015000D01*
X2481665Y-1080000D02*
X2491665Y-1060000D01*
X2481665Y-1040000D01*
X2501665Y-1050000D01*
X2521665Y-1040000D01*
X2511665Y-1060000D01*
X2521665Y-1080000D01*
X2501665Y-1070000D01*
X2481665Y-1080000D01*
X2201665Y-820000D02*
X2211665Y-800000D01*
X2201665Y-780000D01*
X2221665Y-790000D01*
X2241665Y-780000D01*
X2231665Y-800000D01*
X2241665Y-820000D01*
X2221665Y-810000D01*
X2201665Y-820000D01*
X2248332Y-885000D02*
X2258332Y-865000D01*
X2248332Y-845000D01*
X2268332Y-855000D01*
X2288332Y-845000D01*
X2278332Y-865000D01*
X2288332Y-885000D01*
X2268332Y-875000D01*
X2248332Y-885000D01*
X2294998Y-950000D02*
X2304998Y-930000D01*
X2294998Y-910000D01*
X2314998Y-920000D01*
X2334998Y-910000D01*
X2324998Y-930000D01*
X2334998Y-950000D01*
X2314998Y-940000D01*
X2294998Y-950000D01*
X2341665Y-1015000D02*
X2351665Y-995000D01*
X2341665Y-975000D01*
X2361665Y-985000D01*
X2381665Y-975000D01*
X2371665Y-995000D01*
X2381665Y-1015000D01*
X2361665Y-1005000D01*
X2341665Y-1015000D01*
X2388331Y-1080000D02*
X2398331Y-1060000D01*
X2388331Y-1040000D01*
X2408331Y-1050000D01*
X2428331Y-1040000D01*
X2418331Y-1060000D01*
X2428331Y-1080000D01*
X2408331Y-1070000D01*
X2388331Y-1080000D01*
X2108332Y-820000D02*
X2118332Y-800000D01*
X2108332Y-780000D01*
X2128332Y-790000D01*
X2148332Y-780000D01*
X2138332Y-800000D01*
X2148332Y-820000D01*
X2128332Y-810000D01*
X2108332Y-820000D01*
X2154998Y-885000D02*
X2164998Y-865000D01*
X2154998Y-845000D01*
X2174998Y-855000D01*
X2194998Y-845000D01*
X2184998Y-865000D01*
X2194998Y-885000D01*
X2174998Y-875000D01*
X2154998Y-885000D01*
X2201665Y-950000D02*
X2211665Y-930000D01*
X2201665Y-910000D01*
X2221665Y-920000D01*
X2241665Y-910000D01*
X2231665Y-930000D01*
X2241665Y-950000D01*
X2221665Y-940000D01*
X2201665Y-950000D01*
X2248332Y-1015000D02*
X2258332Y-995000D01*
X2248332Y-975000D01*
X2268332Y-985000D01*
X2288332Y-975000D01*
X2278332Y-995000D01*
X2288332Y-1015000D01*
X2268332Y-1005000D01*
X2248332Y-1015000D01*
X2294998Y-1080000D02*
X2304998Y-1060000D01*
X2294998Y-1040000D01*
X2314998Y-1050000D01*
X2334998Y-1040000D01*
X2324998Y-1060000D01*
X2334998Y-1080000D01*
X2314998Y-1070000D01*
X2294998Y-1080000D01*
X2014999Y-820000D02*
X2024999Y-800000D01*
X2014999Y-780000D01*
X2034999Y-790000D01*
X2054999Y-780000D01*
X2044999Y-800000D01*
X2054999Y-820000D01*
X2034999Y-810000D01*
X2014999Y-820000D01*
X2061665Y-885000D02*
X2071665Y-865000D01*
X2061665Y-845000D01*
X2081665Y-855000D01*
X2101665Y-845000D01*
X2091665Y-865000D01*
X2101665Y-885000D01*
X2081665Y-875000D01*
X2061665Y-885000D01*
X2108332Y-950000D02*
X2118332Y-930000D01*
X2108332Y-910000D01*
X2128332Y-920000D01*
X2148332Y-910000D01*
X2138332Y-930000D01*
X2148332Y-950000D01*
X2128332Y-940000D01*
X2108332Y-950000D01*
X2154998Y-1015000D02*
X2164998Y-995000D01*
X2154998Y-975000D01*
X2174998Y-985000D01*
X2194998Y-975000D01*
X2184998Y-995000D01*
X2194998Y-1015000D01*
X2174998Y-1005000D01*
X2154998Y-1015000D01*
X2201665Y-1080000D02*
X2211665Y-1060000D01*
X2201665Y-1040000D01*
X2221665Y-1050000D01*
X2241665Y-1040000D01*
X2231665Y-1060000D01*
X2241665Y-1080000D01*
X2221665Y-1070000D01*
X2201665Y-1080000D01*
X1921665Y-820000D02*
X1931665Y-800000D01*
X1921665Y-780000D01*
X1941665Y-790000D01*
X1961665Y-780000D01*
X1951665Y-800000D01*
X1961665Y-820000D01*
X1941665Y-810000D01*
X1921665Y-820000D01*
X1968332Y-885000D02*
X1978332Y-865000D01*
X1968332Y-845000D01*
X1988332Y-855000D01*
X2008332Y-845000D01*
X1998332Y-865000D01*
X2008332Y-885000D01*
X1988332Y-875000D01*
X1968332Y-885000D01*
X2014999Y-950000D02*
X2024999Y-930000D01*
X2014999Y-910000D01*
X2034999Y-920000D01*
X2054999Y-910000D01*
X2044999Y-930000D01*
X2054999Y-950000D01*
X2034999Y-940000D01*
X2014999Y-950000D01*
X2061665Y-1015000D02*
X2071665Y-995000D01*
X2061665Y-975000D01*
X2081665Y-985000D01*
X2101665Y-975000D01*
X2091665Y-995000D01*
X2101665Y-1015000D01*
X2081665Y-1005000D01*
X2061665Y-1015000D01*
X2108332Y-1080000D02*
X2118332Y-1060000D01*
X2108332Y-1040000D01*
X2128332Y-1050000D01*
X2148332Y-1040000D01*
X2138332Y-1060000D01*
X2148332Y-1080000D01*
X2128332Y-1070000D01*
X2108332Y-1080000D01*
X1828332Y-820000D02*
X1838332Y-800000D01*
X1828332Y-780000D01*
X1848332Y-790000D01*
X1868332Y-780000D01*
X1858332Y-800000D01*
X1868332Y-820000D01*
X1848332Y-810000D01*
X1828332Y-820000D01*
X1874999Y-885000D02*
X1884999Y-865000D01*
X1874999Y-845000D01*
X1894999Y-855000D01*
X1914999Y-845000D01*
X1904999Y-865000D01*
X1914999Y-885000D01*
X1894999Y-875000D01*
X1874999Y-885000D01*
X1921665Y-950000D02*
X1931665Y-930000D01*
X1921665Y-910000D01*
X1941665Y-920000D01*
X1961665Y-910000D01*
X1951665Y-930000D01*
X1961665Y-950000D01*
X1941665Y-940000D01*
X1921665Y-950000D01*
X1968332Y-1015000D02*
X1978332Y-995000D01*
X1968332Y-975000D01*
X1988332Y-985000D01*
X2008332Y-975000D01*
X1998332Y-995000D01*
X2008332Y-1015000D01*
X1988332Y-1005000D01*
X1968332Y-1015000D01*
X2014999Y-1080000D02*
X2024999Y-1060000D01*
X2014999Y-1040000D01*
X2034999Y-1050000D01*
X2054999Y-1040000D01*
X2044999Y-1060000D01*
X2054999Y-1080000D01*
X2034999Y-1070000D01*
X2014999Y-1080000D01*
X1734999Y-820000D02*
X1744999Y-800000D01*
X1734999Y-780000D01*
X1754999Y-790000D01*
X1774999Y-780000D01*
X1764999Y-800000D01*
X1774999Y-820000D01*
X1754999Y-810000D01*
X1734999Y-820000D01*
X1781666Y-885000D02*
X1791666Y-865000D01*
X1781666Y-845000D01*
X1801666Y-855000D01*
X1821666Y-845000D01*
X1811666Y-865000D01*
X1821666Y-885000D01*
X1801666Y-875000D01*
X1781666Y-885000D01*
X1828332Y-950000D02*
X1838332Y-930000D01*
X1828332Y-910000D01*
X1848332Y-920000D01*
X1868332Y-910000D01*
X1858332Y-930000D01*
X1868332Y-950000D01*
X1848332Y-940000D01*
X1828332Y-950000D01*
X1874999Y-1015000D02*
X1884999Y-995000D01*
X1874999Y-975000D01*
X1894999Y-985000D01*
X1914999Y-975000D01*
X1904999Y-995000D01*
X1914999Y-1015000D01*
X1894999Y-1005000D01*
X1874999Y-1015000D01*
X1921665Y-1080000D02*
X1931665Y-1060000D01*
X1921665Y-1040000D01*
X1941665Y-1050000D01*
X1961665Y-1040000D01*
X1951665Y-1060000D01*
X1961665Y-1080000D01*
X1941665Y-1070000D01*
X1921665Y-1080000D01*
X1641666Y-820000D02*
X1651666Y-800000D01*
X1641666Y-780000D01*
X1661666Y-790000D01*
X1681666Y-780000D01*
X1671666Y-800000D01*
X1681666Y-820000D01*
X1661666Y-810000D01*
X1641666Y-820000D01*
X1688332Y-885000D02*
X1698332Y-865000D01*
X1688332Y-845000D01*
X1708332Y-855000D01*
X1728332Y-845000D01*
X1718332Y-865000D01*
X1728332Y-885000D01*
X1708332Y-875000D01*
X1688332Y-885000D01*
X1734999Y-950000D02*
X1744999Y-930000D01*
X1734999Y-910000D01*
X1754999Y-920000D01*
X1774999Y-910000D01*
X1764999Y-930000D01*
X1774999Y-950000D01*
X1754999Y-940000D01*
X1734999Y-950000D01*
X1781666Y-1015000D02*
X1791666Y-995000D01*
X1781666Y-975000D01*
X1801666Y-985000D01*
X1821666Y-975000D01*
X1811666Y-995000D01*
X1821666Y-1015000D01*
X1801666Y-1005000D01*
X1781666Y-1015000D01*
X1828332Y-1080000D02*
X1838332Y-1060000D01*
X1828332Y-1040000D01*
X1848332Y-1050000D01*
X1868332Y-1040000D01*
X1858332Y-1060000D01*
X1868332Y-1080000D01*
X1848332Y-1070000D01*
X1828332Y-1080000D01*
X1548333Y-820000D02*
X1558333Y-800000D01*
X1548333Y-780000D01*
X1568333Y-790000D01*
X1588333Y-780000D01*
X1578333Y-800000D01*
X1588333Y-820000D01*
X1568333Y-810000D01*
X1548333Y-820000D01*
X1594999Y-885000D02*
X1604999Y-865000D01*
X1594999Y-845000D01*
X1614999Y-855000D01*
X1634999Y-845000D01*
X1624999Y-865000D01*
X1634999Y-885000D01*
X1614999Y-875000D01*
X1594999Y-885000D01*
X1641666Y-950000D02*
X1651666Y-930000D01*
X1641666Y-910000D01*
X1661666Y-920000D01*
X1681666Y-910000D01*
X1671666Y-930000D01*
X1681666Y-950000D01*
X1661666Y-940000D01*
X1641666Y-950000D01*
X1688332Y-1015000D02*
X1698332Y-995000D01*
X1688332Y-975000D01*
X1708332Y-985000D01*
X1728332Y-975000D01*
X1718332Y-995000D01*
X1728332Y-1015000D01*
X1708332Y-1005000D01*
X1688332Y-1015000D01*
X1734999Y-1080000D02*
X1744999Y-1060000D01*
X1734999Y-1040000D01*
X1754999Y-1050000D01*
X1774999Y-1040000D01*
X1764999Y-1060000D01*
X1774999Y-1080000D01*
X1754999Y-1070000D01*
X1734999Y-1080000D01*
X1454999Y-820000D02*
X1464999Y-800000D01*
X1454999Y-780000D01*
X1474999Y-790000D01*
X1494999Y-780000D01*
X1484999Y-800000D01*
X1494999Y-820000D01*
X1474999Y-810000D01*
X1454999Y-820000D01*
X1501666Y-885000D02*
X1511666Y-865000D01*
X1501666Y-845000D01*
X1521666Y-855000D01*
X1541666Y-845000D01*
X1531666Y-865000D01*
X1541666Y-885000D01*
X1521666Y-875000D01*
X1501666Y-885000D01*
X1594999Y-1015000D02*
X1604999Y-995000D01*
X1594999Y-975000D01*
X1614999Y-985000D01*
X1634999Y-975000D01*
X1624999Y-995000D01*
X1634999Y-1015000D01*
X1614999Y-1005000D01*
X1594999Y-1015000D01*
X1641666Y-1080000D02*
X1651666Y-1060000D01*
X1641666Y-1040000D01*
X1661666Y-1050000D01*
X1681666Y-1040000D01*
X1671666Y-1060000D01*
X1681666Y-1080000D01*
X1661666Y-1070000D01*
X1641666Y-1080000D01*
X1361666Y-820000D02*
X1371666Y-800000D01*
X1361666Y-780000D01*
X1381666Y-790000D01*
X1401666Y-780000D01*
X1391666Y-800000D01*
X1401666Y-820000D01*
X1381666Y-810000D01*
X1361666Y-820000D01*
X1408333Y-885000D02*
X1418333Y-865000D01*
X1408333Y-845000D01*
X1428333Y-855000D01*
X1448333Y-845000D01*
X1438333Y-865000D01*
X1448333Y-885000D01*
X1428333Y-875000D01*
X1408333Y-885000D01*
X1454999Y-950000D02*
X1464999Y-930000D01*
X1454999Y-910000D01*
X1474999Y-920000D01*
X1494999Y-910000D01*
X1484999Y-930000D01*
X1494999Y-950000D01*
X1474999Y-940000D01*
X1454999Y-950000D01*
X1501666Y-1015000D02*
X1511666Y-995000D01*
X1501666Y-975000D01*
X1521666Y-985000D01*
X1541666Y-975000D01*
X1531666Y-995000D01*
X1541666Y-1015000D01*
X1521666Y-1005000D01*
X1501666Y-1015000D01*
X1548333Y-1080000D02*
X1558333Y-1060000D01*
X1548333Y-1040000D01*
X1568333Y-1050000D01*
X1588333Y-1040000D01*
X1578333Y-1060000D01*
X1588333Y-1080000D01*
X1568333Y-1070000D01*
X1548333Y-1080000D01*
X1454999D02*
X1464999Y-1060000D01*
X1454999Y-1040000D01*
X1474999Y-1050000D01*
X1494999Y-1040000D01*
X1484999Y-1060000D01*
X1494999Y-1080000D01*
X1474999Y-1070000D01*
X1454999Y-1080000D01*
X1408333Y-1015000D02*
X1418333Y-995000D01*
X1408333Y-975000D01*
X1428333Y-985000D01*
X1448333Y-975000D01*
X1438333Y-995000D01*
X1448333Y-1015000D01*
X1428333Y-1005000D01*
X1408333Y-1015000D01*
X1361666Y-950000D02*
X1371666Y-930000D01*
X1361666Y-910000D01*
X1381666Y-920000D01*
X1401666Y-910000D01*
X1391666Y-930000D01*
X1401666Y-950000D01*
X1381666Y-940000D01*
X1361666Y-950000D01*
Y-1080000D02*
X1371666Y-1060000D01*
X1361666Y-1040000D01*
X1381666Y-1050000D01*
X1401666Y-1040000D01*
X1391666Y-1060000D01*
X1401666Y-1080000D01*
X1381666Y-1070000D01*
X1361666Y-1080000D01*
X1315000Y-1015000D02*
X1325000Y-995000D01*
X1315000Y-975000D01*
X1335000Y-985000D01*
X1355000Y-975000D01*
X1345000Y-995000D01*
X1355000Y-1015000D01*
X1335000Y-1005000D01*
X1315000Y-1015000D01*
X1268333Y-1080000D02*
X1278333Y-1060000D01*
X1268333Y-1040000D01*
X1288333Y-1050000D01*
X1308333Y-1040000D01*
X1298333Y-1060000D01*
X1308333Y-1080000D01*
X1288333Y-1070000D01*
X1268333Y-1080000D01*
X1221666Y-1015000D02*
X1231666Y-995000D01*
X1221666Y-975000D01*
X1241666Y-985000D01*
X1261666Y-975000D01*
X1251666Y-995000D01*
X1261666Y-1015000D01*
X1241666Y-1005000D01*
X1221666Y-1015000D01*
X1128333D02*
X1138333Y-995000D01*
X1128333Y-975000D01*
X1148333Y-985000D01*
X1168333Y-975000D01*
X1158333Y-995000D01*
X1168333Y-1015000D01*
X1148333Y-1005000D01*
X1128333Y-1015000D01*
X1315000Y-885000D02*
X1325000Y-865000D01*
X1315000Y-845000D01*
X1335000Y-855000D01*
X1355000Y-845000D01*
X1345000Y-865000D01*
X1355000Y-885000D01*
X1335000Y-875000D01*
X1315000Y-885000D01*
X1268333Y-950000D02*
X1278333Y-930000D01*
X1268333Y-910000D01*
X1288333Y-920000D01*
X1308333Y-910000D01*
X1298333Y-930000D01*
X1308333Y-950000D01*
X1288333Y-940000D01*
X1268333Y-950000D01*
Y-820000D02*
X1278333Y-800000D01*
X1268333Y-780000D01*
X1288333Y-790000D01*
X1308333Y-780000D01*
X1298333Y-800000D01*
X1308333Y-820000D01*
X1288333Y-810000D01*
X1268333Y-820000D01*
X1221666Y-885000D02*
X1231666Y-865000D01*
X1221666Y-845000D01*
X1241666Y-855000D01*
X1261666Y-845000D01*
X1251666Y-865000D01*
X1261666Y-885000D01*
X1241666Y-875000D01*
X1221666Y-885000D01*
X1175000Y-950000D02*
X1185000Y-930000D01*
X1175000Y-910000D01*
X1195000Y-920000D01*
X1215000Y-910000D01*
X1205000Y-930000D01*
X1215000Y-950000D01*
X1195000Y-940000D01*
X1175000Y-950000D01*
X1081667D02*
X1091667Y-930000D01*
X1081667Y-910000D01*
X1101667Y-920000D01*
X1121667Y-910000D01*
X1111667Y-930000D01*
X1121667Y-950000D01*
X1101667Y-940000D01*
X1081667Y-950000D01*
X1128333Y-885000D02*
X1138333Y-865000D01*
X1128333Y-845000D01*
X1148333Y-855000D01*
X1168333Y-845000D01*
X1158333Y-865000D01*
X1168333Y-885000D01*
X1148333Y-875000D01*
X1128333Y-885000D01*
X1175000Y-820000D02*
X1185000Y-800000D01*
X1175000Y-780000D01*
X1195000Y-790000D01*
X1215000Y-780000D01*
X1205000Y-800000D01*
X1215000Y-820000D01*
X1195000Y-810000D01*
X1175000Y-820000D01*
X1035000Y-885000D02*
X1045000Y-865000D01*
X1035000Y-845000D01*
X1055000Y-855000D01*
X1075000Y-845000D01*
X1065000Y-865000D01*
X1075000Y-885000D01*
X1055000Y-875000D01*
X1035000Y-885000D01*
X1081667Y-820000D02*
X1091667Y-800000D01*
X1081667Y-780000D01*
X1101667Y-790000D01*
X1121667Y-780000D01*
X1111667Y-800000D01*
X1121667Y-820000D01*
X1101667Y-810000D01*
X1081667Y-820000D01*
X865000Y-2995000D02*
Y-3005000D01*
X885000D01*
Y-2995000D01*
X895000D01*
Y-2975000D01*
X885000D01*
Y-2965000D01*
X865000D01*
Y-2975000D01*
X855000D01*
Y-2995000D01*
X865000D01*
X880000Y-1795000D02*
Y-1805000D01*
X900000D01*
Y-1795000D01*
X910000D01*
Y-1775000D01*
X900000D01*
Y-1765000D01*
X880000D01*
Y-1775000D01*
X870000D01*
Y-1795000D01*
X880000D01*
X750000Y-2915000D02*
Y-2925000D01*
X770000D01*
Y-2915000D01*
X780000D01*
Y-2895000D01*
X770000D01*
Y-2885000D01*
X750000D01*
Y-2895000D01*
X740000D01*
Y-2915000D01*
X750000D01*
X770000Y-1690000D02*
Y-1700000D01*
X790000D01*
Y-1690000D01*
X800000D01*
Y-1670000D01*
X790000D01*
Y-1660000D01*
X770000D01*
Y-1670000D01*
X760000D01*
Y-1690000D01*
X770000D01*
X-45000Y-1575000D02*
Y-1585000D01*
X-25000D01*
Y-1575000D01*
X-15000D01*
Y-1555000D01*
X-25000D01*
Y-1545000D01*
X-45000D01*
Y-1555000D01*
X-55000D01*
Y-1575000D01*
X-45000D01*
X900000Y-495000D02*
Y-505000D01*
X920000D01*
Y-495000D01*
X930000D01*
Y-475000D01*
X920000D01*
Y-465000D01*
X900000D01*
Y-475000D01*
X890000D01*
Y-495000D01*
X900000D01*
X845000Y-240000D02*
Y-250000D01*
X865000D01*
Y-240000D01*
X875000D01*
Y-220000D01*
X865000D01*
Y-210000D01*
X845000D01*
Y-220000D01*
X835000D01*
Y-240000D01*
X845000D01*
X605000Y-2820000D02*
X615000D01*
X625000Y-2810000D01*
X635000Y-2820000D01*
X645000D01*
Y-2810000D01*
X635000Y-2800000D01*
X645000Y-2790000D01*
Y-2780000D01*
X635000D01*
X625000Y-2790000D01*
X615000Y-2780000D01*
X605000D01*
Y-2790000D01*
X615000Y-2800000D01*
X605000Y-2810000D01*
Y-2820000D01*
X20000Y-2775000D02*
X30000D01*
X40000Y-2765000D01*
X50000Y-2775000D01*
X60000D01*
Y-2765000D01*
X50000Y-2755000D01*
X60000Y-2745000D01*
Y-2735000D01*
X50000D01*
X40000Y-2745000D01*
X30000Y-2735000D01*
X20000D01*
Y-2745000D01*
X30000Y-2755000D01*
X20000Y-2765000D01*
Y-2775000D01*
X-55000Y-2695000D02*
X-45000D01*
X-35000Y-2685000D01*
X-25000Y-2695000D01*
X-15000D01*
Y-2685000D01*
X-25000Y-2675000D01*
X-15000Y-2665000D01*
Y-2655000D01*
X-25000D01*
X-35000Y-2665000D01*
X-45000Y-2655000D01*
X-55000D01*
Y-2665000D01*
X-45000Y-2675000D01*
X-55000Y-2685000D01*
Y-2695000D01*
X885000Y-2740000D02*
X895000D01*
X905000Y-2730000D01*
X915000Y-2740000D01*
X925000D01*
Y-2730000D01*
X915000Y-2720000D01*
X925000Y-2710000D01*
Y-2700000D01*
X915000D01*
X905000Y-2710000D01*
X895000Y-2700000D01*
X885000D01*
Y-2710000D01*
X895000Y-2720000D01*
X885000Y-2730000D01*
Y-2740000D01*
X780000Y-2640000D02*
X790000D01*
X800000Y-2630000D01*
X810000Y-2640000D01*
X820000D01*
Y-2630000D01*
X810000Y-2620000D01*
X820000Y-2610000D01*
Y-2600000D01*
X810000D01*
X800000Y-2610000D01*
X790000Y-2600000D01*
X780000D01*
Y-2610000D01*
X790000Y-2620000D01*
X780000Y-2630000D01*
Y-2640000D01*
X590000Y-2605000D02*
X600000D01*
X610000Y-2595000D01*
X620000Y-2605000D01*
X630000D01*
Y-2595000D01*
X620000Y-2585000D01*
X630000Y-2575000D01*
Y-2565000D01*
X620000D01*
X610000Y-2575000D01*
X600000Y-2565000D01*
X590000D01*
Y-2575000D01*
X600000Y-2585000D01*
X590000Y-2595000D01*
Y-2605000D01*
X415000Y-2600000D02*
X425000D01*
X435000Y-2590000D01*
X445000Y-2600000D01*
X455000D01*
Y-2590000D01*
X445000Y-2580000D01*
X455000Y-2570000D01*
Y-2560000D01*
X445000D01*
X435000Y-2570000D01*
X425000Y-2560000D01*
X415000D01*
Y-2570000D01*
X425000Y-2580000D01*
X415000Y-2590000D01*
Y-2600000D01*
X265000D02*
X275000D01*
X285000Y-2590000D01*
X295000Y-2600000D01*
X305000D01*
Y-2590000D01*
X295000Y-2580000D01*
X305000Y-2570000D01*
Y-2560000D01*
X295000D01*
X285000Y-2570000D01*
X275000Y-2560000D01*
X265000D01*
Y-2570000D01*
X275000Y-2580000D01*
X265000Y-2590000D01*
Y-2600000D01*
X130000Y-2555000D02*
X140000D01*
X150000Y-2545000D01*
X160000Y-2555000D01*
X170000D01*
Y-2545000D01*
X160000Y-2535000D01*
X170000Y-2525000D01*
Y-2515000D01*
X160000D01*
X150000Y-2525000D01*
X140000Y-2515000D01*
X130000D01*
Y-2525000D01*
X140000Y-2535000D01*
X130000Y-2545000D01*
Y-2555000D01*
X65000Y-2405000D02*
X75000D01*
X85000Y-2395000D01*
X95000Y-2405000D01*
X105000D01*
Y-2395000D01*
X95000Y-2385000D01*
X105000Y-2375000D01*
Y-2365000D01*
X95000D01*
X85000Y-2375000D01*
X75000Y-2365000D01*
X65000D01*
Y-2375000D01*
X75000Y-2385000D01*
X65000Y-2395000D01*
Y-2405000D01*
X70000Y-1780000D02*
X80000D01*
X90000Y-1770000D01*
X100000Y-1780000D01*
X110000D01*
Y-1770000D01*
X100000Y-1760000D01*
X110000Y-1750000D01*
Y-1740000D01*
X100000D01*
X90000Y-1750000D01*
X80000Y-1740000D01*
X70000D01*
Y-1750000D01*
X80000Y-1760000D01*
X70000Y-1770000D01*
Y-1780000D01*
X75000Y-1660000D02*
X85000D01*
X95000Y-1650000D01*
X105000Y-1660000D01*
X115000D01*
Y-1650000D01*
X105000Y-1640000D01*
X115000Y-1630000D01*
Y-1620000D01*
X105000D01*
X95000Y-1630000D01*
X85000Y-1620000D01*
X75000D01*
Y-1630000D01*
X85000Y-1640000D01*
X75000Y-1650000D01*
Y-1660000D01*
X70000Y-1500000D02*
X80000D01*
X90000Y-1490000D01*
X100000Y-1500000D01*
X110000D01*
Y-1490000D01*
X100000Y-1480000D01*
X110000Y-1470000D01*
Y-1460000D01*
X100000D01*
X90000Y-1470000D01*
X80000Y-1460000D01*
X70000D01*
Y-1470000D01*
X80000Y-1480000D01*
X70000Y-1490000D01*
Y-1500000D01*
X300000Y-1480000D02*
X310000D01*
X320000Y-1470000D01*
X330000Y-1480000D01*
X340000D01*
Y-1470000D01*
X330000Y-1460000D01*
X340000Y-1450000D01*
Y-1440000D01*
X330000D01*
X320000Y-1450000D01*
X310000Y-1440000D01*
X300000D01*
Y-1450000D01*
X310000Y-1460000D01*
X300000Y-1470000D01*
Y-1480000D01*
X470000D02*
X480000D01*
X490000Y-1470000D01*
X500000Y-1480000D01*
X510000D01*
Y-1470000D01*
X500000Y-1460000D01*
X510000Y-1450000D01*
Y-1440000D01*
X500000D01*
X490000Y-1450000D01*
X480000Y-1440000D01*
X470000D01*
Y-1450000D01*
X480000Y-1460000D01*
X470000Y-1470000D01*
Y-1480000D01*
X645000D02*
X655000D01*
X665000Y-1470000D01*
X675000Y-1480000D01*
X685000D01*
Y-1470000D01*
X675000Y-1460000D01*
X685000Y-1450000D01*
Y-1440000D01*
X675000D01*
X665000Y-1450000D01*
X655000Y-1440000D01*
X645000D01*
Y-1450000D01*
X655000Y-1460000D01*
X645000Y-1470000D01*
Y-1480000D01*
X810000D02*
X820000D01*
X830000Y-1470000D01*
X840000Y-1480000D01*
X850000D01*
Y-1470000D01*
X840000Y-1460000D01*
X850000Y-1450000D01*
Y-1440000D01*
X840000D01*
X830000Y-1450000D01*
X820000Y-1440000D01*
X810000D01*
Y-1450000D01*
X820000Y-1460000D01*
X810000Y-1470000D01*
Y-1480000D01*
X925000Y-1570000D02*
X935000D01*
X945000Y-1560000D01*
X955000Y-1570000D01*
X965000D01*
Y-1560000D01*
X955000Y-1550000D01*
X965000Y-1540000D01*
Y-1530000D01*
X955000D01*
X945000Y-1540000D01*
X935000Y-1530000D01*
X925000D01*
Y-1540000D01*
X935000Y-1550000D01*
X925000Y-1560000D01*
Y-1570000D01*
X150000Y-385000D02*
X160000D01*
X170000Y-375000D01*
X180000Y-385000D01*
X190000D01*
Y-375000D01*
X180000Y-365000D01*
X190000Y-355000D01*
Y-345000D01*
X180000D01*
X170000Y-355000D01*
X160000Y-345000D01*
X150000D01*
Y-355000D01*
X160000Y-365000D01*
X150000Y-375000D01*
Y-385000D01*
X-35000Y-170000D02*
X-25000D01*
X-15000Y-160000D01*
X-5000Y-170000D01*
X5000D01*
Y-160000D01*
X-5000Y-150000D01*
X5000Y-140000D01*
Y-130000D01*
X-5000D01*
X-15000Y-140000D01*
X-25000Y-130000D01*
X-35000D01*
Y-140000D01*
X-25000Y-150000D01*
X-35000Y-160000D01*
Y-170000D01*
X755000Y-320000D02*
X765000D01*
X775000Y-310000D01*
X785000Y-320000D01*
X795000D01*
Y-310000D01*
X785000Y-300000D01*
X795000Y-290000D01*
Y-280000D01*
X785000D01*
X775000Y-290000D01*
X765000Y-280000D01*
X755000D01*
Y-290000D01*
X765000Y-300000D01*
X755000Y-310000D01*
Y-320000D01*
X970000D02*
X980000D01*
X990000Y-310000D01*
X1000000Y-320000D01*
X1010000D01*
Y-310000D01*
X1000000Y-300000D01*
X1010000Y-290000D01*
Y-280000D01*
X1000000D01*
X990000Y-290000D01*
X980000Y-280000D01*
X970000D01*
Y-290000D01*
X980000Y-300000D01*
X970000Y-310000D01*
Y-320000D01*
D58*
X3413425Y-130000D02*
G03*
X3413425Y-130000I-20000J0D01*
G01*
X3216575D02*
G03*
X3216575Y-130000I-20000J0D01*
G01*
X3350000Y-3188701D02*
G03*
X3350000Y-3188701I-20000J0D01*
G01*
Y-3385552D02*
G03*
X3350000Y-3385552I-20000J0D01*
G01*
X3330000Y-681851D02*
G03*
X3330000Y-681851I-20000J0D01*
G01*
Y-878702D02*
G03*
X3330000Y-878702I-20000J0D01*
G01*
X3335000Y-1993701D02*
G03*
X3335000Y-1993701I-20000J0D01*
G01*
Y-2190552D02*
G03*
X3335000Y-2190552I-20000J0D01*
G01*
X505000Y-3408425D02*
G03*
X505000Y-3408425I-20000J0D01*
G01*
Y-3211575D02*
G03*
X505000Y-3211575I-20000J0D01*
G01*
X540000Y-901299D02*
G03*
X540000Y-901299I-20000J0D01*
G01*
Y-704448D02*
G03*
X540000Y-704448I-20000J0D01*
G01*
X520000Y-2213425D02*
G03*
X520000Y-2213425I-20000J0D01*
G01*
Y-2016575D02*
G03*
X520000Y-2016575I-20000J0D01*
G01*
%TF.MD5,c2f5b4267b1bbecaab8ef5c7f8d67654*%
M02*
