G04 Layer_Color=32768*
%FSLAX26Y26*%
%MOIN*%
%TF.FileFunction,Other,Mechanical_15*%
%TF.Part,Single*%
G01*
G75*
%TA.AperFunction,NonConductor*%
%ADD35C,0.003937*%
%ADD36C,0.001968*%
D35*
X560315Y-1435000D02*
X599685D01*
X580000Y-1454685D02*
Y-1415315D01*
X580315Y-2200000D02*
X619685D01*
X600000Y-2219685D02*
Y-2180315D01*
X570315Y-2990000D02*
X609685D01*
X590000Y-3009685D02*
Y-2970315D01*
X565315Y-1690000D02*
X604685D01*
X585000Y-1709685D02*
Y-1670315D01*
X570315Y-2465000D02*
X609685D01*
X590000Y-2484685D02*
Y-2445315D01*
X570315Y-3225236D02*
X609685D01*
X590000Y-3244921D02*
Y-3205551D01*
D36*
X693268Y-1844527D02*
Y-1535472D01*
X476732Y-1844527D02*
Y-1535472D01*
X693268D01*
X476732Y-1844527D02*
X693268D01*
X698268Y-2619528D02*
Y-2310472D01*
X481732Y-2619528D02*
Y-2310472D01*
X698268D01*
X481732Y-2619528D02*
X698268D01*
Y-3379764D02*
Y-3070709D01*
X481732Y-3379764D02*
Y-3070709D01*
X698268D01*
X481732Y-3379764D02*
X698268D01*
%TF.MD5,b33aeeae65f708400059614fe4b849d1*%
M02*
