G04 Layer_Color=128*
%FSLAX26Y26*%
%MOIN*%
%TF.FileFunction,Drillmap*%
%TF.Part,Single*%
G01*
G75*
%TA.AperFunction,NonConductor*%
%ADD39C,0.005000*%
D39*
X1845945Y-2945000D02*
X1881378D01*
X1863661Y-2962716D02*
Y-2927284D01*
X2928622Y-2945000D02*
X2964055D01*
X2946339Y-2962716D02*
Y-2927284D01*
X1845945Y-1667500D02*
X1881378D01*
X1863661Y-1685216D02*
Y-1649784D01*
X2928622Y-1667500D02*
X2964055D01*
X2946339Y-1685216D02*
Y-1649784D01*
X1845945Y-390000D02*
X1881378D01*
X1863661Y-407716D02*
Y-372284D01*
X2928622Y-390000D02*
X2964055D01*
X2946339Y-407716D02*
Y-372284D01*
X1547284Y-2751299D02*
X1582716D01*
X1565000Y-2769016D02*
Y-2733583D01*
X1547284Y-3538701D02*
X1582716D01*
X1565000Y-3556417D02*
Y-3520984D01*
X3369803Y-130000D02*
X3417047D01*
X3393425Y-153622D02*
Y-106378D01*
X3172953Y-130000D02*
X3220197D01*
X3196575Y-153622D02*
Y-106378D01*
X3306378Y-3188701D02*
X3353622D01*
X3330000Y-3212323D02*
Y-3165079D01*
X3306378Y-3385552D02*
X3353622D01*
X3330000Y-3409174D02*
Y-3361930D01*
X1547284Y-1466299D02*
X1582716D01*
X1565000Y-1484016D02*
Y-1448583D01*
X1547284Y-2253701D02*
X1582716D01*
X1565000Y-2271417D02*
Y-2235984D01*
X1547284Y-141299D02*
X1582716D01*
X1565000Y-159016D02*
Y-123583D01*
X1547284Y-928701D02*
X1582716D01*
X1565000Y-946417D02*
Y-910984D01*
X3286378Y-681851D02*
X3333622D01*
X3310000Y-705473D02*
Y-658229D01*
X3286378Y-878702D02*
X3333622D01*
X3310000Y-902324D02*
Y-855080D01*
X3291378Y-1993701D02*
X3338622D01*
X3315000Y-2017323D02*
Y-1970079D01*
X3291378Y-2190552D02*
X3338622D01*
X3315000Y-2214174D02*
Y-2166930D01*
X-59055Y-3779528D02*
X59055D01*
X0Y-3838583D02*
Y-3720472D01*
X-59055Y0D02*
X59055D01*
X0Y-59055D02*
Y59055D01*
X3720472Y-3779528D02*
X3838583D01*
X3779528Y-3838583D02*
Y-3720472D01*
X3720472Y-0D02*
X3838582D01*
X3779527Y-59055D02*
Y59055D01*
X775000Y-140000D02*
X805000D01*
X790000Y-155000D02*
Y-125000D01*
X875000Y-140000D02*
X905000D01*
X890000Y-155000D02*
Y-125000D01*
X275000Y-140000D02*
X305000D01*
X290000Y-155000D02*
Y-125000D01*
X375000Y-140000D02*
X405000D01*
X390000Y-155000D02*
Y-125000D01*
X475000Y-140000D02*
X505000D01*
X490000Y-155000D02*
Y-125000D01*
X575000Y-140000D02*
X605000D01*
X590000Y-155000D02*
Y-125000D01*
X675000Y-140000D02*
X705000D01*
X690000Y-155000D02*
Y-125000D01*
X975000Y-140000D02*
X1005000D01*
X990000Y-155000D02*
Y-125000D01*
X775000Y-40000D02*
X805000D01*
X790000Y-55000D02*
Y-25000D01*
X875000Y-40000D02*
X905000D01*
X890000Y-55000D02*
Y-25000D01*
X275000Y-40000D02*
X305000D01*
X290000Y-55000D02*
Y-25000D01*
X375000Y-40000D02*
X405000D01*
X390000Y-55000D02*
Y-25000D01*
X475000Y-40000D02*
X505000D01*
X490000Y-55000D02*
Y-25000D01*
X575000Y-40000D02*
X605000D01*
X590000Y-55000D02*
Y-25000D01*
X675000Y-40000D02*
X705000D01*
X690000Y-55000D02*
Y-25000D01*
X975000Y-40000D02*
X1005000D01*
X990000Y-55000D02*
Y-25000D01*
X461378Y-3408425D02*
X508622D01*
X485000Y-3432047D02*
Y-3384803D01*
X461378Y-3211575D02*
X508622D01*
X485000Y-3235197D02*
Y-3187953D01*
X496378Y-901299D02*
X543622D01*
X520000Y-924921D02*
Y-877677D01*
X496378Y-704448D02*
X543622D01*
X520000Y-728070D02*
Y-680826D01*
X476378Y-2213425D02*
X523622D01*
X500000Y-2237047D02*
Y-2189803D01*
X476378Y-2016575D02*
X523622D01*
X500000Y-2040197D02*
Y-1992953D01*
X687428Y-3307127D02*
X699239D01*
X693334Y-3313032D02*
Y-3301221D01*
X734095Y-3372127D02*
X745906D01*
X740000Y-3378032D02*
Y-3366221D01*
X687428Y-3437127D02*
X699239D01*
X693334Y-3443032D02*
Y-3431221D01*
X640762Y-3372127D02*
X652573D01*
X646667Y-3378032D02*
Y-3366221D01*
X594095Y-3307127D02*
X605906D01*
X600001Y-3313032D02*
Y-3301221D01*
X594095Y-3437127D02*
X605906D01*
X600001Y-3443032D02*
Y-3431221D01*
X702428Y-2112127D02*
X714239D01*
X708334Y-2118032D02*
Y-2106221D01*
X749095Y-2177127D02*
X760906D01*
X755000Y-2183032D02*
Y-2171221D01*
X702428Y-2242127D02*
X714239D01*
X708334Y-2248032D02*
Y-2236221D01*
X655762Y-2177127D02*
X667573D01*
X661667Y-2183032D02*
Y-2171221D01*
X609095Y-2112127D02*
X620906D01*
X615001Y-2118032D02*
Y-2106221D01*
X609095Y-2242127D02*
X620906D01*
X615001Y-2248032D02*
Y-2236221D01*
X629095Y-930000D02*
X640906D01*
X635001Y-935905D02*
Y-924095D01*
X629095Y-800000D02*
X640906D01*
X635001Y-805905D02*
Y-794095D01*
X675762Y-865000D02*
X687573D01*
X681667Y-870905D02*
Y-859095D01*
X722428Y-930000D02*
X734239D01*
X728334Y-935905D02*
Y-924095D01*
X769095Y-865000D02*
X780906D01*
X775000Y-870905D02*
Y-859095D01*
X722428Y-800000D02*
X734239D01*
X728334Y-805905D02*
Y-794095D01*
X2919095Y-221667D02*
X2930905D01*
X2925000Y-227572D02*
Y-215762D01*
X2984095Y-175000D02*
X2995905D01*
X2990000Y-180906D02*
Y-169095D01*
X3049095Y-128334D02*
X3060905D01*
X3055000Y-134239D02*
Y-122428D01*
X3114095Y-175000D02*
X3125905D01*
X3120000Y-180906D02*
Y-169095D01*
X3049095Y-221667D02*
X3060905D01*
X3055000Y-227572D02*
Y-215762D01*
X3179095Y-221667D02*
X3190905D01*
X3185000Y-227572D02*
Y-215762D01*
X3049095Y-315000D02*
X3060905D01*
X3055000Y-320906D02*
Y-309095D01*
X2984095Y-268334D02*
X2995905D01*
X2990000Y-274239D02*
Y-262428D01*
X3179095Y-315000D02*
X3190905D01*
X3185000Y-320906D02*
Y-309095D01*
X3114095Y-268334D02*
X3125905D01*
X3120000Y-274239D02*
Y-262428D01*
X3309095Y-315000D02*
X3320905D01*
X3315000Y-320906D02*
Y-309095D01*
X3244095Y-268334D02*
X3255905D01*
X3250000Y-274239D02*
Y-262428D01*
X3309095Y-128334D02*
X3320905D01*
X3315000Y-134239D02*
Y-122428D01*
X3504095Y-175000D02*
X3515905D01*
X3510000Y-180906D02*
Y-169095D01*
X3569095Y-221667D02*
X3580905D01*
X3575000Y-227572D02*
Y-215762D01*
X3634095Y-268334D02*
X3645905D01*
X3640000Y-274239D02*
Y-262428D01*
X3699095Y-315000D02*
X3710905D01*
X3705000Y-320906D02*
Y-309095D01*
X3764095Y-361667D02*
X3775905D01*
X3770000Y-367572D02*
Y-355761D01*
X3309095Y-221667D02*
X3320905D01*
X3315000Y-227572D02*
Y-215762D01*
X3374095Y-268334D02*
X3385905D01*
X3380000Y-274239D02*
Y-262428D01*
X3439095Y-315000D02*
X3450905D01*
X3445000Y-320906D02*
Y-309095D01*
X3634095Y-455000D02*
X3645905D01*
X3640000Y-460906D02*
Y-449094D01*
X3439095Y-221667D02*
X3450905D01*
X3445000Y-227572D02*
Y-215762D01*
X3504095Y-268334D02*
X3515905D01*
X3510000Y-274239D02*
Y-262428D01*
X3569095Y-315000D02*
X3580905D01*
X3575000Y-320906D02*
Y-309095D01*
X3634095Y-361667D02*
X3645905D01*
X3640000Y-367572D02*
Y-355761D01*
X3699095Y-408333D02*
X3710905D01*
X3705000Y-414239D02*
Y-402428D01*
X3699095Y-501667D02*
X3710905D01*
X3705000Y-507572D02*
Y-495761D01*
X3699095Y-2648330D02*
X3710905D01*
X3705000Y-2654236D02*
Y-2642425D01*
X3634095Y-2694997D02*
X3645905D01*
X3640000Y-2700902D02*
Y-2689091D01*
X3569095Y-2741663D02*
X3580905D01*
X3575000Y-2747569D02*
Y-2735758D01*
X3504095Y-2788330D02*
X3515905D01*
X3510000Y-2794235D02*
Y-2782425D01*
X3439095Y-2834997D02*
X3450905D01*
X3445000Y-2840902D02*
Y-2829091D01*
X3309095Y-2834997D02*
X3320905D01*
X3315000Y-2840902D02*
Y-2829091D01*
X3179095Y-2834997D02*
X3190905D01*
X3185000Y-2840902D02*
Y-2829091D01*
X3049095Y-2834997D02*
X3060905D01*
X3055000Y-2840902D02*
Y-2829091D01*
X2919095Y-2834997D02*
X2930905D01*
X2925000Y-2840902D02*
Y-2829091D01*
X3374095Y-2788330D02*
X3385905D01*
X3380000Y-2794235D02*
Y-2782425D01*
X3244095Y-2788330D02*
X3255905D01*
X3250000Y-2794235D02*
Y-2782425D01*
X3114095Y-2788330D02*
X3125905D01*
X3120000Y-2794235D02*
Y-2782425D01*
X2984095Y-2788330D02*
X2995905D01*
X2990000Y-2794235D02*
Y-2782425D01*
X3049095Y-2741663D02*
X3060905D01*
X3055000Y-2747569D02*
Y-2735758D01*
X3179095Y-2741663D02*
X3190905D01*
X3185000Y-2747569D02*
Y-2735758D01*
X3309095Y-2741663D02*
X3320905D01*
X3315000Y-2747569D02*
Y-2735758D01*
X3114095Y-2694997D02*
X3125905D01*
X3120000Y-2700902D02*
Y-2689091D01*
X3244095Y-2694997D02*
X3255905D01*
X3250000Y-2700902D02*
Y-2689091D01*
X2984095Y-1574998D02*
X2995905D01*
X2990000Y-1580904D02*
Y-1569093D01*
X3114095Y-1574998D02*
X3125905D01*
X3120000Y-1580904D02*
Y-1569093D01*
X3049095Y-1621665D02*
X3060905D01*
X3055000Y-1627571D02*
Y-1615759D01*
X3049095Y-1528332D02*
X3060905D01*
X3055000Y-1534237D02*
Y-1522426D01*
X3244095Y-1574998D02*
X3255905D01*
X3250000Y-1580904D02*
Y-1569093D01*
X3179095Y-1621665D02*
X3190905D01*
X3185000Y-1627571D02*
Y-1615759D01*
X3179095Y-1528332D02*
X3190905D01*
X3185000Y-1534237D02*
Y-1522426D01*
X3309095Y-1528332D02*
X3320905D01*
X3315000Y-1534237D02*
Y-1522426D01*
X3309095Y-1621665D02*
X3320905D01*
X3315000Y-1627571D02*
Y-1615759D01*
X3439095Y-1621665D02*
X3450905D01*
X3445000Y-1627571D02*
Y-1615759D01*
X3374095Y-1574998D02*
X3385905D01*
X3380000Y-1580904D02*
Y-1569093D01*
X3374095Y-2694997D02*
X3385905D01*
X3380000Y-2700902D02*
Y-2689091D01*
X3439095Y-2741663D02*
X3450905D01*
X3445000Y-2747569D02*
Y-2735758D01*
X3504095Y-2694997D02*
X3515905D01*
X3510000Y-2700902D02*
Y-2689091D01*
X3569095Y-2648330D02*
X3580905D01*
X3575000Y-2654236D02*
Y-2642425D01*
X3634095Y-2601664D02*
X3645905D01*
X3640000Y-2607569D02*
Y-2595758D01*
X3699095Y-2554997D02*
X3710905D01*
X3705000Y-2560903D02*
Y-2549091D01*
X3634095Y-2508330D02*
X3645905D01*
X3640000Y-2514236D02*
Y-2502425D01*
X3699095Y-2461664D02*
X3710905D01*
X3705000Y-2467569D02*
Y-2455758D01*
X3439095Y-1528332D02*
X3450905D01*
X3445000Y-1534237D02*
Y-1522426D01*
X3504095Y-1574998D02*
X3515905D01*
X3510000Y-1580904D02*
Y-1569093D01*
X3569095Y-1528332D02*
X3580905D01*
X3575000Y-1534237D02*
Y-1522426D01*
X3569095Y-1621665D02*
X3580905D01*
X3575000Y-1627571D02*
Y-1615759D01*
X3634095Y-1481665D02*
X3645905D01*
X3640000Y-1487571D02*
Y-1475760D01*
X3634095Y-1574998D02*
X3645905D01*
X3640000Y-1580904D02*
Y-1569093D01*
X3634095Y-1668332D02*
X3645905D01*
X3640000Y-1674237D02*
Y-1662426D01*
X3699095Y-1714998D02*
X3710905D01*
X3705000Y-1720904D02*
Y-1709093D01*
X3699095Y-1621665D02*
X3710905D01*
X3705000Y-1627571D02*
Y-1615759D01*
X3699095Y-1528332D02*
X3710905D01*
X3705000Y-1534237D02*
Y-1522426D01*
X3699095Y-1434999D02*
X3710905D01*
X3705000Y-1440904D02*
Y-1429093D01*
X3764095Y-2321664D02*
X3775905D01*
X3770000Y-2327570D02*
Y-2315758D01*
X3764095Y-2414997D02*
X3775905D01*
X3770000Y-2420903D02*
Y-2409092D01*
X3764095Y-2508330D02*
X3775905D01*
X3770000Y-2514236D02*
Y-2502425D01*
X3764095Y-1294999D02*
X3775905D01*
X3770000Y-1300904D02*
Y-1289093D01*
X3764095Y-1388332D02*
X3775905D01*
X3770000Y-1394237D02*
Y-1382427D01*
X3764095Y-1481665D02*
X3775905D01*
X3770000Y-1487571D02*
Y-1475760D01*
X3764095Y-1574998D02*
X3775905D01*
X3770000Y-1580904D02*
Y-1569093D01*
X3764095Y-1668332D02*
X3775905D01*
X3770000Y-1674237D02*
Y-1662426D01*
X3764095Y-1761665D02*
X3775905D01*
X3770000Y-1767570D02*
Y-1755759D01*
X3764095Y-1854998D02*
X3775905D01*
X3770000Y-1860903D02*
Y-1849092D01*
X3764095Y-455000D02*
X3775905D01*
X3770000Y-460906D02*
Y-449094D01*
X3764095Y-548333D02*
X3775905D01*
X3770000Y-554239D02*
Y-542428D01*
X3764095Y-1014999D02*
X3775905D01*
X3770000Y-1020905D02*
Y-1009094D01*
X3764095Y-1108332D02*
X3775905D01*
X3770000Y-1114238D02*
Y-1102427D01*
X3764095Y-1201666D02*
X3775905D01*
X3770000Y-1207571D02*
Y-1195760D01*
X3382425Y-865000D02*
X3394235D01*
X3388330Y-870905D02*
Y-859095D01*
X3335758Y-930000D02*
X3347569D01*
X3341663Y-935905D02*
Y-924095D01*
X3382425Y-735000D02*
X3394235D01*
X3388330Y-740905D02*
Y-729095D01*
X3222425Y-1980000D02*
X3234236D01*
X3228330Y-1985906D02*
Y-1974094D01*
X3269091Y-2045000D02*
X3280902D01*
X3274997Y-2050905D02*
Y-2039094D01*
X3362425Y-2045000D02*
X3374235D01*
X3368330Y-2050905D02*
Y-2039094D01*
X3315758Y-2110000D02*
X3327569D01*
X3321663Y-2115905D02*
Y-2104095D01*
X3222425Y-2110000D02*
X3234236D01*
X3228330Y-2115905D02*
Y-2104095D01*
X3175758Y-2045000D02*
X3187569D01*
X3181664Y-2050905D02*
Y-2039094D01*
X3269091Y-2305000D02*
X3280902D01*
X3274997Y-2310905D02*
Y-2299095D01*
X3222425Y-2240000D02*
X3234236D01*
X3228330Y-2245905D02*
Y-2234095D01*
X3222425Y-2370000D02*
X3234236D01*
X3228330Y-2375905D02*
Y-2364095D01*
X3175758Y-2305000D02*
X3187569D01*
X3181664Y-2310905D02*
Y-2299095D01*
X3129091Y-2370000D02*
X3140903D01*
X3134997Y-2375905D02*
Y-2364095D01*
X3082425Y-2305000D02*
X3094236D01*
X3088330Y-2310905D02*
Y-2299095D01*
X3175758Y-2175000D02*
X3187569D01*
X3181664Y-2180905D02*
Y-2169095D01*
X3129091Y-2240000D02*
X3140903D01*
X3134997Y-2245905D02*
Y-2234095D01*
X3129091Y-2110000D02*
X3140903D01*
X3134997Y-2115905D02*
Y-2104095D01*
X3082425Y-2175000D02*
X3094236D01*
X3088330Y-2180905D02*
Y-2169095D01*
X3035758Y-2240000D02*
X3047569D01*
X3041664Y-2245905D02*
Y-2234095D01*
X2989092Y-2175000D02*
X3000903D01*
X2994997Y-2180905D02*
Y-2169095D01*
X3035758Y-2110000D02*
X3047569D01*
X3041664Y-2115905D02*
Y-2104095D01*
X2942425Y-2110000D02*
X2954236D01*
X2948331Y-2115905D02*
Y-2104095D01*
X3035758Y-2370000D02*
X3047569D01*
X3041664Y-2375905D02*
Y-2364095D01*
X2989092Y-2305000D02*
X3000903D01*
X2994997Y-2310905D02*
Y-2299095D01*
X2942425Y-2240000D02*
X2954236D01*
X2948331Y-2245905D02*
Y-2234095D01*
X2942425Y-2370000D02*
X2954236D01*
X2948331Y-2375905D02*
Y-2364095D01*
X2895758Y-2305000D02*
X2907570D01*
X2901664Y-2310905D02*
Y-2299095D01*
X2849092Y-2370000D02*
X2860903D01*
X2854997Y-2375905D02*
Y-2364095D01*
X2895758Y-2175000D02*
X2907570D01*
X2901664Y-2180905D02*
Y-2169095D01*
X2849092Y-2240000D02*
X2860903D01*
X2854997Y-2245905D02*
Y-2234095D01*
X2849092Y-2110000D02*
X2860903D01*
X2854997Y-2115905D02*
Y-2104095D01*
X2802425Y-2175000D02*
X2814236D01*
X2808331Y-2180905D02*
Y-2169095D01*
X2755759Y-2110000D02*
X2767570D01*
X2761664Y-2115905D02*
Y-2104095D01*
X2662425Y-2110000D02*
X2674236D01*
X2668331Y-2115905D02*
Y-2104095D01*
X2802425Y-2305000D02*
X2814236D01*
X2808331Y-2310905D02*
Y-2299095D01*
X2755759Y-2240000D02*
X2767570D01*
X2761664Y-2245905D02*
Y-2234095D01*
X2755759Y-2370000D02*
X2767570D01*
X2761664Y-2375905D02*
Y-2364095D01*
X2709092Y-2305000D02*
X2720903D01*
X2714998Y-2310905D02*
Y-2299095D01*
X2662425Y-2370000D02*
X2674236D01*
X2668331Y-2375905D02*
Y-2364095D01*
X2615759Y-2305000D02*
X2627570D01*
X2621664Y-2310905D02*
Y-2299095D01*
X2709092Y-2175000D02*
X2720903D01*
X2714998Y-2180905D02*
Y-2169095D01*
X2662425Y-2240000D02*
X2674236D01*
X2668331Y-2245905D02*
Y-2234095D01*
X2615759Y-2175000D02*
X2627570D01*
X2621664Y-2180905D02*
Y-2169095D01*
X2569092Y-2240000D02*
X2580903D01*
X2574998Y-2245905D02*
Y-2234095D01*
X2522426Y-2175000D02*
X2534237D01*
X2528331Y-2180905D02*
Y-2169095D01*
X2569092Y-2110000D02*
X2580903D01*
X2574998Y-2115905D02*
Y-2104095D01*
X2475759Y-2110000D02*
X2487570D01*
X2481665Y-2115905D02*
Y-2104095D01*
X2569092Y-2370000D02*
X2580903D01*
X2574998Y-2375905D02*
Y-2364095D01*
X2522426Y-2305000D02*
X2534237D01*
X2528331Y-2310905D02*
Y-2299095D01*
X2475759Y-2240000D02*
X2487570D01*
X2481665Y-2245905D02*
Y-2234095D01*
X2475759Y-2370000D02*
X2487570D01*
X2481665Y-2375905D02*
Y-2364095D01*
X2429093Y-2305000D02*
X2440903D01*
X2434998Y-2310905D02*
Y-2299095D01*
X2382426Y-2370000D02*
X2394237D01*
X2388331Y-2375905D02*
Y-2364095D01*
X2335759Y-2305000D02*
X2347570D01*
X2341665Y-2310905D02*
Y-2299095D01*
X2429093Y-2175000D02*
X2440903D01*
X2434998Y-2180905D02*
Y-2169095D01*
X2382426Y-2240000D02*
X2394237D01*
X2388331Y-2245905D02*
Y-2234095D01*
X2382426Y-2110000D02*
X2394237D01*
X2388331Y-2115905D02*
Y-2104095D01*
X2335759Y-2175000D02*
X2347570D01*
X2341665Y-2180905D02*
Y-2169095D01*
X2289093Y-2240000D02*
X2300904D01*
X2294998Y-2245905D02*
Y-2234095D01*
X2242426Y-2175000D02*
X2254237D01*
X2248332Y-2180905D02*
Y-2169095D01*
X2289093Y-2110000D02*
X2300904D01*
X2294998Y-2115905D02*
Y-2104095D01*
X2195760Y-2110000D02*
X2207570D01*
X2201665Y-2115905D02*
Y-2104095D01*
X2289093Y-2370000D02*
X2300904D01*
X2294998Y-2375905D02*
Y-2364095D01*
X2242426Y-2305000D02*
X2254237D01*
X2248332Y-2310905D02*
Y-2299095D01*
X2195760Y-2240000D02*
X2207570D01*
X2201665Y-2245905D02*
Y-2234095D01*
X2195760Y-2370000D02*
X2207570D01*
X2201665Y-2375905D02*
Y-2364095D01*
X2149093Y-2305000D02*
X2160904D01*
X2154998Y-2310905D02*
Y-2299095D01*
X2102426Y-2370000D02*
X2114237D01*
X2108332Y-2375905D02*
Y-2364095D01*
X2055760Y-2305000D02*
X2067571D01*
X2061665Y-2310905D02*
Y-2299095D01*
X2149093Y-2175000D02*
X2160904D01*
X2154998Y-2180905D02*
Y-2169095D01*
X2102426Y-2240000D02*
X2114237D01*
X2108332Y-2245905D02*
Y-2234095D01*
X2102426Y-2110000D02*
X2114237D01*
X2108332Y-2115905D02*
Y-2104095D01*
X2055760Y-2175000D02*
X2067571D01*
X2061665Y-2180905D02*
Y-2169095D01*
X2009093Y-2240000D02*
X2020904D01*
X2014999Y-2245905D02*
Y-2234095D01*
X1962427Y-2175000D02*
X1974237D01*
X1968332Y-2180905D02*
Y-2169095D01*
X2009093Y-2110000D02*
X2020904D01*
X2014999Y-2115905D02*
Y-2104095D01*
X1915760Y-2110000D02*
X1927571D01*
X1921665Y-2115905D02*
Y-2104095D01*
X2009093Y-2370000D02*
X2020904D01*
X2014999Y-2375905D02*
Y-2364095D01*
X1962427Y-2305000D02*
X1974237D01*
X1968332Y-2310905D02*
Y-2299095D01*
X1915760Y-2240000D02*
X1927571D01*
X1921665Y-2245905D02*
Y-2234095D01*
X1915760Y-2370000D02*
X1927571D01*
X1921665Y-2375905D02*
Y-2364095D01*
X1869093Y-2305000D02*
X1880904D01*
X1874999Y-2310905D02*
Y-2299095D01*
X1822427Y-2370000D02*
X1834238D01*
X1828332Y-2375905D02*
Y-2364095D01*
X1775760Y-2305000D02*
X1787571D01*
X1781666Y-2310905D02*
Y-2299095D01*
X1869093Y-2175000D02*
X1880904D01*
X1874999Y-2180905D02*
Y-2169095D01*
X1822427Y-2240000D02*
X1834238D01*
X1828332Y-2245905D02*
Y-2234095D01*
X1822427Y-2110000D02*
X1834238D01*
X1828332Y-2115905D02*
Y-2104095D01*
X1775760Y-2175000D02*
X1787571D01*
X1781666Y-2180905D02*
Y-2169095D01*
X1729093Y-2240000D02*
X1740905D01*
X1734999Y-2245905D02*
Y-2234095D01*
X1682427Y-2175000D02*
X1694238D01*
X1688332Y-2180905D02*
Y-2169095D01*
X1729093Y-2110000D02*
X1740905D01*
X1734999Y-2115905D02*
Y-2104095D01*
X1635760Y-2110000D02*
X1647571D01*
X1641666Y-2115905D02*
Y-2104095D01*
X1729093Y-2370000D02*
X1740905D01*
X1734999Y-2375905D02*
Y-2364095D01*
X1682427Y-2305000D02*
X1694238D01*
X1688332Y-2310905D02*
Y-2299095D01*
X1635760Y-2240000D02*
X1647571D01*
X1641666Y-2245905D02*
Y-2234095D01*
X1635760Y-2370000D02*
X1647571D01*
X1641666Y-2375905D02*
Y-2364095D01*
X1589094Y-2305000D02*
X1600905D01*
X1594999Y-2310905D02*
Y-2299095D01*
X1542427Y-2370000D02*
X1554238D01*
X1548333Y-2375905D02*
Y-2364095D01*
X1495761Y-2305000D02*
X1507572D01*
X1501666Y-2310905D02*
Y-2299095D01*
X1589094Y-2175000D02*
X1600905D01*
X1594999Y-2180905D02*
Y-2169095D01*
X1542427Y-2110000D02*
X1554238D01*
X1548333Y-2115905D02*
Y-2104095D01*
X1495761Y-2175000D02*
X1507572D01*
X1501666Y-2180905D02*
Y-2169095D01*
X1449094Y-2240000D02*
X1460905D01*
X1454999Y-2245905D02*
Y-2234095D01*
X1402427Y-2175000D02*
X1414238D01*
X1408333Y-2180905D02*
Y-2169095D01*
X1449094Y-2110000D02*
X1460905D01*
X1454999Y-2115905D02*
Y-2104095D01*
X1355761Y-2110000D02*
X1367572D01*
X1361666Y-2115905D02*
Y-2104095D01*
X3394091Y-3175000D02*
X3405902D01*
X3399997Y-3180905D02*
Y-3169095D01*
X3347425Y-3240000D02*
X3359235D01*
X3353330Y-3245905D02*
Y-3234095D01*
X3440758Y-3240000D02*
X3452569D01*
X3446663Y-3245905D02*
Y-3234095D01*
X3394091Y-3305000D02*
X3405902D01*
X3399997Y-3310905D02*
Y-3299095D01*
X3440758Y-3370000D02*
X3452569D01*
X3446663Y-3375905D02*
Y-3364095D01*
X3394091Y-3435000D02*
X3405902D01*
X3399997Y-3440905D02*
Y-3429095D01*
X3300758Y-3305000D02*
X3312569D01*
X3306663Y-3310905D02*
Y-3299095D01*
X3254091Y-3240000D02*
X3265902D01*
X3259997Y-3245905D02*
Y-3234095D01*
X3207425Y-3175000D02*
X3219236D01*
X3213330Y-3180905D02*
Y-3169095D01*
X3160758Y-3240000D02*
X3172569D01*
X3166664Y-3245905D02*
Y-3234095D01*
X3347425Y-3500000D02*
X3359235D01*
X3353330Y-3505905D02*
Y-3494095D01*
X3300758Y-3435000D02*
X3312569D01*
X3306663Y-3440905D02*
Y-3429095D01*
X3254091Y-3370000D02*
X3265902D01*
X3259997Y-3375905D02*
Y-3364095D01*
X3207425Y-3305000D02*
X3219236D01*
X3213330Y-3310905D02*
Y-3299095D01*
X3300758Y-3565000D02*
X3312569D01*
X3306663Y-3570905D02*
Y-3559095D01*
X3254091Y-3500000D02*
X3265902D01*
X3259997Y-3505905D02*
Y-3494095D01*
X3207425Y-3435000D02*
X3219236D01*
X3213330Y-3440905D02*
Y-3429095D01*
X3160758Y-3370000D02*
X3172569D01*
X3166664Y-3375905D02*
Y-3364095D01*
X3114091Y-3305000D02*
X3125903D01*
X3119997Y-3310905D02*
Y-3299095D01*
X3207425Y-3565000D02*
X3219236D01*
X3213330Y-3570905D02*
Y-3559095D01*
X3160758Y-3500000D02*
X3172569D01*
X3166664Y-3505905D02*
Y-3494095D01*
X3114091Y-3435000D02*
X3125903D01*
X3119997Y-3440905D02*
Y-3429095D01*
X3067425Y-3370000D02*
X3079236D01*
X3073330Y-3375905D02*
Y-3364095D01*
X3020758Y-3305000D02*
X3032569D01*
X3026664Y-3310905D02*
Y-3299095D01*
X3114091Y-3565000D02*
X3125903D01*
X3119997Y-3570905D02*
Y-3559095D01*
X3067425Y-3500000D02*
X3079236D01*
X3073330Y-3505905D02*
Y-3494095D01*
X3020758Y-3435000D02*
X3032569D01*
X3026664Y-3440905D02*
Y-3429095D01*
X2974092Y-3370000D02*
X2985903D01*
X2979997Y-3375905D02*
Y-3364095D01*
X2927425Y-3305000D02*
X2939236D01*
X2933331Y-3310905D02*
Y-3299095D01*
X3020758Y-3565000D02*
X3032569D01*
X3026664Y-3570905D02*
Y-3559095D01*
X2974092Y-3500000D02*
X2985903D01*
X2979997Y-3505905D02*
Y-3494095D01*
X2927425Y-3435000D02*
X2939236D01*
X2933331Y-3440905D02*
Y-3429095D01*
X2880758Y-3370000D02*
X2892570D01*
X2886664Y-3375905D02*
Y-3364095D01*
X2834092Y-3305000D02*
X2845903D01*
X2839997Y-3310905D02*
Y-3299095D01*
X2927425Y-3565000D02*
X2939236D01*
X2933331Y-3570905D02*
Y-3559095D01*
X2880758Y-3500000D02*
X2892570D01*
X2886664Y-3505905D02*
Y-3494095D01*
X2834092Y-3435000D02*
X2845903D01*
X2839997Y-3440905D02*
Y-3429095D01*
X2787425Y-3370000D02*
X2799236D01*
X2793331Y-3375905D02*
Y-3364095D01*
X2740759Y-3305000D02*
X2752570D01*
X2746664Y-3310905D02*
Y-3299095D01*
X2834092Y-3565000D02*
X2845903D01*
X2839997Y-3570905D02*
Y-3559095D01*
X2787425Y-3500000D02*
X2799236D01*
X2793331Y-3505905D02*
Y-3494095D01*
X2740759Y-3435000D02*
X2752570D01*
X2746664Y-3440905D02*
Y-3429095D01*
X2694092Y-3370000D02*
X2705903D01*
X2699998Y-3375905D02*
Y-3364095D01*
X2647425Y-3305000D02*
X2659236D01*
X2653331Y-3310905D02*
Y-3299095D01*
X2740759Y-3565000D02*
X2752570D01*
X2746664Y-3570905D02*
Y-3559095D01*
X2694092Y-3500000D02*
X2705903D01*
X2699998Y-3505905D02*
Y-3494095D01*
X2647425Y-3435000D02*
X2659236D01*
X2653331Y-3440905D02*
Y-3429095D01*
X2600759Y-3370000D02*
X2612570D01*
X2606664Y-3375905D02*
Y-3364095D01*
X2554092Y-3305000D02*
X2565903D01*
X2559998Y-3310905D02*
Y-3299095D01*
X2647425Y-3565000D02*
X2659236D01*
X2653331Y-3570905D02*
Y-3559095D01*
X2600759Y-3500000D02*
X2612570D01*
X2606664Y-3505905D02*
Y-3494095D01*
X2554092Y-3435000D02*
X2565903D01*
X2559998Y-3440905D02*
Y-3429095D01*
X2507426Y-3370000D02*
X2519237D01*
X2513331Y-3375905D02*
Y-3364095D01*
X2460759Y-3305000D02*
X2472570D01*
X2466665Y-3310905D02*
Y-3299095D01*
X2554092Y-3565000D02*
X2565903D01*
X2559998Y-3570905D02*
Y-3559095D01*
X2507426Y-3500000D02*
X2519237D01*
X2513331Y-3505905D02*
Y-3494095D01*
X2460759Y-3435000D02*
X2472570D01*
X2466665Y-3440905D02*
Y-3429095D01*
X2414093Y-3370000D02*
X2425903D01*
X2419998Y-3375905D02*
Y-3364095D01*
X2367426Y-3305000D02*
X2379237D01*
X2373331Y-3310905D02*
Y-3299095D01*
X2460759Y-3565000D02*
X2472570D01*
X2466665Y-3570905D02*
Y-3559095D01*
X2414093Y-3500000D02*
X2425903D01*
X2419998Y-3505905D02*
Y-3494095D01*
X2367426Y-3435000D02*
X2379237D01*
X2373331Y-3440905D02*
Y-3429095D01*
X2320759Y-3370000D02*
X2332570D01*
X2326665Y-3375905D02*
Y-3364095D01*
X2274093Y-3305000D02*
X2285904D01*
X2279998Y-3310905D02*
Y-3299095D01*
X2367426Y-3565000D02*
X2379237D01*
X2373331Y-3570905D02*
Y-3559095D01*
X2320759Y-3500000D02*
X2332570D01*
X2326665Y-3505905D02*
Y-3494095D01*
X2274093Y-3435000D02*
X2285904D01*
X2279998Y-3440905D02*
Y-3429095D01*
X2227426Y-3370000D02*
X2239237D01*
X2233332Y-3375905D02*
Y-3364095D01*
X2180760Y-3305000D02*
X2192570D01*
X2186665Y-3310905D02*
Y-3299095D01*
X2274093Y-3565000D02*
X2285904D01*
X2279998Y-3570905D02*
Y-3559095D01*
X2227426Y-3500000D02*
X2239237D01*
X2233332Y-3505905D02*
Y-3494095D01*
X2180760Y-3435000D02*
X2192570D01*
X2186665Y-3440905D02*
Y-3429095D01*
X2134093Y-3370000D02*
X2145904D01*
X2139998Y-3375905D02*
Y-3364095D01*
X2087426Y-3305000D02*
X2099237D01*
X2093332Y-3310905D02*
Y-3299095D01*
X2180760Y-3565000D02*
X2192570D01*
X2186665Y-3570905D02*
Y-3559095D01*
X2134093Y-3500000D02*
X2145904D01*
X2139998Y-3505905D02*
Y-3494095D01*
X2087426Y-3435000D02*
X2099237D01*
X2093332Y-3440905D02*
Y-3429095D01*
X2040760Y-3370000D02*
X2052571D01*
X2046665Y-3375905D02*
Y-3364095D01*
X1994093Y-3305000D02*
X2005904D01*
X1999999Y-3310905D02*
Y-3299095D01*
X2087426Y-3565000D02*
X2099237D01*
X2093332Y-3570905D02*
Y-3559095D01*
X2040760Y-3500000D02*
X2052571D01*
X2046665Y-3505905D02*
Y-3494095D01*
X1994093Y-3435000D02*
X2005904D01*
X1999999Y-3440905D02*
Y-3429095D01*
X1947427Y-3370000D02*
X1959237D01*
X1953332Y-3375905D02*
Y-3364095D01*
X1900760Y-3305000D02*
X1912571D01*
X1906665Y-3310905D02*
Y-3299095D01*
X1994093Y-3565000D02*
X2005904D01*
X1999999Y-3570905D02*
Y-3559095D01*
X1947427Y-3500000D02*
X1959237D01*
X1953332Y-3505905D02*
Y-3494095D01*
X1900760Y-3435000D02*
X1912571D01*
X1906665Y-3440905D02*
Y-3429095D01*
X1854093Y-3370000D02*
X1865904D01*
X1859999Y-3375905D02*
Y-3364095D01*
X1807427Y-3305000D02*
X1819238D01*
X1813332Y-3310905D02*
Y-3299095D01*
X1900760Y-3565000D02*
X1912571D01*
X1906665Y-3570905D02*
Y-3559095D01*
X1854093Y-3500000D02*
X1865904D01*
X1859999Y-3505905D02*
Y-3494095D01*
X1807427Y-3435000D02*
X1819238D01*
X1813332Y-3440905D02*
Y-3429095D01*
X1760760Y-3370000D02*
X1772571D01*
X1766666Y-3375905D02*
Y-3364095D01*
X1714093Y-3305000D02*
X1725905D01*
X1719999Y-3310905D02*
Y-3299095D01*
X1807427Y-3565000D02*
X1819238D01*
X1813332Y-3570905D02*
Y-3559095D01*
X1760760Y-3500000D02*
X1772571D01*
X1766666Y-3505905D02*
Y-3494095D01*
X1714093Y-3435000D02*
X1725905D01*
X1719999Y-3440905D02*
Y-3429095D01*
X1667427Y-3370000D02*
X1679238D01*
X1673332Y-3375905D02*
Y-3364095D01*
X1620760Y-3305000D02*
X1632571D01*
X1626666Y-3310905D02*
Y-3299095D01*
X1714093Y-3565000D02*
X1725905D01*
X1719999Y-3570905D02*
Y-3559095D01*
X1667427Y-3500000D02*
X1679238D01*
X1673332Y-3505905D02*
Y-3494095D01*
X1620760Y-3435000D02*
X1632571D01*
X1626666Y-3440905D02*
Y-3429095D01*
X1574094Y-3370000D02*
X1585905D01*
X1579999Y-3375905D02*
Y-3364095D01*
X1527427Y-3305000D02*
X1539238D01*
X1533333Y-3310905D02*
Y-3299095D01*
X1527427Y-3435000D02*
X1539238D01*
X1533333Y-3440905D02*
Y-3429095D01*
X1480761Y-3370000D02*
X1492572D01*
X1486666Y-3375905D02*
Y-3364095D01*
X1434094Y-3305000D02*
X1445905D01*
X1439999Y-3310905D02*
Y-3299095D01*
X1480761Y-3500000D02*
X1492572D01*
X1486666Y-3505905D02*
Y-3494095D01*
X1434094Y-3435000D02*
X1445905D01*
X1439999Y-3440905D02*
Y-3429095D01*
X1387427Y-3370000D02*
X1399238D01*
X1393333Y-3375905D02*
Y-3364095D01*
X1340761Y-3305000D02*
X1352572D01*
X1346666Y-3310905D02*
Y-3299095D01*
X1060761Y-3305000D02*
X1072572D01*
X1066667Y-3310905D02*
Y-3299095D01*
X1014095Y-3370000D02*
X1025906D01*
X1020000Y-3375905D02*
Y-3364095D01*
X1154094Y-3305000D02*
X1165905D01*
X1160000Y-3310905D02*
Y-3299095D01*
X1107428Y-3370000D02*
X1119239D01*
X1113333Y-3375905D02*
Y-3364095D01*
X1060761Y-3435000D02*
X1072572D01*
X1066667Y-3440905D02*
Y-3429095D01*
X1154094Y-3435000D02*
X1165905D01*
X1160000Y-3440905D02*
Y-3429095D01*
X1200761Y-3370000D02*
X1212572D01*
X1206666Y-3375905D02*
Y-3364095D01*
X1247428Y-3305000D02*
X1259238D01*
X1253333Y-3310905D02*
Y-3299095D01*
X1247428Y-3435000D02*
X1259238D01*
X1253333Y-3440905D02*
Y-3429095D01*
X1294094Y-3370000D02*
X1305905D01*
X1300000Y-3375905D02*
Y-3364095D01*
X1107428Y-3500000D02*
X1119239D01*
X1113333Y-3505905D02*
Y-3494095D01*
X1200761Y-3500000D02*
X1212572D01*
X1206666Y-3505905D02*
Y-3494095D01*
X1247428Y-3565000D02*
X1259238D01*
X1253333Y-3570905D02*
Y-3559095D01*
X1294094Y-3500000D02*
X1305905D01*
X1300000Y-3505905D02*
Y-3494095D01*
X1340761Y-3565000D02*
X1352572D01*
X1346666Y-3570905D02*
Y-3559095D01*
X1340761Y-3435000D02*
X1352572D01*
X1346666Y-3440905D02*
Y-3429095D01*
X1387427Y-3500000D02*
X1399238D01*
X1393333Y-3505905D02*
Y-3494095D01*
X1434094Y-3565000D02*
X1445905D01*
X1439999Y-3570905D02*
Y-3559095D01*
X1075761Y-2110000D02*
X1087572D01*
X1081667Y-2115905D02*
Y-2104095D01*
X1029094Y-2175000D02*
X1040906D01*
X1035000Y-2180905D02*
Y-2169095D01*
X1169094Y-2110000D02*
X1180905D01*
X1175000Y-2115905D02*
Y-2104095D01*
X1122428Y-2175000D02*
X1134239D01*
X1128333Y-2180905D02*
Y-2169095D01*
X1075761Y-2240000D02*
X1087572D01*
X1081667Y-2245905D02*
Y-2234095D01*
X1169094Y-2240000D02*
X1180905D01*
X1175000Y-2245905D02*
Y-2234095D01*
X1215761Y-2175000D02*
X1227572D01*
X1221666Y-2180905D02*
Y-2169095D01*
X1262428Y-2110000D02*
X1274238D01*
X1268333Y-2115905D02*
Y-2104095D01*
X1262428Y-2240000D02*
X1274238D01*
X1268333Y-2245905D02*
Y-2234095D01*
X1309094Y-2175000D02*
X1320905D01*
X1315000Y-2180905D02*
Y-2169095D01*
X1122428Y-2305000D02*
X1134239D01*
X1128333Y-2310905D02*
Y-2299095D01*
X1215761Y-2305000D02*
X1227572D01*
X1221666Y-2310905D02*
Y-2299095D01*
X1262428Y-2370000D02*
X1274238D01*
X1268333Y-2375905D02*
Y-2364095D01*
X1309094Y-2305000D02*
X1320905D01*
X1315000Y-2310905D02*
Y-2299095D01*
X1355761Y-2370000D02*
X1367572D01*
X1361666Y-2375905D02*
Y-2364095D01*
X1355761Y-2240000D02*
X1367572D01*
X1361666Y-2245905D02*
Y-2234095D01*
X1402427Y-2305000D02*
X1414238D01*
X1408333Y-2310905D02*
Y-2299095D01*
X1449094Y-2370000D02*
X1460905D01*
X1454999Y-2375905D02*
Y-2364095D01*
X3335758Y-800000D02*
X3347569D01*
X3341663Y-805905D02*
Y-794095D01*
X3289091Y-735000D02*
X3300902D01*
X3294997Y-740905D02*
Y-729095D01*
X3242425Y-800000D02*
X3254236D01*
X3248330Y-805905D02*
Y-794095D01*
X3242425Y-670000D02*
X3254236D01*
X3248330Y-675905D02*
Y-664095D01*
X3195758Y-735000D02*
X3207569D01*
X3201664Y-740905D02*
Y-729095D01*
X3149091Y-800000D02*
X3160903D01*
X3154997Y-805905D02*
Y-794095D01*
X3195758Y-865000D02*
X3207569D01*
X3201664Y-870905D02*
Y-859095D01*
X3242425Y-930000D02*
X3254236D01*
X3248330Y-935905D02*
Y-924095D01*
X3289091Y-995000D02*
X3300902D01*
X3294997Y-1000905D02*
Y-989095D01*
X3055758Y-800000D02*
X3067569D01*
X3061664Y-805905D02*
Y-794095D01*
X3102425Y-865000D02*
X3114236D01*
X3108330Y-870905D02*
Y-859095D01*
X3149091Y-930000D02*
X3160903D01*
X3154997Y-935905D02*
Y-924095D01*
X3195758Y-995000D02*
X3207569D01*
X3201664Y-1000905D02*
Y-989095D01*
X3242425Y-1060000D02*
X3254236D01*
X3248330Y-1065906D02*
Y-1054094D01*
X2962425Y-800000D02*
X2974236D01*
X2968331Y-805905D02*
Y-794095D01*
X3009092Y-865000D02*
X3020903D01*
X3014997Y-870905D02*
Y-859095D01*
X3055758Y-930000D02*
X3067569D01*
X3061664Y-935905D02*
Y-924095D01*
X3102425Y-995000D02*
X3114236D01*
X3108330Y-1000905D02*
Y-989095D01*
X3149091Y-1060000D02*
X3160903D01*
X3154997Y-1065906D02*
Y-1054094D01*
X2869092Y-800000D02*
X2880903D01*
X2874997Y-805905D02*
Y-794095D01*
X2915758Y-865000D02*
X2927570D01*
X2921664Y-870905D02*
Y-859095D01*
X2962425Y-930000D02*
X2974236D01*
X2968331Y-935905D02*
Y-924095D01*
X3009092Y-995000D02*
X3020903D01*
X3014997Y-1000905D02*
Y-989095D01*
X3055758Y-1060000D02*
X3067569D01*
X3061664Y-1065906D02*
Y-1054094D01*
X2775759Y-800000D02*
X2787570D01*
X2781664Y-805905D02*
Y-794095D01*
X2822425Y-865000D02*
X2834236D01*
X2828331Y-870905D02*
Y-859095D01*
X2869092Y-930000D02*
X2880903D01*
X2874997Y-935905D02*
Y-924095D01*
X2915758Y-995000D02*
X2927570D01*
X2921664Y-1000905D02*
Y-989095D01*
X2962425Y-1060000D02*
X2974236D01*
X2968331Y-1065906D02*
Y-1054094D01*
X2682425Y-800000D02*
X2694236D01*
X2688331Y-805905D02*
Y-794095D01*
X2729092Y-865000D02*
X2740903D01*
X2734998Y-870905D02*
Y-859095D01*
X2775759Y-930000D02*
X2787570D01*
X2781664Y-935905D02*
Y-924095D01*
X2822425Y-995000D02*
X2834236D01*
X2828331Y-1000905D02*
Y-989095D01*
X2869092Y-1060000D02*
X2880903D01*
X2874997Y-1065906D02*
Y-1054094D01*
X2589092Y-800000D02*
X2600903D01*
X2594998Y-805905D02*
Y-794095D01*
X2635759Y-865000D02*
X2647570D01*
X2641664Y-870905D02*
Y-859095D01*
X2682425Y-930000D02*
X2694236D01*
X2688331Y-935905D02*
Y-924095D01*
X2729092Y-995000D02*
X2740903D01*
X2734998Y-1000905D02*
Y-989095D01*
X2775759Y-1060000D02*
X2787570D01*
X2781664Y-1065906D02*
Y-1054094D01*
X2495759Y-800000D02*
X2507570D01*
X2501665Y-805905D02*
Y-794095D01*
X2542426Y-865000D02*
X2554237D01*
X2548331Y-870905D02*
Y-859095D01*
X2589092Y-930000D02*
X2600903D01*
X2594998Y-935905D02*
Y-924095D01*
X2635759Y-995000D02*
X2647570D01*
X2641664Y-1000905D02*
Y-989095D01*
X2682425Y-1060000D02*
X2694236D01*
X2688331Y-1065906D02*
Y-1054094D01*
X2402426Y-800000D02*
X2414237D01*
X2408331Y-805905D02*
Y-794095D01*
X2449093Y-865000D02*
X2460903D01*
X2454998Y-870905D02*
Y-859095D01*
X2495759Y-930000D02*
X2507570D01*
X2501665Y-935905D02*
Y-924095D01*
X2542426Y-995000D02*
X2554237D01*
X2548331Y-1000905D02*
Y-989095D01*
X2589092Y-1060000D02*
X2600903D01*
X2594998Y-1065906D02*
Y-1054094D01*
X2309093Y-800000D02*
X2320904D01*
X2314998Y-805905D02*
Y-794095D01*
X2355759Y-865000D02*
X2367570D01*
X2361665Y-870905D02*
Y-859095D01*
X2402426Y-930000D02*
X2414237D01*
X2408331Y-935905D02*
Y-924095D01*
X2449093Y-995000D02*
X2460903D01*
X2454998Y-1000905D02*
Y-989095D01*
X2495759Y-1060000D02*
X2507570D01*
X2501665Y-1065906D02*
Y-1054094D01*
X2215760Y-800000D02*
X2227570D01*
X2221665Y-805905D02*
Y-794095D01*
X2262426Y-865000D02*
X2274237D01*
X2268332Y-870905D02*
Y-859095D01*
X2309093Y-930000D02*
X2320904D01*
X2314998Y-935905D02*
Y-924095D01*
X2355759Y-995000D02*
X2367570D01*
X2361665Y-1000905D02*
Y-989095D01*
X2402426Y-1060000D02*
X2414237D01*
X2408331Y-1065906D02*
Y-1054094D01*
X2122426Y-800000D02*
X2134237D01*
X2128332Y-805905D02*
Y-794095D01*
X2169093Y-865000D02*
X2180904D01*
X2174998Y-870905D02*
Y-859095D01*
X2215760Y-930000D02*
X2227570D01*
X2221665Y-935905D02*
Y-924095D01*
X2262426Y-995000D02*
X2274237D01*
X2268332Y-1000905D02*
Y-989095D01*
X2309093Y-1060000D02*
X2320904D01*
X2314998Y-1065906D02*
Y-1054094D01*
X2029093Y-800000D02*
X2040904D01*
X2034999Y-805905D02*
Y-794095D01*
X2075760Y-865000D02*
X2087571D01*
X2081665Y-870905D02*
Y-859095D01*
X2122426Y-930000D02*
X2134237D01*
X2128332Y-935905D02*
Y-924095D01*
X2169093Y-995000D02*
X2180904D01*
X2174998Y-1000905D02*
Y-989095D01*
X2215760Y-1060000D02*
X2227570D01*
X2221665Y-1065906D02*
Y-1054094D01*
X1935760Y-800000D02*
X1947571D01*
X1941665Y-805905D02*
Y-794095D01*
X1982427Y-865000D02*
X1994237D01*
X1988332Y-870905D02*
Y-859095D01*
X2029093Y-930000D02*
X2040904D01*
X2034999Y-935905D02*
Y-924095D01*
X2075760Y-995000D02*
X2087571D01*
X2081665Y-1000905D02*
Y-989095D01*
X2122426Y-1060000D02*
X2134237D01*
X2128332Y-1065906D02*
Y-1054094D01*
X1842427Y-800000D02*
X1854238D01*
X1848332Y-805905D02*
Y-794095D01*
X1889093Y-865000D02*
X1900904D01*
X1894999Y-870905D02*
Y-859095D01*
X1935760Y-930000D02*
X1947571D01*
X1941665Y-935905D02*
Y-924095D01*
X1982427Y-995000D02*
X1994237D01*
X1988332Y-1000905D02*
Y-989095D01*
X2029093Y-1060000D02*
X2040904D01*
X2034999Y-1065906D02*
Y-1054094D01*
X1749093Y-800000D02*
X1760905D01*
X1754999Y-805905D02*
Y-794095D01*
X1795760Y-865000D02*
X1807571D01*
X1801666Y-870905D02*
Y-859095D01*
X1842427Y-930000D02*
X1854238D01*
X1848332Y-935905D02*
Y-924095D01*
X1889093Y-995000D02*
X1900904D01*
X1894999Y-1000905D02*
Y-989095D01*
X1935760Y-1060000D02*
X1947571D01*
X1941665Y-1065906D02*
Y-1054094D01*
X1655760Y-800000D02*
X1667571D01*
X1661666Y-805905D02*
Y-794095D01*
X1702427Y-865000D02*
X1714238D01*
X1708332Y-870905D02*
Y-859095D01*
X1749093Y-930000D02*
X1760905D01*
X1754999Y-935905D02*
Y-924095D01*
X1795760Y-995000D02*
X1807571D01*
X1801666Y-1000905D02*
Y-989095D01*
X1842427Y-1060000D02*
X1854238D01*
X1848332Y-1065906D02*
Y-1054094D01*
X1562427Y-800000D02*
X1574238D01*
X1568333Y-805905D02*
Y-794095D01*
X1609094Y-865000D02*
X1620905D01*
X1614999Y-870905D02*
Y-859095D01*
X1655760Y-930000D02*
X1667571D01*
X1661666Y-935905D02*
Y-924095D01*
X1702427Y-995000D02*
X1714238D01*
X1708332Y-1000905D02*
Y-989095D01*
X1749093Y-1060000D02*
X1760905D01*
X1754999Y-1065906D02*
Y-1054094D01*
X1469094Y-800000D02*
X1480905D01*
X1474999Y-805905D02*
Y-794095D01*
X1515761Y-865000D02*
X1527572D01*
X1521666Y-870905D02*
Y-859095D01*
X1609094Y-995000D02*
X1620905D01*
X1614999Y-1000905D02*
Y-989095D01*
X1655760Y-1060000D02*
X1667571D01*
X1661666Y-1065906D02*
Y-1054094D01*
X1375761Y-800000D02*
X1387572D01*
X1381666Y-805905D02*
Y-794095D01*
X1422427Y-865000D02*
X1434238D01*
X1428333Y-870905D02*
Y-859095D01*
X1469094Y-930000D02*
X1480905D01*
X1474999Y-935905D02*
Y-924095D01*
X1515761Y-995000D02*
X1527572D01*
X1521666Y-1000905D02*
Y-989095D01*
X1562427Y-1060000D02*
X1574238D01*
X1568333Y-1065906D02*
Y-1054094D01*
X1469094Y-1060000D02*
X1480905D01*
X1474999Y-1065906D02*
Y-1054094D01*
X1422427Y-995000D02*
X1434238D01*
X1428333Y-1000905D02*
Y-989095D01*
X1375761Y-930000D02*
X1387572D01*
X1381666Y-935905D02*
Y-924095D01*
X1375761Y-1060000D02*
X1387572D01*
X1381666Y-1065906D02*
Y-1054094D01*
X1329094Y-995000D02*
X1340905D01*
X1335000Y-1000905D02*
Y-989095D01*
X1282428Y-1060000D02*
X1294238D01*
X1288333Y-1065906D02*
Y-1054094D01*
X1235761Y-995000D02*
X1247572D01*
X1241666Y-1000905D02*
Y-989095D01*
X1142428Y-995000D02*
X1154239D01*
X1148333Y-1000905D02*
Y-989095D01*
X1329094Y-865000D02*
X1340905D01*
X1335000Y-870905D02*
Y-859095D01*
X1282428Y-930000D02*
X1294238D01*
X1288333Y-935905D02*
Y-924095D01*
X1282428Y-800000D02*
X1294238D01*
X1288333Y-805905D02*
Y-794095D01*
X1235761Y-865000D02*
X1247572D01*
X1241666Y-870905D02*
Y-859095D01*
X1189094Y-930000D02*
X1200905D01*
X1195000Y-935905D02*
Y-924095D01*
X1095761Y-930000D02*
X1107572D01*
X1101667Y-935905D02*
Y-924095D01*
X1142428Y-865000D02*
X1154239D01*
X1148333Y-870905D02*
Y-859095D01*
X1189094Y-800000D02*
X1200905D01*
X1195000Y-805905D02*
Y-794095D01*
X1049094Y-865000D02*
X1060906D01*
X1055000Y-870905D02*
Y-859095D01*
X1095761Y-800000D02*
X1107572D01*
X1101667Y-805905D02*
Y-794095D01*
X861000Y-2985000D02*
X889000D01*
X875000Y-2999000D02*
Y-2971000D01*
X876000Y-1785000D02*
X904000D01*
X890000Y-1799000D02*
Y-1771000D01*
X746000Y-2905000D02*
X774000D01*
X760000Y-2919000D02*
Y-2891000D01*
X766000Y-1680000D02*
X794000D01*
X780000Y-1694000D02*
Y-1666000D01*
X-49000Y-1565000D02*
X-21000D01*
X-35000Y-1579000D02*
Y-1551000D01*
X896000Y-485000D02*
X924000D01*
X910000Y-499000D02*
Y-471000D01*
X841000Y-230000D02*
X869000D01*
X855000Y-244000D02*
Y-216000D01*
X613189Y-2800000D02*
X636811D01*
X625000Y-2811811D02*
Y-2788189D01*
X28189Y-2755000D02*
X51811D01*
X40000Y-2766811D02*
Y-2743189D01*
X-46811Y-2675000D02*
X-23189D01*
X-35000Y-2686811D02*
Y-2663189D01*
X893189Y-2720000D02*
X916811D01*
X905000Y-2731811D02*
Y-2708189D01*
X788189Y-2620000D02*
X811811D01*
X800000Y-2631811D02*
Y-2608189D01*
X598189Y-2585000D02*
X621811D01*
X610000Y-2596811D02*
Y-2573189D01*
X423189Y-2580000D02*
X446811D01*
X435000Y-2591811D02*
Y-2568189D01*
X273189Y-2580000D02*
X296811D01*
X285000Y-2591811D02*
Y-2568189D01*
X138189Y-2535000D02*
X161811D01*
X150000Y-2546811D02*
Y-2523189D01*
X73189Y-2385000D02*
X96811D01*
X85000Y-2396811D02*
Y-2373189D01*
X78189Y-1760000D02*
X101811D01*
X90000Y-1771811D02*
Y-1748189D01*
X83189Y-1640000D02*
X106811D01*
X95000Y-1651811D02*
Y-1628189D01*
X78189Y-1480000D02*
X101811D01*
X90000Y-1491811D02*
Y-1468189D01*
X308189Y-1460000D02*
X331811D01*
X320000Y-1471811D02*
Y-1448189D01*
X478189Y-1460000D02*
X501811D01*
X490000Y-1471811D02*
Y-1448189D01*
X653189Y-1460000D02*
X676811D01*
X665000Y-1471811D02*
Y-1448189D01*
X818189Y-1460000D02*
X841811D01*
X830000Y-1471811D02*
Y-1448189D01*
X933189Y-1550000D02*
X956811D01*
X945000Y-1561811D02*
Y-1538189D01*
X158189Y-365000D02*
X181811D01*
X170000Y-376811D02*
Y-353189D01*
X-26811Y-150000D02*
X-3189D01*
X-15000Y-161811D02*
Y-138189D01*
X763189Y-300000D02*
X786811D01*
X775000Y-311811D02*
Y-288189D01*
X978189Y-300000D02*
X1001811D01*
X990000Y-311811D02*
Y-288189D01*
%TF.MD5,88897bc0e1eac0ce112ea759695c7b2e*%
M02*
