G04 Layer_Color=0*
%FSLAX26Y26*%
%MOIN*%
%TF.FileFunction,NonPlated,1,2,NPTH,Drill*%
%TF.Part,Single*%
G01*
G75*
%TA.AperFunction,OtherDrill,Pad Free-4 (0mil,-3779.528mil)*%
%ADD45C,0.118110*%
%TA.AperFunction,OtherDrill,Pad Free-4 (0mil,0mil)*%
%ADD46C,0.118110*%
%TA.AperFunction,OtherDrill,Pad Free-4 (3779.528mil,-3779.528mil)*%
%ADD47C,0.118110*%
%TA.AperFunction,OtherDrill,Pad Free-4 (3779.527mil,0mil)*%
%ADD48C,0.118110*%
G36*
X760000Y-3219700D02*
X756081D01*
X748841Y-3216701D01*
X743299Y-3211159D01*
X740300Y-3203919D01*
Y-3196081D01*
X743299Y-3188841D01*
X748841Y-3183299D01*
X756081Y-3180300D01*
X760000D01*
D01*
X1085000D01*
X1088918D01*
X1096159Y-3183299D01*
X1101701Y-3188841D01*
X1104700Y-3196081D01*
Y-3200000D01*
Y-3203919D01*
X1101701Y-3211159D01*
X1096159Y-3216701D01*
X1088918Y-3219700D01*
X1085000D01*
D01*
X760000D01*
D02*
G37*
G36*
Y-2025000D02*
X756081D01*
X748841Y-2022001D01*
X743299Y-2016459D01*
X740300Y-2009219D01*
Y-2001381D01*
X743299Y-1994141D01*
X748841Y-1988599D01*
X756081Y-1985600D01*
X760000D01*
D01*
X1085000D01*
X1088918D01*
X1096159Y-1988599D01*
X1101701Y-1994141D01*
X1104700Y-2001381D01*
Y-2005300D01*
Y-2009219D01*
X1101701Y-2016459D01*
X1096159Y-2022001D01*
X1088918Y-2025000D01*
X1085000D01*
D01*
X760000D01*
D02*
G37*
G36*
X775000Y-715000D02*
X771081D01*
X763841Y-712001D01*
X758299Y-706459D01*
X755300Y-699219D01*
Y-691381D01*
X758299Y-684141D01*
X763841Y-678599D01*
X771081Y-675600D01*
X775000D01*
D01*
X1100000D01*
X1103918D01*
X1111159Y-678599D01*
X1116701Y-684141D01*
X1119700Y-691381D01*
Y-695300D01*
Y-699219D01*
X1116701Y-706459D01*
X1111159Y-712001D01*
X1103918Y-715000D01*
X1100000D01*
D01*
X775000D01*
D02*
G37*
G36*
X265300Y-2305000D02*
Y-2308919D01*
X268299Y-2316159D01*
X273841Y-2321701D01*
X281081Y-2324700D01*
X288918D01*
X296159Y-2321701D01*
X301701Y-2316159D01*
X304700Y-2308919D01*
Y-2305000D01*
D01*
Y-1895000D01*
Y-1891082D01*
X301701Y-1883841D01*
X296159Y-1878299D01*
X288918Y-1875300D01*
X281081D01*
X273841Y-1878299D01*
X268299Y-1883841D01*
X265300Y-1891082D01*
Y-1895000D01*
D01*
Y-2305000D01*
D02*
G37*
G36*
X285300Y-993150D02*
Y-997068D01*
X288299Y-1004309D01*
X293841Y-1009851D01*
X301081Y-1012850D01*
X308918D01*
X316159Y-1009851D01*
X321701Y-1004309D01*
X324700Y-997068D01*
Y-993150D01*
D01*
Y-583150D01*
Y-579231D01*
X321701Y-571991D01*
X316159Y-566449D01*
X308918Y-563450D01*
X301081D01*
X293841Y-566449D01*
X288299Y-571991D01*
X285300Y-579231D01*
Y-583150D01*
D01*
Y-993150D01*
D02*
G37*
G36*
X250300Y-3500000D02*
Y-3503919D01*
X253299Y-3511159D01*
X258841Y-3516701D01*
X266081Y-3519700D01*
X273918D01*
X281159Y-3516701D01*
X286701Y-3511159D01*
X289700Y-3503919D01*
Y-3500000D01*
D01*
Y-3090000D01*
Y-3086081D01*
X286701Y-3078841D01*
X281159Y-3073299D01*
X273918Y-3070300D01*
X266081D01*
X258841Y-3073299D01*
X253299Y-3078841D01*
X250300Y-3086081D01*
Y-3090000D01*
D01*
Y-3500000D01*
D02*
G37*
G36*
X350000Y-512850D02*
X346081D01*
X338841Y-509851D01*
X333299Y-504309D01*
X330300Y-497068D01*
Y-489231D01*
X333299Y-481991D01*
X338841Y-476449D01*
X346081Y-473450D01*
X350000D01*
D01*
X665000D01*
X665962D01*
X667878Y-473637D01*
X669767Y-474011D01*
X671610Y-474567D01*
X672500Y-474933D01*
X675197Y-473823D01*
X681004Y-473260D01*
X686724Y-474404D01*
X691867Y-477157D01*
X693930Y-479220D01*
D01*
X788940Y-574230D01*
X788938Y-574227D01*
X788933Y-574222D01*
X788928Y-574217D01*
X788923Y-574212D01*
X788920Y-574210D01*
Y-574210D01*
X788930Y-574220D01*
X790302Y-575592D01*
X792458Y-578818D01*
X793943Y-582404D01*
X794700Y-586210D01*
Y-588150D01*
D01*
Y-638150D01*
Y-642068D01*
X791701Y-649309D01*
X786159Y-654851D01*
X778918Y-657850D01*
X771081D01*
X763841Y-654851D01*
X758299Y-649309D01*
X755300Y-642068D01*
Y-638150D01*
D01*
Y-596310D01*
X670927Y-511937D01*
X670209Y-512163D01*
X668743Y-512506D01*
X667254Y-512735D01*
X665753Y-512850D01*
X665000D01*
D01*
X350000D01*
D02*
G37*
G36*
X565000Y-1824700D02*
X561081D01*
X553841Y-1821701D01*
X548299Y-1816159D01*
X545300Y-1808919D01*
Y-1801082D01*
X548299Y-1793841D01*
X553841Y-1788299D01*
X561081Y-1785300D01*
X565000D01*
D01*
X645000D01*
X645962D01*
X647878Y-1785488D01*
X649767Y-1785861D01*
X651610Y-1786417D01*
X652500Y-1786784D01*
X655197Y-1785673D01*
X661004Y-1785111D01*
X666724Y-1786255D01*
X671867Y-1789007D01*
X673930Y-1791070D01*
D01*
X768940Y-1886080D01*
X768938Y-1886078D01*
X768933Y-1886072D01*
X768928Y-1886068D01*
X768923Y-1886062D01*
X768920Y-1886060D01*
Y-1886060D01*
X768930Y-1886070D01*
X770302Y-1887442D01*
X772458Y-1890669D01*
X773943Y-1894254D01*
X774700Y-1898060D01*
Y-1900000D01*
D01*
Y-1950000D01*
Y-1953919D01*
X771701Y-1961159D01*
X766159Y-1966701D01*
X758918Y-1969700D01*
X751081D01*
X743841Y-1966701D01*
X738299Y-1961159D01*
X735300Y-1953919D01*
Y-1950000D01*
D01*
Y-1908160D01*
X650927Y-1823787D01*
X650209Y-1824014D01*
X648743Y-1824356D01*
X647254Y-1824585D01*
X645753Y-1824700D01*
X645000D01*
D01*
X565000D01*
D02*
G37*
G36*
X350000Y-2369700D02*
X346081D01*
X338841Y-2366701D01*
X333299Y-2361159D01*
X330300Y-2353919D01*
Y-2346081D01*
X333299Y-2338841D01*
X338841Y-2333299D01*
X346081Y-2330300D01*
X350000D01*
D01*
X665000D01*
X668918D01*
X676159Y-2333299D01*
X681701Y-2338841D01*
X684700Y-2346081D01*
Y-2350000D01*
Y-2353919D01*
X681701Y-2361159D01*
X676159Y-2366701D01*
X668918Y-2369700D01*
X665000D01*
D01*
X350000D01*
D02*
G37*
G36*
X495000Y-3019700D02*
X491081D01*
X483841Y-3016701D01*
X478299Y-3011159D01*
X475300Y-3003919D01*
Y-2996081D01*
X478299Y-2988841D01*
X483841Y-2983299D01*
X491081Y-2980300D01*
X495000D01*
D01*
X645000D01*
X646940D01*
X650746Y-2981057D01*
X654331Y-2982542D01*
X657558Y-2984698D01*
X658930Y-2986070D01*
D01*
X658920Y-2986060D01*
X658923Y-2986062D01*
X658928Y-2986068D01*
X658933Y-2986073D01*
X658938Y-2986077D01*
X658940Y-2986080D01*
X658940D01*
X658920Y-2986060D01*
X753940Y-3081080D01*
X753938Y-3081077D01*
X753933Y-3081073D01*
X753928Y-3081068D01*
X753923Y-3081062D01*
X753920Y-3081060D01*
Y-3081060D01*
X753930Y-3081070D01*
X755302Y-3082442D01*
X757458Y-3085669D01*
X758943Y-3089254D01*
X759700Y-3093060D01*
Y-3095000D01*
D01*
Y-3145000D01*
Y-3148919D01*
X756701Y-3156159D01*
X751159Y-3161701D01*
X743918Y-3164700D01*
X736081D01*
X728841Y-3161701D01*
X723299Y-3156159D01*
X720300Y-3148919D01*
Y-3145000D01*
D01*
Y-3103160D01*
X636840Y-3019700D01*
X495000D01*
D02*
G37*
D45*
X0Y-3779528D02*
D03*
D46*
Y0D02*
D03*
D47*
X3779528Y-3779528D02*
D03*
D48*
X3779527Y-0D02*
D03*
%TF.MD5,f73966c30561af6a6966aaf072d34408*%
M02*
