G04 Layer_Color=16711935*
%FSLAX26Y26*%
%MOIN*%
%TF.FileFunction,Other,Mechanical_13*%
%TF.Part,Single*%
G01*
G75*
%TA.AperFunction,NonConductor*%
%ADD42C,0.003937*%
D42*
X856693Y-3219606D02*
G03*
X856693Y-3219606I-19685J0D01*
G01*
X871693Y-2019370D02*
G03*
X871693Y-2019370I-19685J0D01*
G01*
X891693Y-709370D02*
G03*
X891693Y-709370I-19685J0D01*
G01*
X851693Y-371457D02*
X938307D01*
X851693Y-428543D02*
X938307D01*
X851693D02*
Y-371457D01*
X938307Y-428543D02*
Y-371457D01*
X841693Y-1651457D02*
X928307D01*
X841693Y-1708543D02*
X928307D01*
X841693D02*
Y-1651457D01*
X928307Y-1708543D02*
Y-1651457D01*
X998425Y-3255039D02*
Y-3105433D01*
X801575Y-3255039D02*
Y-3105433D01*
X998425D01*
X801575Y-3255039D02*
X998425D01*
X821693Y-2876457D02*
X908307D01*
X821693Y-2933543D02*
X908307D01*
X821693D02*
Y-2876457D01*
X908307Y-2933543D02*
Y-2876457D01*
X1013425Y-2054803D02*
Y-1905197D01*
X816575Y-2054803D02*
Y-1905197D01*
X1013425D01*
X816575Y-2054803D02*
X1013425D01*
X1033425Y-744803D02*
Y-595197D01*
X836575Y-744803D02*
Y-595197D01*
X1033425D01*
X836575Y-744803D02*
X1033425D01*
%TF.MD5,b79a5f852030827ca66f40a23b71fc89*%
M02*
