G04 Layer_Color=2752767*
%FSLAX26Y26*%
%MOIN*%
%TF.FileFunction,Drawing*%
%TF.Part,Single*%
G01*
G75*
%TA.AperFunction,NonConductor*%
%ADD31C,0.005000*%
%ADD45C,0.006667*%
D31*
X671575Y-2100000D02*
Y-2060000D01*
X711575D01*
Y-2100000D01*
X671575D01*
X571575D02*
Y-2060000D01*
X611575D01*
Y-2100000D01*
X571575D01*
X471575D02*
Y-2060000D01*
X511575D01*
Y-2100000D01*
X471575D01*
X660000Y-1320000D02*
Y-1280000D01*
X700000D01*
Y-1320000D01*
X660000D01*
X560000D02*
Y-1280000D01*
X600000D01*
Y-1320000D01*
X560000D01*
X460000D02*
Y-1280000D01*
X500000D01*
Y-1320000D01*
X460000D01*
X665000Y-2895000D02*
Y-2855000D01*
X705000D01*
Y-2895000D01*
X665000D01*
X565000D02*
Y-2855000D01*
X605000D01*
Y-2895000D01*
X565000D01*
X465000D02*
Y-2855000D01*
X505000D01*
Y-2895000D01*
X465000D01*
X0Y-3799528D02*
X-20000Y-3759528D01*
X20000D01*
X0Y-3799528D01*
Y-20000D02*
X-20000Y20000D01*
X20000D01*
X0Y-20000D01*
X3779528Y-3799528D02*
X3759528Y-3759528D01*
X3799528D01*
X3779528Y-3799528D01*
X3779527Y-20000D02*
X3759527Y20000D01*
X3799527D01*
X3779527Y-20000D01*
D45*
X3645000Y-1577678D02*
G03*
X3645000Y-1577678I-20000J0D01*
G01*
Y-1774528D02*
G03*
X3645000Y-1774528I-20000J0D01*
G01*
X3665000Y-2355178D02*
G03*
X3665000Y-2355178I-20000J0D01*
G01*
Y-2552028D02*
G03*
X3665000Y-2552028I-20000J0D01*
G01*
Y-3156575D02*
G03*
X3665000Y-3156575I-20000J0D01*
G01*
Y-3353425D02*
G03*
X3665000Y-3353425I-20000J0D01*
G01*
X1002598Y-3107441D02*
G03*
X1002598Y-3107441I-20000J0D01*
G01*
Y-2162559D02*
G03*
X1002598Y-2162559I-20000J0D01*
G01*
X1295000Y-3107441D02*
G03*
X1295000Y-3107441I-20000J0D01*
G01*
Y-2162559D02*
G03*
X1295000Y-2162559I-20000J0D01*
G01*
X1585000Y-3107441D02*
G03*
X1585000Y-3107441I-20000J0D01*
G01*
Y-2162559D02*
G03*
X1585000Y-2162559I-20000J0D01*
G01*
X1630000Y-1788189D02*
G03*
X1630000Y-1788189I-20000J0D01*
G01*
Y-311811D02*
G03*
X1630000Y-311811I-20000J0D01*
G01*
X1875000Y-3107441D02*
G03*
X1875000Y-3107441I-20000J0D01*
G01*
Y-2162559D02*
G03*
X1875000Y-2162559I-20000J0D01*
G01*
X2162599Y-3107441D02*
G03*
X2162599Y-3107441I-20000J0D01*
G01*
Y-2162559D02*
G03*
X2162599Y-2162559I-20000J0D01*
G01*
X2450000Y-3107441D02*
G03*
X2450000Y-3107441I-20000J0D01*
G01*
Y-2162559D02*
G03*
X2450000Y-2162559I-20000J0D01*
G01*
X2225000Y-1783189D02*
G03*
X2225000Y-1783189I-20000J0D01*
G01*
Y-306811D02*
G03*
X2225000Y-306811I-20000J0D01*
G01*
X2740000Y-3107441D02*
G03*
X2740000Y-3107441I-20000J0D01*
G01*
Y-2162559D02*
G03*
X2740000Y-2162559I-20000J0D01*
G01*
X3030000Y-3107441D02*
G03*
X3030000Y-3107441I-20000J0D01*
G01*
Y-2162559D02*
G03*
X3030000Y-2162559I-20000J0D01*
G01*
X3320000Y-3107441D02*
G03*
X3320000Y-3107441I-20000J0D01*
G01*
Y-2162559D02*
G03*
X3320000Y-2162559I-20000J0D01*
G01*
X2815000Y-1778189D02*
G03*
X2815000Y-1778189I-20000J0D01*
G01*
Y-301811D02*
G03*
X2815000Y-301811I-20000J0D01*
G01*
X169449Y-1797402D02*
G03*
X169449Y-1797402I-20000J0D01*
G01*
Y-1600551D02*
G03*
X169449Y-1600551I-20000J0D01*
G01*
Y-2574902D02*
G03*
X169449Y-2574902I-20000J0D01*
G01*
Y-2378051D02*
G03*
X169449Y-2378051I-20000J0D01*
G01*
Y-3352402D02*
G03*
X169449Y-3352402I-20000J0D01*
G01*
Y-3155551D02*
G03*
X169449Y-3155551I-20000J0D01*
G01*
%TF.MD5,f2f5e14ac977b1725c269e0a6a07b34c*%
M02*
