M48
;Layer_Color=9474304
;FILE_FORMAT=2:5
INCH,LZ
;TYPE=PLATED
T1F00S00C0.01181
T2F00S00C0.02362
T3F00S00C0.02800
T4F00S00C0.03000
T5F00S00C0.03543
T6F00S00C0.04724
;TYPE=NON_PLATED
T7F00S00C0.11811
%
T01
X006Y-0343713
X0069333
X0074Y-0337213
X0064667
X0069333Y-0330713
X006
X0106667Y-03305
X0116
X0125333
X0134667
X0139333Y-0337
X013
X0120667
X0111333
X0102
X0106667Y-03435
X0116
X0125333
X0134667
X013Y-035
X0120667
X0111333
X0125333Y-03565
X0134667
X0139333Y-035
X0148667
X0153333Y-03435
X0162667
X0172
X0181333
X0190666
X02
X0209333
X0218667
X0228
X0237333
X0246667
X0256
X0265333
X0274666
X0284
X0293333
X0288666Y-0337
X0279333
X027
X0260666
X0251333
X0242
X0232666
X0223333
X0214
X0204666
X0195333
X0186
X0176667
X0167333
X0158
X0148667
X0153333Y-03305
X0162667
X0172
X0181333
X0190666
X02
X0209333
X0218667
X0228
X0237333
X0246667
X0256
X0265333
X0274666
X0284
X0293333
X0288666Y-035
X0279333
X027
X0260666
X0251333
X0242
X0232666
X0223333
X0214
X0204666
X0195333
X0186
X0176667
X0167333
X0172Y-03565
X0181333
X0190666
X02
X0209333
X0218667
X0228
X0237333
X0246667
X0256
X0265333
X0274666
X0284
X0293333
X02925Y-02835
X0144Y-03305
Y-03435
Y-03565
X0302666
X0312
X0321333
X0330666
X0335333Y-035
X0326
X0316666
X0307333
X0298
X0302666Y-03435
X0312
X0321333
X0330666
X034
X0344666Y-0337
X034Y-03305
X0330666
X0321333
X0312
X0302666
X0307333Y-0337
X0316666
X0326
Y-0324
X0335333
X0344666
X034Y-03175
X0321333
X0316666Y-0324
X0298Y-0337
X0299Y-0278833
X03055Y-02835
Y-0274166
X0312Y-0278833
Y-02695
X03185Y-0274166
Y-02835
X0325Y-0278833
Y-02695
X03315Y-0274166
Y-02835
X0338Y-0278833
Y-02695
X03445Y-0274166
Y-02835
X0351Y-0278833
Y-02695
X03575Y-0274166
Y-0264833
X0364Y-02695
Y-0260166
Y-0250833
X03705Y-02555
Y-0264833
X0377Y-0250833
Y-02415
Y-0232166
X03705Y-0246166
X0322833Y-0237
X03135
X0304166
X0308833Y-02305
X0318166
X03275
X0322833Y-0224
X03135
X0304166
X0308833Y-02175
X0318166
X0322833Y-0211
X0332166
X03275Y-02045
X0336833
X0318166
X0322833Y-0198
X03135Y-0211
X0304166
X02995Y-02175
Y-02305
X0299Y-01575
X03055Y-0162167
Y-0152833
X0312Y-01575
X03185Y-0162167
Y-0152833
X0325Y-01575
X03315Y-0152833
Y-0162167
X0338Y-01575
X03445Y-0162167
Y-0152833
X0351Y-01575
X03575Y-0152833
Y-0162167
X0364Y-01575
Y-0148167
X03705Y-0152833
Y-0162167
Y-01715
X0364Y-0166833
X0377
Y-01575
Y-0148167
Y-0138833
Y-01295
Y-0120167
Y-0110833
Y-01015
X03705Y-01435
X0377Y-0176166
Y-01855
X0324833Y-0106
X03155
X0306166
X0310833Y-00995
X0320166
X03295
X03015
X0292166
X0282833
X02735
X0264166
X0254833
X02455
X0236167
X0226833
X02175
X0208167
X0198833
X01895
X0180167
X0170833
X01615
X0152167
X0142833
X01475Y-0106
X0156833
X0166167
X01755
X0184833
X0194167
X02035
X0212833
X0222166
X02315
X0240833
X0250167
X02595
X0268833
X0278166
X02875
X0296833
X0294833Y-0211
X02855
X0276166
X0266833
X02575
X0248166
X0238833
X02295
X0220166
X0210833
X02015
X0192166
X0182833
X01735
X0164167
X0154833
X01455
X0150167Y-02175
X01595
X0168833
X0178167
X01875
X0196833
X0206167
X02155
X0224833
X0234167
X02435
X0252833
X0262166
X02715
X0280833
X0290166
X0294833Y-0224
X02855
X0276166
X0266833
X02575
X0248166
X0238833
X02295
X0220166
X0210833
X02015
X0192166
X0182833
X01735
X0164167
X0168833Y-02305
X0178167
X01875
X0196833
X0206167
X02155
X0224833
X0234167
X02435
X0252833
X0262166
X02715
X0280833
X0290166
X0294833Y-0237
X02855
X0276166
X0266833
X02575
X0248166
X0238833
X02295
X0220166
X0210833
X02015
X0192166
X0182833
X01735
X0164167
X0154833
X01455
X0150167Y-02305
X01595
X0140833
X01455Y-0224
X0140833Y-02175
X01315
X0122167
X0112833
X01035
X0108167Y-0211
X01175
X0126833
X0136167
Y-0224
X0126833
X01175
X0108167
X0112833Y-02305
X0122167
X01315
X0126833Y-0237
X0136167
X0070833Y-0224213
X00615
X0066167Y-0217713
X00755
X0070833Y-0211213
X00615
X0114833Y-00995
X0124167
X01335
X0138167Y-0106
X0128833
Y-0093
X0138167
X01335Y-00865
X0124167
X0114833
X01055
X0110167Y-0093
X01195
Y-008
X0128833
X0138167
X0110167
X0072833
X00635
X0068167Y-00865
X00775
X0072833Y-0093
X00635
X01475
X0152167Y-00865
X01615
X0170833
X0180167
X01895
X0198833
X0208167
X02175
X0226833
X0236167
X02455
X0254833
X0264166
X02735
X0282833
X0292166
X0296833Y-008
X02875
X0278166
X0268833
X02595
X0250167
X0240833
X02315
X0222166
X0212833
X02035
X0194167
X0184833
X01755
X0166167
X0156833
X01475
X0142833Y-00865
X0166167Y-0093
X01755
X0184833
X0194167
X02035
X0212833
X0222166
X02315
X0240833
X0250167
X02595
X0268833
X0278166
X02875
X0296833
X02925Y-0022167
X0299Y-00175
Y-0026833
X03055Y-0022167
Y-0012833
X0312Y-00175
Y-0026833
X03185Y-0022167
Y-00315
X0325Y-0026833
X03315Y-00315
Y-0022167
Y-0012833
X0338Y-0026833
X03445Y-00315
Y-0022167
X0351Y-00175
Y-0026833
X03575Y-0022167
Y-00315
X0364Y-0026833
Y-0036167
Y-00455
X03705Y-0040833
Y-00315
X0377Y-0036167
Y-00455
Y-0054833
X03705Y-0050167
X0338833Y-00735
X03295
X0320166
X0324833Y-008
X0334166
X0338833Y-00865
X0334166Y-0093
X0324833
X03155
X0306166
X0310833Y-00865
X0320166
X03155Y-008
X0306166
X03015Y-00865
X0324833Y-0067
X03055Y-00315
T02
X0004Y-02755
X-00035Y-02675
X0015Y-02535
X00285Y-0258
X00435
X0061Y-02585
X008Y-0262
X00905Y-0272
X00625Y-028
X00085Y-02385
X0009Y-0176
X00095Y-0164
X0009Y-0148
X0032Y-0146
X0049
X00665
X0083
X00945Y-0155
X0099Y-003
X00775
X0017Y-00365
X-00015Y-0015
T03
X0076Y-02905
X00875Y-02985
X0089Y-01785
X0078Y-0168
X-00035Y-01565
X0091Y-00485
X00855Y-0023
T04
X0029Y-0014
X0039
X0049
X0059
X0069
X0079
X0089
X0099
Y-0004
X0089
X0079
X0069
X0059
X0049
X0039
X0029
T05
X01565Y-035387
Y-027513
X0186366Y-02945
X0294634
Y-016675
X0186366
X01565Y-014663
Y-022537
Y-009287
Y-001413
X0186366Y-0039
X0294634
T06
X00485Y-0340843
Y-0321158
X0333Y-031887
Y-0338555
X03315Y-0219055
Y-019937
X005Y-0201658
Y-0221342
X0052Y-009013
Y-0070445
X0331Y-0068185
Y-008787
X0339342Y-0013
X0319657
T07
X0Y-0377953
X0377953
X0Y0
X0377953Y-0
M30
