G04 Layer_Color=255*
%FSLAX26Y26*%
%MOIN*%
%TF.FileFunction,Pads,Top*%
%TF.Part,Single*%
G01*
G75*
%TA.AperFunction,SMDPad,CuDef*%
%ADD10R,0.059055X0.062992*%
%ADD11O,0.025591X0.070866*%
%TA.AperFunction,ComponentPad*%
%ADD14C,0.118110*%
%ADD15R,0.118110X0.118110*%
%ADD16R,0.118110X0.118110*%
%TA.AperFunction,WasherPad*%
%ADD17C,0.060000*%
%TA.AperFunction,ComponentPad*%
%ADD18C,0.060000*%
%ADD19R,0.060000X0.060000*%
D10*
X857598Y-400000D02*
D03*
X932402D02*
D03*
X847598Y-1680000D02*
D03*
X922402D02*
D03*
X827598Y-2905000D02*
D03*
X902402D02*
D03*
D11*
X975000Y-3070000D02*
D03*
X925000D02*
D03*
X875000D02*
D03*
X825000D02*
D03*
X975000Y-3290472D02*
D03*
X925000D02*
D03*
X875000D02*
D03*
X825000D02*
D03*
X990000Y-1869764D02*
D03*
X940000D02*
D03*
X890000D02*
D03*
X840000D02*
D03*
X990000Y-2090236D02*
D03*
X940000D02*
D03*
X890000D02*
D03*
X840000D02*
D03*
X1010000Y-559764D02*
D03*
X960000D02*
D03*
X910000D02*
D03*
X860000D02*
D03*
X1010000Y-780236D02*
D03*
X960000D02*
D03*
X910000D02*
D03*
X860000D02*
D03*
D14*
X1863661Y-2945000D02*
D03*
X2946339D02*
D03*
X1863661Y-1667500D02*
D03*
X2946339D02*
D03*
X1863661Y-390000D02*
D03*
X2946339D02*
D03*
X1565000Y-2751299D02*
D03*
Y-3538701D02*
D03*
X3393425Y-130000D02*
D03*
X3330000Y-3385552D02*
D03*
X1565000Y-1466299D02*
D03*
Y-2253701D02*
D03*
Y-141299D02*
D03*
Y-928701D02*
D03*
X3310000Y-878702D02*
D03*
X3315000Y-2190552D02*
D03*
X485000Y-3211575D02*
D03*
X520000Y-704448D02*
D03*
X500000Y-2016575D02*
D03*
D15*
X3196575Y-130000D02*
D03*
D16*
X3330000Y-3188701D02*
D03*
X3310000Y-681851D02*
D03*
X3315000Y-1993701D02*
D03*
X485000Y-3408425D02*
D03*
X520000Y-901299D02*
D03*
X500000Y-2213425D02*
D03*
D17*
X0Y-3779528D02*
D03*
Y0D02*
D03*
X3779528Y-3779528D02*
D03*
X3779527Y-0D02*
D03*
D18*
X790000Y-140000D02*
D03*
X890000D02*
D03*
X290000D02*
D03*
X390000D02*
D03*
X490000D02*
D03*
X590000D02*
D03*
X690000D02*
D03*
X790000Y-40000D02*
D03*
X890000D02*
D03*
X290000D02*
D03*
X390000D02*
D03*
X490000D02*
D03*
X590000D02*
D03*
X690000D02*
D03*
D19*
X990000Y-140000D02*
D03*
Y-40000D02*
D03*
%TF.MD5,e603d39ae0d88597c6bb5321dadb2958*%
M02*
