G04 Layer_Physical_Order=2*
G04 Layer_Color=16711680*
%FSLAX26Y26*%
%MOIN*%
%TF.FileFunction,Copper,L2,Bot,Signal*%
%TF.Part,Single*%
G01*
G75*
%TA.AperFunction,Conductor*%
%ADD13C,0.035000*%
%TA.AperFunction,ComponentPad*%
%ADD14C,0.118110*%
%ADD15R,0.118110X0.118110*%
%ADD16R,0.118110X0.118110*%
%TA.AperFunction,WasherPad*%
%ADD17C,0.060000*%
%TA.AperFunction,ComponentPad*%
%ADD18C,0.060000*%
%ADD19R,0.060000X0.060000*%
%TA.AperFunction,ViaPad*%
%ADD20C,0.027559*%
%ADD21C,0.050000*%
%ADD22C,0.039370*%
G36*
X3505001Y-55001D02*
X3835000Y-385000D01*
X3835000Y-2540800D01*
X3466041Y-2895000D01*
X3130000Y-2895000D01*
X2990000Y-3035000D01*
X2870000D01*
X2815000Y-2980000D01*
Y-2850000D01*
X3010000Y-2655000D01*
X3470000Y-2655000D01*
X3689999Y-2435001D01*
X3690000Y-1760000D01*
X3584999Y-1655000D01*
X3110000Y-1655000D01*
X3005001Y-1759999D01*
X2894999Y-1759999D01*
X2840000Y-1705000D01*
X2840000Y-1580000D01*
X2950000Y-1470000D01*
X3590000Y-1470000D01*
X3690000Y-1370000D01*
X3690000Y-535000D01*
X3520000Y-365000D01*
X3110000Y-365000D01*
X3005000Y-470000D01*
X2880000Y-470000D01*
X2839999Y-429999D01*
X2839999Y-275001D01*
X3060000Y-55000D01*
X3505001Y-55001D01*
D02*
G37*
G36*
X1110000Y-230000D02*
X1040000Y-300000D01*
Y-580000D01*
X1020000Y-600000D01*
X840000D01*
Y-415000D01*
X765000Y-340000D01*
X265000D01*
X135000Y-470000D01*
Y-1310000D01*
X215000Y-1390000D01*
X870000D01*
X1010000Y-1530000D01*
Y-1895000D01*
X1000000Y-1905000D01*
X825000D01*
Y-1675000D01*
X775000Y-1625000D01*
X215000D01*
X140000Y-1700000D01*
Y-2440000D01*
X225000Y-2525000D01*
X825000D01*
X945000Y-2645000D01*
Y-2835000D01*
X995000Y-2885000D01*
Y-3105000D01*
X805000D01*
X800097Y-2923583D01*
X803584Y-2920000D01*
X805000D01*
X794685Y-2909685D01*
X795302Y-2905000D01*
X794099Y-2895863D01*
X790572Y-2887349D01*
X787737Y-2883654D01*
Y-2830000D01*
X786792Y-2822821D01*
X784021Y-2816131D01*
X779613Y-2810387D01*
X689613Y-2720387D01*
X683869Y-2715979D01*
X677179Y-2713208D01*
X670000Y-2712263D01*
X151489D01*
X-7263Y-2553511D01*
Y-2538933D01*
X-2263Y-2538605D01*
X-1792Y-2542179D01*
X979Y-2548869D01*
X5387Y-2554613D01*
X135387Y-2684613D01*
X141131Y-2689021D01*
X147821Y-2691792D01*
X155000Y-2692737D01*
X698511D01*
X847361Y-2841588D01*
Y-2963526D01*
X844428Y-2967349D01*
X840901Y-2975863D01*
X839698Y-2985000D01*
X840901Y-2994137D01*
X844428Y-3002651D01*
X850038Y-3009962D01*
X857349Y-3015572D01*
X865863Y-3019099D01*
X875000Y-3020302D01*
X884137Y-3019099D01*
X892651Y-3015572D01*
X899962Y-3009962D01*
X905572Y-3002651D01*
X909099Y-2994137D01*
X910302Y-2985000D01*
X909099Y-2975863D01*
X905572Y-2967349D01*
X902836Y-2963782D01*
Y-2830098D01*
X901891Y-2822919D01*
X899120Y-2816230D01*
X894712Y-2810485D01*
X729613Y-2645387D01*
X723869Y-2640979D01*
X717179Y-2638208D01*
X710000Y-2637263D01*
X166489D01*
X52737Y-2523511D01*
Y-2397747D01*
X57737Y-2396753D01*
X59070Y-2399971D01*
X63828Y-2406172D01*
X70029Y-2410930D01*
X77251Y-2413921D01*
X80000Y-2414283D01*
Y-2385000D01*
Y-2355717D01*
X77251Y-2356079D01*
X70029Y-2359070D01*
X63828Y-2363828D01*
X59070Y-2370029D01*
X57737Y-2373247D01*
X52737Y-2372253D01*
Y-1377858D01*
X57737Y-1376160D01*
X60387Y-1379613D01*
X270387Y-1589613D01*
X276131Y-1594021D01*
X282821Y-1596792D01*
X290000Y-1597737D01*
X813511D01*
X862263Y-1646489D01*
Y-1763654D01*
X859428Y-1767349D01*
X855901Y-1775863D01*
X854698Y-1785000D01*
X855901Y-1794137D01*
X859428Y-1802651D01*
X865038Y-1809962D01*
X872349Y-1815572D01*
X880863Y-1819099D01*
X890000Y-1820302D01*
X899137Y-1819099D01*
X907651Y-1815572D01*
X914962Y-1809962D01*
X920572Y-1802651D01*
X924099Y-1794137D01*
X925302Y-1785000D01*
X924099Y-1775863D01*
X920572Y-1767349D01*
X917737Y-1763654D01*
Y-1635000D01*
X916792Y-1627821D01*
X914021Y-1621131D01*
X909613Y-1615387D01*
X844613Y-1550387D01*
X838869Y-1545979D01*
X832179Y-1543208D01*
X825000Y-1542263D01*
X301489D01*
X107737Y-1348511D01*
Y-366489D01*
X171489Y-302737D01*
X693640D01*
X700818Y-301792D01*
X707508Y-299021D01*
X713253Y-294613D01*
X809613Y-198253D01*
X814021Y-192508D01*
X816792Y-185819D01*
X817737Y-178640D01*
Y-169135D01*
X818528Y-168528D01*
X824940Y-160173D01*
X828971Y-150442D01*
X830345Y-140000D01*
X828971Y-129558D01*
X824940Y-119827D01*
X818528Y-111472D01*
X810173Y-105060D01*
X800442Y-101029D01*
X790000Y-99655D01*
X779558Y-101029D01*
X769827Y-105060D01*
X761472Y-111472D01*
X755060Y-119827D01*
X751029Y-129558D01*
X749655Y-140000D01*
X751029Y-150442D01*
X755060Y-160173D01*
X761217Y-168196D01*
X682150Y-247263D01*
X674035D01*
X671964Y-242263D01*
X709613Y-204613D01*
X714021Y-198869D01*
X716792Y-192179D01*
X717737Y-185000D01*
Y-169135D01*
X718528Y-168528D01*
X724940Y-160173D01*
X728971Y-150442D01*
X730345Y-140000D01*
X728971Y-129558D01*
X724940Y-119827D01*
X718528Y-111472D01*
X710173Y-105060D01*
X700442Y-101029D01*
X690000Y-99655D01*
X679558Y-101029D01*
X669827Y-105060D01*
X661472Y-111472D01*
X655060Y-119827D01*
X651029Y-129558D01*
X649655Y-140000D01*
X651029Y-150442D01*
X655060Y-160173D01*
X661472Y-168528D01*
X661734Y-168730D01*
X661942Y-173832D01*
X638511Y-197263D01*
X135000D01*
X133889Y-197409D01*
X131553Y-192673D01*
X156489Y-167737D01*
X260865D01*
X261472Y-168528D01*
X269827Y-174940D01*
X279558Y-178970D01*
X290000Y-180345D01*
X300442Y-178970D01*
X310173Y-174940D01*
X318528Y-168528D01*
X324940Y-160173D01*
X328971Y-150442D01*
X330345Y-140000D01*
X328971Y-129558D01*
X324940Y-119827D01*
X318528Y-111472D01*
X310173Y-105060D01*
X300442Y-101029D01*
X290000Y-99655D01*
X279558Y-101029D01*
X269827Y-105060D01*
X261472Y-111472D01*
X260865Y-112263D01*
X145000D01*
X137821Y-113208D01*
X131131Y-115979D01*
X125387Y-120387D01*
X-54613Y-300387D01*
X-59021Y-306131D01*
X-61792Y-312821D01*
X-62737Y-320000D01*
Y-1543654D01*
X-65572Y-1547349D01*
X-69099Y-1555863D01*
X-70302Y-1565000D01*
X-69099Y-1574137D01*
X-65572Y-1582651D01*
X-62737Y-1586346D01*
Y-2565000D01*
X-61792Y-2572179D01*
X-59021Y-2578869D01*
X-54613Y-2584613D01*
X120387Y-2759613D01*
X126131Y-2764021D01*
X132821Y-2766792D01*
X140000Y-2767737D01*
X612253D01*
X613247Y-2772737D01*
X610029Y-2774070D01*
X603828Y-2778828D01*
X599070Y-2785029D01*
X596079Y-2792251D01*
X595717Y-2795000D01*
X654283D01*
X653921Y-2792251D01*
X650930Y-2785029D01*
X646172Y-2778828D01*
X639971Y-2774070D01*
X636753Y-2772737D01*
X637747Y-2767737D01*
X658511D01*
X716321Y-2825547D01*
X713702Y-2830000D01*
X642628D01*
X641182Y-2825000D01*
X646172Y-2821172D01*
X650930Y-2814971D01*
X653921Y-2807749D01*
X654283Y-2805000D01*
X595717D01*
X596079Y-2807749D01*
X599070Y-2814971D01*
X603828Y-2821172D01*
X608818Y-2825000D01*
X607372Y-2830000D01*
X55000D01*
X-75000Y-2700000D01*
X-80000D01*
Y-75000D01*
X75000D01*
Y75000D01*
X1110000D01*
Y-230000D01*
D02*
G37*
G36*
X675000Y-580000D02*
X695000Y-600000D01*
Y-730000D01*
X705000Y-740000D01*
X910000Y-740000D01*
X925000Y-755000D01*
X925000Y-880000D01*
X805000Y-1000000D01*
X370000Y-1000000D01*
X345000Y-975000D01*
Y-605000D01*
X370000Y-580000D01*
X675000Y-580000D01*
D02*
G37*
G36*
X3517500Y-642500D02*
X3517500Y-1017500D01*
X3320000Y-1215000D01*
X1280000Y-1215000D01*
X945000Y-880000D01*
Y-750000D01*
X955000Y-740000D01*
X1120000Y-740000D01*
X1150000Y-710000D01*
X1345000D01*
X1412500Y-642500D01*
X3102500Y-642500D01*
X3165000Y-580000D01*
X3455000D01*
X3517500Y-642500D01*
D02*
G37*
G36*
X655000Y-1890000D02*
X675000Y-1910000D01*
Y-2040000D01*
X685000Y-2050000D01*
X890000Y-2050000D01*
X905000Y-2065000D01*
X905000Y-2190000D01*
X785000Y-2310000D01*
X350000Y-2310000D01*
X325000Y-2285000D01*
Y-1915000D01*
X350000Y-1890000D01*
X655000Y-1890000D01*
D02*
G37*
G36*
X3490000Y-1925000D02*
X3490000Y-2315000D01*
X3207443Y-2540000D01*
X1272500D01*
X1082499Y-2350000D01*
X925000Y-2192500D01*
Y-2060000D01*
X940000Y-2050000D01*
X1200834Y-2050000D01*
X1305833Y-1945000D01*
X3085000Y-1945000D01*
X3165000Y-1865000D01*
X3430000D01*
X3490000Y-1925000D01*
D02*
G37*
G36*
X1930000Y-315000D02*
X1930000Y-430000D01*
X1890000Y-470000D01*
X1770000Y-470000D01*
X1495000Y-195000D01*
X1495000Y-110000D01*
X1540000Y-65000D01*
X1550000D01*
X1680001Y-65000D01*
X1930000Y-315000D01*
D02*
G37*
G36*
X1705000Y-1390000D02*
X1930000Y-1615000D01*
X1930000Y-1710000D01*
X1900000Y-1740000D01*
X1715000D01*
X1495000Y-1520000D01*
X1495000Y-1435000D01*
X1540000Y-1390000D01*
X1550000D01*
X1705000Y-1390000D01*
D02*
G37*
G36*
Y-2675000D02*
X1930000Y-2900000D01*
X1930000Y-2995000D01*
X1900000Y-3025000D01*
X1715000D01*
X1495000Y-2805000D01*
X1495000Y-2720000D01*
X1540000Y-2675000D01*
X1550000D01*
X1705000Y-2675000D01*
D02*
G37*
G36*
X3497833Y-3075000D02*
X3572096Y-3149263D01*
Y-3565404D01*
X3362500Y-3775000D01*
X1295000D01*
X910002Y-3390002D01*
X909998Y-3264998D01*
X925000Y-3249997D01*
X1243529Y-3249997D01*
X1344263Y-3149263D01*
X3095000Y-3149265D01*
X3169265Y-3075000D01*
X3497833Y-3075000D01*
D02*
G37*
G36*
X640000Y-3090000D02*
X660000Y-3110000D01*
Y-3240000D01*
X670000Y-3250000D01*
X875000Y-3250000D01*
X890000Y-3265000D01*
X890000Y-3390000D01*
X770000Y-3510000D01*
X335000Y-3510000D01*
X310000Y-3485000D01*
Y-3115000D01*
X335000Y-3090000D01*
X640000Y-3090000D01*
D02*
G37*
%LPC*%
G36*
X95000Y-1730717D02*
Y-1755000D01*
X119283D01*
X118921Y-1752251D01*
X115930Y-1745029D01*
X111172Y-1738828D01*
X104971Y-1734070D01*
X97749Y-1731079D01*
X95000Y-1730717D01*
D02*
G37*
G36*
X90000Y-1645000D02*
X65717D01*
X66079Y-1647749D01*
X69070Y-1654971D01*
X73828Y-1661172D01*
X80029Y-1665930D01*
X87251Y-1668921D01*
X90000Y-1669283D01*
Y-1645000D01*
D02*
G37*
G36*
X100000Y-1610717D02*
Y-1635000D01*
X124283D01*
X123921Y-1632251D01*
X120930Y-1625029D01*
X116172Y-1618828D01*
X109971Y-1614070D01*
X102749Y-1611079D01*
X100000Y-1610717D01*
D02*
G37*
G36*
X90000D02*
X87251Y-1611079D01*
X80029Y-1614070D01*
X73828Y-1618828D01*
X69070Y-1625029D01*
X66079Y-1632251D01*
X65717Y-1635000D01*
X90000D01*
Y-1610717D01*
D02*
G37*
G36*
X124283Y-1645000D02*
X100000D01*
Y-1669283D01*
X102749Y-1668921D01*
X109971Y-1665930D01*
X116172Y-1661172D01*
X120930Y-1654971D01*
X123921Y-1647749D01*
X124283Y-1645000D01*
D02*
G37*
G36*
X90000Y-2355717D02*
Y-2380000D01*
X114283D01*
X113921Y-2377251D01*
X110930Y-2370029D01*
X106172Y-2363828D01*
X99971Y-2359070D01*
X92749Y-2356079D01*
X90000Y-2355717D01*
D02*
G37*
G36*
X114283Y-2390000D02*
X90000D01*
Y-2414283D01*
X92749Y-2413921D01*
X99971Y-2410930D01*
X106172Y-2406172D01*
X110930Y-2399971D01*
X113921Y-2392749D01*
X114283Y-2390000D01*
D02*
G37*
G36*
X155000Y-2505717D02*
Y-2530000D01*
X179283D01*
X178921Y-2527251D01*
X175930Y-2520029D01*
X171172Y-2513828D01*
X164971Y-2509070D01*
X157749Y-2506079D01*
X155000Y-2505717D01*
D02*
G37*
G36*
X85000Y-1730717D02*
X82251Y-1731079D01*
X75029Y-1734070D01*
X68828Y-1738828D01*
X64070Y-1745029D01*
X61079Y-1752251D01*
X60717Y-1755000D01*
X85000D01*
Y-1730717D01*
D02*
G37*
G36*
X119283Y-1765000D02*
X95000D01*
Y-1789283D01*
X97749Y-1788921D01*
X104971Y-1785930D01*
X111172Y-1781172D01*
X115930Y-1774971D01*
X118921Y-1767749D01*
X119283Y-1765000D01*
D02*
G37*
G36*
X85000D02*
X60717D01*
X61079Y-1767749D01*
X64070Y-1774971D01*
X68828Y-1781172D01*
X75029Y-1785930D01*
X82251Y-1788921D01*
X85000Y-1789283D01*
Y-1765000D01*
D02*
G37*
G36*
Y-1485000D02*
X60717D01*
X61079Y-1487749D01*
X64070Y-1494971D01*
X68828Y-1501172D01*
X75029Y-1505930D01*
X82251Y-1508921D01*
X85000Y-1509283D01*
Y-1485000D01*
D02*
G37*
G36*
X519283Y-1465000D02*
X495000D01*
Y-1489283D01*
X497749Y-1488921D01*
X504971Y-1485930D01*
X511172Y-1481172D01*
X515930Y-1474971D01*
X518921Y-1467749D01*
X519283Y-1465000D01*
D02*
G37*
G36*
X660000D02*
X635717D01*
X636079Y-1467749D01*
X639070Y-1474971D01*
X643828Y-1481172D01*
X650029Y-1485930D01*
X657251Y-1488921D01*
X660000Y-1489283D01*
Y-1465000D01*
D02*
G37*
G36*
X119283Y-1485000D02*
X95000D01*
Y-1509283D01*
X97749Y-1508921D01*
X104971Y-1505930D01*
X111172Y-1501172D01*
X115930Y-1494971D01*
X118921Y-1487749D01*
X119283Y-1485000D01*
D02*
G37*
G36*
X485000Y-1465000D02*
X460717D01*
X461079Y-1467749D01*
X464070Y-1474971D01*
X468828Y-1481172D01*
X475029Y-1485930D01*
X482251Y-1488921D01*
X485000Y-1489283D01*
Y-1465000D01*
D02*
G37*
G36*
X349283D02*
X325000D01*
Y-1489283D01*
X327749Y-1488921D01*
X334971Y-1485930D01*
X341172Y-1481172D01*
X345930Y-1474971D01*
X348921Y-1467749D01*
X349283Y-1465000D01*
D02*
G37*
G36*
X315000D02*
X290717D01*
X291079Y-1467749D01*
X294070Y-1474971D01*
X298828Y-1481172D01*
X305029Y-1485930D01*
X312251Y-1488921D01*
X315000Y-1489283D01*
Y-1465000D01*
D02*
G37*
G36*
X940000Y-1520717D02*
X937251Y-1521079D01*
X930029Y-1524070D01*
X923828Y-1528828D01*
X919070Y-1535029D01*
X916079Y-1542251D01*
X915717Y-1545000D01*
X940000D01*
Y-1520717D01*
D02*
G37*
G36*
X974283Y-1555000D02*
X950000D01*
Y-1579283D01*
X952749Y-1578921D01*
X959971Y-1575930D01*
X966172Y-1571172D01*
X970930Y-1564971D01*
X973921Y-1557749D01*
X974283Y-1555000D01*
D02*
G37*
G36*
X940000D02*
X915717D01*
X916079Y-1557749D01*
X919070Y-1564971D01*
X923828Y-1571172D01*
X930029Y-1575930D01*
X937251Y-1578921D01*
X940000Y-1579283D01*
Y-1555000D01*
D02*
G37*
G36*
X950000Y-1520717D02*
Y-1545000D01*
X974283D01*
X973921Y-1542251D01*
X970930Y-1535029D01*
X966172Y-1528828D01*
X959971Y-1524070D01*
X952749Y-1521079D01*
X950000Y-1520717D01*
D02*
G37*
G36*
X694283Y-1465000D02*
X670000D01*
Y-1489283D01*
X672749Y-1488921D01*
X679971Y-1485930D01*
X686172Y-1481172D01*
X690930Y-1474971D01*
X693921Y-1467749D01*
X694283Y-1465000D01*
D02*
G37*
G36*
X825000D02*
X800717D01*
X801079Y-1467749D01*
X804070Y-1474971D01*
X808828Y-1481172D01*
X815029Y-1485930D01*
X822251Y-1488921D01*
X825000Y-1489283D01*
Y-1465000D01*
D02*
G37*
G36*
X859283D02*
X835000D01*
Y-1489283D01*
X837749Y-1488921D01*
X844971Y-1485930D01*
X851172Y-1481172D01*
X855930Y-1474971D01*
X858921Y-1467749D01*
X859283Y-1465000D01*
D02*
G37*
G36*
X-40000Y-2645717D02*
X-42749Y-2646079D01*
X-49971Y-2649070D01*
X-56172Y-2653828D01*
X-60930Y-2660029D01*
X-63921Y-2667251D01*
X-64283Y-2670000D01*
X-40000D01*
Y-2645717D01*
D02*
G37*
G36*
X-5717Y-2680000D02*
X-30000D01*
Y-2704283D01*
X-27251Y-2703921D01*
X-20029Y-2700930D01*
X-13828Y-2696172D01*
X-9070Y-2689971D01*
X-6079Y-2682749D01*
X-5717Y-2680000D01*
D02*
G37*
G36*
X-40000D02*
X-64283D01*
X-63921Y-2682749D01*
X-60930Y-2689971D01*
X-56172Y-2696172D01*
X-49971Y-2700930D01*
X-42749Y-2703921D01*
X-40000Y-2704283D01*
Y-2680000D01*
D02*
G37*
G36*
X-30000Y-2645717D02*
Y-2670000D01*
X-5717D01*
X-6079Y-2667251D01*
X-9070Y-2660029D01*
X-13828Y-2653828D01*
X-20029Y-2649070D01*
X-27251Y-2646079D01*
X-30000Y-2645717D01*
D02*
G37*
G36*
X795000Y-2590717D02*
X792251Y-2591079D01*
X785029Y-2594070D01*
X778828Y-2598828D01*
X774070Y-2605029D01*
X771079Y-2612251D01*
X770717Y-2615000D01*
X795000D01*
Y-2590717D01*
D02*
G37*
G36*
X829283Y-2625000D02*
X805000D01*
Y-2649283D01*
X807749Y-2648921D01*
X814971Y-2645930D01*
X821172Y-2641172D01*
X825930Y-2634971D01*
X828921Y-2627749D01*
X829283Y-2625000D01*
D02*
G37*
G36*
X795000D02*
X770717D01*
X771079Y-2627749D01*
X774070Y-2634971D01*
X778828Y-2641172D01*
X785029Y-2645930D01*
X792251Y-2648921D01*
X795000Y-2649283D01*
Y-2625000D01*
D02*
G37*
G36*
X910000Y-2690717D02*
Y-2715000D01*
X934283D01*
X933921Y-2712251D01*
X930930Y-2705029D01*
X926172Y-2698828D01*
X919971Y-2694070D01*
X912749Y-2691079D01*
X910000Y-2690717D01*
D02*
G37*
G36*
X35000Y-2725717D02*
X32251Y-2726079D01*
X25029Y-2729070D01*
X18828Y-2733828D01*
X14070Y-2740029D01*
X11079Y-2747251D01*
X10717Y-2750000D01*
X35000D01*
Y-2725717D01*
D02*
G37*
G36*
X69283Y-2760000D02*
X45000D01*
Y-2784283D01*
X47749Y-2783921D01*
X54971Y-2780930D01*
X61172Y-2776172D01*
X65930Y-2769971D01*
X68921Y-2762749D01*
X69283Y-2760000D01*
D02*
G37*
G36*
X35000D02*
X10717D01*
X11079Y-2762749D01*
X14070Y-2769971D01*
X18828Y-2776172D01*
X25029Y-2780930D01*
X32251Y-2783921D01*
X35000Y-2784283D01*
Y-2760000D01*
D02*
G37*
G36*
X45000Y-2725717D02*
Y-2750000D01*
X69283D01*
X68921Y-2747251D01*
X65930Y-2740029D01*
X61172Y-2733828D01*
X54971Y-2729070D01*
X47749Y-2726079D01*
X45000Y-2725717D01*
D02*
G37*
G36*
X900000Y-2690717D02*
X897251Y-2691079D01*
X890029Y-2694070D01*
X883828Y-2698828D01*
X879070Y-2705029D01*
X876079Y-2712251D01*
X875717Y-2715000D01*
X900000D01*
Y-2690717D01*
D02*
G37*
G36*
X934283Y-2725000D02*
X910000D01*
Y-2749283D01*
X912749Y-2748921D01*
X919971Y-2745930D01*
X926172Y-2741172D01*
X930930Y-2734971D01*
X933921Y-2727749D01*
X934283Y-2725000D01*
D02*
G37*
G36*
X900000D02*
X875717D01*
X876079Y-2727749D01*
X879070Y-2734971D01*
X883828Y-2741172D01*
X890029Y-2745930D01*
X897251Y-2748921D01*
X900000Y-2749283D01*
Y-2725000D01*
D02*
G37*
G36*
X805000Y-2590717D02*
Y-2615000D01*
X829283D01*
X828921Y-2612251D01*
X825930Y-2605029D01*
X821172Y-2598828D01*
X814971Y-2594070D01*
X807749Y-2591079D01*
X805000Y-2590717D01*
D02*
G37*
G36*
X430000Y-2550717D02*
X427251Y-2551079D01*
X420029Y-2554070D01*
X413828Y-2558828D01*
X409070Y-2565029D01*
X406079Y-2572251D01*
X405717Y-2575000D01*
X430000D01*
Y-2550717D01*
D02*
G37*
G36*
X290000D02*
Y-2575000D01*
X314283D01*
X313921Y-2572251D01*
X310930Y-2565029D01*
X306172Y-2558828D01*
X299971Y-2554070D01*
X292749Y-2551079D01*
X290000Y-2550717D01*
D02*
G37*
G36*
X280000D02*
X277251Y-2551079D01*
X270029Y-2554070D01*
X263828Y-2558828D01*
X259070Y-2565029D01*
X256079Y-2572251D01*
X255717Y-2575000D01*
X280000D01*
Y-2550717D01*
D02*
G37*
G36*
X440000D02*
Y-2575000D01*
X464283D01*
X463921Y-2572251D01*
X460930Y-2565029D01*
X456172Y-2558828D01*
X449971Y-2554070D01*
X442749Y-2551079D01*
X440000Y-2550717D01*
D02*
G37*
G36*
X145000Y-2505717D02*
X142251Y-2506079D01*
X135029Y-2509070D01*
X128828Y-2513828D01*
X124070Y-2520029D01*
X121079Y-2527251D01*
X120717Y-2530000D01*
X145000D01*
Y-2505717D01*
D02*
G37*
G36*
X179283Y-2540000D02*
X155000D01*
Y-2564283D01*
X157749Y-2563921D01*
X164971Y-2560930D01*
X171172Y-2556172D01*
X175930Y-2549971D01*
X178921Y-2542749D01*
X179283Y-2540000D01*
D02*
G37*
G36*
X145000D02*
X120717D01*
X121079Y-2542749D01*
X124070Y-2549971D01*
X128828Y-2556172D01*
X135029Y-2560930D01*
X142251Y-2563921D01*
X145000Y-2564283D01*
Y-2540000D01*
D02*
G37*
G36*
X615000Y-2555717D02*
Y-2580000D01*
X639283D01*
X638921Y-2577251D01*
X635930Y-2570029D01*
X631172Y-2563828D01*
X624971Y-2559070D01*
X617749Y-2556079D01*
X615000Y-2555717D01*
D02*
G37*
G36*
X280000Y-2585000D02*
X255717D01*
X256079Y-2587749D01*
X259070Y-2594971D01*
X263828Y-2601172D01*
X270029Y-2605930D01*
X277251Y-2608921D01*
X280000Y-2609283D01*
Y-2585000D01*
D02*
G37*
G36*
X639283Y-2590000D02*
X615000D01*
Y-2614283D01*
X617749Y-2613921D01*
X624971Y-2610930D01*
X631172Y-2606172D01*
X635930Y-2599971D01*
X638921Y-2592749D01*
X639283Y-2590000D01*
D02*
G37*
G36*
X605000D02*
X580717D01*
X581079Y-2592749D01*
X584070Y-2599971D01*
X588828Y-2606172D01*
X595029Y-2610930D01*
X602251Y-2613921D01*
X605000Y-2614283D01*
Y-2590000D01*
D02*
G37*
G36*
X314283Y-2585000D02*
X290000D01*
Y-2609283D01*
X292749Y-2608921D01*
X299971Y-2605930D01*
X306172Y-2601172D01*
X310930Y-2594971D01*
X313921Y-2587749D01*
X314283Y-2585000D01*
D02*
G37*
G36*
X605000Y-2555717D02*
X602251Y-2556079D01*
X595029Y-2559070D01*
X588828Y-2563828D01*
X584070Y-2570029D01*
X581079Y-2577251D01*
X580717Y-2580000D01*
X605000D01*
Y-2555717D01*
D02*
G37*
G36*
X464283Y-2585000D02*
X440000D01*
Y-2609283D01*
X442749Y-2608921D01*
X449971Y-2605930D01*
X456172Y-2601172D01*
X460930Y-2594971D01*
X463921Y-2587749D01*
X464283Y-2585000D01*
D02*
G37*
G36*
X430000D02*
X405717D01*
X406079Y-2587749D01*
X409070Y-2594971D01*
X413828Y-2601172D01*
X420029Y-2605930D01*
X427251Y-2608921D01*
X430000Y-2609283D01*
Y-2585000D01*
D02*
G37*
G36*
X485000Y-44999D02*
X450313D01*
X451029Y-50442D01*
X455060Y-60173D01*
X461472Y-68528D01*
X469827Y-74940D01*
X479558Y-78971D01*
X485000Y-79687D01*
Y-44999D01*
D02*
G37*
G36*
X385000D02*
X350313D01*
X351029Y-50442D01*
X355060Y-60173D01*
X361472Y-68528D01*
X369827Y-74940D01*
X379558Y-78971D01*
X385000Y-79687D01*
Y-44999D01*
D02*
G37*
G36*
X285000D02*
X250313D01*
X251030Y-50442D01*
X255060Y-60173D01*
X261472Y-68528D01*
X269827Y-74940D01*
X279558Y-78971D01*
X285000Y-79687D01*
Y-44999D01*
D02*
G37*
G36*
X585000D02*
X550313D01*
X551029Y-50442D01*
X555060Y-60173D01*
X561472Y-68528D01*
X569827Y-74940D01*
X579558Y-78971D01*
X585000Y-79687D01*
Y-44999D01*
D02*
G37*
G36*
X885000D02*
X850313D01*
X851029Y-50442D01*
X855060Y-60173D01*
X861472Y-68528D01*
X869827Y-74940D01*
X879558Y-78971D01*
X885000Y-79687D01*
Y-44999D01*
D02*
G37*
G36*
X785000D02*
X750313D01*
X751029Y-50442D01*
X755060Y-60173D01*
X761472Y-68528D01*
X769827Y-74940D01*
X779558Y-78971D01*
X785000Y-79687D01*
Y-44999D01*
D02*
G37*
G36*
X685000D02*
X650313D01*
X651029Y-50442D01*
X655060Y-60173D01*
X661472Y-68528D01*
X669827Y-74940D01*
X679558Y-78971D01*
X685000Y-79687D01*
Y-44999D01*
D02*
G37*
G36*
X929687D02*
X895000D01*
Y-79687D01*
X900442Y-78971D01*
X910173Y-74940D01*
X918528Y-68528D01*
X924940Y-60173D01*
X928971Y-50442D01*
X929687Y-44999D01*
D02*
G37*
G36*
X429687D02*
X395000D01*
Y-79687D01*
X400442Y-78971D01*
X410173Y-74940D01*
X418528Y-68528D01*
X424940Y-60173D01*
X428971Y-50442D01*
X429687Y-44999D01*
D02*
G37*
G36*
X329687D02*
X295000D01*
Y-79687D01*
X300442Y-78971D01*
X310173Y-74940D01*
X318528Y-68528D01*
X324940Y-60173D01*
X328971Y-50442D01*
X329687Y-44999D01*
D02*
G37*
G36*
X1030196D02*
X995000D01*
Y-80196D01*
X1020000D01*
X1023902Y-79420D01*
X1027210Y-77210D01*
X1029420Y-73902D01*
X1030196Y-70000D01*
Y-44999D01*
D02*
G37*
G36*
X529687D02*
X495000D01*
Y-79687D01*
X500442Y-78971D01*
X510173Y-74940D01*
X518528Y-68528D01*
X524940Y-60173D01*
X528971Y-50442D01*
X529687Y-44999D01*
D02*
G37*
G36*
X829687D02*
X795000D01*
Y-79687D01*
X800442Y-78971D01*
X810173Y-74940D01*
X818528Y-68528D01*
X824940Y-60173D01*
X828971Y-50442D01*
X829687Y-44999D01*
D02*
G37*
G36*
X729687D02*
X695000D01*
Y-79687D01*
X700442Y-78971D01*
X710173Y-74940D01*
X718528Y-68528D01*
X724940Y-60173D01*
X728971Y-50442D01*
X729687Y-44999D01*
D02*
G37*
G36*
X629687D02*
X595000D01*
Y-79687D01*
X600442Y-78971D01*
X610173Y-74940D01*
X618528Y-68528D01*
X624940Y-60173D01*
X628971Y-50442D01*
X629687Y-44999D01*
D02*
G37*
G36*
X985000Y196D02*
X960000D01*
X956098Y-580D01*
X952790Y-2790D01*
X950580Y-6098D01*
X949804Y-10000D01*
Y-34999D01*
X985000D01*
Y196D01*
D02*
G37*
G36*
X595000Y-313D02*
Y-34999D01*
X629687D01*
X628971Y-29558D01*
X624940Y-19827D01*
X618528Y-11472D01*
X610173Y-5060D01*
X600442Y-1030D01*
X595000Y-313D01*
D02*
G37*
G36*
X395000D02*
Y-34999D01*
X429687D01*
X428971Y-29558D01*
X424940Y-19827D01*
X418528Y-11472D01*
X410173Y-5060D01*
X400442Y-1030D01*
X395000Y-313D01*
D02*
G37*
G36*
X795000D02*
Y-34999D01*
X829687D01*
X828971Y-29558D01*
X824940Y-19827D01*
X818528Y-11472D01*
X810173Y-5060D01*
X800442Y-1030D01*
X795000Y-313D01*
D02*
G37*
G36*
X895000D02*
Y-34999D01*
X929687D01*
X928971Y-29558D01*
X924940Y-19827D01*
X918528Y-11472D01*
X910173Y-5060D01*
X900442Y-1030D01*
X895000Y-313D01*
D02*
G37*
G36*
X1020000Y196D02*
X995000D01*
Y-34999D01*
X1030196D01*
Y-10000D01*
X1029420Y-6098D01*
X1027210Y-2790D01*
X1023902Y-580D01*
X1020000Y196D01*
D02*
G37*
G36*
X695000Y-313D02*
Y-34999D01*
X729687D01*
X728971Y-29558D01*
X724940Y-19827D01*
X718528Y-11472D01*
X710173Y-5060D01*
X700442Y-1030D01*
X695000Y-313D01*
D02*
G37*
G36*
X495000D02*
Y-34999D01*
X529687D01*
X528971Y-29558D01*
X524940Y-19827D01*
X518528Y-11472D01*
X510173Y-5060D01*
X500442Y-1030D01*
X495000Y-313D01*
D02*
G37*
G36*
X295000D02*
Y-34999D01*
X329687D01*
X328971Y-29558D01*
X324940Y-19827D01*
X318528Y-11472D01*
X310173Y-5060D01*
X300442Y-1030D01*
X295000Y-313D01*
D02*
G37*
G36*
X785000Y-313D02*
X779558Y-1030D01*
X769827Y-5060D01*
X761472Y-11472D01*
X755060Y-19827D01*
X751029Y-29558D01*
X750313Y-34999D01*
X785000D01*
Y-313D01*
D02*
G37*
G36*
X585000D02*
X579558Y-1030D01*
X569827Y-5060D01*
X561472Y-11472D01*
X555060Y-19827D01*
X551029Y-29558D01*
X550313Y-34999D01*
X585000D01*
Y-313D01*
D02*
G37*
G36*
X285000D02*
X279558Y-1030D01*
X269827Y-5060D01*
X261472Y-11472D01*
X255060Y-19827D01*
X251030Y-29558D01*
X250313Y-34999D01*
X285000D01*
Y-313D01*
D02*
G37*
G36*
X385000D02*
X379558Y-1030D01*
X369827Y-5060D01*
X361472Y-11472D01*
X355060Y-19827D01*
X351029Y-29558D01*
X350313Y-34999D01*
X385000D01*
Y-313D01*
D02*
G37*
G36*
X885000D02*
X879558Y-1030D01*
X869827Y-5060D01*
X861472Y-11472D01*
X855060Y-19827D01*
X851029Y-29558D01*
X850313Y-34999D01*
X885000D01*
Y-313D01*
D02*
G37*
G36*
X685000D02*
X679558Y-1030D01*
X669827Y-5060D01*
X661472Y-11472D01*
X655060Y-19827D01*
X651029Y-29558D01*
X650313Y-34999D01*
X685000D01*
Y-313D01*
D02*
G37*
G36*
X485000D02*
X479558Y-1030D01*
X469827Y-5060D01*
X461472Y-11472D01*
X455060Y-19827D01*
X451029Y-29558D01*
X450313Y-34999D01*
X485000D01*
Y-313D01*
D02*
G37*
G36*
X985000Y-44999D02*
X949804D01*
Y-70000D01*
X950580Y-73902D01*
X952790Y-77210D01*
X956098Y-79420D01*
X960000Y-80196D01*
X985000D01*
Y-44999D01*
D02*
G37*
G36*
X165000Y-370000D02*
X140717D01*
X141079Y-372749D01*
X144070Y-379971D01*
X148828Y-386172D01*
X155029Y-390930D01*
X162251Y-393921D01*
X165000Y-394283D01*
Y-370000D01*
D02*
G37*
G36*
X835000Y-1430717D02*
Y-1455000D01*
X859283D01*
X858921Y-1452251D01*
X855930Y-1445029D01*
X851172Y-1438828D01*
X844971Y-1434070D01*
X837749Y-1431079D01*
X835000Y-1430717D01*
D02*
G37*
G36*
X825000D02*
X822251Y-1431079D01*
X815029Y-1434070D01*
X808828Y-1438828D01*
X804070Y-1445029D01*
X801079Y-1452251D01*
X800717Y-1455000D01*
X825000D01*
Y-1430717D01*
D02*
G37*
G36*
X199283Y-370000D02*
X175000D01*
Y-394283D01*
X177749Y-393921D01*
X184971Y-390930D01*
X191172Y-386172D01*
X195930Y-379971D01*
X198921Y-372749D01*
X199283Y-370000D01*
D02*
G37*
G36*
X770000Y-305000D02*
X745717D01*
X746079Y-307749D01*
X749070Y-314971D01*
X753828Y-321172D01*
X760029Y-325930D01*
X767251Y-328921D01*
X770000Y-329283D01*
Y-305000D01*
D02*
G37*
G36*
X175000Y-335717D02*
Y-360000D01*
X199283D01*
X198921Y-357251D01*
X195930Y-350029D01*
X191172Y-343828D01*
X184971Y-339070D01*
X177749Y-336079D01*
X175000Y-335717D01*
D02*
G37*
G36*
X165000D02*
X162251Y-336079D01*
X155029Y-339070D01*
X148828Y-343828D01*
X144070Y-350029D01*
X141079Y-357251D01*
X140717Y-360000D01*
X165000D01*
Y-335717D01*
D02*
G37*
G36*
X670000Y-1430717D02*
Y-1455000D01*
X694283D01*
X693921Y-1452251D01*
X690930Y-1445029D01*
X686172Y-1438828D01*
X679971Y-1434070D01*
X672749Y-1431079D01*
X670000Y-1430717D01*
D02*
G37*
G36*
X315000D02*
X312251Y-1431079D01*
X305029Y-1434070D01*
X298828Y-1438828D01*
X294070Y-1445029D01*
X291079Y-1452251D01*
X290717Y-1455000D01*
X315000D01*
Y-1430717D01*
D02*
G37*
G36*
X95000Y-1450717D02*
Y-1475000D01*
X119283D01*
X118921Y-1472251D01*
X115930Y-1465029D01*
X111172Y-1458828D01*
X104971Y-1454070D01*
X97749Y-1451079D01*
X95000Y-1450717D01*
D02*
G37*
G36*
X85000D02*
X82251Y-1451079D01*
X75029Y-1454070D01*
X68828Y-1458828D01*
X64070Y-1465029D01*
X61079Y-1472251D01*
X60717Y-1475000D01*
X85000D01*
Y-1450717D01*
D02*
G37*
G36*
X325000Y-1430717D02*
Y-1455000D01*
X349283D01*
X348921Y-1452251D01*
X345930Y-1445029D01*
X341172Y-1438828D01*
X334971Y-1434070D01*
X327749Y-1431079D01*
X325000Y-1430717D01*
D02*
G37*
G36*
X660000D02*
X657251Y-1431079D01*
X650029Y-1434070D01*
X643828Y-1438828D01*
X639070Y-1445029D01*
X636079Y-1452251D01*
X635717Y-1455000D01*
X660000D01*
Y-1430717D01*
D02*
G37*
G36*
X495000D02*
Y-1455000D01*
X519283D01*
X518921Y-1452251D01*
X515930Y-1445029D01*
X511172Y-1438828D01*
X504971Y-1434070D01*
X497749Y-1431079D01*
X495000Y-1430717D01*
D02*
G37*
G36*
X485000D02*
X482251Y-1431079D01*
X475029Y-1434070D01*
X468828Y-1438828D01*
X464070Y-1445029D01*
X461079Y-1452251D01*
X460717Y-1455000D01*
X485000D01*
Y-1430717D01*
D02*
G37*
G36*
X804283Y-305000D02*
X780000D01*
Y-329283D01*
X782749Y-328921D01*
X789971Y-325930D01*
X796172Y-321172D01*
X800930Y-314971D01*
X803921Y-307749D01*
X804283Y-305000D01*
D02*
G37*
G36*
X1020000Y-99804D02*
X960000D01*
X956098Y-100580D01*
X952790Y-102790D01*
X950580Y-106098D01*
X949804Y-110000D01*
Y-170000D01*
X950580Y-173902D01*
X952790Y-177210D01*
X956098Y-179420D01*
X960000Y-180196D01*
X1020000D01*
X1023902Y-179420D01*
X1027210Y-177210D01*
X1029420Y-173902D01*
X1030196Y-170000D01*
Y-110000D01*
X1029420Y-106098D01*
X1027210Y-102790D01*
X1023902Y-100580D01*
X1020000Y-99804D01*
D02*
G37*
G36*
X590000Y-99655D02*
X579558Y-101029D01*
X569827Y-105060D01*
X561472Y-111472D01*
X555060Y-119827D01*
X551029Y-129558D01*
X549655Y-140000D01*
X551029Y-150442D01*
X555060Y-160173D01*
X561472Y-168528D01*
X569827Y-174940D01*
X579558Y-178970D01*
X590000Y-180345D01*
X600442Y-178970D01*
X610173Y-174940D01*
X618528Y-168528D01*
X624940Y-160173D01*
X628971Y-150442D01*
X630345Y-140000D01*
X628971Y-129558D01*
X624940Y-119827D01*
X618528Y-111472D01*
X610173Y-105060D01*
X600442Y-101029D01*
X590000Y-99655D01*
D02*
G37*
G36*
X490000D02*
X479558Y-101029D01*
X469827Y-105060D01*
X461472Y-111472D01*
X455060Y-119827D01*
X451029Y-129558D01*
X449655Y-140000D01*
X451029Y-150442D01*
X455060Y-160173D01*
X461472Y-168528D01*
X469827Y-174940D01*
X479558Y-178970D01*
X490000Y-180345D01*
X500442Y-178970D01*
X510173Y-174940D01*
X518528Y-168528D01*
X524940Y-160173D01*
X528971Y-150442D01*
X530345Y-140000D01*
X528971Y-129558D01*
X524940Y-119827D01*
X518528Y-111472D01*
X510173Y-105060D01*
X500442Y-101029D01*
X490000Y-99655D01*
D02*
G37*
G36*
X-20000Y-155000D02*
X-44283D01*
X-43921Y-157749D01*
X-40930Y-164971D01*
X-36172Y-171172D01*
X-29971Y-175930D01*
X-22749Y-178921D01*
X-20000Y-179283D01*
Y-155000D01*
D02*
G37*
G36*
X-10000Y-120717D02*
Y-145000D01*
X14283D01*
X13921Y-142251D01*
X10930Y-135029D01*
X6172Y-128828D01*
X-29Y-124070D01*
X-7251Y-121079D01*
X-10000Y-120717D01*
D02*
G37*
G36*
X-20000D02*
X-22749Y-121079D01*
X-29971Y-124070D01*
X-36172Y-128828D01*
X-40930Y-135029D01*
X-43921Y-142251D01*
X-44283Y-145000D01*
X-20000D01*
Y-120717D01*
D02*
G37*
G36*
X14283Y-155000D02*
X-10000D01*
Y-179283D01*
X-7251Y-178921D01*
X-29Y-175930D01*
X6172Y-171172D01*
X10930Y-164971D01*
X13921Y-157749D01*
X14283Y-155000D01*
D02*
G37*
G36*
X390000Y-99655D02*
X379558Y-101029D01*
X369827Y-105060D01*
X361472Y-111472D01*
X355060Y-119827D01*
X351029Y-129558D01*
X349655Y-140000D01*
X351029Y-150442D01*
X355060Y-160173D01*
X361472Y-168528D01*
X369827Y-174940D01*
X379558Y-178970D01*
X390000Y-180345D01*
X400442Y-178970D01*
X410173Y-174940D01*
X418528Y-168528D01*
X424940Y-160173D01*
X428971Y-150442D01*
X430345Y-140000D01*
X428971Y-129558D01*
X424940Y-119827D01*
X418528Y-111472D01*
X410173Y-105060D01*
X400442Y-101029D01*
X390000Y-99655D01*
D02*
G37*
G36*
X770000Y-270717D02*
X767251Y-271079D01*
X760029Y-274070D01*
X753828Y-278828D01*
X749070Y-285029D01*
X746079Y-292251D01*
X745717Y-295000D01*
X770000D01*
Y-270717D01*
D02*
G37*
G36*
X1019283Y-305000D02*
X995000D01*
Y-329283D01*
X997749Y-328921D01*
X1004971Y-325930D01*
X1011172Y-321172D01*
X1015930Y-314971D01*
X1018921Y-307749D01*
X1019283Y-305000D01*
D02*
G37*
G36*
X985000D02*
X960717D01*
X961079Y-307749D01*
X964070Y-314971D01*
X968828Y-321172D01*
X975029Y-325930D01*
X982251Y-328921D01*
X985000Y-329283D01*
Y-305000D01*
D02*
G37*
G36*
X780000Y-270717D02*
Y-295000D01*
X804283D01*
X803921Y-292251D01*
X800930Y-285029D01*
X796172Y-278828D01*
X789971Y-274070D01*
X782749Y-271079D01*
X780000Y-270717D01*
D02*
G37*
G36*
X890000Y-99655D02*
X879558Y-101029D01*
X869827Y-105060D01*
X861472Y-111472D01*
X855060Y-119827D01*
X851029Y-129558D01*
X849655Y-140000D01*
X851029Y-150442D01*
X855060Y-160173D01*
X861472Y-168528D01*
X869827Y-174940D01*
X879558Y-178970D01*
X882263Y-179327D01*
Y-200500D01*
X877263Y-202966D01*
X872651Y-199428D01*
X864137Y-195901D01*
X855000Y-194698D01*
X845863Y-195901D01*
X837349Y-199428D01*
X830038Y-205038D01*
X824428Y-212349D01*
X820901Y-220863D01*
X819698Y-230000D01*
X820901Y-239137D01*
X824428Y-247651D01*
X830038Y-254962D01*
X837349Y-260572D01*
X845863Y-264099D01*
X855000Y-265302D01*
X864137Y-264099D01*
X872651Y-260572D01*
X877263Y-257034D01*
X882263Y-259500D01*
Y-463654D01*
X879428Y-467349D01*
X875901Y-475863D01*
X874698Y-485000D01*
X875901Y-494137D01*
X879428Y-502651D01*
X885038Y-509962D01*
X892349Y-515572D01*
X900863Y-519099D01*
X910000Y-520302D01*
X919137Y-519099D01*
X927651Y-515572D01*
X934962Y-509962D01*
X940572Y-502651D01*
X944099Y-494137D01*
X945302Y-485000D01*
X944099Y-475863D01*
X940572Y-467349D01*
X937737Y-463654D01*
Y-160000D01*
X936792Y-152821D01*
X934021Y-146131D01*
X930195Y-141144D01*
X930345Y-140000D01*
X928971Y-129558D01*
X924940Y-119827D01*
X918528Y-111472D01*
X910173Y-105060D01*
X900442Y-101029D01*
X890000Y-99655D01*
D02*
G37*
G36*
X995000Y-270717D02*
Y-295000D01*
X1019283D01*
X1018921Y-292251D01*
X1015930Y-285029D01*
X1011172Y-278828D01*
X1004971Y-274070D01*
X997749Y-271079D01*
X995000Y-270717D01*
D02*
G37*
G36*
X985000D02*
X982251Y-271079D01*
X975029Y-274070D01*
X968828Y-278828D01*
X964070Y-285029D01*
X961079Y-292251D01*
X960717Y-295000D01*
X985000D01*
Y-270717D01*
D02*
G37*
%LPD*%
D13*
X875000Y-2985000D02*
X875098Y-2984902D01*
X790000Y-178640D02*
Y-140000D01*
X25000Y-2535000D02*
X155000Y-2665000D01*
X710000D01*
X875098Y-2830098D01*
Y-2984902D02*
Y-2830098D01*
X-35000Y-2565000D02*
X140000Y-2740000D01*
X670000D01*
X760000Y-2830000D01*
Y-2905000D02*
Y-2830000D01*
X890000Y-1785000D02*
Y-1635000D01*
X690000Y-185000D02*
Y-140000D01*
X-35000Y-2565000D02*
Y-1565000D01*
X80000Y-1360000D02*
X290000Y-1570000D01*
X825000D01*
X890000Y-1635000D01*
X910000Y-485000D02*
Y-160000D01*
X890000Y-140000D02*
X910000Y-160000D01*
X650000Y-225000D02*
X690000Y-185000D01*
X25000Y-2535000D02*
Y-335000D01*
X135000Y-225000D01*
X650000D01*
X693640Y-275000D02*
X790000Y-178640D01*
X80000Y-1360000D02*
Y-355000D01*
X160000Y-275000D01*
X693640D01*
X-35000Y-1565000D02*
Y-320000D01*
X145000Y-140000D01*
X290000D01*
D14*
X1863661Y-2945000D02*
D03*
X2946339D02*
D03*
X1863661Y-1667500D02*
D03*
X2946339D02*
D03*
X1863661Y-390000D02*
D03*
X2946339D02*
D03*
X1565000Y-2751299D02*
D03*
Y-3538701D02*
D03*
X3393425Y-130000D02*
D03*
X3330000Y-3385552D02*
D03*
X1565000Y-1466299D02*
D03*
Y-2253701D02*
D03*
Y-141299D02*
D03*
Y-928701D02*
D03*
X3310000Y-878702D02*
D03*
X3315000Y-2190552D02*
D03*
X485000Y-3211575D02*
D03*
X520000Y-704448D02*
D03*
X500000Y-2016575D02*
D03*
D15*
X3196575Y-130000D02*
D03*
D16*
X3330000Y-3188701D02*
D03*
X3310000Y-681851D02*
D03*
X3315000Y-1993701D02*
D03*
X485000Y-3408425D02*
D03*
X520000Y-901299D02*
D03*
X500000Y-2213425D02*
D03*
D17*
X0Y-3779528D02*
D03*
Y0D02*
D03*
X3779528Y-3779528D02*
D03*
X3779527Y-0D02*
D03*
D18*
X790000Y-140000D02*
D03*
X890000D02*
D03*
X290000D02*
D03*
X390000D02*
D03*
X490000D02*
D03*
X590000D02*
D03*
X690000D02*
D03*
X790000Y-40000D02*
D03*
X890000D02*
D03*
X290000D02*
D03*
X390000D02*
D03*
X490000D02*
D03*
X590000D02*
D03*
X690000D02*
D03*
D19*
X990000Y-140000D02*
D03*
Y-40000D02*
D03*
D20*
X693334Y-3307127D02*
D03*
X740000Y-3372127D02*
D03*
X693334Y-3437127D02*
D03*
X646667Y-3372127D02*
D03*
X600001Y-3307127D02*
D03*
Y-3437127D02*
D03*
X708334Y-2112127D02*
D03*
X755000Y-2177127D02*
D03*
X708334Y-2242127D02*
D03*
X661667Y-2177127D02*
D03*
X615001Y-2112127D02*
D03*
Y-2242127D02*
D03*
X635001Y-930000D02*
D03*
Y-800000D02*
D03*
X681667Y-865000D02*
D03*
X728334Y-930000D02*
D03*
X775000Y-865000D02*
D03*
X728334Y-800000D02*
D03*
X2925000Y-221667D02*
D03*
X2990000Y-175000D02*
D03*
X3055000Y-128334D02*
D03*
X3120000Y-175000D02*
D03*
X3055000Y-221667D02*
D03*
X3185000D02*
D03*
X3055000Y-315000D02*
D03*
X2990000Y-268334D02*
D03*
X3185000Y-315000D02*
D03*
X3120000Y-268334D02*
D03*
X3315000Y-315000D02*
D03*
X3250000Y-268334D02*
D03*
X3315000Y-128334D02*
D03*
X3510000Y-175000D02*
D03*
X3575000Y-221667D02*
D03*
X3640000Y-268334D02*
D03*
X3705000Y-315000D02*
D03*
X3770000Y-361667D02*
D03*
X3315000Y-221667D02*
D03*
X3380000Y-268334D02*
D03*
X3445000Y-315000D02*
D03*
X3640000Y-455000D02*
D03*
X3445000Y-221667D02*
D03*
X3510000Y-268334D02*
D03*
X3575000Y-315000D02*
D03*
X3640000Y-361667D02*
D03*
X3705000Y-408333D02*
D03*
Y-501667D02*
D03*
Y-2648330D02*
D03*
X3640000Y-2694997D02*
D03*
X3575000Y-2741663D02*
D03*
X3510000Y-2788330D02*
D03*
X3445000Y-2834997D02*
D03*
X3315000D02*
D03*
X3185000D02*
D03*
X3055000D02*
D03*
X2925000D02*
D03*
X3380000Y-2788330D02*
D03*
X3250000D02*
D03*
X3120000D02*
D03*
X2990000D02*
D03*
X3055000Y-2741663D02*
D03*
X3185000D02*
D03*
X3315000D02*
D03*
X3120000Y-2694997D02*
D03*
X3250000D02*
D03*
X2990000Y-1574998D02*
D03*
X3120000D02*
D03*
X3055000Y-1621665D02*
D03*
Y-1528332D02*
D03*
X3250000Y-1574998D02*
D03*
X3185000Y-1621665D02*
D03*
Y-1528332D02*
D03*
X3315000D02*
D03*
Y-1621665D02*
D03*
X3445000D02*
D03*
X3380000Y-1574998D02*
D03*
Y-2694997D02*
D03*
X3445000Y-2741663D02*
D03*
X3510000Y-2694997D02*
D03*
X3575000Y-2648330D02*
D03*
X3640000Y-2601664D02*
D03*
X3705000Y-2554997D02*
D03*
X3640000Y-2508330D02*
D03*
X3705000Y-2461664D02*
D03*
X3445000Y-1528332D02*
D03*
X3510000Y-1574998D02*
D03*
X3575000Y-1528332D02*
D03*
Y-1621665D02*
D03*
X3640000Y-1481665D02*
D03*
Y-1574998D02*
D03*
Y-1668332D02*
D03*
X3705000Y-1714998D02*
D03*
Y-1621665D02*
D03*
Y-1528332D02*
D03*
Y-1434999D02*
D03*
X3770000Y-2321664D02*
D03*
Y-2414997D02*
D03*
Y-2508330D02*
D03*
Y-1294999D02*
D03*
Y-1388332D02*
D03*
Y-1481665D02*
D03*
Y-1574998D02*
D03*
Y-1668332D02*
D03*
Y-1761665D02*
D03*
Y-1854998D02*
D03*
Y-455000D02*
D03*
Y-548333D02*
D03*
Y-1014999D02*
D03*
Y-1108332D02*
D03*
Y-1201666D02*
D03*
X3388330Y-865000D02*
D03*
X3341663Y-930000D02*
D03*
X3388330Y-735000D02*
D03*
X3228330Y-1980000D02*
D03*
X3274997Y-2045000D02*
D03*
X3368330D02*
D03*
X3321663Y-2110000D02*
D03*
X3228330D02*
D03*
X3181664Y-2045000D02*
D03*
X3274997Y-2305000D02*
D03*
X3228330Y-2240000D02*
D03*
Y-2370000D02*
D03*
X3181664Y-2305000D02*
D03*
X3134997Y-2370000D02*
D03*
X3088330Y-2305000D02*
D03*
X3181664Y-2175000D02*
D03*
X3134997Y-2240000D02*
D03*
Y-2110000D02*
D03*
X3088330Y-2175000D02*
D03*
X3041664Y-2240000D02*
D03*
X2994997Y-2175000D02*
D03*
X3041664Y-2110000D02*
D03*
X2948331D02*
D03*
X3041664Y-2370000D02*
D03*
X2994997Y-2305000D02*
D03*
X2948331Y-2240000D02*
D03*
Y-2370000D02*
D03*
X2901664Y-2305000D02*
D03*
X2854997Y-2370000D02*
D03*
X2901664Y-2175000D02*
D03*
X2854997Y-2240000D02*
D03*
Y-2110000D02*
D03*
X2808331Y-2175000D02*
D03*
X2761664Y-2110000D02*
D03*
X2668331D02*
D03*
X2808331Y-2305000D02*
D03*
X2761664Y-2240000D02*
D03*
Y-2370000D02*
D03*
X2714998Y-2305000D02*
D03*
X2668331Y-2370000D02*
D03*
X2621664Y-2305000D02*
D03*
X2714998Y-2175000D02*
D03*
X2668331Y-2240000D02*
D03*
X2621664Y-2175000D02*
D03*
X2574998Y-2240000D02*
D03*
X2528331Y-2175000D02*
D03*
X2574998Y-2110000D02*
D03*
X2481665D02*
D03*
X2574998Y-2370000D02*
D03*
X2528331Y-2305000D02*
D03*
X2481665Y-2240000D02*
D03*
Y-2370000D02*
D03*
X2434998Y-2305000D02*
D03*
X2388331Y-2370000D02*
D03*
X2341665Y-2305000D02*
D03*
X2434998Y-2175000D02*
D03*
X2388331Y-2240000D02*
D03*
Y-2110000D02*
D03*
X2341665Y-2175000D02*
D03*
X2294998Y-2240000D02*
D03*
X2248332Y-2175000D02*
D03*
X2294998Y-2110000D02*
D03*
X2201665D02*
D03*
X2294998Y-2370000D02*
D03*
X2248332Y-2305000D02*
D03*
X2201665Y-2240000D02*
D03*
Y-2370000D02*
D03*
X2154998Y-2305000D02*
D03*
X2108332Y-2370000D02*
D03*
X2061665Y-2305000D02*
D03*
X2154998Y-2175000D02*
D03*
X2108332Y-2240000D02*
D03*
Y-2110000D02*
D03*
X2061665Y-2175000D02*
D03*
X2014999Y-2240000D02*
D03*
X1968332Y-2175000D02*
D03*
X2014999Y-2110000D02*
D03*
X1921665D02*
D03*
X2014999Y-2370000D02*
D03*
X1968332Y-2305000D02*
D03*
X1921665Y-2240000D02*
D03*
Y-2370000D02*
D03*
X1874999Y-2305000D02*
D03*
X1828332Y-2370000D02*
D03*
X1781666Y-2305000D02*
D03*
X1874999Y-2175000D02*
D03*
X1828332Y-2240000D02*
D03*
Y-2110000D02*
D03*
X1781666Y-2175000D02*
D03*
X1734999Y-2240000D02*
D03*
X1688332Y-2175000D02*
D03*
X1734999Y-2110000D02*
D03*
X1641666D02*
D03*
X1734999Y-2370000D02*
D03*
X1688332Y-2305000D02*
D03*
X1641666Y-2240000D02*
D03*
Y-2370000D02*
D03*
X1594999Y-2305000D02*
D03*
X1548333Y-2370000D02*
D03*
X1501666Y-2305000D02*
D03*
X1594999Y-2175000D02*
D03*
X1548333Y-2110000D02*
D03*
X1501666Y-2175000D02*
D03*
X1454999Y-2240000D02*
D03*
X1408333Y-2175000D02*
D03*
X1454999Y-2110000D02*
D03*
X1361666D02*
D03*
X3399997Y-3175000D02*
D03*
X3353330Y-3240000D02*
D03*
X3446663D02*
D03*
X3399997Y-3305000D02*
D03*
X3446663Y-3370000D02*
D03*
X3399997Y-3435000D02*
D03*
X3306663Y-3305000D02*
D03*
X3259997Y-3240000D02*
D03*
X3213330Y-3175000D02*
D03*
X3166664Y-3240000D02*
D03*
X3353330Y-3500000D02*
D03*
X3306663Y-3435000D02*
D03*
X3259997Y-3370000D02*
D03*
X3213330Y-3305000D02*
D03*
X3306663Y-3565000D02*
D03*
X3259997Y-3500000D02*
D03*
X3213330Y-3435000D02*
D03*
X3166664Y-3370000D02*
D03*
X3119997Y-3305000D02*
D03*
X3213330Y-3565000D02*
D03*
X3166664Y-3500000D02*
D03*
X3119997Y-3435000D02*
D03*
X3073330Y-3370000D02*
D03*
X3026664Y-3305000D02*
D03*
X3119997Y-3565000D02*
D03*
X3073330Y-3500000D02*
D03*
X3026664Y-3435000D02*
D03*
X2979997Y-3370000D02*
D03*
X2933331Y-3305000D02*
D03*
X3026664Y-3565000D02*
D03*
X2979997Y-3500000D02*
D03*
X2933331Y-3435000D02*
D03*
X2886664Y-3370000D02*
D03*
X2839997Y-3305000D02*
D03*
X2933331Y-3565000D02*
D03*
X2886664Y-3500000D02*
D03*
X2839997Y-3435000D02*
D03*
X2793331Y-3370000D02*
D03*
X2746664Y-3305000D02*
D03*
X2839997Y-3565000D02*
D03*
X2793331Y-3500000D02*
D03*
X2746664Y-3435000D02*
D03*
X2699998Y-3370000D02*
D03*
X2653331Y-3305000D02*
D03*
X2746664Y-3565000D02*
D03*
X2699998Y-3500000D02*
D03*
X2653331Y-3435000D02*
D03*
X2606664Y-3370000D02*
D03*
X2559998Y-3305000D02*
D03*
X2653331Y-3565000D02*
D03*
X2606664Y-3500000D02*
D03*
X2559998Y-3435000D02*
D03*
X2513331Y-3370000D02*
D03*
X2466665Y-3305000D02*
D03*
X2559998Y-3565000D02*
D03*
X2513331Y-3500000D02*
D03*
X2466665Y-3435000D02*
D03*
X2419998Y-3370000D02*
D03*
X2373331Y-3305000D02*
D03*
X2466665Y-3565000D02*
D03*
X2419998Y-3500000D02*
D03*
X2373331Y-3435000D02*
D03*
X2326665Y-3370000D02*
D03*
X2279998Y-3305000D02*
D03*
X2373331Y-3565000D02*
D03*
X2326665Y-3500000D02*
D03*
X2279998Y-3435000D02*
D03*
X2233332Y-3370000D02*
D03*
X2186665Y-3305000D02*
D03*
X2279998Y-3565000D02*
D03*
X2233332Y-3500000D02*
D03*
X2186665Y-3435000D02*
D03*
X2139998Y-3370000D02*
D03*
X2093332Y-3305000D02*
D03*
X2186665Y-3565000D02*
D03*
X2139998Y-3500000D02*
D03*
X2093332Y-3435000D02*
D03*
X2046665Y-3370000D02*
D03*
X1999999Y-3305000D02*
D03*
X2093332Y-3565000D02*
D03*
X2046665Y-3500000D02*
D03*
X1999999Y-3435000D02*
D03*
X1953332Y-3370000D02*
D03*
X1906665Y-3305000D02*
D03*
X1999999Y-3565000D02*
D03*
X1953332Y-3500000D02*
D03*
X1906665Y-3435000D02*
D03*
X1859999Y-3370000D02*
D03*
X1813332Y-3305000D02*
D03*
X1906665Y-3565000D02*
D03*
X1859999Y-3500000D02*
D03*
X1813332Y-3435000D02*
D03*
X1766666Y-3370000D02*
D03*
X1719999Y-3305000D02*
D03*
X1813332Y-3565000D02*
D03*
X1766666Y-3500000D02*
D03*
X1719999Y-3435000D02*
D03*
X1673332Y-3370000D02*
D03*
X1626666Y-3305000D02*
D03*
X1719999Y-3565000D02*
D03*
X1673332Y-3500000D02*
D03*
X1626666Y-3435000D02*
D03*
X1579999Y-3370000D02*
D03*
X1533333Y-3305000D02*
D03*
Y-3435000D02*
D03*
X1486666Y-3370000D02*
D03*
X1439999Y-3305000D02*
D03*
X1486666Y-3500000D02*
D03*
X1439999Y-3435000D02*
D03*
X1393333Y-3370000D02*
D03*
X1346666Y-3305000D02*
D03*
X1066667D02*
D03*
X1020000Y-3370000D02*
D03*
X1160000Y-3305000D02*
D03*
X1113333Y-3370000D02*
D03*
X1066667Y-3435000D02*
D03*
X1160000D02*
D03*
X1206666Y-3370000D02*
D03*
X1253333Y-3305000D02*
D03*
Y-3435000D02*
D03*
X1300000Y-3370000D02*
D03*
X1113333Y-3500000D02*
D03*
X1206666D02*
D03*
X1253333Y-3565000D02*
D03*
X1300000Y-3500000D02*
D03*
X1346666Y-3565000D02*
D03*
Y-3435000D02*
D03*
X1393333Y-3500000D02*
D03*
X1439999Y-3565000D02*
D03*
X1081667Y-2110000D02*
D03*
X1035000Y-2175000D02*
D03*
X1175000Y-2110000D02*
D03*
X1128333Y-2175000D02*
D03*
X1081667Y-2240000D02*
D03*
X1175000D02*
D03*
X1221666Y-2175000D02*
D03*
X1268333Y-2110000D02*
D03*
Y-2240000D02*
D03*
X1315000Y-2175000D02*
D03*
X1128333Y-2305000D02*
D03*
X1221666D02*
D03*
X1268333Y-2370000D02*
D03*
X1315000Y-2305000D02*
D03*
X1361666Y-2370000D02*
D03*
Y-2240000D02*
D03*
X1408333Y-2305000D02*
D03*
X1454999Y-2370000D02*
D03*
X3341663Y-800000D02*
D03*
X3294997Y-735000D02*
D03*
X3248330Y-800000D02*
D03*
Y-670000D02*
D03*
X3201664Y-735000D02*
D03*
X3154997Y-800000D02*
D03*
X3201664Y-865000D02*
D03*
X3248330Y-930000D02*
D03*
X3294997Y-995000D02*
D03*
X3061664Y-800000D02*
D03*
X3108330Y-865000D02*
D03*
X3154997Y-930000D02*
D03*
X3201664Y-995000D02*
D03*
X3248330Y-1060000D02*
D03*
X2968331Y-800000D02*
D03*
X3014997Y-865000D02*
D03*
X3061664Y-930000D02*
D03*
X3108330Y-995000D02*
D03*
X3154997Y-1060000D02*
D03*
X2874997Y-800000D02*
D03*
X2921664Y-865000D02*
D03*
X2968331Y-930000D02*
D03*
X3014997Y-995000D02*
D03*
X3061664Y-1060000D02*
D03*
X2781664Y-800000D02*
D03*
X2828331Y-865000D02*
D03*
X2874997Y-930000D02*
D03*
X2921664Y-995000D02*
D03*
X2968331Y-1060000D02*
D03*
X2688331Y-800000D02*
D03*
X2734998Y-865000D02*
D03*
X2781664Y-930000D02*
D03*
X2828331Y-995000D02*
D03*
X2874997Y-1060000D02*
D03*
X2594998Y-800000D02*
D03*
X2641664Y-865000D02*
D03*
X2688331Y-930000D02*
D03*
X2734998Y-995000D02*
D03*
X2781664Y-1060000D02*
D03*
X2501665Y-800000D02*
D03*
X2548331Y-865000D02*
D03*
X2594998Y-930000D02*
D03*
X2641664Y-995000D02*
D03*
X2688331Y-1060000D02*
D03*
X2408331Y-800000D02*
D03*
X2454998Y-865000D02*
D03*
X2501665Y-930000D02*
D03*
X2548331Y-995000D02*
D03*
X2594998Y-1060000D02*
D03*
X2314998Y-800000D02*
D03*
X2361665Y-865000D02*
D03*
X2408331Y-930000D02*
D03*
X2454998Y-995000D02*
D03*
X2501665Y-1060000D02*
D03*
X2221665Y-800000D02*
D03*
X2268332Y-865000D02*
D03*
X2314998Y-930000D02*
D03*
X2361665Y-995000D02*
D03*
X2408331Y-1060000D02*
D03*
X2128332Y-800000D02*
D03*
X2174998Y-865000D02*
D03*
X2221665Y-930000D02*
D03*
X2268332Y-995000D02*
D03*
X2314998Y-1060000D02*
D03*
X2034999Y-800000D02*
D03*
X2081665Y-865000D02*
D03*
X2128332Y-930000D02*
D03*
X2174998Y-995000D02*
D03*
X2221665Y-1060000D02*
D03*
X1941665Y-800000D02*
D03*
X1988332Y-865000D02*
D03*
X2034999Y-930000D02*
D03*
X2081665Y-995000D02*
D03*
X2128332Y-1060000D02*
D03*
X1848332Y-800000D02*
D03*
X1894999Y-865000D02*
D03*
X1941665Y-930000D02*
D03*
X1988332Y-995000D02*
D03*
X2034999Y-1060000D02*
D03*
X1754999Y-800000D02*
D03*
X1801666Y-865000D02*
D03*
X1848332Y-930000D02*
D03*
X1894999Y-995000D02*
D03*
X1941665Y-1060000D02*
D03*
X1661666Y-800000D02*
D03*
X1708332Y-865000D02*
D03*
X1754999Y-930000D02*
D03*
X1801666Y-995000D02*
D03*
X1848332Y-1060000D02*
D03*
X1568333Y-800000D02*
D03*
X1614999Y-865000D02*
D03*
X1661666Y-930000D02*
D03*
X1708332Y-995000D02*
D03*
X1754999Y-1060000D02*
D03*
X1474999Y-800000D02*
D03*
X1521666Y-865000D02*
D03*
X1614999Y-995000D02*
D03*
X1661666Y-1060000D02*
D03*
X1381666Y-800000D02*
D03*
X1428333Y-865000D02*
D03*
X1474999Y-930000D02*
D03*
X1521666Y-995000D02*
D03*
X1568333Y-1060000D02*
D03*
X1474999D02*
D03*
X1428333Y-995000D02*
D03*
X1381666Y-930000D02*
D03*
Y-1060000D02*
D03*
X1335000Y-995000D02*
D03*
X1288333Y-1060000D02*
D03*
X1241666Y-995000D02*
D03*
X1148333D02*
D03*
X1335000Y-865000D02*
D03*
X1288333Y-930000D02*
D03*
Y-800000D02*
D03*
X1241666Y-865000D02*
D03*
X1195000Y-930000D02*
D03*
X1101667D02*
D03*
X1148333Y-865000D02*
D03*
X1195000Y-800000D02*
D03*
X1055000Y-865000D02*
D03*
X1101667Y-800000D02*
D03*
D21*
X875000Y-2985000D02*
D03*
X890000Y-1785000D02*
D03*
X760000Y-2905000D02*
D03*
X780000Y-1680000D02*
D03*
X-35000Y-1565000D02*
D03*
X910000Y-485000D02*
D03*
X855000Y-230000D02*
D03*
D22*
X625000Y-2800000D02*
D03*
X40000Y-2755000D02*
D03*
X-35000Y-2675000D02*
D03*
X905000Y-2720000D02*
D03*
X800000Y-2620000D02*
D03*
X610000Y-2585000D02*
D03*
X435000Y-2580000D02*
D03*
X285000D02*
D03*
X150000Y-2535000D02*
D03*
X85000Y-2385000D02*
D03*
X90000Y-1760000D02*
D03*
X95000Y-1640000D02*
D03*
X90000Y-1480000D02*
D03*
X320000Y-1460000D02*
D03*
X490000D02*
D03*
X665000D02*
D03*
X830000D02*
D03*
X945000Y-1550000D02*
D03*
X170000Y-365000D02*
D03*
X-15000Y-150000D02*
D03*
X775000Y-300000D02*
D03*
X990000D02*
D03*
%TF.MD5,04d7b7255cec1b3223a038f836fe8ed0*%
M02*
