G04 Layer_Color=32768*
%FSLAX26Y26*%
%MOIN*%
%TF.FileFunction,Other,Mechanical_15*%
%TF.Part,Single*%
G01*
G75*
%TA.AperFunction,NonConductor*%
%ADD42C,0.003937*%
%ADD43C,0.001968*%
D42*
X875315Y-400000D02*
X914685D01*
X895000Y-419685D02*
Y-380315D01*
X865315Y-1680000D02*
X904685D01*
X885000Y-1699685D02*
Y-1660315D01*
X880315Y-3180236D02*
X919685D01*
X900000Y-3199921D02*
Y-3160551D01*
X845315Y-2905000D02*
X884685D01*
X865000Y-2924685D02*
Y-2885315D01*
X895315Y-1980000D02*
X934685D01*
X915000Y-1999685D02*
Y-1960315D01*
X915315Y-670000D02*
X954685D01*
X935000Y-689685D02*
Y-650315D01*
D43*
X1008268Y-3334764D02*
Y-3025709D01*
X791732Y-3334764D02*
Y-3025709D01*
X1008268D01*
X791732Y-3334764D02*
X1008268D01*
X1023268Y-2134528D02*
Y-1825472D01*
X806732Y-2134528D02*
Y-1825472D01*
X1023268D01*
X806732Y-2134528D02*
X1023268D01*
X1043268Y-824528D02*
Y-515472D01*
X826732Y-824528D02*
Y-515472D01*
X1043268D01*
X826732Y-824528D02*
X1043268D01*
%TF.MD5,cfd0b6bd55d7fe09b948275b988d36b9*%
M02*
