G04 Layer_Color=16711935*
%FSLAX26Y26*%
%MOIN*%
%TF.FileFunction,Other,Mechanical_13*%
%TF.Part,Single*%
G01*
G75*
%TA.AperFunction,NonConductor*%
%ADD35C,0.003937*%
D35*
X541693Y-1729370D02*
G03*
X541693Y-1729370I-19685J0D01*
G01*
X546693Y-2504370D02*
G03*
X546693Y-2504370I-19685J0D01*
G01*
Y-3264606D02*
G03*
X546693Y-3264606I-19685J0D01*
G01*
X536693Y-1406457D02*
X623307D01*
X536693Y-1463543D02*
X623307D01*
X536693D02*
Y-1406457D01*
X623307Y-1463543D02*
Y-1406457D01*
X556693Y-2171457D02*
X643307D01*
X556693Y-2228543D02*
X643307D01*
X556693D02*
Y-2171457D01*
X643307Y-2228543D02*
Y-2171457D01*
X546693Y-2961457D02*
X633307D01*
X546693Y-3018543D02*
X633307D01*
X546693D02*
Y-2961457D01*
X633307Y-3018543D02*
Y-2961457D01*
X683425Y-1764803D02*
Y-1615197D01*
X486575Y-1764803D02*
Y-1615197D01*
X683425D01*
X486575Y-1764803D02*
X683425D01*
X688425Y-2539803D02*
Y-2390197D01*
X491575Y-2539803D02*
Y-2390197D01*
X688425D01*
X491575Y-2539803D02*
X688425D01*
Y-3300039D02*
Y-3150433D01*
X491575Y-3300039D02*
Y-3150433D01*
X688425D01*
X491575Y-3300039D02*
X688425D01*
%TF.MD5,0498916e4b59e419ef98a0a1d49f0d1f*%
M02*
