G04 Layer_Color=128*
%FSLAX26Y26*%
%MOIN*%
%TF.FileFunction,Drillmap*%
%TF.Part,Single*%
G01*
G75*
%TA.AperFunction,NonConductor*%
%ADD31C,0.005000*%
D31*
X673858Y-2080000D02*
X709291D01*
X691575Y-2097716D02*
Y-2062284D01*
X573858Y-2080000D02*
X609291D01*
X591575Y-2097716D02*
Y-2062284D01*
X473858Y-2080000D02*
X509291D01*
X491575Y-2097716D02*
Y-2062284D01*
X662284Y-1300000D02*
X697716D01*
X680000Y-1317716D02*
Y-1282284D01*
X562284Y-1300000D02*
X597716D01*
X580000Y-1317716D02*
Y-1282284D01*
X462284Y-1300000D02*
X497716D01*
X480000Y-1317716D02*
Y-1282284D01*
X667284Y-2875000D02*
X702716D01*
X685000Y-2892716D02*
Y-2857284D01*
X567284Y-2875000D02*
X602716D01*
X585000Y-2892716D02*
Y-2857284D01*
X467284Y-2875000D02*
X502716D01*
X485000Y-2892716D02*
Y-2857284D01*
X3601378Y-1577678D02*
X3648622D01*
X3625000Y-1601300D02*
Y-1554056D01*
X3601378Y-1774528D02*
X3648622D01*
X3625000Y-1798150D02*
Y-1750906D01*
X3621378Y-2355178D02*
X3668622D01*
X3645000Y-2378800D02*
Y-2331556D01*
X3621378Y-2552028D02*
X3668622D01*
X3645000Y-2575650D02*
Y-2528406D01*
X3621378Y-3156575D02*
X3668622D01*
X3645000Y-3180197D02*
Y-3132953D01*
X3621378Y-3353425D02*
X3668622D01*
X3645000Y-3377047D02*
Y-3329803D01*
X958976Y-3107441D02*
X1006221D01*
X982598Y-3131063D02*
Y-3083819D01*
X958976Y-2162559D02*
X1006221D01*
X982598Y-2186181D02*
Y-2138937D01*
X1251378Y-3107441D02*
X1298622D01*
X1275000Y-3131063D02*
Y-3083819D01*
X1251378Y-2162559D02*
X1298622D01*
X1275000Y-2186181D02*
Y-2138937D01*
X1541378Y-3107441D02*
X1588622D01*
X1565000Y-3131063D02*
Y-3083819D01*
X1541378Y-2162559D02*
X1588622D01*
X1565000Y-2186181D02*
Y-2138937D01*
X1586378Y-1788189D02*
X1633622D01*
X1610000Y-1811811D02*
Y-1764567D01*
X1586378Y-311811D02*
X1633622D01*
X1610000Y-335433D02*
Y-288189D01*
X1831378Y-3107441D02*
X1878622D01*
X1855000Y-3131063D02*
Y-3083819D01*
X1831378Y-2162559D02*
X1878622D01*
X1855000Y-2186181D02*
Y-2138937D01*
X2118977Y-3107441D02*
X2166220D01*
X2142599Y-3131063D02*
Y-3083819D01*
X2118977Y-2162559D02*
X2166220D01*
X2142599Y-2186181D02*
Y-2138937D01*
X2406378Y-3107441D02*
X2453622D01*
X2430000Y-3131063D02*
Y-3083819D01*
X2406378Y-2162559D02*
X2453622D01*
X2430000Y-2186181D02*
Y-2138937D01*
X2181378Y-1783189D02*
X2228622D01*
X2205000Y-1806811D02*
Y-1759567D01*
X2181378Y-306811D02*
X2228622D01*
X2205000Y-330433D02*
Y-283189D01*
X2696378Y-3107441D02*
X2743622D01*
X2720000Y-3131063D02*
Y-3083819D01*
X2696378Y-2162559D02*
X2743622D01*
X2720000Y-2186181D02*
Y-2138937D01*
X2986378Y-3107441D02*
X3033622D01*
X3010000Y-3131063D02*
Y-3083819D01*
X2986378Y-2162559D02*
X3033622D01*
X3010000Y-2186181D02*
Y-2138937D01*
X3276378Y-3107441D02*
X3323622D01*
X3300000Y-3131063D02*
Y-3083819D01*
X3276378Y-2162559D02*
X3323622D01*
X3300000Y-2186181D02*
Y-2138937D01*
X2771378Y-1778189D02*
X2818622D01*
X2795000Y-1801811D02*
Y-1754567D01*
X2771378Y-301811D02*
X2818622D01*
X2795000Y-325433D02*
Y-278189D01*
X-59055Y-3779528D02*
X59055D01*
X0Y-3838583D02*
Y-3720472D01*
X-59055Y0D02*
X59055D01*
X0Y-59055D02*
Y59055D01*
X3720472Y-3779528D02*
X3838583D01*
X3779528Y-3838583D02*
Y-3720472D01*
X3720472Y0D02*
X3838582D01*
X3779527Y-59055D02*
Y59055D01*
X125827Y-1797402D02*
X173071D01*
X149449Y-1821024D02*
Y-1773780D01*
X125827Y-1600551D02*
X173071D01*
X149449Y-1624173D02*
Y-1576929D01*
X125827Y-2574902D02*
X173071D01*
X149449Y-2598524D02*
Y-2551280D01*
X125827Y-2378051D02*
X173071D01*
X149449Y-2401673D02*
Y-2354429D01*
X125827Y-3352402D02*
X173071D01*
X149449Y-3376024D02*
Y-3328780D01*
X125827Y-3155551D02*
X173071D01*
X149449Y-3179173D02*
Y-3131929D01*
%TF.MD5,dc21b21399a29ce7fbfd26b4452fa7ac*%
M02*
