G04 Layer_Color=0*
%FSLAX25Y25*%
%MOIN*%
%TF.FileFunction,Plated,1,2,PTH,Drill*%
%TF.Part,Single*%
G01*
G75*
%TA.AperFunction,ComponentDrill*%
%ADD99C,0.03000*%
%TA.AperFunction,OtherDrill,Pad Free-5 (447mil,-116mil)*%
%ADD100C,0.11811*%
%TA.AperFunction,ComponentDrill*%
%ADD101C,0.04724*%
%ADD102C,0.04724*%
%ADD103C,0.03543*%
%ADD104C,0.03000*%
%ADD105C,0.03150*%
%ADD106C,0.03937*%
%TA.AperFunction,ViaDrill,NotFilled*%
%ADD107C,0.02800*%
%ADD108C,0.02000*%
%ADD109C,0.01500*%
%ADD110C,0.01575*%
%ADD111C,0.01000*%
D99*
X382600Y246900D02*
D03*
Y256900D02*
D03*
Y266900D02*
D03*
Y276900D02*
D03*
D100*
X44700Y-11600D02*
D03*
D101*
X18100Y34558D02*
D03*
Y54242D02*
D03*
X17866Y322143D02*
D03*
Y302457D02*
D03*
Y277642D02*
D03*
Y257958D02*
D03*
D102*
X50970Y351800D02*
D03*
X70655D02*
D03*
D103*
X50100Y239300D02*
D03*
X60100D02*
D03*
X70100D02*
D03*
X50100Y163350D02*
D03*
X60100D02*
D03*
X70100D02*
D03*
X50100Y87400D02*
D03*
X60100D02*
D03*
X70100D02*
D03*
X363700Y191300D02*
D03*
X373700D02*
D03*
X383700D02*
D03*
X383100Y151800D02*
D03*
X373100D02*
D03*
X363100D02*
D03*
X320100Y80800D02*
D03*
X330100D02*
D03*
X340100D02*
D03*
X363100Y80800D02*
D03*
X373100D02*
D03*
X383100D02*
D03*
X363100Y116341D02*
D03*
X373100D02*
D03*
X383100D02*
D03*
D104*
X214100Y235300D02*
D03*
X204100D02*
D03*
X264100D02*
D03*
X254100D02*
D03*
X244100D02*
D03*
X234100D02*
D03*
X224100D02*
D03*
X194100D02*
D03*
X214100Y225300D02*
D03*
X204100D02*
D03*
X264100D02*
D03*
X254100D02*
D03*
X244100D02*
D03*
X234100D02*
D03*
X224100D02*
D03*
X194100D02*
D03*
X322600D02*
D03*
X312600D02*
D03*
X372600D02*
D03*
X362600D02*
D03*
X352600D02*
D03*
X342600D02*
D03*
X332600D02*
D03*
X302600D02*
D03*
X322600Y235300D02*
D03*
X312600D02*
D03*
X372600D02*
D03*
X362600D02*
D03*
X352600D02*
D03*
X342600D02*
D03*
X332600D02*
D03*
X302600D02*
D03*
X252600Y104800D02*
D03*
X262600D02*
D03*
X242600D02*
D03*
X31584Y123000D02*
D03*
X41584D02*
D03*
X21584D02*
D03*
X20600Y208800D02*
D03*
X30600D02*
D03*
X40600D02*
D03*
D105*
X211700Y143700D02*
D03*
X191700D02*
D03*
X131700D02*
D03*
X121700D02*
D03*
Y83700D02*
D03*
X211700D02*
D03*
X191700D02*
D03*
X131700D02*
D03*
X58479Y269300D02*
D03*
Y259300D02*
D03*
X79979Y269300D02*
D03*
Y259300D02*
D03*
D106*
X58479Y329300D02*
D03*
Y299300D02*
D03*
X79979Y329300D02*
D03*
Y299300D02*
D03*
D107*
X370100Y216700D02*
D03*
X349600Y122300D02*
D03*
X109100Y198800D02*
D03*
X185100Y212800D02*
D03*
X179600Y218800D02*
D03*
X325100Y124300D02*
D03*
Y154300D02*
D03*
X324100Y184800D02*
D03*
X349600Y128300D02*
D03*
Y116300D02*
D03*
X108600Y207300D02*
D03*
X120318Y234250D02*
D03*
D108*
X84600Y174800D02*
D03*
Y154800D02*
D03*
X150100Y111400D02*
D03*
X137100Y135200D02*
D03*
X51400Y108200D02*
D03*
X43800Y113400D02*
D03*
X78100Y215800D02*
D03*
X84600Y227800D02*
D03*
X103900Y230100D02*
D03*
X4100Y234500D02*
D03*
X59900Y217800D02*
D03*
X3400Y225300D02*
D03*
X61100Y197300D02*
D03*
X47100Y187300D02*
D03*
X37100Y177300D02*
D03*
Y137300D02*
D03*
X84135Y100353D02*
D03*
Y80570D02*
D03*
X67600Y69300D02*
D03*
X50100D02*
D03*
X40000Y65700D02*
D03*
X19600Y77800D02*
D03*
X92400Y85400D02*
D03*
X35600Y77300D02*
D03*
X60900Y62200D02*
D03*
X27100Y69800D02*
D03*
X87100Y47300D02*
D03*
X97400Y57400D02*
D03*
X107100Y67300D02*
D03*
X36300Y106000D02*
D03*
X95600Y109600D02*
D03*
X155200Y158700D02*
D03*
X147100Y147300D02*
D03*
X151100Y138500D02*
D03*
X142300Y124600D02*
D03*
X156400D02*
D03*
X134200Y111900D02*
D03*
X140800Y98200D02*
D03*
X147100Y87300D02*
D03*
X126100Y101600D02*
D03*
X123500Y124000D02*
D03*
X96500Y120800D02*
D03*
X157700Y99100D02*
D03*
X117300Y75400D02*
D03*
X138400Y75800D02*
D03*
X157100Y77300D02*
D03*
X133900Y257000D02*
D03*
X89500Y248100D02*
D03*
X146600Y244605D02*
D03*
X143900Y213500D02*
D03*
X164700Y229700D02*
D03*
X159500Y217400D02*
D03*
X175100Y229800D02*
D03*
X184100Y236300D02*
D03*
X172300Y236000D02*
D03*
X167300Y222200D02*
D03*
X184100Y224300D02*
D03*
X282600Y230800D02*
D03*
X273600Y236300D02*
D03*
Y225300D02*
D03*
X317100Y210300D02*
D03*
X311600Y215300D02*
D03*
X305100Y210800D02*
D03*
X346100Y206800D02*
D03*
X338100Y211800D02*
D03*
X109500Y84000D02*
D03*
X78600Y33000D02*
D03*
X65000D02*
D03*
X58200Y20800D02*
D03*
X71800D02*
D03*
X44600D02*
D03*
X51400Y33000D02*
D03*
Y8600D02*
D03*
X78600D02*
D03*
X65000D02*
D03*
X44600Y-3600D02*
D03*
X71800D02*
D03*
X58200D02*
D03*
X51400Y-15800D02*
D03*
X78600D02*
D03*
X65000D02*
D03*
X37800Y8600D02*
D03*
Y33000D02*
D03*
Y-15800D02*
D03*
X31000Y20800D02*
D03*
Y-3600D02*
D03*
X17400D02*
D03*
X3800D02*
D03*
X24200Y-15800D02*
D03*
D109*
X371624Y60705D02*
D03*
X315100Y60800D02*
D03*
X326600D02*
D03*
X338100D02*
D03*
X305600Y192339D02*
D03*
X197575Y77945D02*
D03*
X185100Y80300D02*
D03*
X206298Y78498D02*
D03*
X288600Y97300D02*
D03*
X277100D02*
D03*
X265600D02*
D03*
X283350Y89800D02*
D03*
X271850D02*
D03*
X229298Y95498D02*
D03*
X185100Y97300D02*
D03*
X189874Y91155D02*
D03*
X190850Y105800D02*
D03*
X196600Y97300D02*
D03*
X202350Y88800D02*
D03*
X226350Y89800D02*
D03*
X236500D02*
D03*
X219600Y97300D02*
D03*
X323100Y98300D02*
D03*
X305850Y88800D02*
D03*
X300100Y97300D02*
D03*
X294350Y88800D02*
D03*
X334600Y98800D02*
D03*
X328850Y105800D02*
D03*
X350600Y109800D02*
D03*
X369100Y97300D02*
D03*
X380600D02*
D03*
X360124Y60705D02*
D03*
X348624D02*
D03*
X300100Y80300D02*
D03*
X317350Y139800D02*
D03*
X334600Y165300D02*
D03*
X311600D02*
D03*
X307419Y176198D02*
D03*
X229600Y188800D02*
D03*
X279100Y158300D02*
D03*
X259850Y139800D02*
D03*
X265600Y131300D02*
D03*
X271350Y122800D02*
D03*
X254100Y148300D02*
D03*
X242600D02*
D03*
X231100D02*
D03*
X248350Y139800D02*
D03*
X236850D02*
D03*
X254100Y131300D02*
D03*
X242600D02*
D03*
X231100D02*
D03*
X185100D02*
D03*
Y114300D02*
D03*
X190850Y122800D02*
D03*
X213850D02*
D03*
X248350D02*
D03*
X288600Y114300D02*
D03*
X277100D02*
D03*
X259850Y122800D02*
D03*
X265600Y114300D02*
D03*
X204800Y139300D02*
D03*
X185100Y148300D02*
D03*
X200600Y146300D02*
D03*
X277100Y206300D02*
D03*
D110*
X224100Y206453D02*
D03*
X236600Y212800D02*
D03*
X223100Y152300D02*
D03*
X249100D02*
D03*
X276100Y185300D02*
D03*
X224100Y184800D02*
D03*
X300600Y67800D02*
D03*
X292100Y184800D02*
D03*
X291600Y154300D02*
D03*
Y123800D02*
D03*
X267600Y139800D02*
D03*
Y149800D02*
D03*
X285600Y149300D02*
D03*
Y159300D02*
D03*
X286100Y189800D02*
D03*
X285600Y179300D02*
D03*
X284100Y170264D02*
D03*
X293600Y174800D02*
D03*
X226100Y157122D02*
D03*
X223600Y160658D02*
D03*
X226100Y164300D02*
D03*
Y171300D02*
D03*
X223600Y167800D02*
D03*
Y174800D02*
D03*
X332600Y128800D02*
D03*
X332100Y159300D02*
D03*
X6600Y189800D02*
D03*
X11600D02*
D03*
X5100Y136300D02*
D03*
X12600D02*
D03*
D111*
X5600Y48700D02*
D03*
%TF.MD5,457de767d04bdca97e3eab98e1d3ecf8*%
M02*
