G04 Layer_Color=2752767*
%FSLAX25Y25*%
%MOIN*%
%TF.FileFunction,Drawing*%
%TF.Part,Single*%
G01*
G75*
%TA.AperFunction,NonConductor*%
%ADD55C,0.00500*%
%ADD113C,0.00667*%
%ADD114C,0.00400*%
D55*
X380600Y244900D02*
Y248900D01*
X384600D01*
Y244900D01*
X380600D01*
Y254900D02*
Y258900D01*
X384600D01*
Y254900D01*
X380600D01*
Y264900D02*
Y268900D01*
X384600D01*
Y264900D01*
X380600D01*
Y274900D02*
Y278900D01*
X384600D01*
Y274900D01*
X380600D01*
X44700Y-13600D02*
X42700Y-9600D01*
X46700D01*
X44700Y-13600D01*
X18100Y32557D02*
X19100Y33558D01*
X20100D01*
X19100Y34558D01*
X20100Y35557D01*
X19100D01*
X18100Y36557D01*
X17100Y35557D01*
X16100D01*
X17100Y34558D01*
X16100Y33558D01*
X17100D01*
X18100Y32557D01*
Y52242D02*
X19100Y53242D01*
X20100D01*
X19100Y54242D01*
X20100Y55243D01*
X19100D01*
X18100Y56243D01*
X17100Y55243D01*
X16100D01*
X17100Y54242D01*
X16100Y53242D01*
X17100D01*
X18100Y52242D01*
X50970Y349800D02*
X51970Y350800D01*
X52970D01*
X51970Y351800D01*
X52970Y352800D01*
X51970D01*
X50970Y353800D01*
X49970Y352800D01*
X48970D01*
X49970Y351800D01*
X48970Y350800D01*
X49970D01*
X50970Y349800D01*
X70655D02*
X71655Y350800D01*
X72655D01*
X71655Y351800D01*
X72655Y352800D01*
X71655D01*
X70655Y353800D01*
X69655Y352800D01*
X68655D01*
X69655Y351800D01*
X68655Y350800D01*
X69655D01*
X70655Y349800D01*
X17866Y320143D02*
X18867Y321143D01*
X19866D01*
X18867Y322143D01*
X19866Y323143D01*
X18867D01*
X17866Y324143D01*
X16867Y323143D01*
X15867D01*
X16867Y322143D01*
X15867Y321143D01*
X16867D01*
X17866Y320143D01*
Y300458D02*
X18867Y301458D01*
X19866D01*
X18867Y302457D01*
X19866Y303457D01*
X18867D01*
X17866Y304457D01*
X16867Y303457D01*
X15867D01*
X16867Y302457D01*
X15867Y301458D01*
X16867D01*
X17866Y300458D01*
Y275642D02*
X18867Y276642D01*
X19866D01*
X18867Y277642D01*
X19866Y278643D01*
X18867D01*
X17866Y279643D01*
X16867Y278643D01*
X15867D01*
X16867Y277642D01*
X15867Y276642D01*
X16867D01*
X17866Y275642D01*
Y255958D02*
X18867Y256958D01*
X19866D01*
X18867Y257958D01*
X19866Y258958D01*
X18867D01*
X17866Y259958D01*
X16867Y258958D01*
X15867D01*
X16867Y257958D01*
X15867Y256958D01*
X16867D01*
X17866Y255958D01*
X48100Y237300D02*
X49100Y239300D01*
X48100Y241300D01*
X50100Y240300D01*
X52100Y241300D01*
X51100Y239300D01*
X52100Y237300D01*
X50100Y238300D01*
X48100Y237300D01*
X58100D02*
X59100Y239300D01*
X58100Y241300D01*
X60100Y240300D01*
X62100Y241300D01*
X61100Y239300D01*
X62100Y237300D01*
X60100Y238300D01*
X58100Y237300D01*
X68100D02*
X69100Y239300D01*
X68100Y241300D01*
X70100Y240300D01*
X72100Y241300D01*
X71100Y239300D01*
X72100Y237300D01*
X70100Y238300D01*
X68100Y237300D01*
X48100Y161350D02*
X49100Y163350D01*
X48100Y165350D01*
X50100Y164350D01*
X52100Y165350D01*
X51100Y163350D01*
X52100Y161350D01*
X50100Y162350D01*
X48100Y161350D01*
X58100D02*
X59100Y163350D01*
X58100Y165350D01*
X60100Y164350D01*
X62100Y165350D01*
X61100Y163350D01*
X62100Y161350D01*
X60100Y162350D01*
X58100Y161350D01*
X68100D02*
X69100Y163350D01*
X68100Y165350D01*
X70100Y164350D01*
X72100Y165350D01*
X71100Y163350D01*
X72100Y161350D01*
X70100Y162350D01*
X68100Y161350D01*
X48100Y85400D02*
X49100Y87400D01*
X48100Y89400D01*
X50100Y88400D01*
X52100Y89400D01*
X51100Y87400D01*
X52100Y85400D01*
X50100Y86400D01*
X48100Y85400D01*
X58100D02*
X59100Y87400D01*
X58100Y89400D01*
X60100Y88400D01*
X62100Y89400D01*
X61100Y87400D01*
X62100Y85400D01*
X60100Y86400D01*
X58100Y85400D01*
X68100D02*
X69100Y87400D01*
X68100Y89400D01*
X70100Y88400D01*
X72100Y89400D01*
X71100Y87400D01*
X72100Y85400D01*
X70100Y86400D01*
X68100Y85400D01*
X361700Y189300D02*
X362700Y191300D01*
X361700Y193300D01*
X363700Y192300D01*
X365700Y193300D01*
X364700Y191300D01*
X365700Y189300D01*
X363700Y190300D01*
X361700Y189300D01*
X371700D02*
X372700Y191300D01*
X371700Y193300D01*
X373700Y192300D01*
X375700Y193300D01*
X374700Y191300D01*
X375700Y189300D01*
X373700Y190300D01*
X371700Y189300D01*
X381700D02*
X382700Y191300D01*
X381700Y193300D01*
X383700Y192300D01*
X385700Y193300D01*
X384700Y191300D01*
X385700Y189300D01*
X383700Y190300D01*
X381700Y189300D01*
X381100Y149800D02*
X382100Y151800D01*
X381100Y153800D01*
X383100Y152800D01*
X385100Y153800D01*
X384100Y151800D01*
X385100Y149800D01*
X383100Y150800D01*
X381100Y149800D01*
X371100D02*
X372100Y151800D01*
X371100Y153800D01*
X373100Y152800D01*
X375100Y153800D01*
X374100Y151800D01*
X375100Y149800D01*
X373100Y150800D01*
X371100Y149800D01*
X361100D02*
X362100Y151800D01*
X361100Y153800D01*
X363100Y152800D01*
X365100Y153800D01*
X364100Y151800D01*
X365100Y149800D01*
X363100Y150800D01*
X361100Y149800D01*
X318100Y78800D02*
X319100Y80800D01*
X318100Y82800D01*
X320100Y81800D01*
X322100Y82800D01*
X321100Y80800D01*
X322100Y78800D01*
X320100Y79800D01*
X318100Y78800D01*
X328100D02*
X329100Y80800D01*
X328100Y82800D01*
X330100Y81800D01*
X332100Y82800D01*
X331100Y80800D01*
X332100Y78800D01*
X330100Y79800D01*
X328100Y78800D01*
X338100D02*
X339100Y80800D01*
X338100Y82800D01*
X340100Y81800D01*
X342100Y82800D01*
X341100Y80800D01*
X342100Y78800D01*
X340100Y79800D01*
X338100Y78800D01*
X361100Y78800D02*
X362100Y80800D01*
X361100Y82800D01*
X363100Y81800D01*
X365100Y82800D01*
X364100Y80800D01*
X365100Y78800D01*
X363100Y79800D01*
X361100Y78800D01*
X371100D02*
X372100Y80800D01*
X371100Y82800D01*
X373100Y81800D01*
X375100Y82800D01*
X374100Y80800D01*
X375100Y78800D01*
X373100Y79800D01*
X371100Y78800D01*
X381100D02*
X382100Y80800D01*
X381100Y82800D01*
X383100Y81800D01*
X385100Y82800D01*
X384100Y80800D01*
X385100Y78800D01*
X383100Y79800D01*
X381100Y78800D01*
X361100Y114341D02*
X362100Y116341D01*
X361100Y118341D01*
X363100Y117341D01*
X365100Y118341D01*
X364100Y116341D01*
X365100Y114341D01*
X363100Y115341D01*
X361100Y114341D01*
X371100D02*
X372100Y116341D01*
X371100Y118341D01*
X373100Y117341D01*
X375100Y118341D01*
X374100Y116341D01*
X375100Y114341D01*
X373100Y115341D01*
X371100Y114341D01*
X381100D02*
X382100Y116341D01*
X381100Y118341D01*
X383100Y117341D01*
X385100Y118341D01*
X384100Y116341D01*
X385100Y114341D01*
X383100Y115341D01*
X381100Y114341D01*
X212100Y233300D02*
Y237300D01*
X216100D01*
Y233300D01*
X212100D01*
X202100D02*
Y237300D01*
X206100D01*
Y233300D01*
X202100D01*
X262100D02*
Y237300D01*
X266100D01*
Y233300D01*
X262100D01*
X252100D02*
Y237300D01*
X256100D01*
Y233300D01*
X252100D01*
X242100D02*
Y237300D01*
X246100D01*
Y233300D01*
X242100D01*
X232100D02*
Y237300D01*
X236100D01*
Y233300D01*
X232100D01*
X222100D02*
Y237300D01*
X226100D01*
Y233300D01*
X222100D01*
X192100D02*
Y237300D01*
X196100D01*
Y233300D01*
X192100D01*
X212100Y223300D02*
Y227300D01*
X216100D01*
Y223300D01*
X212100D01*
X202100D02*
Y227300D01*
X206100D01*
Y223300D01*
X202100D01*
X262100D02*
Y227300D01*
X266100D01*
Y223300D01*
X262100D01*
X252100D02*
Y227300D01*
X256100D01*
Y223300D01*
X252100D01*
X242100D02*
Y227300D01*
X246100D01*
Y223300D01*
X242100D01*
X232100D02*
Y227300D01*
X236100D01*
Y223300D01*
X232100D01*
X222100D02*
Y227300D01*
X226100D01*
Y223300D01*
X222100D01*
X192100D02*
Y227300D01*
X196100D01*
Y223300D01*
X192100D01*
X320600D02*
Y227300D01*
X324600D01*
Y223300D01*
X320600D01*
X310600D02*
Y227300D01*
X314600D01*
Y223300D01*
X310600D01*
X370600D02*
Y227300D01*
X374600D01*
Y223300D01*
X370600D01*
X360600D02*
Y227300D01*
X364600D01*
Y223300D01*
X360600D01*
X350600D02*
Y227300D01*
X354600D01*
Y223300D01*
X350600D01*
X340600D02*
Y227300D01*
X344600D01*
Y223300D01*
X340600D01*
X330600D02*
Y227300D01*
X334600D01*
Y223300D01*
X330600D01*
X300600D02*
Y227300D01*
X304600D01*
Y223300D01*
X300600D01*
X320600Y233300D02*
Y237300D01*
X324600D01*
Y233300D01*
X320600D01*
X310600D02*
Y237300D01*
X314600D01*
Y233300D01*
X310600D01*
X370600D02*
Y237300D01*
X374600D01*
Y233300D01*
X370600D01*
X360600D02*
Y237300D01*
X364600D01*
Y233300D01*
X360600D01*
X350600D02*
Y237300D01*
X354600D01*
Y233300D01*
X350600D01*
X340600D02*
Y237300D01*
X344600D01*
Y233300D01*
X340600D01*
X330600D02*
Y237300D01*
X334600D01*
Y233300D01*
X330600D01*
X300600D02*
Y237300D01*
X304600D01*
Y233300D01*
X300600D01*
X210700Y142700D02*
Y141700D01*
X212700D01*
Y142700D01*
X213700D01*
Y144700D01*
X212700D01*
Y145700D01*
X210700D01*
Y144700D01*
X209700D01*
Y142700D01*
X210700D01*
X190700D02*
Y141700D01*
X192700D01*
Y142700D01*
X193700D01*
Y144700D01*
X192700D01*
Y145700D01*
X190700D01*
Y144700D01*
X189700D01*
Y142700D01*
X190700D01*
X130700D02*
Y141700D01*
X132700D01*
Y142700D01*
X133700D01*
Y144700D01*
X132700D01*
Y145700D01*
X130700D01*
Y144700D01*
X129700D01*
Y142700D01*
X130700D01*
X120700D02*
Y141700D01*
X122700D01*
Y142700D01*
X123700D01*
Y144700D01*
X122700D01*
Y145700D01*
X120700D01*
Y144700D01*
X119700D01*
Y142700D01*
X120700D01*
Y82700D02*
Y81700D01*
X122700D01*
Y82700D01*
X123700D01*
Y84700D01*
X122700D01*
Y85700D01*
X120700D01*
Y84700D01*
X119700D01*
Y82700D01*
X120700D01*
X210700D02*
Y81700D01*
X212700D01*
Y82700D01*
X213700D01*
Y84700D01*
X212700D01*
Y85700D01*
X210700D01*
Y84700D01*
X209700D01*
Y82700D01*
X210700D01*
X190700D02*
Y81700D01*
X192700D01*
Y82700D01*
X193700D01*
Y84700D01*
X192700D01*
Y85700D01*
X190700D01*
Y84700D01*
X189700D01*
Y82700D01*
X190700D01*
X130700D02*
Y81700D01*
X132700D01*
Y82700D01*
X133700D01*
Y84700D01*
X132700D01*
Y85700D01*
X130700D01*
Y84700D01*
X129700D01*
Y82700D01*
X130700D01*
X250600Y102800D02*
Y106800D01*
X254600D01*
Y102800D01*
X250600D01*
X260600D02*
Y106800D01*
X264600D01*
Y102800D01*
X260600D01*
X240600D02*
Y106800D01*
X244600D01*
Y102800D01*
X240600D01*
X29584Y121000D02*
Y125000D01*
X33584D01*
Y121000D01*
X29584D01*
X39584D02*
Y125000D01*
X43584D01*
Y121000D01*
X39584D01*
X19584D02*
Y125000D01*
X23584D01*
Y121000D01*
X19584D01*
X56479Y327300D02*
X57479D01*
X58479Y328300D01*
X59479Y327300D01*
X60479D01*
Y328300D01*
X59479Y329300D01*
X60479Y330300D01*
Y331300D01*
X59479D01*
X58479Y330300D01*
X57479Y331300D01*
X56479D01*
Y330300D01*
X57479Y329300D01*
X56479Y328300D01*
Y327300D01*
Y297300D02*
X57479D01*
X58479Y298300D01*
X59479Y297300D01*
X60479D01*
Y298300D01*
X59479Y299300D01*
X60479Y300300D01*
Y301300D01*
X59479D01*
X58479Y300300D01*
X57479Y301300D01*
X56479D01*
Y300300D01*
X57479Y299300D01*
X56479Y298300D01*
Y297300D01*
X57479Y268300D02*
Y267300D01*
X59479D01*
Y268300D01*
X60479D01*
Y270300D01*
X59479D01*
Y271300D01*
X57479D01*
Y270300D01*
X56479D01*
Y268300D01*
X57479D01*
Y258300D02*
Y257300D01*
X59479D01*
Y258300D01*
X60479D01*
Y260300D01*
X59479D01*
Y261300D01*
X57479D01*
Y260300D01*
X56479D01*
Y258300D01*
X57479D01*
X77979Y327300D02*
X78979D01*
X79979Y328300D01*
X80979Y327300D01*
X81979D01*
Y328300D01*
X80979Y329300D01*
X81979Y330300D01*
Y331300D01*
X80979D01*
X79979Y330300D01*
X78979Y331300D01*
X77979D01*
Y330300D01*
X78979Y329300D01*
X77979Y328300D01*
Y327300D01*
Y297300D02*
X78979D01*
X79979Y298300D01*
X80979Y297300D01*
X81979D01*
Y298300D01*
X80979Y299300D01*
X81979Y300300D01*
Y301300D01*
X80979D01*
X79979Y300300D01*
X78979Y301300D01*
X77979D01*
Y300300D01*
X78979Y299300D01*
X77979Y298300D01*
Y297300D01*
X78979Y268300D02*
Y267300D01*
X80979D01*
Y268300D01*
X81979D01*
Y270300D01*
X80979D01*
Y271300D01*
X78979D01*
Y270300D01*
X77979D01*
Y268300D01*
X78979D01*
Y258300D02*
Y257300D01*
X80979D01*
Y258300D01*
X81979D01*
Y260300D01*
X80979D01*
Y261300D01*
X78979D01*
Y260300D01*
X77979D01*
Y258300D01*
X78979D01*
X18600Y206800D02*
Y210800D01*
X22600D01*
Y206800D01*
X18600D01*
X28600D02*
Y210800D01*
X32600D01*
Y206800D01*
X28600D01*
X38600D02*
Y210800D01*
X42600D01*
Y206800D01*
X38600D01*
X368100Y216700D02*
X370100Y218700D01*
X372100Y216700D01*
X370100Y214700D01*
X368100Y216700D01*
X82600Y172800D02*
Y176800D01*
X86600D01*
Y172800D01*
X82600D01*
X83400Y173600D02*
Y176000D01*
X85800D01*
Y173600D01*
X83400D01*
X82600Y152800D02*
Y156800D01*
X86600D01*
Y152800D01*
X82600D01*
X83400Y153600D02*
Y156000D01*
X85800D01*
Y153600D01*
X83400D01*
X347600Y122300D02*
X349600Y124300D01*
X351600Y122300D01*
X349600Y120300D01*
X347600Y122300D01*
X148100Y109400D02*
Y113400D01*
X152100D01*
Y109400D01*
X148100D01*
X148900Y110200D02*
Y112600D01*
X151300D01*
Y110200D01*
X148900D01*
X135100Y133200D02*
Y137200D01*
X139100D01*
Y133200D01*
X135100D01*
X135900Y134000D02*
Y136400D01*
X138300D01*
Y134000D01*
X135900D01*
X49400Y106200D02*
Y110200D01*
X53400D01*
Y106200D01*
X49400D01*
X50200Y107000D02*
Y109400D01*
X52600D01*
Y107000D01*
X50200D01*
X41800Y111400D02*
Y115400D01*
X45800D01*
Y111400D01*
X41800D01*
X42600Y112200D02*
Y114600D01*
X45000D01*
Y112200D01*
X42600D01*
X76100Y213800D02*
Y217800D01*
X80100D01*
Y213800D01*
X76100D01*
X76900Y214600D02*
Y217000D01*
X79300D01*
Y214600D01*
X76900D01*
X82600Y225800D02*
Y229800D01*
X86600D01*
Y225800D01*
X82600D01*
X83400Y226600D02*
Y229000D01*
X85800D01*
Y226600D01*
X83400D01*
X101900Y228100D02*
Y232100D01*
X105900D01*
Y228100D01*
X101900D01*
X102700Y228900D02*
Y231300D01*
X105100D01*
Y228900D01*
X102700D01*
X2100Y232500D02*
Y236500D01*
X6100D01*
Y232500D01*
X2100D01*
X2900Y233300D02*
Y235700D01*
X5300D01*
Y233300D01*
X2900D01*
X57900Y215800D02*
Y219800D01*
X61900D01*
Y215800D01*
X57900D01*
X58700Y216600D02*
Y219000D01*
X61100D01*
Y216600D01*
X58700D01*
X1400Y223300D02*
Y227300D01*
X5400D01*
Y223300D01*
X1400D01*
X2200Y224100D02*
Y226500D01*
X4600D01*
Y224100D01*
X2200D01*
X59100Y195300D02*
Y199300D01*
X63100D01*
Y195300D01*
X59100D01*
X59900Y196100D02*
Y198500D01*
X62300D01*
Y196100D01*
X59900D01*
X45100Y185300D02*
Y189300D01*
X49100D01*
Y185300D01*
X45100D01*
X45900Y186100D02*
Y188500D01*
X48300D01*
Y186100D01*
X45900D01*
X35100Y175300D02*
Y179300D01*
X39100D01*
Y175300D01*
X35100D01*
X35900Y176100D02*
Y178500D01*
X38300D01*
Y176100D01*
X35900D01*
X35100Y135300D02*
Y139300D01*
X39100D01*
Y135300D01*
X35100D01*
X35900Y136100D02*
Y138500D01*
X38300D01*
Y136100D01*
X35900D01*
X82135Y98353D02*
Y102353D01*
X86135D01*
Y98353D01*
X82135D01*
X82935Y99153D02*
Y101553D01*
X85335D01*
Y99153D01*
X82935D01*
X82135Y78570D02*
Y82570D01*
X86135D01*
Y78570D01*
X82135D01*
X82935Y79370D02*
Y81770D01*
X85335D01*
Y79370D01*
X82935D01*
X65600Y67300D02*
Y71300D01*
X69600D01*
Y67300D01*
X65600D01*
X66400Y68100D02*
Y70500D01*
X68800D01*
Y68100D01*
X66400D01*
X48100Y67300D02*
Y71300D01*
X52100D01*
Y67300D01*
X48100D01*
X48900Y68100D02*
Y70500D01*
X51300D01*
Y68100D01*
X48900D01*
X38000Y63700D02*
Y67700D01*
X42000D01*
Y63700D01*
X38000D01*
X38800Y64500D02*
Y66900D01*
X41200D01*
Y64500D01*
X38800D01*
X17600Y75800D02*
Y79800D01*
X21600D01*
Y75800D01*
X17600D01*
X18400Y76600D02*
Y79000D01*
X20800D01*
Y76600D01*
X18400D01*
X90400Y83400D02*
Y87400D01*
X94400D01*
Y83400D01*
X90400D01*
X91200Y84200D02*
Y86600D01*
X93600D01*
Y84200D01*
X91200D01*
X33600Y75300D02*
Y79300D01*
X37600D01*
Y75300D01*
X33600D01*
X34400Y76100D02*
Y78500D01*
X36800D01*
Y76100D01*
X34400D01*
X58900Y60200D02*
Y64200D01*
X62900D01*
Y60200D01*
X58900D01*
X59700Y61000D02*
Y63400D01*
X62100D01*
Y61000D01*
X59700D01*
X25100Y67800D02*
Y71800D01*
X29100D01*
Y67800D01*
X25100D01*
X25900Y68600D02*
Y71000D01*
X28300D01*
Y68600D01*
X25900D01*
X85100Y45300D02*
Y49300D01*
X89100D01*
Y45300D01*
X85100D01*
X85900Y46100D02*
Y48500D01*
X88300D01*
Y46100D01*
X85900D01*
X95400Y55400D02*
Y59400D01*
X99400D01*
Y55400D01*
X95400D01*
X96200Y56200D02*
Y58600D01*
X98600D01*
Y56200D01*
X96200D01*
X105100Y65300D02*
Y69300D01*
X109100D01*
Y65300D01*
X105100D01*
X105900Y66100D02*
Y68500D01*
X108300D01*
Y66100D01*
X105900D01*
X34300Y104000D02*
Y108000D01*
X38300D01*
Y104000D01*
X34300D01*
X35100Y104800D02*
Y107200D01*
X37500D01*
Y104800D01*
X35100D01*
X93600Y107600D02*
Y111600D01*
X97600D01*
Y107600D01*
X93600D01*
X94400Y108400D02*
Y110800D01*
X96800D01*
Y108400D01*
X94400D01*
X153200Y156700D02*
Y160700D01*
X157200D01*
Y156700D01*
X153200D01*
X154000Y157500D02*
Y159900D01*
X156400D01*
Y157500D01*
X154000D01*
X145100Y145300D02*
Y149300D01*
X149100D01*
Y145300D01*
X145100D01*
X145900Y146100D02*
Y148500D01*
X148300D01*
Y146100D01*
X145900D01*
X149100Y136500D02*
Y140500D01*
X153100D01*
Y136500D01*
X149100D01*
X149900Y137300D02*
Y139700D01*
X152300D01*
Y137300D01*
X149900D01*
X140300Y122600D02*
Y126600D01*
X144300D01*
Y122600D01*
X140300D01*
X141100Y123400D02*
Y125800D01*
X143500D01*
Y123400D01*
X141100D01*
X154400Y122600D02*
Y126600D01*
X158400D01*
Y122600D01*
X154400D01*
X155200Y123400D02*
Y125800D01*
X157600D01*
Y123400D01*
X155200D01*
X132200Y109900D02*
Y113900D01*
X136200D01*
Y109900D01*
X132200D01*
X133000Y110700D02*
Y113100D01*
X135400D01*
Y110700D01*
X133000D01*
X138800Y96200D02*
Y100200D01*
X142800D01*
Y96200D01*
X138800D01*
X139600Y97000D02*
Y99400D01*
X142000D01*
Y97000D01*
X139600D01*
X145100Y85300D02*
Y89300D01*
X149100D01*
Y85300D01*
X145100D01*
X145900Y86100D02*
Y88500D01*
X148300D01*
Y86100D01*
X145900D01*
X124100Y99600D02*
Y103600D01*
X128100D01*
Y99600D01*
X124100D01*
X124900Y100400D02*
Y102800D01*
X127300D01*
Y100400D01*
X124900D01*
X121500Y122000D02*
Y126000D01*
X125500D01*
Y122000D01*
X121500D01*
X122300Y122800D02*
Y125200D01*
X124700D01*
Y122800D01*
X122300D01*
X94500Y118800D02*
Y122800D01*
X98500D01*
Y118800D01*
X94500D01*
X95300Y119600D02*
Y122000D01*
X97700D01*
Y119600D01*
X95300D01*
X155700Y97100D02*
Y101100D01*
X159700D01*
Y97100D01*
X155700D01*
X156500Y97900D02*
Y100300D01*
X158900D01*
Y97900D01*
X156500D01*
X115300Y73400D02*
Y77400D01*
X119300D01*
Y73400D01*
X115300D01*
X116100Y74200D02*
Y76600D01*
X118500D01*
Y74200D01*
X116100D01*
X136400Y73800D02*
Y77800D01*
X140400D01*
Y73800D01*
X136400D01*
X137200Y74600D02*
Y77000D01*
X139600D01*
Y74600D01*
X137200D01*
X155100Y75300D02*
Y79300D01*
X159100D01*
Y75300D01*
X155100D01*
X155900Y76100D02*
Y78500D01*
X158300D01*
Y76100D01*
X155900D01*
X131900Y255000D02*
Y259000D01*
X135900D01*
Y255000D01*
X131900D01*
X132700Y255800D02*
Y258200D01*
X135100D01*
Y255800D01*
X132700D01*
X87500Y246100D02*
Y250100D01*
X91500D01*
Y246100D01*
X87500D01*
X88300Y246900D02*
Y249300D01*
X90700D01*
Y246900D01*
X88300D01*
X144600Y242605D02*
Y246605D01*
X148600D01*
Y242605D01*
X144600D01*
X145400Y243406D02*
Y245806D01*
X147800D01*
Y243406D01*
X145400D01*
X141900Y211500D02*
Y215500D01*
X145900D01*
Y211500D01*
X141900D01*
X142700Y212300D02*
Y214700D01*
X145100D01*
Y212300D01*
X142700D01*
X162700Y227700D02*
Y231700D01*
X166700D01*
Y227700D01*
X162700D01*
X163500Y228500D02*
Y230900D01*
X165900D01*
Y228500D01*
X163500D01*
X157500Y215400D02*
Y219400D01*
X161500D01*
Y215400D01*
X157500D01*
X158300Y216200D02*
Y218600D01*
X160700D01*
Y216200D01*
X158300D01*
X173100Y227800D02*
Y231800D01*
X177100D01*
Y227800D01*
X173100D01*
X173900Y228600D02*
Y231000D01*
X176300D01*
Y228600D01*
X173900D01*
X182100Y234300D02*
Y238300D01*
X186100D01*
Y234300D01*
X182100D01*
X182900Y235100D02*
Y237500D01*
X185300D01*
Y235100D01*
X182900D01*
X170300Y234000D02*
Y238000D01*
X174300D01*
Y234000D01*
X170300D01*
X171100Y234800D02*
Y237200D01*
X173500D01*
Y234800D01*
X171100D01*
X165300Y220200D02*
Y224200D01*
X169300D01*
Y220200D01*
X165300D01*
X166100Y221000D02*
Y223400D01*
X168500D01*
Y221000D01*
X166100D01*
X182100Y222300D02*
Y226300D01*
X186100D01*
Y222300D01*
X182100D01*
X182900Y223100D02*
Y225500D01*
X185300D01*
Y223100D01*
X182900D01*
X280600Y228800D02*
Y232800D01*
X284600D01*
Y228800D01*
X280600D01*
X281400Y229600D02*
Y232000D01*
X283800D01*
Y229600D01*
X281400D01*
X271600Y234300D02*
Y238300D01*
X275600D01*
Y234300D01*
X271600D01*
X272400Y235100D02*
Y237500D01*
X274800D01*
Y235100D01*
X272400D01*
X271600Y223300D02*
Y227300D01*
X275600D01*
Y223300D01*
X271600D01*
X272400Y224100D02*
Y226500D01*
X274800D01*
Y224100D01*
X272400D01*
X315100Y208300D02*
Y212300D01*
X319100D01*
Y208300D01*
X315100D01*
X315900Y209100D02*
Y211500D01*
X318300D01*
Y209100D01*
X315900D01*
X309600Y213300D02*
Y217300D01*
X313600D01*
Y213300D01*
X309600D01*
X310400Y214100D02*
Y216500D01*
X312800D01*
Y214100D01*
X310400D01*
X303100Y208800D02*
Y212800D01*
X307100D01*
Y208800D01*
X303100D01*
X303900Y209600D02*
Y212000D01*
X306300D01*
Y209600D01*
X303900D01*
X344100Y204800D02*
Y208800D01*
X348100D01*
Y204800D01*
X344100D01*
X344900Y205600D02*
Y208000D01*
X347300D01*
Y205600D01*
X344900D01*
X336100Y209800D02*
Y213800D01*
X340100D01*
Y209800D01*
X336100D01*
X336900Y210600D02*
Y213000D01*
X339300D01*
Y210600D01*
X336900D01*
X107100Y198800D02*
X109100Y200800D01*
X111100Y198800D01*
X109100Y196800D01*
X107100Y198800D01*
X183100Y212800D02*
X185100Y214800D01*
X187100Y212800D01*
X185100Y210800D01*
X183100Y212800D01*
X177600Y218800D02*
X179600Y220800D01*
X181600Y218800D01*
X179600Y216800D01*
X177600Y218800D01*
X224100Y204453D02*
X222100Y208453D01*
X226100D01*
X224100Y204453D01*
Y205254D02*
X222900Y207653D01*
X225300D01*
X224100Y205254D01*
X236600Y210800D02*
X234600Y214800D01*
X238600D01*
X236600Y210800D01*
Y211600D02*
X235400Y214000D01*
X237800D01*
X236600Y211600D01*
X223100Y150300D02*
X221100Y154300D01*
X225100D01*
X223100Y150300D01*
Y151100D02*
X221900Y153500D01*
X224300D01*
X223100Y151100D01*
X249100Y150300D02*
X247100Y154300D01*
X251100D01*
X249100Y150300D01*
Y151100D02*
X247900Y153500D01*
X250300D01*
X249100Y151100D01*
X276100Y183300D02*
X274100Y187300D01*
X278100D01*
X276100Y183300D01*
Y184100D02*
X274900Y186500D01*
X277300D01*
X276100Y184100D01*
X224100Y182800D02*
X222100Y186800D01*
X226100D01*
X224100Y182800D01*
Y183600D02*
X222900Y186000D01*
X225300D01*
X224100Y183600D01*
X300600Y65800D02*
X298600Y69800D01*
X302600D01*
X300600Y65800D01*
Y66600D02*
X299400Y69000D01*
X301800D01*
X300600Y66600D01*
X292100Y182800D02*
X290100Y186800D01*
X294100D01*
X292100Y182800D01*
Y183600D02*
X290900Y186000D01*
X293300D01*
X292100Y183600D01*
X291600Y152300D02*
X289600Y156300D01*
X293600D01*
X291600Y152300D01*
Y153100D02*
X290400Y155500D01*
X292800D01*
X291600Y153100D01*
Y121800D02*
X289600Y125800D01*
X293600D01*
X291600Y121800D01*
Y122600D02*
X290400Y125000D01*
X292800D01*
X291600Y122600D01*
X267600Y137800D02*
X265600Y141800D01*
X269600D01*
X267600Y137800D01*
Y138600D02*
X266400Y141000D01*
X268800D01*
X267600Y138600D01*
Y147800D02*
X265600Y151800D01*
X269600D01*
X267600Y147800D01*
Y148600D02*
X266400Y151000D01*
X268800D01*
X267600Y148600D01*
X285600Y147300D02*
X283600Y151300D01*
X287600D01*
X285600Y147300D01*
Y148100D02*
X284400Y150500D01*
X286800D01*
X285600Y148100D01*
Y157300D02*
X283600Y161300D01*
X287600D01*
X285600Y157300D01*
Y158100D02*
X284400Y160500D01*
X286800D01*
X285600Y158100D01*
X286100Y187800D02*
X284100Y191800D01*
X288100D01*
X286100Y187800D01*
Y188600D02*
X284900Y191000D01*
X287300D01*
X286100Y188600D01*
X285600Y177300D02*
X283600Y181300D01*
X287600D01*
X285600Y177300D01*
Y178100D02*
X284400Y180500D01*
X286800D01*
X285600Y178100D01*
X284100Y168264D02*
X282100Y172265D01*
X286100D01*
X284100Y168264D01*
Y169064D02*
X282900Y171465D01*
X285300D01*
X284100Y169064D01*
X293600Y172800D02*
X291600Y176800D01*
X295600D01*
X293600Y172800D01*
Y173600D02*
X292400Y176000D01*
X294800D01*
X293600Y173600D01*
X226100Y155122D02*
X224100Y159122D01*
X228100D01*
X226100Y155122D01*
Y155922D02*
X224900Y158322D01*
X227300D01*
X226100Y155922D01*
X223600Y158658D02*
X221600Y162658D01*
X225600D01*
X223600Y158658D01*
Y159458D02*
X222400Y161858D01*
X224800D01*
X223600Y159458D01*
X226100Y162300D02*
X224100Y166300D01*
X228100D01*
X226100Y162300D01*
Y163100D02*
X224900Y165500D01*
X227300D01*
X226100Y163100D01*
Y169300D02*
X224100Y173300D01*
X228100D01*
X226100Y169300D01*
Y170100D02*
X224900Y172500D01*
X227300D01*
X226100Y170100D01*
X223600Y165800D02*
X221600Y169800D01*
X225600D01*
X223600Y165800D01*
Y166600D02*
X222400Y169000D01*
X224800D01*
X223600Y166600D01*
Y172800D02*
X221600Y176800D01*
X225600D01*
X223600Y172800D01*
Y173600D02*
X222400Y176000D01*
X224800D01*
X223600Y173600D01*
X323100Y124300D02*
X325100Y126300D01*
X327100Y124300D01*
X325100Y122300D01*
X323100Y124300D01*
X332600Y126800D02*
X330600Y130800D01*
X334600D01*
X332600Y126800D01*
Y127600D02*
X331400Y130000D01*
X333800D01*
X332600Y127600D01*
X332100Y157300D02*
X330100Y161300D01*
X334100D01*
X332100Y157300D01*
Y158100D02*
X330900Y160500D01*
X333300D01*
X332100Y158100D01*
X323100Y154300D02*
X325100Y156300D01*
X327100Y154300D01*
X325100Y152300D01*
X323100Y154300D01*
X322100Y184800D02*
X324100Y186800D01*
X326100Y184800D01*
X324100Y182800D01*
X322100Y184800D01*
X347600Y128300D02*
X349600Y130300D01*
X351600Y128300D01*
X349600Y126300D01*
X347600Y128300D01*
Y116300D02*
X349600Y118300D01*
X351600Y116300D01*
X349600Y114300D01*
X347600Y116300D01*
X106600Y207300D02*
X108600Y209300D01*
X110600Y207300D01*
X108600Y205300D01*
X106600Y207300D01*
X6600Y187800D02*
X4600Y191800D01*
X8600D01*
X6600Y187800D01*
Y188600D02*
X5400Y191000D01*
X7800D01*
X6600Y188600D01*
X11600Y187800D02*
X9600Y191800D01*
X13600D01*
X11600Y187800D01*
Y188600D02*
X10400Y191000D01*
X12800D01*
X11600Y188600D01*
X107500Y82000D02*
Y86000D01*
X111500D01*
Y82000D01*
X107500D01*
X108300Y82800D02*
Y85200D01*
X110700D01*
Y82800D01*
X108300D01*
X5600Y46700D02*
X6600Y47700D01*
X7600D01*
X6600Y48700D01*
X7600Y49700D01*
X6600D01*
X5600Y50700D01*
X4600Y49700D01*
X3600D01*
X4600Y48700D01*
X3600Y47700D01*
X4600D01*
X5600Y46700D01*
Y47500D02*
X6200Y48100D01*
X6800D01*
X6200Y48700D01*
X6800Y49300D01*
X6200D01*
X5600Y49900D01*
X5000Y49300D01*
X4400D01*
X5000Y48700D01*
X4400Y48100D01*
X5000D01*
X5600Y47500D01*
X76600Y31000D02*
Y35000D01*
X80600D01*
Y31000D01*
X76600D01*
X77400Y31800D02*
Y34200D01*
X79800D01*
Y31800D01*
X77400D01*
X63000Y31000D02*
Y35000D01*
X67000D01*
Y31000D01*
X63000D01*
X63800Y31800D02*
Y34200D01*
X66200D01*
Y31800D01*
X63800D01*
X56200Y18800D02*
Y22800D01*
X60200D01*
Y18800D01*
X56200D01*
X57000Y19600D02*
Y22000D01*
X59400D01*
Y19600D01*
X57000D01*
X69800Y18800D02*
Y22800D01*
X73800D01*
Y18800D01*
X69800D01*
X70600Y19600D02*
Y22000D01*
X73000D01*
Y19600D01*
X70600D01*
X42600Y18800D02*
Y22800D01*
X46600D01*
Y18800D01*
X42600D01*
X43400Y19600D02*
Y22000D01*
X45800D01*
Y19600D01*
X43400D01*
X49400Y31000D02*
Y35000D01*
X53400D01*
Y31000D01*
X49400D01*
X50200Y31800D02*
Y34200D01*
X52600D01*
Y31800D01*
X50200D01*
X49400Y6600D02*
Y10600D01*
X53400D01*
Y6600D01*
X49400D01*
X50200Y7400D02*
Y9800D01*
X52600D01*
Y7400D01*
X50200D01*
X76600Y6600D02*
Y10600D01*
X80600D01*
Y6600D01*
X76600D01*
X77400Y7400D02*
Y9800D01*
X79800D01*
Y7400D01*
X77400D01*
X63000Y6600D02*
Y10600D01*
X67000D01*
Y6600D01*
X63000D01*
X63800Y7400D02*
Y9800D01*
X66200D01*
Y7400D01*
X63800D01*
X42600Y-5600D02*
Y-1600D01*
X46600D01*
Y-5600D01*
X42600D01*
X43400Y-4800D02*
Y-2400D01*
X45800D01*
Y-4800D01*
X43400D01*
X69800Y-5600D02*
Y-1600D01*
X73800D01*
Y-5600D01*
X69800D01*
X70600Y-4800D02*
Y-2400D01*
X73000D01*
Y-4800D01*
X70600D01*
X56200Y-5600D02*
Y-1600D01*
X60200D01*
Y-5600D01*
X56200D01*
X57000Y-4800D02*
Y-2400D01*
X59400D01*
Y-4800D01*
X57000D01*
X49400Y-17800D02*
Y-13800D01*
X53400D01*
Y-17800D01*
X49400D01*
X50200Y-17000D02*
Y-14600D01*
X52600D01*
Y-17000D01*
X50200D01*
X76600Y-17800D02*
Y-13800D01*
X80600D01*
Y-17800D01*
X76600D01*
X77400Y-17000D02*
Y-14600D01*
X79800D01*
Y-17000D01*
X77400D01*
X63000Y-17800D02*
Y-13800D01*
X67000D01*
Y-17800D01*
X63000D01*
X63800Y-17000D02*
Y-14600D01*
X66200D01*
Y-17000D01*
X63800D01*
X35800Y6600D02*
Y10600D01*
X39800D01*
Y6600D01*
X35800D01*
X36600Y7400D02*
Y9800D01*
X39000D01*
Y7400D01*
X36600D01*
X35800Y31000D02*
Y35000D01*
X39800D01*
Y31000D01*
X35800D01*
X36600Y31800D02*
Y34200D01*
X39000D01*
Y31800D01*
X36600D01*
X35800Y-17800D02*
Y-13800D01*
X39800D01*
Y-17800D01*
X35800D01*
X36600Y-17000D02*
Y-14600D01*
X39000D01*
Y-17000D01*
X36600D01*
X29000Y18800D02*
Y22800D01*
X33000D01*
Y18800D01*
X29000D01*
X29800Y19600D02*
Y22000D01*
X32200D01*
Y19600D01*
X29800D01*
X29000Y-5600D02*
Y-1600D01*
X33000D01*
Y-5600D01*
X29000D01*
X29800Y-4800D02*
Y-2400D01*
X32200D01*
Y-4800D01*
X29800D01*
X15400Y-5600D02*
Y-1600D01*
X19400D01*
Y-5600D01*
X15400D01*
X16200Y-4800D02*
Y-2400D01*
X18600D01*
Y-4800D01*
X16200D01*
X1800Y-5600D02*
Y-1600D01*
X5800D01*
Y-5600D01*
X1800D01*
X2600Y-4800D02*
Y-2400D01*
X5000D01*
Y-4800D01*
X2600D01*
X22200Y-17800D02*
Y-13800D01*
X26200D01*
Y-17800D01*
X22200D01*
X23000Y-17000D02*
Y-14600D01*
X25400D01*
Y-17000D01*
X23000D01*
X118318Y234250D02*
X120318Y236250D01*
X122318Y234250D01*
X120318Y232250D01*
X118318Y234250D01*
X5100Y134300D02*
X3100Y138300D01*
X7100D01*
X5100Y134300D01*
Y135100D02*
X3900Y137500D01*
X6300D01*
X5100Y135100D01*
X12600Y134300D02*
X10600Y138300D01*
X14600D01*
X12600Y134300D01*
Y135100D02*
X11400Y137500D01*
X13800D01*
X12600Y135100D01*
D113*
X9600Y358253D02*
G03*
X9600Y358253I-2000J0D01*
G01*
X387553D02*
G03*
X387553Y358253I-2000J0D01*
G01*
Y-19700D02*
G03*
X387553Y-19700I-2000J0D01*
G01*
X9600D02*
G03*
X9600Y-19700I-2000J0D01*
G01*
X373624Y60705D02*
G03*
X373624Y60705I-2000J0D01*
G01*
X317100Y60800D02*
G03*
X317100Y60800I-2000J0D01*
G01*
X328600D02*
G03*
X328600Y60800I-2000J0D01*
G01*
X340100D02*
G03*
X340100Y60800I-2000J0D01*
G01*
X307600Y192339D02*
G03*
X307600Y192339I-2000J0D01*
G01*
X199575Y77945D02*
G03*
X199575Y77945I-2000J0D01*
G01*
X187100Y80300D02*
G03*
X187100Y80300I-2000J0D01*
G01*
X208298Y78498D02*
G03*
X208298Y78498I-2000J0D01*
G01*
X290600Y97300D02*
G03*
X290600Y97300I-2000J0D01*
G01*
X279100D02*
G03*
X279100Y97300I-2000J0D01*
G01*
X267600D02*
G03*
X267600Y97300I-2000J0D01*
G01*
X285350Y89800D02*
G03*
X285350Y89800I-2000J0D01*
G01*
X273850D02*
G03*
X273850Y89800I-2000J0D01*
G01*
X231298Y95498D02*
G03*
X231298Y95498I-2000J0D01*
G01*
X187100Y97300D02*
G03*
X187100Y97300I-2000J0D01*
G01*
X191875Y91155D02*
G03*
X191875Y91155I-2000J0D01*
G01*
X192850Y105800D02*
G03*
X192850Y105800I-2000J0D01*
G01*
X198600Y97300D02*
G03*
X198600Y97300I-2000J0D01*
G01*
X204350Y88800D02*
G03*
X204350Y88800I-2000J0D01*
G01*
X228350Y89800D02*
G03*
X228350Y89800I-2000J0D01*
G01*
X238500D02*
G03*
X238500Y89800I-2000J0D01*
G01*
X221600Y97300D02*
G03*
X221600Y97300I-2000J0D01*
G01*
X325100Y98300D02*
G03*
X325100Y98300I-2000J0D01*
G01*
X307850Y88800D02*
G03*
X307850Y88800I-2000J0D01*
G01*
X302100Y97300D02*
G03*
X302100Y97300I-2000J0D01*
G01*
X296350Y88800D02*
G03*
X296350Y88800I-2000J0D01*
G01*
X336600Y98800D02*
G03*
X336600Y98800I-2000J0D01*
G01*
X330850Y105800D02*
G03*
X330850Y105800I-2000J0D01*
G01*
X352600Y109800D02*
G03*
X352600Y109800I-2000J0D01*
G01*
X371100Y97300D02*
G03*
X371100Y97300I-2000J0D01*
G01*
X382600D02*
G03*
X382600Y97300I-2000J0D01*
G01*
X362124Y60705D02*
G03*
X362124Y60705I-2000J0D01*
G01*
X350624D02*
G03*
X350624Y60705I-2000J0D01*
G01*
X302100Y80300D02*
G03*
X302100Y80300I-2000J0D01*
G01*
X319350Y139800D02*
G03*
X319350Y139800I-2000J0D01*
G01*
X336600Y165300D02*
G03*
X336600Y165300I-2000J0D01*
G01*
X313600D02*
G03*
X313600Y165300I-2000J0D01*
G01*
X309419Y176198D02*
G03*
X309419Y176198I-2000J0D01*
G01*
X231600Y188800D02*
G03*
X231600Y188800I-2000J0D01*
G01*
X281100Y158300D02*
G03*
X281100Y158300I-2000J0D01*
G01*
X261850Y139800D02*
G03*
X261850Y139800I-2000J0D01*
G01*
X267600Y131300D02*
G03*
X267600Y131300I-2000J0D01*
G01*
X273350Y122800D02*
G03*
X273350Y122800I-2000J0D01*
G01*
X256100Y148300D02*
G03*
X256100Y148300I-2000J0D01*
G01*
X244600D02*
G03*
X244600Y148300I-2000J0D01*
G01*
X233100D02*
G03*
X233100Y148300I-2000J0D01*
G01*
X250350Y139800D02*
G03*
X250350Y139800I-2000J0D01*
G01*
X238850D02*
G03*
X238850Y139800I-2000J0D01*
G01*
X256100Y131300D02*
G03*
X256100Y131300I-2000J0D01*
G01*
X244600D02*
G03*
X244600Y131300I-2000J0D01*
G01*
X233100D02*
G03*
X233100Y131300I-2000J0D01*
G01*
X187100D02*
G03*
X187100Y131300I-2000J0D01*
G01*
Y114300D02*
G03*
X187100Y114300I-2000J0D01*
G01*
X192850Y122800D02*
G03*
X192850Y122800I-2000J0D01*
G01*
X215850D02*
G03*
X215850Y122800I-2000J0D01*
G01*
X250350D02*
G03*
X250350Y122800I-2000J0D01*
G01*
X290600Y114300D02*
G03*
X290600Y114300I-2000J0D01*
G01*
X279100D02*
G03*
X279100Y114300I-2000J0D01*
G01*
X261850Y122800D02*
G03*
X261850Y122800I-2000J0D01*
G01*
X267600Y114300D02*
G03*
X267600Y114300I-2000J0D01*
G01*
X206800Y139300D02*
G03*
X206800Y139300I-2000J0D01*
G01*
X187100Y148300D02*
G03*
X187100Y148300I-2000J0D01*
G01*
X202600Y146300D02*
G03*
X202600Y146300I-2000J0D01*
G01*
X279100Y206300D02*
G03*
X279100Y206300I-2000J0D01*
G01*
D114*
X372825Y60705D02*
G03*
X372825Y60705I-1200J0D01*
G01*
X316300Y60800D02*
G03*
X316300Y60800I-1200J0D01*
G01*
X327800D02*
G03*
X327800Y60800I-1200J0D01*
G01*
X339300D02*
G03*
X339300Y60800I-1200J0D01*
G01*
X306800Y192339D02*
G03*
X306800Y192339I-1200J0D01*
G01*
X198775Y77945D02*
G03*
X198775Y77945I-1200J0D01*
G01*
X186300Y80300D02*
G03*
X186300Y80300I-1200J0D01*
G01*
X207498Y78498D02*
G03*
X207498Y78498I-1200J0D01*
G01*
X289800Y97300D02*
G03*
X289800Y97300I-1200J0D01*
G01*
X278300D02*
G03*
X278300Y97300I-1200J0D01*
G01*
X266800D02*
G03*
X266800Y97300I-1200J0D01*
G01*
X284550Y89800D02*
G03*
X284550Y89800I-1200J0D01*
G01*
X273050D02*
G03*
X273050Y89800I-1200J0D01*
G01*
X230498Y95498D02*
G03*
X230498Y95498I-1200J0D01*
G01*
X186300Y97300D02*
G03*
X186300Y97300I-1200J0D01*
G01*
X191075Y91155D02*
G03*
X191075Y91155I-1200J0D01*
G01*
X192050Y105800D02*
G03*
X192050Y105800I-1200J0D01*
G01*
X197800Y97300D02*
G03*
X197800Y97300I-1200J0D01*
G01*
X203550Y88800D02*
G03*
X203550Y88800I-1200J0D01*
G01*
X227550Y89800D02*
G03*
X227550Y89800I-1200J0D01*
G01*
X237700D02*
G03*
X237700Y89800I-1200J0D01*
G01*
X220800Y97300D02*
G03*
X220800Y97300I-1200J0D01*
G01*
X324300Y98300D02*
G03*
X324300Y98300I-1200J0D01*
G01*
X307050Y88800D02*
G03*
X307050Y88800I-1200J0D01*
G01*
X301300Y97300D02*
G03*
X301300Y97300I-1200J0D01*
G01*
X295550Y88800D02*
G03*
X295550Y88800I-1200J0D01*
G01*
X335800Y98800D02*
G03*
X335800Y98800I-1200J0D01*
G01*
X330050Y105800D02*
G03*
X330050Y105800I-1200J0D01*
G01*
X351800Y109800D02*
G03*
X351800Y109800I-1200J0D01*
G01*
X370300Y97300D02*
G03*
X370300Y97300I-1200J0D01*
G01*
X381800D02*
G03*
X381800Y97300I-1200J0D01*
G01*
X361325Y60705D02*
G03*
X361325Y60705I-1200J0D01*
G01*
X349825D02*
G03*
X349825Y60705I-1200J0D01*
G01*
X301300Y80300D02*
G03*
X301300Y80300I-1200J0D01*
G01*
X318550Y139800D02*
G03*
X318550Y139800I-1200J0D01*
G01*
X335800Y165300D02*
G03*
X335800Y165300I-1200J0D01*
G01*
X312800D02*
G03*
X312800Y165300I-1200J0D01*
G01*
X308619Y176198D02*
G03*
X308619Y176198I-1200J0D01*
G01*
X230800Y188800D02*
G03*
X230800Y188800I-1200J0D01*
G01*
X280300Y158300D02*
G03*
X280300Y158300I-1200J0D01*
G01*
X261050Y139800D02*
G03*
X261050Y139800I-1200J0D01*
G01*
X266800Y131300D02*
G03*
X266800Y131300I-1200J0D01*
G01*
X272550Y122800D02*
G03*
X272550Y122800I-1200J0D01*
G01*
X255300Y148300D02*
G03*
X255300Y148300I-1200J0D01*
G01*
X243800D02*
G03*
X243800Y148300I-1200J0D01*
G01*
X232300D02*
G03*
X232300Y148300I-1200J0D01*
G01*
X249550Y139800D02*
G03*
X249550Y139800I-1200J0D01*
G01*
X238050D02*
G03*
X238050Y139800I-1200J0D01*
G01*
X255300Y131300D02*
G03*
X255300Y131300I-1200J0D01*
G01*
X243800D02*
G03*
X243800Y131300I-1200J0D01*
G01*
X232300D02*
G03*
X232300Y131300I-1200J0D01*
G01*
X186300D02*
G03*
X186300Y131300I-1200J0D01*
G01*
Y114300D02*
G03*
X186300Y114300I-1200J0D01*
G01*
X192050Y122800D02*
G03*
X192050Y122800I-1200J0D01*
G01*
X215050D02*
G03*
X215050Y122800I-1200J0D01*
G01*
X249550D02*
G03*
X249550Y122800I-1200J0D01*
G01*
X289800Y114300D02*
G03*
X289800Y114300I-1200J0D01*
G01*
X278300D02*
G03*
X278300Y114300I-1200J0D01*
G01*
X261050Y122800D02*
G03*
X261050Y122800I-1200J0D01*
G01*
X266800Y114300D02*
G03*
X266800Y114300I-1200J0D01*
G01*
X205999Y139300D02*
G03*
X205999Y139300I-1200J0D01*
G01*
X186300Y148300D02*
G03*
X186300Y148300I-1200J0D01*
G01*
X201800Y146300D02*
G03*
X201800Y146300I-1200J0D01*
G01*
X278300Y206300D02*
G03*
X278300Y206300I-1200J0D01*
G01*
%TF.MD5,2663754f2b9e34bb0a7ccf696d745aba*%
M02*
