G04 Layer_Color=255*
%FSLAX25Y25*%
%MOIN*%
%TF.FileFunction,Pads,Top*%
%TF.Part,Single*%
G01*
G75*
%TA.AperFunction,SMDPad,CuDef*%
%ADD10R,0.05905X0.07480*%
%ADD11R,0.10709X0.14843*%
%ADD12R,0.04882X0.27559*%
%ADD13R,0.04331X0.31496*%
%TA.AperFunction,ConnectorPad*%
%ADD14R,0.04882X0.27559*%
%ADD15R,0.04331X0.31496*%
%TA.AperFunction,SMDPad,CuDef*%
%ADD16R,0.05905X0.05512*%
%TA.AperFunction,ComponentPad*%
%ADD25R,0.06000X0.06000*%
%ADD26C,0.06000*%
%TA.AperFunction,WasherPad*%
%ADD27C,0.06000*%
%TA.AperFunction,ViaPad*%
%ADD28C,0.19685*%
%TA.AperFunction,ComponentPad*%
%ADD29R,0.11811X0.11811*%
%ADD30C,0.11811*%
%ADD31R,0.11811X0.11811*%
%ADD32C,0.05905*%
%ADD33R,0.05905X0.05905*%
%ADD34R,0.06000X0.06000*%
%ADD35R,0.05905X0.05905*%
%ADD36C,0.07874*%
D10*
X31702Y161800D02*
D03*
X19498D02*
D03*
X212702Y130300D02*
D03*
X200498D02*
D03*
X302498Y184268D02*
D03*
X314702D02*
D03*
X303498Y154300D02*
D03*
X315702D02*
D03*
X302498Y124300D02*
D03*
X314702D02*
D03*
D11*
X221568Y110800D02*
D03*
X207631D02*
D03*
D12*
X60100Y239300D02*
D03*
X69943D02*
D03*
X50258D02*
D03*
X60100Y163350D02*
D03*
X69943D02*
D03*
X50258D02*
D03*
X60100Y87400D02*
D03*
X69943D02*
D03*
X50258D02*
D03*
X330100Y80800D02*
D03*
X339943D02*
D03*
X320258D02*
D03*
D13*
X43151Y239300D02*
D03*
X77049D02*
D03*
X43151Y163350D02*
D03*
X77049D02*
D03*
X43151Y87400D02*
D03*
X77049D02*
D03*
X313151Y80800D02*
D03*
X347049D02*
D03*
D14*
X373700Y191300D02*
D03*
X383543D02*
D03*
X363858D02*
D03*
X373100Y151800D02*
D03*
X363257D02*
D03*
X382942D02*
D03*
X373100Y80800D02*
D03*
X382942D02*
D03*
X363257D02*
D03*
X373100Y116341D02*
D03*
X382942D02*
D03*
X363257D02*
D03*
D15*
X356751Y191300D02*
D03*
X390649D02*
D03*
X390048Y151800D02*
D03*
X356151D02*
D03*
X356151Y80800D02*
D03*
X390049D02*
D03*
X356151Y116341D02*
D03*
X390049D02*
D03*
D16*
X50100Y260863D02*
D03*
Y268737D02*
D03*
X71600Y260863D02*
D03*
Y268737D02*
D03*
D25*
X382600Y246900D02*
D03*
D26*
Y256900D02*
D03*
Y266900D02*
D03*
Y276900D02*
D03*
X214100Y235300D02*
D03*
X204100D02*
D03*
X264100D02*
D03*
X254100D02*
D03*
X244100D02*
D03*
X234100D02*
D03*
X224100D02*
D03*
X214100Y225300D02*
D03*
X204100D02*
D03*
X264100D02*
D03*
X254100D02*
D03*
X244100D02*
D03*
X234100D02*
D03*
X224100D02*
D03*
X322600D02*
D03*
X312600D02*
D03*
X372600D02*
D03*
X362600D02*
D03*
X352600D02*
D03*
X342600D02*
D03*
X332600D02*
D03*
X322600Y235300D02*
D03*
X312600D02*
D03*
X372600D02*
D03*
X362600D02*
D03*
X352600D02*
D03*
X342600D02*
D03*
X332600D02*
D03*
X252600Y104800D02*
D03*
X262600D02*
D03*
X31584Y123000D02*
D03*
X41584D02*
D03*
X30600Y208800D02*
D03*
X40600D02*
D03*
D27*
X7600Y358253D02*
D03*
X385553D02*
D03*
Y-19700D02*
D03*
X7600D02*
D03*
D28*
X44700Y-11600D02*
D03*
D29*
X18100Y34558D02*
D03*
X17866Y322143D02*
D03*
Y277642D02*
D03*
D30*
X18100Y54242D02*
D03*
X70655Y351800D02*
D03*
X17866Y302457D02*
D03*
Y257958D02*
D03*
D31*
X50970Y351800D02*
D03*
D32*
X50100Y239300D02*
D03*
X60100D02*
D03*
X50100Y163350D02*
D03*
X60100D02*
D03*
X50100Y87400D02*
D03*
X60100D02*
D03*
X363700Y191300D02*
D03*
X373700D02*
D03*
X383100Y151800D02*
D03*
X373100D02*
D03*
X320100Y80800D02*
D03*
X330100D02*
D03*
X363100Y80800D02*
D03*
X373100D02*
D03*
X363100Y116341D02*
D03*
X373100D02*
D03*
X211700Y143700D02*
D03*
X191700D02*
D03*
X131700D02*
D03*
X121700Y83700D02*
D03*
X211700D02*
D03*
X191700D02*
D03*
X131700D02*
D03*
X58479Y269300D02*
D03*
Y259300D02*
D03*
X79979Y269300D02*
D03*
Y259300D02*
D03*
D33*
X70100Y239300D02*
D03*
Y163350D02*
D03*
Y87400D02*
D03*
X383700Y191300D02*
D03*
X363100Y151800D02*
D03*
X340100Y80800D02*
D03*
X383100Y80800D02*
D03*
Y116341D02*
D03*
D34*
X194100Y235300D02*
D03*
Y225300D02*
D03*
X302600D02*
D03*
Y235300D02*
D03*
X242600Y104800D02*
D03*
X21584Y123000D02*
D03*
X20600Y208800D02*
D03*
D35*
X121700Y143700D02*
D03*
D36*
X58479Y329300D02*
D03*
Y299300D02*
D03*
X79979Y329300D02*
D03*
Y299300D02*
D03*
%TF.MD5,cb7ce02c3feb3090de80eee3fc482228*%
M02*
