G04 Layer_Color=8421504*
%FSLAX25Y25*%
%MOIN*%
G70*
G01*
G75*
%ADD10R,0.06299X0.05905*%
%ADD11R,0.05512X0.05905*%
%ADD12R,0.05905X0.05512*%
%ADD13R,0.05905X0.06299*%
D10*
X65000Y113260D02*
D03*
Y120740D02*
D03*
X267000Y112260D02*
D03*
Y119740D02*
D03*
X286000Y84240D02*
D03*
Y76760D02*
D03*
X84500Y86240D02*
D03*
Y78760D02*
D03*
X160000Y112260D02*
D03*
Y119740D02*
D03*
X184437Y86240D02*
D03*
Y78760D02*
D03*
D11*
X235063Y57500D02*
D03*
X242937D02*
D03*
X242937Y44000D02*
D03*
X235063D02*
D03*
X235063Y30500D02*
D03*
X242937D02*
D03*
X233177Y6000D02*
D03*
X225303D02*
D03*
X285937Y57500D02*
D03*
X278063D02*
D03*
X278063Y44000D02*
D03*
X285937D02*
D03*
X285937Y30500D02*
D03*
X278063D02*
D03*
X287563Y6000D02*
D03*
X295437D02*
D03*
X264437Y66000D02*
D03*
X256563D02*
D03*
X63937Y65000D02*
D03*
X56063D02*
D03*
X87309Y6000D02*
D03*
X95183D02*
D03*
X84937Y30500D02*
D03*
X77063D02*
D03*
X77063Y44893D02*
D03*
X84937D02*
D03*
X84937Y56607D02*
D03*
X77063D02*
D03*
X33423Y6000D02*
D03*
X25549D02*
D03*
X35563Y30500D02*
D03*
X43437D02*
D03*
X43437Y44893D02*
D03*
X35563D02*
D03*
X35563Y56607D02*
D03*
X43437D02*
D03*
X132874Y6500D02*
D03*
X125000D02*
D03*
X134500Y31000D02*
D03*
X142374D02*
D03*
X142374Y44500D02*
D03*
X134500D02*
D03*
X134563Y58000D02*
D03*
X142437D02*
D03*
X184500Y6500D02*
D03*
X192374D02*
D03*
X182374Y58000D02*
D03*
X174500D02*
D03*
X174500Y44500D02*
D03*
X182374D02*
D03*
X182374Y31000D02*
D03*
X174500D02*
D03*
X161874Y67500D02*
D03*
X154000D02*
D03*
D12*
X225500Y19563D02*
D03*
Y27437D02*
D03*
X295437Y17563D02*
D03*
Y25437D02*
D03*
X94986Y19563D02*
D03*
Y27437D02*
D03*
X25746Y19563D02*
D03*
Y27437D02*
D03*
X124937Y20063D02*
D03*
Y27937D02*
D03*
X192177Y20063D02*
D03*
Y27937D02*
D03*
X289500Y190437D02*
D03*
Y182563D02*
D03*
X280500Y190437D02*
D03*
Y182563D02*
D03*
X146500Y183063D02*
D03*
Y190937D02*
D03*
X137000Y190937D02*
D03*
Y183063D02*
D03*
X166000Y183063D02*
D03*
Y190937D02*
D03*
X157000Y190937D02*
D03*
Y183063D02*
D03*
X185000Y183063D02*
D03*
Y190937D02*
D03*
X176000Y190937D02*
D03*
Y183063D02*
D03*
X257500Y182563D02*
D03*
Y190437D02*
D03*
X266500Y190374D02*
D03*
Y182500D02*
D03*
X248500Y190437D02*
D03*
Y182563D02*
D03*
X258500Y310937D02*
D03*
Y303063D02*
D03*
X249500Y310937D02*
D03*
Y303063D02*
D03*
X240500Y310937D02*
D03*
Y303063D02*
D03*
X64500Y294563D02*
D03*
Y302437D02*
D03*
X164500Y301937D02*
D03*
Y294063D02*
D03*
X116000Y294063D02*
D03*
Y301937D02*
D03*
D13*
X264099Y57554D02*
D03*
X256619D02*
D03*
X63740Y56500D02*
D03*
X56260D02*
D03*
X161677Y58500D02*
D03*
X154197D02*
D03*
M02*
