G04 Layer_Color=32768*
%FSLAX26Y26*%
%MOIN*%
%TF.FileFunction,Other,Mechanical_15*%
%TF.Part,Single*%
G01*
G75*
%TA.AperFunction,NonConductor*%
%ADD56C,0.003937*%
%ADD57C,0.001968*%
D56*
X1160000Y2960315D02*
Y2999685D01*
X1140315Y2980000D02*
X1179685D01*
X1645000Y2960315D02*
Y2999685D01*
X1625315Y2980000D02*
X1664685D01*
X645000Y2965315D02*
Y3004685D01*
X625315Y2985000D02*
X664685D01*
X2165000Y2255315D02*
Y2294685D01*
X2145315Y2275000D02*
X2184685D01*
X2160000Y2795315D02*
Y2834685D01*
X2140315Y2815000D02*
X2179685D01*
X2055000Y2260315D02*
Y2299685D01*
X2035315Y2280000D02*
X2074685D01*
X2070000Y2795315D02*
Y2834685D01*
X2050315Y2815000D02*
X2089685D01*
X1805315Y2335000D02*
X1844685D01*
X1825000Y2315315D02*
Y2354685D01*
X1814248Y2670000D02*
X1853618D01*
X1833933Y2650315D02*
Y2689685D01*
X2475000Y3050315D02*
Y3089685D01*
X2455315Y3070000D02*
X2494685D01*
X2595000Y3050315D02*
Y3089685D01*
X2575315Y3070000D02*
X2614685D01*
X2685000Y3050315D02*
Y3089685D01*
X2665315Y3070000D02*
X2704685D01*
X2485000Y1845315D02*
Y1884685D01*
X2465315Y1865000D02*
X2504685D01*
X2665000Y1844685D02*
Y1884055D01*
X2645315Y1864370D02*
X2684685D01*
X2575000Y1845315D02*
Y1884685D01*
X2555315Y1865000D02*
X2594685D01*
X2115315Y1385000D02*
X2154685D01*
X2135000Y1365315D02*
Y1404685D01*
X2205315Y1385000D02*
X2244685D01*
X2225000Y1365315D02*
Y1404685D01*
X570315Y1390000D02*
X609685D01*
X590000Y1370315D02*
Y1409685D01*
X480315Y1390000D02*
X519685D01*
X500000Y1370315D02*
Y1409685D01*
X1550315Y1390000D02*
X1589685D01*
X1570000Y1370315D02*
Y1409685D01*
X1460315Y1390000D02*
X1499685D01*
X1480000Y1370315D02*
Y1409685D01*
X1360315Y1308588D02*
X1399685D01*
X1380000Y1288903D02*
Y1328273D01*
X1339685Y650000D02*
X1379055D01*
X1359370Y630315D02*
Y669685D01*
X1290000Y1287491D02*
Y1326861D01*
X1270315Y1307176D02*
X1309685D01*
X390315Y1308588D02*
X429685D01*
X410000Y1288903D02*
Y1328273D01*
X320000Y1290315D02*
Y1329685D01*
X300315Y1310000D02*
X339685D01*
X370315Y640000D02*
X409685D01*
X390000Y620315D02*
Y659685D01*
X495031Y2665000D02*
X534402D01*
X514716Y2645315D02*
Y2684685D01*
X990032Y2661000D02*
X1029402D01*
X1009716Y2641315D02*
Y2680685D01*
X1470032Y2640000D02*
X1509402D01*
X1489716Y2620315D02*
Y2659685D01*
X2355315Y645000D02*
X2394685D01*
X2375000Y625315D02*
Y664685D01*
X2310000Y1290315D02*
Y1329685D01*
X2290315Y1310000D02*
X2329685D01*
X2380315Y1308588D02*
X2419685D01*
X2400000Y1288903D02*
Y1328273D01*
X2630315Y1365000D02*
X2669685D01*
X2650000Y1345315D02*
Y1384685D01*
X2530315Y1365000D02*
X2569685D01*
X2550000Y1345315D02*
Y1384685D01*
X2950315Y1375000D02*
X2989685D01*
X2970000Y1355315D02*
Y1394685D01*
X2855315Y1375000D02*
X2894685D01*
X2875000Y1355315D02*
Y1394685D01*
X1575000Y1855315D02*
Y1894685D01*
X1555315Y1875000D02*
X1594685D01*
X1665000Y1855315D02*
Y1894685D01*
X1645315Y1875000D02*
X1684685D01*
X1815000Y1845315D02*
Y1884685D01*
X1795315Y1865000D02*
X1834685D01*
X1905000Y1845315D02*
Y1884685D01*
X1885315Y1865000D02*
X1924685D01*
X1370000Y1850315D02*
Y1889685D01*
X1350315Y1870000D02*
X1389685D01*
X1465000Y1850315D02*
Y1889685D01*
X1445315Y1870000D02*
X1484685D01*
X2805000Y1845315D02*
Y1884685D01*
X2785315Y1865000D02*
X2824685D01*
X2895000Y1845315D02*
Y1884685D01*
X2875315Y1865000D02*
X2914685D01*
X1579370Y655315D02*
Y694685D01*
X1559685Y675000D02*
X1599055D01*
X1784370Y290315D02*
Y329685D01*
X1764685Y310000D02*
X1804055D01*
X1784370Y425315D02*
Y464685D01*
X1764685Y445000D02*
X1804055D01*
X1784370Y560315D02*
Y599685D01*
X1764685Y580000D02*
X1804055D01*
X1902086Y240000D02*
X1941457D01*
X1921772Y220315D02*
Y259685D01*
X1884370Y45315D02*
Y84685D01*
X1864685Y65000D02*
X1904055D01*
X1385000Y560315D02*
Y599685D01*
X1365315Y580000D02*
X1404685D01*
X1384370Y425315D02*
Y464685D01*
X1364685Y445000D02*
X1404055D01*
X1384370Y290315D02*
Y329685D01*
X1364685Y310000D02*
X1404055D01*
X1229685Y240000D02*
X1269055D01*
X1249370Y220315D02*
Y259685D01*
X1289370Y45315D02*
Y84685D01*
X1269685Y65000D02*
X1309055D01*
X1844370Y805315D02*
Y844685D01*
X1824685Y825000D02*
X1864055D01*
X1559685Y585000D02*
X1599055D01*
X1579370Y565315D02*
Y604685D01*
X1600000Y1140315D02*
Y1179685D01*
X1580315Y1160000D02*
X1619685D01*
X395000Y546382D02*
Y585752D01*
X375315Y566067D02*
X414685D01*
X395000Y429248D02*
Y468618D01*
X375315Y448933D02*
X414685D01*
X395000Y285315D02*
Y324685D01*
X375315Y305000D02*
X414685D01*
X237775Y235000D02*
X277146D01*
X257461Y215315D02*
Y254685D01*
X294862Y40315D02*
Y79685D01*
X275177Y60000D02*
X314547D01*
X810000Y546382D02*
Y585752D01*
X790315Y566067D02*
X829685D01*
X810000Y429248D02*
Y468618D01*
X790315Y448933D02*
X829685D01*
X810000Y285315D02*
Y324685D01*
X790315Y305000D02*
X829685D01*
X930177Y235000D02*
X969547D01*
X949862Y215315D02*
Y254685D01*
X912461Y40315D02*
Y79685D01*
X892776Y60000D02*
X932146D01*
X600000Y630315D02*
Y669685D01*
X580315Y650000D02*
X619685D01*
X580315Y565000D02*
X619685D01*
X600000Y545315D02*
Y584685D01*
X845000Y805315D02*
Y844685D01*
X825315Y825000D02*
X864685D01*
X2860000Y785315D02*
Y824685D01*
X2840315Y805000D02*
X2879685D01*
X2583903Y575539D02*
X2623273D01*
X2603588Y555854D02*
Y595224D01*
X2670000Y1140315D02*
Y1179685D01*
X2650315Y1160000D02*
X2689685D01*
X2605000Y640315D02*
Y679685D01*
X2585315Y660000D02*
X2624685D01*
X2915000Y40315D02*
Y79685D01*
X2895315Y60000D02*
X2934685D01*
Y215000D02*
X2974055D01*
X2954370Y195315D02*
Y234685D01*
X2820000Y285315D02*
Y324685D01*
X2800315Y305000D02*
X2839685D01*
X2820000Y420315D02*
Y459685D01*
X2800315Y440000D02*
X2839685D01*
X2820000Y555315D02*
Y594685D01*
X2800315Y575000D02*
X2839685D01*
X2292401Y40315D02*
Y79685D01*
X2272716Y60000D02*
X2312087D01*
X2235315Y235000D02*
X2274685D01*
X2255000Y215315D02*
Y254685D01*
X2390000Y285315D02*
Y324685D01*
X2370315Y305000D02*
X2409685D01*
X2390000Y420315D02*
Y459685D01*
X2370315Y440000D02*
X2409685D01*
X2390000Y555315D02*
Y594685D01*
X2370315Y575000D02*
X2409685D01*
X650000Y1150315D02*
Y1189685D01*
X630315Y1170000D02*
X669685D01*
X1525315Y2980000D02*
X1564685D01*
X1545000Y2960315D02*
Y2999685D01*
X1235315Y2980000D02*
X1274685D01*
X1255000Y2960315D02*
Y2999685D01*
X720315Y2985000D02*
X759685D01*
X740000Y2965315D02*
Y3004685D01*
D57*
X660386Y2481929D02*
Y2848071D01*
X369047Y2481929D02*
Y2848071D01*
X660386D01*
X369047Y2481929D02*
X660386D01*
X1155386Y2477929D02*
Y2844071D01*
X864047Y2477929D02*
Y2844071D01*
X1155386D01*
X864047Y2477929D02*
X1155386D01*
X1635386Y2456929D02*
Y2823071D01*
X1344047Y2456929D02*
Y2823071D01*
X1635386D01*
X1344047Y2456929D02*
X1635386D01*
%TF.MD5,8eeba2d13d1bf37000a9e9a25734abf9*%
M02*
