G04 Layer_Color=0*
%FSLAX26Y26*%
%MOIN*%
%TF.FileFunction,Plated,1,2,PTH,Drill*%
%TF.Part,Single*%
G01*
G75*
%TA.AperFunction,ComponentDrill*%
%ADD63C,0.030000*%
%ADD64C,0.030000*%
%ADD65C,0.035433*%
%ADD66C,0.047244*%
%TA.AperFunction,ViaDrill,NotFilled*%
%ADD67C,0.028000*%
%ADD68C,0.020000*%
%ADD69C,0.015748*%
D63*
X3260000Y665000D02*
D03*
Y565000D02*
D03*
Y1165000D02*
D03*
Y1065000D02*
D03*
Y965000D02*
D03*
Y865000D02*
D03*
Y765000D02*
D03*
Y465000D02*
D03*
X3365000Y665000D02*
D03*
Y565000D02*
D03*
Y1165000D02*
D03*
Y1065000D02*
D03*
Y965000D02*
D03*
Y865000D02*
D03*
Y765000D02*
D03*
Y465000D02*
D03*
X1744370Y715591D02*
D03*
Y940000D02*
D03*
Y1115591D02*
D03*
Y1215591D02*
D03*
X760000Y710591D02*
D03*
Y935000D02*
D03*
Y1110591D02*
D03*
Y1210591D02*
D03*
X2770000Y710591D02*
D03*
Y935000D02*
D03*
Y1110591D02*
D03*
Y1210591D02*
D03*
D64*
X2950001Y2550000D02*
D03*
X3250001D02*
D03*
X3350001D02*
D03*
X3450001D02*
D03*
X3550001D02*
D03*
X3650001D02*
D03*
X3050001D02*
D03*
X3150001D02*
D03*
X2950001Y2450000D02*
D03*
X3250001D02*
D03*
X3350001D02*
D03*
X3450001D02*
D03*
X3550001D02*
D03*
X3650001D02*
D03*
X3050001D02*
D03*
X3150001D02*
D03*
X1865001Y2550000D02*
D03*
X2165001D02*
D03*
X2265001D02*
D03*
X2365001D02*
D03*
X2465001D02*
D03*
X2565001D02*
D03*
X1965001D02*
D03*
X2065001D02*
D03*
X1865001Y2450000D02*
D03*
X2165001D02*
D03*
X2265001D02*
D03*
X2365001D02*
D03*
X2465001D02*
D03*
X2565001D02*
D03*
X1965001D02*
D03*
X2065001D02*
D03*
X1845000Y3135000D02*
D03*
X1745000D02*
D03*
X2345000D02*
D03*
X2245000D02*
D03*
X2145000D02*
D03*
X2045000D02*
D03*
X1945000D02*
D03*
X1645000D02*
D03*
X1845000Y3505000D02*
D03*
X1745000D02*
D03*
X2345000D02*
D03*
X2245000D02*
D03*
X2145000D02*
D03*
X2045000D02*
D03*
X1945000D02*
D03*
X1645000D02*
D03*
D65*
X1145000Y1590000D02*
D03*
X1245000D02*
D03*
X1345000D02*
D03*
X1445000D02*
D03*
X1545000D02*
D03*
X1645000D02*
D03*
X1745000D02*
D03*
X1845000D02*
D03*
X1945000D02*
D03*
X2045000D02*
D03*
X2145000D02*
D03*
X2245000D02*
D03*
X2345000D02*
D03*
X2445000D02*
D03*
X2545000D02*
D03*
X2645000D02*
D03*
X2745000D02*
D03*
X2845000D02*
D03*
X2945000D02*
D03*
X3045000D02*
D03*
X1145000Y1690000D02*
D03*
X1245000D02*
D03*
X1345000D02*
D03*
X1445000D02*
D03*
X1545000D02*
D03*
X1645000D02*
D03*
X1745000D02*
D03*
X1845000D02*
D03*
X1945000D02*
D03*
X2045000D02*
D03*
X2145000D02*
D03*
X2245000D02*
D03*
X2345000D02*
D03*
X2445000D02*
D03*
X2545000D02*
D03*
X2645000D02*
D03*
X2745000D02*
D03*
X2845000D02*
D03*
X2945000D02*
D03*
X3045000D02*
D03*
X1145000Y3282913D02*
D03*
X3045000Y3382913D02*
D03*
X2945000D02*
D03*
X2845000D02*
D03*
X2745000D02*
D03*
X2645000D02*
D03*
X2545000D02*
D03*
X2445000D02*
D03*
X2345000D02*
D03*
X2245000D02*
D03*
X2145000D02*
D03*
X2045000D02*
D03*
X1945000D02*
D03*
X1845000D02*
D03*
X1745000D02*
D03*
X1645000D02*
D03*
X1545000D02*
D03*
X1445000D02*
D03*
X1345000D02*
D03*
X1245000D02*
D03*
X1145000D02*
D03*
X3045000Y3282913D02*
D03*
X2945000D02*
D03*
X2845000D02*
D03*
X2745000D02*
D03*
X2645000D02*
D03*
X2545000D02*
D03*
X2445000D02*
D03*
X2345000D02*
D03*
X2245000D02*
D03*
X2145000D02*
D03*
X2045000D02*
D03*
X1945000D02*
D03*
X1845000D02*
D03*
X1745000D02*
D03*
X1645000D02*
D03*
X1545000D02*
D03*
X1445000D02*
D03*
X1345000D02*
D03*
X1245000D02*
D03*
D66*
X2693425Y60000D02*
D03*
X2496575D02*
D03*
X1672795Y65000D02*
D03*
X1475945D02*
D03*
X688425Y60000D02*
D03*
X491575D02*
D03*
D67*
X2635000Y2790000D02*
D03*
X2285000D02*
D03*
X485000D02*
D03*
X1450000D02*
D03*
X995000D02*
D03*
X1645000Y2850000D02*
D03*
X1155000Y2865000D02*
D03*
X2895000Y1970000D02*
D03*
X2805000D02*
D03*
X1925000Y1910000D02*
D03*
X1660000Y1980000D02*
D03*
X1465000D02*
D03*
X1370000Y1975000D02*
D03*
X1575000Y1980000D02*
D03*
X1770000Y1975000D02*
D03*
X340000Y830000D02*
D03*
X420000D02*
D03*
X1320437Y848933D02*
D03*
X1394370Y845000D02*
D03*
X2415000Y840000D02*
D03*
X2341067Y843933D02*
D03*
X3120000Y1410000D02*
D03*
X3185000Y2180000D02*
D03*
X3125000Y2240000D02*
D03*
X2945000Y2310000D02*
D03*
X2980000Y2370000D02*
D03*
X1545000Y2850000D02*
D03*
X1225000Y2865000D02*
D03*
X2350000Y3020000D02*
D03*
D68*
X645000Y2870000D02*
D03*
X2795000Y1380000D02*
D03*
X3180000Y1410000D02*
D03*
D69*
X1110000Y2455000D02*
D03*
X480000Y3720000D02*
D03*
X380000Y3620000D02*
D03*
X280000Y3720000D02*
D03*
X180000Y3620000D02*
D03*
X580000D02*
D03*
X680000Y3720000D02*
D03*
X780000Y3620000D02*
D03*
X880000Y3720000D02*
D03*
X980000Y3620000D02*
D03*
X1080000Y3720000D02*
D03*
X1180000Y3620000D02*
D03*
X1280000Y3720000D02*
D03*
X1380000Y3620000D02*
D03*
X1480000Y3720000D02*
D03*
X1580000Y3620000D02*
D03*
X1680000Y3720000D02*
D03*
X1780000Y3620000D02*
D03*
X1880000Y3720000D02*
D03*
X1980000Y3620000D02*
D03*
X2080000Y3720000D02*
D03*
X2180000Y3620000D02*
D03*
X2280000Y3720000D02*
D03*
X2380000Y3620000D02*
D03*
X2480000Y3720000D02*
D03*
X2580000Y3620000D02*
D03*
X2680000Y3720000D02*
D03*
X2780000Y3620000D02*
D03*
X2880000Y3720000D02*
D03*
X2980000Y3620000D02*
D03*
X3080000Y3720000D02*
D03*
X3180000Y3620000D02*
D03*
X3280000Y3720000D02*
D03*
X3380000Y3620000D02*
D03*
X3480000Y3720000D02*
D03*
X480000Y3520000D02*
D03*
X80000D02*
D03*
X280000D02*
D03*
X380000Y3420000D02*
D03*
X180000D02*
D03*
Y3220000D02*
D03*
X380000D02*
D03*
X280000Y3320000D02*
D03*
X80000D02*
D03*
X480000D02*
D03*
X180000Y3020000D02*
D03*
X380000D02*
D03*
X280000Y3120000D02*
D03*
X80000D02*
D03*
X480000D02*
D03*
X180000Y2820000D02*
D03*
X280000Y2920000D02*
D03*
X80000D02*
D03*
X480000D02*
D03*
X180000Y2620000D02*
D03*
X280000Y2720000D02*
D03*
X80000D02*
D03*
X180000Y2420000D02*
D03*
X280000Y2520000D02*
D03*
X80000D02*
D03*
X180000Y2220000D02*
D03*
X380000D02*
D03*
X280000Y2320000D02*
D03*
X80000D02*
D03*
X180000Y2020000D02*
D03*
X380000D02*
D03*
X280000Y2120000D02*
D03*
X80000D02*
D03*
X480000D02*
D03*
X180000Y1820000D02*
D03*
X380000D02*
D03*
X280000Y1920000D02*
D03*
X80000D02*
D03*
X480000D02*
D03*
X180000Y1620000D02*
D03*
X380000D02*
D03*
X280000Y1720000D02*
D03*
X80000D02*
D03*
X480000D02*
D03*
X180000Y1420000D02*
D03*
X380000D02*
D03*
X280000Y1520000D02*
D03*
X80000D02*
D03*
X480000D02*
D03*
X180000Y1220000D02*
D03*
X80000Y1320000D02*
D03*
X780000Y2020000D02*
D03*
Y2220000D02*
D03*
X680000Y2120000D02*
D03*
X580000Y2420000D02*
D03*
X680000Y2320000D02*
D03*
X1180000Y2020000D02*
D03*
X980000Y2220000D02*
D03*
X1080000Y2120000D02*
D03*
X980000Y2420000D02*
D03*
X1080000Y2320000D02*
D03*
X880000D02*
D03*
X1480000Y2120000D02*
D03*
X1280000D02*
D03*
Y2320000D02*
D03*
X880000Y1520000D02*
D03*
Y1720000D02*
D03*
X680000D02*
D03*
X780000Y1620000D02*
D03*
X680000Y1920000D02*
D03*
X780000Y1820000D02*
D03*
X580000D02*
D03*
Y2020000D02*
D03*
X880000Y1920000D02*
D03*
Y2120000D02*
D03*
X980000Y2020000D02*
D03*
Y1820000D02*
D03*
X1080000Y1920000D02*
D03*
X1180000Y1820000D02*
D03*
X980000Y1620000D02*
D03*
X580000D02*
D03*
X680000Y1520000D02*
D03*
X880000Y1320000D02*
D03*
X1080000Y1120000D02*
D03*
X880000D02*
D03*
X680000Y1320000D02*
D03*
X1080000D02*
D03*
Y1520000D02*
D03*
X1280000Y1920000D02*
D03*
X780000Y2420000D02*
D03*
X680000Y2520000D02*
D03*
X780000Y2620000D02*
D03*
X1180000Y2420000D02*
D03*
X1680000Y2120000D02*
D03*
X1880000D02*
D03*
X2080000D02*
D03*
X2280000D02*
D03*
X1235000Y2580000D02*
D03*
X1380000Y2420000D02*
D03*
X1580000D02*
D03*
X1780000D02*
D03*
X1680000Y2520000D02*
D03*
X880000Y3320000D02*
D03*
X780000Y3220000D02*
D03*
Y3420000D02*
D03*
X880000Y3520000D02*
D03*
X910000Y3115000D02*
D03*
X825000Y3020000D02*
D03*
X3580000Y3220000D02*
D03*
X3180000D02*
D03*
X3380000D02*
D03*
X3580000Y3420000D02*
D03*
X3180000D02*
D03*
X3380000D02*
D03*
X3480000Y3320000D02*
D03*
X3280000D02*
D03*
X3580000Y2820000D02*
D03*
X3180000D02*
D03*
X3380000D02*
D03*
X3580000Y3020000D02*
D03*
X3180000D02*
D03*
X3380000D02*
D03*
X3480000Y2920000D02*
D03*
X3280000D02*
D03*
Y3520000D02*
D03*
X3480000D02*
D03*
X3280000Y3120000D02*
D03*
X3480000D02*
D03*
X3680000Y3320000D02*
D03*
Y3120000D02*
D03*
X3580000Y3620000D02*
D03*
X3680000Y3520000D02*
D03*
X3080000D02*
D03*
X2880000D02*
D03*
Y3120000D02*
D03*
X2980000Y3020000D02*
D03*
X2780000D02*
D03*
X2880000Y2920000D02*
D03*
X2980000Y2865000D02*
D03*
X2775000Y2860000D02*
D03*
X2660000Y2915000D02*
D03*
X2680000Y2645000D02*
D03*
X2700000Y2540000D02*
D03*
X2675000Y2435000D02*
D03*
X2705000Y2345000D02*
D03*
X2645000Y2295000D02*
D03*
X3680000Y2920000D02*
D03*
Y2120000D02*
D03*
X3380000Y2020000D02*
D03*
X3580000D02*
D03*
X3560000Y2265000D02*
D03*
X3480000Y1920000D02*
D03*
X3280000D02*
D03*
X3380000Y1820000D02*
D03*
X3580000D02*
D03*
X3680000Y1920000D02*
D03*
X3780000Y1820000D02*
D03*
X3680000Y1720000D02*
D03*
X3480000D02*
D03*
X3780000Y1620000D02*
D03*
X3580000D02*
D03*
X3680000Y1520000D02*
D03*
X3780000Y1420000D02*
D03*
Y2020000D02*
D03*
Y2220000D02*
D03*
Y1220000D02*
D03*
Y1020000D02*
D03*
X3680000Y1320000D02*
D03*
Y1120000D02*
D03*
Y920000D02*
D03*
Y720000D02*
D03*
X3780000Y820000D02*
D03*
Y620000D02*
D03*
X3680000Y520000D02*
D03*
Y320000D02*
D03*
X3780000Y420000D02*
D03*
Y220000D02*
D03*
X3480000Y320000D02*
D03*
X3580000Y420000D02*
D03*
X3480000Y520000D02*
D03*
X3580000Y620000D02*
D03*
X3280000Y120000D02*
D03*
X3380000Y220000D02*
D03*
X3280000Y320000D02*
D03*
X3580000Y20000D02*
D03*
X3480000Y120000D02*
D03*
X3380000Y20000D02*
D03*
X3680000Y120000D02*
D03*
X3580000Y220000D02*
D03*
X2150000Y1115000D02*
D03*
X1950000D02*
D03*
Y1315000D02*
D03*
X1750000D02*
D03*
X3280000Y1520000D02*
D03*
Y1320000D02*
D03*
X3380000Y1420000D02*
D03*
X1480000Y3520000D02*
D03*
X1280000D02*
D03*
%TF.MD5,52546b5c9a691eaab3599e1cec2553f5*%
M02*
