M48
;Layer_Color=9474304
;FILE_FORMAT=2:5
INCH,LZ
;TYPE=PLATED
T1F00S00C0.01575
T2F00S00C0.02000
T3F00S00C0.02800
T4F00S00C0.03000
T5F00S00C0.03543
T6F00S00C0.04724
;TYPE=NON_PLATED
T7F00S00C0.11811
%
T01
X0018Y0122
X0088Y0112
X0108
X0195Y01115
X0215
X0368Y0112
X0378Y0122
Y0102
X0368Y0092
Y0072
X0378Y0082
Y0062
X0368Y0052
Y0032
X0378Y0042
Y0022
X0368Y0012
X0358Y0002
X0348Y0012
Y0032
X0358Y0042
X0348Y0052
X0358Y0062
Y0022
X0338
X0328Y0012
Y0032
X0338Y0002
X0328Y0132
Y0152
X0338Y0142
Y0182
Y0202
X0358
X0368Y0212
Y0192
X0348
X0328
X0358Y0182
X0378
X0368Y0172
X0348
X0358Y0162
X0378
X0368Y0152
X0378Y0142
X0368Y0132
X0378Y0202
Y0222
X0356Y02265
X0358Y0282
X0338
X0318
X0268Y02645
X027Y0254
X02675Y02435
X02705Y02345
X02645Y02295
X0228Y0212
X0208
X0188
X0168
X0148
X0158Y0242
X0178
X0168Y0252
X0175Y01315
X0195
X0108Y0132
X0088
Y0152
Y0172
X0068
X0048
X0038Y0182
Y0202
Y0222
X0018
Y0242
Y0262
Y0282
X0028Y0272
X0008
Y0252
X0028
Y0232
X0008
Y0212
X0018Y0202
X0028Y0212
X0048
Y0192
X0028
X0018Y0182
X0008Y0192
Y0172
X0018Y0162
X0038
X0028Y0172
Y0152
X0018Y0142
X0038
X0048Y0152
X0058Y0162
X0078
Y0182
Y0202
Y0222
X0068Y0212
Y0232
X0058Y0242
X0078
X0098
X0111Y02455
X0118Y0242
X0108Y0232
X0098Y0222
X0108Y0212
X0118Y0202
X0128Y0212
Y0232
X0138Y0242
X01235Y0258
X0078Y0262
X0068Y0252
X0088Y0232
Y0212
Y0192
X0068
X0058Y0182
Y0202
X0098
Y0182
X0108Y0192
X0118Y0182
X0128Y0192
X0098Y0162
X0108Y0152
X0068
Y0132
X0008
Y0152
Y0292
X0018Y0302
Y0322
Y0342
Y0362
X0038
X0048Y0372
X0028
Y0352
X0048
X0058Y0362
X0068Y0372
X0078Y0362
X0088Y0372
X0098Y0362
X0108Y0372
X0118Y0362
X0128Y0372
X0138Y0362
X0128Y0352
X0088
Y0332
X0078Y0322
Y0342
X0038
Y0322
X0028Y0332
X0008
Y0352
Y0312
X0028
X0038Y0302
X0048Y0312
Y0332
Y0292
X0028
X00825Y0302
X0091Y03115
X0148Y0352
Y0372
X0158Y0362
X0168Y0372
X0178Y0362
X0188Y0372
X0198Y0362
X0208Y0372
X0218Y0362
X0228Y0372
X0238Y0362
X0248Y0372
X0258Y0362
X0268Y0372
X0278Y0362
X0288Y0372
Y0352
Y0312
X0278Y0302
X02775Y0286
X0288Y0292
X0266Y02915
X0298Y02865
Y0302
X0318
Y0322
X0338
X0358
Y0342
X0338
Y0362
X0318
X0298
X0308Y0372
X0328
X0348
Y0352
Y0332
X0328
X0318Y0342
X0328Y0352
X0308
X0328Y0312
X0338Y0302
X0358
X0348Y0292
X0328
X0348Y0312
X0368
Y0332
Y0352
X0358Y0362
X0368Y0292
T02
X0318Y0141
X02795Y0138
X00645Y0287
T03
X0034Y0083
X0042
X0132044Y0084893
X0139437Y00845
X0234107Y0084393
X02415Y0084
X0312Y0141
X03185Y0218
X03125Y0224
X0298Y0237
X02945Y0231
X02895Y0197
X02805
X01925Y0191
X0177Y01975
X0166Y0198
X01575
X01465
X0145Y0279
X02285
X02635
X00995
X00485
X0137Y01975
X01225Y02865
X01155
X01545Y0285
X01645
X0235Y0302
T04
X0076Y0071059
Y00935
Y0111059
Y0121059
X0174437Y0121559
Y0111559
Y0094
Y0071559
X0277Y0071059
Y00935
Y0111059
Y0121059
X0326Y01165
Y01065
Y00965
Y00865
Y00765
Y00665
Y00565
Y00465
X03365
Y00565
Y00665
Y00765
Y00865
Y00965
Y01065
Y01165
X0335Y0245
Y0255
X0325
X0315
X0305
Y0245
X0315
X0325
X0345
Y0255
X0355
X0365
Y0245
X0355
X0295
Y0255
X02565
X02465
X02365
X02265
X02165
X02065
X01965
X01865
Y0245
X01965
X02065
X02165
X02265
X02365
X02465
X02565
X02345Y03135
X02245
X02145
X02045
X01945
X01845
X01745
X01645
Y03505
X01745
X01845
X01945
X02045
X02145
X02245
X02345
T05
X03045Y0159
Y0169
X02945
Y0159
X02845
X02745
X02645
X02545
X02445
X02345
X02245
X02145
X02045
X01945
X01845
X01745
X01645
X01545
X01445
Y0169
X01545
X01645
X01745
X01845
X01945
X02045
X02145
X02245
X02345
X02445
X02545
X02645
X02745
X02845
X01345
Y0159
X01245
X01145
Y0169
X01245
Y0328291
X01145
Y0338291
X01245
X01345
Y0328291
X01445
Y0338291
X01545
X01645
X01745
X01845
X01945
X02045
X02145
X02245
X02345
X02445
X02545
X02645
X02745
X02845
X02945
Y0328291
X02845
X02745
X02645
X02545
X02445
X02345
X02245
X02145
X02045
X01945
X01845
X01745
X01645
X01545
X03045
Y0338291
T06
X0049158Y0006
X0068843
X0147594Y00065
X016728
X0249658Y0006
X0269342
T07
X0Y-0
X0377953
X0Y0377953
X0377953
M30
