G04 Layer_Color=128*
%FSLAX26Y26*%
%MOIN*%
%TF.FileFunction,Drillmap*%
%TF.Part,Single*%
G01*
G75*
%TA.AperFunction,NonConductor*%
%ADD35C,0.005000*%
D35*
X3245000Y665000D02*
X3275000D01*
X3260000Y650000D02*
Y680000D01*
X3245000Y565000D02*
X3275000D01*
X3260000Y550000D02*
Y580000D01*
X3245000Y1165000D02*
X3275000D01*
X3260000Y1150000D02*
Y1180000D01*
X3245000Y1065000D02*
X3275000D01*
X3260000Y1050000D02*
Y1080000D01*
X3245000Y965000D02*
X3275000D01*
X3260000Y950000D02*
Y980000D01*
X3245000Y865000D02*
X3275000D01*
X3260000Y850000D02*
Y880000D01*
X3245000Y765000D02*
X3275000D01*
X3260000Y750000D02*
Y780000D01*
X3245000Y465000D02*
X3275000D01*
X3260000Y450000D02*
Y480000D01*
X3350000Y665000D02*
X3380000D01*
X3365000Y650000D02*
Y680000D01*
X3350000Y565000D02*
X3380000D01*
X3365000Y550000D02*
Y580000D01*
X3350000Y1165000D02*
X3380000D01*
X3365000Y1150000D02*
Y1180000D01*
X3350000Y1065000D02*
X3380000D01*
X3365000Y1050000D02*
Y1080000D01*
X3350000Y965000D02*
X3380000D01*
X3365000Y950000D02*
Y980000D01*
X3350000Y865000D02*
X3380000D01*
X3365000Y850000D02*
Y880000D01*
X3350000Y765000D02*
X3380000D01*
X3365000Y750000D02*
Y780000D01*
X3350000Y465000D02*
X3380000D01*
X3365000Y450000D02*
Y480000D01*
X2935001Y2550000D02*
X2965001D01*
X2950001Y2535000D02*
Y2565000D01*
X3235001Y2550000D02*
X3265001D01*
X3250001Y2535000D02*
Y2565000D01*
X3335001Y2550000D02*
X3365001D01*
X3350001Y2535000D02*
Y2565000D01*
X3435001Y2550000D02*
X3465001D01*
X3450001Y2535000D02*
Y2565000D01*
X3535001Y2550000D02*
X3565001D01*
X3550001Y2535000D02*
Y2565000D01*
X3635001Y2550000D02*
X3665001D01*
X3650001Y2535000D02*
Y2565000D01*
X3035001Y2550000D02*
X3065001D01*
X3050001Y2535000D02*
Y2565000D01*
X3135001Y2550000D02*
X3165001D01*
X3150001Y2535000D02*
Y2565000D01*
X2935001Y2450000D02*
X2965001D01*
X2950001Y2435000D02*
Y2465000D01*
X3235001Y2450000D02*
X3265001D01*
X3250001Y2435000D02*
Y2465000D01*
X3335001Y2450000D02*
X3365001D01*
X3350001Y2435000D02*
Y2465000D01*
X3435001Y2450000D02*
X3465001D01*
X3450001Y2435000D02*
Y2465000D01*
X3535001Y2450000D02*
X3565001D01*
X3550001Y2435000D02*
Y2465000D01*
X3635001Y2450000D02*
X3665001D01*
X3650001Y2435000D02*
Y2465000D01*
X3035001Y2450000D02*
X3065001D01*
X3050001Y2435000D02*
Y2465000D01*
X3135001Y2450000D02*
X3165001D01*
X3150001Y2435000D02*
Y2465000D01*
X1850001Y2550000D02*
X1880001D01*
X1865001Y2535000D02*
Y2565000D01*
X2150001Y2550000D02*
X2180001D01*
X2165001Y2535000D02*
Y2565000D01*
X2250001Y2550000D02*
X2280001D01*
X2265001Y2535000D02*
Y2565000D01*
X2350001Y2550000D02*
X2380001D01*
X2365001Y2535000D02*
Y2565000D01*
X2450001Y2550000D02*
X2480001D01*
X2465001Y2535000D02*
Y2565000D01*
X2550001Y2550000D02*
X2580001D01*
X2565001Y2535000D02*
Y2565000D01*
X1950001Y2550000D02*
X1980001D01*
X1965001Y2535000D02*
Y2565000D01*
X2050001Y2550000D02*
X2080001D01*
X2065001Y2535000D02*
Y2565000D01*
X1850001Y2450000D02*
X1880001D01*
X1865001Y2435000D02*
Y2465000D01*
X2150001Y2450000D02*
X2180001D01*
X2165001Y2435000D02*
Y2465000D01*
X2250001Y2450000D02*
X2280001D01*
X2265001Y2435000D02*
Y2465000D01*
X2350001Y2450000D02*
X2380001D01*
X2365001Y2435000D02*
Y2465000D01*
X2450001Y2450000D02*
X2480001D01*
X2465001Y2435000D02*
Y2465000D01*
X2550001Y2450000D02*
X2580001D01*
X2565001Y2435000D02*
Y2465000D01*
X1950001Y2450000D02*
X1980001D01*
X1965001Y2435000D02*
Y2465000D01*
X2050001Y2450000D02*
X2080001D01*
X2065001Y2435000D02*
Y2465000D01*
X1127284Y1590000D02*
X1162716D01*
X1145000Y1572284D02*
Y1607716D01*
X1227284Y1590000D02*
X1262716D01*
X1245000Y1572284D02*
Y1607716D01*
X1327284Y1590000D02*
X1362716D01*
X1345000Y1572284D02*
Y1607716D01*
X1427284Y1590000D02*
X1462716D01*
X1445000Y1572284D02*
Y1607716D01*
X1527284Y1590000D02*
X1562716D01*
X1545000Y1572284D02*
Y1607716D01*
X1627284Y1590000D02*
X1662716D01*
X1645000Y1572284D02*
Y1607716D01*
X1727284Y1590000D02*
X1762716D01*
X1745000Y1572284D02*
Y1607716D01*
X1827284Y1590000D02*
X1862716D01*
X1845000Y1572284D02*
Y1607716D01*
X1927284Y1590000D02*
X1962716D01*
X1945000Y1572284D02*
Y1607716D01*
X2027284Y1590000D02*
X2062716D01*
X2045000Y1572284D02*
Y1607716D01*
X2127284Y1590000D02*
X2162716D01*
X2145000Y1572284D02*
Y1607716D01*
X2227284Y1590000D02*
X2262716D01*
X2245000Y1572284D02*
Y1607716D01*
X2327284Y1590000D02*
X2362716D01*
X2345000Y1572284D02*
Y1607716D01*
X2427284Y1590000D02*
X2462716D01*
X2445000Y1572284D02*
Y1607716D01*
X2527284Y1590000D02*
X2562716D01*
X2545000Y1572284D02*
Y1607716D01*
X2627284Y1590000D02*
X2662716D01*
X2645000Y1572284D02*
Y1607716D01*
X2727284Y1590000D02*
X2762716D01*
X2745000Y1572284D02*
Y1607716D01*
X2827284Y1590000D02*
X2862716D01*
X2845000Y1572284D02*
Y1607716D01*
X2927284Y1590000D02*
X2962716D01*
X2945000Y1572284D02*
Y1607716D01*
X3027284Y1590000D02*
X3062716D01*
X3045000Y1572284D02*
Y1607716D01*
X1127284Y1690000D02*
X1162716D01*
X1145000Y1672284D02*
Y1707716D01*
X1227284Y1690000D02*
X1262716D01*
X1245000Y1672284D02*
Y1707716D01*
X1327284Y1690000D02*
X1362716D01*
X1345000Y1672284D02*
Y1707716D01*
X1427284Y1690000D02*
X1462716D01*
X1445000Y1672284D02*
Y1707716D01*
X1527284Y1690000D02*
X1562716D01*
X1545000Y1672284D02*
Y1707716D01*
X1627284Y1690000D02*
X1662716D01*
X1645000Y1672284D02*
Y1707716D01*
X1727284Y1690000D02*
X1762716D01*
X1745000Y1672284D02*
Y1707716D01*
X1827284Y1690000D02*
X1862716D01*
X1845000Y1672284D02*
Y1707716D01*
X1927284Y1690000D02*
X1962716D01*
X1945000Y1672284D02*
Y1707716D01*
X2027284Y1690000D02*
X2062716D01*
X2045000Y1672284D02*
Y1707716D01*
X2127284Y1690000D02*
X2162716D01*
X2145000Y1672284D02*
Y1707716D01*
X2227284Y1690000D02*
X2262716D01*
X2245000Y1672284D02*
Y1707716D01*
X2327284Y1690000D02*
X2362716D01*
X2345000Y1672284D02*
Y1707716D01*
X2427284Y1690000D02*
X2462716D01*
X2445000Y1672284D02*
Y1707716D01*
X2527284Y1690000D02*
X2562716D01*
X2545000Y1672284D02*
Y1707716D01*
X2627284Y1690000D02*
X2662716D01*
X2645000Y1672284D02*
Y1707716D01*
X2727284Y1690000D02*
X2762716D01*
X2745000Y1672284D02*
Y1707716D01*
X2827284Y1690000D02*
X2862716D01*
X2845000Y1672284D02*
Y1707716D01*
X2927284Y1690000D02*
X2962716D01*
X2945000Y1672284D02*
Y1707716D01*
X3027284Y1690000D02*
X3062716D01*
X3045000Y1672284D02*
Y1707716D01*
X1127284Y3282913D02*
X1162716D01*
X1145000Y3265197D02*
Y3300630D01*
X3027284Y3382913D02*
X3062716D01*
X3045000Y3365197D02*
Y3400630D01*
X2927284Y3382913D02*
X2962716D01*
X2945000Y3365197D02*
Y3400630D01*
X2827284Y3382913D02*
X2862716D01*
X2845000Y3365197D02*
Y3400630D01*
X2727284Y3382913D02*
X2762716D01*
X2745000Y3365197D02*
Y3400630D01*
X2627284Y3382913D02*
X2662716D01*
X2645000Y3365197D02*
Y3400630D01*
X2527284Y3382913D02*
X2562716D01*
X2545000Y3365197D02*
Y3400630D01*
X2427284Y3382913D02*
X2462716D01*
X2445000Y3365197D02*
Y3400630D01*
X2327284Y3382913D02*
X2362716D01*
X2345000Y3365197D02*
Y3400630D01*
X2227284Y3382913D02*
X2262716D01*
X2245000Y3365197D02*
Y3400630D01*
X2127284Y3382913D02*
X2162716D01*
X2145000Y3365197D02*
Y3400630D01*
X2027284Y3382913D02*
X2062716D01*
X2045000Y3365197D02*
Y3400630D01*
X1927284Y3382913D02*
X1962716D01*
X1945000Y3365197D02*
Y3400630D01*
X1827284Y3382913D02*
X1862716D01*
X1845000Y3365197D02*
Y3400630D01*
X1727284Y3382913D02*
X1762716D01*
X1745000Y3365197D02*
Y3400630D01*
X1627284Y3382913D02*
X1662716D01*
X1645000Y3365197D02*
Y3400630D01*
X1527284Y3382913D02*
X1562716D01*
X1545000Y3365197D02*
Y3400630D01*
X1427284Y3382913D02*
X1462716D01*
X1445000Y3365197D02*
Y3400630D01*
X1327284Y3382913D02*
X1362716D01*
X1345000Y3365197D02*
Y3400630D01*
X1227284Y3382913D02*
X1262716D01*
X1245000Y3365197D02*
Y3400630D01*
X1127284Y3382913D02*
X1162716D01*
X1145000Y3365197D02*
Y3400630D01*
X3027284Y3282913D02*
X3062716D01*
X3045000Y3265197D02*
Y3300630D01*
X2927284Y3282913D02*
X2962716D01*
X2945000Y3265197D02*
Y3300630D01*
X2827284Y3282913D02*
X2862716D01*
X2845000Y3265197D02*
Y3300630D01*
X2727284Y3282913D02*
X2762716D01*
X2745000Y3265197D02*
Y3300630D01*
X2627284Y3282913D02*
X2662716D01*
X2645000Y3265197D02*
Y3300630D01*
X2527284Y3282913D02*
X2562716D01*
X2545000Y3265197D02*
Y3300630D01*
X2427284Y3282913D02*
X2462716D01*
X2445000Y3265197D02*
Y3300630D01*
X2327284Y3282913D02*
X2362716D01*
X2345000Y3265197D02*
Y3300630D01*
X2227284Y3282913D02*
X2262716D01*
X2245000Y3265197D02*
Y3300630D01*
X2127284Y3282913D02*
X2162716D01*
X2145000Y3265197D02*
Y3300630D01*
X2027284Y3282913D02*
X2062716D01*
X2045000Y3265197D02*
Y3300630D01*
X1927284Y3282913D02*
X1962716D01*
X1945000Y3265197D02*
Y3300630D01*
X1827284Y3282913D02*
X1862716D01*
X1845000Y3265197D02*
Y3300630D01*
X1727284Y3282913D02*
X1762716D01*
X1745000Y3265197D02*
Y3300630D01*
X1627284Y3282913D02*
X1662716D01*
X1645000Y3265197D02*
Y3300630D01*
X1527284Y3282913D02*
X1562716D01*
X1545000Y3265197D02*
Y3300630D01*
X1427284Y3282913D02*
X1462716D01*
X1445000Y3265197D02*
Y3300630D01*
X1327284Y3282913D02*
X1362716D01*
X1345000Y3265197D02*
Y3300630D01*
X1227284Y3282913D02*
X1262716D01*
X1245000Y3265197D02*
Y3300630D01*
X1729370Y715591D02*
X1759370D01*
X1744370Y700591D02*
Y730591D01*
X1729370Y940000D02*
X1759370D01*
X1744370Y925000D02*
Y955000D01*
X1729370Y1115591D02*
X1759370D01*
X1744370Y1100591D02*
Y1130591D01*
X1729370Y1215591D02*
X1759370D01*
X1744370Y1200591D02*
Y1230591D01*
X745000Y710591D02*
X775000D01*
X760000Y695591D02*
Y725591D01*
X745000Y935000D02*
X775000D01*
X760000Y920000D02*
Y950000D01*
X745000Y1110591D02*
X775000D01*
X760000Y1095591D02*
Y1125591D01*
X745000Y1210591D02*
X775000D01*
X760000Y1195591D02*
Y1225591D01*
X2669803Y60000D02*
X2717047D01*
X2693425Y36378D02*
Y83622D01*
X2472953Y60000D02*
X2520197D01*
X2496575Y36378D02*
Y83622D01*
X2755000Y710591D02*
X2785000D01*
X2770000Y695591D02*
Y725591D01*
X2755000Y935000D02*
X2785000D01*
X2770000Y920000D02*
Y950000D01*
X2755000Y1110591D02*
X2785000D01*
X2770000Y1095591D02*
Y1125591D01*
X2755000Y1210591D02*
X2785000D01*
X2770000Y1195591D02*
Y1225591D01*
X1649173Y65000D02*
X1696417D01*
X1672795Y41378D02*
Y88622D01*
X1452323Y65000D02*
X1499567D01*
X1475945Y41378D02*
Y88622D01*
X664803Y60000D02*
X712047D01*
X688425Y36378D02*
Y83622D01*
X467953Y60000D02*
X515197D01*
X491575Y36378D02*
Y83622D01*
X3720472Y3779528D02*
X3838582D01*
X3779527Y3720473D02*
Y3838583D01*
X3720472Y-0D02*
X3838582D01*
X3779527Y-59055D02*
Y59055D01*
X-59054Y3779528D02*
X59056D01*
X1Y3720473D02*
Y3838583D01*
X-59054Y-0D02*
X59056D01*
X1Y-59055D02*
Y59055D01*
X1830000Y3135000D02*
X1860000D01*
X1845000Y3120000D02*
Y3150000D01*
X1730000Y3135000D02*
X1760000D01*
X1745000Y3120000D02*
Y3150000D01*
X2330000Y3135000D02*
X2360000D01*
X2345000Y3120000D02*
Y3150000D01*
X2230000Y3135000D02*
X2260000D01*
X2245000Y3120000D02*
Y3150000D01*
X2130000Y3135000D02*
X2160000D01*
X2145000Y3120000D02*
Y3150000D01*
X2030000Y3135000D02*
X2060000D01*
X2045000Y3120000D02*
Y3150000D01*
X1930000Y3135000D02*
X1960000D01*
X1945000Y3120000D02*
Y3150000D01*
X1630000Y3135000D02*
X1660000D01*
X1645000Y3120000D02*
Y3150000D01*
X1830000Y3505000D02*
X1860000D01*
X1845000Y3490000D02*
Y3520000D01*
X1730000Y3505000D02*
X1760000D01*
X1745000Y3490000D02*
Y3520000D01*
X2330000Y3505000D02*
X2360000D01*
X2345000Y3490000D02*
Y3520000D01*
X2230000Y3505000D02*
X2260000D01*
X2245000Y3490000D02*
Y3520000D01*
X2130000Y3505000D02*
X2160000D01*
X2145000Y3490000D02*
Y3520000D01*
X2030000Y3505000D02*
X2060000D01*
X2045000Y3490000D02*
Y3520000D01*
X1930000Y3505000D02*
X1960000D01*
X1945000Y3490000D02*
Y3520000D01*
X1630000Y3505000D02*
X1660000D01*
X1645000Y3490000D02*
Y3520000D01*
X2621000Y2790000D02*
X2649000D01*
X2635000Y2776000D02*
Y2804000D01*
X2271000Y2790000D02*
X2299000D01*
X2285000Y2776000D02*
Y2804000D01*
X471000Y2790000D02*
X499000D01*
X485000Y2776000D02*
Y2804000D01*
X1436000Y2790000D02*
X1464000D01*
X1450000Y2776000D02*
Y2804000D01*
X981000Y2790000D02*
X1009000D01*
X995000Y2776000D02*
Y2804000D01*
X1631000Y2850000D02*
X1659000D01*
X1645000Y2836000D02*
Y2864000D01*
X1141000Y2865000D02*
X1169000D01*
X1155000Y2851000D02*
Y2879000D01*
X635000Y2870000D02*
X655000D01*
X645000Y2860000D02*
Y2880000D01*
X2881000Y1970000D02*
X2909000D01*
X2895000Y1956000D02*
Y1984000D01*
X2791000Y1970000D02*
X2819000D01*
X2805000Y1956000D02*
Y1984000D01*
X2785000Y1380000D02*
X2805000D01*
X2795000Y1370000D02*
Y1390000D01*
X1726000Y1915000D02*
X1754000D01*
X1740000Y1901000D02*
Y1929000D01*
X1451000Y1980000D02*
X1479000D01*
X1465000Y1966000D02*
Y1994000D01*
X1356000Y1975000D02*
X1384000D01*
X1370000Y1961000D02*
Y1989000D01*
X1571000Y1980000D02*
X1599000D01*
X1585000Y1966000D02*
Y1994000D01*
X1102126Y2455000D02*
X1117874D01*
X1110000Y2447126D02*
Y2462874D01*
X326000Y830000D02*
X354000D01*
X340000Y816000D02*
Y844000D01*
X406000Y830000D02*
X434000D01*
X420000Y816000D02*
Y844000D01*
X1306437Y848933D02*
X1334437D01*
X1320437Y834933D02*
Y862933D01*
X1380370Y845000D02*
X1408370D01*
X1394370Y831000D02*
Y859000D01*
X2401000Y840000D02*
X2429000D01*
X2415000Y826000D02*
Y854000D01*
X2327067Y843933D02*
X2355067D01*
X2341067Y829933D02*
Y857933D01*
X3170000Y1410000D02*
X3190000D01*
X3180000Y1400000D02*
Y1420000D01*
X3106000Y1410000D02*
X3134000D01*
X3120000Y1396000D02*
Y1424000D01*
X3171000Y2180000D02*
X3199000D01*
X3185000Y2166000D02*
Y2194000D01*
X3111000Y2240000D02*
X3139000D01*
X3125000Y2226000D02*
Y2254000D01*
X2966000Y2370000D02*
X2994000D01*
X2980000Y2356000D02*
Y2384000D01*
X1531000Y2850000D02*
X1559000D01*
X1545000Y2836000D02*
Y2864000D01*
X1211000Y2865000D02*
X1239000D01*
X1225000Y2851000D02*
Y2879000D01*
X472126Y3720000D02*
X487874D01*
X480000Y3712126D02*
Y3727874D01*
X372126Y3620000D02*
X387874D01*
X380000Y3612126D02*
Y3627874D01*
X272126Y3720000D02*
X287874D01*
X280000Y3712126D02*
Y3727874D01*
X172126Y3620000D02*
X187874D01*
X180000Y3612126D02*
Y3627874D01*
X572126Y3620000D02*
X587874D01*
X580000Y3612126D02*
Y3627874D01*
X672126Y3720000D02*
X687874D01*
X680000Y3712126D02*
Y3727874D01*
X772126Y3620000D02*
X787874D01*
X780000Y3612126D02*
Y3627874D01*
X872126Y3720000D02*
X887874D01*
X880000Y3712126D02*
Y3727874D01*
X972126Y3620000D02*
X987874D01*
X980000Y3612126D02*
Y3627874D01*
X1072126Y3720000D02*
X1087874D01*
X1080000Y3712126D02*
Y3727874D01*
X1172126Y3620000D02*
X1187874D01*
X1180000Y3612126D02*
Y3627874D01*
X1272126Y3720000D02*
X1287874D01*
X1280000Y3712126D02*
Y3727874D01*
X1372126Y3620000D02*
X1387874D01*
X1380000Y3612126D02*
Y3627874D01*
X1472126Y3720000D02*
X1487874D01*
X1480000Y3712126D02*
Y3727874D01*
X1572126Y3620000D02*
X1587874D01*
X1580000Y3612126D02*
Y3627874D01*
X1672126Y3720000D02*
X1687874D01*
X1680000Y3712126D02*
Y3727874D01*
X1772126Y3620000D02*
X1787874D01*
X1780000Y3612126D02*
Y3627874D01*
X1872126Y3720000D02*
X1887874D01*
X1880000Y3712126D02*
Y3727874D01*
X1972126Y3620000D02*
X1987874D01*
X1980000Y3612126D02*
Y3627874D01*
X2072126Y3720000D02*
X2087874D01*
X2080000Y3712126D02*
Y3727874D01*
X2172126Y3620000D02*
X2187874D01*
X2180000Y3612126D02*
Y3627874D01*
X2272126Y3720000D02*
X2287874D01*
X2280000Y3712126D02*
Y3727874D01*
X2372126Y3620000D02*
X2387874D01*
X2380000Y3612126D02*
Y3627874D01*
X2472126Y3720000D02*
X2487874D01*
X2480000Y3712126D02*
Y3727874D01*
X2572126Y3620000D02*
X2587874D01*
X2580000Y3612126D02*
Y3627874D01*
X2672126Y3720000D02*
X2687874D01*
X2680000Y3712126D02*
Y3727874D01*
X2772126Y3620000D02*
X2787874D01*
X2780000Y3612126D02*
Y3627874D01*
X2872126Y3720000D02*
X2887874D01*
X2880000Y3712126D02*
Y3727874D01*
X2972126Y3620000D02*
X2987874D01*
X2980000Y3612126D02*
Y3627874D01*
X3072126Y3720000D02*
X3087874D01*
X3080000Y3712126D02*
Y3727874D01*
X3172126Y3620000D02*
X3187874D01*
X3180000Y3612126D02*
Y3627874D01*
X3272126Y3720000D02*
X3287874D01*
X3280000Y3712126D02*
Y3727874D01*
X3372126Y3620000D02*
X3387874D01*
X3380000Y3612126D02*
Y3627874D01*
X3472126Y3720000D02*
X3487874D01*
X3480000Y3712126D02*
Y3727874D01*
X472126Y3520000D02*
X487874D01*
X480000Y3512126D02*
Y3527874D01*
X72126Y3520000D02*
X87874D01*
X80000Y3512126D02*
Y3527874D01*
X272126Y3520000D02*
X287874D01*
X280000Y3512126D02*
Y3527874D01*
X372126Y3420000D02*
X387874D01*
X380000Y3412126D02*
Y3427874D01*
X172126Y3420000D02*
X187874D01*
X180000Y3412126D02*
Y3427874D01*
X172126Y3220000D02*
X187874D01*
X180000Y3212126D02*
Y3227874D01*
X372126Y3220000D02*
X387874D01*
X380000Y3212126D02*
Y3227874D01*
X272126Y3320000D02*
X287874D01*
X280000Y3312126D02*
Y3327874D01*
X72126Y3320000D02*
X87874D01*
X80000Y3312126D02*
Y3327874D01*
X472126Y3320000D02*
X487874D01*
X480000Y3312126D02*
Y3327874D01*
X172126Y3020000D02*
X187874D01*
X180000Y3012126D02*
Y3027874D01*
X372126Y3020000D02*
X387874D01*
X380000Y3012126D02*
Y3027874D01*
X272126Y3120000D02*
X287874D01*
X280000Y3112126D02*
Y3127874D01*
X72126Y3120000D02*
X87874D01*
X80000Y3112126D02*
Y3127874D01*
X472126Y3120000D02*
X487874D01*
X480000Y3112126D02*
Y3127874D01*
X172126Y2820000D02*
X187874D01*
X180000Y2812126D02*
Y2827874D01*
X272126Y2920000D02*
X287874D01*
X280000Y2912126D02*
Y2927874D01*
X72126Y2920000D02*
X87874D01*
X80000Y2912126D02*
Y2927874D01*
X472126Y2920000D02*
X487874D01*
X480000Y2912126D02*
Y2927874D01*
X172126Y2620000D02*
X187874D01*
X180000Y2612126D02*
Y2627874D01*
X272126Y2720000D02*
X287874D01*
X280000Y2712126D02*
Y2727874D01*
X72126Y2720000D02*
X87874D01*
X80000Y2712126D02*
Y2727874D01*
X172126Y2420000D02*
X187874D01*
X180000Y2412126D02*
Y2427874D01*
X272126Y2520000D02*
X287874D01*
X280000Y2512126D02*
Y2527874D01*
X72126Y2520000D02*
X87874D01*
X80000Y2512126D02*
Y2527874D01*
X172126Y2220000D02*
X187874D01*
X180000Y2212126D02*
Y2227874D01*
X372126Y2220000D02*
X387874D01*
X380000Y2212126D02*
Y2227874D01*
X272126Y2320000D02*
X287874D01*
X280000Y2312126D02*
Y2327874D01*
X72126Y2320000D02*
X87874D01*
X80000Y2312126D02*
Y2327874D01*
X172126Y2020000D02*
X187874D01*
X180000Y2012126D02*
Y2027874D01*
X372126Y2020000D02*
X387874D01*
X380000Y2012126D02*
Y2027874D01*
X272126Y2120000D02*
X287874D01*
X280000Y2112126D02*
Y2127874D01*
X72126Y2120000D02*
X87874D01*
X80000Y2112126D02*
Y2127874D01*
X472126Y2120000D02*
X487874D01*
X480000Y2112126D02*
Y2127874D01*
X172126Y1820000D02*
X187874D01*
X180000Y1812126D02*
Y1827874D01*
X372126Y1820000D02*
X387874D01*
X380000Y1812126D02*
Y1827874D01*
X272126Y1920000D02*
X287874D01*
X280000Y1912126D02*
Y1927874D01*
X72126Y1920000D02*
X87874D01*
X80000Y1912126D02*
Y1927874D01*
X472126Y1920000D02*
X487874D01*
X480000Y1912126D02*
Y1927874D01*
X172126Y1620000D02*
X187874D01*
X180000Y1612126D02*
Y1627874D01*
X372126Y1620000D02*
X387874D01*
X380000Y1612126D02*
Y1627874D01*
X272126Y1720000D02*
X287874D01*
X280000Y1712126D02*
Y1727874D01*
X72126Y1720000D02*
X87874D01*
X80000Y1712126D02*
Y1727874D01*
X472126Y1720000D02*
X487874D01*
X480000Y1712126D02*
Y1727874D01*
X172126Y1420000D02*
X187874D01*
X180000Y1412126D02*
Y1427874D01*
X372126Y1420000D02*
X387874D01*
X380000Y1412126D02*
Y1427874D01*
X272126Y1520000D02*
X287874D01*
X280000Y1512126D02*
Y1527874D01*
X72126Y1520000D02*
X87874D01*
X80000Y1512126D02*
Y1527874D01*
X472126Y1520000D02*
X487874D01*
X480000Y1512126D02*
Y1527874D01*
X172126Y1220000D02*
X187874D01*
X180000Y1212126D02*
Y1227874D01*
X72126Y1320000D02*
X87874D01*
X80000Y1312126D02*
Y1327874D01*
X772126Y2020000D02*
X787874D01*
X780000Y2012126D02*
Y2027874D01*
X772126Y2220000D02*
X787874D01*
X780000Y2212126D02*
Y2227874D01*
X672126Y2120000D02*
X687874D01*
X680000Y2112126D02*
Y2127874D01*
X572126Y2420000D02*
X587874D01*
X580000Y2412126D02*
Y2427874D01*
X672126Y2320000D02*
X687874D01*
X680000Y2312126D02*
Y2327874D01*
X1172126Y2020000D02*
X1187874D01*
X1180000Y2012126D02*
Y2027874D01*
X972126Y2220000D02*
X987874D01*
X980000Y2212126D02*
Y2227874D01*
X1072126Y2120000D02*
X1087874D01*
X1080000Y2112126D02*
Y2127874D01*
X972126Y2420000D02*
X987874D01*
X980000Y2412126D02*
Y2427874D01*
X1072126Y2320000D02*
X1087874D01*
X1080000Y2312126D02*
Y2327874D01*
X872126Y2320000D02*
X887874D01*
X880000Y2312126D02*
Y2327874D01*
X1472126Y2120000D02*
X1487874D01*
X1480000Y2112126D02*
Y2127874D01*
X1272126Y2120000D02*
X1287874D01*
X1280000Y2112126D02*
Y2127874D01*
X1272126Y2320000D02*
X1287874D01*
X1280000Y2312126D02*
Y2327874D01*
X872126Y1520000D02*
X887874D01*
X880000Y1512126D02*
Y1527874D01*
X872126Y1720000D02*
X887874D01*
X880000Y1712126D02*
Y1727874D01*
X672126Y1720000D02*
X687874D01*
X680000Y1712126D02*
Y1727874D01*
X772126Y1620000D02*
X787874D01*
X780000Y1612126D02*
Y1627874D01*
X672126Y1920000D02*
X687874D01*
X680000Y1912126D02*
Y1927874D01*
X772126Y1820000D02*
X787874D01*
X780000Y1812126D02*
Y1827874D01*
X572126Y1820000D02*
X587874D01*
X580000Y1812126D02*
Y1827874D01*
X572126Y2020000D02*
X587874D01*
X580000Y2012126D02*
Y2027874D01*
X872126Y1920000D02*
X887874D01*
X880000Y1912126D02*
Y1927874D01*
X872126Y2120000D02*
X887874D01*
X880000Y2112126D02*
Y2127874D01*
X972126Y2020000D02*
X987874D01*
X980000Y2012126D02*
Y2027874D01*
X972126Y1820000D02*
X987874D01*
X980000Y1812126D02*
Y1827874D01*
X1072126Y1920000D02*
X1087874D01*
X1080000Y1912126D02*
Y1927874D01*
X1172126Y1820000D02*
X1187874D01*
X1180000Y1812126D02*
Y1827874D01*
X972126Y1620000D02*
X987874D01*
X980000Y1612126D02*
Y1627874D01*
X572126Y1620000D02*
X587874D01*
X580000Y1612126D02*
Y1627874D01*
X672126Y1520000D02*
X687874D01*
X680000Y1512126D02*
Y1527874D01*
X872126Y1320000D02*
X887874D01*
X880000Y1312126D02*
Y1327874D01*
X1072126Y1120000D02*
X1087874D01*
X1080000Y1112126D02*
Y1127874D01*
X872126Y1120000D02*
X887874D01*
X880000Y1112126D02*
Y1127874D01*
X672126Y1320000D02*
X687874D01*
X680000Y1312126D02*
Y1327874D01*
X1072126Y1320000D02*
X1087874D01*
X1080000Y1312126D02*
Y1327874D01*
X1072126Y1520000D02*
X1087874D01*
X1080000Y1512126D02*
Y1527874D01*
X1272126Y1920000D02*
X1287874D01*
X1280000Y1912126D02*
Y1927874D01*
X772126Y2420000D02*
X787874D01*
X780000Y2412126D02*
Y2427874D01*
X672126Y2520000D02*
X687874D01*
X680000Y2512126D02*
Y2527874D01*
X772126Y2620000D02*
X787874D01*
X780000Y2612126D02*
Y2627874D01*
X1172126Y2420000D02*
X1187874D01*
X1180000Y2412126D02*
Y2427874D01*
X1672126Y2120000D02*
X1687874D01*
X1680000Y2112126D02*
Y2127874D01*
X1872126Y2120000D02*
X1887874D01*
X1880000Y2112126D02*
Y2127874D01*
X2072126Y2120000D02*
X2087874D01*
X2080000Y2112126D02*
Y2127874D01*
X2272126Y2120000D02*
X2287874D01*
X2280000Y2112126D02*
Y2127874D01*
X1227126Y2580000D02*
X1242874D01*
X1235000Y2572126D02*
Y2587874D01*
X1372126Y2420000D02*
X1387874D01*
X1380000Y2412126D02*
Y2427874D01*
X1572126Y2420000D02*
X1587874D01*
X1580000Y2412126D02*
Y2427874D01*
X1772126Y2420000D02*
X1787874D01*
X1780000Y2412126D02*
Y2427874D01*
X1672126Y2520000D02*
X1687874D01*
X1680000Y2512126D02*
Y2527874D01*
X872126Y3320000D02*
X887874D01*
X880000Y3312126D02*
Y3327874D01*
X772126Y3220000D02*
X787874D01*
X780000Y3212126D02*
Y3227874D01*
X772126Y3420000D02*
X787874D01*
X780000Y3412126D02*
Y3427874D01*
X872126Y3520000D02*
X887874D01*
X880000Y3512126D02*
Y3527874D01*
X902126Y3115000D02*
X917874D01*
X910000Y3107126D02*
Y3122874D01*
X817126Y3020000D02*
X832874D01*
X825000Y3012126D02*
Y3027874D01*
X3572126Y3220000D02*
X3587874D01*
X3580000Y3212126D02*
Y3227874D01*
X3172126Y3220000D02*
X3187874D01*
X3180000Y3212126D02*
Y3227874D01*
X3372126Y3220000D02*
X3387874D01*
X3380000Y3212126D02*
Y3227874D01*
X3572126Y3420000D02*
X3587874D01*
X3580000Y3412126D02*
Y3427874D01*
X3172126Y3420000D02*
X3187874D01*
X3180000Y3412126D02*
Y3427874D01*
X3372126Y3420000D02*
X3387874D01*
X3380000Y3412126D02*
Y3427874D01*
X3472126Y3320000D02*
X3487874D01*
X3480000Y3312126D02*
Y3327874D01*
X3272126Y3320000D02*
X3287874D01*
X3280000Y3312126D02*
Y3327874D01*
X3572126Y2820000D02*
X3587874D01*
X3580000Y2812126D02*
Y2827874D01*
X3172126Y2820000D02*
X3187874D01*
X3180000Y2812126D02*
Y2827874D01*
X3372126Y2820000D02*
X3387874D01*
X3380000Y2812126D02*
Y2827874D01*
X3572126Y3020000D02*
X3587874D01*
X3580000Y3012126D02*
Y3027874D01*
X3172126Y3020000D02*
X3187874D01*
X3180000Y3012126D02*
Y3027874D01*
X3372126Y3020000D02*
X3387874D01*
X3380000Y3012126D02*
Y3027874D01*
X3472126Y2920000D02*
X3487874D01*
X3480000Y2912126D02*
Y2927874D01*
X3272126Y2920000D02*
X3287874D01*
X3280000Y2912126D02*
Y2927874D01*
X3272126Y3520000D02*
X3287874D01*
X3280000Y3512126D02*
Y3527874D01*
X3472126Y3520000D02*
X3487874D01*
X3480000Y3512126D02*
Y3527874D01*
X3272126Y3120000D02*
X3287874D01*
X3280000Y3112126D02*
Y3127874D01*
X3472126Y3120000D02*
X3487874D01*
X3480000Y3112126D02*
Y3127874D01*
X3672126Y3320000D02*
X3687874D01*
X3680000Y3312126D02*
Y3327874D01*
X3672126Y3120000D02*
X3687874D01*
X3680000Y3112126D02*
Y3127874D01*
X3572126Y3620000D02*
X3587874D01*
X3580000Y3612126D02*
Y3627874D01*
X3672126Y3520000D02*
X3687874D01*
X3680000Y3512126D02*
Y3527874D01*
X3072126Y3520000D02*
X3087874D01*
X3080000Y3512126D02*
Y3527874D01*
X2872126Y3520000D02*
X2887874D01*
X2880000Y3512126D02*
Y3527874D01*
X2872126Y3120000D02*
X2887874D01*
X2880000Y3112126D02*
Y3127874D01*
X2972126Y3020000D02*
X2987874D01*
X2980000Y3012126D02*
Y3027874D01*
X2772126Y3020000D02*
X2787874D01*
X2780000Y3012126D02*
Y3027874D01*
X2872126Y2920000D02*
X2887874D01*
X2880000Y2912126D02*
Y2927874D01*
X2972126Y2865000D02*
X2987874D01*
X2980000Y2857126D02*
Y2872874D01*
X2767126Y2860000D02*
X2782874D01*
X2775000Y2852126D02*
Y2867874D01*
X2652126Y2915000D02*
X2667874D01*
X2660000Y2907126D02*
Y2922874D01*
X2672126Y2645000D02*
X2687874D01*
X2680000Y2637126D02*
Y2652874D01*
X2692126Y2540000D02*
X2707874D01*
X2700000Y2532126D02*
Y2547874D01*
X2667126Y2435000D02*
X2682874D01*
X2675000Y2427126D02*
Y2442874D01*
X2697126Y2345000D02*
X2712874D01*
X2705000Y2337126D02*
Y2352874D01*
X2637126Y2295000D02*
X2652874D01*
X2645000Y2287126D02*
Y2302874D01*
X3672126Y2920000D02*
X3687874D01*
X3680000Y2912126D02*
Y2927874D01*
X3672126Y2120000D02*
X3687874D01*
X3680000Y2112126D02*
Y2127874D01*
X3372126Y2020000D02*
X3387874D01*
X3380000Y2012126D02*
Y2027874D01*
X3572126Y2020000D02*
X3587874D01*
X3580000Y2012126D02*
Y2027874D01*
X3552126Y2265000D02*
X3567874D01*
X3560000Y2257126D02*
Y2272874D01*
X3472126Y1920000D02*
X3487874D01*
X3480000Y1912126D02*
Y1927874D01*
X3272126Y1920000D02*
X3287874D01*
X3280000Y1912126D02*
Y1927874D01*
X3372126Y1820000D02*
X3387874D01*
X3380000Y1812126D02*
Y1827874D01*
X3572126Y1820000D02*
X3587874D01*
X3580000Y1812126D02*
Y1827874D01*
X3672126Y1920000D02*
X3687874D01*
X3680000Y1912126D02*
Y1927874D01*
X3772126Y1820000D02*
X3787874D01*
X3780000Y1812126D02*
Y1827874D01*
X3672126Y1720000D02*
X3687874D01*
X3680000Y1712126D02*
Y1727874D01*
X3472126Y1720000D02*
X3487874D01*
X3480000Y1712126D02*
Y1727874D01*
X3772126Y1620000D02*
X3787874D01*
X3780000Y1612126D02*
Y1627874D01*
X3572126Y1620000D02*
X3587874D01*
X3580000Y1612126D02*
Y1627874D01*
X3672126Y1520000D02*
X3687874D01*
X3680000Y1512126D02*
Y1527874D01*
X3772126Y1420000D02*
X3787874D01*
X3780000Y1412126D02*
Y1427874D01*
X3772126Y2020000D02*
X3787874D01*
X3780000Y2012126D02*
Y2027874D01*
X3772126Y2220000D02*
X3787874D01*
X3780000Y2212126D02*
Y2227874D01*
X3772126Y1220000D02*
X3787874D01*
X3780000Y1212126D02*
Y1227874D01*
X3772126Y1020000D02*
X3787874D01*
X3780000Y1012126D02*
Y1027874D01*
X3672126Y1320000D02*
X3687874D01*
X3680000Y1312126D02*
Y1327874D01*
X3672126Y1120000D02*
X3687874D01*
X3680000Y1112126D02*
Y1127874D01*
X3672126Y920000D02*
X3687874D01*
X3680000Y912126D02*
Y927874D01*
X3672126Y720000D02*
X3687874D01*
X3680000Y712126D02*
Y727874D01*
X3772126Y820000D02*
X3787874D01*
X3780000Y812126D02*
Y827874D01*
X3772126Y620000D02*
X3787874D01*
X3780000Y612126D02*
Y627874D01*
X3672126Y520000D02*
X3687874D01*
X3680000Y512126D02*
Y527874D01*
X3672126Y320000D02*
X3687874D01*
X3680000Y312126D02*
Y327874D01*
X3772126Y420000D02*
X3787874D01*
X3780000Y412126D02*
Y427874D01*
X3772126Y220000D02*
X3787874D01*
X3780000Y212126D02*
Y227874D01*
X3472126Y320000D02*
X3487874D01*
X3480000Y312126D02*
Y327874D01*
X3572126Y420000D02*
X3587874D01*
X3580000Y412126D02*
Y427874D01*
X3472126Y520000D02*
X3487874D01*
X3480000Y512126D02*
Y527874D01*
X3572126Y620000D02*
X3587874D01*
X3580000Y612126D02*
Y627874D01*
X3272126Y120000D02*
X3287874D01*
X3280000Y112126D02*
Y127874D01*
X3372126Y220000D02*
X3387874D01*
X3380000Y212126D02*
Y227874D01*
X3272126Y320000D02*
X3287874D01*
X3280000Y312126D02*
Y327874D01*
X3572126Y20000D02*
X3587874D01*
X3580000Y12126D02*
Y27874D01*
X3472126Y120000D02*
X3487874D01*
X3480000Y112126D02*
Y127874D01*
X3372126Y20000D02*
X3387874D01*
X3380000Y12126D02*
Y27874D01*
X3672126Y120000D02*
X3687874D01*
X3680000Y112126D02*
Y127874D01*
X3572126Y220000D02*
X3587874D01*
X3580000Y212126D02*
Y227874D01*
X2142126Y1115000D02*
X2157874D01*
X2150000Y1107126D02*
Y1122874D01*
X1942126Y1115000D02*
X1957874D01*
X1950000Y1107126D02*
Y1122874D01*
X1942126Y1315000D02*
X1957874D01*
X1950000Y1307126D02*
Y1322874D01*
X1742126Y1315000D02*
X1757874D01*
X1750000Y1307126D02*
Y1322874D01*
X3272126Y1520000D02*
X3287874D01*
X3280000Y1512126D02*
Y1527874D01*
X3272126Y1320000D02*
X3287874D01*
X3280000Y1312126D02*
Y1327874D01*
X3372126Y1420000D02*
X3387874D01*
X3380000Y1412126D02*
Y1427874D01*
X2336000Y3020000D02*
X2364000D01*
X2350000Y3006000D02*
Y3034000D01*
X1472126Y3520000D02*
X1487874D01*
X1480000Y3512126D02*
Y3527874D01*
X1272126Y3520000D02*
X1287874D01*
X1280000Y3512126D02*
Y3527874D01*
X1801000Y2030000D02*
X1829000D01*
X1815000Y2016000D02*
Y2044000D01*
X1966000Y1905000D02*
X1994000D01*
X1980000Y1891000D02*
Y1919000D01*
X2677126Y3165000D02*
X2692874D01*
X2685000Y3157126D02*
Y3172874D01*
%TF.MD5,e1dee2717f18c2d06bb9c2912217d9e4*%
M02*
