M48
;Layer_Color=9474304
;FILE_FORMAT=2:5
INCH,LZ
;TYPE=PLATED
T1F00S00C0.01575
T2F00S00C0.02000
T3F00S00C0.02800
T4F00S00C0.03000
T5F00S00C0.03543
T6F00S00C0.04724
;TYPE=NON_PLATED
T7F00S00C0.11811
%
T01
X01605Y0244
X0111Y02455
X00605Y02435
T02
X0318Y0141
X03535Y01715
X02795Y0138
X00645Y0287
T03
X0034Y0083
X0042
X0132044Y0084893
X0139437Y00845
X0234107Y0084393
X02415Y0084
X0312Y0141
X03125Y0224
X03185Y0218
X0298Y0237
X02945Y0231
X02895Y0197
X02805
X01925Y0191
X0177Y01975
X0166Y0198
X01575
X01465
X0145Y0279
X02285
X02635
X00995
X00485
X0137Y01975
X01155Y02865
X01645Y0285
X0233Y0308
T04
X0076Y0071059
Y00935
Y0111059
Y0121059
X0174437Y0121559
Y0111559
Y0094
Y0071559
X0277Y0071059
Y00935
Y0111059
Y0121059
X0326Y01165
Y01065
Y00965
Y00865
Y00765
Y00665
Y00565
Y00465
X03365
Y00565
Y00665
Y00765
Y00865
Y00965
Y01065
Y01165
X0335Y0245
X0345
X0355
X0365
Y0255
X0355
X0345
X0335
X0325
Y0245
X0315
X0305
Y0255
X0315
X0295
Y0245
X02565
X02465
X02365
X02265
X02165
X02065
X01965
X01865
Y0255
X01965
X02065
X02165
X02265
X02365
X02465
X02565
T05
X03045Y0159
Y0169
X02945
X02845
X02745
X02645
X02545
X02445
X02345
X02245
X02145
X02045
X01945
X01845
X01745
X01645
X01545
X01445
Y0159
X01545
X01645
X01745
X01845
X01945
X02045
X02145
X02245
X02345
X02445
X02545
X02645
X02745
X02845
X02945
X01345
Y0169
X01245
X01145
Y0159
X01245
Y0328291
X01345
Y0338291
X01245
X01145
Y0328291
X01445
X01545
X01645
X01745
X01845
X01945
X02045
X02145
X02245
X02345
X02445
X02545
X02645
X02745
X02845
X02945
Y0338291
X02845
X02745
X02645
X02545
X02445
X02345
X02245
X02145
X02045
X01945
X01845
X01745
X01645
X01545
X01445
X03045
Y0328291
T06
X0049158Y0006
X0068843
X0147594Y00065
X016728
X0249658Y0006
X0269342
T07
X0Y-0
X0377953
X0Y0377953
X0377953
M30
