G04 Layer_Color=16711935*
%FSLAX26Y26*%
%MOIN*%
%TF.FileFunction,Other,Mechanical_13*%
%TF.Part,Single*%
G01*
G75*
%TA.AperFunction,NonConductor*%
%ADD32C,0.007874*%
%ADD56C,0.003937*%
D32*
X1666370Y1262591D02*
X1678370Y1274591D01*
X1666370Y640591D02*
Y1262591D01*
Y640591D02*
X1894370D01*
Y1273591D01*
X1895370Y1274591D01*
X1678370D02*
X1895370D01*
X682000Y1257591D02*
X694000Y1269591D01*
X682000Y635591D02*
Y1257591D01*
Y635591D02*
X910000D01*
Y1268591D01*
X911000Y1269591D01*
X694000D02*
X911000D01*
X2692000Y1257591D02*
X2704000Y1269591D01*
X2692000Y635591D02*
Y1257591D01*
Y635591D02*
X2920000D01*
Y1268591D01*
X2921000Y1269591D01*
X2704000D02*
X2921000D01*
D56*
X577709Y2802795D02*
G03*
X577709Y2802795I-19685J0D01*
G01*
X1072709Y2798795D02*
G03*
X1072709Y2798795I-19685J0D01*
G01*
X1552709Y2777795D02*
G03*
X1552709Y2777795I-19685J0D01*
G01*
X1132441Y3022323D02*
X1187559D01*
X1132441Y2937677D02*
X1187559D01*
Y3022323D01*
X1132441Y2937677D02*
Y3022323D01*
X1617441Y2937677D02*
X1672559D01*
X1617441Y3022323D02*
X1672559D01*
X1617441Y2937677D02*
Y3022323D01*
X1672559Y2937677D02*
Y3022323D01*
X617441Y3027323D02*
X672559D01*
X617441Y2942677D02*
X672559D01*
Y3027323D01*
X617441Y2942677D02*
Y3027323D01*
X2137441Y2232677D02*
X2192559D01*
X2137441Y2317323D02*
X2192559D01*
Y2232677D02*
Y2317323D01*
X2137441Y2232677D02*
Y2317323D01*
X2132441Y2857323D02*
X2187559D01*
X2132441Y2772677D02*
X2187559D01*
X2132441D02*
Y2857323D01*
X2187559Y2772677D02*
Y2857323D01*
X2027441Y2237677D02*
X2082559D01*
X2027441Y2322323D02*
X2082559D01*
Y2237677D02*
Y2322323D01*
X2027441Y2237677D02*
Y2322323D01*
X2042441Y2857323D02*
X2097559D01*
X2042441Y2772677D02*
X2097559D01*
X2042441D02*
Y2857323D01*
X2097559Y2772677D02*
Y2857323D01*
X1782677Y2307441D02*
Y2362559D01*
X1867323Y2307441D02*
Y2362559D01*
X1782677Y2307441D02*
X1867323D01*
X1782677Y2362559D02*
X1867323D01*
X1791610Y2642441D02*
Y2697559D01*
X1876256Y2642441D02*
Y2697559D01*
X1791610Y2642441D02*
X1876256D01*
X1791610Y2697559D02*
X1876256D01*
X2447441Y3027677D02*
X2502559D01*
X2447441Y3112323D02*
X2502559D01*
X2447441Y3027677D02*
Y3112323D01*
X2502559Y3027677D02*
Y3112323D01*
X2567441Y3027677D02*
X2622559D01*
X2567441Y3112323D02*
X2622559D01*
X2567441Y3027677D02*
Y3112323D01*
X2622559Y3027677D02*
Y3112323D01*
X2657441Y3027677D02*
X2712559D01*
X2657441Y3112323D02*
X2712559D01*
X2657441Y3027677D02*
Y3112323D01*
X2712559Y3027677D02*
Y3112323D01*
X2457441Y1822677D02*
X2512559D01*
X2457441Y1907323D02*
X2512559D01*
X2457441Y1822677D02*
Y1907323D01*
X2512559Y1822677D02*
Y1907323D01*
X2637441Y1822047D02*
X2692559D01*
X2637441Y1906693D02*
X2692559D01*
X2637441Y1822047D02*
Y1906693D01*
X2692559Y1822047D02*
Y1906693D01*
X2547441Y1907323D02*
X2602559D01*
X2547441Y1822677D02*
X2602559D01*
Y1907323D01*
X2547441Y1822677D02*
Y1907323D01*
X2107441Y1342677D02*
Y1427323D01*
X2162559Y1342677D02*
Y1427323D01*
X2107441D02*
X2162559D01*
X2107441Y1342677D02*
X2162559D01*
X2252559Y1342677D02*
Y1427323D01*
X2197441Y1342677D02*
Y1427323D01*
Y1342677D02*
X2252559D01*
X2197441Y1427323D02*
X2252559D01*
X562441Y1347677D02*
Y1432323D01*
X617559Y1347677D02*
Y1432323D01*
X562441D02*
X617559D01*
X562441Y1347677D02*
X617559D01*
X527559Y1347677D02*
Y1432323D01*
X472441Y1347677D02*
Y1432323D01*
Y1347677D02*
X527559D01*
X472441Y1432323D02*
X527559D01*
X1542441Y1347677D02*
Y1432323D01*
X1597559Y1347677D02*
Y1432323D01*
X1542441D02*
X1597559D01*
X1542441Y1347677D02*
X1597559D01*
X1507559Y1347677D02*
Y1432323D01*
X1452441Y1347677D02*
Y1432323D01*
Y1347677D02*
X1507559D01*
X1452441Y1432323D02*
X1507559D01*
X1352441Y1266265D02*
Y1350911D01*
X1407559Y1266265D02*
Y1350911D01*
X1352441D02*
X1407559D01*
X1352441Y1266265D02*
X1407559D01*
X1316063Y678543D02*
X1402677D01*
X1316063Y621457D02*
X1402677D01*
Y678543D01*
X1316063Y621457D02*
Y678543D01*
X1261457Y1263869D02*
Y1350483D01*
X1318543Y1263869D02*
Y1350483D01*
X1261457D02*
X1318543D01*
X1261457Y1263869D02*
X1318543D01*
X382441Y1266265D02*
Y1350911D01*
X437559Y1266265D02*
Y1350911D01*
X382441D02*
X437559D01*
X382441Y1266265D02*
X437559D01*
X291457Y1266693D02*
Y1353307D01*
X348543Y1266693D02*
Y1353307D01*
X291457D02*
X348543D01*
X291457Y1266693D02*
X348543D01*
X346693Y668543D02*
X433307D01*
X346693Y611457D02*
X433307D01*
Y668543D01*
X346693Y611457D02*
Y668543D01*
X593457Y2491772D02*
Y2838228D01*
X435976Y2491772D02*
Y2838228D01*
X593457D01*
X435976Y2491772D02*
X593457D01*
X1088457Y2487772D02*
Y2834228D01*
X930976Y2487772D02*
Y2834228D01*
X1088457D01*
X930976Y2487772D02*
X1088457D01*
X1568457Y2466772D02*
Y2813228D01*
X1410976Y2466772D02*
Y2813228D01*
X1568457D01*
X1410976Y2466772D02*
X1568457D01*
X2331693Y673543D02*
X2418307D01*
X2331693Y616457D02*
X2418307D01*
Y673543D01*
X2331693Y616457D02*
Y673543D01*
X2281457Y1266693D02*
Y1353307D01*
X2338543Y1266693D02*
Y1353307D01*
X2281457D02*
X2338543D01*
X2281457Y1266693D02*
X2338543D01*
X2372441Y1266265D02*
Y1350911D01*
X2427559Y1266265D02*
Y1350911D01*
X2372441D02*
X2427559D01*
X2372441Y1266265D02*
X2427559D01*
X2677559Y1322677D02*
Y1407323D01*
X2622441Y1322677D02*
Y1407323D01*
Y1322677D02*
X2677559D01*
X2622441Y1407323D02*
X2677559D01*
X2522441Y1322677D02*
Y1407323D01*
X2577559Y1322677D02*
Y1407323D01*
X2522441D02*
X2577559D01*
X2522441Y1322677D02*
X2577559D01*
X2997559Y1332677D02*
Y1417323D01*
X2942441Y1332677D02*
Y1417323D01*
Y1332677D02*
X2997559D01*
X2942441Y1417323D02*
X2997559D01*
X2847441Y1332677D02*
Y1417323D01*
X2902559Y1332677D02*
Y1417323D01*
X2847441D02*
X2902559D01*
X2847441Y1332677D02*
X2902559D01*
X1732441Y1827677D02*
X1787559D01*
X1732441Y1912323D02*
X1787559D01*
X1732441Y1827677D02*
Y1912323D01*
X1787559Y1827677D02*
Y1912323D01*
X1822441Y1912323D02*
X1877559D01*
X1822441Y1827677D02*
X1877559D01*
Y1912323D01*
X1822441Y1827677D02*
Y1912323D01*
X1542441Y1827677D02*
X1597559D01*
X1542441Y1912323D02*
X1597559D01*
X1542441Y1827677D02*
Y1912323D01*
X1597559Y1827677D02*
Y1912323D01*
X1632441Y1912323D02*
X1687559D01*
X1632441Y1827677D02*
X1687559D01*
Y1912323D01*
X1632441Y1827677D02*
Y1912323D01*
X1342441Y1827677D02*
X1397559D01*
X1342441Y1912323D02*
X1397559D01*
X1342441Y1827677D02*
Y1912323D01*
X1397559Y1827677D02*
Y1912323D01*
X1437441Y1912323D02*
X1492559D01*
X1437441Y1827677D02*
X1492559D01*
Y1912323D01*
X1437441Y1827677D02*
Y1912323D01*
X2777441Y1822677D02*
X2832559D01*
X2777441Y1907323D02*
X2832559D01*
X2777441Y1822677D02*
Y1907323D01*
X2832559Y1822677D02*
Y1907323D01*
X2867441Y1822677D02*
X2922559D01*
X2867441Y1907323D02*
X2922559D01*
X2867441Y1822677D02*
Y1907323D01*
X2922559Y1822677D02*
Y1907323D01*
X1537047Y702559D02*
X1621693D01*
X1537047Y647441D02*
X1621693D01*
X1537047D02*
Y702559D01*
X1621693Y647441D02*
Y702559D01*
X1742047Y337559D02*
X1826693D01*
X1742047Y282441D02*
X1826693D01*
X1742047D02*
Y337559D01*
X1826693Y282441D02*
Y337559D01*
X1742047Y417441D02*
X1826693D01*
X1742047Y472559D02*
X1826693D01*
Y417441D02*
Y472559D01*
X1742047Y417441D02*
Y472559D01*
X1742047Y607559D02*
X1826693D01*
X1742047Y552441D02*
X1826693D01*
X1742047D02*
Y607559D01*
X1826693Y552441D02*
Y607559D01*
X1949331Y197677D02*
Y282323D01*
X1894213Y197677D02*
Y282323D01*
X1949331D01*
X1894213Y197677D02*
X1949331D01*
X1842047Y37441D02*
X1926693D01*
X1842047Y92559D02*
X1926693D01*
Y37441D02*
Y92559D01*
X1842047Y37441D02*
Y92559D01*
X1342677Y552441D02*
X1427323D01*
X1342677Y607559D02*
X1427323D01*
Y552441D02*
Y607559D01*
X1342677Y552441D02*
Y607559D01*
X1342047Y472559D02*
X1426693D01*
X1342047Y417441D02*
X1426693D01*
X1342047D02*
Y472559D01*
X1426693Y417441D02*
Y472559D01*
X1342047Y282441D02*
X1426693D01*
X1342047Y337559D02*
X1426693D01*
Y282441D02*
Y337559D01*
X1342047Y282441D02*
Y337559D01*
X1276929Y197677D02*
Y282323D01*
X1221811Y197677D02*
Y282323D01*
X1276929D01*
X1221811Y197677D02*
X1276929D01*
X1247047Y92559D02*
X1331693D01*
X1247047Y37441D02*
X1331693D01*
X1247047D02*
Y92559D01*
X1331693Y37441D02*
Y92559D01*
X1815827Y781693D02*
Y868307D01*
X1872913Y781693D02*
Y868307D01*
X1815827Y781693D02*
X1872913D01*
X1815827Y868307D02*
X1872913D01*
X1536063Y613543D02*
X1622677D01*
X1536063Y556457D02*
X1622677D01*
X1536063D02*
Y613543D01*
X1622677Y556457D02*
Y613543D01*
X1628543Y1116693D02*
Y1203307D01*
X1571457Y1116693D02*
Y1203307D01*
X1628543D01*
X1571457Y1116693D02*
X1628543D01*
X352677Y538508D02*
X437323D01*
X352677Y593626D02*
X437323D01*
Y538508D02*
Y593626D01*
X352677Y538508D02*
Y593626D01*
X352677Y476492D02*
X437323D01*
X352677Y421374D02*
X437323D01*
X352677D02*
Y476492D01*
X437323Y421374D02*
Y476492D01*
X352677Y277441D02*
X437323D01*
X352677Y332559D02*
X437323D01*
Y277441D02*
Y332559D01*
X352677Y277441D02*
Y332559D01*
X285020Y192677D02*
Y277323D01*
X229901Y192677D02*
Y277323D01*
X285020D01*
X229901Y192677D02*
X285020D01*
X252539Y87559D02*
X337185D01*
X252539Y32441D02*
X337185D01*
X252539D02*
Y87559D01*
X337185Y32441D02*
Y87559D01*
X767677Y593626D02*
X852323D01*
X767677Y538508D02*
X852323D01*
X767677D02*
Y593626D01*
X852323Y538508D02*
Y593626D01*
X767677Y421374D02*
X852323D01*
X767677Y476492D02*
X852323D01*
Y421374D02*
Y476492D01*
X767677Y421374D02*
Y476492D01*
X767677Y332559D02*
X852323D01*
X767677Y277441D02*
X852323D01*
X767677D02*
Y332559D01*
X852323Y277441D02*
Y332559D01*
X977421Y192677D02*
Y277323D01*
X922303Y192677D02*
Y277323D01*
X977421D01*
X922303Y192677D02*
X977421D01*
X870138Y32441D02*
X954784D01*
X870138Y87559D02*
X954784D01*
Y32441D02*
Y87559D01*
X870138Y32441D02*
Y87559D01*
X557677Y677559D02*
X642323D01*
X557677Y622441D02*
X642323D01*
X557677D02*
Y677559D01*
X642323Y622441D02*
Y677559D01*
X556693Y593543D02*
X643307D01*
X556693Y536457D02*
X643307D01*
X556693D02*
Y593543D01*
X643307Y536457D02*
Y593543D01*
X816457Y781693D02*
Y868307D01*
X873543Y781693D02*
Y868307D01*
X816457Y781693D02*
X873543D01*
X816457Y868307D02*
X873543D01*
X2831457Y761693D02*
Y848307D01*
X2888543Y761693D02*
Y848307D01*
X2831457Y761693D02*
X2888543D01*
X2831457Y848307D02*
X2888543D01*
X2560281Y604083D02*
X2646895D01*
X2560281Y546996D02*
X2646895D01*
X2560281D02*
Y604083D01*
X2646895Y546996D02*
Y604083D01*
X2698543Y1116693D02*
Y1203307D01*
X2641457Y1116693D02*
Y1203307D01*
X2698543D01*
X2641457Y1116693D02*
X2698543D01*
X2562677Y687559D02*
X2647323D01*
X2562677Y632441D02*
X2647323D01*
X2562677D02*
Y687559D01*
X2647323Y632441D02*
Y687559D01*
X2872677Y32441D02*
X2957323D01*
X2872677Y87559D02*
X2957323D01*
Y32441D02*
Y87559D01*
X2872677Y32441D02*
Y87559D01*
X2981929Y172677D02*
Y257323D01*
X2926811Y172677D02*
Y257323D01*
X2981929D01*
X2926811Y172677D02*
X2981929D01*
X2777677Y332559D02*
X2862323D01*
X2777677Y277441D02*
X2862323D01*
X2777677D02*
Y332559D01*
X2862323Y277441D02*
Y332559D01*
X2777677Y412441D02*
X2862323D01*
X2777677Y467559D02*
X2862323D01*
Y412441D02*
Y467559D01*
X2777677Y412441D02*
Y467559D01*
X2777677Y602559D02*
X2862323D01*
X2777677Y547441D02*
X2862323D01*
X2777677D02*
Y602559D01*
X2862323Y547441D02*
Y602559D01*
X2250079Y87559D02*
X2334724D01*
X2250079Y32441D02*
X2334724D01*
X2250079D02*
Y87559D01*
X2334724Y32441D02*
Y87559D01*
X2282559Y192677D02*
Y277323D01*
X2227441Y192677D02*
Y277323D01*
X2282559D01*
X2227441Y192677D02*
X2282559D01*
X2347677Y277441D02*
X2432323D01*
X2347677Y332559D02*
X2432323D01*
Y277441D02*
Y332559D01*
X2347677Y277441D02*
Y332559D01*
X2347677Y467559D02*
X2432323D01*
X2347677Y412441D02*
X2432323D01*
X2347677D02*
Y467559D01*
X2432323Y412441D02*
Y467559D01*
X2347677Y547441D02*
X2432323D01*
X2347677Y602559D02*
X2432323D01*
Y547441D02*
Y602559D01*
X2347677Y547441D02*
Y602559D01*
X678543Y1126693D02*
Y1213307D01*
X621457Y1126693D02*
Y1213307D01*
X678543D01*
X621457Y1126693D02*
X678543D01*
X1572559Y2937677D02*
Y3022323D01*
X1517441Y2937677D02*
Y3022323D01*
X1572559D01*
X1517441Y2937677D02*
X1572559D01*
X1282559D02*
Y3022323D01*
X1227441Y2937677D02*
Y3022323D01*
X1282559D01*
X1227441Y2937677D02*
X1282559D01*
X712441Y2942677D02*
Y3027323D01*
X767559Y2942677D02*
Y3027323D01*
X712441D02*
X767559D01*
X712441Y2942677D02*
X767559D01*
%TF.MD5,2bcba4ee8c4f65aa43445f64278cc29e*%
M02*
