G04 Layer_Color=65535*
%FSLAX25Y25*%
%MOIN*%
G70*
G01*
G75*
%ADD31C,0.00500*%
%ADD32C,0.00787*%
%ADD33C,0.00600*%
D31*
X60950Y124595D02*
X69050D01*
X60950Y109405D02*
Y124595D01*
X69050Y109405D02*
Y124595D01*
X60950Y109405D02*
X69050D01*
X231264Y61496D02*
X246736D01*
Y53504D02*
Y61496D01*
X231264Y53504D02*
X246736D01*
X231264D02*
Y61496D01*
Y40004D02*
X246736D01*
X231264D02*
Y47996D01*
X246736D01*
Y40004D02*
Y47996D01*
X231264Y34496D02*
X246736D01*
Y26504D02*
Y34496D01*
X231264Y26504D02*
X246736D01*
X231264D02*
Y34496D01*
X221504Y15764D02*
Y31236D01*
X229496D01*
Y15764D02*
Y31236D01*
X221504Y15764D02*
X229496D01*
X221504Y2004D02*
X236976D01*
X221504D02*
Y9996D01*
X236976D01*
Y2004D02*
Y9996D01*
X274264Y53504D02*
X289736D01*
X274264D02*
Y61496D01*
X289736D01*
Y53504D02*
Y61496D01*
X274264Y47996D02*
X289736D01*
Y40004D02*
Y47996D01*
X274264Y40004D02*
X289736D01*
X274264D02*
Y47996D01*
Y26504D02*
X289736D01*
X274264D02*
Y34496D01*
X289736D01*
Y26504D02*
Y34496D01*
X291441Y13764D02*
Y29236D01*
X299433D01*
Y13764D02*
Y29236D01*
X291441Y13764D02*
X299433D01*
X283764Y9996D02*
X299236D01*
Y2004D02*
Y9996D01*
X283764Y2004D02*
X299236D01*
X283764D02*
Y9996D01*
X252764Y62004D02*
X268236D01*
X252764D02*
Y69996D01*
X268236D01*
Y62004D02*
Y69996D01*
X262950Y123595D02*
X271050D01*
X262950Y108405D02*
Y123595D01*
X271050Y108405D02*
Y123595D01*
X262950Y108405D02*
X271050D01*
X252764Y53504D02*
Y61604D01*
Y53504D02*
X267954D01*
X252764Y61604D02*
X267954D01*
Y53504D02*
Y61604D01*
X281950Y72905D02*
X290050D01*
Y88095D01*
X281950Y72905D02*
Y88095D01*
X290050D01*
X80450Y74905D02*
X88550D01*
Y90095D01*
X80450Y74905D02*
Y90095D01*
X88550D01*
X52405Y52450D02*
Y60550D01*
Y52450D02*
X67595D01*
X52405Y60550D02*
X67595D01*
Y52450D02*
Y60550D01*
X52264Y61004D02*
X67736D01*
X52264D02*
Y68996D01*
X67736D01*
Y61004D02*
Y68996D01*
X83510Y9996D02*
X98982D01*
Y2004D02*
Y9996D01*
X83510Y2004D02*
X98982D01*
X83510D02*
Y9996D01*
X90990Y15764D02*
Y31236D01*
X98982D01*
Y15764D02*
Y31236D01*
X90990Y15764D02*
X98982D01*
X73264Y26504D02*
X88736D01*
X73264D02*
Y34496D01*
X88736D01*
Y26504D02*
Y34496D01*
X73264Y48889D02*
X88736D01*
Y40897D02*
Y48889D01*
X73264Y40897D02*
X88736D01*
X73264D02*
Y48889D01*
Y52611D02*
X88736D01*
X73264D02*
Y60603D01*
X88736D01*
Y52611D02*
Y60603D01*
X21750Y2004D02*
X37222D01*
X21750D02*
Y9996D01*
X37222D01*
Y2004D02*
Y9996D01*
X21750Y15764D02*
Y31236D01*
X29742D01*
Y15764D02*
Y31236D01*
X21750Y15764D02*
X29742D01*
X31764Y34496D02*
X47236D01*
Y26504D02*
Y34496D01*
X31764Y26504D02*
X47236D01*
X31764D02*
Y34496D01*
Y40897D02*
X47236D01*
X31764D02*
Y48889D01*
X47236D01*
Y40897D02*
Y48889D01*
X31764Y60603D02*
X47236D01*
Y52611D02*
Y60603D01*
X31764Y52611D02*
X47236D01*
X31764D02*
Y60603D01*
X155950Y123595D02*
X164050D01*
X155950Y108405D02*
Y123595D01*
X164050Y108405D02*
Y123595D01*
X155950Y108405D02*
X164050D01*
X150342Y54450D02*
Y62550D01*
Y54450D02*
X165532D01*
X150342Y62550D02*
X165532D01*
Y54450D02*
Y62550D01*
X180387Y74905D02*
X188487D01*
Y90095D01*
X180387Y74905D02*
Y90095D01*
X188487D01*
X121201Y2504D02*
X136673D01*
X121201D02*
Y10496D01*
X136673D01*
Y2504D02*
Y10496D01*
X120941Y16264D02*
Y31736D01*
X128933D01*
Y16264D02*
Y31736D01*
X120941Y16264D02*
X128933D01*
X130701Y34996D02*
X146173D01*
Y27004D02*
Y34996D01*
X130701Y27004D02*
X146173D01*
X130701D02*
Y34996D01*
Y40504D02*
X146173D01*
X130701D02*
Y48496D01*
X146173D01*
Y40504D02*
Y48496D01*
X130764Y61996D02*
X146236D01*
Y54004D02*
Y61996D01*
X130764Y54004D02*
X146236D01*
X130764D02*
Y61996D01*
X180701Y10496D02*
X196173D01*
Y2504D02*
Y10496D01*
X180701Y2504D02*
X196173D01*
X180701D02*
Y10496D01*
X188181Y16264D02*
Y31736D01*
X196173D01*
Y16264D02*
Y31736D01*
X188181Y16264D02*
X196173D01*
X170701Y54004D02*
X186173D01*
X170701D02*
Y61996D01*
X186173D01*
Y54004D02*
Y61996D01*
X170701Y48496D02*
X186173D01*
Y40504D02*
Y48496D01*
X170701Y40504D02*
X186173D01*
X170701D02*
Y48496D01*
Y27004D02*
X186173D01*
X170701D02*
Y34996D01*
X186173D01*
Y27004D02*
Y34996D01*
X150201Y63504D02*
X165673D01*
X150201D02*
Y71496D01*
X165673D01*
Y63504D02*
Y71496D01*
X285504Y178764D02*
X293496D01*
Y194236D01*
X285504D02*
X293496D01*
X285504Y178764D02*
Y194236D01*
X276504Y178764D02*
X284496D01*
Y194236D01*
X276504D02*
X284496D01*
X276504Y178764D02*
Y194236D01*
X142504Y194736D02*
X150496D01*
X142504Y179264D02*
Y194736D01*
Y179264D02*
X150496D01*
Y194736D01*
X133004Y179264D02*
X140996D01*
Y194736D01*
X133004D02*
X140996D01*
X133004Y179264D02*
Y194736D01*
X162004D02*
X169996D01*
X162004Y179264D02*
Y194736D01*
Y179264D02*
X169996D01*
Y194736D01*
X153004Y179264D02*
X160996D01*
Y194736D01*
X153004D02*
X160996D01*
X153004Y179264D02*
Y194736D01*
X181004D02*
X188996D01*
X181004Y179264D02*
Y194736D01*
Y179264D02*
X188996D01*
Y194736D01*
X172004Y179264D02*
X179996D01*
Y194736D01*
X172004D02*
X179996D01*
X172004Y179264D02*
Y194736D01*
X253504Y194236D02*
X261496D01*
X253504Y178764D02*
Y194236D01*
Y178764D02*
X261496D01*
Y194236D01*
X262504Y178701D02*
X270496D01*
Y194173D01*
X262504D02*
X270496D01*
X262504Y178701D02*
Y194173D01*
X244504Y178764D02*
X252496D01*
Y194236D01*
X244504D02*
X252496D01*
X244504Y178764D02*
Y194236D01*
X254504Y299264D02*
X262496D01*
Y314736D01*
X254504D02*
X262496D01*
X254504Y299264D02*
Y314736D01*
X245504Y299264D02*
X253496D01*
Y314736D01*
X245504D02*
X253496D01*
X245504Y299264D02*
Y314736D01*
X236504Y299264D02*
X244496D01*
Y314736D01*
X236504D02*
X244496D01*
X236504Y299264D02*
Y314736D01*
X60504Y306236D02*
X68496D01*
X60504Y290764D02*
Y306236D01*
Y290764D02*
X68496D01*
Y306236D01*
X160504Y290264D02*
X168496D01*
Y305736D01*
X160504D02*
X168496D01*
X160504Y290264D02*
Y305736D01*
X112004D02*
X119996D01*
X112004Y290264D02*
Y305736D01*
Y290264D02*
X119996D01*
Y305736D01*
D32*
X239000Y54941D02*
Y60059D01*
X239000Y41441D02*
Y46559D01*
X239000Y27941D02*
Y33059D01*
X222941Y23500D02*
X228059D01*
X229240Y3441D02*
Y8559D01*
X282000Y54941D02*
Y60059D01*
X282000Y41441D02*
Y46559D01*
X282000Y27941D02*
Y33059D01*
X292878Y21500D02*
X297996D01*
X291500Y3441D02*
Y8559D01*
X260500Y63441D02*
Y68559D01*
X60000Y62441D02*
Y67559D01*
X91246Y3441D02*
Y8559D01*
X92427Y23500D02*
X97545D01*
X81000Y27941D02*
Y33059D01*
X81000Y42334D02*
Y47452D01*
X81000Y54048D02*
Y59166D01*
X29486Y3441D02*
Y8559D01*
X23187Y23500D02*
X28305D01*
X39500Y27941D02*
Y33059D01*
X39500Y42334D02*
Y47452D01*
X39500Y54048D02*
Y59166D01*
X128937Y3941D02*
Y9059D01*
X122378Y24000D02*
X127496D01*
X138437Y28441D02*
Y33559D01*
X138437Y41941D02*
Y47059D01*
X138500Y55441D02*
Y60559D01*
X188437Y3941D02*
Y9059D01*
X189618Y24000D02*
X194736D01*
X178437Y55441D02*
Y60559D01*
X178437Y41941D02*
Y47059D01*
X178437Y28441D02*
Y33559D01*
X157937Y64941D02*
Y70059D01*
X286941Y186500D02*
X292059D01*
X277941D02*
X283059D01*
X143941Y187000D02*
X149059D01*
X134441Y187000D02*
X139559D01*
X163441Y187000D02*
X168559D01*
X154441Y187000D02*
X159559D01*
X182441Y187000D02*
X187559D01*
X173441Y187000D02*
X178559D01*
X254941Y186500D02*
X260059D01*
X263941Y186437D02*
X269059D01*
X245941Y186500D02*
X251059D01*
X255941Y307000D02*
X261059D01*
X246941D02*
X252059D01*
X237941D02*
X243059D01*
X61941Y298500D02*
X67059D01*
X161941Y298000D02*
X167059D01*
X113441Y298000D02*
X118559D01*
D33*
X369362Y21599D02*
Y20100D01*
X369862Y19600D01*
X370862D01*
X371361Y20100D01*
Y21599D01*
Y23099D02*
Y24099D01*
X370862Y24598D01*
X369862D01*
X369362Y24099D01*
Y23099D01*
X369862Y22599D01*
X370862D01*
X371361Y23099D01*
Y25598D02*
X369362D01*
Y27098D01*
X369862Y27597D01*
X371361D01*
X368862Y29097D02*
X369362D01*
Y28597D01*
Y29597D01*
Y29097D01*
X370862D01*
X371361Y29597D01*
X369362Y31096D02*
X371361D01*
X370362D01*
X369862Y31596D01*
X369362Y32096D01*
Y32596D01*
X371361Y34595D02*
Y35595D01*
X370862Y36095D01*
X369862D01*
X369362Y35595D01*
Y34595D01*
X369862Y34095D01*
X370862D01*
X371361Y34595D01*
Y37094D02*
Y38094D01*
Y37594D01*
X368362D01*
Y37094D01*
X371361Y40093D02*
Y41093D01*
X370862Y41593D01*
X369862D01*
X369362Y41093D01*
Y40093D01*
X369862Y39593D01*
X370862D01*
X371361Y40093D01*
Y45592D02*
X368362D01*
Y47091D01*
X368862Y47591D01*
X369862D01*
X370362Y47091D01*
Y45592D01*
Y46591D02*
X371361Y47591D01*
X368362Y50590D02*
Y48591D01*
X371361D01*
Y50590D01*
X369862Y48591D02*
Y49590D01*
X368362Y51590D02*
X370362D01*
X371361Y52589D01*
X370362Y53589D01*
X368362D01*
X368862Y54589D02*
X368362Y55089D01*
Y56088D01*
X368862Y56588D01*
X369362D01*
X369862Y56088D01*
Y55588D01*
Y56088D01*
X370362Y56588D01*
X370862D01*
X371361Y56088D01*
Y55089D01*
X370862Y54589D01*
X371361Y57588D02*
X370862D01*
Y58087D01*
X371361D01*
Y57588D01*
X368862Y60087D02*
X368362Y60587D01*
Y61586D01*
X368862Y62086D01*
X370862D01*
X371361Y61586D01*
Y60587D01*
X370862Y60087D01*
X368862D01*
X374401Y19600D02*
X376400Y20600D01*
X374401Y21599D01*
X376400Y22599D02*
X375901D01*
Y23099D01*
X376400D01*
Y22599D01*
Y25098D02*
X374401D01*
Y25598D01*
X374901Y26098D01*
X376400D01*
X374901D01*
X374401Y26598D01*
X374901Y27098D01*
X376400D01*
Y28597D02*
Y29597D01*
X375901Y30097D01*
X374901D01*
X374401Y29597D01*
Y28597D01*
X374901Y28097D01*
X375901D01*
X376400Y28597D01*
X374401Y31096D02*
X376400D01*
X375401D01*
X374901Y31596D01*
X374401Y32096D01*
Y32596D01*
Y34595D02*
Y35595D01*
X374901Y36095D01*
X376400D01*
Y34595D01*
X375901Y34095D01*
X375401Y34595D01*
Y36095D01*
X376400Y37094D02*
Y38094D01*
Y37594D01*
X374401D01*
Y37094D01*
X376400Y39593D02*
Y41093D01*
X375901Y41593D01*
X375401Y41093D01*
Y40093D01*
X374901Y39593D01*
X374401Y40093D01*
Y41593D01*
X375401Y44092D02*
X374901D01*
Y43592D01*
X375401D01*
Y44092D01*
X374901Y44592D01*
X373901D01*
X373401Y44092D01*
Y43092D01*
X373901Y42593D01*
X375901D01*
X376400Y43092D01*
Y44592D01*
Y46091D02*
X373901D01*
X374901D01*
Y45592D01*
Y46591D01*
Y46091D01*
X373901D01*
X373401Y46591D01*
X376400Y49590D02*
Y48591D01*
X375901Y48091D01*
X374901D01*
X374401Y48591D01*
Y49590D01*
X374901Y50090D01*
X375401D01*
Y48091D01*
X376400Y51090D02*
X375901D01*
Y51590D01*
X376400D01*
Y51090D01*
X374401Y53589D02*
X375901D01*
X376400Y54089D01*
Y55588D01*
X374401D01*
X377400Y56588D02*
X374401D01*
Y58087D01*
X374901Y58587D01*
X375901D01*
X376400Y58087D01*
Y56588D01*
Y59587D02*
X375901D01*
Y60087D01*
X376400D01*
Y59587D01*
X377400Y62086D02*
X374401D01*
Y63586D01*
X374901Y64086D01*
X375901D01*
X376400Y63586D01*
Y62086D01*
X373901Y65585D02*
X374401D01*
Y65085D01*
Y66085D01*
Y65585D01*
X375901D01*
X376400Y66085D01*
X63295Y129950D02*
X62795Y130449D01*
X61795D01*
X61295Y129950D01*
Y127950D01*
X61795Y127450D01*
X62795D01*
X63295Y127950D01*
X64294Y127450D02*
X65294D01*
X64794D01*
Y130449D01*
X64294Y129950D01*
X68793Y130449D02*
X66794D01*
Y128950D01*
X67793Y129450D01*
X68293D01*
X68793Y128950D01*
Y127950D01*
X68293Y127450D01*
X67293D01*
X66794Y127950D01*
X235500Y63500D02*
Y66499D01*
X237000D01*
X237499Y65999D01*
Y65000D01*
X237000Y64500D01*
X235500D01*
X236500D02*
X237499Y63500D01*
X240498Y66499D02*
X239499Y65999D01*
X238499Y65000D01*
Y64000D01*
X238999Y63500D01*
X239999D01*
X240498Y64000D01*
Y64500D01*
X239999Y65000D01*
X238499D01*
X242998Y63500D02*
Y66499D01*
X241498Y65000D01*
X243497D01*
X235000Y49000D02*
Y51999D01*
X236500D01*
X236999Y51499D01*
Y50499D01*
X236500Y50000D01*
X235000D01*
X236000D02*
X236999Y49000D01*
X239998Y51999D02*
X238999Y51499D01*
X237999Y50499D01*
Y49500D01*
X238499Y49000D01*
X239498D01*
X239998Y49500D01*
Y50000D01*
X239498Y50499D01*
X237999D01*
X240998Y51499D02*
X241498Y51999D01*
X242498D01*
X242997Y51499D01*
Y50999D01*
X242498Y50499D01*
X241998D01*
X242498D01*
X242997Y50000D01*
Y49500D01*
X242498Y49000D01*
X241498D01*
X240998Y49500D01*
X234500Y36000D02*
Y38999D01*
X235999D01*
X236499Y38499D01*
Y37499D01*
X235999Y37000D01*
X234500D01*
X235500D02*
X236499Y36000D01*
X239498Y38999D02*
X238499Y38499D01*
X237499Y37499D01*
Y36500D01*
X237999Y36000D01*
X238999D01*
X239498Y36500D01*
Y37000D01*
X238999Y37499D01*
X237499D01*
X242497Y36000D02*
X240498D01*
X242497Y37999D01*
Y38499D01*
X241998Y38999D01*
X240998D01*
X240498Y38499D01*
X221000Y34000D02*
Y36999D01*
X222499D01*
X222999Y36499D01*
Y35500D01*
X222499Y35000D01*
X221000D01*
X222000D02*
X222999Y34000D01*
X225998Y36999D02*
X224999Y36499D01*
X223999Y35500D01*
Y34500D01*
X224499Y34000D01*
X225499D01*
X225998Y34500D01*
Y35000D01*
X225499Y35500D01*
X223999D01*
X226998Y34000D02*
X227998D01*
X227498D01*
Y36999D01*
X226998Y36499D01*
X230000Y12000D02*
Y14999D01*
X231500D01*
X231999Y14499D01*
Y13499D01*
X231500Y13000D01*
X230000D01*
X231000D02*
X231999Y12000D01*
X234998Y14999D02*
X233999Y14499D01*
X232999Y13499D01*
Y12500D01*
X233499Y12000D01*
X234499D01*
X234998Y12500D01*
Y13000D01*
X234499Y13499D01*
X232999D01*
X235998Y14499D02*
X236498Y14999D01*
X237498D01*
X237997Y14499D01*
Y12500D01*
X237498Y12000D01*
X236498D01*
X235998Y12500D01*
Y14499D01*
X275500Y63500D02*
Y66499D01*
X276999D01*
X277499Y65999D01*
Y65000D01*
X276999Y64500D01*
X275500D01*
X276500D02*
X277499Y63500D01*
X280498Y66499D02*
X278499D01*
Y65000D01*
X279499Y65499D01*
X279998D01*
X280498Y65000D01*
Y64000D01*
X279998Y63500D01*
X278999D01*
X278499Y64000D01*
X282998Y63500D02*
Y66499D01*
X281498Y65000D01*
X283497D01*
X278500Y49500D02*
Y52499D01*
X279999D01*
X280499Y51999D01*
Y50999D01*
X279999Y50500D01*
X278500D01*
X279500D02*
X280499Y49500D01*
X283498Y52499D02*
X281499D01*
Y50999D01*
X282499Y51499D01*
X282998D01*
X283498Y50999D01*
Y50000D01*
X282998Y49500D01*
X281999D01*
X281499Y50000D01*
X284498Y51999D02*
X284998Y52499D01*
X285998D01*
X286497Y51999D01*
Y51499D01*
X285998Y50999D01*
X285498D01*
X285998D01*
X286497Y50500D01*
Y50000D01*
X285998Y49500D01*
X284998D01*
X284498Y50000D01*
X278000Y36000D02*
Y38999D01*
X279500D01*
X279999Y38499D01*
Y37499D01*
X279500Y37000D01*
X278000D01*
X279000D02*
X279999Y36000D01*
X282998Y38999D02*
X280999D01*
Y37499D01*
X281999Y37999D01*
X282499D01*
X282998Y37499D01*
Y36500D01*
X282499Y36000D01*
X281499D01*
X280999Y36500D01*
X285997Y36000D02*
X283998D01*
X285997Y37999D01*
Y38499D01*
X285498Y38999D01*
X284498D01*
X283998Y38499D01*
X292000Y33000D02*
Y35999D01*
X293499D01*
X293999Y35499D01*
Y34499D01*
X293499Y34000D01*
X292000D01*
X293000D02*
X293999Y33000D01*
X296998Y35999D02*
X294999D01*
Y34499D01*
X295999Y34999D01*
X296498D01*
X296998Y34499D01*
Y33500D01*
X296498Y33000D01*
X295499D01*
X294999Y33500D01*
X297998Y33000D02*
X298998D01*
X298498D01*
Y35999D01*
X297998Y35499D01*
X280000Y13500D02*
Y16499D01*
X281500D01*
X281999Y15999D01*
Y14999D01*
X281500Y14500D01*
X280000D01*
X281000D02*
X281999Y13500D01*
X284998Y16499D02*
X282999D01*
Y14999D01*
X283999Y15499D01*
X284499D01*
X284998Y14999D01*
Y14000D01*
X284499Y13500D01*
X283499D01*
X282999Y14000D01*
X285998Y15999D02*
X286498Y16499D01*
X287498D01*
X287997Y15999D01*
Y14000D01*
X287498Y13500D01*
X286498D01*
X285998Y14000D01*
Y15999D01*
X255000Y71500D02*
Y74499D01*
X256500D01*
X256999Y73999D01*
Y73000D01*
X256500Y72500D01*
X255000D01*
X256000D02*
X256999Y71500D01*
X259499D02*
Y74499D01*
X257999Y73000D01*
X259998D01*
X260998Y73999D02*
X261498Y74499D01*
X262498D01*
X262997Y73999D01*
Y73499D01*
X262498Y73000D01*
X262997Y72500D01*
Y72000D01*
X262498Y71500D01*
X261498D01*
X260998Y72000D01*
Y72500D01*
X261498Y73000D01*
X260998Y73499D01*
Y73999D01*
X261498Y73000D02*
X262498D01*
X265295Y128950D02*
X264795Y129449D01*
X263795D01*
X263295Y128950D01*
Y126950D01*
X263795Y126450D01*
X264795D01*
X265295Y126950D01*
X266294Y126450D02*
X267294D01*
X266794D01*
Y129449D01*
X266294Y128950D01*
X270793Y126450D02*
X268794D01*
X270793Y128450D01*
Y128950D01*
X270293Y129449D01*
X269293D01*
X268794Y128950D01*
X257999Y51499D02*
X257500Y51999D01*
X256500D01*
X256000Y51499D01*
Y49500D01*
X256500Y49000D01*
X257500D01*
X257999Y49500D01*
X258999Y49000D02*
X259999D01*
X259499D01*
Y51999D01*
X258999Y51499D01*
X261498D02*
X261998Y51999D01*
X262998D01*
X263498Y51499D01*
Y49500D01*
X262998Y49000D01*
X261998D01*
X261498Y49500D01*
Y51499D01*
X285499Y92499D02*
X284999Y92999D01*
X284000D01*
X283500Y92499D01*
Y90500D01*
X284000Y90000D01*
X284999D01*
X285499Y90500D01*
X288498Y92999D02*
X287499Y92499D01*
X286499Y91500D01*
Y90500D01*
X286999Y90000D01*
X287999D01*
X288498Y90500D01*
Y91000D01*
X287999Y91500D01*
X286499D01*
X82795Y95450D02*
X82295Y95949D01*
X81295D01*
X80795Y95450D01*
Y93450D01*
X81295Y92950D01*
X82295D01*
X82795Y93450D01*
X83794Y95450D02*
X84294Y95949D01*
X85294D01*
X85794Y95450D01*
Y94950D01*
X85294Y94450D01*
X85794Y93950D01*
Y93450D01*
X85294Y92950D01*
X84294D01*
X83794Y93450D01*
Y93950D01*
X84294Y94450D01*
X83794Y94950D01*
Y95450D01*
X84294Y94450D02*
X85294D01*
X57999Y49999D02*
X57499Y50499D01*
X56500D01*
X56000Y49999D01*
Y48000D01*
X56500Y47500D01*
X57499D01*
X57999Y48000D01*
X58999Y47500D02*
X59999D01*
X59499D01*
Y50499D01*
X58999Y49999D01*
X61498D02*
X61998Y50499D01*
X62998D01*
X63498Y49999D01*
Y49499D01*
X62998Y49000D01*
X62498D01*
X62998D01*
X63498Y48500D01*
Y48000D01*
X62998Y47500D01*
X61998D01*
X61498Y48000D01*
X52595Y71850D02*
Y74849D01*
X54095D01*
X54595Y74350D01*
Y73350D01*
X54095Y72850D01*
X52595D01*
X53595D02*
X54595Y71850D01*
X57094D02*
Y74849D01*
X55594Y73350D01*
X57594D01*
X58593Y72350D02*
X59093Y71850D01*
X60093D01*
X60593Y72350D01*
Y74350D01*
X60093Y74849D01*
X59093D01*
X58593Y74350D01*
Y73850D01*
X59093Y73350D01*
X60593D01*
X83895Y12850D02*
Y15849D01*
X85395D01*
X85895Y15350D01*
Y14350D01*
X85395Y13850D01*
X83895D01*
X84895D02*
X85895Y12850D01*
X88894Y15849D02*
X86894D01*
Y14350D01*
X87894Y14850D01*
X88394D01*
X88894Y14350D01*
Y13350D01*
X88394Y12850D01*
X87394D01*
X86894Y13350D01*
X91893Y15849D02*
X89893D01*
Y14350D01*
X90893Y14850D01*
X91393D01*
X91893Y14350D01*
Y13350D01*
X91393Y12850D01*
X90393D01*
X89893Y13350D01*
X91295Y34050D02*
Y37049D01*
X92795D01*
X93295Y36550D01*
Y35550D01*
X92795Y35050D01*
X91295D01*
X92295D02*
X93295Y34050D01*
X96294Y37049D02*
X94294D01*
Y35550D01*
X95294Y36050D01*
X95794D01*
X96294Y35550D01*
Y34550D01*
X95794Y34050D01*
X94794D01*
X94294Y34550D01*
X99293Y37049D02*
X98293Y36550D01*
X97293Y35550D01*
Y34550D01*
X97793Y34050D01*
X98793D01*
X99293Y34550D01*
Y35050D01*
X98793Y35550D01*
X97293D01*
X73595Y37350D02*
Y40349D01*
X75095D01*
X75595Y39850D01*
Y38850D01*
X75095Y38350D01*
X73595D01*
X74595D02*
X75595Y37350D01*
X78594Y40349D02*
X76594D01*
Y38850D01*
X77594Y39350D01*
X78094D01*
X78594Y38850D01*
Y37850D01*
X78094Y37350D01*
X77094D01*
X76594Y37850D01*
X79593Y40349D02*
X81593D01*
Y39850D01*
X79593Y37850D01*
Y37350D01*
X73595Y51750D02*
Y54749D01*
X75095D01*
X75595Y54250D01*
Y53250D01*
X75095Y52750D01*
X73595D01*
X74595D02*
X75595Y51750D01*
X78594Y54749D02*
X76594D01*
Y53250D01*
X77594Y53750D01*
X78094D01*
X78594Y53250D01*
Y52250D01*
X78094Y51750D01*
X77094D01*
X76594Y52250D01*
X79593Y54250D02*
X80093Y54749D01*
X81093D01*
X81593Y54250D01*
Y53750D01*
X81093Y53250D01*
X81593Y52750D01*
Y52250D01*
X81093Y51750D01*
X80093D01*
X79593Y52250D01*
Y52750D01*
X80093Y53250D01*
X79593Y53750D01*
Y54250D01*
X80093Y53250D02*
X81093D01*
X73595Y63450D02*
Y66449D01*
X75095D01*
X75595Y65950D01*
Y64950D01*
X75095Y64450D01*
X73595D01*
X74595D02*
X75595Y63450D01*
X78594Y66449D02*
X76594D01*
Y64950D01*
X77594Y65450D01*
X78094D01*
X78594Y64950D01*
Y63950D01*
X78094Y63450D01*
X77094D01*
X76594Y63950D01*
X79593D02*
X80093Y63450D01*
X81093D01*
X81593Y63950D01*
Y65950D01*
X81093Y66449D01*
X80093D01*
X79593Y65950D01*
Y65450D01*
X80093Y64950D01*
X81593D01*
X22095Y12850D02*
Y15849D01*
X23595D01*
X24095Y15350D01*
Y14350D01*
X23595Y13850D01*
X22095D01*
X23095D02*
X24095Y12850D01*
X27094Y15849D02*
X26094Y15350D01*
X25094Y14350D01*
Y13350D01*
X25594Y12850D01*
X26594D01*
X27094Y13350D01*
Y13850D01*
X26594Y14350D01*
X25094D01*
X30093Y15849D02*
X28093D01*
Y14350D01*
X29093Y14850D01*
X29593D01*
X30093Y14350D01*
Y13350D01*
X29593Y12850D01*
X28593D01*
X28093Y13350D01*
X22095Y34050D02*
Y37049D01*
X23595D01*
X24095Y36550D01*
Y35550D01*
X23595Y35050D01*
X22095D01*
X23095D02*
X24095Y34050D01*
X27094Y37049D02*
X26094Y36550D01*
X25094Y35550D01*
Y34550D01*
X25594Y34050D01*
X26594D01*
X27094Y34550D01*
Y35050D01*
X26594Y35550D01*
X25094D01*
X30093Y37049D02*
X29093Y36550D01*
X28093Y35550D01*
Y34550D01*
X28593Y34050D01*
X29593D01*
X30093Y34550D01*
Y35050D01*
X29593Y35550D01*
X28093D01*
X32095Y37350D02*
Y40349D01*
X33595D01*
X34095Y39850D01*
Y38850D01*
X33595Y38350D01*
X32095D01*
X33095D02*
X34095Y37350D01*
X37094Y40349D02*
X36094Y39850D01*
X35094Y38850D01*
Y37850D01*
X35594Y37350D01*
X36594D01*
X37094Y37850D01*
Y38350D01*
X36594Y38850D01*
X35094D01*
X38093Y40349D02*
X40093D01*
Y39850D01*
X38093Y37850D01*
Y37350D01*
X32095Y51750D02*
Y54749D01*
X33595D01*
X34095Y54250D01*
Y53250D01*
X33595Y52750D01*
X32095D01*
X33095D02*
X34095Y51750D01*
X37094Y54749D02*
X36094Y54250D01*
X35094Y53250D01*
Y52250D01*
X35594Y51750D01*
X36594D01*
X37094Y52250D01*
Y52750D01*
X36594Y53250D01*
X35094D01*
X38093Y54250D02*
X38593Y54749D01*
X39593D01*
X40093Y54250D01*
Y53750D01*
X39593Y53250D01*
X40093Y52750D01*
Y52250D01*
X39593Y51750D01*
X38593D01*
X38093Y52250D01*
Y52750D01*
X38593Y53250D01*
X38093Y53750D01*
Y54250D01*
X38593Y53250D02*
X39593D01*
X32095Y63450D02*
Y66449D01*
X33595D01*
X34095Y65950D01*
Y64950D01*
X33595Y64450D01*
X32095D01*
X33095D02*
X34095Y63450D01*
X37094Y66449D02*
X36094Y65950D01*
X35094Y64950D01*
Y63950D01*
X35594Y63450D01*
X36594D01*
X37094Y63950D01*
Y64450D01*
X36594Y64950D01*
X35094D01*
X38093Y63950D02*
X38593Y63450D01*
X39593D01*
X40093Y63950D01*
Y65950D01*
X39593Y66449D01*
X38593D01*
X38093Y65950D01*
Y65450D01*
X38593Y64950D01*
X40093D01*
X158295Y128950D02*
X157795Y129449D01*
X156795D01*
X156295Y128950D01*
Y126950D01*
X156795Y126450D01*
X157795D01*
X158295Y126950D01*
X161294Y129449D02*
X159294D01*
Y127950D01*
X160294Y128450D01*
X160794D01*
X161294Y127950D01*
Y126950D01*
X160794Y126450D01*
X159794D01*
X159294Y126950D01*
X158436Y52499D02*
X157937Y52999D01*
X156937D01*
X156437Y52499D01*
Y50500D01*
X156937Y50000D01*
X157937D01*
X158436Y50500D01*
X159436Y52499D02*
X159936Y52999D01*
X160935D01*
X161435Y52499D01*
Y51999D01*
X160935Y51499D01*
X160436D01*
X160935D01*
X161435Y51000D01*
Y50500D01*
X160935Y50000D01*
X159936D01*
X159436Y50500D01*
X182695Y95450D02*
X182195Y95949D01*
X181195D01*
X180695Y95450D01*
Y93450D01*
X181195Y92950D01*
X182195D01*
X182695Y93450D01*
X185694Y92950D02*
X183694D01*
X185694Y94950D01*
Y95450D01*
X185194Y95949D01*
X184194D01*
X183694Y95450D01*
X128937Y13000D02*
Y15999D01*
X130437D01*
X130936Y15499D01*
Y14500D01*
X130437Y14000D01*
X128937D01*
X129937D02*
X130936Y13000D01*
X133435D02*
Y15999D01*
X131936Y14500D01*
X133935D01*
X134935Y15499D02*
X135435Y15999D01*
X136435D01*
X136934Y15499D01*
Y13500D01*
X136435Y13000D01*
X135435D01*
X134935Y13500D01*
Y15499D01*
X120937Y33500D02*
Y36499D01*
X122436D01*
X122936Y35999D01*
Y34999D01*
X122436Y34500D01*
X120937D01*
X121937D02*
X122936Y33500D01*
X125435D02*
Y36499D01*
X123936Y34999D01*
X125935D01*
X126935Y33500D02*
X127935D01*
X127435D01*
Y36499D01*
X126935Y35999D01*
X134437Y36500D02*
Y39499D01*
X135936D01*
X136436Y38999D01*
Y37999D01*
X135936Y37500D01*
X134437D01*
X135437D02*
X136436Y36500D01*
X138935D02*
Y39499D01*
X137436Y37999D01*
X139435D01*
X142434Y36500D02*
X140435D01*
X142434Y38499D01*
Y38999D01*
X141935Y39499D01*
X140935D01*
X140435Y38999D01*
X133937Y49500D02*
Y52499D01*
X135436D01*
X135936Y51999D01*
Y50999D01*
X135436Y50500D01*
X133937D01*
X134937D02*
X135936Y49500D01*
X138435D02*
Y52499D01*
X136936Y50999D01*
X138935D01*
X139935Y51999D02*
X140435Y52499D01*
X141435D01*
X141934Y51999D01*
Y51499D01*
X141435Y50999D01*
X140935D01*
X141435D01*
X141934Y50500D01*
Y50000D01*
X141435Y49500D01*
X140435D01*
X139935Y50000D01*
X134437Y64000D02*
Y66999D01*
X135936D01*
X136436Y66499D01*
Y65500D01*
X135936Y65000D01*
X134437D01*
X135437D02*
X136436Y64000D01*
X138935D02*
Y66999D01*
X137436Y65500D01*
X139435D01*
X141935Y64000D02*
Y66999D01*
X140435Y65500D01*
X142434D01*
X182437Y12500D02*
Y15499D01*
X183937D01*
X184436Y14999D01*
Y13999D01*
X183937Y13500D01*
X182437D01*
X183437D02*
X184436Y12500D01*
X185436Y14999D02*
X185936Y15499D01*
X186935D01*
X187435Y14999D01*
Y14499D01*
X186935Y13999D01*
X186436D01*
X186935D01*
X187435Y13500D01*
Y13000D01*
X186935Y12500D01*
X185936D01*
X185436Y13000D01*
X189935Y12500D02*
Y15499D01*
X188435Y13999D01*
X190434D01*
X188495Y34550D02*
Y37549D01*
X189995D01*
X190495Y37050D01*
Y36050D01*
X189995Y35550D01*
X188495D01*
X189495D02*
X190495Y34550D01*
X191494Y37050D02*
X191994Y37549D01*
X192994D01*
X193494Y37050D01*
Y36550D01*
X192994Y36050D01*
X192494D01*
X192994D01*
X193494Y35550D01*
Y35050D01*
X192994Y34550D01*
X191994D01*
X191494Y35050D01*
X196493Y37549D02*
X194493D01*
Y36050D01*
X195493Y36550D01*
X195993D01*
X196493Y36050D01*
Y35050D01*
X195993Y34550D01*
X194993D01*
X194493Y35050D01*
X171437Y63500D02*
Y66499D01*
X172936D01*
X173436Y65999D01*
Y65000D01*
X172936Y64500D01*
X171437D01*
X172437D02*
X173436Y63500D01*
X174436Y65999D02*
X174936Y66499D01*
X175935D01*
X176435Y65999D01*
Y65499D01*
X175935Y65000D01*
X175436D01*
X175935D01*
X176435Y64500D01*
Y64000D01*
X175935Y63500D01*
X174936D01*
X174436Y64000D01*
X177435Y65999D02*
X177935Y66499D01*
X178935D01*
X179434Y65999D01*
Y65499D01*
X178935Y65000D01*
X179434Y64500D01*
Y64000D01*
X178935Y63500D01*
X177935D01*
X177435Y64000D01*
Y64500D01*
X177935Y65000D01*
X177435Y65499D01*
Y65999D01*
X177935Y65000D02*
X178935D01*
X171437Y50000D02*
Y52999D01*
X172936D01*
X173436Y52499D01*
Y51499D01*
X172936Y51000D01*
X171437D01*
X172437D02*
X173436Y50000D01*
X174436Y52499D02*
X174936Y52999D01*
X175935D01*
X176435Y52499D01*
Y51999D01*
X175935Y51499D01*
X175436D01*
X175935D01*
X176435Y51000D01*
Y50500D01*
X175935Y50000D01*
X174936D01*
X174436Y50500D01*
X177435Y52999D02*
X179434D01*
Y52499D01*
X177435Y50500D01*
Y50000D01*
X171437Y36500D02*
Y39499D01*
X172936D01*
X173436Y38999D01*
Y37999D01*
X172936Y37500D01*
X171437D01*
X172437D02*
X173436Y36500D01*
X174436Y38999D02*
X174936Y39499D01*
X175935D01*
X176435Y38999D01*
Y38499D01*
X175935Y37999D01*
X175436D01*
X175935D01*
X176435Y37500D01*
Y37000D01*
X175935Y36500D01*
X174936D01*
X174436Y37000D01*
X179434Y39499D02*
X178435Y38999D01*
X177435Y37999D01*
Y37000D01*
X177935Y36500D01*
X178935D01*
X179434Y37000D01*
Y37500D01*
X178935Y37999D01*
X177435D01*
X153437Y73500D02*
Y76499D01*
X154937D01*
X155436Y75999D01*
Y74999D01*
X154937Y74500D01*
X153437D01*
X154437D02*
X155436Y73500D01*
X156436Y75999D02*
X156936Y76499D01*
X157936D01*
X158435Y75999D01*
Y75499D01*
X157936Y74999D01*
X157436D01*
X157936D01*
X158435Y74500D01*
Y74000D01*
X157936Y73500D01*
X156936D01*
X156436Y74000D01*
X159435Y75999D02*
X159935Y76499D01*
X160935D01*
X161434Y75999D01*
Y75499D01*
X160935Y74999D01*
X160435D01*
X160935D01*
X161434Y74500D01*
Y74000D01*
X160935Y73500D01*
X159935D01*
X159435Y74000D01*
X276895Y197050D02*
Y200049D01*
X278395D01*
X278895Y199550D01*
Y198550D01*
X278395Y198050D01*
X276895D01*
X277895D02*
X278895Y197050D01*
X279894D02*
X280894D01*
X280394D01*
Y200049D01*
X279894Y199550D01*
X284393Y197050D02*
X282394D01*
X284393Y199050D01*
Y199550D01*
X283893Y200049D01*
X282893D01*
X282394Y199550D01*
X285895Y197050D02*
Y200049D01*
X287395D01*
X287895Y199550D01*
Y198550D01*
X287395Y198050D01*
X285895D01*
X286895D02*
X287895Y197050D01*
X288894D02*
X289894D01*
X289394D01*
Y200049D01*
X288894Y199550D01*
X291393D02*
X291893Y200049D01*
X292893D01*
X293393Y199550D01*
Y199050D01*
X292893Y198550D01*
X292393D01*
X292893D01*
X293393Y198050D01*
Y197550D01*
X292893Y197050D01*
X291893D01*
X291393Y197550D01*
X172395Y197550D02*
Y200549D01*
X173895D01*
X174395Y200050D01*
Y199050D01*
X173895Y198550D01*
X172395D01*
X173395D02*
X174395Y197550D01*
X175394D02*
X176394D01*
X175894D01*
Y200549D01*
X175394Y200050D01*
X179893Y200549D02*
X177893D01*
Y199050D01*
X178893Y199550D01*
X179393D01*
X179893Y199050D01*
Y198050D01*
X179393Y197550D01*
X178393D01*
X177893Y198050D01*
X181395Y197550D02*
Y200549D01*
X182895D01*
X183395Y200050D01*
Y199050D01*
X182895Y198550D01*
X181395D01*
X182395D02*
X183395Y197550D01*
X184394D02*
X185394D01*
X184894D01*
Y200549D01*
X184394Y200050D01*
X186893Y198050D02*
X187393Y197550D01*
X188393D01*
X188893Y198050D01*
Y200050D01*
X188393Y200549D01*
X187393D01*
X186893Y200050D01*
Y199550D01*
X187393Y199050D01*
X188893D01*
X153395Y197550D02*
Y200549D01*
X154895D01*
X155395Y200050D01*
Y199050D01*
X154895Y198550D01*
X153395D01*
X154395D02*
X155395Y197550D01*
X158394D02*
X156394D01*
X158394Y199550D01*
Y200050D01*
X157894Y200549D01*
X156894D01*
X156394Y200050D01*
X161393Y197550D02*
X159393D01*
X161393Y199550D01*
Y200050D01*
X160893Y200549D01*
X159893D01*
X159393Y200050D01*
X162395Y197550D02*
Y200549D01*
X163895D01*
X164395Y200050D01*
Y199050D01*
X163895Y198550D01*
X162395D01*
X163395D02*
X164395Y197550D01*
X167394D02*
X165394D01*
X167394Y199550D01*
Y200050D01*
X166894Y200549D01*
X165894D01*
X165394Y200050D01*
X170393Y200549D02*
X168393D01*
Y199050D01*
X169393Y199550D01*
X169893D01*
X170393Y199050D01*
Y198050D01*
X169893Y197550D01*
X168893D01*
X168393Y198050D01*
X133395Y197550D02*
Y200549D01*
X134895D01*
X135395Y200050D01*
Y199050D01*
X134895Y198550D01*
X133395D01*
X134395D02*
X135395Y197550D01*
X138394D02*
X136394D01*
X138394Y199550D01*
Y200050D01*
X137894Y200549D01*
X136894D01*
X136394Y200050D01*
X139393Y200549D02*
X141393D01*
Y200050D01*
X139393Y198050D01*
Y197550D01*
X142895D02*
Y200549D01*
X144395D01*
X144895Y200050D01*
Y199050D01*
X144395Y198550D01*
X142895D01*
X143895D02*
X144895Y197550D01*
X147894D02*
X145894D01*
X147894Y199550D01*
Y200050D01*
X147394Y200549D01*
X146394D01*
X145894Y200050D01*
X148893Y198050D02*
X149393Y197550D01*
X150393D01*
X150893Y198050D01*
Y200050D01*
X150393Y200549D01*
X149393D01*
X148893Y200050D01*
Y199550D01*
X149393Y199050D01*
X150893D01*
X244895Y197050D02*
Y200049D01*
X246395D01*
X246895Y199550D01*
Y198550D01*
X246395Y198050D01*
X244895D01*
X245895D02*
X246895Y197050D01*
X249894Y200049D02*
X248894Y199550D01*
X247894Y198550D01*
Y197550D01*
X248394Y197050D01*
X249394D01*
X249894Y197550D01*
Y198050D01*
X249394Y198550D01*
X247894D01*
X253895Y197050D02*
Y200049D01*
X255395D01*
X255895Y199550D01*
Y198550D01*
X255395Y198050D01*
X253895D01*
X254895D02*
X255895Y197050D01*
X256894Y197550D02*
X257394Y197050D01*
X258394D01*
X258894Y197550D01*
Y199550D01*
X258394Y200049D01*
X257394D01*
X256894Y199550D01*
Y199050D01*
X257394Y198550D01*
X258894D01*
X262895Y197050D02*
Y200049D01*
X264395D01*
X264895Y199550D01*
Y198550D01*
X264395Y198050D01*
X262895D01*
X263895D02*
X264895Y197050D01*
X265894D02*
X266894D01*
X266394D01*
Y200049D01*
X265894Y199550D01*
X268393D02*
X268893Y200049D01*
X269893D01*
X270393Y199550D01*
Y197550D01*
X269893Y197050D01*
X268893D01*
X268393Y197550D01*
Y199550D01*
X236895Y317550D02*
Y320549D01*
X238395D01*
X238895Y320050D01*
Y319050D01*
X238395Y318550D01*
X236895D01*
X237895D02*
X238895Y317550D01*
X241894D02*
X239894D01*
X241894Y319550D01*
Y320050D01*
X241394Y320549D01*
X240394D01*
X239894Y320050D01*
X245895Y317550D02*
Y320549D01*
X247395D01*
X247895Y320050D01*
Y319050D01*
X247395Y318550D01*
X245895D01*
X246895D02*
X247895Y317550D01*
X248894Y320050D02*
X249394Y320549D01*
X250394D01*
X250894Y320050D01*
Y319550D01*
X250394Y319050D01*
X249894D01*
X250394D01*
X250894Y318550D01*
Y318050D01*
X250394Y317550D01*
X249394D01*
X248894Y318050D01*
X254895Y317550D02*
Y320549D01*
X256395D01*
X256895Y320050D01*
Y319050D01*
X256395Y318550D01*
X254895D01*
X255895D02*
X256895Y317550D01*
X257894Y320549D02*
X259894D01*
Y320050D01*
X257894Y318050D01*
Y317550D01*
X112395Y308550D02*
Y311549D01*
X113895D01*
X114395Y311050D01*
Y310050D01*
X113895Y309550D01*
X112395D01*
X113395D02*
X114395Y308550D01*
X116894D02*
Y311549D01*
X115394Y310050D01*
X117394D01*
X160895Y308550D02*
Y311549D01*
X162395D01*
X162895Y311050D01*
Y310050D01*
X162395Y309550D01*
X160895D01*
X161895D02*
X162895Y308550D01*
X165894Y311549D02*
X163894D01*
Y310050D01*
X164894Y310550D01*
X165394D01*
X165894Y310050D01*
Y309050D01*
X165394Y308550D01*
X164394D01*
X163894Y309050D01*
X60895Y309050D02*
Y312049D01*
X62395D01*
X62895Y311550D01*
Y310550D01*
X62395Y310050D01*
X60895D01*
X61895D02*
X62895Y309050D01*
X63894Y311550D02*
X64394Y312049D01*
X65394D01*
X65894Y311550D01*
Y311050D01*
X65394Y310550D01*
X65894Y310050D01*
Y309550D01*
X65394Y309050D01*
X64394D01*
X63894Y309550D01*
Y310050D01*
X64394Y310550D01*
X63894Y311050D01*
Y311550D01*
X64394Y310550D02*
X65394D01*
X344000Y-1D02*
X345999D01*
X345000D01*
Y-3000D01*
X348499Y-1D02*
X347499D01*
X346999Y-501D01*
Y-2500D01*
X347499Y-3000D01*
X348499D01*
X348998Y-2500D01*
Y-501D01*
X348499Y-1D01*
X349998Y-3000D02*
Y-1D01*
X351498D01*
X351997Y-501D01*
Y-1500D01*
X351498Y-2000D01*
X349998D01*
M02*
