G04 Layer_Color=32896*
%FSLAX26Y26*%
%MOIN*%
%TF.FileFunction,Legend,Bot*%
%TF.Part,Single*%
G01*
G75*
%TA.AperFunction,NonConductor*%
%ADD32C,0.007874*%
%ADD33C,0.009842*%
%ADD34C,0.023622*%
%ADD35C,0.005000*%
%ADD36C,0.010000*%
%ADD37C,0.006000*%
G36*
X4139000Y2298913D02*
X4147000D01*
Y2290913D01*
X4163000D01*
Y2298913D01*
X4171000D01*
Y2306913D01*
X4187000D01*
Y2298913D01*
X4195000D01*
Y2282913D01*
X4179000D01*
Y2266913D01*
X4187000D01*
Y2250913D01*
X4195000D01*
Y2058913D01*
X4187000D01*
Y2042913D01*
X4179000D01*
Y2026913D01*
X4195000D01*
Y2010913D01*
X4187000D01*
Y2002913D01*
X4179000D01*
Y2010913D01*
X4139000D01*
Y1466913D01*
X251000D01*
Y1474913D01*
X243000D01*
Y1458913D01*
X235000D01*
Y1466913D01*
X227000D01*
Y1474913D01*
X219000D01*
Y1522913D01*
X179000D01*
Y2274913D01*
X163000D01*
Y2282913D01*
X179000D01*
Y2290913D01*
X219000D01*
Y2442913D01*
X203000D01*
Y2434913D01*
X179000D01*
Y2442913D01*
X163000D01*
Y2450913D01*
X187000D01*
Y2466913D01*
X179000D01*
Y2482913D01*
X163000D01*
Y2674913D01*
X179000D01*
Y2682913D01*
X187000D01*
Y2698913D01*
X179000D01*
Y2714913D01*
X163000D01*
Y2722913D01*
X179000D01*
Y2730913D01*
X187000D01*
Y2722913D01*
X219000D01*
Y2890913D01*
X211000D01*
Y2898913D01*
X203000D01*
Y2914913D01*
X195000D01*
Y2922913D01*
X187000D01*
Y3330913D01*
X195000D01*
Y3338913D01*
X203000D01*
Y3346913D01*
X211000D01*
Y3354913D01*
X219000D01*
Y3490913D01*
X227000D01*
Y3506913D01*
X243000D01*
Y3490913D01*
X251000D01*
Y3498913D01*
X4131000D01*
Y3506913D01*
X4139000D01*
Y2298913D01*
D02*
G37*
%LPC*%
G36*
X4123000Y2282913D02*
X3971000D01*
Y2242913D01*
X3987000D01*
Y2234913D01*
X3995000D01*
Y2210913D01*
X3987000D01*
Y2202913D01*
X3971000D01*
Y2106913D01*
X3987000D01*
Y2098913D01*
X3995000D01*
Y2074913D01*
X3979000D01*
Y2066913D01*
X3971000D01*
Y2034913D01*
X4035000D01*
Y2026913D01*
X4067000D01*
Y2034913D01*
X4091000D01*
Y2026913D01*
X4123000D01*
Y2034913D01*
X4131000D01*
Y2066913D01*
X4091000D01*
Y2074913D01*
X4051000D01*
Y2082913D01*
X4043000D01*
Y2098913D01*
X4051000D01*
Y2106913D01*
X4099000D01*
Y2114913D01*
X4115000D01*
Y2106913D01*
X4131000D01*
Y2202913D01*
X4091000D01*
Y2210913D01*
X4059000D01*
Y2202913D01*
X4051000D01*
Y2210913D01*
X4043000D01*
Y2234913D01*
X4051000D01*
Y2242913D01*
X4059000D01*
Y2234913D01*
X4091000D01*
Y2242913D01*
X4131000D01*
Y2274913D01*
X4123000D01*
Y2282913D01*
D02*
G37*
G36*
X219000Y2274913D02*
X187000D01*
Y2210913D01*
X219000D01*
Y2274913D01*
D02*
G37*
G36*
Y1594913D02*
X187000D01*
Y1530913D01*
X219000D01*
Y1594913D01*
D02*
G37*
G36*
X251000Y2522913D02*
X235000D01*
Y2506913D01*
X251000D01*
Y2522913D01*
D02*
G37*
G36*
X203000Y2666913D02*
X179000D01*
Y2490913D01*
X195000D01*
Y2474913D01*
X203000D01*
Y2466913D01*
X219000D01*
Y2498913D01*
X203000D01*
Y2666913D01*
D02*
G37*
G36*
X1027000Y2274913D02*
X235000D01*
Y2218913D01*
X243000D01*
Y2074913D01*
X235000D01*
Y1922913D01*
X243000D01*
Y1914913D01*
X235000D01*
Y1738913D01*
X243000D01*
Y1594913D01*
X235000D01*
Y1530913D01*
X1027000D01*
Y2274913D01*
D02*
G37*
G36*
X219000Y1898913D02*
X187000D01*
Y1738913D01*
X219000D01*
Y1898913D01*
D02*
G37*
G36*
Y1722913D02*
X187000D01*
Y1610913D01*
X219000D01*
Y1722913D01*
D02*
G37*
G36*
Y2074913D02*
X187000D01*
Y1906913D01*
X211000D01*
Y1914913D01*
X219000D01*
Y2074913D01*
D02*
G37*
G36*
Y2202913D02*
X187000D01*
Y2082913D01*
X219000D01*
Y2202913D01*
D02*
G37*
G36*
X4163000Y2266913D02*
X4147000D01*
Y2258913D01*
X4139000D01*
Y2242913D01*
X4163000D01*
Y2074913D01*
X4147000D01*
Y2066913D01*
X4139000D01*
Y2050913D01*
X4147000D01*
Y2042913D01*
X4163000D01*
Y2066913D01*
X4171000D01*
Y2058913D01*
X4179000D01*
Y2066913D01*
X4187000D01*
Y2242913D01*
X4163000D01*
Y2266913D01*
D02*
G37*
G36*
X283000Y3346913D02*
X235000D01*
Y2906913D01*
X299000D01*
Y2914913D01*
X307000D01*
Y2938913D01*
X315000D01*
Y2962913D01*
X323000D01*
Y2994913D01*
X331000D01*
Y3002913D01*
X339000D01*
Y3050913D01*
X347000D01*
Y3178913D01*
X339000D01*
Y3226913D01*
X331000D01*
Y3242913D01*
X323000D01*
Y3266913D01*
X315000D01*
Y3290913D01*
X307000D01*
Y3314913D01*
X299000D01*
Y3330913D01*
X291000D01*
Y3338913D01*
X283000D01*
Y3346913D01*
D02*
G37*
G36*
X3099000Y3490913D02*
X1083000D01*
Y3482913D01*
X235000D01*
Y3354913D01*
X251000D01*
Y3450913D01*
X859000D01*
Y3458913D01*
X867000D01*
Y2882913D01*
X875000D01*
Y2874913D01*
X867000D01*
Y2866913D01*
X851000D01*
Y2874913D01*
X291000D01*
Y2890913D01*
X235000D01*
Y2746913D01*
X243000D01*
Y2714913D01*
X267000D01*
Y2746913D01*
X307000D01*
Y2714913D01*
X339000D01*
Y2722913D01*
X411000D01*
Y2442913D01*
X307000D01*
Y2410913D01*
X275000D01*
Y2418913D01*
X267000D01*
Y2442913D01*
X243000D01*
Y2410913D01*
X235000D01*
Y2290913D01*
X1035000D01*
Y2282913D01*
X1043000D01*
Y2274913D01*
X1035000D01*
Y1522913D01*
X235000D01*
Y1482913D01*
X1091000D01*
Y1474913D01*
X3099000D01*
Y1482913D01*
X4131000D01*
Y2010913D01*
X4099000D01*
Y1986913D01*
X4091000D01*
Y1994913D01*
X4067000D01*
Y1986913D01*
X4059000D01*
Y2010913D01*
X3955000D01*
Y2042913D01*
X3963000D01*
Y2050913D01*
X3955000D01*
Y2290913D01*
X4051000D01*
Y2298913D01*
X4059000D01*
Y2322913D01*
X4099000D01*
Y2290913D01*
X4123000D01*
Y2298913D01*
X4131000D01*
Y3482913D01*
X3099000D01*
Y3490913D01*
D02*
G37*
G36*
X299000Y3442913D02*
X275000D01*
Y3434913D01*
X267000D01*
Y3362913D01*
X291000D01*
Y3354913D01*
X307000D01*
Y3330913D01*
X315000D01*
Y3314913D01*
X323000D01*
Y3290913D01*
X331000D01*
Y3274913D01*
X339000D01*
Y3258913D01*
X347000D01*
Y3226913D01*
X355000D01*
Y3170913D01*
X363000D01*
Y3058913D01*
X355000D01*
Y3010913D01*
X347000D01*
Y2978913D01*
X339000D01*
Y2962913D01*
X331000D01*
Y2938913D01*
X323000D01*
Y2922913D01*
X315000D01*
Y2898913D01*
X307000D01*
Y2882913D01*
X859000D01*
Y2914913D01*
X827000D01*
Y2906913D01*
X819000D01*
Y2938913D01*
X859000D01*
Y2986913D01*
X819000D01*
Y3010913D01*
X859000D01*
Y3138913D01*
X827000D01*
Y3130913D01*
X819000D01*
Y3162913D01*
X859000D01*
Y3210913D01*
X819000D01*
Y3234913D01*
X835000D01*
Y3226913D01*
X859000D01*
Y3434913D01*
X339000D01*
Y3394913D01*
X307000D01*
Y3434913D01*
X299000D01*
Y3442913D01*
D02*
G37*
G36*
X219000Y3330913D02*
X203000D01*
Y2914913D01*
X219000D01*
Y3330913D01*
D02*
G37*
G36*
X251000Y2658913D02*
X235000D01*
Y2634913D01*
X251000D01*
Y2658913D01*
D02*
G37*
G36*
X395000Y2706913D02*
X243000D01*
Y2674913D01*
X235000D01*
Y2666913D01*
X251000D01*
Y2674913D01*
X275000D01*
Y2658913D01*
X323000D01*
Y2634913D01*
X275000D01*
Y2618913D01*
X251000D01*
Y2626913D01*
X235000D01*
Y2618913D01*
X243000D01*
Y2538913D01*
X235000D01*
Y2530913D01*
X251000D01*
Y2538913D01*
X275000D01*
Y2522913D01*
X323000D01*
Y2498913D01*
X275000D01*
Y2490913D01*
X267000D01*
Y2482913D01*
X251000D01*
Y2490913D01*
X235000D01*
Y2482913D01*
X243000D01*
Y2450913D01*
X395000D01*
Y2498913D01*
X387000D01*
Y2490913D01*
X379000D01*
Y2498913D01*
X371000D01*
Y2522913D01*
X395000D01*
Y2634913D01*
X371000D01*
Y2658913D01*
X395000D01*
Y2706913D01*
D02*
G37*
G36*
X219000Y2690913D02*
X203000D01*
Y2666913D01*
X211000D01*
Y2658913D01*
X219000D01*
Y2690913D01*
D02*
G37*
%LPD*%
G36*
X3083000Y3458913D02*
X3099000D01*
Y3450913D01*
X3107000D01*
Y3226913D01*
X3099000D01*
Y3218913D01*
X3083000D01*
Y3210913D01*
X1099000D01*
Y3218913D01*
X1091000D01*
Y3226913D01*
X1083000D01*
Y3458913D01*
X1099000D01*
Y3466913D01*
X1107000D01*
Y3474913D01*
X1115000D01*
Y3466913D01*
X3075000D01*
Y3474913D01*
X3083000D01*
Y3458913D01*
D02*
G37*
G36*
X3091000Y1746913D02*
X3099000D01*
Y1738913D01*
X3107000D01*
Y1514913D01*
X3099000D01*
Y1506913D01*
X3083000D01*
Y1498913D01*
X1107000D01*
Y1506913D01*
X1091000D01*
Y1514913D01*
X1083000D01*
Y1738913D01*
X1091000D01*
Y1522913D01*
X1099000D01*
Y1514913D01*
X1123000D01*
Y1506913D01*
X3059000D01*
Y1514913D01*
X3091000D01*
Y1738913D01*
X1091000D01*
Y1746913D01*
X1099000D01*
Y1754913D01*
X3091000D01*
Y1746913D01*
D02*
G37*
G36*
X3243000Y2042913D02*
X3251000D01*
Y1618913D01*
X3243000D01*
Y1610913D01*
X3227000D01*
Y1602913D01*
X3219000D01*
Y1610913D01*
X3203000D01*
Y1626913D01*
X3195000D01*
Y1642913D01*
X3203000D01*
Y2018913D01*
X3195000D01*
Y2034913D01*
X3203000D01*
Y2050913D01*
X3243000D01*
Y2042913D01*
D02*
G37*
G36*
X2155000Y2874913D02*
X2163000D01*
Y2866913D01*
X2171000D01*
Y2858913D01*
X2179000D01*
Y2850913D01*
X2187000D01*
Y2842913D01*
X2203000D01*
Y2826913D01*
X2211000D01*
Y2818913D01*
X2219000D01*
Y2810913D01*
X2227000D01*
Y2802913D01*
X2235000D01*
Y2794913D01*
X2243000D01*
Y2786913D01*
X2251000D01*
Y2778913D01*
X2267000D01*
Y2762913D01*
X2275000D01*
Y2754913D01*
X2283000D01*
Y2746913D01*
X2291000D01*
Y2738913D01*
X2299000D01*
Y2730913D01*
X2307000D01*
Y2722913D01*
X2315000D01*
Y2714913D01*
X2323000D01*
Y2706913D01*
X2331000D01*
Y2698913D01*
X2339000D01*
Y2690913D01*
X2347000D01*
Y2682913D01*
X2355000D01*
Y2674913D01*
X2363000D01*
Y2666913D01*
X2371000D01*
Y2658913D01*
X2379000D01*
Y2650913D01*
X2387000D01*
Y2642913D01*
X2395000D01*
Y2634913D01*
X2403000D01*
Y2626913D01*
X2411000D01*
Y2618913D01*
X2419000D01*
Y2610913D01*
X2427000D01*
Y2602913D01*
X2435000D01*
Y2594913D01*
X2443000D01*
Y2586913D01*
X2451000D01*
Y2578913D01*
X2467000D01*
Y2562913D01*
X2475000D01*
Y2554913D01*
X2483000D01*
Y2546913D01*
X2491000D01*
Y2530913D01*
X2483000D01*
Y2522913D01*
X2475000D01*
Y2490913D01*
X2467000D01*
Y2474913D01*
X2475000D01*
Y2450913D01*
X2483000D01*
Y2442913D01*
X2491000D01*
Y2434913D01*
X2499000D01*
Y2426913D01*
X2491000D01*
Y2418913D01*
X2483000D01*
Y2410913D01*
X2475000D01*
Y2402913D01*
X2467000D01*
Y2394913D01*
X2459000D01*
Y2386913D01*
X2451000D01*
Y2378913D01*
X2443000D01*
Y2370913D01*
X2435000D01*
Y2362913D01*
X2427000D01*
Y2354913D01*
X2419000D01*
Y2346913D01*
X2411000D01*
Y2338913D01*
X2403000D01*
Y2330913D01*
X2395000D01*
Y2322913D01*
X2387000D01*
Y2314913D01*
X2379000D01*
Y2306913D01*
X2371000D01*
Y2298913D01*
X2363000D01*
Y2290913D01*
X2355000D01*
Y2282913D01*
X2347000D01*
Y2274913D01*
X2339000D01*
Y2266913D01*
X2331000D01*
Y2258913D01*
X2323000D01*
Y2250913D01*
X2315000D01*
Y2242913D01*
X2307000D01*
Y2234913D01*
X2299000D01*
Y2226913D01*
X2291000D01*
Y2218913D01*
X2283000D01*
Y2210913D01*
X2275000D01*
Y2202913D01*
X2267000D01*
Y2194913D01*
X2259000D01*
Y2186913D01*
X2251000D01*
Y2178913D01*
X2243000D01*
Y2170913D01*
X2235000D01*
Y2162913D01*
X2227000D01*
Y2154913D01*
X2219000D01*
Y2146913D01*
X2211000D01*
Y2138913D01*
X2203000D01*
Y2130913D01*
X2195000D01*
Y2122913D01*
X2187000D01*
Y2114913D01*
X2179000D01*
Y2106913D01*
X2171000D01*
Y2098913D01*
X2163000D01*
Y2090913D01*
X2155000D01*
Y2082913D01*
X2139000D01*
Y2090913D01*
X2131000D01*
Y2106913D01*
X2107000D01*
Y2098913D01*
X2075000D01*
Y2106913D01*
X2051000D01*
Y2090913D01*
X2043000D01*
Y2082913D01*
X2035000D01*
Y2090913D01*
X2027000D01*
Y2098913D01*
X2019000D01*
Y2106913D01*
X2011000D01*
Y2114913D01*
X2003000D01*
Y2122913D01*
X1995000D01*
Y2130913D01*
X1987000D01*
Y2138913D01*
X1979000D01*
Y2146913D01*
X1971000D01*
Y2154913D01*
X1963000D01*
Y2162913D01*
X1955000D01*
Y2170913D01*
X1947000D01*
Y2178913D01*
X1939000D01*
Y2186913D01*
X1931000D01*
Y2194913D01*
X1923000D01*
Y2202913D01*
X1915000D01*
Y2210913D01*
X1907000D01*
Y2218913D01*
X1899000D01*
Y2226913D01*
X1891000D01*
Y2234913D01*
X1883000D01*
Y2242913D01*
X1875000D01*
Y2250913D01*
X1867000D01*
Y2258913D01*
X1859000D01*
Y2266913D01*
X1851000D01*
Y2274913D01*
X1843000D01*
Y2282913D01*
X1835000D01*
Y2290913D01*
X1827000D01*
Y2298913D01*
X1819000D01*
Y2306913D01*
X1811000D01*
Y2314913D01*
X1803000D01*
Y2322913D01*
X1795000D01*
Y2330913D01*
X1787000D01*
Y2338913D01*
X1779000D01*
Y2346913D01*
X1771000D01*
Y2354913D01*
X1763000D01*
Y2362913D01*
X1755000D01*
Y2370913D01*
X1747000D01*
Y2378913D01*
X1739000D01*
Y2386913D01*
X1731000D01*
Y2394913D01*
X1723000D01*
Y2402913D01*
X1715000D01*
Y2410913D01*
X1707000D01*
Y2418913D01*
X1699000D01*
Y2426913D01*
X1691000D01*
Y2434913D01*
X1699000D01*
Y2442913D01*
X1707000D01*
Y2450913D01*
X1715000D01*
Y2474913D01*
X1707000D01*
Y2498913D01*
X1715000D01*
Y2514913D01*
X1707000D01*
Y2522913D01*
X1699000D01*
Y2530913D01*
X1691000D01*
Y2546913D01*
X1699000D01*
Y2554913D01*
X1707000D01*
Y2562913D01*
X1723000D01*
Y2578913D01*
X1731000D01*
Y2586913D01*
X1739000D01*
Y2594913D01*
X1747000D01*
Y2602913D01*
X1755000D01*
Y2610913D01*
X1763000D01*
Y2618913D01*
X1771000D01*
Y2626913D01*
X1779000D01*
Y2634913D01*
X1787000D01*
Y2642913D01*
X1795000D01*
Y2650913D01*
X1803000D01*
Y2658913D01*
X1819000D01*
Y2674913D01*
X1827000D01*
Y2682913D01*
X1835000D01*
Y2690913D01*
X1851000D01*
Y2698913D01*
X1859000D01*
Y2714913D01*
X1867000D01*
Y2722913D01*
X1875000D01*
Y2730913D01*
X1891000D01*
Y2746913D01*
X1899000D01*
Y2754913D01*
X1907000D01*
Y2762913D01*
X1923000D01*
Y2778913D01*
X1931000D01*
Y2786913D01*
X1939000D01*
Y2794913D01*
X1947000D01*
Y2802913D01*
X1955000D01*
Y2810913D01*
X1963000D01*
Y2818913D01*
X1971000D01*
Y2826913D01*
X1979000D01*
Y2834913D01*
X1987000D01*
Y2842913D01*
X1995000D01*
Y2850913D01*
X2003000D01*
Y2858913D01*
X2011000D01*
Y2866913D01*
X2027000D01*
Y2882913D01*
X2051000D01*
Y2866913D01*
X2059000D01*
Y2858913D01*
X2075000D01*
Y2866913D01*
X2083000D01*
Y2874913D01*
X2107000D01*
Y2858913D01*
X2131000D01*
Y2874913D01*
X2139000D01*
Y2882913D01*
X2155000D01*
Y2874913D01*
D02*
G37*
G36*
X3235000Y3354913D02*
X3243000D01*
Y3346913D01*
X3251000D01*
Y2418913D01*
X3243000D01*
Y2410913D01*
X3203000D01*
Y2426913D01*
X3195000D01*
Y2442913D01*
X3203000D01*
Y3322913D01*
X3195000D01*
Y3338913D01*
X3203000D01*
Y3354913D01*
X3211000D01*
Y2418913D01*
X3227000D01*
Y2426913D01*
X3235000D01*
Y2434913D01*
X3243000D01*
Y3338913D01*
X3235000D01*
Y3346913D01*
X3227000D01*
Y3354913D01*
X3211000D01*
Y3362913D01*
X3235000D01*
Y3354913D01*
D02*
G37*
G36*
X3747000Y3178913D02*
X3755000D01*
Y3170913D01*
X3763000D01*
Y3154913D01*
X3779000D01*
Y3146913D01*
X3787000D01*
Y3138913D01*
X3795000D01*
Y3122913D01*
X3803000D01*
Y3114913D01*
X3819000D01*
Y3106913D01*
X3827000D01*
Y3090913D01*
X3835000D01*
Y3082913D01*
X3851000D01*
Y3074913D01*
X3859000D01*
Y3066913D01*
X3867000D01*
Y3050913D01*
X3883000D01*
Y3042913D01*
X3891000D01*
Y3034913D01*
X3899000D01*
Y3018913D01*
X3915000D01*
Y3010913D01*
X3923000D01*
Y3002913D01*
X3931000D01*
Y2986913D01*
X3939000D01*
Y2978913D01*
X3955000D01*
Y2970913D01*
X3963000D01*
Y2954913D01*
X3971000D01*
Y2946913D01*
X3987000D01*
Y2938913D01*
X3995000D01*
Y2922913D01*
X4003000D01*
Y2914913D01*
X4019000D01*
Y2906913D01*
X4027000D01*
Y2898913D01*
X4035000D01*
Y2882913D01*
X4051000D01*
Y2874913D01*
X4059000D01*
Y2866913D01*
X4067000D01*
Y2850913D01*
X4083000D01*
Y2826913D01*
X4067000D01*
Y2818913D01*
X4059000D01*
Y2754913D01*
X4067000D01*
Y2746913D01*
X4075000D01*
Y2738913D01*
X4083000D01*
Y2722913D01*
X4075000D01*
Y2714913D01*
X4067000D01*
Y2706913D01*
X4059000D01*
Y2698913D01*
X4051000D01*
Y2690913D01*
X4043000D01*
Y2682913D01*
X4035000D01*
Y2674913D01*
X4027000D01*
Y2666913D01*
X4019000D01*
Y2658913D01*
X4011000D01*
Y2650913D01*
X4003000D01*
Y2642913D01*
X3995000D01*
Y2634913D01*
X3987000D01*
Y2626913D01*
X3979000D01*
Y2618913D01*
X3971000D01*
Y2610913D01*
X3963000D01*
Y2602913D01*
X3955000D01*
Y2594913D01*
X3947000D01*
Y2586913D01*
X3939000D01*
Y2578913D01*
X3931000D01*
Y2570913D01*
X3923000D01*
Y2562913D01*
X3915000D01*
Y2554913D01*
X3907000D01*
Y2546913D01*
X3899000D01*
Y2538913D01*
X3891000D01*
Y2530913D01*
X3883000D01*
Y2522913D01*
X3875000D01*
Y2514913D01*
X3867000D01*
Y2506913D01*
X3859000D01*
Y2498913D01*
X3851000D01*
Y2490913D01*
X3843000D01*
Y2482913D01*
X3835000D01*
Y2474913D01*
X3827000D01*
Y2466913D01*
X3819000D01*
Y2458913D01*
X3811000D01*
Y2450913D01*
X3803000D01*
Y2442913D01*
X3795000D01*
Y2434913D01*
X3787000D01*
Y2426913D01*
X3779000D01*
Y2418913D01*
X3771000D01*
Y2410913D01*
X3763000D01*
Y2402913D01*
X3755000D01*
Y2394913D01*
X3747000D01*
Y2386913D01*
X3723000D01*
Y2402913D01*
X3643000D01*
Y2394913D01*
X3635000D01*
Y2386913D01*
X3619000D01*
Y2394913D01*
X3611000D01*
Y2410913D01*
X3595000D01*
Y2418913D01*
X3587000D01*
Y2426913D01*
X3579000D01*
Y2434913D01*
X3571000D01*
Y2442913D01*
X3563000D01*
Y2450913D01*
X3555000D01*
Y2458913D01*
X3547000D01*
Y2466913D01*
X3539000D01*
Y2474913D01*
X3531000D01*
Y2482913D01*
X3523000D01*
Y2490913D01*
X3515000D01*
Y2498913D01*
X3507000D01*
Y2514913D01*
X3491000D01*
Y2522913D01*
X3483000D01*
Y2530913D01*
X3475000D01*
Y2546913D01*
X3459000D01*
Y2554913D01*
X3451000D01*
Y2562913D01*
X3443000D01*
Y2570913D01*
X3435000D01*
Y2578913D01*
X3427000D01*
Y2586913D01*
X3419000D01*
Y2594913D01*
X3411000D01*
Y2610913D01*
X3395000D01*
Y2618913D01*
X3387000D01*
Y2626913D01*
X3379000D01*
Y2634913D01*
X3371000D01*
Y2642913D01*
X3363000D01*
Y2650913D01*
X3355000D01*
Y2658913D01*
X3347000D01*
Y2666913D01*
X3339000D01*
Y2682913D01*
X3323000D01*
Y2690913D01*
X3315000D01*
Y2698913D01*
X3307000D01*
Y2714913D01*
X3291000D01*
Y2722913D01*
X3283000D01*
Y2738913D01*
X3291000D01*
Y2746913D01*
X3299000D01*
Y2754913D01*
X3307000D01*
Y2770913D01*
X3299000D01*
Y2778913D01*
X3291000D01*
Y2794913D01*
X3299000D01*
Y2802913D01*
X3307000D01*
Y2818913D01*
X3291000D01*
Y2826913D01*
X3283000D01*
Y2850913D01*
X3291000D01*
Y2858913D01*
X3307000D01*
Y2874913D01*
X3315000D01*
Y2882913D01*
X3323000D01*
Y2890913D01*
X3339000D01*
Y2898913D01*
X3347000D01*
Y2914913D01*
X3355000D01*
Y2922913D01*
X3371000D01*
Y2930913D01*
X3379000D01*
Y2946913D01*
X3387000D01*
Y2954913D01*
X3395000D01*
Y2962913D01*
X3411000D01*
Y2970913D01*
X3419000D01*
Y2986913D01*
X3427000D01*
Y2994913D01*
X3443000D01*
Y3010913D01*
X3451000D01*
Y3018913D01*
X3459000D01*
Y3026913D01*
X3475000D01*
Y3034913D01*
X3483000D01*
Y3050913D01*
X3491000D01*
Y3058913D01*
X3507000D01*
Y3074913D01*
X3515000D01*
Y3082913D01*
X3523000D01*
Y3090913D01*
X3539000D01*
Y3098913D01*
X3547000D01*
Y3114913D01*
X3555000D01*
Y3122913D01*
X3563000D01*
Y3130913D01*
X3579000D01*
Y3146913D01*
X3587000D01*
Y3154913D01*
X3595000D01*
Y3162913D01*
X3611000D01*
Y3178913D01*
X3619000D01*
Y3186913D01*
X3635000D01*
Y3178913D01*
X3643000D01*
Y3170913D01*
X3651000D01*
Y3162913D01*
X3675000D01*
Y3178913D01*
X3691000D01*
Y3162913D01*
X3723000D01*
Y3178913D01*
X3731000D01*
Y3186913D01*
X3747000D01*
Y3178913D01*
D02*
G37*
%LPC*%
G36*
X3067000Y3458913D02*
X1123000D01*
Y3450913D01*
X1099000D01*
Y3442913D01*
X1091000D01*
Y3234913D01*
X1099000D01*
Y3226913D01*
X3091000D01*
Y3450913D01*
X3067000D01*
Y3458913D01*
D02*
G37*
G36*
X3235000Y2042913D02*
X3211000D01*
Y1618913D01*
X3227000D01*
Y1626913D01*
X3235000D01*
Y1634913D01*
X3243000D01*
Y2026913D01*
X3235000D01*
Y2042913D01*
D02*
G37*
G36*
X2107000Y2850913D02*
X2075000D01*
Y2834913D01*
X2067000D01*
Y2826913D01*
X2059000D01*
Y2818913D01*
X2051000D01*
Y2810913D01*
X2043000D01*
Y2802913D01*
X2035000D01*
Y2794913D01*
X2027000D01*
Y2786913D01*
X2019000D01*
Y2778913D01*
X2011000D01*
Y2770913D01*
X2003000D01*
Y2762913D01*
X1995000D01*
Y2754913D01*
X1987000D01*
Y2746913D01*
X1979000D01*
Y2738913D01*
X1971000D01*
Y2730913D01*
X1963000D01*
Y2722913D01*
X1955000D01*
Y2714913D01*
X1947000D01*
Y2706913D01*
X1939000D01*
Y2698913D01*
X1931000D01*
Y2690913D01*
X1923000D01*
Y2682913D01*
X1915000D01*
Y2674913D01*
X1907000D01*
Y2666913D01*
X1899000D01*
Y2658913D01*
X1891000D01*
Y2650913D01*
X1883000D01*
Y2642913D01*
X1875000D01*
Y2634913D01*
X1867000D01*
Y2626913D01*
X1859000D01*
Y2618913D01*
X1851000D01*
Y2610913D01*
X1843000D01*
Y2602913D01*
X1835000D01*
Y2594913D01*
X1827000D01*
Y2586913D01*
X1819000D01*
Y2578913D01*
X1811000D01*
Y2570913D01*
X1803000D01*
Y2562913D01*
X1795000D01*
Y2554913D01*
X1787000D01*
Y2546913D01*
X1779000D01*
Y2538913D01*
X1771000D01*
Y2530913D01*
X1763000D01*
Y2522913D01*
X1755000D01*
Y2514913D01*
X1747000D01*
Y2506913D01*
X1739000D01*
Y2498913D01*
X1731000D01*
Y2474913D01*
X1739000D01*
Y2458913D01*
X1755000D01*
Y2450913D01*
X1763000D01*
Y2442913D01*
X1771000D01*
Y2426913D01*
X1779000D01*
Y2418913D01*
X1795000D01*
Y2410913D01*
X1803000D01*
Y2402913D01*
X1811000D01*
Y2386913D01*
X1827000D01*
Y2378913D01*
X1835000D01*
Y2370913D01*
X1843000D01*
Y2354913D01*
X1859000D01*
Y2346913D01*
X1867000D01*
Y2338913D01*
X1875000D01*
Y2322913D01*
X1891000D01*
Y2314913D01*
X1899000D01*
Y2306913D01*
X1907000D01*
Y2290913D01*
X1923000D01*
Y2282913D01*
X1931000D01*
Y2274913D01*
X1939000D01*
Y2258913D01*
X1947000D01*
Y2250913D01*
X1963000D01*
Y2242913D01*
X1971000D01*
Y2234913D01*
X1979000D01*
Y2218913D01*
X1995000D01*
Y2210913D01*
X2003000D01*
Y2202913D01*
X2011000D01*
Y2186913D01*
X2027000D01*
Y2178913D01*
X2035000D01*
Y2170913D01*
X2043000D01*
Y2154913D01*
X2059000D01*
Y2146913D01*
X2067000D01*
Y2138913D01*
X2075000D01*
Y2122913D01*
X2091000D01*
Y2114913D01*
X2107000D01*
Y2130913D01*
X2115000D01*
Y2138913D01*
X2123000D01*
Y2146913D01*
X2131000D01*
Y2154913D01*
X2139000D01*
Y2162913D01*
X2147000D01*
Y2170913D01*
X2155000D01*
Y2178913D01*
X2163000D01*
Y2186913D01*
X2171000D01*
Y2194913D01*
X2179000D01*
Y2202913D01*
X2187000D01*
Y2210913D01*
X2195000D01*
Y2218913D01*
X2203000D01*
Y2226913D01*
X2211000D01*
Y2234913D01*
X2219000D01*
Y2242913D01*
X2227000D01*
Y2250913D01*
X2235000D01*
Y2258913D01*
X2243000D01*
Y2266913D01*
X2251000D01*
Y2274913D01*
X2259000D01*
Y2282913D01*
X2267000D01*
Y2290913D01*
X2275000D01*
Y2298913D01*
X2283000D01*
Y2306913D01*
X2291000D01*
Y2314913D01*
X2299000D01*
Y2322913D01*
X2307000D01*
Y2330913D01*
X2315000D01*
Y2338913D01*
X2323000D01*
Y2346913D01*
X2331000D01*
Y2354913D01*
X2339000D01*
Y2362913D01*
X2347000D01*
Y2370913D01*
X2355000D01*
Y2378913D01*
X2363000D01*
Y2386913D01*
X2371000D01*
Y2394913D01*
X2379000D01*
Y2402913D01*
X2387000D01*
Y2410913D01*
X2395000D01*
Y2418913D01*
X2403000D01*
Y2426913D01*
X2411000D01*
Y2434913D01*
X2419000D01*
Y2442913D01*
X2427000D01*
Y2450913D01*
X2435000D01*
Y2458913D01*
X2427000D01*
Y2466913D01*
X2411000D01*
Y2482913D01*
X2403000D01*
Y2490913D01*
X2411000D01*
Y2506913D01*
X2435000D01*
Y2514913D01*
X2427000D01*
Y2530913D01*
X2419000D01*
Y2538913D01*
X2411000D01*
Y2546913D01*
X2403000D01*
Y2554913D01*
X2395000D01*
Y2562913D01*
X2387000D01*
Y2570913D01*
X2379000D01*
Y2578913D01*
X2371000D01*
Y2586913D01*
X2363000D01*
Y2594913D01*
X2355000D01*
Y2602913D01*
X2347000D01*
Y2610913D01*
X2339000D01*
Y2618913D01*
X2331000D01*
Y2626913D01*
X2323000D01*
Y2634913D01*
X2315000D01*
Y2642913D01*
X2307000D01*
Y2650913D01*
X2299000D01*
Y2658913D01*
X2291000D01*
Y2666913D01*
X2283000D01*
Y2674913D01*
X2275000D01*
Y2682913D01*
X2267000D01*
Y2690913D01*
X2259000D01*
Y2698913D01*
X2251000D01*
Y2706913D01*
X2243000D01*
Y2714913D01*
X2235000D01*
Y2722913D01*
X2227000D01*
Y2730913D01*
X2219000D01*
Y2738913D01*
X2211000D01*
Y2746913D01*
X2203000D01*
Y2754913D01*
X2195000D01*
Y2762913D01*
X2187000D01*
Y2770913D01*
X2179000D01*
Y2778913D01*
X2171000D01*
Y2786913D01*
X2163000D01*
Y2794913D01*
X2155000D01*
Y2802913D01*
X2147000D01*
Y2810913D01*
X2139000D01*
Y2818913D01*
X2131000D01*
Y2826913D01*
X2123000D01*
Y2834913D01*
X2115000D01*
Y2842913D01*
X2107000D01*
Y2850913D01*
D02*
G37*
G36*
X3691000Y3154913D02*
X3667000D01*
Y3138913D01*
X3659000D01*
Y3130913D01*
X3651000D01*
Y3122913D01*
X3643000D01*
Y3114913D01*
X3635000D01*
Y3106913D01*
X3627000D01*
Y3098913D01*
X3619000D01*
Y3090913D01*
X3611000D01*
Y3082913D01*
X3603000D01*
Y3074913D01*
X3595000D01*
Y3066913D01*
X3587000D01*
Y3058913D01*
X3579000D01*
Y3050913D01*
X3571000D01*
Y3042913D01*
X3563000D01*
Y3034913D01*
X3555000D01*
Y3026913D01*
X3547000D01*
Y3018913D01*
X3539000D01*
Y3010913D01*
X3531000D01*
Y3002913D01*
X3523000D01*
Y2994913D01*
X3515000D01*
Y2986913D01*
X3507000D01*
Y2978913D01*
X3499000D01*
Y2970913D01*
X3491000D01*
Y2962913D01*
X3483000D01*
Y2954913D01*
X3475000D01*
Y2946913D01*
X3467000D01*
Y2938913D01*
X3459000D01*
Y2930913D01*
X3451000D01*
Y2922913D01*
X3443000D01*
Y2914913D01*
X3435000D01*
Y2906913D01*
X3427000D01*
Y2898913D01*
X3419000D01*
Y2890913D01*
X3411000D01*
Y2882913D01*
X3403000D01*
Y2874913D01*
X3395000D01*
Y2866913D01*
X3387000D01*
Y2858913D01*
X3379000D01*
Y2850913D01*
X3371000D01*
Y2842913D01*
X3363000D01*
Y2834913D01*
X3355000D01*
Y2826913D01*
X3347000D01*
Y2818913D01*
X3339000D01*
Y2810913D01*
X3331000D01*
Y2802913D01*
X3323000D01*
Y2794913D01*
X3315000D01*
Y2786913D01*
X3323000D01*
Y2770913D01*
X3331000D01*
Y2762913D01*
X3339000D01*
Y2754913D01*
X3347000D01*
Y2746913D01*
X3355000D01*
Y2738913D01*
X3363000D01*
Y2730913D01*
X3371000D01*
Y2722913D01*
X3379000D01*
Y2714913D01*
X3387000D01*
Y2706913D01*
X3395000D01*
Y2698913D01*
X3403000D01*
Y2690913D01*
X3411000D01*
Y2682913D01*
X3419000D01*
Y2674913D01*
X3427000D01*
Y2666913D01*
X3435000D01*
Y2658913D01*
X3443000D01*
Y2650913D01*
X3451000D01*
Y2642913D01*
X3459000D01*
Y2634913D01*
X3467000D01*
Y2626913D01*
X3475000D01*
Y2618913D01*
X3483000D01*
Y2610913D01*
X3491000D01*
Y2602913D01*
X3499000D01*
Y2594913D01*
X3507000D01*
Y2586913D01*
X3515000D01*
Y2578913D01*
X3523000D01*
Y2570913D01*
X3531000D01*
Y2562913D01*
X3539000D01*
Y2554913D01*
X3547000D01*
Y2546913D01*
X3555000D01*
Y2538913D01*
X3563000D01*
Y2530913D01*
X3571000D01*
Y2522913D01*
X3579000D01*
Y2514913D01*
X3587000D01*
Y2506913D01*
X3595000D01*
Y2498913D01*
X3603000D01*
Y2490913D01*
X3611000D01*
Y2482913D01*
X3619000D01*
Y2474913D01*
X3627000D01*
Y2466913D01*
X3635000D01*
Y2458913D01*
X3643000D01*
Y2450913D01*
X3651000D01*
Y2442913D01*
X3659000D01*
Y2434913D01*
X3667000D01*
Y2418913D01*
X3691000D01*
Y2426913D01*
X3699000D01*
Y2434913D01*
X3707000D01*
Y2442913D01*
X3715000D01*
Y2450913D01*
X3723000D01*
Y2458913D01*
X3731000D01*
Y2466913D01*
X3739000D01*
Y2474913D01*
X3747000D01*
Y2482913D01*
X3755000D01*
Y2490913D01*
X3763000D01*
Y2498913D01*
X3771000D01*
Y2506913D01*
X3779000D01*
Y2514913D01*
X3787000D01*
Y2522913D01*
X3795000D01*
Y2530913D01*
X3803000D01*
Y2538913D01*
X3811000D01*
Y2546913D01*
X3819000D01*
Y2554913D01*
X3827000D01*
Y2562913D01*
X3835000D01*
Y2570913D01*
X3843000D01*
Y2578913D01*
X3851000D01*
Y2586913D01*
X3859000D01*
Y2594913D01*
X3867000D01*
Y2602913D01*
X3875000D01*
Y2610913D01*
X3883000D01*
Y2618913D01*
X3891000D01*
Y2626913D01*
X3899000D01*
Y2634913D01*
X3907000D01*
Y2642913D01*
X3915000D01*
Y2650913D01*
X3923000D01*
Y2658913D01*
X3931000D01*
Y2666913D01*
X3939000D01*
Y2674913D01*
X3947000D01*
Y2682913D01*
X3955000D01*
Y2690913D01*
X3963000D01*
Y2698913D01*
X3971000D01*
Y2706913D01*
X3979000D01*
Y2714913D01*
X3987000D01*
Y2722913D01*
X3995000D01*
Y2730913D01*
X4003000D01*
Y2738913D01*
X4011000D01*
Y2746913D01*
X4019000D01*
Y2770913D01*
X3995000D01*
Y2794913D01*
X4003000D01*
Y2802913D01*
X4011000D01*
Y2810913D01*
X4019000D01*
Y2826913D01*
X4011000D01*
Y2834913D01*
X4003000D01*
Y2842913D01*
X3995000D01*
Y2850913D01*
X3987000D01*
Y2858913D01*
X3979000D01*
Y2866913D01*
X3971000D01*
Y2874913D01*
X3963000D01*
Y2882913D01*
X3955000D01*
Y2890913D01*
X3947000D01*
Y2898913D01*
X3939000D01*
Y2906913D01*
X3931000D01*
Y2914913D01*
X3923000D01*
Y2922913D01*
X3915000D01*
Y2930913D01*
X3907000D01*
Y2938913D01*
X3899000D01*
Y2946913D01*
X3891000D01*
Y2954913D01*
X3883000D01*
Y2962913D01*
X3875000D01*
Y2970913D01*
X3867000D01*
Y2978913D01*
X3859000D01*
Y2986913D01*
X3851000D01*
Y2994913D01*
X3843000D01*
Y3002913D01*
X3835000D01*
Y3010913D01*
X3827000D01*
Y3018913D01*
X3819000D01*
Y3026913D01*
X3811000D01*
Y3034913D01*
X3803000D01*
Y3042913D01*
X3795000D01*
Y3050913D01*
X3787000D01*
Y3058913D01*
X3779000D01*
Y3066913D01*
X3771000D01*
Y3074913D01*
X3763000D01*
Y3082913D01*
X3755000D01*
Y3090913D01*
X3747000D01*
Y3098913D01*
X3739000D01*
Y3106913D01*
X3731000D01*
Y3114913D01*
X3723000D01*
Y3122913D01*
X3715000D01*
Y3130913D01*
X3707000D01*
Y3138913D01*
X3699000D01*
Y3146913D01*
X3691000D01*
Y3154913D01*
D02*
G37*
%LPD*%
D32*
X1454370Y972067D02*
G03*
X1454370Y947067I0J-12500D01*
G01*
X480000Y967067D02*
G03*
X480000Y942067I0J-12500D01*
G01*
X2475000Y967067D02*
G03*
X2475000Y942067I0J-12500D01*
G01*
X2139409Y2275000D02*
X2190591D01*
X2134409Y2815000D02*
X2185591D01*
X2029409Y2280000D02*
X2080591D01*
X2044409Y2815000D02*
X2095591D01*
X1825000Y2309409D02*
Y2360591D01*
X1833933Y2644409D02*
Y2695591D01*
X2109409Y1385000D02*
X2160591D01*
X2199409Y1385000D02*
X2250591D01*
X564409Y1390000D02*
X615591D01*
X474409Y1390000D02*
X525591D01*
X1544409Y1390000D02*
X1595591D01*
X1454409Y1390000D02*
X1505591D01*
X1454370Y813307D02*
Y947067D01*
Y972067D02*
Y1105827D01*
X1254370D02*
X1454370D01*
X1254370Y813307D02*
Y1105827D01*
Y813307D02*
X1454370D01*
X1354409Y1308588D02*
X1405591D01*
X480000Y808307D02*
Y942067D01*
Y967067D02*
Y1100827D01*
X280000D02*
X480000D01*
X280000Y808307D02*
Y1100827D01*
Y808307D02*
X480000D01*
X384409Y1308588D02*
X435591D01*
X577709Y2491772D02*
Y2838228D01*
X451724Y2491772D02*
Y2838228D01*
X577709D01*
X451724Y2491772D02*
X577709D01*
X1072709Y2487772D02*
Y2834228D01*
X946724Y2487772D02*
Y2834228D01*
X1072709D01*
X946724Y2487772D02*
X1072709D01*
X1552709Y2466772D02*
Y2813228D01*
X1426724Y2466772D02*
Y2813228D01*
X1552709D01*
X1426724Y2466772D02*
X1552709D01*
X2398150Y-87638D02*
Y207638D01*
X2791850Y-87638D02*
Y207638D01*
X2398150Y-87638D02*
X2791850D01*
X2398150Y207638D02*
X2791850D01*
X2374409Y1308588D02*
X2425591D01*
X2475000Y808307D02*
Y942067D01*
Y967067D02*
Y1100827D01*
X2275000D02*
X2475000D01*
X2275000Y808307D02*
Y1100827D01*
Y808307D02*
X2475000D01*
X1377520Y-82638D02*
Y212638D01*
X1771220Y-82638D02*
Y212638D01*
X1377520Y-82638D02*
X1771220D01*
X1377520Y212638D02*
X1771220D01*
X393150Y-87638D02*
Y207638D01*
X786850Y-87638D02*
Y207638D01*
X393150Y-87638D02*
X786850D01*
X393150Y207638D02*
X786850D01*
X2624409Y1365000D02*
X2675591D01*
X2524409Y1365000D02*
X2575591D01*
X2944409Y1375000D02*
X2995591D01*
X2849409Y1375000D02*
X2900591D01*
X714409Y2985000D02*
X765591D01*
D33*
X626921Y2848465D02*
G03*
X626921Y2848465I-4921J0D01*
G01*
X1121921Y2844465D02*
G03*
X1121921Y2844465I-4921J0D01*
G01*
X1601921Y2823465D02*
G03*
X1601921Y2823465I-4921J0D01*
G01*
D34*
X550150Y2798858D02*
G03*
X550150Y2798858I-11811J0D01*
G01*
X1045150Y2794858D02*
G03*
X1045150Y2794858I-11811J0D01*
G01*
X1525150Y2773858D02*
G03*
X1525150Y2773858I-11811J0D01*
G01*
D35*
X2204961Y2197638D02*
Y2352362D01*
X2125039D02*
X2204961D01*
X2125039Y2197638D02*
Y2352362D01*
Y2197638D02*
X2204961D01*
X2120039Y2737638D02*
Y2892362D01*
Y2737638D02*
X2199961D01*
Y2892362D01*
X2120039D02*
X2199961D01*
X2094961Y2202638D02*
Y2357362D01*
X2015039D02*
X2094961D01*
X2015039Y2202638D02*
Y2357362D01*
Y2202638D02*
X2094961D01*
X2030039Y2737638D02*
Y2892362D01*
Y2737638D02*
X2109961D01*
Y2892362D01*
X2030039D02*
X2109961D01*
X1747638Y2295039D02*
X1902362D01*
Y2374961D01*
X1747638D02*
X1902362D01*
X1747638Y2295039D02*
Y2374961D01*
X1756571Y2630039D02*
X1911295D01*
Y2709961D01*
X1756571D02*
X1911295D01*
X1756571Y2630039D02*
Y2709961D01*
X2095039Y1307638D02*
X2174961D01*
X2095039D02*
Y1462362D01*
X2174961D01*
Y1307638D02*
Y1462362D01*
X2185039D02*
X2264961D01*
Y1307638D02*
Y1462362D01*
X2185039Y1307638D02*
X2264961D01*
X2185039D02*
Y1462362D01*
X550039Y1312638D02*
X629961D01*
X550039D02*
Y1467362D01*
X629961D01*
Y1312638D02*
Y1467362D01*
X460039D02*
X539961D01*
Y1312638D02*
Y1467362D01*
X460039Y1312638D02*
X539961D01*
X460039D02*
Y1467362D01*
X1530039Y1312638D02*
X1609961D01*
X1530039D02*
Y1467362D01*
X1609961D01*
Y1312638D02*
Y1467362D01*
X1440039D02*
X1519961D01*
Y1312638D02*
Y1467362D01*
X1440039Y1312638D02*
X1519961D01*
X1440039D02*
Y1467362D01*
X1340039Y1231226D02*
X1419961D01*
X1340039D02*
Y1385950D01*
X1419961D01*
Y1231226D02*
Y1385950D01*
X1283420Y609500D02*
Y690500D01*
X1435320D01*
X1283420Y609500D02*
X1435320D01*
Y690500D01*
X1249500Y1231226D02*
X1330500D01*
X1249500D02*
Y1383126D01*
X1330500Y1231226D02*
Y1383126D01*
X1249500D02*
X1330500D01*
X370039Y1231226D02*
X449961D01*
X370039D02*
Y1385950D01*
X449961D01*
Y1231226D02*
Y1385950D01*
X279500Y1234050D02*
X360500D01*
X279500D02*
Y1385950D01*
X360500Y1234050D02*
Y1385950D01*
X279500D02*
X360500D01*
X314050Y599500D02*
Y680500D01*
X465950D01*
X314050Y599500D02*
X465950D01*
Y680500D01*
X2299050Y604500D02*
Y685500D01*
X2450950D01*
X2299050Y604500D02*
X2450950D01*
Y685500D01*
X2269500Y1234050D02*
X2350500D01*
X2269500D02*
Y1385950D01*
X2350500Y1234050D02*
Y1385950D01*
X2269500D02*
X2350500D01*
X2360039Y1231226D02*
X2439961D01*
X2360039D02*
Y1385950D01*
X2439961D01*
Y1231226D02*
Y1385950D01*
X2610039Y1442362D02*
X2689961D01*
Y1287638D02*
Y1442362D01*
X2610039Y1287638D02*
X2689961D01*
X2610039D02*
Y1442362D01*
X2510039Y1287638D02*
X2589961D01*
X2510039D02*
Y1442362D01*
X2589961D01*
Y1287638D02*
Y1442362D01*
X2930039Y1452362D02*
X3009961D01*
Y1297638D02*
Y1452362D01*
X2930039Y1297638D02*
X3009961D01*
X2930039D02*
Y1452362D01*
X2835039Y1297638D02*
X2914961D01*
X2835039D02*
Y1452362D01*
X2914961D01*
Y1297638D02*
Y1452362D01*
X700039Y2907638D02*
X779961D01*
X700039D02*
Y3062362D01*
X779961D01*
Y2907638D02*
Y3062362D01*
D36*
X3210000Y515000D02*
X3310000D01*
X3210000Y415000D02*
Y1215000D01*
X3310000D01*
Y415000D02*
Y1215000D01*
X3210000Y415000D02*
X3310000D01*
X3315000Y515000D02*
X3415000D01*
X3315000Y415000D02*
Y1215000D01*
X3415000D01*
Y415000D02*
Y1215000D01*
X3315000Y415000D02*
X3415000D01*
X2900001Y2500000D02*
Y2600000D01*
Y2500000D02*
X3700001D01*
Y2600000D01*
X2900001D02*
X3700001D01*
X3000001Y2500000D02*
Y2600000D01*
X2900001Y2400000D02*
Y2500000D01*
Y2400000D02*
X3700001D01*
Y2500000D01*
X2900001D02*
X3700001D01*
X3000001Y2400000D02*
Y2500000D01*
X1815001D02*
Y2600000D01*
Y2500000D02*
X2615001D01*
Y2600000D01*
X1815001D02*
X2615001D01*
X1915001Y2500000D02*
Y2600000D01*
X1815001Y2400000D02*
Y2500000D01*
Y2400000D02*
X2615001D01*
Y2500000D01*
X1815001D02*
X2615001D01*
X1915001Y2400000D02*
Y2500000D01*
D37*
X2201953Y2380504D02*
Y2410494D01*
X2186957D01*
X2181959Y2405496D01*
Y2395499D01*
X2186957Y2390501D01*
X2201953D01*
X2191956D02*
X2181959Y2380504D01*
X2156967D02*
Y2410494D01*
X2171962Y2395499D01*
X2151969D01*
X2141972Y2405496D02*
X2136974Y2410494D01*
X2126977D01*
X2121979Y2405496D01*
Y2400497D01*
X2126977Y2395499D01*
X2121979Y2390501D01*
Y2385502D01*
X2126977Y2380504D01*
X2136974D01*
X2141972Y2385502D01*
Y2390501D01*
X2136974Y2395499D01*
X2141972Y2400497D01*
Y2405496D01*
X2136974Y2395499D02*
X2126977D01*
X2196953Y2920504D02*
Y2950494D01*
X2181957D01*
X2176959Y2945496D01*
Y2935499D01*
X2181957Y2930501D01*
X2196953D01*
X2186956D02*
X2176959Y2920504D01*
X2151967D02*
Y2950494D01*
X2166962Y2935499D01*
X2146969D01*
X2116979Y2920504D02*
X2136972D01*
X2116979Y2940497D01*
Y2945496D01*
X2121977Y2950494D01*
X2131974D01*
X2136972Y2945496D01*
X2091953Y2385504D02*
Y2415494D01*
X2076957D01*
X2071959Y2410496D01*
Y2400499D01*
X2076957Y2395501D01*
X2091953D01*
X2081956D02*
X2071959Y2385504D01*
X2061962Y2410496D02*
X2056964Y2415494D01*
X2046967D01*
X2041969Y2410496D01*
Y2405497D01*
X2046967Y2400499D01*
X2051966D01*
X2046967D01*
X2041969Y2395501D01*
Y2390502D01*
X2046967Y2385504D01*
X2056964D01*
X2061962Y2390502D01*
X2016977Y2385504D02*
Y2415494D01*
X2031972Y2400499D01*
X2011979D01*
X2106953Y2920504D02*
Y2950494D01*
X2091957D01*
X2086959Y2945496D01*
Y2935499D01*
X2091957Y2930501D01*
X2106953D01*
X2096956D02*
X2086959Y2920504D01*
X2056969D02*
X2076962D01*
X2056969Y2940497D01*
Y2945496D01*
X2061967Y2950494D01*
X2071964D01*
X2076962Y2945496D01*
X2046972D02*
X2041974Y2950494D01*
X2031977D01*
X2026979Y2945496D01*
Y2925502D01*
X2031977Y2920504D01*
X2041974D01*
X2046972Y2925502D01*
Y2945496D01*
X1898953Y2403504D02*
Y2433494D01*
X1883957D01*
X1878959Y2428496D01*
Y2418499D01*
X1883957Y2413501D01*
X1898953D01*
X1888956D02*
X1878959Y2403504D01*
X1868962D02*
X1858966D01*
X1863964D01*
Y2433494D01*
X1868962Y2428496D01*
X1828975Y2403504D02*
Y2433494D01*
X1843970Y2418499D01*
X1823977D01*
X1907953Y2738504D02*
Y2768494D01*
X1892957D01*
X1887959Y2763496D01*
Y2753499D01*
X1892957Y2748501D01*
X1907953D01*
X1897956D02*
X1887959Y2738504D01*
X1862967D02*
Y2768494D01*
X1877962Y2753499D01*
X1857969D01*
X3308953Y1245504D02*
Y1275494D01*
X3293957D01*
X3288959Y1270496D01*
Y1260499D01*
X3293957Y1255501D01*
X3308953D01*
X3258969Y1275494D02*
X3278962D01*
Y1260499D01*
X3268966Y1265497D01*
X3263967D01*
X3258969Y1260499D01*
Y1250502D01*
X3263967Y1245504D01*
X3273964D01*
X3278962Y1250502D01*
X3413953Y1245504D02*
Y1275494D01*
X3398957D01*
X3393959Y1270496D01*
Y1260499D01*
X3398957Y1255501D01*
X3413953D01*
X3368967Y1245504D02*
Y1275494D01*
X3383962Y1260499D01*
X3363969D01*
X2875000Y2585000D02*
X2845010D01*
Y2570005D01*
X2850008Y2565006D01*
X2860005D01*
X2865003Y2570005D01*
Y2585000D01*
X2850008Y2555010D02*
X2845010Y2550011D01*
Y2540015D01*
X2850008Y2535016D01*
X2855006D01*
X2860005Y2540015D01*
X2865003Y2535016D01*
X2870002D01*
X2875000Y2540015D01*
Y2550011D01*
X2870002Y2555010D01*
X2865003D01*
X2860005Y2550011D01*
X2855006Y2555010D01*
X2850008D01*
X2860005Y2550011D02*
Y2540015D01*
X2875000Y2485000D02*
X2845010D01*
Y2470005D01*
X2850008Y2465006D01*
X2860005D01*
X2865003Y2470005D01*
Y2485000D01*
X2845010Y2455010D02*
Y2435016D01*
X2850008D01*
X2870002Y2455010D01*
X2875000D01*
X1790000Y2590000D02*
X1760010D01*
Y2575005D01*
X1765008Y2570006D01*
X1775005D01*
X1780003Y2575005D01*
Y2590000D01*
X1790000Y2560010D02*
Y2550013D01*
Y2555011D01*
X1760010D01*
X1765008Y2560010D01*
X1785000Y2490000D02*
X1755010D01*
Y2475005D01*
X1760008Y2470006D01*
X1770005D01*
X1775003Y2475005D01*
Y2490000D01*
X1755010Y2440016D02*
X1760008Y2450013D01*
X1770005Y2460010D01*
X1780002D01*
X1785000Y2455011D01*
Y2445015D01*
X1780002Y2440016D01*
X1775003D01*
X1770005Y2445015D01*
Y2460010D01*
X4188953Y3562494D02*
X4168959Y3532504D01*
Y3562494D02*
X4188953Y3532504D01*
X4158962D02*
Y3562494D01*
X4148966Y3552497D01*
X4138969Y3562494D01*
Y3532504D01*
X4108979Y3557496D02*
X4113977Y3562494D01*
X4123974D01*
X4128972Y3557496D01*
Y3537502D01*
X4123974Y3532504D01*
X4113977D01*
X4108979Y3537502D01*
X4098982Y3532504D02*
X4088985D01*
X4093983D01*
Y3562494D01*
X4098982Y3557496D01*
X2171953Y1490504D02*
Y1520494D01*
X2156957D01*
X2151959Y1515496D01*
Y1505499D01*
X2156957Y1500501D01*
X2171953D01*
X2161956D02*
X2151959Y1490504D01*
X2141962Y1515496D02*
X2136964Y1520494D01*
X2126967D01*
X2121969Y1515496D01*
Y1510497D01*
X2126967Y1505499D01*
X2131966D01*
X2126967D01*
X2121969Y1500501D01*
Y1495502D01*
X2126967Y1490504D01*
X2136964D01*
X2141962Y1495502D01*
X2111972Y1515496D02*
X2106974Y1520494D01*
X2096977D01*
X2091979Y1515496D01*
Y1510497D01*
X2096977Y1505499D01*
X2101975D01*
X2096977D01*
X2091979Y1500501D01*
Y1495502D01*
X2096977Y1490504D01*
X2106974D01*
X2111972Y1495502D01*
X2261953Y1490504D02*
Y1520494D01*
X2246957D01*
X2241959Y1515496D01*
Y1505499D01*
X2246957Y1500501D01*
X2261953D01*
X2251956D02*
X2241959Y1490504D01*
X2231962Y1515496D02*
X2226964Y1520494D01*
X2216967D01*
X2211969Y1515496D01*
Y1510497D01*
X2216967Y1505499D01*
X2221966D01*
X2216967D01*
X2211969Y1500501D01*
Y1495502D01*
X2216967Y1490504D01*
X2226964D01*
X2231962Y1495502D01*
X2201972Y1490504D02*
X2191975D01*
X2196974D01*
Y1520494D01*
X2201972Y1515496D01*
X626953Y1495504D02*
Y1525494D01*
X611957D01*
X606959Y1520496D01*
Y1510499D01*
X611957Y1505501D01*
X626953D01*
X616956D02*
X606959Y1495504D01*
X576969D02*
X596962D01*
X576969Y1515497D01*
Y1520496D01*
X581967Y1525494D01*
X591964D01*
X596962Y1520496D01*
X566972Y1500502D02*
X561974Y1495504D01*
X551977D01*
X546979Y1500502D01*
Y1520496D01*
X551977Y1525494D01*
X561974D01*
X566972Y1520496D01*
Y1515497D01*
X561974Y1510499D01*
X546979D01*
X536953Y1495504D02*
Y1525494D01*
X521957D01*
X516959Y1520496D01*
Y1510499D01*
X521957Y1505501D01*
X536953D01*
X526956D02*
X516959Y1495504D01*
X486969D02*
X506962D01*
X486969Y1515497D01*
Y1520496D01*
X491967Y1525494D01*
X501964D01*
X506962Y1520496D01*
X456979Y1525494D02*
X466975Y1520496D01*
X476972Y1510499D01*
Y1500502D01*
X471974Y1495504D01*
X461977D01*
X456979Y1500502D01*
Y1505501D01*
X461977Y1510499D01*
X476972D01*
X1540000Y1200000D02*
X1569990D01*
Y1214995D01*
X1564992Y1219994D01*
X1554995D01*
X1549997Y1214995D01*
Y1200000D01*
Y1209997D02*
X1540000Y1219994D01*
Y1249984D02*
Y1229990D01*
X1559994Y1249984D01*
X1564992D01*
X1569990Y1244986D01*
Y1234989D01*
X1564992Y1229990D01*
Y1259981D02*
X1569990Y1264979D01*
Y1274976D01*
X1564992Y1279974D01*
X1559994D01*
X1554995Y1274976D01*
Y1269977D01*
Y1274976D01*
X1549997Y1279974D01*
X1544998D01*
X1540000Y1274976D01*
Y1264979D01*
X1544998Y1259981D01*
X1510000Y1300000D02*
X1480010D01*
Y1285005D01*
X1485008Y1280006D01*
X1495005D01*
X1500003Y1285005D01*
Y1300000D01*
Y1290003D02*
X1510000Y1280006D01*
Y1270010D02*
Y1260013D01*
Y1265011D01*
X1480010D01*
X1485008Y1270010D01*
X1505002Y1245018D02*
X1510000Y1240019D01*
Y1230023D01*
X1505002Y1225024D01*
X1485008D01*
X1480010Y1230023D01*
Y1240019D01*
X1485008Y1245018D01*
X1490006D01*
X1495005Y1240019D01*
Y1225024D01*
X1892953Y1334494D02*
Y1309502D01*
X1887954Y1304504D01*
X1877957D01*
X1872959Y1309502D01*
Y1334494D01*
X1862962Y1329496D02*
X1857964Y1334494D01*
X1847967D01*
X1842969Y1329496D01*
Y1324497D01*
X1847967Y1319499D01*
X1852966D01*
X1847967D01*
X1842969Y1314501D01*
Y1309502D01*
X1847967Y1304504D01*
X1857964D01*
X1862962Y1309502D01*
X1451953Y1269494D02*
Y1244502D01*
X1446954Y1239504D01*
X1436957D01*
X1431959Y1244502D01*
Y1269494D01*
X1401969D02*
X1421962D01*
Y1254499D01*
X1411966Y1259497D01*
X1406967D01*
X1401969Y1254499D01*
Y1244502D01*
X1406967Y1239504D01*
X1416964D01*
X1421962Y1244502D01*
X1416953Y1414504D02*
Y1444494D01*
X1401957D01*
X1396959Y1439496D01*
Y1429499D01*
X1401957Y1424501D01*
X1416953D01*
X1406956D02*
X1396959Y1414504D01*
X1386962Y1439496D02*
X1381964Y1444494D01*
X1371967D01*
X1366969Y1439496D01*
Y1434497D01*
X1371967Y1429499D01*
X1376966D01*
X1371967D01*
X1366969Y1424501D01*
Y1419502D01*
X1371967Y1414504D01*
X1381964D01*
X1386962Y1419502D01*
X1336979Y1444494D02*
X1356972D01*
Y1429499D01*
X1346975Y1434497D01*
X1341977D01*
X1336979Y1429499D01*
Y1419502D01*
X1341977Y1414504D01*
X1351974D01*
X1356972Y1419502D01*
X1411959Y743496D02*
X1416957Y748494D01*
X1426954D01*
X1431953Y743496D01*
Y723502D01*
X1426954Y718504D01*
X1416957D01*
X1411959Y723502D01*
X1401962Y718504D02*
X1391966D01*
X1396964D01*
Y748494D01*
X1401962Y743496D01*
X1306959Y1436496D02*
X1311957Y1441494D01*
X1321954D01*
X1326953Y1436496D01*
Y1416502D01*
X1321954Y1411504D01*
X1311957D01*
X1306959Y1416502D01*
X1281967Y1411504D02*
Y1441494D01*
X1296962Y1426499D01*
X1276969D01*
X550000Y1184990D02*
Y1159998D01*
X545002Y1155000D01*
X535005D01*
X530006Y1159998D01*
Y1184990D01*
X520010Y1159998D02*
X515011Y1155000D01*
X505014D01*
X500016Y1159998D01*
Y1179992D01*
X505014Y1184990D01*
X515011D01*
X520010Y1179992D01*
Y1174994D01*
X515011Y1169995D01*
X500016D01*
X908953Y1329494D02*
Y1304502D01*
X903954Y1299504D01*
X893957D01*
X888959Y1304502D01*
Y1329494D01*
X878962D02*
X858969D01*
Y1324496D01*
X878962Y1304502D01*
Y1299504D01*
X455000Y1415000D02*
Y1444990D01*
X440005D01*
X435007Y1439992D01*
Y1429995D01*
X440005Y1424997D01*
X455000D01*
X445003D02*
X435007Y1415000D01*
X405016Y1444990D02*
X425010D01*
Y1429995D01*
X415013Y1434994D01*
X410014D01*
X405016Y1429995D01*
Y1419998D01*
X410014Y1415000D01*
X420011D01*
X425010Y1419998D01*
X395019Y1439992D02*
X390021Y1444990D01*
X380024D01*
X375026Y1439992D01*
Y1419998D01*
X380024Y1415000D01*
X390021D01*
X395019Y1419998D01*
Y1439992D01*
X336959Y1439496D02*
X341957Y1444494D01*
X351954D01*
X356953Y1439496D01*
Y1419502D01*
X351954Y1414504D01*
X341957D01*
X336959Y1419502D01*
X326962Y1414504D02*
X316966D01*
X321964D01*
Y1444494D01*
X326962Y1439496D01*
X286975Y1414504D02*
Y1444494D01*
X301971Y1429499D01*
X281977D01*
X441959Y733496D02*
X446957Y738494D01*
X456954D01*
X461953Y733496D01*
Y713502D01*
X456954Y708504D01*
X446957D01*
X441959Y713502D01*
X431962D02*
X426964Y708504D01*
X416967D01*
X411969Y713502D01*
Y733496D01*
X416967Y738494D01*
X426964D01*
X431962Y733496D01*
Y728497D01*
X426964Y723499D01*
X411969D01*
X654953Y2914494D02*
Y2889502D01*
X649954Y2884504D01*
X639957D01*
X634959Y2889502D01*
Y2914494D01*
X609967Y2884504D02*
Y2914494D01*
X624962Y2899499D01*
X604969D01*
X1149953Y2910494D02*
Y2885502D01*
X1144954Y2880504D01*
X1134957D01*
X1129959Y2885502D01*
Y2910494D01*
X1099969Y2880504D02*
X1119962D01*
X1099969Y2900497D01*
Y2905496D01*
X1104967Y2910494D01*
X1114964D01*
X1119962Y2905496D01*
X1629953Y2889494D02*
Y2864502D01*
X1624954Y2859504D01*
X1614957D01*
X1609959Y2864502D01*
Y2889494D01*
X1599962Y2859504D02*
X1589966D01*
X1594964D01*
Y2889494D01*
X1599962Y2884496D01*
X2426959Y738496D02*
X2431957Y743494D01*
X2441954D01*
X2446953Y738496D01*
Y718502D01*
X2441954Y713504D01*
X2431957D01*
X2426959Y718502D01*
X2416962Y743494D02*
X2396969D01*
Y738496D01*
X2416962Y718502D01*
Y713504D01*
X2326959Y1439496D02*
X2331957Y1444494D01*
X2341954D01*
X2346953Y1439496D01*
Y1419502D01*
X2341954Y1414504D01*
X2331957D01*
X2326959Y1419502D01*
X2316962Y1414504D02*
X2306966D01*
X2311964D01*
Y1444494D01*
X2316962Y1439496D01*
X2271977Y1414504D02*
X2291970D01*
X2271977Y1434497D01*
Y1439496D01*
X2276975Y1444494D01*
X2286972D01*
X2291970Y1439496D01*
X2812953Y264504D02*
Y294494D01*
X2797957D01*
X2792959Y289496D01*
Y279499D01*
X2797957Y274501D01*
X2812953D01*
X2782962Y264504D02*
X2772966D01*
X2777964D01*
Y294494D01*
X2782962Y289496D01*
X2757970D02*
X2752972Y294494D01*
X2742975D01*
X2737977Y289496D01*
Y269502D01*
X2742975Y264504D01*
X2752972D01*
X2757970Y269502D01*
Y289496D01*
X2436953Y1414504D02*
Y1444494D01*
X2421957D01*
X2416959Y1439496D01*
Y1429499D01*
X2421957Y1424501D01*
X2436953D01*
X2426956D02*
X2416959Y1414504D01*
X2391967D02*
Y1444494D01*
X2406962Y1429499D01*
X2386969D01*
X2376972Y1419502D02*
X2371974Y1414504D01*
X2361977D01*
X2356979Y1419502D01*
Y1439496D01*
X2361977Y1444494D01*
X2371974D01*
X2376972Y1439496D01*
Y1434497D01*
X2371974Y1429499D01*
X2356979D01*
X2918953Y1329494D02*
Y1304502D01*
X2913954Y1299504D01*
X2903957D01*
X2898959Y1304502D01*
Y1329494D01*
X2868969D02*
X2878966Y1324496D01*
X2888962Y1314499D01*
Y1304502D01*
X2883964Y1299504D01*
X2873967D01*
X2868969Y1304502D01*
Y1309501D01*
X2873967Y1314499D01*
X2888962D01*
X2472953Y1264494D02*
Y1239502D01*
X2467954Y1234504D01*
X2457957D01*
X2452959Y1239502D01*
Y1264494D01*
X2442962Y1259496D02*
X2437964Y1264494D01*
X2427967D01*
X2422969Y1259496D01*
Y1254497D01*
X2427967Y1249499D01*
X2422969Y1244501D01*
Y1239502D01*
X2427967Y1234504D01*
X2437964D01*
X2442962Y1239502D01*
Y1244501D01*
X2437964Y1249499D01*
X2442962Y1254497D01*
Y1259496D01*
X2437964Y1249499D02*
X2427967D01*
X1791953Y269504D02*
Y299494D01*
X1776957D01*
X1771959Y294496D01*
Y284499D01*
X1776957Y279501D01*
X1791953D01*
X1761962Y274502D02*
X1756964Y269504D01*
X1746967D01*
X1741969Y274502D01*
Y294496D01*
X1746967Y299494D01*
X1756964D01*
X1761962Y294496D01*
Y289497D01*
X1756964Y284499D01*
X1741969D01*
X807953Y264504D02*
Y294494D01*
X792957D01*
X787959Y289496D01*
Y279499D01*
X792957Y274501D01*
X807953D01*
X777962Y264504D02*
X767966D01*
X772964D01*
Y294494D01*
X777962Y289496D01*
X752971Y264504D02*
X742974D01*
X747972D01*
Y294494D01*
X752971Y289496D01*
X2686953Y1470504D02*
Y1500494D01*
X2671957D01*
X2666959Y1495496D01*
Y1485499D01*
X2671957Y1480501D01*
X2686953D01*
X2676956D02*
X2666959Y1470504D01*
X2656962D02*
X2646966D01*
X2651964D01*
Y1500494D01*
X2656962Y1495496D01*
X2631970Y1500494D02*
X2611977D01*
Y1495496D01*
X2631970Y1475502D01*
Y1470504D01*
X2586953D02*
Y1500494D01*
X2571957D01*
X2566959Y1495496D01*
Y1485499D01*
X2571957Y1480501D01*
X2586953D01*
X2576956D02*
X2566959Y1470504D01*
X2536969D02*
X2556962D01*
X2536969Y1490497D01*
Y1495496D01*
X2541967Y1500494D01*
X2551964D01*
X2556962Y1495496D01*
X2526972Y1470504D02*
X2516975D01*
X2521974D01*
Y1500494D01*
X2526972Y1495496D01*
X3006953Y1480504D02*
Y1510494D01*
X2991957D01*
X2986959Y1505496D01*
Y1495499D01*
X2991957Y1490501D01*
X3006953D01*
X2996956D02*
X2986959Y1480504D01*
X2956969D02*
X2976962D01*
X2956969Y1500497D01*
Y1505496D01*
X2961967Y1510494D01*
X2971964D01*
X2976962Y1505496D01*
X2931977Y1480504D02*
Y1510494D01*
X2946972Y1495499D01*
X2926979D01*
X2911953Y1480504D02*
Y1510494D01*
X2896957D01*
X2891959Y1505496D01*
Y1495499D01*
X2896957Y1490501D01*
X2911953D01*
X2901956D02*
X2891959Y1480504D01*
X2861969D02*
X2881962D01*
X2861969Y1500497D01*
Y1505496D01*
X2866967Y1510494D01*
X2876964D01*
X2881962Y1505496D01*
X2851972Y1510494D02*
X2831979D01*
Y1505496D01*
X2851972Y1485502D01*
Y1480504D01*
X776953Y3090504D02*
Y3120494D01*
X761957D01*
X756959Y3115496D01*
Y3105499D01*
X761957Y3100501D01*
X776953D01*
X766956D02*
X756959Y3090504D01*
X746962D02*
X736966D01*
X741964D01*
Y3120494D01*
X746962Y3115496D01*
X3595000Y-10D02*
Y-30000D01*
X3580005D01*
X3575006Y-25002D01*
Y-20003D01*
X3580005Y-15005D01*
X3595000D01*
X3580005D01*
X3575006Y-10007D01*
Y-5008D01*
X3580005Y-10D01*
X3595000D01*
X3550015D02*
X3560011D01*
X3565010Y-5008D01*
Y-25002D01*
X3560011Y-30000D01*
X3550015D01*
X3545016Y-25002D01*
Y-5008D01*
X3550015Y-10D01*
X3535019D02*
X3515026D01*
X3525023D01*
Y-30000D01*
%TF.MD5,94b0d0a1d2126b93a47d7264c9204708*%
M02*
