G04 Layer_Color=255*
%FSLAX25Y25*%
%MOIN*%
G70*
G01*
G75*
%ADD10R,0.06299X0.05905*%
%ADD11R,0.05512X0.05905*%
%ADD12R,0.05905X0.05512*%
%ADD13R,0.05905X0.06299*%
%ADD18C,0.06000*%
%ADD19R,0.11811X0.11811*%
%ADD20C,0.11811*%
%ADD21C,0.05905*%
%ADD22R,0.05905X0.05905*%
%ADD23R,0.06000X0.06000*%
%ADD24R,0.06000X0.06000*%
%ADD28O,0.02362X0.07087*%
%ADD29R,0.02362X0.07087*%
%ADD30O,0.05709X0.02362*%
D10*
X231000Y127260D02*
D03*
Y134740D02*
D03*
X32000Y127260D02*
D03*
Y134740D02*
D03*
X129000Y126977D02*
D03*
Y134458D02*
D03*
D11*
X187330Y267000D02*
D03*
X179456D02*
D03*
X186437Y233500D02*
D03*
X178563D02*
D03*
D12*
X287500Y133563D02*
D03*
Y141437D02*
D03*
X297000Y141437D02*
D03*
Y133563D02*
D03*
X255000Y132563D02*
D03*
Y140437D02*
D03*
X265000Y140437D02*
D03*
Y132563D02*
D03*
X240000Y126922D02*
D03*
Y134796D02*
D03*
X41000Y126922D02*
D03*
Y134796D02*
D03*
X138000Y126922D02*
D03*
Y134796D02*
D03*
X148000Y142937D02*
D03*
Y135063D02*
D03*
X157000Y135063D02*
D03*
Y142937D02*
D03*
X50000Y142937D02*
D03*
Y135063D02*
D03*
X59000Y135063D02*
D03*
Y142937D02*
D03*
X222500Y142437D02*
D03*
Y134563D02*
D03*
X213500Y134563D02*
D03*
Y142437D02*
D03*
X207000Y277563D02*
D03*
Y285437D02*
D03*
X205500Y231937D02*
D03*
Y224063D02*
D03*
X216000Y277563D02*
D03*
Y285437D02*
D03*
X216500Y231437D02*
D03*
Y223563D02*
D03*
D13*
X233760Y64500D02*
D03*
X241240D02*
D03*
X35260Y64000D02*
D03*
X42740D02*
D03*
X132197Y65000D02*
D03*
X139677D02*
D03*
D18*
X0Y-0D02*
D03*
Y377953D02*
D03*
X377953Y-0D02*
D03*
Y377953D02*
D03*
X277000Y121059D02*
D03*
Y111059D02*
D03*
Y93500D02*
D03*
Y71059D02*
D03*
X76000Y121059D02*
D03*
Y111059D02*
D03*
Y93500D02*
D03*
Y71059D02*
D03*
X174437Y121559D02*
D03*
Y111559D02*
D03*
Y94000D02*
D03*
Y71559D02*
D03*
X206500Y245000D02*
D03*
X196500D02*
D03*
X256500D02*
D03*
X246500D02*
D03*
X236500D02*
D03*
X226500D02*
D03*
X216500D02*
D03*
X206500Y255000D02*
D03*
X196500D02*
D03*
X256500D02*
D03*
X246500D02*
D03*
X236500D02*
D03*
X226500D02*
D03*
X216500D02*
D03*
X315000Y245000D02*
D03*
X305000D02*
D03*
X365000D02*
D03*
X355000D02*
D03*
X345000D02*
D03*
X335000D02*
D03*
X325000D02*
D03*
X315000Y255000D02*
D03*
X305000D02*
D03*
X365000D02*
D03*
X355000D02*
D03*
X345000D02*
D03*
X335000D02*
D03*
X325000D02*
D03*
X336500Y76500D02*
D03*
Y86500D02*
D03*
Y96500D02*
D03*
Y106500D02*
D03*
Y116500D02*
D03*
Y56500D02*
D03*
Y66500D02*
D03*
X326000Y76500D02*
D03*
Y86500D02*
D03*
Y96500D02*
D03*
Y106500D02*
D03*
Y116500D02*
D03*
Y56500D02*
D03*
Y66500D02*
D03*
D19*
X49158Y6000D02*
D03*
X147594Y6500D02*
D03*
X249658Y6000D02*
D03*
D20*
X68843D02*
D03*
X167280Y6500D02*
D03*
X269342Y6000D02*
D03*
D21*
X124500Y328291D02*
D03*
X134500D02*
D03*
X144500D02*
D03*
X154500D02*
D03*
X164500D02*
D03*
X174500D02*
D03*
X184500D02*
D03*
X194500D02*
D03*
X204500D02*
D03*
X214500D02*
D03*
X224500D02*
D03*
X234500D02*
D03*
X244500D02*
D03*
X254500D02*
D03*
X264500D02*
D03*
X274500D02*
D03*
X284500D02*
D03*
X294500D02*
D03*
X304500D02*
D03*
X114500Y338291D02*
D03*
X124500D02*
D03*
X134500D02*
D03*
X144500D02*
D03*
X154500D02*
D03*
X164500D02*
D03*
X174500D02*
D03*
X184500D02*
D03*
X194500D02*
D03*
X204500D02*
D03*
X214500D02*
D03*
X224500D02*
D03*
X234500D02*
D03*
X244500D02*
D03*
X254500D02*
D03*
X264500D02*
D03*
X274500D02*
D03*
X284500D02*
D03*
X294500D02*
D03*
X304500D02*
D03*
X114500Y328291D02*
D03*
X304500Y169000D02*
D03*
X294500D02*
D03*
X284500D02*
D03*
X274500D02*
D03*
X264500D02*
D03*
X254500D02*
D03*
X244500D02*
D03*
X234500D02*
D03*
X224500D02*
D03*
X214500D02*
D03*
X204500D02*
D03*
X194500D02*
D03*
X184500D02*
D03*
X174500D02*
D03*
X164500D02*
D03*
X154500D02*
D03*
X144500D02*
D03*
X134500D02*
D03*
X124500D02*
D03*
X114500D02*
D03*
X304500Y159000D02*
D03*
X294500D02*
D03*
X284500D02*
D03*
X274500D02*
D03*
X264500D02*
D03*
X254500D02*
D03*
X244500D02*
D03*
X234500D02*
D03*
X224500D02*
D03*
X214500D02*
D03*
X204500D02*
D03*
X194500D02*
D03*
X184500D02*
D03*
X174500D02*
D03*
X164500D02*
D03*
X154500D02*
D03*
X144500D02*
D03*
X134500D02*
D03*
X124500D02*
D03*
D22*
X114500D02*
D03*
D23*
X186500Y245000D02*
D03*
Y255000D02*
D03*
X295000Y245000D02*
D03*
Y255000D02*
D03*
D24*
X336500Y46500D02*
D03*
X326000D02*
D03*
D28*
X230000Y116913D02*
D03*
X235000D02*
D03*
X240000D02*
D03*
X245000D02*
D03*
X230000Y74000D02*
D03*
X235000D02*
D03*
X240000D02*
D03*
X30500Y116913D02*
D03*
X35500D02*
D03*
X40500D02*
D03*
X45500D02*
D03*
X30500Y74000D02*
D03*
X35500D02*
D03*
X40500D02*
D03*
X127937Y117413D02*
D03*
X132937D02*
D03*
X137937D02*
D03*
X142937D02*
D03*
X127937Y74500D02*
D03*
X132937D02*
D03*
X137937D02*
D03*
D29*
X245000Y74000D02*
D03*
X45500D02*
D03*
X142937Y74500D02*
D03*
D30*
X138243Y249000D02*
D03*
Y254000D02*
D03*
Y259000D02*
D03*
Y264000D02*
D03*
Y269000D02*
D03*
Y274000D02*
D03*
Y279000D02*
D03*
X159700Y249000D02*
D03*
Y254000D02*
D03*
Y259000D02*
D03*
Y264000D02*
D03*
Y269000D02*
D03*
Y274000D02*
D03*
Y279000D02*
D03*
X90243Y251100D02*
D03*
Y256100D02*
D03*
Y261100D02*
D03*
Y266100D02*
D03*
Y271100D02*
D03*
Y276100D02*
D03*
Y281100D02*
D03*
X111700Y251100D02*
D03*
Y256100D02*
D03*
Y261100D02*
D03*
Y266100D02*
D03*
Y271100D02*
D03*
Y276100D02*
D03*
Y281100D02*
D03*
X40743Y251500D02*
D03*
Y256500D02*
D03*
Y261500D02*
D03*
Y266500D02*
D03*
Y271500D02*
D03*
Y276500D02*
D03*
Y281500D02*
D03*
X62200Y251500D02*
D03*
Y256500D02*
D03*
Y261500D02*
D03*
Y266500D02*
D03*
Y271500D02*
D03*
Y276500D02*
D03*
Y281500D02*
D03*
M02*
