G04 Layer_Color=2752767*
%FSLAX26Y26*%
%MOIN*%
%TF.FileFunction,Drawing*%
%TF.Part,Single*%
G01*
G75*
%TA.AperFunction,NonConductor*%
%ADD52C,0.005000*%
%ADD108C,0.006667*%
%ADD109C,0.004000*%
D52*
X310000Y2265000D02*
Y2305000D01*
X350000D01*
Y2265000D01*
X310000D01*
X210000D02*
Y2305000D01*
X250000D01*
Y2265000D01*
X210000D01*
X110000D02*
Y2305000D01*
X150000D01*
Y2265000D01*
X110000D01*
X723787Y2770000D02*
X703787Y2810000D01*
X743787D01*
X723787Y2770000D01*
Y2870000D02*
X703787Y2910000D01*
X743787D01*
X723787Y2870000D01*
Y3170000D02*
X733787Y3180000D01*
X743787D01*
X733787Y3190000D01*
X743787Y3200000D01*
X733787D01*
X723787Y3210000D01*
X713787Y3200000D01*
X703787D01*
X713787Y3190000D01*
X703787Y3180000D01*
X713787D01*
X723787Y3170000D01*
Y3470000D02*
X733787Y3480000D01*
X743787D01*
X733787Y3490000D01*
X743787Y3500000D01*
X733787D01*
X723787Y3510000D01*
X713787Y3500000D01*
X703787D01*
X713787Y3490000D01*
X703787Y3480000D01*
X713787D01*
X723787Y3470000D01*
X508787Y2770000D02*
X488787Y2810000D01*
X528787D01*
X508787Y2770000D01*
Y2870000D02*
X488787Y2910000D01*
X528787D01*
X508787Y2870000D01*
Y3170000D02*
X518787Y3180000D01*
X528787D01*
X518787Y3190000D01*
X528787Y3200000D01*
X518787D01*
X508787Y3210000D01*
X498787Y3200000D01*
X488787D01*
X498787Y3190000D01*
X488787Y3180000D01*
X498787D01*
X508787Y3170000D01*
Y3470000D02*
X518787Y3480000D01*
X528787D01*
X518787Y3490000D01*
X528787Y3500000D01*
X518787D01*
X508787Y3510000D01*
X498787Y3500000D01*
X488787D01*
X498787Y3490000D01*
X488787Y3480000D01*
X498787D01*
X508787Y3470000D01*
X1114000Y2049000D02*
Y2089000D01*
X1154000D01*
Y2049000D01*
X1114000D01*
X1314000D02*
Y2089000D01*
X1354000D01*
Y2049000D01*
X1314000D01*
X1214000D02*
Y2089000D01*
X1254000D01*
Y2049000D01*
X1214000D01*
X119843Y1407000D02*
Y1447000D01*
X159843D01*
Y1407000D01*
X119843D01*
X319842D02*
Y1447000D01*
X359842D01*
Y1407000D01*
X319842D01*
X219843D02*
Y1447000D01*
X259842D01*
Y1407000D01*
X219843D01*
X2330000Y1225000D02*
Y1265000D01*
X2370000D01*
Y1225000D01*
X2330000D01*
X2530000D02*
Y1265000D01*
X2570000D01*
Y1225000D01*
X2530000D01*
X2430000D02*
Y1265000D01*
X2470000D01*
Y1225000D01*
X2430000D01*
X1241000Y1014000D02*
X1221000Y1054000D01*
X1261000D01*
X1241000Y1014000D01*
X1841000D02*
X1821000Y1054000D01*
X1861000D01*
X1841000Y1014000D01*
X2041000D02*
X2021000Y1054000D01*
X2061000D01*
X2041000Y1014000D01*
X1141000D02*
X1121000Y1054000D01*
X1161000D01*
X1141000Y1014000D01*
Y1614000D02*
X1121000Y1654000D01*
X1161000D01*
X1141000Y1614000D01*
X1241000D02*
X1221000Y1654000D01*
X1261000D01*
X1241000Y1614000D01*
X1841000D02*
X1821000Y1654000D01*
X1861000D01*
X1841000Y1614000D01*
X2041000D02*
X2021000Y1654000D01*
X2061000D01*
X2041000Y1614000D01*
X2930000Y2530000D02*
Y2570000D01*
X2970000D01*
Y2530000D01*
X2930000D01*
X3230000D02*
Y2570000D01*
X3270000D01*
Y2530000D01*
X3230000D01*
X3330000D02*
Y2570000D01*
X3370000D01*
Y2530000D01*
X3330000D01*
X3430000D02*
Y2570000D01*
X3470000D01*
Y2530000D01*
X3430000D01*
X3530000D02*
Y2570000D01*
X3570000D01*
Y2530000D01*
X3530000D01*
X3630000D02*
Y2570000D01*
X3670000D01*
Y2530000D01*
X3630000D01*
X3030000D02*
Y2570000D01*
X3070000D01*
Y2530000D01*
X3030000D01*
X3130000D02*
Y2570000D01*
X3170000D01*
Y2530000D01*
X3130000D01*
X3720000Y3240000D02*
Y3280000D01*
X3760000D01*
Y3240000D01*
X3720000D01*
Y3140000D02*
Y3180000D01*
X3760000D01*
Y3140000D01*
X3720000D01*
Y3040000D02*
Y3080000D01*
X3760000D01*
Y3040000D01*
X3720000D01*
Y2940000D02*
Y2980000D01*
X3760000D01*
Y2940000D01*
X3720000D01*
X2930000Y2430000D02*
Y2470000D01*
X2970000D01*
Y2430000D01*
X2930000D01*
X3230000D02*
Y2470000D01*
X3270000D01*
Y2430000D01*
X3230000D01*
X3330000D02*
Y2470000D01*
X3370000D01*
Y2430000D01*
X3330000D01*
X3430000D02*
Y2470000D01*
X3470000D01*
Y2430000D01*
X3430000D01*
X3530000D02*
Y2470000D01*
X3570000D01*
Y2430000D01*
X3530000D01*
X3630000D02*
Y2470000D01*
X3670000D01*
Y2430000D01*
X3630000D01*
X3030000D02*
Y2470000D01*
X3070000D01*
Y2430000D01*
X3030000D01*
X3130000D02*
Y2470000D01*
X3170000D01*
Y2430000D01*
X3130000D01*
X1845000D02*
Y2470000D01*
X1885000D01*
Y2430000D01*
X1845000D01*
X2145000D02*
Y2470000D01*
X2185000D01*
Y2430000D01*
X2145000D01*
X2245000D02*
Y2470000D01*
X2285000D01*
Y2430000D01*
X2245000D01*
X2345000D02*
Y2470000D01*
X2385000D01*
Y2430000D01*
X2345000D01*
X2445000D02*
Y2470000D01*
X2485000D01*
Y2430000D01*
X2445000D01*
X2545000D02*
Y2470000D01*
X2585000D01*
Y2430000D01*
X2545000D01*
X1945000D02*
Y2470000D01*
X1985000D01*
Y2430000D01*
X1945000D01*
X2045000D02*
Y2470000D01*
X2085000D01*
Y2430000D01*
X2045000D01*
X1845000Y2530000D02*
Y2570000D01*
X1885000D01*
Y2530000D01*
X1845000D01*
X2145000D02*
Y2570000D01*
X2185000D01*
Y2530000D01*
X2145000D01*
X2245000D02*
Y2570000D01*
X2285000D01*
Y2530000D01*
X2245000D01*
X2345000D02*
Y2570000D01*
X2385000D01*
Y2530000D01*
X2345000D01*
X2445000D02*
Y2570000D01*
X2485000D01*
Y2530000D01*
X2445000D01*
X2545000D02*
Y2570000D01*
X2585000D01*
Y2530000D01*
X2545000D01*
X1945000D02*
Y2570000D01*
X1985000D01*
Y2530000D01*
X1945000D01*
X2045000D02*
Y2570000D01*
X2085000D01*
Y2530000D01*
X2045000D01*
X3734999Y1340413D02*
X3744999Y1360413D01*
X3734999Y1380413D01*
X3754999Y1370413D01*
X3774999Y1380413D01*
X3764999Y1360413D01*
X3774999Y1340413D01*
X3754999Y1350413D01*
X3734999Y1340413D01*
X3634999D02*
X3644999Y1360413D01*
X3634999Y1380413D01*
X3654999Y1370413D01*
X3674999Y1380413D01*
X3664999Y1360413D01*
X3674999Y1340413D01*
X3654999Y1350413D01*
X3634999Y1340413D01*
X3534999D02*
X3544999Y1360413D01*
X3534999Y1380413D01*
X3554999Y1370413D01*
X3574999Y1380413D01*
X3564999Y1360413D01*
X3574999Y1340413D01*
X3554999Y1350413D01*
X3534999Y1340413D01*
X3734999Y985000D02*
X3744999Y1005000D01*
X3734999Y1025000D01*
X3754999Y1015000D01*
X3774999Y1025000D01*
X3764999Y1005000D01*
X3774999Y985000D01*
X3754999Y995000D01*
X3734999Y985000D01*
X3634999D02*
X3644999Y1005000D01*
X3634999Y1025000D01*
X3654999Y1015000D01*
X3674999Y1025000D01*
X3664999Y1005000D01*
X3674999Y985000D01*
X3654999Y995000D01*
X3634999Y985000D01*
X3534999D02*
X3544999Y1005000D01*
X3534999Y1025000D01*
X3554999Y1015000D01*
X3574999Y1025000D01*
X3564999Y1005000D01*
X3574999Y985000D01*
X3554999Y995000D01*
X3534999Y985000D01*
X3305001Y985000D02*
X3315001Y1005000D01*
X3305001Y1025000D01*
X3325001Y1015000D01*
X3345001Y1025000D01*
X3335001Y1005000D01*
X3345001Y985000D01*
X3325001Y995000D01*
X3305001Y985000D01*
X3205001D02*
X3215001Y1005000D01*
X3205001Y1025000D01*
X3225001Y1015000D01*
X3245001Y1025000D01*
X3235001Y1005000D01*
X3245001Y985000D01*
X3225001Y995000D01*
X3205001Y985000D01*
X3105001D02*
X3115001Y1005000D01*
X3105001Y1025000D01*
X3125001Y1015000D01*
X3145001Y1025000D01*
X3135001Y1005000D01*
X3145001Y985000D01*
X3125001Y995000D01*
X3105001Y985000D01*
X3534996Y1695000D02*
X3544996Y1715000D01*
X3534996Y1735000D01*
X3554996Y1725000D01*
X3574996Y1735000D01*
X3564996Y1715000D01*
X3574996Y1695000D01*
X3554996Y1705000D01*
X3534996Y1695000D01*
X3634996D02*
X3644996Y1715000D01*
X3634996Y1735000D01*
X3654996Y1725000D01*
X3674996Y1735000D01*
X3664996Y1715000D01*
X3674996Y1695000D01*
X3654996Y1705000D01*
X3634996Y1695000D01*
X3734996D02*
X3744996Y1715000D01*
X3734996Y1735000D01*
X3754996Y1725000D01*
X3774996Y1735000D01*
X3764996Y1715000D01*
X3774996Y1695000D01*
X3754996Y1705000D01*
X3734996Y1695000D01*
X3741001Y2090000D02*
X3751001Y2110000D01*
X3741001Y2130000D01*
X3761001Y2120000D01*
X3781001Y2130000D01*
X3771001Y2110000D01*
X3781001Y2090000D01*
X3761001Y2100000D01*
X3741001Y2090000D01*
X3641001D02*
X3651001Y2110000D01*
X3641001Y2130000D01*
X3661001Y2120000D01*
X3681001Y2130000D01*
X3671001Y2110000D01*
X3681001Y2090000D01*
X3661001Y2100000D01*
X3641001Y2090000D01*
X3541001D02*
X3551001Y2110000D01*
X3541001Y2130000D01*
X3561001Y2120000D01*
X3581001Y2130000D01*
X3571001Y2110000D01*
X3581001Y2090000D01*
X3561001Y2100000D01*
X3541001Y2090000D01*
X605002Y1051000D02*
X615002Y1071000D01*
X605002Y1091000D01*
X625002Y1081000D01*
X645002Y1091000D01*
X635002Y1071000D01*
X645002Y1051000D01*
X625002Y1061000D01*
X605002Y1051000D01*
X505002D02*
X515002Y1071000D01*
X505002Y1091000D01*
X525002Y1081000D01*
X545002Y1091000D01*
X535002Y1071000D01*
X545002Y1051000D01*
X525002Y1061000D01*
X505002Y1051000D01*
X405002D02*
X415002Y1071000D01*
X405002Y1091000D01*
X425002Y1081000D01*
X445002Y1091000D01*
X435002Y1071000D01*
X445002Y1051000D01*
X425002Y1061000D01*
X405002Y1051000D01*
X605002Y1810500D02*
X615002Y1830500D01*
X605002Y1850500D01*
X625002Y1840500D01*
X645002Y1850500D01*
X635002Y1830500D01*
X645002Y1810500D01*
X625002Y1820500D01*
X605002Y1810500D01*
X505002D02*
X515002Y1830500D01*
X505002Y1850500D01*
X525002Y1840500D01*
X545002Y1850500D01*
X535002Y1830500D01*
X545002Y1810500D01*
X525002Y1820500D01*
X505002Y1810500D01*
X405002D02*
X415002Y1830500D01*
X405002Y1850500D01*
X425002Y1840500D01*
X445002Y1850500D01*
X435002Y1830500D01*
X445002Y1810500D01*
X425002Y1820500D01*
X405002Y1810500D01*
X605002Y2570000D02*
X615002Y2590000D01*
X605002Y2610000D01*
X625002Y2600000D01*
X645002Y2610000D01*
X635002Y2590000D01*
X645002Y2570000D01*
X625002Y2580000D01*
X605002Y2570000D01*
X505002D02*
X515002Y2590000D01*
X505002Y2610000D01*
X525002Y2600000D01*
X545002Y2610000D01*
X535002Y2590000D01*
X545002Y2570000D01*
X525002Y2580000D01*
X505002Y2570000D01*
X405002D02*
X415002Y2590000D01*
X405002Y2610000D01*
X425002Y2600000D01*
X445002Y2610000D01*
X435002Y2590000D01*
X445002Y2570000D01*
X425002Y2580000D01*
X405002Y2570000D01*
X92665Y2766575D02*
Y2756575D01*
X112665D01*
Y2766575D01*
X122665D01*
Y2786575D01*
X112665D01*
Y2796575D01*
X92665D01*
Y2786575D01*
X82665D01*
Y2766575D01*
X92665D01*
Y2963425D02*
Y2953425D01*
X112665D01*
Y2963425D01*
X122665D01*
Y2983425D01*
X112665D01*
Y2993425D01*
X92665D01*
Y2983425D01*
X82665D01*
Y2963425D01*
X92665D01*
Y3211575D02*
Y3201575D01*
X112665D01*
Y3211575D01*
X122665D01*
Y3231575D01*
X112665D01*
Y3241575D01*
X92665D01*
Y3231575D01*
X82665D01*
Y3211575D01*
X92665D01*
Y3408425D02*
Y3398425D01*
X112665D01*
Y3408425D01*
X122665D01*
Y3428425D01*
X112665D01*
Y3438425D01*
X92665D01*
Y3428425D01*
X82665D01*
Y3408425D01*
X92665D01*
X620553Y3705000D02*
Y3695000D01*
X640553D01*
Y3705000D01*
X650553D01*
Y3725000D01*
X640553D01*
Y3735000D01*
X620553D01*
Y3725000D01*
X610553D01*
Y3705000D01*
X620553D01*
X423703D02*
Y3695000D01*
X443703D01*
Y3705000D01*
X453703D01*
Y3725000D01*
X443703D01*
Y3735000D01*
X423703D01*
Y3725000D01*
X413703D01*
Y3705000D01*
X423703D01*
X95001Y729425D02*
Y719425D01*
X115001D01*
Y729425D01*
X125001D01*
Y749425D01*
X115001D01*
Y759425D01*
X95001D01*
Y749425D01*
X85001D01*
Y729425D01*
X95001D01*
Y532575D02*
Y522575D01*
X115001D01*
Y532575D01*
X125001D01*
Y552575D01*
X115001D01*
Y562575D01*
X95001D01*
Y552575D01*
X85001D01*
Y532575D01*
X95001D01*
X-20000Y-20000D02*
X-10000D01*
X0Y-10000D01*
X10000Y-20000D01*
X20000D01*
Y-10000D01*
X10000Y0D01*
X20000Y10000D01*
Y20000D01*
X10000D01*
X0Y10000D01*
X-10000Y20000D01*
X-20000D01*
Y10000D01*
X-10000Y0D01*
X-20000Y-10000D01*
Y-20000D01*
X3759526D02*
X3769526D01*
X3779526Y-10000D01*
X3789526Y-20000D01*
X3799526D01*
Y-10000D01*
X3789526Y0D01*
X3799526Y10000D01*
Y20000D01*
X3789526D01*
X3779526Y10000D01*
X3769526Y20000D01*
X3759526D01*
Y10000D01*
X3769526Y0D01*
X3759526Y-10000D01*
Y-20000D01*
Y3759528D02*
X3769526D01*
X3779526Y3769528D01*
X3789526Y3759528D01*
X3799526D01*
Y3769528D01*
X3789526Y3779528D01*
X3799526Y3789528D01*
Y3799528D01*
X3789526D01*
X3779526Y3789528D01*
X3769526Y3799528D01*
X3759526D01*
Y3789528D01*
X3769526Y3779528D01*
X3759526Y3769528D01*
Y3759528D01*
X-20000D02*
X-10000D01*
X0Y3769528D01*
X10000Y3759528D01*
X20000D01*
Y3769528D01*
X10000Y3779528D01*
X20000Y3789528D01*
Y3799528D01*
X10000D01*
X0Y3789528D01*
X-10000Y3799528D01*
X-20000D01*
Y3789528D01*
X-10000Y3779528D01*
X-20000Y3769528D01*
Y3759528D01*
X30000Y1560000D02*
X50000Y1580000D01*
X70000Y1560000D01*
X50000Y1540000D01*
X30000Y1560000D01*
X-45000D02*
X-25000Y1580000D01*
X-5000Y1560000D01*
X-25000Y1540000D01*
X-45000Y1560000D01*
X1107185Y2519500D02*
Y2559500D01*
X1147185D01*
Y2519500D01*
X1107185D01*
X1115185Y2527500D02*
Y2551500D01*
X1139185D01*
Y2527500D01*
X1115185D01*
X3398000Y2875000D02*
Y2915000D01*
X3438000D01*
Y2875000D01*
X3398000D01*
X3406000Y2883000D02*
Y2907000D01*
X3430000D01*
Y2883000D01*
X3406000D01*
X-20000Y664000D02*
X-40000Y704000D01*
X0D01*
X-20000Y664000D01*
Y672000D02*
X-32000Y696000D01*
X-8000D01*
X-20000Y672000D01*
X20000Y2095000D02*
X40000Y2115000D01*
X60000Y2095000D01*
X40000Y2075000D01*
X20000Y2095000D01*
X-30000D02*
X-10000Y2115000D01*
X10000Y2095000D01*
X-10000Y2075000D01*
X-30000Y2095000D01*
X990000Y2250000D02*
Y2290000D01*
X1030000D01*
Y2250000D01*
X990000D01*
X998000Y2258000D02*
Y2282000D01*
X1022000D01*
Y2258000D01*
X998000D01*
X3400000Y1340000D02*
Y1380000D01*
X3440000D01*
Y1340000D01*
X3400000D01*
X3408000Y1348000D02*
Y1372000D01*
X3432000D01*
Y1348000D01*
X3408000D01*
X3400000Y1460000D02*
Y1500000D01*
X3440000D01*
Y1460000D01*
X3400000D01*
X3408000Y1468000D02*
Y1492000D01*
X3432000D01*
Y1468000D01*
X3408000D01*
X3145000Y2025000D02*
Y2065000D01*
X3185000D01*
Y2025000D01*
X3145000D01*
X3153000Y2033000D02*
Y2057000D01*
X3177000D01*
Y2033000D01*
X3153000D01*
X3155000Y1720000D02*
Y1760000D01*
X3195000D01*
Y1720000D01*
X3155000D01*
X3163000Y1728000D02*
Y1752000D01*
X3187000D01*
Y1728000D01*
X3163000D01*
X3225000Y1790000D02*
X3245000Y1810000D01*
X3265000Y1790000D01*
X3245000Y1770000D01*
X3225000Y1790000D01*
X3230000Y1485000D02*
X3250000Y1505000D01*
X3270000Y1485000D01*
X3250000Y1465000D01*
X3230000Y1485000D01*
X3155000Y1420000D02*
Y1460000D01*
X3195000D01*
Y1420000D01*
X3155000D01*
X3163000Y1428000D02*
Y1452000D01*
X3187000D01*
Y1428000D01*
X3163000D01*
X2140000Y1945000D02*
X2160000Y1965000D01*
X2180000Y1945000D01*
X2160000Y1925000D01*
X2140000Y1945000D01*
Y1875000D02*
X2160000Y1895000D01*
X2180000Y1875000D01*
X2160000Y1855000D01*
X2140000Y1875000D01*
X2165000Y1910000D02*
X2185000Y1930000D01*
X2205000Y1910000D01*
X2185000Y1890000D01*
X2165000Y1910000D01*
Y1840000D02*
X2185000Y1860000D01*
X2205000Y1840000D01*
X2185000Y1820000D01*
X2165000Y1840000D01*
X2140000Y1803579D02*
X2160000Y1823579D01*
X2180000Y1803579D01*
X2160000Y1783579D01*
X2140000Y1803579D01*
X2165000Y1768224D02*
X2185000Y1788224D01*
X2205000Y1768224D01*
X2185000Y1748224D01*
X2165000Y1768224D01*
X2840000Y1945000D02*
X2860000Y1965000D01*
X2880000Y1945000D01*
X2860000Y1925000D01*
X2840000Y1945000D01*
X2745000Y1899645D02*
X2765000Y1919645D01*
X2785000Y1899645D01*
X2765000Y1879645D01*
X2745000Y1899645D01*
X2760000Y1990000D02*
X2780000Y2010000D01*
X2800000Y1990000D01*
X2780000Y1970000D01*
X2760000Y1990000D01*
X2765000Y2095000D02*
X2785000Y2115000D01*
X2805000Y2095000D01*
X2785000Y2075000D01*
X2765000Y2095000D01*
X2760000Y1790000D02*
X2780000Y1810000D01*
X2800000Y1790000D01*
X2780000Y1770000D01*
X2760000Y1790000D01*
Y1690000D02*
X2780000Y1710000D01*
X2800000Y1690000D01*
X2780000Y1670000D01*
X2760000Y1690000D01*
X2580000Y1695000D02*
X2600000Y1715000D01*
X2620000Y1695000D01*
X2600000Y1675000D01*
X2580000Y1695000D01*
Y1595000D02*
X2600000Y1615000D01*
X2620000Y1595000D01*
X2600000Y1575000D01*
X2580000Y1595000D01*
X2820000Y1435000D02*
X2840000Y1455000D01*
X2860000Y1435000D01*
X2840000Y1415000D01*
X2820000Y1435000D01*
Y1740000D02*
X2840000Y1760000D01*
X2860000Y1740000D01*
X2840000Y1720000D01*
X2820000Y1740000D01*
X2825000Y2045000D02*
X2845000Y2065000D01*
X2865000Y2045000D01*
X2845000Y2025000D01*
X2825000Y2045000D01*
X2910000Y875000D02*
X2930000Y895000D01*
X2950000Y875000D01*
X2930000Y855000D01*
X2910000Y875000D01*
X2145000Y2045000D02*
X2165000Y2065000D01*
X2185000Y2045000D01*
X2165000Y2025000D01*
X2145000Y2045000D01*
X2665000Y2050000D02*
X2685000Y2070000D01*
X2705000Y2050000D01*
X2685000Y2030000D01*
X2665000Y2050000D01*
X2395000Y1720000D02*
X2415000Y1740000D01*
X2435000Y1720000D01*
X2415000Y1700000D01*
X2395000Y1720000D01*
X2135000D02*
X2155000Y1740000D01*
X2175000Y1720000D01*
X2155000Y1700000D01*
X2135000Y1720000D01*
X2270000Y2325000D02*
X2290000Y2345000D01*
X2310000Y2325000D01*
X2290000Y2305000D01*
X2270000Y2325000D01*
X2145000Y2261535D02*
X2165000Y2281535D01*
X2185000Y2261535D01*
X2165000Y2241535D01*
X2145000Y2261535D01*
X1700000Y2365000D02*
Y2405000D01*
X1740000D01*
Y2365000D01*
X1700000D01*
X1708000Y2373000D02*
Y2397000D01*
X1732000D01*
Y2373000D01*
X1708000D01*
X1755000Y2305000D02*
Y2345000D01*
X1795000D01*
Y2305000D01*
X1755000D01*
X1763000Y2313000D02*
Y2337000D01*
X1787000D01*
Y2313000D01*
X1763000D01*
X995000Y2165000D02*
Y2205000D01*
X1035000D01*
Y2165000D01*
X995000D01*
X1003000Y2173000D02*
Y2197000D01*
X1027000D01*
Y2173000D01*
X1003000D01*
X2695000Y2240000D02*
X2705000Y2250000D01*
X2715000D01*
X2705000Y2260000D01*
X2715000Y2270000D01*
X2705000D01*
X2695000Y2280000D01*
X2685000Y2270000D01*
X2675000D01*
X2685000Y2260000D01*
X2675000Y2250000D01*
X2685000D01*
X2695000Y2240000D01*
Y2248000D02*
X2701000Y2254000D01*
X2707000D01*
X2701000Y2260000D01*
X2707000Y2266000D01*
X2701000D01*
X2695000Y2272000D01*
X2689000Y2266000D01*
X2683000D01*
X2689000Y2260000D01*
X2683000Y2254000D01*
X2689000D01*
X2695000Y2248000D01*
X3400000Y1400000D02*
Y1440000D01*
X3440000D01*
Y1400000D01*
X3400000D01*
X3408000Y1408000D02*
Y1432000D01*
X3432000D01*
Y1408000D01*
X3408000D01*
X1930000Y1640000D02*
X1940000Y1650000D01*
X1950000D01*
X1940000Y1660000D01*
X1950000Y1670000D01*
X1940000D01*
X1930000Y1680000D01*
X1920000Y1670000D01*
X1910000D01*
X1920000Y1660000D01*
X1910000Y1650000D01*
X1920000D01*
X1930000Y1640000D01*
Y1648000D02*
X1936000Y1654000D01*
X1942000D01*
X1936000Y1660000D01*
X1942000Y1666000D01*
X1936000D01*
X1930000Y1672000D01*
X1924000Y1666000D01*
X1918000D01*
X1924000Y1660000D01*
X1918000Y1654000D01*
X1924000D01*
X1930000Y1648000D01*
X1775000Y1660000D02*
X1785000Y1670000D01*
X1795000D01*
X1785000Y1680000D01*
X1795000Y1690000D01*
X1785000D01*
X1775000Y1700000D01*
X1765000Y1690000D01*
X1755000D01*
X1765000Y1680000D01*
X1755000Y1670000D01*
X1765000D01*
X1775000Y1660000D01*
Y1668000D02*
X1781000Y1674000D01*
X1787000D01*
X1781000Y1680000D01*
X1787000Y1686000D01*
X1781000D01*
X1775000Y1692000D01*
X1769000Y1686000D01*
X1763000D01*
X1769000Y1680000D01*
X1763000Y1674000D01*
X1769000D01*
X1775000Y1668000D01*
X1971995Y1570000D02*
X1981995Y1580000D01*
X1991995D01*
X1981995Y1590000D01*
X1991995Y1600000D01*
X1981995D01*
X1971995Y1610000D01*
X1961995Y1600000D01*
X1951995D01*
X1961995Y1590000D01*
X1951995Y1580000D01*
X1961995D01*
X1971995Y1570000D01*
Y1578000D02*
X1977995Y1584000D01*
X1983995D01*
X1977995Y1590000D01*
X1983995Y1596000D01*
X1977995D01*
X1971995Y1602000D01*
X1965995Y1596000D01*
X1959995D01*
X1965995Y1590000D01*
X1959995Y1584000D01*
X1965995D01*
X1971995Y1578000D01*
X2580000Y1320000D02*
X2590000Y1330000D01*
X2600000D01*
X2590000Y1340000D01*
X2600000Y1350000D01*
X2590000D01*
X2580000Y1360000D01*
X2570000Y1350000D01*
X2560000D01*
X2570000Y1340000D01*
X2560000Y1330000D01*
X2570000D01*
X2580000Y1320000D01*
Y1328000D02*
X2586000Y1334000D01*
X2592000D01*
X2586000Y1340000D01*
X2592000Y1346000D01*
X2586000D01*
X2580000Y1352000D01*
X2574000Y1346000D01*
X2568000D01*
X2574000Y1340000D01*
X2568000Y1334000D01*
X2574000D01*
X2580000Y1328000D01*
X2522500Y1405000D02*
X2532500Y1415000D01*
X2542500D01*
X2532500Y1425000D01*
X2542500Y1435000D01*
X2532500D01*
X2522500Y1445000D01*
X2512500Y1435000D01*
X2502500D01*
X2512500Y1425000D01*
X2502500Y1415000D01*
X2512500D01*
X2522500Y1405000D01*
Y1413000D02*
X2528500Y1419000D01*
X2534500D01*
X2528500Y1425000D01*
X2534500Y1431000D01*
X2528500D01*
X2522500Y1437000D01*
X2516500Y1431000D01*
X2510500D01*
X2516500Y1425000D01*
X2510500Y1419000D01*
X2516500D01*
X2522500Y1413000D01*
X2695000Y1320000D02*
X2705000Y1330000D01*
X2715000D01*
X2705000Y1340000D01*
X2715000Y1350000D01*
X2705000D01*
X2695000Y1360000D01*
X2685000Y1350000D01*
X2675000D01*
X2685000Y1340000D01*
X2675000Y1330000D01*
X2685000D01*
X2695000Y1320000D01*
Y1328000D02*
X2701000Y1334000D01*
X2707000D01*
X2701000Y1340000D01*
X2707000Y1346000D01*
X2701000D01*
X2695000Y1352000D01*
X2689000Y1346000D01*
X2683000D01*
X2689000Y1340000D01*
X2683000Y1334000D01*
X2689000D01*
X2695000Y1328000D01*
X2810000Y1320000D02*
X2820000Y1330000D01*
X2830000D01*
X2820000Y1340000D01*
X2830000Y1350000D01*
X2820000D01*
X2810000Y1360000D01*
X2800000Y1350000D01*
X2790000D01*
X2800000Y1340000D01*
X2790000Y1330000D01*
X2800000D01*
X2810000Y1320000D01*
Y1328000D02*
X2816000Y1334000D01*
X2822000D01*
X2816000Y1340000D01*
X2822000Y1346000D01*
X2816000D01*
X2810000Y1352000D01*
X2804000Y1346000D01*
X2798000D01*
X2804000Y1340000D01*
X2798000Y1334000D01*
X2804000D01*
X2810000Y1328000D01*
X2407500Y1405000D02*
X2417500Y1415000D01*
X2427500D01*
X2417500Y1425000D01*
X2427500Y1435000D01*
X2417500D01*
X2407500Y1445000D01*
X2397500Y1435000D01*
X2387500D01*
X2397500Y1425000D01*
X2387500Y1415000D01*
X2397500D01*
X2407500Y1405000D01*
Y1413000D02*
X2413500Y1419000D01*
X2419500D01*
X2413500Y1425000D01*
X2419500Y1431000D01*
X2413500D01*
X2407500Y1437000D01*
X2401500Y1431000D01*
X2395500D01*
X2401500Y1425000D01*
X2395500Y1419000D01*
X2401500D01*
X2407500Y1413000D01*
X2062500Y1405000D02*
X2072500Y1415000D01*
X2082500D01*
X2072500Y1425000D01*
X2082500Y1435000D01*
X2072500D01*
X2062500Y1445000D01*
X2052500Y1435000D01*
X2042500D01*
X2052500Y1425000D01*
X2042500Y1415000D01*
X2052500D01*
X2062500Y1405000D01*
Y1413000D02*
X2068500Y1419000D01*
X2074500D01*
X2068500Y1425000D01*
X2074500Y1431000D01*
X2068500D01*
X2062500Y1437000D01*
X2056500Y1431000D01*
X2050500D01*
X2056500Y1425000D01*
X2050500Y1419000D01*
X2056500D01*
X2062500Y1413000D01*
X1832500Y1405000D02*
X1842500Y1415000D01*
X1852500D01*
X1842500Y1425000D01*
X1852500Y1435000D01*
X1842500D01*
X1832500Y1445000D01*
X1822500Y1435000D01*
X1812500D01*
X1822500Y1425000D01*
X1812500Y1415000D01*
X1822500D01*
X1832500Y1405000D01*
Y1413000D02*
X1838500Y1419000D01*
X1844500D01*
X1838500Y1425000D01*
X1844500Y1431000D01*
X1838500D01*
X1832500Y1437000D01*
X1826500Y1431000D01*
X1820500D01*
X1826500Y1425000D01*
X1820500Y1419000D01*
X1826500D01*
X1832500Y1413000D01*
X1775000Y1320000D02*
X1785000Y1330000D01*
X1795000D01*
X1785000Y1340000D01*
X1795000Y1350000D01*
X1785000D01*
X1775000Y1360000D01*
X1765000Y1350000D01*
X1755000D01*
X1765000Y1340000D01*
X1755000Y1330000D01*
X1765000D01*
X1775000Y1320000D01*
Y1328000D02*
X1781000Y1334000D01*
X1787000D01*
X1781000Y1340000D01*
X1787000Y1346000D01*
X1781000D01*
X1775000Y1352000D01*
X1769000Y1346000D01*
X1763000D01*
X1769000Y1340000D01*
X1763000Y1334000D01*
X1769000D01*
X1775000Y1328000D01*
Y1490000D02*
X1785000Y1500000D01*
X1795000D01*
X1785000Y1510000D01*
X1795000Y1520000D01*
X1785000D01*
X1775000Y1530000D01*
X1765000Y1520000D01*
X1755000D01*
X1765000Y1510000D01*
X1755000Y1500000D01*
X1765000D01*
X1775000Y1490000D01*
Y1498000D02*
X1781000Y1504000D01*
X1787000D01*
X1781000Y1510000D01*
X1787000Y1516000D01*
X1781000D01*
X1775000Y1522000D01*
X1769000Y1516000D01*
X1763000D01*
X1769000Y1510000D01*
X1763000Y1504000D01*
X1769000D01*
X1775000Y1498000D01*
X2235000Y1490000D02*
X2245000Y1500000D01*
X2255000D01*
X2245000Y1510000D01*
X2255000Y1520000D01*
X2245000D01*
X2235000Y1530000D01*
X2225000Y1520000D01*
X2215000D01*
X2225000Y1510000D01*
X2215000Y1500000D01*
X2225000D01*
X2235000Y1490000D01*
Y1498000D02*
X2241000Y1504000D01*
X2247000D01*
X2241000Y1510000D01*
X2247000Y1516000D01*
X2241000D01*
X2235000Y1522000D01*
X2229000Y1516000D01*
X2223000D01*
X2229000Y1510000D01*
X2223000Y1504000D01*
X2229000D01*
X2235000Y1498000D01*
X2350000Y1490000D02*
X2360000Y1500000D01*
X2370000D01*
X2360000Y1510000D01*
X2370000Y1520000D01*
X2360000D01*
X2350000Y1530000D01*
X2340000Y1520000D01*
X2330000D01*
X2340000Y1510000D01*
X2330000Y1500000D01*
X2340000D01*
X2350000Y1490000D01*
Y1498000D02*
X2356000Y1504000D01*
X2362000D01*
X2356000Y1510000D01*
X2362000Y1516000D01*
X2356000D01*
X2350000Y1522000D01*
X2344000Y1516000D01*
X2338000D01*
X2344000Y1510000D01*
X2338000Y1504000D01*
X2344000D01*
X2350000Y1498000D01*
X2465000Y1490000D02*
X2475000Y1500000D01*
X2485000D01*
X2475000Y1510000D01*
X2485000Y1520000D01*
X2475000D01*
X2465000Y1530000D01*
X2455000Y1520000D01*
X2445000D01*
X2455000Y1510000D01*
X2445000Y1500000D01*
X2455000D01*
X2465000Y1490000D01*
Y1498000D02*
X2471000Y1504000D01*
X2477000D01*
X2471000Y1510000D01*
X2477000Y1516000D01*
X2471000D01*
X2465000Y1522000D01*
X2459000Y1516000D01*
X2453000D01*
X2459000Y1510000D01*
X2453000Y1504000D01*
X2459000D01*
X2465000Y1498000D01*
X2292500Y1575000D02*
X2302500Y1585000D01*
X2312500D01*
X2302500Y1595000D01*
X2312500Y1605000D01*
X2302500D01*
X2292500Y1615000D01*
X2282500Y1605000D01*
X2272500D01*
X2282500Y1595000D01*
X2272500Y1585000D01*
X2282500D01*
X2292500Y1575000D01*
Y1583000D02*
X2298500Y1589000D01*
X2304500D01*
X2298500Y1595000D01*
X2304500Y1601000D01*
X2298500D01*
X2292500Y1607000D01*
X2286500Y1601000D01*
X2280500D01*
X2286500Y1595000D01*
X2280500Y1589000D01*
X2286500D01*
X2292500Y1583000D01*
X2407500Y1575000D02*
X2417500Y1585000D01*
X2427500D01*
X2417500Y1595000D01*
X2427500Y1605000D01*
X2417500D01*
X2407500Y1615000D01*
X2397500Y1605000D01*
X2387500D01*
X2397500Y1595000D01*
X2387500Y1585000D01*
X2397500D01*
X2407500Y1575000D01*
Y1583000D02*
X2413500Y1589000D01*
X2419500D01*
X2413500Y1595000D01*
X2419500Y1601000D01*
X2413500D01*
X2407500Y1607000D01*
X2401500Y1601000D01*
X2395500D01*
X2401500Y1595000D01*
X2395500Y1589000D01*
X2401500D01*
X2407500Y1583000D01*
X2235000Y1660000D02*
X2245000Y1670000D01*
X2255000D01*
X2245000Y1680000D01*
X2255000Y1690000D01*
X2245000D01*
X2235000Y1700000D01*
X2225000Y1690000D01*
X2215000D01*
X2225000Y1680000D01*
X2215000Y1670000D01*
X2225000D01*
X2235000Y1660000D01*
Y1668000D02*
X2241000Y1674000D01*
X2247000D01*
X2241000Y1680000D01*
X2247000Y1686000D01*
X2241000D01*
X2235000Y1692000D01*
X2229000Y1686000D01*
X2223000D01*
X2229000Y1680000D01*
X2223000Y1674000D01*
X2229000D01*
X2235000Y1668000D01*
X2350000Y1660000D02*
X2360000Y1670000D01*
X2370000D01*
X2360000Y1680000D01*
X2370000Y1690000D01*
X2360000D01*
X2350000Y1700000D01*
X2340000Y1690000D01*
X2330000D01*
X2340000Y1680000D01*
X2330000Y1670000D01*
X2340000D01*
X2350000Y1660000D01*
Y1668000D02*
X2356000Y1674000D01*
X2362000D01*
X2356000Y1680000D01*
X2362000Y1686000D01*
X2356000D01*
X2350000Y1692000D01*
X2344000Y1686000D01*
X2338000D01*
X2344000Y1680000D01*
X2338000Y1674000D01*
X2344000D01*
X2350000Y1668000D01*
X2465000Y1660000D02*
X2475000Y1670000D01*
X2485000D01*
X2475000Y1680000D01*
X2485000Y1690000D01*
X2475000D01*
X2465000Y1700000D01*
X2455000Y1690000D01*
X2445000D01*
X2455000Y1680000D01*
X2445000Y1670000D01*
X2455000D01*
X2465000Y1660000D01*
Y1668000D02*
X2471000Y1674000D01*
X2477000D01*
X2471000Y1680000D01*
X2477000Y1686000D01*
X2471000D01*
X2465000Y1692000D01*
X2459000Y1686000D01*
X2453000D01*
X2459000Y1680000D01*
X2453000Y1674000D01*
X2459000D01*
X2465000Y1668000D01*
X2637500Y1405000D02*
X2647500Y1415000D01*
X2657500D01*
X2647500Y1425000D01*
X2657500Y1435000D01*
X2647500D01*
X2637500Y1445000D01*
X2627500Y1435000D01*
X2617500D01*
X2627500Y1425000D01*
X2617500Y1415000D01*
X2627500D01*
X2637500Y1405000D01*
Y1413000D02*
X2643500Y1419000D01*
X2649500D01*
X2643500Y1425000D01*
X2649500Y1431000D01*
X2643500D01*
X2637500Y1437000D01*
X2631500Y1431000D01*
X2625500D01*
X2631500Y1425000D01*
X2625500Y1419000D01*
X2631500D01*
X2637500Y1413000D01*
X2580000Y1490000D02*
X2590000Y1500000D01*
X2600000D01*
X2590000Y1510000D01*
X2600000Y1520000D01*
X2590000D01*
X2580000Y1530000D01*
X2570000Y1520000D01*
X2560000D01*
X2570000Y1510000D01*
X2560000Y1500000D01*
X2570000D01*
X2580000Y1490000D01*
Y1498000D02*
X2586000Y1504000D01*
X2592000D01*
X2586000Y1510000D01*
X2592000Y1516000D01*
X2586000D01*
X2580000Y1522000D01*
X2574000Y1516000D01*
X2568000D01*
X2574000Y1510000D01*
X2568000Y1504000D01*
X2574000D01*
X2580000Y1498000D01*
X2522500Y1575000D02*
X2532500Y1585000D01*
X2542500D01*
X2532500Y1595000D01*
X2542500Y1605000D01*
X2532500D01*
X2522500Y1615000D01*
X2512500Y1605000D01*
X2502500D01*
X2512500Y1595000D01*
X2502500Y1585000D01*
X2512500D01*
X2522500Y1575000D01*
Y1583000D02*
X2528500Y1589000D01*
X2534500D01*
X2528500Y1595000D01*
X2534500Y1601000D01*
X2528500D01*
X2522500Y1607000D01*
X2516500Y1601000D01*
X2510500D01*
X2516500Y1595000D01*
X2510500Y1589000D01*
X2516500D01*
X2522500Y1583000D01*
X2715000Y1760000D02*
X2725000Y1770000D01*
X2735000D01*
X2725000Y1780000D01*
X2735000Y1790000D01*
X2725000D01*
X2715000Y1800000D01*
X2705000Y1790000D01*
X2695000D01*
X2705000Y1780000D01*
X2695000Y1770000D01*
X2705000D01*
X2715000Y1760000D01*
Y1768000D02*
X2721000Y1774000D01*
X2727000D01*
X2721000Y1780000D01*
X2727000Y1786000D01*
X2721000D01*
X2715000Y1792000D01*
X2709000Y1786000D01*
X2703000D01*
X2709000Y1780000D01*
X2703000Y1774000D01*
X2709000D01*
X2715000Y1768000D01*
X2220000Y2065000D02*
X2230000Y2075000D01*
X2240000D01*
X2230000Y2085000D01*
X2240000Y2095000D01*
X2230000D01*
X2220000Y2105000D01*
X2210000Y2095000D01*
X2200000D01*
X2210000Y2085000D01*
X2200000Y2075000D01*
X2210000D01*
X2220000Y2065000D01*
Y2073000D02*
X2226000Y2079000D01*
X2232000D01*
X2226000Y2085000D01*
X2232000Y2091000D01*
X2226000D01*
X2220000Y2097000D01*
X2214000Y2091000D01*
X2208000D01*
X2214000Y2085000D01*
X2208000Y2079000D01*
X2214000D01*
X2220000Y2073000D01*
X2998189Y1938976D02*
X3008189Y1948976D01*
X3018189D01*
X3008189Y1958976D01*
X3018189Y1968976D01*
X3008189D01*
X2998189Y1978976D01*
X2988189Y1968976D01*
X2978189D01*
X2988189Y1958976D01*
X2978189Y1948976D01*
X2988189D01*
X2998189Y1938976D01*
Y1946976D02*
X3004189Y1952976D01*
X3010189D01*
X3004189Y1958976D01*
X3010189Y1964976D01*
X3004189D01*
X2998189Y1970976D01*
X2992189Y1964976D01*
X2986189D01*
X2992189Y1958976D01*
X2986189Y1952976D01*
X2992189D01*
X2998189Y1946976D01*
X3040000Y1830000D02*
X3050000Y1840000D01*
X3060000D01*
X3050000Y1850000D01*
X3060000Y1860000D01*
X3050000D01*
X3040000Y1870000D01*
X3030000Y1860000D01*
X3020000D01*
X3030000Y1850000D01*
X3020000Y1840000D01*
X3030000D01*
X3040000Y1830000D01*
Y1838000D02*
X3046000Y1844000D01*
X3052000D01*
X3046000Y1850000D01*
X3052000Y1856000D01*
X3046000D01*
X3040000Y1862000D01*
X3034000Y1856000D01*
X3028000D01*
X3034000Y1850000D01*
X3028000Y1844000D01*
X3034000D01*
X3040000Y1838000D01*
X3270000Y1830000D02*
X3280000Y1840000D01*
X3290000D01*
X3280000Y1850000D01*
X3290000Y1860000D01*
X3280000D01*
X3270000Y1870000D01*
X3260000Y1860000D01*
X3250000D01*
X3260000Y1850000D01*
X3250000Y1840000D01*
X3260000D01*
X3270000Y1830000D01*
Y1838000D02*
X3276000Y1844000D01*
X3282000D01*
X3276000Y1850000D01*
X3282000Y1856000D01*
X3276000D01*
X3270000Y1862000D01*
X3264000Y1856000D01*
X3258000D01*
X3264000Y1850000D01*
X3258000Y1844000D01*
X3264000D01*
X3270000Y1838000D01*
X3097500Y1575000D02*
X3107500Y1585000D01*
X3117500D01*
X3107500Y1595000D01*
X3117500Y1605000D01*
X3107500D01*
X3097500Y1615000D01*
X3087500Y1605000D01*
X3077500D01*
X3087500Y1595000D01*
X3077500Y1585000D01*
X3087500D01*
X3097500Y1575000D01*
Y1583000D02*
X3103500Y1589000D01*
X3109500D01*
X3103500Y1595000D01*
X3109500Y1601000D01*
X3103500D01*
X3097500Y1607000D01*
X3091500Y1601000D01*
X3085500D01*
X3091500Y1595000D01*
X3085500Y1589000D01*
X3091500D01*
X3097500Y1583000D01*
X2925000Y980000D02*
X2935000Y990000D01*
X2945000D01*
X2935000Y1000000D01*
X2945000Y1010000D01*
X2935000D01*
X2925000Y1020000D01*
X2915000Y1010000D01*
X2905000D01*
X2915000Y1000000D01*
X2905000Y990000D01*
X2915000D01*
X2925000Y980000D01*
Y988000D02*
X2931000Y994000D01*
X2937000D01*
X2931000Y1000000D01*
X2937000Y1006000D01*
X2931000D01*
X2925000Y1012000D01*
X2919000Y1006000D01*
X2913000D01*
X2919000Y1000000D01*
X2913000Y994000D01*
X2919000D01*
X2925000Y988000D01*
X3410245Y784054D02*
X3420245Y794054D01*
X3430245D01*
X3420245Y804054D01*
X3430245Y814054D01*
X3420245D01*
X3410245Y824054D01*
X3400245Y814054D01*
X3390245D01*
X3400245Y804054D01*
X3390245Y794054D01*
X3400245D01*
X3410245Y784054D01*
Y792054D02*
X3416245Y798054D01*
X3422245D01*
X3416245Y804054D01*
X3422245Y810054D01*
X3416245D01*
X3410245Y816054D01*
X3404245Y810054D01*
X3398245D01*
X3404245Y804054D01*
X3398245Y798054D01*
X3404245D01*
X3410245Y792054D01*
X3525245Y784054D02*
X3535245Y794054D01*
X3545245D01*
X3535245Y804054D01*
X3545245Y814054D01*
X3535245D01*
X3525245Y824054D01*
X3515245Y814054D01*
X3505245D01*
X3515245Y804054D01*
X3505245Y794054D01*
X3515245D01*
X3525245Y784054D01*
Y792054D02*
X3531245Y798054D01*
X3537245D01*
X3531245Y804054D01*
X3537245Y810054D01*
X3531245D01*
X3525245Y816054D01*
X3519245Y810054D01*
X3513245D01*
X3519245Y804054D01*
X3513245Y798054D01*
X3519245D01*
X3525245Y792054D01*
X3730000Y1150000D02*
X3740000Y1160000D01*
X3750000D01*
X3740000Y1170000D01*
X3750000Y1180000D01*
X3740000D01*
X3730000Y1190000D01*
X3720000Y1180000D01*
X3710000D01*
X3720000Y1170000D01*
X3710000Y1160000D01*
X3720000D01*
X3730000Y1150000D01*
Y1158000D02*
X3736000Y1164000D01*
X3742000D01*
X3736000Y1170000D01*
X3742000Y1176000D01*
X3736000D01*
X3730000Y1182000D01*
X3724000Y1176000D01*
X3718000D01*
X3724000Y1170000D01*
X3718000Y1164000D01*
X3724000D01*
X3730000Y1158000D01*
X3615000Y1150000D02*
X3625000Y1160000D01*
X3635000D01*
X3625000Y1170000D01*
X3635000Y1180000D01*
X3625000D01*
X3615000Y1190000D01*
X3605000Y1180000D01*
X3595000D01*
X3605000Y1170000D01*
X3595000Y1160000D01*
X3605000D01*
X3615000Y1150000D01*
Y1158000D02*
X3621000Y1164000D01*
X3627000D01*
X3621000Y1170000D01*
X3627000Y1176000D01*
X3621000D01*
X3615000Y1182000D01*
X3609000Y1176000D01*
X3603000D01*
X3609000Y1170000D01*
X3603000Y1164000D01*
X3609000D01*
X3615000Y1158000D01*
X3430000Y1275000D02*
X3440000Y1285000D01*
X3450000D01*
X3440000Y1295000D01*
X3450000Y1305000D01*
X3440000D01*
X3430000Y1315000D01*
X3420000Y1305000D01*
X3410000D01*
X3420000Y1295000D01*
X3410000Y1285000D01*
X3420000D01*
X3430000Y1275000D01*
Y1283000D02*
X3436000Y1289000D01*
X3442000D01*
X3436000Y1295000D01*
X3442000Y1301000D01*
X3436000D01*
X3430000Y1307000D01*
X3424000Y1301000D01*
X3418000D01*
X3424000Y1295000D01*
X3418000Y1289000D01*
X3424000D01*
X3430000Y1283000D01*
X3212500Y1235000D02*
X3222500Y1245000D01*
X3232500D01*
X3222500Y1255000D01*
X3232500Y1265000D01*
X3222500D01*
X3212500Y1275000D01*
X3202500Y1265000D01*
X3192500D01*
X3202500Y1255000D01*
X3192500Y1245000D01*
X3202500D01*
X3212500Y1235000D01*
Y1243000D02*
X3218500Y1249000D01*
X3224500D01*
X3218500Y1255000D01*
X3224500Y1261000D01*
X3218500D01*
X3212500Y1267000D01*
X3206500Y1261000D01*
X3200500D01*
X3206500Y1255000D01*
X3200500Y1249000D01*
X3206500D01*
X3212500Y1243000D01*
X3270000Y1165000D02*
X3280000Y1175000D01*
X3290000D01*
X3280000Y1185000D01*
X3290000Y1195000D01*
X3280000D01*
X3270000Y1205000D01*
X3260000Y1195000D01*
X3250000D01*
X3260000Y1185000D01*
X3250000Y1175000D01*
X3260000D01*
X3270000Y1165000D01*
Y1173000D02*
X3276000Y1179000D01*
X3282000D01*
X3276000Y1185000D01*
X3282000Y1191000D01*
X3276000D01*
X3270000Y1197000D01*
X3264000Y1191000D01*
X3258000D01*
X3264000Y1185000D01*
X3258000Y1179000D01*
X3264000D01*
X3270000Y1173000D01*
X2867500Y1065000D02*
X2877500Y1075000D01*
X2887500D01*
X2877500Y1085000D01*
X2887500Y1095000D01*
X2877500D01*
X2867500Y1105000D01*
X2857500Y1095000D01*
X2847500D01*
X2857500Y1085000D01*
X2847500Y1075000D01*
X2857500D01*
X2867500Y1065000D01*
Y1073000D02*
X2873500Y1079000D01*
X2879500D01*
X2873500Y1085000D01*
X2879500Y1091000D01*
X2873500D01*
X2867500Y1097000D01*
X2861500Y1091000D01*
X2855500D01*
X2861500Y1085000D01*
X2855500Y1079000D01*
X2861500D01*
X2867500Y1073000D01*
X2925000Y1150000D02*
X2935000Y1160000D01*
X2945000D01*
X2935000Y1170000D01*
X2945000Y1180000D01*
X2935000D01*
X2925000Y1190000D01*
X2915000Y1180000D01*
X2905000D01*
X2915000Y1170000D01*
X2905000Y1160000D01*
X2915000D01*
X2925000Y1150000D01*
Y1158000D02*
X2931000Y1164000D01*
X2937000D01*
X2931000Y1170000D01*
X2937000Y1176000D01*
X2931000D01*
X2925000Y1182000D01*
X2919000Y1176000D01*
X2913000D01*
X2919000Y1170000D01*
X2913000Y1164000D01*
X2919000D01*
X2925000Y1158000D01*
X2982500Y1065000D02*
X2992500Y1075000D01*
X3002500D01*
X2992500Y1085000D01*
X3002500Y1095000D01*
X2992500D01*
X2982500Y1105000D01*
X2972500Y1095000D01*
X2962500D01*
X2972500Y1085000D01*
X2962500Y1075000D01*
X2972500D01*
X2982500Y1065000D01*
Y1073000D02*
X2988500Y1079000D01*
X2994500D01*
X2988500Y1085000D01*
X2994500Y1091000D01*
X2988500D01*
X2982500Y1097000D01*
X2976500Y1091000D01*
X2970500D01*
X2976500Y1085000D01*
X2970500Y1079000D01*
X2976500D01*
X2982500Y1073000D01*
X3155000Y1160000D02*
X3165000Y1170000D01*
X3175000D01*
X3165000Y1180000D01*
X3175000Y1190000D01*
X3165000D01*
X3155000Y1200000D01*
X3145000Y1190000D01*
X3135000D01*
X3145000Y1180000D01*
X3135000Y1170000D01*
X3145000D01*
X3155000Y1160000D01*
Y1168000D02*
X3161000Y1174000D01*
X3167000D01*
X3161000Y1180000D01*
X3167000Y1186000D01*
X3161000D01*
X3155000Y1192000D01*
X3149000Y1186000D01*
X3143000D01*
X3149000Y1180000D01*
X3143000Y1174000D01*
X3149000D01*
X3155000Y1168000D01*
X2120000Y1150000D02*
X2130000Y1160000D01*
X2140000D01*
X2130000Y1170000D01*
X2140000Y1180000D01*
X2130000D01*
X2120000Y1190000D01*
X2110000Y1180000D01*
X2100000D01*
X2110000Y1170000D01*
X2100000Y1160000D01*
X2110000D01*
X2120000Y1150000D01*
Y1158000D02*
X2126000Y1164000D01*
X2132000D01*
X2126000Y1170000D01*
X2132000Y1176000D01*
X2126000D01*
X2120000Y1182000D01*
X2114000Y1176000D01*
X2108000D01*
X2114000Y1170000D01*
X2108000Y1164000D01*
X2114000D01*
X2120000Y1158000D01*
X2289000Y1075000D02*
X2299000Y1085000D01*
X2309000D01*
X2299000Y1095000D01*
X2309000Y1105000D01*
X2299000D01*
X2289000Y1115000D01*
X2279000Y1105000D01*
X2269000D01*
X2279000Y1095000D01*
X2269000Y1085000D01*
X2279000D01*
X2289000Y1075000D01*
Y1083000D02*
X2295000Y1089000D01*
X2301000D01*
X2295000Y1095000D01*
X2301000Y1101000D01*
X2295000D01*
X2289000Y1107000D01*
X2283000Y1101000D01*
X2277000D01*
X2283000Y1095000D01*
X2277000Y1089000D01*
X2283000D01*
X2289000Y1083000D01*
X2187500Y1075000D02*
X2197500Y1085000D01*
X2207500D01*
X2197500Y1095000D01*
X2207500Y1105000D01*
X2197500D01*
X2187500Y1115000D01*
X2177500Y1105000D01*
X2167500D01*
X2177500Y1095000D01*
X2167500Y1085000D01*
X2177500D01*
X2187500Y1075000D01*
Y1083000D02*
X2193500Y1089000D01*
X2199500D01*
X2193500Y1095000D01*
X2199500Y1101000D01*
X2193500D01*
X2187500Y1107000D01*
X2181500Y1101000D01*
X2175500D01*
X2181500Y1095000D01*
X2175500Y1089000D01*
X2181500D01*
X2187500Y1083000D01*
X1947500Y1065000D02*
X1957500Y1075000D01*
X1967500D01*
X1957500Y1085000D01*
X1967500Y1095000D01*
X1957500D01*
X1947500Y1105000D01*
X1937500Y1095000D01*
X1927500D01*
X1937500Y1085000D01*
X1927500Y1075000D01*
X1937500D01*
X1947500Y1065000D01*
Y1073000D02*
X1953500Y1079000D01*
X1959500D01*
X1953500Y1085000D01*
X1959500Y1091000D01*
X1953500D01*
X1947500Y1097000D01*
X1941500Y1091000D01*
X1935500D01*
X1941500Y1085000D01*
X1935500Y1079000D01*
X1941500D01*
X1947500Y1073000D01*
X1890000Y1150000D02*
X1900000Y1160000D01*
X1910000D01*
X1900000Y1170000D01*
X1910000Y1180000D01*
X1900000D01*
X1890000Y1190000D01*
X1880000Y1180000D01*
X1870000D01*
X1880000Y1170000D01*
X1870000Y1160000D01*
X1880000D01*
X1890000Y1150000D01*
Y1158000D02*
X1896000Y1164000D01*
X1902000D01*
X1896000Y1170000D01*
X1902000Y1176000D01*
X1896000D01*
X1890000Y1182000D01*
X1884000Y1176000D01*
X1878000D01*
X1884000Y1170000D01*
X1878000Y1164000D01*
X1884000D01*
X1890000Y1158000D01*
X1832500Y1235000D02*
X1842500Y1245000D01*
X1852500D01*
X1842500Y1255000D01*
X1852500Y1265000D01*
X1842500D01*
X1832500Y1275000D01*
X1822500Y1265000D01*
X1812500D01*
X1822500Y1255000D01*
X1812500Y1245000D01*
X1822500D01*
X1832500Y1235000D01*
Y1243000D02*
X1838500Y1249000D01*
X1844500D01*
X1838500Y1255000D01*
X1844500Y1261000D01*
X1838500D01*
X1832500Y1267000D01*
X1826500Y1261000D01*
X1820500D01*
X1826500Y1255000D01*
X1820500Y1249000D01*
X1826500D01*
X1832500Y1243000D01*
X1822745Y1088550D02*
X1832745Y1098550D01*
X1842745D01*
X1832745Y1108550D01*
X1842745Y1118550D01*
X1832745D01*
X1822745Y1128550D01*
X1812745Y1118550D01*
X1802745D01*
X1812745Y1108550D01*
X1802745Y1098550D01*
X1812745D01*
X1822745Y1088550D01*
Y1096550D02*
X1828745Y1102550D01*
X1834745D01*
X1828745Y1108550D01*
X1834745Y1114550D01*
X1828745D01*
X1822745Y1120550D01*
X1816745Y1114550D01*
X1810745D01*
X1816745Y1108550D01*
X1810745Y1102550D01*
X1816745D01*
X1822745Y1096550D01*
X1775000Y1150000D02*
X1785000Y1160000D01*
X1795000D01*
X1785000Y1170000D01*
X1795000Y1180000D01*
X1785000D01*
X1775000Y1190000D01*
X1765000Y1180000D01*
X1755000D01*
X1765000Y1170000D01*
X1755000Y1160000D01*
X1765000D01*
X1775000Y1150000D01*
Y1158000D02*
X1781000Y1164000D01*
X1787000D01*
X1781000Y1170000D01*
X1787000Y1176000D01*
X1781000D01*
X1775000Y1182000D01*
X1769000Y1176000D01*
X1763000D01*
X1769000Y1170000D01*
X1763000Y1164000D01*
X1769000D01*
X1775000Y1158000D01*
X2216976Y1131976D02*
X2226976Y1141976D01*
X2236976D01*
X2226976Y1151976D01*
X2236976Y1161976D01*
X2226976D01*
X2216976Y1171976D01*
X2206976Y1161976D01*
X2196976D01*
X2206976Y1151976D01*
X2196976Y1141976D01*
X2206976D01*
X2216976Y1131976D01*
Y1139976D02*
X2222976Y1145976D01*
X2228976D01*
X2222976Y1151976D01*
X2228976Y1157976D01*
X2222976D01*
X2216976Y1163976D01*
X2210976Y1157976D01*
X2204976D01*
X2210976Y1151976D01*
X2204976Y1145976D01*
X2210976D01*
X2216976Y1139976D01*
X2642500Y1075000D02*
X2652500Y1085000D01*
X2662500D01*
X2652500Y1095000D01*
X2662500Y1105000D01*
X2652500D01*
X2642500Y1115000D01*
X2632500Y1105000D01*
X2622500D01*
X2632500Y1095000D01*
X2622500Y1085000D01*
X2632500D01*
X2642500Y1075000D01*
Y1083000D02*
X2648500Y1089000D01*
X2654500D01*
X2648500Y1095000D01*
X2654500Y1101000D01*
X2648500D01*
X2642500Y1107000D01*
X2636500Y1101000D01*
X2630500D01*
X2636500Y1095000D01*
X2630500Y1089000D01*
X2636500D01*
X2642500Y1083000D01*
X2757500Y1075000D02*
X2767500Y1085000D01*
X2777500D01*
X2767500Y1095000D01*
X2777500Y1105000D01*
X2767500D01*
X2757500Y1115000D01*
X2747500Y1105000D01*
X2737500D01*
X2747500Y1095000D01*
X2737500Y1085000D01*
X2747500D01*
X2757500Y1075000D01*
Y1083000D02*
X2763500Y1089000D01*
X2769500D01*
X2763500Y1095000D01*
X2769500Y1101000D01*
X2763500D01*
X2757500Y1107000D01*
X2751500Y1101000D01*
X2745500D01*
X2751500Y1095000D01*
X2745500Y1089000D01*
X2751500D01*
X2757500Y1083000D01*
X2580000Y1150000D02*
X2590000Y1160000D01*
X2600000D01*
X2590000Y1170000D01*
X2600000Y1180000D01*
X2590000D01*
X2580000Y1190000D01*
X2570000Y1180000D01*
X2560000D01*
X2570000Y1170000D01*
X2560000Y1160000D01*
X2570000D01*
X2580000Y1150000D01*
Y1158000D02*
X2586000Y1164000D01*
X2592000D01*
X2586000Y1170000D01*
X2592000Y1176000D01*
X2586000D01*
X2580000Y1182000D01*
X2574000Y1176000D01*
X2568000D01*
X2574000Y1170000D01*
X2568000Y1164000D01*
X2574000D01*
X2580000Y1158000D01*
X2695000Y1150000D02*
X2705000Y1160000D01*
X2715000D01*
X2705000Y1170000D01*
X2715000Y1180000D01*
X2705000D01*
X2695000Y1190000D01*
X2685000Y1180000D01*
X2675000D01*
X2685000Y1170000D01*
X2675000Y1160000D01*
X2685000D01*
X2695000Y1150000D01*
Y1158000D02*
X2701000Y1164000D01*
X2707000D01*
X2701000Y1170000D01*
X2707000Y1176000D01*
X2701000D01*
X2695000Y1182000D01*
X2689000Y1176000D01*
X2683000D01*
X2689000Y1170000D01*
X2683000Y1164000D01*
X2689000D01*
X2695000Y1158000D01*
X2810000Y1150000D02*
X2820000Y1160000D01*
X2830000D01*
X2820000Y1170000D01*
X2830000Y1180000D01*
X2820000D01*
X2810000Y1190000D01*
X2800000Y1180000D01*
X2790000D01*
X2800000Y1170000D01*
X2790000Y1160000D01*
X2800000D01*
X2810000Y1150000D01*
Y1158000D02*
X2816000Y1164000D01*
X2822000D01*
X2816000Y1170000D01*
X2822000Y1176000D01*
X2816000D01*
X2810000Y1182000D01*
X2804000Y1176000D01*
X2798000D01*
X2804000Y1170000D01*
X2798000Y1164000D01*
X2804000D01*
X2810000Y1158000D01*
X1986976Y961976D02*
X1996976Y971976D01*
X2006976D01*
X1996976Y981976D01*
X2006976Y991976D01*
X1996976D01*
X1986976Y1001976D01*
X1976976Y991976D01*
X1966976D01*
X1976976Y981976D01*
X1966976Y971976D01*
X1976976D01*
X1986976Y961976D01*
Y969976D02*
X1992976Y975976D01*
X1998976D01*
X1992976Y981976D01*
X1998976Y987976D01*
X1992976D01*
X1986976Y993976D01*
X1980976Y987976D01*
X1974976D01*
X1980976Y981976D01*
X1974976Y975976D01*
X1980976D01*
X1986976Y969976D01*
X1775000Y980000D02*
X1785000Y990000D01*
X1795000D01*
X1785000Y1000000D01*
X1795000Y1010000D01*
X1785000D01*
X1775000Y1020000D01*
X1765000Y1010000D01*
X1755000D01*
X1765000Y1000000D01*
X1755000Y990000D01*
X1765000D01*
X1775000Y980000D01*
Y988000D02*
X1781000Y994000D01*
X1787000D01*
X1781000Y1000000D01*
X1787000Y1006000D01*
X1781000D01*
X1775000Y1012000D01*
X1769000Y1006000D01*
X1763000D01*
X1769000Y1000000D01*
X1763000Y994000D01*
X1769000D01*
X1775000Y988000D01*
X1899755Y956451D02*
X1909755Y966451D01*
X1919755D01*
X1909755Y976451D01*
X1919755Y986451D01*
X1909755D01*
X1899755Y996451D01*
X1889755Y986451D01*
X1879755D01*
X1889755Y976451D01*
X1879755Y966451D01*
X1889755D01*
X1899755Y956451D01*
Y964451D02*
X1905755Y970451D01*
X1911755D01*
X1905755Y976451D01*
X1911755Y982451D01*
X1905755D01*
X1899755Y988451D01*
X1893755Y982451D01*
X1887755D01*
X1893755Y976451D01*
X1887755Y970451D01*
X1893755D01*
X1899755Y964451D01*
X2980000Y2100394D02*
X2990000Y2110394D01*
X3000000D01*
X2990000Y2120394D01*
X3000000Y2130394D01*
X2990000D01*
X2980000Y2140394D01*
X2970000Y2130394D01*
X2960000D01*
X2970000Y2120394D01*
X2960000Y2110394D01*
X2970000D01*
X2980000Y2100394D01*
Y2108394D02*
X2986000Y2114394D01*
X2992000D01*
X2986000Y2120394D01*
X2992000Y2126394D01*
X2986000D01*
X2980000Y2132394D01*
X2974000Y2126394D01*
X2968000D01*
X2974000Y2120394D01*
X2968000Y2114394D01*
X2974000D01*
X2980000Y2108394D01*
X3305000Y785000D02*
X3315000Y795000D01*
X3325000D01*
X3315000Y805000D01*
X3325000Y815000D01*
X3315000D01*
X3305000Y825000D01*
X3295000Y815000D01*
X3285000D01*
X3295000Y805000D01*
X3285000Y795000D01*
X3295000D01*
X3305000Y785000D01*
Y793000D02*
X3311000Y799000D01*
X3317000D01*
X3311000Y805000D01*
X3317000Y811000D01*
X3311000D01*
X3305000Y817000D01*
X3299000Y811000D01*
X3293000D01*
X3299000Y805000D01*
X3293000Y799000D01*
X3299000D01*
X3305000Y793000D01*
X3190000Y785000D02*
X3200000Y795000D01*
X3210000D01*
X3200000Y805000D01*
X3210000Y815000D01*
X3200000D01*
X3190000Y825000D01*
X3180000Y815000D01*
X3170000D01*
X3180000Y805000D01*
X3170000Y795000D01*
X3180000D01*
X3190000Y785000D01*
Y793000D02*
X3196000Y799000D01*
X3202000D01*
X3196000Y805000D01*
X3202000Y811000D01*
X3196000D01*
X3190000Y817000D01*
X3184000Y811000D01*
X3178000D01*
X3184000Y805000D01*
X3178000Y799000D01*
X3184000D01*
X3190000Y793000D01*
X3075000Y785000D02*
X3085000Y795000D01*
X3095000D01*
X3085000Y805000D01*
X3095000Y815000D01*
X3085000D01*
X3075000Y825000D01*
X3065000Y815000D01*
X3055000D01*
X3065000Y805000D01*
X3055000Y795000D01*
X3065000D01*
X3075000Y785000D01*
Y793000D02*
X3081000Y799000D01*
X3087000D01*
X3081000Y805000D01*
X3087000Y811000D01*
X3081000D01*
X3075000Y817000D01*
X3069000Y811000D01*
X3063000D01*
X3069000Y805000D01*
X3063000Y799000D01*
X3069000D01*
X3075000Y793000D01*
X3640245Y784054D02*
X3650245Y794054D01*
X3660245D01*
X3650245Y804054D01*
X3660245Y814054D01*
X3650245D01*
X3640245Y824054D01*
X3630245Y814054D01*
X3620245D01*
X3630245Y804054D01*
X3620245Y794054D01*
X3630245D01*
X3640245Y784054D01*
Y792054D02*
X3646245Y798054D01*
X3652245D01*
X3646245Y804054D01*
X3652245Y810054D01*
X3646245D01*
X3640245Y816054D01*
X3634245Y810054D01*
X3628245D01*
X3634245Y804054D01*
X3628245Y798054D01*
X3634245D01*
X3640245Y792054D01*
X3605000Y2344000D02*
Y2384000D01*
X3645000D01*
Y2344000D01*
X3605000D01*
X3613000Y2352000D02*
Y2376000D01*
X3637000D01*
Y2352000D01*
X3613000D01*
D108*
X3428526Y3698528D02*
G03*
X3428526Y3698528I-20000J0D01*
G01*
X391000Y81000D02*
G03*
X391000Y81000I-20000J0D01*
G01*
X3520000Y2980630D02*
G03*
X3520000Y2980630I-20000J0D01*
G01*
X186000Y39000D02*
G03*
X186000Y39000I-20000J0D01*
G01*
X-18000Y161000D02*
G03*
X-18000Y161000I-20000J0D01*
G01*
X118000D02*
G03*
X118000Y161000I-20000J0D01*
G01*
X254000D02*
G03*
X254000Y161000I-20000J0D01*
G01*
Y405000D02*
G03*
X254000Y405000I-20000J0D01*
G01*
X322000Y39000D02*
G03*
X322000Y39000I-20000J0D01*
G01*
Y527000D02*
G03*
X322000Y527000I-20000J0D01*
G01*
Y283000D02*
G03*
X322000Y283000I-20000J0D01*
G01*
X594000Y39000D02*
G03*
X594000Y39000I-20000J0D01*
G01*
X730000D02*
G03*
X730000Y39000I-20000J0D01*
G01*
X458000D02*
G03*
X458000Y39000I-20000J0D01*
G01*
X526000Y161000D02*
G03*
X526000Y161000I-20000J0D01*
G01*
X662000D02*
G03*
X662000Y161000I-20000J0D01*
G01*
X390000D02*
G03*
X390000Y161000I-20000J0D01*
G01*
X594000Y283000D02*
G03*
X594000Y283000I-20000J0D01*
G01*
X730000D02*
G03*
X730000Y283000I-20000J0D01*
G01*
X458000D02*
G03*
X458000Y283000I-20000J0D01*
G01*
Y527000D02*
G03*
X458000Y527000I-20000J0D01*
G01*
X390000Y405000D02*
G03*
X390000Y405000I-20000J0D01*
G01*
X662000D02*
G03*
X662000Y405000I-20000J0D01*
G01*
X526000D02*
G03*
X526000Y405000I-20000J0D01*
G01*
X594000Y527000D02*
G03*
X594000Y527000I-20000J0D01*
G01*
X730000D02*
G03*
X730000Y527000I-20000J0D01*
G01*
X1039000Y1037000D02*
G03*
X1039000Y1037000I-20000J0D01*
G01*
X3320000Y3585000D02*
G03*
X3320000Y3585000I-20000J0D01*
G01*
X3420000Y3485000D02*
G03*
X3420000Y3485000I-20000J0D01*
G01*
X3520000Y3585000D02*
G03*
X3520000Y3585000I-20000J0D01*
G01*
X3620000Y3485000D02*
G03*
X3620000Y3485000I-20000J0D01*
G01*
Y3685000D02*
G03*
X3620000Y3685000I-20000J0D01*
G01*
X3520000Y3785000D02*
G03*
X3520000Y3785000I-20000J0D01*
G01*
X3320000D02*
G03*
X3320000Y3785000I-20000J0D01*
G01*
X3720000Y3585000D02*
G03*
X3720000Y3585000I-20000J0D01*
G01*
X3320000Y3385000D02*
G03*
X3320000Y3385000I-20000J0D01*
G01*
X3520000D02*
G03*
X3520000Y3385000I-20000J0D01*
G01*
X3720000D02*
G03*
X3720000Y3385000I-20000J0D01*
G01*
X3820000Y3485000D02*
G03*
X3820000Y3485000I-20000J0D01*
G01*
X3620000Y3285000D02*
G03*
X3620000Y3285000I-20000J0D01*
G01*
X3420000D02*
G03*
X3420000Y3285000I-20000J0D01*
G01*
X3320000Y3185000D02*
G03*
X3320000Y3185000I-20000J0D01*
G01*
X3220000Y3040000D02*
G03*
X3220000Y3040000I-20000J0D01*
G01*
X3020000Y2840000D02*
G03*
X3020000Y2840000I-20000J0D01*
G01*
X3120000Y2940000D02*
G03*
X3120000Y2940000I-20000J0D01*
G01*
X3737000Y2791000D02*
G03*
X3737000Y2791000I-20000J0D01*
G01*
X3820000Y2835000D02*
G03*
X3820000Y2835000I-20000J0D01*
G01*
X3640000D02*
G03*
X3640000Y2835000I-20000J0D01*
G01*
Y2720000D02*
G03*
X3640000Y2720000I-20000J0D01*
G01*
X3433000Y2836000D02*
G03*
X3433000Y2836000I-20000J0D01*
G01*
X3825000Y2715000D02*
G03*
X3825000Y2715000I-20000J0D01*
G01*
X3735000Y2660000D02*
G03*
X3735000Y2660000I-20000J0D01*
G01*
X3825000Y2605000D02*
G03*
X3825000Y2605000I-20000J0D01*
G01*
Y2495000D02*
G03*
X3825000Y2495000I-20000J0D01*
G01*
Y2385000D02*
G03*
X3825000Y2385000I-20000J0D01*
G01*
X3735000Y2330000D02*
G03*
X3735000Y2330000I-20000J0D01*
G01*
X3325000Y2315000D02*
G03*
X3325000Y2315000I-20000J0D01*
G01*
X3405000Y2265000D02*
G03*
X3405000Y2265000I-20000J0D01*
G01*
X2995000Y2305000D02*
G03*
X2995000Y2305000I-20000J0D01*
G01*
X3060000Y2350000D02*
G03*
X3060000Y2350000I-20000J0D01*
G01*
X3115000Y2300000D02*
G03*
X3115000Y2300000I-20000J0D01*
G01*
X2680000Y2450000D02*
G03*
X2680000Y2450000I-20000J0D01*
G01*
Y2560000D02*
G03*
X2680000Y2560000I-20000J0D01*
G01*
X2770000Y2505000D02*
G03*
X2770000Y2505000I-20000J0D01*
G01*
X1785000Y2440000D02*
G03*
X1785000Y2440000I-20000J0D01*
G01*
X1617000Y2419000D02*
G03*
X1617000Y2419000I-20000J0D01*
G01*
X1667000Y2557000D02*
G03*
X1667000Y2557000I-20000J0D01*
G01*
X1785000Y2560000D02*
G03*
X1785000Y2560000I-20000J0D01*
G01*
X1695000Y2495000D02*
G03*
X1695000Y2495000I-20000J0D01*
G01*
X1539000Y2371000D02*
G03*
X1539000Y2371000I-20000J0D01*
G01*
X1591000Y2494000D02*
G03*
X1591000Y2494000I-20000J0D01*
G01*
X1383000Y2332000D02*
G03*
X1383000Y2332000I-20000J0D01*
G01*
X1410000Y2643055D02*
G03*
X1410000Y2643055I-20000J0D01*
G01*
X839000Y2678000D02*
G03*
X839000Y2678000I-20000J0D01*
G01*
X1283000Y2767000D02*
G03*
X1283000Y2767000I-20000J0D01*
G01*
X1515000Y970000D02*
G03*
X1515000Y970000I-20000J0D01*
G01*
X1328000Y955000D02*
G03*
X1328000Y955000I-20000J0D01*
G01*
X1117000Y951000D02*
G03*
X1117000Y951000I-20000J0D01*
G01*
X1521000Y1188000D02*
G03*
X1521000Y1188000I-20000J0D01*
G01*
X909000Y1405000D02*
G03*
X909000Y1405000I-20000J0D01*
G01*
X1179000Y1437000D02*
G03*
X1179000Y1437000I-20000J0D01*
G01*
X1205000Y1213000D02*
G03*
X1205000Y1213000I-20000J0D01*
G01*
X1415000Y1070000D02*
G03*
X1415000Y1070000I-20000J0D01*
G01*
X1352000Y1179000D02*
G03*
X1352000Y1179000I-20000J0D01*
G01*
X1286000Y1316000D02*
G03*
X1286000Y1316000I-20000J0D01*
G01*
X1508000Y1443000D02*
G03*
X1508000Y1443000I-20000J0D01*
G01*
X1367000D02*
G03*
X1367000Y1443000I-20000J0D01*
G01*
X1455000Y1582000D02*
G03*
X1455000Y1582000I-20000J0D01*
G01*
X1415000Y1670000D02*
G03*
X1415000Y1670000I-20000J0D01*
G01*
X1496000Y1784000D02*
G03*
X1496000Y1784000I-20000J0D01*
G01*
X900000Y1293000D02*
G03*
X900000Y1293000I-20000J0D01*
G01*
X307000Y1257000D02*
G03*
X307000Y1257000I-20000J0D01*
G01*
X1015000Y870000D02*
G03*
X1015000Y870000I-20000J0D01*
G01*
X918000Y771000D02*
G03*
X918000Y771000I-20000J0D01*
G01*
X815000Y670000D02*
G03*
X815000Y670000I-20000J0D01*
G01*
X215000Y895000D02*
G03*
X215000Y895000I-20000J0D01*
G01*
X553000Y819000D02*
G03*
X553000Y819000I-20000J0D01*
G01*
X300000Y970000D02*
G03*
X300000Y970000I-20000J0D01*
G01*
X868000Y1051000D02*
G03*
X868000Y1051000I-20000J0D01*
G01*
X140000Y975000D02*
G03*
X140000Y975000I-20000J0D01*
G01*
X344000Y854000D02*
G03*
X344000Y854000I-20000J0D01*
G01*
X445000Y890000D02*
G03*
X445000Y890000I-20000J0D01*
G01*
X620000D02*
G03*
X620000Y890000I-20000J0D01*
G01*
X785353Y1002696D02*
G03*
X785353Y1002696I-20000J0D01*
G01*
Y1200527D02*
G03*
X785353Y1200527I-20000J0D01*
G01*
X315000Y1570000D02*
G03*
X315000Y1570000I-20000J0D01*
G01*
Y1970000D02*
G03*
X315000Y1970000I-20000J0D01*
G01*
X415000Y2070000D02*
G03*
X415000Y2070000I-20000J0D01*
G01*
X555000Y2170000D02*
G03*
X555000Y2170000I-20000J0D01*
G01*
X-22000Y2450000D02*
G03*
X-22000Y2450000I-20000J0D01*
G01*
X543000Y2375000D02*
G03*
X543000Y2375000I-20000J0D01*
G01*
X-15000Y2542000D02*
G03*
X-15000Y2542000I-20000J0D01*
G01*
X983000Y2498000D02*
G03*
X983000Y2498000I-20000J0D01*
G01*
X790000Y2475000D02*
G03*
X790000Y2475000I-20000J0D01*
G01*
X725000Y2355000D02*
G03*
X725000Y2355000I-20000J0D01*
G01*
X382000Y1331000D02*
G03*
X382000Y1331000I-20000J0D01*
G01*
X458000Y1279000D02*
G03*
X458000Y1279000I-20000J0D01*
G01*
X1315000Y1549000D02*
G03*
X1315000Y1549000I-20000J0D01*
G01*
X1445000Y1311000D02*
G03*
X1445000Y1311000I-20000J0D01*
G01*
X790000Y1745000D02*
G03*
X790000Y1745000I-20000J0D01*
G01*
Y1945000D02*
G03*
X790000Y1945000I-20000J0D01*
G01*
X3536000Y2769000D02*
G03*
X3536000Y2769000I-20000J0D01*
G01*
D109*
X3512000Y2980630D02*
G03*
X3512000Y2980630I-12000J0D01*
G01*
X178000Y39000D02*
G03*
X178000Y39000I-12000J0D01*
G01*
X-26000Y161000D02*
G03*
X-26000Y161000I-12000J0D01*
G01*
X110000D02*
G03*
X110000Y161000I-12000J0D01*
G01*
X246000D02*
G03*
X246000Y161000I-12000J0D01*
G01*
Y405000D02*
G03*
X246000Y405000I-12000J0D01*
G01*
X314000Y39000D02*
G03*
X314000Y39000I-12000J0D01*
G01*
Y527000D02*
G03*
X314000Y527000I-12000J0D01*
G01*
Y283000D02*
G03*
X314000Y283000I-12000J0D01*
G01*
X586000Y39000D02*
G03*
X586000Y39000I-12000J0D01*
G01*
X722000D02*
G03*
X722000Y39000I-12000J0D01*
G01*
X450000D02*
G03*
X450000Y39000I-12000J0D01*
G01*
X518000Y161000D02*
G03*
X518000Y161000I-12000J0D01*
G01*
X654000D02*
G03*
X654000Y161000I-12000J0D01*
G01*
X382000D02*
G03*
X382000Y161000I-12000J0D01*
G01*
X586000Y283000D02*
G03*
X586000Y283000I-12000J0D01*
G01*
X722000D02*
G03*
X722000Y283000I-12000J0D01*
G01*
X450000D02*
G03*
X450000Y283000I-12000J0D01*
G01*
Y527000D02*
G03*
X450000Y527000I-12000J0D01*
G01*
X382000Y405000D02*
G03*
X382000Y405000I-12000J0D01*
G01*
X654000D02*
G03*
X654000Y405000I-12000J0D01*
G01*
X518000D02*
G03*
X518000Y405000I-12000J0D01*
G01*
X586000Y527000D02*
G03*
X586000Y527000I-12000J0D01*
G01*
X722000D02*
G03*
X722000Y527000I-12000J0D01*
G01*
X1031000Y1037000D02*
G03*
X1031000Y1037000I-12000J0D01*
G01*
X3312000Y3585000D02*
G03*
X3312000Y3585000I-12000J0D01*
G01*
X3412000Y3485000D02*
G03*
X3412000Y3485000I-12000J0D01*
G01*
X3512000Y3585000D02*
G03*
X3512000Y3585000I-12000J0D01*
G01*
X3612000Y3485000D02*
G03*
X3612000Y3485000I-12000J0D01*
G01*
Y3685000D02*
G03*
X3612000Y3685000I-12000J0D01*
G01*
X3512000Y3785000D02*
G03*
X3512000Y3785000I-12000J0D01*
G01*
X3312000D02*
G03*
X3312000Y3785000I-12000J0D01*
G01*
X3712000Y3585000D02*
G03*
X3712000Y3585000I-12000J0D01*
G01*
X3312000Y3385000D02*
G03*
X3312000Y3385000I-12000J0D01*
G01*
X3512000D02*
G03*
X3512000Y3385000I-12000J0D01*
G01*
X3712000D02*
G03*
X3712000Y3385000I-12000J0D01*
G01*
X3812000Y3485000D02*
G03*
X3812000Y3485000I-12000J0D01*
G01*
X3612000Y3285000D02*
G03*
X3612000Y3285000I-12000J0D01*
G01*
X3412000D02*
G03*
X3412000Y3285000I-12000J0D01*
G01*
X3312000Y3185000D02*
G03*
X3312000Y3185000I-12000J0D01*
G01*
X3212000Y3040000D02*
G03*
X3212000Y3040000I-12000J0D01*
G01*
X3012000Y2840000D02*
G03*
X3012000Y2840000I-12000J0D01*
G01*
X3112000Y2940000D02*
G03*
X3112000Y2940000I-12000J0D01*
G01*
X3729000Y2791000D02*
G03*
X3729000Y2791000I-12000J0D01*
G01*
X3812000Y2835000D02*
G03*
X3812000Y2835000I-12000J0D01*
G01*
X3632000D02*
G03*
X3632000Y2835000I-12000J0D01*
G01*
Y2720000D02*
G03*
X3632000Y2720000I-12000J0D01*
G01*
X3425000Y2836000D02*
G03*
X3425000Y2836000I-12000J0D01*
G01*
X3817000Y2715000D02*
G03*
X3817000Y2715000I-12000J0D01*
G01*
X3727000Y2660000D02*
G03*
X3727000Y2660000I-12000J0D01*
G01*
X3817000Y2605000D02*
G03*
X3817000Y2605000I-12000J0D01*
G01*
Y2495000D02*
G03*
X3817000Y2495000I-12000J0D01*
G01*
Y2385000D02*
G03*
X3817000Y2385000I-12000J0D01*
G01*
X3727000Y2330000D02*
G03*
X3727000Y2330000I-12000J0D01*
G01*
X3317000Y2315000D02*
G03*
X3317000Y2315000I-12000J0D01*
G01*
X3397000Y2265000D02*
G03*
X3397000Y2265000I-12000J0D01*
G01*
X2987000Y2305000D02*
G03*
X2987000Y2305000I-12000J0D01*
G01*
X3052000Y2350000D02*
G03*
X3052000Y2350000I-12000J0D01*
G01*
X3107000Y2300000D02*
G03*
X3107000Y2300000I-12000J0D01*
G01*
X2672000Y2450000D02*
G03*
X2672000Y2450000I-12000J0D01*
G01*
Y2560000D02*
G03*
X2672000Y2560000I-12000J0D01*
G01*
X2762000Y2505000D02*
G03*
X2762000Y2505000I-12000J0D01*
G01*
X1777000Y2440000D02*
G03*
X1777000Y2440000I-12000J0D01*
G01*
X1609000Y2419000D02*
G03*
X1609000Y2419000I-12000J0D01*
G01*
X1659000Y2557000D02*
G03*
X1659000Y2557000I-12000J0D01*
G01*
X1777000Y2560000D02*
G03*
X1777000Y2560000I-12000J0D01*
G01*
X1687000Y2495000D02*
G03*
X1687000Y2495000I-12000J0D01*
G01*
X1531000Y2371000D02*
G03*
X1531000Y2371000I-12000J0D01*
G01*
X1583000Y2494000D02*
G03*
X1583000Y2494000I-12000J0D01*
G01*
X1375000Y2332000D02*
G03*
X1375000Y2332000I-12000J0D01*
G01*
X1402000Y2643055D02*
G03*
X1402000Y2643055I-12000J0D01*
G01*
X831000Y2678000D02*
G03*
X831000Y2678000I-12000J0D01*
G01*
X1275000Y2767000D02*
G03*
X1275000Y2767000I-12000J0D01*
G01*
X1507000Y970000D02*
G03*
X1507000Y970000I-12000J0D01*
G01*
X1320000Y955000D02*
G03*
X1320000Y955000I-12000J0D01*
G01*
X1109000Y951000D02*
G03*
X1109000Y951000I-12000J0D01*
G01*
X1513000Y1188000D02*
G03*
X1513000Y1188000I-12000J0D01*
G01*
X901000Y1405000D02*
G03*
X901000Y1405000I-12000J0D01*
G01*
X1171000Y1437000D02*
G03*
X1171000Y1437000I-12000J0D01*
G01*
X1197000Y1213000D02*
G03*
X1197000Y1213000I-12000J0D01*
G01*
X1407000Y1070000D02*
G03*
X1407000Y1070000I-12000J0D01*
G01*
X1344000Y1179000D02*
G03*
X1344000Y1179000I-12000J0D01*
G01*
X1278000Y1316000D02*
G03*
X1278000Y1316000I-12000J0D01*
G01*
X1500000Y1443000D02*
G03*
X1500000Y1443000I-12000J0D01*
G01*
X1359000D02*
G03*
X1359000Y1443000I-12000J0D01*
G01*
X1447000Y1582000D02*
G03*
X1447000Y1582000I-12000J0D01*
G01*
X1407000Y1670000D02*
G03*
X1407000Y1670000I-12000J0D01*
G01*
X1488000Y1784000D02*
G03*
X1488000Y1784000I-12000J0D01*
G01*
X892000Y1293000D02*
G03*
X892000Y1293000I-12000J0D01*
G01*
X299000Y1257000D02*
G03*
X299000Y1257000I-12000J0D01*
G01*
X1007000Y870000D02*
G03*
X1007000Y870000I-12000J0D01*
G01*
X910000Y771000D02*
G03*
X910000Y771000I-12000J0D01*
G01*
X807000Y670000D02*
G03*
X807000Y670000I-12000J0D01*
G01*
X207000Y895000D02*
G03*
X207000Y895000I-12000J0D01*
G01*
X545000Y819000D02*
G03*
X545000Y819000I-12000J0D01*
G01*
X292000Y970000D02*
G03*
X292000Y970000I-12000J0D01*
G01*
X860000Y1051000D02*
G03*
X860000Y1051000I-12000J0D01*
G01*
X132000Y975000D02*
G03*
X132000Y975000I-12000J0D01*
G01*
X336000Y854000D02*
G03*
X336000Y854000I-12000J0D01*
G01*
X437000Y890000D02*
G03*
X437000Y890000I-12000J0D01*
G01*
X612000D02*
G03*
X612000Y890000I-12000J0D01*
G01*
X777353Y1002696D02*
G03*
X777353Y1002696I-12000J0D01*
G01*
Y1200527D02*
G03*
X777353Y1200527I-12000J0D01*
G01*
X307000Y1570000D02*
G03*
X307000Y1570000I-12000J0D01*
G01*
Y1970000D02*
G03*
X307000Y1970000I-12000J0D01*
G01*
X407000Y2070000D02*
G03*
X407000Y2070000I-12000J0D01*
G01*
X547000Y2170000D02*
G03*
X547000Y2170000I-12000J0D01*
G01*
X-30000Y2450000D02*
G03*
X-30000Y2450000I-12000J0D01*
G01*
X535000Y2375000D02*
G03*
X535000Y2375000I-12000J0D01*
G01*
X-23000Y2542000D02*
G03*
X-23000Y2542000I-12000J0D01*
G01*
X975000Y2498000D02*
G03*
X975000Y2498000I-12000J0D01*
G01*
X782000Y2475000D02*
G03*
X782000Y2475000I-12000J0D01*
G01*
X717000Y2355000D02*
G03*
X717000Y2355000I-12000J0D01*
G01*
X374000Y1331000D02*
G03*
X374000Y1331000I-12000J0D01*
G01*
X450000Y1279000D02*
G03*
X450000Y1279000I-12000J0D01*
G01*
X1307000Y1549000D02*
G03*
X1307000Y1549000I-12000J0D01*
G01*
X1437000Y1311000D02*
G03*
X1437000Y1311000I-12000J0D01*
G01*
X782000Y1745000D02*
G03*
X782000Y1745000I-12000J0D01*
G01*
Y1945000D02*
G03*
X782000Y1945000I-12000J0D01*
G01*
X3528000Y2769000D02*
G03*
X3528000Y2769000I-12000J0D01*
G01*
%TF.MD5,9989452bcf4b072b3c92bf6e97508374*%
M02*
