G04 Layer_Color=255*
%FSLAX25Y25*%
%MOIN*%
%TF.FileFunction,Pads,Top*%
%TF.Part,Single*%
G01*
G75*
%TA.AperFunction,SMDPad,CuDef*%
%ADD10R,0.05905X0.05512*%
%TA.AperFunction,ConnectorPad*%
%ADD11R,0.04331X0.31496*%
%ADD12R,0.04882X0.27559*%
%TA.AperFunction,SMDPad,CuDef*%
%ADD13R,0.04331X0.31496*%
%ADD14R,0.04882X0.27559*%
%ADD15R,0.10709X0.14843*%
%ADD16R,0.05905X0.07480*%
%TA.AperFunction,ComponentPad*%
%ADD25C,0.06000*%
%ADD26R,0.06000X0.06000*%
%TA.AperFunction,ViaPad*%
%ADD27C,0.19685*%
%TA.AperFunction,ComponentPad*%
%ADD28C,0.05905*%
%ADD29C,0.07874*%
%ADD30R,0.05905X0.05905*%
%ADD31R,0.06000X0.06000*%
%ADD32R,0.05905X0.05905*%
%ADD33C,0.11811*%
%ADD34R,0.11811X0.11811*%
%ADD35R,0.11811X0.11811*%
%TA.AperFunction,WasherPad*%
%ADD36C,0.06000*%
D10*
X71600Y268737D02*
D03*
Y260863D02*
D03*
X50100Y268737D02*
D03*
Y260863D02*
D03*
D11*
X390049Y116341D02*
D03*
X356151D02*
D03*
X390049Y80800D02*
D03*
X356151D02*
D03*
X356151Y151800D02*
D03*
X390048D02*
D03*
X390649Y191300D02*
D03*
X356751D02*
D03*
D12*
X363257Y116341D02*
D03*
X382942D02*
D03*
X373100D02*
D03*
X363257Y80800D02*
D03*
X382942D02*
D03*
X373100D02*
D03*
X382942Y151800D02*
D03*
X363257D02*
D03*
X373100D02*
D03*
X363858Y191300D02*
D03*
X383543D02*
D03*
X373700D02*
D03*
D13*
X347049Y80800D02*
D03*
X313151D02*
D03*
X77049Y87400D02*
D03*
X43151D02*
D03*
X77049Y163350D02*
D03*
X43151D02*
D03*
X77049Y239300D02*
D03*
X43151D02*
D03*
D14*
X320258Y80800D02*
D03*
X339943D02*
D03*
X330100D02*
D03*
X50258Y87400D02*
D03*
X69943D02*
D03*
X60100D02*
D03*
X50258Y163350D02*
D03*
X69943D02*
D03*
X60100D02*
D03*
X50258Y239300D02*
D03*
X69943D02*
D03*
X60100D02*
D03*
D15*
X207631Y110800D02*
D03*
X221568D02*
D03*
D16*
X314702Y124300D02*
D03*
X302498D02*
D03*
X315702Y154300D02*
D03*
X303498D02*
D03*
X314702Y184268D02*
D03*
X302498D02*
D03*
X200498Y130300D02*
D03*
X212702D02*
D03*
X19498Y161800D02*
D03*
X31702D02*
D03*
D25*
X40600Y208800D02*
D03*
X30600D02*
D03*
X141000Y187200D02*
D03*
X131000D02*
D03*
X41584Y123000D02*
D03*
X31584D02*
D03*
X262600Y104800D02*
D03*
X252600D02*
D03*
X332600Y235300D02*
D03*
X342600D02*
D03*
X352600D02*
D03*
X362600D02*
D03*
X372600D02*
D03*
X312600D02*
D03*
X322600D02*
D03*
X381600Y306300D02*
D03*
Y296300D02*
D03*
Y286300D02*
D03*
X332600Y225300D02*
D03*
X342600D02*
D03*
X352600D02*
D03*
X362600D02*
D03*
X372600D02*
D03*
X312600D02*
D03*
X322600D02*
D03*
X224100D02*
D03*
X234100D02*
D03*
X244100D02*
D03*
X254100D02*
D03*
X264100D02*
D03*
X204100D02*
D03*
X214100D02*
D03*
X224100Y235300D02*
D03*
X234100D02*
D03*
X244100D02*
D03*
X254100D02*
D03*
X264100D02*
D03*
X204100D02*
D03*
X214100D02*
D03*
D26*
X20600Y208800D02*
D03*
X121000Y187200D02*
D03*
X21584Y123000D02*
D03*
X242600Y104800D02*
D03*
X302600Y235300D02*
D03*
Y225300D02*
D03*
X194100D02*
D03*
Y235300D02*
D03*
D27*
X348453Y350153D02*
D03*
X44700Y-11600D02*
D03*
D28*
X79979Y259300D02*
D03*
Y269300D02*
D03*
X58479Y259300D02*
D03*
Y269300D02*
D03*
X131700Y83700D02*
D03*
X191700D02*
D03*
X211700D02*
D03*
X121700D02*
D03*
X131700Y143700D02*
D03*
X191700D02*
D03*
X211700D02*
D03*
X373100Y116341D02*
D03*
X363100D02*
D03*
X373100Y80800D02*
D03*
X363100D02*
D03*
X330100Y80800D02*
D03*
X320100D02*
D03*
X373100Y151800D02*
D03*
X383100D02*
D03*
X373700Y191300D02*
D03*
X363700D02*
D03*
X60100Y87400D02*
D03*
X50100D02*
D03*
X60100Y163350D02*
D03*
X50100D02*
D03*
X60100Y239300D02*
D03*
X50100D02*
D03*
D29*
X79979Y299300D02*
D03*
Y329300D02*
D03*
X58479Y299300D02*
D03*
Y329300D02*
D03*
D30*
X121700Y143700D02*
D03*
D31*
X381600Y276300D02*
D03*
D32*
X383100Y116341D02*
D03*
Y80800D02*
D03*
X340100Y80800D02*
D03*
X363100Y151800D02*
D03*
X383700Y191300D02*
D03*
X70100Y87400D02*
D03*
Y163350D02*
D03*
Y239300D02*
D03*
D33*
X17866Y257958D02*
D03*
Y302457D02*
D03*
X70655Y351800D02*
D03*
X18100Y54242D02*
D03*
D34*
X17866Y277642D02*
D03*
Y322143D02*
D03*
X18100Y34558D02*
D03*
D35*
X50970Y351800D02*
D03*
D36*
X7600Y-19700D02*
D03*
X385553D02*
D03*
Y358253D02*
D03*
X7600D02*
D03*
%TF.MD5,7a7ec58aa4673c86dd13ab4f97b75ada*%
M02*
