G04 Layer_Color=32896*
%FSLAX26Y26*%
%MOIN*%
%TF.FileFunction,Legend,Bot*%
%TF.Part,Single*%
G01*
G75*
%TA.AperFunction,NonConductor*%
%ADD49C,0.023622*%
%ADD50C,0.009842*%
%ADD51C,0.007874*%
%ADD52C,0.005000*%
%ADD53C,0.010000*%
%ADD54C,0.007000*%
D49*
X1061835Y2659378D02*
G03*
X1061835Y2659378I-11811J0D01*
G01*
X2998189Y1348976D02*
G03*
X2998189Y1348976I-11811J0D01*
G01*
X1802362Y2178622D02*
G03*
X1802362Y2178622I-11811J0D01*
G01*
X2998189Y1653976D02*
G03*
X2998189Y1653976I-11811J0D01*
G01*
X2317362Y2178622D02*
G03*
X2317362Y2178622I-11811J0D01*
G01*
X2998189Y1958976D02*
G03*
X2998189Y1958976I-11811J0D01*
G01*
D50*
X1102386Y2578669D02*
G03*
X1102386Y2578669I-4921J0D01*
G01*
X2910591Y1301535D02*
G03*
X2910591Y1301535I-4921J0D01*
G01*
X1746457Y2263268D02*
G03*
X1746457Y2263268I-4921J0D01*
G01*
X2910591Y1606535D02*
G03*
X2910591Y1606535I-4921J0D01*
G01*
X2261457Y2263268D02*
G03*
X2261457Y2263268I-4921J0D01*
G01*
X2910591Y1911535D02*
G03*
X2910591Y1911535I-4921J0D01*
G01*
D51*
X460315Y2029094D02*
Y2363740D01*
X3622Y2029094D02*
X460315D01*
X3622Y2363740D02*
X460315D01*
X3622Y2029094D02*
Y2363740D01*
X92031Y1866724D02*
X95969D01*
X92031Y2007276D02*
X95969D01*
X115252Y2392535D02*
X146748D01*
X115252Y2459465D02*
X146748D01*
X258787Y2501504D02*
Y2564496D01*
X251307Y2501504D02*
Y2564496D01*
Y2501504D02*
X274929D01*
X251307Y2564496D02*
X274929D01*
X359000Y2403409D02*
Y2454591D01*
X105031Y1175724D02*
X108969D01*
X105031Y1316276D02*
X108969D01*
X505504Y1544331D02*
X568496D01*
X505504Y1551811D02*
X568496D01*
X505504Y1528189D02*
Y1551811D01*
X568496Y1528189D02*
Y1551811D01*
X510409Y1359000D02*
X561591D01*
X169252Y1055535D02*
X200748D01*
X169252Y1122465D02*
X200748D01*
X1101252Y1891535D02*
X1132748D01*
X1101252Y1958465D02*
X1132748D01*
X973276Y1876032D02*
Y1879968D01*
X832724Y1876032D02*
Y1879968D01*
X1337465Y1846252D02*
Y1877748D01*
X1270535Y1846252D02*
Y1877748D01*
X1457669Y1894504D02*
Y1957496D01*
X1450189Y1894504D02*
Y1957496D01*
Y1894504D02*
X1473811D01*
X1450189Y1957496D02*
X1473811D01*
X1494409Y2052000D02*
X1545591D01*
X2419252Y1069535D02*
X2450748D01*
X2419252Y1136465D02*
X2450748D01*
X1294409Y2585685D02*
X1345591D01*
X1389000Y2687465D02*
Y2738646D01*
X1191465Y2690252D02*
Y2721748D01*
X1124535Y2690252D02*
Y2721748D01*
X964000Y2850409D02*
Y2901591D01*
X812409Y2827000D02*
X863591D01*
X888606Y2620008D02*
Y2745992D01*
X1089394Y2620008D02*
Y2745992D01*
X888606D02*
X1089394D01*
X888606Y2620008D02*
X1089394D01*
X3526000Y2870409D02*
Y2921591D01*
X3534409Y3020000D02*
X3585591D01*
X581378Y2743000D02*
X582401Y3549000D01*
X581378Y2743000D02*
X782394D01*
X582401Y3549000D02*
X782394D01*
Y2743000D02*
Y3549000D01*
X366378Y2743000D02*
X367401Y3549000D01*
X366378Y2743000D02*
X567394D01*
X367401Y3549000D02*
X567394D01*
Y2743000D02*
Y3549000D01*
X2947008Y1510394D02*
X3072992D01*
X2947008Y1309606D02*
X3072992D01*
Y1510394D01*
X2947008Y1309606D02*
Y1510394D01*
X2148819Y2092008D02*
Y2217992D01*
X1751181Y2092008D02*
Y2217992D01*
Y2092008D02*
X2148819D01*
X1751181Y2217992D02*
X2148819D01*
X2947008Y1815394D02*
X3072992D01*
X2947008Y1614606D02*
X3072992D01*
Y1815394D01*
X2947008Y1614606D02*
Y1815394D01*
X1470220Y1986323D02*
Y2379323D01*
X1005221D02*
X1470220D01*
X1005221Y1986323D02*
X1470220D01*
X1005221D02*
Y2379323D01*
X2663819Y2092008D02*
Y2217992D01*
X2266181Y2092008D02*
Y2217992D01*
Y2092008D02*
X2663819D01*
X2266181Y2217992D02*
X2663819D01*
X2947008Y2120394D02*
X3072992D01*
X2947008Y1919606D02*
X3072992D01*
Y2120394D01*
X2947008Y1919606D02*
Y2120394D01*
X476063Y1344323D02*
Y1737323D01*
X11063D02*
X476063D01*
X11063Y1344323D02*
X476063D01*
X11063D02*
Y1737323D01*
X2686220Y1162323D02*
Y1555323D01*
X2221220D02*
X2686220D01*
X2221220Y1162323D02*
X2686220D01*
X2221220D02*
Y1555323D01*
X942000Y934000D02*
Y1734000D01*
X941000D02*
X2192968D01*
X2194000Y934000D02*
Y1734000D01*
X941000Y934000D02*
X2192968D01*
X3203000Y2334409D02*
Y2385591D01*
X-37591Y322000D02*
X13591D01*
X-44973Y3071850D02*
X250303D01*
X-44973Y2678150D02*
X250303D01*
X-44973D02*
Y3071850D01*
X250303Y2678150D02*
Y3071850D01*
X-44973Y3516850D02*
X250303D01*
X-44973Y3123150D02*
X250303D01*
X-44973D02*
Y3516850D01*
X250303Y3123150D02*
Y3516850D01*
X335278Y3567362D02*
Y3862638D01*
X728978Y3567362D02*
Y3862638D01*
X335278Y3567362D02*
X728978D01*
X335278Y3862638D02*
X728978D01*
X82504Y340331D02*
X145496D01*
X82504Y347811D02*
X145496D01*
X82504Y324189D02*
Y347811D01*
X145496Y324189D02*
Y347811D01*
X164251Y1761850D02*
X195748D01*
X164251Y1828779D02*
X195748D01*
X-42637Y444150D02*
X252638D01*
X-42637Y837850D02*
X252638D01*
Y444150D02*
Y837850D01*
X-42637Y444150D02*
Y837850D01*
D52*
X30016Y2473835D02*
X231984D01*
Y2378165D02*
Y2473835D01*
X30016Y2378165D02*
X231984D01*
X30016D02*
Y2473835D01*
X281638Y2389039D02*
X436362D01*
Y2468961D01*
X281638D02*
X436362D01*
X281638Y2389039D02*
Y2468961D01*
X496039Y1281638D02*
Y1436362D01*
Y1281638D02*
X575961D01*
Y1436362D01*
X496039D02*
X575961D01*
X84016Y1136835D02*
X285984D01*
Y1041165D02*
Y1136835D01*
X84016Y1041165D02*
X285984D01*
X84016D02*
Y1136835D01*
X1016016Y1972835D02*
X1217984D01*
Y1877165D02*
Y1972835D01*
X1016016Y1877165D02*
X1217984D01*
X1016016D02*
Y1972835D01*
X1256165Y1761016D02*
Y1962984D01*
X1351835D01*
Y1761016D02*
Y1962984D01*
X1256165Y1761016D02*
X1351835D01*
X1559961Y1974638D02*
Y2129362D01*
X1480039D02*
X1559961D01*
X1480039Y1974638D02*
Y2129362D01*
Y1974638D02*
X1559961D01*
X2334016Y1150835D02*
X2535984D01*
Y1055165D02*
Y1150835D01*
X2334016Y1055165D02*
X2535984D01*
X2334016D02*
Y1150835D01*
X1280039Y2508323D02*
Y2663047D01*
Y2508323D02*
X1359961D01*
Y2663047D01*
X1280039D02*
X1359961D01*
X1311638Y2753016D02*
X1466362D01*
X1311638Y2673095D02*
Y2753016D01*
Y2673095D02*
X1466362D01*
Y2753016D01*
X1110165Y2605016D02*
Y2806984D01*
X1205835D01*
Y2605016D02*
Y2806984D01*
X1110165Y2605016D02*
X1205835D01*
X886638Y2915961D02*
X1041362D01*
X886638Y2836039D02*
Y2915961D01*
Y2836039D02*
X1041362D01*
Y2915961D01*
X877961Y2749638D02*
Y2904362D01*
X798039D02*
X877961D01*
X798039Y2749638D02*
Y2904362D01*
Y2749638D02*
X877961D01*
X3448638Y2935961D02*
X3603362D01*
X3448638Y2856039D02*
Y2935961D01*
Y2856039D02*
X3603362D01*
Y2935961D01*
X3520039Y2942638D02*
Y3097362D01*
Y2942638D02*
X3599961D01*
Y3097362D01*
X3520039D02*
X3599961D01*
X3125638Y2399961D02*
X3280362D01*
X3125638Y2320039D02*
Y2399961D01*
Y2320039D02*
X3280362D01*
Y2399961D01*
X27961Y244638D02*
Y399362D01*
X-51961D02*
X27961D01*
X-51961Y244638D02*
Y399362D01*
Y244638D02*
X27961D01*
X79015Y1843149D02*
X280984D01*
Y1747479D02*
Y1843149D01*
X79015Y1747479D02*
X280984D01*
X79015D02*
Y1843149D01*
D53*
X2900000Y2500000D02*
Y2600000D01*
Y2500000D02*
X3700000D01*
Y2600000D01*
X2900000D02*
X3700000D01*
X3000000Y2500000D02*
Y2600000D01*
X2900000Y2400000D02*
Y2500000D01*
Y2400000D02*
X3700000D01*
Y2500000D01*
X2900000D02*
X3700000D01*
X3000000Y2400000D02*
Y2500000D01*
X1815000Y2400000D02*
Y2500000D01*
Y2400000D02*
X2615000D01*
Y2500000D01*
X1815000D02*
X2615000D01*
X1915000Y2400000D02*
Y2500000D01*
X1815000D02*
Y2600000D01*
Y2500000D02*
X2615000D01*
Y2600000D01*
X1815000D02*
X2615000D01*
X1915000Y2500000D02*
Y2600000D01*
X3545000Y59981D02*
Y0D01*
X3515010D01*
X3505013Y9997D01*
Y19994D01*
X3515010Y29990D01*
X3545000D01*
X3515010D01*
X3505013Y39987D01*
Y49984D01*
X3515010Y59981D01*
X3545000D01*
X3455029D02*
X3475023D01*
X3485019Y49984D01*
Y9997D01*
X3475023Y0D01*
X3455029D01*
X3445032Y9997D01*
Y49984D01*
X3455029Y59981D01*
X3425039D02*
X3385052D01*
X3405045D01*
Y0D01*
D54*
X864000Y2617989D02*
Y2588831D01*
X858169Y2583000D01*
X846506D01*
X840674Y2588831D01*
Y2617989D01*
X829011Y2583000D02*
X817348D01*
X823180D01*
Y2617989D01*
X829011Y2612157D01*
X776528Y2583000D02*
X799854D01*
X776528Y2606326D01*
Y2612157D01*
X782360Y2617989D01*
X794023D01*
X799854Y2612157D01*
X3163000Y2450000D02*
Y2415011D01*
X3180494D01*
X3186326Y2420843D01*
Y2432506D01*
X3180494Y2438337D01*
X3163000D01*
X3174663D02*
X3186326Y2450000D01*
X3197989Y2444169D02*
X3203820Y2450000D01*
X3215483D01*
X3221314Y2444169D01*
Y2420843D01*
X3215483Y2415011D01*
X3203820D01*
X3197989Y2420843D01*
Y2426674D01*
X3203820Y2432506D01*
X3221314D01*
X3676000Y2878000D02*
Y2912989D01*
X3658506D01*
X3652674Y2907157D01*
Y2895494D01*
X3658506Y2889663D01*
X3676000D01*
X3664337D02*
X3652674Y2878000D01*
X3641011Y2907157D02*
X3635180Y2912989D01*
X3623517D01*
X3617686Y2907157D01*
Y2901326D01*
X3623517Y2895494D01*
X3617686Y2889663D01*
Y2883831D01*
X3623517Y2878000D01*
X3635180D01*
X3641011Y2883831D01*
Y2889663D01*
X3635180Y2895494D01*
X3641011Y2901326D01*
Y2907157D01*
X3635180Y2895494D02*
X3623517D01*
X3592000Y3116000D02*
Y3150989D01*
X3574506D01*
X3568674Y3145157D01*
Y3133494D01*
X3574506Y3127663D01*
X3592000D01*
X3580337D02*
X3568674Y3116000D01*
X3557011Y3150989D02*
X3533686D01*
Y3145157D01*
X3557011Y3121831D01*
Y3116000D01*
X2860000Y2590000D02*
X2825011D01*
Y2572506D01*
X2830843Y2566674D01*
X2842506D01*
X2848337Y2572506D01*
Y2590000D01*
X2860000Y2555011D02*
Y2543348D01*
Y2549180D01*
X2825011D01*
X2830843Y2555011D01*
Y2525854D02*
X2825011Y2520023D01*
Y2508360D01*
X2830843Y2502528D01*
X2836674D01*
X2842506Y2508360D01*
Y2514191D01*
Y2508360D01*
X2848337Y2502528D01*
X2854169D01*
X2860000Y2508360D01*
Y2520023D01*
X2854169Y2525854D01*
X2865000Y2480000D02*
X2830011D01*
Y2462506D01*
X2835843Y2456674D01*
X2847506D01*
X2853337Y2462506D01*
Y2480000D01*
X2865000Y2445011D02*
Y2433348D01*
Y2439180D01*
X2830011D01*
X2835843Y2445011D01*
X2865000Y2415854D02*
Y2404191D01*
Y2410023D01*
X2830011D01*
X2835843Y2415854D01*
X2612952Y2631504D02*
Y2666493D01*
X2595458D01*
X2589626Y2660661D01*
Y2648998D01*
X2595458Y2643167D01*
X2612952D01*
X2577963Y2637335D02*
X2572132Y2631504D01*
X2560469D01*
X2554637Y2637335D01*
Y2660661D01*
X2560469Y2666493D01*
X2572132D01*
X2577963Y2660661D01*
Y2654830D01*
X2572132Y2648998D01*
X2554637D01*
X939000Y2974000D02*
Y3008989D01*
X921506D01*
X915674Y3003157D01*
Y2991494D01*
X921506Y2985663D01*
X939000D01*
X927337D02*
X915674Y2974000D01*
X904011D02*
X892348D01*
X898180D01*
Y3008989D01*
X904011Y3003157D01*
X874854D02*
X869023Y3008989D01*
X857360D01*
X851528Y3003157D01*
Y2979831D01*
X857360Y2974000D01*
X869023D01*
X874854Y2979831D01*
Y3003157D01*
X868000Y2917000D02*
Y2951989D01*
X850506D01*
X844674Y2946157D01*
Y2934494D01*
X850506Y2928663D01*
X868000D01*
X856337D02*
X844674Y2917000D01*
X809686Y2951989D02*
X833011D01*
Y2934494D01*
X821348Y2940326D01*
X815517D01*
X809686Y2934494D01*
Y2922831D01*
X815517Y2917000D01*
X827180D01*
X833011Y2922831D01*
X1230843Y2774674D02*
X1225011Y2780506D01*
Y2792169D01*
X1230843Y2798000D01*
X1254169D01*
X1260000Y2792169D01*
Y2780506D01*
X1254169Y2774674D01*
X1260000Y2763011D02*
Y2751348D01*
Y2757180D01*
X1225011D01*
X1230843Y2763011D01*
X1260000Y2710528D02*
Y2733854D01*
X1236674Y2710528D01*
X1230843D01*
X1225011Y2716360D01*
Y2728023D01*
X1230843Y2733854D01*
X472795Y1803493D02*
Y1774335D01*
X466963Y1768504D01*
X455300D01*
X449469Y1774335D01*
Y1803493D01*
X420312Y1768504D02*
Y1803493D01*
X437806Y1785998D01*
X414480D01*
X658000Y1388000D02*
Y1422989D01*
X640506D01*
X634674Y1417157D01*
Y1405494D01*
X640506Y1399663D01*
X658000D01*
X646337D02*
X634674Y1388000D01*
X623011Y1417157D02*
X617180Y1422989D01*
X605517D01*
X599686Y1417157D01*
Y1411326D01*
X605517Y1405494D01*
X611348D01*
X605517D01*
X599686Y1399663D01*
Y1393831D01*
X605517Y1388000D01*
X617180D01*
X623011Y1393831D01*
X17000Y1116523D02*
Y1151512D01*
X40326D01*
X51989Y1122355D02*
X57820Y1116523D01*
X69483D01*
X75314Y1122355D01*
Y1128186D01*
X69483Y1134017D01*
X63652D01*
X69483D01*
X75314Y1139849D01*
Y1145680D01*
X69483Y1151512D01*
X57820D01*
X51989Y1145680D01*
X659000Y1614989D02*
Y1580000D01*
X641506D01*
X635674Y1585831D01*
Y1609157D01*
X641506Y1614989D01*
X659000D01*
X624011Y1609157D02*
X618180Y1614989D01*
X606517D01*
X600686Y1609157D01*
Y1603326D01*
X606517Y1597494D01*
X612348D01*
X606517D01*
X600686Y1591663D01*
Y1585831D01*
X606517Y1580000D01*
X618180D01*
X624011Y1585831D01*
X23326Y1074843D02*
X17494Y1069011D01*
X5831D01*
X0Y1074843D01*
Y1098169D01*
X5831Y1104000D01*
X17494D01*
X23326Y1098169D01*
X58315Y1069011D02*
X46652Y1074843D01*
X34989Y1086506D01*
Y1098169D01*
X40820Y1104000D01*
X52483D01*
X58315Y1098169D01*
Y1092337D01*
X52483Y1086506D01*
X34989D01*
X253626Y1901976D02*
X259457Y1907807D01*
X271120D01*
X276952Y1901976D01*
Y1878650D01*
X271120Y1872819D01*
X259457D01*
X253626Y1878650D01*
X218637Y1907807D02*
X241963D01*
Y1890313D01*
X230300Y1896144D01*
X224469D01*
X218637Y1890313D01*
Y1878650D01*
X224469Y1872819D01*
X236132D01*
X241963Y1878650D01*
X384000Y2494000D02*
X418989D01*
Y2511494D01*
X413157Y2517326D01*
X401494D01*
X395663Y2511494D01*
Y2494000D01*
Y2505663D02*
X384000Y2517326D01*
Y2528989D02*
Y2540652D01*
Y2534820D01*
X418989D01*
X413157Y2528989D01*
X145118Y2548989D02*
Y2514000D01*
X127624D01*
X121792Y2519831D01*
Y2543157D01*
X127624Y2548989D01*
X145118D01*
X110129Y2514000D02*
X98466D01*
X104298D01*
Y2548989D01*
X110129Y2543157D01*
X512000Y2442989D02*
Y2413831D01*
X506169Y2408000D01*
X494506D01*
X488674Y2413831D01*
Y2442989D01*
X453685Y2408000D02*
X477011D01*
X453685Y2431326D01*
Y2437157D01*
X459517Y2442989D01*
X471180D01*
X477011Y2437157D01*
X123989Y1797000D02*
X89000D01*
Y1820326D01*
Y1831989D02*
Y1843652D01*
Y1837820D01*
X123989D01*
X118157Y1831989D01*
X189326Y2336843D02*
X183494Y2331011D01*
X171831D01*
X166000Y2336843D01*
Y2360169D01*
X171831Y2366000D01*
X183494D01*
X189326Y2360169D01*
X224315Y2366000D02*
X200989D01*
X224315Y2342674D01*
Y2336843D01*
X218483Y2331011D01*
X206820D01*
X200989Y2336843D01*
X2190952Y1799493D02*
Y1770335D01*
X2185121Y1764504D01*
X2173458D01*
X2167626Y1770335D01*
Y1799493D01*
X2155963Y1764504D02*
X2144300D01*
X2150132D01*
Y1799493D01*
X2155963Y1793661D01*
X-30000Y167000D02*
X4989D01*
Y184494D01*
X-843Y190326D01*
X-12506D01*
X-18337Y184494D01*
Y167000D01*
Y178663D02*
X-30000Y190326D01*
Y225315D02*
Y201989D01*
X-6674Y225315D01*
X-843D01*
X4989Y219483D01*
Y207820D01*
X-843Y201989D01*
X98011Y222000D02*
X133000D01*
Y204506D01*
X127169Y198674D01*
X103843D01*
X98011Y204506D01*
Y222000D01*
X133000Y163685D02*
Y187011D01*
X109674Y163685D01*
X103843D01*
X98011Y169517D01*
Y181180D01*
X103843Y187011D01*
X65001Y933872D02*
X76663D01*
X70832D01*
Y898883D01*
X65001Y904715D01*
X765000Y3429989D02*
Y3400831D01*
X759169Y3395000D01*
X747506D01*
X741674Y3400831D01*
Y3429989D01*
X730011Y3395000D02*
X718348D01*
X724180D01*
Y3429989D01*
X730011Y3424157D01*
X700854D02*
X695023Y3429989D01*
X683360D01*
X677528Y3424157D01*
Y3418326D01*
X683360Y3412494D01*
X689191D01*
X683360D01*
X677528Y3406663D01*
Y3400831D01*
X683360Y3395000D01*
X695023D01*
X700854Y3400831D01*
X545000Y3429989D02*
Y3400831D01*
X539169Y3395000D01*
X527506D01*
X521674Y3400831D01*
Y3429989D01*
X510011Y3395000D02*
X498348D01*
X504180D01*
Y3429989D01*
X510011Y3424157D01*
X480854Y3395000D02*
X469191D01*
X475023D01*
Y3429989D01*
X480854Y3424157D01*
X190000Y3080011D02*
Y3115000D01*
Y3103337D01*
X213326Y3080011D01*
X195831Y3097506D01*
X213326Y3115000D01*
X248315D02*
X224989D01*
X248315Y3091674D01*
Y3085843D01*
X242483Y3080011D01*
X230820D01*
X224989Y3085843D01*
X205000Y3530011D02*
Y3565000D01*
Y3553337D01*
X228326Y3530011D01*
X210831Y3547506D01*
X228326Y3565000D01*
X239989D02*
X251652D01*
X245820D01*
Y3530011D01*
X239989Y3535843D01*
X690000Y3634989D02*
X678337D01*
X684169D01*
Y3600000D01*
X690000D01*
X678337D01*
X660843D02*
Y3623326D01*
X643348D01*
X637517Y3617494D01*
Y3600000D01*
X625854Y3588337D02*
Y3623326D01*
X608360D01*
X602528Y3617494D01*
Y3605831D01*
X608360Y3600000D01*
X625854D01*
X590865Y3623326D02*
Y3605831D01*
X585034Y3600000D01*
X567540D01*
Y3623326D01*
X550045Y3629157D02*
Y3623326D01*
X555877D01*
X544214D01*
X550045D01*
Y3605831D01*
X544214Y3600000D01*
X491731Y3634989D02*
Y3600000D01*
X468405D01*
X456742Y3617494D02*
X433416D01*
X421753Y3600000D02*
Y3634989D01*
X398428Y3600000D01*
Y3634989D01*
X386765Y3600000D02*
X375102D01*
X380933D01*
Y3634989D01*
X386765Y3629157D01*
X2438174Y1034157D02*
X2444006Y1039989D01*
X2455669D01*
X2461500Y1034157D01*
Y1010831D01*
X2455669Y1005000D01*
X2444006D01*
X2438174Y1010831D01*
X2409017Y1005000D02*
Y1039989D01*
X2426511Y1022494D01*
X2403186D01*
X3142952Y2193493D02*
Y2164335D01*
X3137121Y2158504D01*
X3125458D01*
X3119626Y2164335D01*
Y2193493D01*
X3084637D02*
X3107963D01*
Y2175998D01*
X3096300Y2181830D01*
X3090469D01*
X3084637Y2175998D01*
Y2164335D01*
X3090469Y2158504D01*
X3102132D01*
X3107963Y2164335D01*
X2667952Y2364493D02*
Y2335335D01*
X2662121Y2329504D01*
X2650458D01*
X2644626Y2335335D01*
Y2364493D01*
X2609637D02*
X2621300Y2358661D01*
X2632963Y2346998D01*
Y2335335D01*
X2627132Y2329504D01*
X2615469D01*
X2609637Y2335335D01*
Y2341167D01*
X2615469Y2346998D01*
X2632963D01*
X2682952Y1621493D02*
Y1592335D01*
X2677121Y1586504D01*
X2665458D01*
X2659626Y1592335D01*
Y1621493D01*
X2647963Y1615661D02*
X2642132Y1621493D01*
X2630469D01*
X2624637Y1615661D01*
Y1609830D01*
X2630469Y1603998D01*
X2636300D01*
X2630469D01*
X2624637Y1598167D01*
Y1592335D01*
X2630469Y1586504D01*
X2642132D01*
X2647963Y1592335D01*
X2152952Y2364493D02*
Y2335335D01*
X2147121Y2329504D01*
X2135458D01*
X2129626Y2335335D01*
Y2364493D01*
X2117963Y2335335D02*
X2112132Y2329504D01*
X2100469D01*
X2094637Y2335335D01*
Y2358661D01*
X2100469Y2364493D01*
X2112132D01*
X2117963Y2358661D01*
Y2352830D01*
X2112132Y2346998D01*
X2094637D01*
X3142952Y1888493D02*
Y1859335D01*
X3137121Y1853504D01*
X3125458D01*
X3119626Y1859335D01*
Y1888493D01*
X3107963Y1882661D02*
X3102132Y1888493D01*
X3090469D01*
X3084637Y1882661D01*
Y1876830D01*
X3090469Y1870998D01*
X3084637Y1865167D01*
Y1859335D01*
X3090469Y1853504D01*
X3102132D01*
X3107963Y1859335D01*
Y1865167D01*
X3102132Y1870998D01*
X3107963Y1876830D01*
Y1882661D01*
X3102132Y1870998D02*
X3090469D01*
X3142952Y1583493D02*
Y1554335D01*
X3137121Y1548504D01*
X3125458D01*
X3119626Y1554335D01*
Y1583493D01*
X3107963Y1548504D02*
X3096300D01*
X3102132D01*
Y1583493D01*
X3107963Y1577661D01*
X3078806D02*
X3072975Y1583493D01*
X3061312D01*
X3055480Y1577661D01*
Y1554335D01*
X3061312Y1548504D01*
X3072975D01*
X3078806Y1554335D01*
Y1577661D01*
X2612952Y2531504D02*
Y2566493D01*
X2595458D01*
X2589626Y2560661D01*
Y2548998D01*
X2595458Y2543167D01*
X2612952D01*
X2577963Y2531504D02*
X2566300D01*
X2572132D01*
Y2566493D01*
X2577963Y2560661D01*
X2548806D02*
X2542975Y2566493D01*
X2531312D01*
X2525480Y2560661D01*
Y2537335D01*
X2531312Y2531504D01*
X2542975D01*
X2548806Y2537335D01*
Y2560661D01*
X1405674Y1835157D02*
X1411506Y1840989D01*
X1423169D01*
X1429000Y1835157D01*
Y1811831D01*
X1423169Y1806000D01*
X1411506D01*
X1405674Y1811831D01*
X1394011Y1835157D02*
X1388180Y1840989D01*
X1376517D01*
X1370686Y1835157D01*
Y1829326D01*
X1376517Y1823494D01*
X1370686Y1817663D01*
Y1811831D01*
X1376517Y1806000D01*
X1388180D01*
X1394011Y1811831D01*
Y1817663D01*
X1388180Y1823494D01*
X1394011Y1829326D01*
Y1835157D01*
X1388180Y1823494D02*
X1376517D01*
X1165326Y1825843D02*
X1159494Y1820011D01*
X1147831D01*
X1142000Y1825843D01*
Y1849169D01*
X1147831Y1855000D01*
X1159494D01*
X1165326Y1849169D01*
X1176989D02*
X1182820Y1855000D01*
X1194483D01*
X1200314Y1849169D01*
Y1825843D01*
X1194483Y1820011D01*
X1182820D01*
X1176989Y1825843D01*
Y1831674D01*
X1182820Y1837506D01*
X1200314D01*
X1628000Y1944989D02*
Y1910000D01*
X1610506D01*
X1604674Y1915831D01*
Y1939157D01*
X1610506Y1944989D01*
X1628000D01*
X1575517Y1910000D02*
Y1944989D01*
X1593011Y1927494D01*
X1569686D01*
X1042989Y1873000D02*
X1008000D01*
Y1896326D01*
Y1925483D02*
X1042989D01*
X1025494Y1907989D01*
Y1931314D01*
X1552000Y2155000D02*
Y2189989D01*
X1534506D01*
X1528674Y2184157D01*
Y2172494D01*
X1534506Y2166663D01*
X1552000D01*
X1540337D02*
X1528674Y2155000D01*
X1499517D02*
Y2189989D01*
X1517011Y2172494D01*
X1493686D01*
X1466952Y2445493D02*
Y2416335D01*
X1461121Y2410504D01*
X1449458D01*
X1443626Y2416335D01*
Y2445493D01*
X1431963D02*
X1408638D01*
Y2439661D01*
X1431963Y2416335D01*
Y2410504D01*
X1639000Y2681000D02*
Y2715989D01*
X1621506D01*
X1615674Y2710157D01*
Y2698494D01*
X1621506Y2692663D01*
X1639000D01*
X1627337D02*
X1615674Y2681000D01*
X1604011D02*
X1592348D01*
X1598180D01*
Y2715989D01*
X1604011Y2710157D01*
X1551528Y2681000D02*
X1574854D01*
X1551528Y2704326D01*
Y2710157D01*
X1557360Y2715989D01*
X1569023D01*
X1574854Y2710157D01*
X1256000Y2570685D02*
X1221011D01*
Y2553191D01*
X1226843Y2547359D01*
X1238506D01*
X1244337Y2553191D01*
Y2570685D01*
Y2559022D02*
X1256000Y2547359D01*
Y2535696D02*
Y2524034D01*
Y2529865D01*
X1221011D01*
X1226843Y2535696D01*
Y2506539D02*
X1221011Y2500708D01*
Y2489045D01*
X1226843Y2483213D01*
X1232674D01*
X1238506Y2489045D01*
Y2494876D01*
Y2489045D01*
X1244337Y2483213D01*
X1250169D01*
X1256000Y2489045D01*
Y2500708D01*
X1250169Y2506539D01*
X280000Y3700013D02*
Y3740000D01*
X306658D01*
X220000D02*
Y3700013D01*
X246658Y3740000D01*
Y3700013D01*
X75000Y3540000D02*
X114987D01*
X75000Y3566658D01*
X114987D01*
Y3600000D02*
X75000D01*
Y3626658D01*
X-29000Y2763000D02*
X10987D01*
X-29000Y2789658D01*
X10987D01*
X9987Y2953000D02*
X-30000D01*
Y2979658D01*
%TF.MD5,87317dbca7de55ca2978c04853bd674e*%
M02*
