G04 Layer_Physical_Order=1*
G04 Layer_Color=255*
%FSLAX26Y26*%
%MOIN*%
%TF.FileFunction,Copper,L1,Top,Signal*%
%TF.Part,Single*%
G01*
G75*
%TA.AperFunction,SMDPad,CuDef*%
%ADD10R,0.059055X0.055118*%
%TA.AperFunction,ConnectorPad*%
%ADD11R,0.043307X0.314961*%
%ADD12R,0.048819X0.275591*%
%TA.AperFunction,SMDPad,CuDef*%
%ADD13R,0.043307X0.314961*%
%ADD14R,0.048819X0.275591*%
%ADD15R,0.107087X0.148425*%
%ADD16R,0.059055X0.074803*%
%TA.AperFunction,Conductor*%
%ADD17C,0.040000*%
%ADD18C,0.020000*%
%ADD19C,0.050000*%
%ADD20C,0.030000*%
%ADD21C,0.025000*%
%ADD22R,0.110000X0.210000*%
%ADD23R,0.110000X0.195000*%
%ADD24R,0.190000X0.210000*%
%TA.AperFunction,ComponentPad*%
%ADD25C,0.060000*%
%ADD26R,0.060000X0.060000*%
%TA.AperFunction,ViaPad*%
%ADD27C,0.196850*%
%TA.AperFunction,ComponentPad*%
%ADD28C,0.059055*%
%ADD29C,0.078740*%
%ADD30R,0.059055X0.059055*%
%ADD31R,0.060000X0.060000*%
%ADD32R,0.059055X0.059055*%
%ADD33C,0.118110*%
%ADD34R,0.118110X0.118110*%
%ADD35R,0.118110X0.118110*%
%TA.AperFunction,WasherPad*%
%ADD36C,0.060000*%
%TA.AperFunction,ViaPad*%
%ADD37C,0.030000*%
%ADD38C,0.050000*%
%ADD39C,0.035000*%
%ADD40C,0.040000*%
%ADD41C,0.020000*%
G36*
X3699999Y3665002D02*
X3849999D01*
X3849999Y2278304D01*
X3808836D01*
X3801182Y2275134D01*
X3798012Y2267480D01*
Y2252768D01*
X3793012Y2251773D01*
X3791489Y2255449D01*
X3783836Y2258619D01*
X3735017D01*
X3727363Y2255449D01*
X3724193Y2247795D01*
Y2147336D01*
X3723820Y2147181D01*
X3720650Y2139528D01*
Y2080472D01*
X3723820Y2072819D01*
X3724193Y2072664D01*
Y1972205D01*
X3727363Y1964551D01*
X3735017Y1961381D01*
X3783836D01*
X3791489Y1964551D01*
X3793012Y1968227D01*
X3798012Y1967232D01*
Y1952520D01*
X3801182Y1944866D01*
X3808836Y1941696D01*
X3849999D01*
Y1886053D01*
X3844999Y1883304D01*
X3802831D01*
X3795177Y1880134D01*
X3792007Y1872480D01*
Y1857768D01*
X3787007Y1856773D01*
X3785484Y1860449D01*
X3777831Y1863619D01*
X3758421D01*
Y1715000D01*
X3754996D01*
Y1710000D01*
X3715689D01*
X3717762Y1699577D01*
X3718188Y1698940D01*
Y1577492D01*
X3717980Y1575994D01*
X3715640Y1572492D01*
X3692777D01*
X3689999Y1576650D01*
X3690229Y1577205D01*
Y1696583D01*
X3692230Y1699577D01*
X3695298Y1715000D01*
X3692230Y1730423D01*
X3690229Y1733417D01*
Y1852795D01*
X3687059Y1860449D01*
X3679405Y1863619D01*
X3630586D01*
X3622933Y1860449D01*
X3619763Y1852795D01*
Y1733417D01*
X3617762Y1730423D01*
X3614694Y1715000D01*
X3617762Y1699577D01*
X3619763Y1696583D01*
Y1577492D01*
X3619555Y1575994D01*
X3617215Y1572492D01*
X3594352D01*
X3591574Y1576650D01*
X3591804Y1577205D01*
Y1677664D01*
X3592177Y1677819D01*
X3595347Y1685473D01*
Y1744527D01*
X3592177Y1752181D01*
X3591804Y1752336D01*
Y1852795D01*
X3588634Y1860449D01*
X3580980Y1863619D01*
X3532161D01*
X3524508Y1860449D01*
X3522985Y1856773D01*
X3517985Y1857768D01*
Y1872480D01*
X3514815Y1880134D01*
X3507161Y1883304D01*
X3463854D01*
X3456200Y1880134D01*
X3453030Y1872480D01*
Y1572492D01*
X3439999D01*
Y1597517D01*
X3441669Y1601548D01*
Y1603701D01*
X3442492Y1605690D01*
Y1610000D01*
Y2085000D01*
X3442492Y2085001D01*
X3442495Y2087121D01*
X3442070Y2088149D01*
X3442288Y2089240D01*
X3441458Y2093427D01*
X3440840Y2094352D01*
Y2095464D01*
X3439999Y2097497D01*
Y2115001D01*
X3289999Y2265002D01*
X3098457D01*
X3097965Y2270002D01*
X3106705Y2271741D01*
X3116629Y2278371D01*
X3123259Y2288295D01*
X3124593Y2295000D01*
X3065407D01*
X3066741Y2288295D01*
X3073371Y2278371D01*
X3083295Y2271741D01*
X3092035Y2270002D01*
X3091543Y2265002D01*
X2749999Y2265002D01*
X2684999Y2200002D01*
X1639999D01*
X1559999Y2120002D01*
X1559999Y920002D01*
X1311457Y920002D01*
X1310964Y925002D01*
X1319705Y926741D01*
X1329629Y933371D01*
X1336259Y943295D01*
X1337593Y950000D01*
X1278407D01*
X1279741Y943295D01*
X1286371Y933371D01*
X1296295Y926741D01*
X1305036Y925002D01*
X1304543Y920002D01*
X1154999D01*
X789999Y555002D01*
Y-69998D01*
X74999D01*
Y75002D01*
X-70001D01*
Y145895D01*
X-65001Y147412D01*
X-59629Y139371D01*
X-49705Y132741D01*
X-43000Y131407D01*
Y161000D01*
Y190593D01*
X-49705Y189259D01*
X-59629Y182629D01*
X-65001Y174588D01*
X-70001Y176105D01*
Y2429296D01*
X-65216Y2430747D01*
X-63629Y2428371D01*
X-53705Y2421741D01*
X-47000Y2420407D01*
Y2450000D01*
Y2479593D01*
X-53705Y2478259D01*
X-63629Y2471629D01*
X-65216Y2469253D01*
X-70001Y2470704D01*
Y2525002D01*
X-75001Y2530002D01*
X-68909Y2536094D01*
X-64124Y2534643D01*
X-63259Y2530295D01*
X-56629Y2520371D01*
X-46705Y2513741D01*
X-40000Y2512407D01*
Y2542000D01*
X-35000D01*
Y2547000D01*
X-5407D01*
X-6741Y2553705D01*
X-13371Y2563629D01*
X-23295Y2570259D01*
X-27643Y2571124D01*
X-29094Y2575909D01*
X-15477Y2589526D01*
X-14928Y2588977D01*
X-12939Y2588153D01*
X-11416Y2586630D01*
X-3452Y2583331D01*
X-1299D01*
X690Y2582508D01*
X260000D01*
X264310Y2582508D01*
X266299Y2583331D01*
X268452D01*
X276416Y2586630D01*
X277938Y2588153D01*
X279928Y2588977D01*
X280953Y2590002D01*
X284999D01*
Y2594047D01*
X286023Y2595072D01*
X286847Y2597061D01*
X288370Y2598584D01*
X291668Y2606548D01*
Y2608701D01*
X292492Y2610690D01*
X292492Y2615000D01*
X292492Y2851541D01*
X408459Y2967508D01*
X675000D01*
X679310Y2967508D01*
X681299Y2968331D01*
X683452D01*
X687485Y2970002D01*
X974999D01*
X1134998Y2810002D01*
X2889999Y2810002D01*
X3229999Y3150002D01*
X3229999Y3845002D01*
X3699999D01*
Y3665002D01*
D02*
G37*
G36*
X3370000Y2035000D02*
Y1586176D01*
X3396250Y1559926D01*
X3395427Y1557939D01*
X3393905Y1556416D01*
X3390606Y1548452D01*
Y1546299D01*
X3389782Y1544310D01*
Y1535690D01*
X3390606Y1533701D01*
Y1531548D01*
X3393905Y1523584D01*
X3395427Y1522061D01*
X3396251Y1520072D01*
X3400946Y1515376D01*
X3401101Y1510284D01*
X3400744Y1509228D01*
X3394766Y1505234D01*
X3387031Y1493656D01*
X3384314Y1480000D01*
X3387031Y1466344D01*
X3394766Y1454766D01*
X3398158Y1452500D01*
Y1447500D01*
X3394766Y1445234D01*
X3394488Y1444817D01*
X3389512Y1444327D01*
X3325392Y1508447D01*
Y1755000D01*
X3323840Y1762804D01*
X3319419Y1769419D01*
X3284419Y1804419D01*
X3277804Y1808840D01*
X3270000Y1810392D01*
X3259480D01*
X3254755Y1813550D01*
X3245000Y1815490D01*
X3235245Y1813550D01*
X3226976Y1808024D01*
X3221450Y1799755D01*
X3219510Y1790000D01*
X3221450Y1780245D01*
X3226976Y1771976D01*
X3235245Y1766450D01*
X3245000Y1764510D01*
X3254755Y1766450D01*
X3259480Y1769608D01*
X3261553D01*
X3284608Y1746553D01*
Y1501301D01*
X3280153Y1498686D01*
X3279419Y1499419D01*
X3272804Y1503840D01*
X3265000Y1505392D01*
X3264480D01*
X3259755Y1508550D01*
X3250000Y1510490D01*
X3240245Y1508550D01*
X3231976Y1503024D01*
X3226450Y1494755D01*
X3224510Y1485000D01*
X3226450Y1475245D01*
X3231976Y1466976D01*
X3240245Y1461450D01*
X3250000Y1459510D01*
X3259718Y1461443D01*
X3375581Y1345581D01*
X3382196Y1341160D01*
X3390000Y1339608D01*
X3391531D01*
X3394766Y1334766D01*
X3406344Y1327031D01*
X3420000Y1324314D01*
X3433656Y1327031D01*
X3445234Y1334766D01*
X3448033Y1338956D01*
X3453033Y1337439D01*
Y1314140D01*
X3448248Y1312688D01*
X3448024Y1313024D01*
X3439755Y1318550D01*
X3435000Y1319495D01*
Y1295000D01*
Y1270505D01*
X3439755Y1271450D01*
X3448024Y1276976D01*
X3448248Y1277312D01*
X3453033Y1275860D01*
Y1202932D01*
X3456203Y1195279D01*
X3463857Y1192108D01*
X3507164D01*
X3514818Y1195279D01*
X3517988Y1202932D01*
Y1217645D01*
X3522988Y1218639D01*
X3524510Y1214964D01*
X3532164Y1211793D01*
X3580983D01*
X3588636Y1214964D01*
X3591807Y1222617D01*
Y1344352D01*
X3592233Y1344990D01*
X3595300Y1360413D01*
X3592233Y1375835D01*
X3591807Y1376473D01*
Y1498208D01*
X3590026Y1502507D01*
X3593367Y1507507D01*
X3618205D01*
X3621546Y1502507D01*
X3619765Y1498208D01*
Y1378830D01*
X3617764Y1375835D01*
X3614697Y1360413D01*
X3617764Y1344990D01*
X3619765Y1341995D01*
Y1222617D01*
X3622935Y1214964D01*
X3630589Y1211793D01*
X3679408D01*
X3687062Y1214964D01*
X3690232Y1222617D01*
Y1341995D01*
X3692233Y1344990D01*
X3695300Y1360413D01*
X3692233Y1375835D01*
X3690232Y1378830D01*
Y1498208D01*
X3688451Y1502507D01*
X3691792Y1507507D01*
X3716630D01*
X3719971Y1502507D01*
X3718190Y1498208D01*
Y1397748D01*
X3717817Y1397594D01*
X3714647Y1389940D01*
Y1330885D01*
X3717817Y1323231D01*
X3718190Y1323077D01*
Y1222617D01*
X3721361Y1214964D01*
X3729014Y1211793D01*
X3777833D01*
X3785487Y1214964D01*
X3787009Y1218639D01*
X3792009Y1217645D01*
Y1202932D01*
X3795180Y1195279D01*
X3802833Y1192108D01*
X3846140D01*
X3850000Y1189529D01*
Y1175883D01*
X3846140Y1173304D01*
X3802833D01*
X3795180Y1170134D01*
X3792009Y1162480D01*
Y1147768D01*
X3787009Y1146773D01*
X3785487Y1150449D01*
X3777833Y1153619D01*
X3754425D01*
X3752068Y1158029D01*
X3753550Y1160245D01*
X3754495Y1165000D01*
X3705505D01*
X3706450Y1160245D01*
X3711976Y1151976D01*
X3719822Y1146734D01*
X3718190Y1142795D01*
Y1042336D01*
X3717817Y1042181D01*
X3714647Y1034527D01*
Y975472D01*
X3717817Y967819D01*
X3718190Y967664D01*
Y867205D01*
X3721361Y859551D01*
X3729014Y856381D01*
X3777833D01*
X3785487Y859551D01*
X3787009Y863227D01*
X3792009Y862232D01*
Y847520D01*
X3795180Y839866D01*
X3725314Y770000D01*
X3055000D01*
X2963083Y861917D01*
X2965686Y875000D01*
X2962969Y888656D01*
X2955234Y900234D01*
X2805234Y1050234D01*
X2793656Y1057969D01*
X2780000Y1060686D01*
X2070709D01*
X2069498Y1062498D01*
X2056423Y1071234D01*
X2053689Y1071778D01*
X2036001Y1089466D01*
Y1219964D01*
X2053858D01*
X2061512Y1223134D01*
X2064682Y1230787D01*
Y1379213D01*
X2061512Y1386866D01*
X2053858Y1390036D01*
X2028143D01*
X2025549Y1393919D01*
X1965886Y1453581D01*
X1966158Y1454945D01*
X1969328Y1462599D01*
Y1537401D01*
X1966158Y1545055D01*
X1958504Y1548225D01*
X1899449D01*
X1891795Y1545055D01*
X1888625Y1537401D01*
Y1462599D01*
X1891795Y1454945D01*
X1893291Y1454325D01*
Y1440024D01*
X1896007Y1426367D01*
X1903743Y1414790D01*
X1936936Y1381597D01*
X1935948Y1379213D01*
Y1230787D01*
X1939118Y1223134D01*
X1946772Y1219964D01*
X1964629D01*
Y1108925D01*
X1960220Y1106568D01*
X1957255Y1108550D01*
X1952500Y1109495D01*
Y1085000D01*
Y1060505D01*
X1957255Y1061450D01*
X1961588Y1064346D01*
X1967144Y1062045D01*
X1967346Y1061029D01*
X1975081Y1049451D01*
X2003222Y1021311D01*
X2003766Y1018577D01*
X2012502Y1005502D01*
X2025577Y996766D01*
X2030817Y995724D01*
X2036344Y992031D01*
X2050000Y989314D01*
X2765218D01*
X2829913Y924619D01*
X2828000Y920000D01*
X1785000D01*
X1670000Y1035000D01*
X1670000Y2040000D01*
X1750000Y2120000D01*
X2755000Y2120000D01*
X2810000Y2175000D01*
X3230000Y2175000D01*
X3370000Y2035000D01*
D02*
G37*
%LPC*%
G36*
X1337000Y1208593D02*
Y1184000D01*
X1361593D01*
X1360259Y1190705D01*
X1353629Y1200629D01*
X1343705Y1207259D01*
X1337000Y1208593D01*
D02*
G37*
G36*
X1180000Y1208000D02*
X1155407D01*
X1156741Y1201295D01*
X1163371Y1191371D01*
X1173295Y1184741D01*
X1180000Y1183407D01*
Y1208000D01*
D02*
G37*
G36*
X1214593D02*
X1190000D01*
Y1183407D01*
X1196705Y1184741D01*
X1206629Y1191371D01*
X1213259Y1201295D01*
X1214593Y1208000D01*
D02*
G37*
G36*
X1327000Y1208593D02*
X1320295Y1207259D01*
X1310371Y1200629D01*
X1303741Y1190705D01*
X1302407Y1184000D01*
X1327000D01*
Y1208593D01*
D02*
G37*
G36*
X794946Y1195527D02*
X770353D01*
Y1170934D01*
X777059Y1172268D01*
X786982Y1178899D01*
X793613Y1188822D01*
X794946Y1195527D01*
D02*
G37*
G36*
X433000Y1274000D02*
X408407D01*
X409741Y1267295D01*
X416371Y1257371D01*
X426295Y1250741D01*
X433000Y1249407D01*
Y1274000D01*
D02*
G37*
G36*
X467593D02*
X443000D01*
Y1249407D01*
X449705Y1250741D01*
X459629Y1257371D01*
X466259Y1267295D01*
X467593Y1274000D01*
D02*
G37*
G36*
X282000Y1286593D02*
X275295Y1285259D01*
X265371Y1278629D01*
X258741Y1268705D01*
X257407Y1262000D01*
X282000D01*
Y1286593D01*
D02*
G37*
G36*
X292000D02*
Y1262000D01*
X316593D01*
X315259Y1268705D01*
X308629Y1278629D01*
X298705Y1285259D01*
X292000Y1286593D01*
D02*
G37*
G36*
X1506000Y1217593D02*
Y1193000D01*
X1530593D01*
X1529259Y1199705D01*
X1522629Y1209629D01*
X1512705Y1216259D01*
X1506000Y1217593D01*
D02*
G37*
G36*
X1496000D02*
X1489295Y1216259D01*
X1479371Y1209629D01*
X1472741Y1199705D01*
X1471407Y1193000D01*
X1496000D01*
Y1217593D01*
D02*
G37*
G36*
X760353Y1230121D02*
X753648Y1228787D01*
X743725Y1222156D01*
X737094Y1212233D01*
X735760Y1205527D01*
X760353D01*
Y1230121D01*
D02*
G37*
G36*
X282000Y1252000D02*
X257407D01*
X258741Y1245295D01*
X265371Y1235371D01*
X275295Y1228741D01*
X282000Y1227407D01*
Y1252000D01*
D02*
G37*
G36*
X316593D02*
X292000D01*
Y1227407D01*
X298705Y1228741D01*
X308629Y1235371D01*
X315259Y1245295D01*
X316593Y1252000D01*
D02*
G37*
G36*
X770353Y1230121D02*
Y1205527D01*
X794946D01*
X793613Y1212233D01*
X786982Y1222156D01*
X777059Y1228787D01*
X770353Y1230121D01*
D02*
G37*
G36*
X1180000Y1242593D02*
X1173295Y1241259D01*
X1163371Y1234629D01*
X1156741Y1224705D01*
X1155407Y1218000D01*
X1180000D01*
Y1242593D01*
D02*
G37*
G36*
X1190000D02*
Y1218000D01*
X1214593D01*
X1213259Y1224705D01*
X1206629Y1234629D01*
X1196705Y1241259D01*
X1190000Y1242593D01*
D02*
G37*
G36*
X1390000Y1099593D02*
X1383295Y1098259D01*
X1373371Y1091629D01*
X1366741Y1081705D01*
X1365407Y1075000D01*
X1390000D01*
Y1099593D01*
D02*
G37*
G36*
X1400000D02*
Y1075000D01*
X1424593D01*
X1423259Y1081705D01*
X1416629Y1091629D01*
X1406705Y1098259D01*
X1400000Y1099593D01*
D02*
G37*
G36*
X450986Y1219619D02*
X431577D01*
Y1076000D01*
X464309D01*
X462236Y1086423D01*
X461810Y1087060D01*
Y1208795D01*
X458640Y1216449D01*
X450986Y1219619D01*
D02*
G37*
G36*
X1327000Y1174000D02*
X1302407D01*
X1303741Y1167295D01*
X1310371Y1157371D01*
X1320295Y1150741D01*
X1327000Y1149407D01*
Y1174000D01*
D02*
G37*
G36*
X1361593D02*
X1337000D01*
Y1149407D01*
X1343705Y1150741D01*
X1353629Y1157371D01*
X1360259Y1167295D01*
X1361593Y1174000D01*
D02*
G37*
G36*
X760353Y1195527D02*
X735760D01*
X737094Y1188822D01*
X743725Y1178899D01*
X753648Y1172268D01*
X760353Y1170934D01*
Y1195527D01*
D02*
G37*
G36*
X1496000Y1183000D02*
X1471407D01*
X1472741Y1176295D01*
X1479371Y1166371D01*
X1489295Y1159741D01*
X1496000Y1158407D01*
Y1183000D01*
D02*
G37*
G36*
X1530593D02*
X1506000D01*
Y1158407D01*
X1512705Y1159741D01*
X1522629Y1166371D01*
X1529259Y1176295D01*
X1530593Y1183000D01*
D02*
G37*
G36*
X875000Y1288000D02*
X850407D01*
X851741Y1281295D01*
X858371Y1271371D01*
X868295Y1264741D01*
X875000Y1263407D01*
Y1288000D01*
D02*
G37*
G36*
X234842Y1466789D02*
X224235Y1464679D01*
X211004Y1455838D01*
X202163Y1442607D01*
X200054Y1432000D01*
X234842D01*
Y1466789D01*
D02*
G37*
G36*
X1154000Y1466593D02*
X1147295Y1465259D01*
X1137371Y1458629D01*
X1130741Y1448705D01*
X1129407Y1442000D01*
X1154000D01*
Y1466593D01*
D02*
G37*
G36*
X1164000D02*
Y1442000D01*
X1188593D01*
X1187259Y1448705D01*
X1180629Y1458629D01*
X1170705Y1465259D01*
X1164000Y1466593D01*
D02*
G37*
G36*
X244842Y1466789D02*
Y1432000D01*
X279632D01*
X277522Y1442607D01*
X268681Y1455838D01*
X255450Y1464679D01*
X244842Y1466789D01*
D02*
G37*
G36*
X894000Y1434593D02*
Y1410000D01*
X918593D01*
X917259Y1416705D01*
X910629Y1426629D01*
X900705Y1433259D01*
X894000Y1434593D01*
D02*
G37*
G36*
X1154000Y1432000D02*
X1129407D01*
X1130741Y1425295D01*
X1137371Y1415371D01*
X1147295Y1408741D01*
X1154000Y1407407D01*
Y1432000D01*
D02*
G37*
G36*
X1188593D02*
X1164000D01*
Y1407407D01*
X1170705Y1408741D01*
X1180629Y1415371D01*
X1187259Y1425295D01*
X1188593Y1432000D01*
D02*
G37*
G36*
X884000Y1434593D02*
X877295Y1433259D01*
X867371Y1426629D01*
X860741Y1416705D01*
X859407Y1410000D01*
X884000D01*
Y1434593D01*
D02*
G37*
G36*
X1517593Y1438000D02*
X1493000D01*
Y1413407D01*
X1499705Y1414741D01*
X1509629Y1421371D01*
X1516259Y1431295D01*
X1517593Y1438000D01*
D02*
G37*
G36*
X1342000D02*
X1317407D01*
X1318741Y1431295D01*
X1325371Y1421371D01*
X1335295Y1414741D01*
X1342000Y1413407D01*
Y1438000D01*
D02*
G37*
G36*
X1376593D02*
X1352000D01*
Y1413407D01*
X1358705Y1414741D01*
X1368629Y1421371D01*
X1375259Y1431295D01*
X1376593Y1438000D01*
D02*
G37*
G36*
X1483000D02*
X1458407D01*
X1459741Y1431295D01*
X1466371Y1421371D01*
X1476295Y1414741D01*
X1483000Y1413407D01*
Y1438000D01*
D02*
G37*
G36*
X1493000Y1472593D02*
Y1448000D01*
X1517593D01*
X1516259Y1454705D01*
X1509629Y1464629D01*
X1499705Y1471259D01*
X1493000Y1472593D01*
D02*
G37*
G36*
X1342000D02*
X1335295Y1471259D01*
X1325371Y1464629D01*
X1318741Y1454705D01*
X1317407Y1448000D01*
X1342000D01*
Y1472593D01*
D02*
G37*
G36*
X1352000D02*
Y1448000D01*
X1376593D01*
X1375259Y1454705D01*
X1368629Y1464629D01*
X1358705Y1471259D01*
X1352000Y1472593D01*
D02*
G37*
G36*
X1483000D02*
X1476295Y1471259D01*
X1466371Y1464629D01*
X1459741Y1454705D01*
X1458407Y1448000D01*
X1483000D01*
Y1472593D01*
D02*
G37*
G36*
X1430000Y1340593D02*
Y1316000D01*
X1454593D01*
X1453259Y1322705D01*
X1446629Y1332629D01*
X1436705Y1339259D01*
X1430000Y1340593D01*
D02*
G37*
G36*
X1261000Y1345593D02*
X1254295Y1344259D01*
X1244371Y1337629D01*
X1237741Y1327705D01*
X1236407Y1321000D01*
X1261000D01*
Y1345593D01*
D02*
G37*
G36*
X1271000D02*
Y1321000D01*
X1295593D01*
X1294259Y1327705D01*
X1287629Y1337629D01*
X1277705Y1344259D01*
X1271000Y1345593D01*
D02*
G37*
G36*
X1420000Y1340593D02*
X1413295Y1339259D01*
X1403371Y1332629D01*
X1396741Y1322705D01*
X1395407Y1316000D01*
X1420000D01*
Y1340593D01*
D02*
G37*
G36*
X391593Y1326000D02*
X367000D01*
Y1301407D01*
X373705Y1302741D01*
X383629Y1309371D01*
X390259Y1319295D01*
X391593Y1326000D01*
D02*
G37*
G36*
X1454593Y1306000D02*
X1430000D01*
Y1281407D01*
X1436705Y1282741D01*
X1446629Y1289371D01*
X1453259Y1299295D01*
X1454593Y1306000D01*
D02*
G37*
G36*
X433000Y1308593D02*
X426295Y1307259D01*
X416371Y1300629D01*
X409741Y1290705D01*
X408407Y1284000D01*
X433000D01*
Y1308593D01*
D02*
G37*
G36*
X443000D02*
Y1284000D01*
X467593D01*
X466259Y1290705D01*
X459629Y1300629D01*
X449705Y1307259D01*
X443000Y1308593D01*
D02*
G37*
G36*
X909593Y1288000D02*
X885000D01*
Y1263407D01*
X891705Y1264741D01*
X901629Y1271371D01*
X908259Y1281295D01*
X909593Y1288000D01*
D02*
G37*
G36*
X1420000Y1306000D02*
X1395407D01*
X1396741Y1299295D01*
X1403371Y1289371D01*
X1413295Y1282741D01*
X1420000Y1281407D01*
Y1306000D01*
D02*
G37*
G36*
X885000Y1322593D02*
Y1298000D01*
X909593D01*
X908259Y1304705D01*
X901629Y1314629D01*
X891705Y1321259D01*
X885000Y1322593D01*
D02*
G37*
G36*
X357000Y1326000D02*
X332407D01*
X333741Y1319295D01*
X340371Y1309371D01*
X350295Y1302741D01*
X357000Y1301407D01*
Y1326000D01*
D02*
G37*
G36*
X1261000Y1311000D02*
X1236407D01*
X1237741Y1304295D01*
X1244371Y1294371D01*
X1254295Y1287741D01*
X1261000Y1286407D01*
Y1311000D01*
D02*
G37*
G36*
X1295593D02*
X1271000D01*
Y1286407D01*
X1277705Y1287741D01*
X1287629Y1294371D01*
X1294259Y1304295D01*
X1295593Y1311000D01*
D02*
G37*
G36*
X875000Y1322593D02*
X868295Y1321259D01*
X858371Y1314629D01*
X851741Y1304705D01*
X850407Y1298000D01*
X875000D01*
Y1322593D01*
D02*
G37*
G36*
X357000Y1360593D02*
X350295Y1359259D01*
X340371Y1352629D01*
X333741Y1342705D01*
X332407Y1336000D01*
X357000D01*
Y1360593D01*
D02*
G37*
G36*
X234842Y1422000D02*
X200054D01*
X202163Y1411393D01*
X211004Y1398162D01*
X224235Y1389321D01*
X234842Y1387211D01*
Y1422000D01*
D02*
G37*
G36*
X279632D02*
X244842D01*
Y1387211D01*
X255450Y1389321D01*
X268681Y1398162D01*
X277522Y1411393D01*
X279632Y1422000D01*
D02*
G37*
G36*
X367000Y1360593D02*
Y1336000D01*
X391593D01*
X390259Y1342705D01*
X383629Y1352629D01*
X373705Y1359259D01*
X367000Y1360593D01*
D02*
G37*
G36*
X884000Y1400000D02*
X859407D01*
X860741Y1393295D01*
X867371Y1383371D01*
X877295Y1376741D01*
X884000Y1375407D01*
Y1400000D01*
D02*
G37*
G36*
X918593D02*
X894000D01*
Y1375407D01*
X900705Y1376741D01*
X910629Y1383371D01*
X917259Y1393295D01*
X918593Y1400000D01*
D02*
G37*
G36*
X169843Y1467824D02*
X109843D01*
X102189Y1464654D01*
X99019Y1457000D01*
Y1397000D01*
X102189Y1389346D01*
X109843Y1386176D01*
X169843D01*
X177496Y1389346D01*
X180666Y1397000D01*
Y1457000D01*
X177496Y1464654D01*
X169843Y1467824D01*
D02*
G37*
G36*
X331593Y522000D02*
X307000D01*
Y497407D01*
X313705Y498741D01*
X323629Y505371D01*
X330259Y515295D01*
X331593Y522000D01*
D02*
G37*
G36*
X433000D02*
X408407D01*
X409741Y515295D01*
X416371Y505371D01*
X426295Y498741D01*
X433000Y497407D01*
Y522000D01*
D02*
G37*
G36*
X467593D02*
X443000D01*
Y497407D01*
X449705Y498741D01*
X459629Y505371D01*
X466259Y515295D01*
X467593Y522000D01*
D02*
G37*
G36*
X100001Y537575D02*
X35122D01*
Y483520D01*
X38292Y475866D01*
X45946Y472696D01*
X100001D01*
Y537575D01*
D02*
G37*
G36*
X174880D02*
X110001D01*
Y472696D01*
X164056D01*
X171709Y475866D01*
X174880Y483520D01*
Y537575D01*
D02*
G37*
G36*
X297000Y522000D02*
X272407D01*
X273741Y515295D01*
X280371Y505371D01*
X290295Y498741D01*
X297000Y497407D01*
Y522000D01*
D02*
G37*
G36*
X569000D02*
X544407D01*
X545741Y515295D01*
X552371Y505371D01*
X562295Y498741D01*
X569000Y497407D01*
Y522000D01*
D02*
G37*
G36*
X297000Y556593D02*
X290295Y555259D01*
X280371Y548629D01*
X273741Y538705D01*
X272407Y532000D01*
X297000D01*
Y556593D01*
D02*
G37*
G36*
X307000D02*
Y532000D01*
X331593D01*
X330259Y538705D01*
X323629Y548629D01*
X313705Y555259D01*
X307000Y556593D01*
D02*
G37*
G36*
X433000D02*
X426295Y555259D01*
X416371Y548629D01*
X409741Y538705D01*
X408407Y532000D01*
X433000D01*
Y556593D01*
D02*
G37*
G36*
X603593Y522000D02*
X579000D01*
Y497407D01*
X585705Y498741D01*
X595629Y505371D01*
X602259Y515295D01*
X603593Y522000D01*
D02*
G37*
G36*
X705000D02*
X680407D01*
X681741Y515295D01*
X688371Y505371D01*
X698295Y498741D01*
X705000Y497407D01*
Y522000D01*
D02*
G37*
G36*
X739593D02*
X715000D01*
Y497407D01*
X721705Y498741D01*
X731629Y505371D01*
X738259Y515295D01*
X739593Y522000D01*
D02*
G37*
G36*
X637000Y400000D02*
X612407D01*
X613741Y393295D01*
X620371Y383371D01*
X630295Y376741D01*
X637000Y375407D01*
Y400000D01*
D02*
G37*
G36*
X671593D02*
X647000D01*
Y375407D01*
X653705Y376741D01*
X663629Y383371D01*
X670259Y393295D01*
X671593Y400000D01*
D02*
G37*
G36*
X229000Y434593D02*
X222295Y433259D01*
X212371Y426629D01*
X205741Y416705D01*
X204407Y410000D01*
X229000D01*
Y434593D01*
D02*
G37*
G36*
X399593Y400000D02*
X375000D01*
Y375407D01*
X381705Y376741D01*
X391629Y383371D01*
X398259Y393295D01*
X399593Y400000D01*
D02*
G37*
G36*
X501000D02*
X476407D01*
X477741Y393295D01*
X484371Y383371D01*
X494295Y376741D01*
X501000Y375407D01*
Y400000D01*
D02*
G37*
G36*
X535593D02*
X511000D01*
Y375407D01*
X517705Y376741D01*
X527629Y383371D01*
X534259Y393295D01*
X535593Y400000D01*
D02*
G37*
G36*
X239000Y434593D02*
Y410000D01*
X263593D01*
X262259Y416705D01*
X255629Y426629D01*
X245705Y433259D01*
X239000Y434593D01*
D02*
G37*
G36*
X511000D02*
Y410000D01*
X535593D01*
X534259Y416705D01*
X527629Y426629D01*
X517705Y433259D01*
X511000Y434593D01*
D02*
G37*
G36*
X637000D02*
X630295Y433259D01*
X620371Y426629D01*
X613741Y416705D01*
X612407Y410000D01*
X637000D01*
Y434593D01*
D02*
G37*
G36*
X647000D02*
Y410000D01*
X671593D01*
X670259Y416705D01*
X663629Y426629D01*
X653705Y433259D01*
X647000Y434593D01*
D02*
G37*
G36*
X365000D02*
X358295Y433259D01*
X348371Y426629D01*
X341741Y416705D01*
X340407Y410000D01*
X365000D01*
Y434593D01*
D02*
G37*
G36*
X375000D02*
Y410000D01*
X399593D01*
X398259Y416705D01*
X391629Y426629D01*
X381705Y433259D01*
X375000Y434593D01*
D02*
G37*
G36*
X501000D02*
X494295Y433259D01*
X484371Y426629D01*
X477741Y416705D01*
X476407Y410000D01*
X501000D01*
Y434593D01*
D02*
G37*
G36*
X903000Y800593D02*
Y776000D01*
X927593D01*
X926259Y782705D01*
X919629Y792629D01*
X909705Y799259D01*
X903000Y800593D01*
D02*
G37*
G36*
X893000Y766000D02*
X868407D01*
X869741Y759295D01*
X876371Y749371D01*
X886295Y742741D01*
X893000Y741407D01*
Y766000D01*
D02*
G37*
G36*
X927593D02*
X903000D01*
Y741407D01*
X909705Y742741D01*
X919629Y749371D01*
X926259Y759295D01*
X927593Y766000D01*
D02*
G37*
G36*
X893000Y800593D02*
X886295Y799259D01*
X876371Y792629D01*
X869741Y782705D01*
X868407Y776000D01*
X893000D01*
Y800593D01*
D02*
G37*
G36*
X705000Y556593D02*
X698295Y555259D01*
X688371Y548629D01*
X681741Y538705D01*
X680407Y532000D01*
X705000D01*
Y556593D01*
D02*
G37*
G36*
X715000D02*
Y532000D01*
X739593D01*
X738259Y538705D01*
X731629Y548629D01*
X721705Y555259D01*
X715000Y556593D01*
D02*
G37*
G36*
X100001Y612454D02*
X45946D01*
X38292Y609284D01*
X35122Y601630D01*
Y547575D01*
X100001D01*
Y612454D01*
D02*
G37*
G36*
X443000Y556593D02*
Y532000D01*
X467593D01*
X466259Y538705D01*
X459629Y548629D01*
X449705Y555259D01*
X443000Y556593D01*
D02*
G37*
G36*
X569000D02*
X562295Y555259D01*
X552371Y548629D01*
X545741Y538705D01*
X544407Y532000D01*
X569000D01*
Y556593D01*
D02*
G37*
G36*
X579000D02*
Y532000D01*
X603593D01*
X602259Y538705D01*
X595629Y548629D01*
X585705Y555259D01*
X579000Y556593D01*
D02*
G37*
G36*
X164056Y612454D02*
X110001D01*
Y547575D01*
X174880D01*
Y601630D01*
X171709Y609284D01*
X164056Y612454D01*
D02*
G37*
G36*
X105001Y809076D02*
X86974Y806703D01*
X70175Y799745D01*
X55750Y788676D01*
X44681Y774251D01*
X37723Y757452D01*
X35350Y739425D01*
X37723Y721398D01*
X44681Y704600D01*
X55750Y690174D01*
X70175Y679106D01*
X86974Y672148D01*
X105001Y669774D01*
X123028Y672148D01*
X139826Y679106D01*
X154251Y690174D01*
X165320Y704600D01*
X172278Y721398D01*
X174652Y739425D01*
X172278Y757452D01*
X165320Y774251D01*
X154251Y788676D01*
X139826Y799745D01*
X123028Y806703D01*
X105001Y809076D01*
D02*
G37*
G36*
X790000Y699593D02*
X783295Y698259D01*
X773371Y691629D01*
X766741Y681705D01*
X765407Y675000D01*
X790000D01*
Y699593D01*
D02*
G37*
G36*
X800000D02*
Y675000D01*
X824593D01*
X823259Y681705D01*
X816629Y691629D01*
X806705Y698259D01*
X800000Y699593D01*
D02*
G37*
G36*
X790000Y665000D02*
X765407D01*
X766741Y658295D01*
X773371Y648371D01*
X783295Y641741D01*
X790000Y640407D01*
Y665000D01*
D02*
G37*
G36*
X824593D02*
X800000D01*
Y640407D01*
X806705Y641741D01*
X816629Y648371D01*
X823259Y658295D01*
X824593Y665000D01*
D02*
G37*
G36*
X-20000Y704392D02*
X-27804Y702840D01*
X-34419Y698419D01*
X-38840Y691804D01*
X-40392Y684000D01*
X-38840Y676196D01*
X-34419Y669581D01*
X-27804Y665160D01*
X-20000Y663608D01*
X-12196Y665160D01*
X-5581Y669581D01*
X-1160Y676196D01*
X392Y684000D01*
X-1160Y691804D01*
X-5581Y698419D01*
X-12196Y702840D01*
X-20000Y704392D01*
D02*
G37*
G36*
X127593Y156000D02*
X103000D01*
Y131407D01*
X109705Y132741D01*
X119629Y139371D01*
X126259Y149295D01*
X127593Y156000D01*
D02*
G37*
G36*
X229000D02*
X204407D01*
X205741Y149295D01*
X212371Y139371D01*
X222295Y132741D01*
X229000Y131407D01*
Y156000D01*
D02*
G37*
G36*
X263593D02*
X239000D01*
Y131407D01*
X245705Y132741D01*
X255629Y139371D01*
X262259Y149295D01*
X263593Y156000D01*
D02*
G37*
G36*
X715000Y68593D02*
Y44000D01*
X739593D01*
X738259Y50705D01*
X731629Y60629D01*
X721705Y67259D01*
X715000Y68593D01*
D02*
G37*
G36*
X-8407Y156000D02*
X-33000D01*
Y131407D01*
X-26295Y132741D01*
X-16371Y139371D01*
X-9741Y149295D01*
X-8407Y156000D01*
D02*
G37*
G36*
X93000D02*
X68407D01*
X69741Y149295D01*
X76371Y139371D01*
X86295Y132741D01*
X93000Y131407D01*
Y156000D01*
D02*
G37*
G36*
X501000D02*
X476407D01*
X477741Y149295D01*
X484371Y139371D01*
X494295Y132741D01*
X501000Y131407D01*
Y156000D01*
D02*
G37*
G36*
X375000Y190593D02*
Y161000D01*
X365000D01*
Y190593D01*
X358295Y189259D01*
X357230Y188548D01*
X342695Y186634D01*
X316320Y175709D01*
X293670Y158330D01*
X276291Y135680D01*
X265366Y109305D01*
X262298Y86000D01*
X479702D01*
X476634Y109305D01*
X465709Y135680D01*
X448330Y158330D01*
X425680Y175709D01*
X399305Y186634D01*
X382279Y188876D01*
X381705Y189259D01*
X375000Y190593D01*
D02*
G37*
G36*
X-33000D02*
Y166000D01*
X-8407D01*
X-9741Y172705D01*
X-16371Y182629D01*
X-26295Y189259D01*
X-33000Y190593D01*
D02*
G37*
G36*
X93000D02*
X86295Y189259D01*
X76371Y182629D01*
X69741Y172705D01*
X68407Y166000D01*
X93000D01*
Y190593D01*
D02*
G37*
G36*
X535593Y156000D02*
X511000D01*
Y131407D01*
X517705Y132741D01*
X527629Y139371D01*
X534259Y149295D01*
X535593Y156000D01*
D02*
G37*
G36*
X637000D02*
X612407D01*
X613741Y149295D01*
X620371Y139371D01*
X630295Y132741D01*
X637000Y131407D01*
Y156000D01*
D02*
G37*
G36*
X671593D02*
X647000D01*
Y131407D01*
X653705Y132741D01*
X663629Y139371D01*
X670259Y149295D01*
X671593Y156000D01*
D02*
G37*
G36*
X195593Y34000D02*
X171000D01*
Y9407D01*
X177705Y10741D01*
X187629Y17371D01*
X194259Y27295D01*
X195593Y34000D01*
D02*
G37*
G36*
X569000D02*
X544407D01*
X545741Y27295D01*
X552371Y17371D01*
X562295Y10741D01*
X569000Y9407D01*
Y34000D01*
D02*
G37*
G36*
X603593D02*
X579000D01*
Y9407D01*
X585705Y10741D01*
X595629Y17371D01*
X602259Y27295D01*
X603593Y34000D01*
D02*
G37*
G36*
X366000Y76000D02*
X262298D01*
X265366Y52695D01*
X271758Y37263D01*
X273741Y27295D01*
X280371Y17371D01*
X286088Y13551D01*
X293670Y3670D01*
X316320Y-13709D01*
X342695Y-24634D01*
X366000Y-27703D01*
Y76000D01*
D02*
G37*
G36*
X479702D02*
X376000D01*
Y-27703D01*
X399305Y-24634D01*
X425680Y-13709D01*
X448330Y3670D01*
X458016Y16294D01*
X459629Y17371D01*
X464925Y25297D01*
X465709Y26320D01*
X465875Y26719D01*
X466259Y27295D01*
X466394Y27974D01*
X476634Y52695D01*
X479702Y76000D01*
D02*
G37*
G36*
X161000Y34000D02*
X136407D01*
X137741Y27295D01*
X144371Y17371D01*
X154295Y10741D01*
X161000Y9407D01*
Y34000D01*
D02*
G37*
G36*
X705000D02*
X680407D01*
X681741Y27295D01*
X688371Y17371D01*
X698295Y10741D01*
X705000Y9407D01*
Y34000D01*
D02*
G37*
G36*
X569000Y68593D02*
X562295Y67259D01*
X552371Y60629D01*
X545741Y50705D01*
X544407Y44000D01*
X569000D01*
Y68593D01*
D02*
G37*
G36*
X579000D02*
Y44000D01*
X603593D01*
X602259Y50705D01*
X595629Y60629D01*
X585705Y67259D01*
X579000Y68593D01*
D02*
G37*
G36*
X705000D02*
X698295Y67259D01*
X688371Y60629D01*
X681741Y50705D01*
X680407Y44000D01*
X705000D01*
Y68593D01*
D02*
G37*
G36*
X739593Y34000D02*
X715000D01*
Y9407D01*
X721705Y10741D01*
X731629Y17371D01*
X738259Y27295D01*
X739593Y34000D01*
D02*
G37*
G36*
X161000Y68593D02*
X154295Y67259D01*
X144371Y60629D01*
X137741Y50705D01*
X136407Y44000D01*
X161000D01*
Y68593D01*
D02*
G37*
G36*
X171000D02*
Y44000D01*
X195593D01*
X194259Y50705D01*
X187629Y60629D01*
X177705Y67259D01*
X171000Y68593D01*
D02*
G37*
G36*
X307000Y312593D02*
Y288000D01*
X331593D01*
X330259Y294705D01*
X323629Y304629D01*
X313705Y311259D01*
X307000Y312593D01*
D02*
G37*
G36*
X433000D02*
X426295Y311259D01*
X416371Y304629D01*
X409741Y294705D01*
X408407Y288000D01*
X433000D01*
Y312593D01*
D02*
G37*
G36*
X443000D02*
Y288000D01*
X467593D01*
X466259Y294705D01*
X459629Y304629D01*
X449705Y311259D01*
X443000Y312593D01*
D02*
G37*
G36*
X705000Y278000D02*
X680407D01*
X681741Y271295D01*
X688371Y261371D01*
X698295Y254741D01*
X705000Y253407D01*
Y278000D01*
D02*
G37*
G36*
X739593D02*
X715000D01*
Y253407D01*
X721705Y254741D01*
X731629Y261371D01*
X738259Y271295D01*
X739593Y278000D01*
D02*
G37*
G36*
X297000Y312593D02*
X290295Y311259D01*
X280371Y304629D01*
X273741Y294705D01*
X272407Y288000D01*
X297000D01*
Y312593D01*
D02*
G37*
G36*
X569000D02*
X562295Y311259D01*
X552371Y304629D01*
X545741Y294705D01*
X544407Y288000D01*
X569000D01*
Y312593D01*
D02*
G37*
G36*
X229000Y400000D02*
X204407D01*
X205741Y393295D01*
X212371Y383371D01*
X222295Y376741D01*
X229000Y375407D01*
Y400000D01*
D02*
G37*
G36*
X263593D02*
X239000D01*
Y375407D01*
X245705Y376741D01*
X255629Y383371D01*
X262259Y393295D01*
X263593Y400000D01*
D02*
G37*
G36*
X365000D02*
X340407D01*
X341741Y393295D01*
X348371Y383371D01*
X358295Y376741D01*
X365000Y375407D01*
Y400000D01*
D02*
G37*
G36*
X579000Y312593D02*
Y288000D01*
X603593D01*
X602259Y294705D01*
X595629Y304629D01*
X585705Y311259D01*
X579000Y312593D01*
D02*
G37*
G36*
X705000D02*
X698295Y311259D01*
X688371Y304629D01*
X681741Y294705D01*
X680407Y288000D01*
X705000D01*
Y312593D01*
D02*
G37*
G36*
X715000D02*
Y288000D01*
X739593D01*
X738259Y294705D01*
X731629Y304629D01*
X721705Y311259D01*
X715000Y312593D01*
D02*
G37*
G36*
X501000Y190593D02*
X494295Y189259D01*
X484371Y182629D01*
X477741Y172705D01*
X476407Y166000D01*
X501000D01*
Y190593D01*
D02*
G37*
G36*
X511000D02*
Y166000D01*
X535593D01*
X534259Y172705D01*
X527629Y182629D01*
X517705Y189259D01*
X511000Y190593D01*
D02*
G37*
G36*
X637000D02*
X630295Y189259D01*
X620371Y182629D01*
X613741Y172705D01*
X612407Y166000D01*
X637000D01*
Y190593D01*
D02*
G37*
G36*
X103000D02*
Y166000D01*
X127593D01*
X126259Y172705D01*
X119629Y182629D01*
X109705Y189259D01*
X103000Y190593D01*
D02*
G37*
G36*
X229000D02*
X222295Y189259D01*
X212371Y182629D01*
X205741Y172705D01*
X204407Y166000D01*
X229000D01*
Y190593D01*
D02*
G37*
G36*
X239000D02*
Y166000D01*
X263593D01*
X262259Y172705D01*
X255629Y182629D01*
X245705Y189259D01*
X239000Y190593D01*
D02*
G37*
G36*
X647000D02*
Y166000D01*
X671593D01*
X670259Y172705D01*
X663629Y182629D01*
X653705Y189259D01*
X647000Y190593D01*
D02*
G37*
G36*
X467593Y278000D02*
X443000D01*
Y253407D01*
X449705Y254741D01*
X459629Y261371D01*
X466259Y271295D01*
X467593Y278000D01*
D02*
G37*
G36*
X569000D02*
X544407D01*
X545741Y271295D01*
X552371Y261371D01*
X562295Y254741D01*
X569000Y253407D01*
Y278000D01*
D02*
G37*
G36*
X603593D02*
X579000D01*
Y253407D01*
X585705Y254741D01*
X595629Y261371D01*
X602259Y271295D01*
X603593Y278000D01*
D02*
G37*
G36*
X297000D02*
X272407D01*
X273741Y271295D01*
X280371Y261371D01*
X290295Y254741D01*
X297000Y253407D01*
Y278000D01*
D02*
G37*
G36*
X331593D02*
X307000D01*
Y253407D01*
X313705Y254741D01*
X323629Y261371D01*
X330259Y271295D01*
X331593Y278000D01*
D02*
G37*
G36*
X433000D02*
X408407D01*
X409741Y271295D01*
X416371Y261371D01*
X426295Y254741D01*
X433000Y253407D01*
Y278000D01*
D02*
G37*
G36*
X115000Y1004593D02*
X108295Y1003259D01*
X98371Y996629D01*
X91741Y986705D01*
X90407Y980000D01*
X115000D01*
Y1004593D01*
D02*
G37*
G36*
X1500000Y999593D02*
Y975000D01*
X1524593D01*
X1523259Y981705D01*
X1516629Y991629D01*
X1506705Y998259D01*
X1500000Y999593D01*
D02*
G37*
G36*
X125000Y1004593D02*
Y980000D01*
X149593D01*
X148259Y986705D01*
X141629Y996629D01*
X131705Y1003259D01*
X125000Y1004593D01*
D02*
G37*
G36*
X1141000Y1074302D02*
X1125577Y1071234D01*
X1112502Y1062498D01*
X1103766Y1049423D01*
X1100698Y1034000D01*
X1103766Y1018577D01*
X1112502Y1005502D01*
X1125577Y996766D01*
X1141000Y993698D01*
X1156423Y996766D01*
X1169498Y1005502D01*
X1178234Y1018577D01*
X1181302Y1034000D01*
X1178234Y1049423D01*
X1169498Y1062498D01*
X1156423Y1071234D01*
X1141000Y1074302D01*
D02*
G37*
G36*
X1241000D02*
X1225577Y1071234D01*
X1212502Y1062498D01*
X1203766Y1049423D01*
X1200698Y1034000D01*
X1203766Y1018577D01*
X1212502Y1005502D01*
X1225577Y996766D01*
X1241000Y993698D01*
X1256423Y996766D01*
X1269498Y1005502D01*
X1278234Y1018577D01*
X1281302Y1034000D01*
X1278234Y1049423D01*
X1269498Y1062498D01*
X1256423Y1071234D01*
X1241000Y1074302D01*
D02*
G37*
G36*
X1102000Y980593D02*
Y956000D01*
X1126593D01*
X1125259Y962705D01*
X1118629Y972629D01*
X1108705Y979259D01*
X1102000Y980593D01*
D02*
G37*
G36*
X1092000D02*
X1085295Y979259D01*
X1075371Y972629D01*
X1068741Y962705D01*
X1067407Y956000D01*
X1092000D01*
Y980593D01*
D02*
G37*
G36*
X1303000Y984593D02*
X1296295Y983259D01*
X1286371Y976629D01*
X1279741Y966705D01*
X1278407Y960000D01*
X1303000D01*
Y984593D01*
D02*
G37*
G36*
X275000Y999593D02*
X268295Y998259D01*
X258371Y991629D01*
X251741Y981705D01*
X250407Y975000D01*
X275000D01*
Y999593D01*
D02*
G37*
G36*
X285000D02*
Y975000D01*
X309593D01*
X308259Y981705D01*
X301629Y991629D01*
X291705Y998259D01*
X285000Y999593D01*
D02*
G37*
G36*
X1490000D02*
X1483295Y998259D01*
X1473371Y991629D01*
X1466741Y981705D01*
X1465407Y975000D01*
X1490000D01*
Y999593D01*
D02*
G37*
G36*
X1313000Y984593D02*
Y960000D01*
X1337593D01*
X1336259Y966705D01*
X1329629Y976629D01*
X1319705Y983259D01*
X1313000Y984593D01*
D02*
G37*
G36*
X760353Y997696D02*
X735760D01*
X737094Y990990D01*
X743725Y981067D01*
X753648Y974437D01*
X760353Y973103D01*
Y997696D01*
D02*
G37*
G36*
X794946D02*
X770353D01*
Y973103D01*
X777059Y974437D01*
X786982Y981067D01*
X793613Y990990D01*
X794946Y997696D01*
D02*
G37*
G36*
X1390000Y1065000D02*
X1365407D01*
X1366741Y1058295D01*
X1373371Y1048371D01*
X1383295Y1041741D01*
X1390000Y1040407D01*
Y1065000D01*
D02*
G37*
G36*
X1424593D02*
X1400000D01*
Y1040407D01*
X1406705Y1041741D01*
X1416629Y1048371D01*
X1423259Y1058295D01*
X1424593Y1065000D01*
D02*
G37*
G36*
X843000Y1080593D02*
X836295Y1079259D01*
X826371Y1072629D01*
X819741Y1062705D01*
X818407Y1056000D01*
X843000D01*
Y1080593D01*
D02*
G37*
G36*
X877593Y1046000D02*
X853000D01*
Y1021407D01*
X859705Y1022741D01*
X869629Y1029371D01*
X876259Y1039295D01*
X877593Y1046000D01*
D02*
G37*
G36*
X853000Y1080593D02*
Y1056000D01*
X877593D01*
X876259Y1062705D01*
X869629Y1072629D01*
X859705Y1079259D01*
X853000Y1080593D01*
D02*
G37*
G36*
X1019000Y1067588D02*
X1007295Y1065259D01*
X997371Y1058629D01*
X990741Y1048705D01*
X988412Y1037000D01*
X990741Y1025295D01*
X997371Y1015371D01*
X1007295Y1008741D01*
X1019000Y1006412D01*
X1030705Y1008741D01*
X1040629Y1015371D01*
X1047259Y1025295D01*
X1049588Y1037000D01*
X1047259Y1048705D01*
X1040629Y1058629D01*
X1030705Y1065259D01*
X1019000Y1067588D01*
D02*
G37*
G36*
X843000Y1046000D02*
X818407D01*
X819741Y1039295D01*
X826371Y1029371D01*
X836295Y1022741D01*
X843000Y1021407D01*
Y1046000D01*
D02*
G37*
G36*
X760353Y1032289D02*
X753648Y1030955D01*
X743725Y1024325D01*
X737094Y1014401D01*
X735760Y1007696D01*
X760353D01*
Y1032289D01*
D02*
G37*
G36*
X770353D02*
Y1007696D01*
X794946D01*
X793613Y1014401D01*
X786982Y1024325D01*
X777059Y1030955D01*
X770353Y1032289D01*
D02*
G37*
G36*
X528000Y848593D02*
X521295Y847259D01*
X511371Y840629D01*
X504741Y830705D01*
X503407Y824000D01*
X528000D01*
Y848593D01*
D02*
G37*
G36*
X538000D02*
Y824000D01*
X562593D01*
X561259Y830705D01*
X554629Y840629D01*
X544705Y847259D01*
X538000Y848593D01*
D02*
G37*
G36*
X319000Y849000D02*
X294407D01*
X295741Y842295D01*
X302371Y832371D01*
X312295Y825741D01*
X319000Y824407D01*
Y849000D01*
D02*
G37*
G36*
X353593D02*
X329000D01*
Y824407D01*
X335705Y825741D01*
X345629Y832371D01*
X352259Y842295D01*
X353593Y849000D01*
D02*
G37*
G36*
X990000Y865000D02*
X965407D01*
X966741Y858295D01*
X973371Y848371D01*
X983295Y841741D01*
X990000Y840407D01*
Y865000D01*
D02*
G37*
G36*
X1024593D02*
X1000000D01*
Y840407D01*
X1006705Y841741D01*
X1016629Y848371D01*
X1023259Y858295D01*
X1024593Y865000D01*
D02*
G37*
G36*
X528000Y814000D02*
X503407D01*
X504741Y807295D01*
X511371Y797371D01*
X521295Y790741D01*
X528000Y789407D01*
Y814000D01*
D02*
G37*
G36*
X562593D02*
X538000D01*
Y789407D01*
X544705Y790741D01*
X554629Y797371D01*
X561259Y807295D01*
X562593Y814000D01*
D02*
G37*
G36*
X1127185Y2575186D02*
X1113529Y2572469D01*
X1101951Y2564734D01*
X1094216Y2553156D01*
X1091499Y2539500D01*
X1094216Y2525844D01*
X1096597Y2522279D01*
Y2399855D01*
X1000548Y2303806D01*
X996344Y2302969D01*
X984766Y2295234D01*
X977031Y2283656D01*
X976194Y2279452D01*
X823371Y2126629D01*
X816741Y2116705D01*
X814412Y2105000D01*
Y1606670D01*
X728330Y1520588D01*
X373000D01*
X373000Y1520588D01*
X361295Y1518259D01*
X351371Y1511629D01*
X318214Y1478471D01*
X311583Y1468548D01*
X309255Y1456842D01*
Y1453220D01*
X302163Y1442607D01*
X299059Y1427000D01*
X302163Y1411393D01*
X311004Y1398162D01*
X324235Y1389321D01*
X339842Y1386216D01*
X355450Y1389321D01*
X368681Y1398162D01*
X377522Y1411393D01*
X380626Y1427000D01*
X377522Y1442607D01*
X374054Y1447797D01*
X385670Y1459412D01*
X741000D01*
X752705Y1461741D01*
X762629Y1468371D01*
X866629Y1572371D01*
X873259Y1582295D01*
X875588Y1594000D01*
Y2092330D01*
X970061Y2186804D01*
X974564Y2184236D01*
X976741Y2173295D01*
X983371Y2163371D01*
X1043412Y2103330D01*
Y2026574D01*
X1045741Y2014868D01*
X1052371Y2004945D01*
X1069945Y1987371D01*
X1079868Y1980741D01*
X1091574Y1978412D01*
X1168330D01*
X1233742Y1913000D01*
X601798Y1281056D01*
X595168Y1271132D01*
X592839Y1259427D01*
Y1217060D01*
X591364Y1216449D01*
X588194Y1208795D01*
Y1108336D01*
X587821Y1108181D01*
X584650Y1100527D01*
Y1041473D01*
X587821Y1033819D01*
X588194Y1033664D01*
Y933205D01*
X591364Y925551D01*
X593946Y924481D01*
X593434Y919282D01*
X588295Y918259D01*
X578371Y911629D01*
X571741Y901705D01*
X570407Y895000D01*
X629593D01*
X628259Y901705D01*
X621629Y911629D01*
X613020Y917381D01*
X614537Y922381D01*
X647837D01*
X655490Y925551D01*
X657013Y929227D01*
X662013Y928232D01*
Y913520D01*
X665183Y905866D01*
X672837Y902696D01*
X716144D01*
X723797Y905866D01*
X726967Y913520D01*
Y1228480D01*
X723797Y1236134D01*
X716144Y1239304D01*
X672837D01*
X665183Y1236134D01*
X662013Y1228480D01*
Y1213768D01*
X657013Y1212773D01*
X655490Y1216449D01*
X654015Y1217060D01*
Y1246757D01*
X1298629Y1891371D01*
X1298629Y1891371D01*
X1305259Y1901295D01*
X1307588Y1913000D01*
X1305259Y1924705D01*
X1298629Y1934629D01*
X1200342Y2032916D01*
X1190419Y2039546D01*
X1178713Y2041874D01*
X1178689Y2041870D01*
X1174824Y2045042D01*
Y2099000D01*
X1171654Y2106654D01*
X1164000Y2109824D01*
X1110042D01*
X1106870Y2113689D01*
X1106875Y2113713D01*
X1104546Y2125419D01*
X1097916Y2135342D01*
X1097915Y2135342D01*
X1050283Y2182975D01*
X1050686Y2185000D01*
X1047969Y2198656D01*
X1040234Y2210234D01*
X1028656Y2217969D01*
X1015000Y2220686D01*
X1010025Y2219696D01*
X1007562Y2224304D01*
X1019452Y2236194D01*
X1023656Y2237031D01*
X1035234Y2244766D01*
X1042969Y2256344D01*
X1043806Y2260548D01*
X1148814Y2365556D01*
X1155444Y2375480D01*
X1157773Y2387185D01*
Y2522279D01*
X1160154Y2525844D01*
X1162871Y2539500D01*
X1160154Y2553156D01*
X1152419Y2564734D01*
X1140841Y2572469D01*
X1127185Y2575186D01*
D02*
G37*
G36*
X1092000Y946000D02*
X1067407D01*
X1068741Y939295D01*
X1075371Y929371D01*
X1085295Y922741D01*
X1092000Y921407D01*
Y946000D01*
D02*
G37*
G36*
X1126593D02*
X1102000D01*
Y921407D01*
X1108705Y922741D01*
X1118629Y929371D01*
X1125259Y939295D01*
X1126593Y946000D01*
D02*
G37*
G36*
X377167Y1239304D02*
X333860D01*
X326207Y1236134D01*
X323036Y1228480D01*
Y913520D01*
X326207Y905866D01*
X333860Y902696D01*
X377167D01*
X384821Y905866D01*
X387991Y913520D01*
Y928232D01*
X392991Y929227D01*
X394514Y925551D01*
X402167Y922381D01*
X410463D01*
X411980Y917381D01*
X403371Y911629D01*
X396741Y901705D01*
X395407Y895000D01*
X454593D01*
X453259Y901705D01*
X446629Y911629D01*
X438020Y917381D01*
X439537Y922381D01*
X450986D01*
X458640Y925551D01*
X461810Y933205D01*
Y1054940D01*
X462236Y1055577D01*
X464309Y1066000D01*
X425002D01*
Y1071000D01*
X421577D01*
Y1219619D01*
X402167D01*
X394514Y1216449D01*
X392991Y1212773D01*
X387991Y1213768D01*
Y1228480D01*
X384821Y1236134D01*
X377167Y1239304D01*
D02*
G37*
G36*
X190000Y924593D02*
X183295Y923259D01*
X173371Y916629D01*
X166741Y906705D01*
X165407Y900000D01*
X190000D01*
Y924593D01*
D02*
G37*
G36*
X200000D02*
Y900000D01*
X224593D01*
X223259Y906705D01*
X216629Y916629D01*
X206705Y923259D01*
X200000Y924593D01*
D02*
G37*
G36*
X549411Y1219619D02*
X500592D01*
X492939Y1216449D01*
X489769Y1208795D01*
Y1089417D01*
X487768Y1086423D01*
X484700Y1071000D01*
X487768Y1055577D01*
X489769Y1052583D01*
Y933205D01*
X492939Y925551D01*
X500592Y922381D01*
X549411D01*
X557065Y925551D01*
X560235Y933205D01*
Y1052583D01*
X562236Y1055577D01*
X565304Y1071000D01*
X562236Y1086423D01*
X560235Y1089417D01*
Y1208795D01*
X557065Y1216449D01*
X549411Y1219619D01*
D02*
G37*
G36*
X1524593Y965000D02*
X1500000D01*
Y940407D01*
X1506705Y941741D01*
X1516629Y948371D01*
X1523259Y958295D01*
X1524593Y965000D01*
D02*
G37*
G36*
X115000Y970000D02*
X90407D01*
X91741Y963295D01*
X98371Y953371D01*
X108295Y946741D01*
X115000Y945407D01*
Y970000D01*
D02*
G37*
G36*
X149593D02*
X125000D01*
Y945407D01*
X131705Y946741D01*
X141629Y953371D01*
X148259Y963295D01*
X149593Y970000D01*
D02*
G37*
G36*
X275000Y965000D02*
X250407D01*
X251741Y958295D01*
X258371Y948371D01*
X268295Y941741D01*
X275000Y940407D01*
Y965000D01*
D02*
G37*
G36*
X309593D02*
X285000D01*
Y940407D01*
X291705Y941741D01*
X301629Y948371D01*
X308259Y958295D01*
X309593Y965000D01*
D02*
G37*
G36*
X1490000D02*
X1465407D01*
X1466741Y958295D01*
X1473371Y948371D01*
X1483295Y941741D01*
X1490000Y940407D01*
Y965000D01*
D02*
G37*
G36*
X319000Y883593D02*
X312295Y882259D01*
X302371Y875629D01*
X295741Y865705D01*
X294407Y859000D01*
X319000D01*
Y883593D01*
D02*
G37*
G36*
X329000D02*
Y859000D01*
X353593D01*
X352259Y865705D01*
X345629Y875629D01*
X335705Y882259D01*
X329000Y883593D01*
D02*
G37*
G36*
X420000Y885000D02*
X395407D01*
X396741Y878295D01*
X403371Y868371D01*
X413295Y861741D01*
X420000Y860407D01*
Y885000D01*
D02*
G37*
G36*
X454593D02*
X430000D01*
Y860407D01*
X436705Y861741D01*
X446629Y868371D01*
X453259Y878295D01*
X454593Y885000D01*
D02*
G37*
G36*
X224593Y890000D02*
X200000D01*
Y865407D01*
X206705Y866741D01*
X216629Y873371D01*
X223259Y883295D01*
X224593Y890000D01*
D02*
G37*
G36*
X990000Y899593D02*
X983295Y898259D01*
X973371Y891629D01*
X966741Y881705D01*
X965407Y875000D01*
X990000D01*
Y899593D01*
D02*
G37*
G36*
X1000000D02*
Y875000D01*
X1024593D01*
X1023259Y881705D01*
X1016629Y891629D01*
X1006705Y898259D01*
X1000000Y899593D01*
D02*
G37*
G36*
X595000Y885000D02*
X570407D01*
X571741Y878295D01*
X578371Y868371D01*
X588295Y861741D01*
X595000Y860407D01*
Y885000D01*
D02*
G37*
G36*
X629593D02*
X605000D01*
Y860407D01*
X611705Y861741D01*
X621629Y868371D01*
X628259Y878295D01*
X629593Y885000D01*
D02*
G37*
G36*
X190000Y890000D02*
X165407D01*
X166741Y883295D01*
X173371Y873371D01*
X183295Y866741D01*
X190000Y865407D01*
Y890000D01*
D02*
G37*
G36*
X1652000Y2586593D02*
Y2562000D01*
X1676593D01*
X1675259Y2568705D01*
X1668629Y2578629D01*
X1658705Y2585259D01*
X1652000Y2586593D01*
D02*
G37*
G36*
X1760000Y2589593D02*
X1753295Y2588259D01*
X1743371Y2581629D01*
X1736741Y2571705D01*
X1735407Y2565000D01*
X1760000D01*
Y2589593D01*
D02*
G37*
G36*
X1770000D02*
Y2565000D01*
X1794593D01*
X1793259Y2571705D01*
X1786629Y2581629D01*
X1776705Y2588259D01*
X1770000Y2589593D01*
D02*
G37*
G36*
X3645000Y2589789D02*
X3634393Y2587679D01*
X3621162Y2578838D01*
X3612321Y2565607D01*
X3610211Y2555000D01*
X3645000D01*
Y2589789D01*
D02*
G37*
G36*
X3655000D02*
Y2555000D01*
X3689789D01*
X3687679Y2565607D01*
X3678838Y2578838D01*
X3665607Y2587679D01*
X3655000Y2589789D01*
D02*
G37*
G36*
X1642000Y2586593D02*
X1635295Y2585259D01*
X1625371Y2578629D01*
X1618741Y2568705D01*
X1617407Y2562000D01*
X1642000D01*
Y2586593D01*
D02*
G37*
G36*
X2655000Y2589593D02*
X2648295Y2588259D01*
X2638371Y2581629D01*
X2631741Y2571705D01*
X2630407Y2565000D01*
X2655000D01*
Y2589593D01*
D02*
G37*
G36*
X450986Y2738619D02*
X431577D01*
Y2595000D01*
X464309D01*
X462236Y2605423D01*
X461810Y2606060D01*
Y2727795D01*
X458640Y2735449D01*
X450986Y2738619D01*
D02*
G37*
G36*
X3800000Y2634593D02*
X3793295Y2633259D01*
X3783371Y2626629D01*
X3776741Y2616705D01*
X3775407Y2610000D01*
X3800000D01*
Y2634593D01*
D02*
G37*
G36*
X3810000D02*
Y2610000D01*
X3834593D01*
X3833259Y2616705D01*
X3826629Y2626629D01*
X3816705Y2633259D01*
X3810000Y2634593D01*
D02*
G37*
G36*
X2665000Y2589593D02*
Y2565000D01*
X2689593D01*
X2688259Y2571705D01*
X2681629Y2581629D01*
X2671705Y2588259D01*
X2665000Y2589593D01*
D02*
G37*
G36*
X3800000Y2600000D02*
X3775407D01*
X3776741Y2593295D01*
X3783371Y2583371D01*
X3793295Y2576741D01*
X3800000Y2575407D01*
Y2600000D01*
D02*
G37*
G36*
X3834593D02*
X3810000D01*
Y2575407D01*
X3816705Y2576741D01*
X3826629Y2583371D01*
X3833259Y2593295D01*
X3834593Y2600000D01*
D02*
G37*
G36*
X1642000Y2552000D02*
X1617407D01*
X1618741Y2545295D01*
X1625371Y2535371D01*
X1635295Y2528741D01*
X1642000Y2527407D01*
Y2552000D01*
D02*
G37*
G36*
X1676593D02*
X1652000D01*
Y2527407D01*
X1658705Y2528741D01*
X1668629Y2535371D01*
X1675259Y2545295D01*
X1676593Y2552000D01*
D02*
G37*
G36*
X1760000Y2555000D02*
X1735407D01*
X1736741Y2548295D01*
X1743371Y2538371D01*
X1753295Y2531741D01*
X1760000Y2530407D01*
Y2555000D01*
D02*
G37*
G36*
X3645000Y2545000D02*
X3610211D01*
X3612321Y2534393D01*
X3621162Y2521162D01*
X3634393Y2512321D01*
X3645000Y2510211D01*
Y2545000D01*
D02*
G37*
G36*
X3689789D02*
X3655000D01*
Y2510211D01*
X3665607Y2512321D01*
X3678838Y2521162D01*
X3687679Y2534393D01*
X3689789Y2545000D01*
D02*
G37*
G36*
X-5407Y2537000D02*
X-30000D01*
Y2512407D01*
X-23295Y2513741D01*
X-13371Y2520371D01*
X-6741Y2530295D01*
X-5407Y2537000D01*
D02*
G37*
G36*
X1794593Y2555000D02*
X1770000D01*
Y2530407D01*
X1776705Y2531741D01*
X1786629Y2538371D01*
X1793259Y2548295D01*
X1794593Y2555000D01*
D02*
G37*
G36*
X1895000Y2590824D02*
X1870000D01*
Y2555000D01*
X1905824D01*
Y2580000D01*
X1902654Y2587654D01*
X1895000Y2590824D01*
D02*
G37*
G36*
X2560000Y2589789D02*
X2549393Y2587679D01*
X2536162Y2578838D01*
X2527321Y2565607D01*
X2525211Y2555000D01*
X2560000D01*
Y2589789D01*
D02*
G37*
G36*
X2570000D02*
Y2555000D01*
X2604789D01*
X2602679Y2565607D01*
X2593838Y2578838D01*
X2580607Y2587679D01*
X2570000Y2589789D01*
D02*
G37*
G36*
X2655000Y2555000D02*
X2630407D01*
X2631741Y2548295D01*
X2638371Y2538371D01*
X2648295Y2531741D01*
X2655000Y2530407D01*
Y2555000D01*
D02*
G37*
G36*
X2689593D02*
X2665000D01*
Y2530407D01*
X2671705Y2531741D01*
X2681629Y2538371D01*
X2688259Y2548295D01*
X2689593Y2555000D01*
D02*
G37*
G36*
X1860000Y2590824D02*
X1835000D01*
X1827346Y2587654D01*
X1824176Y2580000D01*
Y2555000D01*
X1860000D01*
Y2590824D01*
D02*
G37*
G36*
X3800000Y2744593D02*
X3793295Y2743259D01*
X3783371Y2736629D01*
X3776741Y2726705D01*
X3775407Y2720000D01*
X3800000D01*
Y2744593D01*
D02*
G37*
G36*
X3810000D02*
Y2720000D01*
X3834593D01*
X3833259Y2726705D01*
X3826629Y2736629D01*
X3816705Y2743259D01*
X3810000Y2744593D01*
D02*
G37*
G36*
X3615000Y2749593D02*
X3608295Y2748259D01*
X3598371Y2741629D01*
X3591741Y2731705D01*
X3590407Y2725000D01*
X3615000D01*
Y2749593D01*
D02*
G37*
G36*
X3834593Y2710000D02*
X3810000D01*
Y2685407D01*
X3816705Y2686741D01*
X3826629Y2693371D01*
X3833259Y2703295D01*
X3834593Y2710000D01*
D02*
G37*
G36*
X3615000Y2715000D02*
X3590407D01*
X3591741Y2708295D01*
X3598371Y2698371D01*
X3608295Y2691741D01*
X3615000Y2690407D01*
Y2715000D01*
D02*
G37*
G36*
X3649593D02*
X3625000D01*
Y2690407D01*
X3631705Y2691741D01*
X3641629Y2698371D01*
X3648259Y2708295D01*
X3649593Y2715000D01*
D02*
G37*
G36*
X3625000Y2749593D02*
Y2725000D01*
X3649593D01*
X3648259Y2731705D01*
X3641629Y2741629D01*
X3631705Y2748259D01*
X3625000Y2749593D01*
D02*
G37*
G36*
X3545593Y2764000D02*
X3521000D01*
Y2739407D01*
X3527705Y2740741D01*
X3537629Y2747371D01*
X3544259Y2757295D01*
X3545593Y2764000D01*
D02*
G37*
G36*
X548095Y2785000D02*
X513787D01*
Y2750693D01*
X524210Y2752766D01*
X537285Y2761502D01*
X546021Y2774577D01*
X548095Y2785000D01*
D02*
G37*
G36*
X3712000Y2786000D02*
X3687407D01*
X3688741Y2779295D01*
X3695371Y2769371D01*
X3705295Y2762741D01*
X3712000Y2761407D01*
Y2786000D01*
D02*
G37*
G36*
X1258000Y2762000D02*
X1233407D01*
X1234741Y2755295D01*
X1241371Y2745371D01*
X1251295Y2738741D01*
X1258000Y2737407D01*
Y2762000D01*
D02*
G37*
G36*
X1292593D02*
X1268000D01*
Y2737407D01*
X1274705Y2738741D01*
X1284629Y2745371D01*
X1291259Y2755295D01*
X1292593Y2762000D01*
D02*
G37*
G36*
X3511000Y2764000D02*
X3486407D01*
X3487741Y2757295D01*
X3494371Y2747371D01*
X3504295Y2740741D01*
X3511000Y2739407D01*
Y2764000D01*
D02*
G37*
G36*
X3744593Y2655000D02*
X3720000D01*
Y2630407D01*
X3726705Y2631741D01*
X3736629Y2638371D01*
X3743259Y2648295D01*
X3744593Y2655000D01*
D02*
G37*
G36*
X1385000Y2672648D02*
X1378295Y2671314D01*
X1368371Y2664684D01*
X1361741Y2654760D01*
X1360407Y2648055D01*
X1385000D01*
Y2672648D01*
D02*
G37*
G36*
X1395000D02*
Y2648055D01*
X1419593D01*
X1418259Y2654760D01*
X1411629Y2664684D01*
X1401705Y2671314D01*
X1395000Y2672648D01*
D02*
G37*
G36*
X1385000Y2638055D02*
X1360407D01*
X1361741Y2631350D01*
X1368371Y2621426D01*
X1378295Y2614796D01*
X1385000Y2613462D01*
Y2638055D01*
D02*
G37*
G36*
X1419593D02*
X1395000D01*
Y2613462D01*
X1401705Y2614796D01*
X1411629Y2621426D01*
X1418259Y2631350D01*
X1419593Y2638055D01*
D02*
G37*
G36*
X3710000Y2655000D02*
X3685407D01*
X3686741Y2648295D01*
X3693371Y2638371D01*
X3703295Y2631741D01*
X3710000Y2630407D01*
Y2655000D01*
D02*
G37*
G36*
X814000Y2673000D02*
X789407D01*
X790741Y2666295D01*
X797371Y2656371D01*
X807295Y2649741D01*
X814000Y2648407D01*
Y2673000D01*
D02*
G37*
G36*
Y2707593D02*
X807295Y2706259D01*
X797371Y2699629D01*
X790741Y2689705D01*
X789407Y2683000D01*
X814000D01*
Y2707593D01*
D02*
G37*
G36*
X824000D02*
Y2683000D01*
X848593D01*
X847259Y2689705D01*
X840629Y2699629D01*
X830705Y2706259D01*
X824000Y2707593D01*
D02*
G37*
G36*
X3800000Y2710000D02*
X3775407D01*
X3776741Y2703295D01*
X3783371Y2693371D01*
X3793295Y2686741D01*
X3800000Y2685407D01*
Y2710000D01*
D02*
G37*
G36*
X848593Y2673000D02*
X824000D01*
Y2648407D01*
X830705Y2649741D01*
X840629Y2656371D01*
X847259Y2666295D01*
X848593Y2673000D01*
D02*
G37*
G36*
X3710000Y2689593D02*
X3703295Y2688259D01*
X3693371Y2681629D01*
X3686741Y2671705D01*
X3685407Y2665000D01*
X3710000D01*
Y2689593D01*
D02*
G37*
G36*
X3720000D02*
Y2665000D01*
X3744593D01*
X3743259Y2671705D01*
X3736629Y2681629D01*
X3726705Y2688259D01*
X3720000Y2689593D01*
D02*
G37*
G36*
X3645000Y2489789D02*
X3634393Y2487679D01*
X3621162Y2478838D01*
X3612321Y2465607D01*
X3610211Y2455000D01*
X3645000D01*
Y2489789D01*
D02*
G37*
G36*
X3655000D02*
Y2455000D01*
X3689789D01*
X3687679Y2465607D01*
X3678838Y2478838D01*
X3665607Y2487679D01*
X3655000Y2489789D01*
D02*
G37*
G36*
X1566000Y2489000D02*
X1541407D01*
X1542741Y2482295D01*
X1549371Y2472371D01*
X1559295Y2465741D01*
X1566000Y2464407D01*
Y2489000D01*
D02*
G37*
G36*
X2570000Y2489789D02*
Y2455000D01*
X2604789D01*
X2602679Y2465607D01*
X2593838Y2478838D01*
X2580607Y2487679D01*
X2570000Y2489789D01*
D02*
G37*
G36*
X2655000Y2479593D02*
X2648295Y2478259D01*
X2638371Y2471629D01*
X2631741Y2461705D01*
X2630407Y2455000D01*
X2655000D01*
Y2479593D01*
D02*
G37*
G36*
X2665000D02*
Y2455000D01*
X2689593D01*
X2688259Y2461705D01*
X2681629Y2471629D01*
X2671705Y2478259D01*
X2665000Y2479593D01*
D02*
G37*
G36*
X1600593Y2489000D02*
X1576000D01*
Y2464407D01*
X1582705Y2465741D01*
X1592629Y2472371D01*
X1599259Y2482295D01*
X1600593Y2489000D01*
D02*
G37*
G36*
X3834593Y2490000D02*
X3810000D01*
Y2465407D01*
X3816705Y2466741D01*
X3826629Y2473371D01*
X3833259Y2483295D01*
X3834593Y2490000D01*
D02*
G37*
G36*
X958000Y2493000D02*
X933407D01*
X934741Y2486295D01*
X941371Y2476371D01*
X951295Y2469741D01*
X958000Y2468407D01*
Y2493000D01*
D02*
G37*
G36*
X992593D02*
X968000D01*
Y2468407D01*
X974705Y2469741D01*
X984629Y2476371D01*
X991259Y2486295D01*
X992593Y2493000D01*
D02*
G37*
G36*
X1670000Y2490000D02*
X1645407D01*
X1646741Y2483295D01*
X1653371Y2473371D01*
X1663295Y2466741D01*
X1670000Y2465407D01*
Y2490000D01*
D02*
G37*
G36*
X1704593D02*
X1680000D01*
Y2465407D01*
X1686705Y2466741D01*
X1696629Y2473371D01*
X1703259Y2483295D01*
X1704593Y2490000D01*
D02*
G37*
G36*
X3800000D02*
X3775407D01*
X3776741Y2483295D01*
X3783371Y2473371D01*
X3793295Y2466741D01*
X3800000Y2465407D01*
Y2490000D01*
D02*
G37*
G36*
X464309Y2585000D02*
X431577D01*
Y2441381D01*
X450986D01*
X458640Y2444551D01*
X461810Y2452205D01*
Y2573940D01*
X462236Y2574577D01*
X464309Y2585000D01*
D02*
G37*
G36*
X549411Y2738619D02*
X500592D01*
X492939Y2735449D01*
X489769Y2727795D01*
Y2608417D01*
X487768Y2605423D01*
X484700Y2590000D01*
X487768Y2574577D01*
X489769Y2571583D01*
Y2452205D01*
X492939Y2444551D01*
X500592Y2441381D01*
X549411D01*
X557065Y2444551D01*
X560235Y2452205D01*
Y2571583D01*
X562236Y2574577D01*
X565304Y2590000D01*
X562236Y2605423D01*
X560235Y2608417D01*
Y2727795D01*
X557065Y2735449D01*
X549411Y2738619D01*
D02*
G37*
G36*
X1760000Y2469593D02*
X1753295Y2468259D01*
X1743371Y2461629D01*
X1736741Y2451705D01*
X1735407Y2445000D01*
X1760000D01*
Y2469593D01*
D02*
G37*
G36*
X1592000Y2448593D02*
X1585295Y2447259D01*
X1575371Y2440629D01*
X1568741Y2430705D01*
X1567407Y2424000D01*
X1592000D01*
Y2448593D01*
D02*
G37*
G36*
X1602000D02*
Y2424000D01*
X1626593D01*
X1625259Y2430705D01*
X1618629Y2440629D01*
X1608705Y2447259D01*
X1602000Y2448593D01*
D02*
G37*
G36*
X377167Y2758304D02*
X333860D01*
X326207Y2755134D01*
X323036Y2747480D01*
Y2432520D01*
X326207Y2424866D01*
X333860Y2421696D01*
X377167D01*
X384821Y2424866D01*
X387991Y2432520D01*
Y2447232D01*
X392991Y2448227D01*
X394514Y2444551D01*
X402167Y2441381D01*
X421577D01*
Y2590000D01*
Y2738619D01*
X402167D01*
X394514Y2735449D01*
X392991Y2731773D01*
X387991Y2732768D01*
Y2747480D01*
X384821Y2755134D01*
X377167Y2758304D01*
D02*
G37*
G36*
X1770000Y2469593D02*
Y2445000D01*
X1794593D01*
X1793259Y2451705D01*
X1786629Y2461629D01*
X1776705Y2468259D01*
X1770000Y2469593D01*
D02*
G37*
G36*
X1860000Y2490824D02*
X1835000D01*
X1827346Y2487654D01*
X1824176Y2480000D01*
Y2455000D01*
X1860000D01*
Y2490824D01*
D02*
G37*
G36*
X1895000D02*
X1870000D01*
Y2455000D01*
X1905824D01*
Y2480000D01*
X1902654Y2487654D01*
X1895000Y2490824D01*
D02*
G37*
G36*
X2560000Y2489789D02*
X2549393Y2487679D01*
X2536162Y2478838D01*
X2527321Y2465607D01*
X2525211Y2455000D01*
X2560000D01*
Y2489789D01*
D02*
G37*
G36*
X765000Y2470000D02*
X740407D01*
X741741Y2463295D01*
X748371Y2453371D01*
X758295Y2446741D01*
X765000Y2445407D01*
Y2470000D01*
D02*
G37*
G36*
X799593D02*
X775000D01*
Y2445407D01*
X781705Y2446741D01*
X791629Y2453371D01*
X798259Y2463295D01*
X799593Y2470000D01*
D02*
G37*
G36*
X-37000Y2479593D02*
Y2455000D01*
X-12407D01*
X-13741Y2461705D01*
X-20371Y2471629D01*
X-30295Y2478259D01*
X-37000Y2479593D01*
D02*
G37*
G36*
X2165000Y2590784D02*
X2149393Y2587679D01*
X2136162Y2578838D01*
X2127321Y2565607D01*
X2124216Y2550000D01*
X2127321Y2534393D01*
X2136162Y2521162D01*
X2149393Y2512321D01*
X2165000Y2509216D01*
X2180607Y2512321D01*
X2193838Y2521162D01*
X2202679Y2534393D01*
X2205784Y2550000D01*
X2202679Y2565607D01*
X2193838Y2578838D01*
X2180607Y2587679D01*
X2165000Y2590784D01*
D02*
G37*
G36*
X2265000D02*
X2249393Y2587679D01*
X2236162Y2578838D01*
X2227321Y2565607D01*
X2224216Y2550000D01*
X2227321Y2534393D01*
X2236162Y2521162D01*
X2249393Y2512321D01*
X2265000Y2509216D01*
X2280607Y2512321D01*
X2293838Y2521162D01*
X2302679Y2534393D01*
X2305784Y2550000D01*
X2302679Y2565607D01*
X2293838Y2578838D01*
X2280607Y2587679D01*
X2265000Y2590784D01*
D02*
G37*
G36*
X2365000D02*
X2349393Y2587679D01*
X2336162Y2578838D01*
X2327321Y2565607D01*
X2324216Y2550000D01*
X2327321Y2534393D01*
X2336162Y2521162D01*
X2349393Y2512321D01*
X2365000Y2509216D01*
X2380607Y2512321D01*
X2393838Y2521162D01*
X2402679Y2534393D01*
X2405784Y2550000D01*
X2402679Y2565607D01*
X2393838Y2578838D01*
X2380607Y2587679D01*
X2365000Y2590784D01*
D02*
G37*
G36*
X1905824Y2545000D02*
X1870000D01*
Y2509176D01*
X1895000D01*
X1902654Y2512346D01*
X1905824Y2520000D01*
Y2545000D01*
D02*
G37*
G36*
X1965000Y2590784D02*
X1949393Y2587679D01*
X1936162Y2578838D01*
X1927321Y2565607D01*
X1924216Y2550000D01*
X1927321Y2534393D01*
X1936162Y2521162D01*
X1949393Y2512321D01*
X1965000Y2509216D01*
X1980607Y2512321D01*
X1993838Y2521162D01*
X2002679Y2534393D01*
X2005784Y2550000D01*
X2002679Y2565607D01*
X1993838Y2578838D01*
X1980607Y2587679D01*
X1965000Y2590784D01*
D02*
G37*
G36*
X2065000D02*
X2049393Y2587679D01*
X2036162Y2578838D01*
X2027321Y2565607D01*
X2024216Y2550000D01*
X2027321Y2534393D01*
X2036162Y2521162D01*
X2049393Y2512321D01*
X2065000Y2509216D01*
X2080607Y2512321D01*
X2093838Y2521162D01*
X2102679Y2534393D01*
X2105784Y2550000D01*
X2102679Y2565607D01*
X2093838Y2578838D01*
X2080607Y2587679D01*
X2065000Y2590784D01*
D02*
G37*
G36*
X2465000D02*
X2449393Y2587679D01*
X2436162Y2578838D01*
X2427321Y2565607D01*
X2424216Y2550000D01*
X2427321Y2534393D01*
X2436162Y2521162D01*
X2449393Y2512321D01*
X2465000Y2509216D01*
X2480607Y2512321D01*
X2493838Y2521162D01*
X2502679Y2534393D01*
X2505784Y2550000D01*
X2502679Y2565607D01*
X2493838Y2578838D01*
X2480607Y2587679D01*
X2465000Y2590784D01*
D02*
G37*
G36*
X2755000Y2534593D02*
Y2510000D01*
X2779593D01*
X2778259Y2516705D01*
X2771629Y2526629D01*
X2761705Y2533259D01*
X2755000Y2534593D01*
D02*
G37*
G36*
X2560000Y2545000D02*
X2525211D01*
X2527321Y2534393D01*
X2536162Y2521162D01*
X2549393Y2512321D01*
X2560000Y2510211D01*
Y2545000D01*
D02*
G37*
G36*
X2604789D02*
X2570000D01*
Y2510211D01*
X2580607Y2512321D01*
X2593838Y2521162D01*
X2602679Y2534393D01*
X2604789Y2545000D01*
D02*
G37*
G36*
X3450000Y2590784D02*
X3434393Y2587679D01*
X3421162Y2578838D01*
X3412321Y2565607D01*
X3409216Y2550000D01*
X3412321Y2534393D01*
X3421162Y2521162D01*
X3434393Y2512321D01*
X3450000Y2509216D01*
X3465607Y2512321D01*
X3478838Y2521162D01*
X3487679Y2534393D01*
X3490784Y2550000D01*
X3487679Y2565607D01*
X3478838Y2578838D01*
X3465607Y2587679D01*
X3450000Y2590784D01*
D02*
G37*
G36*
X3550000D02*
X3534393Y2587679D01*
X3521162Y2578838D01*
X3512321Y2565607D01*
X3509216Y2550000D01*
X3512321Y2534393D01*
X3521162Y2521162D01*
X3534393Y2512321D01*
X3550000Y2509216D01*
X3565607Y2512321D01*
X3578838Y2521162D01*
X3587679Y2534393D01*
X3590784Y2550000D01*
X3587679Y2565607D01*
X3578838Y2578838D01*
X3565607Y2587679D01*
X3550000Y2590784D01*
D02*
G37*
G36*
X2745000Y2534593D02*
X2738295Y2533259D01*
X2728371Y2526629D01*
X2721741Y2516705D01*
X2720407Y2510000D01*
X2745000D01*
Y2534593D01*
D02*
G37*
G36*
X775000Y2504593D02*
Y2480000D01*
X799593D01*
X798259Y2486705D01*
X791629Y2496629D01*
X781705Y2503259D01*
X775000Y2504593D01*
D02*
G37*
G36*
X1566000Y2523593D02*
X1559295Y2522259D01*
X1549371Y2515629D01*
X1542741Y2505705D01*
X1541407Y2499000D01*
X1566000D01*
Y2523593D01*
D02*
G37*
G36*
X1576000D02*
Y2499000D01*
X1600593D01*
X1599259Y2505705D01*
X1592629Y2515629D01*
X1582705Y2522259D01*
X1576000Y2523593D01*
D02*
G37*
G36*
X2745000Y2500000D02*
X2720407D01*
X2721741Y2493295D01*
X2728371Y2483371D01*
X2738295Y2476741D01*
X2745000Y2475407D01*
Y2500000D01*
D02*
G37*
G36*
X2779593D02*
X2755000D01*
Y2475407D01*
X2761705Y2476741D01*
X2771629Y2483371D01*
X2778259Y2493295D01*
X2779593Y2500000D01*
D02*
G37*
G36*
X765000Y2504593D02*
X758295Y2503259D01*
X748371Y2496629D01*
X741741Y2486705D01*
X740407Y2480000D01*
X765000D01*
Y2504593D01*
D02*
G37*
G36*
X1670000Y2524593D02*
X1663295Y2523259D01*
X1653371Y2516629D01*
X1646741Y2506705D01*
X1645407Y2500000D01*
X1670000D01*
Y2524593D01*
D02*
G37*
G36*
X958000Y2527593D02*
X951295Y2526259D01*
X941371Y2519629D01*
X934741Y2509705D01*
X933407Y2503000D01*
X958000D01*
Y2527593D01*
D02*
G37*
G36*
X968000D02*
Y2503000D01*
X992593D01*
X991259Y2509705D01*
X984629Y2519629D01*
X974705Y2526259D01*
X968000Y2527593D01*
D02*
G37*
G36*
X1860000Y2545000D02*
X1824176D01*
Y2520000D01*
X1827346Y2512346D01*
X1835000Y2509176D01*
X1860000D01*
Y2545000D01*
D02*
G37*
G36*
X1680000Y2524593D02*
Y2500000D01*
X1704593D01*
X1703259Y2506705D01*
X1696629Y2516629D01*
X1686705Y2523259D01*
X1680000Y2524593D01*
D02*
G37*
G36*
X3800000D02*
X3793295Y2523259D01*
X3783371Y2516629D01*
X3776741Y2506705D01*
X3775407Y2500000D01*
X3800000D01*
Y2524593D01*
D02*
G37*
G36*
X3810000D02*
Y2500000D01*
X3834593D01*
X3833259Y2506705D01*
X3826629Y2516629D01*
X3816705Y2523259D01*
X3810000Y2524593D01*
D02*
G37*
G36*
X3395000Y3480000D02*
X3370407D01*
X3371741Y3473295D01*
X3378371Y3463371D01*
X3388295Y3456741D01*
X3395000Y3455407D01*
Y3480000D01*
D02*
G37*
G36*
X3429593D02*
X3405000D01*
Y3455407D01*
X3411705Y3456741D01*
X3421629Y3463371D01*
X3428259Y3473295D01*
X3429593Y3480000D01*
D02*
G37*
G36*
X3595000D02*
X3570407D01*
X3571741Y3473295D01*
X3578371Y3463371D01*
X3588295Y3456741D01*
X3595000Y3455407D01*
Y3480000D01*
D02*
G37*
G36*
X3505000Y3414593D02*
Y3390000D01*
X3529593D01*
X3528259Y3396705D01*
X3521629Y3406629D01*
X3511705Y3413259D01*
X3505000Y3414593D01*
D02*
G37*
G36*
X3695000D02*
X3688295Y3413259D01*
X3678371Y3406629D01*
X3671741Y3396705D01*
X3670407Y3390000D01*
X3695000D01*
Y3414593D01*
D02*
G37*
G36*
X3705000D02*
Y3390000D01*
X3729593D01*
X3728259Y3396705D01*
X3721629Y3406629D01*
X3711705Y3413259D01*
X3705000Y3414593D01*
D02*
G37*
G36*
X3629593Y3480000D02*
X3605000D01*
Y3455407D01*
X3611705Y3456741D01*
X3621629Y3463371D01*
X3628259Y3473295D01*
X3629593Y3480000D01*
D02*
G37*
G36*
X3405000Y3514593D02*
Y3490000D01*
X3429593D01*
X3428259Y3496705D01*
X3421629Y3506629D01*
X3411705Y3513259D01*
X3405000Y3514593D01*
D02*
G37*
G36*
X3595000D02*
X3588295Y3513259D01*
X3578371Y3506629D01*
X3571741Y3496705D01*
X3570407Y3490000D01*
X3595000D01*
Y3514593D01*
D02*
G37*
G36*
X3605000D02*
Y3490000D01*
X3629593D01*
X3628259Y3496705D01*
X3621629Y3506629D01*
X3611705Y3513259D01*
X3605000Y3514593D01*
D02*
G37*
G36*
X3795000Y3480000D02*
X3770407D01*
X3771741Y3473295D01*
X3778371Y3463371D01*
X3788295Y3456741D01*
X3795000Y3455407D01*
Y3480000D01*
D02*
G37*
G36*
X3829593D02*
X3805000D01*
Y3455407D01*
X3811705Y3456741D01*
X3821629Y3463371D01*
X3828259Y3473295D01*
X3829593Y3480000D01*
D02*
G37*
G36*
X3395000Y3514593D02*
X3388295Y3513259D01*
X3378371Y3506629D01*
X3371741Y3496705D01*
X3370407Y3490000D01*
X3395000D01*
Y3514593D01*
D02*
G37*
G36*
X3605000Y3314593D02*
Y3290000D01*
X3629593D01*
X3628259Y3296705D01*
X3621629Y3306629D01*
X3611705Y3313259D01*
X3605000Y3314593D01*
D02*
G37*
G36*
X3295000Y3380000D02*
X3270407D01*
X3271741Y3373295D01*
X3278371Y3363371D01*
X3288295Y3356741D01*
X3295000Y3355407D01*
Y3380000D01*
D02*
G37*
G36*
X3329593D02*
X3305000D01*
Y3355407D01*
X3311705Y3356741D01*
X3321629Y3363371D01*
X3328259Y3373295D01*
X3329593Y3380000D01*
D02*
G37*
G36*
X3395000Y3314593D02*
X3388295Y3313259D01*
X3378371Y3306629D01*
X3371741Y3296705D01*
X3370407Y3290000D01*
X3395000D01*
Y3314593D01*
D02*
G37*
G36*
X3405000D02*
Y3290000D01*
X3429593D01*
X3428259Y3296705D01*
X3421629Y3306629D01*
X3411705Y3313259D01*
X3405000Y3314593D01*
D02*
G37*
G36*
X3595000D02*
X3588295Y3313259D01*
X3578371Y3306629D01*
X3571741Y3296705D01*
X3570407Y3290000D01*
X3595000D01*
Y3314593D01*
D02*
G37*
G36*
X3495000Y3380000D02*
X3470407D01*
X3471741Y3373295D01*
X3478371Y3363371D01*
X3488295Y3356741D01*
X3495000Y3355407D01*
Y3380000D01*
D02*
G37*
G36*
X3295000Y3414593D02*
X3288295Y3413259D01*
X3278371Y3406629D01*
X3271741Y3396705D01*
X3270407Y3390000D01*
X3295000D01*
Y3414593D01*
D02*
G37*
G36*
X3305000D02*
Y3390000D01*
X3329593D01*
X3328259Y3396705D01*
X3321629Y3406629D01*
X3311705Y3413259D01*
X3305000Y3414593D01*
D02*
G37*
G36*
X3495000D02*
X3488295Y3413259D01*
X3478371Y3406629D01*
X3471741Y3396705D01*
X3470407Y3390000D01*
X3495000D01*
Y3414593D01*
D02*
G37*
G36*
X3529593Y3380000D02*
X3505000D01*
Y3355407D01*
X3511705Y3356741D01*
X3521629Y3363371D01*
X3528259Y3373295D01*
X3529593Y3380000D01*
D02*
G37*
G36*
X3695000D02*
X3670407D01*
X3671741Y3373295D01*
X3678371Y3363371D01*
X3688295Y3356741D01*
X3695000Y3355407D01*
Y3380000D01*
D02*
G37*
G36*
X3729593D02*
X3705000D01*
Y3355407D01*
X3711705Y3356741D01*
X3721629Y3363371D01*
X3728259Y3373295D01*
X3729593Y3380000D01*
D02*
G37*
G36*
X3595000Y3680000D02*
X3570407D01*
X3571741Y3673295D01*
X3578371Y3663371D01*
X3588295Y3656741D01*
X3595000Y3655407D01*
Y3680000D01*
D02*
G37*
G36*
X3629593D02*
X3605000D01*
Y3655407D01*
X3611705Y3656741D01*
X3621629Y3663371D01*
X3628259Y3673295D01*
X3629593Y3680000D01*
D02*
G37*
G36*
X3595000Y3714593D02*
X3588295Y3713259D01*
X3578371Y3706629D01*
X3571741Y3696705D01*
X3570407Y3690000D01*
X3595000D01*
Y3714593D01*
D02*
G37*
G36*
X3505000Y3614593D02*
Y3590000D01*
X3529593D01*
X3528259Y3596705D01*
X3521629Y3606629D01*
X3511705Y3613259D01*
X3505000Y3614593D01*
D02*
G37*
G36*
X3695000D02*
X3688295Y3613259D01*
X3678371Y3606629D01*
X3671741Y3596705D01*
X3670407Y3590000D01*
X3695000D01*
Y3614593D01*
D02*
G37*
G36*
X3705000D02*
Y3590000D01*
X3729593D01*
X3728259Y3596705D01*
X3721629Y3606629D01*
X3711705Y3613259D01*
X3705000Y3614593D01*
D02*
G37*
G36*
X3605000Y3714593D02*
Y3690000D01*
X3629593D01*
X3628259Y3696705D01*
X3621629Y3706629D01*
X3611705Y3713259D01*
X3605000Y3714593D01*
D02*
G37*
G36*
X3305000Y3814593D02*
Y3790000D01*
X3329593D01*
X3328259Y3796705D01*
X3321629Y3806629D01*
X3311705Y3813259D01*
X3305000Y3814593D01*
D02*
G37*
G36*
X3505000D02*
Y3790000D01*
X3529593D01*
X3528259Y3796705D01*
X3521629Y3806629D01*
X3511705Y3813259D01*
X3505000Y3814593D01*
D02*
G37*
G36*
X3495000D02*
X3488295Y3813259D01*
X3478371Y3806629D01*
X3471741Y3796705D01*
X3470936Y3792658D01*
X3466256Y3790897D01*
X3463206Y3793237D01*
X3436831Y3804162D01*
X3413526Y3807231D01*
Y3703528D01*
X3517229D01*
X3514160Y3726833D01*
X3504479Y3750205D01*
X3507143Y3755833D01*
X3511705Y3756741D01*
X3521629Y3763371D01*
X3528259Y3773295D01*
X3529593Y3780000D01*
X3500000D01*
Y3785000D01*
X3495000D01*
Y3814593D01*
D02*
G37*
G36*
X3295000Y3780000D02*
X3270407D01*
X3271741Y3773295D01*
X3278371Y3763371D01*
X3288295Y3756741D01*
X3295000Y3755407D01*
Y3780000D01*
D02*
G37*
G36*
X3403526Y3807231D02*
X3380221Y3804162D01*
X3353846Y3793237D01*
X3334348Y3778276D01*
X3331577Y3780000D01*
X3305000D01*
Y3755407D01*
X3309958Y3756393D01*
X3311643Y3755003D01*
X3313466Y3752361D01*
X3302892Y3726833D01*
X3299823Y3703528D01*
X3403526D01*
Y3807231D01*
D02*
G37*
G36*
X3295000Y3814593D02*
X3288295Y3813259D01*
X3278371Y3806629D01*
X3271741Y3796705D01*
X3270407Y3790000D01*
X3295000D01*
Y3814593D01*
D02*
G37*
G36*
X3329593Y3580000D02*
X3305000D01*
Y3555407D01*
X3311705Y3556741D01*
X3321629Y3563371D01*
X3328259Y3573295D01*
X3329593Y3580000D01*
D02*
G37*
G36*
X3495000D02*
X3470407D01*
X3471741Y3573295D01*
X3478371Y3563371D01*
X3488295Y3556741D01*
X3495000Y3555407D01*
Y3580000D01*
D02*
G37*
G36*
X3529593D02*
X3505000D01*
Y3555407D01*
X3511705Y3556741D01*
X3521629Y3563371D01*
X3528259Y3573295D01*
X3529593Y3580000D01*
D02*
G37*
G36*
X3795000Y3514593D02*
X3788295Y3513259D01*
X3778371Y3506629D01*
X3771741Y3496705D01*
X3770407Y3490000D01*
X3795000D01*
Y3514593D01*
D02*
G37*
G36*
X3805000D02*
Y3490000D01*
X3829593D01*
X3828259Y3496705D01*
X3821629Y3506629D01*
X3811705Y3513259D01*
X3805000Y3514593D01*
D02*
G37*
G36*
X3295000Y3580000D02*
X3270407D01*
X3271741Y3573295D01*
X3278371Y3563371D01*
X3288295Y3556741D01*
X3295000Y3555407D01*
Y3580000D01*
D02*
G37*
G36*
X3695000D02*
X3670407D01*
X3671741Y3573295D01*
X3678371Y3563371D01*
X3688295Y3556741D01*
X3695000Y3555407D01*
Y3580000D01*
D02*
G37*
G36*
X3295000Y3614593D02*
X3288295Y3613259D01*
X3278371Y3606629D01*
X3271741Y3596705D01*
X3270407Y3590000D01*
X3295000D01*
Y3614593D01*
D02*
G37*
G36*
X3305000D02*
Y3590000D01*
X3329593D01*
X3328259Y3596705D01*
X3321629Y3606629D01*
X3311705Y3613259D01*
X3305000Y3614593D01*
D02*
G37*
G36*
X3495000D02*
X3488295Y3613259D01*
X3478371Y3606629D01*
X3471741Y3596705D01*
X3470407Y3590000D01*
X3495000D01*
Y3614593D01*
D02*
G37*
G36*
X3729593Y3580000D02*
X3705000D01*
Y3555407D01*
X3711705Y3556741D01*
X3721629Y3563371D01*
X3728259Y3573295D01*
X3729593Y3580000D01*
D02*
G37*
G36*
X3403526Y3693528D02*
X3299823D01*
X3302892Y3670223D01*
X3313817Y3643848D01*
X3331196Y3621198D01*
X3353846Y3603819D01*
X3380221Y3592894D01*
X3403526Y3589825D01*
Y3693528D01*
D02*
G37*
G36*
X3517229D02*
X3413526D01*
Y3589825D01*
X3436831Y3592894D01*
X3463206Y3603819D01*
X3485856Y3621198D01*
X3503235Y3643848D01*
X3514160Y3670223D01*
X3517229Y3693528D01*
D02*
G37*
G36*
X3829593Y2830000D02*
X3805000D01*
Y2805407D01*
X3811705Y2806741D01*
X3821629Y2813371D01*
X3828259Y2823295D01*
X3829593Y2830000D01*
D02*
G37*
G36*
X3442593Y2831000D02*
X3418000D01*
Y2806407D01*
X3424705Y2807741D01*
X3434629Y2814371D01*
X3441259Y2824295D01*
X3442593Y2831000D01*
D02*
G37*
G36*
X2995000Y2835000D02*
X2970407D01*
X2971741Y2828295D01*
X2978371Y2818371D01*
X2988295Y2811741D01*
X2995000Y2810407D01*
Y2835000D01*
D02*
G37*
G36*
X3615000Y2830000D02*
X3590407D01*
X3591741Y2823295D01*
X3598371Y2813371D01*
X3608295Y2806741D01*
X3615000Y2805407D01*
Y2830000D01*
D02*
G37*
G36*
X3649593D02*
X3625000D01*
Y2805407D01*
X3631705Y2806741D01*
X3641629Y2813371D01*
X3648259Y2823295D01*
X3649593Y2830000D01*
D02*
G37*
G36*
X3795000D02*
X3770407D01*
X3771741Y2823295D01*
X3778371Y2813371D01*
X3788295Y2806741D01*
X3795000Y2805407D01*
Y2830000D01*
D02*
G37*
G36*
X3029593Y2835000D02*
X3005000D01*
Y2810407D01*
X3011705Y2811741D01*
X3021629Y2818371D01*
X3028259Y2828295D01*
X3029593Y2835000D01*
D02*
G37*
G36*
X3805000Y2864593D02*
Y2840000D01*
X3829593D01*
X3828259Y2846705D01*
X3821629Y2856629D01*
X3811705Y2863259D01*
X3805000Y2864593D01*
D02*
G37*
G36*
X2995000Y2869593D02*
X2988295Y2868259D01*
X2978371Y2861629D01*
X2971741Y2851705D01*
X2970407Y2845000D01*
X2995000D01*
Y2869593D01*
D02*
G37*
G36*
X3005000D02*
Y2845000D01*
X3029593D01*
X3028259Y2851705D01*
X3021629Y2861629D01*
X3011705Y2868259D01*
X3005000Y2869593D01*
D02*
G37*
G36*
X3615000Y2864593D02*
X3608295Y2863259D01*
X3598371Y2856629D01*
X3591741Y2846705D01*
X3590407Y2840000D01*
X3615000D01*
Y2864593D01*
D02*
G37*
G36*
X3625000D02*
Y2840000D01*
X3649593D01*
X3648259Y2846705D01*
X3641629Y2856629D01*
X3631705Y2863259D01*
X3625000Y2864593D01*
D02*
G37*
G36*
X3795000D02*
X3788295Y2863259D01*
X3778371Y2856629D01*
X3771741Y2846705D01*
X3770407Y2840000D01*
X3795000D01*
Y2864593D01*
D02*
G37*
G36*
X1258000Y2796593D02*
X1251295Y2795259D01*
X1241371Y2788629D01*
X1234741Y2778705D01*
X1233407Y2772000D01*
X1258000D01*
Y2796593D01*
D02*
G37*
G36*
X1268000D02*
Y2772000D01*
X1292593D01*
X1291259Y2778705D01*
X1284629Y2788629D01*
X1274705Y2795259D01*
X1268000Y2796593D01*
D02*
G37*
G36*
X3511000Y2798593D02*
X3504295Y2797259D01*
X3494371Y2790629D01*
X3487741Y2780705D01*
X3486407Y2774000D01*
X3511000D01*
Y2798593D01*
D02*
G37*
G36*
X3746593Y2786000D02*
X3722000D01*
Y2761407D01*
X3728705Y2762741D01*
X3738629Y2769371D01*
X3745259Y2779295D01*
X3746593Y2786000D01*
D02*
G37*
G36*
X420000Y2800630D02*
X384649D01*
Y2778071D01*
X387819Y2770417D01*
X395473Y2767247D01*
X420000D01*
Y2800630D01*
D02*
G37*
G36*
X635000D02*
X599649D01*
Y2778071D01*
X602819Y2770417D01*
X610472Y2767247D01*
X635000D01*
Y2800630D01*
D02*
G37*
G36*
X3521000Y2798593D02*
Y2774000D01*
X3545593D01*
X3544259Y2780705D01*
X3537629Y2790629D01*
X3527705Y2797259D01*
X3521000Y2798593D01*
D02*
G37*
G36*
X3722000Y2820593D02*
Y2796000D01*
X3746593D01*
X3745259Y2802705D01*
X3738629Y2812629D01*
X3728705Y2819259D01*
X3722000Y2820593D01*
D02*
G37*
G36*
X503787Y2829307D02*
X493364Y2827234D01*
X480289Y2818498D01*
X471553Y2805423D01*
X470351Y2799382D01*
X465351Y2799874D01*
Y2800630D01*
X430000D01*
Y2767247D01*
X454527D01*
X462181Y2770417D01*
X465351Y2778071D01*
Y2780126D01*
X470351Y2780618D01*
X471553Y2774577D01*
X480289Y2761502D01*
X493364Y2752766D01*
X503787Y2750693D01*
Y2790000D01*
Y2829307D01*
D02*
G37*
G36*
X718787D02*
X708364Y2827234D01*
X695289Y2818498D01*
X686553Y2805423D01*
X685351Y2799382D01*
X680351Y2799874D01*
Y2800630D01*
X645000D01*
Y2767247D01*
X669528D01*
X677181Y2770417D01*
X680351Y2778071D01*
Y2780126D01*
X685351Y2780618D01*
X686553Y2774577D01*
X694086Y2763304D01*
X691761Y2758304D01*
X672837D01*
X665183Y2755134D01*
X662013Y2747480D01*
Y2732768D01*
X657013Y2731773D01*
X655490Y2735449D01*
X647837Y2738619D01*
X599018D01*
X591364Y2735449D01*
X588194Y2727795D01*
Y2627336D01*
X587821Y2627181D01*
X584650Y2619528D01*
Y2560472D01*
X587821Y2552819D01*
X588194Y2552664D01*
Y2452205D01*
X589412Y2449263D01*
Y2352670D01*
X552330Y2315588D01*
X356220D01*
X345607Y2322679D01*
X330000Y2325784D01*
X314393Y2322679D01*
X301162Y2313838D01*
X292321Y2300607D01*
X289216Y2285000D01*
X292321Y2269393D01*
X301162Y2256162D01*
X314393Y2247321D01*
X330000Y2244216D01*
X345607Y2247321D01*
X356220Y2254412D01*
X552330D01*
X594414Y2212328D01*
Y1977212D01*
X591364Y1975949D01*
X588194Y1968295D01*
Y1867836D01*
X587821Y1867681D01*
X584650Y1860027D01*
Y1800973D01*
X587821Y1793319D01*
X588194Y1793164D01*
Y1692705D01*
X591364Y1685051D01*
X599018Y1681881D01*
X647837D01*
X655490Y1685051D01*
X657013Y1688727D01*
X662013Y1687732D01*
Y1673020D01*
X665183Y1665366D01*
X672837Y1662196D01*
X716144D01*
X723797Y1665366D01*
X726967Y1673020D01*
Y1987980D01*
X723797Y1995634D01*
X716144Y1998804D01*
X672837D01*
X665183Y1995634D01*
X662013Y1987980D01*
Y1977253D01*
X657013Y1975316D01*
X655590Y1976878D01*
Y2224998D01*
X653261Y2236704D01*
X646631Y2246627D01*
X608258Y2285000D01*
X641629Y2318371D01*
X641629Y2318371D01*
X648259Y2328295D01*
X650588Y2340000D01*
Y2442520D01*
X655490Y2444551D01*
X657013Y2448227D01*
X662013Y2447232D01*
Y2432520D01*
X665183Y2424866D01*
X672837Y2421696D01*
X716144D01*
X723797Y2424866D01*
X726967Y2432520D01*
Y2747480D01*
X728672Y2750670D01*
X739210Y2752766D01*
X752285Y2761502D01*
X761021Y2774577D01*
X763095Y2785000D01*
X723787D01*
Y2790000D01*
X718787D01*
Y2829307D01*
D02*
G37*
G36*
X513787D02*
Y2795000D01*
X548095D01*
X546021Y2805423D01*
X537285Y2818498D01*
X524210Y2827234D01*
X513787Y2829307D01*
D02*
G37*
G36*
X728787D02*
Y2795000D01*
X763095D01*
X761021Y2805423D01*
X752285Y2818498D01*
X739210Y2827234D01*
X728787Y2829307D01*
D02*
G37*
G36*
X3712000Y2820593D02*
X3705295Y2819259D01*
X3695371Y2812629D01*
X3688741Y2802705D01*
X3687407Y2796000D01*
X3712000D01*
Y2820593D01*
D02*
G37*
G36*
X3295000Y3214593D02*
X3288295Y3213259D01*
X3278371Y3206629D01*
X3271741Y3196705D01*
X3270407Y3190000D01*
X3295000D01*
Y3214593D01*
D02*
G37*
G36*
X3305000D02*
Y3190000D01*
X3329593D01*
X3328259Y3196705D01*
X3321629Y3206629D01*
X3311705Y3213259D01*
X3305000Y3214593D01*
D02*
G37*
G36*
X3735000Y3255000D02*
X3700211D01*
X3702321Y3244393D01*
X3711162Y3231162D01*
X3724393Y3222321D01*
X3735000Y3220211D01*
Y3255000D01*
D02*
G37*
G36*
X3740000Y3200784D02*
X3724393Y3197679D01*
X3721409Y3195686D01*
X3505000D01*
X3491344Y3192969D01*
X3479766Y3185234D01*
X3020218Y2725686D01*
X1590000D01*
X1576344Y2722969D01*
X1564766Y2715234D01*
X1394766Y2545234D01*
X1387031Y2533656D01*
X1384314Y2520000D01*
Y2359142D01*
X1379905Y2356785D01*
X1374705Y2360259D01*
X1368000Y2361593D01*
Y2332000D01*
Y2302407D01*
X1374705Y2303741D01*
X1379905Y2307215D01*
X1384314Y2304858D01*
Y2110056D01*
X1339370D01*
X1336001Y2109386D01*
X1334000Y2109784D01*
X1318393Y2106679D01*
X1305162Y2097838D01*
X1296321Y2084607D01*
X1293216Y2069000D01*
X1296321Y2053393D01*
X1305162Y2040162D01*
X1318393Y2031321D01*
X1334000Y2028216D01*
X1349607Y2031321D01*
X1360628Y2038685D01*
X1420000D01*
X1433656Y2041401D01*
X1445234Y2049137D01*
X1452969Y2060714D01*
X1455686Y2074370D01*
Y2505218D01*
X1604782Y2654314D01*
X2847314D01*
X2849228Y2649695D01*
X2819766Y2620234D01*
X2812031Y2608656D01*
X2809314Y2595000D01*
Y2434782D01*
X2795218Y2420686D01*
X2679126D01*
X2677610Y2425686D01*
X2681629Y2428371D01*
X2688259Y2438295D01*
X2689593Y2445000D01*
X2630407D01*
X2631741Y2438295D01*
X2638371Y2428371D01*
X2642390Y2425686D01*
X2640874Y2420686D01*
X2599534D01*
X2596861Y2425686D01*
X2602679Y2434393D01*
X2604789Y2445000D01*
X2525211D01*
X2527321Y2434393D01*
X2533139Y2425686D01*
X2530466Y2420686D01*
X2499534D01*
X2496861Y2425686D01*
X2502679Y2434393D01*
X2505784Y2450000D01*
X2502679Y2465607D01*
X2493838Y2478838D01*
X2480607Y2487679D01*
X2465000Y2490784D01*
X2449393Y2487679D01*
X2436162Y2478838D01*
X2427321Y2465607D01*
X2424216Y2450000D01*
X2427321Y2434393D01*
X2433139Y2425686D01*
X2430466Y2420686D01*
X2399534D01*
X2396861Y2425686D01*
X2402679Y2434393D01*
X2405784Y2450000D01*
X2402679Y2465607D01*
X2393838Y2478838D01*
X2380607Y2487679D01*
X2365000Y2490784D01*
X2349393Y2487679D01*
X2336162Y2478838D01*
X2327321Y2465607D01*
X2324216Y2450000D01*
X2327321Y2434393D01*
X2333139Y2425686D01*
X2330466Y2420686D01*
X2299534D01*
X2296861Y2425686D01*
X2302679Y2434393D01*
X2305784Y2450000D01*
X2302679Y2465607D01*
X2293838Y2478838D01*
X2280607Y2487679D01*
X2265000Y2490784D01*
X2249393Y2487679D01*
X2236162Y2478838D01*
X2227321Y2465607D01*
X2224216Y2450000D01*
X2227321Y2434393D01*
X2233139Y2425686D01*
X2230466Y2420686D01*
X2199534D01*
X2196861Y2425686D01*
X2202679Y2434393D01*
X2205784Y2450000D01*
X2202679Y2465607D01*
X2193838Y2478838D01*
X2180607Y2487679D01*
X2165000Y2490784D01*
X2149393Y2487679D01*
X2136162Y2478838D01*
X2127321Y2465607D01*
X2124216Y2450000D01*
X2127321Y2434393D01*
X2133139Y2425686D01*
X2130466Y2420686D01*
X2099534D01*
X2096861Y2425686D01*
X2102679Y2434393D01*
X2105784Y2450000D01*
X2102679Y2465607D01*
X2093838Y2478838D01*
X2080607Y2487679D01*
X2065000Y2490784D01*
X2049393Y2487679D01*
X2036162Y2478838D01*
X2027321Y2465607D01*
X2024216Y2450000D01*
X2027321Y2434393D01*
X2033139Y2425686D01*
X2030466Y2420686D01*
X1999534D01*
X1996861Y2425686D01*
X2002679Y2434393D01*
X2005784Y2450000D01*
X2002679Y2465607D01*
X1993838Y2478838D01*
X1980607Y2487679D01*
X1965000Y2490784D01*
X1949393Y2487679D01*
X1936162Y2478838D01*
X1927321Y2465607D01*
X1924216Y2450000D01*
X1927321Y2434393D01*
X1933139Y2425686D01*
X1930466Y2420686D01*
X1905824D01*
Y2445000D01*
X1824176D01*
Y2420686D01*
X1793479D01*
X1791122Y2425095D01*
X1793259Y2428295D01*
X1794593Y2435000D01*
X1735407D01*
X1736741Y2428295D01*
X1738878Y2425095D01*
X1736521Y2420686D01*
X1720000D01*
X1706344Y2417969D01*
X1694766Y2410234D01*
X1687031Y2398656D01*
X1684314Y2385000D01*
X1687031Y2371344D01*
X1694766Y2359766D01*
X1706344Y2352031D01*
X1720000Y2349314D01*
X1743849D01*
X1746206Y2344905D01*
X1742031Y2338656D01*
X1739314Y2325000D01*
X1742031Y2311344D01*
X1749766Y2299766D01*
X1761344Y2292031D01*
X1775000Y2289314D01*
X1788656Y2292031D01*
X1792221Y2294412D01*
X2895000D01*
X2906705Y2296741D01*
X2916629Y2303371D01*
X2971628Y2358371D01*
X2971629Y2358371D01*
X2978259Y2368295D01*
X2980588Y2380000D01*
Y2409419D01*
X2987654Y2412346D01*
X2990824Y2420000D01*
Y2480000D01*
X2987654Y2487654D01*
X2980588Y2490581D01*
Y2509419D01*
X2987654Y2512346D01*
X2990824Y2520000D01*
Y2580000D01*
X2987654Y2587654D01*
X2983645Y2589314D01*
X2984639Y2594314D01*
X3010218D01*
X3014314Y2590218D01*
Y2568591D01*
X3012321Y2565607D01*
X3009216Y2550000D01*
X3012321Y2534393D01*
X3014314Y2531409D01*
Y2468591D01*
X3012321Y2465607D01*
X3009216Y2450000D01*
X3012321Y2434393D01*
X3021162Y2421162D01*
X3034393Y2412321D01*
X3050000Y2409216D01*
X3056957Y2410600D01*
X3111778Y2355778D01*
X3119221Y2350805D01*
X3128000Y2349059D01*
X3296823D01*
X3297316Y2344059D01*
X3293295Y2343259D01*
X3283371Y2336629D01*
X3276741Y2326705D01*
X3275407Y2320000D01*
X3334593D01*
X3333259Y2326705D01*
X3326629Y2336629D01*
X3316705Y2343259D01*
X3312684Y2344059D01*
X3313177Y2349059D01*
X3592889D01*
X3599766Y2338766D01*
X3611344Y2331031D01*
X3625000Y2328314D01*
X3638656Y2331031D01*
X3650234Y2338766D01*
X3657969Y2350344D01*
X3660686Y2364000D01*
X3657969Y2377656D01*
X3650234Y2389234D01*
X3638656Y2396969D01*
X3625000Y2399686D01*
X3611344Y2396969D01*
X3608308Y2394941D01*
X3137502D01*
X3089400Y2443043D01*
X3090784Y2450000D01*
X3087679Y2465607D01*
X3085686Y2468591D01*
Y2531409D01*
X3087679Y2534393D01*
X3090784Y2550000D01*
X3087679Y2565607D01*
X3085686Y2568591D01*
Y2605000D01*
X3082969Y2618656D01*
X3075234Y2630234D01*
X3052129Y2653338D01*
X3052212Y2658939D01*
X3052600Y2659666D01*
X3060234Y2664766D01*
X3519782Y3124314D01*
X3721409D01*
X3724393Y3122321D01*
X3740000Y3119216D01*
X3755607Y3122321D01*
X3768838Y3131162D01*
X3777679Y3144393D01*
X3780784Y3160000D01*
X3777679Y3175607D01*
X3768838Y3188838D01*
X3755607Y3197679D01*
X3740000Y3200784D01*
D02*
G37*
G36*
X3295000Y3180000D02*
X3270407D01*
X3271741Y3173295D01*
X3278371Y3163371D01*
X3288295Y3156741D01*
X3295000Y3155407D01*
Y3180000D01*
D02*
G37*
G36*
X3329593D02*
X3305000D01*
Y3155407D01*
X3311705Y3156741D01*
X3321629Y3163371D01*
X3328259Y3173295D01*
X3329593Y3180000D01*
D02*
G37*
G36*
X3779789Y3255000D02*
X3745000D01*
Y3220211D01*
X3755607Y3222321D01*
X3768838Y3231162D01*
X3777679Y3244393D01*
X3779789Y3255000D01*
D02*
G37*
G36*
X3629593Y3280000D02*
X3605000D01*
Y3255407D01*
X3611705Y3256741D01*
X3621629Y3263371D01*
X3628259Y3273295D01*
X3629593Y3280000D01*
D02*
G37*
G36*
X3735000Y3299789D02*
X3724393Y3297679D01*
X3711162Y3288838D01*
X3702321Y3275607D01*
X3700211Y3265000D01*
X3735000D01*
Y3299789D01*
D02*
G37*
G36*
X3745000D02*
Y3265000D01*
X3779789D01*
X3777679Y3275607D01*
X3768838Y3288838D01*
X3755607Y3297679D01*
X3745000Y3299789D01*
D02*
G37*
G36*
X3395000Y3280000D02*
X3370407D01*
X3371741Y3273295D01*
X3378371Y3263371D01*
X3388295Y3256741D01*
X3395000Y3255407D01*
Y3280000D01*
D02*
G37*
G36*
X3429593D02*
X3405000D01*
Y3255407D01*
X3411705Y3256741D01*
X3421629Y3263371D01*
X3428259Y3273295D01*
X3429593Y3280000D01*
D02*
G37*
G36*
X3595000D02*
X3570407D01*
X3571741Y3273295D01*
X3578371Y3263371D01*
X3588295Y3256741D01*
X3595000Y3255407D01*
Y3280000D01*
D02*
G37*
G36*
X3129593Y2935000D02*
X3105000D01*
Y2910407D01*
X3111705Y2911741D01*
X3121629Y2918371D01*
X3128259Y2928295D01*
X3129593Y2935000D01*
D02*
G37*
G36*
X3770000Y3000824D02*
X3710000D01*
X3702346Y2997654D01*
X3699176Y2990000D01*
Y2930000D01*
X3702346Y2922346D01*
X3710000Y2919176D01*
X3770000D01*
X3777654Y2922346D01*
X3780824Y2930000D01*
Y2990000D01*
X3777654Y2997654D01*
X3770000Y3000824D01*
D02*
G37*
G36*
X3095000Y2969593D02*
X3088295Y2968259D01*
X3078371Y2961629D01*
X3071741Y2951705D01*
X3070407Y2945000D01*
X3095000D01*
Y2969593D01*
D02*
G37*
G36*
X508787Y2930302D02*
X493364Y2927234D01*
X480289Y2918498D01*
X474873Y2910392D01*
X465351D01*
Y2911929D01*
X462181Y2919583D01*
X454527Y2922753D01*
X395473D01*
X387819Y2919583D01*
X384649Y2911929D01*
Y2856811D01*
X387819Y2849157D01*
X391323Y2847706D01*
Y2842294D01*
X387819Y2840843D01*
X384649Y2833189D01*
Y2810630D01*
X465351D01*
Y2833189D01*
X462181Y2840843D01*
X458677Y2842294D01*
Y2847706D01*
X462181Y2849157D01*
X465351Y2856811D01*
Y2869608D01*
X474873D01*
X480289Y2861502D01*
X493364Y2852766D01*
X508787Y2849698D01*
X524210Y2852766D01*
X537285Y2861502D01*
X546021Y2874577D01*
X549089Y2890000D01*
X546021Y2905423D01*
X537285Y2918498D01*
X524210Y2927234D01*
X508787Y2930302D01*
D02*
G37*
G36*
X723787D02*
X708364Y2927234D01*
X695289Y2918498D01*
X689873Y2910392D01*
X680351D01*
Y2911929D01*
X677181Y2919583D01*
X669528Y2922753D01*
X610472D01*
X602819Y2919583D01*
X599649Y2911929D01*
Y2856811D01*
X602819Y2849157D01*
X606323Y2847706D01*
Y2842294D01*
X602819Y2840843D01*
X599649Y2833189D01*
Y2810630D01*
X680351D01*
Y2833189D01*
X677181Y2840843D01*
X673677Y2842294D01*
Y2847706D01*
X677181Y2849157D01*
X680351Y2856811D01*
Y2869608D01*
X689873D01*
X695289Y2861502D01*
X708364Y2852766D01*
X723787Y2849698D01*
X739210Y2852766D01*
X752285Y2861502D01*
X761021Y2874577D01*
X764089Y2890000D01*
X761021Y2905423D01*
X752285Y2918498D01*
X739210Y2927234D01*
X723787Y2930302D01*
D02*
G37*
G36*
X3095000Y2935000D02*
X3070407D01*
X3071741Y2928295D01*
X3078371Y2918371D01*
X3088295Y2911741D01*
X3095000Y2910407D01*
Y2935000D01*
D02*
G37*
G36*
X3105000Y2969593D02*
Y2945000D01*
X3129593D01*
X3128259Y2951705D01*
X3121629Y2961629D01*
X3111705Y2968259D01*
X3105000Y2969593D01*
D02*
G37*
G36*
X3740000Y3100784D02*
X3724393Y3097679D01*
X3711162Y3088838D01*
X3702321Y3075607D01*
X3699216Y3060000D01*
X3702321Y3044393D01*
X3711162Y3031162D01*
X3724393Y3022321D01*
X3740000Y3019216D01*
X3755607Y3022321D01*
X3768838Y3031162D01*
X3777679Y3044393D01*
X3780784Y3060000D01*
X3777679Y3075607D01*
X3768838Y3088838D01*
X3755607Y3097679D01*
X3740000Y3100784D01*
D02*
G37*
G36*
X3195000Y3069593D02*
X3188295Y3068259D01*
X3178371Y3061629D01*
X3171741Y3051705D01*
X3170407Y3045000D01*
X3195000D01*
Y3069593D01*
D02*
G37*
G36*
X3205000D02*
Y3045000D01*
X3229593D01*
X3228259Y3051705D01*
X3221629Y3061629D01*
X3211705Y3068259D01*
X3205000Y3069593D01*
D02*
G37*
G36*
X3500000Y3008669D02*
X3489270Y3006534D01*
X3481020Y3001022D01*
X3430630D01*
X3422826Y2999469D01*
X3416211Y2995049D01*
X3185581Y2764419D01*
X3181160Y2757804D01*
X3179608Y2750000D01*
Y2584338D01*
X3174608Y2581665D01*
X3165607Y2587679D01*
X3150000Y2590784D01*
X3134393Y2587679D01*
X3121162Y2578838D01*
X3112321Y2565607D01*
X3109216Y2550000D01*
X3112321Y2534393D01*
X3121162Y2521162D01*
X3134393Y2512321D01*
X3150000Y2509216D01*
X3165607Y2512321D01*
X3174608Y2518335D01*
X3179608Y2515662D01*
Y2508447D01*
X3159963Y2488802D01*
X3150000Y2490784D01*
X3134393Y2487679D01*
X3121162Y2478838D01*
X3112321Y2465607D01*
X3109216Y2450000D01*
X3112321Y2434393D01*
X3121162Y2421162D01*
X3134393Y2412321D01*
X3150000Y2409216D01*
X3165607Y2412321D01*
X3178838Y2421162D01*
X3187679Y2434393D01*
X3190784Y2450000D01*
X3188802Y2459963D01*
X3214419Y2485581D01*
X3218840Y2492196D01*
X3220392Y2500000D01*
Y2515662D01*
X3225392Y2518335D01*
X3234393Y2512321D01*
X3250000Y2509216D01*
X3265607Y2512321D01*
X3274608Y2518335D01*
X3279608Y2515662D01*
Y2508447D01*
X3259963Y2488802D01*
X3250000Y2490784D01*
X3234393Y2487679D01*
X3221162Y2478838D01*
X3212321Y2465607D01*
X3209216Y2450000D01*
X3212321Y2434393D01*
X3221162Y2421162D01*
X3234393Y2412321D01*
X3250000Y2409216D01*
X3265607Y2412321D01*
X3278838Y2421162D01*
X3287679Y2434393D01*
X3290784Y2450000D01*
X3288802Y2459963D01*
X3314419Y2485581D01*
X3318840Y2492196D01*
X3320392Y2500000D01*
Y2515662D01*
X3325392Y2518335D01*
X3334393Y2512321D01*
X3350000Y2509216D01*
X3365607Y2512321D01*
X3378838Y2521162D01*
X3387679Y2534393D01*
X3390784Y2550000D01*
X3387679Y2565607D01*
X3378838Y2578838D01*
X3365607Y2587679D01*
X3350000Y2590784D01*
X3334393Y2587679D01*
X3325392Y2581665D01*
X3320392Y2584338D01*
Y2776553D01*
X3377733Y2833895D01*
X3383159Y2832249D01*
X3384741Y2824295D01*
X3391371Y2814371D01*
X3401295Y2807741D01*
X3408000Y2806407D01*
Y2836000D01*
X3413000D01*
Y2841000D01*
X3442593D01*
X3441259Y2847705D01*
X3434629Y2857629D01*
X3434302Y2857847D01*
X3434349Y2863830D01*
X3443234Y2869766D01*
X3450969Y2881344D01*
X3453686Y2895000D01*
X3450969Y2908656D01*
X3443234Y2920234D01*
X3431656Y2927969D01*
X3418000Y2930686D01*
X3415866Y2930261D01*
X3413509Y2934671D01*
X3439076Y2960238D01*
X3481020D01*
X3489270Y2954725D01*
X3500000Y2952591D01*
X3510730Y2954725D01*
X3519826Y2960803D01*
X3525905Y2969900D01*
X3528039Y2980630D01*
X3525905Y2991360D01*
X3519826Y3000456D01*
X3510730Y3006534D01*
X3500000Y3008669D01*
D02*
G37*
G36*
X3195000Y3035000D02*
X3170407D01*
X3171741Y3028295D01*
X3178371Y3018371D01*
X3188295Y3011741D01*
X3195000Y3010407D01*
Y3035000D01*
D02*
G37*
G36*
X3229593D02*
X3205000D01*
Y3010407D01*
X3211705Y3011741D01*
X3221629Y3018371D01*
X3228259Y3028295D01*
X3229593Y3035000D01*
D02*
G37*
G36*
X-12407Y2445000D02*
X-37000D01*
Y2420407D01*
X-30295Y2421741D01*
X-20371Y2428371D01*
X-13741Y2438295D01*
X-12407Y2445000D01*
D02*
G37*
G36*
X3748421Y1863619D02*
X3729012D01*
X3721358Y1860449D01*
X3718188Y1852795D01*
Y1731060D01*
X3717762Y1730423D01*
X3715689Y1720000D01*
X3748421D01*
Y1863619D01*
D02*
G37*
G36*
X765000Y1740000D02*
X740407D01*
X741741Y1733295D01*
X748371Y1723371D01*
X758295Y1716741D01*
X765000Y1715407D01*
Y1740000D01*
D02*
G37*
G36*
X799593D02*
X775000D01*
Y1715407D01*
X781705Y1716741D01*
X791629Y1723371D01*
X798259Y1733295D01*
X799593Y1740000D01*
D02*
G37*
G36*
X765000Y1774593D02*
X758295Y1773259D01*
X748371Y1766629D01*
X741741Y1756705D01*
X740407Y1750000D01*
X765000D01*
Y1774593D01*
D02*
G37*
G36*
X775000D02*
Y1750000D01*
X799593D01*
X798259Y1756705D01*
X791629Y1766629D01*
X781705Y1773259D01*
X775000Y1774593D01*
D02*
G37*
G36*
X1471000Y1779000D02*
X1446407D01*
X1447741Y1772295D01*
X1454371Y1762371D01*
X1464295Y1755741D01*
X1471000Y1754407D01*
Y1779000D01*
D02*
G37*
G36*
X1390000Y1699593D02*
X1383295Y1698259D01*
X1373371Y1691629D01*
X1366741Y1681705D01*
X1365407Y1675000D01*
X1390000D01*
Y1699593D01*
D02*
G37*
G36*
X1400000D02*
Y1675000D01*
X1424593D01*
X1423259Y1681705D01*
X1416629Y1691629D01*
X1406705Y1698259D01*
X1400000Y1699593D01*
D02*
G37*
G36*
X300000Y1999593D02*
Y1970000D01*
Y1940407D01*
X306705Y1941741D01*
X316629Y1948371D01*
X318252Y1950800D01*
X323036Y1949349D01*
Y1673020D01*
X326207Y1665366D01*
X333860Y1662196D01*
X377167D01*
X384821Y1665366D01*
X387991Y1673020D01*
Y1687732D01*
X392991Y1688727D01*
X394514Y1685051D01*
X402167Y1681881D01*
X421577D01*
Y1830500D01*
Y1979119D01*
X402167D01*
X394514Y1975949D01*
X392991Y1972273D01*
X387991Y1973268D01*
Y1987980D01*
X384821Y1995634D01*
X377167Y1998804D01*
X333860D01*
X326207Y1995634D01*
X323818Y1989869D01*
X318417Y1988953D01*
X316629Y1991629D01*
X306705Y1998259D01*
X300000Y1999593D01*
D02*
G37*
G36*
X464309Y1825500D02*
X431577D01*
Y1681881D01*
X450986D01*
X458640Y1685051D01*
X461810Y1692705D01*
Y1814440D01*
X462236Y1815077D01*
X464309Y1825500D01*
D02*
G37*
G36*
X549411Y1979119D02*
X500592D01*
X492939Y1975949D01*
X489769Y1968295D01*
Y1848917D01*
X487768Y1845923D01*
X484700Y1830500D01*
X487768Y1815077D01*
X489769Y1812083D01*
Y1692705D01*
X492939Y1685051D01*
X500592Y1681881D01*
X549411D01*
X557065Y1685051D01*
X560235Y1692705D01*
Y1812083D01*
X562236Y1815077D01*
X565304Y1830500D01*
X562236Y1845923D01*
X560235Y1848917D01*
Y1968295D01*
X557065Y1975949D01*
X549411Y1979119D01*
D02*
G37*
G36*
X1505593Y1779000D02*
X1481000D01*
Y1754407D01*
X1487705Y1755741D01*
X1497629Y1762371D01*
X1504259Y1772295D01*
X1505593Y1779000D01*
D02*
G37*
G36*
X450986Y1979119D02*
X431577D01*
Y1835500D01*
X464309D01*
X462236Y1845923D01*
X461810Y1846560D01*
Y1968295D01*
X458640Y1975949D01*
X450986Y1979119D01*
D02*
G37*
G36*
X290000Y1965000D02*
X265407D01*
X266741Y1958295D01*
X273371Y1948371D01*
X283295Y1941741D01*
X290000Y1940407D01*
Y1965000D01*
D02*
G37*
G36*
X765000Y1940000D02*
X740407D01*
X741741Y1933295D01*
X748371Y1923371D01*
X758295Y1916741D01*
X765000Y1915407D01*
Y1940000D01*
D02*
G37*
G36*
X799593D02*
X775000D01*
Y1915407D01*
X781705Y1916741D01*
X791629Y1923371D01*
X798259Y1933295D01*
X799593Y1940000D01*
D02*
G37*
G36*
X281375Y1809999D02*
X246023D01*
Y1766774D01*
X270551D01*
X278204Y1769944D01*
X281375Y1777598D01*
Y1809999D01*
D02*
G37*
G36*
X236023D02*
X200672D01*
Y1777598D01*
X203842Y1769944D01*
X211496Y1766774D01*
X236023D01*
Y1809999D01*
D02*
G37*
G36*
X270551Y1863225D02*
X246023D01*
Y1819999D01*
X281375D01*
Y1852401D01*
X278204Y1860054D01*
X270551Y1863225D01*
D02*
G37*
G36*
X1471000Y1813593D02*
X1464295Y1812259D01*
X1454371Y1805629D01*
X1447741Y1795705D01*
X1446407Y1789000D01*
X1471000D01*
Y1813593D01*
D02*
G37*
G36*
X1481000D02*
Y1789000D01*
X1505593D01*
X1504259Y1795705D01*
X1497629Y1805629D01*
X1487705Y1812259D01*
X1481000Y1813593D01*
D02*
G37*
G36*
X236023Y1863225D02*
X211496D01*
X203842Y1860054D01*
X200672Y1852401D01*
Y1819999D01*
X236023D01*
Y1863225D01*
D02*
G37*
G36*
X1440000Y1611593D02*
Y1587000D01*
X1464593D01*
X1463259Y1593705D01*
X1456629Y1603629D01*
X1446705Y1610259D01*
X1440000Y1611593D01*
D02*
G37*
G36*
X1136000Y1629000D02*
X1100649D01*
Y1604473D01*
X1103819Y1596819D01*
X1111473Y1593649D01*
X1136000D01*
Y1629000D01*
D02*
G37*
G36*
X1181351D02*
X1146000D01*
Y1593649D01*
X1170527D01*
X1178181Y1596819D01*
X1181351Y1604473D01*
Y1629000D01*
D02*
G37*
G36*
X290000Y1599593D02*
X283295Y1598259D01*
X273371Y1591629D01*
X266741Y1581705D01*
X265407Y1575000D01*
X290000D01*
Y1599593D01*
D02*
G37*
G36*
X300000D02*
Y1575000D01*
X324593D01*
X323259Y1581705D01*
X316629Y1591629D01*
X306705Y1598259D01*
X300000Y1599593D01*
D02*
G37*
G36*
X1430000Y1611593D02*
X1423295Y1610259D01*
X1413371Y1603629D01*
X1406741Y1593705D01*
X1405407Y1587000D01*
X1430000D01*
Y1611593D01*
D02*
G37*
G36*
X290000Y1565000D02*
X265407D01*
X266741Y1558295D01*
X273371Y1548371D01*
X283295Y1541741D01*
X290000Y1540407D01*
Y1565000D01*
D02*
G37*
G36*
X324593D02*
X300000D01*
Y1540407D01*
X306705Y1541741D01*
X316629Y1548371D01*
X323259Y1558295D01*
X324593Y1565000D01*
D02*
G37*
G36*
X1430000Y1577000D02*
X1405407D01*
X1406741Y1570295D01*
X1413371Y1560371D01*
X1423295Y1553741D01*
X1430000Y1552407D01*
Y1577000D01*
D02*
G37*
G36*
X1290000Y1544000D02*
X1265407D01*
X1266741Y1537295D01*
X1273371Y1527371D01*
X1283295Y1520741D01*
X1290000Y1519407D01*
Y1544000D01*
D02*
G37*
G36*
X1324593D02*
X1300000D01*
Y1519407D01*
X1306705Y1520741D01*
X1316629Y1527371D01*
X1323259Y1537295D01*
X1324593Y1544000D01*
D02*
G37*
G36*
X70000Y2125824D02*
X-40000D01*
X-47654Y2122654D01*
X-50824Y2115000D01*
Y1905000D01*
Y1730000D01*
X-50824Y1730000D01*
Y1535000D01*
X-47654Y1527346D01*
X-40000Y1524176D01*
X70000D01*
X77654Y1527346D01*
X80824Y1535000D01*
Y1730000D01*
Y1753666D01*
X93932Y1766774D01*
X148504D01*
X156157Y1769944D01*
X159327Y1777598D01*
Y1852401D01*
X156157Y1860054D01*
X148504Y1863225D01*
X97083D01*
X80824Y1879484D01*
X80824Y1905000D01*
Y2115000D01*
X77654Y2122654D01*
X70000Y2125824D01*
D02*
G37*
G36*
X1464593Y1577000D02*
X1440000D01*
Y1552407D01*
X1446705Y1553741D01*
X1456629Y1560371D01*
X1463259Y1570295D01*
X1464593Y1577000D01*
D02*
G37*
G36*
X1290000Y1578593D02*
X1283295Y1577259D01*
X1273371Y1570629D01*
X1266741Y1560705D01*
X1265407Y1554000D01*
X1290000D01*
Y1578593D01*
D02*
G37*
G36*
X1300000D02*
Y1554000D01*
X1324593D01*
X1323259Y1560705D01*
X1316629Y1570629D01*
X1306705Y1577259D01*
X1300000Y1578593D01*
D02*
G37*
G36*
X1236000Y1673307D02*
X1225577Y1671234D01*
X1212502Y1662498D01*
X1203766Y1649423D01*
X1201693Y1639000D01*
X1236000D01*
Y1673307D01*
D02*
G37*
G36*
X1170527Y1674351D02*
X1146000D01*
Y1639000D01*
X1181351D01*
Y1663527D01*
X1178181Y1671181D01*
X1170527Y1674351D01*
D02*
G37*
G36*
X1246000Y1673307D02*
Y1639000D01*
X1280307D01*
X1278234Y1649423D01*
X1269498Y1662498D01*
X1256423Y1671234D01*
X1246000Y1673307D01*
D02*
G37*
G36*
X1136000Y1674351D02*
X1111473D01*
X1103819Y1671181D01*
X1100649Y1663527D01*
Y1639000D01*
X1136000D01*
Y1674351D01*
D02*
G37*
G36*
X1390000Y1665000D02*
X1365407D01*
X1366741Y1658295D01*
X1373371Y1648371D01*
X1383295Y1641741D01*
X1390000Y1640407D01*
Y1665000D01*
D02*
G37*
G36*
X1424593D02*
X1400000D01*
Y1640407D01*
X1406705Y1641741D01*
X1416629Y1648371D01*
X1423259Y1658295D01*
X1424593Y1665000D01*
D02*
G37*
G36*
X1236000Y1629000D02*
X1201693D01*
X1203766Y1618577D01*
X1212502Y1605502D01*
X1225577Y1596766D01*
X1236000Y1594693D01*
Y1629000D01*
D02*
G37*
G36*
X1280307D02*
X1246000D01*
Y1594693D01*
X1256423Y1596766D01*
X1269498Y1605502D01*
X1278234Y1618577D01*
X1280307Y1629000D01*
D02*
G37*
G36*
X765000Y1974593D02*
X758295Y1973259D01*
X748371Y1966629D01*
X741741Y1956705D01*
X740407Y1950000D01*
X765000D01*
Y1974593D01*
D02*
G37*
G36*
X3744593Y2325000D02*
X3720000D01*
Y2300407D01*
X3726705Y2301741D01*
X3736629Y2308371D01*
X3743259Y2318295D01*
X3744593Y2325000D01*
D02*
G37*
G36*
X1358000Y2327000D02*
X1333407D01*
X1334741Y2320295D01*
X1341371Y2310371D01*
X1351295Y2303741D01*
X1358000Y2302407D01*
Y2327000D01*
D02*
G37*
G36*
X3090000Y2329593D02*
X3083295Y2328259D01*
X3073371Y2321629D01*
X3066741Y2311705D01*
X3065407Y2305000D01*
X3090000D01*
Y2329593D01*
D02*
G37*
G36*
X225000Y2324789D02*
X214393Y2322679D01*
X201162Y2313838D01*
X192321Y2300607D01*
X190211Y2290000D01*
X225000D01*
Y2324789D01*
D02*
G37*
G36*
X235000D02*
Y2290000D01*
X269789D01*
X267679Y2300607D01*
X258838Y2313838D01*
X245607Y2322679D01*
X235000Y2324789D01*
D02*
G37*
G36*
X3710000Y2325000D02*
X3685407D01*
X3686741Y2318295D01*
X3693371Y2308371D01*
X3703295Y2301741D01*
X3710000Y2300407D01*
Y2325000D01*
D02*
G37*
G36*
X3100000Y2329593D02*
Y2305000D01*
X3124593D01*
X3123259Y2311705D01*
X3116629Y2321629D01*
X3106705Y2328259D01*
X3100000Y2329593D01*
D02*
G37*
G36*
X3069593Y2345000D02*
X3045000D01*
Y2320407D01*
X3051705Y2321741D01*
X3061629Y2328371D01*
X3068259Y2338295D01*
X3069593Y2345000D01*
D02*
G37*
G36*
X700000Y2350000D02*
X675407D01*
X676741Y2343295D01*
X683371Y2333371D01*
X693295Y2326741D01*
X700000Y2325407D01*
Y2350000D01*
D02*
G37*
G36*
X734593D02*
X710000D01*
Y2325407D01*
X716705Y2326741D01*
X726629Y2333371D01*
X733259Y2343295D01*
X734593Y2350000D01*
D02*
G37*
G36*
X2970000Y2334593D02*
X2963295Y2333259D01*
X2953371Y2326629D01*
X2946741Y2316705D01*
X2945407Y2310000D01*
X2970000D01*
Y2334593D01*
D02*
G37*
G36*
X2980000D02*
Y2310000D01*
X3004593D01*
X3003259Y2316705D01*
X2996629Y2326629D01*
X2986705Y2333259D01*
X2980000Y2334593D01*
D02*
G37*
G36*
X3035000Y2345000D02*
X3010407D01*
X3011741Y2338295D01*
X3018371Y2328371D01*
X3028295Y2321741D01*
X3035000Y2320407D01*
Y2345000D01*
D02*
G37*
G36*
X2690000Y2284495D02*
X2685245Y2283550D01*
X2676976Y2278024D01*
X2671450Y2269755D01*
X2670505Y2265000D01*
X2690000D01*
Y2284495D01*
D02*
G37*
G36*
X2700000D02*
Y2265000D01*
X2719495D01*
X2718550Y2269755D01*
X2713024Y2278024D01*
X2704755Y2283550D01*
X2700000Y2284495D01*
D02*
G37*
G36*
X2160000Y2286031D02*
X2155245Y2285085D01*
X2146976Y2279559D01*
X2141450Y2271290D01*
X2140505Y2266535D01*
X2160000D01*
Y2286031D01*
D02*
G37*
G36*
X160000Y2325824D02*
X100000D01*
X92346Y2322654D01*
X89176Y2315000D01*
Y2255000D01*
X92346Y2247346D01*
X100000Y2244176D01*
X160000D01*
X167654Y2247346D01*
X170824Y2255000D01*
Y2315000D01*
X167654Y2322654D01*
X160000Y2325824D01*
D02*
G37*
G36*
X225000Y2280000D02*
X190211D01*
X192321Y2269393D01*
X201162Y2256162D01*
X214393Y2247321D01*
X225000Y2245211D01*
Y2280000D01*
D02*
G37*
G36*
X269789D02*
X235000D01*
Y2245211D01*
X245607Y2247321D01*
X258838Y2256162D01*
X267679Y2269393D01*
X269789Y2280000D01*
D02*
G37*
G36*
X2170000Y2286031D02*
Y2266535D01*
X2189495D01*
X2188550Y2271290D01*
X2183024Y2279559D01*
X2174755Y2285085D01*
X2170000Y2286031D01*
D02*
G37*
G36*
X3004593Y2300000D02*
X2980000D01*
Y2275407D01*
X2986705Y2276741D01*
X2996629Y2283371D01*
X3003259Y2293295D01*
X3004593Y2300000D01*
D02*
G37*
G36*
X3300000Y2310000D02*
X3275407D01*
X3276741Y2303295D01*
X3283371Y2293371D01*
X3293295Y2286741D01*
X3300000Y2285407D01*
Y2310000D01*
D02*
G37*
G36*
X3334593D02*
X3310000D01*
Y2285407D01*
X3316705Y2286741D01*
X3326629Y2293371D01*
X3333259Y2303295D01*
X3334593Y2310000D01*
D02*
G37*
G36*
X3380000Y2294593D02*
X3373295Y2293259D01*
X3363371Y2286629D01*
X3356741Y2276705D01*
X3355407Y2270000D01*
X3380000D01*
Y2294593D01*
D02*
G37*
G36*
X3390000D02*
Y2270000D01*
X3414593D01*
X3413259Y2276705D01*
X3406629Y2286629D01*
X3396705Y2293259D01*
X3390000Y2294593D01*
D02*
G37*
G36*
X2970000Y2300000D02*
X2945407D01*
X2946741Y2293295D01*
X2953371Y2283371D01*
X2963295Y2276741D01*
X2970000Y2275407D01*
Y2300000D01*
D02*
G37*
G36*
X528000Y2404593D02*
Y2380000D01*
X552593D01*
X551259Y2386705D01*
X544629Y2396629D01*
X534705Y2403259D01*
X528000Y2404593D01*
D02*
G37*
G36*
X1592000Y2414000D02*
X1567407D01*
X1568741Y2407295D01*
X1575371Y2397371D01*
X1585295Y2390741D01*
X1592000Y2389407D01*
Y2414000D01*
D02*
G37*
G36*
X1626593D02*
X1602000D01*
Y2389407D01*
X1608705Y2390741D01*
X1618629Y2397371D01*
X1625259Y2407295D01*
X1626593Y2414000D01*
D02*
G37*
G36*
X1514000Y2400593D02*
X1507295Y2399259D01*
X1497371Y2392629D01*
X1490741Y2382705D01*
X1489407Y2376000D01*
X1514000D01*
Y2400593D01*
D02*
G37*
G36*
X1524000D02*
Y2376000D01*
X1548593D01*
X1547259Y2382705D01*
X1540629Y2392629D01*
X1530705Y2399259D01*
X1524000Y2400593D01*
D02*
G37*
G36*
X518000Y2404593D02*
X511295Y2403259D01*
X501371Y2396629D01*
X494741Y2386705D01*
X493407Y2380000D01*
X518000D01*
Y2404593D01*
D02*
G37*
G36*
X3800000Y2414593D02*
X3793295Y2413259D01*
X3783371Y2406629D01*
X3776741Y2396705D01*
X3775407Y2390000D01*
X3800000D01*
Y2414593D01*
D02*
G37*
G36*
X3550000Y2490784D02*
X3534393Y2487679D01*
X3521162Y2478838D01*
X3512321Y2465607D01*
X3509216Y2450000D01*
X3512321Y2434393D01*
X3521162Y2421162D01*
X3534393Y2412321D01*
X3550000Y2409216D01*
X3565607Y2412321D01*
X3578838Y2421162D01*
X3587679Y2434393D01*
X3590784Y2450000D01*
X3587679Y2465607D01*
X3578838Y2478838D01*
X3565607Y2487679D01*
X3550000Y2490784D01*
D02*
G37*
G36*
X3645000Y2445000D02*
X3610211D01*
X3612321Y2434393D01*
X3621162Y2421162D01*
X3634393Y2412321D01*
X3645000Y2410211D01*
Y2445000D01*
D02*
G37*
G36*
X3689789D02*
X3655000D01*
Y2410211D01*
X3665607Y2412321D01*
X3678838Y2421162D01*
X3687679Y2434393D01*
X3689789Y2445000D01*
D02*
G37*
G36*
X3810000Y2414593D02*
Y2390000D01*
X3834593D01*
X3833259Y2396705D01*
X3826629Y2406629D01*
X3816705Y2413259D01*
X3810000Y2414593D01*
D02*
G37*
G36*
X3350000Y2490784D02*
X3334393Y2487679D01*
X3321162Y2478838D01*
X3312321Y2465607D01*
X3309216Y2450000D01*
X3312321Y2434393D01*
X3321162Y2421162D01*
X3334393Y2412321D01*
X3350000Y2409216D01*
X3365607Y2412321D01*
X3378838Y2421162D01*
X3387679Y2434393D01*
X3390784Y2450000D01*
X3387679Y2465607D01*
X3378838Y2478838D01*
X3365607Y2487679D01*
X3350000Y2490784D01*
D02*
G37*
G36*
X3450000D02*
X3434393Y2487679D01*
X3421162Y2478838D01*
X3412321Y2465607D01*
X3409216Y2450000D01*
X3412321Y2434393D01*
X3421162Y2421162D01*
X3434393Y2412321D01*
X3450000Y2409216D01*
X3465607Y2412321D01*
X3478838Y2421162D01*
X3487679Y2434393D01*
X3490784Y2450000D01*
X3487679Y2465607D01*
X3478838Y2478838D01*
X3465607Y2487679D01*
X3450000Y2490784D01*
D02*
G37*
G36*
X1514000Y2366000D02*
X1489407D01*
X1490741Y2359295D01*
X1497371Y2349371D01*
X1507295Y2342741D01*
X1514000Y2341407D01*
Y2366000D01*
D02*
G37*
G36*
X1548593D02*
X1524000D01*
Y2341407D01*
X1530705Y2342741D01*
X1540629Y2349371D01*
X1547259Y2359295D01*
X1548593Y2366000D01*
D02*
G37*
G36*
X518000Y2370000D02*
X493407D01*
X494741Y2363295D01*
X501371Y2353371D01*
X511295Y2346741D01*
X518000Y2345407D01*
Y2370000D01*
D02*
G37*
G36*
X3710000Y2359593D02*
X3703295Y2358259D01*
X3693371Y2351629D01*
X3686741Y2341705D01*
X3685407Y2335000D01*
X3710000D01*
Y2359593D01*
D02*
G37*
G36*
X3720000D02*
Y2335000D01*
X3744593D01*
X3743259Y2341705D01*
X3736629Y2351629D01*
X3726705Y2358259D01*
X3720000Y2359593D01*
D02*
G37*
G36*
X1358000Y2361593D02*
X1351295Y2360259D01*
X1341371Y2353629D01*
X1334741Y2343705D01*
X1333407Y2337000D01*
X1358000D01*
Y2361593D01*
D02*
G37*
G36*
X552593Y2370000D02*
X528000D01*
Y2345407D01*
X534705Y2346741D01*
X544629Y2353371D01*
X551259Y2363295D01*
X552593Y2370000D01*
D02*
G37*
G36*
X3834593Y2380000D02*
X3810000D01*
Y2355407D01*
X3816705Y2356741D01*
X3826629Y2363371D01*
X3833259Y2373295D01*
X3834593Y2380000D01*
D02*
G37*
G36*
X700000Y2384593D02*
X693295Y2383259D01*
X683371Y2376629D01*
X676741Y2366705D01*
X675407Y2360000D01*
X700000D01*
Y2384593D01*
D02*
G37*
G36*
X710000D02*
Y2360000D01*
X734593D01*
X733259Y2366705D01*
X726629Y2376629D01*
X716705Y2383259D01*
X710000Y2384593D01*
D02*
G37*
G36*
X3035000Y2379593D02*
X3028295Y2378259D01*
X3018371Y2371629D01*
X3011741Y2361705D01*
X3010407Y2355000D01*
X3035000D01*
Y2379593D01*
D02*
G37*
G36*
X3045000D02*
Y2355000D01*
X3069593D01*
X3068259Y2361705D01*
X3061629Y2371629D01*
X3051705Y2378259D01*
X3045000Y2379593D01*
D02*
G37*
G36*
X3800000Y2380000D02*
X3775407D01*
X3776741Y2373295D01*
X3783371Y2363371D01*
X3793295Y2356741D01*
X3800000Y2355407D01*
Y2380000D01*
D02*
G37*
G36*
X1229000Y2064000D02*
X1194211D01*
X1196321Y2053393D01*
X1205162Y2040162D01*
X1218393Y2031321D01*
X1229000Y2029211D01*
Y2064000D01*
D02*
G37*
G36*
X1273789D02*
X1239000D01*
Y2029211D01*
X1249607Y2031321D01*
X1262838Y2040162D01*
X1271679Y2053393D01*
X1273789Y2064000D01*
D02*
G37*
G36*
X390000Y2065000D02*
X365407D01*
X366741Y2058295D01*
X373371Y2048371D01*
X383295Y2041741D01*
X390000Y2040407D01*
Y2065000D01*
D02*
G37*
G36*
X424593D02*
X400000D01*
Y2040407D01*
X406705Y2041741D01*
X416629Y2048371D01*
X423259Y2058295D01*
X424593Y2065000D01*
D02*
G37*
G36*
X3685410Y2258619D02*
X3636592D01*
X3628938Y2255449D01*
X3625768Y2247795D01*
Y2128417D01*
X3623767Y2125423D01*
X3620699Y2110000D01*
X3623767Y2094577D01*
X3625768Y2091583D01*
Y1972205D01*
X3628938Y1964551D01*
X3636592Y1961381D01*
X3685410D01*
X3693064Y1964551D01*
X3696234Y1972205D01*
Y2091583D01*
X3698235Y2094577D01*
X3701303Y2110000D01*
X3698235Y2125423D01*
X3696234Y2128417D01*
Y2247795D01*
X3693064Y2255449D01*
X3685410Y2258619D01*
D02*
G37*
G36*
X775000Y1974593D02*
Y1950000D01*
X799593D01*
X798259Y1956705D01*
X791629Y1966629D01*
X781705Y1973259D01*
X775000Y1974593D01*
D02*
G37*
G36*
X3513166Y2278304D02*
X3469859D01*
X3462206Y2275134D01*
X3459035Y2267480D01*
Y1952520D01*
X3462206Y1944866D01*
X3469859Y1941696D01*
X3513166D01*
X3520820Y1944866D01*
X3523990Y1952520D01*
Y1967232D01*
X3528990Y1968227D01*
X3530513Y1964551D01*
X3538166Y1961381D01*
X3557576D01*
Y2110000D01*
Y2258619D01*
X3538166D01*
X3530513Y2255449D01*
X3528990Y2251773D01*
X3523990Y2252768D01*
Y2267480D01*
X3520820Y2275134D01*
X3513166Y2278304D01*
D02*
G37*
G36*
X3600308Y2105000D02*
X3567576D01*
Y1961381D01*
X3586985D01*
X3594639Y1964551D01*
X3597809Y1972205D01*
Y2093940D01*
X3598235Y2094577D01*
X3600308Y2105000D01*
D02*
G37*
G36*
X290000Y1999593D02*
X283295Y1998259D01*
X273371Y1991629D01*
X266741Y1981705D01*
X265407Y1975000D01*
X290000D01*
Y1999593D01*
D02*
G37*
G36*
X530000Y2165000D02*
X505407D01*
X506741Y2158295D01*
X513371Y2148371D01*
X523295Y2141741D01*
X530000Y2140407D01*
Y2165000D01*
D02*
G37*
G36*
X564593D02*
X540000D01*
Y2140407D01*
X546705Y2141741D01*
X556629Y2148371D01*
X563259Y2158295D01*
X564593Y2165000D01*
D02*
G37*
G36*
X530000Y2199593D02*
X523295Y2198259D01*
X513371Y2191629D01*
X506741Y2181705D01*
X505407Y2175000D01*
X530000D01*
Y2199593D01*
D02*
G37*
G36*
X3586985Y2258619D02*
X3567576D01*
Y2115000D01*
X3600308D01*
X3598235Y2125423D01*
X3597809Y2126060D01*
Y2247795D01*
X3594639Y2255449D01*
X3586985Y2258619D01*
D02*
G37*
G36*
X540000Y2199593D02*
Y2175000D01*
X564593D01*
X563259Y2181705D01*
X556629Y2191629D01*
X546705Y2198259D01*
X540000Y2199593D01*
D02*
G37*
G36*
X2719495Y2255000D02*
X2700000D01*
Y2235505D01*
X2704755Y2236450D01*
X2713024Y2241976D01*
X2718550Y2250245D01*
X2719495Y2255000D01*
D02*
G37*
G36*
X2160000Y2256535D02*
X2140505D01*
X2141450Y2251781D01*
X2146976Y2243511D01*
X2155245Y2237986D01*
X2160000Y2237040D01*
Y2256535D01*
D02*
G37*
G36*
X2189495D02*
X2170000D01*
Y2237040D01*
X2174755Y2237986D01*
X2183024Y2243511D01*
X2188550Y2251781D01*
X2189495Y2256535D01*
D02*
G37*
G36*
X3380000Y2260000D02*
X3355407D01*
X3356741Y2253295D01*
X3363371Y2243371D01*
X3373295Y2236741D01*
X3380000Y2235407D01*
Y2260000D01*
D02*
G37*
G36*
X3414593D02*
X3390000D01*
Y2235407D01*
X3396705Y2236741D01*
X3406629Y2243371D01*
X3413259Y2253295D01*
X3414593Y2260000D01*
D02*
G37*
G36*
X2690000Y2255000D02*
X2670505D01*
X2671450Y2250245D01*
X2676976Y2241976D01*
X2685245Y2236450D01*
X2690000Y2235505D01*
Y2255000D01*
D02*
G37*
G36*
X1229000Y2108789D02*
X1218393Y2106679D01*
X1205162Y2097838D01*
X1196321Y2084607D01*
X1194211Y2074000D01*
X1229000D01*
Y2108789D01*
D02*
G37*
G36*
X1239000D02*
Y2074000D01*
X1273789D01*
X1271679Y2084607D01*
X1262838Y2097838D01*
X1249607Y2106679D01*
X1239000Y2108789D01*
D02*
G37*
G36*
X390000Y2099593D02*
X383295Y2098259D01*
X373371Y2091629D01*
X366741Y2081705D01*
X365407Y2075000D01*
X390000D01*
Y2099593D01*
D02*
G37*
G36*
X400000D02*
Y2075000D01*
X424593D01*
X423259Y2081705D01*
X416629Y2091629D01*
X406705Y2098259D01*
X400000Y2099593D01*
D02*
G37*
%LPD*%
G36*
X70000Y1875000D02*
X95000Y1850000D01*
X95000Y1783150D01*
X70000Y1758149D01*
Y1730000D01*
X-40000Y1730000D01*
Y1905000D01*
X70000D01*
X70000Y1875000D01*
D02*
G37*
%LPC*%
G36*
X3725000Y1194495D02*
X3720245Y1193550D01*
X3711976Y1188024D01*
X3706450Y1179755D01*
X3705505Y1175000D01*
X3725000D01*
Y1194495D01*
D02*
G37*
G36*
X3735000D02*
Y1175000D01*
X3754495D01*
X3753550Y1179755D01*
X3748024Y1188024D01*
X3739755Y1193550D01*
X3735000Y1194495D01*
D02*
G37*
G36*
X2930000D02*
Y1175000D01*
X2949495D01*
X2948550Y1179755D01*
X2943024Y1188024D01*
X2934755Y1193550D01*
X2930000Y1194495D01*
D02*
G37*
G36*
X3610000D02*
X3605245Y1193550D01*
X3596976Y1188024D01*
X3591450Y1179755D01*
X3590505Y1175000D01*
X3610000D01*
Y1194495D01*
D02*
G37*
G36*
X3620000D02*
Y1175000D01*
X3639495D01*
X3638550Y1179755D01*
X3633024Y1188024D01*
X3624755Y1193550D01*
X3620000Y1194495D01*
D02*
G37*
G36*
X3150000Y1204495D02*
X3145245Y1203550D01*
X3136976Y1198024D01*
X3131450Y1189755D01*
X3130505Y1185000D01*
X3150000D01*
Y1204495D01*
D02*
G37*
G36*
X3160000D02*
Y1185000D01*
X3179495D01*
X3178550Y1189755D01*
X3173024Y1198024D01*
X3164755Y1203550D01*
X3160000Y1204495D01*
D02*
G37*
G36*
X2920000Y1194495D02*
X2915245Y1193550D01*
X2906976Y1188024D01*
X2901450Y1179755D01*
X2900505Y1175000D01*
X2920000D01*
Y1194495D01*
D02*
G37*
G36*
X1885000D02*
X1880245Y1193550D01*
X1871976Y1188024D01*
X1866450Y1179755D01*
X1865505Y1175000D01*
X1885000D01*
Y1194495D01*
D02*
G37*
G36*
X1895000D02*
Y1175000D01*
X1914495D01*
X1913550Y1179755D01*
X1908024Y1188024D01*
X1899755Y1193550D01*
X1895000Y1194495D01*
D02*
G37*
G36*
X2115000D02*
X2110245Y1193550D01*
X2101976Y1188024D01*
X2096450Y1179755D01*
X2095505Y1175000D01*
X2115000D01*
Y1194495D01*
D02*
G37*
G36*
X1770000D02*
X1765245Y1193550D01*
X1756976Y1188024D01*
X1751450Y1179755D01*
X1750505Y1175000D01*
X1770000D01*
Y1194495D01*
D02*
G37*
G36*
X1780000D02*
Y1175000D01*
X1799495D01*
X1798550Y1179755D01*
X1793024Y1188024D01*
X1784755Y1193550D01*
X1780000Y1194495D01*
D02*
G37*
G36*
X2125000D02*
Y1175000D01*
X2144495D01*
X2143550Y1179755D01*
X2138024Y1188024D01*
X2129755Y1193550D01*
X2125000Y1194495D01*
D02*
G37*
G36*
X2700000D02*
Y1175000D01*
X2719495D01*
X2718550Y1179755D01*
X2713024Y1188024D01*
X2704755Y1193550D01*
X2700000Y1194495D01*
D02*
G37*
G36*
X2805000D02*
X2800245Y1193550D01*
X2791976Y1188024D01*
X2786450Y1179755D01*
X2785505Y1175000D01*
X2805000D01*
Y1194495D01*
D02*
G37*
G36*
X2815000D02*
Y1175000D01*
X2834495D01*
X2833550Y1179755D01*
X2828024Y1188024D01*
X2819755Y1193550D01*
X2815000Y1194495D01*
D02*
G37*
G36*
X2575000D02*
X2570245Y1193550D01*
X2561976Y1188024D01*
X2556450Y1179755D01*
X2555505Y1175000D01*
X2575000D01*
Y1194495D01*
D02*
G37*
G36*
X2585000D02*
Y1175000D01*
X2604495D01*
X2603550Y1179755D01*
X2598024Y1188024D01*
X2589755Y1193550D01*
X2585000Y1194495D01*
D02*
G37*
G36*
X2690000D02*
X2685245Y1193550D01*
X2676976Y1188024D01*
X2671450Y1179755D01*
X2670505Y1175000D01*
X2690000D01*
Y1194495D01*
D02*
G37*
G36*
X2445000Y1284789D02*
X2434393Y1282679D01*
X2421162Y1273838D01*
X2412321Y1260607D01*
X2410211Y1250000D01*
X2445000D01*
Y1284789D01*
D02*
G37*
G36*
X1856995Y1250000D02*
X1837500D01*
Y1230505D01*
X1842255Y1231450D01*
X1850524Y1236976D01*
X1856050Y1245245D01*
X1856995Y1250000D01*
D02*
G37*
G36*
X3207500D02*
X3188005D01*
X3188950Y1245245D01*
X3194476Y1236976D01*
X3202745Y1231450D01*
X3207500Y1230505D01*
Y1250000D01*
D02*
G37*
G36*
X3236995D02*
X3217500D01*
Y1230505D01*
X3222255Y1231450D01*
X3230524Y1236976D01*
X3236050Y1245245D01*
X3236995Y1250000D01*
D02*
G37*
G36*
X2455000Y1284789D02*
Y1250000D01*
X2489789D01*
X2487679Y1260607D01*
X2478838Y1273838D01*
X2465607Y1282679D01*
X2455000Y1284789D01*
D02*
G37*
G36*
X3217500Y1279495D02*
Y1260000D01*
X3236995D01*
X3236050Y1264755D01*
X3230524Y1273024D01*
X3222255Y1278550D01*
X3217500Y1279495D01*
D02*
G37*
G36*
X1827500D02*
X1822745Y1278550D01*
X1814476Y1273024D01*
X1808950Y1264755D01*
X1808005Y1260000D01*
X1827500D01*
Y1279495D01*
D02*
G37*
G36*
X1837500D02*
Y1260000D01*
X1856995D01*
X1856050Y1264755D01*
X1850524Y1273024D01*
X1842255Y1278550D01*
X1837500Y1279495D01*
D02*
G37*
G36*
X3207500D02*
X3202745Y1278550D01*
X3194476Y1273024D01*
X3188950Y1264755D01*
X3188005Y1260000D01*
X3207500D01*
Y1279495D01*
D02*
G37*
G36*
X2445000Y1240000D02*
X2410211D01*
X2412321Y1229393D01*
X2421162Y1216162D01*
X2434393Y1207321D01*
X2445000Y1205211D01*
Y1240000D01*
D02*
G37*
G36*
X2489789D02*
X2455000D01*
Y1205211D01*
X2465607Y1207321D01*
X2478838Y1216162D01*
X2487679Y1229393D01*
X2489789Y1240000D01*
D02*
G37*
G36*
X3265000Y1209495D02*
X3260245Y1208550D01*
X3251976Y1203024D01*
X3246450Y1194755D01*
X3245505Y1190000D01*
X3265000D01*
Y1209495D01*
D02*
G37*
G36*
X3275000D02*
Y1190000D01*
X3294495D01*
X3293550Y1194755D01*
X3288024Y1203024D01*
X3279755Y1208550D01*
X3275000Y1209495D01*
D02*
G37*
G36*
X1827500Y1250000D02*
X1808005D01*
X1808950Y1245245D01*
X1814476Y1236976D01*
X1822745Y1231450D01*
X1827500Y1230505D01*
Y1250000D01*
D02*
G37*
G36*
X2182500Y1119495D02*
X2177745Y1118550D01*
X2169476Y1113024D01*
X2163950Y1104755D01*
X2163005Y1100000D01*
X2182500D01*
Y1119495D01*
D02*
G37*
G36*
X2192500D02*
Y1100000D01*
X2211995D01*
X2211050Y1104755D01*
X2205524Y1113024D01*
X2197255Y1118550D01*
X2192500Y1119495D01*
D02*
G37*
G36*
X2284000D02*
X2279245Y1118550D01*
X2270976Y1113024D01*
X2265450Y1104755D01*
X2264505Y1100000D01*
X2284000D01*
Y1119495D01*
D02*
G37*
G36*
X2872500Y1109495D02*
Y1090000D01*
X2891995D01*
X2891050Y1094755D01*
X2885524Y1103024D01*
X2877255Y1108550D01*
X2872500Y1109495D01*
D02*
G37*
G36*
X2977500D02*
X2972745Y1108550D01*
X2964476Y1103024D01*
X2958950Y1094755D01*
X2958005Y1090000D01*
X2977500D01*
Y1109495D01*
D02*
G37*
G36*
X2987500D02*
Y1090000D01*
X3006995D01*
X3006050Y1094755D01*
X3000524Y1103024D01*
X2992255Y1108550D01*
X2987500Y1109495D01*
D02*
G37*
G36*
X2294000Y1119495D02*
Y1100000D01*
X2313495D01*
X2312550Y1104755D01*
X2307024Y1113024D01*
X2298755Y1118550D01*
X2294000Y1119495D01*
D02*
G37*
G36*
X2762500D02*
Y1100000D01*
X2781995D01*
X2781050Y1104755D01*
X2775524Y1113024D01*
X2767255Y1118550D01*
X2762500Y1119495D01*
D02*
G37*
G36*
X1817745Y1133045D02*
X1812991Y1132099D01*
X1804722Y1126573D01*
X1799196Y1118304D01*
X1798250Y1113550D01*
X1817745D01*
Y1133045D01*
D02*
G37*
G36*
X1827745D02*
Y1113550D01*
X1847241D01*
X1846295Y1118304D01*
X1840770Y1126573D01*
X1832500Y1132099D01*
X1827745Y1133045D01*
D02*
G37*
G36*
X2637500Y1119495D02*
X2632745Y1118550D01*
X2624476Y1113024D01*
X2618950Y1104755D01*
X2618005Y1100000D01*
X2637500D01*
Y1119495D01*
D02*
G37*
G36*
X2647500D02*
Y1100000D01*
X2666995D01*
X2666050Y1104755D01*
X2660524Y1113024D01*
X2652255Y1118550D01*
X2647500Y1119495D01*
D02*
G37*
G36*
X2752500D02*
X2747745Y1118550D01*
X2739476Y1113024D01*
X2733950Y1104755D01*
X2733005Y1100000D01*
X2752500D01*
Y1119495D01*
D02*
G37*
G36*
X2666995Y1090000D02*
X2647500D01*
Y1070505D01*
X2652255Y1071450D01*
X2660524Y1076976D01*
X2666050Y1085245D01*
X2666995Y1090000D01*
D02*
G37*
G36*
X2752500D02*
X2733005D01*
X2733950Y1085245D01*
X2739476Y1076976D01*
X2747745Y1071450D01*
X2752500Y1070505D01*
Y1090000D01*
D02*
G37*
G36*
X2781995D02*
X2762500D01*
Y1070505D01*
X2767255Y1071450D01*
X2775524Y1076976D01*
X2781050Y1085245D01*
X2781995Y1090000D01*
D02*
G37*
G36*
X2284000D02*
X2264505D01*
X2265450Y1085245D01*
X2270976Y1076976D01*
X2279245Y1071450D01*
X2284000Y1070505D01*
Y1090000D01*
D02*
G37*
G36*
X2313495D02*
X2294000D01*
Y1070505D01*
X2298755Y1071450D01*
X2307024Y1076976D01*
X2312550Y1085245D01*
X2313495Y1090000D01*
D02*
G37*
G36*
X2637500D02*
X2618005D01*
X2618950Y1085245D01*
X2624476Y1076976D01*
X2632745Y1071450D01*
X2637500Y1070505D01*
Y1090000D01*
D02*
G37*
G36*
X1847241Y1103550D02*
X1827745D01*
Y1084054D01*
X1832500Y1085000D01*
X1840770Y1090525D01*
X1846295Y1098795D01*
X1847241Y1103550D01*
D02*
G37*
G36*
X1942500Y1109495D02*
X1937745Y1108550D01*
X1929476Y1103024D01*
X1923950Y1094755D01*
X1923005Y1090000D01*
X1942500D01*
Y1109495D01*
D02*
G37*
G36*
X2862500D02*
X2857745Y1108550D01*
X2849476Y1103024D01*
X2843950Y1094755D01*
X2843005Y1090000D01*
X2862500D01*
Y1109495D01*
D02*
G37*
G36*
X1817745Y1103550D02*
X1798250D01*
X1799196Y1098795D01*
X1804722Y1090525D01*
X1812991Y1085000D01*
X1817745Y1084054D01*
Y1103550D01*
D02*
G37*
G36*
X3416143Y1173304D02*
X3372836D01*
X3365182Y1170134D01*
X3362012Y1162480D01*
Y1147768D01*
X3357012Y1146773D01*
X3355490Y1150449D01*
X3347836Y1153619D01*
X3299017D01*
X3291364Y1150449D01*
X3288193Y1142795D01*
Y1042335D01*
X3287820Y1042181D01*
X3284650Y1034527D01*
Y975472D01*
X3287820Y967819D01*
X3288193Y967664D01*
Y867205D01*
X3291364Y859551D01*
X3299017Y856381D01*
X3347836D01*
X3355490Y859551D01*
X3357012Y863226D01*
X3362012Y862232D01*
Y847519D01*
X3365182Y839866D01*
X3372836Y836696D01*
X3416143D01*
X3423797Y839866D01*
X3426967Y847519D01*
Y1162480D01*
X3423797Y1170134D01*
X3416143Y1173304D01*
D02*
G37*
G36*
X2834495Y1165000D02*
X2815000D01*
Y1145505D01*
X2819755Y1146450D01*
X2828024Y1151976D01*
X2833550Y1160245D01*
X2834495Y1165000D01*
D02*
G37*
G36*
X2920000D02*
X2900505D01*
X2901450Y1160245D01*
X2906976Y1151976D01*
X2915245Y1146450D01*
X2920000Y1145505D01*
Y1165000D01*
D02*
G37*
G36*
X2949495D02*
X2930000D01*
Y1145505D01*
X2934755Y1146450D01*
X2943024Y1151976D01*
X2948550Y1160245D01*
X2949495Y1165000D01*
D02*
G37*
G36*
X2211976Y1176471D02*
X2207222Y1175525D01*
X2198952Y1170000D01*
X2193427Y1161730D01*
X2192481Y1156976D01*
X2211976D01*
Y1176471D01*
D02*
G37*
G36*
X3265000Y1180000D02*
X3245505D01*
X3246450Y1175245D01*
X3251976Y1166976D01*
X3260245Y1161450D01*
X3265000Y1160505D01*
Y1180000D01*
D02*
G37*
G36*
X3294495D02*
X3275000D01*
Y1160505D01*
X3279755Y1161450D01*
X3288024Y1166976D01*
X3293550Y1175245D01*
X3294495Y1180000D01*
D02*
G37*
G36*
X2221976Y1176471D02*
Y1156976D01*
X2241471D01*
X2240526Y1161730D01*
X2235000Y1170000D01*
X2226731Y1175525D01*
X2221976Y1176471D01*
D02*
G37*
G36*
X1799495Y1165000D02*
X1780000D01*
Y1145505D01*
X1784755Y1146450D01*
X1793024Y1151976D01*
X1798550Y1160245D01*
X1799495Y1165000D01*
D02*
G37*
G36*
X1885000D02*
X1865505D01*
X1866450Y1160245D01*
X1871976Y1151976D01*
X1880245Y1146450D01*
X1885000Y1145505D01*
Y1165000D01*
D02*
G37*
G36*
X1914495D02*
X1895000D01*
Y1145505D01*
X1899755Y1146450D01*
X1908024Y1151976D01*
X1913550Y1160245D01*
X1914495Y1165000D01*
D02*
G37*
G36*
X2211976Y1146976D02*
X2192481D01*
X2193427Y1142222D01*
X2198952Y1133952D01*
X2207222Y1128427D01*
X2211976Y1127481D01*
Y1146976D01*
D02*
G37*
G36*
X2241471D02*
X2221976D01*
Y1127481D01*
X2226731Y1128427D01*
X2235000Y1133952D01*
X2240526Y1142222D01*
X2241471Y1146976D01*
D02*
G37*
G36*
X1770000Y1165000D02*
X1750505D01*
X1751450Y1160245D01*
X1756976Y1151976D01*
X1765245Y1146450D01*
X1770000Y1145505D01*
Y1165000D01*
D02*
G37*
G36*
X2115000D02*
X2095505D01*
X2096450Y1160245D01*
X2101976Y1151976D01*
X2110245Y1146450D01*
X2115000Y1145505D01*
Y1165000D01*
D02*
G37*
G36*
X2690000D02*
X2670505D01*
X2671450Y1160245D01*
X2676976Y1151976D01*
X2685245Y1146450D01*
X2690000Y1145505D01*
Y1165000D01*
D02*
G37*
G36*
X2719495D02*
X2700000D01*
Y1145505D01*
X2704755Y1146450D01*
X2713024Y1151976D01*
X2718550Y1160245D01*
X2719495Y1165000D01*
D02*
G37*
G36*
X2805000D02*
X2785505D01*
X2786450Y1160245D01*
X2791976Y1151976D01*
X2800245Y1146450D01*
X2805000Y1145505D01*
Y1165000D01*
D02*
G37*
G36*
X2144495D02*
X2125000D01*
Y1145505D01*
X2129755Y1146450D01*
X2138024Y1151976D01*
X2143550Y1160245D01*
X2144495Y1165000D01*
D02*
G37*
G36*
X2575000D02*
X2555505D01*
X2556450Y1160245D01*
X2561976Y1151976D01*
X2570245Y1146450D01*
X2575000Y1145505D01*
Y1165000D01*
D02*
G37*
G36*
X2604495D02*
X2585000D01*
Y1145505D01*
X2589755Y1146450D01*
X2598024Y1151976D01*
X2603550Y1160245D01*
X2604495Y1165000D01*
D02*
G37*
G36*
X2632500Y1449495D02*
X2627745Y1448550D01*
X2619476Y1443024D01*
X2613950Y1434755D01*
X2613005Y1430000D01*
X2632500D01*
Y1449495D01*
D02*
G37*
G36*
X2642500D02*
Y1430000D01*
X2661995D01*
X2661050Y1434755D01*
X2655524Y1443024D01*
X2647255Y1448550D01*
X2642500Y1449495D01*
D02*
G37*
G36*
X2412500D02*
Y1430000D01*
X2431995D01*
X2431050Y1434755D01*
X2425524Y1443024D01*
X2417255Y1448550D01*
X2412500Y1449495D01*
D02*
G37*
G36*
X2517500D02*
X2512745Y1448550D01*
X2504476Y1443024D01*
X2498950Y1434755D01*
X2498005Y1430000D01*
X2517500D01*
Y1449495D01*
D02*
G37*
G36*
X2527500D02*
Y1430000D01*
X2546995D01*
X2546050Y1434755D01*
X2540524Y1443024D01*
X2532255Y1448550D01*
X2527500Y1449495D01*
D02*
G37*
G36*
X2943976Y1488225D02*
X2919449D01*
X2911795Y1485055D01*
X2908625Y1477401D01*
Y1445000D01*
X2943976D01*
Y1488225D01*
D02*
G37*
G36*
X2835000Y1459495D02*
X2830245Y1458550D01*
X2821976Y1453024D01*
X2816450Y1444755D01*
X2815505Y1440000D01*
X2835000D01*
Y1459495D01*
D02*
G37*
G36*
X2845000D02*
Y1440000D01*
X2864495D01*
X2863550Y1444755D01*
X2858024Y1453024D01*
X2849755Y1458550D01*
X2845000Y1459495D01*
D02*
G37*
G36*
X2091375Y1495000D02*
X2051024D01*
X2010672D01*
Y1462599D01*
X2013842Y1454945D01*
X2021496Y1451775D01*
X2048572D01*
X2050089Y1446775D01*
X2044476Y1443024D01*
X2038950Y1434755D01*
X2038005Y1430000D01*
X2086995D01*
X2086050Y1434755D01*
X2080524Y1443024D01*
X2074911Y1446775D01*
X2076428Y1451775D01*
X2080551D01*
X2088205Y1454945D01*
X2091375Y1462599D01*
Y1495000D01*
D02*
G37*
G36*
X2835000Y1430000D02*
X2815505D01*
X2816450Y1425245D01*
X2821976Y1416976D01*
X2830245Y1411450D01*
X2835000Y1410505D01*
Y1430000D01*
D02*
G37*
G36*
X2864495D02*
X2845000D01*
Y1410505D01*
X2849755Y1411450D01*
X2858024Y1416976D01*
X2863550Y1425245D01*
X2864495Y1430000D01*
D02*
G37*
G36*
X1827500Y1449495D02*
X1822745Y1448550D01*
X1814476Y1443024D01*
X1808950Y1434755D01*
X1808005Y1430000D01*
X1827500D01*
Y1449495D01*
D02*
G37*
G36*
X1837500D02*
Y1430000D01*
X1856995D01*
X1856050Y1434755D01*
X1850524Y1443024D01*
X1842255Y1448550D01*
X1837500Y1449495D01*
D02*
G37*
G36*
X2978504Y1488225D02*
X2953976D01*
Y1445000D01*
X2989328D01*
Y1477401D01*
X2986158Y1485055D01*
X2978504Y1488225D01*
D02*
G37*
G36*
X1770000Y1534495D02*
X1765245Y1533550D01*
X1756976Y1528024D01*
X1751450Y1519755D01*
X1750505Y1515000D01*
X1770000D01*
Y1534495D01*
D02*
G37*
G36*
X1780000D02*
Y1515000D01*
X1799495D01*
X1798550Y1519755D01*
X1793024Y1528024D01*
X1784755Y1533550D01*
X1780000Y1534495D01*
D02*
G37*
G36*
X2230000D02*
X2225245Y1533550D01*
X2216976Y1528024D01*
X2211450Y1519755D01*
X2210505Y1515000D01*
X2230000D01*
Y1534495D01*
D02*
G37*
G36*
X2604495Y1505000D02*
X2585000D01*
Y1485505D01*
X2589755Y1486450D01*
X2598024Y1491976D01*
X2603550Y1500245D01*
X2604495Y1505000D01*
D02*
G37*
G36*
X2046024Y1548225D02*
X2021496D01*
X2013842Y1545055D01*
X2010672Y1537401D01*
Y1505000D01*
X2046024D01*
Y1548225D01*
D02*
G37*
G36*
X2080551D02*
X2056024D01*
Y1505000D01*
X2091375D01*
Y1537401D01*
X2088205Y1545055D01*
X2080551Y1548225D01*
D02*
G37*
G36*
X2460000Y1534495D02*
X2455245Y1533550D01*
X2446976Y1528024D01*
X2441450Y1519755D01*
X2440505Y1515000D01*
X2460000D01*
Y1534495D01*
D02*
G37*
G36*
X2470000D02*
Y1515000D01*
X2489495D01*
X2488550Y1519755D01*
X2483024Y1528024D01*
X2474755Y1533550D01*
X2470000Y1534495D01*
D02*
G37*
G36*
X2575000D02*
X2570245Y1533550D01*
X2561976Y1528024D01*
X2556450Y1519755D01*
X2555505Y1515000D01*
X2575000D01*
Y1534495D01*
D02*
G37*
G36*
X2240000D02*
Y1515000D01*
X2259495D01*
X2258550Y1519755D01*
X2253024Y1528024D01*
X2244755Y1533550D01*
X2240000Y1534495D01*
D02*
G37*
G36*
X2345000D02*
X2340245Y1533550D01*
X2331976Y1528024D01*
X2326450Y1519755D01*
X2325505Y1515000D01*
X2345000D01*
Y1534495D01*
D02*
G37*
G36*
X2355000D02*
Y1515000D01*
X2374495D01*
X2373550Y1519755D01*
X2368024Y1528024D01*
X2359755Y1533550D01*
X2355000Y1534495D01*
D02*
G37*
G36*
X2575000Y1505000D02*
X2555505D01*
X2556450Y1500245D01*
X2561976Y1491976D01*
X2570245Y1486450D01*
X2575000Y1485505D01*
Y1505000D01*
D02*
G37*
G36*
X1770000D02*
X1750505D01*
X1751450Y1500245D01*
X1756976Y1491976D01*
X1765245Y1486450D01*
X1770000Y1485505D01*
Y1505000D01*
D02*
G37*
G36*
X1799495D02*
X1780000D01*
Y1485505D01*
X1784755Y1486450D01*
X1793024Y1491976D01*
X1798550Y1500245D01*
X1799495Y1505000D01*
D02*
G37*
G36*
X2374495D02*
X2355000D01*
Y1485505D01*
X2359755Y1486450D01*
X2368024Y1491976D01*
X2373550Y1500245D01*
X2374495Y1505000D01*
D02*
G37*
G36*
X2460000D02*
X2440505D01*
X2441450Y1500245D01*
X2446976Y1491976D01*
X2455245Y1486450D01*
X2460000Y1485505D01*
Y1505000D01*
D02*
G37*
G36*
X2489495D02*
X2470000D01*
Y1485505D01*
X2474755Y1486450D01*
X2483024Y1491976D01*
X2488550Y1500245D01*
X2489495Y1505000D01*
D02*
G37*
G36*
X2230000D02*
X2210505D01*
X2211450Y1500245D01*
X2216976Y1491976D01*
X2225245Y1486450D01*
X2230000Y1485505D01*
Y1505000D01*
D02*
G37*
G36*
X2259495D02*
X2240000D01*
Y1485505D01*
X2244755Y1486450D01*
X2253024Y1491976D01*
X2258550Y1500245D01*
X2259495Y1505000D01*
D02*
G37*
G36*
X2345000D02*
X2325505D01*
X2326450Y1500245D01*
X2331976Y1491976D01*
X2340245Y1486450D01*
X2345000Y1485505D01*
Y1505000D01*
D02*
G37*
G36*
X2661995Y1420000D02*
X2642500D01*
Y1400505D01*
X2647255Y1401450D01*
X2655524Y1406976D01*
X2661050Y1415245D01*
X2661995Y1420000D01*
D02*
G37*
G36*
X2604495Y1335000D02*
X2585000D01*
Y1315505D01*
X2589755Y1316450D01*
X2598024Y1321976D01*
X2603550Y1330245D01*
X2604495Y1335000D01*
D02*
G37*
G36*
X2690000D02*
X2670505D01*
X2671450Y1330245D01*
X2676976Y1321976D01*
X2685245Y1316450D01*
X2690000Y1315505D01*
Y1335000D01*
D02*
G37*
G36*
X2719495D02*
X2700000D01*
Y1315505D01*
X2704755Y1316450D01*
X2713024Y1321976D01*
X2718550Y1330245D01*
X2719495Y1335000D01*
D02*
G37*
G36*
X1770000D02*
X1750505D01*
X1751450Y1330245D01*
X1756976Y1321976D01*
X1765245Y1316450D01*
X1770000Y1315505D01*
Y1335000D01*
D02*
G37*
G36*
X1799495D02*
X1780000D01*
Y1315505D01*
X1784755Y1316450D01*
X1793024Y1321976D01*
X1798550Y1330245D01*
X1799495Y1335000D01*
D02*
G37*
G36*
X2575000D02*
X2555505D01*
X2556450Y1330245D01*
X2561976Y1321976D01*
X2570245Y1316450D01*
X2575000Y1315505D01*
Y1335000D01*
D02*
G37*
G36*
X2805000D02*
X2785505D01*
X2786450Y1330245D01*
X2791976Y1321976D01*
X2800245Y1316450D01*
X2805000Y1315505D01*
Y1335000D01*
D02*
G37*
G36*
X2834495D02*
X2815000D01*
Y1315505D01*
X2819755Y1316450D01*
X2828024Y1321976D01*
X2833550Y1330245D01*
X2834495Y1335000D01*
D02*
G37*
G36*
X3425000Y1290000D02*
X3405505D01*
X3406450Y1285245D01*
X3411976Y1276976D01*
X3420245Y1271450D01*
X3425000Y1270505D01*
Y1290000D01*
D02*
G37*
G36*
Y1319495D02*
X3420245Y1318550D01*
X3411976Y1313024D01*
X3406450Y1304755D01*
X3405505Y1300000D01*
X3425000D01*
Y1319495D01*
D02*
G37*
G36*
X1827500Y1420000D02*
X1808005D01*
X1808950Y1415245D01*
X1814476Y1406976D01*
X1822745Y1401450D01*
X1827500Y1400505D01*
Y1420000D01*
D02*
G37*
G36*
X1856995D02*
X1837500D01*
Y1400505D01*
X1842255Y1401450D01*
X1850524Y1406976D01*
X1856050Y1415245D01*
X1856995Y1420000D01*
D02*
G37*
G36*
X2057500D02*
X2038005D01*
X2038950Y1415245D01*
X2044476Y1406976D01*
X2052745Y1401450D01*
X2057500Y1400505D01*
Y1420000D01*
D02*
G37*
G36*
X2943976Y1435000D02*
X2908625D01*
Y1402599D01*
X2911795Y1394945D01*
X2919449Y1391775D01*
X2943976D01*
Y1435000D01*
D02*
G37*
G36*
X2989328D02*
X2953976D01*
Y1391775D01*
X2978504D01*
X2986158Y1394945D01*
X2989328Y1402599D01*
Y1435000D01*
D02*
G37*
G36*
X2517500Y1420000D02*
X2498005D01*
X2498950Y1415245D01*
X2504476Y1406976D01*
X2512745Y1401450D01*
X2517500Y1400505D01*
Y1420000D01*
D02*
G37*
G36*
X2546995D02*
X2527500D01*
Y1400505D01*
X2532255Y1401450D01*
X2540524Y1406976D01*
X2546050Y1415245D01*
X2546995Y1420000D01*
D02*
G37*
G36*
X2632500D02*
X2613005D01*
X2613950Y1415245D01*
X2619476Y1406976D01*
X2627745Y1401450D01*
X2632500Y1400505D01*
Y1420000D01*
D02*
G37*
G36*
X2086995D02*
X2067500D01*
Y1400505D01*
X2072255Y1401450D01*
X2080524Y1406976D01*
X2086050Y1415245D01*
X2086995Y1420000D01*
D02*
G37*
G36*
X2402500Y1449495D02*
X2397745Y1448550D01*
X2389476Y1443024D01*
X2383950Y1434755D01*
X2383546Y1432719D01*
X2380000Y1430824D01*
X2190000D01*
X2182346Y1427654D01*
X2179176Y1420000D01*
Y1390036D01*
X2086142D01*
X2078488Y1386866D01*
X2075318Y1379213D01*
Y1230787D01*
X2078488Y1223134D01*
X2086142Y1219964D01*
X2179176D01*
Y1210000D01*
X2182346Y1202346D01*
X2190000Y1199176D01*
X2380000D01*
X2387654Y1202346D01*
X2390824Y1210000D01*
Y1400772D01*
X2395234Y1403129D01*
X2397745Y1401450D01*
X2402500Y1400505D01*
Y1425000D01*
Y1449495D01*
D02*
G37*
G36*
X2431995Y1420000D02*
X2412500D01*
Y1400505D01*
X2417255Y1401450D01*
X2425524Y1406976D01*
X2431050Y1415245D01*
X2431995Y1420000D01*
D02*
G37*
G36*
X2575000Y1364495D02*
X2570245Y1363550D01*
X2561976Y1358024D01*
X2556450Y1349755D01*
X2555505Y1345000D01*
X2575000D01*
Y1364495D01*
D02*
G37*
G36*
X2585000D02*
Y1345000D01*
X2604495D01*
X2603550Y1349755D01*
X2598024Y1358024D01*
X2589755Y1363550D01*
X2585000Y1364495D01*
D02*
G37*
G36*
X2690000D02*
X2685245Y1363550D01*
X2676976Y1358024D01*
X2671450Y1349755D01*
X2670505Y1345000D01*
X2690000D01*
Y1364495D01*
D02*
G37*
G36*
X1770000D02*
X1765245Y1363550D01*
X1756976Y1358024D01*
X1751450Y1349755D01*
X1750505Y1345000D01*
X1770000D01*
Y1364495D01*
D02*
G37*
G36*
X1780000D02*
Y1345000D01*
X1799495D01*
X1798550Y1349755D01*
X1793024Y1358024D01*
X1784755Y1363550D01*
X1780000Y1364495D01*
D02*
G37*
G36*
X2700000D02*
Y1345000D01*
X2719495D01*
X2718550Y1349755D01*
X2713024Y1358024D01*
X2704755Y1363550D01*
X2700000Y1364495D01*
D02*
G37*
G36*
X2805000D02*
X2800245Y1363550D01*
X2791976Y1358024D01*
X2786450Y1349755D01*
X2785505Y1345000D01*
X2805000D01*
Y1364495D01*
D02*
G37*
G36*
X2815000D02*
Y1345000D01*
X2834495D01*
X2833550Y1349755D01*
X2828024Y1358024D01*
X2819755Y1363550D01*
X2815000Y1364495D01*
D02*
G37*
G36*
X2211995Y1090000D02*
X2192500D01*
Y1070505D01*
X2197255Y1071450D01*
X2205524Y1076976D01*
X2211050Y1085245D01*
X2211995Y1090000D01*
D02*
G37*
G36*
X3405245Y799054D02*
X3385750D01*
X3386696Y794300D01*
X3392222Y786030D01*
X3400491Y780505D01*
X3405245Y779559D01*
Y799054D01*
D02*
G37*
G36*
X3434741D02*
X3415245D01*
Y779559D01*
X3420000Y780505D01*
X3428269Y786030D01*
X3433795Y794300D01*
X3434741Y799054D01*
D02*
G37*
G36*
X3520245D02*
X3500750D01*
X3501696Y794300D01*
X3507222Y786030D01*
X3515491Y780505D01*
X3520245Y779559D01*
Y799054D01*
D02*
G37*
G36*
X3070000Y800000D02*
X3050505D01*
X3051450Y795245D01*
X3056976Y786976D01*
X3065245Y781451D01*
X3070000Y780505D01*
Y800000D01*
D02*
G37*
G36*
X3099495D02*
X3080000D01*
Y780505D01*
X3084755Y781451D01*
X3093024Y786976D01*
X3098550Y795245D01*
X3099495Y800000D01*
D02*
G37*
G36*
X3185000D02*
X3165505D01*
X3166450Y795245D01*
X3171976Y786976D01*
X3180245Y781451D01*
X3185000Y780505D01*
Y800000D01*
D02*
G37*
G36*
X3549741Y799054D02*
X3530245D01*
Y779559D01*
X3535000Y780505D01*
X3543269Y786030D01*
X3548795Y794300D01*
X3549741Y799054D01*
D02*
G37*
G36*
X3635245D02*
X3615750D01*
X3616696Y794300D01*
X3622222Y786030D01*
X3630491Y780505D01*
X3635245Y779559D01*
Y799054D01*
D02*
G37*
G36*
X3664741D02*
X3645245D01*
Y779559D01*
X3650000Y780505D01*
X3658269Y786030D01*
X3663795Y794300D01*
X3664741Y799054D01*
D02*
G37*
G36*
X2920000Y995000D02*
X2900505D01*
X2901450Y990245D01*
X2906976Y981976D01*
X2915245Y976451D01*
X2920000Y975505D01*
Y995000D01*
D02*
G37*
G36*
X2949495D02*
X2930000D01*
Y975505D01*
X2934755Y976451D01*
X2943024Y981976D01*
X2948550Y990245D01*
X2949495Y995000D01*
D02*
G37*
G36*
X1770000D02*
X1750505D01*
X1751450Y990245D01*
X1756976Y981976D01*
X1765245Y976451D01*
X1770000Y975505D01*
Y995000D01*
D02*
G37*
G36*
X1799495D02*
X1780000D01*
Y975505D01*
X1784755Y976451D01*
X1793024Y981976D01*
X1798550Y990245D01*
X1799495Y995000D01*
D02*
G37*
G36*
X1991976Y1006471D02*
Y986976D01*
X2011471D01*
X2010525Y991731D01*
X2005000Y1000000D01*
X1996730Y1005525D01*
X1991976Y1006471D01*
D02*
G37*
G36*
X1894755Y1000946D02*
X1890000Y1000000D01*
X1881730Y994475D01*
X1876205Y986205D01*
X1875259Y981451D01*
X1894755D01*
Y1000946D01*
D02*
G37*
G36*
X1904755D02*
Y981451D01*
X1924250D01*
X1923304Y986205D01*
X1917778Y994475D01*
X1909509Y1000000D01*
X1904755Y1000946D01*
D02*
G37*
G36*
X1981976Y1006471D02*
X1977222Y1005525D01*
X1968952Y1000000D01*
X1963427Y991731D01*
X1962481Y986976D01*
X1981976D01*
Y1006471D01*
D02*
G37*
G36*
Y976976D02*
X1962481D01*
X1963427Y972221D01*
X1968952Y963952D01*
X1977222Y958427D01*
X1981976Y957481D01*
Y976976D01*
D02*
G37*
G36*
X2011471D02*
X1991976D01*
Y957481D01*
X1996730Y958427D01*
X2005000Y963952D01*
X2010525Y972221D01*
X2011471Y976976D01*
D02*
G37*
G36*
X1894755Y971451D02*
X1875259D01*
X1876205Y966696D01*
X1881730Y958427D01*
X1890000Y952901D01*
X1894755Y951955D01*
Y971451D01*
D02*
G37*
G36*
X1924250D02*
X1904755D01*
Y951955D01*
X1909509Y952901D01*
X1917778Y958427D01*
X1923304Y966696D01*
X1924250Y971451D01*
D02*
G37*
G36*
X1836000Y1073307D02*
X1825577Y1071234D01*
X1812502Y1062498D01*
X1803766Y1049423D01*
X1801693Y1039000D01*
X1836000D01*
Y1073307D01*
D02*
G37*
G36*
X1846000D02*
Y1039000D01*
X1880307D01*
X1878234Y1049423D01*
X1869498Y1062498D01*
X1856423Y1071234D01*
X1846000Y1073307D01*
D02*
G37*
G36*
X2977500Y1080000D02*
X2958005D01*
X2958950Y1075245D01*
X2964476Y1066976D01*
X2972745Y1061450D01*
X2977500Y1060505D01*
Y1080000D01*
D02*
G37*
G36*
X3006995D02*
X2987500D01*
Y1060505D01*
X2992255Y1061450D01*
X3000524Y1066976D01*
X3006050Y1075245D01*
X3006995Y1080000D01*
D02*
G37*
G36*
X2182500Y1090000D02*
X2163005D01*
X2163950Y1085245D01*
X2169476Y1076976D01*
X2177745Y1071450D01*
X2182500Y1070505D01*
Y1090000D01*
D02*
G37*
G36*
X1942500Y1080000D02*
X1923005D01*
X1923950Y1075245D01*
X1929476Y1066976D01*
X1937745Y1061450D01*
X1942500Y1060505D01*
Y1080000D01*
D02*
G37*
G36*
X2862500D02*
X2843005D01*
X2843950Y1075245D01*
X2849476Y1066976D01*
X2857745Y1061450D01*
X2862500Y1060505D01*
Y1080000D01*
D02*
G37*
G36*
X2891995D02*
X2872500D01*
Y1060505D01*
X2877255Y1061450D01*
X2885524Y1066976D01*
X2891050Y1075245D01*
X2891995Y1080000D01*
D02*
G37*
G36*
X1780000Y1024495D02*
Y1005000D01*
X1799495D01*
X1798550Y1009755D01*
X1793024Y1018024D01*
X1784755Y1023549D01*
X1780000Y1024495D01*
D02*
G37*
G36*
X2920000D02*
X2915245Y1023549D01*
X2906976Y1018024D01*
X2901450Y1009755D01*
X2900505Y1005000D01*
X2920000D01*
Y1024495D01*
D02*
G37*
G36*
X2930000D02*
Y1005000D01*
X2949495D01*
X2948550Y1009755D01*
X2943024Y1018024D01*
X2934755Y1023549D01*
X2930000Y1024495D01*
D02*
G37*
G36*
X1836000Y1029000D02*
X1801693D01*
X1803766Y1018577D01*
X1812502Y1005502D01*
X1825577Y996766D01*
X1836000Y994693D01*
Y1029000D01*
D02*
G37*
G36*
X1880307D02*
X1846000D01*
Y994693D01*
X1856423Y996766D01*
X1869498Y1005502D01*
X1878234Y1018577D01*
X1880307Y1029000D01*
D02*
G37*
G36*
X1770000Y1024495D02*
X1765245Y1023549D01*
X1756976Y1018024D01*
X1751450Y1009755D01*
X1750505Y1005000D01*
X1770000D01*
Y1024495D01*
D02*
G37*
G36*
X3249411Y1153619D02*
X3230001D01*
Y1010000D01*
X3264309D01*
X3262236Y1020423D01*
X3260235Y1023417D01*
Y1142795D01*
X3257065Y1150449D01*
X3249411Y1153619D01*
D02*
G37*
G36*
X3179495Y1175000D02*
X3130505D01*
X3131450Y1170245D01*
X3136976Y1161976D01*
X3142000Y1158619D01*
X3140483Y1153619D01*
X3131576D01*
Y1010000D01*
X3164309D01*
X3162236Y1020423D01*
X3161810Y1021060D01*
Y1142795D01*
X3158759Y1150160D01*
X3158672Y1150608D01*
X3159662Y1155437D01*
X3164755Y1156450D01*
X3173024Y1161976D01*
X3178550Y1170245D01*
X3179495Y1175000D01*
D02*
G37*
G36*
X3220001Y1153619D02*
X3200592D01*
X3192938Y1150449D01*
X3189768Y1142795D01*
Y1023417D01*
X3187767Y1020423D01*
X3185694Y1010000D01*
X3220001D01*
Y1153619D01*
D02*
G37*
G36*
X3310000Y829495D02*
Y810000D01*
X3329495D01*
X3328550Y814755D01*
X3323024Y823024D01*
X3314755Y828549D01*
X3310000Y829495D01*
D02*
G37*
G36*
X3185000D02*
X3180245Y828549D01*
X3171976Y823024D01*
X3166450Y814755D01*
X3165505Y810000D01*
X3185000D01*
Y829495D01*
D02*
G37*
G36*
X3195000D02*
Y810000D01*
X3214495D01*
X3213550Y814755D01*
X3208024Y823024D01*
X3199755Y828549D01*
X3195000Y829495D01*
D02*
G37*
G36*
X3300000D02*
X3295245Y828549D01*
X3286976Y823024D01*
X3281450Y814755D01*
X3280505Y810000D01*
X3300000D01*
Y829495D01*
D02*
G37*
G36*
X3077167Y1173304D02*
X3033860D01*
X3026206Y1170134D01*
X3023036Y1162480D01*
Y847519D01*
X3026206Y839866D01*
X3033860Y836696D01*
X3077167D01*
X3084820Y839866D01*
X3087991Y847519D01*
Y862232D01*
X3092991Y863226D01*
X3094513Y859551D01*
X3102167Y856381D01*
X3121576D01*
Y1005000D01*
Y1153619D01*
X3102167D01*
X3094513Y1150449D01*
X3092991Y1146773D01*
X3087991Y1147768D01*
Y1162480D01*
X3084820Y1170134D01*
X3077167Y1173304D01*
D02*
G37*
G36*
X3164309Y1000000D02*
X3131576D01*
Y856381D01*
X3150986D01*
X3158639Y859551D01*
X3161810Y867205D01*
Y988939D01*
X3162236Y989577D01*
X3164309Y1000000D01*
D02*
G37*
G36*
X3220001D02*
X3185694D01*
X3187767Y989577D01*
X3189768Y986582D01*
Y867205D01*
X3192938Y859551D01*
X3200592Y856381D01*
X3220001D01*
Y1000000D01*
D02*
G37*
G36*
X3405245Y828549D02*
X3400491Y827604D01*
X3392222Y822078D01*
X3386696Y813809D01*
X3385750Y809054D01*
X3405245D01*
Y828549D01*
D02*
G37*
G36*
X3214495Y800000D02*
X3195000D01*
Y780505D01*
X3199755Y781451D01*
X3208024Y786976D01*
X3213550Y795245D01*
X3214495Y800000D01*
D02*
G37*
G36*
X3300000D02*
X3280505D01*
X3281450Y795245D01*
X3286976Y786976D01*
X3295245Y781451D01*
X3300000Y780505D01*
Y800000D01*
D02*
G37*
G36*
X3329495D02*
X3310000D01*
Y780505D01*
X3314755Y781451D01*
X3323024Y786976D01*
X3328550Y795245D01*
X3329495Y800000D01*
D02*
G37*
G36*
X3415245Y828549D02*
Y809054D01*
X3434741D01*
X3433795Y813809D01*
X3428269Y822078D01*
X3420000Y827604D01*
X3415245Y828549D01*
D02*
G37*
G36*
X3645245D02*
Y809054D01*
X3664741D01*
X3663795Y813809D01*
X3658269Y822078D01*
X3650000Y827604D01*
X3645245Y828549D01*
D02*
G37*
G36*
X3070000Y829495D02*
X3065245Y828549D01*
X3056976Y823024D01*
X3051450Y814755D01*
X3050505Y810000D01*
X3070000D01*
Y829495D01*
D02*
G37*
G36*
X3080000D02*
Y810000D01*
X3099495D01*
X3098550Y814755D01*
X3093024Y823024D01*
X3084755Y828549D01*
X3080000Y829495D01*
D02*
G37*
G36*
X3520245Y828549D02*
X3515491Y827604D01*
X3507222Y822078D01*
X3501696Y813809D01*
X3500750Y809054D01*
X3520245D01*
Y828549D01*
D02*
G37*
G36*
X3530245D02*
Y809054D01*
X3549741D01*
X3548795Y813809D01*
X3543269Y822078D01*
X3535000Y827604D01*
X3530245Y828549D01*
D02*
G37*
G36*
X3635245D02*
X3630491Y827604D01*
X3622222Y822078D01*
X3616696Y813809D01*
X3615750Y809054D01*
X3635245D01*
Y828549D01*
D02*
G37*
G36*
X3264309Y1000000D02*
X3230001D01*
Y856381D01*
X3249411D01*
X3257065Y859551D01*
X3260235Y867205D01*
Y986582D01*
X3262236Y989577D01*
X3264309Y1000000D01*
D02*
G37*
G36*
X3507164Y1173304D02*
X3463857D01*
X3456203Y1170134D01*
X3453033Y1162480D01*
Y847520D01*
X3456203Y839866D01*
X3463857Y836696D01*
X3507164D01*
X3514818Y839866D01*
X3517988Y847520D01*
Y862232D01*
X3522988Y863227D01*
X3524510Y859551D01*
X3532164Y856381D01*
X3580983D01*
X3588636Y859551D01*
X3591807Y867205D01*
Y988940D01*
X3592233Y989577D01*
X3595300Y1005000D01*
X3592233Y1020423D01*
X3591807Y1021060D01*
Y1142795D01*
X3588636Y1150449D01*
X3580983Y1153619D01*
X3532164D01*
X3524510Y1150449D01*
X3522988Y1146773D01*
X3517988Y1147768D01*
Y1162480D01*
X3514818Y1170134D01*
X3507164Y1173304D01*
D02*
G37*
G36*
X3639495Y1165000D02*
X3590505D01*
X3591450Y1160245D01*
X3596976Y1151976D01*
X3605245Y1146450D01*
X3615000Y1144510D01*
X3615518Y1144613D01*
X3619765Y1140360D01*
Y1023417D01*
X3617764Y1020423D01*
X3614697Y1005000D01*
X3617764Y989577D01*
X3619765Y986583D01*
Y867205D01*
X3622935Y859551D01*
X3630589Y856381D01*
X3679408D01*
X3687062Y859551D01*
X3690232Y867205D01*
Y986583D01*
X3692233Y989577D01*
X3695300Y1005000D01*
X3692233Y1020423D01*
X3690232Y1023417D01*
Y1142795D01*
X3687062Y1150449D01*
X3679408Y1153619D01*
X3639425D01*
X3637068Y1158029D01*
X3638550Y1160245D01*
X3639495Y1165000D01*
D02*
G37*
G36*
X2585000Y1534495D02*
Y1515000D01*
X2604495D01*
X2603550Y1519755D01*
X2598024Y1528024D01*
X2589755Y1533550D01*
X2585000Y1534495D01*
D02*
G37*
G36*
X2864495Y1735000D02*
X2845000D01*
Y1715505D01*
X2849755Y1716450D01*
X2858024Y1721976D01*
X2863550Y1730245D01*
X2864495Y1735000D01*
D02*
G37*
G36*
X2953976Y1788225D02*
X2929449D01*
X2921795Y1785055D01*
X2918625Y1777401D01*
Y1745000D01*
X2953976D01*
Y1788225D01*
D02*
G37*
G36*
X2835000Y1735000D02*
X2815505D01*
X2816450Y1730245D01*
X2821976Y1721976D01*
X2830245Y1716450D01*
X2835000Y1715505D01*
Y1735000D01*
D02*
G37*
G36*
Y1764495D02*
X2830245Y1763550D01*
X2821976Y1758024D01*
X2816450Y1749755D01*
X2815505Y1745000D01*
X2835000D01*
Y1764495D01*
D02*
G37*
G36*
X2845000D02*
Y1745000D01*
X2864495D01*
X2863550Y1749755D01*
X2858024Y1758024D01*
X2849755Y1763550D01*
X2845000Y1764495D01*
D02*
G37*
G36*
X2988504Y1788225D02*
X2963976D01*
Y1745000D01*
X2999328D01*
Y1777401D01*
X2996158Y1785055D01*
X2988504Y1788225D01*
D02*
G37*
G36*
X2999328Y1735000D02*
X2963976D01*
Y1691775D01*
X2988504D01*
X2996158Y1694945D01*
X2999328Y1702599D01*
Y1735000D01*
D02*
G37*
G36*
X1935000Y1684495D02*
Y1665000D01*
X1954495D01*
X1953550Y1669755D01*
X1948024Y1678024D01*
X1939755Y1683550D01*
X1935000Y1684495D01*
D02*
G37*
G36*
X2374495Y1675000D02*
X2355000D01*
Y1655505D01*
X2359755Y1656450D01*
X2368024Y1661976D01*
X2373550Y1670245D01*
X2374495Y1675000D01*
D02*
G37*
G36*
X2460000D02*
X2440505D01*
X2441450Y1670245D01*
X2446976Y1661976D01*
X2455245Y1656450D01*
X2460000Y1655505D01*
Y1675000D01*
D02*
G37*
G36*
X1925000Y1684495D02*
X1920245Y1683550D01*
X1911976Y1678024D01*
X1906450Y1669755D01*
X1905505Y1665000D01*
X1925000D01*
Y1684495D01*
D02*
G37*
G36*
X1770000Y1704495D02*
X1765245Y1703550D01*
X1756976Y1698024D01*
X1751450Y1689755D01*
X1750505Y1685000D01*
X1770000D01*
Y1704495D01*
D02*
G37*
G36*
X1780000D02*
Y1685000D01*
X1799495D01*
X1798550Y1689755D01*
X1793024Y1698024D01*
X1784755Y1703550D01*
X1780000Y1704495D01*
D02*
G37*
G36*
X2953976Y1735000D02*
X2918625D01*
Y1702599D01*
X2921795Y1694945D01*
X2929449Y1691775D01*
X2953976D01*
Y1735000D01*
D02*
G37*
G36*
X3045000Y1874495D02*
Y1855000D01*
X3064495D01*
X3063550Y1859755D01*
X3058024Y1868024D01*
X3049755Y1873550D01*
X3045000Y1874495D01*
D02*
G37*
G36*
X3265000D02*
X3260245Y1873550D01*
X3251976Y1868024D01*
X3246450Y1859755D01*
X3245505Y1855000D01*
X3265000D01*
Y1874495D01*
D02*
G37*
G36*
X3275000D02*
Y1855000D01*
X3294495D01*
X3293550Y1859755D01*
X3288024Y1868024D01*
X3279755Y1873550D01*
X3275000Y1874495D01*
D02*
G37*
G36*
X3294495Y1845000D02*
X3275000D01*
Y1825505D01*
X3279755Y1826450D01*
X3288024Y1831976D01*
X3293550Y1840245D01*
X3294495Y1845000D01*
D02*
G37*
G36*
X3035000Y1874495D02*
X3030245Y1873550D01*
X3021976Y1868024D01*
X3016450Y1859755D01*
X3015505Y1855000D01*
X3035000D01*
Y1874495D01*
D02*
G37*
G36*
X2993189Y1953976D02*
X2973694D01*
X2974640Y1949222D01*
X2980165Y1940952D01*
X2988434Y1935427D01*
X2993189Y1934481D01*
Y1953976D01*
D02*
G37*
G36*
X3022684D02*
X3003189D01*
Y1934481D01*
X3007943Y1935427D01*
X3016213Y1940952D01*
X3021738Y1949222D01*
X3022684Y1953976D01*
D02*
G37*
G36*
X2860000Y1970490D02*
X2850245Y1968550D01*
X2845520Y1965392D01*
X2810355D01*
X2802552Y1963840D01*
X2795936Y1959419D01*
X2760820Y1924303D01*
X2755245Y1923194D01*
X2746976Y1917669D01*
X2741450Y1909399D01*
X2739510Y1899645D01*
X2741450Y1889890D01*
X2746976Y1881621D01*
X2755245Y1876095D01*
X2765000Y1874155D01*
X2774755Y1876095D01*
X2783024Y1881621D01*
X2788550Y1889890D01*
X2789658Y1895465D01*
X2818802Y1924608D01*
X2845520D01*
X2850245Y1921450D01*
X2860000Y1919510D01*
X2869755Y1921450D01*
X2878024Y1926976D01*
X2883550Y1935245D01*
X2885490Y1945000D01*
X2883550Y1954755D01*
X2878024Y1963024D01*
X2869755Y1968550D01*
X2860000Y1970490D01*
D02*
G37*
G36*
X3265000Y1845000D02*
X3245505D01*
X3246450Y1840245D01*
X3251976Y1831976D01*
X3260245Y1826450D01*
X3265000Y1825505D01*
Y1845000D01*
D02*
G37*
G36*
X2710000Y1804495D02*
X2705245Y1803550D01*
X2696976Y1798024D01*
X2691450Y1789755D01*
X2690505Y1785000D01*
X2710000D01*
Y1804495D01*
D02*
G37*
G36*
X2720000D02*
Y1785000D01*
X2739495D01*
X2738550Y1789755D01*
X2733024Y1798024D01*
X2724755Y1803550D01*
X2720000Y1804495D01*
D02*
G37*
G36*
X2739495Y1775000D02*
X2720000D01*
Y1755505D01*
X2724755Y1756450D01*
X2733024Y1761976D01*
X2738550Y1770245D01*
X2739495Y1775000D01*
D02*
G37*
G36*
X3071024Y2124466D02*
X3061269Y2122526D01*
X3053000Y2117000D01*
X3047474Y2108731D01*
X3045534Y2098976D01*
Y2087910D01*
X3041496D01*
X3033842Y2084740D01*
X3030672Y2077086D01*
Y2002284D01*
X3033842Y1994630D01*
X3041496Y1991460D01*
X3100551D01*
X3108205Y1994630D01*
X3111375Y2002284D01*
Y2024608D01*
X3136531D01*
X3139314Y2020443D01*
Y1760392D01*
X3121375D01*
Y1777401D01*
X3118205Y1785055D01*
X3110551Y1788225D01*
X3051496D01*
X3043842Y1785055D01*
X3040672Y1777401D01*
Y1702599D01*
X3043842Y1694945D01*
X3051496Y1691775D01*
X3110551D01*
X3118205Y1694945D01*
X3121375Y1702599D01*
Y1719608D01*
X3139314D01*
Y1460392D01*
X3111375D01*
Y1477401D01*
X3108205Y1485055D01*
X3100551Y1488225D01*
X3041496D01*
X3033842Y1485055D01*
X3030672Y1477401D01*
Y1402599D01*
X3033842Y1394945D01*
X3041496Y1391775D01*
X3100551D01*
X3108205Y1394945D01*
X3111375Y1402599D01*
Y1419608D01*
X3139314D01*
Y1374782D01*
X3045218Y1280686D01*
X2568591D01*
X2565607Y1282679D01*
X2550000Y1285784D01*
X2534393Y1282679D01*
X2521162Y1273838D01*
X2512321Y1260607D01*
X2509216Y1245000D01*
X2512321Y1229393D01*
X2521162Y1216162D01*
X2534393Y1207321D01*
X2550000Y1204216D01*
X2565607Y1207321D01*
X2568591Y1209314D01*
X3060000D01*
X3073656Y1212031D01*
X3085234Y1219766D01*
X3200234Y1334766D01*
X3207969Y1346344D01*
X3210686Y1360000D01*
Y1440000D01*
Y1740000D01*
Y2035000D01*
X3207969Y2048656D01*
X3200234Y2060234D01*
X3190234Y2070234D01*
X3178656Y2077969D01*
X3165000Y2080686D01*
X3151344Y2077969D01*
X3139766Y2070234D01*
X3136531Y2065392D01*
X3111375D01*
Y2077086D01*
X3108205Y2084740D01*
X3100551Y2087910D01*
X3096513D01*
Y2098976D01*
X3094573Y2108731D01*
X3089048Y2117000D01*
X3080778Y2122526D01*
X3071024Y2124466D01*
D02*
G37*
G36*
X3035000Y1845000D02*
X3015505D01*
X3016450Y1840245D01*
X3021976Y1831976D01*
X3030245Y1826450D01*
X3035000Y1825505D01*
Y1845000D01*
D02*
G37*
G36*
X3064495D02*
X3045000D01*
Y1825505D01*
X3049755Y1826450D01*
X3058024Y1831976D01*
X3063550Y1840245D01*
X3064495Y1845000D01*
D02*
G37*
G36*
X2345000Y1675000D02*
X2325505D01*
X2326450Y1670245D01*
X2331976Y1661976D01*
X2340245Y1656450D01*
X2345000Y1655505D01*
Y1675000D01*
D02*
G37*
G36*
X2546995Y1590000D02*
X2527500D01*
Y1570505D01*
X2532255Y1571450D01*
X2540524Y1576976D01*
X2546050Y1585245D01*
X2546995Y1590000D01*
D02*
G37*
G36*
X3092500D02*
X3073005D01*
X3073950Y1585245D01*
X3079476Y1576976D01*
X3087745Y1571450D01*
X3092500Y1570505D01*
Y1590000D01*
D02*
G37*
G36*
X3121995D02*
X3102500D01*
Y1570505D01*
X3107255Y1571450D01*
X3115524Y1576976D01*
X3121050Y1585245D01*
X3121995Y1590000D01*
D02*
G37*
G36*
X2402500D02*
X2383005D01*
X2383950Y1585245D01*
X2389476Y1576976D01*
X2397745Y1571450D01*
X2402500Y1570505D01*
Y1590000D01*
D02*
G37*
G36*
X2431995D02*
X2412500D01*
Y1570505D01*
X2417255Y1571450D01*
X2425524Y1576976D01*
X2431050Y1585245D01*
X2431995Y1590000D01*
D02*
G37*
G36*
X2517500D02*
X2498005D01*
X2498950Y1585245D01*
X2504476Y1576976D01*
X2512745Y1571450D01*
X2517500Y1570505D01*
Y1590000D01*
D02*
G37*
G36*
X2316995D02*
X2297500D01*
Y1570505D01*
X2302255Y1571450D01*
X2310524Y1576976D01*
X2316050Y1585245D01*
X2316995Y1590000D01*
D02*
G37*
G36*
X1966995Y1585000D02*
X1947500D01*
X1948446Y1580245D01*
X1953971Y1571976D01*
X1962241Y1566450D01*
X1966995Y1565505D01*
Y1585000D01*
D02*
G37*
G36*
X1996490D02*
X1976995D01*
Y1565505D01*
X1981750Y1566450D01*
X1990019Y1571976D01*
X1995545Y1580245D01*
X1996490Y1585000D01*
D02*
G37*
G36*
X2287500Y1590000D02*
X2268005D01*
X2268950Y1585245D01*
X2274476Y1576976D01*
X2282745Y1571450D01*
X2287500Y1570505D01*
Y1590000D01*
D02*
G37*
G36*
X1841000Y1674302D02*
X1825577Y1671234D01*
X1812502Y1662498D01*
X1803766Y1649423D01*
X1800698Y1634000D01*
X1803766Y1618577D01*
X1812502Y1605502D01*
X1825577Y1596766D01*
X1841000Y1593698D01*
X1856423Y1596766D01*
X1869498Y1605502D01*
X1878234Y1618577D01*
X1881302Y1634000D01*
X1878234Y1649423D01*
X1869498Y1662498D01*
X1856423Y1671234D01*
X1841000Y1674302D01*
D02*
G37*
G36*
X1925000Y1655000D02*
X1905505D01*
X1906450Y1650245D01*
X1911976Y1641976D01*
X1920245Y1636450D01*
X1925000Y1635505D01*
Y1655000D01*
D02*
G37*
G36*
X1954495D02*
X1935000D01*
Y1635505D01*
X1939755Y1636450D01*
X1948024Y1641976D01*
X1953550Y1650245D01*
X1954495Y1655000D01*
D02*
G37*
G36*
X1799495Y1675000D02*
X1780000D01*
Y1655505D01*
X1784755Y1656450D01*
X1793024Y1661976D01*
X1798550Y1670245D01*
X1799495Y1675000D01*
D02*
G37*
G36*
X2230000D02*
X2210505D01*
X2211450Y1670245D01*
X2216976Y1661976D01*
X2225245Y1656450D01*
X2230000Y1655505D01*
Y1675000D01*
D02*
G37*
G36*
X2259495D02*
X2240000D01*
Y1655505D01*
X2244755Y1656450D01*
X2253024Y1661976D01*
X2258550Y1670245D01*
X2259495Y1675000D01*
D02*
G37*
G36*
X1770000D02*
X1750505D01*
X1751450Y1670245D01*
X1756976Y1661976D01*
X1765245Y1656450D01*
X1770000Y1655505D01*
Y1675000D01*
D02*
G37*
G36*
X3102500Y1619495D02*
Y1600000D01*
X3121995D01*
X3121050Y1604755D01*
X3115524Y1613024D01*
X3107255Y1618550D01*
X3102500Y1619495D01*
D02*
G37*
G36*
X1966995Y1614495D02*
X1962241Y1613550D01*
X1953971Y1608024D01*
X1948446Y1599755D01*
X1947500Y1595000D01*
X1966995D01*
Y1614495D01*
D02*
G37*
G36*
X1976995D02*
Y1595000D01*
X1996490D01*
X1995545Y1599755D01*
X1990019Y1608024D01*
X1981750Y1613550D01*
X1976995Y1614495D01*
D02*
G37*
G36*
X2287500Y1619495D02*
X2282745Y1618550D01*
X2274476Y1613024D01*
X2268950Y1604755D01*
X2268005Y1600000D01*
X2287500D01*
Y1619495D01*
D02*
G37*
G36*
X2041000Y1674302D02*
X2025577Y1671234D01*
X2012502Y1662498D01*
X2003766Y1649423D01*
X2000698Y1634000D01*
X2003766Y1618577D01*
X2012502Y1605502D01*
X2025577Y1596766D01*
X2041000Y1593698D01*
X2056423Y1596766D01*
X2069498Y1605502D01*
X2078234Y1618577D01*
X2081302Y1634000D01*
X2078234Y1649423D01*
X2069498Y1662498D01*
X2056423Y1671234D01*
X2041000Y1674302D01*
D02*
G37*
G36*
X2517500Y1619495D02*
X2512745Y1618550D01*
X2504476Y1613024D01*
X2498950Y1604755D01*
X2498005Y1600000D01*
X2517500D01*
Y1619495D01*
D02*
G37*
G36*
X2527500D02*
Y1600000D01*
X2546995D01*
X2546050Y1604755D01*
X2540524Y1613024D01*
X2532255Y1618550D01*
X2527500Y1619495D01*
D02*
G37*
G36*
X3092500D02*
X3087745Y1618550D01*
X3079476Y1613024D01*
X3073950Y1604755D01*
X3073005Y1600000D01*
X3092500D01*
Y1619495D01*
D02*
G37*
G36*
X2297500D02*
Y1600000D01*
X2316995D01*
X2316050Y1604755D01*
X2310524Y1613024D01*
X2302255Y1618550D01*
X2297500Y1619495D01*
D02*
G37*
G36*
X2402500D02*
X2397745Y1618550D01*
X2389476Y1613024D01*
X2383950Y1604755D01*
X2383005Y1600000D01*
X2402500D01*
Y1619495D01*
D02*
G37*
G36*
X2412500D02*
Y1600000D01*
X2431995D01*
X2431050Y1604755D01*
X2425524Y1613024D01*
X2417255Y1618550D01*
X2412500Y1619495D01*
D02*
G37*
G36*
X2869495Y2040000D02*
X2850000D01*
Y2020505D01*
X2854755Y2021450D01*
X2863024Y2026976D01*
X2868550Y2035245D01*
X2869495Y2040000D01*
D02*
G37*
G36*
X2680000Y2045000D02*
X2660505D01*
X2661450Y2040245D01*
X2666976Y2031976D01*
X2675245Y2026450D01*
X2680000Y2025505D01*
Y2045000D01*
D02*
G37*
G36*
X2709495D02*
X2690000D01*
Y2025505D01*
X2694755Y2026450D01*
X2703024Y2031976D01*
X2708550Y2040245D01*
X2709495Y2045000D01*
D02*
G37*
G36*
X2170000Y2069495D02*
Y2050000D01*
X2189495D01*
X2188550Y2054755D01*
X2183024Y2063024D01*
X2174755Y2068550D01*
X2170000Y2069495D01*
D02*
G37*
G36*
X2840000D02*
X2835245Y2068550D01*
X2826976Y2063024D01*
X2821450Y2054755D01*
X2820505Y2050000D01*
X2840000D01*
Y2069495D01*
D02*
G37*
G36*
X2850000D02*
Y2050000D01*
X2869495D01*
X2868550Y2054755D01*
X2863024Y2063024D01*
X2854755Y2068550D01*
X2850000Y2069495D01*
D02*
G37*
G36*
X2943976Y2087910D02*
X2919449D01*
X2911795Y2084740D01*
X2908625Y2077086D01*
Y2044685D01*
X2943976D01*
Y2087910D01*
D02*
G37*
G36*
X2978504D02*
X2953976D01*
Y2044685D01*
X2989328D01*
Y2077086D01*
X2986158Y2084740D01*
X2978504Y2087910D01*
D02*
G37*
G36*
X2160000Y2069495D02*
X2155245Y2068550D01*
X2146976Y2063024D01*
X2141450Y2054755D01*
X2140505Y2050000D01*
X2160000D01*
Y2069495D01*
D02*
G37*
G36*
X2993189Y1983472D02*
X2988434Y1982526D01*
X2980165Y1977000D01*
X2974640Y1968731D01*
X2973694Y1963976D01*
X2993189D01*
Y1983472D01*
D02*
G37*
G36*
X3003189D02*
Y1963976D01*
X3022684D01*
X3021738Y1968731D01*
X3016213Y1977000D01*
X3007943Y1982526D01*
X3003189Y1983472D01*
D02*
G37*
G36*
X2785000Y2120490D02*
X2775245Y2118550D01*
X2766976Y2113024D01*
X2761450Y2104755D01*
X2760342Y2099180D01*
X2735581Y2074419D01*
X2731160Y2067804D01*
X2729608Y2060000D01*
Y2018447D01*
X2676553Y1965392D01*
X2174480D01*
X2169755Y1968550D01*
X2160000Y1970490D01*
X2150245Y1968550D01*
X2141976Y1963024D01*
X2136450Y1954755D01*
X2134510Y1945000D01*
X2136450Y1935245D01*
X2141976Y1926976D01*
X2150245Y1921450D01*
X2156818Y1920143D01*
X2160000Y1919510D01*
X2160447Y1914711D01*
X2159510Y1910000D01*
X2160447Y1905289D01*
X2160000Y1900490D01*
X2156818Y1899857D01*
X2150245Y1898550D01*
X2141976Y1893024D01*
X2136450Y1884755D01*
X2134510Y1875000D01*
X2136450Y1865245D01*
X2141976Y1856976D01*
X2150245Y1851450D01*
X2156818Y1850143D01*
X2160000Y1849510D01*
X2160447Y1844711D01*
X2159510Y1840000D01*
X2160719Y1833922D01*
X2160093Y1829699D01*
X2157090Y1828490D01*
X2150245Y1827128D01*
X2141976Y1821603D01*
X2136450Y1813333D01*
X2134510Y1803579D01*
X2136450Y1793824D01*
X2141976Y1785555D01*
X2150245Y1780029D01*
X2160000Y1778089D01*
X2160515Y1773276D01*
X2159510Y1768224D01*
X2161450Y1758469D01*
X2166782Y1750490D01*
X2166102Y1747318D01*
X2165547Y1745490D01*
X2155000D01*
X2145245Y1743550D01*
X2136976Y1738024D01*
X2131450Y1729755D01*
X2129510Y1720000D01*
X2131450Y1710245D01*
X2136976Y1701976D01*
X2145245Y1696450D01*
X2155000Y1694510D01*
X2208880D01*
X2211451Y1690391D01*
X2211402Y1689510D01*
X2210505Y1685000D01*
X2259495D01*
X2258598Y1689510D01*
X2258549Y1690391D01*
X2261120Y1694510D01*
X2323880D01*
X2326451Y1690391D01*
X2326402Y1689510D01*
X2325505Y1685000D01*
X2374495D01*
X2373598Y1689510D01*
X2373549Y1690391D01*
X2376120Y1694510D01*
X2415000D01*
X2424755Y1696450D01*
X2433024Y1701976D01*
X2438550Y1710245D01*
X2440258Y1718833D01*
X2444961Y1721201D01*
X2457640Y1708522D01*
X2456188Y1703737D01*
X2455245Y1703550D01*
X2446976Y1698024D01*
X2441450Y1689755D01*
X2440505Y1685000D01*
X2465000D01*
Y1680000D01*
X2470000D01*
Y1655505D01*
X2474755Y1656450D01*
X2483024Y1661976D01*
X2488550Y1670245D01*
X2488737Y1671188D01*
X2493522Y1672640D01*
X2575342Y1590820D01*
X2576450Y1585245D01*
X2581976Y1576976D01*
X2590245Y1571450D01*
X2600000Y1569510D01*
X2609755Y1571450D01*
X2618024Y1576976D01*
X2623550Y1585245D01*
X2625490Y1595000D01*
X2623550Y1604755D01*
X2618024Y1613024D01*
X2609755Y1618550D01*
X2604180Y1619658D01*
X2445651Y1778187D01*
X2447722Y1783187D01*
X2482975D01*
X2575342Y1690820D01*
X2576450Y1685245D01*
X2581976Y1676976D01*
X2590245Y1671450D01*
X2600000Y1669510D01*
X2609755Y1671450D01*
X2618024Y1676976D01*
X2623550Y1685245D01*
X2625490Y1695000D01*
X2623550Y1704755D01*
X2618024Y1713024D01*
X2609755Y1718550D01*
X2604180Y1719658D01*
X2509230Y1814608D01*
X2511301Y1819608D01*
X2575392D01*
X2719419Y1675581D01*
X2726035Y1671160D01*
X2733838Y1669608D01*
X2765520D01*
X2770245Y1666450D01*
X2780000Y1664510D01*
X2789755Y1666450D01*
X2798024Y1671976D01*
X2803550Y1680245D01*
X2805490Y1690000D01*
X2803550Y1699755D01*
X2798024Y1708024D01*
X2789755Y1713550D01*
X2780000Y1715490D01*
X2770245Y1713550D01*
X2765520Y1710392D01*
X2742285D01*
X2696187Y1756490D01*
X2699374Y1760373D01*
X2705245Y1756450D01*
X2710000Y1755505D01*
Y1775000D01*
X2690505D01*
X2691450Y1770245D01*
X2695373Y1764374D01*
X2691490Y1761187D01*
X2603069Y1849608D01*
X2605140Y1854608D01*
X2686553D01*
X2755342Y1785820D01*
X2756450Y1780245D01*
X2761976Y1771976D01*
X2770245Y1766450D01*
X2780000Y1764510D01*
X2789755Y1766450D01*
X2798024Y1771976D01*
X2803550Y1780245D01*
X2805490Y1790000D01*
X2803550Y1799755D01*
X2798024Y1808024D01*
X2789755Y1813550D01*
X2784180Y1814658D01*
X2711333Y1887505D01*
X2711425Y1893128D01*
X2711808Y1893836D01*
X2714419Y1895581D01*
X2784180Y1965342D01*
X2789755Y1966450D01*
X2798024Y1971976D01*
X2803550Y1980245D01*
X2805490Y1990000D01*
X2803550Y1999755D01*
X2798024Y2008024D01*
X2789755Y2013550D01*
X2780000Y2015490D01*
X2774257Y2014347D01*
X2770392Y2017519D01*
Y2051553D01*
X2789180Y2070342D01*
X2794755Y2071450D01*
X2803024Y2076976D01*
X2808550Y2085245D01*
X2810490Y2095000D01*
X2808550Y2104755D01*
X2803024Y2113024D01*
X2794755Y2118550D01*
X2785000Y2120490D01*
D02*
G37*
G36*
X2160000Y2040000D02*
X2140505D01*
X2141450Y2035245D01*
X2146976Y2026976D01*
X2155245Y2021450D01*
X2160000Y2020505D01*
Y2040000D01*
D02*
G37*
G36*
X2189495D02*
X2170000D01*
Y2020505D01*
X2174755Y2021450D01*
X2183024Y2026976D01*
X2188550Y2035245D01*
X2189495Y2040000D01*
D02*
G37*
G36*
X2840000D02*
X2820505D01*
X2821450Y2035245D01*
X2826976Y2026976D01*
X2835245Y2021450D01*
X2840000Y2020505D01*
Y2040000D01*
D02*
G37*
G36*
X2943976Y2034685D02*
X2908625D01*
Y2002284D01*
X2911795Y1994630D01*
X2919449Y1991460D01*
X2943976D01*
Y2034685D01*
D02*
G37*
G36*
X2989328D02*
X2953976D01*
Y1991460D01*
X2978504D01*
X2986158Y1994630D01*
X2989328Y2002284D01*
Y2034685D01*
D02*
G37*
G36*
X2975000Y2144889D02*
X2970245Y2143943D01*
X2961976Y2138418D01*
X2956450Y2130148D01*
X2955505Y2125394D01*
X2975000D01*
Y2144889D01*
D02*
G37*
G36*
X2985000D02*
Y2125394D01*
X3004495D01*
X3003550Y2130148D01*
X2998024Y2138418D01*
X2989755Y2143943D01*
X2985000Y2144889D01*
D02*
G37*
G36*
X2244495Y2080000D02*
X2225000D01*
Y2060505D01*
X2229755Y2061450D01*
X2238024Y2066976D01*
X2243550Y2075245D01*
X2244495Y2080000D01*
D02*
G37*
G36*
X2680000Y2074495D02*
X2675245Y2073550D01*
X2666976Y2068024D01*
X2661450Y2059755D01*
X2660505Y2055000D01*
X2680000D01*
Y2074495D01*
D02*
G37*
G36*
X2690000D02*
Y2055000D01*
X2709495D01*
X2708550Y2059755D01*
X2703024Y2068024D01*
X2694755Y2073550D01*
X2690000Y2074495D01*
D02*
G37*
G36*
X2215000Y2080000D02*
X2195505D01*
X2196450Y2075245D01*
X2201976Y2066976D01*
X2210245Y2061450D01*
X2215000Y2060505D01*
Y2080000D01*
D02*
G37*
G36*
X2225000Y2109495D02*
Y2090000D01*
X2244495D01*
X2243550Y2094755D01*
X2238024Y2103024D01*
X2229755Y2108550D01*
X2225000Y2109495D01*
D02*
G37*
G36*
X2975000Y2115394D02*
X2955505D01*
X2956450Y2110639D01*
X2961976Y2102370D01*
X2970245Y2096844D01*
X2975000Y2095898D01*
Y2115394D01*
D02*
G37*
G36*
X3004495D02*
X2985000D01*
Y2095898D01*
X2989755Y2096844D01*
X2998024Y2102370D01*
X3003550Y2110639D01*
X3004495Y2115394D01*
D02*
G37*
G36*
X2215000Y2109495D02*
X2210245Y2108550D01*
X2201976Y2103024D01*
X2196450Y2094755D01*
X2195505Y2090000D01*
X2215000D01*
Y2109495D01*
D02*
G37*
%LPD*%
D10*
X640000Y2884370D02*
D03*
Y2805630D02*
D03*
X425000Y2884370D02*
D03*
Y2805630D02*
D03*
D11*
X3824487Y1360413D02*
D03*
X3485510D02*
D03*
X3824487Y1005000D02*
D03*
X3485510D02*
D03*
X3485508Y1715000D02*
D03*
X3824484D02*
D03*
X3830489Y2110000D02*
D03*
X3491513D02*
D03*
D12*
X3556573Y1360413D02*
D03*
X3753424D02*
D03*
X3654999D02*
D03*
X3556573Y1005000D02*
D03*
X3753424D02*
D03*
X3654999D02*
D03*
X3753421Y1715000D02*
D03*
X3556571D02*
D03*
X3654996D02*
D03*
X3562576Y2110000D02*
D03*
X3759426D02*
D03*
X3661001D02*
D03*
D13*
X3394490Y1005000D02*
D03*
X3055513D02*
D03*
X694490Y1071000D02*
D03*
X355514D02*
D03*
X694490Y1830500D02*
D03*
X355514D02*
D03*
X694490Y2590000D02*
D03*
X355514D02*
D03*
D14*
X3126576Y1005000D02*
D03*
X3323427D02*
D03*
X3225001D02*
D03*
X426577Y1071000D02*
D03*
X623427D02*
D03*
X525002D02*
D03*
X426577Y1830500D02*
D03*
X623427D02*
D03*
X525002D02*
D03*
X426577Y2590000D02*
D03*
X623427D02*
D03*
X525002D02*
D03*
D15*
X2000315Y1305000D02*
D03*
X2139685D02*
D03*
D16*
X3071024Y1440000D02*
D03*
X2948976D02*
D03*
X3081024Y1740000D02*
D03*
X2958976D02*
D03*
X3071024Y2039685D02*
D03*
X2948976D02*
D03*
X1928976Y1500000D02*
D03*
X2051024D02*
D03*
X118976Y1814999D02*
D03*
X241023D02*
D03*
D17*
X1005000Y2185000D02*
X1076287Y2113713D01*
X1074000Y2111426D02*
X1076287Y2113713D01*
X1074000Y2026574D02*
Y2111426D01*
Y2026574D02*
X1091574Y2009000D01*
X1176426D01*
X1178713Y2011287D01*
X1277000Y1913000D01*
X623427Y1259427D02*
X1277000Y1913000D01*
X845000Y1594000D02*
Y2105000D01*
X741000Y1490000D02*
X845000Y1594000D01*
X373000Y1490000D02*
X741000D01*
X623427Y1071000D02*
Y1259427D01*
X1127185Y2387185D02*
Y2539500D01*
X339842Y1427000D02*
Y1456842D01*
X373000Y1490000D01*
X1010000Y2270000D02*
X1127185Y2387185D01*
X565000Y2285000D02*
X620000Y2340000D01*
X330000Y2285000D02*
X565000D01*
X620000Y2340000D02*
Y2584998D01*
X625002Y2590000D01*
X425000Y2589998D02*
X425002Y2590000D01*
X630553Y3530553D02*
X671106Y3490000D01*
X723787D01*
X630553Y3530553D02*
Y3715000D01*
X590000Y3490000D02*
X630553Y3530553D01*
X508787Y3490000D02*
X590000D01*
X2290000Y2325000D02*
X2895000D01*
X2950000Y2380000D01*
Y2450000D01*
Y2550000D01*
X565000Y2285000D02*
X625002Y2224998D01*
Y1830500D02*
Y2224998D01*
X1775000Y2325000D02*
X2290000D01*
X1005000Y2185000D02*
X1015000D01*
X845000Y2105000D02*
X1010000Y2270000D01*
D18*
X645630Y2890000D02*
X723787D01*
X3410000Y2895000D02*
X3418000D01*
X3150000Y2450000D02*
X3200000Y2500000D01*
Y2750000D01*
X3430630Y2980630D01*
X3500000D01*
X3300000Y2785000D02*
X3410000Y2895000D01*
X3300000Y2500000D02*
Y2785000D01*
X3250000Y2450000D02*
X3300000Y2500000D01*
X640000Y2884370D02*
X645630Y2890000D01*
X425000Y2884370D02*
X430630Y2890000D01*
X508787D01*
Y2908787D01*
X3076339Y2045000D02*
X3165000D01*
X3071024Y2039685D02*
X3076339Y2045000D01*
X3081024Y1740000D02*
X3175000D01*
X3071024Y1440000D02*
X3076024Y1435000D01*
X3081024Y1440000D01*
X3175000D01*
X3245000Y1790000D02*
X3270000D01*
X3305000Y1755000D01*
Y1500000D02*
Y1755000D01*
Y1500000D02*
X3385000Y1420000D01*
X3420000D01*
X3250000Y1485000D02*
X3265000D01*
X3390000Y1360000D01*
X3420000D01*
X2765000Y1899645D02*
X2810355Y1945000D01*
X2860000D01*
X2160000D02*
X2685000D01*
X2750000Y2010000D01*
Y2060000D01*
X2785000Y2095000D01*
X2185000Y1910000D02*
X2700000D01*
X2780000Y1990000D01*
X2160000Y1875000D02*
X2695000D01*
X2780000Y1790000D01*
X2160000Y1803579D02*
X2491421D01*
X2600000Y1695000D01*
X2185000Y1768224D02*
X2426776D01*
X2600000Y1595000D01*
X2733838Y1690000D02*
X2780000D01*
X2185000Y1840000D02*
X2583838D01*
X2733838Y1690000D01*
D19*
X2000315Y1305000D02*
Y1368685D01*
X1928976Y1440024D02*
X2000315Y1368685D01*
X1928976Y1440024D02*
Y1500000D01*
X2050000Y1025000D02*
X2780000D01*
X2000315Y1074685D02*
X2050000Y1025000D01*
X2000315Y1074685D02*
Y1305000D01*
X3505000Y3160000D02*
X3740000D01*
X3035000Y2690000D02*
X3505000Y3160000D01*
X2550000Y1245000D02*
X3060000D01*
X3175000Y1740000D02*
Y2035000D01*
X3165000Y2045000D02*
X3175000Y2035000D01*
Y1440000D02*
Y1740000D01*
Y1360000D02*
Y1440000D01*
X3060000Y1245000D02*
X3175000Y1360000D01*
X2780000Y1025000D02*
X2930000Y875000D01*
X3050000Y2450000D02*
Y2550000D01*
Y2605000D01*
X3025000Y2630000D02*
X3050000Y2605000D01*
X2880000Y2630000D02*
X3025000D01*
X2845000Y2595000D02*
X2880000Y2630000D01*
X2845000Y2420000D02*
Y2595000D01*
X2810000Y2385000D02*
X2845000Y2420000D01*
X1720000Y2385000D02*
X2810000D01*
X1339370Y2074370D02*
X1420000D01*
X1335000Y2070000D02*
X1339370Y2074370D01*
X1420000D02*
Y2520000D01*
X1590000Y2690000D01*
X3035000D01*
D20*
X3071024Y2039685D02*
Y2098976D01*
X2155000Y1720000D02*
X2415000D01*
D21*
X3128000Y2372000D02*
X3617000D01*
X3625000Y2364000D01*
X3050000Y2450000D02*
X3128000Y2372000D01*
X3450000Y2550000D02*
X3451000Y2551000D01*
D22*
X15000Y2010000D02*
D03*
D23*
X15000Y1632500D02*
D03*
D24*
X2285000Y1315000D02*
D03*
D25*
X330000Y2285000D02*
D03*
X230000D02*
D03*
X1334000Y2069000D02*
D03*
X1234000D02*
D03*
X339842Y1427000D02*
D03*
X239843D02*
D03*
X2550000Y1245000D02*
D03*
X2450000D02*
D03*
X3250000Y2550000D02*
D03*
X3350000D02*
D03*
X3450000D02*
D03*
X3550000D02*
D03*
X3650000D02*
D03*
X3050000D02*
D03*
X3150000D02*
D03*
X3740000Y3260000D02*
D03*
Y3160000D02*
D03*
Y3060000D02*
D03*
X3250000Y2450000D02*
D03*
X3350000D02*
D03*
X3450000D02*
D03*
X3550000D02*
D03*
X3650000D02*
D03*
X3050000D02*
D03*
X3150000D02*
D03*
X2165000D02*
D03*
X2265000D02*
D03*
X2365000D02*
D03*
X2465000D02*
D03*
X2565000D02*
D03*
X1965000D02*
D03*
X2065000D02*
D03*
X2165000Y2550000D02*
D03*
X2265000D02*
D03*
X2365000D02*
D03*
X2465000D02*
D03*
X2565000D02*
D03*
X1965000D02*
D03*
X2065000D02*
D03*
D26*
X130000Y2285000D02*
D03*
X1134000Y2069000D02*
D03*
X139843Y1427000D02*
D03*
X2350000Y1245000D02*
D03*
X2950000Y2550000D02*
D03*
Y2450000D02*
D03*
X1865000D02*
D03*
Y2550000D02*
D03*
D27*
X3408526Y3698528D02*
D03*
X371000Y81000D02*
D03*
D28*
X723787Y2790000D02*
D03*
Y2890000D02*
D03*
X508787Y2790000D02*
D03*
Y2890000D02*
D03*
X1241000Y1034000D02*
D03*
X1841000D02*
D03*
X2041000D02*
D03*
X1141000D02*
D03*
X1241000Y1634000D02*
D03*
X1841000D02*
D03*
X2041000D02*
D03*
X3654999Y1360413D02*
D03*
X3554999D02*
D03*
X3654999Y1005000D02*
D03*
X3554999D02*
D03*
X3225001Y1005000D02*
D03*
X3125001D02*
D03*
X3654996Y1715000D02*
D03*
X3754996D02*
D03*
X3661001Y2110000D02*
D03*
X3561001D02*
D03*
X525002Y1071000D02*
D03*
X425002D02*
D03*
X525002Y1830500D02*
D03*
X425002D02*
D03*
X525002Y2590000D02*
D03*
X425002D02*
D03*
D29*
X723787Y3190000D02*
D03*
Y3490000D02*
D03*
X508787Y3190000D02*
D03*
Y3490000D02*
D03*
D30*
X1141000Y1634000D02*
D03*
D31*
X3740000Y2960000D02*
D03*
D32*
X3754999Y1360413D02*
D03*
Y1005000D02*
D03*
X3325001Y1005000D02*
D03*
X3554996Y1715000D02*
D03*
X3761001Y2110000D02*
D03*
X625002Y1071000D02*
D03*
Y1830500D02*
D03*
Y2590000D02*
D03*
D33*
X102665Y2776575D02*
D03*
Y3221575D02*
D03*
X630553Y3715000D02*
D03*
X105001Y739425D02*
D03*
D34*
X102665Y2973425D02*
D03*
Y3418425D02*
D03*
X105001Y542575D02*
D03*
D35*
X433703Y3715000D02*
D03*
D36*
X0Y0D02*
D03*
X3779526D02*
D03*
Y3779528D02*
D03*
X0D02*
D03*
D37*
X50000Y1560000D02*
D03*
X-25000D02*
D03*
X40000Y2095000D02*
D03*
X-10000D02*
D03*
X3245000Y1790000D02*
D03*
X3250000Y1485000D02*
D03*
X2160000Y1945000D02*
D03*
Y1875000D02*
D03*
X2185000Y1910000D02*
D03*
Y1840000D02*
D03*
X2160000Y1803579D02*
D03*
X2185000Y1768224D02*
D03*
X2860000Y1945000D02*
D03*
X2765000Y1899645D02*
D03*
X2780000Y1990000D02*
D03*
X2785000Y2095000D02*
D03*
X2780000Y1790000D02*
D03*
Y1690000D02*
D03*
X2600000Y1695000D02*
D03*
Y1595000D02*
D03*
X2840000Y1435000D02*
D03*
Y1740000D02*
D03*
X2845000Y2045000D02*
D03*
X2165000D02*
D03*
X2685000Y2050000D02*
D03*
X2415000Y1720000D02*
D03*
X2155000D02*
D03*
X2290000Y2325000D02*
D03*
X2165000Y2261535D02*
D03*
X2695000Y2260000D02*
D03*
X1930000Y1660000D02*
D03*
X1775000Y1680000D02*
D03*
X1971995Y1590000D02*
D03*
X2580000Y1340000D02*
D03*
X2522500Y1425000D02*
D03*
X2695000Y1340000D02*
D03*
X2810000D02*
D03*
X2407500Y1425000D02*
D03*
X2062500D02*
D03*
X1832500D02*
D03*
X1775000Y1340000D02*
D03*
Y1510000D02*
D03*
X2235000D02*
D03*
X2350000D02*
D03*
X2465000D02*
D03*
X2292500Y1595000D02*
D03*
X2407500D02*
D03*
X2235000Y1680000D02*
D03*
X2350000D02*
D03*
X2465000D02*
D03*
X2637500Y1425000D02*
D03*
X2580000Y1510000D02*
D03*
X2522500Y1595000D02*
D03*
X2715000Y1780000D02*
D03*
X2220000Y2085000D02*
D03*
X2998189Y1958976D02*
D03*
X3040000Y1850000D02*
D03*
X3270000D02*
D03*
X3097500Y1595000D02*
D03*
X2925000Y1000000D02*
D03*
X3410245Y804054D02*
D03*
X3525245D02*
D03*
X3730000Y1170000D02*
D03*
X3615000D02*
D03*
X3430000Y1295000D02*
D03*
X3212500Y1255000D02*
D03*
X3270000Y1185000D02*
D03*
X2867500Y1085000D02*
D03*
X2925000Y1170000D02*
D03*
X2982500Y1085000D02*
D03*
X3155000Y1180000D02*
D03*
X2120000Y1170000D02*
D03*
X2289000Y1095000D02*
D03*
X2187500D02*
D03*
X1947500Y1085000D02*
D03*
X1890000Y1170000D02*
D03*
X1832500Y1255000D02*
D03*
X1822745Y1108550D02*
D03*
X1775000Y1170000D02*
D03*
X2216976Y1151976D02*
D03*
X2642500Y1095000D02*
D03*
X2757500D02*
D03*
X2580000Y1170000D02*
D03*
X2695000D02*
D03*
X2810000D02*
D03*
X1986976Y981976D02*
D03*
X1775000Y1000000D02*
D03*
X1899755Y976451D02*
D03*
X2980000Y2120394D02*
D03*
X3305000Y805000D02*
D03*
X3190000D02*
D03*
X3075000D02*
D03*
X3640245Y804054D02*
D03*
D38*
X1127185Y2539500D02*
D03*
X3418000Y2895000D02*
D03*
X1010000Y2270000D02*
D03*
X3420000Y1360000D02*
D03*
Y1480000D02*
D03*
X3165000Y2045000D02*
D03*
X3175000Y1740000D02*
D03*
Y1440000D02*
D03*
X2930000Y875000D02*
D03*
X1720000Y2385000D02*
D03*
X1775000Y2325000D02*
D03*
X1015000Y2185000D02*
D03*
X3420000Y1420000D02*
D03*
X3625000Y2364000D02*
D03*
D39*
X3500000Y2980630D02*
D03*
D40*
X166000Y39000D02*
D03*
X-38000Y161000D02*
D03*
X98000D02*
D03*
X234000D02*
D03*
Y405000D02*
D03*
X302000Y39000D02*
D03*
Y527000D02*
D03*
Y283000D02*
D03*
X574000Y39000D02*
D03*
X710000D02*
D03*
X438000D02*
D03*
X506000Y161000D02*
D03*
X642000D02*
D03*
X370000D02*
D03*
X574000Y283000D02*
D03*
X710000D02*
D03*
X438000D02*
D03*
Y527000D02*
D03*
X370000Y405000D02*
D03*
X642000D02*
D03*
X506000D02*
D03*
X574000Y527000D02*
D03*
X710000D02*
D03*
X1019000Y1037000D02*
D03*
X3300000Y3585000D02*
D03*
X3400000Y3485000D02*
D03*
X3500000Y3585000D02*
D03*
X3600000Y3485000D02*
D03*
Y3685000D02*
D03*
X3500000Y3785000D02*
D03*
X3300000D02*
D03*
X3700000Y3585000D02*
D03*
X3300000Y3385000D02*
D03*
X3500000D02*
D03*
X3700000D02*
D03*
X3800000Y3485000D02*
D03*
X3600000Y3285000D02*
D03*
X3400000D02*
D03*
X3300000Y3185000D02*
D03*
X3200000Y3040000D02*
D03*
X3000000Y2840000D02*
D03*
X3100000Y2940000D02*
D03*
X3717000Y2791000D02*
D03*
X3800000Y2835000D02*
D03*
X3620000D02*
D03*
Y2720000D02*
D03*
X3413000Y2836000D02*
D03*
X3805000Y2715000D02*
D03*
X3715000Y2660000D02*
D03*
X3805000Y2605000D02*
D03*
Y2495000D02*
D03*
Y2385000D02*
D03*
X3715000Y2330000D02*
D03*
X3305000Y2315000D02*
D03*
X3385000Y2265000D02*
D03*
X2975000Y2305000D02*
D03*
X3040000Y2350000D02*
D03*
X3095000Y2300000D02*
D03*
X2660000Y2450000D02*
D03*
Y2560000D02*
D03*
X2750000Y2505000D02*
D03*
X1765000Y2440000D02*
D03*
X1597000Y2419000D02*
D03*
X1647000Y2557000D02*
D03*
X1765000Y2560000D02*
D03*
X1675000Y2495000D02*
D03*
X1519000Y2371000D02*
D03*
X1571000Y2494000D02*
D03*
X1363000Y2332000D02*
D03*
X1390000Y2643055D02*
D03*
X819000Y2678000D02*
D03*
X1263000Y2767000D02*
D03*
X1495000Y970000D02*
D03*
X1308000Y955000D02*
D03*
X1097000Y951000D02*
D03*
X1501000Y1188000D02*
D03*
X889000Y1405000D02*
D03*
X1159000Y1437000D02*
D03*
X1185000Y1213000D02*
D03*
X1395000Y1070000D02*
D03*
X1332000Y1179000D02*
D03*
X1266000Y1316000D02*
D03*
X1488000Y1443000D02*
D03*
X1347000D02*
D03*
X1435000Y1582000D02*
D03*
X1395000Y1670000D02*
D03*
X1476000Y1784000D02*
D03*
X880000Y1293000D02*
D03*
X287000Y1257000D02*
D03*
X995000Y870000D02*
D03*
X898000Y771000D02*
D03*
X795000Y670000D02*
D03*
X195000Y895000D02*
D03*
X533000Y819000D02*
D03*
X280000Y970000D02*
D03*
X848000Y1051000D02*
D03*
X120000Y975000D02*
D03*
X324000Y854000D02*
D03*
X425000Y890000D02*
D03*
X600000D02*
D03*
X765353Y1002696D02*
D03*
Y1200527D02*
D03*
X295000Y1570000D02*
D03*
Y1970000D02*
D03*
X395000Y2070000D02*
D03*
X535000Y2170000D02*
D03*
X-42000Y2450000D02*
D03*
X523000Y2375000D02*
D03*
X-35000Y2542000D02*
D03*
X963000Y2498000D02*
D03*
X770000Y2475000D02*
D03*
X705000Y2355000D02*
D03*
X362000Y1331000D02*
D03*
X438000Y1279000D02*
D03*
X1295000Y1549000D02*
D03*
X1425000Y1311000D02*
D03*
X770000Y1745000D02*
D03*
Y1945000D02*
D03*
X3516000Y2769000D02*
D03*
D41*
X-20000Y684000D02*
D03*
%TF.MD5,0161233f7421d96763229c0d343e6db5*%
M02*
