G04 Layer_Color=8388736*
%FSLAX26Y26*%
%MOIN*%
%TF.FileFunction,Soldermask,Top*%
%TF.Part,Single*%
G01*
G75*
%TA.AperFunction,SMDPad,CuDef*%
%ADD55R,0.067055X0.063118*%
%TA.AperFunction,ConnectorPad*%
%ADD56R,0.051307X0.322961*%
%ADD57R,0.056819X0.283591*%
%TA.AperFunction,SMDPad,CuDef*%
%ADD58R,0.051307X0.322961*%
%ADD59R,0.056819X0.283591*%
%ADD60R,0.115087X0.156425*%
%ADD61R,0.067055X0.082803*%
%TA.AperFunction,ComponentPad*%
%ADD62C,0.068000*%
%ADD63R,0.068000X0.068000*%
%TA.AperFunction,ViaPad*%
%ADD64C,0.204850*%
%TA.AperFunction,ComponentPad*%
%ADD65C,0.067055*%
%ADD66C,0.086740*%
%ADD67R,0.067055X0.067055*%
%ADD68R,0.068000X0.068000*%
%ADD69R,0.067055X0.067055*%
%ADD70C,0.126110*%
%ADD71R,0.126110X0.126110*%
%ADD72R,0.126110X0.126110*%
%TA.AperFunction,WasherPad*%
%ADD73C,0.068000*%
%TA.AperFunction,ViaPad*%
%ADD74C,0.038000*%
%ADD75C,0.058000*%
%ADD76C,0.043000*%
%ADD77C,0.048000*%
%ADD78C,0.028000*%
D55*
X640000Y2884370D02*
D03*
Y2805630D02*
D03*
X425000Y2884370D02*
D03*
Y2805630D02*
D03*
D56*
X3824487Y1360413D02*
D03*
X3485510D02*
D03*
X3824487Y1005000D02*
D03*
X3485510D02*
D03*
X3485508Y1715000D02*
D03*
X3824484D02*
D03*
X3830489Y2110000D02*
D03*
X3491513D02*
D03*
D57*
X3556573Y1360413D02*
D03*
X3753424D02*
D03*
X3654999D02*
D03*
X3556573Y1005000D02*
D03*
X3753424D02*
D03*
X3654999D02*
D03*
X3753421Y1715000D02*
D03*
X3556571D02*
D03*
X3654996D02*
D03*
X3562576Y2110000D02*
D03*
X3759426D02*
D03*
X3661001D02*
D03*
D58*
X3394490Y1005000D02*
D03*
X3055513D02*
D03*
X694490Y1071000D02*
D03*
X355514D02*
D03*
X694490Y1830500D02*
D03*
X355514D02*
D03*
X694490Y2590000D02*
D03*
X355514D02*
D03*
D59*
X3126576Y1005000D02*
D03*
X3323427D02*
D03*
X3225001D02*
D03*
X426577Y1071000D02*
D03*
X623427D02*
D03*
X525002D02*
D03*
X426577Y1830500D02*
D03*
X623427D02*
D03*
X525002D02*
D03*
X426577Y2590000D02*
D03*
X623427D02*
D03*
X525002D02*
D03*
D60*
X2000315Y1305000D02*
D03*
X2139685D02*
D03*
D61*
X3071024Y1440000D02*
D03*
X2948976D02*
D03*
X3081024Y1740000D02*
D03*
X2958976D02*
D03*
X3071024Y2039685D02*
D03*
X2948976D02*
D03*
X1928976Y1500000D02*
D03*
X2051024D02*
D03*
X118976Y1814999D02*
D03*
X241023D02*
D03*
D62*
X330000Y2285000D02*
D03*
X230000D02*
D03*
X1334000Y2069000D02*
D03*
X1234000D02*
D03*
X339842Y1427000D02*
D03*
X239843D02*
D03*
X2550000Y1245000D02*
D03*
X2450000D02*
D03*
X3250000Y2550000D02*
D03*
X3350000D02*
D03*
X3450000D02*
D03*
X3550000D02*
D03*
X3650000D02*
D03*
X3050000D02*
D03*
X3150000D02*
D03*
X3740000Y3260000D02*
D03*
Y3160000D02*
D03*
Y3060000D02*
D03*
X3250000Y2450000D02*
D03*
X3350000D02*
D03*
X3450000D02*
D03*
X3550000D02*
D03*
X3650000D02*
D03*
X3050000D02*
D03*
X3150000D02*
D03*
X2165000D02*
D03*
X2265000D02*
D03*
X2365000D02*
D03*
X2465000D02*
D03*
X2565000D02*
D03*
X1965000D02*
D03*
X2065000D02*
D03*
X2165000Y2550000D02*
D03*
X2265000D02*
D03*
X2365000D02*
D03*
X2465000D02*
D03*
X2565000D02*
D03*
X1965000D02*
D03*
X2065000D02*
D03*
D63*
X130000Y2285000D02*
D03*
X1134000Y2069000D02*
D03*
X139843Y1427000D02*
D03*
X2350000Y1245000D02*
D03*
X2950000Y2550000D02*
D03*
Y2450000D02*
D03*
X1865000D02*
D03*
Y2550000D02*
D03*
D64*
X3408526Y3698528D02*
D03*
X371000Y81000D02*
D03*
D65*
X723787Y2790000D02*
D03*
Y2890000D02*
D03*
X508787Y2790000D02*
D03*
Y2890000D02*
D03*
X1241000Y1034000D02*
D03*
X1841000D02*
D03*
X2041000D02*
D03*
X1141000D02*
D03*
X1241000Y1634000D02*
D03*
X1841000D02*
D03*
X2041000D02*
D03*
X3654999Y1360413D02*
D03*
X3554999D02*
D03*
X3654999Y1005000D02*
D03*
X3554999D02*
D03*
X3225001Y1005000D02*
D03*
X3125001D02*
D03*
X3654996Y1715000D02*
D03*
X3754996D02*
D03*
X3661001Y2110000D02*
D03*
X3561001D02*
D03*
X525002Y1071000D02*
D03*
X425002D02*
D03*
X525002Y1830500D02*
D03*
X425002D02*
D03*
X525002Y2590000D02*
D03*
X425002D02*
D03*
D66*
X723787Y3190000D02*
D03*
Y3490000D02*
D03*
X508787Y3190000D02*
D03*
Y3490000D02*
D03*
D67*
X1141000Y1634000D02*
D03*
D68*
X3740000Y2960000D02*
D03*
D69*
X3754999Y1360413D02*
D03*
Y1005000D02*
D03*
X3325001Y1005000D02*
D03*
X3554996Y1715000D02*
D03*
X3761001Y2110000D02*
D03*
X625002Y1071000D02*
D03*
Y1830500D02*
D03*
Y2590000D02*
D03*
D70*
X102665Y2776575D02*
D03*
Y3221575D02*
D03*
X630553Y3715000D02*
D03*
X105001Y739425D02*
D03*
D71*
X102665Y2973425D02*
D03*
Y3418425D02*
D03*
X105001Y542575D02*
D03*
D72*
X433703Y3715000D02*
D03*
D73*
X0Y0D02*
D03*
X3779526D02*
D03*
Y3779528D02*
D03*
X0D02*
D03*
D74*
X50000Y1560000D02*
D03*
X-25000D02*
D03*
X40000Y2095000D02*
D03*
X-10000D02*
D03*
X3245000Y1790000D02*
D03*
X3250000Y1485000D02*
D03*
X2160000Y1945000D02*
D03*
Y1875000D02*
D03*
X2185000Y1910000D02*
D03*
Y1840000D02*
D03*
X2160000Y1803579D02*
D03*
X2185000Y1768224D02*
D03*
X2860000Y1945000D02*
D03*
X2765000Y1899645D02*
D03*
X2780000Y1990000D02*
D03*
X2785000Y2095000D02*
D03*
X2780000Y1790000D02*
D03*
Y1690000D02*
D03*
X2600000Y1695000D02*
D03*
Y1595000D02*
D03*
X2840000Y1435000D02*
D03*
Y1740000D02*
D03*
X2845000Y2045000D02*
D03*
X2165000D02*
D03*
X2685000Y2050000D02*
D03*
X2415000Y1720000D02*
D03*
X2155000D02*
D03*
X2290000Y2325000D02*
D03*
X2165000Y2261535D02*
D03*
X2695000Y2260000D02*
D03*
X1930000Y1660000D02*
D03*
X1775000Y1680000D02*
D03*
X1971995Y1590000D02*
D03*
X2580000Y1340000D02*
D03*
X2522500Y1425000D02*
D03*
X2695000Y1340000D02*
D03*
X2810000D02*
D03*
X2407500Y1425000D02*
D03*
X2062500D02*
D03*
X1832500D02*
D03*
X1775000Y1340000D02*
D03*
Y1510000D02*
D03*
X2235000D02*
D03*
X2350000D02*
D03*
X2465000D02*
D03*
X2292500Y1595000D02*
D03*
X2407500D02*
D03*
X2235000Y1680000D02*
D03*
X2350000D02*
D03*
X2465000D02*
D03*
X2637500Y1425000D02*
D03*
X2580000Y1510000D02*
D03*
X2522500Y1595000D02*
D03*
X2715000Y1780000D02*
D03*
X2220000Y2085000D02*
D03*
X2998189Y1958976D02*
D03*
X3040000Y1850000D02*
D03*
X3270000D02*
D03*
X3097500Y1595000D02*
D03*
X2925000Y1000000D02*
D03*
X3410245Y804054D02*
D03*
X3525245D02*
D03*
X3730000Y1170000D02*
D03*
X3615000D02*
D03*
X3430000Y1295000D02*
D03*
X3212500Y1255000D02*
D03*
X3270000Y1185000D02*
D03*
X2867500Y1085000D02*
D03*
X2925000Y1170000D02*
D03*
X2982500Y1085000D02*
D03*
X3155000Y1180000D02*
D03*
X2120000Y1170000D02*
D03*
X2289000Y1095000D02*
D03*
X2187500D02*
D03*
X1947500Y1085000D02*
D03*
X1890000Y1170000D02*
D03*
X1832500Y1255000D02*
D03*
X1822745Y1108550D02*
D03*
X1775000Y1170000D02*
D03*
X2216976Y1151976D02*
D03*
X2642500Y1095000D02*
D03*
X2757500D02*
D03*
X2580000Y1170000D02*
D03*
X2695000D02*
D03*
X2810000D02*
D03*
X1986976Y981976D02*
D03*
X1775000Y1000000D02*
D03*
X1899755Y976451D02*
D03*
X2980000Y2120394D02*
D03*
X3305000Y805000D02*
D03*
X3190000D02*
D03*
X3075000D02*
D03*
X3640245Y804054D02*
D03*
D75*
X1127185Y2539500D02*
D03*
X3418000Y2895000D02*
D03*
X1010000Y2270000D02*
D03*
X3420000Y1360000D02*
D03*
Y1480000D02*
D03*
X3165000Y2045000D02*
D03*
X3175000Y1740000D02*
D03*
Y1440000D02*
D03*
X2930000Y875000D02*
D03*
X1720000Y2385000D02*
D03*
X1775000Y2325000D02*
D03*
X1015000Y2185000D02*
D03*
X3420000Y1420000D02*
D03*
X3625000Y2364000D02*
D03*
D76*
X3500000Y2980630D02*
D03*
D77*
X166000Y39000D02*
D03*
X-38000Y161000D02*
D03*
X98000D02*
D03*
X234000D02*
D03*
Y405000D02*
D03*
X302000Y39000D02*
D03*
Y527000D02*
D03*
Y283000D02*
D03*
X574000Y39000D02*
D03*
X710000D02*
D03*
X438000D02*
D03*
X506000Y161000D02*
D03*
X642000D02*
D03*
X370000D02*
D03*
X574000Y283000D02*
D03*
X710000D02*
D03*
X438000D02*
D03*
Y527000D02*
D03*
X370000Y405000D02*
D03*
X642000D02*
D03*
X506000D02*
D03*
X574000Y527000D02*
D03*
X710000D02*
D03*
X1019000Y1037000D02*
D03*
X3300000Y3585000D02*
D03*
X3400000Y3485000D02*
D03*
X3500000Y3585000D02*
D03*
X3600000Y3485000D02*
D03*
Y3685000D02*
D03*
X3500000Y3785000D02*
D03*
X3300000D02*
D03*
X3700000Y3585000D02*
D03*
X3300000Y3385000D02*
D03*
X3500000D02*
D03*
X3700000D02*
D03*
X3800000Y3485000D02*
D03*
X3600000Y3285000D02*
D03*
X3400000D02*
D03*
X3300000Y3185000D02*
D03*
X3200000Y3040000D02*
D03*
X3000000Y2840000D02*
D03*
X3100000Y2940000D02*
D03*
X3717000Y2791000D02*
D03*
X3800000Y2835000D02*
D03*
X3620000D02*
D03*
Y2720000D02*
D03*
X3413000Y2836000D02*
D03*
X3805000Y2715000D02*
D03*
X3715000Y2660000D02*
D03*
X3805000Y2605000D02*
D03*
Y2495000D02*
D03*
Y2385000D02*
D03*
X3715000Y2330000D02*
D03*
X3305000Y2315000D02*
D03*
X3385000Y2265000D02*
D03*
X2975000Y2305000D02*
D03*
X3040000Y2350000D02*
D03*
X3095000Y2300000D02*
D03*
X2660000Y2450000D02*
D03*
Y2560000D02*
D03*
X2750000Y2505000D02*
D03*
X1765000Y2440000D02*
D03*
X1597000Y2419000D02*
D03*
X1647000Y2557000D02*
D03*
X1765000Y2560000D02*
D03*
X1675000Y2495000D02*
D03*
X1519000Y2371000D02*
D03*
X1571000Y2494000D02*
D03*
X1363000Y2332000D02*
D03*
X1390000Y2643055D02*
D03*
X819000Y2678000D02*
D03*
X1263000Y2767000D02*
D03*
X1495000Y970000D02*
D03*
X1308000Y955000D02*
D03*
X1097000Y951000D02*
D03*
X1501000Y1188000D02*
D03*
X889000Y1405000D02*
D03*
X1159000Y1437000D02*
D03*
X1185000Y1213000D02*
D03*
X1395000Y1070000D02*
D03*
X1332000Y1179000D02*
D03*
X1266000Y1316000D02*
D03*
X1488000Y1443000D02*
D03*
X1347000D02*
D03*
X1435000Y1582000D02*
D03*
X1395000Y1670000D02*
D03*
X1476000Y1784000D02*
D03*
X880000Y1293000D02*
D03*
X287000Y1257000D02*
D03*
X995000Y870000D02*
D03*
X898000Y771000D02*
D03*
X795000Y670000D02*
D03*
X195000Y895000D02*
D03*
X533000Y819000D02*
D03*
X280000Y970000D02*
D03*
X848000Y1051000D02*
D03*
X120000Y975000D02*
D03*
X324000Y854000D02*
D03*
X425000Y890000D02*
D03*
X600000D02*
D03*
X765353Y1002696D02*
D03*
Y1200527D02*
D03*
X295000Y1570000D02*
D03*
Y1970000D02*
D03*
X395000Y2070000D02*
D03*
X535000Y2170000D02*
D03*
X-42000Y2450000D02*
D03*
X523000Y2375000D02*
D03*
X-35000Y2542000D02*
D03*
X963000Y2498000D02*
D03*
X770000Y2475000D02*
D03*
X705000Y2355000D02*
D03*
X362000Y1331000D02*
D03*
X438000Y1279000D02*
D03*
X1295000Y1549000D02*
D03*
X1425000Y1311000D02*
D03*
X770000Y1745000D02*
D03*
Y1945000D02*
D03*
X3516000Y2769000D02*
D03*
D78*
X-20000Y684000D02*
D03*
%TF.MD5,01ae3c0d10e815eea013f4e955653493*%
M02*
