G04 Layer_Color=128*
%FSLAX25Y25*%
%MOIN*%
%TF.FileFunction,Drillmap*%
%TF.Part,Single*%
G01*
G75*
%TA.AperFunction,NonConductor*%
%ADD52C,0.00500*%
D52*
X39100Y208800D02*
X42100D01*
X40600Y207300D02*
Y210300D01*
X29100Y208800D02*
X32100D01*
X30600Y207300D02*
Y210300D01*
X19100Y208800D02*
X22100D01*
X20600Y207300D02*
Y210300D01*
X342547Y350153D02*
X354358D01*
X348453Y344247D02*
Y356058D01*
X78404Y259300D02*
X81554D01*
X79979Y257725D02*
Y260875D01*
X78404Y269300D02*
X81554D01*
X79979Y267725D02*
Y270875D01*
X78010Y299300D02*
X81947D01*
X79979Y297332D02*
Y301269D01*
X78010Y329300D02*
X81947D01*
X79979Y327331D02*
Y331269D01*
X56904Y259300D02*
X60053D01*
X58479Y257725D02*
Y260875D01*
X56904Y269300D02*
X60053D01*
X58479Y267725D02*
Y270875D01*
X56510Y299300D02*
X60447D01*
X58479Y297332D02*
Y301269D01*
X56510Y329300D02*
X60447D01*
X58479Y327331D02*
Y331269D01*
X119500Y187200D02*
X122500D01*
X121000Y185700D02*
Y188700D01*
X139500Y187200D02*
X142500D01*
X141000Y185700D02*
Y188700D01*
X129500Y187200D02*
X132500D01*
X131000Y185700D02*
Y188700D01*
X20084Y123000D02*
X23084D01*
X21584Y121500D02*
Y124500D01*
X40084Y123000D02*
X43084D01*
X41584Y121500D02*
Y124500D01*
X30084Y123000D02*
X33084D01*
X31584Y121500D02*
Y124500D01*
X241100Y104800D02*
X244100D01*
X242600Y103300D02*
Y106300D01*
X261100Y104800D02*
X264100D01*
X262600Y103300D02*
Y106300D01*
X251100Y104800D02*
X254100D01*
X252600Y103300D02*
Y106300D01*
X130125Y83700D02*
X133275D01*
X131700Y82125D02*
Y85275D01*
X190125Y83700D02*
X193275D01*
X191700Y82125D02*
Y85275D01*
X210125Y83700D02*
X213275D01*
X211700Y82125D02*
Y85275D01*
X120125Y83700D02*
X123275D01*
X121700Y82125D02*
Y85275D01*
X120125Y143700D02*
X123275D01*
X121700Y142125D02*
Y145275D01*
X130125Y143700D02*
X133275D01*
X131700Y142125D02*
Y145275D01*
X190125Y143700D02*
X193275D01*
X191700Y142125D02*
Y145275D01*
X210125Y143700D02*
X213275D01*
X211700Y142125D02*
Y145275D01*
X301100Y235300D02*
X304100D01*
X302600Y233800D02*
Y236800D01*
X331100Y235300D02*
X334100D01*
X332600Y233800D02*
Y236800D01*
X341100Y235300D02*
X344100D01*
X342600Y233800D02*
Y236800D01*
X351100Y235300D02*
X354100D01*
X352600Y233800D02*
Y236800D01*
X361100Y235300D02*
X364100D01*
X362600Y233800D02*
Y236800D01*
X371100Y235300D02*
X374100D01*
X372600Y233800D02*
Y236800D01*
X311100Y235300D02*
X314100D01*
X312600Y233800D02*
Y236800D01*
X321100Y235300D02*
X324100D01*
X322600Y233800D02*
Y236800D01*
X380100Y306300D02*
X383100D01*
X381600Y304800D02*
Y307800D01*
X380100Y296300D02*
X383100D01*
X381600Y294800D02*
Y297800D01*
X380100Y286300D02*
X383100D01*
X381600Y284800D02*
Y287800D01*
X380100Y276300D02*
X383100D01*
X381600Y274800D02*
Y277800D01*
X301100Y225300D02*
X304100D01*
X302600Y223800D02*
Y226800D01*
X331100Y225300D02*
X334100D01*
X332600Y223800D02*
Y226800D01*
X341100Y225300D02*
X344100D01*
X342600Y223800D02*
Y226800D01*
X351100Y225300D02*
X354100D01*
X352600Y223800D02*
Y226800D01*
X361100Y225300D02*
X364100D01*
X362600Y223800D02*
Y226800D01*
X371100Y225300D02*
X374100D01*
X372600Y223800D02*
Y226800D01*
X311100Y225300D02*
X314100D01*
X312600Y223800D02*
Y226800D01*
X321100Y225300D02*
X324100D01*
X322600Y223800D02*
Y226800D01*
X192600Y225300D02*
X195600D01*
X194100Y223800D02*
Y226800D01*
X222600Y225300D02*
X225600D01*
X224100Y223800D02*
Y226800D01*
X232600Y225300D02*
X235600D01*
X234100Y223800D02*
Y226800D01*
X242600Y225300D02*
X245600D01*
X244100Y223800D02*
Y226800D01*
X252600Y225300D02*
X255600D01*
X254100Y223800D02*
Y226800D01*
X262600Y225300D02*
X265600D01*
X264100Y223800D02*
Y226800D01*
X202600Y225300D02*
X205600D01*
X204100Y223800D02*
Y226800D01*
X212600Y225300D02*
X215600D01*
X214100Y223800D02*
Y226800D01*
X192600Y235300D02*
X195600D01*
X194100Y233800D02*
Y236800D01*
X222600Y235300D02*
X225600D01*
X224100Y233800D02*
Y236800D01*
X232600Y235300D02*
X235600D01*
X234100Y233800D02*
Y236800D01*
X242600Y235300D02*
X245600D01*
X244100Y233800D02*
Y236800D01*
X252600Y235300D02*
X255600D01*
X254100Y233800D02*
Y236800D01*
X262600Y235300D02*
X265600D01*
X264100Y233800D02*
Y236800D01*
X202600Y235300D02*
X205600D01*
X204100Y233800D02*
Y236800D01*
X212600Y235300D02*
X215600D01*
X214100Y233800D02*
Y236800D01*
X381328Y116341D02*
X384872D01*
X383100Y114570D02*
Y118113D01*
X371328Y116341D02*
X374871D01*
X373100Y114570D02*
Y118113D01*
X361328Y116341D02*
X364872D01*
X363100Y114570D02*
Y118113D01*
X381328Y80800D02*
X384872D01*
X383100Y79028D02*
Y82572D01*
X371328Y80800D02*
X374871D01*
X373100Y79028D02*
Y82572D01*
X361328Y80800D02*
X364872D01*
X363100Y79028D02*
Y82572D01*
X338329Y80800D02*
X341872D01*
X340100Y79028D02*
Y82572D01*
X328328Y80800D02*
X331872D01*
X330100Y79028D02*
Y82572D01*
X318328Y80800D02*
X321872D01*
X320100Y79028D02*
Y82572D01*
X361328Y151800D02*
X364871D01*
X363100Y150028D02*
Y153572D01*
X371328Y151800D02*
X374871D01*
X373100Y150028D02*
Y153572D01*
X381328Y151800D02*
X384871D01*
X383100Y150028D02*
Y153572D01*
X381928Y191300D02*
X385472D01*
X383700Y189528D02*
Y193072D01*
X371929Y191300D02*
X375472D01*
X373700Y189528D02*
Y193072D01*
X361929Y191300D02*
X365472D01*
X363700Y189528D02*
Y193072D01*
X68328Y87400D02*
X71872D01*
X70100Y85628D02*
Y89172D01*
X58328Y87400D02*
X61872D01*
X60100Y85628D02*
Y89172D01*
X48329Y87400D02*
X51872D01*
X50100Y85628D02*
Y89172D01*
X68328Y163350D02*
X71872D01*
X70100Y161578D02*
Y165122D01*
X58328Y163350D02*
X61872D01*
X60100Y161578D02*
Y165122D01*
X48329Y163350D02*
X51872D01*
X50100Y161578D02*
Y165122D01*
X68328Y239300D02*
X71872D01*
X70100Y237528D02*
Y241072D01*
X58328Y239300D02*
X61872D01*
X60100Y237528D02*
Y241072D01*
X48329Y239300D02*
X51872D01*
X50100Y237528D02*
Y241072D01*
X15504Y257958D02*
X20229D01*
X17866Y255595D02*
Y260320D01*
X15504Y277642D02*
X20229D01*
X17866Y275280D02*
Y280005D01*
X15504Y302457D02*
X20229D01*
X17866Y300095D02*
Y304820D01*
X15504Y322143D02*
X20229D01*
X17866Y319780D02*
Y324505D01*
X68293Y351800D02*
X73018D01*
X70655Y349438D02*
Y354162D01*
X48608Y351800D02*
X53333D01*
X50970Y349438D02*
Y354162D01*
X15738Y54242D02*
X20462D01*
X18100Y51880D02*
Y56605D01*
X15738Y34558D02*
X20462D01*
X18100Y32195D02*
Y36920D01*
X38794Y-11600D02*
X50605D01*
X44700Y-17505D02*
Y-5694D01*
X1695Y-19700D02*
X13506D01*
X7600Y-25605D02*
Y-13794D01*
X379647Y-19700D02*
X391458D01*
X385553Y-25605D02*
Y-13794D01*
X379647Y358253D02*
X391458D01*
X385553Y352347D02*
Y364158D01*
X1695Y358253D02*
X13506D01*
X7600Y352347D02*
Y364158D01*
X11813Y136300D02*
X13387D01*
X12600Y135513D02*
Y137087D01*
X4313Y136300D02*
X5887D01*
X5100Y135513D02*
Y137087D01*
X118919Y234250D02*
X121719D01*
X120318Y232850D02*
Y235650D01*
X348000Y269800D02*
X350800D01*
X349400Y268400D02*
Y271200D01*
X356600Y278363D02*
X358600D01*
X357600Y277363D02*
Y279363D01*
X23200Y-15800D02*
X25200D01*
X24200Y-16800D02*
Y-14800D01*
X2800Y-3600D02*
X4800D01*
X3800Y-4600D02*
Y-2600D01*
X16400Y-3600D02*
X18400D01*
X17400Y-4600D02*
Y-2600D01*
X30000Y-3600D02*
X32000D01*
X31000Y-4600D02*
Y-2600D01*
X30000Y20800D02*
X32000D01*
X31000Y19800D02*
Y21800D01*
X36800Y-15800D02*
X38800D01*
X37800Y-16800D02*
Y-14800D01*
X36800Y33000D02*
X38800D01*
X37800Y32000D02*
Y34000D01*
X36800Y8600D02*
X38800D01*
X37800Y7600D02*
Y9600D01*
X64000Y-15800D02*
X66000D01*
X65000Y-16800D02*
Y-14800D01*
X77600Y-15800D02*
X79600D01*
X78600Y-16800D02*
Y-14800D01*
X50400Y-15800D02*
X52400D01*
X51400Y-16800D02*
Y-14800D01*
X57200Y-3600D02*
X59200D01*
X58200Y-4600D02*
Y-2600D01*
X70800Y-3600D02*
X72800D01*
X71800Y-4600D02*
Y-2600D01*
X43600Y-3600D02*
X45600D01*
X44600Y-4600D02*
Y-2600D01*
X64000Y8600D02*
X66000D01*
X65000Y7600D02*
Y9600D01*
X77600Y8600D02*
X79600D01*
X78600Y7600D02*
Y9600D01*
X50400Y8600D02*
X52400D01*
X51400Y7600D02*
Y9600D01*
X50400Y33000D02*
X52400D01*
X51400Y32000D02*
Y34000D01*
X43600Y20800D02*
X45600D01*
X44600Y19800D02*
Y21800D01*
X70800Y20800D02*
X72800D01*
X71800Y19800D02*
Y21800D01*
X57200Y20800D02*
X59200D01*
X58200Y19800D02*
Y21800D01*
X64000Y33000D02*
X66000D01*
X65000Y32000D02*
Y34000D01*
X77600Y33000D02*
X79600D01*
X78600Y32000D02*
Y34000D01*
X5100Y48700D02*
X6100D01*
X5600Y48200D02*
Y49200D01*
X108500Y84000D02*
X110500D01*
X109500Y83000D02*
Y85000D01*
X10813Y189800D02*
X12387D01*
X11600Y189013D02*
Y190587D01*
X5813Y189800D02*
X7387D01*
X6600Y189013D02*
Y190587D01*
X107200Y207300D02*
X110000D01*
X108600Y205900D02*
Y208700D01*
X348200Y116300D02*
X351000D01*
X349600Y114900D02*
Y117700D01*
X348200Y128300D02*
X351000D01*
X349600Y126900D02*
Y129700D01*
X322700Y184800D02*
X325500D01*
X324100Y183400D02*
Y186200D01*
X323700Y154300D02*
X326500D01*
X325100Y152900D02*
Y155700D01*
X331313Y159300D02*
X332887D01*
X332100Y158513D02*
Y160087D01*
X331813Y128800D02*
X333387D01*
X332600Y128013D02*
Y129587D01*
X323700Y124300D02*
X326500D01*
X325100Y122900D02*
Y125700D01*
X222813Y174800D02*
X224387D01*
X223600Y174013D02*
Y175587D01*
X222813Y167800D02*
X224387D01*
X223600Y167013D02*
Y168587D01*
X225313Y171300D02*
X226887D01*
X226100Y170513D02*
Y172087D01*
X225313Y164300D02*
X226887D01*
X226100Y163513D02*
Y165087D01*
X222813Y160658D02*
X224387D01*
X223600Y159871D02*
Y161445D01*
X225313Y157122D02*
X226887D01*
X226100Y156335D02*
Y157910D01*
X292813Y174800D02*
X294387D01*
X293600Y174013D02*
Y175587D01*
X283313Y170264D02*
X284887D01*
X284100Y169477D02*
Y171052D01*
X284813Y179300D02*
X286387D01*
X285600Y178513D02*
Y180087D01*
X285313Y189800D02*
X286887D01*
X286100Y189013D02*
Y190587D01*
X284813Y159300D02*
X286387D01*
X285600Y158513D02*
Y160087D01*
X284813Y149300D02*
X286387D01*
X285600Y148513D02*
Y150087D01*
X266813Y149800D02*
X268387D01*
X267600Y149013D02*
Y150587D01*
X266813Y139800D02*
X268387D01*
X267600Y139013D02*
Y140587D01*
X290813Y123800D02*
X292387D01*
X291600Y123013D02*
Y124587D01*
X290813Y154300D02*
X292387D01*
X291600Y153513D02*
Y155087D01*
X291313Y184800D02*
X292887D01*
X292100Y184013D02*
Y185587D01*
X299813Y67800D02*
X301387D01*
X300600Y67013D02*
Y68587D01*
X223313Y184800D02*
X224887D01*
X224100Y184013D02*
Y185587D01*
X275313Y185300D02*
X276887D01*
X276100Y184513D02*
Y186087D01*
X248313Y152300D02*
X249887D01*
X249100Y151513D02*
Y153087D01*
X222313Y152300D02*
X223887D01*
X223100Y151513D02*
Y153087D01*
X235813Y212800D02*
X237387D01*
X236600Y212013D02*
Y213587D01*
X223313Y206453D02*
X224887D01*
X224100Y205666D02*
Y207241D01*
X178200Y218800D02*
X181000D01*
X179600Y217400D02*
Y220200D01*
X183700Y212800D02*
X186500D01*
X185100Y211400D02*
Y214200D01*
X107700Y198800D02*
X110500D01*
X109100Y197400D02*
Y200200D01*
X336600Y338800D02*
X338600D01*
X337600Y337800D02*
Y339800D01*
X346600Y328800D02*
X348600D01*
X347600Y327800D02*
Y329800D01*
X356600Y338800D02*
X358600D01*
X357600Y337800D02*
Y339800D01*
X366600Y328800D02*
X368600D01*
X367600Y327800D02*
Y329800D01*
X366600Y348800D02*
X368600D01*
X367600Y347800D02*
Y349800D01*
X356600Y358800D02*
X358600D01*
X357600Y357800D02*
Y359800D01*
X336600Y358800D02*
X338600D01*
X337600Y357800D02*
Y359800D01*
X376600Y338800D02*
X378600D01*
X377600Y337800D02*
Y339800D01*
X336600Y318800D02*
X338600D01*
X337600Y317800D02*
Y319800D01*
X356600Y318800D02*
X358600D01*
X357600Y317800D02*
Y319800D01*
X376600Y318800D02*
X378600D01*
X377600Y317800D02*
Y319800D01*
X386600Y328800D02*
X388600D01*
X387600Y327800D02*
Y329800D01*
X366600Y308800D02*
X368600D01*
X367600Y307800D02*
Y309800D01*
X346600Y308800D02*
X348600D01*
X347600Y307800D02*
Y309800D01*
X336600Y298800D02*
X338600D01*
X337600Y297800D02*
Y299800D01*
X326600Y284300D02*
X328600D01*
X327600Y283300D02*
Y285300D01*
X306600Y264300D02*
X308600D01*
X307600Y263300D02*
Y265300D01*
X316600Y274300D02*
X318600D01*
X317600Y273300D02*
Y275300D01*
X378300Y259400D02*
X380300D01*
X379300Y258400D02*
Y260400D01*
X386600Y263800D02*
X388600D01*
X387600Y262800D02*
Y264800D01*
X368600Y263800D02*
X370600D01*
X369600Y262800D02*
Y264800D01*
X368600Y252300D02*
X370600D01*
X369600Y251300D02*
Y253300D01*
X347900Y263900D02*
X349900D01*
X348900Y262900D02*
Y264900D01*
X387100Y251800D02*
X389100D01*
X388100Y250800D02*
Y252800D01*
X378100Y246300D02*
X380100D01*
X379100Y245300D02*
Y247300D01*
X387100Y240800D02*
X389100D01*
X388100Y239800D02*
Y241800D01*
X387100Y229800D02*
X389100D01*
X388100Y228800D02*
Y230800D01*
X387100Y218800D02*
X389100D01*
X388100Y217800D02*
Y219800D01*
X378100Y213300D02*
X380100D01*
X379100Y212300D02*
Y214300D01*
X337100Y211800D02*
X339100D01*
X338100Y210800D02*
Y212800D01*
X345100Y206800D02*
X347100D01*
X346100Y205800D02*
Y207800D01*
X304100Y210800D02*
X306100D01*
X305100Y209800D02*
Y211800D01*
X310600Y215300D02*
X312600D01*
X311600Y214300D02*
Y216300D01*
X316100Y210300D02*
X318100D01*
X317100Y209300D02*
Y211300D01*
X276350Y206300D02*
X277850D01*
X277100Y205550D02*
Y207050D01*
X272600Y225300D02*
X274600D01*
X273600Y224300D02*
Y226300D01*
X272600Y236300D02*
X274600D01*
X273600Y235300D02*
Y237300D01*
X281600Y230800D02*
X283600D01*
X282600Y229800D02*
Y231800D01*
X183100Y224300D02*
X185100D01*
X184100Y223300D02*
Y225300D01*
X166300Y222200D02*
X168300D01*
X167300Y221200D02*
Y223200D01*
X171300Y236000D02*
X173300D01*
X172300Y235000D02*
Y237000D01*
X183100Y236300D02*
X185100D01*
X184100Y235300D02*
Y237300D01*
X174100Y229800D02*
X176100D01*
X175100Y228800D02*
Y230800D01*
X158500Y217400D02*
X160500D01*
X159500Y216400D02*
Y218400D01*
X163700Y229700D02*
X165700D01*
X164700Y228700D02*
Y230700D01*
X142900Y213500D02*
X144900D01*
X143900Y212500D02*
Y214500D01*
X145600Y244605D02*
X147600D01*
X146600Y243605D02*
Y245605D01*
X88500Y248100D02*
X90500D01*
X89500Y247100D02*
Y249100D01*
X132900Y257000D02*
X134900D01*
X133900Y256000D02*
Y258000D01*
X156100Y77300D02*
X158100D01*
X157100Y76300D02*
Y78300D01*
X137400Y75800D02*
X139400D01*
X138400Y74800D02*
Y76800D01*
X116300Y75400D02*
X118300D01*
X117300Y74400D02*
Y76400D01*
X156700Y99100D02*
X158700D01*
X157700Y98100D02*
Y100100D01*
X95500Y120800D02*
X97500D01*
X96500Y119800D02*
Y121800D01*
X122500Y124000D02*
X124500D01*
X123500Y123000D02*
Y125000D01*
X125100Y101600D02*
X127100D01*
X126100Y100600D02*
Y102600D01*
X146100Y87300D02*
X148100D01*
X147100Y86300D02*
Y88300D01*
X139800Y98200D02*
X141800D01*
X140800Y97200D02*
Y99200D01*
X133200Y111900D02*
X135200D01*
X134200Y110900D02*
Y112900D01*
X155400Y124600D02*
X157400D01*
X156400Y123600D02*
Y125600D01*
X141300Y124600D02*
X143300D01*
X142300Y123600D02*
Y125600D01*
X150100Y138500D02*
X152100D01*
X151100Y137500D02*
Y139500D01*
X146100Y147300D02*
X148100D01*
X147100Y146300D02*
Y148300D01*
X154200Y158700D02*
X156200D01*
X155200Y157700D02*
Y159700D01*
X94600Y109600D02*
X96600D01*
X95600Y108600D02*
Y110600D01*
X35300Y106000D02*
X37300D01*
X36300Y105000D02*
Y107000D01*
X106100Y67300D02*
X108100D01*
X107100Y66300D02*
Y68300D01*
X96400Y57400D02*
X98400D01*
X97400Y56400D02*
Y58400D01*
X86100Y47300D02*
X88100D01*
X87100Y46300D02*
Y48300D01*
X26100Y69800D02*
X28100D01*
X27100Y68800D02*
Y70800D01*
X59900Y62200D02*
X61900D01*
X60900Y61200D02*
Y63200D01*
X34600Y77300D02*
X36600D01*
X35600Y76300D02*
Y78300D01*
X91400Y85400D02*
X93400D01*
X92400Y84400D02*
Y86400D01*
X18600Y77800D02*
X20600D01*
X19600Y76800D02*
Y78800D01*
X39000Y65700D02*
X41000D01*
X40000Y64700D02*
Y66700D01*
X49100Y69300D02*
X51100D01*
X50100Y68300D02*
Y70300D01*
X66600Y69300D02*
X68600D01*
X67600Y68300D02*
Y70300D01*
X83135Y80570D02*
X85135D01*
X84135Y79570D02*
Y81570D01*
X83135Y100353D02*
X85135D01*
X84135Y99353D02*
Y101353D01*
X36100Y137300D02*
X38100D01*
X37100Y136300D02*
Y138300D01*
X36100Y177300D02*
X38100D01*
X37100Y176300D02*
Y178300D01*
X46100Y187300D02*
X48100D01*
X47100Y186300D02*
Y188300D01*
X60100Y197300D02*
X62100D01*
X61100Y196300D02*
Y198300D01*
X2400Y225300D02*
X4400D01*
X3400Y224300D02*
Y226300D01*
X58900Y217800D02*
X60900D01*
X59900Y216800D02*
Y218800D01*
X3100Y234500D02*
X5100D01*
X4100Y233500D02*
Y235500D01*
X102900Y230100D02*
X104900D01*
X103900Y229100D02*
Y231100D01*
X83600Y227800D02*
X85600D01*
X84600Y226800D02*
Y228800D01*
X77100Y215800D02*
X79100D01*
X78100Y214800D02*
Y216800D01*
X42800Y113400D02*
X44800D01*
X43800Y112400D02*
Y114400D01*
X50400Y108200D02*
X52400D01*
X51400Y107200D02*
Y109200D01*
X136100Y135200D02*
X138100D01*
X137100Y134200D02*
Y136200D01*
X149100Y111400D02*
X151100D01*
X150100Y110400D02*
Y112400D01*
X348200Y122300D02*
X351000D01*
X349600Y120900D02*
Y123700D01*
X199850Y146300D02*
X201350D01*
X200600Y145550D02*
Y147050D01*
X184350Y148300D02*
X185850D01*
X185100Y147550D02*
Y149050D01*
X204049Y139300D02*
X205550D01*
X204800Y138550D02*
Y140050D01*
X264850Y114300D02*
X266350D01*
X265600Y113550D02*
Y115050D01*
X259100Y122800D02*
X260600D01*
X259850Y122050D02*
Y123550D01*
X276350Y114300D02*
X277850D01*
X277100Y113550D02*
Y115050D01*
X287850Y114300D02*
X289350D01*
X288600Y113550D02*
Y115050D01*
X247600Y122800D02*
X249100D01*
X248350Y122050D02*
Y123550D01*
X213100Y122800D02*
X214600D01*
X213850Y122050D02*
Y123550D01*
X190100Y122800D02*
X191600D01*
X190850Y122050D02*
Y123550D01*
X184350Y114300D02*
X185850D01*
X185100Y113550D02*
Y115050D01*
X184350Y131300D02*
X185850D01*
X185100Y130550D02*
Y132050D01*
X230350Y131300D02*
X231850D01*
X231100Y130550D02*
Y132050D01*
X241850Y131300D02*
X243350D01*
X242600Y130550D02*
Y132050D01*
X253350Y131300D02*
X254850D01*
X254100Y130550D02*
Y132050D01*
X236100Y139800D02*
X237600D01*
X236850Y139050D02*
Y140550D01*
X247600Y139800D02*
X249100D01*
X248350Y139050D02*
Y140550D01*
X230350Y148300D02*
X231850D01*
X231100Y147550D02*
Y149050D01*
X241850Y148300D02*
X243350D01*
X242600Y147550D02*
Y149050D01*
X253350Y148300D02*
X254850D01*
X254100Y147550D02*
Y149050D01*
X270600Y122800D02*
X272100D01*
X271350Y122050D02*
Y123550D01*
X264850Y131300D02*
X266350D01*
X265600Y130550D02*
Y132050D01*
X259100Y139800D02*
X260600D01*
X259850Y139050D02*
Y140550D01*
X278350Y158300D02*
X279850D01*
X279100Y157550D02*
Y159050D01*
X228850Y188800D02*
X230350D01*
X229600Y188050D02*
Y189550D01*
X306669Y176198D02*
X308169D01*
X307419Y175448D02*
Y176948D01*
X310850Y165300D02*
X312350D01*
X311600Y164550D02*
Y166050D01*
X333850Y165300D02*
X335350D01*
X334600Y164550D02*
Y166050D01*
X316600Y139800D02*
X318100D01*
X317350Y139050D02*
Y140550D01*
X299350Y80300D02*
X300850D01*
X300100Y79550D02*
Y81050D01*
X347874Y60705D02*
X349375D01*
X348624Y59955D02*
Y61455D01*
X359374Y60705D02*
X360875D01*
X360124Y59955D02*
Y61455D01*
X379850Y97300D02*
X381350D01*
X380600Y96550D02*
Y98050D01*
X368350Y97300D02*
X369850D01*
X369100Y96550D02*
Y98050D01*
X349850Y109800D02*
X351350D01*
X350600Y109050D02*
Y110550D01*
X328100Y105800D02*
X329600D01*
X328850Y105050D02*
Y106550D01*
X333850Y98800D02*
X335350D01*
X334600Y98050D02*
Y99550D01*
X293600Y88800D02*
X295100D01*
X294350Y88050D02*
Y89550D01*
X299350Y97300D02*
X300850D01*
X300100Y96550D02*
Y98050D01*
X305100Y88800D02*
X306600D01*
X305850Y88050D02*
Y89550D01*
X322350Y98300D02*
X323850D01*
X323100Y97550D02*
Y99050D01*
X218850Y97300D02*
X220350D01*
X219600Y96550D02*
Y98050D01*
X235750Y89800D02*
X237250D01*
X236500Y89050D02*
Y90550D01*
X225600Y89800D02*
X227100D01*
X226350Y89050D02*
Y90550D01*
X201600Y88800D02*
X203100D01*
X202350Y88050D02*
Y89550D01*
X195850Y97300D02*
X197350D01*
X196600Y96550D02*
Y98050D01*
X190100Y105800D02*
X191600D01*
X190850Y105050D02*
Y106550D01*
X189125Y91155D02*
X190624D01*
X189874Y90405D02*
Y91905D01*
X184350Y97300D02*
X185850D01*
X185100Y96550D02*
Y98050D01*
X228548Y95498D02*
X230048D01*
X229298Y94748D02*
Y96248D01*
X271100Y89800D02*
X272600D01*
X271850Y89050D02*
Y90550D01*
X282600Y89800D02*
X284100D01*
X283350Y89050D02*
Y90550D01*
X264850Y97300D02*
X266350D01*
X265600Y96550D02*
Y98050D01*
X276350Y97300D02*
X277850D01*
X277100Y96550D02*
Y98050D01*
X287850Y97300D02*
X289350D01*
X288600Y96550D02*
Y98050D01*
X205548Y78498D02*
X207048D01*
X206298Y77748D02*
Y79248D01*
X184350Y80300D02*
X185850D01*
X185100Y79550D02*
Y81050D01*
X196826Y77945D02*
X198326D01*
X197575Y77195D02*
Y78695D01*
X304850Y192339D02*
X306350D01*
X305600Y191589D02*
Y193089D01*
X337350Y60800D02*
X338850D01*
X338100Y60050D02*
Y61550D01*
X325850Y60800D02*
X327350D01*
X326600Y60050D02*
Y61550D01*
X314350Y60800D02*
X315850D01*
X315100Y60050D02*
Y61550D01*
X370875Y60705D02*
X372375D01*
X371624Y59955D02*
Y61455D01*
X83600Y154800D02*
X85600D01*
X84600Y153800D02*
Y155800D01*
X83600Y174800D02*
X85600D01*
X84600Y173800D02*
Y175800D01*
X368700Y216700D02*
X371500D01*
X370100Y215300D02*
Y218100D01*
X358200Y257200D02*
X360200D01*
X359200Y256200D02*
Y258200D01*
%TF.MD5,aec43a58a2114c791dd43fbc38cb76de*%
M02*
