  0
SECTION
  2
HEADER
  9
$ACADVER
  1
AC1014
  9
$HANDSEED
  5
FFFF
  9
$MEASUREMENT
 70
     1
  0
ENDSEC
  0
SECTION
  2
TABLES
  0
TABLE
  2
VPORT
  5
8
330
0
100
AcDbSymbolTable
 70
     4
  0
VPORT
  5
2E
330
8
100
AcDbSymbolTableRecord
100
AcDbViewportTableRecord
  2
*ACTIVE
 70
     0
 10
0.0
 20
0.0
 11
1.0
 21
1.0
 12
210.0
 22
148.5
 13
0.0
 23
0.0
 14
10.0
 24
10.0
 15
10.0
 25
10.0
 16
0.0
 26
0.0
 36
1.0
 17
0.0
 27
0.0
 37
0.0
 40
341.0
 41
1.24
 42
50.0
 43
0.0
 44
0.0
 50
0.0
 51
0.0
 71
     0
 72
   100
 73
     1
 74
     3
 75
     0
 76
     0
 77
     0
 78
     0
  0
ENDTAB
  0
TABLE
  2
LTYPE
  5
5
330
0
100
AcDbSymbolTable
 70
     1
  0
LTYPE
  5
14
330
5
100
AcDbSymbolTableRecord
100
AcDbLinetypeTableRecord
  2
BYBLOCK
 70
     0
  3

 72
    65
 73
     0
 40
0.0
  0
LTYPE
  5
15
330
5
100
AcDbSymbolTableRecord
100
AcDbLinetypeTableRecord
  2
BYLAYER
 70
     0
  3

 72
    65
 73
     0
 40
0.0
  0
LTYPE
  5
16
330
5
100
AcDbSymbolTableRecord
100
AcDbLinetypeTableRecord
  2
CONTINUOUS
 70
     0
  3
Solid line
 72
    65
 73
     0
 40
0.0
  0
ENDTAB
  0
TABLE
  2
LAYER
  5
2
100
AcDbSymbolTable
 70
2
  0
LAYER
  5
50
100
AcDbSymbolTableRecord
100
AcDbLayerTableRecord
  2
0
 70
0
  6
CONTINUOUS
  0
LAYER
  5
51
100
AcDbSymbolTableRecord
100
AcDbLayerTableRecord
  2
Layer_1
 70
0
  6
CONTINUOUS
  0
ENDTAB
  0
TABLE
  2
STYLE
  5
3
330
0
100
AcDbSymbolTable
 70
     1
  0
STYLE
  5
11
330
3
100
AcDbSymbolTableRecord
100
AcDbTextStyleTableRecord
  2
STANDARD
 70
     0
 40
0.0
 41
1.0
 50
0.0
 71
     0
 42
2.5
  3
txt
  4

  0
ENDTAB
  0
TABLE
  2
VIEW
  5
6
330
0
100
AcDbSymbolTable
 70
     0
  0
ENDTAB
  0
TABLE
  2
UCS
  5
7
330
0
100
AcDbSymbolTable
 70
     0
  0
ENDTAB
  0
TABLE
  2
APPID
  5
9
330
0
100
AcDbSymbolTable
 70
     2
  0
APPID
  5
12
330
9
100
AcDbSymbolTableRecord
100
AcDbRegAppTableRecord
  2
ACAD
 70
     0
  0
ENDTAB
  0
TABLE
  2
DIMSTYLE
  5
A
330
0
100
AcDbSymbolTable
 70
     1
  0
DIMSTYLE
105
27
330
A
100
AcDbSymbolTableRecord
100
AcDbDimStyleTableRecord
  2
ISO-25
 70
     0
  3

  4

  5

  6

  7

 40
1.0
 41
2.5
 42
0.625
 43
3.75
 44
1.25
 45
0.0
 46
0.0
 47
0.0
 48
0.0
140
2.5
141
2.5
142
0.0
143
0.03937007874016
144
1.0
145
0.0
146
1.0
147
0.625
 71
     0
 72
     0
 73
     0
 74
     0
 75
     0
 76
     0
 77
     1
 78
     8
170
     0
171
     3
172
     1
173
     0
174
     0
175
     0
176
     0
177
     0
178
     0
270
     2
271
     2
272
     2
273
     2
274
     3
340
11
275
     0
280
     0
281
     0
282
     0
283
     0
284
     8
285
     0
286
     0
287
     3
288
     0
  0
ENDTAB
  0
TABLE
  2
BLOCK_RECORD
  5
1
330
0
100
AcDbSymbolTable
 70
     1
  0
BLOCK_RECORD
  5
1F
330
1
100
AcDbSymbolTableRecord
100
AcDbBlockTableRecord
  2
*MODEL_SPACE
  0
BLOCK_RECORD
  5
1B
330
1
100
AcDbSymbolTableRecord
100
AcDbBlockTableRecord
  2
*PAPER_SPACE
  0
ENDTAB
  0
ENDSEC
  0
SECTION
  2
BLOCKS
  0
BLOCK
  5
20
330
1F
100
AcDbEntity
  8
0
100
AcDbBlockBegin
  2
*MODEL_SPACE
 70
     0
 10
0.0
 20
0.0
 30
0.0
  3
*MODEL_SPACE
  1

  0
ENDBLK
  5
21
330
1F
100
AcDbEntity
  8
0
100
AcDbBlockEnd
  0
BLOCK
  5
1C
330
1B
100
AcDbEntity
 67
     1
  8
0
100
AcDbBlockBegin
  2
*PAPER_SPACE
  1

  0
ENDBLK
  5
1D
330
1B
100
AcDbEntity
 67
     1
  8
0
100
AcDbBlockEnd
  0
ENDSEC
  0
SECTION
  2
ENTITIES
  0
LWPOLYLINE
  5
100
100
AcDbEntity
  8
Layer_1
 62
7
100
AcDbPolyline
 90
24
 70
1
 10
71.734229
 20
123.028982
 30
0.0
 10
72.290466
 20
122.843597
 30
0.0
 10
72.723093
 20
122.410973
 30
0.0
 10
72.784888
 20
121.792907
 30
0.0
 10
72.537678
 20
121.236693
 30
0.0
 10
72.043248
 20
120.927660
 30
0.0
 10
71.425208
 20
120.927660
 30
0.0
 10
70.930777
 20
121.236693
 30
0.0
 10
70.683568
 20
121.792907
 30
0.0
 10
70.745363
 20
122.410973
 30
0.0
 10
71.177990
 20
122.843597
 30
0.0
 10
71.734224
 20
123.028982
 30
0.0
 10
71.734224
 20
122.287326
 30
0.0
 10
71.919638
 20
122.225530
 30
0.0
 10
72.043257
 20
122.101940
 30
0.0
 10
72.105052
 20
121.916554
 30
0.0
 10
71.981433
 20
121.731168
 30
0.0
 10
71.857814
 20
121.607578
 30
0.0
 10
71.610605
 20
121.607578
 30
0.0
 10
71.486986
 20
121.731168
 30
0.0
 10
71.363367
 20
121.916554
 30
0.0
 10
71.425162
 20
122.101940
 30
0.0
 10
71.548781
 20
122.225530
 30
0.0
 10
71.734195
 20
122.287326
 30
0.0
  0
LWPOLYLINE
  5
101
100
AcDbEntity
  8
Layer_1
 62
7
100
AcDbPolyline
 90
8
 70
1
 10
72.908504
 20
119.753351
 30
0.0
 10
70.498151
 20
119.753351
 30
0.0
 10
44.787722
 20
145.525609
 30
0.0
 10
44.787722
 20
146.514447
 30
0.0
 10
71.239799
 20
172.966538
 30
0.0
 10
72.228662
 20
172.966538
 30
0.0
 10
98.680740
 20
146.514447
 30
0.0
 10
98.680740
 20
145.525609
 30
0.0
  0
LWPOLYLINE
  5
102
100
AcDbEntity
  8
Layer_1
 62
7
100
AcDbPolyline
 90
7
 70
0
 10
91.017054
 20
12.152724
 30
0.0
 10
99.545995
 20
12.152724
 30
0.0
 10
99.545995
 20
10.731234
 30
0.0
 10
100.658466
 20
10.731234
 30
0.0
 10
100.658466
 20
12.152724
 30
0.0
 10
104.799328
 20
12.152724
 30
0.0
 10
104.799328
 20
7.641045
 30
0.0
  0
LWPOLYLINE
  5
103
100
AcDbEntity
  8
Layer_1
 62
7
100
AcDbPolyline
 90
6
 70
0
 10
91.017054
 20
12.152724
 30
0.0
 10
91.017054
 20
10.731234
 30
0.0
 10
89.904583
 20
10.731234
 30
0.0
 10
89.904583
 20
12.152724
 30
0.0
 10
85.763721
 20
12.152724
 30
0.0
 10
85.763721
 20
-2.000350
 30
0.0
  0
LWPOLYLINE
  5
104
100
AcDbEntity
  8
Layer_1
 62
7
100
AcDbPolyline
 90
2
 70
0
 10
104.799328
 20
12.152724
 30
0.0
 10
104.799328
 20
-2.000350
 30
0.0
  0
LWPOLYLINE
  5
105
100
AcDbEntity
  8
Layer_1
 62
7
100
AcDbPolyline
 90
3
 70
0
 10
87.061603
 20
-2.000350
 30
0.0
 10
86.505367
 20
-2.000350
 30
0.0
 10
85.763721
 20
-2.000350
 30
0.0
  0
LWPOLYLINE
  5
106
100
AcDbEntity
  8
Layer_1
 62
7
100
AcDbPolyline
 90
4
 70
0
 10
87.617837
 20
-2.556592
 30
0.0
 10
87.556042
 20
-2.309411
 30
0.0
 10
87.370628
 20
-2.062230
 30
0.0
 10
87.061609
 20
-2.000435
 30
0.0
  0
LWPOLYLINE
  5
107
100
AcDbEntity
  8
Layer_1
 62
7
100
AcDbPolyline
 90
5
 70
0
 10
87.617837
 20
-2.556592
 30
0.0
 10
87.741456
 20
-2.989216
 30
0.0
 10
87.988666
 20
-3.360044
 30
0.0
 10
88.359489
 20
-3.607226
 30
0.0
 10
88.792115
 20
-3.730816
 30
0.0
  0
LWPOLYLINE
  5
108
100
AcDbEntity
  8
Layer_1
 62
7
100
AcDbPolyline
 90
2
 70
0
 10
104.799328
 20
-2.000350
 30
0.0
 10
103.501446
 20
-2.000350
 30
0.0
  0
LWPOLYLINE
  5
109
100
AcDbEntity
  8
Layer_1
 62
7
100
AcDbPolyline
 90
2
 70
0
 10
88.792112
 20
-3.730873
 30
0.0
 10
101.832741
 20
-3.730873
 30
0.0
  0
LWPOLYLINE
  5
10a
100
AcDbEntity
  8
Layer_1
 62
7
100
AcDbPolyline
 90
4
 70
0
 10
103.501446
 20
-2.000350
 30
0.0
 10
103.192427
 20
-2.062145
 30
0.0
 10
103.007013
 20
-2.309326
 30
0.0
 10
102.945217
 20
-2.556507
 30
0.0
  0
LWPOLYLINE
  5
10b
100
AcDbEntity
  8
Layer_1
 62
7
100
AcDbPolyline
 90
5
 70
0
 10
101.832741
 20
-3.730873
 30
0.0
 10
102.265367
 20
-3.607282
 30
0.0
 10
102.636190
 20
-3.360101
 30
0.0
 10
102.883399
 20
-2.989273
 30
0.0
 10
102.945195
 20
-2.556649
 30
0.0
  0
LWPOLYLINE
  5
10c
100
AcDbEntity
  8
Layer_1
 62
7
100
AcDbPolyline
 90
2
 70
0
 10
89.039327
 20
-2.000350
 30
0.0
 10
101.523722
 20
-2.000350
 30
0.0
  0
LWPOLYLINE
  5
10d
100
AcDbEntity
  8
Layer_1
 62
7
100
AcDbPolyline
 90
2
 70
0
 10
86.505367
 20
-2.000350
 30
0.0
 10
85.640114
 20
-3.730873
 30
0.0
  0
LWPOLYLINE
  5
10e
100
AcDbEntity
  8
Layer_1
 62
7
100
AcDbPolyline
 90
2
 70
0
 10
85.083877
 20
-3.421840
 30
0.0
 10
85.640114
 20
-3.730873
 30
0.0
  0
LWPOLYLINE
  5
10f
100
AcDbEntity
  8
Layer_1
 62
7
100
AcDbPolyline
 90
2
 70
0
 10
85.763721
 20
-2.000350
 30
0.0
 10
85.083877
 20
-3.421840
 30
0.0
  0
LWPOLYLINE
  5
110
100
AcDbEntity
  8
Layer_1
 62
7
100
AcDbPolyline
 90
2
 70
0
 10
104.057683
 20
-2.000350
 30
0.0
 10
104.799328
 20
-2.000350
 30
0.0
  0
LWPOLYLINE
  5
111
100
AcDbEntity
  8
Layer_1
 62
7
100
AcDbPolyline
 90
2
 70
0
 10
104.057683
 20
-2.000350
 30
0.0
 10
104.922935
 20
-3.730873
 30
0.0
  0
LWPOLYLINE
  5
112
100
AcDbEntity
  8
Layer_1
 62
7
100
AcDbPolyline
 90
2
 70
0
 10
105.479172
 20
-3.421840
 30
0.0
 10
104.922935
 20
-3.730873
 30
0.0
  0
LWPOLYLINE
  5
113
100
AcDbEntity
  8
Layer_1
 62
7
100
AcDbPolyline
 90
2
 70
0
 10
104.799328
 20
-2.000350
 30
0.0
 10
105.479172
 20
-3.421840
 30
0.0
  0
LWPOLYLINE
  5
114
100
AcDbEntity
  8
Layer_1
 62
7
100
AcDbPolyline
 90
4
 70
1
 10
85.640114
 20
4.921685
 30
0.0
 10
85.640114
 20
3.067571
 30
0.0
 10
83.785995
 20
3.067571
 30
0.0
 10
83.785995
 20
4.921685
 30
0.0
  0
LWPOLYLINE
  5
115
100
AcDbEntity
  8
Layer_1
 62
7
100
AcDbPolyline
 90
4
 70
1
 10
106.777054
 20
4.921685
 30
0.0
 10
106.777054
 20
3.067571
 30
0.0
 10
104.922935
 20
3.067571
 30
0.0
 10
104.922935
 20
4.921685
 30
0.0
  0
LWPOLYLINE
  5
116
100
AcDbEntity
  8
Layer_1
 62
7
100
AcDbPolyline
 90
6
 70
0
 10
99.236976
 20
1.646082
 30
0.0
 10
100.967485
 20
1.646082
 30
0.0
 10
101.091104
 20
1.707877
 30
0.0
 10
101.214723
 20
1.831467
 30
0.0
 10
101.214723
 20
1.955058
 30
0.0
 10
101.214700
 20
2.511329
 30
0.0
  0
LWPOLYLINE
  5
117
100
AcDbEntity
  8
Layer_1
 62
7
100
AcDbPolyline
 90
4
 70
0
 10
100.658466
 20
3.067571
 30
0.0
 10
100.720261
 20
2.820390
 30
0.0
 10
100.967471
 20
2.573209
 30
0.0
 10
101.214680
 20
2.511414
 30
0.0
  0
LWPOLYLINE
  5
118
100
AcDbEntity
  8
Layer_1
 62
7
100
AcDbPolyline
 90
5
 70
0
 10
100.658466
 20
3.067571
 30
0.0
 10
100.658466
 20
5.663313
 30
0.0
 10
100.658466
 20
5.786904
 30
0.0
 10
100.534847
 20
5.910494
 30
0.0
 10
100.411228
 20
5.910494
 30
0.0
  0
LWPOLYLINE
  5
119
100
AcDbEntity
  8
Layer_1
 62
7
100
AcDbPolyline
 90
4
 70
0
 10
98.989758
 20
1.955086
 30
0.0
 10
98.989758
 20
1.831496
 30
0.0
 10
99.113377
 20
1.707905
 30
0.0
 10
99.236996
 20
1.646110
 30
0.0
  0
LWPOLYLINE
  5
11a
100
AcDbEntity
  8
Layer_1
 62
7
100
AcDbPolyline
 90
6
 70
0
 10
98.989758
 20
1.955086
 30
0.0
 10
98.989758
 20
2.511329
 30
0.0
 10
99.236968
 20
2.573124
 30
0.0
 10
99.484177
 20
2.820305
 30
0.0
 10
99.545973
 20
3.067486
 30
0.0
 10
99.545995
 20
5.663313
 30
0.0
  0
LWPOLYLINE
  5
11b
100
AcDbEntity
  8
Layer_1
 62
7
100
AcDbPolyline
 90
5
 70
0
 10
100.411251
 20
5.910551
 30
0.0
 10
99.793210
 20
5.910551
 30
0.0
 10
99.669591
 20
5.910551
 30
0.0
 10
99.545973
 20
5.786960
 30
0.0
 10
99.545973
 20
5.663370
 30
0.0
  0
LWPOLYLINE
  5
11c
100
AcDbEntity
  8
Layer_1
 62
7
100
AcDbPolyline
 90
6
 70
0
 10
89.595564
 20
1.646082
 30
0.0
 10
91.326073
 20
1.646082
 30
0.0
 10
91.449692
 20
1.707877
 30
0.0
 10
91.573311
 20
1.831467
 30
0.0
 10
91.573311
 20
1.955058
 30
0.0
 10
91.573288
 20
2.511329
 30
0.0
  0
LWPOLYLINE
  5
11d
100
AcDbEntity
  8
Layer_1
 62
7
100
AcDbPolyline
 90
4
 70
0
 10
91.017054
 20
3.067571
 30
0.0
 10
91.078849
 20
2.820390
 30
0.0
 10
91.326059
 20
2.573209
 30
0.0
 10
91.573268
 20
2.511414
 30
0.0
  0
LWPOLYLINE
  5
11e
100
AcDbEntity
  8
Layer_1
 62
7
100
AcDbPolyline
 90
5
 70
0
 10
91.017054
 20
3.067571
 30
0.0
 10
91.017054
 20
5.663313
 30
0.0
 10
91.017054
 20
5.786904
 30
0.0
 10
90.893435
 20
5.910494
 30
0.0
 10
90.769816
 20
5.910494
 30
0.0
  0
LWPOLYLINE
  5
11f
100
AcDbEntity
  8
Layer_1
 62
7
100
AcDbPolyline
 90
4
 70
0
 10
89.348349
 20
1.955086
 30
0.0
 10
89.348349
 20
1.831496
 30
0.0
 10
89.471968
 20
1.707905
 30
0.0
 10
89.595587
 20
1.646110
 30
0.0
  0
LWPOLYLINE
  5
120
100
AcDbEntity
  8
Layer_1
 62
7
100
AcDbPolyline
 90
6
 70
0
 10
89.348349
 20
1.955086
 30
0.0
 10
89.348349
 20
2.511329
 30
0.0
 10
89.595558
 20
2.573124
 30
0.0
 10
89.842768
 20
2.820305
 30
0.0
 10
89.904563
 20
3.067486
 30
0.0
 10
89.904583
 20
5.663313
 30
0.0
  0
LWPOLYLINE
  5
121
100
AcDbEntity
  8
Layer_1
 62
7
100
AcDbPolyline
 90
5
 70
0
 10
90.769839
 20
5.910551
 30
0.0
 10
90.151798
 20
5.910551
 30
0.0
 10
90.028179
 20
5.910551
 30
0.0
 10
89.904560
 20
5.786960
 30
0.0
 10
89.904560
 20
5.663370
 30
0.0
  0
LWPOLYLINE
  5
122
100
AcDbEntity
  8
Layer_1
 62
7
100
AcDbPolyline
 90
7
 70
0
 10
69.200269
 20
267.093924
 30
0.0
 10
60.671327
 20
267.093924
 30
0.0
 10
60.671327
 20
268.515414
 30
0.0
 10
59.558859
 20
268.515414
 30
0.0
 10
59.558859
 20
267.093924
 30
0.0
 10
55.417995
 20
267.093924
 30
0.0
 10
55.417995
 20
271.605603
 30
0.0
  0
LWPOLYLINE
  5
123
100
AcDbEntity
  8
Layer_1
 62
7
100
AcDbPolyline
 90
6
 70
0
 10
69.200269
 20
267.093924
 30
0.0
 10
69.200269
 20
268.515414
 30
0.0
 10
70.312740
 20
268.515414
 30
0.0
 10
70.312740
 20
267.093924
 30
0.0
 10
74.453604
 20
267.093924
 30
0.0
 10
74.453604
 20
281.247009
 30
0.0
  0
LWPOLYLINE
  5
124
100
AcDbEntity
  8
Layer_1
 62
7
100
AcDbPolyline
 90
2
 70
0
 10
55.417995
 20
267.093924
 30
0.0
 10
55.417995
 20
281.247009
 30
0.0
  0
LWPOLYLINE
  5
125
100
AcDbEntity
  8
Layer_1
 62
7
100
AcDbPolyline
 90
3
 70
0
 10
73.155722
 20
281.247009
 30
0.0
 10
73.711956
 20
281.247009
 30
0.0
 10
74.453604
 20
281.247009
 30
0.0
  0
LWPOLYLINE
  5
126
100
AcDbEntity
  8
Layer_1
 62
7
100
AcDbPolyline
 90
4
 70
0
 10
72.599485
 20
281.803243
 30
0.0
 10
72.661280
 20
281.556034
 30
0.0
 10
72.908490
 20
281.308825
 30
0.0
 10
73.155699
 20
281.247029
 30
0.0
  0
LWPOLYLINE
  5
127
100
AcDbEntity
  8
Layer_1
 62
7
100
AcDbPolyline
 90
5
 70
0
 10
72.599485
 20
281.803243
 30
0.0
 10
72.537690
 20
282.235873
 30
0.0
 10
72.290480
 20
282.606695
 30
0.0
 10
71.919658
 20
282.853905
 30
0.0
 10
71.487028
 20
282.977524
 30
0.0
  0
LWPOLYLINE
  5
128
100
AcDbEntity
  8
Layer_1
 62
7
100
AcDbPolyline
 90
2
 70
0
 10
55.417995
 20
281.247009
 30
0.0
 10
56.715877
 20
281.247009
 30
0.0
  0
LWPOLYLINE
  5
129
100
AcDbEntity
  8
Layer_1
 62
7
100
AcDbPolyline
 90
2
 70
0
 10
71.487014
 20
282.977518
 30
0.0
 10
58.446388
 20
282.977518
 30
0.0
  0
LWPOLYLINE
  5
12a
100
AcDbEntity
  8
Layer_1
 62
7
100
AcDbPolyline
 90
4
 70
0
 10
56.715877
 20
281.247009
 30
0.0
 10
57.024899
 20
281.308805
 30
0.0
 10
57.210313
 20
281.556014
 30
0.0
 10
57.272108
 20
281.803224
 30
0.0
  0
LWPOLYLINE
  5
12b
100
AcDbEntity
  8
Layer_1
 62
7
100
AcDbPolyline
 90
5
 70
0
 10
58.446388
 20
282.977518
 30
0.0
 10
58.013759
 20
282.853899
 30
0.0
 10
57.642936
 20
282.606690
 30
0.0
 10
57.395727
 20
282.235867
 30
0.0
 10
57.272108
 20
281.803238
 30
0.0
  0
LWPOLYLINE
  5
12c
100
AcDbEntity
  8
Layer_1
 62
7
100
AcDbPolyline
 90
2
 70
0
 10
71.177995
 20
281.247009
 30
0.0
 10
58.693603
 20
281.247009
 30
0.0
  0
LWPOLYLINE
  5
12d
100
AcDbEntity
  8
Layer_1
 62
7
100
AcDbPolyline
 90
2
 70
0
 10
73.711956
 20
281.247009
 30
0.0
 10
74.577212
 20
282.977518
 30
0.0
  0
LWPOLYLINE
  5
12e
100
AcDbEntity
  8
Layer_1
 62
7
100
AcDbPolyline
 90
2
 70
0
 10
75.133446
 20
282.668499
 30
0.0
 10
74.577212
 20
282.977518
 30
0.0
  0
LWPOLYLINE
  5
12f
100
AcDbEntity
  8
Layer_1
 62
7
100
AcDbPolyline
 90
2
 70
0
 10
74.453604
 20
281.247009
 30
0.0
 10
75.133446
 20
282.668499
 30
0.0
  0
LWPOLYLINE
  5
130
100
AcDbEntity
  8
Layer_1
 62
7
100
AcDbPolyline
 90
2
 70
0
 10
56.159643
 20
281.247009
 30
0.0
 10
55.417995
 20
281.247009
 30
0.0
  0
LWPOLYLINE
  5
131
100
AcDbEntity
  8
Layer_1
 62
7
100
AcDbPolyline
 90
2
 70
0
 10
56.159643
 20
281.247009
 30
0.0
 10
55.294387
 20
282.977518
 30
0.0
  0
LWPOLYLINE
  5
132
100
AcDbEntity
  8
Layer_1
 62
7
100
AcDbPolyline
 90
2
 70
0
 10
54.738153
 20
282.668499
 30
0.0
 10
55.294387
 20
282.977518
 30
0.0
  0
LWPOLYLINE
  5
133
100
AcDbEntity
  8
Layer_1
 62
7
100
AcDbPolyline
 90
2
 70
0
 10
55.417995
 20
281.247009
 30
0.0
 10
54.738153
 20
282.668499
 30
0.0
  0
LWPOLYLINE
  5
134
100
AcDbEntity
  8
Layer_1
 62
7
100
AcDbPolyline
 90
4
 70
1
 10
76.431328
 20
276.179077
 30
0.0
 10
76.431328
 20
274.324963
 30
0.0
 10
74.577212
 20
274.324963
 30
0.0
 10
74.577212
 20
276.179077
 30
0.0
  0
LWPOLYLINE
  5
135
100
AcDbEntity
  8
Layer_1
 62
7
100
AcDbPolyline
 90
4
 70
1
 10
55.294387
 20
276.179077
 30
0.0
 10
55.294387
 20
274.324963
 30
0.0
 10
53.440271
 20
274.324963
 30
0.0
 10
53.440271
 20
276.179077
 30
0.0
  0
LWPOLYLINE
  5
136
100
AcDbEntity
  8
Layer_1
 62
7
100
AcDbPolyline
 90
6
 70
0
 10
60.980349
 20
277.538771
 30
0.0
 10
59.249837
 20
277.538771
 30
0.0
 10
59.126219
 20
277.538771
 30
0.0
 10
59.002600
 20
277.415181
 30
0.0
 10
59.002600
 20
277.291590
 30
0.0
 10
59.002622
 20
276.735319
 30
0.0
  0
LWPOLYLINE
  5
137
100
AcDbEntity
  8
Layer_1
 62
7
100
AcDbPolyline
 90
4
 70
0
 10
59.558859
 20
276.179077
 30
0.0
 10
59.497064
 20
276.426258
 30
0.0
 10
59.249854
 20
276.611644
 30
0.0
 10
59.002645
 20
276.735234
 30
0.0
  0
LWPOLYLINE
  5
138
100
AcDbEntity
  8
Layer_1
 62
7
100
AcDbPolyline
 90
5
 70
0
 10
59.558859
 20
276.179077
 30
0.0
 10
59.558859
 20
273.583335
 30
0.0
 10
59.620654
 20
273.459745
 30
0.0
 10
59.682450
 20
273.336154
 30
0.0
 10
59.867864
 20
273.336154
 30
0.0
  0
LWPOLYLINE
  5
139
100
AcDbEntity
  8
Layer_1
 62
7
100
AcDbPolyline
 90
4
 70
0
 10
61.289368
 20
277.291562
 30
0.0
 10
61.227573
 20
277.415152
 30
0.0
 10
61.103954
 20
277.538743
 30
0.0
 10
60.980335
 20
277.538743
 30
0.0
  0
LWPOLYLINE
  5
13a
100
AcDbEntity
  8
Layer_1
 62
7
100
AcDbPolyline
 90
6
 70
0
 10
61.289368
 20
277.291562
 30
0.0
 10
61.289368
 20
276.735319
 30
0.0
 10
60.980349
 20
276.611729
 30
0.0
 10
60.794935
 20
276.426343
 30
0.0
 10
60.671316
 20
276.179162
 30
0.0
 10
60.671327
 20
273.583335
 30
0.0
  0
LWPOLYLINE
  5
13b
100
AcDbEntity
  8
Layer_1
 62
7
100
AcDbPolyline
 90
5
 70
0
 10
59.867878
 20
273.336097
 30
0.0
 10
60.424112
 20
273.336097
 30
0.0
 10
60.547731
 20
273.336097
 30
0.0
 10
60.671350
 20
273.459688
 30
0.0
 10
60.671350
 20
273.583278
 30
0.0
  0
LWPOLYLINE
  5
13c
100
AcDbEntity
  8
Layer_1
 62
7
100
AcDbPolyline
 90
6
 70
0
 10
70.621761
 20
277.538771
 30
0.0
 10
68.891250
 20
277.538771
 30
0.0
 10
68.767631
 20
277.538771
 30
0.0
 10
68.644012
 20
277.415181
 30
0.0
 10
68.644012
 20
277.291590
 30
0.0
 10
68.644035
 20
276.735319
 30
0.0
  0
LWPOLYLINE
  5
13d
100
AcDbEntity
  8
Layer_1
 62
7
100
AcDbPolyline
 90
4
 70
0
 10
69.200269
 20
276.179077
 30
0.0
 10
69.138473
 20
276.426258
 30
0.0
 10
68.891264
 20
276.611644
 30
0.0
 10
68.644054
 20
276.735234
 30
0.0
  0
LWPOLYLINE
  5
13e
100
AcDbEntity
  8
Layer_1
 62
7
100
AcDbPolyline
 90
5
 70
0
 10
69.200269
 20
276.179077
 30
0.0
 10
69.200269
 20
273.583335
 30
0.0
 10
69.262064
 20
273.459745
 30
0.0
 10
69.323859
 20
273.336154
 30
0.0
 10
69.509273
 20
273.336154
 30
0.0
  0
LWPOLYLINE
  5
13f
100
AcDbEntity
  8
Layer_1
 62
7
100
AcDbPolyline
 90
4
 70
0
 10
70.930780
 20
277.291562
 30
0.0
 10
70.868985
 20
277.415152
 30
0.0
 10
70.745366
 20
277.538743
 30
0.0
 10
70.621747
 20
277.538743
 30
0.0
  0
LWPOLYLINE
  5
140
100
AcDbEntity
  8
Layer_1
 62
7
100
AcDbPolyline
 90
6
 70
0
 10
70.930780
 20
277.291562
 30
0.0
 10
70.930780
 20
276.735319
 30
0.0
 10
70.621761
 20
276.611729
 30
0.0
 10
70.436347
 20
276.426343
 30
0.0
 10
70.312728
 20
276.179162
 30
0.0
 10
70.312740
 20
273.583335
 30
0.0
  0
LWPOLYLINE
  5
141
100
AcDbEntity
  8
Layer_1
 62
7
100
AcDbPolyline
 90
5
 70
0
 10
69.509290
 20
273.336097
 30
0.0
 10
70.065524
 20
273.336097
 30
0.0
 10
70.189143
 20
273.336097
 30
0.0
 10
70.312762
 20
273.459688
 30
0.0
 10
70.312762
 20
273.583278
 30
0.0
  0
LWPOLYLINE
  5
142
100
AcDbEntity
  8
Layer_1
 62
7
100
AcDbPolyline
 90
24
 70
1
 10
50.226466
 20
9.309745
 30
0.0
 10
50.782703
 20
9.124359
 30
0.0
 10
51.153525
 20
8.691735
 30
0.0
 10
51.277144
 20
8.073697
 30
0.0
 10
51.029935
 20
7.517483
 30
0.0
 10
50.473698
 20
7.208450
 30
0.0
 10
49.917464
 20
7.208450
 30
0.0
 10
49.423031
 20
7.517483
 30
0.0
 10
49.114012
 20
8.073697
 30
0.0
 10
49.237631
 20
8.691735
 30
0.0
 10
49.608456
 20
9.124359
 30
0.0
 10
50.226494
 20
9.309745
 30
0.0
 10
50.226494
 20
8.568116
 30
0.0
 10
50.411908
 20
8.506321
 30
0.0
 10
50.535527
 20
8.382730
 30
0.0
 10
50.535527
 20
8.197345
 30
0.0
 10
50.473732
 20
8.011959
 30
0.0
 10
50.288318
 20
7.888368
 30
0.0
 10
50.102904
 20
7.888368
 30
0.0
 10
49.917489
 20
8.011959
 30
0.0
 10
49.855694
 20
8.197345
 30
0.0
 10
49.855694
 20
8.382730
 30
0.0
 10
50.041108
 20
8.506321
 30
0.0
 10
50.226523
 20
8.568116
 30
0.0
  0
LWPOLYLINE
  5
143
100
AcDbEntity
  8
Layer_1
 62
7
100
AcDbPolyline
 90
8
 70
1
 10
51.400740
 20
6.034141
 30
0.0
 10
48.990387
 20
6.034141
 30
0.0
 10
23.218152
 20
31.806371
 30
0.0
 10
23.218152
 20
32.795237
 30
0.0
 10
49.670232
 20
59.247329
 30
0.0
 10
50.720896
 20
59.247329
 30
0.0
 10
77.172976
 20
32.795237
 30
0.0
 10
77.172976
 20
31.806371
 30
0.0
  0
LWPOLYLINE
  5
144
100
AcDbEntity
  8
Layer_1
 62
7
100
AcDbPolyline
 90
4
 70
1
 10
86.134544
 20
282.915714
 30
0.0
 10
140.151171
 20
282.915714
 30
0.0
 10
140.151171
 20
221.729842
 30
0.0
 10
86.134544
 20
221.729842
 30
0.0
  0
LWPOLYLINE
  5
145
100
AcDbEntity
  8
Layer_1
 62
7
100
AcDbPolyline
 90
2
 70
0
 10
126.121680
 20
218.021587
 30
0.0
 10
139.780348
 20
218.021587
 30
0.0
  0
LWPOLYLINE
  5
146
100
AcDbEntity
  8
Layer_1
 62
7
100
AcDbPolyline
 90
6
 70
0
 10
141.634466
 20
216.229297
 30
0.0
 10
141.510858
 20
216.785512
 30
0.0
 10
141.263643
 20
217.279959
 30
0.0
 10
140.892819
 20
217.712582
 30
0.0
 10
140.336584
 20
217.959763
 30
0.0
 10
139.780349
 20
218.021559
 30
0.0
  0
LWPOLYLINE
  5
147
100
AcDbEntity
  8
Layer_1
 62
7
100
AcDbPolyline
 90
6
 70
0
 10
126.121680
 20
218.021587
 30
0.0
 10
125.565446
 20
217.959792
 30
0.0
 10
125.071016
 20
217.712611
 30
0.0
 10
124.638386
 20
217.279987
 30
0.0
 10
124.391177
 20
216.785540
 30
0.0
 10
124.329382
 20
216.229326
 30
0.0
  0
LWPOLYLINE
  5
148
100
AcDbEntity
  8
Layer_1
 62
7
100
AcDbPolyline
 90
2
 70
0
 10
141.634466
 20
216.229297
 30
0.0
 10
141.634466
 20
75.810787
 30
0.0
  0
LWPOLYLINE
  5
149
100
AcDbEntity
  8
Layer_1
 62
7
100
AcDbPolyline
 90
2
 70
0
 10
126.121680
 20
74.018469
 30
0.0
 10
139.780348
 20
74.018469
 30
0.0
  0
LWPOLYLINE
  5
14a
100
AcDbEntity
  8
Layer_1
 62
7
100
AcDbPolyline
 90
2
 70
0
 10
124.329368
 20
216.229297
 30
0.0
 10
124.329368
 20
75.810787
 30
0.0
  0
LWPOLYLINE
  5
14b
100
AcDbEntity
  8
Layer_1
 62
7
100
AcDbPolyline
 90
6
 70
0
 10
139.780348
 20
74.018469
 30
0.0
 10
140.336583
 20
74.080264
 30
0.0
 10
140.892818
 20
74.327445
 30
0.0
 10
141.263642
 20
74.760069
 30
0.0
 10
141.510857
 20
75.254516
 30
0.0
 10
141.634465
 20
75.810759
 30
0.0
  0
LWPOLYLINE
  5
14c
100
AcDbEntity
  8
Layer_1
 62
7
100
AcDbPolyline
 90
6
 70
0
 10
124.329368
 20
75.810787
 30
0.0
 10
124.391163
 20
75.254545
 30
0.0
 10
124.638372
 20
74.760097
 30
0.0
 10
125.071002
 20
74.327474
 30
0.0
 10
125.565432
 20
74.080293
 30
0.0
 10
126.121666
 20
74.018497
 30
0.0
  0
LWPOLYLINE
  5
14d
100
AcDbEntity
  8
Layer_1
 62
7
100
AcDbPolyline
 90
2
 70
0
 10
3.688112
 20
218.021587
 30
0.0
 10
17.346779
 20
218.021587
 30
0.0
  0
LWPOLYLINE
  5
14e
100
AcDbEntity
  8
Layer_1
 62
7
100
AcDbPolyline
 90
6
 70
0
 10
19.200898
 20
216.229297
 30
0.0
 10
19.077279
 20
216.785512
 30
0.0
 10
18.830069
 20
217.279959
 30
0.0
 10
18.459244
 20
217.712582
 30
0.0
 10
17.903010
 20
217.959763
 30
0.0
 10
17.346773
 20
218.021559
 30
0.0
  0
LWPOLYLINE
  5
14f
100
AcDbEntity
  8
Layer_1
 62
7
100
AcDbPolyline
 90
6
 70
0
 10
3.688112
 20
218.021587
 30
0.0
 10
3.131878
 20
217.959792
 30
0.0
 10
2.637448
 20
217.712611
 30
0.0
 10
2.266622
 20
217.279987
 30
0.0
 10
1.957603
 20
216.785540
 30
0.0
 10
1.895808
 20
216.229326
 30
0.0
  0
LWPOLYLINE
  5
150
100
AcDbEntity
  8
Layer_1
 62
7
100
AcDbPolyline
 90
2
 70
0
 10
19.200898
 20
216.229297
 30
0.0
 10
19.200898
 20
75.810787
 30
0.0
  0
LWPOLYLINE
  5
151
100
AcDbEntity
  8
Layer_1
 62
7
100
AcDbPolyline
 90
2
 70
0
 10
3.688112
 20
74.018469
 30
0.0
 10
17.346779
 20
74.018469
 30
0.0
  0
LWPOLYLINE
  5
152
100
AcDbEntity
  8
Layer_1
 62
7
100
AcDbPolyline
 90
2
 70
0
 10
1.895800
 20
216.229297
 30
0.0
 10
1.895800
 20
75.810787
 30
0.0
  0
LWPOLYLINE
  5
153
100
AcDbEntity
  8
Layer_1
 62
7
100
AcDbPolyline
 90
6
 70
0
 10
17.346779
 20
74.018469
 30
0.0
 10
17.903015
 20
74.080264
 30
0.0
 10
18.459249
 20
74.327445
 30
0.0
 10
18.830075
 20
74.760069
 30
0.0
 10
19.077284
 20
75.254516
 30
0.0
 10
19.200903
 20
75.810759
 30
0.0
  0
LWPOLYLINE
  5
154
100
AcDbEntity
  8
Layer_1
 62
7
100
AcDbPolyline
 90
6
 70
0
 10
1.895800
 20
75.810787
 30
0.0
 10
1.957595
 20
75.254545
 30
0.0
 10
2.266614
 20
74.760097
 30
0.0
 10
2.637439
 20
74.327474
 30
0.0
 10
3.131870
 20
74.080293
 30
0.0
 10
3.688104
 20
74.018497
 30
0.0
  0
LWPOLYLINE
  5
155
100
AcDbEntity
  8
Layer_1
 62
7
100
AcDbPolyline
 90
3
 70
0
 10
3.131878
 20
270.493118
 30
0.0
 10
3.131878
 20
233.905212
 30
0.0
 10
18.026623
 20
233.905212
 30
0.0
  0
LWPOLYLINE
  5
156
100
AcDbEntity
  8
Layer_1
 62
7
100
AcDbPolyline
 90
3
 70
0
 10
41.203094
 20
233.905212
 30
0.0
 10
43.675251
 20
233.905212
 30
0.0
 10
43.675251
 20
267.341134
 30
0.0
  0
LWPOLYLINE
  5
157
100
AcDbEntity
  8
Layer_1
 62
7
100
AcDbPolyline
 90
2
 70
0
 10
25.010467
 20
233.905212
 30
0.0
 10
34.281054
 20
233.905212
 30
0.0
  0
LWPOLYLINE
  5
158
100
AcDbEntity
  8
Layer_1
 62
7
100
AcDbPolyline
 90
13
 70
0
 10
9.683093
 20
275.004825
 30
0.0
 10
11.908035
 20
273.706926
 30
0.0
 10
14.194780
 20
272.594469
 30
0.0
 10
16.605133
 20
271.667398
 30
0.0
 10
19.139094
 20
270.987565
 30
0.0
 10
21.673054
 20
270.493118
 30
0.0
 10
24.207015
 20
270.184113
 30
0.0
 10
26.802780
 20
270.122318
 30
0.0
 10
29.398544
 20
270.245908
 30
0.0
 10
31.932505
 20
270.616737
 30
0.0
 10
34.466465
 20
271.172979
 30
0.0
 10
36.938622
 20
271.976431
 30
0.0
 10
39.348975
 20
272.965297
 30
0.0
  0
LWPOLYLINE
  5
159
100
AcDbEntity
  8
Layer_1
 62
7
100
AcDbPolyline
 90
4
 70
1
 10
73.835563
 20
120.247798
 30
0.0
 10
75.936898
 20
118.146475
 30
0.0
 10
75.566075
 20
117.775647
 30
0.0
 10
73.464741
 20
119.876970
 30
0.0
  0
LWPOLYLINE
  5
15a
100
AcDbEntity
  8
Layer_1
 62
7
100
AcDbPolyline
 90
4
 70
1
 10
74.824427
 20
121.236664
 30
0.0
 10
76.925761
 20
119.135313
 30
0.0
 10
76.554935
 20
118.764513
 30
0.0
 10
74.453604
 20
120.865836
 30
0.0
  0
LWPOLYLINE
  5
15b
100
AcDbEntity
  8
Layer_1
 62
7
100
AcDbPolyline
 90
4
 70
1
 10
75.813290
 20
122.287326
 30
0.0
 10
77.914621
 20
120.124179
 30
0.0
 10
77.543799
 20
119.753351
 30
0.0
 10
75.442465
 20
121.854702
 30
0.0
  0
LWPOLYLINE
  5
15c
100
AcDbEntity
  8
Layer_1
 62
7
100
AcDbPolyline
 90
4
 70
1
 10
76.863957
 20
123.276192
 30
0.0
 10
78.965289
 20
121.174841
 30
0.0
 10
78.532662
 20
120.742217
 30
0.0
 10
76.431328
 20
122.843568
 30
0.0
  0
LWPOLYLINE
  5
15d
100
AcDbEntity
  8
Layer_1
 62
7
100
AcDbPolyline
 90
4
 70
1
 10
77.852818
 20
124.265058
 30
0.0
 10
79.954152
 20
122.163707
 30
0.0
 10
79.521525
 20
121.731083
 30
0.0
 10
77.420191
 20
123.894230
 30
0.0
  0
LWPOLYLINE
  5
15e
100
AcDbEntity
  8
Layer_1
 62
7
100
AcDbPolyline
 90
4
 70
1
 10
78.841681
 20
125.253924
 30
0.0
 10
80.943015
 20
123.152573
 30
0.0
 10
80.572192
 20
122.781745
 30
0.0
 10
78.470858
 20
124.883096
 30
0.0
  0
LWPOLYLINE
  5
15f
100
AcDbEntity
  8
Layer_1
 62
7
100
AcDbPolyline
 90
4
 70
1
 10
79.830544
 20
126.242762
 30
0.0
 10
81.931878
 20
124.141439
 30
0.0
 10
81.561053
 20
123.770611
 30
0.0
 10
79.459722
 20
125.871962
 30
0.0
  0
LWPOLYLINE
  5
160
100
AcDbEntity
  8
Layer_1
 62
7
100
AcDbPolyline
 90
4
 70
1
 10
80.881211
 20
127.293452
 30
0.0
 10
82.982546
 20
125.192100
 30
0.0
 10
82.549916
 20
124.759477
 30
0.0
 10
80.448582
 20
126.860828
 30
0.0
  0
LWPOLYLINE
  5
161
100
AcDbEntity
  8
Layer_1
 62
7
100
AcDbPolyline
 90
4
 70
1
 10
81.870075
 20
128.282318
 30
0.0
 10
83.971406
 20
126.180967
 30
0.0
 10
83.538780
 20
125.748343
 30
0.0
 10
81.437445
 20
127.849666
 30
0.0
  0
LWPOLYLINE
  5
162
100
AcDbEntity
  8
Layer_1
 62
7
100
AcDbPolyline
 90
4
 70
1
 10
82.858935
 20
129.271156
 30
0.0
 10
84.960269
 20
127.169833
 30
0.0
 10
84.589447
 20
126.799004
 30
0.0
 10
82.426309
 20
128.900356
 30
0.0
  0
LWPOLYLINE
  5
163
100
AcDbEntity
  8
Layer_1
 62
7
100
AcDbPolyline
 90
4
 70
1
 10
83.847798
 20
130.260022
 30
0.0
 10
85.949133
 20
128.158699
 30
0.0
 10
85.578310
 20
127.787871
 30
0.0
 10
83.476976
 20
129.889193
 30
0.0
  0
LWPOLYLINE
  5
164
100
AcDbEntity
  8
Layer_1
 62
7
100
AcDbPolyline
 90
4
 70
1
 10
84.836662
 20
131.310683
 30
0.0
 10
86.937996
 20
129.147565
 30
0.0
 10
86.567170
 20
128.776737
 30
0.0
 10
84.465839
 20
130.878060
 30
0.0
  0
LWPOLYLINE
  5
165
100
AcDbEntity
  8
Layer_1
 62
7
100
AcDbPolyline
 90
4
 70
1
 10
85.887329
 20
132.299549
 30
0.0
 10
87.988663
 20
130.198226
 30
0.0
 10
87.556034
 20
129.765603
 30
0.0
 10
85.454702
 20
131.866926
 30
0.0
  0
LWPOLYLINE
  5
166
100
AcDbEntity
  8
Layer_1
 62
7
100
AcDbPolyline
 90
4
 70
1
 10
86.876192
 20
133.288415
 30
0.0
 10
88.977523
 20
131.187093
 30
0.0
 10
88.544897
 20
130.754469
 30
0.0
 10
86.443563
 20
132.855792
 30
0.0
  0
LWPOLYLINE
  5
167
100
AcDbEntity
  8
Layer_1
 62
7
100
AcDbPolyline
 90
4
 70
1
 10
87.865053
 20
134.277282
 30
0.0
 10
89.966387
 20
132.175959
 30
0.0
 10
89.595564
 20
131.805130
 30
0.0
 10
87.494230
 20
133.906453
 30
0.0
  0
LWPOLYLINE
  5
168
100
AcDbEntity
  8
Layer_1
 62
7
100
AcDbPolyline
 90
4
 70
1
 10
88.853916
 20
135.266148
 30
0.0
 10
90.955250
 20
133.164825
 30
0.0
 10
90.584427
 20
132.793997
 30
0.0
 10
88.483093
 20
134.895319
 30
0.0
  0
LWPOLYLINE
  5
169
100
AcDbEntity
  8
Layer_1
 62
7
100
AcDbPolyline
 90
4
 70
1
 10
89.904583
 20
136.316809
 30
0.0
 10
92.005917
 20
134.215486
 30
0.0
 10
91.573288
 20
133.782863
 30
0.0
 10
89.471957
 20
135.884186
 30
0.0
  0
LWPOLYLINE
  5
16a
100
AcDbEntity
  8
Layer_1
 62
7
100
AcDbPolyline
 90
4
 70
1
 10
90.893446
 20
137.305675
 30
0.0
 10
92.994780
 20
135.204352
 30
0.0
 10
92.562151
 20
134.771729
 30
0.0
 10
90.460820
 20
136.873052
 30
0.0
  0
LWPOLYLINE
  5
16b
100
AcDbEntity
  8
Layer_1
 62
7
100
AcDbPolyline
 90
4
 70
1
 10
91.882310
 20
138.294541
 30
0.0
 10
93.983641
 20
136.193219
 30
0.0
 10
93.612818
 20
135.822390
 30
0.0
 10
91.449680
 20
137.923713
 30
0.0
  0
LWPOLYLINE
  5
16c
100
AcDbEntity
  8
Layer_1
 62
7
100
AcDbPolyline
 90
4
 70
1
 10
92.871173
 20
139.283408
 30
0.0
 10
94.972504
 20
137.182056
 30
0.0
 10
94.601682
 20
136.811256
 30
0.0
 10
92.500347
 20
138.912579
 30
0.0
  0
LWPOLYLINE
  5
16d
100
AcDbEntity
  8
Layer_1
 62
7
100
AcDbPolyline
 90
4
 70
1
 10
93.860033
 20
140.334069
 30
0.0
 10
95.961368
 20
138.170923
 30
0.0
 10
95.590545
 20
137.800094
 30
0.0
 10
93.489211
 20
139.901445
 30
0.0
  0
LWPOLYLINE
  5
16e
100
AcDbEntity
  8
Layer_1
 62
7
100
AcDbPolyline
 90
4
 70
1
 10
94.910700
 20
141.322935
 30
0.0
 10
97.012035
 20
139.221612
 30
0.0
 10
96.579408
 20
138.788960
 30
0.0
 10
94.478074
 20
140.890311
 30
0.0
  0
LWPOLYLINE
  5
16f
100
AcDbEntity
  8
Layer_1
 62
7
100
AcDbPolyline
 90
4
 70
1
 10
95.899564
 20
142.311801
 30
0.0
 10
98.000898
 20
140.210450
 30
0.0
 10
97.568269
 20
139.777826
 30
0.0
 10
95.466937
 20
141.879178
 30
0.0
  0
LWPOLYLINE
  5
170
100
AcDbEntity
  8
Layer_1
 62
7
100
AcDbPolyline
 90
4
 70
1
 10
96.888427
 20
143.300667
 30
0.0
 10
98.989758
 20
141.199316
 30
0.0
 10
98.618936
 20
140.828488
 30
0.0
 10
96.517602
 20
142.929839
 30
0.0
  0
LWPOLYLINE
  5
171
100
AcDbEntity
  8
Layer_1
 62
7
100
AcDbPolyline
 90
4
 70
1
 10
97.877290
 20
144.289534
 30
0.0
 10
99.978622
 20
142.188182
 30
0.0
 10
99.607799
 20
141.817354
 30
0.0
 10
97.506465
 20
143.918705
 30
0.0
  0
LWPOLYLINE
  5
172
100
AcDbEntity
  8
Layer_1
 62
7
100
AcDbPolyline
 90
4
 70
1
 10
97.506465
 20
148.121351
 30
0.0
 10
99.607799
 20
150.222702
 30
0.0
 10
99.978622
 20
149.851874
 30
0.0
 10
97.877290
 20
147.750551
 30
0.0
  0
LWPOLYLINE
  5
173
100
AcDbEntity
  8
Layer_1
 62
7
100
AcDbPolyline
 90
4
 70
1
 10
96.517602
 20
149.110217
 30
0.0
 10
98.618936
 20
151.211568
 30
0.0
 10
98.989758
 20
150.840740
 30
0.0
 10
96.888427
 20
148.739389
 30
0.0
  0
LWPOLYLINE
  5
174
100
AcDbEntity
  8
Layer_1
 62
7
100
AcDbPolyline
 90
4
 70
1
 10
95.466937
 20
150.099083
 30
0.0
 10
97.568269
 20
152.262230
 30
0.0
 10
98.000898
 20
151.829606
 30
0.0
 10
95.899564
 20
149.728255
 30
0.0
  0
LWPOLYLINE
  5
175
100
AcDbEntity
  8
Layer_1
 62
7
100
AcDbPolyline
 90
4
 70
1
 10
94.478074
 20
151.149745
 30
0.0
 10
96.579408
 20
153.251096
 30
0.0
 10
97.012035
 20
152.818472
 30
0.0
 10
94.910700
 20
150.717121
 30
0.0
  0
LWPOLYLINE
  5
176
100
AcDbEntity
  8
Layer_1
 62
7
100
AcDbPolyline
 90
4
 70
1
 10
93.489211
 20
152.138611
 30
0.0
 10
95.590545
 20
154.239962
 30
0.0
 10
95.961368
 20
153.869134
 30
0.0
 10
93.860033
 20
151.705987
 30
0.0
  0
LWPOLYLINE
  5
177
100
AcDbEntity
  8
Layer_1
 62
7
100
AcDbPolyline
 90
4
 70
1
 10
92.500347
 20
153.127477
 30
0.0
 10
94.601682
 20
155.228828
 30
0.0
 10
94.972504
 20
154.858000
 30
0.0
 10
92.871173
 20
152.756649
 30
0.0
  0
LWPOLYLINE
  5
178
100
AcDbEntity
  8
Layer_1
 62
7
100
AcDbPolyline
 90
4
 70
1
 10
91.449680
 20
154.116343
 30
0.0
 10
93.612818
 20
156.217666
 30
0.0
 10
93.983641
 20
155.846866
 30
0.0
 10
91.882310
 20
153.745515
 30
0.0
  0
LWPOLYLINE
  5
179
100
AcDbEntity
  8
Layer_1
 62
7
100
AcDbPolyline
 90
4
 70
1
 10
90.460820
 20
155.167004
 30
0.0
 10
92.562151
 20
157.268356
 30
0.0
 10
92.994780
 20
156.835704
 30
0.0
 10
90.893446
 20
154.734381
 30
0.0
  0
LWPOLYLINE
  5
17a
100
AcDbEntity
  8
Layer_1
 62
7
100
AcDbPolyline
 90
4
 70
1
 10
89.471957
 20
156.155871
 30
0.0
 10
91.573288
 20
158.257193
 30
0.0
 10
92.005917
 20
157.824570
 30
0.0
 10
89.904583
 20
155.723247
 30
0.0
  0
LWPOLYLINE
  5
17b
100
AcDbEntity
  8
Layer_1
 62
7
100
AcDbPolyline
 90
4
 70
1
 10
88.483093
 20
157.144737
 30
0.0
 10
90.584427
 20
159.246060
 30
0.0
 10
90.955250
 20
158.875231
 30
0.0
 10
88.853916
 20
156.773908
 30
0.0
  0
LWPOLYLINE
  5
17c
100
AcDbEntity
  8
Layer_1
 62
7
100
AcDbPolyline
 90
4
 70
1
 10
87.494230
 20
158.133603
 30
0.0
 10
89.595564
 20
160.234926
 30
0.0
 10
89.966387
 20
159.864097
 30
0.0
 10
87.865053
 20
157.762774
 30
0.0
  0
LWPOLYLINE
  5
17d
100
AcDbEntity
  8
Layer_1
 62
7
100
AcDbPolyline
 90
4
 70
1
 10
86.443563
 20
159.122469
 30
0.0
 10
88.544897
 20
161.285587
 30
0.0
 10
88.977523
 20
160.852963
 30
0.0
 10
86.876192
 20
158.751641
 30
0.0
  0
LWPOLYLINE
  5
17e
100
AcDbEntity
  8
Layer_1
 62
7
100
AcDbPolyline
 90
4
 70
1
 10
85.454702
 20
160.173130
 30
0.0
 10
87.556034
 20
162.274453
 30
0.0
 10
87.988663
 20
161.841830
 30
0.0
 10
85.887329
 20
159.740507
 30
0.0
  0
LWPOLYLINE
  5
17f
100
AcDbEntity
  8
Layer_1
 62
7
100
AcDbPolyline
 90
4
 70
1
 10
84.465839
 20
161.161997
 30
0.0
 10
86.567170
 20
163.263319
 30
0.0
 10
86.937996
 20
162.830696
 30
0.0
 10
84.836662
 20
160.729373
 30
0.0
  0
LWPOLYLINE
  5
180
100
AcDbEntity
  8
Layer_1
 62
7
100
AcDbPolyline
 90
4
 70
1
 10
83.476976
 20
162.150863
 30
0.0
 10
85.578310
 20
164.252186
 30
0.0
 10
85.949133
 20
163.881357
 30
0.0
 10
83.847798
 20
161.780034
 30
0.0
  0
LWPOLYLINE
  5
181
100
AcDbEntity
  8
Layer_1
 62
7
100
AcDbPolyline
 90
4
 70
1
 10
82.426309
 20
163.139729
 30
0.0
 10
84.589447
 20
165.241052
 30
0.0
 10
84.960269
 20
164.870223
 30
0.0
 10
82.858935
 20
162.768900
 30
0.0
  0
LWPOLYLINE
  5
182
100
AcDbEntity
  8
Layer_1
 62
7
100
AcDbPolyline
 90
4
 70
1
 10
81.437445
 20
164.190390
 30
0.0
 10
83.538780
 20
166.291713
 30
0.0
 10
83.971406
 20
165.859089
 30
0.0
 10
81.870075
 20
163.757767
 30
0.0
  0
LWPOLYLINE
  5
183
100
AcDbEntity
  8
Layer_1
 62
7
100
AcDbPolyline
 90
4
 70
1
 10
80.448582
 20
165.179256
 30
0.0
 10
82.549916
 20
167.280579
 30
0.0
 10
82.982546
 20
166.847956
 30
0.0
 10
80.881211
 20
164.746604
 30
0.0
  0
LWPOLYLINE
  5
184
100
AcDbEntity
  8
Layer_1
 62
7
100
AcDbPolyline
 90
4
 70
1
 10
79.459722
 20
166.168094
 30
0.0
 10
81.561053
 20
168.269445
 30
0.0
 10
81.931878
 20
167.898617
 30
0.0
 10
79.830544
 20
165.797294
 30
0.0
  0
LWPOLYLINE
  5
185
100
AcDbEntity
  8
Layer_1
 62
7
100
AcDbPolyline
 90
4
 70
1
 10
78.470858
 20
167.156960
 30
0.0
 10
80.572192
 20
169.258311
 30
0.0
 10
80.943015
 20
168.887483
 30
0.0
 10
78.841681
 20
166.786160
 30
0.0
  0
LWPOLYLINE
  5
186
100
AcDbEntity
  8
Layer_1
 62
7
100
AcDbPolyline
 90
4
 70
1
 10
77.420191
 20
168.145826
 30
0.0
 10
79.521525
 20
170.308973
 30
0.0
 10
79.954152
 20
169.876349
 30
0.0
 10
77.852818
 20
167.774998
 30
0.0
  0
LWPOLYLINE
  5
187
100
AcDbEntity
  8
Layer_1
 62
7
100
AcDbPolyline
 90
4
 70
1
 10
76.431328
 20
169.196488
 30
0.0
 10
78.532662
 20
171.297839
 30
0.0
 10
78.965289
 20
170.865215
 30
0.0
 10
76.863957
 20
168.763864
 30
0.0
  0
LWPOLYLINE
  5
188
100
AcDbEntity
  8
Layer_1
 62
7
100
AcDbPolyline
 90
4
 70
1
 10
75.442465
 20
170.185354
 30
0.0
 10
77.543799
 20
172.286705
 30
0.0
 10
77.914621
 20
171.854082
 30
0.0
 10
75.813290
 20
169.752730
 30
0.0
  0
LWPOLYLINE
  5
189
100
AcDbEntity
  8
Layer_1
 62
7
100
AcDbPolyline
 90
4
 70
1
 10
74.453604
 20
171.174220
 30
0.0
 10
76.554935
 20
173.275571
 30
0.0
 10
76.925761
 20
172.904743
 30
0.0
 10
74.824427
 20
170.803392
 30
0.0
  0
LWPOLYLINE
  5
18a
100
AcDbEntity
  8
Layer_1
 62
7
100
AcDbPolyline
 90
4
 70
1
 10
73.464741
 20
172.163086
 30
0.0
 10
75.566075
 20
174.264409
 30
0.0
 10
75.936898
 20
173.893609
 30
0.0
 10
73.835563
 20
171.792258
 30
0.0
  0
LWPOLYLINE
  5
18b
100
AcDbEntity
  8
Layer_1
 62
7
100
AcDbPolyline
 90
4
 70
1
 10
69.632898
 20
171.792258
 30
0.0
 10
67.531564
 20
173.893609
 30
0.0
 10
67.902386
 20
174.264409
 30
0.0
 10
70.003721
 20
172.163086
 30
0.0
  0
LWPOLYLINE
  5
18c
100
AcDbEntity
  8
Layer_1
 62
7
100
AcDbPolyline
 90
4
 70
1
 10
68.644035
 20
170.803392
 30
0.0
 10
66.542700
 20
172.904743
 30
0.0
 10
66.913526
 20
173.275571
 30
0.0
 10
69.014857
 20
171.174220
 30
0.0
  0
LWPOLYLINE
  5
18d
100
AcDbEntity
  8
Layer_1
 62
7
100
AcDbPolyline
 90
4
 70
1
 10
67.593368
 20
169.752730
 30
0.0
 10
65.492033
 20
171.854082
 30
0.0
 10
65.924663
 20
172.286705
 30
0.0
 10
68.025994
 20
170.185354
 30
0.0
  0
LWPOLYLINE
  5
18e
100
AcDbEntity
  8
Layer_1
 62
7
100
AcDbPolyline
 90
4
 70
1
 10
66.604504
 20
168.763864
 30
0.0
 10
64.503173
 20
170.865215
 30
0.0
 10
64.935799
 20
171.297839
 30
0.0
 10
67.037134
 20
169.196488
 30
0.0
  0
LWPOLYLINE
  5
18f
100
AcDbEntity
  8
Layer_1
 62
7
100
AcDbPolyline
 90
4
 70
1
 10
65.615644
 20
167.774998
 30
0.0
 10
63.514310
 20
169.876349
 30
0.0
 10
63.885132
 20
170.308973
 30
0.0
 10
65.986466
 20
168.145826
 30
0.0
  0
LWPOLYLINE
  5
190
100
AcDbEntity
  8
Layer_1
 62
7
100
AcDbPolyline
 90
4
 70
1
 10
64.626780
 20
166.786160
 30
0.0
 10
62.525446
 20
168.887483
 30
0.0
 10
62.896269
 20
169.258311
 30
0.0
 10
64.997603
 20
167.156960
 30
0.0
  0
LWPOLYLINE
  5
191
100
AcDbEntity
  8
Layer_1
 62
7
100
AcDbPolyline
 90
4
 70
1
 10
63.637917
 20
165.797294
 30
0.0
 10
61.474779
 20
167.898617
 30
0.0
 10
61.907409
 20
168.269445
 30
0.0
 10
64.008740
 20
166.168094
 30
0.0
  0
LWPOLYLINE
  5
192
100
AcDbEntity
  8
Layer_1
 62
7
100
AcDbPolyline
 90
4
 70
1
 10
62.587250
 20
164.746604
 30
0.0
 10
60.485916
 20
166.847956
 30
0.0
 10
60.918545
 20
167.280579
 30
0.0
 10
63.019877
 20
165.179256
 30
0.0
  0
LWPOLYLINE
  5
193
100
AcDbEntity
  8
Layer_1
 62
7
100
AcDbPolyline
 90
4
 70
1
 10
61.598387
 20
163.757767
 30
0.0
 10
59.497055
 20
165.859089
 30
0.0
 10
59.929682
 20
166.291713
 30
0.0
 10
62.031016
 20
164.190390
 30
0.0
  0
LWPOLYLINE
  5
194
100
AcDbEntity
  8
Layer_1
 62
7
100
AcDbPolyline
 90
4
 70
1
 10
60.609523
 20
162.768900
 30
0.0
 10
58.508192
 20
164.870223
 30
0.0
 10
58.879015
 20
165.241052
 30
0.0
 10
60.980349
 20
163.139729
 30
0.0
  0
LWPOLYLINE
  5
195
100
AcDbEntity
  8
Layer_1
 62
7
100
AcDbPolyline
 90
4
 70
1
 10
59.620663
 20
161.780034
 30
0.0
 10
57.519329
 20
163.881357
 30
0.0
 10
57.890151
 20
164.252186
 30
0.0
 10
59.991486
 20
162.150863
 30
0.0
  0
LWPOLYLINE
  5
196
100
AcDbEntity
  8
Layer_1
 62
7
100
AcDbPolyline
 90
4
 70
1
 10
58.569996
 20
160.729373
 30
0.0
 10
56.468662
 20
162.830696
 30
0.0
 10
56.901288
 20
163.263319
 30
0.0
 10
59.002622
 20
161.161997
 30
0.0
  0
LWPOLYLINE
  5
197
100
AcDbEntity
  8
Layer_1
 62
7
100
AcDbPolyline
 90
4
 70
1
 10
57.581133
 20
159.740507
 30
0.0
 10
55.479798
 20
161.841830
 30
0.0
 10
55.912428
 20
162.274453
 30
0.0
 10
58.013759
 20
160.173130
 30
0.0
  0
LWPOLYLINE
  5
198
100
AcDbEntity
  8
Layer_1
 62
7
100
AcDbPolyline
 90
4
 70
1
 10
56.592269
 20
158.751641
 30
0.0
 10
54.490938
 20
160.852963
 30
0.0
 10
54.861761
 20
161.285587
 30
0.0
 10
57.024899
 20
159.122469
 30
0.0
  0
LWPOLYLINE
  5
199
100
AcDbEntity
  8
Layer_1
 62
7
100
AcDbPolyline
 90
4
 70
1
 10
55.603406
 20
157.762774
 30
0.0
 10
53.502075
 20
159.864097
 30
0.0
 10
53.872897
 20
160.234926
 30
0.0
 10
55.974231
 20
158.133603
 30
0.0
  0
LWPOLYLINE
  5
19a
100
AcDbEntity
  8
Layer_1
 62
7
100
AcDbPolyline
 90
4
 70
1
 10
54.614546
 20
156.773908
 30
0.0
 10
52.513211
 20
158.875231
 30
0.0
 10
52.884034
 20
159.246060
 30
0.0
 10
54.985368
 20
157.144737
 30
0.0
  0
LWPOLYLINE
  5
19b
100
AcDbEntity
  8
Layer_1
 62
7
100
AcDbPolyline
 90
4
 70
1
 10
53.563878
 20
155.723247
 30
0.0
 10
51.462544
 20
157.824570
 30
0.0
 10
51.895171
 20
158.257193
 30
0.0
 10
53.996505
 20
156.155871
 30
0.0
  0
LWPOLYLINE
  5
19c
100
AcDbEntity
  8
Layer_1
 62
7
100
AcDbPolyline
 90
4
 70
1
 10
52.575015
 20
154.734381
 30
0.0
 10
50.473681
 20
156.835704
 30
0.0
 10
50.906310
 20
157.268356
 30
0.0
 10
53.007642
 20
155.167004
 30
0.0
  0
LWPOLYLINE
  5
19d
100
AcDbEntity
  8
Layer_1
 62
7
100
AcDbPolyline
 90
4
 70
1
 10
51.586152
 20
153.745515
 30
0.0
 10
49.484818
 20
155.846866
 30
0.0
 10
49.855643
 20
156.217666
 30
0.0
 10
51.956974
 20
154.116343
 30
0.0
  0
LWPOLYLINE
  5
19e
100
AcDbEntity
  8
Layer_1
 62
7
100
AcDbPolyline
 90
4
 70
1
 10
50.597289
 20
152.756649
 30
0.0
 10
48.495957
 20
154.858000
 30
0.0
 10
48.866780
 20
155.228828
 30
0.0
 10
50.968114
 20
153.127477
 30
0.0
  0
LWPOLYLINE
  5
19f
100
AcDbEntity
  8
Layer_1
 62
7
100
AcDbPolyline
 90
4
 70
1
 10
49.546621
 20
151.705987
 30
0.0
 10
47.445290
 20
153.869134
 30
0.0
 10
47.877917
 20
154.239962
 30
0.0
 10
49.979251
 20
152.138611
 30
0.0
  0
LWPOLYLINE
  5
1a0
100
AcDbEntity
  8
Layer_1
 62
7
100
AcDbPolyline
 90
4
 70
1
 10
48.557761
 20
150.717121
 30
0.0
 10
46.456427
 20
152.818472
 30
0.0
 10
46.889053
 20
153.251096
 30
0.0
 10
48.990387
 20
151.149745
 30
0.0
  0
LWPOLYLINE
  5
1a1
100
AcDbEntity
  8
Layer_1
 62
7
100
AcDbPolyline
 90
4
 70
1
 10
47.568898
 20
149.728255
 30
0.0
 10
45.467563
 20
151.829606
 30
0.0
 10
45.838386
 20
152.262230
 30
0.0
 10
48.001524
 20
150.099083
 30
0.0
  0
LWPOLYLINE
  5
1a2
100
AcDbEntity
  8
Layer_1
 62
7
100
AcDbPolyline
 90
4
 70
1
 10
46.580034
 20
148.739389
 30
0.0
 10
44.478700
 20
150.840740
 30
0.0
 10
44.849526
 20
151.211568
 30
0.0
 10
46.950857
 20
149.110217
 30
0.0
  0
LWPOLYLINE
  5
1a3
100
AcDbEntity
  8
Layer_1
 62
7
100
AcDbPolyline
 90
4
 70
1
 10
45.591171
 20
147.750551
 30
0.0
 10
43.489840
 20
149.851874
 30
0.0
 10
43.860662
 20
150.222702
 30
0.0
 10
45.961997
 20
148.121351
 30
0.0
  0
LWPOLYLINE
  5
1a4
100
AcDbEntity
  8
Layer_1
 62
7
100
AcDbPolyline
 90
4
 70
1
 10
45.961997
 20
143.918705
 30
0.0
 10
43.860662
 20
141.817354
 30
0.0
 10
43.489840
 20
142.188182
 30
0.0
 10
45.591171
 20
144.289534
 30
0.0
  0
LWPOLYLINE
  5
1a5
100
AcDbEntity
  8
Layer_1
 62
7
100
AcDbPolyline
 90
4
 70
1
 10
46.950857
 20
142.929839
 30
0.0
 10
44.849526
 20
140.828488
 30
0.0
 10
44.478700
 20
141.199316
 30
0.0
 10
46.580034
 20
143.300667
 30
0.0
  0
LWPOLYLINE
  5
1a6
100
AcDbEntity
  8
Layer_1
 62
7
100
AcDbPolyline
 90
4
 70
1
 10
48.001524
 20
141.879178
 30
0.0
 10
45.838386
 20
139.777826
 30
0.0
 10
45.467563
 20
140.210450
 30
0.0
 10
47.568898
 20
142.311801
 30
0.0
  0
LWPOLYLINE
  5
1a7
100
AcDbEntity
  8
Layer_1
 62
7
100
AcDbPolyline
 90
4
 70
1
 10
48.990387
 20
140.890311
 30
0.0
 10
46.889053
 20
138.788960
 30
0.0
 10
46.456427
 20
139.221612
 30
0.0
 10
48.557761
 20
141.322935
 30
0.0
  0
LWPOLYLINE
  5
1a8
100
AcDbEntity
  8
Layer_1
 62
7
100
AcDbPolyline
 90
4
 70
1
 10
49.979251
 20
139.901445
 30
0.0
 10
47.877917
 20
137.800094
 30
0.0
 10
47.445290
 20
138.170923
 30
0.0
 10
49.546621
 20
140.334069
 30
0.0
  0
LWPOLYLINE
  5
1a9
100
AcDbEntity
  8
Layer_1
 62
7
100
AcDbPolyline
 90
4
 70
1
 10
50.968114
 20
138.912579
 30
0.0
 10
48.866780
 20
136.811256
 30
0.0
 10
48.495957
 20
137.182056
 30
0.0
 10
50.597289
 20
139.283408
 30
0.0
  0
LWPOLYLINE
  5
1aa
100
AcDbEntity
  8
Layer_1
 62
7
100
AcDbPolyline
 90
4
 70
1
 10
51.956974
 20
137.923713
 30
0.0
 10
49.855643
 20
135.822390
 30
0.0
 10
49.484818
 20
136.193219
 30
0.0
 10
51.586152
 20
138.294541
 30
0.0
  0
LWPOLYLINE
  5
1ab
100
AcDbEntity
  8
Layer_1
 62
7
100
AcDbPolyline
 90
4
 70
1
 10
53.007642
 20
136.873052
 30
0.0
 10
50.906310
 20
134.771729
 30
0.0
 10
50.473681
 20
135.204352
 30
0.0
 10
52.575015
 20
137.305675
 30
0.0
  0
LWPOLYLINE
  5
1ac
100
AcDbEntity
  8
Layer_1
 62
7
100
AcDbPolyline
 90
4
 70
1
 10
53.996505
 20
135.884186
 30
0.0
 10
51.895171
 20
133.782863
 30
0.0
 10
51.462544
 20
134.215486
 30
0.0
 10
53.563878
 20
136.316809
 30
0.0
  0
LWPOLYLINE
  5
1ad
100
AcDbEntity
  8
Layer_1
 62
7
100
AcDbPolyline
 90
4
 70
1
 10
54.985368
 20
134.895319
 30
0.0
 10
52.884034
 20
132.793997
 30
0.0
 10
52.513211
 20
133.164825
 30
0.0
 10
54.614546
 20
135.266148
 30
0.0
  0
LWPOLYLINE
  5
1ae
100
AcDbEntity
  8
Layer_1
 62
7
100
AcDbPolyline
 90
4
 70
1
 10
55.974231
 20
133.906453
 30
0.0
 10
53.872897
 20
131.805130
 30
0.0
 10
53.502075
 20
132.175959
 30
0.0
 10
55.603406
 20
134.277282
 30
0.0
  0
LWPOLYLINE
  5
1af
100
AcDbEntity
  8
Layer_1
 62
7
100
AcDbPolyline
 90
4
 70
1
 10
57.024899
 20
132.855792
 30
0.0
 10
54.861761
 20
130.754469
 30
0.0
 10
54.490938
 20
131.187093
 30
0.0
 10
56.592269
 20
133.288415
 30
0.0
  0
LWPOLYLINE
  5
1b0
100
AcDbEntity
  8
Layer_1
 62
7
100
AcDbPolyline
 90
4
 70
1
 10
58.013759
 20
131.866926
 30
0.0
 10
55.912428
 20
129.765603
 30
0.0
 10
55.479798
 20
130.198226
 30
0.0
 10
57.581133
 20
132.299549
 30
0.0
  0
LWPOLYLINE
  5
1b1
100
AcDbEntity
  8
Layer_1
 62
7
100
AcDbPolyline
 90
4
 70
1
 10
59.002622
 20
130.878060
 30
0.0
 10
56.901288
 20
128.776737
 30
0.0
 10
56.468662
 20
129.147565
 30
0.0
 10
58.569996
 20
131.310683
 30
0.0
  0
LWPOLYLINE
  5
1b2
100
AcDbEntity
  8
Layer_1
 62
7
100
AcDbPolyline
 90
4
 70
1
 10
59.991486
 20
129.889193
 30
0.0
 10
57.890151
 20
127.787871
 30
0.0
 10
57.519329
 20
128.158699
 30
0.0
 10
59.620663
 20
130.260022
 30
0.0
  0
LWPOLYLINE
  5
1b3
100
AcDbEntity
  8
Layer_1
 62
7
100
AcDbPolyline
 90
4
 70
1
 10
60.980349
 20
128.900356
 30
0.0
 10
58.879015
 20
126.799004
 30
0.0
 10
58.508192
 20
127.169833
 30
0.0
 10
60.609523
 20
129.271156
 30
0.0
  0
LWPOLYLINE
  5
1b4
100
AcDbEntity
  8
Layer_1
 62
7
100
AcDbPolyline
 90
4
 70
1
 10
62.031016
 20
127.849666
 30
0.0
 10
59.929682
 20
125.748343
 30
0.0
 10
59.497055
 20
126.180967
 30
0.0
 10
61.598387
 20
128.282318
 30
0.0
  0
LWPOLYLINE
  5
1b5
100
AcDbEntity
  8
Layer_1
 62
7
100
AcDbPolyline
 90
4
 70
1
 10
63.019877
 20
126.860828
 30
0.0
 10
60.918545
 20
124.759477
 30
0.0
 10
60.485916
 20
125.192100
 30
0.0
 10
62.587250
 20
127.293452
 30
0.0
  0
LWPOLYLINE
  5
1b6
100
AcDbEntity
  8
Layer_1
 62
7
100
AcDbPolyline
 90
4
 70
1
 10
64.008740
 20
125.871962
 30
0.0
 10
61.907409
 20
123.770611
 30
0.0
 10
61.474779
 20
124.141439
 30
0.0
 10
63.637917
 20
126.242762
 30
0.0
  0
LWPOLYLINE
  5
1b7
100
AcDbEntity
  8
Layer_1
 62
7
100
AcDbPolyline
 90
4
 70
1
 10
64.997603
 20
124.883096
 30
0.0
 10
62.896269
 20
122.781745
 30
0.0
 10
62.525446
 20
123.152573
 30
0.0
 10
64.626780
 20
125.253924
 30
0.0
  0
LWPOLYLINE
  5
1b8
100
AcDbEntity
  8
Layer_1
 62
7
100
AcDbPolyline
 90
4
 70
1
 10
65.986466
 20
123.894230
 30
0.0
 10
63.885132
 20
121.731083
 30
0.0
 10
63.514310
 20
122.163707
 30
0.0
 10
65.615644
 20
124.265058
 30
0.0
  0
LWPOLYLINE
  5
1b9
100
AcDbEntity
  8
Layer_1
 62
7
100
AcDbPolyline
 90
4
 70
1
 10
67.037134
 20
122.843568
 30
0.0
 10
64.935799
 20
120.742217
 30
0.0
 10
64.503173
 20
121.174841
 30
0.0
 10
66.604504
 20
123.276192
 30
0.0
  0
LWPOLYLINE
  5
1ba
100
AcDbEntity
  8
Layer_1
 62
7
100
AcDbPolyline
 90
4
 70
1
 10
68.025994
 20
121.854702
 30
0.0
 10
65.924663
 20
119.753351
 30
0.0
 10
65.492033
 20
120.124179
 30
0.0
 10
67.593368
 20
122.287326
 30
0.0
  0
LWPOLYLINE
  5
1bb
100
AcDbEntity
  8
Layer_1
 62
7
100
AcDbPolyline
 90
4
 70
1
 10
69.014857
 20
120.865836
 30
0.0
 10
66.913526
 20
118.764513
 30
0.0
 10
66.542700
 20
119.135313
 30
0.0
 10
68.644035
 20
121.236664
 30
0.0
  0
LWPOLYLINE
  5
1bc
100
AcDbEntity
  8
Layer_1
 62
7
100
AcDbPolyline
 90
4
 70
1
 10
70.003721
 20
119.876970
 30
0.0
 10
67.902386
 20
117.775647
 30
0.0
 10
67.531564
 20
118.146475
 30
0.0
 10
69.632898
 20
120.247798
 30
0.0
  0
LWPOLYLINE
  5
1bd
100
AcDbEntity
  8
Layer_1
 62
7
100
AcDbPolyline
 90
24
 70
1
 10
71.734229
 20
123.028982
 30
0.0
 10
72.290466
 20
122.843597
 30
0.0
 10
72.723093
 20
122.410973
 30
0.0
 10
72.784888
 20
121.792907
 30
0.0
 10
72.537678
 20
121.236693
 30
0.0
 10
72.043248
 20
120.927660
 30
0.0
 10
71.425208
 20
120.927660
 30
0.0
 10
70.930777
 20
121.236693
 30
0.0
 10
70.683568
 20
121.792907
 30
0.0
 10
70.745363
 20
122.410973
 30
0.0
 10
71.177990
 20
122.843597
 30
0.0
 10
71.734224
 20
123.028982
 30
0.0
 10
71.734224
 20
122.287326
 30
0.0
 10
71.919638
 20
122.225530
 30
0.0
 10
72.043257
 20
122.101940
 30
0.0
 10
72.105052
 20
121.916554
 30
0.0
 10
71.981433
 20
121.731168
 30
0.0
 10
71.857814
 20
121.607578
 30
0.0
 10
71.610605
 20
121.607578
 30
0.0
 10
71.486986
 20
121.731168
 30
0.0
 10
71.363367
 20
121.916554
 30
0.0
 10
71.425162
 20
122.101940
 30
0.0
 10
71.548781
 20
122.225530
 30
0.0
 10
71.734195
 20
122.287326
 30
0.0
  0
LWPOLYLINE
  5
1be
100
AcDbEntity
  8
Layer_1
 62
7
100
AcDbPolyline
 90
8
 70
1
 10
72.908504
 20
119.753351
 30
0.0
 10
70.498151
 20
119.753351
 30
0.0
 10
44.787722
 20
145.525609
 30
0.0
 10
44.787722
 20
146.514447
 30
0.0
 10
71.239799
 20
172.966538
 30
0.0
 10
72.228662
 20
172.966538
 30
0.0
 10
98.680740
 20
146.514447
 30
0.0
 10
98.680740
 20
145.525609
 30
0.0
  0
LWPOLYLINE
  5
1bf
100
AcDbEntity
  8
Layer_1
 62
7
100
AcDbPolyline
 90
2
 70
0
 10
83.662387
 20
-0.022646
 30
0.0
 10
106.900662
 20
-0.022646
 30
0.0
  0
LWPOLYLINE
  5
1c0
100
AcDbEntity
  8
Layer_1
 62
7
100
AcDbPolyline
 90
2
 70
0
 10
76.554935
 20
279.269283
 30
0.0
 10
53.316663
 20
279.269283
 30
0.0
  0
LWPOLYLINE
  5
1c1
100
AcDbEntity
  8
Layer_1
 62
7
100
AcDbPolyline
 90
4
 70
1
 10
52.327800
 20
6.528589
 30
0.0
 10
54.429131
 20
4.427237
 30
0.0
 10
53.996505
 20
3.994614
 30
0.0
 10
51.895171
 20
6.157760
 30
0.0
  0
LWPOLYLINE
  5
1c2
100
AcDbEntity
  8
Layer_1
 62
7
100
AcDbPolyline
 90
4
 70
1
 10
53.316663
 20
7.517455
 30
0.0
 10
55.417995
 20
5.416104
 30
0.0
 10
54.985368
 20
5.045275
 30
0.0
 10
52.884034
 20
7.146626
 30
0.0
  0
LWPOLYLINE
  5
1c3
100
AcDbEntity
  8
Layer_1
 62
7
100
AcDbPolyline
 90
4
 70
1
 10
54.305524
 20
8.506293
 30
0.0
 10
56.406858
 20
6.404970
 30
0.0
 10
56.036035
 20
6.034141
 30
0.0
 10
53.934701
 20
8.135493
 30
0.0
  0
LWPOLYLINE
  5
1c4
100
AcDbEntity
  8
Layer_1
 62
7
100
AcDbPolyline
 90
4
 70
1
 10
55.294387
 20
9.556982
 30
0.0
 10
57.395721
 20
7.455631
 30
0.0
 10
57.024899
 20
7.023008
 30
0.0
 10
54.923564
 20
9.124330
 30
0.0
  0
LWPOLYLINE
  5
1c5
100
AcDbEntity
  8
Layer_1
 62
7
100
AcDbPolyline
 90
4
 70
1
 10
56.345054
 20
10.545820
 30
0.0
 10
58.446388
 20
8.444497
 30
0.0
 10
58.013759
 20
8.011874
 30
0.0
 10
55.912428
 20
10.113197
 30
0.0
  0
LWPOLYLINE
  5
1c6
100
AcDbEntity
  8
Layer_1
 62
7
100
AcDbPolyline
 90
4
 70
1
 10
57.333917
 20
11.534686
 30
0.0
 10
59.435249
 20
9.433363
 30
0.0
 10
59.002622
 20
9.062535
 30
0.0
 10
56.901288
 20
11.163886
 30
0.0
  0
LWPOLYLINE
  5
1c7
100
AcDbEntity
  8
Layer_1
 62
7
100
AcDbPolyline
 90
4
 70
1
 10
58.322781
 20
12.523552
 30
0.0
 10
60.424112
 20
10.422230
 30
0.0
 10
60.053289
 20
10.051401
 30
0.0
 10
57.890151
 20
12.152724
 30
0.0
  0
LWPOLYLINE
  5
1c8
100
AcDbEntity
  8
Layer_1
 62
7
100
AcDbPolyline
 90
4
 70
1
 10
59.311641
 20
13.574214
 30
0.0
 10
61.412975
 20
11.411096
 30
0.0
 10
61.042153
 20
11.040267
 30
0.0
 10
58.940819
 20
13.141590
 30
0.0
  0
LWPOLYLINE
  5
1c9
100
AcDbEntity
  8
Layer_1
 62
7
100
AcDbPolyline
 90
4
 70
1
 10
60.300505
 20
14.563080
 30
0.0
 10
62.401839
 20
12.461757
 30
0.0
 10
62.031016
 20
12.029134
 30
0.0
 10
59.929682
 20
14.130456
 30
0.0
  0
LWPOLYLINE
  5
1ca
100
AcDbEntity
  8
Layer_1
 62
7
100
AcDbPolyline
 90
4
 70
1
 10
61.351172
 20
15.551946
 30
0.0
 10
63.452506
 20
13.450623
 30
0.0
 10
63.019877
 20
13.018000
 30
0.0
 10
60.918545
 20
15.181118
 30
0.0
  0
LWPOLYLINE
  5
1cb
100
AcDbEntity
  8
Layer_1
 62
7
100
AcDbPolyline
 90
4
 70
1
 10
62.340035
 20
16.540812
 30
0.0
 10
64.441369
 20
14.439489
 30
0.0
 10
64.008740
 20
14.068661
 30
0.0
 10
61.907409
 20
16.169984
 30
0.0
  0
LWPOLYLINE
  5
1cc
100
AcDbEntity
  8
Layer_1
 62
7
100
AcDbPolyline
 90
4
 70
1
 10
63.328898
 20
17.529678
 30
0.0
 10
65.430230
 20
15.428356
 30
0.0
 10
65.059407
 20
15.057527
 30
0.0
 10
62.958073
 20
17.158850
 30
0.0
  0
LWPOLYLINE
  5
1cd
100
AcDbEntity
  8
Layer_1
 62
7
100
AcDbPolyline
 90
4
 70
1
 10
64.317759
 20
18.580340
 30
0.0
 10
66.419093
 20
16.479017
 30
0.0
 10
66.048270
 20
16.046393
 30
0.0
 10
63.946936
 20
18.147716
 30
0.0
  0
LWPOLYLINE
  5
1ce
100
AcDbEntity
  8
Layer_1
 62
7
100
AcDbPolyline
 90
4
 70
1
 10
65.368426
 20
19.569206
 30
0.0
 10
67.469760
 20
17.467883
 30
0.0
 10
67.037134
 20
17.035260
 30
0.0
 10
64.935799
 20
19.136582
 30
0.0
  0
LWPOLYLINE
  5
1cf
100
AcDbEntity
  8
Layer_1
 62
7
100
AcDbPolyline
 90
4
 70
1
 10
66.357289
 20
20.558072
 30
0.0
 10
68.458623
 20
18.456749
 30
0.0
 10
68.025994
 20
18.085921
 30
0.0
 10
65.924663
 20
20.187244
 30
0.0
  0
LWPOLYLINE
  5
1d0
100
AcDbEntity
  8
Layer_1
 62
7
100
AcDbPolyline
 90
4
 70
1
 10
67.346152
 20
21.546938
 30
0.0
 10
69.447487
 20
19.445587
 30
0.0
 10
69.076661
 20
19.074787
 30
0.0
 10
66.913526
 20
21.176110
 30
0.0
  0
LWPOLYLINE
  5
1d1
100
AcDbEntity
  8
Layer_1
 62
7
100
AcDbPolyline
 90
4
 70
1
 10
68.335016
 20
22.597600
 30
0.0
 10
70.436347
 20
20.434453
 30
0.0
 10
70.065524
 20
20.063625
 30
0.0
 10
67.964190
 20
22.164976
 30
0.0
  0
LWPOLYLINE
  5
1d2
100
AcDbEntity
  8
Layer_1
 62
7
100
AcDbPolyline
 90
4
 70
1
 10
69.323879
 20
23.586466
 30
0.0
 10
71.425210
 20
21.485115
 30
0.0
 10
71.054388
 20
21.052491
 30
0.0
 10
68.953054
 20
23.153842
 30
0.0
  0
LWPOLYLINE
  5
1d3
100
AcDbEntity
  8
Layer_1
 62
7
100
AcDbPolyline
 90
4
 70
1
 10
70.374543
 20
24.575332
 30
0.0
 10
72.475877
 20
22.473981
 30
0.0
 10
72.043251
 20
22.041357
 30
0.0
 10
69.941917
 20
24.142708
 30
0.0
  0
LWPOLYLINE
  5
1d4
100
AcDbEntity
  8
Layer_1
 62
7
100
AcDbPolyline
 90
4
 70
1
 10
71.363407
 20
25.564198
 30
0.0
 10
73.464741
 20
23.462847
 30
0.0
 10
73.032114
 20
23.092019
 30
0.0
 10
70.930780
 20
25.193370
 30
0.0
  0
LWPOLYLINE
  5
1d5
100
AcDbEntity
  8
Layer_1
 62
7
100
AcDbPolyline
 90
4
 70
1
 10
72.352270
 20
26.553036
 30
0.0
 10
74.453604
 20
24.451713
 30
0.0
 10
74.082779
 20
24.080885
 30
0.0
 10
71.981447
 20
26.182236
 30
0.0
  0
LWPOLYLINE
  5
1d6
100
AcDbEntity
  8
Layer_1
 62
7
100
AcDbPolyline
 90
4
 70
1
 10
73.341133
 20
27.603726
 30
0.0
 10
75.442465
 20
25.502374
 30
0.0
 10
75.071642
 20
25.069751
 30
0.0
 10
72.970308
 20
27.171102
 30
0.0
  0
LWPOLYLINE
  5
1d7
100
AcDbEntity
  8
Layer_1
 62
7
100
AcDbPolyline
 90
4
 70
1
 10
74.329997
 20
28.592592
 30
0.0
 10
76.493132
 20
26.491241
 30
0.0
 10
76.060505
 20
26.058617
 30
0.0
 10
73.959171
 20
28.159940
 30
0.0
  0
LWPOLYLINE
  5
1d8
100
AcDbEntity
  8
Layer_1
 62
7
100
AcDbPolyline
 90
4
 70
1
 10
75.380661
 20
29.581430
 30
0.0
 10
77.481995
 20
27.480107
 30
0.0
 10
77.049369
 20
27.109278
 30
0.0
 10
74.948034
 20
29.210630
 30
0.0
  0
LWPOLYLINE
  5
1d9
100
AcDbEntity
  8
Layer_1
 62
7
100
AcDbPolyline
 90
4
 70
1
 10
76.369524
 20
30.570296
 30
0.0
 10
78.470858
 20
28.468973
 30
0.0
 10
78.100036
 20
28.098145
 30
0.0
 10
75.936898
 20
30.199467
 30
0.0
  0
LWPOLYLINE
  5
1da
100
AcDbEntity
  8
Layer_1
 62
7
100
AcDbPolyline
 90
4
 70
1
 10
75.936898
 20
34.402141
 30
0.0
 10
78.100036
 20
36.503493
 30
0.0
 10
78.470858
 20
36.132664
 30
0.0
 10
76.369524
 20
33.969518
 30
0.0
  0
LWPOLYLINE
  5
1db
100
AcDbEntity
  8
Layer_1
 62
7
100
AcDbPolyline
 90
4
 70
1
 10
74.948034
 20
35.391008
 30
0.0
 10
77.049369
 20
37.492330
 30
0.0
 10
77.481995
 20
37.121530
 30
0.0
 10
75.380661
 20
35.020179
 30
0.0
  0
LWPOLYLINE
  5
1dc
100
AcDbEntity
  8
Layer_1
 62
7
100
AcDbPolyline
 90
4
 70
1
 10
73.959171
 20
36.379874
 30
0.0
 10
76.060505
 20
38.481197
 30
0.0
 10
76.493132
 20
38.110397
 30
0.0
 10
74.329997
 20
36.009045
 30
0.0
  0
LWPOLYLINE
  5
1dd
100
AcDbEntity
  8
Layer_1
 62
7
100
AcDbPolyline
 90
4
 70
1
 10
72.970308
 20
37.430535
 30
0.0
 10
75.071642
 20
39.531886
 30
0.0
 10
75.442465
 20
39.099234
 30
0.0
 10
73.341133
 20
36.997911
 30
0.0
  0
LWPOLYLINE
  5
1de
100
AcDbEntity
  8
Layer_1
 62
7
100
AcDbPolyline
 90
4
 70
1
 10
71.981447
 20
38.419401
 30
0.0
 10
74.082779
 20
40.520724
 30
0.0
 10
74.453604
 20
40.088100
 30
0.0
 10
72.352270
 20
37.986778
 30
0.0
  0
LWPOLYLINE
  5
1df
100
AcDbEntity
  8
Layer_1
 62
7
100
AcDbPolyline
 90
4
 70
1
 10
70.930780
 20
39.408267
 30
0.0
 10
73.032114
 20
41.509590
 30
0.0
 10
73.464741
 20
41.138762
 30
0.0
 10
71.363407
 20
39.037439
 30
0.0
  0
LWPOLYLINE
  5
1e0
100
AcDbEntity
  8
Layer_1
 62
7
100
AcDbPolyline
 90
4
 70
1
 10
69.941917
 20
40.397134
 30
0.0
 10
72.043251
 20
42.498456
 30
0.0
 10
72.475877
 20
42.127628
 30
0.0
 10
70.374543
 20
40.026305
 30
0.0
  0
LWPOLYLINE
  5
1e1
100
AcDbEntity
  8
Layer_1
 62
7
100
AcDbPolyline
 90
4
 70
1
 10
68.953054
 20
41.447795
 30
0.0
 10
71.054388
 20
43.549118
 30
0.0
 10
71.425210
 20
43.116494
 30
0.0
 10
69.323879
 20
41.015171
 30
0.0
  0
LWPOLYLINE
  5
1e2
100
AcDbEntity
  8
Layer_1
 62
7
100
AcDbPolyline
 90
4
 70
1
 10
67.964190
 20
42.436661
 30
0.0
 10
70.065524
 20
44.537984
 30
0.0
 10
70.436347
 20
44.105360
 30
0.0
 10
68.335016
 20
42.004037
 30
0.0
  0
LWPOLYLINE
  5
1e3
100
AcDbEntity
  8
Layer_1
 62
7
100
AcDbPolyline
 90
4
 70
1
 10
66.913526
 20
43.425527
 30
0.0
 10
69.076661
 20
45.526850
 30
0.0
 10
69.447487
 20
45.156022
 30
0.0
 10
67.346152
 20
42.992904
 30
0.0
  0
LWPOLYLINE
  5
1e4
100
AcDbEntity
  8
Layer_1
 62
7
100
AcDbPolyline
 90
4
 70
1
 10
65.924663
 20
44.414393
 30
0.0
 10
68.025994
 20
46.515716
 30
0.0
 10
68.458623
 20
46.144888
 30
0.0
 10
66.357289
 20
44.043565
 30
0.0
  0
LWPOLYLINE
  5
1e5
100
AcDbEntity
  8
Layer_1
 62
7
100
AcDbPolyline
 90
4
 70
1
 10
64.935799
 20
45.403260
 30
0.0
 10
67.037134
 20
47.504582
 30
0.0
 10
67.469760
 20
47.133754
 30
0.0
 10
65.368426
 20
45.032431
 30
0.0
  0
LWPOLYLINE
  5
1e6
100
AcDbEntity
  8
Layer_1
 62
7
100
AcDbPolyline
 90
4
 70
1
 10
63.946936
 20
46.453921
 30
0.0
 10
66.048270
 20
48.555244
 30
0.0
 10
66.419093
 20
48.122620
 30
0.0
 10
64.317759
 20
46.021297
 30
0.0
  0
LWPOLYLINE
  5
1e7
100
AcDbEntity
  8
Layer_1
 62
7
100
AcDbPolyline
 90
4
 70
1
 10
62.958073
 20
47.442787
 30
0.0
 10
65.059407
 20
49.544110
 30
0.0
 10
65.430230
 20
49.111486
 30
0.0
 10
63.328898
 20
47.010135
 30
0.0
  0
LWPOLYLINE
  5
1e8
100
AcDbEntity
  8
Layer_1
 62
7
100
AcDbPolyline
 90
4
 70
1
 10
61.907409
 20
48.431625
 30
0.0
 10
64.008740
 20
50.532976
 30
0.0
 10
64.441369
 20
50.162148
 30
0.0
 10
62.340035
 20
48.060825
 30
0.0
  0
LWPOLYLINE
  5
1e9
100
AcDbEntity
  8
Layer_1
 62
7
100
AcDbPolyline
 90
4
 70
1
 10
60.918545
 20
49.420491
 30
0.0
 10
63.019877
 20
51.521842
 30
0.0
 10
63.452506
 20
51.151014
 30
0.0
 10
61.351172
 20
49.049691
 30
0.0
  0
LWPOLYLINE
  5
1ea
100
AcDbEntity
  8
Layer_1
 62
7
100
AcDbPolyline
 90
4
 70
1
 10
59.929682
 20
50.409357
 30
0.0
 10
62.031016
 20
52.572504
 30
0.0
 10
62.401839
 20
52.139880
 30
0.0
 10
60.300505
 20
50.038529
 30
0.0
  0
LWPOLYLINE
  5
1eb
100
AcDbEntity
  8
Layer_1
 62
7
100
AcDbPolyline
 90
4
 70
1
 10
58.940819
 20
51.460019
 30
0.0
 10
61.042153
 20
53.561370
 30
0.0
 10
61.412975
 20
53.128746
 30
0.0
 10
59.311641
 20
51.027395
 30
0.0
  0
LWPOLYLINE
  5
1ec
100
AcDbEntity
  8
Layer_1
 62
7
100
AcDbPolyline
 90
4
 70
1
 10
57.890151
 20
52.448885
 30
0.0
 10
60.053289
 20
54.550236
 30
0.0
 10
60.424112
 20
54.179408
 30
0.0
 10
58.322781
 20
52.016261
 30
0.0
  0
LWPOLYLINE
  5
1ed
100
AcDbEntity
  8
Layer_1
 62
7
100
AcDbPolyline
 90
4
 70
1
 10
56.901288
 20
53.437751
 30
0.0
 10
59.002622
 20
55.539102
 30
0.0
 10
59.435249
 20
55.168274
 30
0.0
 10
57.333917
 20
53.066923
 30
0.0
  0
LWPOLYLINE
  5
1ee
100
AcDbEntity
  8
Layer_1
 62
7
100
AcDbPolyline
 90
4
 70
1
 10
55.912428
 20
54.426617
 30
0.0
 10
58.013759
 20
56.527940
 30
0.0
 10
58.446388
 20
56.157140
 30
0.0
 10
56.345054
 20
54.055789
 30
0.0
  0
LWPOLYLINE
  5
1ef
100
AcDbEntity
  8
Layer_1
 62
7
100
AcDbPolyline
 90
4
 70
1
 10
54.923564
 20
55.477278
 30
0.0
 10
57.024899
 20
57.578630
 30
0.0
 10
57.395721
 20
57.145978
 30
0.0
 10
55.294387
 20
55.044655
 30
0.0
  0
LWPOLYLINE
  5
1f0
100
AcDbEntity
  8
Layer_1
 62
7
100
AcDbPolyline
 90
4
 70
1
 10
53.934701
 20
56.466145
 30
0.0
 10
56.036035
 20
58.567467
 30
0.0
 10
56.406858
 20
58.134844
 30
0.0
 10
54.305524
 20
56.033521
 30
0.0
  0
LWPOLYLINE
  5
1f1
100
AcDbEntity
  8
Layer_1
 62
7
100
AcDbPolyline
 90
4
 70
1
 10
52.884034
 20
57.455011
 30
0.0
 10
54.985368
 20
59.556334
 30
0.0
 10
55.417995
 20
59.185534
 30
0.0
 10
53.316663
 20
57.084182
 30
0.0
  0
LWPOLYLINE
  5
1f2
100
AcDbEntity
  8
Layer_1
 62
7
100
AcDbPolyline
 90
4
 70
1
 10
51.895171
 20
58.443877
 30
0.0
 10
53.996505
 20
60.545200
 30
0.0
 10
54.429131
 20
60.174371
 30
0.0
 10
52.327800
 20
58.073049
 30
0.0
  0
LWPOLYLINE
  5
1f3
100
AcDbEntity
  8
Layer_1
 62
7
100
AcDbPolyline
 90
4
 70
1
 10
48.125132
 20
58.073049
 30
0.0
 10
45.961997
 20
60.174371
 30
0.0
 10
46.394623
 20
60.545200
 30
0.0
 10
48.495957
 20
58.443877
 30
0.0
  0
LWPOLYLINE
  5
1f4
100
AcDbEntity
  8
Layer_1
 62
7
100
AcDbPolyline
 90
4
 70
1
 10
47.074467
 20
57.084182
 30
0.0
 10
44.973133
 20
59.185534
 30
0.0
 10
45.405760
 20
59.556334
 30
0.0
 10
47.507094
 20
57.455011
 30
0.0
  0
LWPOLYLINE
  5
1f5
100
AcDbEntity
  8
Layer_1
 62
7
100
AcDbPolyline
 90
4
 70
1
 10
46.085604
 20
56.033521
 30
0.0
 10
43.984270
 20
58.134844
 30
0.0
 10
44.416896
 20
58.567467
 30
0.0
 10
46.518231
 20
56.466145
 30
0.0
  0
LWPOLYLINE
  5
1f6
100
AcDbEntity
  8
Layer_1
 62
7
100
AcDbPolyline
 90
4
 70
1
 10
45.096741
 20
55.044655
 30
0.0
 10
42.995407
 20
57.145978
 30
0.0
 10
43.366232
 20
57.578630
 30
0.0
 10
45.467563
 20
55.477278
 30
0.0
  0
LWPOLYLINE
  5
1f7
100
AcDbEntity
  8
Layer_1
 62
7
100
AcDbPolyline
 90
4
 70
1
 10
44.107877
 20
54.055789
 30
0.0
 10
42.006543
 20
56.157140
 30
0.0
 10
42.377369
 20
56.527940
 30
0.0
 10
44.478700
 20
54.426617
 30
0.0
  0
LWPOLYLINE
  5
1f8
100
AcDbEntity
  8
Layer_1
 62
7
100
AcDbPolyline
 90
4
 70
1
 10
43.057210
 20
53.066923
 30
0.0
 10
40.955879
 20
55.168274
 30
0.0
 10
41.388506
 20
55.539102
 30
0.0
 10
43.489840
 20
53.437751
 30
0.0
  0
LWPOLYLINE
  5
1f9
100
AcDbEntity
  8
Layer_1
 62
7
100
AcDbPolyline
 90
4
 70
1
 10
42.068347
 20
52.016261
 30
0.0
 10
39.967016
 20
54.179408
 30
0.0
 10
40.399642
 20
54.550236
 30
0.0
 10
42.500976
 20
52.448885
 30
0.0
  0
LWPOLYLINE
  5
1fa
100
AcDbEntity
  8
Layer_1
 62
7
100
AcDbPolyline
 90
4
 70
1
 10
41.079487
 20
51.027395
 30
0.0
 10
38.978152
 20
53.128746
 30
0.0
 10
39.348975
 20
53.561370
 30
0.0
 10
41.450309
 20
51.460019
 30
0.0
  0
LWPOLYLINE
  5
1fb
100
AcDbEntity
  8
Layer_1
 62
7
100
AcDbPolyline
 90
4
 70
1
 10
40.090623
 20
50.038529
 30
0.0
 10
37.989289
 20
52.139880
 30
0.0
 10
38.360112
 20
52.572504
 30
0.0
 10
40.461446
 20
50.409357
 30
0.0
  0
LWPOLYLINE
  5
1fc
100
AcDbEntity
  8
Layer_1
 62
7
100
AcDbPolyline
 90
4
 70
1
 10
39.101760
 20
49.049691
 30
0.0
 10
37.000426
 20
51.151014
 30
0.0
 10
37.371251
 20
51.521842
 30
0.0
 10
39.472583
 20
49.420491
 30
0.0
  0
LWPOLYLINE
  5
1fd
100
AcDbEntity
  8
Layer_1
 62
7
100
AcDbPolyline
 90
4
 70
1
 10
38.051093
 20
48.060825
 30
0.0
 10
35.949762
 20
50.162148
 30
0.0
 10
36.382388
 20
50.532976
 30
0.0
 10
38.483722
 20
48.431625
 30
0.0
  0
LWPOLYLINE
  5
1fe
100
AcDbEntity
  8
Layer_1
 62
7
100
AcDbPolyline
 90
4
 70
1
 10
37.062230
 20
47.010135
 30
0.0
 10
34.960898
 20
49.111486
 30
0.0
 10
35.393525
 20
49.544110
 30
0.0
 10
37.494859
 20
47.442787
 30
0.0
  0
LWPOLYLINE
  5
1ff
100
AcDbEntity
  8
Layer_1
 62
7
100
AcDbPolyline
 90
4
 70
1
 10
36.073369
 20
46.021297
 30
0.0
 10
33.972035
 20
48.122620
 30
0.0
 10
34.342858
 20
48.555244
 30
0.0
 10
36.444192
 20
46.453921
 30
0.0
  0
LWPOLYLINE
  5
200
100
AcDbEntity
  8
Layer_1
 62
7
100
AcDbPolyline
 90
4
 70
1
 10
35.084506
 20
45.032431
 30
0.0
 10
32.983172
 20
47.133754
 30
0.0
 10
33.353994
 20
47.504582
 30
0.0
 10
35.455329
 20
45.403260
 30
0.0
  0
LWPOLYLINE
  5
201
100
AcDbEntity
  8
Layer_1
 62
7
100
AcDbPolyline
 90
4
 70
1
 10
34.033839
 20
44.043565
 30
0.0
 10
31.932505
 20
46.144888
 30
0.0
 10
32.365134
 20
46.515716
 30
0.0
 10
34.466465
 20
44.414393
 30
0.0
  0
LWPOLYLINE
  5
202
100
AcDbEntity
  8
Layer_1
 62
7
100
AcDbPolyline
 90
4
 70
1
 10
33.044975
 20
42.992904
 30
0.0
 10
30.943641
 20
45.156022
 30
0.0
 10
31.376271
 20
45.526850
 30
0.0
 10
33.477605
 20
43.425527
 30
0.0
  0
LWPOLYLINE
  5
203
100
AcDbEntity
  8
Layer_1
 62
7
100
AcDbPolyline
 90
4
 70
1
 10
32.056112
 20
42.004037
 30
0.0
 10
29.954781
 20
44.105360
 30
0.0
 10
30.325603
 20
44.537984
 30
0.0
 10
32.488741
 20
42.436661
 30
0.0
  0
LWPOLYLINE
  5
204
100
AcDbEntity
  8
Layer_1
 62
7
100
AcDbPolyline
 90
4
 70
1
 10
31.067252
 20
41.015171
 30
0.0
 10
28.965917
 20
43.116494
 30
0.0
 10
29.336740
 20
43.549118
 30
0.0
 10
31.438074
 20
41.447795
 30
0.0
  0
LWPOLYLINE
  5
205
100
AcDbEntity
  8
Layer_1
 62
7
100
AcDbPolyline
 90
4
 70
1
 10
30.078388
 20
40.026305
 30
0.0
 10
27.977054
 20
42.127628
 30
0.0
 10
28.347877
 20
42.498456
 30
0.0
 10
30.449211
 20
40.397134
 30
0.0
  0
LWPOLYLINE
  5
206
100
AcDbEntity
  8
Layer_1
 62
7
100
AcDbPolyline
 90
4
 70
1
 10
29.027721
 20
39.037439
 30
0.0
 10
26.926387
 20
41.138762
 30
0.0
 10
27.359016
 20
41.509590
 30
0.0
 10
29.460348
 20
39.408267
 30
0.0
  0
LWPOLYLINE
  5
207
100
AcDbEntity
  8
Layer_1
 62
7
100
AcDbPolyline
 90
4
 70
1
 10
28.038858
 20
37.986778
 30
0.0
 10
25.937524
 20
40.088100
 30
0.0
 10
26.370153
 20
40.520724
 30
0.0
 10
28.471484
 20
38.419401
 30
0.0
  0
LWPOLYLINE
  5
208
100
AcDbEntity
  8
Layer_1
 62
7
100
AcDbPolyline
 90
4
 70
1
 10
27.049995
 20
36.997911
 30
0.0
 10
24.948663
 20
39.099234
 30
0.0
 10
25.319486
 20
39.531886
 30
0.0
 10
27.420820
 20
37.430535
 30
0.0
  0
LWPOLYLINE
  5
209
100
AcDbEntity
  8
Layer_1
 62
7
100
AcDbPolyline
 90
4
 70
1
 10
26.061134
 20
36.009045
 30
0.0
 10
23.959800
 20
38.110397
 30
0.0
 10
24.330623
 20
38.481197
 30
0.0
 10
26.431957
 20
36.379874
 30
0.0
  0
LWPOLYLINE
  5
20a
100
AcDbEntity
  8
Layer_1
 62
7
100
AcDbPolyline
 90
4
 70
1
 10
25.010467
 20
35.020179
 30
0.0
 10
22.909133
 20
37.121530
 30
0.0
 10
23.341759
 20
37.492330
 30
0.0
 10
25.443094
 20
35.391008
 30
0.0
  0
LWPOLYLINE
  5
20b
100
AcDbEntity
  8
Layer_1
 62
7
100
AcDbPolyline
 90
4
 70
1
 10
24.021604
 20
33.969518
 30
0.0
 10
21.920270
 20
36.132664
 30
0.0
 10
22.352899
 20
36.503493
 30
0.0
 10
24.454230
 20
34.402141
 30
0.0
  0
LWPOLYLINE
  5
20c
100
AcDbEntity
  8
Layer_1
 62
7
100
AcDbPolyline
 90
4
 70
1
 10
24.454230
 20
30.199467
 30
0.0
 10
22.352899
 20
28.098145
 30
0.0
 10
21.920270
 20
28.468973
 30
0.0
 10
24.021604
 20
30.570296
 30
0.0
  0
LWPOLYLINE
  5
20d
100
AcDbEntity
  8
Layer_1
 62
7
100
AcDbPolyline
 90
4
 70
1
 10
25.443094
 20
29.210630
 30
0.0
 10
23.341759
 20
27.109278
 30
0.0
 10
22.909133
 20
27.480107
 30
0.0
 10
25.010467
 20
29.581430
 30
0.0
  0
LWPOLYLINE
  5
20e
100
AcDbEntity
  8
Layer_1
 62
7
100
AcDbPolyline
 90
4
 70
1
 10
26.431957
 20
28.159940
 30
0.0
 10
24.330623
 20
26.058617
 30
0.0
 10
23.959800
 20
26.491241
 30
0.0
 10
26.061134
 20
28.592592
 30
0.0
  0
LWPOLYLINE
  5
20f
100
AcDbEntity
  8
Layer_1
 62
7
100
AcDbPolyline
 90
4
 70
1
 10
27.420820
 20
27.171102
 30
0.0
 10
25.319486
 20
25.069751
 30
0.0
 10
24.948663
 20
25.502374
 30
0.0
 10
27.049995
 20
27.603726
 30
0.0
  0
LWPOLYLINE
  5
210
100
AcDbEntity
  8
Layer_1
 62
7
100
AcDbPolyline
 90
4
 70
1
 10
28.471484
 20
26.182236
 30
0.0
 10
26.370153
 20
24.080885
 30
0.0
 10
25.937524
 20
24.451713
 30
0.0
 10
28.038858
 20
26.553036
 30
0.0
  0
LWPOLYLINE
  5
211
100
AcDbEntity
  8
Layer_1
 62
7
100
AcDbPolyline
 90
4
 70
1
 10
29.460348
 20
25.193370
 30
0.0
 10
27.359016
 20
23.092019
 30
0.0
 10
26.926387
 20
23.462847
 30
0.0
 10
29.027721
 20
25.564198
 30
0.0
  0
LWPOLYLINE
  5
212
100
AcDbEntity
  8
Layer_1
 62
7
100
AcDbPolyline
 90
4
 70
1
 10
30.449211
 20
24.142708
 30
0.0
 10
28.347877
 20
22.041357
 30
0.0
 10
27.977054
 20
22.473981
 30
0.0
 10
30.078388
 20
24.575332
 30
0.0
  0
LWPOLYLINE
  5
213
100
AcDbEntity
  8
Layer_1
 62
7
100
AcDbPolyline
 90
4
 70
1
 10
31.438074
 20
23.153842
 30
0.0
 10
29.336740
 20
21.052491
 30
0.0
 10
28.965917
 20
21.485115
 30
0.0
 10
31.067252
 20
23.586466
 30
0.0
  0
LWPOLYLINE
  5
214
100
AcDbEntity
  8
Layer_1
 62
7
100
AcDbPolyline
 90
4
 70
1
 10
32.488741
 20
22.164976
 30
0.0
 10
30.325603
 20
20.063625
 30
0.0
 10
29.954781
 20
20.434453
 30
0.0
 10
32.056112
 20
22.597600
 30
0.0
  0
LWPOLYLINE
  5
215
100
AcDbEntity
  8
Layer_1
 62
7
100
AcDbPolyline
 90
4
 70
1
 10
33.477605
 20
21.176110
 30
0.0
 10
31.376271
 20
19.074787
 30
0.0
 10
30.943641
 20
19.445587
 30
0.0
 10
33.044975
 20
21.546938
 30
0.0
  0
LWPOLYLINE
  5
216
100
AcDbEntity
  8
Layer_1
 62
7
100
AcDbPolyline
 90
4
 70
1
 10
34.466465
 20
20.187244
 30
0.0
 10
32.365134
 20
18.085921
 30
0.0
 10
31.932505
 20
18.456749
 30
0.0
 10
34.033839
 20
20.558072
 30
0.0
  0
LWPOLYLINE
  5
217
100
AcDbEntity
  8
Layer_1
 62
7
100
AcDbPolyline
 90
4
 70
1
 10
35.455329
 20
19.136582
 30
0.0
 10
33.353994
 20
17.035260
 30
0.0
 10
32.983172
 20
17.467883
 30
0.0
 10
35.084506
 20
19.569206
 30
0.0
  0
LWPOLYLINE
  5
218
100
AcDbEntity
  8
Layer_1
 62
7
100
AcDbPolyline
 90
4
 70
1
 10
36.444192
 20
18.147716
 30
0.0
 10
34.342858
 20
16.046393
 30
0.0
 10
33.972035
 20
16.479017
 30
0.0
 10
36.073369
 20
18.580340
 30
0.0
  0
LWPOLYLINE
  5
219
100
AcDbEntity
  8
Layer_1
 62
7
100
AcDbPolyline
 90
4
 70
1
 10
37.494859
 20
17.158850
 30
0.0
 10
35.393525
 20
15.057527
 30
0.0
 10
34.960898
 20
15.428356
 30
0.0
 10
37.062230
 20
17.529678
 30
0.0
  0
LWPOLYLINE
  5
21a
100
AcDbEntity
  8
Layer_1
 62
7
100
AcDbPolyline
 90
4
 70
1
 10
38.483722
 20
16.169984
 30
0.0
 10
36.382388
 20
14.068661
 30
0.0
 10
35.949762
 20
14.439489
 30
0.0
 10
38.051093
 20
16.540812
 30
0.0
  0
LWPOLYLINE
  5
21b
100
AcDbEntity
  8
Layer_1
 62
7
100
AcDbPolyline
 90
4
 70
1
 10
39.472583
 20
15.181118
 30
0.0
 10
37.371251
 20
13.018000
 30
0.0
 10
37.000426
 20
13.450623
 30
0.0
 10
39.101760
 20
15.551946
 30
0.0
  0
LWPOLYLINE
  5
21c
100
AcDbEntity
  8
Layer_1
 62
7
100
AcDbPolyline
 90
4
 70
1
 10
40.461446
 20
14.130456
 30
0.0
 10
38.360112
 20
12.029134
 30
0.0
 10
37.989289
 20
12.461757
 30
0.0
 10
40.090623
 20
14.563080
 30
0.0
  0
LWPOLYLINE
  5
21d
100
AcDbEntity
  8
Layer_1
 62
7
100
AcDbPolyline
 90
4
 70
1
 10
41.450309
 20
13.141590
 30
0.0
 10
39.348975
 20
11.040267
 30
0.0
 10
38.978152
 20
11.411096
 30
0.0
 10
41.079487
 20
13.574214
 30
0.0
  0
LWPOLYLINE
  5
21e
100
AcDbEntity
  8
Layer_1
 62
7
100
AcDbPolyline
 90
4
 70
1
 10
42.500976
 20
12.152724
 30
0.0
 10
40.399642
 20
10.051401
 30
0.0
 10
39.967016
 20
10.422230
 30
0.0
 10
42.068347
 20
12.523552
 30
0.0
  0
LWPOLYLINE
  5
21f
100
AcDbEntity
  8
Layer_1
 62
7
100
AcDbPolyline
 90
4
 70
1
 10
43.489840
 20
11.163886
 30
0.0
 10
41.388506
 20
9.062535
 30
0.0
 10
40.955879
 20
9.433363
 30
0.0
 10
43.057210
 20
11.534686
 30
0.0
  0
LWPOLYLINE
  5
220
100
AcDbEntity
  8
Layer_1
 62
7
100
AcDbPolyline
 90
4
 70
1
 10
44.478700
 20
10.113197
 30
0.0
 10
42.377369
 20
8.011874
 30
0.0
 10
42.006543
 20
8.444497
 30
0.0
 10
44.107877
 20
10.545820
 30
0.0
  0
LWPOLYLINE
  5
221
100
AcDbEntity
  8
Layer_1
 62
7
100
AcDbPolyline
 90
4
 70
1
 10
45.467563
 20
9.124330
 30
0.0
 10
43.366232
 20
7.023008
 30
0.0
 10
42.995407
 20
7.455631
 30
0.0
 10
45.096741
 20
9.556982
 30
0.0
  0
LWPOLYLINE
  5
222
100
AcDbEntity
  8
Layer_1
 62
7
100
AcDbPolyline
 90
4
 70
1
 10
46.518231
 20
8.135493
 30
0.0
 10
44.416896
 20
6.034141
 30
0.0
 10
43.984270
 20
6.404970
 30
0.0
 10
46.085604
 20
8.506293
 30
0.0
  0
LWPOLYLINE
  5
223
100
AcDbEntity
  8
Layer_1
 62
7
100
AcDbPolyline
 90
4
 70
1
 10
47.507094
 20
7.146626
 30
0.0
 10
45.405760
 20
5.045275
 30
0.0
 10
44.973133
 20
5.416104
 30
0.0
 10
47.074467
 20
7.517455
 30
0.0
  0
LWPOLYLINE
  5
224
100
AcDbEntity
  8
Layer_1
 62
7
100
AcDbPolyline
 90
4
 70
1
 10
48.495957
 20
6.157760
 30
0.0
 10
46.394623
 20
3.994614
 30
0.0
 10
45.961997
 20
4.427237
 30
0.0
 10
48.125132
 20
6.528589
 30
0.0
  0
LWPOLYLINE
  5
225
100
AcDbEntity
  8
Layer_1
 62
7
100
AcDbPolyline
 90
24
 70
1
 10
50.226466
 20
9.309745
 30
0.0
 10
50.782703
 20
9.124359
 30
0.0
 10
51.153525
 20
8.691735
 30
0.0
 10
51.277144
 20
8.073697
 30
0.0
 10
51.029935
 20
7.517483
 30
0.0
 10
50.473698
 20
7.208450
 30
0.0
 10
49.917464
 20
7.208450
 30
0.0
 10
49.423031
 20
7.517483
 30
0.0
 10
49.114012
 20
8.073697
 30
0.0
 10
49.237631
 20
8.691735
 30
0.0
 10
49.608456
 20
9.124359
 30
0.0
 10
50.226494
 20
9.309745
 30
0.0
 10
50.226494
 20
8.568116
 30
0.0
 10
50.411908
 20
8.506321
 30
0.0
 10
50.535527
 20
8.382730
 30
0.0
 10
50.535527
 20
8.197345
 30
0.0
 10
50.473732
 20
8.011959
 30
0.0
 10
50.288318
 20
7.888368
 30
0.0
 10
50.102904
 20
7.888368
 30
0.0
 10
49.917489
 20
8.011959
 30
0.0
 10
49.855694
 20
8.197345
 30
0.0
 10
49.855694
 20
8.382730
 30
0.0
 10
50.041108
 20
8.506321
 30
0.0
 10
50.226523
 20
8.568116
 30
0.0
  0
LWPOLYLINE
  5
226
100
AcDbEntity
  8
Layer_1
 62
7
100
AcDbPolyline
 90
8
 70
1
 10
51.400740
 20
6.034141
 30
0.0
 10
48.990387
 20
6.034141
 30
0.0
 10
23.218152
 20
31.806371
 30
0.0
 10
23.218152
 20
32.795237
 30
0.0
 10
49.670232
 20
59.247329
 30
0.0
 10
50.720896
 20
59.247329
 30
0.0
 10
77.172976
 20
32.795237
 30
0.0
 10
77.172976
 20
31.806371
 30
0.0
  0
LWPOLYLINE
  5
227
100
AcDbEntity
  8
Layer_1
 62
7
100
AcDbPolyline
 90
2
 70
0
 10
113.142858
 20
281.123402
 30
0.0
 10
112.215798
 20
279.331087
 30
0.0
  0
LWPOLYLINE
  5
228
100
AcDbEntity
  8
Layer_1
 62
7
100
AcDbPolyline
 90
4
 70
0
 10
91.511484
 20
282.915714
 30
0.0
 10
91.511484
 20
279.331087
 30
0.0
 10
100.534859
 20
279.331087
 30
0.0
 10
100.534859
 20
282.915714
 30
0.0
  0
LWPOLYLINE
  5
229
100
AcDbEntity
  8
Layer_1
 62
7
100
AcDbPolyline
 90
4
 70
0
 10
125.750857
 20
282.915714
 30
0.0
 10
125.750857
 20
279.331087
 30
0.0
 10
134.774229
 20
279.331087
 30
0.0
 10
134.774229
 20
282.915714
 30
0.0
  0
LWPOLYLINE
  5
22a
100
AcDbEntity
  8
Layer_1
 62
7
100
AcDbPolyline
 90
25
 70
0
 10
3.131878
 20
276.982529
 30
0.0
 10
3.131878
 20
273.336097
 30
0.0
 10
6.283879
 20
273.336097
 30
0.0
 10
6.283879
 20
271.914608
 30
0.0
 10
3.131878
 20
271.914608
 30
0.0
 10
3.131878
 20
233.905212
 30
0.0
 10
18.706467
 20
233.905212
 30
0.0
 10
18.706467
 20
236.748192
 30
0.0
 10
19.571720
 20
236.748192
 30
0.0
 10
19.571720
 20
233.905212
 30
0.0
 10
23.527171
 20
233.905212
 30
0.0
 10
23.527171
 20
236.748192
 30
0.0
 10
24.701445
 20
236.748192
 30
0.0
 10
24.701445
 20
233.905212
 30
0.0
 10
34.590073
 20
233.905212
 30
0.0
 10
34.590073
 20
236.748192
 30
0.0
 10
35.455329
 20
236.748192
 30
0.0
 10
35.455329
 20
233.905212
 30
0.0
 10
39.719801
 20
233.905212
 30
0.0
 10
39.719801
 20
236.748192
 30
0.0
 10
40.832269
 20
236.748192
 30
0.0
 10
40.832269
 20
233.905212
 30
0.0
 10
43.675251
 20
233.905212
 30
0.0
 10
43.675251
 20
274.448582
 30
0.0
 10
42.253761
 20
274.448582
 30
0.0
  0
LWPOLYLINE
  5
22b
100
AcDbEntity
  8
Layer_1
 62
7
100
AcDbPolyline
 90
16
 70
0
 10
3.131878
 20
276.982529
 30
0.0
 10
9.683093
 20
276.982529
 30
0.0
 10
9.683093
 20
275.004825
 30
0.0
 10
12.155250
 20
273.706926
 30
0.0
 10
14.751014
 20
272.594469
 30
0.0
 10
17.408585
 20
271.729193
 30
0.0
 10
20.127957
 20
271.049360
 30
0.0
 10
22.909133
 20
270.616737
 30
0.0
 10
25.690309
 20
270.431351
 30
0.0
 10
28.533291
 20
270.493146
 30
0.0
 10
31.314467
 20
270.802179
 30
0.0
 10
34.095643
 20
271.296598
 30
0.0
 10
36.815014
 20
272.038255
 30
0.0
 10
39.410779
 20
272.965326
 30
0.0
 10
42.006543
 20
274.139578
 30
0.0
 10
42.253753
 20
274.448582
 30
0.0
  0
LWPOLYLINE
  5
22c
100
AcDbEntity
  8
Layer_1
 62
7
100
AcDbPolyline
 90
2
 70
0
 10
9.930308
 20
274.757587
 30
0.0
 10
9.930308
 20
279.701912
 30
0.0
  0
LWPOLYLINE
  5
22d
100
AcDbEntity
  8
Layer_1
 62
7
100
AcDbPolyline
 90
6
 70
0
 10
11.784427
 20
281.556028
 30
0.0
 10
11.166386
 20
281.432409
 30
0.0
 10
10.671956
 20
281.185200
 30
0.0
 10
10.301134
 20
280.814377
 30
0.0
 10
10.053924
 20
280.258140
 30
0.0
 10
9.930305
 20
279.701906
 30
0.0
  0
LWPOLYLINE
  5
22e
100
AcDbEntity
  8
Layer_1
 62
7
100
AcDbPolyline
 90
2
 70
0
 10
11.784427
 20
281.556028
 30
0.0
 10
39.967016
 20
281.556028
 30
0.0
  0
LWPOLYLINE
  5
22f
100
AcDbEntity
  8
Layer_1
 62
7
100
AcDbPolyline
 90
6
 70
0
 10
42.006543
 20
279.516501
 30
0.0
 10
41.882924
 20
280.134539
 30
0.0
 10
41.573906
 20
280.690773
 30
0.0
 10
41.141279
 20
281.185206
 30
0.0
 10
40.585042
 20
281.432415
 30
0.0
 10
39.967004
 20
281.556034
 30
0.0
  0
LWPOLYLINE
  5
230
100
AcDbEntity
  8
Layer_1
 62
7
100
AcDbPolyline
 90
2
 70
0
 10
42.006543
 20
279.516501
 30
0.0
 10
42.006543
 20
274.448582
 30
0.0
  0
LWPOLYLINE
  5
231
100
AcDbEntity
  8
Layer_1
 62
7
100
AcDbPolyline
 90
2
 70
0
 10
143.797603
 20
279.269283
 30
0.0
 10
143.797603
 20
-0.084441
 30
0.0
  0
LWPOLYLINE
  5
232
100
AcDbEntity
  8
Layer_1
 62
7
100
AcDbPolyline
 90
2
 70
0
 10
-0.267338
 20
279.269283
 30
0.0
 10
143.797603
 20
279.269283
 30
0.0
  0
LWPOLYLINE
  5
233
100
AcDbEntity
  8
Layer_1
 62
7
100
AcDbPolyline
 90
3
 70
0
 10
-0.267338
 20
279.269283
 30
0.0
 10
-0.267338
 20
-0.084441
 30
0.0
 10
143.797603
 20
-0.084441
 30
0.0
  0
LWPOLYLINE
  5
234
100
AcDbEntity
  8
Layer_1
 62
7
100
AcDbPolyline
 90
10
 70
0
 10
132.734701
 20
63.759008
 30
0.0
 10
133.167328
 20
63.882598
 30
0.0
 10
133.599957
 20
64.129779
 30
0.0
 10
133.908976
 20
64.500608
 30
0.0
 10
134.094390
 20
64.933231
 30
0.0
 10
134.094390
 20
65.427650
 30
0.0
 10
133.908976
 20
65.922097
 30
0.0
 10
133.599957
 20
66.292926
 30
0.0
 10
133.167328
 20
66.540107
 30
0.0
 10
132.734701
 20
66.601902
 30
0.0
  0
LWPOLYLINE
  5
235
100
AcDbEntity
  8
Layer_1
 62
7
100
AcDbPolyline
 90
10
 70
0
 10
104.366701
 20
66.601987
 30
0.0
 10
103.872268
 20
66.540192
 30
0.0
 10
103.439642
 20
66.293011
 30
0.0
 10
103.130623
 20
65.922182
 30
0.0
 10
102.945209
 20
65.427735
 30
0.0
 10
102.945209
 20
64.933316
 30
0.0
 10
103.130623
 20
64.500693
 30
0.0
 10
103.439642
 20
64.129864
 30
0.0
 10
103.872268
 20
63.882683
 30
0.0
 10
104.366701
 20
63.759093
 30
0.0
  0
LWPOLYLINE
  5
236
100
AcDbEntity
  8
Layer_1
 62
7
100
AcDbPolyline
 90
2
 70
0
 10
132.734701
 20
66.601987
 30
0.0
 10
104.366701
 20
66.601987
 30
0.0
  0
LWPOLYLINE
  5
237
100
AcDbEntity
  8
Layer_1
 62
7
100
AcDbPolyline
 90
2
 70
0
 10
132.734701
 20
63.759008
 30
0.0
 10
104.366701
 20
63.759008
 30
0.0
  0
LWPOLYLINE
  5
238
100
AcDbEntity
  8
Layer_1
 62
7
100
AcDbPolyline
 90
10
 70
0
 10
10.795564
 20
66.601987
 30
0.0
 10
10.301134
 20
66.540192
 30
0.0
 10
9.868504
 20
66.293011
 30
0.0
 10
9.559485
 20
65.922182
 30
0.0
 10
9.374071
 20
65.427735
 30
0.0
 10
9.374071
 20
64.933316
 30
0.0
 10
9.559485
 20
64.500693
 30
0.0
 10
9.868504
 20
64.129864
 30
0.0
 10
10.301134
 20
63.882683
 30
0.0
 10
10.795564
 20
63.759093
 30
0.0
  0
LWPOLYLINE
  5
239
100
AcDbEntity
  8
Layer_1
 62
7
100
AcDbPolyline
 90
11
 70
0
 10
75.442465
 20
63.759008
 30
0.0
 10
75.936898
 20
63.882598
 30
0.0
 10
76.369524
 20
64.129779
 30
0.0
 10
76.678543
 20
64.500608
 30
0.0
 10
76.802162
 20
64.933231
 30
0.0
 10
76.802162
 20
65.427650
 30
0.0
 10
76.678543
 20
65.922097
 30
0.0
 10
76.369524
 20
66.292926
 30
0.0
 10
75.936898
 20
66.540107
 30
0.0
 10
75.442465
 20
66.601902
 30
0.0
 10
10.795564
 20
66.601987
 30
0.0
  0
LWPOLYLINE
  5
23a
100
AcDbEntity
  8
Layer_1
 62
7
100
AcDbPolyline
 90
2
 70
0
 10
10.795564
 20
63.759008
 30
0.0
 10
75.442465
 20
63.759008
 30
0.0
  0
ENDSEC
  0
SECTION
  2
OBJECTS
  0
DICTIONARY
  5
C
330
0
100
AcDbDictionary
  3
ACAD_GROUP
350
D
  3
ACAD_MLINESTYLE
350
17
  0
DICTIONARY
  5
D
330
C
100
AcDbDictionary
  0
DICTIONARY
  5
1A
330
C
100
AcDbDictionary
  0
DICTIONARY
  5
17
330
C
100
AcDbDictionary
  3
STANDARD
350
18
  0
DICTIONARY
  5
19
330
C
100
AcDbDictionary
  0
ENDSEC
  0
EOF
